<?xml version="1.0" encoding="UTF-8" standalone="no"?>
<!DOCTYPE svg PUBLIC "-//W3C//DTD SVG 1.1//EN"
 "http://www.w3.org/Graphics/SVG/1.1/DTD/svg11.dtd">
<!-- Generated by graphviz version 2.38.0 (20140413.2041)
 -->
<!-- Title: CCCC_Project::add_userel Pages: 1 -->
<svg width="498pt" height="116pt"
 viewBox="0.00 0.00 498.00 115.50" xmlns="http://www.w3.org/2000/svg" xmlns:xlink="http://www.w3.org/1999/xlink">
<g id="graph0" class="graph" transform="scale(1 1) rotate(0) translate(4 111.5)">
<title>CCCC_Project::add_userel</title>
<polygon fill="white" stroke="none" points="-4,4 -4,-111.5 494,-111.5 494,4 -4,4"/>
<!-- Node1 -->
<g id="node1" class="node"><title>Node1</title>
<polygon fill="#bfbfbf" stroke="black" points="0,-60.5 0,-79.5 143,-79.5 143,-60.5 0,-60.5"/>
<text text-anchor="middle" x="71.5" y="-67.5" font-family="Helvetica,sans-Serif" font-size="10.00">CCCC_Project::add_userel</text>
</g>
<!-- Node2 -->
<g id="node2" class="node"><title>Node2</title>
<g id="a_node2"><a xlink:href="../../d8/dcf/classCCCC__Table.html#a8e08fe4f6edb07f1fbf2813c66bb3606" target="_top" xlink:title="CCCC_Table::find_or\l_insert">
<polygon fill="white" stroke="black" points="359.5,-77 359.5,-107 475.5,-107 475.5,-77 359.5,-77"/>
<text text-anchor="start" x="367.5" y="-95" font-family="Helvetica,sans-Serif" font-size="10.00">CCCC_Table::find_or</text>
<text text-anchor="middle" x="417.5" y="-84" font-family="Helvetica,sans-Serif" font-size="10.00">_insert</text>
</a>
</g>
</g>
<!-- Node1&#45;&gt;Node2 -->
<g id="edge1" class="edge"><title>Node1&#45;&gt;Node2</title>
<path fill="none" stroke="midnightblue" d="M143.36,-74.5317C203.786,-78.3962 290.042,-83.9126 349.372,-87.7069"/>
<polygon fill="midnightblue" stroke="midnightblue" points="349.185,-91.2021 359.389,-88.3475 349.632,-84.2163 349.185,-91.2021"/>
</g>
<!-- Node3 -->
<g id="node3" class="node"><title>Node3</title>
<g id="a_node3"><a xlink:href="../../d2/d65/classCCCC__UseRelationship.html#aea65f893850f8e1903c3e53ac04170f6" target="_top" xlink:title="CCCC_UseRelationship\l::add_extent">
<polygon fill="white" stroke="black" points="179,-33 179,-63 309,-63 309,-33 179,-33"/>
<text text-anchor="start" x="187" y="-51" font-family="Helvetica,sans-Serif" font-size="10.00">CCCC_UseRelationship</text>
<text text-anchor="middle" x="244" y="-40" font-family="Helvetica,sans-Serif" font-size="10.00">::add_extent</text>
</a>
</g>
</g>
<!-- Node1&#45;&gt;Node3 -->
<g id="edge2" class="edge"><title>Node1&#45;&gt;Node3</title>
<path fill="none" stroke="midnightblue" d="M143.326,-60.8611C151.809,-59.7665 160.489,-58.6466 169.015,-57.5464"/>
<polygon fill="midnightblue" stroke="midnightblue" points="169.463,-61.0177 178.933,-56.2667 168.567,-54.0753 169.463,-61.0177"/>
</g>
<!-- Node3&#45;&gt;Node2 -->
<g id="edge3" class="edge"><title>Node3&#45;&gt;Node2</title>
<path fill="none" stroke="midnightblue" d="M303.541,-63.0192C318.346,-66.8177 334.359,-70.926 349.545,-74.822"/>
<polygon fill="midnightblue" stroke="midnightblue" points="348.828,-78.2513 359.384,-77.3462 350.567,-71.4709 348.828,-78.2513"/>
</g>
<!-- Node4 -->
<g id="node4" class="node"><title>Node4</title>
<g id="a_node4"><a xlink:href="../../df/d99/classCCCC__Extent.html#a82a7a03bd389c67ba2f5dc7787e89739" target="_top" xlink:title="CCCC_Extent::get_visibility">
<polygon fill="white" stroke="black" points="346,-38.5 346,-57.5 489,-57.5 489,-38.5 346,-38.5"/>
<text text-anchor="middle" x="417.5" y="-45.5" font-family="Helvetica,sans-Serif" font-size="10.00">CCCC_Extent::get_visibility</text>
</a>
</g>
</g>
<!-- Node3&#45;&gt;Node4 -->
<g id="edge4" class="edge"><title>Node3&#45;&gt;Node4</title>
<path fill="none" stroke="midnightblue" d="M309.348,-48C317.888,-48 326.729,-48 335.505,-48"/>
<polygon fill="midnightblue" stroke="midnightblue" points="335.753,-51.5001 345.753,-48 335.753,-44.5001 335.753,-51.5001"/>
</g>
<!-- Node5 -->
<g id="node5" class="node"><title>Node5</title>
<g id="a_node5"><a xlink:href="../../df/d99/classCCCC__Extent.html#abe27f2b34d0542894c6339274e8d1834" target="_top" xlink:title="CCCC_Extent::get_usetype">
<polygon fill="white" stroke="black" points="345,-0.5 345,-19.5 490,-19.5 490,-0.5 345,-0.5"/>
<text text-anchor="middle" x="417.5" y="-7.5" font-family="Helvetica,sans-Serif" font-size="10.00">CCCC_Extent::get_usetype</text>
</a>
</g>
</g>
<!-- Node3&#45;&gt;Node5 -->
<g id="edge5" class="edge"><title>Node3&#45;&gt;Node5</title>
<path fill="none" stroke="midnightblue" d="M309.348,-33.7421C327.225,-29.781 346.428,-25.5262 363.57,-21.728"/>
<polygon fill="midnightblue" stroke="midnightblue" points="364.393,-25.1306 373.399,-19.5501 362.878,-18.2963 364.393,-25.1306"/>
</g>
</g>
</svg>
