<?xml version="1.0" encoding="UTF-8" standalone="no"?>
<!DOCTYPE svg PUBLIC "-//W3C//DTD SVG 1.1//EN"
 "http://www.w3.org/Graphics/SVG/1.1/DTD/svg11.dtd">
<!-- Generated by graphviz version 2.38.0 (20140413.2041)
 -->
<!-- Title: CCCC_Project::add_member Pages: 1 -->
<svg width="672pt" height="94pt"
 viewBox="0.00 0.00 672.00 94.10" xmlns="http://www.w3.org/2000/svg" xmlns:xlink="http://www.w3.org/1999/xlink">
<g id="graph0" class="graph" transform="scale(1 1) rotate(0) translate(4 90.0952)">
<title>CCCC_Project::add_member</title>
<polygon fill="white" stroke="none" points="-4,4 -4,-90.0952 668,-90.0952 668,4 -4,4"/>
<!-- Node1 -->
<g id="node1" class="node"><title>Node1</title>
<polygon fill="#bfbfbf" stroke="black" points="0,-47.5 0,-66.5 152,-66.5 152,-47.5 0,-47.5"/>
<text text-anchor="middle" x="76" y="-54.5" font-family="Helvetica,sans-Serif" font-size="10.00">CCCC_Project::add_member</text>
</g>
<!-- Node2 -->
<g id="node2" class="node"><title>Node2</title>
<g id="a_node2"><a xlink:href="../../db/d6a/classCCCC__Item.html#aa8e1c13780b4a9191d00b85641cdde1d" target="_top" xlink:title="CCCC_Item::Extract">
<polygon fill="white" stroke="black" points="554,-44.5 554,-63.5 664,-63.5 664,-44.5 554,-44.5"/>
<text text-anchor="middle" x="609" y="-51.5" font-family="Helvetica,sans-Serif" font-size="10.00">CCCC_Item::Extract</text>
</a>
</g>
</g>
<!-- Node1&#45;&gt;Node2 -->
<g id="edge1" class="edge"><title>Node1&#45;&gt;Node2</title>
<path fill="none" stroke="midnightblue" d="M136.838,-66.547C221.908,-78.602 382.531,-95.7524 518,-78 535.23,-75.7421 553.854,-71.1508 569.664,-66.583"/>
<polygon fill="midnightblue" stroke="midnightblue" points="571.028,-69.8285 579.605,-63.6095 569.022,-63.1221 571.028,-69.8285"/>
</g>
<!-- Node3 -->
<g id="node3" class="node"><title>Node3</title>
<g id="a_node3"><a xlink:href="../../d8/dcf/classCCCC__Table.html#a8e08fe4f6edb07f1fbf2813c66bb3606" target="_top" xlink:title="CCCC_Table::find_or\l_insert">
<polygon fill="white" stroke="black" points="385.5,-39 385.5,-69 501.5,-69 501.5,-39 385.5,-39"/>
<text text-anchor="start" x="393.5" y="-57" font-family="Helvetica,sans-Serif" font-size="10.00">CCCC_Table::find_or</text>
<text text-anchor="middle" x="443.5" y="-46" font-family="Helvetica,sans-Serif" font-size="10.00">_insert</text>
</a>
</g>
</g>
<!-- Node1&#45;&gt;Node3 -->
<g id="edge2" class="edge"><title>Node1&#45;&gt;Node3</title>
<path fill="none" stroke="midnightblue" d="M152.289,-56.382C217.812,-55.8442 311.92,-55.0718 375.029,-54.5538"/>
<polygon fill="midnightblue" stroke="midnightblue" points="375.3,-58.0518 385.271,-54.4697 375.242,-51.052 375.3,-58.0518"/>
</g>
<!-- Node4 -->
<g id="node4" class="node"><title>Node4</title>
<g id="a_node4"><a xlink:href="../../d6/d85/classCCCC__Record.html#ad74adbd61670b67ceb4c5688aedad440" target="_top" xlink:title="CCCC_Record::add_extent">
<polygon fill="white" stroke="black" points="188,-9.5 188,-28.5 333,-28.5 333,-9.5 188,-9.5"/>
<text text-anchor="middle" x="260.5" y="-16.5" font-family="Helvetica,sans-Serif" font-size="10.00">CCCC_Record::add_extent</text>
</a>
</g>
</g>
<!-- Node1&#45;&gt;Node4 -->
<g id="edge3" class="edge"><title>Node1&#45;&gt;Node4</title>
<path fill="none" stroke="midnightblue" d="M123.052,-47.411C147.569,-42.3061 177.91,-35.9887 203.75,-30.6082"/>
<polygon fill="midnightblue" stroke="midnightblue" points="204.702,-33.9851 213.779,-28.5201 203.275,-27.1321 204.702,-33.9851"/>
</g>
<!-- Node4&#45;&gt;Node3 -->
<g id="edge6" class="edge"><title>Node4&#45;&gt;Node3</title>
<path fill="none" stroke="midnightblue" d="M310.959,-28.5639C330.838,-32.4079 354.069,-36.9001 375.43,-41.0306"/>
<polygon fill="midnightblue" stroke="midnightblue" points="374.934,-44.4995 385.417,-42.9618 376.263,-37.6269 374.934,-44.4995"/>
</g>
<!-- Node5 -->
<g id="node5" class="node"><title>Node5</title>
<g id="a_node5"><a xlink:href="../../df/d99/classCCCC__Extent.html#abaf126bf784cc83e12eb98434674c4df" target="_top" xlink:title="CCCC_Extent::GetFromItem">
<polygon fill="white" stroke="black" points="369,-0.5 369,-19.5 518,-19.5 518,-0.5 369,-0.5"/>
<text text-anchor="middle" x="443.5" y="-7.5" font-family="Helvetica,sans-Serif" font-size="10.00">CCCC_Extent::GetFromItem</text>
</a>
</g>
</g>
<!-- Node4&#45;&gt;Node5 -->
<g id="edge4" class="edge"><title>Node4&#45;&gt;Node5</title>
<path fill="none" stroke="midnightblue" d="M333.036,-15.443C341.488,-15.0227 350.17,-14.591 358.771,-14.1633"/>
<polygon fill="midnightblue" stroke="midnightblue" points="358.997,-17.6565 368.811,-13.6641 358.65,-10.6651 358.997,-17.6565"/>
</g>
<!-- Node5&#45;&gt;Node2 -->
<g id="edge5" class="edge"><title>Node5&#45;&gt;Node2</title>
<path fill="none" stroke="midnightblue" d="M481.925,-19.536C493.502,-22.5228 506.288,-25.8599 518,-29 533.145,-33.0605 549.688,-37.62 564.412,-41.7223"/>
<polygon fill="midnightblue" stroke="midnightblue" points="563.703,-45.1582 574.276,-44.4776 565.587,-38.4163 563.703,-45.1582"/>
</g>
</g>
</svg>
