<?xml version="1.0" encoding="UTF-8" standalone="no"?>
<!DOCTYPE svg PUBLIC "-//W3C//DTD SVG 1.1//EN"
 "http://www.w3.org/Graphics/SVG/1.1/DTD/svg11.dtd">
<!-- Generated by graphviz version 2.38.0 (20140413.2041)
 -->
<!-- Title: CCCC_Project::add_rejected_extent Pages: 1 -->
<svg width="1465pt" height="242pt"
 viewBox="0.00 0.00 1465.00 242.01" xmlns="http://www.w3.org/2000/svg" xmlns:xlink="http://www.w3.org/1999/xlink">
<g id="graph0" class="graph" transform="scale(1 1) rotate(0) translate(4 238.014)">
<title>CCCC_Project::add_rejected_extent</title>
<polygon fill="white" stroke="none" points="-4,4 -4,-238.014 1461,-238.014 1461,4 -4,4"/>
<!-- Node1 -->
<g id="node1" class="node"><title>Node1</title>
<polygon fill="#bfbfbf" stroke="black" points="0,-33 0,-63 152,-63 152,-33 0,-33"/>
<text text-anchor="start" x="8" y="-51" font-family="Helvetica,sans-Serif" font-size="10.00">CCCC_Project::add_rejected</text>
<text text-anchor="middle" x="76" y="-40" font-family="Helvetica,sans-Serif" font-size="10.00">_extent</text>
</g>
<!-- Node2 -->
<g id="node2" class="node"><title>Node2</title>
<g id="a_node2"><a xlink:href="../../d3/d5e/classParseStore.html#a94879219275d09e9b68dd859007eb2e8" target="_top" xlink:title="ParseStore::record\l_other_extent">
<polygon fill="white" stroke="black" points="188,-33 188,-63 293,-63 293,-33 188,-33"/>
<text text-anchor="start" x="196" y="-51" font-family="Helvetica,sans-Serif" font-size="10.00">ParseStore::record</text>
<text text-anchor="middle" x="240.5" y="-40" font-family="Helvetica,sans-Serif" font-size="10.00">_other_extent</text>
</a>
</g>
</g>
<!-- Node1&#45;&gt;Node2 -->
<g id="edge1" class="edge"><title>Node1&#45;&gt;Node2</title>
<path fill="none" stroke="midnightblue" d="M162.33,-48C171.07,-48 179.746,-48 187.953,-48"/>
<polygon fill="midnightblue" stroke="midnightblue" points="162.066,-44.5001 152.066,-48 162.066,-51.5001 162.066,-44.5001"/>
</g>
<!-- Node3 -->
<g id="node3" class="node"><title>Node3</title>
<g id="a_node3"><a xlink:href="../../d0/df6/classCParser.html#a2d7f88102bb890c77ed0b748581845bf" target="_top" xlink:title="CParser::end_of_file">
<polygon fill="white" stroke="black" points="508.5,-38.5 508.5,-57.5 621.5,-57.5 621.5,-38.5 508.5,-38.5"/>
<text text-anchor="middle" x="565" y="-45.5" font-family="Helvetica,sans-Serif" font-size="10.00">CParser::end_of_file</text>
</a>
</g>
</g>
<!-- Node2&#45;&gt;Node3 -->
<g id="edge2" class="edge"><title>Node2&#45;&gt;Node3</title>
<path fill="none" stroke="midnightblue" d="M303.656,-48C362.886,-48 451.248,-48 508.255,-48"/>
<polygon fill="midnightblue" stroke="midnightblue" points="303.315,-44.5001 293.315,-48 303.315,-51.5001 303.315,-44.5001"/>
</g>
<!-- Node7 -->
<g id="node7" class="node"><title>Node7</title>
<g id="a_node7"><a xlink:href="../../d0/df6/classCParser.html#ab3ab57ace628c2476dd8dfe5a96f9a15" target="_top" xlink:title="CParser::definition\l_or_declaration">
<polygon fill="white" stroke="black" points="342.5,-111 342.5,-141 445.5,-141 445.5,-111 342.5,-111"/>
<text text-anchor="start" x="350.5" y="-129" font-family="Helvetica,sans-Serif" font-size="10.00">CParser::definition</text>
<text text-anchor="middle" x="394" y="-118" font-family="Helvetica,sans-Serif" font-size="10.00">_or_declaration</text>
</a>
</g>
</g>
<!-- Node2&#45;&gt;Node7 -->
<g id="edge6" class="edge"><title>Node2&#45;&gt;Node7</title>
<path fill="none" stroke="midnightblue" d="M279.906,-67.7732C305.915,-81.164 339.757,-98.588 363.621,-110.874"/>
<polygon fill="midnightblue" stroke="midnightblue" points="281.204,-64.5049 270.711,-63.0392 277.999,-70.7285 281.204,-64.5049"/>
</g>
<!-- Node17 -->
<g id="node17" class="node"><title>Node17</title>
<g id="a_node17"><a xlink:href="../../d6/d6b/classJParser.html#a8ec8a5877e6bd6b1fe20850a9ffe0902" target="_top" xlink:title="JParser::compilationUnit">
<polygon fill="white" stroke="black" points="329,-0.5 329,-19.5 459,-19.5 459,-0.5 329,-0.5"/>
<text text-anchor="middle" x="394" y="-7.5" font-family="Helvetica,sans-Serif" font-size="10.00">JParser::compilationUnit</text>
</a>
</g>
</g>
<!-- Node2&#45;&gt;Node17 -->
<g id="edge20" class="edge"><title>Node2&#45;&gt;Node17</title>
<path fill="none" stroke="midnightblue" d="M303.347,-32.4871C320.809,-28.1074 339.29,-23.4718 354.908,-19.5545"/>
<polygon fill="midnightblue" stroke="midnightblue" points="302.062,-29.201 293.214,-35.0288 303.765,-35.9907 302.062,-29.201"/>
</g>
<!-- Node4 -->
<g id="node4" class="node"><title>Node4</title>
<g id="a_node4"><a xlink:href="../../d0/df6/classCParser.html#a4f02da23566af37123efb3768769c09b" target="_top" xlink:title="CParser::start">
<polygon fill="white" stroke="black" points="695.5,-38.5 695.5,-57.5 776.5,-57.5 776.5,-38.5 695.5,-38.5"/>
<text text-anchor="middle" x="736" y="-45.5" font-family="Helvetica,sans-Serif" font-size="10.00">CParser::start</text>
</a>
</g>
</g>
<!-- Node3&#45;&gt;Node4 -->
<g id="edge3" class="edge"><title>Node3&#45;&gt;Node4</title>
<path fill="none" stroke="midnightblue" d="M631.838,-48C653.269,-48 676.387,-48 695.295,-48"/>
<polygon fill="midnightblue" stroke="midnightblue" points="631.805,-44.5001 621.805,-48 631.805,-51.5001 631.805,-44.5001"/>
</g>
<!-- Node5 -->
<g id="node5" class="node"><title>Node5</title>
<g id="a_node5"><a xlink:href="../../db/d4a/classMain.html#a803470658c644fa9512140f9d8398dd5" target="_top" xlink:title="Main::ParseFiles">
<polygon fill="white" stroke="black" points="847,-19.5 847,-38.5 941,-38.5 941,-19.5 847,-19.5"/>
<text text-anchor="middle" x="894" y="-26.5" font-family="Helvetica,sans-Serif" font-size="10.00">Main::ParseFiles</text>
</a>
</g>
</g>
<!-- Node4&#45;&gt;Node5 -->
<g id="edge4" class="edge"><title>Node4&#45;&gt;Node5</title>
<path fill="none" stroke="midnightblue" d="M786.869,-41.9262C806.138,-39.5794 828.051,-36.9105 846.942,-34.6096"/>
<polygon fill="midnightblue" stroke="midnightblue" points="786.272,-38.4729 776.769,-43.1563 787.119,-45.4216 786.272,-38.4729"/>
</g>
<!-- Node6 -->
<g id="node6" class="node"><title>Node6</title>
<g id="a_node6"><a xlink:href="../../d6/d93/ccccmain_8cc.html#a3c04138a5bfe5d72780bb7e82a18e627" target="_top" xlink:title="main">
<polygon fill="white" stroke="black" points="1024.5,-19.5 1024.5,-38.5 1063.5,-38.5 1063.5,-19.5 1024.5,-19.5"/>
<text text-anchor="middle" x="1044" y="-26.5" font-family="Helvetica,sans-Serif" font-size="10.00">main</text>
</a>
</g>
</g>
<!-- Node5&#45;&gt;Node6 -->
<g id="edge5" class="edge"><title>Node5&#45;&gt;Node6</title>
<path fill="none" stroke="midnightblue" d="M951.15,-29C977.09,-29 1006.14,-29 1024.49,-29"/>
<polygon fill="midnightblue" stroke="midnightblue" points="951.017,-25.5001 941.017,-29 951.017,-32.5001 951.017,-25.5001"/>
</g>
<!-- Node8 -->
<g id="node8" class="node"><title>Node8</title>
<g id="a_node8"><a xlink:href="../../d0/df6/classCParser.html#a2b78ab2005bef5c43ee2d4689210eab1" target="_top" xlink:title="CParser::link_item">
<polygon fill="white" stroke="black" points="514.5,-97.5 514.5,-116.5 615.5,-116.5 615.5,-97.5 514.5,-97.5"/>
<text text-anchor="middle" x="565" y="-104.5" font-family="Helvetica,sans-Serif" font-size="10.00">CParser::link_item</text>
</a>
</g>
</g>
<!-- Node7&#45;&gt;Node8 -->
<g id="edge7" class="edge"><title>Node7&#45;&gt;Node8</title>
<path fill="none" stroke="midnightblue" d="M455.883,-119.155C475.126,-116.992 496.146,-114.629 514.493,-112.566"/>
<polygon fill="midnightblue" stroke="midnightblue" points="455.252,-115.704 445.706,-120.299 456.034,-122.66 455.252,-115.704"/>
</g>
<!-- Node11 -->
<g id="node11" class="node"><title>Node11</title>
<g id="a_node11"><a xlink:href="../../d0/df6/classCParser.html#a85eb09132fa5a588749cea062f0d11ea" target="_top" xlink:title="CParser::class_block_item">
<polygon fill="white" stroke="black" points="495,-165.5 495,-184.5 635,-184.5 635,-165.5 495,-165.5"/>
<text text-anchor="middle" x="565" y="-172.5" font-family="Helvetica,sans-Serif" font-size="10.00">CParser::class_block_item</text>
</a>
</g>
</g>
<!-- Node7&#45;&gt;Node11 -->
<g id="edge13" class="edge"><title>Node7&#45;&gt;Node11</title>
<path fill="none" stroke="midnightblue" d="M455.324,-143.49C480.89,-150.903 509.679,-159.25 531.201,-165.49"/>
<polygon fill="midnightblue" stroke="midnightblue" points="456.285,-140.125 445.706,-140.702 454.335,-146.848 456.285,-140.125"/>
</g>
<!-- Node8&#45;&gt;Node4 -->
<g id="edge8" class="edge"><title>Node8&#45;&gt;Node4</title>
<path fill="none" stroke="midnightblue" d="M599.114,-93.6511C619.667,-85.5491 646.704,-75.2211 671,-67 680.661,-63.7308 691.243,-60.464 700.971,-57.5844"/>
<polygon fill="midnightblue" stroke="midnightblue" points="597.59,-90.4902 589.585,-97.4307 600.171,-96.997 597.59,-90.4902"/>
</g>
<!-- Node9 -->
<g id="node9" class="node"><title>Node9</title>
<g id="a_node9"><a xlink:href="../../d0/df6/classCParser.html#a86906e492ff9c606fb3537078f46f93e" target="_top" xlink:title="CParser::extern_linkage\l_block">
<polygon fill="white" stroke="black" points="671,-126 671,-156 801,-156 801,-126 671,-126"/>
<text text-anchor="start" x="679" y="-144" font-family="Helvetica,sans-Serif" font-size="10.00">CParser::extern_linkage</text>
<text text-anchor="middle" x="736" y="-133" font-family="Helvetica,sans-Serif" font-size="10.00">_block</text>
</a>
</g>
</g>
<!-- Node8&#45;&gt;Node9 -->
<g id="edge9" class="edge"><title>Node8&#45;&gt;Node9</title>
<path fill="none" stroke="midnightblue" d="M625.676,-112.522C646.894,-116.324 670.404,-121.201 690.169,-125.941"/>
<polygon fill="midnightblue" stroke="midnightblue" points="626.244,-109.068 615.792,-110.801 625.043,-115.964 626.244,-109.068"/>
</g>
<!-- Node10 -->
<g id="node10" class="node"><title>Node10</title>
<g id="a_node10"><a xlink:href="../../d0/df6/classCParser.html#a4fad913a0694a5376ad76669d8943122" target="_top" xlink:title="CParser::namespace\l_block">
<polygon fill="white" stroke="black" points="678.5,-77 678.5,-107 793.5,-107 793.5,-77 678.5,-77"/>
<text text-anchor="start" x="686.5" y="-95" font-family="Helvetica,sans-Serif" font-size="10.00">CParser::namespace</text>
<text text-anchor="middle" x="736" y="-84" font-family="Helvetica,sans-Serif" font-size="10.00">_block</text>
</a>
</g>
</g>
<!-- Node8&#45;&gt;Node10 -->
<g id="edge11" class="edge"><title>Node8&#45;&gt;Node10</title>
<path fill="none" stroke="midnightblue" d="M617.016,-96.2169C636.313,-93.9036 658.389,-91.8902 678.185,-90.6256"/>
<polygon fill="midnightblue" stroke="midnightblue" points="616.394,-92.7675 606.91,-97.4907 617.269,-99.7126 616.394,-92.7675"/>
</g>
<!-- Node9&#45;&gt;Node8 -->
<g id="edge10" class="edge"><title>Node9&#45;&gt;Node8</title>
<path fill="none" stroke="midnightblue" d="M660.78,-132.774C635.072,-127.826 608.074,-121.774 589.499,-116.573"/>
<polygon fill="midnightblue" stroke="midnightblue" points="660.453,-136.273 670.928,-134.681 661.746,-129.394 660.453,-136.273"/>
</g>
<!-- Node10&#45;&gt;Node8 -->
<g id="edge12" class="edge"><title>Node10&#45;&gt;Node8</title>
<path fill="none" stroke="midnightblue" d="M668.292,-104.536C650.795,-106.358 632.232,-107.872 615.792,-108.797"/>
<polygon fill="midnightblue" stroke="midnightblue" points="668.884,-107.992 678.446,-103.43 668.126,-101.033 668.884,-107.992"/>
</g>
<!-- Node12 -->
<g id="node12" class="node"><title>Node12</title>
<g id="a_node12"><a xlink:href="../../d0/df6/classCParser.html#a4b9f00c05d44a13b3c18b28b52f5be9e" target="_top" xlink:title="CParser::class_block\l_item_list">
<polygon fill="white" stroke="black" points="679,-175 679,-205 793,-205 793,-175 679,-175"/>
<text text-anchor="start" x="687" y="-193" font-family="Helvetica,sans-Serif" font-size="10.00">CParser::class_block</text>
<text text-anchor="middle" x="736" y="-182" font-family="Helvetica,sans-Serif" font-size="10.00">_item_list</text>
</a>
</g>
</g>
<!-- Node11&#45;&gt;Node12 -->
<g id="edge14" class="edge"><title>Node11&#45;&gt;Node12</title>
<path fill="none" stroke="midnightblue" d="M645.497,-182.056C656.741,-183.054 668.104,-184.062 678.785,-185.011"/>
<polygon fill="midnightblue" stroke="midnightblue" points="645.497,-178.542 635.226,-181.144 644.878,-185.515 645.497,-178.542"/>
</g>
<!-- Node13 -->
<g id="node13" class="node"><title>Node13</title>
<g id="a_node13"><a xlink:href="../../d0/df6/classCParser.html#a06c7cac9034f27ad6d998b49a7b574c8" target="_top" xlink:title="CParser::class_block">
<polygon fill="white" stroke="black" points="837,-181.5 837,-200.5 951,-200.5 951,-181.5 837,-181.5"/>
<text text-anchor="middle" x="894" y="-188.5" font-family="Helvetica,sans-Serif" font-size="10.00">CParser::class_block</text>
</a>
</g>
</g>
<!-- Node12&#45;&gt;Node13 -->
<g id="edge15" class="edge"><title>Node12&#45;&gt;Node13</title>
<path fill="none" stroke="midnightblue" d="M803.404,-190.426C814.512,-190.497 825.941,-190.57 836.763,-190.64"/>
<polygon fill="midnightblue" stroke="midnightblue" points="803.342,-186.925 793.32,-190.361 803.297,-193.925 803.342,-186.925"/>
</g>
<!-- Node14 -->
<g id="node14" class="node"><title>Node14</title>
<g id="a_node14"><a xlink:href="../../d0/df6/classCParser.html#a40fba8426e7ac46e9926515ee81e97f3" target="_top" xlink:title="CParser::class_suffix">
<polygon fill="white" stroke="black" points="987,-184.5 987,-203.5 1101,-203.5 1101,-184.5 987,-184.5"/>
<text text-anchor="middle" x="1044" y="-191.5" font-family="Helvetica,sans-Serif" font-size="10.00">CParser::class_suffix</text>
</a>
</g>
</g>
<!-- Node13&#45;&gt;Node14 -->
<g id="edge16" class="edge"><title>Node13&#45;&gt;Node14</title>
<path fill="none" stroke="midnightblue" d="M961.558,-192.349C969.984,-192.52 978.539,-192.693 986.782,-192.86"/>
<polygon fill="midnightblue" stroke="midnightblue" points="961.444,-188.846 951.375,-192.143 961.302,-195.845 961.444,-188.846"/>
</g>
<!-- Node15 -->
<g id="node15" class="node"><title>Node15</title>
<g id="a_node15"><a xlink:href="../../d0/df6/classCParser.html#a1ed5fcfb2e97e3551fceabe81989a667" target="_top" xlink:title="CParser::class_declaration\l_or_definition">
<polygon fill="white" stroke="black" points="1137,-199 1137,-229 1280,-229 1280,-199 1137,-199"/>
<text text-anchor="start" x="1145" y="-217" font-family="Helvetica,sans-Serif" font-size="10.00">CParser::class_declaration</text>
<text text-anchor="middle" x="1208.5" y="-206" font-family="Helvetica,sans-Serif" font-size="10.00">_or_definition</text>
</a>
</g>
</g>
<!-- Node14&#45;&gt;Node15 -->
<g id="edge17" class="edge"><title>Node14&#45;&gt;Node15</title>
<path fill="none" stroke="midnightblue" d="M1111.47,-202.181C1119.86,-203.213 1128.46,-204.272 1136.91,-205.311"/>
<polygon fill="midnightblue" stroke="midnightblue" points="1111.73,-198.687 1101.38,-200.939 1110.88,-205.634 1111.73,-198.687"/>
</g>
<!-- Node15&#45;&gt;Node7 -->
<g id="edge18" class="edge"><title>Node15&#45;&gt;Node7</title>
<path fill="none" stroke="midnightblue" d="M1126.57,-222.027C1063.53,-227.59 973.791,-234 895,-234 735,-234 735,-234 735,-234 626.862,-234 595.377,-234.227 495,-194 463.04,-181.192 430.988,-156.887 412.079,-141.072"/>
<polygon fill="midnightblue" stroke="midnightblue" points="1127.19,-225.486 1136.84,-221.108 1126.57,-218.513 1127.19,-225.486"/>
</g>
<!-- Node16 -->
<g id="node16" class="node"><title>Node16</title>
<g id="a_node16"><a xlink:href="../../d0/df6/classCParser.html#a12561a45dab96760d7ab45896681dd33" target="_top" xlink:title="CParser::class_or_method\l_declaration_or_definition">
<polygon fill="white" stroke="black" points="1316,-199 1316,-229 1457,-229 1457,-199 1316,-199"/>
<text text-anchor="start" x="1324" y="-217" font-family="Helvetica,sans-Serif" font-size="10.00">CParser::class_or_method</text>
<text text-anchor="middle" x="1386.5" y="-206" font-family="Helvetica,sans-Serif" font-size="10.00">_declaration_or_definition</text>
</a>
</g>
</g>
<!-- Node15&#45;&gt;Node16 -->
<g id="edge19" class="edge"><title>Node15&#45;&gt;Node16</title>
<path fill="none" stroke="midnightblue" d="M1290.08,-214C1298.66,-214 1307.33,-214 1315.77,-214"/>
<polygon fill="midnightblue" stroke="midnightblue" points="1290.07,-210.5 1280.07,-214 1290.07,-217.5 1290.07,-210.5"/>
</g>
<!-- Node17&#45;&gt;Node5 -->
<g id="edge21" class="edge"><title>Node17&#45;&gt;Node5</title>
<path fill="none" stroke="midnightblue" d="M469.228,-12.832C573.575,-16.8131 760.521,-23.9456 846.91,-27.2415"/>
<polygon fill="midnightblue" stroke="midnightblue" points="469.211,-9.32891 459.085,-12.445 468.945,-16.3238 469.211,-9.32891"/>
</g>
</g>
</svg>
