<?xml version="1.0" encoding="UTF-8" standalone="no"?>
<!DOCTYPE svg PUBLIC "-//W3C//DTD SVG 1.1//EN"
 "http://www.w3.org/Graphics/SVG/1.1/DTD/svg11.dtd">
<!-- Generated by graphviz version 2.38.0 (20140413.2041)
 -->
<!-- Title: CCCC_Project::ToFile Pages: 1 -->
<!--zoomable 330 -->
<svg id="main" version="1.1" xmlns="http://www.w3.org/2000/svg" xmlns:xlink="http://www.w3.org/1999/xlink" xml:space="preserve" onload="init(evt)">
<style type="text/css"><![CDATA[
.edge:hover path { stroke: red; }
.edge:hover polygon { stroke: red; fill: red; }
]]></style>
<script type="text/javascript"><![CDATA[
var edges = document.getElementsByTagName('g');
if (edges && edges.length) {
  for (var i=0;i<edges.length;i++) {
    if (edges[i].id.substr(0,4)=='edge') {
      edges[i].setAttribute('class','edge');
    }
  }
}
]]></script>
        <defs>
                <circle id="rim" cx="0" cy="0" r="7"/>
                <circle id="rim2" cx="0" cy="0" r="3.5"/>
                <g id="zoomPlus">
                        <use xlink:href="#rim" fill="#404040">
                                <set attributeName="fill" to="#808080" begin="zoomplus.mouseover" end="zoomplus.mouseout"/>
                        </use>
                        <path d="M-4,0h8M0,-4v8" fill="none" stroke="white" stroke-width="1.5" pointer-events="none"/>
                </g>
                <g id="zoomMin">
                        <use xlink:href="#rim" fill="#404040">
                                <set attributeName="fill" to="#808080" begin="zoomminus.mouseover" end="zoomminus.mouseout"/>
                        </use>
                        <path d="M-4,0h8" fill="none" stroke="white" stroke-width="1.5" pointer-events="none"/>
                </g>
                <g id="dirArrow">
                        <path fill="none" stroke="white" stroke-width="1.5" d="M0,-3.0v7 M-2.5,-0.5L0,-3.0L2.5,-0.5"/>
                </g>
               <g id="resetDef">
                       <use xlink:href="#rim2" fill="#404040">
                               <set attributeName="fill" to="#808080" begin="reset.mouseover" end="reset.mouseout"/>
                       </use>
               </g>
        </defs>

<script type="text/javascript">
var viewWidth = 622;
var viewHeight = 330;
var sectionId = 'dynsection-18';
</script>
<script xlink:href="../../svgpan.js"/>
<svg id="graph" class="graph">
<g id="viewport">
<title>CCCC_Project::ToFile</title>
<polygon fill="white" stroke="none" points="-4,4 -4,-326.419 618,-326.419 618,4 -4,4"/>
<!-- Node1 -->
<g id="node1" class="node"><title>Node1</title>
<polygon fill="#bfbfbf" stroke="black" points="0,-174.5 0,-193.5 119,-193.5 119,-174.5 0,-174.5"/>
<text text-anchor="middle" x="59.5" y="-181.5" font-family="Helvetica,sans-Serif" font-size="10.00">CCCC_Project::ToFile</text>
</g>
<!-- Node2 -->
<g id="node2" class="node"><title>Node2</title>
<g id="a_node2"><a xlink:href="../../d8/dcf/classCCCC__Table.html#a0d099c7bc984323270cc8c63d5ff8379" target="_top" xlink:title="CCCC_Table::first_item">
<polygon fill="white" stroke="black" points="327.5,-269.5 327.5,-288.5 453.5,-288.5 453.5,-269.5 327.5,-269.5"/>
<text text-anchor="middle" x="390.5" y="-276.5" font-family="Helvetica,sans-Serif" font-size="10.00">CCCC_Table::first_item</text>
</a>
</g>
</g>
<!-- Node1&#45;&gt;Node2 -->
<g id="edge1" class="edge"><title>Node1&#45;&gt;Node2</title>
<path fill="none" stroke="midnightblue" d="M64.3613,-193.795C74.6718,-218.404 105.481,-282.599 155,-307 222.329,-340.177 313.281,-311.585 359.64,-292.601"/>
<polygon fill="midnightblue" stroke="midnightblue" points="361.248,-295.722 369.097,-288.606 358.524,-289.273 361.248,-295.722"/>
</g>
<!-- Node3 -->
<g id="node3" class="node"><title>Node3</title>
<g id="a_node3"><a xlink:href="../../d6/d9f/classCCCC__Module.html#a6f7f14ae0bef4dec23385b6abf14331f" target="_top" xlink:title="CCCC_Module::ToFile">
<polygon fill="white" stroke="black" points="159.5,-278.5 159.5,-297.5 280.5,-297.5 280.5,-278.5 159.5,-278.5"/>
<text text-anchor="middle" x="220" y="-285.5" font-family="Helvetica,sans-Serif" font-size="10.00">CCCC_Module::ToFile</text>
</a>
</g>
</g>
<!-- Node1&#45;&gt;Node3 -->
<g id="edge2" class="edge"><title>Node1&#45;&gt;Node3</title>
<path fill="none" stroke="midnightblue" d="M69.5829,-193.606C85.5189,-209.991 120.145,-243.548 155,-264 162.058,-268.141 169.958,-271.793 177.733,-274.919"/>
<polygon fill="midnightblue" stroke="midnightblue" points="176.5,-278.194 187.091,-278.467 178.982,-271.649 176.5,-278.194"/>
</g>
<!-- Node4 -->
<g id="node4" class="node"><title>Node4</title>
<g id="a_node4"><a xlink:href="../../db/d6a/classCCCC__Item.html#a87231c9aa43ece932511d1143b64367e" target="_top" xlink:title="CCCC_Item::Insert">
<polygon fill="white" stroke="black" points="503,-193.5 503,-212.5 607,-212.5 607,-193.5 503,-193.5"/>
<text text-anchor="middle" x="555" y="-200.5" font-family="Helvetica,sans-Serif" font-size="10.00">CCCC_Item::Insert</text>
</a>
</g>
</g>
<!-- Node1&#45;&gt;Node4 -->
<g id="edge24" class="edge"><title>Node1&#45;&gt;Node4</title>
<path fill="none" stroke="midnightblue" d="M66.3321,-174.403C79.2779,-154.151 112.646,-107.478 155,-90 280.306,-38.2913 337.267,-32.4499 460,-90 501.589,-109.501 531.166,-157.446 545.062,-184.193"/>
<polygon fill="midnightblue" stroke="midnightblue" points="542.013,-185.921 549.612,-193.303 548.275,-182.793 542.013,-185.921"/>
</g>
<!-- Node5 -->
<g id="node5" class="node"><title>Node5</title>
<g id="a_node5"><a xlink:href="../../db/d6a/classCCCC__Item.html#a5a3ccfe13d6c77b27cf93182f8cafb58" target="_top" xlink:title="CCCC_Item::ToFile">
<polygon fill="white" stroke="black" points="337,-117.5 337,-136.5 444,-136.5 444,-117.5 337,-117.5"/>
<text text-anchor="middle" x="390.5" y="-124.5" font-family="Helvetica,sans-Serif" font-size="10.00">CCCC_Item::ToFile</text>
</a>
</g>
</g>
<!-- Node1&#45;&gt;Node5 -->
<g id="edge26" class="edge"><title>Node1&#45;&gt;Node5</title>
<path fill="none" stroke="midnightblue" d="M68.0292,-174.283C82.5467,-156.441 116.406,-119.007 155,-105 222.143,-80.6315 306.841,-99.7622 353.873,-114.375"/>
<polygon fill="midnightblue" stroke="midnightblue" points="353.005,-117.772 363.596,-117.499 355.147,-111.107 353.005,-117.772"/>
</g>
<!-- Node6 -->
<g id="node6" class="node"><title>Node6</title>
<g id="a_node6"><a xlink:href="../../df/d99/classCCCC__Extent.html#a6fed4380d820bfad0a27934a62cf15be" target="_top" xlink:title="CCCC_Extent::AddToItem">
<polygon fill="white" stroke="black" points="321,-231.5 321,-250.5 460,-250.5 460,-231.5 321,-231.5"/>
<text text-anchor="middle" x="390.5" y="-238.5" font-family="Helvetica,sans-Serif" font-size="10.00">CCCC_Extent::AddToItem</text>
</a>
</g>
</g>
<!-- Node1&#45;&gt;Node6 -->
<g id="edge25" class="edge"><title>Node1&#45;&gt;Node6</title>
<path fill="none" stroke="midnightblue" d="M75.4718,-193.684C93.5081,-204.769 125.121,-222.373 155,-230 205.756,-242.957 264.657,-245.676 310.73,-245.172"/>
<polygon fill="midnightblue" stroke="midnightblue" points="311.013,-248.668 320.955,-245.005 310.899,-241.669 311.013,-248.668"/>
</g>
<!-- Node7 -->
<g id="node7" class="node"><title>Node7</title>
<g id="a_node7"><a xlink:href="../../d8/dcf/classCCCC__Table.html#a080274070f7d48b68bd8d3291818d76f" target="_top" xlink:title="CCCC_Table::next_item">
<polygon fill="white" stroke="black" points="326,-155.5 326,-174.5 455,-174.5 455,-155.5 326,-155.5"/>
<text text-anchor="middle" x="390.5" y="-162.5" font-family="Helvetica,sans-Serif" font-size="10.00">CCCC_Table::next_item</text>
</a>
</g>
</g>
<!-- Node1&#45;&gt;Node7 -->
<g id="edge9" class="edge"><title>Node1&#45;&gt;Node7</title>
<path fill="none" stroke="midnightblue" d="M119.319,-180.603C174.268,-177.43 256.501,-172.681 315.804,-169.256"/>
<polygon fill="midnightblue" stroke="midnightblue" points="316.075,-172.746 325.857,-168.675 315.672,-165.758 316.075,-172.746"/>
</g>
<!-- Node8 -->
<g id="node8" class="node"><title>Node8</title>
<g id="a_node8"><a xlink:href="../../dc/d1e/classCCCC__Member.html#a22edd2264d9f7fb3f80fcf7269b624e1" target="_top" xlink:title="CCCC_Member::ToFile">
<polygon fill="white" stroke="black" points="157.5,-114.5 157.5,-133.5 282.5,-133.5 282.5,-114.5 157.5,-114.5"/>
<text text-anchor="middle" x="220" y="-121.5" font-family="Helvetica,sans-Serif" font-size="10.00">CCCC_Member::ToFile</text>
</a>
</g>
</g>
<!-- Node1&#45;&gt;Node8 -->
<g id="edge10" class="edge"><title>Node1&#45;&gt;Node8</title>
<path fill="none" stroke="midnightblue" d="M85.3574,-174.49C104.407,-167.212 131.352,-156.938 155,-148 164.392,-144.45 174.567,-140.625 183.981,-137.095"/>
<polygon fill="midnightblue" stroke="midnightblue" points="185.315,-140.332 193.451,-133.546 182.859,-133.777 185.315,-140.332"/>
</g>
<!-- Node11 -->
<g id="node11" class="node"><title>Node11</title>
<g id="a_node11"><a xlink:href="../../d2/d65/classCCCC__UseRelationship.html#ad5a6c8660690de211b0a40b52313ae05" target="_top" xlink:title="CCCC_UseRelationship\l::ToFile">
<polygon fill="white" stroke="black" points="155,-191 155,-221 285,-221 285,-191 155,-191"/>
<text text-anchor="start" x="163" y="-209" font-family="Helvetica,sans-Serif" font-size="10.00">CCCC_UseRelationship</text>
<text text-anchor="middle" x="220" y="-198" font-family="Helvetica,sans-Serif" font-size="10.00">::ToFile</text>
</a>
</g>
</g>
<!-- Node1&#45;&gt;Node11 -->
<g id="edge18" class="edge"><title>Node1&#45;&gt;Node11</title>
<path fill="none" stroke="midnightblue" d="M119.069,-192.129C127.436,-193.291 136.133,-194.498 144.751,-195.694"/>
<polygon fill="midnightblue" stroke="midnightblue" points="144.421,-199.182 154.807,-197.09 145.383,-192.248 144.421,-199.182"/>
</g>
<!-- Node3&#45;&gt;Node2 -->
<g id="edge5" class="edge"><title>Node3&#45;&gt;Node2</title>
<path fill="none" stroke="midnightblue" d="M280.881,-284.802C292.631,-284.174 305.074,-283.509 317.18,-282.863"/>
<polygon fill="midnightblue" stroke="midnightblue" points="317.45,-286.353 327.249,-282.325 317.076,-279.363 317.45,-286.353"/>
</g>
<!-- Node3&#45;&gt;Node4 -->
<g id="edge3" class="edge"><title>Node3&#45;&gt;Node4</title>
<path fill="none" stroke="midnightblue" d="M252.659,-297.526C299.879,-309.964 390.63,-326.949 460,-298 497.263,-282.45 527.302,-244.141 542.719,-221.202"/>
<polygon fill="midnightblue" stroke="midnightblue" points="545.732,-222.989 548.24,-212.695 539.86,-219.178 545.732,-222.989"/>
</g>
<!-- Node3&#45;&gt;Node5 -->
<g id="edge4" class="edge"><title>Node3&#45;&gt;Node5</title>
<path fill="none" stroke="midnightblue" d="M234.582,-278.476C248.739,-267.97 270.804,-249.897 285,-230 308.591,-196.936 290.416,-172.729 321,-146 323.033,-144.223 325.218,-142.612 327.516,-141.15"/>
<polygon fill="midnightblue" stroke="midnightblue" points="329.638,-143.987 336.844,-136.221 326.367,-137.798 329.638,-143.987"/>
</g>
<!-- Node3&#45;&gt;Node6 -->
<g id="edge6" class="edge"><title>Node3&#45;&gt;Node6</title>
<path fill="none" stroke="midnightblue" d="M255.243,-278.39C274.551,-272.977 299.118,-266.098 321,-260 328.86,-257.809 337.23,-255.483 345.321,-253.237"/>
<polygon fill="midnightblue" stroke="midnightblue" points="346.299,-256.598 354.999,-250.552 344.427,-249.853 346.299,-256.598"/>
</g>
<!-- Node3&#45;&gt;Node7 -->
<g id="edge8" class="edge"><title>Node3&#45;&gt;Node7</title>
<path fill="none" stroke="midnightblue" d="M234.222,-278.348C263.26,-257.152 332.822,-206.373 368.143,-180.59"/>
<polygon fill="midnightblue" stroke="midnightblue" points="370.326,-183.33 376.34,-174.607 366.199,-177.676 370.326,-183.33"/>
</g>
<!-- Node6&#45;&gt;Node4 -->
<g id="edge7" class="edge"><title>Node6&#45;&gt;Node4</title>
<path fill="none" stroke="midnightblue" d="M432.506,-231.411C454.046,-226.374 480.635,-220.156 503.441,-214.823"/>
<polygon fill="midnightblue" stroke="midnightblue" points="504.349,-218.205 513.289,-212.52 502.755,-211.389 504.349,-218.205"/>
</g>
<!-- Node8&#45;&gt;Node2 -->
<g id="edge15" class="edge"><title>Node8&#45;&gt;Node2</title>
<path fill="none" stroke="midnightblue" d="M234.764,-133.565C248.866,-143.927 270.695,-161.6 285,-181 307.9,-212.055 291.661,-234.94 321,-260 322.971,-261.683 325.079,-263.218 327.289,-264.618"/>
<polygon fill="midnightblue" stroke="midnightblue" points="325.769,-267.773 336.242,-269.373 329.052,-261.591 325.769,-267.773"/>
</g>
<!-- Node8&#45;&gt;Node4 -->
<g id="edge11" class="edge"><title>Node8&#45;&gt;Node4</title>
<path fill="none" stroke="midnightblue" d="M248.455,-114.498C294.291,-100.274 388.425,-78.1305 460,-108 497.263,-123.55 527.302,-161.859 542.719,-184.798"/>
<polygon fill="midnightblue" stroke="midnightblue" points="539.86,-186.822 548.24,-193.305 545.732,-183.011 539.86,-186.822"/>
</g>
<!-- Node8&#45;&gt;Node5 -->
<g id="edge14" class="edge"><title>Node8&#45;&gt;Node5</title>
<path fill="none" stroke="midnightblue" d="M282.786,-125.1C297.071,-125.354 312.285,-125.625 326.616,-125.88"/>
<polygon fill="midnightblue" stroke="midnightblue" points="326.809,-129.384 336.87,-126.063 326.934,-122.385 326.809,-129.384"/>
</g>
<!-- Node8&#45;&gt;Node6 -->
<g id="edge16" class="edge"><title>Node8&#45;&gt;Node6</title>
<path fill="none" stroke="midnightblue" d="M234.789,-133.575C263.917,-153.8 331.933,-201.028 367.281,-225.572"/>
<polygon fill="midnightblue" stroke="midnightblue" points="365.31,-228.464 375.52,-231.293 369.303,-222.715 365.31,-228.464"/>
</g>
<!-- Node8&#45;&gt;Node7 -->
<g id="edge17" class="edge"><title>Node8&#45;&gt;Node7</title>
<path fill="none" stroke="midnightblue" d="M260.081,-133.509C284.027,-139.336 314.884,-146.844 340.461,-153.068"/>
<polygon fill="midnightblue" stroke="midnightblue" points="339.796,-156.508 350.34,-155.471 341.451,-149.706 339.796,-156.508"/>
</g>
<!-- Node9 -->
<g id="node9" class="node"><title>Node9</title>
<g id="a_node9"><a xlink:href="../../d6/d85/classCCCC__Record.html#a81bf0541981287180a41e3d801e7a084" target="_top" xlink:title="CCCC_Record::key">
<polygon fill="white" stroke="black" points="336.5,-0.5 336.5,-19.5 444.5,-19.5 444.5,-0.5 336.5,-0.5"/>
<text text-anchor="middle" x="390.5" y="-7.5" font-family="Helvetica,sans-Serif" font-size="10.00">CCCC_Record::key</text>
</a>
</g>
</g>
<!-- Node8&#45;&gt;Node9 -->
<g id="edge12" class="edge"><title>Node8&#45;&gt;Node9</title>
<path fill="none" stroke="midnightblue" d="M235.076,-114.477C264.12,-94.8271 330.929,-49.6267 366.398,-25.6299"/>
<polygon fill="midnightblue" stroke="midnightblue" points="368.785,-28.2406 375.106,-19.738 364.863,-22.4428 368.785,-28.2406"/>
</g>
<!-- Node10 -->
<g id="node10" class="node"><title>Node10</title>
<g id="a_node10"><a xlink:href="../../d6/d85/classCCCC__Record.html#a03c15972bea5df4e34930fa4c34e34bd" target="_top" xlink:title="CCCC_Record::name">
<polygon fill="white" stroke="black" points="496,-0.5 496,-19.5 614,-19.5 614,-0.5 496,-0.5"/>
<text text-anchor="middle" x="555" y="-7.5" font-family="Helvetica,sans-Serif" font-size="10.00">CCCC_Record::name</text>
</a>
</g>
</g>
<!-- Node9&#45;&gt;Node10 -->
<g id="edge13" class="edge"><title>Node9&#45;&gt;Node10</title>
<path fill="none" stroke="midnightblue" d="M444.709,-10C457.764,-10 471.921,-10 485.581,-10"/>
<polygon fill="midnightblue" stroke="midnightblue" points="485.904,-13.5001 495.904,-10 485.904,-6.5001 485.904,-13.5001"/>
</g>
<!-- Node11&#45;&gt;Node2 -->
<g id="edge21" class="edge"><title>Node11&#45;&gt;Node2</title>
<path fill="none" stroke="midnightblue" d="M245.317,-221.14C265.117,-232.968 294.096,-249.165 321,-260 326.86,-262.36 333.115,-264.536 339.373,-266.507"/>
<polygon fill="midnightblue" stroke="midnightblue" points="338.57,-269.92 349.153,-269.432 340.576,-263.213 338.57,-269.92"/>
</g>
<!-- Node11&#45;&gt;Node4 -->
<g id="edge19" class="edge"><title>Node11&#45;&gt;Node4</title>
<path fill="none" stroke="midnightblue" d="M285.206,-205.422C345.022,-204.883 433.598,-204.085 492.521,-203.554"/>
<polygon fill="midnightblue" stroke="midnightblue" points="492.833,-207.051 502.801,-203.461 492.77,-200.052 492.833,-207.051"/>
</g>
<!-- Node11&#45;&gt;Node5 -->
<g id="edge20" class="edge"><title>Node11&#45;&gt;Node5</title>
<path fill="none" stroke="midnightblue" d="M242.33,-190.873C261.981,-177.514 292.349,-158.299 321,-146 326.449,-143.661 332.265,-141.531 338.119,-139.613"/>
<polygon fill="midnightblue" stroke="midnightblue" points="339.421,-142.875 347.949,-136.587 337.361,-136.184 339.421,-142.875"/>
</g>
<!-- Node11&#45;&gt;Node6 -->
<g id="edge22" class="edge"><title>Node11&#45;&gt;Node6</title>
<path fill="none" stroke="midnightblue" d="M285.183,-219.332C301.128,-222.644 318.092,-226.167 333.603,-229.389"/>
<polygon fill="midnightblue" stroke="midnightblue" points="333.059,-232.851 343.562,-231.458 334.483,-225.997 333.059,-232.851"/>
</g>
<!-- Node11&#45;&gt;Node7 -->
<g id="edge23" class="edge"><title>Node11&#45;&gt;Node7</title>
<path fill="none" stroke="midnightblue" d="M282.786,-190.966C301.806,-186.338 322.474,-181.309 340.511,-176.92"/>
<polygon fill="midnightblue" stroke="midnightblue" points="341.344,-180.32 350.233,-174.554 339.689,-173.518 341.344,-180.32"/>
</g>
</g>
</svg>
        <g id="navigator" transform="translate(0 0)" fill="#404254">
                <rect fill="#f2f5e9" fill-opacity="0.5" stroke="#606060" stroke-width=".5" x="0" y="0" width="60" height="60"/>
                <use id="zoomplus" xlink:href="#zoomPlus" x="17" y="9" onmousedown="handleZoom(evt,'in')"/>
                <use id="zoomminus" xlink:href="#zoomMin" x="42" y="9" onmousedown="handleZoom(evt,'out')"/>
                <use id="reset" xlink:href="#resetDef" x="30" y="36" onmousedown="handleReset()"/>
                <g id="arrowUp" xlink:href="#dirArrow" transform="translate(30 24)" onmousedown="handlePan(0,-1)">
                  <use xlink:href="#rim" fill="#404040">
                        <set attributeName="fill" to="#808080" begin="arrowUp.mouseover" end="arrowUp.mouseout"/>
                  </use>
                  <path fill="none" stroke="white" stroke-width="1.5" d="M0,-3.0v7 M-2.5,-0.5L0,-3.0L2.5,-0.5"/>
                </g>
                <g id="arrowRight" xlink:href="#dirArrow" transform="rotate(90) translate(36 -43)" onmousedown="handlePan(1,0)">
                  <use xlink:href="#rim" fill="#404040">
                        <set attributeName="fill" to="#808080" begin="arrowRight.mouseover" end="arrowRight.mouseout"/>
                  </use>
                  <path fill="none" stroke="white" stroke-width="1.5" d="M0,-3.0v7 M-2.5,-0.5L0,-3.0L2.5,-0.5"/>
                </g>
                <g id="arrowDown" xlink:href="#dirArrow" transform="rotate(180) translate(-30 -48)" onmousedown="handlePan(0,1)">
                  <use xlink:href="#rim" fill="#404040">
                        <set attributeName="fill" to="#808080" begin="arrowDown.mouseover" end="arrowDown.mouseout"/>
                  </use>
                  <path fill="none" stroke="white" stroke-width="1.5" d="M0,-3.0v7 M-2.5,-0.5L0,-3.0L2.5,-0.5"/>
                </g>
                <g id="arrowLeft" xlink:href="#dirArrow" transform="rotate(270) translate(-36 17)" onmousedown="handlePan(-1,0)">
                  <use xlink:href="#rim" fill="#404040">
                        <set attributeName="fill" to="#808080" begin="arrowLeft.mouseover" end="arrowLeft.mouseout"/>
                  </use>
                  <path fill="none" stroke="white" stroke-width="1.5" d="M0,-3.0v7 M-2.5,-0.5L0,-3.0L2.5,-0.5"/>
                </g>
        </g>
        <svg viewBox="0 0 15 15" width="100%" height="30px" preserveAspectRatio="xMaxYMin meet">
         <g id="arrow_out" transform="scale(0.3 0.3)">
          <a xlink:href="classCCCC__Project_ad2b4c25d24f7ed427c79bd9c7bd8a971_cgraph_org.svg" target="_base">
           <rect id="button" ry="5" rx="5" y="6" x="6" height="38" width="38"
                fill="#f2f5e9" fill-opacity="0.5" stroke="#606060" stroke-width="1.0"/>
           <path id="arrow"
             d="M 11.500037,31.436501 C 11.940474,20.09759 22.043105,11.32322 32.158766,21.979434 L 37.068811,17.246167 C 37.068811,17.246167 37.088388,32 37.088388,32 L 22.160133,31.978069 C 22.160133,31.978069 26.997745,27.140456 26.997745,27.140456 C 18.528582,18.264221 13.291696,25.230495 11.500037,31.436501 z"
             style="fill:#404040;"/>
          </a>
         </g>
        </svg>
</svg>
