<?xml version="1.0" encoding="UTF-8" standalone="no"?>
<!DOCTYPE svg PUBLIC "-//W3C//DTD SVG 1.1//EN"
 "http://www.w3.org/Graphics/SVG/1.1/DTD/svg11.dtd">
<!-- Generated by graphviz version 2.38.0 (20140413.2041)
 -->
<!-- Title: CCCC_Project::reindex Pages: 1 -->
<svg width="475pt" height="344pt"
 viewBox="0.00 0.00 475.00 344.00" xmlns="http://www.w3.org/2000/svg" xmlns:xlink="http://www.w3.org/1999/xlink">
<g id="graph0" class="graph" transform="scale(1 1) rotate(0) translate(4 340)">
<title>CCCC_Project::reindex</title>
<polygon fill="white" stroke="none" points="-4,4 -4,-340 471,-340 471,4 -4,4"/>
<!-- Node1 -->
<g id="node1" class="node"><title>Node1</title>
<polygon fill="#bfbfbf" stroke="black" points="0,-164.5 0,-183.5 125,-183.5 125,-164.5 0,-164.5"/>
<text text-anchor="middle" x="62.5" y="-171.5" font-family="Helvetica,sans-Serif" font-size="10.00">CCCC_Project::reindex</text>
</g>
<!-- Node2 -->
<g id="node2" class="node"><title>Node2</title>
<g id="a_node2"><a xlink:href="../../d8/dcf/classCCCC__Table.html#a0d099c7bc984323270cc8c63d5ff8379" target="_top" xlink:title="CCCC_Table::first_item">
<polygon fill="white" stroke="black" points="174,-316.5 174,-335.5 300,-335.5 300,-316.5 174,-316.5"/>
<text text-anchor="middle" x="237" y="-323.5" font-family="Helvetica,sans-Serif" font-size="10.00">CCCC_Table::first_item</text>
</a>
</g>
</g>
<!-- Node1&#45;&gt;Node2 -->
<g id="edge1" class="edge"><title>Node1&#45;&gt;Node2</title>
<path fill="none" stroke="midnightblue" d="M67.7726,-183.826C79.0877,-208.642 112.334,-274.192 161,-307 164.077,-309.074 167.363,-310.922 170.777,-312.568"/>
<polygon fill="midnightblue" stroke="midnightblue" points="169.485,-315.821 180.059,-316.471 172.198,-309.369 169.485,-315.821"/>
</g>
<!-- Node3 -->
<g id="node3" class="node"><title>Node3</title>
<g id="a_node3"><a xlink:href="../../d6/d85/classCCCC__Record.html#a81bf0541981287180a41e3d801e7a084" target="_top" xlink:title="CCCC_Record::key">
<polygon fill="white" stroke="black" points="183,-278.5 183,-297.5 291,-297.5 291,-278.5 183,-278.5"/>
<text text-anchor="middle" x="237" y="-285.5" font-family="Helvetica,sans-Serif" font-size="10.00">CCCC_Record::key</text>
</a>
</g>
</g>
<!-- Node1&#45;&gt;Node3 -->
<g id="edge2" class="edge"><title>Node1&#45;&gt;Node3</title>
<path fill="none" stroke="midnightblue" d="M70.6194,-183.777C85.264,-203.153 120.785,-246.492 161,-269 164.998,-271.238 169.262,-273.216 173.65,-274.965"/>
<polygon fill="midnightblue" stroke="midnightblue" points="172.806,-278.38 183.4,-278.439 175.155,-271.786 172.806,-278.38"/>
</g>
<!-- Node5 -->
<g id="node5" class="node"><title>Node5</title>
<g id="a_node5"><a xlink:href="../../df/d99/classCCCC__Extent.html#a82a7a03bd389c67ba2f5dc7787e89739" target="_top" xlink:title="CCCC_Extent::get_visibility">
<polygon fill="white" stroke="black" points="165.5,-240.5 165.5,-259.5 308.5,-259.5 308.5,-240.5 165.5,-240.5"/>
<text text-anchor="middle" x="237" y="-247.5" font-family="Helvetica,sans-Serif" font-size="10.00">CCCC_Extent::get_visibility</text>
</a>
</g>
</g>
<!-- Node1&#45;&gt;Node5 -->
<g id="edge4" class="edge"><title>Node1&#45;&gt;Node5</title>
<path fill="none" stroke="midnightblue" d="M77.0689,-183.604C95.3432,-196.137 129.245,-218 161,-231 166.955,-233.438 173.308,-235.629 179.701,-237.58"/>
<polygon fill="midnightblue" stroke="midnightblue" points="179.152,-241.063 189.729,-240.449 181.077,-234.333 179.152,-241.063"/>
</g>
<!-- Node6 -->
<g id="node6" class="node"><title>Node6</title>
<g id="a_node6"><a xlink:href="../../dc/d1e/classCCCC__Member.html#a94e543367fb135dd029a66bd9fb8af5a" target="_top" xlink:title="CCCC_Member::get_visibility">
<polygon fill="white" stroke="black" points="161,-202.5 161,-221.5 313,-221.5 313,-202.5 161,-202.5"/>
<text text-anchor="middle" x="237" y="-209.5" font-family="Helvetica,sans-Serif" font-size="10.00">CCCC_Member::get_visibility</text>
</a>
</g>
</g>
<!-- Node1&#45;&gt;Node6 -->
<g id="edge5" class="edge"><title>Node1&#45;&gt;Node6</title>
<path fill="none" stroke="midnightblue" d="M107.029,-183.589C130.1,-188.671 158.627,-194.955 182.981,-200.32"/>
<polygon fill="midnightblue" stroke="midnightblue" points="182.265,-203.747 192.784,-202.48 183.771,-196.911 182.265,-203.747"/>
</g>
<!-- Node7 -->
<g id="node7" class="node"><title>Node7</title>
<g id="a_node7"><a xlink:href="../../d8/dcf/classCCCC__Table.html#a080274070f7d48b68bd8d3291818d76f" target="_top" xlink:title="CCCC_Table::next_item">
<polygon fill="white" stroke="black" points="172.5,-164.5 172.5,-183.5 301.5,-183.5 301.5,-164.5 172.5,-164.5"/>
<text text-anchor="middle" x="237" y="-171.5" font-family="Helvetica,sans-Serif" font-size="10.00">CCCC_Table::next_item</text>
</a>
</g>
</g>
<!-- Node1&#45;&gt;Node7 -->
<g id="edge6" class="edge"><title>Node1&#45;&gt;Node7</title>
<path fill="none" stroke="midnightblue" d="M125.289,-174C137.222,-174 149.837,-174 162.11,-174"/>
<polygon fill="midnightblue" stroke="midnightblue" points="162.317,-177.5 172.317,-174 162.317,-170.5 162.317,-177.5"/>
</g>
<!-- Node8 -->
<g id="node8" class="node"><title>Node8</title>
<g id="a_node8"><a xlink:href="../../d8/dcf/classCCCC__Table.html#a8e08fe4f6edb07f1fbf2813c66bb3606" target="_top" xlink:title="CCCC_Table::find_or\l_insert">
<polygon fill="white" stroke="black" points="179,-115 179,-145 295,-145 295,-115 179,-115"/>
<text text-anchor="start" x="187" y="-133" font-family="Helvetica,sans-Serif" font-size="10.00">CCCC_Table::find_or</text>
<text text-anchor="middle" x="237" y="-122" font-family="Helvetica,sans-Serif" font-size="10.00">_insert</text>
</a>
</g>
</g>
<!-- Node1&#45;&gt;Node8 -->
<g id="edge7" class="edge"><title>Node1&#45;&gt;Node8</title>
<path fill="none" stroke="midnightblue" d="M100.93,-164.453C120.872,-159.366 146.005,-152.955 169.168,-147.047"/>
<polygon fill="midnightblue" stroke="midnightblue" points="170.128,-150.414 178.953,-144.551 168.398,-143.631 170.128,-150.414"/>
</g>
<!-- Node9 -->
<g id="node9" class="node"><title>Node9</title>
<g id="a_node9"><a xlink:href="../../d6/d9f/classCCCC__Module.html#a2e35b964b59e60393b2af32dd537f505" target="_top" xlink:title="CCCC_Module::is_trivial">
<polygon fill="white" stroke="black" points="172,-76.5 172,-95.5 302,-95.5 302,-76.5 172,-76.5"/>
<text text-anchor="middle" x="237" y="-83.5" font-family="Helvetica,sans-Serif" font-size="10.00">CCCC_Module::is_trivial</text>
</a>
</g>
</g>
<!-- Node1&#45;&gt;Node9 -->
<g id="edge8" class="edge"><title>Node1&#45;&gt;Node9</title>
<path fill="none" stroke="midnightblue" d="M74.4073,-164.446C91.6429,-149.821 126.748,-121.908 161,-106 167.077,-103.178 173.622,-100.697 180.224,-98.5325"/>
<polygon fill="midnightblue" stroke="midnightblue" points="181.348,-101.849 189.891,-95.5834 179.305,-95.1538 181.348,-101.849"/>
</g>
<!-- Node10 -->
<g id="node10" class="node"><title>Node10</title>
<g id="a_node10"><a xlink:href="../../d8/dcf/classCCCC__Table.html#a814a82c8e3da3598b7c8efa4e0fbacf4" target="_top" xlink:title="CCCC_Table::remove">
<polygon fill="white" stroke="black" points="177.5,-38.5 177.5,-57.5 296.5,-57.5 296.5,-38.5 177.5,-38.5"/>
<text text-anchor="middle" x="237" y="-45.5" font-family="Helvetica,sans-Serif" font-size="10.00">CCCC_Table::remove</text>
</a>
</g>
</g>
<!-- Node1&#45;&gt;Node10 -->
<g id="edge9" class="edge"><title>Node1&#45;&gt;Node10</title>
<path fill="none" stroke="midnightblue" d="M69.4685,-164.272C82.9818,-143.106 118.103,-92.7117 161,-67 164.629,-64.8247 168.501,-62.8971 172.5,-61.1892"/>
<polygon fill="midnightblue" stroke="midnightblue" points="173.897,-64.4029 182.01,-57.5893 171.419,-57.8562 173.897,-64.4029"/>
</g>
<!-- Node11 -->
<g id="node11" class="node"><title>Node11</title>
<g id="a_node11"><a xlink:href="../../df/d99/classCCCC__Extent.html#abe27f2b34d0542894c6339274e8d1834" target="_top" xlink:title="CCCC_Extent::get_usetype">
<polygon fill="white" stroke="black" points="164.5,-0.5 164.5,-19.5 309.5,-19.5 309.5,-0.5 164.5,-0.5"/>
<text text-anchor="middle" x="237" y="-7.5" font-family="Helvetica,sans-Serif" font-size="10.00">CCCC_Extent::get_usetype</text>
</a>
</g>
</g>
<!-- Node1&#45;&gt;Node11 -->
<g id="edge10" class="edge"><title>Node1&#45;&gt;Node11</title>
<path fill="none" stroke="midnightblue" d="M67.0564,-164.45C77.2877,-138.345 109.408,-65.3258 161,-29 163.746,-27.0668 166.67,-25.3299 169.713,-23.7695"/>
<polygon fill="midnightblue" stroke="midnightblue" points="171.407,-26.8473 179.133,-19.5978 168.572,-20.4469 171.407,-26.8473"/>
</g>
<!-- Node4 -->
<g id="node4" class="node"><title>Node4</title>
<g id="a_node4"><a xlink:href="../../d6/d85/classCCCC__Record.html#a03c15972bea5df4e34930fa4c34e34bd" target="_top" xlink:title="CCCC_Record::name">
<polygon fill="white" stroke="black" points="349,-278.5 349,-297.5 467,-297.5 467,-278.5 349,-278.5"/>
<text text-anchor="middle" x="408" y="-285.5" font-family="Helvetica,sans-Serif" font-size="10.00">CCCC_Record::name</text>
</a>
</g>
</g>
<!-- Node3&#45;&gt;Node4 -->
<g id="edge3" class="edge"><title>Node3&#45;&gt;Node4</title>
<path fill="none" stroke="midnightblue" d="M291.009,-288C306.096,-288 322.747,-288 338.61,-288"/>
<polygon fill="midnightblue" stroke="midnightblue" points="338.897,-291.5 348.897,-288 338.897,-284.5 338.897,-291.5"/>
</g>
</g>
</svg>
