<?xml version="1.0" encoding="UTF-8" standalone="no"?>
<!DOCTYPE svg PUBLIC "-//W3C//DTD SVG 1.1//EN"
 "http://www.w3.org/Graphics/SVG/1.1/DTD/svg11.dtd">
<!-- Generated by graphviz version 2.38.0 (20140413.2041)
 -->
<!-- Title: CCCC_Project::CCCC_Project Pages: 1 -->
<!--zoomable 135 -->
<svg id="main" version="1.1" xmlns="http://www.w3.org/2000/svg" xmlns:xlink="http://www.w3.org/1999/xlink" xml:space="preserve" onload="init(evt)">
<style type="text/css"><![CDATA[
.edge:hover path { stroke: red; }
.edge:hover polygon { stroke: red; fill: red; }
]]></style>
<script type="text/javascript"><![CDATA[
var edges = document.getElementsByTagName('g');
if (edges && edges.length) {
  for (var i=0;i<edges.length;i++) {
    if (edges[i].id.substr(0,4)=='edge') {
      edges[i].setAttribute('class','edge');
    }
  }
}
]]></script>
        <defs>
                <circle id="rim" cx="0" cy="0" r="7"/>
                <circle id="rim2" cx="0" cy="0" r="3.5"/>
                <g id="zoomPlus">
                        <use xlink:href="#rim" fill="#404040">
                                <set attributeName="fill" to="#808080" begin="zoomplus.mouseover" end="zoomplus.mouseout"/>
                        </use>
                        <path d="M-4,0h8M0,-4v8" fill="none" stroke="white" stroke-width="1.5" pointer-events="none"/>
                </g>
                <g id="zoomMin">
                        <use xlink:href="#rim" fill="#404040">
                                <set attributeName="fill" to="#808080" begin="zoomminus.mouseover" end="zoomminus.mouseout"/>
                        </use>
                        <path d="M-4,0h8" fill="none" stroke="white" stroke-width="1.5" pointer-events="none"/>
                </g>
                <g id="dirArrow">
                        <path fill="none" stroke="white" stroke-width="1.5" d="M0,-3.0v7 M-2.5,-0.5L0,-3.0L2.5,-0.5"/>
                </g>
               <g id="resetDef">
                       <use xlink:href="#rim2" fill="#404040">
                               <set attributeName="fill" to="#808080" begin="reset.mouseover" end="reset.mouseout"/>
                       </use>
               </g>
        </defs>

<script type="text/javascript">
var viewWidth = 643;
var viewHeight = 135;
var sectionId = 'dynsection-2';
</script>
<script xlink:href="../../svgpan.js"/>
<svg id="graph" class="graph">
<g id="viewport">
<title>CCCC_Project::CCCC_Project</title>
<polygon fill="white" stroke="none" points="-4,4 -4,-131 639,-131 639,4 -4,4"/>
<!-- Node1 -->
<g id="node1" class="node"><title>Node1</title>
<polygon fill="#bfbfbf" stroke="black" points="0,-61 0,-91 120,-91 120,-61 0,-61"/>
<text text-anchor="start" x="8" y="-79" font-family="Helvetica,sans-Serif" font-size="10.00">CCCC_Project::CCCC</text>
<text text-anchor="middle" x="60" y="-68" font-family="Helvetica,sans-Serif" font-size="10.00">_Project</text>
</g>
<!-- Node2 -->
<g id="node2" class="node"><title>Node2</title>
<g id="a_node2"><a xlink:href="../../d4/d6e/classCCCC__Project.html#a7a8c419dc807c57a9618da29d08d59ae" target="_top" xlink:title="CCCC_Project::add_module">
<polygon fill="white" stroke="black" points="156,-66.5 156,-85.5 304,-85.5 304,-66.5 156,-66.5"/>
<text text-anchor="middle" x="230" y="-73.5" font-family="Helvetica,sans-Serif" font-size="10.00">CCCC_Project::add_module</text>
</a>
</g>
</g>
<!-- Node1&#45;&gt;Node2 -->
<g id="edge1" class="edge"><title>Node1&#45;&gt;Node2</title>
<path fill="none" stroke="midnightblue" d="M120.231,-76C128.514,-76 137.151,-76 145.777,-76"/>
<polygon fill="midnightblue" stroke="midnightblue" points="145.876,-79.5001 155.876,-76 145.876,-72.5001 145.876,-79.5001"/>
</g>
<!-- Node3 -->
<g id="node3" class="node"><title>Node3</title>
<g id="a_node3"><a xlink:href="../../db/d6a/classCCCC__Item.html#aa8e1c13780b4a9191d00b85641cdde1d" target="_top" xlink:title="CCCC_Item::Extract">
<polygon fill="white" stroke="black" points="525,-107.5 525,-126.5 635,-126.5 635,-107.5 525,-107.5"/>
<text text-anchor="middle" x="580" y="-114.5" font-family="Helvetica,sans-Serif" font-size="10.00">CCCC_Item::Extract</text>
</a>
</g>
</g>
<!-- Node2&#45;&gt;Node3 -->
<g id="edge2" class="edge"><title>Node2&#45;&gt;Node3</title>
<path fill="none" stroke="midnightblue" d="M250.086,-85.5963C271.385,-95.7244 307.179,-111.031 340,-117 398.503,-127.639 466.401,-126.367 514.844,-123.185"/>
<polygon fill="midnightblue" stroke="midnightblue" points="515.145,-126.673 524.875,-122.481 514.654,-119.69 515.145,-126.673"/>
</g>
<!-- Node4 -->
<g id="node4" class="node"><title>Node4</title>
<g id="a_node4"><a xlink:href="../../df/d99/classCCCC__Extent.html#abaf126bf784cc83e12eb98434674c4df" target="_top" xlink:title="CCCC_Extent::GetFromItem">
<polygon fill="white" stroke="black" points="340,-88.5 340,-107.5 489,-107.5 489,-88.5 340,-88.5"/>
<text text-anchor="middle" x="414.5" y="-95.5" font-family="Helvetica,sans-Serif" font-size="10.00">CCCC_Extent::GetFromItem</text>
</a>
</g>
</g>
<!-- Node2&#45;&gt;Node4 -->
<g id="edge3" class="edge"><title>Node2&#45;&gt;Node4</title>
<path fill="none" stroke="midnightblue" d="M304.178,-84.8215C312.589,-85.8353 321.213,-86.8749 329.748,-87.9039"/>
<polygon fill="midnightblue" stroke="midnightblue" points="329.363,-91.3827 339.71,-89.1048 330.201,-84.433 329.363,-91.3827"/>
</g>
<!-- Node5 -->
<g id="node5" class="node"><title>Node5</title>
<g id="a_node5"><a xlink:href="../../d8/dcf/classCCCC__Table.html#a8e08fe4f6edb07f1fbf2813c66bb3606" target="_top" xlink:title="CCCC_Table::find_or\l_insert">
<polygon fill="white" stroke="black" points="356.5,-39 356.5,-69 472.5,-69 472.5,-39 356.5,-39"/>
<text text-anchor="start" x="364.5" y="-57" font-family="Helvetica,sans-Serif" font-size="10.00">CCCC_Table::find_or</text>
<text text-anchor="middle" x="414.5" y="-46" font-family="Helvetica,sans-Serif" font-size="10.00">_insert</text>
</a>
</g>
</g>
<!-- Node2&#45;&gt;Node5 -->
<g id="edge5" class="edge"><title>Node2&#45;&gt;Node5</title>
<path fill="none" stroke="midnightblue" d="M304.178,-67.1785C318.007,-65.5115 332.413,-63.7749 346.056,-62.1303"/>
<polygon fill="midnightblue" stroke="midnightblue" points="346.808,-65.565 356.317,-60.8933 345.97,-58.6153 346.808,-65.565"/>
</g>
<!-- Node6 -->
<g id="node6" class="node"><title>Node6</title>
<g id="a_node6"><a xlink:href="../../d8/d19/cccc__db_8cc.html#aebb1189ff251d7961146af7ce6b31f3e" target="_top" xlink:title="Resolve_Fields">
<polygon fill="white" stroke="black" points="370,-0.5 370,-19.5 459,-19.5 459,-0.5 370,-0.5"/>
<text text-anchor="middle" x="414.5" y="-7.5" font-family="Helvetica,sans-Serif" font-size="10.00">Resolve_Fields</text>
</a>
</g>
</g>
<!-- Node2&#45;&gt;Node6 -->
<g id="edge6" class="edge"><title>Node2&#45;&gt;Node6</title>
<path fill="none" stroke="midnightblue" d="M251.574,-66.3417C273.253,-56.397 308.548,-40.8613 340,-30 347.996,-27.2387 356.585,-24.6086 364.972,-22.2165"/>
<polygon fill="midnightblue" stroke="midnightblue" points="365.976,-25.5702 374.677,-19.5242 364.105,-18.825 365.976,-25.5702"/>
</g>
<!-- Node4&#45;&gt;Node3 -->
<g id="edge4" class="edge"><title>Node4&#45;&gt;Node3</title>
<path fill="none" stroke="midnightblue" d="M489.119,-106.555C497.676,-107.549 506.352,-108.558 514.769,-109.536"/>
<polygon fill="midnightblue" stroke="midnightblue" points="514.544,-113.033 524.881,-110.711 515.352,-106.08 514.544,-113.033"/>
</g>
</g>
</svg>
        <g id="navigator" transform="translate(0 0)" fill="#404254">
                <rect fill="#f2f5e9" fill-opacity="0.5" stroke="#606060" stroke-width=".5" x="0" y="0" width="60" height="60"/>
                <use id="zoomplus" xlink:href="#zoomPlus" x="17" y="9" onmousedown="handleZoom(evt,'in')"/>
                <use id="zoomminus" xlink:href="#zoomMin" x="42" y="9" onmousedown="handleZoom(evt,'out')"/>
                <use id="reset" xlink:href="#resetDef" x="30" y="36" onmousedown="handleReset()"/>
                <g id="arrowUp" xlink:href="#dirArrow" transform="translate(30 24)" onmousedown="handlePan(0,-1)">
                  <use xlink:href="#rim" fill="#404040">
                        <set attributeName="fill" to="#808080" begin="arrowUp.mouseover" end="arrowUp.mouseout"/>
                  </use>
                  <path fill="none" stroke="white" stroke-width="1.5" d="M0,-3.0v7 M-2.5,-0.5L0,-3.0L2.5,-0.5"/>
                </g>
                <g id="arrowRight" xlink:href="#dirArrow" transform="rotate(90) translate(36 -43)" onmousedown="handlePan(1,0)">
                  <use xlink:href="#rim" fill="#404040">
                        <set attributeName="fill" to="#808080" begin="arrowRight.mouseover" end="arrowRight.mouseout"/>
                  </use>
                  <path fill="none" stroke="white" stroke-width="1.5" d="M0,-3.0v7 M-2.5,-0.5L0,-3.0L2.5,-0.5"/>
                </g>
                <g id="arrowDown" xlink:href="#dirArrow" transform="rotate(180) translate(-30 -48)" onmousedown="handlePan(0,1)">
                  <use xlink:href="#rim" fill="#404040">
                        <set attributeName="fill" to="#808080" begin="arrowDown.mouseover" end="arrowDown.mouseout"/>
                  </use>
                  <path fill="none" stroke="white" stroke-width="1.5" d="M0,-3.0v7 M-2.5,-0.5L0,-3.0L2.5,-0.5"/>
                </g>
                <g id="arrowLeft" xlink:href="#dirArrow" transform="rotate(270) translate(-36 17)" onmousedown="handlePan(-1,0)">
                  <use xlink:href="#rim" fill="#404040">
                        <set attributeName="fill" to="#808080" begin="arrowLeft.mouseover" end="arrowLeft.mouseout"/>
                  </use>
                  <path fill="none" stroke="white" stroke-width="1.5" d="M0,-3.0v7 M-2.5,-0.5L0,-3.0L2.5,-0.5"/>
                </g>
        </g>
        <svg viewBox="0 0 15 15" width="100%" height="30px" preserveAspectRatio="xMaxYMin meet">
         <g id="arrow_out" transform="scale(0.3 0.3)">
          <a xlink:href="classCCCC__Project_a5deb4638448a99501db6918777ef4c22_cgraph_org.svg" target="_base">
           <rect id="button" ry="5" rx="5" y="6" x="6" height="38" width="38"
                fill="#f2f5e9" fill-opacity="0.5" stroke="#606060" stroke-width="1.0"/>
           <path id="arrow"
             d="M 11.500037,31.436501 C 11.940474,20.09759 22.043105,11.32322 32.158766,21.979434 L 37.068811,17.246167 C 37.068811,17.246167 37.088388,32 37.088388,32 L 22.160133,31.978069 C 22.160133,31.978069 26.997745,27.140456 26.997745,27.140456 C 18.528582,18.264221 13.291696,25.230495 11.500037,31.436501 z"
             style="fill:#404040;"/>
          </a>
         </g>
        </svg>
</svg>
