<?xml version="1.0" encoding="UTF-8" standalone="no"?>
<!DOCTYPE svg PUBLIC "-//W3C//DTD SVG 1.1//EN"
 "http://www.w3.org/Graphics/SVG/1.1/DTD/svg11.dtd">
<!-- Generated by graphviz version 2.38.0 (20140413.2041)
 -->
<!-- Title: CCCC_Project::FromFile Pages: 1 -->
<!--zoomable 368 -->
<svg id="main" version="1.1" xmlns="http://www.w3.org/2000/svg" xmlns:xlink="http://www.w3.org/1999/xlink" xml:space="preserve" onload="init(evt)">
<style type="text/css"><![CDATA[
.edge:hover path { stroke: red; }
.edge:hover polygon { stroke: red; fill: red; }
]]></style>
<script type="text/javascript"><![CDATA[
var edges = document.getElementsByTagName('g');
if (edges && edges.length) {
  for (var i=0;i<edges.length;i++) {
    if (edges[i].id.substr(0,4)=='edge') {
      edges[i].setAttribute('class','edge');
    }
  }
}
]]></script>
        <defs>
                <circle id="rim" cx="0" cy="0" r="7"/>
                <circle id="rim2" cx="0" cy="0" r="3.5"/>
                <g id="zoomPlus">
                        <use xlink:href="#rim" fill="#404040">
                                <set attributeName="fill" to="#808080" begin="zoomplus.mouseover" end="zoomplus.mouseout"/>
                        </use>
                        <path d="M-4,0h8M0,-4v8" fill="none" stroke="white" stroke-width="1.5" pointer-events="none"/>
                </g>
                <g id="zoomMin">
                        <use xlink:href="#rim" fill="#404040">
                                <set attributeName="fill" to="#808080" begin="zoomminus.mouseover" end="zoomminus.mouseout"/>
                        </use>
                        <path d="M-4,0h8" fill="none" stroke="white" stroke-width="1.5" pointer-events="none"/>
                </g>
                <g id="dirArrow">
                        <path fill="none" stroke="white" stroke-width="1.5" d="M0,-3.0v7 M-2.5,-0.5L0,-3.0L2.5,-0.5"/>
                </g>
               <g id="resetDef">
                       <use xlink:href="#rim2" fill="#404040">
                               <set attributeName="fill" to="#808080" begin="reset.mouseover" end="reset.mouseout"/>
                       </use>
               </g>
        </defs>

<script type="text/javascript">
var viewWidth = 654;
var viewHeight = 368;
var sectionId = 'dynsection-11';
</script>
<script xlink:href="../../svgpan.js"/>
<svg id="graph" class="graph">
<g id="viewport">
<title>CCCC_Project::FromFile</title>
<polygon fill="white" stroke="none" points="-4,4 -4,-363.5 650,-363.5 650,4 -4,4"/>
<!-- Node1 -->
<g id="node1" class="node"><title>Node1</title>
<polygon fill="#bfbfbf" stroke="black" points="0,-170.5 0,-189.5 131,-189.5 131,-170.5 0,-170.5"/>
<text text-anchor="middle" x="65.5" y="-177.5" font-family="Helvetica,sans-Serif" font-size="10.00">CCCC_Project::FromFile</text>
</g>
<!-- Node2 -->
<g id="node2" class="node"><title>Node2</title>
<g id="a_node2"><a xlink:href="../../d6/d85/classCCCC__Record.html#a06a849607bc79cf49a3499e93a419690" target="_top" xlink:title="CCCC_Record::set_active\l_project">
<polygon fill="white" stroke="black" points="167,-329 167,-359 307,-359 307,-329 167,-329"/>
<text text-anchor="start" x="175" y="-347" font-family="Helvetica,sans-Serif" font-size="10.00">CCCC_Record::set_active</text>
<text text-anchor="middle" x="237" y="-336" font-family="Helvetica,sans-Serif" font-size="10.00">_project</text>
</a>
</g>
</g>
<!-- Node1&#45;&gt;Node2 -->
<g id="edge1" class="edge"><title>Node1&#45;&gt;Node2</title>
<path fill="none" stroke="midnightblue" d="M71.4938,-189.788C84.2722,-213.967 120.454,-277.221 167,-314 171.91,-317.88 177.399,-321.358 183.077,-324.449"/>
<polygon fill="midnightblue" stroke="midnightblue" points="181.596,-327.621 192.102,-328.99 184.742,-321.368 181.596,-327.621"/>
</g>
<!-- Node3 -->
<g id="node3" class="node"><title>Node3</title>
<g id="a_node3"><a xlink:href="../../d8/d19/cccc__db_8cc.html#a927bd440a1aaf7c7b9a1e83354aace57" target="_top" xlink:title="PeekAtNextLinePrefix">
<polygon fill="white" stroke="black" points="358,-278.5 358,-297.5 477,-297.5 477,-278.5 358,-278.5"/>
<text text-anchor="middle" x="417.5" y="-285.5" font-family="Helvetica,sans-Serif" font-size="10.00">PeekAtNextLinePrefix</text>
</a>
</g>
</g>
<!-- Node1&#45;&gt;Node3 -->
<g id="edge2" class="edge"><title>Node1&#45;&gt;Node3</title>
<path fill="none" stroke="midnightblue" d="M74.1022,-189.652C89.3914,-208.251 125.93,-248.738 167,-266 224.594,-290.206 296.127,-294.172 347.812,-292.991"/>
<polygon fill="midnightblue" stroke="midnightblue" points="347.984,-296.488 357.875,-292.691 347.775,-289.491 347.984,-296.488"/>
</g>
<!-- Node4 -->
<g id="node4" class="node"><title>Node4</title>
<g id="a_node4"><a xlink:href="../../d6/d9f/classCCCC__Module.html#aa7d31814771b76de1477cc6c830000ec" target="_top" xlink:title="CCCC_Module::FromFile">
<polygon fill="white" stroke="black" points="171,-214.5 171,-233.5 303,-233.5 303,-214.5 171,-214.5"/>
<text text-anchor="middle" x="237" y="-221.5" font-family="Helvetica,sans-Serif" font-size="10.00">CCCC_Module::FromFile</text>
</a>
</g>
</g>
<!-- Node1&#45;&gt;Node4 -->
<g id="edge3" class="edge"><title>Node1&#45;&gt;Node4</title>
<path fill="none" stroke="midnightblue" d="M103.279,-189.547C128.6,-196.12 162.44,-204.905 189.612,-211.958"/>
<polygon fill="midnightblue" stroke="midnightblue" points="188.734,-215.346 199.293,-214.471 190.493,-208.571 188.734,-215.346"/>
</g>
<!-- Node5 -->
<g id="node5" class="node"><title>Node5</title>
<g id="a_node5"><a xlink:href="../../db/d6a/classCCCC__Item.html#a032272ebee4fc350bcac563774493725" target="_top" xlink:title="CCCC_Item::FromFile">
<polygon fill="white" stroke="black" points="358.5,-240.5 358.5,-259.5 476.5,-259.5 476.5,-240.5 358.5,-240.5"/>
<text text-anchor="middle" x="417.5" y="-247.5" font-family="Helvetica,sans-Serif" font-size="10.00">CCCC_Item::FromFile</text>
</a>
</g>
</g>
<!-- Node1&#45;&gt;Node5 -->
<g id="edge28" class="edge"><title>Node1&#45;&gt;Node5</title>
<path fill="none" stroke="midnightblue" d="M77.2716,-189.541C94.6826,-204.278 130.735,-232.02 167,-243 226.268,-260.944 297.114,-261.036 348.143,-257.615"/>
<polygon fill="midnightblue" stroke="midnightblue" points="348.68,-261.085 358.397,-256.863 348.168,-254.104 348.68,-261.085"/>
</g>
<!-- Node7 -->
<g id="node7" class="node"><title>Node7</title>
<g id="a_node7"><a xlink:href="../../d8/dcf/classCCCC__Table.html#a8e08fe4f6edb07f1fbf2813c66bb3606" target="_top" xlink:title="CCCC_Table::find_or\l_insert">
<polygon fill="white" stroke="black" points="359.5,-77 359.5,-107 475.5,-107 475.5,-77 359.5,-77"/>
<text text-anchor="start" x="367.5" y="-95" font-family="Helvetica,sans-Serif" font-size="10.00">CCCC_Table::find_or</text>
<text text-anchor="middle" x="417.5" y="-84" font-family="Helvetica,sans-Serif" font-size="10.00">_insert</text>
</a>
</g>
</g>
<!-- Node1&#45;&gt;Node7 -->
<g id="edge30" class="edge"><title>Node1&#45;&gt;Node7</title>
<path fill="none" stroke="midnightblue" d="M72.2652,-170.341C85.6731,-148.953 121.316,-97.9892 167,-79 227.58,-53.8188 303.67,-62.9311 355.796,-74.604"/>
<polygon fill="midnightblue" stroke="midnightblue" points="355.031,-78.0195 365.565,-76.8844 356.622,-71.2028 355.031,-78.0195"/>
</g>
<!-- Node8 -->
<g id="node8" class="node"><title>Node8</title>
<g id="a_node8"><a xlink:href="../../df/d99/classCCCC__Extent.html#abaf126bf784cc83e12eb98434674c4df" target="_top" xlink:title="CCCC_Extent::GetFromItem">
<polygon fill="white" stroke="black" points="343,-126.5 343,-145.5 492,-145.5 492,-126.5 343,-126.5"/>
<text text-anchor="middle" x="417.5" y="-133.5" font-family="Helvetica,sans-Serif" font-size="10.00">CCCC_Extent::GetFromItem</text>
</a>
</g>
</g>
<!-- Node1&#45;&gt;Node8 -->
<g id="edge29" class="edge"><title>Node1&#45;&gt;Node8</title>
<path fill="none" stroke="midnightblue" d="M98.8025,-170.498C118.369,-165.11 143.925,-158.722 167,-155 221.854,-146.153 284.175,-141.403 332.81,-138.865"/>
<polygon fill="midnightblue" stroke="midnightblue" points="333.161,-142.352 342.973,-138.357 332.811,-135.361 333.161,-142.352"/>
</g>
<!-- Node11 -->
<g id="node11" class="node"><title>Node11</title>
<g id="a_node11"><a xlink:href="../../d8/d19/cccc__db_8cc.html#a74ff1b8c4eed1e0645812a96d43db24c" target="_top" xlink:title="DisposeOfImportRecord">
<polygon fill="white" stroke="black" points="171.5,-12.5 171.5,-31.5 302.5,-31.5 302.5,-12.5 171.5,-12.5"/>
<text text-anchor="middle" x="237" y="-19.5" font-family="Helvetica,sans-Serif" font-size="10.00">DisposeOfImportRecord</text>
</a>
</g>
</g>
<!-- Node1&#45;&gt;Node11 -->
<g id="edge12" class="edge"><title>Node1&#45;&gt;Node11</title>
<path fill="none" stroke="midnightblue" d="M71.1457,-170.352C83.376,-145.941 118.866,-81.17 167,-46 172.844,-41.7302 179.51,-38.1715 186.343,-35.219"/>
<polygon fill="midnightblue" stroke="midnightblue" points="187.663,-38.4609 195.701,-31.5587 185.113,-31.9418 187.663,-38.4609"/>
</g>
<!-- Node12 -->
<g id="node12" class="node"><title>Node12</title>
<g id="a_node12"><a xlink:href="../../dc/d1e/classCCCC__Member.html#a5b4510004fda956c909278337ae19236" target="_top" xlink:title="CCCC_Member::FromFile">
<polygon fill="white" stroke="black" points="169,-88.5 169,-107.5 305,-107.5 305,-88.5 169,-88.5"/>
<text text-anchor="middle" x="237" y="-95.5" font-family="Helvetica,sans-Serif" font-size="10.00">CCCC_Member::FromFile</text>
</a>
</g>
</g>
<!-- Node1&#45;&gt;Node12 -->
<g id="edge13" class="edge"><title>Node1&#45;&gt;Node12</title>
<path fill="none" stroke="midnightblue" d="M81.0172,-170.448C100.152,-158.137 135.125,-136.583 167,-122 175.902,-117.927 185.709,-114.128 195.066,-110.809"/>
<polygon fill="midnightblue" stroke="midnightblue" points="196.278,-114.093 204.596,-107.532 194.002,-107.474 196.278,-114.093"/>
</g>
<!-- Node14 -->
<g id="node14" class="node"><title>Node14</title>
<g id="a_node14"><a xlink:href="../../d2/d65/classCCCC__UseRelationship.html#aa1b47ba57ddfff5db36294ab4d4631d5" target="_top" xlink:title="CCCC_UseRelationship\l::FromFile">
<polygon fill="white" stroke="black" points="172,-165 172,-195 302,-195 302,-165 172,-165"/>
<text text-anchor="start" x="180" y="-183" font-family="Helvetica,sans-Serif" font-size="10.00">CCCC_UseRelationship</text>
<text text-anchor="middle" x="237" y="-172" font-family="Helvetica,sans-Serif" font-size="10.00">::FromFile</text>
</a>
</g>
</g>
<!-- Node1&#45;&gt;Node14 -->
<g id="edge21" class="edge"><title>Node1&#45;&gt;Node14</title>
<path fill="none" stroke="midnightblue" d="M131.064,-180C141.098,-180 151.533,-180 161.76,-180"/>
<polygon fill="midnightblue" stroke="midnightblue" points="161.896,-183.5 171.896,-180 161.896,-176.5 161.896,-183.5"/>
</g>
<!-- Node4&#45;&gt;Node3 -->
<g id="edge7" class="edge"><title>Node4&#45;&gt;Node3</title>
<path fill="none" stroke="midnightblue" d="M257.775,-233.548C278.623,-243.358 312.593,-258.621 343,-269 350.112,-271.427 357.701,-273.716 365.204,-275.807"/>
<polygon fill="midnightblue" stroke="midnightblue" points="364.401,-279.216 374.968,-278.438 366.222,-272.457 364.401,-279.216"/>
</g>
<!-- Node4&#45;&gt;Node5 -->
<g id="edge4" class="edge"><title>Node4&#45;&gt;Node5</title>
<path fill="none" stroke="midnightblue" d="M303.2,-233.497C317.847,-235.63 333.426,-237.9 348.195,-240.051"/>
<polygon fill="midnightblue" stroke="midnightblue" points="347.869,-243.54 358.269,-241.518 348.878,-236.613 347.869,-243.54"/>
</g>
<!-- Node6 -->
<g id="node6" class="node"><title>Node6</title>
<g id="a_node6"><a xlink:href="../../db/d6a/classCCCC__Item.html#aa8e1c13780b4a9191d00b85641cdde1d" target="_top" xlink:title="CCCC_Item::Extract">
<polygon fill="white" stroke="black" points="532,-145.5 532,-164.5 642,-164.5 642,-145.5 532,-145.5"/>
<text text-anchor="middle" x="587" y="-152.5" font-family="Helvetica,sans-Serif" font-size="10.00">CCCC_Item::Extract</text>
</a>
</g>
</g>
<!-- Node4&#45;&gt;Node6 -->
<g id="edge5" class="edge"><title>Node4&#45;&gt;Node6</title>
<path fill="none" stroke="midnightblue" d="M246,-233.643C262.075,-252.167 300.419,-292.203 343,-307 405.553,-328.738 438.587,-346.146 492,-307 534.856,-275.592 495.915,-235.352 528,-193 535.18,-183.523 545.452,-175.702 555.363,-169.671"/>
<polygon fill="midnightblue" stroke="midnightblue" points="557.281,-172.607 564.263,-164.638 553.836,-166.513 557.281,-172.607"/>
</g>
<!-- Node4&#45;&gt;Node7 -->
<g id="edge6" class="edge"><title>Node4&#45;&gt;Node7</title>
<path fill="none" stroke="midnightblue" d="M290.411,-214.382C296.453,-211.72 302.168,-208.326 307,-204 338.175,-176.085 312.472,-145.621 343,-117 345.409,-114.741 348.03,-112.686 350.801,-110.816"/>
<polygon fill="midnightblue" stroke="midnightblue" points="352.624,-113.805 359.498,-105.743 349.097,-107.758 352.624,-113.805"/>
</g>
<!-- Node4&#45;&gt;Node8 -->
<g id="edge8" class="edge"><title>Node4&#45;&gt;Node8</title>
<path fill="none" stroke="midnightblue" d="M278.072,-214.394C287.729,-211.534 297.885,-208.059 307,-204 339.555,-189.504 373.98,-166.729 395.351,-151.585"/>
<polygon fill="midnightblue" stroke="midnightblue" points="397.59,-154.286 403.667,-145.608 393.504,-148.602 397.59,-154.286"/>
</g>
<!-- Node9 -->
<g id="node9" class="node"><title>Node9</title>
<g id="a_node9"><a xlink:href="../../d6/d85/classCCCC__Record.html#a81bf0541981287180a41e3d801e7a084" target="_top" xlink:title="CCCC_Record::key">
<polygon fill="white" stroke="black" points="363.5,-202.5 363.5,-221.5 471.5,-221.5 471.5,-202.5 363.5,-202.5"/>
<text text-anchor="middle" x="417.5" y="-209.5" font-family="Helvetica,sans-Serif" font-size="10.00">CCCC_Record::key</text>
</a>
</g>
</g>
<!-- Node4&#45;&gt;Node9 -->
<g id="edge10" class="edge"><title>Node4&#45;&gt;Node9</title>
<path fill="none" stroke="midnightblue" d="M303.2,-219.617C319.458,-218.524 336.866,-217.354 353.038,-216.266"/>
<polygon fill="midnightblue" stroke="midnightblue" points="353.72,-219.728 363.463,-215.566 353.25,-212.744 353.72,-219.728"/>
</g>
<!-- Node8&#45;&gt;Node6 -->
<g id="edge9" class="edge"><title>Node8&#45;&gt;Node6</title>
<path fill="none" stroke="midnightblue" d="M492.456,-144.389C502.109,-145.484 511.939,-146.599 521.423,-147.675"/>
<polygon fill="midnightblue" stroke="midnightblue" points="521.222,-151.174 531.552,-148.824 522.011,-144.219 521.222,-151.174"/>
</g>
<!-- Node10 -->
<g id="node10" class="node"><title>Node10</title>
<g id="a_node10"><a xlink:href="../../d6/d85/classCCCC__Record.html#a03c15972bea5df4e34930fa4c34e34bd" target="_top" xlink:title="CCCC_Record::name">
<polygon fill="white" stroke="black" points="528,-202.5 528,-221.5 646,-221.5 646,-202.5 528,-202.5"/>
<text text-anchor="middle" x="587" y="-209.5" font-family="Helvetica,sans-Serif" font-size="10.00">CCCC_Record::name</text>
</a>
</g>
</g>
<!-- Node9&#45;&gt;Node10 -->
<g id="edge11" class="edge"><title>Node9&#45;&gt;Node10</title>
<path fill="none" stroke="midnightblue" d="M471.959,-212C486.428,-212 502.291,-212 517.464,-212"/>
<polygon fill="midnightblue" stroke="midnightblue" points="517.834,-215.5 527.833,-212 517.833,-208.5 517.834,-215.5"/>
</g>
<!-- Node12&#45;&gt;Node3 -->
<g id="edge18" class="edge"><title>Node12&#45;&gt;Node3</title>
<path fill="none" stroke="midnightblue" d="M254.264,-107.525C269.918,-117.487 293.191,-134.514 307,-155 336.698,-199.058 304.449,-232.436 343,-269 344.883,-270.786 346.91,-272.409 349.05,-273.884"/>
<polygon fill="midnightblue" stroke="midnightblue" points="347.365,-276.953 357.785,-278.873 350.837,-270.874 347.365,-276.953"/>
</g>
<!-- Node12&#45;&gt;Node5 -->
<g id="edge14" class="edge"><title>Node12&#45;&gt;Node5</title>
<path fill="none" stroke="midnightblue" d="M253.106,-107.567C268.305,-117.803 291.635,-135.258 307,-155 329.956,-184.495 314.191,-207.189 343,-231 345.045,-232.69 347.222,-234.231 349.498,-235.637"/>
<polygon fill="midnightblue" stroke="midnightblue" points="348.213,-238.914 358.701,-240.417 351.439,-232.702 348.213,-238.914"/>
</g>
<!-- Node12&#45;&gt;Node6 -->
<g id="edge15" class="edge"><title>Node12&#45;&gt;Node6</title>
<path fill="none" stroke="midnightblue" d="M259.972,-88.4176C305.15,-70.1759 411.018,-35.009 492,-67 527.657,-81.0859 557.726,-115.793 573.691,-137.17"/>
<polygon fill="midnightblue" stroke="midnightblue" points="570.954,-139.358 579.645,-145.417 576.629,-135.26 570.954,-139.358"/>
</g>
<!-- Node12&#45;&gt;Node7 -->
<g id="edge17" class="edge"><title>Node12&#45;&gt;Node7</title>
<path fill="none" stroke="midnightblue" d="M305.229,-95.7402C319.543,-95.259 334.664,-94.7508 348.989,-94.2693"/>
<polygon fill="midnightblue" stroke="midnightblue" points="349.379,-97.7582 359.256,-93.9242 349.144,-90.7622 349.379,-97.7582"/>
</g>
<!-- Node12&#45;&gt;Node8 -->
<g id="edge19" class="edge"><title>Node12&#45;&gt;Node8</title>
<path fill="none" stroke="midnightblue" d="M283.043,-107.589C307.023,-112.694 336.698,-119.011 361.972,-124.392"/>
<polygon fill="midnightblue" stroke="midnightblue" points="361.271,-127.821 371.781,-126.48 362.729,-120.974 361.271,-127.821"/>
</g>
<!-- Node12&#45;&gt;Node9 -->
<g id="edge20" class="edge"><title>Node12&#45;&gt;Node9</title>
<path fill="none" stroke="midnightblue" d="M252.912,-107.523C283.809,-127.256 355.056,-172.758 392.505,-196.675"/>
<polygon fill="midnightblue" stroke="midnightblue" points="390.941,-199.829 401.252,-202.262 394.708,-193.93 390.941,-199.829"/>
</g>
<!-- Node13 -->
<g id="node13" class="node"><title>Node13</title>
<g id="a_node13"><a xlink:href="../../d8/dcf/classCCCC__Table.html#a3a7ba7fd705a066ae69c4776b4d7e1f4" target="_top" xlink:title="CCCC_Table::find">
<polygon fill="white" stroke="black" points="367,-0.5 367,-19.5 468,-19.5 468,-0.5 367,-0.5"/>
<text text-anchor="middle" x="417.5" y="-7.5" font-family="Helvetica,sans-Serif" font-size="10.00">CCCC_Table::find</text>
</a>
</g>
</g>
<!-- Node12&#45;&gt;Node13 -->
<g id="edge16" class="edge"><title>Node12&#45;&gt;Node13</title>
<path fill="none" stroke="midnightblue" d="M251.363,-88.4507C270.784,-74.9045 308.289,-49.9825 343,-34 352.236,-29.7472 362.442,-25.9099 372.234,-22.6145"/>
<polygon fill="midnightblue" stroke="midnightblue" points="373.403,-25.9151 381.838,-19.5045 371.246,-19.2556 373.403,-25.9151"/>
</g>
<!-- Node14&#45;&gt;Node3 -->
<g id="edge25" class="edge"><title>Node14&#45;&gt;Node3</title>
<path fill="none" stroke="midnightblue" d="M291.742,-195.04C297.215,-197.836 302.431,-201.128 307,-205 331.898,-226.099 317.132,-249.102 343,-269 345.351,-270.808 347.856,-272.445 350.47,-273.927"/>
<polygon fill="midnightblue" stroke="midnightblue" points="349.187,-277.194 359.714,-278.392 352.232,-270.891 349.187,-277.194"/>
</g>
<!-- Node14&#45;&gt;Node5 -->
<g id="edge22" class="edge"><title>Node14&#45;&gt;Node5</title>
<path fill="none" stroke="midnightblue" d="M285.155,-195.092C292.616,-198.044 300.13,-201.366 307,-205 324.446,-214.228 325.137,-222.607 343,-231 348.07,-233.382 353.482,-235.497 358.983,-237.367"/>
<polygon fill="midnightblue" stroke="midnightblue" points="358.338,-240.833 368.927,-240.476 360.426,-234.151 358.338,-240.833"/>
</g>
<!-- Node14&#45;&gt;Node6 -->
<g id="edge23" class="edge"><title>Node14&#45;&gt;Node6</title>
<path fill="none" stroke="midnightblue" d="M302.234,-175.385C364.742,-170.895 459.193,-164.11 521.717,-159.618"/>
<polygon fill="midnightblue" stroke="midnightblue" points="522.128,-163.098 531.852,-158.89 521.627,-156.116 522.128,-163.098"/>
</g>
<!-- Node14&#45;&gt;Node7 -->
<g id="edge24" class="edge"><title>Node14&#45;&gt;Node7</title>
<path fill="none" stroke="midnightblue" d="M260.176,-164.791C280.919,-151.032 313.106,-130.86 343,-117 347.694,-114.823 352.634,-112.738 357.639,-110.764"/>
<polygon fill="midnightblue" stroke="midnightblue" points="359.182,-113.922 367.299,-107.113 356.707,-107.375 359.182,-113.922"/>
</g>
<!-- Node14&#45;&gt;Node8 -->
<g id="edge26" class="edge"><title>Node14&#45;&gt;Node8</title>
<path fill="none" stroke="midnightblue" d="M298.93,-164.981C321.512,-159.414 346.792,-153.183 368.107,-147.929"/>
<polygon fill="midnightblue" stroke="midnightblue" points="369.038,-151.304 377.91,-145.512 367.363,-144.508 369.038,-151.304"/>
</g>
<!-- Node14&#45;&gt;Node9 -->
<g id="edge27" class="edge"><title>Node14&#45;&gt;Node9</title>
<path fill="none" stroke="midnightblue" d="M302.19,-191.508C318.827,-194.49 336.728,-197.699 353.313,-200.672"/>
<polygon fill="midnightblue" stroke="midnightblue" points="352.986,-204.169 363.447,-202.489 354.221,-197.279 352.986,-204.169"/>
</g>
</g>
</svg>
        <g id="navigator" transform="translate(0 0)" fill="#404254">
                <rect fill="#f2f5e9" fill-opacity="0.5" stroke="#606060" stroke-width=".5" x="0" y="0" width="60" height="60"/>
                <use id="zoomplus" xlink:href="#zoomPlus" x="17" y="9" onmousedown="handleZoom(evt,'in')"/>
                <use id="zoomminus" xlink:href="#zoomMin" x="42" y="9" onmousedown="handleZoom(evt,'out')"/>
                <use id="reset" xlink:href="#resetDef" x="30" y="36" onmousedown="handleReset()"/>
                <g id="arrowUp" xlink:href="#dirArrow" transform="translate(30 24)" onmousedown="handlePan(0,-1)">
                  <use xlink:href="#rim" fill="#404040">
                        <set attributeName="fill" to="#808080" begin="arrowUp.mouseover" end="arrowUp.mouseout"/>
                  </use>
                  <path fill="none" stroke="white" stroke-width="1.5" d="M0,-3.0v7 M-2.5,-0.5L0,-3.0L2.5,-0.5"/>
                </g>
                <g id="arrowRight" xlink:href="#dirArrow" transform="rotate(90) translate(36 -43)" onmousedown="handlePan(1,0)">
                  <use xlink:href="#rim" fill="#404040">
                        <set attributeName="fill" to="#808080" begin="arrowRight.mouseover" end="arrowRight.mouseout"/>
                  </use>
                  <path fill="none" stroke="white" stroke-width="1.5" d="M0,-3.0v7 M-2.5,-0.5L0,-3.0L2.5,-0.5"/>
                </g>
                <g id="arrowDown" xlink:href="#dirArrow" transform="rotate(180) translate(-30 -48)" onmousedown="handlePan(0,1)">
                  <use xlink:href="#rim" fill="#404040">
                        <set attributeName="fill" to="#808080" begin="arrowDown.mouseover" end="arrowDown.mouseout"/>
                  </use>
                  <path fill="none" stroke="white" stroke-width="1.5" d="M0,-3.0v7 M-2.5,-0.5L0,-3.0L2.5,-0.5"/>
                </g>
                <g id="arrowLeft" xlink:href="#dirArrow" transform="rotate(270) translate(-36 17)" onmousedown="handlePan(-1,0)">
                  <use xlink:href="#rim" fill="#404040">
                        <set attributeName="fill" to="#808080" begin="arrowLeft.mouseover" end="arrowLeft.mouseout"/>
                  </use>
                  <path fill="none" stroke="white" stroke-width="1.5" d="M0,-3.0v7 M-2.5,-0.5L0,-3.0L2.5,-0.5"/>
                </g>
        </g>
        <svg viewBox="0 0 15 15" width="100%" height="30px" preserveAspectRatio="xMaxYMin meet">
         <g id="arrow_out" transform="scale(0.3 0.3)">
          <a xlink:href="classCCCC__Project_a189af779423cacf2ee6cbb9f738392cc_cgraph_org.svg" target="_base">
           <rect id="button" ry="5" rx="5" y="6" x="6" height="38" width="38"
                fill="#f2f5e9" fill-opacity="0.5" stroke="#606060" stroke-width="1.0"/>
           <path id="arrow"
             d="M 11.500037,31.436501 C 11.940474,20.09759 22.043105,11.32322 32.158766,21.979434 L 37.068811,17.246167 C 37.068811,17.246167 37.088388,32 37.088388,32 L 22.160133,31.978069 C 22.160133,31.978069 26.997745,27.140456 26.997745,27.140456 C 18.528582,18.264221 13.291696,25.230495 11.500037,31.436501 z"
             style="fill:#404040;"/>
          </a>
         </g>
        </svg>
</svg>
