<?xml version="1.0" encoding="UTF-8" standalone="no"?>
<!DOCTYPE svg PUBLIC "-//W3C//DTD SVG 1.1//EN"
 "http://www.w3.org/Graphics/SVG/1.1/DTD/svg11.dtd">
<!-- Generated by graphviz version 2.38.0 (20140413.2041)
 -->
<!-- Title: Source_Anchor Pages: 1 -->
<svg width="137pt" height="163pt"
 viewBox="0.00 0.00 136.50 163.00" xmlns="http://www.w3.org/2000/svg" xmlns:xlink="http://www.w3.org/1999/xlink">
<g id="graph0" class="graph" transform="scale(1 1) rotate(0) translate(4 159)">
<title>Source_Anchor</title>
<polygon fill="white" stroke="none" points="-4,4 -4,-159 132.5,-159 132.5,4 -4,4"/>
<!-- Node1 -->
<g id="node1" class="node"><title>Node1</title>
<polygon fill="#bfbfbf" stroke="black" points="-7.10543e-15,-0.5 -7.10543e-15,-19.5 89,-19.5 89,-0.5 -7.10543e-15,-0.5"/>
<text text-anchor="middle" x="44.5" y="-7.5" font-family="Helvetica,sans-Serif" font-size="10.00">Source_Anchor</text>
</g>
<!-- Node2 -->
<g id="node2" class="node"><title>Node2</title>
<polygon fill="white" stroke="#bfbfbf" points="2,-67.5 2,-86.5 31,-86.5 31,-67.5 2,-67.5"/>
<text text-anchor="middle" x="16.5" y="-74.5" font-family="Helvetica,sans-Serif" font-size="10.00">int</text>
</g>
<!-- Node2&#45;&gt;Node1 -->
<g id="edge1" class="edge"><title>Node2&#45;&gt;Node1</title>
<path fill="none" stroke="#9a32cd" stroke-dasharray="5,2" d="M18.8493,-56.9896C20.0482,-50.758 21.8391,-43.9184 24.5,-38 27.4662,-31.4027 32.2512,-24.8618 36.3972,-19.8705"/>
<polygon fill="#9a32cd" stroke="#9a32cd" points="15.3368,-56.8024 17.2704,-67.2193 22.2549,-57.8702 15.3368,-56.8024"/>
<text text-anchor="middle" x="37.5" y="-41" font-family="Helvetica,sans-Serif" font-size="10.00"> line_</text>
</g>
<!-- Node3 -->
<g id="node3" class="node"><title>Node3</title>
<g id="a_node3"><a xlink:title="STL class. ">
<polygon fill="white" stroke="#bfbfbf" points="48.5,-67.5 48.5,-86.5 110.5,-86.5 110.5,-67.5 48.5,-67.5"/>
<text text-anchor="middle" x="79.5" y="-74.5" font-family="Helvetica,sans-Serif" font-size="10.00">std::string</text>
</a>
</g>
</g>
<!-- Node3&#45;&gt;Node1 -->
<g id="edge2" class="edge"><title>Node3&#45;&gt;Node1</title>
<path fill="none" stroke="#9a32cd" stroke-dasharray="5,2" d="M69.8957,-58.1635C63.1459,-45.6281 54.4133,-29.4104 49.1455,-19.6273"/>
<polygon fill="#9a32cd" stroke="#9a32cd" points="66.957,-60.0885 74.7797,-67.2338 73.1203,-56.7697 66.957,-60.0885"/>
<text text-anchor="middle" x="75" y="-41" font-family="Helvetica,sans-Serif" font-size="10.00"> file_</text>
</g>
<!-- Node4 -->
<g id="node4" class="node"><title>Node4</title>
<g id="a_node4"><a xlink:title="STL class. ">
<polygon fill="white" stroke="#bfbfbf" points="30.5,-124.5 30.5,-154.5 128.5,-154.5 128.5,-124.5 30.5,-124.5"/>
<text text-anchor="start" x="38.5" y="-142.5" font-family="Helvetica,sans-Serif" font-size="10.00">std::basic_string&lt;</text>
<text text-anchor="middle" x="79.5" y="-131.5" font-family="Helvetica,sans-Serif" font-size="10.00"> char &gt;</text>
</a>
</g>
</g>
<!-- Node4&#45;&gt;Node3 -->
<g id="edge3" class="edge"><title>Node4&#45;&gt;Node3</title>
<path fill="none" stroke="midnightblue" d="M79.5,-114.352C79.5,-104.513 79.5,-93.7753 79.5,-86.5399"/>
<polygon fill="midnightblue" stroke="midnightblue" points="76.0001,-114.468 79.5,-124.468 83.0001,-114.468 76.0001,-114.468"/>
</g>
</g>
</svg>
