<?xml version="1.0" encoding="UTF-8" standalone="no"?>
<!DOCTYPE svg PUBLIC "-//W3C//DTD SVG 1.1//EN"
 "http://www.w3.org/Graphics/SVG/1.1/DTD/svg11.dtd">
<!-- Generated by graphviz version 2.38.0 (20140413.2041)
 -->
<!-- Title: cccc_prj.cc Pages: 1 -->
<svg width="826pt" height="532pt"
 viewBox="0.00 0.00 825.50 532.00" xmlns="http://www.w3.org/2000/svg" xmlns:xlink="http://www.w3.org/1999/xlink">
<g id="graph0" class="graph" transform="scale(1 1) rotate(0) translate(4 528)">
<title>cccc_prj.cc</title>
<polygon fill="white" stroke="none" points="-4,4 -4,-528 821.5,-528 821.5,4 -4,4"/>
<!-- Node1 -->
<g id="node1" class="node"><title>Node1</title>
<polygon fill="#bfbfbf" stroke="black" points="329,-504.5 329,-523.5 397,-523.5 397,-504.5 329,-504.5"/>
<text text-anchor="middle" x="363" y="-511.5" font-family="Helvetica,sans-Serif" font-size="10.00">cccc_prj.cc</text>
</g>
<!-- Node2 -->
<g id="node2" class="node"><title>Node2</title>
<g id="a_node2"><a xlink:href="../../d0/d84/cccc_8h.html" target="_top" xlink:title="cccc.h">
<polygon fill="white" stroke="black" points="363,-112.5 363,-131.5 409,-131.5 409,-112.5 363,-112.5"/>
<text text-anchor="middle" x="386" y="-119.5" font-family="Helvetica,sans-Serif" font-size="10.00">cccc.h</text>
</a>
</g>
</g>
<!-- Node1&#45;&gt;Node2 -->
<g id="edge1" class="edge"><title>Node1&#45;&gt;Node2</title>
<path fill="none" stroke="midnightblue" d="M344.188,-504.49C313.245,-489.053 255,-453.315 255,-403 255,-403 255,-403 255,-233 255,-181.667 314.723,-149.506 353.518,-134.029"/>
<polygon fill="midnightblue" stroke="midnightblue" points="354.789,-137.29 362.881,-130.452 352.291,-130.751 354.789,-137.29"/>
</g>
<!-- Node16 -->
<g id="node16" class="node"><title>Node16</title>
<g id="a_node16"><a xlink:href="../../dd/d1e/cccc__itm_8h.html" target="_top" xlink:title="cccc_itm.h">
<polygon fill="white" stroke="black" points="378.5,-168.5 378.5,-187.5 443.5,-187.5 443.5,-168.5 378.5,-168.5"/>
<text text-anchor="middle" x="411" y="-175.5" font-family="Helvetica,sans-Serif" font-size="10.00">cccc_itm.h</text>
</a>
</g>
</g>
<!-- Node1&#45;&gt;Node16 -->
<g id="edge16" class="edge"><title>Node1&#45;&gt;Node16</title>
<path fill="none" stroke="midnightblue" d="M358.684,-504.408C349.95,-486.2 331,-442.181 331,-403 331,-403 331,-403 331,-289 331,-248.621 366.695,-213.106 390.398,-193.973"/>
<polygon fill="midnightblue" stroke="midnightblue" points="392.745,-196.582 398.5,-187.687 388.454,-191.052 392.745,-196.582"/>
</g>
<!-- Node17 -->
<g id="node17" class="node"><title>Node17</title>
<g id="a_node17"><a xlink:href="../../d1/da4/cccc__prj_8h.html" target="_top" xlink:title="cccc_prj.h">
<polygon fill="white" stroke="black" points="449,-392.5 449,-411.5 513,-411.5 513,-392.5 449,-392.5"/>
<text text-anchor="middle" x="481" y="-399.5" font-family="Helvetica,sans-Serif" font-size="10.00">cccc_prj.h</text>
</a>
</g>
</g>
<!-- Node1&#45;&gt;Node17 -->
<g id="edge18" class="edge"><title>Node1&#45;&gt;Node17</title>
<path fill="none" stroke="midnightblue" d="M372.259,-504.368C392.163,-485.814 439.257,-441.913 464.44,-418.438"/>
<polygon fill="midnightblue" stroke="midnightblue" points="466.856,-420.97 471.784,-411.591 462.082,-415.85 466.856,-420.97"/>
</g>
<!-- Node25 -->
<g id="node25" class="node"><title>Node25</title>
<g id="a_node25"><a xlink:href="../../d7/d44/cccc__db_8h.html" target="_top" xlink:title="cccc_db.h">
<polygon fill="white" stroke="black" points="479.5,-448.5 479.5,-467.5 542.5,-467.5 542.5,-448.5 479.5,-448.5"/>
<text text-anchor="middle" x="511" y="-455.5" font-family="Helvetica,sans-Serif" font-size="10.00">cccc_db.h</text>
</a>
</g>
</g>
<!-- Node1&#45;&gt;Node25 -->
<g id="edge37" class="edge"><title>Node1&#45;&gt;Node25</title>
<path fill="none" stroke="midnightblue" d="M386.451,-504.444C411.133,-495.438 450.185,-481.189 477.977,-471.049"/>
<polygon fill="midnightblue" stroke="midnightblue" points="479.464,-474.232 487.659,-467.516 477.065,-467.656 479.464,-474.232"/>
</g>
<!-- Node3 -->
<g id="node3" class="node"><title>Node3</title>
<polygon fill="white" stroke="#bfbfbf" points="464.5,-56.5 464.5,-75.5 515.5,-75.5 515.5,-56.5 464.5,-56.5"/>
<text text-anchor="middle" x="490" y="-63.5" font-family="Helvetica,sans-Serif" font-size="10.00">cassert</text>
</g>
<!-- Node2&#45;&gt;Node3 -->
<g id="edge2" class="edge"><title>Node2&#45;&gt;Node3</title>
<path fill="none" stroke="midnightblue" d="M402.709,-112.324C419.312,-103.703 445.002,-90.3643 464.22,-80.3855"/>
<polygon fill="midnightblue" stroke="midnightblue" points="466.07,-83.3689 473.332,-75.6545 462.844,-77.1565 466.07,-83.3689"/>
</g>
<!-- Node4 -->
<g id="node4" class="node"><title>Node4</title>
<polygon fill="white" stroke="#bfbfbf" points="338.5,-56.5 338.5,-75.5 383.5,-75.5 383.5,-56.5 338.5,-56.5"/>
<text text-anchor="middle" x="361" y="-63.5" font-family="Helvetica,sans-Serif" font-size="10.00">cmath</text>
</g>
<!-- Node2&#45;&gt;Node4 -->
<g id="edge3" class="edge"><title>Node2&#45;&gt;Node4</title>
<path fill="none" stroke="midnightblue" d="M381.872,-112.083C378.486,-104.77 373.584,-94.1814 369.381,-85.1034"/>
<polygon fill="midnightblue" stroke="midnightblue" points="372.429,-83.3553 365.051,-75.7511 366.077,-86.2962 372.429,-83.3553"/>
</g>
<!-- Node5 -->
<g id="node5" class="node"><title>Node5</title>
<polygon fill="white" stroke="#bfbfbf" points="402,-56.5 402,-75.5 446,-75.5 446,-56.5 402,-56.5"/>
<text text-anchor="middle" x="424" y="-63.5" font-family="Helvetica,sans-Serif" font-size="10.00">cstdio</text>
</g>
<!-- Node2&#45;&gt;Node5 -->
<g id="edge4" class="edge"><title>Node2&#45;&gt;Node5</title>
<path fill="none" stroke="midnightblue" d="M392.275,-112.083C397.642,-104.455 405.518,-93.2645 412.079,-83.9408"/>
<polygon fill="midnightblue" stroke="midnightblue" points="414.949,-85.9434 417.842,-75.7511 409.225,-81.9149 414.949,-85.9434"/>
</g>
<!-- Node6 -->
<g id="node6" class="node"><title>Node6</title>
<polygon fill="white" stroke="#bfbfbf" points="0,-56.5 0,-75.5 48,-75.5 48,-56.5 0,-56.5"/>
<text text-anchor="middle" x="24" y="-63.5" font-family="Helvetica,sans-Serif" font-size="10.00">cstring</text>
</g>
<!-- Node2&#45;&gt;Node6 -->
<g id="edge5" class="edge"><title>Node2&#45;&gt;Node6</title>
<path fill="none" stroke="midnightblue" d="M362.69,-118.866C310.085,-113.828 178.029,-99.9334 58.1435,-75.9948"/>
<polygon fill="midnightblue" stroke="midnightblue" points="58.5595,-72.5081 48.0635,-73.9521 57.1691,-79.3686 58.5595,-72.5081"/>
</g>
<!-- Node7 -->
<g id="node7" class="node"><title>Node7</title>
<polygon fill="white" stroke="#bfbfbf" points="66,-56.5 66,-75.5 112,-75.5 112,-56.5 66,-56.5"/>
<text text-anchor="middle" x="89" y="-63.5" font-family="Helvetica,sans-Serif" font-size="10.00">cstdlib</text>
</g>
<!-- Node2&#45;&gt;Node7 -->
<g id="edge6" class="edge"><title>Node2&#45;&gt;Node7</title>
<path fill="none" stroke="midnightblue" d="M362.799,-117.904C318.099,-111.761 216.794,-96.9703 122.345,-76.1116"/>
<polygon fill="midnightblue" stroke="midnightblue" points="122.869,-72.6424 112.346,-73.8744 121.34,-79.4735 122.869,-72.6424"/>
</g>
<!-- Node8 -->
<g id="node8" class="node"><title>Node8</title>
<polygon fill="white" stroke="#bfbfbf" points="130.5,-56.5 130.5,-75.5 177.5,-75.5 177.5,-56.5 130.5,-56.5"/>
<text text-anchor="middle" x="154" y="-63.5" font-family="Helvetica,sans-Serif" font-size="10.00">cctype</text>
</g>
<!-- Node2&#45;&gt;Node8 -->
<g id="edge7" class="edge"><title>Node2&#45;&gt;Node8</title>
<path fill="none" stroke="midnightblue" d="M362.941,-116.129C327.453,-108.56 257.105,-93.2644 187.564,-76.0543"/>
<polygon fill="midnightblue" stroke="midnightblue" points="188.31,-72.6333 177.76,-73.6138 186.619,-79.4259 188.31,-72.6333"/>
</g>
<!-- Node9 -->
<g id="node9" class="node"><title>Node9</title>
<polygon fill="white" stroke="#bfbfbf" points="774.5,-56.5 774.5,-75.5 817.5,-75.5 817.5,-56.5 774.5,-56.5"/>
<text text-anchor="middle" x="796" y="-63.5" font-family="Helvetica,sans-Serif" font-size="10.00">string</text>
</g>
<!-- Node2&#45;&gt;Node9 -->
<g id="edge8" class="edge"><title>Node2&#45;&gt;Node9</title>
<path fill="none" stroke="midnightblue" d="M409.283,-119.573C467.529,-115.721 624.301,-103.621 764.378,-75.7842"/>
<polygon fill="midnightblue" stroke="midnightblue" points="765.324,-79.1638 774.433,-73.7527 763.938,-72.3025 765.324,-79.1638"/>
</g>
<!-- Node10 -->
<g id="node10" class="node"><title>Node10</title>
<polygon fill="white" stroke="#bfbfbf" points="699.5,-56.5 699.5,-75.5 756.5,-75.5 756.5,-56.5 699.5,-56.5"/>
<text text-anchor="middle" x="728" y="-63.5" font-family="Helvetica,sans-Serif" font-size="10.00">iostream</text>
</g>
<!-- Node2&#45;&gt;Node10 -->
<g id="edge9" class="edge"><title>Node2&#45;&gt;Node10</title>
<path fill="none" stroke="midnightblue" d="M409.379,-118.232C459.007,-112.211 578.706,-96.9082 689.425,-75.9574"/>
<polygon fill="midnightblue" stroke="midnightblue" points="690.258,-79.3615 699.423,-74.0451 688.943,-72.4861 690.258,-79.3615"/>
</g>
<!-- Node11 -->
<g id="node11" class="node"><title>Node11</title>
<polygon fill="white" stroke="#bfbfbf" points="196,-56.5 196,-75.5 250,-75.5 250,-56.5 196,-56.5"/>
<text text-anchor="middle" x="223" y="-63.5" font-family="Helvetica,sans-Serif" font-size="10.00">sstream</text>
</g>
<!-- Node2&#45;&gt;Node11 -->
<g id="edge10" class="edge"><title>Node2&#45;&gt;Node11</title>
<path fill="none" stroke="midnightblue" d="M362.992,-113.378C335.831,-104.38 290.352,-89.3129 258.626,-78.8025"/>
<polygon fill="midnightblue" stroke="midnightblue" points="259.443,-75.3861 248.85,-75.5637 257.242,-82.031 259.443,-75.3861"/>
</g>
<!-- Node12 -->
<g id="node12" class="node"><title>Node12</title>
<polygon fill="white" stroke="#bfbfbf" points="268,-56.5 268,-75.5 320,-75.5 320,-56.5 268,-56.5"/>
<text text-anchor="middle" x="294" y="-63.5" font-family="Helvetica,sans-Serif" font-size="10.00">fstream</text>
</g>
<!-- Node2&#45;&gt;Node12 -->
<g id="edge11" class="edge"><title>Node2&#45;&gt;Node12</title>
<path fill="none" stroke="midnightblue" d="M371.219,-112.324C356.733,-103.822 334.427,-90.7288 317.507,-80.7975"/>
<polygon fill="midnightblue" stroke="midnightblue" points="319.141,-77.6981 308.745,-75.6545 315.597,-83.735 319.141,-77.6981"/>
</g>
<!-- Node13 -->
<g id="node13" class="node"><title>Node13</title>
<g id="a_node13"><a xlink:href="../../d1/d7d/cccc__tok_8h.html" target="_top" xlink:title="cccc_tok.h">
<polygon fill="white" stroke="black" points="534,-56.5 534,-75.5 600,-75.5 600,-56.5 534,-56.5"/>
<text text-anchor="middle" x="567" y="-63.5" font-family="Helvetica,sans-Serif" font-size="10.00">cccc_tok.h</text>
</a>
</g>
</g>
<!-- Node2&#45;&gt;Node13 -->
<g id="edge12" class="edge"><title>Node2&#45;&gt;Node13</title>
<path fill="none" stroke="midnightblue" d="M409.219,-112.562C438.24,-103.29 488.125,-88.3548 524.115,-78.129"/>
<polygon fill="midnightblue" stroke="midnightblue" points="525.194,-81.4613 533.868,-75.3783 523.293,-74.7241 525.194,-81.4613"/>
</g>
<!-- Node15 -->
<g id="node15" class="node"><title>Node15</title>
<polygon fill="white" stroke="#bfbfbf" points="618.5,-56.5 618.5,-75.5 681.5,-75.5 681.5,-56.5 618.5,-56.5"/>
<text text-anchor="middle" x="650" y="-63.5" font-family="Helvetica,sans-Serif" font-size="10.00">AParser.h</text>
</g>
<!-- Node2&#45;&gt;Node15 -->
<g id="edge15" class="edge"><title>Node2&#45;&gt;Node15</title>
<path fill="none" stroke="midnightblue" d="M409.141,-116.465C448.014,-108.817 529.133,-92.7361 608.109,-76.1593"/>
<polygon fill="midnightblue" stroke="midnightblue" points="609.162,-79.5144 618.227,-74.0302 607.721,-72.6644 609.162,-79.5144"/>
</g>
<!-- Node13&#45;&gt;Node2 -->
<g id="edge13" class="edge"><title>Node13&#45;&gt;Node2</title>
<path fill="none" stroke="midnightblue" d="M543.554,-75.5102C511.847,-85.6355 455.529,-102.437 419.425,-112.54"/>
<polygon fill="midnightblue" stroke="midnightblue" points="418.071,-109.283 409.367,-115.323 419.938,-116.029 418.071,-109.283"/>
</g>
<!-- Node14 -->
<g id="node14" class="node"><title>Node14</title>
<polygon fill="white" stroke="#bfbfbf" points="536,-0.5 536,-19.5 598,-19.5 598,-0.5 536,-0.5"/>
<text text-anchor="middle" x="567" y="-7.5" font-family="Helvetica,sans-Serif" font-size="10.00">AToken.h</text>
</g>
<!-- Node13&#45;&gt;Node14 -->
<g id="edge14" class="edge"><title>Node13&#45;&gt;Node14</title>
<path fill="none" stroke="midnightblue" d="M567,-56.083C567,-49.0059 567,-38.8611 567,-29.9865"/>
<polygon fill="midnightblue" stroke="midnightblue" points="570.5,-29.751 567,-19.7511 563.5,-29.7511 570.5,-29.751"/>
</g>
<!-- Node16&#45;&gt;Node2 -->
<g id="edge17" class="edge"><title>Node16&#45;&gt;Node2</title>
<path fill="none" stroke="midnightblue" d="M406.872,-168.083C403.486,-160.77 398.584,-150.181 394.381,-141.103"/>
<polygon fill="midnightblue" stroke="midnightblue" points="397.429,-139.355 390.051,-131.751 391.077,-142.296 397.429,-139.355"/>
</g>
<!-- Node18 -->
<g id="node18" class="node"><title>Node18</title>
<g id="a_node18"><a xlink:href="../../df/de9/cccc__rec_8h.html" target="_top" xlink:title="cccc_rec.h">
<polygon fill="white" stroke="black" points="572.5,-336.5 572.5,-355.5 639.5,-355.5 639.5,-336.5 572.5,-336.5"/>
<text text-anchor="middle" x="606" y="-343.5" font-family="Helvetica,sans-Serif" font-size="10.00">cccc_rec.h</text>
</a>
</g>
</g>
<!-- Node17&#45;&gt;Node18 -->
<g id="edge19" class="edge"><title>Node17&#45;&gt;Node18</title>
<path fill="none" stroke="midnightblue" d="M500.807,-392.444C521.287,-383.596 553.483,-369.687 576.865,-359.586"/>
<polygon fill="midnightblue" stroke="midnightblue" points="578.494,-362.695 586.286,-355.516 575.718,-356.269 578.494,-362.695"/>
</g>
<!-- Node19 -->
<g id="node19" class="node"><title>Node19</title>
<g id="a_node19"><a xlink:href="../../df/dd4/cccc__tbl_8h.html" target="_top" xlink:title="cccc_tbl.h">
<polygon fill="white" stroke="black" points="637,-280.5 637,-299.5 699,-299.5 699,-280.5 637,-280.5"/>
<text text-anchor="middle" x="668" y="-287.5" font-family="Helvetica,sans-Serif" font-size="10.00">cccc_tbl.h</text>
</a>
</g>
</g>
<!-- Node18&#45;&gt;Node19 -->
<g id="edge20" class="edge"><title>Node18&#45;&gt;Node19</title>
<path fill="none" stroke="midnightblue" d="M615.961,-336.324C625.127,-328.341 638.937,-316.313 650.028,-306.653"/>
<polygon fill="midnightblue" stroke="midnightblue" points="652.615,-309.041 657.857,-299.834 648.018,-303.762 652.615,-309.041"/>
</g>
<!-- Node22 -->
<g id="node22" class="node"><title>Node22</title>
<g id="a_node22"><a xlink:href="../../d3/d11/cccc__ext_8h.html" target="_top" xlink:title="cccc_ext.h">
<polygon fill="white" stroke="black" points="722,-280.5 722,-299.5 788,-299.5 788,-280.5 722,-280.5"/>
<text text-anchor="middle" x="755" y="-287.5" font-family="Helvetica,sans-Serif" font-size="10.00">cccc_ext.h</text>
</a>
</g>
</g>
<!-- Node18&#45;&gt;Node22 -->
<g id="edge28" class="edge"><title>Node18&#45;&gt;Node22</title>
<path fill="none" stroke="midnightblue" d="M629.609,-336.444C654.458,-327.438 693.774,-313.189 721.754,-303.049"/>
<polygon fill="midnightblue" stroke="midnightblue" points="723.292,-306.214 731.501,-299.516 720.907,-299.633 723.292,-306.214"/>
</g>
<!-- Node23 -->
<g id="node23" class="node"><title>Node23</title>
<g id="a_node23"><a xlink:href="../../d7/d8f/cccc__utl_8h.html" target="_top" xlink:title="cccc_utl.h">
<polygon fill="white" stroke="black" points="575,-224.5 575,-243.5 637,-243.5 637,-224.5 575,-224.5"/>
<text text-anchor="middle" x="606" y="-231.5" font-family="Helvetica,sans-Serif" font-size="10.00">cccc_utl.h</text>
</a>
</g>
</g>
<!-- Node18&#45;&gt;Node23 -->
<g id="edge36" class="edge"><title>Node18&#45;&gt;Node23</title>
<path fill="none" stroke="midnightblue" d="M606,-336.368C606,-318.617 606,-277.666 606,-253.597"/>
<polygon fill="midnightblue" stroke="midnightblue" points="609.5,-253.591 606,-243.591 602.5,-253.591 609.5,-253.591"/>
</g>
<!-- Node19&#45;&gt;Node9 -->
<g id="edge22" class="edge"><title>Node19&#45;&gt;Node9</title>
<path fill="none" stroke="midnightblue" d="M681.018,-280.329C692.533,-272.11 709.146,-258.84 720,-244 757.604,-192.588 781.323,-119.698 791.002,-85.7501"/>
<polygon fill="midnightblue" stroke="midnightblue" points="794.456,-86.3885 793.746,-75.8175 787.709,-84.5244 794.456,-86.3885"/>
</g>
<!-- Node19&#45;&gt;Node10 -->
<g id="edge21" class="edge"><title>Node19&#45;&gt;Node10</title>
<path fill="none" stroke="midnightblue" d="M674.826,-280.487C687.623,-263.9 714.759,-225.576 724,-188 732.671,-152.745 731.462,-109.977 729.758,-85.8861"/>
<polygon fill="midnightblue" stroke="midnightblue" points="733.226,-85.3561 728.923,-75.6746 726.249,-85.9267 733.226,-85.3561"/>
</g>
<!-- Node20 -->
<g id="node20" class="node"><title>Node20</title>
<polygon fill="white" stroke="#bfbfbf" points="678.5,-168.5 678.5,-187.5 715.5,-187.5 715.5,-168.5 678.5,-168.5"/>
<text text-anchor="middle" x="697" y="-175.5" font-family="Helvetica,sans-Serif" font-size="10.00">map</text>
</g>
<!-- Node19&#45;&gt;Node20 -->
<g id="edge23" class="edge"><title>Node19&#45;&gt;Node20</title>
<path fill="none" stroke="midnightblue" d="M670.276,-280.368C674.977,-262.537 685.849,-221.295 692.183,-197.272"/>
<polygon fill="midnightblue" stroke="midnightblue" points="695.57,-198.153 694.735,-187.591 688.801,-196.369 695.57,-198.153"/>
</g>
<!-- Node21 -->
<g id="node21" class="node"><title>Node21</title>
<g id="a_node21"><a xlink:href="../../d1/d17/cccc__tbl_8cc.html" target="_top" xlink:title="cccc_tbl.cc">
<polygon fill="white" stroke="black" points="486.5,-224.5 486.5,-243.5 553.5,-243.5 553.5,-224.5 486.5,-224.5"/>
<text text-anchor="middle" x="520" y="-231.5" font-family="Helvetica,sans-Serif" font-size="10.00">cccc_tbl.cc</text>
</a>
</g>
</g>
<!-- Node19&#45;&gt;Node21 -->
<g id="edge24" class="edge"><title>Node19&#45;&gt;Node21</title>
<path fill="none" stroke="midnightblue" d="M639.46,-280.444C612.92,-271.478 573.881,-257.314 547.639,-247.183"/>
<polygon fill="midnightblue" stroke="midnightblue" points="548.849,-243.898 538.261,-243.516 546.301,-250.417 548.849,-243.898"/>
</g>
<!-- Node21&#45;&gt;Node3 -->
<g id="edge27" class="edge"><title>Node21&#45;&gt;Node3</title>
<path fill="none" stroke="midnightblue" d="M518.387,-224.075C513.665,-197.945 499.797,-121.211 493.357,-85.577"/>
<polygon fill="midnightblue" stroke="midnightblue" points="496.771,-84.7862 491.548,-75.5681 489.883,-86.0312 496.771,-84.7862"/>
</g>
<!-- Node21&#45;&gt;Node16 -->
<g id="edge25" class="edge"><title>Node21&#45;&gt;Node16</title>
<path fill="none" stroke="midnightblue" d="M502.487,-224.324C484.928,-215.625 457.669,-202.12 437.469,-192.113"/>
<polygon fill="midnightblue" stroke="midnightblue" points="438.984,-188.958 428.469,-187.655 435.876,-195.23 438.984,-188.958"/>
</g>
<!-- Node21&#45;&gt;Node19 -->
<g id="edge26" class="edge"><title>Node21&#45;&gt;Node19</title>
<path fill="none" stroke="midnightblue" d="M548.421,-243.516C574.924,-252.467 613.964,-266.629 640.243,-276.772"/>
<polygon fill="midnightblue" stroke="midnightblue" points="639.05,-280.063 649.638,-280.444 641.598,-273.544 639.05,-280.063"/>
</g>
<!-- Node22&#45;&gt;Node9 -->
<g id="edge29" class="edge"><title>Node22&#45;&gt;Node9</title>
<path fill="none" stroke="midnightblue" d="M766.541,-280.49C776.479,-272.379 790.122,-259.178 796,-244 817.044,-189.657 806.91,-118.696 800.242,-85.5594"/>
<polygon fill="midnightblue" stroke="midnightblue" points="803.605,-84.5483 798.085,-75.505 796.761,-86.0168 803.605,-84.5483"/>
</g>
<!-- Node22&#45;&gt;Node23 -->
<g id="edge30" class="edge"><title>Node22&#45;&gt;Node23</title>
<path fill="none" stroke="midnightblue" d="M731.391,-280.444C706.542,-271.438 667.226,-257.189 639.246,-247.049"/>
<polygon fill="midnightblue" stroke="midnightblue" points="640.093,-243.633 629.499,-243.516 637.708,-250.214 640.093,-243.633"/>
</g>
<!-- Node23&#45;&gt;Node2 -->
<g id="edge31" class="edge"><title>Node23&#45;&gt;Node2</title>
<path fill="none" stroke="midnightblue" d="M588.737,-224.368C550.342,-205.171 457.684,-158.842 412.148,-136.074"/>
<polygon fill="midnightblue" stroke="midnightblue" points="413.692,-132.933 403.183,-131.591 410.562,-139.194 413.692,-132.933"/>
</g>
<!-- Node23&#45;&gt;Node13 -->
<g id="edge34" class="edge"><title>Node23&#45;&gt;Node13</title>
<path fill="none" stroke="midnightblue" d="M595.01,-224.365C585.547,-216.171 572.564,-202.917 567,-188 554.197,-153.678 558.836,-109.97 563.096,-85.5887"/>
<polygon fill="midnightblue" stroke="midnightblue" points="566.57,-86.054 565.02,-75.5732 559.696,-84.7331 566.57,-86.054"/>
</g>
<!-- Node23&#45;&gt;Node15 -->
<g id="edge35" class="edge"><title>Node23&#45;&gt;Node15</title>
<path fill="none" stroke="midnightblue" d="M611.947,-224.466C617.745,-215.719 626.347,-201.521 631,-188 642.952,-153.268 647.425,-110.318 649.071,-86.0523"/>
<polygon fill="midnightblue" stroke="midnightblue" points="652.583,-85.946 649.672,-75.759 645.595,-85.5379 652.583,-85.946"/>
</g>
<!-- Node23&#45;&gt;Node20 -->
<g id="edge32" class="edge"><title>Node23&#45;&gt;Node20</title>
<path fill="none" stroke="midnightblue" d="M620.621,-224.324C634.949,-215.822 657.013,-202.729 673.749,-192.797"/>
<polygon fill="midnightblue" stroke="midnightblue" points="675.602,-195.768 682.416,-187.655 672.03,-189.748 675.602,-195.768"/>
</g>
<!-- Node24 -->
<g id="node24" class="node"><title>Node24</title>
<polygon fill="white" stroke="#bfbfbf" points="576,-168.5 576,-187.5 622,-187.5 622,-168.5 576,-168.5"/>
<text text-anchor="middle" x="599" y="-175.5" font-family="Helvetica,sans-Serif" font-size="10.00">vector</text>
</g>
<!-- Node23&#45;&gt;Node24 -->
<g id="edge33" class="edge"><title>Node23&#45;&gt;Node24</title>
<path fill="none" stroke="midnightblue" d="M604.844,-224.083C603.916,-216.927 602.582,-206.635 601.423,-197.691"/>
<polygon fill="midnightblue" stroke="midnightblue" points="604.891,-197.218 600.134,-187.751 597.949,-198.118 604.891,-197.218"/>
</g>
<!-- Node25&#45;&gt;Node2 -->
<g id="edge38" class="edge"><title>Node25&#45;&gt;Node2</title>
<path fill="none" stroke="midnightblue" d="M479.301,-455.281C418.839,-450.113 293,-429.453 293,-347 293,-347 293,-347 293,-233 293,-190.311 334.351,-155.643 361.907,-137.28"/>
<polygon fill="midnightblue" stroke="midnightblue" points="364.106,-140.028 370.643,-131.69 360.333,-134.132 364.106,-140.028"/>
</g>
<!-- Node25&#45;&gt;Node17 -->
<g id="edge41" class="edge"><title>Node25&#45;&gt;Node17</title>
<path fill="none" stroke="midnightblue" d="M506.046,-448.083C501.896,-440.613 495.847,-429.724 490.733,-420.52"/>
<polygon fill="midnightblue" stroke="midnightblue" points="493.778,-418.793 485.862,-411.751 487.659,-422.192 493.778,-418.793"/>
</g>
<!-- Node25&#45;&gt;Node18 -->
<g id="edge40" class="edge"><title>Node25&#45;&gt;Node18</title>
<path fill="none" stroke="midnightblue" d="M516.951,-448.266C525.803,-435.478 543.204,-411.104 560,-392 569.036,-381.722 579.957,-370.976 588.891,-362.564"/>
<polygon fill="midnightblue" stroke="midnightblue" points="591.474,-364.942 596.424,-355.575 586.713,-359.81 591.474,-364.942"/>
</g>
<!-- Node25&#45;&gt;Node22 -->
<g id="edge39" class="edge"><title>Node25&#45;&gt;Node22</title>
<path fill="none" stroke="midnightblue" d="M542.814,-455.131C598.847,-451.149 711.71,-439.808 738,-412 764.024,-384.473 762.014,-336.472 758.417,-309.956"/>
<polygon fill="midnightblue" stroke="midnightblue" points="761.819,-309.062 756.802,-299.731 754.905,-310.155 761.819,-309.062"/>
</g>
<!-- Node26 -->
<g id="node26" class="node"><title>Node26</title>
<g id="a_node26"><a xlink:href="../../df/d69/cccc__mod_8h.html" target="_top" xlink:title="cccc_mod.h">
<polygon fill="white" stroke="black" points="359,-392.5 359,-411.5 431,-411.5 431,-392.5 359,-392.5"/>
<text text-anchor="middle" x="395" y="-399.5" font-family="Helvetica,sans-Serif" font-size="10.00">cccc_mod.h</text>
</a>
</g>
</g>
<!-- Node25&#45;&gt;Node26 -->
<g id="edge42" class="edge"><title>Node25&#45;&gt;Node26</title>
<path fill="none" stroke="midnightblue" d="M492.619,-448.444C473.784,-439.675 444.269,-425.935 422.621,-415.858"/>
<polygon fill="midnightblue" stroke="midnightblue" points="423.838,-412.564 413.295,-411.516 420.883,-418.91 423.838,-412.564"/>
</g>
<!-- Node27 -->
<g id="node27" class="node"><title>Node27</title>
<g id="a_node27"><a xlink:href="../../dc/da1/cccc__mem_8h.html" target="_top" xlink:title="cccc_mem.h">
<polygon fill="white" stroke="black" points="569,-392.5 569,-411.5 643,-411.5 643,-392.5 569,-392.5"/>
<text text-anchor="middle" x="606" y="-399.5" font-family="Helvetica,sans-Serif" font-size="10.00">cccc_mem.h</text>
</a>
</g>
</g>
<!-- Node25&#45;&gt;Node27 -->
<g id="edge45" class="edge"><title>Node25&#45;&gt;Node27</title>
<path fill="none" stroke="midnightblue" d="M526.263,-448.324C541.221,-439.822 564.255,-426.729 581.727,-416.797"/>
<polygon fill="midnightblue" stroke="midnightblue" points="583.81,-419.639 590.774,-411.655 580.351,-413.553 583.81,-419.639"/>
</g>
<!-- Node28 -->
<g id="node28" class="node"><title>Node28</title>
<g id="a_node28"><a xlink:href="../../d4/d96/cccc__use_8h.html" target="_top" xlink:title="cccc_use.h">
<polygon fill="white" stroke="black" points="661,-392.5 661,-411.5 729,-411.5 729,-392.5 661,-392.5"/>
<text text-anchor="middle" x="695" y="-399.5" font-family="Helvetica,sans-Serif" font-size="10.00">cccc_use.h</text>
</a>
</g>
</g>
<!-- Node25&#45;&gt;Node28 -->
<g id="edge47" class="edge"><title>Node25&#45;&gt;Node28</title>
<path fill="none" stroke="midnightblue" d="M540.155,-448.444C571.513,-439.241 621.531,-424.562 656.197,-414.388"/>
<polygon fill="midnightblue" stroke="midnightblue" points="657.371,-417.691 665.981,-411.516 655.4,-410.974 657.371,-417.691"/>
</g>
<!-- Node26&#45;&gt;Node2 -->
<g id="edge43" class="edge"><title>Node26&#45;&gt;Node2</title>
<path fill="none" stroke="midnightblue" d="M393.521,-392.107C388.756,-362.953 373.839,-267.576 369,-188 368.46,-179.127 367.403,-176.744 369,-168 370.688,-158.757 374.175,-148.948 377.554,-140.855"/>
<polygon fill="midnightblue" stroke="midnightblue" points="380.763,-142.252 381.634,-131.693 374.369,-139.405 380.763,-142.252"/>
</g>
<!-- Node26&#45;&gt;Node18 -->
<g id="edge44" class="edge"><title>Node26&#45;&gt;Node18</title>
<path fill="none" stroke="midnightblue" d="M428.434,-392.444C464.856,-383.122 523.23,-368.183 563.029,-357.997"/>
<polygon fill="midnightblue" stroke="midnightblue" points="563.903,-361.387 572.723,-355.516 562.167,-354.605 563.903,-361.387"/>
</g>
<!-- Node27&#45;&gt;Node18 -->
<g id="edge46" class="edge"><title>Node27&#45;&gt;Node18</title>
<path fill="none" stroke="midnightblue" d="M606,-392.083C606,-385.006 606,-374.861 606,-365.986"/>
<polygon fill="midnightblue" stroke="midnightblue" points="609.5,-365.751 606,-355.751 602.5,-365.751 609.5,-365.751"/>
</g>
<!-- Node28&#45;&gt;Node18 -->
<g id="edge48" class="edge"><title>Node28&#45;&gt;Node18</title>
<path fill="none" stroke="midnightblue" d="M680.701,-392.324C666.817,-383.9 645.508,-370.971 629.196,-361.074"/>
<polygon fill="midnightblue" stroke="midnightblue" points="630.629,-357.85 620.264,-355.655 626.998,-363.834 630.629,-357.85"/>
</g>
</g>
</svg>
