<?xml version="1.0" encoding="UTF-8" standalone="no"?>
<!DOCTYPE svg PUBLIC "-//W3C//DTD SVG 1.1//EN"
 "http://www.w3.org/Graphics/SVG/1.1/DTD/svg11.dtd">
<!-- Generated by graphviz version 2.38.0 (20140413.2041)
 -->
<!-- Title: cccc_rec.h Pages: 1 -->
<!--zoomable 364 -->
<svg id="main" version="1.1" xmlns="http://www.w3.org/2000/svg" xmlns:xlink="http://www.w3.org/1999/xlink" xml:space="preserve" onload="init(evt)">
<style type="text/css"><![CDATA[
.edge:hover path { stroke: red; }
.edge:hover polygon { stroke: red; fill: red; }
]]></style>
<script type="text/javascript"><![CDATA[
var edges = document.getElementsByTagName('g');
if (edges && edges.length) {
  for (var i=0;i<edges.length;i++) {
    if (edges[i].id.substr(0,4)=='edge') {
      edges[i].setAttribute('class','edge');
    }
  }
}
]]></script>
        <defs>
                <circle id="rim" cx="0" cy="0" r="7"/>
                <circle id="rim2" cx="0" cy="0" r="3.5"/>
                <g id="zoomPlus">
                        <use xlink:href="#rim" fill="#404040">
                                <set attributeName="fill" to="#808080" begin="zoomplus.mouseover" end="zoomplus.mouseout"/>
                        </use>
                        <path d="M-4,0h8M0,-4v8" fill="none" stroke="white" stroke-width="1.5" pointer-events="none"/>
                </g>
                <g id="zoomMin">
                        <use xlink:href="#rim" fill="#404040">
                                <set attributeName="fill" to="#808080" begin="zoomminus.mouseover" end="zoomminus.mouseout"/>
                        </use>
                        <path d="M-4,0h8" fill="none" stroke="white" stroke-width="1.5" pointer-events="none"/>
                </g>
                <g id="dirArrow">
                        <path fill="none" stroke="white" stroke-width="1.5" d="M0,-3.0v7 M-2.5,-0.5L0,-3.0L2.5,-0.5"/>
                </g>
               <g id="resetDef">
                       <use xlink:href="#rim2" fill="#404040">
                               <set attributeName="fill" to="#808080" begin="reset.mouseover" end="reset.mouseout"/>
                       </use>
               </g>
        </defs>

<script type="text/javascript">
var viewWidth = 970;
var viewHeight = 364;
var sectionId = 'dynsection-1';
</script>
<script xlink:href="../../svgpan.js"/>
<svg id="graph" class="graph">
<g id="viewport">
<title>cccc_rec.h</title>
<polygon fill="white" stroke="none" points="-4,4 -4,-360 966,-360 966,4 -4,4"/>
<!-- Node1 -->
<g id="node1" class="node"><title>Node1</title>
<polygon fill="#bfbfbf" stroke="black" points="444,-336.5 444,-355.5 511,-355.5 511,-336.5 444,-336.5"/>
<text text-anchor="middle" x="477.5" y="-343.5" font-family="Helvetica,sans-Serif" font-size="10.00">cccc_rec.h</text>
</g>
<!-- Node2 -->
<g id="node2" class="node"><title>Node2</title>
<g id="a_node2"><a xlink:href="../../d7/d44/cccc__db_8h.html" target="_top" xlink:title="cccc_db.h">
<polygon fill="white" stroke="black" points="446,-224.5 446,-243.5 509,-243.5 509,-224.5 446,-224.5"/>
<text text-anchor="middle" x="477.5" y="-231.5" font-family="Helvetica,sans-Serif" font-size="10.00">cccc_db.h</text>
</a>
</g>
</g>
<!-- Node1&#45;&gt;Node2 -->
<g id="edge1" class="edge"><title>Node1&#45;&gt;Node2</title>
<path fill="none" stroke="midnightblue" d="M470.948,-326.7C468.389,-318.628 465.768,-308.958 464.5,-300 461.629,-279.718 469.035,-256.216 473.815,-243.777"/>
<polygon fill="midnightblue" stroke="midnightblue" points="467.639,-327.843 474.156,-336.197 474.271,-325.602 467.639,-327.843"/>
</g>
<!-- Node17 -->
<g id="node17" class="node"><title>Node17</title>
<g id="a_node17"><a xlink:href="../../df/d79/cccc__rec_8cc.html" target="_top" xlink:title="cccc_rec.cc">
<polygon fill="white" stroke="black" points="0,-168.5 0,-187.5 71,-187.5 71,-168.5 0,-168.5"/>
<text text-anchor="middle" x="35.5" y="-175.5" font-family="Helvetica,sans-Serif" font-size="10.00">cccc_rec.cc</text>
</a>
</g>
</g>
<!-- Node1&#45;&gt;Node17 -->
<g id="edge39" class="edge"><title>Node1&#45;&gt;Node17</title>
<path fill="none" stroke="midnightblue" d="M441.141,-333.209C414.317,-324.387 376.99,-311.85 344.5,-300 235.169,-260.123 105.986,-207.84 56.3523,-187.557"/>
<polygon fill="midnightblue" stroke="midnightblue" points="440.283,-336.611 450.876,-336.4 442.463,-329.959 440.283,-336.611"/>
</g>
<!-- Node20 -->
<g id="node20" class="node"><title>Node20</title>
<g id="a_node20"><a xlink:href="../../d1/da4/cccc__prj_8h.html" target="_top" xlink:title="cccc_prj.h">
<polygon fill="white" stroke="black" points="353.5,-280.5 353.5,-299.5 417.5,-299.5 417.5,-280.5 353.5,-280.5"/>
<text text-anchor="middle" x="385.5" y="-287.5" font-family="Helvetica,sans-Serif" font-size="10.00">cccc_prj.h</text>
</a>
</g>
</g>
<!-- Node1&#45;&gt;Node20 -->
<g id="edge27" class="edge"><title>Node1&#45;&gt;Node20</title>
<path fill="none" stroke="midnightblue" d="M453.95,-331.177C437.021,-321.241 414.717,-308.149 400.245,-299.655"/>
<polygon fill="midnightblue" stroke="midnightblue" points="452.323,-334.28 462.719,-336.324 455.866,-328.243 452.323,-334.28"/>
</g>
<!-- Node21 -->
<g id="node21" class="node"><title>Node21</title>
<g id="a_node21"><a xlink:href="../../df/d69/cccc__mod_8h.html" target="_top" xlink:title="cccc_mod.h">
<polygon fill="white" stroke="black" points="473.5,-280.5 473.5,-299.5 545.5,-299.5 545.5,-280.5 473.5,-280.5"/>
<text text-anchor="middle" x="509.5" y="-287.5" font-family="Helvetica,sans-Serif" font-size="10.00">cccc_mod.h</text>
</a>
</g>
</g>
<!-- Node1&#45;&gt;Node21 -->
<g id="edge30" class="edge"><title>Node1&#45;&gt;Node21</title>
<path fill="none" stroke="midnightblue" d="M488.004,-327.275C493.473,-318.045 499.918,-307.17 504.314,-299.751"/>
<polygon fill="midnightblue" stroke="midnightblue" points="484.871,-325.696 482.784,-336.083 490.893,-329.264 484.871,-325.696"/>
</g>
<!-- Node22 -->
<g id="node22" class="node"><title>Node22</title>
<g id="a_node22"><a xlink:href="../../dc/da1/cccc__mem_8h.html" target="_top" xlink:title="cccc_mem.h">
<polygon fill="white" stroke="black" points="563.5,-280.5 563.5,-299.5 637.5,-299.5 637.5,-280.5 563.5,-280.5"/>
<text text-anchor="middle" x="600.5" y="-287.5" font-family="Helvetica,sans-Serif" font-size="10.00">cccc_mem.h</text>
</a>
</g>
</g>
<!-- Node1&#45;&gt;Node22 -->
<g id="edge33" class="edge"><title>Node1&#45;&gt;Node22</title>
<path fill="none" stroke="midnightblue" d="M506.273,-332.368C529.307,-322.255 560.984,-308.349 581.101,-299.516"/>
<polygon fill="midnightblue" stroke="midnightblue" points="504.739,-329.219 496.99,-336.444 507.553,-335.628 504.739,-329.219"/>
</g>
<!-- Node23 -->
<g id="node23" class="node"><title>Node23</title>
<g id="a_node23"><a xlink:href="../../d4/d96/cccc__use_8h.html" target="_top" xlink:title="cccc_use.h">
<polygon fill="white" stroke="black" points="655.5,-280.5 655.5,-299.5 723.5,-299.5 723.5,-280.5 655.5,-280.5"/>
<text text-anchor="middle" x="689.5" y="-287.5" font-family="Helvetica,sans-Serif" font-size="10.00">cccc_use.h</text>
</a>
</g>
</g>
<!-- Node1&#45;&gt;Node23 -->
<g id="edge36" class="edge"><title>Node1&#45;&gt;Node23</title>
<path fill="none" stroke="midnightblue" d="M520.846,-333.959C560.887,-323.76 619.533,-308.822 656.065,-299.516"/>
<polygon fill="midnightblue" stroke="midnightblue" points="519.919,-330.583 511.092,-336.444 521.647,-337.367 519.919,-330.583"/>
</g>
<!-- Node3 -->
<g id="node3" class="node"><title>Node3</title>
<g id="a_node3"><a xlink:href="../../d8/d19/cccc__db_8cc.html" target="_top" xlink:title="cccc_db.cc">
<polygon fill="white" stroke="black" points="610.5,-168.5 610.5,-187.5 678.5,-187.5 678.5,-168.5 610.5,-168.5"/>
<text text-anchor="middle" x="644.5" y="-175.5" font-family="Helvetica,sans-Serif" font-size="10.00">cccc_db.cc</text>
</a>
</g>
</g>
<!-- Node2&#45;&gt;Node3 -->
<g id="edge2" class="edge"><title>Node2&#45;&gt;Node3</title>
<path fill="none" stroke="midnightblue" d="M513.67,-221.304C545.137,-211.129 589.994,-196.625 618.162,-187.516"/>
<polygon fill="midnightblue" stroke="midnightblue" points="512.4,-218.037 503.962,-224.444 514.553,-224.697 512.4,-218.037"/>
</g>
<!-- Node4 -->
<g id="node4" class="node"><title>Node4</title>
<g id="a_node4"><a xlink:href="../../d6/dd5/cccc__ext_8cc.html" target="_top" xlink:title="cccc_ext.cc">
<polygon fill="white" stroke="black" points="176,-168.5 176,-187.5 247,-187.5 247,-168.5 176,-168.5"/>
<text text-anchor="middle" x="211.5" y="-175.5" font-family="Helvetica,sans-Serif" font-size="10.00">cccc_ext.cc</text>
</a>
</g>
</g>
<!-- Node2&#45;&gt;Node4 -->
<g id="edge3" class="edge"><title>Node2&#45;&gt;Node4</title>
<path fill="none" stroke="midnightblue" d="M436.075,-224.59C384.226,-214.065 296.287,-196.212 247.249,-186.257"/>
<polygon fill="midnightblue" stroke="midnightblue" points="435.445,-228.034 445.942,-226.593 436.838,-221.174 435.445,-228.034"/>
</g>
<!-- Node5 -->
<g id="node5" class="node"><title>Node5</title>
<g id="a_node5"><a xlink:href="../../d9/db9/cccc__htm_8h.html" target="_top" xlink:title="cccc_htm.h">
<polygon fill="white" stroke="black" points="123,-112.5 123,-131.5 192,-131.5 192,-112.5 123,-112.5"/>
<text text-anchor="middle" x="157.5" y="-119.5" font-family="Helvetica,sans-Serif" font-size="10.00">cccc_htm.h</text>
</a>
</g>
</g>
<!-- Node2&#45;&gt;Node5 -->
<g id="edge4" class="edge"><title>Node2&#45;&gt;Node5</title>
<path fill="none" stroke="midnightblue" d="M436.088,-221.754C406.807,-213.414 366.817,-201.237 332.5,-188 312.835,-180.415 309.058,-175.856 289.5,-168 254.114,-153.786 212.306,-140.029 185.372,-131.547"/>
<polygon fill="midnightblue" stroke="midnightblue" points="435.397,-225.195 445.971,-224.539 437.295,-218.458 435.397,-225.195"/>
</g>
<!-- Node7 -->
<g id="node7" class="node"><title>Node7</title>
<g id="a_node7"><a xlink:href="../../d1/d81/cccc__tpl_8cc.html" target="_top" xlink:title="cccc_tpl.cc">
<polygon fill="white" stroke="black" points="406.5,-56.5 406.5,-75.5 474.5,-75.5 474.5,-56.5 406.5,-56.5"/>
<text text-anchor="middle" x="440.5" y="-63.5" font-family="Helvetica,sans-Serif" font-size="10.00">cccc_tpl.cc</text>
</a>
</g>
</g>
<!-- Node2&#45;&gt;Node7 -->
<g id="edge22" class="edge"><title>Node2&#45;&gt;Node7</title>
<path fill="none" stroke="midnightblue" d="M473.249,-213.93C465.223,-177.92 448.13,-101.231 442.41,-75.5681"/>
<polygon fill="midnightblue" stroke="midnightblue" points="469.919,-215.076 475.511,-224.075 476.751,-213.553 469.919,-215.076"/>
</g>
<!-- Node8 -->
<g id="node8" class="node"><title>Node8</title>
<g id="a_node8"><a xlink:href="../../d9/d64/cccc__xml_8h.html" target="_top" xlink:title="cccc_xml.h">
<polygon fill="white" stroke="black" points="60.5,-56.5 60.5,-75.5 128.5,-75.5 128.5,-56.5 60.5,-56.5"/>
<text text-anchor="middle" x="94.5" y="-63.5" font-family="Helvetica,sans-Serif" font-size="10.00">cccc_xml.h</text>
</a>
</g>
</g>
<!-- Node2&#45;&gt;Node8 -->
<g id="edge25" class="edge"><title>Node2&#45;&gt;Node8</title>
<path fill="none" stroke="midnightblue" d="M435.776,-226.676C396.939,-219.944 337.929,-207.531 289.5,-188 273.241,-181.443 271.795,-174.468 255.5,-168 188.559,-141.428 143.702,-187.25 97.5,-132 84.1659,-116.055 88.4497,-89.4516 91.9142,-75.7487"/>
<polygon fill="midnightblue" stroke="midnightblue" points="435.24,-230.135 445.683,-228.346 436.404,-223.233 435.24,-230.135"/>
</g>
<!-- Node10 -->
<g id="node10" class="node"><title>Node10</title>
<g id="a_node10"><a xlink:href="../../d6/d93/ccccmain_8cc.html" target="_top" xlink:title="ccccmain.cc">
<polygon fill="white" stroke="black" points="250,-0.5 250,-19.5 323,-19.5 323,-0.5 250,-0.5"/>
<text text-anchor="middle" x="286.5" y="-7.5" font-family="Helvetica,sans-Serif" font-size="10.00">ccccmain.cc</text>
</a>
</g>
</g>
<!-- Node2&#45;&gt;Node10 -->
<g id="edge26" class="edge"><title>Node2&#45;&gt;Node10</title>
<path fill="none" stroke="midnightblue" d="M484.941,-215.056C498.081,-180.188 520.674,-102.624 483.5,-56 463.816,-31.3127 374.419,-19.0946 323.074,-14.0159"/>
<polygon fill="midnightblue" stroke="midnightblue" points="481.659,-213.838 481.244,-224.425 488.171,-216.408 481.659,-213.838"/>
</g>
<!-- Node11 -->
<g id="node11" class="node"><title>Node11</title>
<g id="a_node11"><a xlink:href="../../d4/df8/cccc__met_8h.html" target="_top" xlink:title="cccc_met.h">
<polygon fill="white" stroke="black" points="342,-168.5 342,-187.5 411,-187.5 411,-168.5 342,-168.5"/>
<text text-anchor="middle" x="376.5" y="-175.5" font-family="Helvetica,sans-Serif" font-size="10.00">cccc_met.h</text>
</a>
</g>
</g>
<!-- Node2&#45;&gt;Node11 -->
<g id="edge11" class="edge"><title>Node2&#45;&gt;Node11</title>
<path fill="none" stroke="midnightblue" d="M452.417,-219.59C433.743,-209.605 408.796,-196.267 392.687,-187.655"/>
<polygon fill="midnightblue" stroke="midnightblue" points="450.804,-222.696 461.273,-224.324 454.104,-216.522 450.804,-222.696"/>
</g>
<!-- Node14 -->
<g id="node14" class="node"><title>Node14</title>
<g id="a_node14"><a xlink:href="../../d0/d4a/cccc__mem_8cc.html" target="_top" xlink:title="cccc_mem.cc">
<polygon fill="white" stroke="black" points="792,-168.5 792,-187.5 871,-187.5 871,-168.5 792,-168.5"/>
<text text-anchor="middle" x="831.5" y="-175.5" font-family="Helvetica,sans-Serif" font-size="10.00">cccc_mem.cc</text>
</a>
</g>
</g>
<!-- Node2&#45;&gt;Node14 -->
<g id="edge18" class="edge"><title>Node2&#45;&gt;Node14</title>
<path fill="none" stroke="midnightblue" d="M519.187,-227.323C577.987,-219.207 688.599,-203.546 782.5,-188 785.572,-187.491 788.749,-186.948 791.941,-186.389"/>
<polygon fill="midnightblue" stroke="midnightblue" points="518.6,-223.87 509.171,-228.701 519.555,-230.805 518.6,-223.87"/>
</g>
<!-- Node15 -->
<g id="node15" class="node"><title>Node15</title>
<g id="a_node15"><a xlink:href="../../de/d79/cccc__mod_8cc.html" target="_top" xlink:title="cccc_mod.cc">
<polygon fill="white" stroke="black" points="697,-168.5 697,-187.5 774,-187.5 774,-168.5 697,-168.5"/>
<text text-anchor="middle" x="735.5" y="-175.5" font-family="Helvetica,sans-Serif" font-size="10.00">cccc_mod.cc</text>
</a>
</g>
</g>
<!-- Node2&#45;&gt;Node15 -->
<g id="edge19" class="edge"><title>Node2&#45;&gt;Node15</title>
<path fill="none" stroke="midnightblue" d="M519.102,-224.293C568.183,-214.02 649.127,-197.078 696.875,-187.084"/>
<polygon fill="midnightblue" stroke="midnightblue" points="518.207,-220.904 509.136,-226.379 519.641,-227.756 518.207,-220.904"/>
</g>
<!-- Node16 -->
<g id="node16" class="node"><title>Node16</title>
<g id="a_node16"><a xlink:href="../../d7/d4b/cccc__prj_8cc.html" target="_top" xlink:title="cccc_prj.cc">
<polygon fill="white" stroke="black" points="89.5,-168.5 89.5,-187.5 157.5,-187.5 157.5,-168.5 89.5,-168.5"/>
<text text-anchor="middle" x="123.5" y="-175.5" font-family="Helvetica,sans-Serif" font-size="10.00">cccc_prj.cc</text>
</a>
</g>
</g>
<!-- Node2&#45;&gt;Node16 -->
<g id="edge20" class="edge"><title>Node2&#45;&gt;Node16</title>
<path fill="none" stroke="midnightblue" d="M435.409,-227.76C375.502,-220.109 262.284,-204.936 166.5,-188 163.646,-187.495 160.692,-186.942 157.73,-186.366"/>
<polygon fill="midnightblue" stroke="midnightblue" points="435.246,-231.268 445.607,-229.056 436.128,-224.323 435.246,-231.268"/>
</g>
<!-- Node2&#45;&gt;Node17 -->
<g id="edge21" class="edge"><title>Node2&#45;&gt;Node17</title>
<path fill="none" stroke="midnightblue" d="M435.9,-229.451C363.447,-223.011 209.506,-208.175 80.5,-188 77.5088,-187.532 74.4141,-187.005 71.3126,-186.446"/>
<polygon fill="midnightblue" stroke="midnightblue" points="435.717,-232.949 445.985,-230.34 436.331,-225.976 435.717,-232.949"/>
</g>
<!-- Node18 -->
<g id="node18" class="node"><title>Node18</title>
<g id="a_node18"><a xlink:href="../../de/d05/cccc__use_8cc.html" target="_top" xlink:title="cccc_use.cc">
<polygon fill="white" stroke="black" points="889,-168.5 889,-187.5 962,-187.5 962,-168.5 889,-168.5"/>
<text text-anchor="middle" x="925.5" y="-175.5" font-family="Helvetica,sans-Serif" font-size="10.00">cccc_use.cc</text>
</a>
</g>
</g>
<!-- Node2&#45;&gt;Node18 -->
<g id="edge23" class="edge"><title>Node2&#45;&gt;Node18</title>
<path fill="none" stroke="midnightblue" d="M519.339,-229.452C592.576,-222.989 748.668,-208.087 879.5,-188 882.556,-187.531 885.719,-187.002 888.889,-186.443"/>
<polygon fill="midnightblue" stroke="midnightblue" points="518.804,-225.986 509.147,-230.344 519.414,-232.959 518.804,-225.986"/>
</g>
<!-- Node19 -->
<g id="node19" class="node"><title>Node19</title>
<g id="a_node19"><a xlink:href="../../dc/d0b/cccc__utl_8cc.html" target="_top" xlink:title="cccc_utl.cc">
<polygon fill="white" stroke="black" points="525,-168.5 525,-187.5 592,-187.5 592,-168.5 525,-168.5"/>
<text text-anchor="middle" x="558.5" y="-175.5" font-family="Helvetica,sans-Serif" font-size="10.00">cccc_utl.cc</text>
</a>
</g>
</g>
<!-- Node2&#45;&gt;Node19 -->
<g id="edge24" class="edge"><title>Node2&#45;&gt;Node19</title>
<path fill="none" stroke="midnightblue" d="M499.067,-218.622C513.864,-208.757 533.012,-195.992 545.518,-187.655"/>
<polygon fill="midnightblue" stroke="midnightblue" points="496.893,-215.865 490.514,-224.324 500.776,-221.689 496.893,-215.865"/>
</g>
<!-- Node6 -->
<g id="node6" class="node"><title>Node6</title>
<g id="a_node6"><a xlink:href="../../d5/dcb/cccc__htm_8cc.html" target="_top" xlink:title="cccc_htm.cc">
<polygon fill="white" stroke="black" points="146.5,-56.5 146.5,-75.5 220.5,-75.5 220.5,-56.5 146.5,-56.5"/>
<text text-anchor="middle" x="183.5" y="-63.5" font-family="Helvetica,sans-Serif" font-size="10.00">cccc_htm.cc</text>
</a>
</g>
</g>
<!-- Node5&#45;&gt;Node6 -->
<g id="edge5" class="edge"><title>Node5&#45;&gt;Node6</title>
<path fill="none" stroke="midnightblue" d="M166.175,-102.983C170.588,-93.8168 175.752,-83.0922 179.287,-75.7511"/>
<polygon fill="midnightblue" stroke="midnightblue" points="162.978,-101.555 161.793,-112.083 169.285,-104.591 162.978,-101.555"/>
</g>
<!-- Node5&#45;&gt;Node7 -->
<g id="edge6" class="edge"><title>Node5&#45;&gt;Node7</title>
<path fill="none" stroke="midnightblue" d="M202.222,-111.883C281.375,-96.3869 361.941,-81.4295 406.431,-73.2413"/>
<polygon fill="midnightblue" stroke="midnightblue" points="201.216,-108.514 192.077,-113.874 202.564,-115.383 201.216,-108.514"/>
</g>
<!-- Node5&#45;&gt;Node8 -->
<g id="edge7" class="edge"><title>Node5&#45;&gt;Node8</title>
<path fill="none" stroke="midnightblue" d="M139.46,-105.537C128.227,-95.9087 114.181,-83.8694 104.806,-75.8339"/>
<polygon fill="midnightblue" stroke="midnightblue" points="137.508,-108.473 147.378,-112.324 142.063,-103.159 137.508,-108.473"/>
</g>
<!-- Node5&#45;&gt;Node10 -->
<g id="edge10" class="edge"><title>Node5&#45;&gt;Node10</title>
<path fill="none" stroke="midnightblue" d="M183.008,-107.504C197.366,-99.3236 215.222,-88.142 229.5,-76 250.309,-58.3034 270.34,-32.9161 280.181,-19.7177"/>
<polygon fill="midnightblue" stroke="midnightblue" points="181.192,-104.509 174.151,-112.425 184.592,-110.627 181.192,-104.509"/>
</g>
<!-- Node9 -->
<g id="node9" class="node"><title>Node9</title>
<g id="a_node9"><a xlink:href="../../db/d75/cccc__xml_8cc.html" target="_top" xlink:title="cccc_xml.cc">
<polygon fill="white" stroke="black" points="58.5,-0.5 58.5,-19.5 130.5,-19.5 130.5,-0.5 58.5,-0.5"/>
<text text-anchor="middle" x="94.5" y="-7.5" font-family="Helvetica,sans-Serif" font-size="10.00">cccc_xml.cc</text>
</a>
</g>
</g>
<!-- Node8&#45;&gt;Node9 -->
<g id="edge8" class="edge"><title>Node8&#45;&gt;Node9</title>
<path fill="none" stroke="midnightblue" d="M94.5,-45.8045C94.5,-36.9102 94.5,-26.7798 94.5,-19.7511"/>
<polygon fill="midnightblue" stroke="midnightblue" points="91.0001,-46.083 94.5,-56.083 98.0001,-46.083 91.0001,-46.083"/>
</g>
<!-- Node8&#45;&gt;Node10 -->
<g id="edge9" class="edge"><title>Node8&#45;&gt;Node10</title>
<path fill="none" stroke="midnightblue" d="M134.683,-53.6986C170.919,-43.507 223.414,-28.7429 256.219,-19.5164"/>
<polygon fill="midnightblue" stroke="midnightblue" points="133.602,-50.3667 124.923,-56.4435 135.497,-57.1053 133.602,-50.3667"/>
</g>
<!-- Node11&#45;&gt;Node5 -->
<g id="edge12" class="edge"><title>Node11&#45;&gt;Node5</title>
<path fill="none" stroke="midnightblue" d="M331.985,-166.024C290.616,-155.823 229.857,-140.841 192.039,-131.516"/>
<polygon fill="midnightblue" stroke="midnightblue" points="331.252,-169.448 341.799,-168.444 332.928,-162.651 331.252,-169.448"/>
</g>
<!-- Node11&#45;&gt;Node7 -->
<g id="edge15" class="edge"><title>Node11&#45;&gt;Node7</title>
<path fill="none" stroke="midnightblue" d="M395.011,-161.822C403.808,-153.764 413.831,-143.218 420.5,-132 431.48,-113.529 436.957,-88.4682 439.205,-75.5235"/>
<polygon fill="midnightblue" stroke="midnightblue" points="392.632,-159.254 387.409,-168.472 397.24,-164.523 392.632,-159.254"/>
</g>
<!-- Node11&#45;&gt;Node8 -->
<g id="edge16" class="edge"><title>Node11&#45;&gt;Node8</title>
<path fill="none" stroke="midnightblue" d="M331.98,-171.974C261.268,-163.611 129.589,-146.339 113.5,-132 97.1745,-117.451 94.542,-89.7302 94.323,-75.6585"/>
<polygon fill="midnightblue" stroke="midnightblue" points="331.61,-175.455 341.95,-173.142 332.425,-168.502 331.61,-175.455"/>
</g>
<!-- Node11&#45;&gt;Node10 -->
<g id="edge17" class="edge"><title>Node11&#45;&gt;Node10</title>
<path fill="none" stroke="midnightblue" d="M357.832,-161.726C348.901,-153.643 338.629,-143.105 331.5,-132 307.041,-93.9019 293.164,-40.5904 288.397,-19.7948"/>
<polygon fill="midnightblue" stroke="midnightblue" points="355.681,-164.493 365.528,-168.404 360.269,-159.207 355.681,-164.493"/>
</g>
<!-- Node12 -->
<g id="node12" class="node"><title>Node12</title>
<g id="a_node12"><a xlink:href="../../df/df6/cccc__met_8cc.html" target="_top" xlink:title="cccc_met.cc">
<polygon fill="white" stroke="black" points="210.5,-112.5 210.5,-131.5 284.5,-131.5 284.5,-112.5 210.5,-112.5"/>
<text text-anchor="middle" x="247.5" y="-119.5" font-family="Helvetica,sans-Serif" font-size="10.00">cccc_met.cc</text>
</a>
</g>
</g>
<!-- Node11&#45;&gt;Node12 -->
<g id="edge13" class="edge"><title>Node11&#45;&gt;Node12</title>
<path fill="none" stroke="midnightblue" d="M346.646,-164.503C322.462,-154.38 289.038,-140.388 267.845,-131.516"/>
<polygon fill="midnightblue" stroke="midnightblue" points="345.484,-167.811 356.06,-168.444 348.187,-161.354 345.484,-167.811"/>
</g>
<!-- Node13 -->
<g id="node13" class="node"><title>Node13</title>
<g id="a_node13"><a xlink:href="../../d5/d39/cccc__opt_8cc.html" target="_top" xlink:title="cccc_opt.cc">
<polygon fill="white" stroke="black" points="341,-112.5 341,-131.5 412,-131.5 412,-112.5 341,-112.5"/>
<text text-anchor="middle" x="376.5" y="-119.5" font-family="Helvetica,sans-Serif" font-size="10.00">cccc_opt.cc</text>
</a>
</g>
</g>
<!-- Node11&#45;&gt;Node13 -->
<g id="edge14" class="edge"><title>Node11&#45;&gt;Node13</title>
<path fill="none" stroke="midnightblue" d="M376.5,-157.805C376.5,-148.91 376.5,-138.78 376.5,-131.751"/>
<polygon fill="midnightblue" stroke="midnightblue" points="373,-158.083 376.5,-168.083 380,-158.083 373,-158.083"/>
</g>
<!-- Node20&#45;&gt;Node2 -->
<g id="edge28" class="edge"><title>Node20&#45;&gt;Node2</title>
<path fill="none" stroke="midnightblue" d="M409.05,-275.177C425.979,-265.241 448.283,-252.149 462.755,-243.655"/>
<polygon fill="midnightblue" stroke="midnightblue" points="407.134,-272.243 400.281,-280.324 410.677,-278.28 407.134,-272.243"/>
</g>
<!-- Node20&#45;&gt;Node16 -->
<g id="edge29" class="edge"><title>Node20&#45;&gt;Node16</title>
<path fill="none" stroke="midnightblue" d="M357.534,-276.062C328.275,-262.64 280.924,-241.244 239.5,-224 207.592,-210.718 170.257,-196.46 146.742,-187.635"/>
<polygon fill="midnightblue" stroke="midnightblue" points="356.18,-279.292 366.728,-280.29 359.105,-272.932 356.18,-279.292"/>
</g>
<!-- Node21&#45;&gt;Node2 -->
<g id="edge31" class="edge"><title>Node21&#45;&gt;Node2</title>
<path fill="none" stroke="midnightblue" d="M498.996,-271.275C493.527,-262.045 487.082,-251.17 482.686,-243.751"/>
<polygon fill="midnightblue" stroke="midnightblue" points="496.107,-273.264 504.216,-280.083 502.129,-269.696 496.107,-273.264"/>
</g>
<!-- Node21&#45;&gt;Node15 -->
<g id="edge32" class="edge"><title>Node21&#45;&gt;Node15</title>
<path fill="none" stroke="midnightblue" d="M536.459,-275.878C583.304,-253.078 678.484,-206.751 717.849,-187.591"/>
<polygon fill="midnightblue" stroke="midnightblue" points="534.694,-272.845 527.234,-280.368 537.757,-279.139 534.694,-272.845"/>
</g>
<!-- Node22&#45;&gt;Node2 -->
<g id="edge34" class="edge"><title>Node22&#45;&gt;Node2</title>
<path fill="none" stroke="midnightblue" d="M571.727,-276.368C548.693,-266.255 517.016,-252.349 496.899,-243.516"/>
<polygon fill="midnightblue" stroke="midnightblue" points="570.447,-279.628 581.01,-280.444 573.261,-273.219 570.447,-279.628"/>
</g>
<!-- Node22&#45;&gt;Node14 -->
<g id="edge35" class="edge"><title>Node22&#45;&gt;Node14</title>
<path fill="none" stroke="midnightblue" d="M627.755,-276.021C675.529,-253.272 773.139,-206.791 813.458,-187.591"/>
<polygon fill="midnightblue" stroke="midnightblue" points="626.15,-272.909 618.626,-280.368 629.16,-279.229 626.15,-272.909"/>
</g>
<!-- Node23&#45;&gt;Node2 -->
<g id="edge37" class="edge"><title>Node23&#45;&gt;Node2</title>
<path fill="none" stroke="midnightblue" d="M646.004,-277.921C605.327,-267.56 545.546,-252.333 509.204,-243.075"/>
<polygon fill="midnightblue" stroke="midnightblue" points="645.353,-281.367 655.908,-280.444 647.081,-274.583 645.353,-281.367"/>
</g>
<!-- Node23&#45;&gt;Node18 -->
<g id="edge38" class="edge"><title>Node23&#45;&gt;Node18</title>
<path fill="none" stroke="midnightblue" d="M717.345,-276.021C766.153,-253.272 865.876,-206.791 907.068,-187.591"/>
<polygon fill="midnightblue" stroke="midnightblue" points="715.604,-272.971 708.019,-280.368 718.561,-279.316 715.604,-272.971"/>
</g>
</g>
</svg>
        <g id="navigator" transform="translate(0 0)" fill="#404254">
                <rect fill="#f2f5e9" fill-opacity="0.5" stroke="#606060" stroke-width=".5" x="0" y="0" width="60" height="60"/>
                <use id="zoomplus" xlink:href="#zoomPlus" x="17" y="9" onmousedown="handleZoom(evt,'in')"/>
                <use id="zoomminus" xlink:href="#zoomMin" x="42" y="9" onmousedown="handleZoom(evt,'out')"/>
                <use id="reset" xlink:href="#resetDef" x="30" y="36" onmousedown="handleReset()"/>
                <g id="arrowUp" xlink:href="#dirArrow" transform="translate(30 24)" onmousedown="handlePan(0,-1)">
                  <use xlink:href="#rim" fill="#404040">
                        <set attributeName="fill" to="#808080" begin="arrowUp.mouseover" end="arrowUp.mouseout"/>
                  </use>
                  <path fill="none" stroke="white" stroke-width="1.5" d="M0,-3.0v7 M-2.5,-0.5L0,-3.0L2.5,-0.5"/>
                </g>
                <g id="arrowRight" xlink:href="#dirArrow" transform="rotate(90) translate(36 -43)" onmousedown="handlePan(1,0)">
                  <use xlink:href="#rim" fill="#404040">
                        <set attributeName="fill" to="#808080" begin="arrowRight.mouseover" end="arrowRight.mouseout"/>
                  </use>
                  <path fill="none" stroke="white" stroke-width="1.5" d="M0,-3.0v7 M-2.5,-0.5L0,-3.0L2.5,-0.5"/>
                </g>
                <g id="arrowDown" xlink:href="#dirArrow" transform="rotate(180) translate(-30 -48)" onmousedown="handlePan(0,1)">
                  <use xlink:href="#rim" fill="#404040">
                        <set attributeName="fill" to="#808080" begin="arrowDown.mouseover" end="arrowDown.mouseout"/>
                  </use>
                  <path fill="none" stroke="white" stroke-width="1.5" d="M0,-3.0v7 M-2.5,-0.5L0,-3.0L2.5,-0.5"/>
                </g>
                <g id="arrowLeft" xlink:href="#dirArrow" transform="rotate(270) translate(-36 17)" onmousedown="handlePan(-1,0)">
                  <use xlink:href="#rim" fill="#404040">
                        <set attributeName="fill" to="#808080" begin="arrowLeft.mouseover" end="arrowLeft.mouseout"/>
                  </use>
                  <path fill="none" stroke="white" stroke-width="1.5" d="M0,-3.0v7 M-2.5,-0.5L0,-3.0L2.5,-0.5"/>
                </g>
        </g>
        <svg viewBox="0 0 15 15" width="100%" height="30px" preserveAspectRatio="xMaxYMin meet">
         <g id="arrow_out" transform="scale(0.3 0.3)">
          <a xlink:href="cccc__rec_8h__dep__incl_org.svg" target="_base">
           <rect id="button" ry="5" rx="5" y="6" x="6" height="38" width="38"
                fill="#f2f5e9" fill-opacity="0.5" stroke="#606060" stroke-width="1.0"/>
           <path id="arrow"
             d="M 11.500037,31.436501 C 11.940474,20.09759 22.043105,11.32322 32.158766,21.979434 L 37.068811,17.246167 C 37.068811,17.246167 37.088388,32 37.088388,32 L 22.160133,31.978069 C 22.160133,31.978069 26.997745,27.140456 26.997745,27.140456 C 18.528582,18.264221 13.291696,25.230495 11.500037,31.436501 z"
             style="fill:#404040;"/>
          </a>
         </g>
        </svg>
</svg>
