<?xml version="1.0" encoding="UTF-8" standalone="no"?>
<!DOCTYPE svg PUBLIC "-//W3C//DTD SVG 1.1//EN"
 "http://www.w3.org/Graphics/SVG/1.1/DTD/svg11.dtd">
<!-- Generated by graphviz version 2.38.0 (20140413.2041)
 -->
<!-- Title: Graphical Class Hierarchy Pages: 1 -->
<svg width="346pt" height="180pt"
 viewBox="0.00 0.00 346.00 180.00" xmlns="http://www.w3.org/2000/svg" xmlns:xlink="http://www.w3.org/1999/xlink">
<g id="graph0" class="graph" transform="scale(1 1) rotate(0) translate(4 176)">
<title>Graphical Class Hierarchy</title>
<polygon fill="white" stroke="none" points="-4,4 -4,-176 342,-176 342,4 -4,4"/>
<!-- Node1 -->
<g id="node1" class="node"><title>Node1</title>
<g id="a_node1"><a xlink:title="STL class. ">
<polygon fill="white" stroke="#bfbfbf" points="0,-76.5 0,-95.5 92,-95.5 92,-76.5 0,-76.5"/>
<text text-anchor="middle" x="46" y="-83.5" font-family="Helvetica,sans-Serif" font-size="10.00">std::map&lt; K, T &gt;</text>
</a>
</g>
</g>
<!-- Node2 -->
<g id="node2" class="node"><title>Node2</title>
<g id="a_node2"><a xlink:href="d8/dcf/classCCCC__Table.html" target="_top" xlink:title="CCCC_Table\&lt; T \&gt;">
<polygon fill="white" stroke="black" points="181,-152.5 181,-171.5 285,-171.5 285,-152.5 181,-152.5"/>
<text text-anchor="middle" x="233" y="-159.5" font-family="Helvetica,sans-Serif" font-size="10.00">CCCC_Table&lt; T &gt;</text>
</a>
</g>
</g>
<!-- Node1&#45;&gt;Node2 -->
<g id="edge1" class="edge"><title>Node1&#45;&gt;Node2</title>
<path fill="none" stroke="midnightblue" d="M65.3959,-102.489C80.9663,-115.529 104.45,-133.128 128,-143 144.504,-149.919 163.522,-154.323 180.746,-157.125"/>
<polygon fill="midnightblue" stroke="midnightblue" points="67.4734,-99.6598 57.6097,-95.7924 62.9088,-104.967 67.4734,-99.6598"/>
</g>
<!-- Node3 -->
<g id="node3" class="node"><title>Node3</title>
<g id="a_node3"><a xlink:href="d8/dcf/classCCCC__Table.html" target="_top" xlink:title="CCCC_Table\&lt; CCCC_Extent \&gt;">
<polygon fill="white" stroke="black" points="151.5,-114.5 151.5,-133.5 314.5,-133.5 314.5,-114.5 151.5,-114.5"/>
<text text-anchor="middle" x="233" y="-121.5" font-family="Helvetica,sans-Serif" font-size="10.00">CCCC_Table&lt; CCCC_Extent &gt;</text>
</a>
</g>
</g>
<!-- Node1&#45;&gt;Node3 -->
<g id="edge2" class="edge"><title>Node1&#45;&gt;Node3</title>
<path fill="none" stroke="midnightblue" d="M95.9542,-97.8962C106.503,-100.344 117.606,-102.833 128,-105 143.812,-108.297 161.042,-111.572 176.847,-114.451"/>
<polygon fill="midnightblue" stroke="midnightblue" points="96.5872,-94.4498 86.0522,-95.5742 94.989,-101.265 96.5872,-94.4498"/>
</g>
<!-- Node4 -->
<g id="node4" class="node"><title>Node4</title>
<g id="a_node4"><a xlink:href="d8/dcf/classCCCC__Table.html" target="_top" xlink:title="CCCC_Table\&lt; CCCC_Member \&gt;">
<polygon fill="white" stroke="black" points="147.5,-76.5 147.5,-95.5 318.5,-95.5 318.5,-76.5 147.5,-76.5"/>
<text text-anchor="middle" x="233" y="-83.5" font-family="Helvetica,sans-Serif" font-size="10.00">CCCC_Table&lt; CCCC_Member &gt;</text>
</a>
</g>
</g>
<!-- Node1&#45;&gt;Node4 -->
<g id="edge3" class="edge"><title>Node1&#45;&gt;Node4</title>
<path fill="none" stroke="midnightblue" d="M102.331,-86C116.54,-86 132.153,-86 147.473,-86"/>
<polygon fill="midnightblue" stroke="midnightblue" points="102.256,-82.5001 92.2561,-86 102.256,-89.5001 102.256,-82.5001"/>
</g>
<!-- Node5 -->
<g id="node5" class="node"><title>Node5</title>
<g id="a_node5"><a xlink:href="d8/dcf/classCCCC__Table.html" target="_top" xlink:title="CCCC_Table\&lt; CCCC_Module \&gt;">
<polygon fill="white" stroke="black" points="149.5,-38.5 149.5,-57.5 316.5,-57.5 316.5,-38.5 149.5,-38.5"/>
<text text-anchor="middle" x="233" y="-45.5" font-family="Helvetica,sans-Serif" font-size="10.00">CCCC_Table&lt; CCCC_Module &gt;</text>
</a>
</g>
</g>
<!-- Node1&#45;&gt;Node5 -->
<g id="edge4" class="edge"><title>Node1&#45;&gt;Node5</title>
<path fill="none" stroke="midnightblue" d="M95.9542,-74.1038C106.503,-71.6562 117.606,-69.1671 128,-67 143.812,-63.7033 161.042,-60.428 176.847,-57.5489"/>
<polygon fill="midnightblue" stroke="midnightblue" points="94.989,-70.7351 86.0522,-76.4258 96.5872,-77.5502 94.989,-70.7351"/>
</g>
<!-- Node6 -->
<g id="node6" class="node"><title>Node6</title>
<g id="a_node6"><a xlink:href="d8/dcf/classCCCC__Table.html" target="_top" xlink:title="CCCC_Table\&lt; CCCC_UseRelationship \&gt;">
<polygon fill="white" stroke="black" points="128,-0.5 128,-19.5 338,-19.5 338,-0.5 128,-0.5"/>
<text text-anchor="middle" x="233" y="-7.5" font-family="Helvetica,sans-Serif" font-size="10.00">CCCC_Table&lt; CCCC_UseRelationship &gt;</text>
</a>
</g>
</g>
<!-- Node1&#45;&gt;Node6 -->
<g id="edge5" class="edge"><title>Node1&#45;&gt;Node6</title>
<path fill="none" stroke="midnightblue" d="M65.3959,-69.5105C80.9663,-56.471 104.45,-38.8722 128,-29 137.31,-25.0972 147.42,-21.9944 157.557,-19.528"/>
<polygon fill="midnightblue" stroke="midnightblue" points="62.9088,-67.0332 57.6097,-76.2076 67.4734,-72.3402 62.9088,-67.0332"/>
</g>
</g>
</svg>
