<?xml version="1.0" encoding="UTF-8" standalone="no"?>
<!DOCTYPE svg PUBLIC "-//W3C//DTD SVG 1.1//EN"
 "http://www.w3.org/Graphics/SVG/1.1/DTD/svg11.dtd">
<!-- Generated by graphviz version 2.38.0 (20140413.2041)
 -->
<!-- Title: Graphical Class Hierarchy Pages: 1 -->
<svg width="184pt" height="66pt"
 viewBox="0.00 0.00 184.00 66.00" xmlns="http://www.w3.org/2000/svg" xmlns:xlink="http://www.w3.org/1999/xlink">
<g id="graph0" class="graph" transform="scale(1 1) rotate(0) translate(4 62)">
<title>Graphical Class Hierarchy</title>
<polygon fill="white" stroke="none" points="-4,4 -4,-62 180,-62 180,4 -4,4"/>
<!-- Node1 -->
<g id="node1" class="node"><title>Node1</title>
<g id="a_node1"><a xlink:href="df/d12/classDLGLexerBase.html" target="_top" xlink:title="DLGLexerBase">
<polygon fill="white" stroke="black" points="0,-19.5 0,-38.5 89,-38.5 89,-19.5 0,-19.5"/>
<text text-anchor="middle" x="44.5" y="-26.5" font-family="Helvetica,sans-Serif" font-size="10.00">DLGLexerBase</text>
</a>
</g>
</g>
<!-- Node2 -->
<g id="node2" class="node"><title>Node2</title>
<g id="a_node2"><a xlink:href="dd/d32/classCLexer.html" target="_top" xlink:title="CLexer">
<polygon fill="white" stroke="black" points="125,-38.5 125,-57.5 176,-57.5 176,-38.5 125,-38.5"/>
<text text-anchor="middle" x="150.5" y="-45.5" font-family="Helvetica,sans-Serif" font-size="10.00">CLexer</text>
</a>
</g>
</g>
<!-- Node1&#45;&gt;Node2 -->
<g id="edge1" class="edge"><title>Node1&#45;&gt;Node2</title>
<path fill="none" stroke="midnightblue" d="M98.8449,-38.7457C107.944,-40.408 116.988,-42.0603 124.862,-43.4988"/>
<polygon fill="midnightblue" stroke="midnightblue" points="99.469,-35.3019 89.0028,-36.9476 98.2109,-42.1879 99.469,-35.3019"/>
</g>
<!-- Node3 -->
<g id="node3" class="node"><title>Node3</title>
<g id="a_node3"><a xlink:href="d2/d2e/classJLexer.html" target="_top" xlink:title="JLexer">
<polygon fill="white" stroke="black" points="126,-0.5 126,-19.5 175,-19.5 175,-0.5 126,-0.5"/>
<text text-anchor="middle" x="150.5" y="-7.5" font-family="Helvetica,sans-Serif" font-size="10.00">JLexer</text>
</a>
</g>
</g>
<!-- Node1&#45;&gt;Node3 -->
<g id="edge2" class="edge"><title>Node1&#45;&gt;Node3</title>
<path fill="none" stroke="midnightblue" d="M99.1142,-19.2051C108.46,-17.4977 117.736,-15.803 125.734,-14.3419"/>
<polygon fill="midnightblue" stroke="midnightblue" points="98.2109,-15.8121 89.0028,-21.0524 99.469,-22.6981 98.2109,-15.8121"/>
</g>
</g>
</svg>
