<?xml version="1.0" encoding="UTF-8" standalone="no"?>
<!DOCTYPE svg PUBLIC "-//W3C//DTD SVG 1.1//EN"
 "http://www.w3.org/Graphics/SVG/1.1/DTD/svg11.dtd">
<!-- Generated by graphviz version 2.38.0 (20140413.2041)
 -->
<!-- Title: Graphical Class Hierarchy Pages: 1 -->
<svg width="261pt" height="142pt"
 viewBox="0.00 0.00 261.00 142.00" xmlns="http://www.w3.org/2000/svg" xmlns:xlink="http://www.w3.org/1999/xlink">
<g id="graph0" class="graph" transform="scale(1 1) rotate(0) translate(4 138)">
<title>Graphical Class Hierarchy</title>
<polygon fill="white" stroke="none" points="-4,4 -4,-138 257,-138 257,4 -4,4"/>
<!-- Node1 -->
<g id="node1" class="node"><title>Node1</title>
<g id="a_node1"><a xlink:href="d6/d85/classCCCC__Record.html" target="_top" xlink:title="CCCC_Record">
<polygon fill="white" stroke="black" points="0,-57.5 0,-76.5 87,-76.5 87,-57.5 0,-57.5"/>
<text text-anchor="middle" x="43.5" y="-64.5" font-family="Helvetica,sans-Serif" font-size="10.00">CCCC_Record</text>
</a>
</g>
</g>
<!-- Node2 -->
<g id="node2" class="node"><title>Node2</title>
<g id="a_node2"><a xlink:href="dc/d1e/classCCCC__Member.html" target="_top" xlink:title="CCCC_Member">
<polygon fill="white" stroke="black" points="142.5,-114.5 142.5,-133.5 233.5,-133.5 233.5,-114.5 142.5,-114.5"/>
<text text-anchor="middle" x="188" y="-121.5" font-family="Helvetica,sans-Serif" font-size="10.00">CCCC_Member</text>
</a>
</g>
</g>
<!-- Node1&#45;&gt;Node2 -->
<g id="edge1" class="edge"><title>Node1&#45;&gt;Node2</title>
<path fill="none" stroke="midnightblue" d="M71.3783,-81.3527C86.3184,-88.9869 105.396,-98.1781 123,-105 131.97,-108.476 141.851,-111.695 151.11,-114.459"/>
<polygon fill="midnightblue" stroke="midnightblue" points="72.7039,-78.0975 62.2152,-76.6014 69.4816,-84.3118 72.7039,-78.0975"/>
</g>
<!-- Node3 -->
<g id="node3" class="node"><title>Node3</title>
<g id="a_node3"><a xlink:href="d6/d9f/classCCCC__Module.html" target="_top" xlink:title="CCCC_Module">
<polygon fill="white" stroke="black" points="144.5,-76.5 144.5,-95.5 231.5,-95.5 231.5,-76.5 144.5,-76.5"/>
<text text-anchor="middle" x="188" y="-83.5" font-family="Helvetica,sans-Serif" font-size="10.00">CCCC_Module</text>
</a>
</g>
</g>
<!-- Node1&#45;&gt;Node3 -->
<g id="edge2" class="edge"><title>Node1&#45;&gt;Node3</title>
<path fill="none" stroke="midnightblue" d="M97.2258,-74.0301C112.726,-76.0968 129.483,-78.3311 144.275,-80.3034"/>
<polygon fill="midnightblue" stroke="midnightblue" points="97.6296,-70.5531 87.2547,-72.7006 96.7044,-77.4916 97.6296,-70.5531"/>
</g>
<!-- Node4 -->
<g id="node4" class="node"><title>Node4</title>
<g id="a_node4"><a xlink:href="d4/d6e/classCCCC__Project.html" target="_top" xlink:title="CCCC_Project">
<polygon fill="white" stroke="black" points="145,-38.5 145,-57.5 231,-57.5 231,-38.5 145,-38.5"/>
<text text-anchor="middle" x="188" y="-45.5" font-family="Helvetica,sans-Serif" font-size="10.00">CCCC_Project</text>
</a>
</g>
</g>
<!-- Node1&#45;&gt;Node4 -->
<g id="edge3" class="edge"><title>Node1&#45;&gt;Node4</title>
<path fill="none" stroke="midnightblue" d="M97.3184,-59.9575C112.965,-57.8714 129.884,-55.6155 144.767,-53.6311"/>
<polygon fill="midnightblue" stroke="midnightblue" points="96.7044,-56.5084 87.2547,-61.2994 97.6296,-63.4469 96.7044,-56.5084"/>
</g>
<!-- Node5 -->
<g id="node5" class="node"><title>Node5</title>
<g id="a_node5"><a xlink:href="d2/d65/classCCCC__UseRelationship.html" target="_top" xlink:title="CCCC_UseRelationship">
<polygon fill="white" stroke="black" points="123,-0.5 123,-19.5 253,-19.5 253,-0.5 123,-0.5"/>
<text text-anchor="middle" x="188" y="-7.5" font-family="Helvetica,sans-Serif" font-size="10.00">CCCC_UseRelationship</text>
</a>
</g>
</g>
<!-- Node1&#45;&gt;Node5 -->
<g id="edge4" class="edge"><title>Node1&#45;&gt;Node5</title>
<path fill="none" stroke="midnightblue" d="M71.3783,-52.6473C86.3184,-45.0131 105.396,-35.8219 123,-29 131.97,-25.5239 141.851,-22.3046 151.11,-19.5409"/>
<polygon fill="midnightblue" stroke="midnightblue" points="69.4816,-49.6882 62.2152,-57.3986 72.7039,-55.9025 69.4816,-49.6882"/>
</g>
</g>
</svg>
