<?xml version="1.0" encoding="UTF-8" standalone="no"?>
<!DOCTYPE svg PUBLIC "-//W3C//DTD SVG 1.1//EN"
 "http://www.w3.org/Graphics/SVG/1.1/DTD/svg11.dtd">
<!-- Generated by graphviz version 2.38.0 (20140413.2041)
 -->
<!-- Title: CCCC_Html_Stream::Put_Structural_Details_Cell Pages: 1 -->
<svg width="339pt" height="39pt"
 viewBox="0.00 0.00 339.00 39.00" xmlns="http://www.w3.org/2000/svg" xmlns:xlink="http://www.w3.org/1999/xlink">
<g id="graph0" class="graph" transform="scale(1 1) rotate(0) translate(4 35)">
<title>CCCC_Html_Stream::Put_Structural_Details_Cell</title>
<polygon fill="white" stroke="none" points="-4,4 -4,-35 335,-35 335,4 -4,4"/>
<!-- Node1 -->
<g id="node1" class="node"><title>Node1</title>
<polygon fill="#bfbfbf" stroke="black" points="0,-0.5 0,-30.5 133,-30.5 133,-0.5 0,-0.5"/>
<text text-anchor="start" x="8" y="-18.5" font-family="Helvetica,sans-Serif" font-size="10.00">CCCC_Html_Stream::Put</text>
<text text-anchor="middle" x="66.5" y="-7.5" font-family="Helvetica,sans-Serif" font-size="10.00">_Structural_Details_Cell</text>
</g>
<!-- Node2 -->
<g id="node2" class="node"><title>Node2</title>
<g id="a_node2"><a xlink:href="../../d2/d92/classCCCC__Html__Stream.html#af0091534327b225ee300640d7a5e0220" target="_top" xlink:title="CCCC_Html_Stream::Structural\l_Detail">
<polygon fill="white" stroke="black" points="169,-0.5 169,-30.5 331,-30.5 331,-0.5 169,-0.5"/>
<text text-anchor="start" x="177" y="-18.5" font-family="Helvetica,sans-Serif" font-size="10.00">CCCC_Html_Stream::Structural</text>
<text text-anchor="middle" x="250" y="-7.5" font-family="Helvetica,sans-Serif" font-size="10.00">_Detail</text>
</a>
</g>
</g>
<!-- Node1&#45;&gt;Node2 -->
<g id="edge1" class="edge"><title>Node1&#45;&gt;Node2</title>
<path fill="none" stroke="midnightblue" d="M143.193,-15.5C151.617,-15.5 160.219,-15.5 168.698,-15.5"/>
<polygon fill="midnightblue" stroke="midnightblue" points="143.026,-12.0001 133.026,-15.5 143.026,-19.0001 143.026,-12.0001"/>
</g>
</g>
</svg>
