<?xml version="1.0" encoding="UTF-8" standalone="no"?>
<!DOCTYPE svg PUBLIC "-//W3C//DTD SVG 1.1//EN"
 "http://www.w3.org/Graphics/SVG/1.1/DTD/svg11.dtd">
<!-- Generated by graphviz version 2.38.0 (20140413.2041)
 -->
<!-- Title: CCCC_Html_Stream::Put_Extent_URL Pages: 1 -->
<svg width="703pt" height="431pt"
 viewBox="0.00 0.00 703.00 431.00" xmlns="http://www.w3.org/2000/svg" xmlns:xlink="http://www.w3.org/1999/xlink">
<g id="graph0" class="graph" transform="scale(1 1) rotate(0) translate(4 427)">
<title>CCCC_Html_Stream::Put_Extent_URL</title>
<polygon fill="white" stroke="none" points="-4,4 -4,-427 699,-427 699,4 -4,4"/>
<!-- Node1 -->
<g id="node1" class="node"><title>Node1</title>
<polygon fill="#bfbfbf" stroke="black" points="0,-251.5 0,-281.5 133,-281.5 133,-251.5 0,-251.5"/>
<text text-anchor="start" x="8" y="-269.5" font-family="Helvetica,sans-Serif" font-size="10.00">CCCC_Html_Stream::Put</text>
<text text-anchor="middle" x="66.5" y="-258.5" font-family="Helvetica,sans-Serif" font-size="10.00">_Extent_URL</text>
</g>
<!-- Node2 -->
<g id="node2" class="node"><title>Node2</title>
<g id="a_node2"><a xlink:href="../../d2/d92/classCCCC__Html__Stream.html#a9da417354e4d12217f7604be680f3398" target="_top" xlink:title="CCCC_Html_Stream::Put\l_Extent_Cell">
<polygon fill="white" stroke="black" points="169,-283.5 169,-313.5 302,-313.5 302,-283.5 169,-283.5"/>
<text text-anchor="start" x="177" y="-301.5" font-family="Helvetica,sans-Serif" font-size="10.00">CCCC_Html_Stream::Put</text>
<text text-anchor="middle" x="235.5" y="-290.5" font-family="Helvetica,sans-Serif" font-size="10.00">_Extent_Cell</text>
</a>
</g>
</g>
<!-- Node1&#45;&gt;Node2 -->
<g id="edge1" class="edge"><title>Node1&#45;&gt;Node2</title>
<path fill="none" stroke="midnightblue" d="M143.066,-280.98C151.685,-282.631 160.417,-284.304 168.891,-285.928"/>
<polygon fill="midnightblue" stroke="midnightblue" points="143.504,-277.5 133.024,-279.055 142.186,-284.375 143.504,-277.5"/>
</g>
<!-- Node5 -->
<g id="node5" class="node"><title>Node5</title>
<g id="a_node5"><a xlink:href="../../d2/d92/classCCCC__Html__Stream.html#a4cdc271c6f74c77b19dec08a3c8500db" target="_top" xlink:title="CCCC_Html_Stream::Put\l_Extent_List">
<polygon fill="white" stroke="black" points="169,-220.5 169,-250.5 302,-250.5 302,-220.5 169,-220.5"/>
<text text-anchor="start" x="177" y="-238.5" font-family="Helvetica,sans-Serif" font-size="10.00">CCCC_Html_Stream::Put</text>
<text text-anchor="middle" x="235.5" y="-227.5" font-family="Helvetica,sans-Serif" font-size="10.00">_Extent_List</text>
</a>
</g>
</g>
<!-- Node1&#45;&gt;Node5 -->
<g id="edge4" class="edge"><title>Node1&#45;&gt;Node5</title>
<path fill="none" stroke="midnightblue" d="M143.066,-252.473C151.685,-250.873 160.417,-249.252 168.891,-247.679"/>
<polygon fill="midnightblue" stroke="midnightblue" points="142.217,-249.071 133.024,-254.337 143.494,-255.953 142.217,-249.071"/>
</g>
<!-- Node3 -->
<g id="node3" class="node"><title>Node3</title>
<g id="a_node3"><a xlink:href="../../d2/d92/classCCCC__Html__Stream.html#a103e3cbe446ab2d5978e6a4741e00a63" target="_top" xlink:title="CCCC_Html_Stream::Other\l_Extents">
<polygon fill="white" stroke="black" points="538,-392.5 538,-422.5 683,-422.5 683,-392.5 538,-392.5"/>
<text text-anchor="start" x="546" y="-410.5" font-family="Helvetica,sans-Serif" font-size="10.00">CCCC_Html_Stream::Other</text>
<text text-anchor="middle" x="610.5" y="-399.5" font-family="Helvetica,sans-Serif" font-size="10.00">_Extents</text>
</a>
</g>
</g>
<!-- Node2&#45;&gt;Node3 -->
<g id="edge2" class="edge"><title>Node2&#45;&gt;Node3</title>
<path fill="none" stroke="midnightblue" d="M297.29,-316.458C355.85,-333.731 446.946,-360.534 526,-383.5 535.994,-386.404 546.667,-389.485 556.927,-392.439"/>
<polygon fill="midnightblue" stroke="midnightblue" points="298.044,-313.031 287.462,-313.558 296.063,-319.745 298.044,-313.031"/>
</g>
<!-- Node4 -->
<g id="node4" class="node"><title>Node4</title>
<g id="a_node4"><a xlink:href="../../d2/d92/classCCCC__Html__Stream.html#ae24c7515f1b41822c677e349a2eaecda" target="_top" xlink:title="CCCC_Html_Stream::Module\l_Detail">
<polygon fill="white" stroke="black" points="338,-283.5 338,-313.5 490,-313.5 490,-283.5 338,-283.5"/>
<text text-anchor="start" x="346" y="-301.5" font-family="Helvetica,sans-Serif" font-size="10.00">CCCC_Html_Stream::Module</text>
<text text-anchor="middle" x="414" y="-290.5" font-family="Helvetica,sans-Serif" font-size="10.00">_Detail</text>
</a>
</g>
</g>
<!-- Node2&#45;&gt;Node4 -->
<g id="edge3" class="edge"><title>Node2&#45;&gt;Node4</title>
<path fill="none" stroke="midnightblue" d="M312.369,-298.5C320.767,-298.5 329.317,-298.5 337.708,-298.5"/>
<polygon fill="midnightblue" stroke="midnightblue" points="312.222,-295 302.222,-298.5 312.222,-302 312.222,-295"/>
</g>
<!-- Node6 -->
<g id="node6" class="node"><title>Node6</title>
<g id="a_node6"><a xlink:href="../../d2/d92/classCCCC__Html__Stream.html#ab815f564805ca3e3fe9cabb5c2df79fa" target="_top" xlink:title="CCCC_Html_Stream::Put\l_Structural_Details_Cell">
<polygon fill="white" stroke="black" points="347.5,-98.5 347.5,-128.5 480.5,-128.5 480.5,-98.5 347.5,-98.5"/>
<text text-anchor="start" x="355.5" y="-116.5" font-family="Helvetica,sans-Serif" font-size="10.00">CCCC_Html_Stream::Put</text>
<text text-anchor="middle" x="414" y="-105.5" font-family="Helvetica,sans-Serif" font-size="10.00">_Structural_Details_Cell</text>
</a>
</g>
</g>
<!-- Node5&#45;&gt;Node6 -->
<g id="edge5" class="edge"><title>Node5&#45;&gt;Node6</title>
<path fill="none" stroke="midnightblue" d="M267.004,-214.415C302.461,-189.907 360.086,-150.075 391.28,-128.513"/>
<polygon fill="midnightblue" stroke="midnightblue" points="264.733,-211.73 258.497,-220.295 268.713,-217.488 264.733,-211.73"/>
</g>
<!-- Node8 -->
<g id="node8" class="node"><title>Node8</title>
<g id="a_node8"><a xlink:href="../../d2/d92/classCCCC__Html__Stream.html#a11a4dc19838cdbfe33b6d2e7f8b5823a" target="_top" xlink:title="CCCC_Html_Stream::Put\l_Label_Cell">
<polygon fill="white" stroke="black" points="347.5,-220.5 347.5,-250.5 480.5,-250.5 480.5,-220.5 347.5,-220.5"/>
<text text-anchor="start" x="355.5" y="-238.5" font-family="Helvetica,sans-Serif" font-size="10.00">CCCC_Html_Stream::Put</text>
<text text-anchor="middle" x="414" y="-227.5" font-family="Helvetica,sans-Serif" font-size="10.00">_Label_Cell</text>
</a>
</g>
</g>
<!-- Node5&#45;&gt;Node8 -->
<g id="edge7" class="edge"><title>Node5&#45;&gt;Node8</title>
<path fill="none" stroke="midnightblue" d="M312.331,-235.5C323.945,-235.5 335.851,-235.5 347.223,-235.5"/>
<polygon fill="midnightblue" stroke="midnightblue" points="312.222,-232 302.222,-235.5 312.222,-239 312.222,-232"/>
</g>
<!-- Node7 -->
<g id="node7" class="node"><title>Node7</title>
<g id="a_node7"><a xlink:href="../../d2/d92/classCCCC__Html__Stream.html#af0091534327b225ee300640d7a5e0220" target="_top" xlink:title="CCCC_Html_Stream::Structural\l_Detail">
<polygon fill="white" stroke="black" points="529.5,-0.5 529.5,-30.5 691.5,-30.5 691.5,-0.5 529.5,-0.5"/>
<text text-anchor="start" x="537.5" y="-18.5" font-family="Helvetica,sans-Serif" font-size="10.00">CCCC_Html_Stream::Structural</text>
<text text-anchor="middle" x="610.5" y="-7.5" font-family="Helvetica,sans-Serif" font-size="10.00">_Detail</text>
</a>
</g>
</g>
<!-- Node6&#45;&gt;Node7 -->
<g id="edge6" class="edge"><title>Node6&#45;&gt;Node7</title>
<path fill="none" stroke="midnightblue" d="M441.634,-92.3115C463.292,-75.9524 495.205,-53.7706 526,-39.5 533.116,-36.2022 540.787,-33.254 548.493,-30.6493"/>
<polygon fill="midnightblue" stroke="midnightblue" points="439.385,-89.6252 433.577,-98.4863 443.643,-95.1811 439.385,-89.6252"/>
</g>
<!-- Node8&#45;&gt;Node3 -->
<g id="edge14" class="edge"><title>Node8&#45;&gt;Node3</title>
<path fill="none" stroke="midnightblue" d="M466.375,-255.354C475.147,-260.54 483.508,-266.872 490,-274.5 523.067,-313.352 489.226,-348.137 526,-383.5 529.588,-386.95 533.638,-389.91 537.972,-392.448"/>
<polygon fill="midnightblue" stroke="midnightblue" points="467.977,-252.241 457.519,-250.545 464.637,-258.393 467.977,-252.241"/>
</g>
<!-- Node9 -->
<g id="node9" class="node"><title>Node9</title>
<g id="a_node9"><a xlink:href="../../d2/d92/classCCCC__Html__Stream.html#aa4d916f2e9fc42d4b7924e1544be92f6" target="_top" xlink:title="CCCC_Html_Stream::Project\l_Summary">
<polygon fill="white" stroke="black" points="535,-343.5 535,-373.5 686,-373.5 686,-343.5 535,-343.5"/>
<text text-anchor="start" x="543" y="-361.5" font-family="Helvetica,sans-Serif" font-size="10.00">CCCC_Html_Stream::Project</text>
<text text-anchor="middle" x="610.5" y="-350.5" font-family="Helvetica,sans-Serif" font-size="10.00">_Summary</text>
</a>
</g>
</g>
<!-- Node8&#45;&gt;Node9 -->
<g id="edge8" class="edge"><title>Node8&#45;&gt;Node9</title>
<path fill="none" stroke="midnightblue" d="M463.022,-255.43C472.614,-260.745 482.143,-267.107 490,-274.5 512.649,-295.81 501.34,-315.553 526,-334.5 530.425,-337.9 535.316,-340.819 540.445,-343.324"/>
<polygon fill="midnightblue" stroke="midnightblue" points="464.344,-252.172 453.858,-250.656 461.11,-258.38 464.344,-252.172"/>
</g>
<!-- Node10 -->
<g id="node10" class="node"><title>Node10</title>
<g id="a_node10"><a xlink:href="../../d2/d92/classCCCC__Html__Stream.html#a81d206c53e52cd62d445beb809c3d215" target="_top" xlink:title="CCCC_Html_Stream::OO\l_Design">
<polygon fill="white" stroke="black" points="543.5,-294.5 543.5,-324.5 677.5,-324.5 677.5,-294.5 543.5,-294.5"/>
<text text-anchor="start" x="551.5" y="-312.5" font-family="Helvetica,sans-Serif" font-size="10.00">CCCC_Html_Stream::OO</text>
<text text-anchor="middle" x="610.5" y="-301.5" font-family="Helvetica,sans-Serif" font-size="10.00">_Design</text>
</a>
</g>
</g>
<!-- Node8&#45;&gt;Node10 -->
<g id="edge9" class="edge"><title>Node8&#45;&gt;Node10</title>
<path fill="none" stroke="midnightblue" d="M454.807,-255.103C475.704,-264.963 501.909,-276.664 526,-285.5 534.638,-288.668 543.901,-291.69 553,-294.454"/>
<polygon fill="midnightblue" stroke="midnightblue" points="456.14,-251.86 445.607,-250.718 453.128,-258.18 456.14,-251.86"/>
</g>
<!-- Node11 -->
<g id="node11" class="node"><title>Node11</title>
<g id="a_node11"><a xlink:href="../../d2/d92/classCCCC__Html__Stream.html#a872d57e3b8d177d0fcc532237b53e6fe" target="_top" xlink:title="CCCC_Html_Stream::Procedural\l_Summary">
<polygon fill="white" stroke="black" points="526,-245.5 526,-275.5 695,-275.5 695,-245.5 526,-245.5"/>
<text text-anchor="start" x="534" y="-263.5" font-family="Helvetica,sans-Serif" font-size="10.00">CCCC_Html_Stream::Procedural</text>
<text text-anchor="middle" x="610.5" y="-252.5" font-family="Helvetica,sans-Serif" font-size="10.00">_Summary</text>
</a>
</g>
</g>
<!-- Node8&#45;&gt;Node11 -->
<g id="edge10" class="edge"><title>Node8&#45;&gt;Node11</title>
<path fill="none" stroke="midnightblue" d="M490.618,-245.22C502.19,-246.707 514.192,-248.25 525.923,-249.757"/>
<polygon fill="midnightblue" stroke="midnightblue" points="490.942,-241.733 480.578,-243.929 490.05,-248.675 490.942,-241.733"/>
</g>
<!-- Node12 -->
<g id="node12" class="node"><title>Node12</title>
<g id="a_node12"><a xlink:href="../../d2/d92/classCCCC__Html__Stream.html#a0dbb99417ffc369edc76114cc2455ee2" target="_top" xlink:title="CCCC_Html_Stream::Structural\l_Summary">
<polygon fill="white" stroke="black" points="529.5,-196.5 529.5,-226.5 691.5,-226.5 691.5,-196.5 529.5,-196.5"/>
<text text-anchor="start" x="537.5" y="-214.5" font-family="Helvetica,sans-Serif" font-size="10.00">CCCC_Html_Stream::Structural</text>
<text text-anchor="middle" x="610.5" y="-203.5" font-family="Helvetica,sans-Serif" font-size="10.00">_Summary</text>
</a>
</g>
</g>
<!-- Node8&#45;&gt;Node12 -->
<g id="edge11" class="edge"><title>Node8&#45;&gt;Node12</title>
<path fill="none" stroke="midnightblue" d="M490.634,-226.167C503.334,-224.6 516.553,-222.969 529.362,-221.388"/>
<polygon fill="midnightblue" stroke="midnightblue" points="490.074,-222.71 480.578,-227.408 490.931,-229.657 490.074,-222.71"/>
</g>
<!-- Node13 -->
<g id="node13" class="node"><title>Node13</title>
<g id="a_node13"><a xlink:href="../../d2/d92/classCCCC__Html__Stream.html#a0abac1d610545f3aac5c469074e98ee8" target="_top" xlink:title="CCCC_Html_Stream::Structural\l_Detail">
<polygon fill="white" stroke="black" points="529.5,-147.5 529.5,-177.5 691.5,-177.5 691.5,-147.5 529.5,-147.5"/>
<text text-anchor="start" x="537.5" y="-165.5" font-family="Helvetica,sans-Serif" font-size="10.00">CCCC_Html_Stream::Structural</text>
<text text-anchor="middle" x="610.5" y="-154.5" font-family="Helvetica,sans-Serif" font-size="10.00">_Detail</text>
</a>
</g>
</g>
<!-- Node8&#45;&gt;Node13 -->
<g id="edge12" class="edge"><title>Node8&#45;&gt;Node13</title>
<path fill="none" stroke="midnightblue" d="M456.278,-216.278C476.975,-206.994 502.565,-196.042 526,-187.5 535.526,-184.028 545.785,-180.661 555.741,-177.582"/>
<polygon fill="midnightblue" stroke="midnightblue" points="454.807,-213.102 447.138,-220.412 457.692,-219.48 454.807,-213.102"/>
</g>
<!-- Node14 -->
<g id="node14" class="node"><title>Node14</title>
<g id="a_node14"><a xlink:href="../../d2/d92/classCCCC__Html__Stream.html#afe9cd530333567a8e6bfb38c6b586e81" target="_top" xlink:title="CCCC_Html_Stream::Procedural\l_Detail">
<polygon fill="white" stroke="black" points="526,-98.5 526,-128.5 695,-128.5 695,-98.5 526,-98.5"/>
<text text-anchor="start" x="534" y="-116.5" font-family="Helvetica,sans-Serif" font-size="10.00">CCCC_Html_Stream::Procedural</text>
<text text-anchor="middle" x="610.5" y="-105.5" font-family="Helvetica,sans-Serif" font-size="10.00">_Detail</text>
</a>
</g>
</g>
<!-- Node8&#45;&gt;Node14 -->
<g id="edge13" class="edge"><title>Node8&#45;&gt;Node14</title>
<path fill="none" stroke="midnightblue" d="M435.131,-212.594C455.84,-190.373 490.066,-157.205 526,-137.5 532.216,-134.091 538.964,-131.125 545.839,-128.555"/>
<polygon fill="midnightblue" stroke="midnightblue" points="432.303,-210.5 428.135,-220.24 437.468,-215.225 432.303,-210.5"/>
</g>
<!-- Node15 -->
<g id="node15" class="node"><title>Node15</title>
<g id="a_node15"><a xlink:href="../../d2/d92/classCCCC__Html__Stream.html#a4ad244ddfbe8c7929b2dbdce4197bbc6" target="_top" xlink:title="CCCC_Html_Stream::Module\l_Summary">
<polygon fill="white" stroke="black" points="534.5,-49.5 534.5,-79.5 686.5,-79.5 686.5,-49.5 534.5,-49.5"/>
<text text-anchor="start" x="542.5" y="-67.5" font-family="Helvetica,sans-Serif" font-size="10.00">CCCC_Html_Stream::Module</text>
<text text-anchor="middle" x="610.5" y="-56.5" font-family="Helvetica,sans-Serif" font-size="10.00">_Summary</text>
</a>
</g>
</g>
<!-- Node8&#45;&gt;Node15 -->
<g id="edge15" class="edge"><title>Node8&#45;&gt;Node15</title>
<path fill="none" stroke="midnightblue" d="M433.063,-212.165C448.336,-192.371 470.742,-163.181 490,-137.5 506.213,-115.88 503.827,-103.948 526,-88.5 530.95,-85.051 536.392,-82.0939 542.051,-79.5591"/>
<polygon fill="midnightblue" stroke="midnightblue" points="430.128,-210.239 426.785,-220.293 435.668,-214.518 430.128,-210.239"/>
</g>
</g>
</svg>
