<?xml version="1.0" encoding="UTF-8" standalone="no"?>
<!DOCTYPE svg PUBLIC "-//W3C//DTD SVG 1.1//EN"
 "http://www.w3.org/Graphics/SVG/1.1/DTD/svg11.dtd">
<!-- Generated by graphviz version 2.38.0 (20140413.2041)
 -->
<!-- Title: CCCC_Html_Stream::Put_Extent_Cell Pages: 1 -->
<svg width="329pt" height="88pt"
 viewBox="0.00 0.00 329.00 88.00" xmlns="http://www.w3.org/2000/svg" xmlns:xlink="http://www.w3.org/1999/xlink">
<g id="graph0" class="graph" transform="scale(1 1) rotate(0) translate(4 84)">
<title>CCCC_Html_Stream::Put_Extent_Cell</title>
<polygon fill="white" stroke="none" points="-4,4 -4,-84 325,-84 325,4 -4,4"/>
<!-- Node1 -->
<g id="node1" class="node"><title>Node1</title>
<polygon fill="#bfbfbf" stroke="black" points="0,-24.5 0,-54.5 133,-54.5 133,-24.5 0,-24.5"/>
<text text-anchor="start" x="8" y="-42.5" font-family="Helvetica,sans-Serif" font-size="10.00">CCCC_Html_Stream::Put</text>
<text text-anchor="middle" x="66.5" y="-31.5" font-family="Helvetica,sans-Serif" font-size="10.00">_Extent_Cell</text>
</g>
<!-- Node2 -->
<g id="node2" class="node"><title>Node2</title>
<g id="a_node2"><a xlink:href="../../d2/d92/classCCCC__Html__Stream.html#a103e3cbe446ab2d5978e6a4741e00a63" target="_top" xlink:title="CCCC_Html_Stream::Other\l_Extents">
<polygon fill="white" stroke="black" points="172.5,-49.5 172.5,-79.5 317.5,-79.5 317.5,-49.5 172.5,-49.5"/>
<text text-anchor="start" x="180.5" y="-67.5" font-family="Helvetica,sans-Serif" font-size="10.00">CCCC_Html_Stream::Other</text>
<text text-anchor="middle" x="245" y="-56.5" font-family="Helvetica,sans-Serif" font-size="10.00">_Extents</text>
</a>
</g>
</g>
<!-- Node1&#45;&gt;Node2 -->
<g id="edge1" class="edge"><title>Node1&#45;&gt;Node2</title>
<path fill="none" stroke="midnightblue" d="M143.191,-50.2211C152.847,-51.5888 162.708,-52.9855 172.298,-54.3439"/>
<polygon fill="midnightblue" stroke="midnightblue" points="143.614,-46.7462 133.222,-48.8091 142.632,-53.677 143.614,-46.7462"/>
</g>
<!-- Node3 -->
<g id="node3" class="node"><title>Node3</title>
<g id="a_node3"><a xlink:href="../../d2/d92/classCCCC__Html__Stream.html#ae24c7515f1b41822c677e349a2eaecda" target="_top" xlink:title="CCCC_Html_Stream::Module\l_Detail">
<polygon fill="white" stroke="black" points="169,-0.5 169,-30.5 321,-30.5 321,-0.5 169,-0.5"/>
<text text-anchor="start" x="177" y="-18.5" font-family="Helvetica,sans-Serif" font-size="10.00">CCCC_Html_Stream::Module</text>
<text text-anchor="middle" x="245" y="-7.5" font-family="Helvetica,sans-Serif" font-size="10.00">_Detail</text>
</a>
</g>
</g>
<!-- Node1&#45;&gt;Node3 -->
<g id="edge2" class="edge"><title>Node1&#45;&gt;Node3</title>
<path fill="none" stroke="midnightblue" d="M143.369,-29.1835C151.767,-28.0416 160.317,-26.8789 168.708,-25.738"/>
<polygon fill="midnightblue" stroke="midnightblue" points="142.659,-25.7477 133.222,-30.5633 143.603,-32.6839 142.659,-25.7477"/>
</g>
</g>
</svg>
