<?xml version="1.0" encoding="UTF-8" standalone="no"?>
<!DOCTYPE svg PUBLIC "-//W3C//DTD SVG 1.1//EN"
 "http://www.w3.org/Graphics/SVG/1.1/DTD/svg11.dtd">
<!-- Generated by graphviz version 2.38.0 (20140413.2041)
 -->
<!-- Title: CCCC_Html_Stream::Module_Summary Pages: 1 -->
<svg width="976pt" height="268pt"
 viewBox="0.00 0.00 976.00 267.50" xmlns="http://www.w3.org/2000/svg" xmlns:xlink="http://www.w3.org/1999/xlink">
<g id="graph0" class="graph" transform="scale(1 1) rotate(0) translate(4 263.5)">
<title>CCCC_Html_Stream::Module_Summary</title>
<polygon fill="white" stroke="none" points="-4,4 -4,-263.5 972,-263.5 972,4 -4,4"/>
<!-- Node1 -->
<g id="node1" class="node"><title>Node1</title>
<polygon fill="#bfbfbf" stroke="black" points="0,-73.5 0,-103.5 152,-103.5 152,-73.5 0,-73.5"/>
<text text-anchor="start" x="8" y="-91.5" font-family="Helvetica,sans-Serif" font-size="10.00">CCCC_Html_Stream::Module</text>
<text text-anchor="middle" x="76" y="-80.5" font-family="Helvetica,sans-Serif" font-size="10.00">_Summary</text>
</g>
<!-- Node2 -->
<g id="node2" class="node"><title>Node2</title>
<g id="a_node2"><a xlink:href="../../d6/d9f/classCCCC__Module.html#ad1f26ab257c41657302b5c7b0253b034" target="_top" xlink:title="CCCC_Module::get_count">
<polygon fill="white" stroke="black" points="357,-148 357,-167 495,-167 495,-148 357,-148"/>
<text text-anchor="middle" x="426" y="-155" font-family="Helvetica,sans-Serif" font-size="10.00">CCCC_Module::get_count</text>
</a>
</g>
</g>
<!-- Node1&#45;&gt;Node2 -->
<g id="edge1" class="edge"><title>Node1&#45;&gt;Node2</title>
<path fill="none" stroke="midnightblue" d="M103.422,-103.53C125.339,-115.218 157.704,-130.712 188,-138.5 239.864,-151.832 300.026,-156.531 346.757,-157.923"/>
<polygon fill="midnightblue" stroke="midnightblue" points="346.732,-161.424 356.818,-158.178 346.91,-154.426 346.732,-161.424"/>
</g>
<!-- Node9 -->
<g id="node9" class="node"><title>Node9</title>
<g id="a_node9"><a xlink:href="../../d2/d92/classCCCC__Html__Stream.html#ac9f9ceabc0db6e045eb2d89c8961d8f8" target="_top" xlink:title="CCCC_Html_Stream::Put\l_Header_Cell">
<polygon fill="white" stroke="black" points="188,-49.5 188,-79.5 321,-79.5 321,-49.5 188,-49.5"/>
<text text-anchor="start" x="196" y="-67.5" font-family="Helvetica,sans-Serif" font-size="10.00">CCCC_Html_Stream::Put</text>
<text text-anchor="middle" x="254.5" y="-56.5" font-family="Helvetica,sans-Serif" font-size="10.00">_Header_Cell</text>
</a>
</g>
</g>
<!-- Node1&#45;&gt;Node9 -->
<g id="edge8" class="edge"><title>Node1&#45;&gt;Node9</title>
<path fill="none" stroke="midnightblue" d="M152.108,-78.287C160.672,-77.1225 169.406,-75.9349 177.976,-74.7696"/>
<polygon fill="midnightblue" stroke="midnightblue" points="178.504,-78.2301 187.941,-73.4145 177.561,-71.2939 178.504,-78.2301"/>
</g>
<!-- Node10 -->
<g id="node10" class="node"><title>Node10</title>
<g id="a_node10"><a xlink:href="../../d2/d92/classCCCC__Html__Stream.html#a11a4dc19838cdbfe33b6d2e7f8b5823a" target="_top" xlink:title="CCCC_Html_Stream::Put\l_Label_Cell">
<polygon fill="white" stroke="black" points="188,-98.5 188,-128.5 321,-128.5 321,-98.5 188,-98.5"/>
<text text-anchor="start" x="196" y="-116.5" font-family="Helvetica,sans-Serif" font-size="10.00">CCCC_Html_Stream::Put</text>
<text text-anchor="middle" x="254.5" y="-105.5" font-family="Helvetica,sans-Serif" font-size="10.00">_Label_Cell</text>
</a>
</g>
</g>
<!-- Node1&#45;&gt;Node10 -->
<g id="edge9" class="edge"><title>Node1&#45;&gt;Node10</title>
<path fill="none" stroke="midnightblue" d="M152.108,-99.1385C160.672,-100.352 169.406,-101.589 177.976,-102.803"/>
<polygon fill="midnightblue" stroke="midnightblue" points="177.549,-106.277 187.941,-104.214 178.531,-99.3461 177.549,-106.277"/>
</g>
<!-- Node14 -->
<g id="node14" class="node"><title>Node14</title>
<g id="a_node14"><a xlink:href="../../d2/d92/classCCCC__Html__Stream.html#aba7d2e72e94a320608c67b73aebcd728" target="_top" xlink:title="CCCC_Html_Stream::Put\l_Metric_Cell">
<polygon fill="white" stroke="black" points="188,-0.5 188,-30.5 321,-30.5 321,-0.5 188,-0.5"/>
<text text-anchor="start" x="196" y="-18.5" font-family="Helvetica,sans-Serif" font-size="10.00">CCCC_Html_Stream::Put</text>
<text text-anchor="middle" x="254.5" y="-7.5" font-family="Helvetica,sans-Serif" font-size="10.00">_Metric_Cell</text>
</a>
</g>
</g>
<!-- Node1&#45;&gt;Node14 -->
<g id="edge17" class="edge"><title>Node1&#45;&gt;Node14</title>
<path fill="none" stroke="midnightblue" d="M109.791,-73.3593C131.766,-63.3776 161.432,-50.2184 188,-39.5 192.401,-37.7244 196.99,-35.93 201.605,-34.1642"/>
<polygon fill="midnightblue" stroke="midnightblue" points="202.945,-37.3997 211.066,-30.5949 200.474,-30.8503 202.945,-37.3997"/>
</g>
<!-- Node3 -->
<g id="node3" class="node"><title>Node3</title>
<g id="a_node3"><a xlink:href="../../d6/d9f/classCCCC__Module.html#a2e35b964b59e60393b2af32dd537f505" target="_top" xlink:title="CCCC_Module::is_trivial">
<polygon fill="white" stroke="black" points="533,-240 533,-259 663,-259 663,-240 533,-240"/>
<text text-anchor="middle" x="598" y="-247" font-family="Helvetica,sans-Serif" font-size="10.00">CCCC_Module::is_trivial</text>
</a>
</g>
</g>
<!-- Node2&#45;&gt;Node3 -->
<g id="edge2" class="edge"><title>Node2&#45;&gt;Node3</title>
<path fill="none" stroke="midnightblue" d="M439.557,-167.091C458.551,-181.27 496.081,-208.028 531,-225.5 539.081,-229.543 548.014,-233.257 556.629,-236.493"/>
<polygon fill="midnightblue" stroke="midnightblue" points="555.563,-239.829 566.158,-239.935 557.942,-233.246 555.563,-239.829"/>
</g>
<!-- Node4 -->
<g id="node4" class="node"><title>Node4</title>
<g id="a_node4"><a xlink:href="../../d6/d85/classCCCC__Record.html#a81bf0541981287180a41e3d801e7a084" target="_top" xlink:title="CCCC_Record::key">
<polygon fill="white" stroke="black" points="703.5,-64 703.5,-83 811.5,-83 811.5,-64 703.5,-64"/>
<text text-anchor="middle" x="757.5" y="-71" font-family="Helvetica,sans-Serif" font-size="10.00">CCCC_Record::key</text>
</a>
</g>
</g>
<!-- Node2&#45;&gt;Node4 -->
<g id="edge3" class="edge"><title>Node2&#45;&gt;Node4</title>
<path fill="none" stroke="midnightblue" d="M445.427,-167.09C486.954,-187.284 590.068,-229.406 665,-192.5 707.29,-171.671 735.501,-120.862 748.414,-92.8411"/>
<polygon fill="midnightblue" stroke="midnightblue" points="751.777,-93.8894 752.611,-83.3275 745.372,-91.0637 751.777,-93.8894"/>
</g>
<!-- Node6 -->
<g id="node6" class="node"><title>Node6</title>
<g id="a_node6"><a xlink:href="../../d8/dcf/classCCCC__Table.html#a0d099c7bc984323270cc8c63d5ff8379" target="_top" xlink:title="CCCC_Table::first_item">
<polygon fill="white" stroke="black" points="535,-88 535,-107 661,-107 661,-88 535,-88"/>
<text text-anchor="middle" x="598" y="-95" font-family="Helvetica,sans-Serif" font-size="10.00">CCCC_Table::first_item</text>
</a>
</g>
</g>
<!-- Node2&#45;&gt;Node6 -->
<g id="edge5" class="edge"><title>Node2&#45;&gt;Node6</title>
<path fill="none" stroke="midnightblue" d="M449.492,-147.914C470.402,-139.175 502.521,-126.189 531,-116.5 537.598,-114.255 544.624,-112.045 551.539,-109.971"/>
<polygon fill="midnightblue" stroke="midnightblue" points="552.917,-113.214 561.527,-107.04 550.946,-106.497 552.917,-113.214"/>
</g>
<!-- Node7 -->
<g id="node7" class="node"><title>Node7</title>
<g id="a_node7"><a xlink:href="../../df/d99/classCCCC__Extent.html#aa6094d7370a45e8e7237fd25289e99bb" target="_top" xlink:title="CCCC_Extent::get_count">
<polygon fill="white" stroke="black" points="531,-164 531,-183 665,-183 665,-164 531,-164"/>
<text text-anchor="middle" x="598" y="-171" font-family="Helvetica,sans-Serif" font-size="10.00">CCCC_Extent::get_count</text>
</a>
</g>
</g>
<!-- Node2&#45;&gt;Node7 -->
<g id="edge6" class="edge"><title>Node2&#45;&gt;Node7</title>
<path fill="none" stroke="midnightblue" d="M495.166,-163.916C503.506,-164.701 512.072,-165.507 520.524,-166.302"/>
<polygon fill="midnightblue" stroke="midnightblue" points="520.47,-169.813 530.754,-167.265 521.126,-162.843 520.47,-169.813"/>
</g>
<!-- Node8 -->
<g id="node8" class="node"><title>Node8</title>
<g id="a_node8"><a xlink:href="../../d8/dcf/classCCCC__Table.html#a080274070f7d48b68bd8d3291818d76f" target="_top" xlink:title="CCCC_Table::next_item">
<polygon fill="white" stroke="black" points="533.5,-126 533.5,-145 662.5,-145 662.5,-126 533.5,-126"/>
<text text-anchor="middle" x="598" y="-133" font-family="Helvetica,sans-Serif" font-size="10.00">CCCC_Table::next_item</text>
</a>
</g>
</g>
<!-- Node2&#45;&gt;Node8 -->
<g id="edge7" class="edge"><title>Node2&#45;&gt;Node8</title>
<path fill="none" stroke="midnightblue" d="M495.166,-148.679C504.392,-147.485 513.893,-146.255 523.212,-145.049"/>
<polygon fill="midnightblue" stroke="midnightblue" points="523.762,-148.507 533.23,-143.753 522.863,-141.565 523.762,-148.507"/>
</g>
<!-- Node5 -->
<g id="node5" class="node"><title>Node5</title>
<g id="a_node5"><a xlink:href="../../d6/d85/classCCCC__Record.html#a03c15972bea5df4e34930fa4c34e34bd" target="_top" xlink:title="CCCC_Record::name">
<polygon fill="white" stroke="black" points="850,-64 850,-83 968,-83 968,-64 850,-64"/>
<text text-anchor="middle" x="909" y="-71" font-family="Helvetica,sans-Serif" font-size="10.00">CCCC_Record::name</text>
</a>
</g>
</g>
<!-- Node4&#45;&gt;Node5 -->
<g id="edge4" class="edge"><title>Node4&#45;&gt;Node5</title>
<path fill="none" stroke="midnightblue" d="M811.629,-73.5C820.751,-73.5 830.343,-73.5 839.794,-73.5"/>
<polygon fill="midnightblue" stroke="midnightblue" points="839.965,-77.0001 849.965,-73.5 839.965,-70.0001 839.965,-77.0001"/>
</g>
<!-- Node11 -->
<g id="node11" class="node"><title>Node11</title>
<g id="a_node11"><a xlink:href="../../d2/d92/classCCCC__Html__Stream.html#a4cdc271c6f74c77b19dec08a3c8500db" target="_top" xlink:title="CCCC_Html_Stream::Put\l_Extent_List">
<polygon fill="white" stroke="black" points="359.5,-82.5 359.5,-112.5 492.5,-112.5 492.5,-82.5 359.5,-82.5"/>
<text text-anchor="start" x="367.5" y="-100.5" font-family="Helvetica,sans-Serif" font-size="10.00">CCCC_Html_Stream::Put</text>
<text text-anchor="middle" x="426" y="-89.5" font-family="Helvetica,sans-Serif" font-size="10.00">_Extent_List</text>
</a>
</g>
</g>
<!-- Node10&#45;&gt;Node11 -->
<g id="edge10" class="edge"><title>Node10&#45;&gt;Node11</title>
<path fill="none" stroke="midnightblue" d="M321.033,-107.314C330.269,-106.442 339.826,-105.54 349.234,-104.652"/>
<polygon fill="midnightblue" stroke="midnightblue" points="349.735,-108.12 359.362,-103.696 349.077,-101.151 349.735,-108.12"/>
</g>
<!-- Node11&#45;&gt;Node6 -->
<g id="edge11" class="edge"><title>Node11&#45;&gt;Node6</title>
<path fill="none" stroke="midnightblue" d="M492.726,-97.5C503.206,-97.5 514.097,-97.5 524.718,-97.5"/>
<polygon fill="midnightblue" stroke="midnightblue" points="524.795,-101 534.795,-97.5 524.795,-94.0001 524.795,-101"/>
</g>
<!-- Node11&#45;&gt;Node8 -->
<g id="edge16" class="edge"><title>Node11&#45;&gt;Node8</title>
<path fill="none" stroke="midnightblue" d="M492.726,-112.192C509.826,-116.014 528.025,-120.082 544.351,-123.731"/>
<polygon fill="midnightblue" stroke="midnightblue" points="543.726,-127.178 554.248,-125.944 545.253,-120.347 543.726,-127.178"/>
</g>
<!-- Node12 -->
<g id="node12" class="node"><title>Node12</title>
<g id="a_node12"><a xlink:href="../../df/d99/classCCCC__Extent.html#aafc68f063b7e7635471d1d0f7d5bca70" target="_top" xlink:title="CCCC_Extent::name">
<polygon fill="white" stroke="black" points="701,-23 701,-42 814,-42 814,-23 701,-23"/>
<text text-anchor="middle" x="757.5" y="-30" font-family="Helvetica,sans-Serif" font-size="10.00">CCCC_Extent::name</text>
</a>
</g>
</g>
<!-- Node11&#45;&gt;Node12 -->
<g id="edge12" class="edge"><title>Node11&#45;&gt;Node12</title>
<path fill="none" stroke="midnightblue" d="M443.064,-82.3712C462.25,-65.4415 496.148,-39.0101 531,-28.5 585.021,-12.2093 649.676,-15.526 695.876,-21.5379"/>
<polygon fill="midnightblue" stroke="midnightblue" points="695.644,-25.0391 706.029,-22.9409 696.603,-18.105 695.644,-25.0391"/>
</g>
<!-- Node13 -->
<g id="node13" class="node"><title>Node13</title>
<g id="a_node13"><a xlink:href="../../d2/d92/classCCCC__Html__Stream.html#abc882e68712ce2c2f95ce84821d1c516" target="_top" xlink:title="CCCC_Html_Stream::Put\l_Extent_URL">
<polygon fill="white" stroke="black" points="531.5,-38.5 531.5,-68.5 664.5,-68.5 664.5,-38.5 531.5,-38.5"/>
<text text-anchor="start" x="539.5" y="-56.5" font-family="Helvetica,sans-Serif" font-size="10.00">CCCC_Html_Stream::Put</text>
<text text-anchor="middle" x="598" y="-45.5" font-family="Helvetica,sans-Serif" font-size="10.00">_Extent_URL</text>
</a>
</g>
</g>
<!-- Node11&#45;&gt;Node13 -->
<g id="edge13" class="edge"><title>Node11&#45;&gt;Node13</title>
<path fill="none" stroke="midnightblue" d="M485.029,-82.4808C499.174,-78.8196 514.432,-74.8706 528.995,-71.1013"/>
<polygon fill="midnightblue" stroke="midnightblue" points="530.14,-74.4203 538.944,-68.5262 528.386,-67.6436 530.14,-74.4203"/>
</g>
<!-- Node13&#45;&gt;Node4 -->
<g id="edge15" class="edge"><title>Node13&#45;&gt;Node4</title>
<path fill="none" stroke="midnightblue" d="M664.882,-61.8659C674.291,-63.0608 683.952,-64.2876 693.309,-65.4757"/>
<polygon fill="midnightblue" stroke="midnightblue" points="692.954,-68.9586 703.315,-66.7463 693.836,-62.0144 692.954,-68.9586"/>
</g>
<!-- Node13&#45;&gt;Node12 -->
<g id="edge14" class="edge"><title>Node13&#45;&gt;Node12</title>
<path fill="none" stroke="midnightblue" d="M664.882,-44.7158C673.485,-43.5687 682.299,-42.3935 690.898,-41.247"/>
<polygon fill="midnightblue" stroke="midnightblue" points="691.418,-44.7087 700.868,-39.9177 690.493,-37.7701 691.418,-44.7087"/>
</g>
<!-- Node15 -->
<g id="node15" class="node"><title>Node15</title>
<g id="a_node15"><a xlink:href="../../dd/d72/classCCCC__Metric.html#a4388127897cc2c1de762a9689b913c0d" target="_top" xlink:title="CCCC_Metric::emphasis\l_level">
<polygon fill="white" stroke="black" points="360.5,-0.5 360.5,-30.5 491.5,-30.5 491.5,-0.5 360.5,-0.5"/>
<text text-anchor="start" x="368.5" y="-18.5" font-family="Helvetica,sans-Serif" font-size="10.00">CCCC_Metric::emphasis</text>
<text text-anchor="middle" x="426" y="-7.5" font-family="Helvetica,sans-Serif" font-size="10.00">_level</text>
</a>
</g>
</g>
<!-- Node14&#45;&gt;Node15 -->
<g id="edge18" class="edge"><title>Node14&#45;&gt;Node15</title>
<path fill="none" stroke="midnightblue" d="M321.033,-15.5C330.644,-15.5 340.602,-15.5 350.379,-15.5"/>
<polygon fill="midnightblue" stroke="midnightblue" points="350.478,-19.0001 360.478,-15.5 350.478,-12.0001 350.478,-19.0001"/>
</g>
</g>
</svg>
