<?xml version="1.0" encoding="UTF-8" standalone="no"?>
<!DOCTYPE svg PUBLIC "-//W3C//DTD SVG 1.1//EN"
 "http://www.w3.org/Graphics/SVG/1.1/DTD/svg11.dtd">
<!-- Generated by graphviz version 2.38.0 (20140413.2041)
 -->
<!-- Title: CCCC_Html_Stream::GenerateReports Pages: 1 -->
<svg width="520pt" height="78pt"
 viewBox="0.00 0.00 520.00 77.50" xmlns="http://www.w3.org/2000/svg" xmlns:xlink="http://www.w3.org/1999/xlink">
<g id="graph0" class="graph" transform="scale(1 1) rotate(0) translate(4 73.5)">
<title>CCCC_Html_Stream::GenerateReports</title>
<polygon fill="white" stroke="none" points="-4,4 -4,-73.5 516,-73.5 516,4 -4,4"/>
<!-- Node1 -->
<g id="node1" class="node"><title>Node1</title>
<polygon fill="#bfbfbf" stroke="black" points="0,-22.5 0,-52.5 163,-52.5 163,-22.5 0,-22.5"/>
<text text-anchor="start" x="8" y="-40.5" font-family="Helvetica,sans-Serif" font-size="10.00">CCCC_Html_Stream::Generate</text>
<text text-anchor="middle" x="81.5" y="-29.5" font-family="Helvetica,sans-Serif" font-size="10.00">Reports</text>
</g>
<!-- Node2 -->
<g id="node2" class="node"><title>Node2</title>
<g id="a_node2"><a xlink:href="../../d2/d92/classCCCC__Html__Stream.html#a31acdc68a7ee15c16ef89ceed3591057" target="_top" xlink:title="CCCC_Html_Stream::Table\l_Of_Contents">
<polygon fill="white" stroke="black" points="199,-22.5 199,-52.5 343,-52.5 343,-22.5 199,-22.5"/>
<text text-anchor="start" x="207" y="-40.5" font-family="Helvetica,sans-Serif" font-size="10.00">CCCC_Html_Stream::Table</text>
<text text-anchor="middle" x="271" y="-29.5" font-family="Helvetica,sans-Serif" font-size="10.00">_Of_Contents</text>
</a>
</g>
</g>
<!-- Node1&#45;&gt;Node2 -->
<g id="edge1" class="edge"><title>Node1&#45;&gt;Node2</title>
<path fill="none" stroke="midnightblue" d="M163.105,-37.5C171.573,-37.5 180.186,-37.5 188.662,-37.5"/>
<polygon fill="midnightblue" stroke="midnightblue" points="188.914,-41.0001 198.914,-37.5 188.914,-34.0001 188.914,-41.0001"/>
</g>
<!-- Node3 -->
<g id="node3" class="node"><title>Node3</title>
<g id="a_node3"><a xlink:href="../../d4/d6e/classCCCC__Project.html#ac0565e746210778bc6f165130464041b" target="_top" xlink:title="CCCC_Project::name">
<polygon fill="white" stroke="black" points="387.5,-50 387.5,-69 503.5,-69 503.5,-50 387.5,-50"/>
<text text-anchor="middle" x="445.5" y="-57" font-family="Helvetica,sans-Serif" font-size="10.00">CCCC_Project::name</text>
</a>
</g>
</g>
<!-- Node2&#45;&gt;Node3 -->
<g id="edge2" class="edge"><title>Node2&#45;&gt;Node3</title>
<path fill="none" stroke="midnightblue" d="M343.158,-46.5753C354.456,-48.0161 366.11,-49.5025 377.313,-50.9312"/>
<polygon fill="midnightblue" stroke="midnightblue" points="377.089,-54.4309 387.451,-52.2242 377.974,-47.4871 377.089,-54.4309"/>
</g>
<!-- Node4 -->
<g id="node4" class="node"><title>Node4</title>
<g id="a_node4"><a xlink:href="../../d2/d92/classCCCC__Html__Stream.html#ab0ee2a9c916a9cce8480a00cca4da500" target="_top" xlink:title="CCCC_Html_Stream::Put\l_Section_TOC_Entry">
<polygon fill="white" stroke="black" points="379,-0.5 379,-30.5 512,-30.5 512,-0.5 379,-0.5"/>
<text text-anchor="start" x="387" y="-18.5" font-family="Helvetica,sans-Serif" font-size="10.00">CCCC_Html_Stream::Put</text>
<text text-anchor="middle" x="445.5" y="-7.5" font-family="Helvetica,sans-Serif" font-size="10.00">_Section_TOC_Entry</text>
</a>
</g>
</g>
<!-- Node2&#45;&gt;Node4 -->
<g id="edge3" class="edge"><title>Node2&#45;&gt;Node4</title>
<path fill="none" stroke="midnightblue" d="M343.158,-28.4247C351.63,-27.3443 360.302,-26.2383 368.834,-25.1502"/>
<polygon fill="midnightblue" stroke="midnightblue" points="369.287,-28.6208 378.764,-23.8837 368.402,-21.677 369.287,-28.6208"/>
</g>
</g>
</svg>
