<?xml version="1.0" encoding="UTF-8" standalone="no"?>
<!DOCTYPE svg PUBLIC "-//W3C//DTD SVG 1.1//EN"
 "http://www.w3.org/Graphics/SVG/1.1/DTD/svg11.dtd">
<!-- Generated by graphviz version 2.38.0 (20140413.2041)
 -->
<!-- Title: CCCC_Html_Stream::Put_Section_TOC_Entry Pages: 1 -->
<svg width="741pt" height="39pt"
 viewBox="0.00 0.00 741.00 39.00" xmlns="http://www.w3.org/2000/svg" xmlns:xlink="http://www.w3.org/1999/xlink">
<g id="graph0" class="graph" transform="scale(1 1) rotate(0) translate(4 35)">
<title>CCCC_Html_Stream::Put_Section_TOC_Entry</title>
<polygon fill="white" stroke="none" points="-4,4 -4,-35 737,-35 737,4 -4,4"/>
<!-- Node1 -->
<g id="node1" class="node"><title>Node1</title>
<polygon fill="#bfbfbf" stroke="black" points="0,-0.5 0,-30.5 133,-30.5 133,-0.5 0,-0.5"/>
<text text-anchor="start" x="8" y="-18.5" font-family="Helvetica,sans-Serif" font-size="10.00">CCCC_Html_Stream::Put</text>
<text text-anchor="middle" x="66.5" y="-7.5" font-family="Helvetica,sans-Serif" font-size="10.00">_Section_TOC_Entry</text>
</g>
<!-- Node2 -->
<g id="node2" class="node"><title>Node2</title>
<g id="a_node2"><a xlink:href="../../d2/d92/classCCCC__Html__Stream.html#a31acdc68a7ee15c16ef89ceed3591057" target="_top" xlink:title="CCCC_Html_Stream::Table\l_Of_Contents">
<polygon fill="white" stroke="black" points="169,-0.5 169,-30.5 313,-30.5 313,-0.5 169,-0.5"/>
<text text-anchor="start" x="177" y="-18.5" font-family="Helvetica,sans-Serif" font-size="10.00">CCCC_Html_Stream::Table</text>
<text text-anchor="middle" x="241" y="-7.5" font-family="Helvetica,sans-Serif" font-size="10.00">_Of_Contents</text>
</a>
</g>
</g>
<!-- Node1&#45;&gt;Node2 -->
<g id="edge1" class="edge"><title>Node1&#45;&gt;Node2</title>
<path fill="none" stroke="midnightblue" d="M143.39,-15.5C151.811,-15.5 160.366,-15.5 168.727,-15.5"/>
<polygon fill="midnightblue" stroke="midnightblue" points="143.207,-12.0001 133.207,-15.5 143.207,-19.0001 143.207,-12.0001"/>
</g>
<!-- Node3 -->
<g id="node3" class="node"><title>Node3</title>
<g id="a_node3"><a xlink:href="../../d2/d92/classCCCC__Html__Stream.html#a00291e1eff600f8ae50d83b08322592b" target="_top" xlink:title="CCCC_Html_Stream::Generate\lReports">
<polygon fill="white" stroke="black" points="349,-0.5 349,-30.5 512,-30.5 512,-0.5 349,-0.5"/>
<text text-anchor="start" x="357" y="-18.5" font-family="Helvetica,sans-Serif" font-size="10.00">CCCC_Html_Stream::Generate</text>
<text text-anchor="middle" x="430.5" y="-7.5" font-family="Helvetica,sans-Serif" font-size="10.00">Reports</text>
</a>
</g>
</g>
<!-- Node2&#45;&gt;Node3 -->
<g id="edge2" class="edge"><title>Node2&#45;&gt;Node3</title>
<path fill="none" stroke="midnightblue" d="M323.411,-15.5C331.892,-15.5 340.51,-15.5 348.982,-15.5"/>
<polygon fill="midnightblue" stroke="midnightblue" points="323.153,-12.0001 313.153,-15.5 323.153,-19.0001 323.153,-12.0001"/>
</g>
<!-- Node4 -->
<g id="node4" class="node"><title>Node4</title>
<g id="a_node4"><a xlink:href="../../db/d4a/classMain.html#a41e7f9ccdd5f0029949137c8c5ac8ece" target="_top" xlink:title="Main::GenerateHtml">
<polygon fill="white" stroke="black" points="548,-6 548,-25 658,-25 658,-6 548,-6"/>
<text text-anchor="middle" x="603" y="-13" font-family="Helvetica,sans-Serif" font-size="10.00">Main::GenerateHtml</text>
</a>
</g>
</g>
<!-- Node3&#45;&gt;Node4 -->
<g id="edge3" class="edge"><title>Node3&#45;&gt;Node4</title>
<path fill="none" stroke="midnightblue" d="M522.431,-15.5C531.085,-15.5 539.661,-15.5 547.8,-15.5"/>
<polygon fill="midnightblue" stroke="midnightblue" points="522.256,-12.0001 512.256,-15.5 522.256,-19.0001 522.256,-12.0001"/>
</g>
<!-- Node5 -->
<g id="node5" class="node"><title>Node5</title>
<g id="a_node5"><a xlink:href="../../d6/d93/ccccmain_8cc.html#a3c04138a5bfe5d72780bb7e82a18e627" target="_top" xlink:title="main">
<polygon fill="white" stroke="black" points="694,-6 694,-25 733,-25 733,-6 694,-6"/>
<text text-anchor="middle" x="713.5" y="-13" font-family="Helvetica,sans-Serif" font-size="10.00">main</text>
</a>
</g>
</g>
<!-- Node4&#45;&gt;Node5 -->
<g id="edge4" class="edge"><title>Node4&#45;&gt;Node5</title>
<path fill="none" stroke="midnightblue" d="M668.33,-15.5C677.522,-15.5 686.315,-15.5 693.601,-15.5"/>
<polygon fill="midnightblue" stroke="midnightblue" points="668.25,-12.0001 658.25,-15.5 668.25,-19.0001 668.25,-12.0001"/>
</g>
</g>
</svg>
