<?xml version="1.0" encoding="UTF-8" standalone="no"?>
<!DOCTYPE svg PUBLIC "-//W3C//DTD SVG 1.1//EN"
 "http://www.w3.org/Graphics/SVG/1.1/DTD/svg11.dtd">
<!-- Generated by graphviz version 2.38.0 (20140413.2041)
 -->
<!-- Title: CCCC_Html_Stream::Put_Header_Cell Pages: 1 -->
<svg width="346pt" height="382pt"
 viewBox="0.00 0.00 346.00 382.00" xmlns="http://www.w3.org/2000/svg" xmlns:xlink="http://www.w3.org/1999/xlink">
<g id="graph0" class="graph" transform="scale(1 1) rotate(0) translate(4 378)">
<title>CCCC_Html_Stream::Put_Header_Cell</title>
<polygon fill="white" stroke="none" points="-4,4 -4,-378 342,-378 342,4 -4,4"/>
<!-- Node1 -->
<g id="node1" class="node"><title>Node1</title>
<polygon fill="#bfbfbf" stroke="black" points="0,-171.5 0,-201.5 133,-201.5 133,-171.5 0,-171.5"/>
<text text-anchor="start" x="8" y="-189.5" font-family="Helvetica,sans-Serif" font-size="10.00">CCCC_Html_Stream::Put</text>
<text text-anchor="middle" x="66.5" y="-178.5" font-family="Helvetica,sans-Serif" font-size="10.00">_Header_Cell</text>
</g>
<!-- Node2 -->
<g id="node2" class="node"><title>Node2</title>
<g id="a_node2"><a xlink:href="../../d2/d92/classCCCC__Html__Stream.html#aa4d916f2e9fc42d4b7924e1544be92f6" target="_top" xlink:title="CCCC_Html_Stream::Project\l_Summary">
<polygon fill="white" stroke="black" points="178,-343.5 178,-373.5 329,-373.5 329,-343.5 178,-343.5"/>
<text text-anchor="start" x="186" y="-361.5" font-family="Helvetica,sans-Serif" font-size="10.00">CCCC_Html_Stream::Project</text>
<text text-anchor="middle" x="253.5" y="-350.5" font-family="Helvetica,sans-Serif" font-size="10.00">_Summary</text>
</a>
</g>
</g>
<!-- Node1&#45;&gt;Node2 -->
<g id="edge1" class="edge"><title>Node1&#45;&gt;Node2</title>
<path fill="none" stroke="midnightblue" d="M77.8253,-211.026C92.972,-244.027 124.342,-302.295 169,-334.5 173.771,-337.941 179.027,-340.89 184.508,-343.418"/>
<polygon fill="midnightblue" stroke="midnightblue" points="80.9157,-209.362 73.6487,-201.652 74.5216,-212.211 80.9157,-209.362"/>
</g>
<!-- Node3 -->
<g id="node3" class="node"><title>Node3</title>
<g id="a_node3"><a xlink:href="../../d2/d92/classCCCC__Html__Stream.html#a81d206c53e52cd62d445beb809c3d215" target="_top" xlink:title="CCCC_Html_Stream::OO\l_Design">
<polygon fill="white" stroke="black" points="186.5,-294.5 186.5,-324.5 320.5,-324.5 320.5,-294.5 186.5,-294.5"/>
<text text-anchor="start" x="194.5" y="-312.5" font-family="Helvetica,sans-Serif" font-size="10.00">CCCC_Html_Stream::OO</text>
<text text-anchor="middle" x="253.5" y="-301.5" font-family="Helvetica,sans-Serif" font-size="10.00">_Design</text>
</a>
</g>
</g>
<!-- Node1&#45;&gt;Node3 -->
<g id="edge2" class="edge"><title>Node1&#45;&gt;Node3</title>
<path fill="none" stroke="midnightblue" d="M85.3853,-209.641C103.964,-232.152 135.03,-265.76 169,-285.5 174.869,-288.91 181.254,-291.863 187.794,-294.414"/>
<polygon fill="midnightblue" stroke="midnightblue" points="87.9032,-207.188 78.8963,-201.609 82.4582,-211.587 87.9032,-207.188"/>
</g>
<!-- Node4 -->
<g id="node4" class="node"><title>Node4</title>
<g id="a_node4"><a xlink:href="../../d2/d92/classCCCC__Html__Stream.html#a872d57e3b8d177d0fcc532237b53e6fe" target="_top" xlink:title="CCCC_Html_Stream::Procedural\l_Summary">
<polygon fill="white" stroke="black" points="169,-245.5 169,-275.5 338,-275.5 338,-245.5 169,-245.5"/>
<text text-anchor="start" x="177" y="-263.5" font-family="Helvetica,sans-Serif" font-size="10.00">CCCC_Html_Stream::Procedural</text>
<text text-anchor="middle" x="253.5" y="-252.5" font-family="Helvetica,sans-Serif" font-size="10.00">_Summary</text>
</a>
</g>
</g>
<!-- Node1&#45;&gt;Node4 -->
<g id="edge3" class="edge"><title>Node1&#45;&gt;Node4</title>
<path fill="none" stroke="midnightblue" d="M103.832,-206.358C122.874,-216.26 146.798,-227.919 169,-236.5 177.301,-239.708 186.211,-242.712 195.008,-245.436"/>
<polygon fill="midnightblue" stroke="midnightblue" points="105.384,-203.22 94.9048,-201.66 102.124,-209.415 105.384,-203.22"/>
</g>
<!-- Node5 -->
<g id="node5" class="node"><title>Node5</title>
<g id="a_node5"><a xlink:href="../../d2/d92/classCCCC__Html__Stream.html#a0dbb99417ffc369edc76114cc2455ee2" target="_top" xlink:title="CCCC_Html_Stream::Structural\l_Summary">
<polygon fill="white" stroke="black" points="172.5,-196.5 172.5,-226.5 334.5,-226.5 334.5,-196.5 172.5,-196.5"/>
<text text-anchor="start" x="180.5" y="-214.5" font-family="Helvetica,sans-Serif" font-size="10.00">CCCC_Html_Stream::Structural</text>
<text text-anchor="middle" x="253.5" y="-203.5" font-family="Helvetica,sans-Serif" font-size="10.00">_Summary</text>
</a>
</g>
</g>
<!-- Node1&#45;&gt;Node5 -->
<g id="edge4" class="edge"><title>Node1&#45;&gt;Node5</title>
<path fill="none" stroke="midnightblue" d="M143.173,-196.726C152.804,-198.028 162.688,-199.363 172.386,-200.674"/>
<polygon fill="midnightblue" stroke="midnightblue" points="143.624,-193.255 133.245,-195.384 142.686,-200.192 143.624,-193.255"/>
</g>
<!-- Node6 -->
<g id="node6" class="node"><title>Node6</title>
<g id="a_node6"><a xlink:href="../../d2/d92/classCCCC__Html__Stream.html#a0abac1d610545f3aac5c469074e98ee8" target="_top" xlink:title="CCCC_Html_Stream::Structural\l_Detail">
<polygon fill="white" stroke="black" points="172.5,-147.5 172.5,-177.5 334.5,-177.5 334.5,-147.5 172.5,-147.5"/>
<text text-anchor="start" x="180.5" y="-165.5" font-family="Helvetica,sans-Serif" font-size="10.00">CCCC_Html_Stream::Structural</text>
<text text-anchor="middle" x="253.5" y="-154.5" font-family="Helvetica,sans-Serif" font-size="10.00">_Detail</text>
</a>
</g>
</g>
<!-- Node1&#45;&gt;Node6 -->
<g id="edge5" class="edge"><title>Node1&#45;&gt;Node6</title>
<path fill="none" stroke="midnightblue" d="M143.173,-176.683C152.804,-175.434 162.688,-174.151 172.386,-172.893"/>
<polygon fill="midnightblue" stroke="midnightblue" points="142.712,-173.213 133.245,-177.971 143.612,-180.155 142.712,-173.213"/>
</g>
<!-- Node7 -->
<g id="node7" class="node"><title>Node7</title>
<g id="a_node7"><a xlink:href="../../d2/d92/classCCCC__Html__Stream.html#afe9cd530333567a8e6bfb38c6b586e81" target="_top" xlink:title="CCCC_Html_Stream::Procedural\l_Detail">
<polygon fill="white" stroke="black" points="169,-98.5 169,-128.5 338,-128.5 338,-98.5 169,-98.5"/>
<text text-anchor="start" x="177" y="-116.5" font-family="Helvetica,sans-Serif" font-size="10.00">CCCC_Html_Stream::Procedural</text>
<text text-anchor="middle" x="253.5" y="-105.5" font-family="Helvetica,sans-Serif" font-size="10.00">_Detail</text>
</a>
</g>
</g>
<!-- Node1&#45;&gt;Node7 -->
<g id="edge6" class="edge"><title>Node1&#45;&gt;Node7</title>
<path fill="none" stroke="midnightblue" d="M105.438,-166.888C124.26,-157.591 147.515,-146.743 169,-138.5 178.183,-134.977 188.086,-131.631 197.752,-128.6"/>
<polygon fill="midnightblue" stroke="midnightblue" points="103.69,-163.849 96.3068,-171.448 106.817,-170.112 103.69,-163.849"/>
</g>
<!-- Node8 -->
<g id="node8" class="node"><title>Node8</title>
<g id="a_node8"><a xlink:href="../../d2/d92/classCCCC__Html__Stream.html#a103e3cbe446ab2d5978e6a4741e00a63" target="_top" xlink:title="CCCC_Html_Stream::Other\l_Extents">
<polygon fill="white" stroke="black" points="181,-49.5 181,-79.5 326,-79.5 326,-49.5 181,-49.5"/>
<text text-anchor="start" x="189" y="-67.5" font-family="Helvetica,sans-Serif" font-size="10.00">CCCC_Html_Stream::Other</text>
<text text-anchor="middle" x="253.5" y="-56.5" font-family="Helvetica,sans-Serif" font-size="10.00">_Extents</text>
</a>
</g>
</g>
<!-- Node1&#45;&gt;Node8 -->
<g id="edge7" class="edge"><title>Node1&#45;&gt;Node8</title>
<path fill="none" stroke="midnightblue" d="M85.843,-163.552C104.567,-141.571 135.558,-108.952 169,-89.5 175.54,-85.6958 182.711,-82.424 190.016,-79.6217"/>
<polygon fill="midnightblue" stroke="midnightblue" points="83.0085,-161.486 79.288,-171.406 88.3827,-165.971 83.0085,-161.486"/>
</g>
<!-- Node9 -->
<g id="node9" class="node"><title>Node9</title>
<g id="a_node9"><a xlink:href="../../d2/d92/classCCCC__Html__Stream.html#a4ad244ddfbe8c7929b2dbdce4197bbc6" target="_top" xlink:title="CCCC_Html_Stream::Module\l_Summary">
<polygon fill="white" stroke="black" points="177.5,-0.5 177.5,-30.5 329.5,-30.5 329.5,-0.5 177.5,-0.5"/>
<text text-anchor="start" x="185.5" y="-18.5" font-family="Helvetica,sans-Serif" font-size="10.00">CCCC_Html_Stream::Module</text>
<text text-anchor="middle" x="253.5" y="-7.5" font-family="Helvetica,sans-Serif" font-size="10.00">_Summary</text>
</a>
</g>
</g>
<!-- Node1&#45;&gt;Node9 -->
<g id="edge8" class="edge"><title>Node1&#45;&gt;Node9</title>
<path fill="none" stroke="midnightblue" d="M78.2014,-161.874C93.5958,-129.313 125.052,-72.3483 169,-40.5 174.391,-36.593 180.396,-33.2904 186.644,-30.5"/>
<polygon fill="midnightblue" stroke="midnightblue" points="74.9383,-160.593 73.9434,-171.141 81.299,-163.516 74.9383,-160.593"/>
</g>
</g>
</svg>
