<?xml version="1.0" encoding="UTF-8" standalone="no"?>
<!DOCTYPE svg PUBLIC "-//W3C//DTD SVG 1.1//EN"
 "http://www.w3.org/Graphics/SVG/1.1/DTD/svg11.dtd">
<!-- Generated by graphviz version 2.38.0 (20140413.2041)
 -->
<!-- Title: CCCC_Html_Stream::Put_Structural_Details_Cell Pages: 1 -->
<!--zoomable 285 -->
<svg id="main" version="1.1" xmlns="http://www.w3.org/2000/svg" xmlns:xlink="http://www.w3.org/1999/xlink" xml:space="preserve" onload="init(evt)">
<style type="text/css"><![CDATA[
.edge:hover path { stroke: red; }
.edge:hover polygon { stroke: red; fill: red; }
]]></style>
<script type="text/javascript"><![CDATA[
var edges = document.getElementsByTagName('g');
if (edges && edges.length) {
  for (var i=0;i<edges.length;i++) {
    if (edges[i].id.substr(0,4)=='edge') {
      edges[i].setAttribute('class','edge');
    }
  }
}
]]></script>
        <defs>
                <circle id="rim" cx="0" cy="0" r="7"/>
                <circle id="rim2" cx="0" cy="0" r="3.5"/>
                <g id="zoomPlus">
                        <use xlink:href="#rim" fill="#404040">
                                <set attributeName="fill" to="#808080" begin="zoomplus.mouseover" end="zoomplus.mouseout"/>
                        </use>
                        <path d="M-4,0h8M0,-4v8" fill="none" stroke="white" stroke-width="1.5" pointer-events="none"/>
                </g>
                <g id="zoomMin">
                        <use xlink:href="#rim" fill="#404040">
                                <set attributeName="fill" to="#808080" begin="zoomminus.mouseover" end="zoomminus.mouseout"/>
                        </use>
                        <path d="M-4,0h8" fill="none" stroke="white" stroke-width="1.5" pointer-events="none"/>
                </g>
                <g id="dirArrow">
                        <path fill="none" stroke="white" stroke-width="1.5" d="M0,-3.0v7 M-2.5,-0.5L0,-3.0L2.5,-0.5"/>
                </g>
               <g id="resetDef">
                       <use xlink:href="#rim2" fill="#404040">
                               <set attributeName="fill" to="#808080" begin="reset.mouseover" end="reset.mouseout"/>
                       </use>
               </g>
        </defs>

<script type="text/javascript">
var viewWidth = 782;
var viewHeight = 285;
var sectionId = 'dynsection-27';
</script>
<script xlink:href="../../svgpan.js"/>
<svg id="graph" class="graph">
<g id="viewport">
<title>CCCC_Html_Stream::Put_Structural_Details_Cell</title>
<polygon fill="white" stroke="none" points="-4,4 -4,-281 778,-281 778,4 -4,4"/>
<!-- Node1 -->
<g id="node1" class="node"><title>Node1</title>
<polygon fill="#bfbfbf" stroke="black" points="0,-159 0,-189 133,-189 133,-159 0,-159"/>
<text text-anchor="start" x="8" y="-177" font-family="Helvetica,sans-Serif" font-size="10.00">CCCC_Html_Stream::Put</text>
<text text-anchor="middle" x="66.5" y="-166" font-family="Helvetica,sans-Serif" font-size="10.00">_Structural_Details_Cell</text>
</g>
<!-- Node2 -->
<g id="node2" class="node"><title>Node2</title>
<g id="a_node2"><a xlink:href="../../d6/d9f/classCCCC__Module.html#adea7213358d5e1f9119c70cbbb99f287" target="_top" xlink:title="CCCC_Module::name">
<polygon fill="white" stroke="black" points="176.5,-257.5 176.5,-276.5 294.5,-276.5 294.5,-257.5 176.5,-257.5"/>
<text text-anchor="middle" x="235.5" y="-264.5" font-family="Helvetica,sans-Serif" font-size="10.00">CCCC_Module::name</text>
</a>
</g>
</g>
<!-- Node1&#45;&gt;Node2 -->
<g id="edge1" class="edge"><title>Node1&#45;&gt;Node2</title>
<path fill="none" stroke="midnightblue" d="M84.264,-189.095C103.471,-205.673 136.501,-232.054 169,-248 173.664,-250.288 178.653,-252.35 183.719,-254.196"/>
<polygon fill="midnightblue" stroke="midnightblue" points="182.896,-257.612 193.49,-257.483 185.128,-250.978 182.896,-257.612"/>
</g>
<!-- Node3 -->
<g id="node3" class="node"><title>Node3</title>
<g id="a_node3"><a xlink:href="../../d2/d65/classCCCC__UseRelationship.html#a432d79f0f123f7d0790adfdb7c5ed299" target="_top" xlink:title="CCCC_UseRelationship\l::name">
<polygon fill="white" stroke="black" points="170.5,-208 170.5,-238 300.5,-238 300.5,-208 170.5,-208"/>
<text text-anchor="start" x="178.5" y="-226" font-family="Helvetica,sans-Serif" font-size="10.00">CCCC_UseRelationship</text>
<text text-anchor="middle" x="235.5" y="-215" font-family="Helvetica,sans-Serif" font-size="10.00">::name</text>
</a>
</g>
</g>
<!-- Node1&#45;&gt;Node3 -->
<g id="edge2" class="edge"><title>Node1&#45;&gt;Node3</title>
<path fill="none" stroke="midnightblue" d="M118.968,-189.101C136.192,-194.155 155.559,-199.838 173.442,-205.085"/>
<polygon fill="midnightblue" stroke="midnightblue" points="172.621,-208.491 183.202,-207.948 174.592,-201.774 172.621,-208.491"/>
</g>
<!-- Node4 -->
<g id="node4" class="node"><title>Node4</title>
<g id="a_node4"><a xlink:href="../../d2/d65/classCCCC__UseRelationship.html#a936066b692baa5c53aa35ad646b2041c" target="_top" xlink:title="CCCC_UseRelationship\l::is_visible">
<polygon fill="white" stroke="black" points="170.5,-159 170.5,-189 300.5,-189 300.5,-159 170.5,-159"/>
<text text-anchor="start" x="178.5" y="-177" font-family="Helvetica,sans-Serif" font-size="10.00">CCCC_UseRelationship</text>
<text text-anchor="middle" x="235.5" y="-166" font-family="Helvetica,sans-Serif" font-size="10.00">::is_visible</text>
</a>
</g>
</g>
<!-- Node1&#45;&gt;Node4 -->
<g id="edge3" class="edge"><title>Node1&#45;&gt;Node4</title>
<path fill="none" stroke="midnightblue" d="M133.024,-174C141.92,-174 151.103,-174 160.14,-174"/>
<polygon fill="midnightblue" stroke="midnightblue" points="160.26,-177.5 170.26,-174 160.26,-170.5 160.26,-177.5"/>
</g>
<!-- Node5 -->
<g id="node5" class="node"><title>Node5</title>
<g id="a_node5"><a xlink:href="../../d2/d65/classCCCC__UseRelationship.html#a5e08e1d7d70708daef7ac7ef73391b0b" target="_top" xlink:title="CCCC_UseRelationship\l::is_concrete">
<polygon fill="white" stroke="black" points="170.5,-110 170.5,-140 300.5,-140 300.5,-110 170.5,-110"/>
<text text-anchor="start" x="178.5" y="-128" font-family="Helvetica,sans-Serif" font-size="10.00">CCCC_UseRelationship</text>
<text text-anchor="middle" x="235.5" y="-117" font-family="Helvetica,sans-Serif" font-size="10.00">::is_concrete</text>
</a>
</g>
</g>
<!-- Node1&#45;&gt;Node5 -->
<g id="edge4" class="edge"><title>Node1&#45;&gt;Node5</title>
<path fill="none" stroke="midnightblue" d="M118.968,-158.899C136.192,-153.845 155.559,-148.162 173.442,-142.915"/>
<polygon fill="midnightblue" stroke="midnightblue" points="174.592,-146.226 183.202,-140.052 172.621,-139.509 174.592,-146.226"/>
</g>
<!-- Node6 -->
<g id="node6" class="node"><title>Node6</title>
<g id="a_node6"><a xlink:href="../../d2/d92/classCCCC__Html__Stream.html#a4cdc271c6f74c77b19dec08a3c8500db" target="_top" xlink:title="CCCC_Html_Stream::Put\l_Extent_List">
<polygon fill="white" stroke="black" points="169,-61 169,-91 302,-91 302,-61 169,-61"/>
<text text-anchor="start" x="177" y="-79" font-family="Helvetica,sans-Serif" font-size="10.00">CCCC_Html_Stream::Put</text>
<text text-anchor="middle" x="235.5" y="-68" font-family="Helvetica,sans-Serif" font-size="10.00">_Extent_List</text>
</a>
</g>
</g>
<!-- Node1&#45;&gt;Node6 -->
<g id="edge5" class="edge"><title>Node1&#45;&gt;Node6</title>
<path fill="none" stroke="midnightblue" d="M85.6207,-158.74C105.219,-142.785 137.851,-117.777 169,-101 172.903,-98.8978 177.021,-96.8877 181.215,-94.9861"/>
<polygon fill="midnightblue" stroke="midnightblue" points="182.661,-98.1741 190.46,-91.0028 179.891,-91.7454 182.661,-98.1741"/>
</g>
<!-- Node7 -->
<g id="node7" class="node"><title>Node7</title>
<g id="a_node7"><a xlink:href="../../d8/dcf/classCCCC__Table.html#a0d099c7bc984323270cc8c63d5ff8379" target="_top" xlink:title="CCCC_Table::first_item">
<polygon fill="white" stroke="black" points="341.5,-126.5 341.5,-145.5 467.5,-145.5 467.5,-126.5 341.5,-126.5"/>
<text text-anchor="middle" x="404.5" y="-133.5" font-family="Helvetica,sans-Serif" font-size="10.00">CCCC_Table::first_item</text>
</a>
</g>
</g>
<!-- Node6&#45;&gt;Node7 -->
<g id="edge6" class="edge"><title>Node6&#45;&gt;Node7</title>
<path fill="none" stroke="midnightblue" d="M278.641,-91.1405C306.059,-100.991 341.435,-113.701 367.528,-123.076"/>
<polygon fill="midnightblue" stroke="midnightblue" points="366.444,-126.405 377.038,-126.493 368.811,-119.818 366.444,-126.405"/>
</g>
<!-- Node8 -->
<g id="node8" class="node"><title>Node8</title>
<g id="a_node8"><a xlink:href="../../df/d99/classCCCC__Extent.html#aafc68f063b7e7635471d1d0f7d5bca70" target="_top" xlink:title="CCCC_Extent::name">
<polygon fill="white" stroke="black" points="507,-85.5 507,-104.5 620,-104.5 620,-85.5 507,-85.5"/>
<text text-anchor="middle" x="563.5" y="-92.5" font-family="Helvetica,sans-Serif" font-size="10.00">CCCC_Extent::name</text>
</a>
</g>
</g>
<!-- Node6&#45;&gt;Node8 -->
<g id="edge7" class="edge"><title>Node6&#45;&gt;Node8</title>
<path fill="none" stroke="midnightblue" d="M302.079,-79.8221C358.616,-83.1172 439.852,-87.8518 496.509,-91.1539"/>
<polygon fill="midnightblue" stroke="midnightblue" points="496.604,-94.6653 506.791,-91.7531 497.011,-87.6771 496.604,-94.6653"/>
</g>
<!-- Node9 -->
<g id="node9" class="node"><title>Node9</title>
<g id="a_node9"><a xlink:href="../../d2/d92/classCCCC__Html__Stream.html#abc882e68712ce2c2f95ce84821d1c516" target="_top" xlink:title="CCCC_Html_Stream::Put\l_Extent_URL">
<polygon fill="white" stroke="black" points="338,-39 338,-69 471,-69 471,-39 338,-39"/>
<text text-anchor="start" x="346" y="-57" font-family="Helvetica,sans-Serif" font-size="10.00">CCCC_Html_Stream::Put</text>
<text text-anchor="middle" x="404.5" y="-46" font-family="Helvetica,sans-Serif" font-size="10.00">_Extent_URL</text>
</a>
</g>
</g>
<!-- Node6&#45;&gt;Node9 -->
<g id="edge8" class="edge"><title>Node6&#45;&gt;Node9</title>
<path fill="none" stroke="midnightblue" d="M302.024,-67.3682C310.496,-66.252 319.228,-65.1017 327.847,-63.9663"/>
<polygon fill="midnightblue" stroke="midnightblue" points="328.434,-67.4192 337.891,-62.6431 327.52,-60.4792 328.434,-67.4192"/>
</g>
<!-- Node12 -->
<g id="node12" class="node"><title>Node12</title>
<g id="a_node12"><a xlink:href="../../d8/dcf/classCCCC__Table.html#a080274070f7d48b68bd8d3291818d76f" target="_top" xlink:title="CCCC_Table::next_item">
<polygon fill="white" stroke="black" points="340,-0.5 340,-19.5 469,-19.5 469,-0.5 340,-0.5"/>
<text text-anchor="middle" x="404.5" y="-7.5" font-family="Helvetica,sans-Serif" font-size="10.00">CCCC_Table::next_item</text>
</a>
</g>
</g>
<!-- Node6&#45;&gt;Node12 -->
<g id="edge12" class="edge"><title>Node6&#45;&gt;Node12</title>
<path fill="none" stroke="midnightblue" d="M266.193,-60.8002C286.164,-50.9402 313.264,-38.2539 338,-29 344.04,-26.7402 350.476,-24.5819 356.864,-22.5842"/>
<polygon fill="midnightblue" stroke="midnightblue" points="358.239,-25.8253 366.801,-19.5857 356.217,-19.1238 358.239,-25.8253"/>
</g>
<!-- Node9&#45;&gt;Node8 -->
<g id="edge9" class="edge"><title>Node9&#45;&gt;Node8</title>
<path fill="none" stroke="midnightblue" d="M463.07,-69.0341C480.463,-73.5764 499.336,-78.5049 515.918,-82.8353"/>
<polygon fill="midnightblue" stroke="midnightblue" points="515.353,-86.3052 525.913,-85.4455 517.122,-79.5323 515.353,-86.3052"/>
</g>
<!-- Node10 -->
<g id="node10" class="node"><title>Node10</title>
<g id="a_node10"><a xlink:href="../../d6/d85/classCCCC__Record.html#a81bf0541981287180a41e3d801e7a084" target="_top" xlink:title="CCCC_Record::key">
<polygon fill="white" stroke="black" points="509.5,-44.5 509.5,-63.5 617.5,-63.5 617.5,-44.5 509.5,-44.5"/>
<text text-anchor="middle" x="563.5" y="-51.5" font-family="Helvetica,sans-Serif" font-size="10.00">CCCC_Record::key</text>
</a>
</g>
</g>
<!-- Node9&#45;&gt;Node10 -->
<g id="edge10" class="edge"><title>Node9&#45;&gt;Node10</title>
<path fill="none" stroke="midnightblue" d="M471.172,-54C480.452,-54 489.978,-54 499.211,-54"/>
<polygon fill="midnightblue" stroke="midnightblue" points="499.484,-57.5001 509.484,-54 499.484,-50.5001 499.484,-57.5001"/>
</g>
<!-- Node11 -->
<g id="node11" class="node"><title>Node11</title>
<g id="a_node11"><a xlink:href="../../d6/d85/classCCCC__Record.html#a03c15972bea5df4e34930fa4c34e34bd" target="_top" xlink:title="CCCC_Record::name">
<polygon fill="white" stroke="black" points="656,-44.5 656,-63.5 774,-63.5 774,-44.5 656,-44.5"/>
<text text-anchor="middle" x="715" y="-51.5" font-family="Helvetica,sans-Serif" font-size="10.00">CCCC_Record::name</text>
</a>
</g>
</g>
<!-- Node10&#45;&gt;Node11 -->
<g id="edge11" class="edge"><title>Node10&#45;&gt;Node11</title>
<path fill="none" stroke="midnightblue" d="M617.629,-54C626.751,-54 636.343,-54 645.794,-54"/>
<polygon fill="midnightblue" stroke="midnightblue" points="645.965,-57.5001 655.965,-54 645.965,-50.5001 645.965,-57.5001"/>
</g>
</g>
</svg>
        <g id="navigator" transform="translate(0 0)" fill="#404254">
                <rect fill="#f2f5e9" fill-opacity="0.5" stroke="#606060" stroke-width=".5" x="0" y="0" width="60" height="60"/>
                <use id="zoomplus" xlink:href="#zoomPlus" x="17" y="9" onmousedown="handleZoom(evt,'in')"/>
                <use id="zoomminus" xlink:href="#zoomMin" x="42" y="9" onmousedown="handleZoom(evt,'out')"/>
                <use id="reset" xlink:href="#resetDef" x="30" y="36" onmousedown="handleReset()"/>
                <g id="arrowUp" xlink:href="#dirArrow" transform="translate(30 24)" onmousedown="handlePan(0,-1)">
                  <use xlink:href="#rim" fill="#404040">
                        <set attributeName="fill" to="#808080" begin="arrowUp.mouseover" end="arrowUp.mouseout"/>
                  </use>
                  <path fill="none" stroke="white" stroke-width="1.5" d="M0,-3.0v7 M-2.5,-0.5L0,-3.0L2.5,-0.5"/>
                </g>
                <g id="arrowRight" xlink:href="#dirArrow" transform="rotate(90) translate(36 -43)" onmousedown="handlePan(1,0)">
                  <use xlink:href="#rim" fill="#404040">
                        <set attributeName="fill" to="#808080" begin="arrowRight.mouseover" end="arrowRight.mouseout"/>
                  </use>
                  <path fill="none" stroke="white" stroke-width="1.5" d="M0,-3.0v7 M-2.5,-0.5L0,-3.0L2.5,-0.5"/>
                </g>
                <g id="arrowDown" xlink:href="#dirArrow" transform="rotate(180) translate(-30 -48)" onmousedown="handlePan(0,1)">
                  <use xlink:href="#rim" fill="#404040">
                        <set attributeName="fill" to="#808080" begin="arrowDown.mouseover" end="arrowDown.mouseout"/>
                  </use>
                  <path fill="none" stroke="white" stroke-width="1.5" d="M0,-3.0v7 M-2.5,-0.5L0,-3.0L2.5,-0.5"/>
                </g>
                <g id="arrowLeft" xlink:href="#dirArrow" transform="rotate(270) translate(-36 17)" onmousedown="handlePan(-1,0)">
                  <use xlink:href="#rim" fill="#404040">
                        <set attributeName="fill" to="#808080" begin="arrowLeft.mouseover" end="arrowLeft.mouseout"/>
                  </use>
                  <path fill="none" stroke="white" stroke-width="1.5" d="M0,-3.0v7 M-2.5,-0.5L0,-3.0L2.5,-0.5"/>
                </g>
        </g>
        <svg viewBox="0 0 15 15" width="100%" height="30px" preserveAspectRatio="xMaxYMin meet">
         <g id="arrow_out" transform="scale(0.3 0.3)">
          <a xlink:href="classCCCC__Html__Stream_ab815f564805ca3e3fe9cabb5c2df79fa_cgraph_org.svg" target="_base">
           <rect id="button" ry="5" rx="5" y="6" x="6" height="38" width="38"
                fill="#f2f5e9" fill-opacity="0.5" stroke="#606060" stroke-width="1.0"/>
           <path id="arrow"
             d="M 11.500037,31.436501 C 11.940474,20.09759 22.043105,11.32322 32.158766,21.979434 L 37.068811,17.246167 C 37.068811,17.246167 37.088388,32 37.088388,32 L 22.160133,31.978069 C 22.160133,31.978069 26.997745,27.140456 26.997745,27.140456 C 18.528582,18.264221 13.291696,25.230495 11.500037,31.436501 z"
             style="fill:#404040;"/>
          </a>
         </g>
        </svg>
</svg>
