<?xml version="1.0" encoding="UTF-8" standalone="no"?>
<!DOCTYPE svg PUBLIC "-//W3C//DTD SVG 1.1//EN"
 "http://www.w3.org/Graphics/SVG/1.1/DTD/svg11.dtd">
<!-- Generated by graphviz version 2.38.0 (20140413.2041)
 -->
<!-- Title: CCCC_Html_Stream::Module_Detail Pages: 1 -->
<svg width="802pt" height="143pt"
 viewBox="0.00 0.00 802.00 142.50" xmlns="http://www.w3.org/2000/svg" xmlns:xlink="http://www.w3.org/1999/xlink">
<g id="graph0" class="graph" transform="scale(1 1) rotate(0) translate(4 138.5)">
<title>CCCC_Html_Stream::Module_Detail</title>
<polygon fill="white" stroke="none" points="-4,4 -4,-138.5 798,-138.5 798,4 -4,4"/>
<!-- Node1 -->
<g id="node1" class="node"><title>Node1</title>
<polygon fill="#bfbfbf" stroke="black" points="0,-44.5 0,-74.5 152,-74.5 152,-44.5 0,-44.5"/>
<text text-anchor="start" x="8" y="-62.5" font-family="Helvetica,sans-Serif" font-size="10.00">CCCC_Html_Stream::Module</text>
<text text-anchor="middle" x="76" y="-51.5" font-family="Helvetica,sans-Serif" font-size="10.00">_Detail</text>
</g>
<!-- Node2 -->
<g id="node2" class="node"><title>Node2</title>
<g id="a_node2"><a xlink:href="../../d2/d92/classCCCC__Html__Stream.html#a9da417354e4d12217f7604be680f3398" target="_top" xlink:title="CCCC_Html_Stream::Put\l_Extent_Cell">
<polygon fill="white" stroke="black" points="188.5,-88.5 188.5,-118.5 321.5,-118.5 321.5,-88.5 188.5,-88.5"/>
<text text-anchor="start" x="196.5" y="-106.5" font-family="Helvetica,sans-Serif" font-size="10.00">CCCC_Html_Stream::Put</text>
<text text-anchor="middle" x="255" y="-95.5" font-family="Helvetica,sans-Serif" font-size="10.00">_Extent_Cell</text>
</a>
</g>
</g>
<!-- Node1&#45;&gt;Node2 -->
<g id="edge1" class="edge"><title>Node1&#45;&gt;Node2</title>
<path fill="none" stroke="midnightblue" d="M137.418,-74.5192C152.288,-78.2156 168.337,-82.2053 183.632,-86.0074"/>
<polygon fill="midnightblue" stroke="midnightblue" points="183.005,-89.4579 193.554,-88.4738 184.693,-82.6646 183.005,-89.4579"/>
</g>
<!-- Node7 -->
<g id="node7" class="node"><title>Node7</title>
<g id="a_node7"><a xlink:href="../../df/d99/classCCCC__Extent.html#aa6094d7370a45e8e7237fd25289e99bb" target="_top" xlink:title="CCCC_Extent::get_count">
<polygon fill="white" stroke="black" points="188,-50 188,-69 322,-69 322,-50 188,-50"/>
<text text-anchor="middle" x="255" y="-57" font-family="Helvetica,sans-Serif" font-size="10.00">CCCC_Extent::get_count</text>
</a>
</g>
</g>
<!-- Node1&#45;&gt;Node7 -->
<g id="edge7" class="edge"><title>Node1&#45;&gt;Node7</title>
<path fill="none" stroke="midnightblue" d="M152.064,-59.5C160.504,-59.5 169.111,-59.5 177.568,-59.5"/>
<polygon fill="midnightblue" stroke="midnightblue" points="177.789,-63.0001 187.789,-59.5 177.789,-56.0001 177.789,-63.0001"/>
</g>
<!-- Node8 -->
<g id="node8" class="node"><title>Node8</title>
<g id="a_node8"><a xlink:href="../../d2/d92/classCCCC__Html__Stream.html#aba7d2e72e94a320608c67b73aebcd728" target="_top" xlink:title="CCCC_Html_Stream::Put\l_Metric_Cell">
<polygon fill="white" stroke="black" points="188.5,-0.5 188.5,-30.5 321.5,-30.5 321.5,-0.5 188.5,-0.5"/>
<text text-anchor="start" x="196.5" y="-18.5" font-family="Helvetica,sans-Serif" font-size="10.00">CCCC_Html_Stream::Put</text>
<text text-anchor="middle" x="255" y="-7.5" font-family="Helvetica,sans-Serif" font-size="10.00">_Metric_Cell</text>
</a>
</g>
</g>
<!-- Node1&#45;&gt;Node8 -->
<g id="edge8" class="edge"><title>Node1&#45;&gt;Node8</title>
<path fill="none" stroke="midnightblue" d="M137.418,-44.4808C152.288,-40.7844 168.337,-36.7947 183.632,-32.9926"/>
<polygon fill="midnightblue" stroke="midnightblue" points="184.693,-36.3354 193.554,-30.5262 183.005,-29.5421 184.693,-36.3354"/>
</g>
<!-- Node3 -->
<g id="node3" class="node"><title>Node3</title>
<g id="a_node3"><a xlink:href="../../df/d99/classCCCC__Extent.html#aafc68f063b7e7635471d1d0f7d5bca70" target="_top" xlink:title="CCCC_Extent::name">
<polygon fill="white" stroke="black" points="527,-115 527,-134 640,-134 640,-115 527,-115"/>
<text text-anchor="middle" x="583.5" y="-122" font-family="Helvetica,sans-Serif" font-size="10.00">CCCC_Extent::name</text>
</a>
</g>
</g>
<!-- Node2&#45;&gt;Node3 -->
<g id="edge2" class="edge"><title>Node2&#45;&gt;Node3</title>
<path fill="none" stroke="midnightblue" d="M321.679,-107.724C378.391,-111.372 459.916,-116.616 516.671,-120.266"/>
<polygon fill="midnightblue" stroke="midnightblue" points="516.765,-123.779 526.969,-120.928 517.214,-116.794 516.765,-123.779"/>
</g>
<!-- Node4 -->
<g id="node4" class="node"><title>Node4</title>
<g id="a_node4"><a xlink:href="../../d2/d92/classCCCC__Html__Stream.html#abc882e68712ce2c2f95ce84821d1c516" target="_top" xlink:title="CCCC_Html_Stream::Put\l_Extent_URL">
<polygon fill="white" stroke="black" points="358,-68.5 358,-98.5 491,-98.5 491,-68.5 358,-68.5"/>
<text text-anchor="start" x="366" y="-86.5" font-family="Helvetica,sans-Serif" font-size="10.00">CCCC_Html_Stream::Put</text>
<text text-anchor="middle" x="424.5" y="-75.5" font-family="Helvetica,sans-Serif" font-size="10.00">_Extent_URL</text>
</a>
</g>
</g>
<!-- Node2&#45;&gt;Node4 -->
<g id="edge3" class="edge"><title>Node2&#45;&gt;Node4</title>
<path fill="none" stroke="midnightblue" d="M321.72,-95.6529C330.283,-94.6303 339.111,-93.5763 347.822,-92.5362"/>
<polygon fill="midnightblue" stroke="midnightblue" points="348.455,-95.9855 357.97,-91.3245 347.625,-89.0349 348.455,-95.9855"/>
</g>
<!-- Node4&#45;&gt;Node3 -->
<g id="edge4" class="edge"><title>Node4&#45;&gt;Node3</title>
<path fill="none" stroke="midnightblue" d="M483.07,-98.5341C500.463,-103.076 519.336,-108.005 535.918,-112.335"/>
<polygon fill="midnightblue" stroke="midnightblue" points="535.353,-115.805 545.913,-114.946 537.122,-109.032 535.353,-115.805"/>
</g>
<!-- Node5 -->
<g id="node5" class="node"><title>Node5</title>
<g id="a_node5"><a xlink:href="../../d6/d85/classCCCC__Record.html#a81bf0541981287180a41e3d801e7a084" target="_top" xlink:title="CCCC_Record::key">
<polygon fill="white" stroke="black" points="529.5,-74 529.5,-93 637.5,-93 637.5,-74 529.5,-74"/>
<text text-anchor="middle" x="583.5" y="-81" font-family="Helvetica,sans-Serif" font-size="10.00">CCCC_Record::key</text>
</a>
</g>
</g>
<!-- Node4&#45;&gt;Node5 -->
<g id="edge5" class="edge"><title>Node4&#45;&gt;Node5</title>
<path fill="none" stroke="midnightblue" d="M491.172,-83.5C500.452,-83.5 509.978,-83.5 519.211,-83.5"/>
<polygon fill="midnightblue" stroke="midnightblue" points="519.484,-87.0001 529.484,-83.5 519.484,-80.0001 519.484,-87.0001"/>
</g>
<!-- Node6 -->
<g id="node6" class="node"><title>Node6</title>
<g id="a_node6"><a xlink:href="../../d6/d85/classCCCC__Record.html#a03c15972bea5df4e34930fa4c34e34bd" target="_top" xlink:title="CCCC_Record::name">
<polygon fill="white" stroke="black" points="676,-74 676,-93 794,-93 794,-74 676,-74"/>
<text text-anchor="middle" x="735" y="-81" font-family="Helvetica,sans-Serif" font-size="10.00">CCCC_Record::name</text>
</a>
</g>
</g>
<!-- Node5&#45;&gt;Node6 -->
<g id="edge6" class="edge"><title>Node5&#45;&gt;Node6</title>
<path fill="none" stroke="midnightblue" d="M637.629,-83.5C646.751,-83.5 656.343,-83.5 665.794,-83.5"/>
<polygon fill="midnightblue" stroke="midnightblue" points="665.965,-87.0001 675.965,-83.5 665.965,-80.0001 665.965,-87.0001"/>
</g>
<!-- Node9 -->
<g id="node9" class="node"><title>Node9</title>
<g id="a_node9"><a xlink:href="../../dd/d72/classCCCC__Metric.html#a4388127897cc2c1de762a9689b913c0d" target="_top" xlink:title="CCCC_Metric::emphasis\l_level">
<polygon fill="white" stroke="black" points="359,-0.5 359,-30.5 490,-30.5 490,-0.5 359,-0.5"/>
<text text-anchor="start" x="367" y="-18.5" font-family="Helvetica,sans-Serif" font-size="10.00">CCCC_Metric::emphasis</text>
<text text-anchor="middle" x="424.5" y="-7.5" font-family="Helvetica,sans-Serif" font-size="10.00">_level</text>
</a>
</g>
</g>
<!-- Node8&#45;&gt;Node9 -->
<g id="edge9" class="edge"><title>Node8&#45;&gt;Node9</title>
<path fill="none" stroke="midnightblue" d="M321.72,-15.5C330.576,-15.5 339.715,-15.5 348.715,-15.5"/>
<polygon fill="midnightblue" stroke="midnightblue" points="348.794,-19.0001 358.793,-15.5 348.793,-12.0001 348.794,-19.0001"/>
</g>
</g>
</svg>
