<?xml version="1.0" encoding="UTF-8" standalone="no"?>
<!DOCTYPE svg PUBLIC "-//W3C//DTD SVG 1.1//EN"
 "http://www.w3.org/Graphics/SVG/1.1/DTD/svg11.dtd">
<!-- Generated by graphviz version 2.38.0 (20140413.2041)
 -->
<!-- Title: CCCC_Html_Stream::Other_Extents Pages: 1 -->
<svg width="964pt" height="428pt"
 viewBox="0.00 0.00 964.00 427.50" xmlns="http://www.w3.org/2000/svg" xmlns:xlink="http://www.w3.org/1999/xlink">
<g id="graph0" class="graph" transform="scale(1 1) rotate(0) translate(4 423.5)">
<title>CCCC_Html_Stream::Other_Extents</title>
<polygon fill="white" stroke="none" points="-4,4 -4,-423.5 960,-423.5 960,4 -4,4"/>
<!-- Node1 -->
<g id="node1" class="node"><title>Node1</title>
<polygon fill="#bfbfbf" stroke="black" points="0,-198 0,-228 145,-228 145,-198 0,-198"/>
<text text-anchor="start" x="8" y="-216" font-family="Helvetica,sans-Serif" font-size="10.00">CCCC_Html_Stream::Other</text>
<text text-anchor="middle" x="72.5" y="-205" font-family="Helvetica,sans-Serif" font-size="10.00">_Extents</text>
</g>
<!-- Node2 -->
<g id="node2" class="node"><title>Node2</title>
<g id="a_node2"><a xlink:href="../../d2/d92/classCCCC__Html__Stream.html#ae812eac814f9d7b99e46afad444933bf" target="_top" xlink:title="CCCC_Html_Stream::Put\l_Section_Heading">
<polygon fill="white" stroke="black" points="181.5,-389 181.5,-419 314.5,-419 314.5,-389 181.5,-389"/>
<text text-anchor="start" x="189.5" y="-407" font-family="Helvetica,sans-Serif" font-size="10.00">CCCC_Html_Stream::Put</text>
<text text-anchor="middle" x="248" y="-396" font-family="Helvetica,sans-Serif" font-size="10.00">_Section_Heading</text>
</a>
</g>
</g>
<!-- Node1&#45;&gt;Node2 -->
<g id="edge1" class="edge"><title>Node1&#45;&gt;Node2</title>
<path fill="none" stroke="midnightblue" d="M79.3382,-228.272C92.5183,-260.797 127.649,-337.401 181,-380 182.742,-381.391 184.571,-382.705 186.467,-383.947"/>
<polygon fill="midnightblue" stroke="midnightblue" points="184.727,-386.984 195.139,-388.941 188.22,-380.918 184.727,-386.984"/>
</g>
<!-- Node3 -->
<g id="node3" class="node"><title>Node3</title>
<g id="a_node3"><a xlink:href="../../d2/d92/classCCCC__Html__Stream.html#ac9f9ceabc0db6e045eb2d89c8961d8f8" target="_top" xlink:title="CCCC_Html_Stream::Put\l_Header_Cell">
<polygon fill="white" stroke="black" points="181.5,-340 181.5,-370 314.5,-370 314.5,-340 181.5,-340"/>
<text text-anchor="start" x="189.5" y="-358" font-family="Helvetica,sans-Serif" font-size="10.00">CCCC_Html_Stream::Put</text>
<text text-anchor="middle" x="248" y="-347" font-family="Helvetica,sans-Serif" font-size="10.00">_Header_Cell</text>
</a>
</g>
</g>
<!-- Node1&#45;&gt;Node3 -->
<g id="edge2" class="edge"><title>Node1&#45;&gt;Node3</title>
<path fill="none" stroke="midnightblue" d="M83.6857,-228.01C101.013,-252.512 138.507,-301.246 181,-330 183.878,-331.947 186.928,-333.77 190.077,-335.472"/>
<polygon fill="midnightblue" stroke="midnightblue" points="188.636,-338.664 199.152,-339.951 191.734,-332.386 188.636,-338.664"/>
</g>
<!-- Node4 -->
<g id="node4" class="node"><title>Node4</title>
<g id="a_node4"><a xlink:href="../../d8/dcf/classCCCC__Table.html#a5c0ef4a0415179c04ce1cbd285994f91" target="_top" xlink:title="CCCC_Table::records">
<polygon fill="white" stroke="black" points="188.5,-301.5 188.5,-320.5 307.5,-320.5 307.5,-301.5 188.5,-301.5"/>
<text text-anchor="middle" x="248" y="-308.5" font-family="Helvetica,sans-Serif" font-size="10.00">CCCC_Table::records</text>
</a>
</g>
</g>
<!-- Node1&#45;&gt;Node4 -->
<g id="edge3" class="edge"><title>Node1&#45;&gt;Node4</title>
<path fill="none" stroke="midnightblue" d="M92.3743,-228.207C113.141,-244.396 147.969,-269.979 181,-287 188.953,-291.098 197.77,-294.819 206.302,-298.042"/>
<polygon fill="midnightblue" stroke="midnightblue" points="205.158,-301.35 215.752,-301.463 207.54,-294.768 205.158,-301.35"/>
</g>
<!-- Node5 -->
<g id="node5" class="node"><title>Node5</title>
<g id="a_node5"><a xlink:href="../../d8/dcf/classCCCC__Table.html#a0d099c7bc984323270cc8c63d5ff8379" target="_top" xlink:title="CCCC_Table::first_item">
<polygon fill="white" stroke="black" points="523.5,-225.5 523.5,-244.5 649.5,-244.5 649.5,-225.5 523.5,-225.5"/>
<text text-anchor="middle" x="586.5" y="-232.5" font-family="Helvetica,sans-Serif" font-size="10.00">CCCC_Table::first_item</text>
</a>
</g>
</g>
<!-- Node1&#45;&gt;Node5 -->
<g id="edge4" class="edge"><title>Node1&#45;&gt;Node5</title>
<path fill="none" stroke="midnightblue" d="M145.231,-216.082C242.649,-220.268 415.802,-227.708 513.407,-231.902"/>
<polygon fill="midnightblue" stroke="midnightblue" points="513.338,-235.402 523.479,-232.335 513.639,-228.409 513.338,-235.402"/>
</g>
<!-- Node6 -->
<g id="node6" class="node"><title>Node6</title>
<g id="a_node6"><a xlink:href="../../d2/d92/classCCCC__Html__Stream.html#a9da417354e4d12217f7604be680f3398" target="_top" xlink:title="CCCC_Html_Stream::Put\l_Extent_Cell">
<polygon fill="white" stroke="black" points="351,-127 351,-157 484,-157 484,-127 351,-127"/>
<text text-anchor="start" x="359" y="-145" font-family="Helvetica,sans-Serif" font-size="10.00">CCCC_Html_Stream::Put</text>
<text text-anchor="middle" x="417.5" y="-134" font-family="Helvetica,sans-Serif" font-size="10.00">_Extent_Cell</text>
</a>
</g>
</g>
<!-- Node1&#45;&gt;Node6 -->
<g id="edge5" class="edge"><title>Node1&#45;&gt;Node6</title>
<path fill="none" stroke="midnightblue" d="M101.378,-197.937C122.586,-187.198 152.828,-173.4 181,-166 233.307,-152.261 294.066,-146.305 340.766,-143.761"/>
<polygon fill="midnightblue" stroke="midnightblue" points="340.999,-147.254 350.81,-143.254 340.647,-140.262 340.999,-147.254"/>
</g>
<!-- Node7 -->
<g id="node7" class="node"><title>Node7</title>
<g id="a_node7"><a xlink:href="../../df/d99/classCCCC__Extent.html#aafc68f063b7e7635471d1d0f7d5bca70" target="_top" xlink:title="CCCC_Extent::name">
<polygon fill="white" stroke="black" points="689,-184.5 689,-203.5 802,-203.5 802,-184.5 689,-184.5"/>
<text text-anchor="middle" x="745.5" y="-191.5" font-family="Helvetica,sans-Serif" font-size="10.00">CCCC_Extent::name</text>
</a>
</g>
</g>
<!-- Node1&#45;&gt;Node7 -->
<g id="edge17" class="edge"><title>Node1&#45;&gt;Node7</title>
<path fill="none" stroke="midnightblue" d="M122.862,-228.023C224.518,-256.482 463.582,-310.566 653,-254 681.469,-245.498 709.306,-224.989 726.656,-210.317"/>
<polygon fill="midnightblue" stroke="midnightblue" points="729.051,-212.872 734.288,-203.662 724.45,-207.596 729.051,-212.872"/>
</g>
<!-- Node11 -->
<g id="node11" class="node"><title>Node11</title>
<g id="a_node11"><a xlink:href="../../d2/d92/classCCCC__Html__Stream.html#a11a4dc19838cdbfe33b6d2e7f8b5823a" target="_top" xlink:title="CCCC_Html_Stream::Put\l_Label_Cell">
<polygon fill="white" stroke="black" points="181.5,-176 181.5,-206 314.5,-206 314.5,-176 181.5,-176"/>
<text text-anchor="start" x="189.5" y="-194" font-family="Helvetica,sans-Serif" font-size="10.00">CCCC_Html_Stream::Put</text>
<text text-anchor="middle" x="248" y="-183" font-family="Helvetica,sans-Serif" font-size="10.00">_Label_Cell</text>
</a>
</g>
</g>
<!-- Node1&#45;&gt;Node11 -->
<g id="edge11" class="edge"><title>Node1&#45;&gt;Node11</title>
<path fill="none" stroke="midnightblue" d="M145.071,-203.925C153.726,-202.827 162.588,-201.703 171.3,-200.599"/>
<polygon fill="midnightblue" stroke="midnightblue" points="171.956,-204.044 181.436,-199.314 171.075,-197.099 171.956,-204.044"/>
</g>
<!-- Node13 -->
<g id="node13" class="node"><title>Node13</title>
<g id="a_node13"><a xlink:href="../../d8/dcf/classCCCC__Table.html#a080274070f7d48b68bd8d3291818d76f" target="_top" xlink:title="CCCC_Table::next_item">
<polygon fill="white" stroke="black" points="522,-99.5 522,-118.5 651,-118.5 651,-99.5 522,-99.5"/>
<text text-anchor="middle" x="586.5" y="-106.5" font-family="Helvetica,sans-Serif" font-size="10.00">CCCC_Table::next_item</text>
</a>
</g>
</g>
<!-- Node1&#45;&gt;Node13 -->
<g id="edge21" class="edge"><title>Node1&#45;&gt;Node13</title>
<path fill="none" stroke="midnightblue" d="M91.1571,-197.756C111.412,-181.168 146.316,-155.248 181,-142 290.469,-100.188 428.426,-98.7751 511.653,-102.917"/>
<polygon fill="midnightblue" stroke="midnightblue" points="511.601,-106.419 521.775,-103.462 511.978,-99.4295 511.601,-106.419"/>
</g>
<!-- Node14 -->
<g id="node14" class="node"><title>Node14</title>
<g id="a_node14"><a xlink:href="../../d2/d92/classCCCC__Html__Stream.html#aba7d2e72e94a320608c67b73aebcd728" target="_top" xlink:title="CCCC_Html_Stream::Put\l_Metric_Cell">
<polygon fill="white" stroke="black" points="181.5,-39 181.5,-69 314.5,-69 314.5,-39 181.5,-39"/>
<text text-anchor="start" x="189.5" y="-57" font-family="Helvetica,sans-Serif" font-size="10.00">CCCC_Html_Stream::Put</text>
<text text-anchor="middle" x="248" y="-46" font-family="Helvetica,sans-Serif" font-size="10.00">_Metric_Cell</text>
</a>
</g>
</g>
<!-- Node1&#45;&gt;Node14 -->
<g id="edge18" class="edge"><title>Node1&#45;&gt;Node14</title>
<path fill="none" stroke="midnightblue" d="M82.7316,-197.981C99.4699,-171.798 137.181,-117.404 181,-84 185.992,-80.1942 191.545,-76.7327 197.249,-73.6257"/>
<polygon fill="midnightblue" stroke="midnightblue" points="198.95,-76.6871 206.28,-69.0365 195.779,-70.4466 198.95,-76.6871"/>
</g>
<!-- Node16 -->
<g id="node16" class="node"><title>Node16</title>
<g id="a_node16"><a xlink:href="../../df/d99/classCCCC__Extent.html#aa6094d7370a45e8e7237fd25289e99bb" target="_top" xlink:title="CCCC_Extent::get_count">
<polygon fill="white" stroke="black" points="181,-0.5 181,-19.5 315,-19.5 315,-0.5 181,-0.5"/>
<text text-anchor="middle" x="248" y="-7.5" font-family="Helvetica,sans-Serif" font-size="10.00">CCCC_Extent::get_count</text>
</a>
</g>
</g>
<!-- Node1&#45;&gt;Node16 -->
<g id="edge20" class="edge"><title>Node1&#45;&gt;Node16</title>
<path fill="none" stroke="midnightblue" d="M78.0418,-197.757C89.3467,-162.486 122.161,-74.776 181,-29 183.338,-27.181 185.844,-25.5362 188.463,-24.0487"/>
<polygon fill="midnightblue" stroke="midnightblue" points="190.243,-27.0759 197.724,-19.5739 187.198,-20.773 190.243,-27.0759"/>
</g>
<!-- Node6&#45;&gt;Node7 -->
<g id="edge6" class="edge"><title>Node6&#45;&gt;Node7</title>
<path fill="none" stroke="midnightblue" d="M440.501,-126.976C484.494,-98.9809 584.917,-45.5351 653,-90 686.324,-111.764 660.35,-144.371 689,-172 692.064,-174.954 695.572,-177.527 699.305,-179.764"/>
<polygon fill="midnightblue" stroke="midnightblue" points="697.821,-182.937 708.314,-184.398 701.022,-176.712 697.821,-182.937"/>
</g>
<!-- Node8 -->
<g id="node8" class="node"><title>Node8</title>
<g id="a_node8"><a xlink:href="../../d2/d92/classCCCC__Html__Stream.html#abc882e68712ce2c2f95ce84821d1c516" target="_top" xlink:title="CCCC_Html_Stream::Put\l_Extent_URL">
<polygon fill="white" stroke="black" points="520,-138 520,-168 653,-168 653,-138 520,-138"/>
<text text-anchor="start" x="528" y="-156" font-family="Helvetica,sans-Serif" font-size="10.00">CCCC_Html_Stream::Put</text>
<text text-anchor="middle" x="586.5" y="-145" font-family="Helvetica,sans-Serif" font-size="10.00">_Extent_URL</text>
</a>
</g>
</g>
<!-- Node6&#45;&gt;Node8 -->
<g id="edge7" class="edge"><title>Node6&#45;&gt;Node8</title>
<path fill="none" stroke="midnightblue" d="M484.024,-146.316C492.496,-146.874 501.228,-147.449 509.847,-148.017"/>
<polygon fill="midnightblue" stroke="midnightblue" points="509.683,-151.514 519.891,-148.678 510.143,-144.529 509.683,-151.514"/>
</g>
<!-- Node8&#45;&gt;Node7 -->
<g id="edge8" class="edge"><title>Node8&#45;&gt;Node7</title>
<path fill="none" stroke="midnightblue" d="M645.07,-168.034C662.463,-172.576 681.336,-177.505 697.918,-181.835"/>
<polygon fill="midnightblue" stroke="midnightblue" points="697.353,-185.305 707.913,-184.446 699.122,-178.532 697.353,-185.305"/>
</g>
<!-- Node9 -->
<g id="node9" class="node"><title>Node9</title>
<g id="a_node9"><a xlink:href="../../d6/d85/classCCCC__Record.html#a81bf0541981287180a41e3d801e7a084" target="_top" xlink:title="CCCC_Record::key">
<polygon fill="white" stroke="black" points="691.5,-143.5 691.5,-162.5 799.5,-162.5 799.5,-143.5 691.5,-143.5"/>
<text text-anchor="middle" x="745.5" y="-150.5" font-family="Helvetica,sans-Serif" font-size="10.00">CCCC_Record::key</text>
</a>
</g>
</g>
<!-- Node8&#45;&gt;Node9 -->
<g id="edge9" class="edge"><title>Node8&#45;&gt;Node9</title>
<path fill="none" stroke="midnightblue" d="M653.172,-153C662.452,-153 671.978,-153 681.211,-153"/>
<polygon fill="midnightblue" stroke="midnightblue" points="681.484,-156.5 691.484,-153 681.484,-149.5 681.484,-156.5"/>
</g>
<!-- Node10 -->
<g id="node10" class="node"><title>Node10</title>
<g id="a_node10"><a xlink:href="../../d6/d85/classCCCC__Record.html#a03c15972bea5df4e34930fa4c34e34bd" target="_top" xlink:title="CCCC_Record::name">
<polygon fill="white" stroke="black" points="838,-143.5 838,-162.5 956,-162.5 956,-143.5 838,-143.5"/>
<text text-anchor="middle" x="897" y="-150.5" font-family="Helvetica,sans-Serif" font-size="10.00">CCCC_Record::name</text>
</a>
</g>
</g>
<!-- Node9&#45;&gt;Node10 -->
<g id="edge10" class="edge"><title>Node9&#45;&gt;Node10</title>
<path fill="none" stroke="midnightblue" d="M799.629,-153C808.751,-153 818.343,-153 827.794,-153"/>
<polygon fill="midnightblue" stroke="midnightblue" points="827.965,-156.5 837.965,-153 827.965,-149.5 827.965,-156.5"/>
</g>
<!-- Node12 -->
<g id="node12" class="node"><title>Node12</title>
<g id="a_node12"><a xlink:href="../../d2/d92/classCCCC__Html__Stream.html#a4cdc271c6f74c77b19dec08a3c8500db" target="_top" xlink:title="CCCC_Html_Stream::Put\l_Extent_List">
<polygon fill="white" stroke="black" points="351,-176 351,-206 484,-206 484,-176 351,-176"/>
<text text-anchor="start" x="359" y="-194" font-family="Helvetica,sans-Serif" font-size="10.00">CCCC_Html_Stream::Put</text>
<text text-anchor="middle" x="417.5" y="-183" font-family="Helvetica,sans-Serif" font-size="10.00">_Extent_List</text>
</a>
</g>
</g>
<!-- Node11&#45;&gt;Node12 -->
<g id="edge12" class="edge"><title>Node11&#45;&gt;Node12</title>
<path fill="none" stroke="midnightblue" d="M314.72,-191C323.283,-191 332.111,-191 340.822,-191"/>
<polygon fill="midnightblue" stroke="midnightblue" points="340.97,-194.5 350.97,-191 340.97,-187.5 340.97,-194.5"/>
</g>
<!-- Node12&#45;&gt;Node5 -->
<g id="edge13" class="edge"><title>Node12&#45;&gt;Node5</title>
<path fill="none" stroke="midnightblue" d="M475.505,-206.019C496.36,-211.514 519.675,-217.657 539.453,-222.868"/>
<polygon fill="midnightblue" stroke="midnightblue" points="538.584,-226.258 549.146,-225.422 540.368,-219.489 538.584,-226.258"/>
</g>
<!-- Node12&#45;&gt;Node7 -->
<g id="edge14" class="edge"><title>Node12&#45;&gt;Node7</title>
<path fill="none" stroke="midnightblue" d="M484.079,-191.603C540.616,-192.124 621.852,-192.871 678.509,-193.393"/>
<polygon fill="midnightblue" stroke="midnightblue" points="678.759,-196.895 688.791,-193.487 678.823,-189.895 678.759,-196.895"/>
</g>
<!-- Node12&#45;&gt;Node8 -->
<g id="edge15" class="edge"><title>Node12&#45;&gt;Node8</title>
<path fill="none" stroke="midnightblue" d="M484.024,-176.09C492.588,-174.142 501.418,-172.133 510.128,-170.15"/>
<polygon fill="midnightblue" stroke="midnightblue" points="510.917,-173.56 519.891,-167.929 509.364,-166.735 510.917,-173.56"/>
</g>
<!-- Node12&#45;&gt;Node13 -->
<g id="edge16" class="edge"><title>Node12&#45;&gt;Node13</title>
<path fill="none" stroke="midnightblue" d="M465.587,-175.994C472.007,-173.109 478.331,-169.784 484,-166 503.351,-153.085 500.135,-140.108 520,-128 523.428,-125.911 527.097,-124.041 530.883,-122.371"/>
<polygon fill="midnightblue" stroke="midnightblue" points="532.432,-125.523 540.464,-118.614 529.877,-119.006 532.432,-125.523"/>
</g>
<!-- Node15 -->
<g id="node15" class="node"><title>Node15</title>
<g id="a_node15"><a xlink:href="../../dd/d72/classCCCC__Metric.html#a4388127897cc2c1de762a9689b913c0d" target="_top" xlink:title="CCCC_Metric::emphasis\l_level">
<polygon fill="white" stroke="black" points="352,-39 352,-69 483,-69 483,-39 352,-39"/>
<text text-anchor="start" x="360" y="-57" font-family="Helvetica,sans-Serif" font-size="10.00">CCCC_Metric::emphasis</text>
<text text-anchor="middle" x="417.5" y="-46" font-family="Helvetica,sans-Serif" font-size="10.00">_level</text>
</a>
</g>
</g>
<!-- Node14&#45;&gt;Node15 -->
<g id="edge19" class="edge"><title>Node14&#45;&gt;Node15</title>
<path fill="none" stroke="midnightblue" d="M314.72,-54C323.576,-54 332.715,-54 341.715,-54"/>
<polygon fill="midnightblue" stroke="midnightblue" points="341.794,-57.5001 351.793,-54 341.793,-50.5001 341.794,-57.5001"/>
</g>
</g>
</svg>
