<?xml version="1.0" encoding="UTF-8" standalone="no"?>
<!DOCTYPE svg PUBLIC "-//W3C//DTD SVG 1.1//EN"
 "http://www.w3.org/Graphics/SVG/1.1/DTD/svg11.dtd">
<!-- Generated by graphviz version 2.38.0 (20140413.2041)
 -->
<!-- Title: CCCC_Html_Stream::Put_Extent_List Pages: 1 -->
<svg width="613pt" height="154pt"
 viewBox="0.00 0.00 613.00 154.00" xmlns="http://www.w3.org/2000/svg" xmlns:xlink="http://www.w3.org/1999/xlink">
<g id="graph0" class="graph" transform="scale(1 1) rotate(0) translate(4 150)">
<title>CCCC_Html_Stream::Put_Extent_List</title>
<polygon fill="white" stroke="none" points="-4,4 -4,-150 609,-150 609,4 -4,4"/>
<!-- Node1 -->
<g id="node1" class="node"><title>Node1</title>
<polygon fill="#bfbfbf" stroke="black" points="0,-61 0,-91 133,-91 133,-61 0,-61"/>
<text text-anchor="start" x="8" y="-79" font-family="Helvetica,sans-Serif" font-size="10.00">CCCC_Html_Stream::Put</text>
<text text-anchor="middle" x="66.5" y="-68" font-family="Helvetica,sans-Serif" font-size="10.00">_Extent_List</text>
</g>
<!-- Node2 -->
<g id="node2" class="node"><title>Node2</title>
<g id="a_node2"><a xlink:href="../../d8/dcf/classCCCC__Table.html#a0d099c7bc984323270cc8c63d5ff8379" target="_top" xlink:title="CCCC_Table::first_item">
<polygon fill="white" stroke="black" points="172.5,-126.5 172.5,-145.5 298.5,-145.5 298.5,-126.5 172.5,-126.5"/>
<text text-anchor="middle" x="235.5" y="-133.5" font-family="Helvetica,sans-Serif" font-size="10.00">CCCC_Table::first_item</text>
</a>
</g>
</g>
<!-- Node1&#45;&gt;Node2 -->
<g id="edge1" class="edge"><title>Node1&#45;&gt;Node2</title>
<path fill="none" stroke="midnightblue" d="M109.641,-91.1405C137.059,-100.991 172.435,-113.701 198.528,-123.076"/>
<polygon fill="midnightblue" stroke="midnightblue" points="197.444,-126.405 208.038,-126.493 199.811,-119.818 197.444,-126.405"/>
</g>
<!-- Node3 -->
<g id="node3" class="node"><title>Node3</title>
<g id="a_node3"><a xlink:href="../../df/d99/classCCCC__Extent.html#aafc68f063b7e7635471d1d0f7d5bca70" target="_top" xlink:title="CCCC_Extent::name">
<polygon fill="white" stroke="black" points="338,-85.5 338,-104.5 451,-104.5 451,-85.5 338,-85.5"/>
<text text-anchor="middle" x="394.5" y="-92.5" font-family="Helvetica,sans-Serif" font-size="10.00">CCCC_Extent::name</text>
</a>
</g>
</g>
<!-- Node1&#45;&gt;Node3 -->
<g id="edge2" class="edge"><title>Node1&#45;&gt;Node3</title>
<path fill="none" stroke="midnightblue" d="M133.079,-79.8221C189.616,-83.1172 270.852,-87.8518 327.509,-91.1539"/>
<polygon fill="midnightblue" stroke="midnightblue" points="327.604,-94.6653 337.791,-91.7531 328.011,-87.6771 327.604,-94.6653"/>
</g>
<!-- Node4 -->
<g id="node4" class="node"><title>Node4</title>
<g id="a_node4"><a xlink:href="../../d2/d92/classCCCC__Html__Stream.html#abc882e68712ce2c2f95ce84821d1c516" target="_top" xlink:title="CCCC_Html_Stream::Put\l_Extent_URL">
<polygon fill="white" stroke="black" points="169,-39 169,-69 302,-69 302,-39 169,-39"/>
<text text-anchor="start" x="177" y="-57" font-family="Helvetica,sans-Serif" font-size="10.00">CCCC_Html_Stream::Put</text>
<text text-anchor="middle" x="235.5" y="-46" font-family="Helvetica,sans-Serif" font-size="10.00">_Extent_URL</text>
</a>
</g>
</g>
<!-- Node1&#45;&gt;Node4 -->
<g id="edge3" class="edge"><title>Node1&#45;&gt;Node4</title>
<path fill="none" stroke="midnightblue" d="M133.024,-67.3682C141.496,-66.252 150.228,-65.1017 158.847,-63.9663"/>
<polygon fill="midnightblue" stroke="midnightblue" points="159.434,-67.4192 168.891,-62.6431 158.52,-60.4792 159.434,-67.4192"/>
</g>
<!-- Node7 -->
<g id="node7" class="node"><title>Node7</title>
<g id="a_node7"><a xlink:href="../../d8/dcf/classCCCC__Table.html#a080274070f7d48b68bd8d3291818d76f" target="_top" xlink:title="CCCC_Table::next_item">
<polygon fill="white" stroke="black" points="171,-0.5 171,-19.5 300,-19.5 300,-0.5 171,-0.5"/>
<text text-anchor="middle" x="235.5" y="-7.5" font-family="Helvetica,sans-Serif" font-size="10.00">CCCC_Table::next_item</text>
</a>
</g>
</g>
<!-- Node1&#45;&gt;Node7 -->
<g id="edge7" class="edge"><title>Node1&#45;&gt;Node7</title>
<path fill="none" stroke="midnightblue" d="M97.1932,-60.8002C117.164,-50.9402 144.264,-38.2539 169,-29 175.04,-26.7402 181.476,-24.5819 187.864,-22.5842"/>
<polygon fill="midnightblue" stroke="midnightblue" points="189.239,-25.8253 197.801,-19.5857 187.217,-19.1238 189.239,-25.8253"/>
</g>
<!-- Node4&#45;&gt;Node3 -->
<g id="edge4" class="edge"><title>Node4&#45;&gt;Node3</title>
<path fill="none" stroke="midnightblue" d="M294.07,-69.0341C311.463,-73.5764 330.336,-78.5049 346.918,-82.8353"/>
<polygon fill="midnightblue" stroke="midnightblue" points="346.353,-86.3052 356.913,-85.4455 348.122,-79.5323 346.353,-86.3052"/>
</g>
<!-- Node5 -->
<g id="node5" class="node"><title>Node5</title>
<g id="a_node5"><a xlink:href="../../d6/d85/classCCCC__Record.html#a81bf0541981287180a41e3d801e7a084" target="_top" xlink:title="CCCC_Record::key">
<polygon fill="white" stroke="black" points="340.5,-44.5 340.5,-63.5 448.5,-63.5 448.5,-44.5 340.5,-44.5"/>
<text text-anchor="middle" x="394.5" y="-51.5" font-family="Helvetica,sans-Serif" font-size="10.00">CCCC_Record::key</text>
</a>
</g>
</g>
<!-- Node4&#45;&gt;Node5 -->
<g id="edge5" class="edge"><title>Node4&#45;&gt;Node5</title>
<path fill="none" stroke="midnightblue" d="M302.172,-54C311.452,-54 320.978,-54 330.211,-54"/>
<polygon fill="midnightblue" stroke="midnightblue" points="330.484,-57.5001 340.484,-54 330.484,-50.5001 330.484,-57.5001"/>
</g>
<!-- Node6 -->
<g id="node6" class="node"><title>Node6</title>
<g id="a_node6"><a xlink:href="../../d6/d85/classCCCC__Record.html#a03c15972bea5df4e34930fa4c34e34bd" target="_top" xlink:title="CCCC_Record::name">
<polygon fill="white" stroke="black" points="487,-44.5 487,-63.5 605,-63.5 605,-44.5 487,-44.5"/>
<text text-anchor="middle" x="546" y="-51.5" font-family="Helvetica,sans-Serif" font-size="10.00">CCCC_Record::name</text>
</a>
</g>
</g>
<!-- Node5&#45;&gt;Node6 -->
<g id="edge6" class="edge"><title>Node5&#45;&gt;Node6</title>
<path fill="none" stroke="midnightblue" d="M448.629,-54C457.751,-54 467.343,-54 476.794,-54"/>
<polygon fill="midnightblue" stroke="midnightblue" points="476.965,-57.5001 486.965,-54 476.965,-50.5001 476.965,-57.5001"/>
</g>
</g>
</svg>
