<?xml version="1.0" encoding="UTF-8" standalone="no"?>
<!DOCTYPE svg PUBLIC "-//W3C//DTD SVG 1.1//EN"
 "http://www.w3.org/Graphics/SVG/1.1/DTD/svg11.dtd">
<!-- Generated by graphviz version 2.38.0 (20140413.2041)
 -->
<!-- Title: CCCC_Html_Stream::GenerateReports Pages: 1 -->
<svg width="392pt" height="39pt"
 viewBox="0.00 0.00 392.00 39.00" xmlns="http://www.w3.org/2000/svg" xmlns:xlink="http://www.w3.org/1999/xlink">
<g id="graph0" class="graph" transform="scale(1 1) rotate(0) translate(4 35)">
<title>CCCC_Html_Stream::GenerateReports</title>
<polygon fill="white" stroke="none" points="-4,4 -4,-35 388,-35 388,4 -4,4"/>
<!-- Node1 -->
<g id="node1" class="node"><title>Node1</title>
<polygon fill="#bfbfbf" stroke="black" points="0,-0.5 0,-30.5 163,-30.5 163,-0.5 0,-0.5"/>
<text text-anchor="start" x="8" y="-18.5" font-family="Helvetica,sans-Serif" font-size="10.00">CCCC_Html_Stream::Generate</text>
<text text-anchor="middle" x="81.5" y="-7.5" font-family="Helvetica,sans-Serif" font-size="10.00">Reports</text>
</g>
<!-- Node2 -->
<g id="node2" class="node"><title>Node2</title>
<g id="a_node2"><a xlink:href="../../db/d4a/classMain.html#a41e7f9ccdd5f0029949137c8c5ac8ece" target="_top" xlink:title="Main::GenerateHtml">
<polygon fill="white" stroke="black" points="199,-6 199,-25 309,-25 309,-6 199,-6"/>
<text text-anchor="middle" x="254" y="-13" font-family="Helvetica,sans-Serif" font-size="10.00">Main::GenerateHtml</text>
</a>
</g>
</g>
<!-- Node1&#45;&gt;Node2 -->
<g id="edge1" class="edge"><title>Node1&#45;&gt;Node2</title>
<path fill="none" stroke="midnightblue" d="M173.431,-15.5C182.085,-15.5 190.661,-15.5 198.8,-15.5"/>
<polygon fill="midnightblue" stroke="midnightblue" points="173.256,-12.0001 163.256,-15.5 173.256,-19.0001 173.256,-12.0001"/>
</g>
<!-- Node3 -->
<g id="node3" class="node"><title>Node3</title>
<g id="a_node3"><a xlink:href="../../d6/d93/ccccmain_8cc.html#a3c04138a5bfe5d72780bb7e82a18e627" target="_top" xlink:title="main">
<polygon fill="white" stroke="black" points="345,-6 345,-25 384,-25 384,-6 345,-6"/>
<text text-anchor="middle" x="364.5" y="-13" font-family="Helvetica,sans-Serif" font-size="10.00">main</text>
</a>
</g>
</g>
<!-- Node2&#45;&gt;Node3 -->
<g id="edge2" class="edge"><title>Node2&#45;&gt;Node3</title>
<path fill="none" stroke="midnightblue" d="M319.33,-15.5C328.522,-15.5 337.315,-15.5 344.601,-15.5"/>
<polygon fill="midnightblue" stroke="midnightblue" points="319.25,-12.0001 309.25,-15.5 319.25,-19.0001 319.25,-12.0001"/>
</g>
</g>
</svg>
