<?xml version="1.0" encoding="UTF-8" standalone="no"?>
<!DOCTYPE svg PUBLIC "-//W3C//DTD SVG 1.1//EN"
 "http://www.w3.org/Graphics/SVG/1.1/DTD/svg11.dtd">
<!-- Generated by graphviz version 2.38.0 (20140413.2041)
 -->
<!-- Title: CCCC_Html_Stream::Structural_Detail Pages: 1 -->
<svg width="980pt" height="291pt"
 viewBox="0.00 0.00 980.00 290.50" xmlns="http://www.w3.org/2000/svg" xmlns:xlink="http://www.w3.org/1999/xlink">
<g id="graph0" class="graph" transform="scale(1 1) rotate(0) translate(4 286.5)">
<title>CCCC_Html_Stream::Structural_Detail</title>
<polygon fill="white" stroke="none" points="-4,4 -4,-286.5 976,-286.5 976,4 -4,4"/>
<!-- Node1 -->
<g id="node1" class="node"><title>Node1</title>
<polygon fill="#bfbfbf" stroke="black" points="0,-121 0,-151 162,-151 162,-121 0,-121"/>
<text text-anchor="start" x="8" y="-139" font-family="Helvetica,sans-Serif" font-size="10.00">CCCC_Html_Stream::Structural</text>
<text text-anchor="middle" x="81" y="-128" font-family="Helvetica,sans-Serif" font-size="10.00">_Detail</text>
</g>
<!-- Node2 -->
<g id="node2" class="node"><title>Node2</title>
<g id="a_node2"><a xlink:href="../../d2/d92/classCCCC__Html__Stream.html#ae812eac814f9d7b99e46afad444933bf" target="_top" xlink:title="CCCC_Html_Stream::Put\l_Section_Heading">
<polygon fill="white" stroke="black" points="198,-252 198,-282 331,-282 331,-252 198,-252"/>
<text text-anchor="start" x="206" y="-270" font-family="Helvetica,sans-Serif" font-size="10.00">CCCC_Html_Stream::Put</text>
<text text-anchor="middle" x="264.5" y="-259" font-family="Helvetica,sans-Serif" font-size="10.00">_Section_Heading</text>
</a>
</g>
</g>
<!-- Node1&#45;&gt;Node2 -->
<g id="edge1" class="edge"><title>Node1&#45;&gt;Node2</title>
<path fill="none" stroke="midnightblue" d="M94.806,-151.139C114.765,-173.896 155.441,-217.015 198,-243 200.654,-244.62 203.434,-246.157 206.288,-247.61"/>
<polygon fill="midnightblue" stroke="midnightblue" points="205.054,-250.897 215.594,-251.97 208.024,-244.558 205.054,-250.897"/>
</g>
<!-- Node3 -->
<g id="node3" class="node"><title>Node3</title>
<g id="a_node3"><a xlink:href="../../d2/d92/classCCCC__Html__Stream.html#ac9f9ceabc0db6e045eb2d89c8961d8f8" target="_top" xlink:title="CCCC_Html_Stream::Put\l_Header_Cell">
<polygon fill="white" stroke="black" points="198,-203 198,-233 331,-233 331,-203 198,-203"/>
<text text-anchor="start" x="206" y="-221" font-family="Helvetica,sans-Serif" font-size="10.00">CCCC_Html_Stream::Put</text>
<text text-anchor="middle" x="264.5" y="-210" font-family="Helvetica,sans-Serif" font-size="10.00">_Header_Cell</text>
</a>
</g>
</g>
<!-- Node1&#45;&gt;Node3 -->
<g id="edge2" class="edge"><title>Node1&#45;&gt;Node3</title>
<path fill="none" stroke="midnightblue" d="M115.29,-151.04C145.003,-164.464 188.677,-184.196 220.923,-198.764"/>
<polygon fill="midnightblue" stroke="midnightblue" points="219.56,-201.989 230.114,-202.917 222.442,-195.61 219.56,-201.989"/>
</g>
<!-- Node4 -->
<g id="node4" class="node"><title>Node4</title>
<g id="a_node4"><a xlink:href="../../d8/dcf/classCCCC__Table.html#a0d099c7bc984323270cc8c63d5ff8379" target="_top" xlink:title="CCCC_Table::first_item">
<polygon fill="white" stroke="black" points="539.5,-164.5 539.5,-183.5 665.5,-183.5 665.5,-164.5 539.5,-164.5"/>
<text text-anchor="middle" x="602.5" y="-171.5" font-family="Helvetica,sans-Serif" font-size="10.00">CCCC_Table::first_item</text>
</a>
</g>
</g>
<!-- Node1&#45;&gt;Node4 -->
<g id="edge3" class="edge"><title>Node1&#45;&gt;Node4</title>
<path fill="none" stroke="midnightblue" d="M162.024,-150.343C174.05,-152.14 186.33,-153.774 198,-155 313.544,-167.142 448.52,-171.526 529.391,-173.108"/>
<polygon fill="midnightblue" stroke="midnightblue" points="529.401,-176.609 539.465,-173.296 529.532,-169.61 529.401,-176.609"/>
</g>
<!-- Node5 -->
<g id="node5" class="node"><title>Node5</title>
<g id="a_node5"><a xlink:href="../../d6/d9f/classCCCC__Module.html#a2e35b964b59e60393b2af32dd537f505" target="_top" xlink:title="CCCC_Module::is_trivial">
<polygon fill="white" stroke="black" points="199.5,-126.5 199.5,-145.5 329.5,-145.5 329.5,-126.5 199.5,-126.5"/>
<text text-anchor="middle" x="264.5" y="-133.5" font-family="Helvetica,sans-Serif" font-size="10.00">CCCC_Module::is_trivial</text>
</a>
</g>
</g>
<!-- Node1&#45;&gt;Node5 -->
<g id="edge4" class="edge"><title>Node1&#45;&gt;Node5</title>
<path fill="none" stroke="midnightblue" d="M162.137,-136C171.078,-136 180.159,-136 189.026,-136"/>
<polygon fill="midnightblue" stroke="midnightblue" points="189.314,-139.5 199.314,-136 189.314,-132.5 189.314,-139.5"/>
</g>
<!-- Node6 -->
<g id="node6" class="node"><title>Node6</title>
<g id="a_node6"><a xlink:href="../../d2/d92/classCCCC__Html__Stream.html#a11a4dc19838cdbfe33b6d2e7f8b5823a" target="_top" xlink:title="CCCC_Html_Stream::Put\l_Label_Cell">
<polygon fill="white" stroke="black" points="198,-77 198,-107 331,-107 331,-77 198,-77"/>
<text text-anchor="start" x="206" y="-95" font-family="Helvetica,sans-Serif" font-size="10.00">CCCC_Html_Stream::Put</text>
<text text-anchor="middle" x="264.5" y="-84" font-family="Helvetica,sans-Serif" font-size="10.00">_Label_Cell</text>
</a>
</g>
</g>
<!-- Node1&#45;&gt;Node6 -->
<g id="edge5" class="edge"><title>Node1&#45;&gt;Node6</title>
<path fill="none" stroke="midnightblue" d="M143.954,-120.981C159.347,-117.249 175.973,-113.219 191.791,-109.384"/>
<polygon fill="midnightblue" stroke="midnightblue" points="192.623,-112.784 201.517,-107.026 190.974,-105.981 192.623,-112.784"/>
</g>
<!-- Node12 -->
<g id="node12" class="node"><title>Node12</title>
<g id="a_node12"><a xlink:href="../../d8/dcf/classCCCC__Table.html#a080274070f7d48b68bd8d3291818d76f" target="_top" xlink:title="CCCC_Table::next_item">
<polygon fill="white" stroke="black" points="538,-38.5 538,-57.5 667,-57.5 667,-38.5 538,-38.5"/>
<text text-anchor="middle" x="602.5" y="-45.5" font-family="Helvetica,sans-Serif" font-size="10.00">CCCC_Table::next_item</text>
</a>
</g>
</g>
<!-- Node1&#45;&gt;Node12 -->
<g id="edge15" class="edge"><title>Node1&#45;&gt;Node12</title>
<path fill="none" stroke="midnightblue" d="M100.723,-120.862C122.577,-104.191 160.523,-78.2585 198,-67 309.22,-33.5887 445.385,-35.4517 527.687,-40.9344"/>
<polygon fill="midnightblue" stroke="midnightblue" points="527.478,-44.4282 537.699,-41.637 527.968,-37.4454 527.478,-44.4282"/>
</g>
<!-- Node13 -->
<g id="node13" class="node"><title>Node13</title>
<g id="a_node13"><a xlink:href="../../d6/d9f/classCCCC__Module.html#adea7213358d5e1f9119c70cbbb99f287" target="_top" xlink:title="CCCC_Module::name">
<polygon fill="white" stroke="black" points="205.5,-0.5 205.5,-19.5 323.5,-19.5 323.5,-0.5 205.5,-0.5"/>
<text text-anchor="middle" x="264.5" y="-7.5" font-family="Helvetica,sans-Serif" font-size="10.00">CCCC_Module::name</text>
</a>
</g>
</g>
<!-- Node1&#45;&gt;Node13 -->
<g id="edge14" class="edge"><title>Node1&#45;&gt;Node13</title>
<path fill="none" stroke="midnightblue" d="M95.6291,-120.889C116.014,-99.0704 156.505,-58.6621 198,-34 205.031,-29.821 212.912,-26.1765 220.704,-23.0755"/>
<polygon fill="midnightblue" stroke="midnightblue" points="221.96,-26.3426 230.101,-19.5629 219.509,-19.7857 221.96,-26.3426"/>
</g>
<!-- Node7 -->
<g id="node7" class="node"><title>Node7</title>
<g id="a_node7"><a xlink:href="../../d2/d92/classCCCC__Html__Stream.html#a4cdc271c6f74c77b19dec08a3c8500db" target="_top" xlink:title="CCCC_Html_Stream::Put\l_Extent_List">
<polygon fill="white" stroke="black" points="367,-77 367,-107 500,-107 500,-77 367,-77"/>
<text text-anchor="start" x="375" y="-95" font-family="Helvetica,sans-Serif" font-size="10.00">CCCC_Html_Stream::Put</text>
<text text-anchor="middle" x="433.5" y="-84" font-family="Helvetica,sans-Serif" font-size="10.00">_Extent_List</text>
</a>
</g>
</g>
<!-- Node6&#45;&gt;Node7 -->
<g id="edge6" class="edge"><title>Node6&#45;&gt;Node7</title>
<path fill="none" stroke="midnightblue" d="M331.024,-92C339.496,-92 348.228,-92 356.847,-92"/>
<polygon fill="midnightblue" stroke="midnightblue" points="356.891,-95.5001 366.891,-92 356.891,-88.5001 356.891,-95.5001"/>
</g>
<!-- Node7&#45;&gt;Node4 -->
<g id="edge7" class="edge"><title>Node7&#45;&gt;Node4</title>
<path fill="none" stroke="midnightblue" d="M458.501,-107.246C478.693,-119.695 508.578,-137.251 536,-150 544.378,-153.895 553.58,-157.6 562.37,-160.882"/>
<polygon fill="midnightblue" stroke="midnightblue" points="561.459,-164.275 572.053,-164.396 563.847,-157.695 561.459,-164.275"/>
</g>
<!-- Node8 -->
<g id="node8" class="node"><title>Node8</title>
<g id="a_node8"><a xlink:href="../../df/d99/classCCCC__Extent.html#aafc68f063b7e7635471d1d0f7d5bca70" target="_top" xlink:title="CCCC_Extent::name">
<polygon fill="white" stroke="black" points="705,-123.5 705,-142.5 818,-142.5 818,-123.5 705,-123.5"/>
<text text-anchor="middle" x="761.5" y="-130.5" font-family="Helvetica,sans-Serif" font-size="10.00">CCCC_Extent::name</text>
</a>
</g>
</g>
<!-- Node7&#45;&gt;Node8 -->
<g id="edge8" class="edge"><title>Node7&#45;&gt;Node8</title>
<path fill="none" stroke="midnightblue" d="M491.094,-107.036C505.64,-110.444 521.327,-113.724 536,-116 589.034,-124.226 649.761,-128.519 694.671,-130.73"/>
<polygon fill="midnightblue" stroke="midnightblue" points="694.714,-134.236 704.867,-131.21 695.043,-127.244 694.714,-134.236"/>
</g>
<!-- Node9 -->
<g id="node9" class="node"><title>Node9</title>
<g id="a_node9"><a xlink:href="../../d2/d92/classCCCC__Html__Stream.html#abc882e68712ce2c2f95ce84821d1c516" target="_top" xlink:title="CCCC_Html_Stream::Put\l_Extent_URL">
<polygon fill="white" stroke="black" points="536,-77 536,-107 669,-107 669,-77 536,-77"/>
<text text-anchor="start" x="544" y="-95" font-family="Helvetica,sans-Serif" font-size="10.00">CCCC_Html_Stream::Put</text>
<text text-anchor="middle" x="602.5" y="-84" font-family="Helvetica,sans-Serif" font-size="10.00">_Extent_URL</text>
</a>
</g>
</g>
<!-- Node7&#45;&gt;Node9 -->
<g id="edge9" class="edge"><title>Node7&#45;&gt;Node9</title>
<path fill="none" stroke="midnightblue" d="M500.024,-92C508.496,-92 517.228,-92 525.847,-92"/>
<polygon fill="midnightblue" stroke="midnightblue" points="525.891,-95.5001 535.891,-92 525.891,-88.5001 525.891,-95.5001"/>
</g>
<!-- Node7&#45;&gt;Node12 -->
<g id="edge13" class="edge"><title>Node7&#45;&gt;Node12</title>
<path fill="none" stroke="midnightblue" d="M491.505,-76.9808C512.36,-71.4861 535.675,-65.3432 555.453,-60.1321"/>
<polygon fill="midnightblue" stroke="midnightblue" points="556.368,-63.5106 565.146,-57.5783 554.584,-56.7416 556.368,-63.5106"/>
</g>
<!-- Node9&#45;&gt;Node8 -->
<g id="edge10" class="edge"><title>Node9&#45;&gt;Node8</title>
<path fill="none" stroke="midnightblue" d="M661.07,-107.034C678.463,-111.576 697.336,-116.505 713.918,-120.835"/>
<polygon fill="midnightblue" stroke="midnightblue" points="713.353,-124.305 723.913,-123.446 715.122,-117.532 713.353,-124.305"/>
</g>
<!-- Node10 -->
<g id="node10" class="node"><title>Node10</title>
<g id="a_node10"><a xlink:href="../../d6/d85/classCCCC__Record.html#a81bf0541981287180a41e3d801e7a084" target="_top" xlink:title="CCCC_Record::key">
<polygon fill="white" stroke="black" points="707.5,-82.5 707.5,-101.5 815.5,-101.5 815.5,-82.5 707.5,-82.5"/>
<text text-anchor="middle" x="761.5" y="-89.5" font-family="Helvetica,sans-Serif" font-size="10.00">CCCC_Record::key</text>
</a>
</g>
</g>
<!-- Node9&#45;&gt;Node10 -->
<g id="edge11" class="edge"><title>Node9&#45;&gt;Node10</title>
<path fill="none" stroke="midnightblue" d="M669.172,-92C678.452,-92 687.978,-92 697.211,-92"/>
<polygon fill="midnightblue" stroke="midnightblue" points="697.484,-95.5001 707.484,-92 697.484,-88.5001 697.484,-95.5001"/>
</g>
<!-- Node11 -->
<g id="node11" class="node"><title>Node11</title>
<g id="a_node11"><a xlink:href="../../d6/d85/classCCCC__Record.html#a03c15972bea5df4e34930fa4c34e34bd" target="_top" xlink:title="CCCC_Record::name">
<polygon fill="white" stroke="black" points="854,-82.5 854,-101.5 972,-101.5 972,-82.5 854,-82.5"/>
<text text-anchor="middle" x="913" y="-89.5" font-family="Helvetica,sans-Serif" font-size="10.00">CCCC_Record::name</text>
</a>
</g>
</g>
<!-- Node10&#45;&gt;Node11 -->
<g id="edge12" class="edge"><title>Node10&#45;&gt;Node11</title>
<path fill="none" stroke="midnightblue" d="M815.629,-92C824.751,-92 834.343,-92 843.794,-92"/>
<polygon fill="midnightblue" stroke="midnightblue" points="843.965,-95.5001 853.965,-92 843.965,-88.5001 843.965,-95.5001"/>
</g>
</g>
</svg>
