<?xml version="1.0" encoding="UTF-8" standalone="no"?>
<!DOCTYPE svg PUBLIC "-//W3C//DTD SVG 1.1//EN"
 "http://www.w3.org/Graphics/SVG/1.1/DTD/svg11.dtd">
<!-- Generated by graphviz version 2.38.0 (20140413.2041)
 -->
<!-- Title: CCCC_Html_Stream::Put_Metric_Cell Pages: 1 -->
<svg width="477pt" height="39pt"
 viewBox="0.00 0.00 477.00 39.00" xmlns="http://www.w3.org/2000/svg" xmlns:xlink="http://www.w3.org/1999/xlink">
<g id="graph0" class="graph" transform="scale(1 1) rotate(0) translate(4 35)">
<title>CCCC_Html_Stream::Put_Metric_Cell</title>
<polygon fill="white" stroke="none" points="-4,4 -4,-35 473,-35 473,4 -4,4"/>
<!-- Node1 -->
<g id="node1" class="node"><title>Node1</title>
<polygon fill="#bfbfbf" stroke="black" points="0,-0.5 0,-30.5 133,-30.5 133,-0.5 0,-0.5"/>
<text text-anchor="start" x="8" y="-18.5" font-family="Helvetica,sans-Serif" font-size="10.00">CCCC_Html_Stream::Put</text>
<text text-anchor="middle" x="66.5" y="-7.5" font-family="Helvetica,sans-Serif" font-size="10.00">_Metric_Cell</text>
</g>
<!-- Node2 -->
<g id="node2" class="node"><title>Node2</title>
<g id="a_node2"><a xlink:href="../../d2/d92/classCCCC__Html__Stream.html#aba7d2e72e94a320608c67b73aebcd728" target="_top" xlink:title="CCCC_Html_Stream::Put\l_Metric_Cell">
<polygon fill="white" stroke="black" points="169,-0.5 169,-30.5 302,-30.5 302,-0.5 169,-0.5"/>
<text text-anchor="start" x="177" y="-18.5" font-family="Helvetica,sans-Serif" font-size="10.00">CCCC_Html_Stream::Put</text>
<text text-anchor="middle" x="235.5" y="-7.5" font-family="Helvetica,sans-Serif" font-size="10.00">_Metric_Cell</text>
</a>
</g>
</g>
<!-- Node1&#45;&gt;Node2 -->
<g id="edge1" class="edge"><title>Node1&#45;&gt;Node2</title>
<path fill="none" stroke="midnightblue" d="M133.024,-15.5C141.496,-15.5 150.228,-15.5 158.847,-15.5"/>
<polygon fill="midnightblue" stroke="midnightblue" points="158.891,-19.0001 168.891,-15.5 158.891,-12.0001 158.891,-19.0001"/>
</g>
<!-- Node3 -->
<g id="node3" class="node"><title>Node3</title>
<g id="a_node3"><a xlink:href="../../dd/d72/classCCCC__Metric.html#a4388127897cc2c1de762a9689b913c0d" target="_top" xlink:title="CCCC_Metric::emphasis\l_level">
<polygon fill="white" stroke="black" points="338,-0.5 338,-30.5 469,-30.5 469,-0.5 338,-0.5"/>
<text text-anchor="start" x="346" y="-18.5" font-family="Helvetica,sans-Serif" font-size="10.00">CCCC_Metric::emphasis</text>
<text text-anchor="middle" x="403.5" y="-7.5" font-family="Helvetica,sans-Serif" font-size="10.00">_level</text>
</a>
</g>
</g>
<!-- Node2&#45;&gt;Node3 -->
<g id="edge2" class="edge"><title>Node2&#45;&gt;Node3</title>
<path fill="none" stroke="midnightblue" d="M302.108,-15.5C310.575,-15.5 319.296,-15.5 327.895,-15.5"/>
<polygon fill="midnightblue" stroke="midnightblue" points="327.912,-19.0001 337.912,-15.5 327.912,-12.0001 327.912,-19.0001"/>
</g>
</g>
</svg>
