<?xml version="1.0" encoding="UTF-8" standalone="no"?>
<!DOCTYPE svg PUBLIC "-//W3C//DTD SVG 1.1//EN"
 "http://www.w3.org/Graphics/SVG/1.1/DTD/svg11.dtd">
<!-- Generated by graphviz version 2.38.0 (20140413.2041)
 -->
<!-- Title: Metric_Treatment Pages: 1 -->
<svg width="300pt" height="185pt"
 viewBox="0.00 0.00 299.50 185.00" xmlns="http://www.w3.org/2000/svg" xmlns:xlink="http://www.w3.org/1999/xlink">
<g id="graph0" class="graph" transform="scale(1 1) rotate(0) translate(4 181)">
<title>Metric_Treatment</title>
<polygon fill="white" stroke="none" points="-4,4 -4,-181 295.5,-181 295.5,4 -4,4"/>
<!-- Node1 -->
<g id="node1" class="node"><title>Node1</title>
<polygon fill="#bfbfbf" stroke="black" points="70,-0.5 70,-19.5 171,-19.5 171,-0.5 70,-0.5"/>
<text text-anchor="middle" x="120.5" y="-7.5" font-family="Helvetica,sans-Serif" font-size="10.00">Metric_Treatment</text>
</g>
<!-- Node2 -->
<g id="node2" class="node"><title>Node2</title>
<polygon fill="white" stroke="#bfbfbf" points="0,-89.5 0,-108.5 37,-108.5 37,-89.5 0,-89.5"/>
<text text-anchor="middle" x="18.5" y="-96.5" font-family="Helvetica,sans-Serif" font-size="10.00">float</text>
</g>
<!-- Node2&#45;&gt;Node1 -->
<g id="edge1" class="edge"><title>Node2&#45;&gt;Node1</title>
<path fill="none" stroke="#9a32cd" stroke-dasharray="5,2" d="M19.9985,-79.1099C22.0026,-65.9705 26.6668,-48.9183 37.5,-38 46.2517,-29.1796 57.9126,-23.2395 69.7211,-19.2396"/>
<polygon fill="#9a32cd" stroke="#9a32cd" points="16.4811,-79.0665 18.8339,-89.3967 23.4367,-79.8539 16.4811,-79.0665"/>
<text text-anchor="middle" x="77" y="-57.5" font-family="Helvetica,sans-Serif" font-size="10.00"> lower_threshold</text>
<text text-anchor="middle" x="77" y="-46.5" font-family="Helvetica,sans-Serif" font-size="10.00">upper_threshold</text>
</g>
<!-- Node3 -->
<g id="node3" class="node"><title>Node3</title>
<polygon fill="white" stroke="#bfbfbf" points="106,-89.5 106,-108.5 135,-108.5 135,-89.5 106,-89.5"/>
<text text-anchor="middle" x="120.5" y="-96.5" font-family="Helvetica,sans-Serif" font-size="10.00">int</text>
</g>
<!-- Node3&#45;&gt;Node1 -->
<g id="edge2" class="edge"><title>Node3&#45;&gt;Node1</title>
<path fill="none" stroke="#9a32cd" stroke-dasharray="5,2" d="M120.5,-79.1946C120.5,-60.7379 120.5,-33.412 120.5,-19.6249"/>
<polygon fill="#9a32cd" stroke="#9a32cd" points="117,-79.34 120.5,-89.34 124,-79.3401 117,-79.34"/>
<text text-anchor="middle" x="170" y="-63" font-family="Helvetica,sans-Serif" font-size="10.00"> width</text>
<text text-anchor="middle" x="170" y="-52" font-family="Helvetica,sans-Serif" font-size="10.00">numerator_threshold</text>
<text text-anchor="middle" x="170" y="-41" font-family="Helvetica,sans-Serif" font-size="10.00">precision</text>
</g>
<!-- Node4 -->
<g id="node4" class="node"><title>Node4</title>
<g id="a_node4"><a xlink:title="STL class. ">
<polygon fill="white" stroke="#bfbfbf" points="211.5,-89.5 211.5,-108.5 273.5,-108.5 273.5,-89.5 211.5,-89.5"/>
<text text-anchor="middle" x="242.5" y="-96.5" font-family="Helvetica,sans-Serif" font-size="10.00">std::string</text>
</a>
</g>
</g>
<!-- Node4&#45;&gt;Node1 -->
<g id="edge3" class="edge"><title>Node4&#45;&gt;Node1</title>
<path fill="none" stroke="#9a32cd" stroke-dasharray="5,2" d="M240.219,-79.2853C237.631,-65.9835 232.133,-48.655 220.5,-38 207.04,-25.6719 188.533,-18.8752 171.098,-15.1617"/>
<polygon fill="#9a32cd" stroke="#9a32cd" points="236.779,-79.9371 241.781,-89.2769 243.695,-78.8564 236.779,-79.9371"/>
<text text-anchor="middle" x="252.5" y="-57.5" font-family="Helvetica,sans-Serif" font-size="10.00"> name</text>
<text text-anchor="middle" x="252.5" y="-46.5" font-family="Helvetica,sans-Serif" font-size="10.00">code</text>
</g>
<!-- Node5 -->
<g id="node5" class="node"><title>Node5</title>
<g id="a_node5"><a xlink:title="STL class. ">
<polygon fill="white" stroke="#bfbfbf" points="193.5,-146.5 193.5,-176.5 291.5,-176.5 291.5,-146.5 193.5,-146.5"/>
<text text-anchor="start" x="201.5" y="-164.5" font-family="Helvetica,sans-Serif" font-size="10.00">std::basic_string&lt;</text>
<text text-anchor="middle" x="242.5" y="-153.5" font-family="Helvetica,sans-Serif" font-size="10.00"> char &gt;</text>
</a>
</g>
</g>
<!-- Node5&#45;&gt;Node4 -->
<g id="edge4" class="edge"><title>Node5&#45;&gt;Node4</title>
<path fill="none" stroke="midnightblue" d="M242.5,-136.352C242.5,-126.513 242.5,-115.775 242.5,-108.54"/>
<polygon fill="midnightblue" stroke="midnightblue" points="239,-136.468 242.5,-146.468 246,-136.468 239,-136.468"/>
</g>
</g>
</svg>
