<?xml version="1.0" encoding="UTF-8" standalone="no"?>
<!DOCTYPE svg PUBLIC "-//W3C//DTD SVG 1.1//EN"
 "http://www.w3.org/Graphics/SVG/1.1/DTD/svg11.dtd">
<!-- Generated by graphviz version 2.38.0 (20140413.2041)
 -->
<!-- Title: cccc_tbl.cc Pages: 1 -->
<!--zoomable 476 -->
<svg id="main" version="1.1" xmlns="http://www.w3.org/2000/svg" xmlns:xlink="http://www.w3.org/1999/xlink" xml:space="preserve" onload="init(evt)">
<style type="text/css"><![CDATA[
.edge:hover path { stroke: red; }
.edge:hover polygon { stroke: red; fill: red; }
]]></style>
<script type="text/javascript"><![CDATA[
var edges = document.getElementsByTagName('g');
if (edges && edges.length) {
  for (var i=0;i<edges.length;i++) {
    if (edges[i].id.substr(0,4)=='edge') {
      edges[i].setAttribute('class','edge');
    }
  }
}
]]></script>
        <defs>
                <circle id="rim" cx="0" cy="0" r="7"/>
                <circle id="rim2" cx="0" cy="0" r="3.5"/>
                <g id="zoomPlus">
                        <use xlink:href="#rim" fill="#404040">
                                <set attributeName="fill" to="#808080" begin="zoomplus.mouseover" end="zoomplus.mouseout"/>
                        </use>
                        <path d="M-4,0h8M0,-4v8" fill="none" stroke="white" stroke-width="1.5" pointer-events="none"/>
                </g>
                <g id="zoomMin">
                        <use xlink:href="#rim" fill="#404040">
                                <set attributeName="fill" to="#808080" begin="zoomminus.mouseover" end="zoomminus.mouseout"/>
                        </use>
                        <path d="M-4,0h8" fill="none" stroke="white" stroke-width="1.5" pointer-events="none"/>
                </g>
                <g id="dirArrow">
                        <path fill="none" stroke="white" stroke-width="1.5" d="M0,-3.0v7 M-2.5,-0.5L0,-3.0L2.5,-0.5"/>
                </g>
               <g id="resetDef">
                       <use xlink:href="#rim2" fill="#404040">
                               <set attributeName="fill" to="#808080" begin="reset.mouseover" end="reset.mouseout"/>
                       </use>
               </g>
        </defs>

<script type="text/javascript">
var viewWidth = 1017;
var viewHeight = 476;
var sectionId = 'dynsection-1';
</script>
<script xlink:href="../../svgpan.js"/>
<svg id="graph" class="graph">
<g id="viewport">
<title>cccc_tbl.cc</title>
<polygon fill="white" stroke="none" points="-4,4 -4,-472 1013,-472 1013,4 -4,4"/>
<!-- Node1 -->
<g id="node1" class="node"><title>Node1</title>
<polygon fill="#bfbfbf" stroke="black" points="916.5,-448.5 916.5,-467.5 983.5,-467.5 983.5,-448.5 916.5,-448.5"/>
<text text-anchor="middle" x="950" y="-455.5" font-family="Helvetica,sans-Serif" font-size="10.00">cccc_tbl.cc</text>
</g>
<!-- Node2 -->
<g id="node2" class="node"><title>Node2</title>
<g id="a_node2"><a xlink:href="../../df/dd4/cccc__tbl_8h.html" target="_top" xlink:title="cccc_tbl.h">
<polygon fill="white" stroke="black" points="919,-392.5 919,-411.5 981,-411.5 981,-392.5 919,-392.5"/>
<text text-anchor="middle" x="950" y="-399.5" font-family="Helvetica,sans-Serif" font-size="10.00">cccc_tbl.h</text>
</a>
</g>
</g>
<!-- Node1&#45;&gt;Node2 -->
<g id="edge1" class="edge"><title>Node1&#45;&gt;Node2</title>
<path fill="none" stroke="midnightblue" d="M943.528,-438.101C942.896,-429.136 943.343,-418.858 944.869,-411.751"/>
<polygon fill="midnightblue" stroke="midnightblue" points="940.066,-438.622 944.834,-448.083 947.007,-437.713 940.066,-438.622"/>
</g>
<!-- Node9 -->
<g id="node9" class="node"><title>Node9</title>
<g id="a_node9"><a xlink:href="../../d1/d81/cccc__tpl_8cc.html" target="_top" xlink:title="cccc_tpl.cc">
<polygon fill="white" stroke="black" points="705,-56.5 705,-75.5 773,-75.5 773,-56.5 705,-56.5"/>
<text text-anchor="middle" x="739" y="-63.5" font-family="Helvetica,sans-Serif" font-size="10.00">cccc_tpl.cc</text>
</a>
</g>
</g>
<!-- Node1&#45;&gt;Node9 -->
<g id="edge44" class="edge"><title>Node1&#45;&gt;Node9</title>
<path fill="none" stroke="midnightblue" d="M967.334,-441.07C975.214,-433.019 984.078,-422.7 990,-412 1004.58,-385.667 1009,-377.098 1009,-347 1009,-347 1009,-347 1009,-177 1009,-126.637 845.849,-88.1038 773.196,-73.4412"/>
<polygon fill="midnightblue" stroke="midnightblue" points="964.641,-438.807 959.927,-448.296 969.53,-443.818 964.641,-438.807"/>
</g>
<!-- Node2&#45;&gt;Node1 -->
<g id="edge42" class="edge"><title>Node2&#45;&gt;Node1</title>
<path fill="none" stroke="midnightblue" d="M956.458,-421.691C957.106,-430.635 956.676,-440.927 955.166,-448.083"/>
<polygon fill="midnightblue" stroke="midnightblue" points="959.923,-421.2 955.131,-411.751 952.985,-422.126 959.923,-421.2"/>
</g>
<!-- Node3 -->
<g id="node3" class="node"><title>Node3</title>
<g id="a_node3"><a xlink:href="../../df/de9/cccc__rec_8h.html" target="_top" xlink:title="cccc_rec.h">
<polygon fill="white" stroke="black" points="555.5,-336.5 555.5,-355.5 622.5,-355.5 622.5,-336.5 555.5,-336.5"/>
<text text-anchor="middle" x="589" y="-343.5" font-family="Helvetica,sans-Serif" font-size="10.00">cccc_rec.h</text>
</a>
</g>
</g>
<!-- Node2&#45;&gt;Node3 -->
<g id="edge2" class="edge"><title>Node2&#45;&gt;Node3</title>
<path fill="none" stroke="midnightblue" d="M908.847,-394.844C836.811,-384.069 689.215,-361.991 622.755,-352.049"/>
<polygon fill="midnightblue" stroke="midnightblue" points="908.501,-398.331 918.909,-396.349 909.537,-391.408 908.501,-398.331"/>
</g>
<!-- Node2&#45;&gt;Node9 -->
<g id="edge43" class="edge"><title>Node2&#45;&gt;Node9</title>
<path fill="none" stroke="midnightblue" d="M955.765,-382.427C961.982,-360.722 971,-323.616 971,-291 971,-291 971,-291 971,-233 971,-202.775 970.756,-190.876 951,-168 903.701,-113.232 820.074,-85.8563 773.235,-74.2171"/>
<polygon fill="midnightblue" stroke="midnightblue" points="952.334,-381.685 952.832,-392.268 959.043,-383.684 952.334,-381.685"/>
</g>
<!-- Node4 -->
<g id="node4" class="node"><title>Node4</title>
<g id="a_node4"><a xlink:href="../../d7/d44/cccc__db_8h.html" target="_top" xlink:title="cccc_db.h">
<polygon fill="white" stroke="black" points="492.5,-224.5 492.5,-243.5 555.5,-243.5 555.5,-224.5 492.5,-224.5"/>
<text text-anchor="middle" x="524" y="-231.5" font-family="Helvetica,sans-Serif" font-size="10.00">cccc_db.h</text>
</a>
</g>
</g>
<!-- Node3&#45;&gt;Node4 -->
<g id="edge3" class="edge"><title>Node3&#45;&gt;Node4</title>
<path fill="none" stroke="midnightblue" d="M586.173,-326.381C583.508,-312.798 578.6,-294.335 570,-280 561.149,-265.247 546.3,-251.959 535.873,-243.712"/>
<polygon fill="midnightblue" stroke="midnightblue" points="582.76,-327.189 587.915,-336.446 589.658,-325.995 582.76,-327.189"/>
</g>
<!-- Node19 -->
<g id="node19" class="node"><title>Node19</title>
<g id="a_node19"><a xlink:href="../../df/d79/cccc__rec_8cc.html" target="_top" xlink:title="cccc_rec.cc">
<polygon fill="white" stroke="black" points="871.5,-168.5 871.5,-187.5 942.5,-187.5 942.5,-168.5 871.5,-168.5"/>
<text text-anchor="middle" x="907" y="-175.5" font-family="Helvetica,sans-Serif" font-size="10.00">cccc_rec.cc</text>
</a>
</g>
</g>
<!-- Node3&#45;&gt;Node19 -->
<g id="edge41" class="edge"><title>Node3&#45;&gt;Node19</title>
<path fill="none" stroke="midnightblue" d="M620.474,-332.587C641.552,-324.013 669.769,-312.028 694,-300 770.951,-261.803 859.082,-208.549 892.838,-187.782"/>
<polygon fill="midnightblue" stroke="midnightblue" points="619.007,-329.405 611.041,-336.391 621.625,-335.897 619.007,-329.405"/>
</g>
<!-- Node22 -->
<g id="node22" class="node"><title>Node22</title>
<g id="a_node22"><a xlink:href="../../d1/da4/cccc__prj_8h.html" target="_top" xlink:title="cccc_prj.h">
<polygon fill="white" stroke="black" points="315,-280.5 315,-299.5 379,-299.5 379,-280.5 315,-280.5"/>
<text text-anchor="middle" x="347" y="-287.5" font-family="Helvetica,sans-Serif" font-size="10.00">cccc_prj.h</text>
</a>
</g>
</g>
<!-- Node3&#45;&gt;Node22 -->
<g id="edge29" class="edge"><title>Node3&#45;&gt;Node22</title>
<path fill="none" stroke="midnightblue" d="M545.294,-335.247C497.463,-324.574 421.918,-307.717 379.206,-298.186"/>
<polygon fill="midnightblue" stroke="midnightblue" points="544.829,-338.73 555.351,-337.492 546.353,-331.898 544.829,-338.73"/>
</g>
<!-- Node23 -->
<g id="node23" class="node"><title>Node23</title>
<g id="a_node23"><a xlink:href="../../df/d69/cccc__mod_8h.html" target="_top" xlink:title="cccc_mod.h">
<polygon fill="white" stroke="black" points="397,-280.5 397,-299.5 469,-299.5 469,-280.5 397,-280.5"/>
<text text-anchor="middle" x="433" y="-287.5" font-family="Helvetica,sans-Serif" font-size="10.00">cccc_mod.h</text>
</a>
</g>
</g>
<!-- Node3&#45;&gt;Node23 -->
<g id="edge32" class="edge"><title>Node3&#45;&gt;Node23</title>
<path fill="none" stroke="midnightblue" d="M554.83,-333.172C525.456,-323.004 483.802,-308.585 457.603,-299.516"/>
<polygon fill="midnightblue" stroke="midnightblue" points="553.687,-336.48 564.281,-336.444 555.976,-329.865 553.687,-336.48"/>
</g>
<!-- Node24 -->
<g id="node24" class="node"><title>Node24</title>
<g id="a_node24"><a xlink:href="../../dc/da1/cccc__mem_8h.html" target="_top" xlink:title="cccc_mem.h">
<polygon fill="white" stroke="black" points="487,-280.5 487,-299.5 561,-299.5 561,-280.5 487,-280.5"/>
<text text-anchor="middle" x="524" y="-287.5" font-family="Helvetica,sans-Serif" font-size="10.00">cccc_mem.h</text>
</a>
</g>
</g>
<!-- Node3&#45;&gt;Node24 -->
<g id="edge35" class="edge"><title>Node3&#45;&gt;Node24</title>
<path fill="none" stroke="midnightblue" d="M570.727,-329.82C559.082,-320.145 544.401,-307.948 534.633,-299.834"/>
<polygon fill="midnightblue" stroke="midnightblue" points="568.628,-332.626 578.557,-336.324 573.101,-327.242 568.628,-332.626"/>
</g>
<!-- Node25 -->
<g id="node25" class="node"><title>Node25</title>
<g id="a_node25"><a xlink:href="../../d4/d96/cccc__use_8h.html" target="_top" xlink:title="cccc_use.h">
<polygon fill="white" stroke="black" points="617,-280.5 617,-299.5 685,-299.5 685,-280.5 617,-280.5"/>
<text text-anchor="middle" x="651" y="-287.5" font-family="Helvetica,sans-Serif" font-size="10.00">cccc_use.h</text>
</a>
</g>
</g>
<!-- Node3&#45;&gt;Node25 -->
<g id="edge38" class="edge"><title>Node3&#45;&gt;Node25</title>
<path fill="none" stroke="midnightblue" d="M606.754,-329.537C617.808,-319.909 631.631,-307.869 640.857,-299.834"/>
<polygon fill="midnightblue" stroke="midnightblue" points="604.203,-327.117 598.961,-336.324 608.801,-332.395 604.203,-327.117"/>
</g>
<!-- Node5 -->
<g id="node5" class="node"><title>Node5</title>
<g id="a_node5"><a xlink:href="../../d8/d19/cccc__db_8cc.html" target="_top" xlink:title="cccc_db.cc">
<polygon fill="white" stroke="black" points="490,-168.5 490,-187.5 558,-187.5 558,-168.5 490,-168.5"/>
<text text-anchor="middle" x="524" y="-175.5" font-family="Helvetica,sans-Serif" font-size="10.00">cccc_db.cc</text>
</a>
</g>
</g>
<!-- Node4&#45;&gt;Node5 -->
<g id="edge4" class="edge"><title>Node4&#45;&gt;Node5</title>
<path fill="none" stroke="midnightblue" d="M524,-213.805C524,-204.91 524,-194.78 524,-187.751"/>
<polygon fill="midnightblue" stroke="midnightblue" points="520.5,-214.083 524,-224.083 527.5,-214.083 520.5,-214.083"/>
</g>
<!-- Node6 -->
<g id="node6" class="node"><title>Node6</title>
<g id="a_node6"><a xlink:href="../../d6/dd5/cccc__ext_8cc.html" target="_top" xlink:title="cccc_ext.cc">
<polygon fill="white" stroke="black" points="576.5,-168.5 576.5,-187.5 647.5,-187.5 647.5,-168.5 576.5,-168.5"/>
<text text-anchor="middle" x="612" y="-175.5" font-family="Helvetica,sans-Serif" font-size="10.00">cccc_ext.cc</text>
</a>
</g>
</g>
<!-- Node4&#45;&gt;Node6 -->
<g id="edge5" class="edge"><title>Node4&#45;&gt;Node6</title>
<path fill="none" stroke="midnightblue" d="M546.977,-218.901C563.113,-208.999 584.181,-196.071 597.896,-187.655"/>
<polygon fill="midnightblue" stroke="midnightblue" points="544.831,-216.111 538.139,-224.324 548.493,-222.077 544.831,-216.111"/>
</g>
<!-- Node7 -->
<g id="node7" class="node"><title>Node7</title>
<g id="a_node7"><a xlink:href="../../d9/db9/cccc__htm_8h.html" target="_top" xlink:title="cccc_htm.h">
<polygon fill="white" stroke="black" points="578.5,-112.5 578.5,-131.5 647.5,-131.5 647.5,-112.5 578.5,-112.5"/>
<text text-anchor="middle" x="613" y="-119.5" font-family="Helvetica,sans-Serif" font-size="10.00">cccc_htm.h</text>
</a>
</g>
</g>
<!-- Node4&#45;&gt;Node7 -->
<g id="edge6" class="edge"><title>Node4&#45;&gt;Node7</title>
<path fill="none" stroke="midnightblue" d="M565.628,-231.03C596.127,-227.143 635.619,-216.481 656,-188 670.173,-168.194 643.157,-144.105 625.867,-131.548"/>
<polygon fill="midnightblue" stroke="midnightblue" points="565.237,-227.552 555.67,-232.105 565.988,-234.512 565.237,-227.552"/>
</g>
<!-- Node4&#45;&gt;Node9 -->
<g id="edge24" class="edge"><title>Node4&#45;&gt;Node9</title>
<path fill="none" stroke="midnightblue" d="M565.49,-228.892C597.556,-223.855 641.478,-212.689 672,-188 710.272,-157.042 730.213,-98.0739 736.639,-75.8074"/>
<polygon fill="midnightblue" stroke="midnightblue" points="564.929,-225.436 555.527,-230.321 565.923,-232.365 564.929,-225.436"/>
</g>
<!-- Node10 -->
<g id="node10" class="node"><title>Node10</title>
<g id="a_node10"><a xlink:href="../../d9/d64/cccc__xml_8h.html" target="_top" xlink:title="cccc_xml.h">
<polygon fill="white" stroke="black" points="365,-56.5 365,-75.5 433,-75.5 433,-56.5 365,-56.5"/>
<text text-anchor="middle" x="399" y="-63.5" font-family="Helvetica,sans-Serif" font-size="10.00">cccc_xml.h</text>
</a>
</g>
</g>
<!-- Node4&#45;&gt;Node10 -->
<g id="edge27" class="edge"><title>Node4&#45;&gt;Node10</title>
<path fill="none" stroke="midnightblue" d="M482.43,-230.41C425.962,-225.925 329.556,-214.51 308,-188 274.586,-146.907 350.151,-95.5389 383.84,-75.5297"/>
<polygon fill="midnightblue" stroke="midnightblue" points="482.247,-233.906 492.482,-231.168 482.774,-226.926 482.247,-233.906"/>
</g>
<!-- Node12 -->
<g id="node12" class="node"><title>Node12</title>
<g id="a_node12"><a xlink:href="../../d6/d93/ccccmain_8cc.html" target="_top" xlink:title="ccccmain.cc">
<polygon fill="white" stroke="black" points="524.5,-0.5 524.5,-19.5 597.5,-19.5 597.5,-0.5 524.5,-0.5"/>
<text text-anchor="middle" x="561" y="-7.5" font-family="Helvetica,sans-Serif" font-size="10.00">ccccmain.cc</text>
</a>
</g>
</g>
<!-- Node4&#45;&gt;Node12 -->
<g id="edge28" class="edge"><title>Node4&#45;&gt;Node12</title>
<path fill="none" stroke="midnightblue" d="M566.084,-229.682C602.966,-225.074 656.676,-214.098 696,-188 748.291,-153.296 761.817,-135.426 782,-76 784.859,-67.5833 787.623,-62.8839 782,-56 759.148,-28.0265 654.445,-17.0006 597.741,-13.0237"/>
<polygon fill="midnightblue" stroke="midnightblue" points="565.222,-226.257 555.684,-230.868 566.016,-233.212 565.222,-226.257"/>
</g>
<!-- Node13 -->
<g id="node13" class="node"><title>Node13</title>
<g id="a_node13"><a xlink:href="../../d4/df8/cccc__met_8h.html" target="_top" xlink:title="cccc_met.h">
<polygon fill="white" stroke="black" points="317.5,-168.5 317.5,-187.5 386.5,-187.5 386.5,-168.5 317.5,-168.5"/>
<text text-anchor="middle" x="352" y="-175.5" font-family="Helvetica,sans-Serif" font-size="10.00">cccc_met.h</text>
</a>
</g>
</g>
<!-- Node4&#45;&gt;Node13 -->
<g id="edge13" class="edge"><title>Node4&#45;&gt;Node13</title>
<path fill="none" stroke="midnightblue" d="M487.168,-221.436C454.738,-211.255 408.263,-196.664 379.126,-187.516"/>
<polygon fill="midnightblue" stroke="midnightblue" points="486.157,-224.787 496.746,-224.444 488.254,-218.109 486.157,-224.787"/>
</g>
<!-- Node16 -->
<g id="node16" class="node"><title>Node16</title>
<g id="a_node16"><a xlink:href="../../d0/d4a/cccc__mem_8cc.html" target="_top" xlink:title="cccc_mem.cc">
<polygon fill="white" stroke="black" points="181.5,-168.5 181.5,-187.5 260.5,-187.5 260.5,-168.5 181.5,-168.5"/>
<text text-anchor="middle" x="221" y="-175.5" font-family="Helvetica,sans-Serif" font-size="10.00">cccc_mem.cc</text>
</a>
</g>
</g>
<!-- Node4&#45;&gt;Node16 -->
<g id="edge20" class="edge"><title>Node4&#45;&gt;Node16</title>
<path fill="none" stroke="midnightblue" d="M482.425,-225.591C423.912,-215.163 318.015,-196.29 260.594,-186.056"/>
<polygon fill="midnightblue" stroke="midnightblue" points="481.972,-229.065 492.431,-227.374 483.2,-222.174 481.972,-229.065"/>
</g>
<!-- Node17 -->
<g id="node17" class="node"><title>Node17</title>
<g id="a_node17"><a xlink:href="../../de/d79/cccc__mod_8cc.html" target="_top" xlink:title="cccc_mod.cc">
<polygon fill="white" stroke="black" points="86.5,-168.5 86.5,-187.5 163.5,-187.5 163.5,-168.5 86.5,-168.5"/>
<text text-anchor="middle" x="125" y="-175.5" font-family="Helvetica,sans-Serif" font-size="10.00">cccc_mod.cc</text>
</a>
</g>
</g>
<!-- Node4&#45;&gt;Node17 -->
<g id="edge21" class="edge"><title>Node4&#45;&gt;Node17</title>
<path fill="none" stroke="midnightblue" d="M482.345,-228.522C416.341,-221.236 283.746,-205.824 172,-188 169.293,-187.568 166.502,-187.098 163.695,-186.607"/>
<polygon fill="midnightblue" stroke="midnightblue" points="482.031,-232.009 492.353,-229.621 482.794,-225.05 482.031,-232.009"/>
</g>
<!-- Node18 -->
<g id="node18" class="node"><title>Node18</title>
<g id="a_node18"><a xlink:href="../../d7/d4b/cccc__prj_8cc.html" target="_top" xlink:title="cccc_prj.cc">
<polygon fill="white" stroke="black" points="0,-168.5 0,-187.5 68,-187.5 68,-168.5 0,-168.5"/>
<text text-anchor="middle" x="34" y="-175.5" font-family="Helvetica,sans-Serif" font-size="10.00">cccc_prj.cc</text>
</a>
</g>
</g>
<!-- Node4&#45;&gt;Node18 -->
<g id="edge22" class="edge"><title>Node4&#45;&gt;Node18</title>
<path fill="none" stroke="midnightblue" d="M482.356,-230.288C403.107,-224.801 225.276,-210.915 77,-188 74.1357,-187.557 71.1743,-187.048 68.2078,-186.501"/>
<polygon fill="midnightblue" stroke="midnightblue" points="482.207,-233.786 492.422,-230.977 482.684,-226.803 482.207,-233.786"/>
</g>
<!-- Node4&#45;&gt;Node19 -->
<g id="edge23" class="edge"><title>Node4&#45;&gt;Node19</title>
<path fill="none" stroke="midnightblue" d="M565.89,-228.311C629.894,-220.947 755.793,-205.671 862,-188 864.986,-187.503 868.078,-186.955 871.177,-186.383"/>
<polygon fill="midnightblue" stroke="midnightblue" points="565.327,-224.853 555.79,-229.467 566.123,-231.807 565.327,-224.853"/>
</g>
<!-- Node20 -->
<g id="node20" class="node"><title>Node20</title>
<g id="a_node20"><a xlink:href="../../de/d05/cccc__use_8cc.html" target="_top" xlink:title="cccc_use.cc">
<polygon fill="white" stroke="black" points="780.5,-168.5 780.5,-187.5 853.5,-187.5 853.5,-168.5 780.5,-168.5"/>
<text text-anchor="middle" x="817" y="-175.5" font-family="Helvetica,sans-Serif" font-size="10.00">cccc_use.cc</text>
</a>
</g>
</g>
<!-- Node4&#45;&gt;Node20 -->
<g id="edge25" class="edge"><title>Node4&#45;&gt;Node20</title>
<path fill="none" stroke="midnightblue" d="M565.47,-225.357C622.912,-214.77 725.781,-195.812 780.473,-185.732"/>
<polygon fill="midnightblue" stroke="midnightblue" points="564.834,-221.915 555.635,-227.17 566.103,-228.799 564.834,-221.915"/>
</g>
<!-- Node21 -->
<g id="node21" class="node"><title>Node21</title>
<g id="a_node21"><a xlink:href="../../dc/d0b/cccc__utl_8cc.html" target="_top" xlink:title="cccc_utl.cc">
<polygon fill="white" stroke="black" points="404.5,-168.5 404.5,-187.5 471.5,-187.5 471.5,-168.5 404.5,-168.5"/>
<text text-anchor="middle" x="438" y="-175.5" font-family="Helvetica,sans-Serif" font-size="10.00">cccc_utl.cc</text>
</a>
</g>
</g>
<!-- Node4&#45;&gt;Node21 -->
<g id="edge26" class="edge"><title>Node4&#45;&gt;Node21</title>
<path fill="none" stroke="midnightblue" d="M501.545,-218.901C485.776,-208.999 465.186,-196.071 451.783,-187.655"/>
<polygon fill="midnightblue" stroke="midnightblue" points="499.852,-221.97 510.183,-224.324 503.575,-216.042 499.852,-221.97"/>
</g>
<!-- Node8 -->
<g id="node8" class="node"><title>Node8</title>
<g id="a_node8"><a xlink:href="../../d5/dcb/cccc__htm_8cc.html" target="_top" xlink:title="cccc_htm.cc">
<polygon fill="white" stroke="black" points="575,-56.5 575,-75.5 649,-75.5 649,-56.5 575,-56.5"/>
<text text-anchor="middle" x="612" y="-63.5" font-family="Helvetica,sans-Serif" font-size="10.00">cccc_htm.cc</text>
</a>
</g>
</g>
<!-- Node7&#45;&gt;Node8 -->
<g id="edge7" class="edge"><title>Node7&#45;&gt;Node8</title>
<path fill="none" stroke="midnightblue" d="M612.645,-101.805C612.48,-92.9102 612.292,-82.7798 612.162,-75.7511"/>
<polygon fill="midnightblue" stroke="midnightblue" points="609.15,-102.15 612.835,-112.083 616.149,-102.02 609.15,-102.15"/>
</g>
<!-- Node7&#45;&gt;Node9 -->
<g id="edge8" class="edge"><title>Node7&#45;&gt;Node9</title>
<path fill="none" stroke="midnightblue" d="M642.16,-108.503C665.781,-98.3795 698.428,-84.388 719.128,-75.5164"/>
<polygon fill="midnightblue" stroke="midnightblue" points="640.778,-105.287 632.965,-112.444 643.535,-111.721 640.778,-105.287"/>
</g>
<!-- Node7&#45;&gt;Node10 -->
<g id="edge9" class="edge"><title>Node7&#45;&gt;Node10</title>
<path fill="none" stroke="midnightblue" d="M569.245,-109.959C528.826,-99.7598 469.627,-84.8217 432.75,-75.5164"/>
<polygon fill="midnightblue" stroke="midnightblue" points="568.539,-113.39 579.091,-112.444 570.251,-106.603 568.539,-113.39"/>
</g>
<!-- Node7&#45;&gt;Node12 -->
<g id="edge12" class="edge"><title>Node7&#45;&gt;Node12</title>
<path fill="none" stroke="midnightblue" d="M634.942,-106.131C651.357,-93.0932 669.195,-73.5352 658,-56 644.813,-35.3458 619.436,-24.0272 597.946,-17.9081"/>
<polygon fill="midnightblue" stroke="midnightblue" points="632.577,-103.528 626.648,-112.309 636.759,-109.142 632.577,-103.528"/>
</g>
<!-- Node11 -->
<g id="node11" class="node"><title>Node11</title>
<g id="a_node11"><a xlink:href="../../db/d75/cccc__xml_8cc.html" target="_top" xlink:title="cccc_xml.cc">
<polygon fill="white" stroke="black" points="363,-0.5 363,-19.5 435,-19.5 435,-0.5 363,-0.5"/>
<text text-anchor="middle" x="399" y="-7.5" font-family="Helvetica,sans-Serif" font-size="10.00">cccc_xml.cc</text>
</a>
</g>
</g>
<!-- Node10&#45;&gt;Node11 -->
<g id="edge10" class="edge"><title>Node10&#45;&gt;Node11</title>
<path fill="none" stroke="midnightblue" d="M399,-45.8045C399,-36.9102 399,-26.7798 399,-19.7511"/>
<polygon fill="midnightblue" stroke="midnightblue" points="395.5,-46.083 399,-56.083 402.5,-46.083 395.5,-46.083"/>
</g>
<!-- Node10&#45;&gt;Node12 -->
<g id="edge11" class="edge"><title>Node10&#45;&gt;Node12</title>
<path fill="none" stroke="midnightblue" d="M434.484,-53.172C464.988,-43.0039 508.245,-28.5852 535.451,-19.5164"/>
<polygon fill="midnightblue" stroke="midnightblue" points="433.049,-49.9608 424.669,-56.4435 435.263,-56.6016 433.049,-49.9608"/>
</g>
<!-- Node13&#45;&gt;Node7 -->
<g id="edge14" class="edge"><title>Node13&#45;&gt;Node7</title>
<path fill="none" stroke="midnightblue" d="M396.578,-167.676C466.421,-153.167 537.166,-138.593 578.258,-130.141"/>
<polygon fill="midnightblue" stroke="midnightblue" points="395.811,-164.26 386.732,-169.722 397.235,-171.114 395.811,-164.26"/>
</g>
<!-- Node13&#45;&gt;Node9 -->
<g id="edge17" class="edge"><title>Node13&#45;&gt;Node9</title>
<path fill="none" stroke="midnightblue" d="M396.651,-167.869C512.496,-149.56 551.126,-176.429 656,-132 687.346,-118.721 716.957,-90.4248 730.808,-75.9434"/>
<polygon fill="midnightblue" stroke="midnightblue" points="395.985,-164.432 386.694,-169.523 397.133,-171.337 395.985,-164.432"/>
</g>
<!-- Node13&#45;&gt;Node10 -->
<g id="edge18" class="edge"><title>Node13&#45;&gt;Node10</title>
<path fill="none" stroke="midnightblue" d="M345.472,-158.508C341.828,-145.014 339.24,-126.608 346,-112 353.503,-95.7873 370.045,-83.2803 382.666,-75.613"/>
<polygon fill="midnightblue" stroke="midnightblue" points="342.147,-159.603 348.462,-168.11 348.83,-157.522 342.147,-159.603"/>
</g>
<!-- Node13&#45;&gt;Node12 -->
<g id="edge19" class="edge"><title>Node13&#45;&gt;Node12</title>
<path fill="none" stroke="midnightblue" d="M396.542,-166.714C446.803,-154.933 522.24,-136.656 527,-132 558.98,-100.723 561.545,-41.9469 561.297,-19.7694"/>
<polygon fill="midnightblue" stroke="midnightblue" points="395.485,-163.366 386.543,-169.049 397.077,-170.183 395.485,-163.366"/>
</g>
<!-- Node14 -->
<g id="node14" class="node"><title>Node14</title>
<g id="a_node14"><a xlink:href="../../df/df6/cccc__met_8cc.html" target="_top" xlink:title="cccc_met.cc">
<polygon fill="white" stroke="black" points="355,-112.5 355,-131.5 429,-131.5 429,-112.5 355,-112.5"/>
<text text-anchor="middle" x="392" y="-119.5" font-family="Helvetica,sans-Serif" font-size="10.00">cccc_met.cc</text>
</a>
</g>
</g>
<!-- Node13&#45;&gt;Node14 -->
<g id="edge15" class="edge"><title>Node13&#45;&gt;Node14</title>
<path fill="none" stroke="midnightblue" d="M364.7,-159.855C371.626,-150.505 379.906,-139.327 385.518,-131.751"/>
<polygon fill="midnightblue" stroke="midnightblue" points="361.745,-157.964 358.605,-168.083 367.37,-162.131 361.745,-157.964"/>
</g>
<!-- Node15 -->
<g id="node15" class="node"><title>Node15</title>
<g id="a_node15"><a xlink:href="../../d5/d39/cccc__opt_8cc.html" target="_top" xlink:title="cccc_opt.cc">
<polygon fill="white" stroke="black" points="447.5,-112.5 447.5,-131.5 518.5,-131.5 518.5,-112.5 447.5,-112.5"/>
<text text-anchor="middle" x="483" y="-119.5" font-family="Helvetica,sans-Serif" font-size="10.00">cccc_opt.cc</text>
</a>
</g>
</g>
<!-- Node13&#45;&gt;Node15 -->
<g id="edge16" class="edge"><title>Node13&#45;&gt;Node15</title>
<path fill="none" stroke="midnightblue" d="M382.317,-164.503C406.876,-154.38 440.818,-140.388 462.34,-131.516"/>
<polygon fill="midnightblue" stroke="midnightblue" points="380.669,-161.397 372.757,-168.444 383.337,-167.868 380.669,-161.397"/>
</g>
<!-- Node22&#45;&gt;Node4 -->
<g id="edge30" class="edge"><title>Node22&#45;&gt;Node4</title>
<path fill="none" stroke="midnightblue" d="M384.903,-277.436C418.275,-267.255 466.101,-252.664 496.085,-243.516"/>
<polygon fill="midnightblue" stroke="midnightblue" points="383.59,-274.178 375.046,-280.444 385.632,-280.873 383.59,-274.178"/>
</g>
<!-- Node22&#45;&gt;Node18 -->
<g id="edge31" class="edge"><title>Node22&#45;&gt;Node18</title>
<path fill="none" stroke="midnightblue" d="M313.15,-277.104C249.647,-254.786 114.048,-207.132 58.5005,-187.61"/>
<polygon fill="midnightblue" stroke="midnightblue" points="312.105,-280.446 322.7,-280.46 314.426,-273.842 312.105,-280.446"/>
</g>
<!-- Node23&#45;&gt;Node4 -->
<g id="edge33" class="edge"><title>Node23&#45;&gt;Node4</title>
<path fill="none" stroke="midnightblue" d="M456.294,-275.177C473.039,-265.241 495.1,-252.149 509.416,-243.655"/>
<polygon fill="midnightblue" stroke="midnightblue" points="454.434,-272.211 447.621,-280.324 458.007,-278.231 454.434,-272.211"/>
</g>
<!-- Node23&#45;&gt;Node17 -->
<g id="edge34" class="edge"><title>Node23&#45;&gt;Node17</title>
<path fill="none" stroke="midnightblue" d="M399.304,-276.966C336.653,-254.59 203.656,-207.092 149.109,-187.61"/>
<polygon fill="midnightblue" stroke="midnightblue" points="398.493,-280.393 409.088,-280.46 400.848,-273.8 398.493,-280.393"/>
</g>
<!-- Node24&#45;&gt;Node4 -->
<g id="edge36" class="edge"><title>Node24&#45;&gt;Node4</title>
<path fill="none" stroke="midnightblue" d="M524,-269.805C524,-260.91 524,-250.78 524,-243.751"/>
<polygon fill="midnightblue" stroke="midnightblue" points="520.5,-270.083 524,-280.083 527.5,-270.083 520.5,-270.083"/>
</g>
<!-- Node24&#45;&gt;Node16 -->
<g id="edge37" class="edge"><title>Node24&#45;&gt;Node16</title>
<path fill="none" stroke="midnightblue" d="M490.573,-276.865C428.804,-254.44 298.214,-207.032 244.665,-187.591"/>
<polygon fill="midnightblue" stroke="midnightblue" points="489.63,-280.246 500.224,-280.368 492.019,-273.666 489.63,-280.246"/>
</g>
<!-- Node25&#45;&gt;Node4 -->
<g id="edge39" class="edge"><title>Node25&#45;&gt;Node4</title>
<path fill="none" stroke="midnightblue" d="M621.609,-276.503C597.8,-266.38 564.894,-252.388 544.029,-243.516"/>
<polygon fill="midnightblue" stroke="midnightblue" points="620.304,-279.751 630.876,-280.444 623.043,-273.31 620.304,-279.751"/>
</g>
<!-- Node25&#45;&gt;Node20 -->
<g id="edge40" class="edge"><title>Node25&#45;&gt;Node20</title>
<path fill="none" stroke="midnightblue" d="M672.559,-274.714C707.539,-251.535 775.605,-206.43 804.035,-187.591"/>
<polygon fill="midnightblue" stroke="midnightblue" points="670.428,-271.927 664.026,-280.368 674.295,-277.762 670.428,-271.927"/>
</g>
</g>
</svg>
        <g id="navigator" transform="translate(0 0)" fill="#404254">
                <rect fill="#f2f5e9" fill-opacity="0.5" stroke="#606060" stroke-width=".5" x="0" y="0" width="60" height="60"/>
                <use id="zoomplus" xlink:href="#zoomPlus" x="17" y="9" onmousedown="handleZoom(evt,'in')"/>
                <use id="zoomminus" xlink:href="#zoomMin" x="42" y="9" onmousedown="handleZoom(evt,'out')"/>
                <use id="reset" xlink:href="#resetDef" x="30" y="36" onmousedown="handleReset()"/>
                <g id="arrowUp" xlink:href="#dirArrow" transform="translate(30 24)" onmousedown="handlePan(0,-1)">
                  <use xlink:href="#rim" fill="#404040">
                        <set attributeName="fill" to="#808080" begin="arrowUp.mouseover" end="arrowUp.mouseout"/>
                  </use>
                  <path fill="none" stroke="white" stroke-width="1.5" d="M0,-3.0v7 M-2.5,-0.5L0,-3.0L2.5,-0.5"/>
                </g>
                <g id="arrowRight" xlink:href="#dirArrow" transform="rotate(90) translate(36 -43)" onmousedown="handlePan(1,0)">
                  <use xlink:href="#rim" fill="#404040">
                        <set attributeName="fill" to="#808080" begin="arrowRight.mouseover" end="arrowRight.mouseout"/>
                  </use>
                  <path fill="none" stroke="white" stroke-width="1.5" d="M0,-3.0v7 M-2.5,-0.5L0,-3.0L2.5,-0.5"/>
                </g>
                <g id="arrowDown" xlink:href="#dirArrow" transform="rotate(180) translate(-30 -48)" onmousedown="handlePan(0,1)">
                  <use xlink:href="#rim" fill="#404040">
                        <set attributeName="fill" to="#808080" begin="arrowDown.mouseover" end="arrowDown.mouseout"/>
                  </use>
                  <path fill="none" stroke="white" stroke-width="1.5" d="M0,-3.0v7 M-2.5,-0.5L0,-3.0L2.5,-0.5"/>
                </g>
                <g id="arrowLeft" xlink:href="#dirArrow" transform="rotate(270) translate(-36 17)" onmousedown="handlePan(-1,0)">
                  <use xlink:href="#rim" fill="#404040">
                        <set attributeName="fill" to="#808080" begin="arrowLeft.mouseover" end="arrowLeft.mouseout"/>
                  </use>
                  <path fill="none" stroke="white" stroke-width="1.5" d="M0,-3.0v7 M-2.5,-0.5L0,-3.0L2.5,-0.5"/>
                </g>
        </g>
        <svg viewBox="0 0 15 15" width="100%" height="30px" preserveAspectRatio="xMaxYMin meet">
         <g id="arrow_out" transform="scale(0.3 0.3)">
          <a xlink:href="cccc__tbl_8cc__dep__incl_org.svg" target="_base">
           <rect id="button" ry="5" rx="5" y="6" x="6" height="38" width="38"
                fill="#f2f5e9" fill-opacity="0.5" stroke="#606060" stroke-width="1.0"/>
           <path id="arrow"
             d="M 11.500037,31.436501 C 11.940474,20.09759 22.043105,11.32322 32.158766,21.979434 L 37.068811,17.246167 C 37.068811,17.246167 37.088388,32 37.088388,32 L 22.160133,31.978069 C 22.160133,31.978069 26.997745,27.140456 26.997745,27.140456 C 18.528582,18.264221 13.291696,25.230495 11.500037,31.436501 z"
             style="fill:#404040;"/>
          </a>
         </g>
        </svg>
</svg>
