<?xml version="1.0" encoding="UTF-8" standalone="no"?>
<!DOCTYPE svg PUBLIC "-//W3C//DTD SVG 1.1//EN"
 "http://www.w3.org/Graphics/SVG/1.1/DTD/svg11.dtd">
<!-- Generated by graphviz version 2.38.0 (20140413.2041)
 -->
<!-- Title: cccc_met.h Pages: 1 -->
<svg width="870pt" height="532pt"
 viewBox="0.00 0.00 869.50 532.00" xmlns="http://www.w3.org/2000/svg" xmlns:xlink="http://www.w3.org/1999/xlink">
<g id="graph0" class="graph" transform="scale(1 1) rotate(0) translate(4 528)">
<title>cccc_met.h</title>
<polygon fill="white" stroke="none" points="-4,4 -4,-528 865.5,-528 865.5,4 -4,4"/>
<!-- Node1 -->
<g id="node1" class="node"><title>Node1</title>
<polygon fill="#bfbfbf" stroke="black" points="239.5,-504.5 239.5,-523.5 308.5,-523.5 308.5,-504.5 239.5,-504.5"/>
<text text-anchor="middle" x="274" y="-511.5" font-family="Helvetica,sans-Serif" font-size="10.00">cccc_met.h</text>
</g>
<!-- Node2 -->
<g id="node2" class="node"><title>Node2</title>
<polygon fill="white" stroke="#bfbfbf" points="26.5,-56.5 26.5,-75.5 69.5,-75.5 69.5,-56.5 26.5,-56.5"/>
<text text-anchor="middle" x="48" y="-63.5" font-family="Helvetica,sans-Serif" font-size="10.00">string</text>
</g>
<!-- Node1&#45;&gt;Node2 -->
<g id="edge1" class="edge"><title>Node1&#45;&gt;Node2</title>
<path fill="none" stroke="midnightblue" d="M239.298,-506.654C165.568,-492.181 0,-454.003 0,-403 0,-403 0,-403 0,-177 0,-141.585 21.1592,-104.707 35.3807,-83.9203"/>
<polygon fill="midnightblue" stroke="midnightblue" points="38.38,-85.7421 41.3258,-75.565 32.6765,-81.6838 38.38,-85.7421"/>
</g>
<!-- Node3 -->
<g id="node3" class="node"><title>Node3</title>
<g id="a_node3"><a xlink:href="../../d7/d44/cccc__db_8h.html" target="_top" xlink:title="cccc_db.h">
<polygon fill="white" stroke="black" points="242.5,-448.5 242.5,-467.5 305.5,-467.5 305.5,-448.5 242.5,-448.5"/>
<text text-anchor="middle" x="274" y="-455.5" font-family="Helvetica,sans-Serif" font-size="10.00">cccc_db.h</text>
</a>
</g>
</g>
<!-- Node1&#45;&gt;Node3 -->
<g id="edge2" class="edge"><title>Node1&#45;&gt;Node3</title>
<path fill="none" stroke="midnightblue" d="M274,-504.083C274,-497.006 274,-486.861 274,-477.986"/>
<polygon fill="midnightblue" stroke="midnightblue" points="277.5,-477.751 274,-467.751 270.5,-477.751 277.5,-477.751"/>
</g>
<!-- Node24 -->
<g id="node24" class="node"><title>Node24</title>
<g id="a_node24"><a xlink:href="../../dd/d1e/cccc__itm_8h.html" target="_top" xlink:title="cccc_itm.h">
<polygon fill="white" stroke="black" points="492.5,-168.5 492.5,-187.5 557.5,-187.5 557.5,-168.5 492.5,-168.5"/>
<text text-anchor="middle" x="525" y="-175.5" font-family="Helvetica,sans-Serif" font-size="10.00">cccc_itm.h</text>
</a>
</g>
</g>
<!-- Node1&#45;&gt;Node24 -->
<g id="edge47" class="edge"><title>Node1&#45;&gt;Node24</title>
<path fill="none" stroke="midnightblue" d="M308.753,-512.387C375.039,-509.182 513,-491.842 513,-403 513,-403 513,-403 513,-289 513,-256.758 518.158,-219.512 521.711,-197.681"/>
<polygon fill="midnightblue" stroke="midnightblue" points="525.212,-197.967 523.431,-187.523 518.31,-196.798 525.212,-197.967"/>
</g>
<!-- Node4 -->
<g id="node4" class="node"><title>Node4</title>
<g id="a_node4"><a xlink:href="../../d0/d84/cccc_8h.html" target="_top" xlink:title="cccc.h">
<polygon fill="white" stroke="black" points="416,-112.5 416,-131.5 462,-131.5 462,-112.5 416,-112.5"/>
<text text-anchor="middle" x="439" y="-119.5" font-family="Helvetica,sans-Serif" font-size="10.00">cccc.h</text>
</a>
</g>
</g>
<!-- Node3&#45;&gt;Node4 -->
<g id="edge3" class="edge"><title>Node3&#45;&gt;Node4</title>
<path fill="none" stroke="midnightblue" d="M305.595,-457.521C343.722,-456.392 407.382,-448.613 445,-412 466.568,-391.008 464,-377.098 464,-347 464,-347 464,-347 464,-233 464,-199.995 453.166,-162.774 445.762,-141.192"/>
<polygon fill="midnightblue" stroke="midnightblue" points="449.028,-139.93 442.372,-131.687 442.435,-142.282 449.028,-139.93"/>
</g>
<!-- Node17 -->
<g id="node17" class="node"><title>Node17</title>
<g id="a_node17"><a xlink:href="../../d3/d11/cccc__ext_8h.html" target="_top" xlink:title="cccc_ext.h">
<polygon fill="white" stroke="black" points="38,-280.5 38,-299.5 104,-299.5 104,-280.5 38,-280.5"/>
<text text-anchor="middle" x="71" y="-287.5" font-family="Helvetica,sans-Serif" font-size="10.00">cccc_ext.h</text>
</a>
</g>
</g>
<!-- Node3&#45;&gt;Node17 -->
<g id="edge18" class="edge"><title>Node3&#45;&gt;Node17</title>
<path fill="none" stroke="midnightblue" d="M242.338,-455.192C187.86,-451.347 80.0122,-440.274 57,-412 32.9592,-382.462 49.672,-334.601 61.6966,-308.815"/>
<polygon fill="midnightblue" stroke="midnightblue" points="64.8541,-310.325 66.131,-299.808 58.5739,-307.233 64.8541,-310.325"/>
</g>
<!-- Node21 -->
<g id="node21" class="node"><title>Node21</title>
<g id="a_node21"><a xlink:href="../../df/de9/cccc__rec_8h.html" target="_top" xlink:title="cccc_rec.h">
<polygon fill="white" stroke="black" points="169.5,-336.5 169.5,-355.5 236.5,-355.5 236.5,-336.5 169.5,-336.5"/>
<text text-anchor="middle" x="203" y="-343.5" font-family="Helvetica,sans-Serif" font-size="10.00">cccc_rec.h</text>
</a>
</g>
</g>
<!-- Node3&#45;&gt;Node21 -->
<g id="edge26" class="edge"><title>Node3&#45;&gt;Node21</title>
<path fill="none" stroke="midnightblue" d="M287.028,-448.331C304.173,-435.825 330.624,-412.025 317,-392 301.326,-368.962 271.856,-357.718 246.806,-352.231"/>
<polygon fill="midnightblue" stroke="midnightblue" points="247.236,-348.749 236.752,-350.275 245.9,-355.62 247.236,-348.749"/>
</g>
<!-- Node25 -->
<g id="node25" class="node"><title>Node25</title>
<g id="a_node25"><a xlink:href="../../d1/da4/cccc__prj_8h.html" target="_top" xlink:title="cccc_prj.h">
<polygon fill="white" stroke="black" points="66,-392.5 66,-411.5 130,-411.5 130,-392.5 66,-392.5"/>
<text text-anchor="middle" x="98" y="-399.5" font-family="Helvetica,sans-Serif" font-size="10.00">cccc_prj.h</text>
</a>
</g>
</g>
<!-- Node3&#45;&gt;Node25 -->
<g id="edge38" class="edge"><title>Node3&#45;&gt;Node25</title>
<path fill="none" stroke="midnightblue" d="M246.112,-448.444C216.246,-439.28 168.685,-424.688 135.544,-414.519"/>
<polygon fill="midnightblue" stroke="midnightblue" points="136.344,-411.104 125.757,-411.516 134.291,-417.796 136.344,-411.104"/>
</g>
<!-- Node26 -->
<g id="node26" class="node"><title>Node26</title>
<g id="a_node26"><a xlink:href="../../df/d69/cccc__mod_8h.html" target="_top" xlink:title="cccc_mod.h">
<polygon fill="white" stroke="black" points="364,-392.5 364,-411.5 436,-411.5 436,-392.5 364,-392.5"/>
<text text-anchor="middle" x="400" y="-399.5" font-family="Helvetica,sans-Serif" font-size="10.00">cccc_mod.h</text>
</a>
</g>
</g>
<!-- Node3&#45;&gt;Node26 -->
<g id="edge40" class="edge"><title>Node3&#45;&gt;Node26</title>
<path fill="none" stroke="midnightblue" d="M293.965,-448.444C314.609,-439.596 347.063,-425.687 370.632,-415.586"/>
<polygon fill="midnightblue" stroke="midnightblue" points="372.316,-418.673 380.128,-411.516 369.558,-412.239 372.316,-418.673"/>
</g>
<!-- Node27 -->
<g id="node27" class="node"><title>Node27</title>
<g id="a_node27"><a xlink:href="../../dc/da1/cccc__mem_8h.html" target="_top" xlink:title="cccc_mem.h">
<polygon fill="white" stroke="black" points="148,-392.5 148,-411.5 222,-411.5 222,-392.5 148,-392.5"/>
<text text-anchor="middle" x="185" y="-399.5" font-family="Helvetica,sans-Serif" font-size="10.00">cccc_mem.h</text>
</a>
</g>
</g>
<!-- Node3&#45;&gt;Node27 -->
<g id="edge43" class="edge"><title>Node3&#45;&gt;Node27</title>
<path fill="none" stroke="midnightblue" d="M259.701,-448.324C245.817,-439.9 224.508,-426.971 208.196,-417.074"/>
<polygon fill="midnightblue" stroke="midnightblue" points="209.629,-413.85 199.264,-411.655 205.998,-419.834 209.629,-413.85"/>
</g>
<!-- Node28 -->
<g id="node28" class="node"><title>Node28</title>
<g id="a_node28"><a xlink:href="../../d4/d96/cccc__use_8h.html" target="_top" xlink:title="cccc_use.h">
<polygon fill="white" stroke="black" points="240,-392.5 240,-411.5 308,-411.5 308,-392.5 240,-392.5"/>
<text text-anchor="middle" x="274" y="-399.5" font-family="Helvetica,sans-Serif" font-size="10.00">cccc_use.h</text>
</a>
</g>
</g>
<!-- Node3&#45;&gt;Node28 -->
<g id="edge45" class="edge"><title>Node3&#45;&gt;Node28</title>
<path fill="none" stroke="midnightblue" d="M274,-448.083C274,-441.006 274,-430.861 274,-421.986"/>
<polygon fill="midnightblue" stroke="midnightblue" points="277.5,-421.751 274,-411.751 270.5,-421.751 277.5,-421.751"/>
</g>
<!-- Node4&#45;&gt;Node2 -->
<g id="edge10" class="edge"><title>Node4&#45;&gt;Node2</title>
<path fill="none" stroke="midnightblue" d="M415.741,-118.894C359.06,-113.576 209.396,-98.413 86,-76 83.9154,-75.6214 81.7736,-75.2011 79.6194,-74.7549"/>
<polygon fill="midnightblue" stroke="midnightblue" points="80.1401,-71.2854 69.6196,-72.5382 78.6251,-78.1195 80.1401,-71.2854"/>
</g>
<!-- Node5 -->
<g id="node5" class="node"><title>Node5</title>
<polygon fill="white" stroke="#bfbfbf" points="346.5,-56.5 346.5,-75.5 397.5,-75.5 397.5,-56.5 346.5,-56.5"/>
<text text-anchor="middle" x="372" y="-63.5" font-family="Helvetica,sans-Serif" font-size="10.00">cassert</text>
</g>
<!-- Node4&#45;&gt;Node5 -->
<g id="edge4" class="edge"><title>Node4&#45;&gt;Node5</title>
<path fill="none" stroke="midnightblue" d="M428.235,-112.324C418.234,-104.263 403.113,-92.0765 391.07,-82.3695"/>
<polygon fill="midnightblue" stroke="midnightblue" points="392.943,-79.3841 382.961,-75.8339 388.55,-84.8343 392.943,-79.3841"/>
</g>
<!-- Node6 -->
<g id="node6" class="node"><title>Node6</title>
<polygon fill="white" stroke="#bfbfbf" points="816.5,-56.5 816.5,-75.5 861.5,-75.5 861.5,-56.5 816.5,-56.5"/>
<text text-anchor="middle" x="839" y="-63.5" font-family="Helvetica,sans-Serif" font-size="10.00">cmath</text>
</g>
<!-- Node4&#45;&gt;Node6 -->
<g id="edge5" class="edge"><title>Node4&#45;&gt;Node6</title>
<path fill="none" stroke="midnightblue" d="M462.018,-119.412C518.823,-115.234 670.303,-102.524 806.206,-75.8517"/>
<polygon fill="midnightblue" stroke="midnightblue" points="807.256,-79.2114 816.378,-73.823 805.887,-72.3466 807.256,-79.2114"/>
</g>
<!-- Node7 -->
<g id="node7" class="node"><title>Node7</title>
<polygon fill="white" stroke="#bfbfbf" points="416,-56.5 416,-75.5 460,-75.5 460,-56.5 416,-56.5"/>
<text text-anchor="middle" x="438" y="-63.5" font-family="Helvetica,sans-Serif" font-size="10.00">cstdio</text>
</g>
<!-- Node4&#45;&gt;Node7 -->
<g id="edge6" class="edge"><title>Node4&#45;&gt;Node7</title>
<path fill="none" stroke="midnightblue" d="M438.835,-112.083C438.704,-105.006 438.516,-94.8611 438.352,-85.9865"/>
<polygon fill="midnightblue" stroke="midnightblue" points="441.847,-85.6845 438.162,-75.7511 434.848,-85.8142 441.847,-85.6845"/>
</g>
<!-- Node8 -->
<g id="node8" class="node"><title>Node8</title>
<polygon fill="white" stroke="#bfbfbf" points="478,-56.5 478,-75.5 526,-75.5 526,-56.5 478,-56.5"/>
<text text-anchor="middle" x="502" y="-63.5" font-family="Helvetica,sans-Serif" font-size="10.00">cstring</text>
</g>
<!-- Node4&#45;&gt;Node8 -->
<g id="edge7" class="edge"><title>Node4&#45;&gt;Node8</title>
<path fill="none" stroke="midnightblue" d="M449.122,-112.324C458.526,-104.263 472.744,-92.0765 484.069,-82.3695"/>
<polygon fill="midnightblue" stroke="midnightblue" points="486.379,-84.9993 491.694,-75.8339 481.823,-79.6844 486.379,-84.9993"/>
</g>
<!-- Node9 -->
<g id="node9" class="node"><title>Node9</title>
<polygon fill="white" stroke="#bfbfbf" points="544,-56.5 544,-75.5 590,-75.5 590,-56.5 544,-56.5"/>
<text text-anchor="middle" x="567" y="-63.5" font-family="Helvetica,sans-Serif" font-size="10.00">cstdlib</text>
</g>
<!-- Node4&#45;&gt;Node9 -->
<g id="edge8" class="edge"><title>Node4&#45;&gt;Node9</title>
<path fill="none" stroke="midnightblue" d="M459.282,-112.444C480.347,-103.557 513.517,-89.5632 537.486,-79.4514"/>
<polygon fill="midnightblue" stroke="midnightblue" points="538.96,-82.6283 546.813,-75.5164 536.239,-76.1787 538.96,-82.6283"/>
</g>
<!-- Node10 -->
<g id="node10" class="node"><title>Node10</title>
<polygon fill="white" stroke="#bfbfbf" points="608.5,-56.5 608.5,-75.5 655.5,-75.5 655.5,-56.5 608.5,-56.5"/>
<text text-anchor="middle" x="632" y="-63.5" font-family="Helvetica,sans-Serif" font-size="10.00">cctype</text>
</g>
<!-- Node4&#45;&gt;Node10 -->
<g id="edge9" class="edge"><title>Node4&#45;&gt;Node10</title>
<path fill="none" stroke="midnightblue" d="M462.28,-114.486C496.241,-104.984 559.551,-87.2707 598.512,-76.3697"/>
<polygon fill="midnightblue" stroke="midnightblue" points="599.648,-79.6863 608.335,-73.6212 597.762,-72.9452 599.648,-79.6863"/>
</g>
<!-- Node11 -->
<g id="node11" class="node"><title>Node11</title>
<polygon fill="white" stroke="#bfbfbf" points="95.5,-56.5 95.5,-75.5 152.5,-75.5 152.5,-56.5 95.5,-56.5"/>
<text text-anchor="middle" x="124" y="-63.5" font-family="Helvetica,sans-Serif" font-size="10.00">iostream</text>
</g>
<!-- Node4&#45;&gt;Node11 -->
<g id="edge11" class="edge"><title>Node4&#45;&gt;Node11</title>
<path fill="none" stroke="midnightblue" d="M415.934,-117.36C369.374,-109.965 260.85,-92.4833 170,-76 167.635,-75.571 165.204,-75.1212 162.753,-74.6611"/>
<polygon fill="midnightblue" stroke="midnightblue" points="163.166,-71.1767 152.687,-72.7388 161.853,-78.0525 163.166,-71.1767"/>
</g>
<!-- Node12 -->
<g id="node12" class="node"><title>Node12</title>
<polygon fill="white" stroke="#bfbfbf" points="674,-56.5 674,-75.5 728,-75.5 728,-56.5 674,-56.5"/>
<text text-anchor="middle" x="701" y="-63.5" font-family="Helvetica,sans-Serif" font-size="10.00">sstream</text>
</g>
<!-- Node4&#45;&gt;Node12 -->
<g id="edge12" class="edge"><title>Node4&#45;&gt;Node12</title>
<path fill="none" stroke="midnightblue" d="M462.177,-116.769C501.516,-109.505 584.081,-93.9065 663.709,-76.205"/>
<polygon fill="midnightblue" stroke="midnightblue" points="664.913,-79.5224 673.907,-73.9227 663.384,-72.6914 664.913,-79.5224"/>
</g>
<!-- Node13 -->
<g id="node13" class="node"><title>Node13</title>
<polygon fill="white" stroke="#bfbfbf" points="746,-56.5 746,-75.5 798,-75.5 798,-56.5 746,-56.5"/>
<text text-anchor="middle" x="772" y="-63.5" font-family="Helvetica,sans-Serif" font-size="10.00">fstream</text>
</g>
<!-- Node4&#45;&gt;Node13 -->
<g id="edge13" class="edge"><title>Node4&#45;&gt;Node13</title>
<path fill="none" stroke="midnightblue" d="M462.325,-118.299C511.208,-112.464 628.117,-97.5983 735.652,-76.1032"/>
<polygon fill="midnightblue" stroke="midnightblue" points="736.586,-79.485 745.693,-74.0707 735.198,-72.6242 736.586,-79.485"/>
</g>
<!-- Node14 -->
<g id="node14" class="node"><title>Node14</title>
<g id="a_node14"><a xlink:href="../../d1/d7d/cccc__tok_8h.html" target="_top" xlink:title="cccc_tok.h">
<polygon fill="white" stroke="black" points="262,-56.5 262,-75.5 328,-75.5 328,-56.5 262,-56.5"/>
<text text-anchor="middle" x="295" y="-63.5" font-family="Helvetica,sans-Serif" font-size="10.00">cccc_tok.h</text>
</a>
</g>
</g>
<!-- Node4&#45;&gt;Node14 -->
<g id="edge14" class="edge"><title>Node4&#45;&gt;Node14</title>
<path fill="none" stroke="midnightblue" d="M415.767,-114.051C390.046,-105.273 349.011,-90.0174 321.935,-79.2613"/>
<polygon fill="midnightblue" stroke="midnightblue" points="323.229,-76.0094 312.645,-75.5225 320.615,-82.5031 323.229,-76.0094"/>
</g>
<!-- Node16 -->
<g id="node16" class="node"><title>Node16</title>
<polygon fill="white" stroke="#bfbfbf" points="179.5,-56.5 179.5,-75.5 242.5,-75.5 242.5,-56.5 179.5,-56.5"/>
<text text-anchor="middle" x="211" y="-63.5" font-family="Helvetica,sans-Serif" font-size="10.00">AParser.h</text>
</g>
<!-- Node4&#45;&gt;Node16 -->
<g id="edge17" class="edge"><title>Node4&#45;&gt;Node16</title>
<path fill="none" stroke="midnightblue" d="M415.883,-115.525C377.517,-106.438 300.177,-88.121 252.267,-76.7737"/>
<polygon fill="midnightblue" stroke="midnightblue" points="253.052,-73.3629 242.514,-74.4639 251.439,-80.1745 253.052,-73.3629"/>
</g>
<!-- Node14&#45;&gt;Node4 -->
<g id="edge15" class="edge"><title>Node14&#45;&gt;Node4</title>
<path fill="none" stroke="midnightblue" d="M322.79,-75.5164C348.516,-84.4274 386.286,-98.504 411.811,-108.638"/>
<polygon fill="midnightblue" stroke="midnightblue" points="410.688,-111.958 421.272,-112.444 413.3,-105.464 410.688,-111.958"/>
</g>
<!-- Node15 -->
<g id="node15" class="node"><title>Node15</title>
<polygon fill="white" stroke="#bfbfbf" points="264,-0.5 264,-19.5 326,-19.5 326,-0.5 264,-0.5"/>
<text text-anchor="middle" x="295" y="-7.5" font-family="Helvetica,sans-Serif" font-size="10.00">AToken.h</text>
</g>
<!-- Node14&#45;&gt;Node15 -->
<g id="edge16" class="edge"><title>Node14&#45;&gt;Node15</title>
<path fill="none" stroke="midnightblue" d="M295,-56.083C295,-49.0059 295,-38.8611 295,-29.9865"/>
<polygon fill="midnightblue" stroke="midnightblue" points="298.5,-29.751 295,-19.7511 291.5,-29.7511 298.5,-29.751"/>
</g>
<!-- Node17&#45;&gt;Node2 -->
<g id="edge19" class="edge"><title>Node17&#45;&gt;Node2</title>
<path fill="none" stroke="midnightblue" d="M69.4934,-280.396C67.9501,-271.356 65.5617,-256.713 64,-244 56.9637,-186.723 51.6685,-118.662 49.3261,-86.1468"/>
<polygon fill="midnightblue" stroke="midnightblue" points="52.7955,-85.5898 48.5989,-75.8616 45.8129,-86.0836 52.7955,-85.5898"/>
</g>
<!-- Node18 -->
<g id="node18" class="node"><title>Node18</title>
<g id="a_node18"><a xlink:href="../../d7/d8f/cccc__utl_8h.html" target="_top" xlink:title="cccc_utl.h">
<polygon fill="white" stroke="black" points="191,-224.5 191,-243.5 253,-243.5 253,-224.5 191,-224.5"/>
<text text-anchor="middle" x="222" y="-231.5" font-family="Helvetica,sans-Serif" font-size="10.00">cccc_utl.h</text>
</a>
</g>
</g>
<!-- Node17&#45;&gt;Node18 -->
<g id="edge20" class="edge"><title>Node17&#45;&gt;Node18</title>
<path fill="none" stroke="midnightblue" d="M94.9264,-280.444C120.219,-271.399 160.302,-257.064 188.68,-246.916"/>
<polygon fill="midnightblue" stroke="midnightblue" points="189.948,-250.179 198.186,-243.516 187.591,-243.588 189.948,-250.179"/>
</g>
<!-- Node18&#45;&gt;Node4 -->
<g id="edge21" class="edge"><title>Node18&#45;&gt;Node4</title>
<path fill="none" stroke="midnightblue" d="M243.84,-224.396C265.115,-215.817 298.219,-201.944 326,-188 358.212,-171.832 394.075,-150.626 416.582,-136.907"/>
<polygon fill="midnightblue" stroke="midnightblue" points="418.667,-139.734 425.361,-131.522 415.007,-133.767 418.667,-139.734"/>
</g>
<!-- Node18&#45;&gt;Node14 -->
<g id="edge24" class="edge"><title>Node18&#45;&gt;Node14</title>
<path fill="none" stroke="midnightblue" d="M246.716,-224.48C262.997,-217.438 283.076,-205.692 293,-188 311.095,-155.743 305.249,-110.632 299.832,-85.5991"/>
<polygon fill="midnightblue" stroke="midnightblue" points="303.18,-84.5473 297.461,-75.6284 296.37,-86.1669 303.18,-84.5473"/>
</g>
<!-- Node18&#45;&gt;Node16 -->
<g id="edge25" class="edge"><title>Node18&#45;&gt;Node16</title>
<path fill="none" stroke="midnightblue" d="M221.409,-224.075C219.677,-197.945 214.592,-121.211 212.231,-85.577"/>
<polygon fill="midnightblue" stroke="midnightblue" points="215.721,-85.3148 211.568,-75.5681 208.737,-85.7777 215.721,-85.3148"/>
</g>
<!-- Node19 -->
<g id="node19" class="node"><title>Node19</title>
<polygon fill="white" stroke="#bfbfbf" points="144.5,-168.5 144.5,-187.5 181.5,-187.5 181.5,-168.5 144.5,-168.5"/>
<text text-anchor="middle" x="163" y="-175.5" font-family="Helvetica,sans-Serif" font-size="10.00">map</text>
</g>
<!-- Node18&#45;&gt;Node19 -->
<g id="edge22" class="edge"><title>Node18&#45;&gt;Node19</title>
<path fill="none" stroke="midnightblue" d="M212.521,-224.324C203.799,-216.341 190.657,-204.313 180.102,-194.653"/>
<polygon fill="midnightblue" stroke="midnightblue" points="182.392,-192.004 172.652,-187.834 177.666,-197.167 182.392,-192.004"/>
</g>
<!-- Node20 -->
<g id="node20" class="node"><title>Node20</title>
<polygon fill="white" stroke="#bfbfbf" points="238,-168.5 238,-187.5 284,-187.5 284,-168.5 238,-168.5"/>
<text text-anchor="middle" x="261" y="-175.5" font-family="Helvetica,sans-Serif" font-size="10.00">vector</text>
</g>
<!-- Node18&#45;&gt;Node20 -->
<g id="edge23" class="edge"><title>Node18&#45;&gt;Node20</title>
<path fill="none" stroke="midnightblue" d="M228.44,-224.083C233.949,-216.455 242.031,-205.264 248.765,-195.941"/>
<polygon fill="midnightblue" stroke="midnightblue" points="251.662,-197.907 254.68,-187.751 245.987,-193.809 251.662,-197.907"/>
</g>
<!-- Node21&#45;&gt;Node17 -->
<g id="edge36" class="edge"><title>Node21&#45;&gt;Node17</title>
<path fill="none" stroke="midnightblue" d="M182.084,-336.444C160.264,-327.517 125.85,-313.439 101.108,-303.317"/>
<polygon fill="midnightblue" stroke="midnightblue" points="102.399,-300.063 91.8179,-299.516 99.7482,-306.542 102.399,-300.063"/>
</g>
<!-- Node21&#45;&gt;Node18 -->
<g id="edge37" class="edge"><title>Node21&#45;&gt;Node18</title>
<path fill="none" stroke="midnightblue" d="M204.491,-336.368C207.557,-318.617 214.63,-277.666 218.788,-253.597"/>
<polygon fill="midnightblue" stroke="midnightblue" points="222.263,-254.041 220.516,-243.591 215.365,-252.85 222.263,-254.041"/>
</g>
<!-- Node22 -->
<g id="node22" class="node"><title>Node22</title>
<g id="a_node22"><a xlink:href="../../df/dd4/cccc__tbl_8h.html" target="_top" xlink:title="cccc_tbl.h">
<polygon fill="white" stroke="black" points="132,-280.5 132,-299.5 194,-299.5 194,-280.5 132,-280.5"/>
<text text-anchor="middle" x="163" y="-287.5" font-family="Helvetica,sans-Serif" font-size="10.00">cccc_tbl.h</text>
</a>
</g>
</g>
<!-- Node21&#45;&gt;Node22 -->
<g id="edge27" class="edge"><title>Node21&#45;&gt;Node22</title>
<path fill="none" stroke="midnightblue" d="M196.395,-336.083C190.745,-328.455 182.455,-317.264 175.549,-307.941"/>
<polygon fill="midnightblue" stroke="midnightblue" points="178.247,-305.703 169.482,-299.751 172.622,-309.87 178.247,-305.703"/>
</g>
<!-- Node22&#45;&gt;Node2 -->
<g id="edge29" class="edge"><title>Node22&#45;&gt;Node2</title>
<path fill="none" stroke="midnightblue" d="M158.492,-280.297C141.427,-247.356 80.5823,-129.898 57.2234,-84.8052"/>
<polygon fill="midnightblue" stroke="midnightblue" points="60.3094,-83.1532 52.6019,-75.8837 54.0939,-86.373 60.3094,-83.1532"/>
</g>
<!-- Node22&#45;&gt;Node11 -->
<g id="edge28" class="edge"><title>Node22&#45;&gt;Node11</title>
<path fill="none" stroke="midnightblue" d="M160.074,-280.475C154.282,-263.236 141.372,-222.906 135,-188 128.457,-152.156 125.736,-109.595 124.658,-85.6994"/>
<polygon fill="midnightblue" stroke="midnightblue" points="128.15,-85.4312 124.251,-75.5799 121.155,-85.7124 128.15,-85.4312"/>
</g>
<!-- Node22&#45;&gt;Node19 -->
<g id="edge30" class="edge"><title>Node22&#45;&gt;Node19</title>
<path fill="none" stroke="midnightblue" d="M163,-280.368C163,-262.617 163,-221.666 163,-197.597"/>
<polygon fill="midnightblue" stroke="midnightblue" points="166.5,-197.591 163,-187.591 159.5,-197.591 166.5,-197.591"/>
</g>
<!-- Node23 -->
<g id="node23" class="node"><title>Node23</title>
<g id="a_node23"><a xlink:href="../../d1/d17/cccc__tbl_8cc.html" target="_top" xlink:title="cccc_tbl.cc">
<polygon fill="white" stroke="black" points="301.5,-224.5 301.5,-243.5 368.5,-243.5 368.5,-224.5 301.5,-224.5"/>
<text text-anchor="middle" x="335" y="-231.5" font-family="Helvetica,sans-Serif" font-size="10.00">cccc_tbl.cc</text>
</a>
</g>
</g>
<!-- Node22&#45;&gt;Node23 -->
<g id="edge31" class="edge"><title>Node22&#45;&gt;Node23</title>
<path fill="none" stroke="midnightblue" d="M185.165,-280.444C212.46,-271.241 259.036,-256.562 293.102,-246.388"/>
<polygon fill="midnightblue" stroke="midnightblue" points="294.2,-249.713 302.794,-243.516 292.211,-243.001 294.2,-249.713"/>
</g>
<!-- Node23&#45;&gt;Node5 -->
<g id="edge35" class="edge"><title>Node23&#45;&gt;Node5</title>
<path fill="none" stroke="midnightblue" d="M336.989,-224.075C342.813,-197.945 359.917,-121.211 367.859,-85.577"/>
<polygon fill="midnightblue" stroke="midnightblue" points="371.331,-86.0901 370.09,-75.5681 364.498,-84.5671 371.331,-86.0901"/>
</g>
<!-- Node23&#45;&gt;Node22 -->
<g id="edge34" class="edge"><title>Node23&#45;&gt;Node22</title>
<path fill="none" stroke="midnightblue" d="M312.864,-243.547C285.289,-252.845 238.001,-267.742 203.835,-277.929"/>
<polygon fill="midnightblue" stroke="midnightblue" points="202.729,-274.606 194.132,-280.799 204.714,-281.319 202.729,-274.606"/>
</g>
<!-- Node23&#45;&gt;Node24 -->
<g id="edge32" class="edge"><title>Node23&#45;&gt;Node24</title>
<path fill="none" stroke="midnightblue" d="M365.106,-224.444C397.626,-215.201 449.579,-200.436 485.391,-190.257"/>
<polygon fill="midnightblue" stroke="midnightblue" points="486.373,-193.617 495.035,-187.516 484.459,-186.884 486.373,-193.617"/>
</g>
<!-- Node24&#45;&gt;Node4 -->
<g id="edge33" class="edge"><title>Node24&#45;&gt;Node4</title>
<path fill="none" stroke="midnightblue" d="M511.183,-168.324C497.767,-159.9 477.176,-146.971 461.414,-137.074"/>
<polygon fill="midnightblue" stroke="midnightblue" points="463.113,-134.008 452.783,-131.655 459.391,-139.936 463.113,-134.008"/>
</g>
<!-- Node25&#45;&gt;Node21 -->
<g id="edge39" class="edge"><title>Node25&#45;&gt;Node21</title>
<path fill="none" stroke="midnightblue" d="M114.87,-392.324C131.709,-383.664 157.807,-370.242 177.238,-360.249"/>
<polygon fill="midnightblue" stroke="midnightblue" points="178.88,-363.341 186.172,-355.655 175.678,-357.116 178.88,-363.341"/>
</g>
<!-- Node26&#45;&gt;Node4 -->
<g id="edge41" class="edge"><title>Node26&#45;&gt;Node4</title>
<path fill="none" stroke="midnightblue" d="M403.506,-392.325C410.603,-373.959 426,-329.658 426,-291 426,-291 426,-291 426,-233 426,-200.576 431.639,-163.146 435.49,-141.369"/>
<polygon fill="midnightblue" stroke="midnightblue" points="438.935,-141.985 437.3,-131.517 432.05,-140.72 438.935,-141.985"/>
</g>
<!-- Node26&#45;&gt;Node21 -->
<g id="edge42" class="edge"><title>Node26&#45;&gt;Node21</title>
<path fill="none" stroke="midnightblue" d="M368.785,-392.444C335.067,-383.201 281.2,-368.436 244.068,-358.257"/>
<polygon fill="midnightblue" stroke="midnightblue" points="244.639,-354.785 234.069,-355.516 242.788,-361.536 244.639,-354.785"/>
</g>
<!-- Node27&#45;&gt;Node21 -->
<g id="edge44" class="edge"><title>Node27&#45;&gt;Node21</title>
<path fill="none" stroke="midnightblue" d="M187.972,-392.083C190.384,-384.849 193.864,-374.409 196.868,-365.397"/>
<polygon fill="midnightblue" stroke="midnightblue" points="200.241,-366.345 200.083,-355.751 193.6,-364.131 200.241,-366.345"/>
</g>
<!-- Node28&#45;&gt;Node21 -->
<g id="edge46" class="edge"><title>Node28&#45;&gt;Node21</title>
<path fill="none" stroke="midnightblue" d="M262.593,-392.324C251.891,-384.185 235.659,-371.839 222.837,-362.087"/>
<polygon fill="midnightblue" stroke="midnightblue" points="224.693,-359.102 214.615,-355.834 220.456,-364.673 224.693,-359.102"/>
</g>
</g>
</svg>
