<?xml version="1.0" encoding="UTF-8" standalone="no"?>
<!DOCTYPE svg PUBLIC "-//W3C//DTD SVG 1.1//EN"
 "http://www.w3.org/Graphics/SVG/1.1/DTD/svg11.dtd">
<!-- Generated by graphviz version 2.38.0 (20140413.2041)
 -->
<!-- Title: Source_Anchor::Emit_NAME Pages: 1 -->
<svg width="407pt" height="47pt"
 viewBox="0.00 0.00 407.00 47.00" xmlns="http://www.w3.org/2000/svg" xmlns:xlink="http://www.w3.org/1999/xlink">
<g id="graph0" class="graph" transform="scale(1 1) rotate(0) translate(4 43)">
<title>Source_Anchor::Emit_NAME</title>
<polygon fill="white" stroke="none" points="-4,4 -4,-43 403,-43 403,4 -4,4"/>
<!-- Node1 -->
<g id="node1" class="node"><title>Node1</title>
<polygon fill="#bfbfbf" stroke="black" points="0,-0.5 0,-19.5 150,-19.5 150,-0.5 0,-0.5"/>
<text text-anchor="middle" x="75" y="-7.5" font-family="Helvetica,sans-Serif" font-size="10.00">Source_Anchor::Emit_NAME</text>
</g>
<!-- Node2 -->
<g id="node2" class="node"><title>Node2</title>
<g id="a_node2"><a xlink:href="../../db/d32/classSource__Anchor.html#a3e3ea787709997b47dec6fa0898282d3" target="_top" xlink:title="Source_Anchor::key">
<polygon fill="white" stroke="black" points="186,-19.5 186,-38.5 296,-38.5 296,-19.5 186,-19.5"/>
<text text-anchor="middle" x="241" y="-26.5" font-family="Helvetica,sans-Serif" font-size="10.00">Source_Anchor::key</text>
</a>
</g>
</g>
<!-- Node1&#45;&gt;Node2 -->
<g id="edge1" class="edge"><title>Node1&#45;&gt;Node2</title>
<path fill="none" stroke="midnightblue" d="M150.323,-18.6105C158.758,-19.5878 167.303,-20.5777 175.595,-21.5385"/>
<polygon fill="midnightblue" stroke="midnightblue" points="175.225,-25.0189 185.561,-22.6931 176.031,-18.0654 175.225,-25.0189"/>
</g>
<!-- Node3 -->
<g id="node3" class="node"><title>Node3</title>
<g id="a_node3"><a xlink:href="../../d5/dcb/cccc__htm_8cc.html#a9a5628effcbc935d95ee7fc5b7d81647" target="_top" xlink:title="pad_string">
<polygon fill="white" stroke="black" points="332,-0.5 332,-19.5 399,-19.5 399,-0.5 332,-0.5"/>
<text text-anchor="middle" x="365.5" y="-7.5" font-family="Helvetica,sans-Serif" font-size="10.00">pad_string</text>
</a>
</g>
</g>
<!-- Node1&#45;&gt;Node3 -->
<g id="edge3" class="edge"><title>Node1&#45;&gt;Node3</title>
<path fill="none" stroke="midnightblue" d="M150.296,-10C204.662,-10 276.52,-10 321.629,-10"/>
<polygon fill="midnightblue" stroke="midnightblue" points="321.662,-13.5001 331.662,-10 321.662,-6.5001 321.662,-13.5001"/>
</g>
<!-- Node2&#45;&gt;Node3 -->
<g id="edge2" class="edge"><title>Node2&#45;&gt;Node3</title>
<path fill="none" stroke="midnightblue" d="M296.087,-20.611C304.649,-19.2829 313.401,-17.9255 321.661,-16.6445"/>
<polygon fill="midnightblue" stroke="midnightblue" points="322.463,-20.062 331.808,-15.0706 321.39,-13.1447 322.463,-20.062"/>
</g>
</g>
</svg>
