<?xml version="1.0" encoding="UTF-8" standalone="no"?>
<!DOCTYPE svg PUBLIC "-//W3C//DTD SVG 1.1//EN"
 "http://www.w3.org/Graphics/SVG/1.1/DTD/svg11.dtd">
<!-- Generated by graphviz version 2.38.0 (20140413.2041)
 -->
<!-- Title: Source_Anchor::Emit_HREF Pages: 1 -->
<svg width="405pt" height="28pt"
 viewBox="0.00 0.00 405.00 28.00" xmlns="http://www.w3.org/2000/svg" xmlns:xlink="http://www.w3.org/1999/xlink">
<g id="graph0" class="graph" transform="scale(1 1) rotate(0) translate(4 24)">
<title>Source_Anchor::Emit_HREF</title>
<polygon fill="white" stroke="none" points="-4,4 -4,-24 401,-24 401,4 -4,4"/>
<!-- Node1 -->
<g id="node1" class="node"><title>Node1</title>
<polygon fill="#bfbfbf" stroke="black" points="0,-0.5 0,-19.5 148,-19.5 148,-0.5 0,-0.5"/>
<text text-anchor="middle" x="74" y="-7.5" font-family="Helvetica,sans-Serif" font-size="10.00">Source_Anchor::Emit_HREF</text>
</g>
<!-- Node2 -->
<g id="node2" class="node"><title>Node2</title>
<g id="a_node2"><a xlink:href="../../db/d32/classSource__Anchor.html#a3e3ea787709997b47dec6fa0898282d3" target="_top" xlink:title="Source_Anchor::key">
<polygon fill="white" stroke="black" points="184,-0.5 184,-19.5 294,-19.5 294,-0.5 184,-0.5"/>
<text text-anchor="middle" x="239" y="-7.5" font-family="Helvetica,sans-Serif" font-size="10.00">Source_Anchor::key</text>
</a>
</g>
</g>
<!-- Node1&#45;&gt;Node2 -->
<g id="edge1" class="edge"><title>Node1&#45;&gt;Node2</title>
<path fill="none" stroke="midnightblue" d="M148.394,-10C156.712,-10 165.144,-10 173.338,-10"/>
<polygon fill="midnightblue" stroke="midnightblue" points="173.564,-13.5001 183.564,-10 173.564,-6.5001 173.564,-13.5001"/>
</g>
<!-- Node3 -->
<g id="node3" class="node"><title>Node3</title>
<g id="a_node3"><a xlink:href="../../d5/dcb/cccc__htm_8cc.html#a9a5628effcbc935d95ee7fc5b7d81647" target="_top" xlink:title="pad_string">
<polygon fill="white" stroke="black" points="330,-0.5 330,-19.5 397,-19.5 397,-0.5 330,-0.5"/>
<text text-anchor="middle" x="363.5" y="-7.5" font-family="Helvetica,sans-Serif" font-size="10.00">pad_string</text>
</a>
</g>
</g>
<!-- Node2&#45;&gt;Node3 -->
<g id="edge2" class="edge"><title>Node2&#45;&gt;Node3</title>
<path fill="none" stroke="midnightblue" d="M294.087,-10C302.649,-10 311.401,-10 319.661,-10"/>
<polygon fill="midnightblue" stroke="midnightblue" points="319.808,-13.5001 329.808,-10 319.808,-6.5001 319.808,-13.5001"/>
</g>
</g>
</svg>
