<?xml version="1.0" encoding="UTF-8" standalone="no"?>
<!DOCTYPE svg PUBLIC "-//W3C//DTD SVG 1.1//EN"
 "http://www.w3.org/Graphics/SVG/1.1/DTD/svg11.dtd">
<!-- Generated by graphviz version 2.38.0 (20140413.2041)
 -->
<!-- Title: main Pages: 1 -->
<svg width="1122pt" height="933pt"
 viewBox="0.00 0.00 1122.00 933.00" xmlns="http://www.w3.org/2000/svg" xmlns:xlink="http://www.w3.org/1999/xlink">
<g id="graph0" class="graph" transform="scale(1 1) rotate(0) translate(4 929)">
<title>main</title>
<polygon fill="white" stroke="none" points="-4,4 -4,-929 1118,-929 1118,4 -4,4"/>
<!-- Node1 -->
<g id="node1" class="node"><title>Node1</title>
<polygon fill="#bfbfbf" stroke="black" points="0,-174.5 0,-193.5 39,-193.5 39,-174.5 0,-174.5"/>
<text text-anchor="middle" x="19.5" y="-181.5" font-family="Helvetica,sans-Serif" font-size="10.00">main</text>
</g>
<!-- Node2 -->
<g id="node2" class="node"><title>Node2</title>
<g id="a_node2"><a xlink:href="../../db/d4a/classMain.html#a5628fe4502c55f833e7279fec307f775" target="_top" xlink:title="Main::HandleArgs">
<polygon fill="white" stroke="black" points="287.5,-791.5 287.5,-810.5 387.5,-810.5 387.5,-791.5 287.5,-791.5"/>
<text text-anchor="middle" x="337.5" y="-798.5" font-family="Helvetica,sans-Serif" font-size="10.00">Main::HandleArgs</text>
</a>
</g>
</g>
<!-- Node1&#45;&gt;Node2 -->
<g id="edge1" class="edge"><title>Node1&#45;&gt;Node2</title>
<path fill="none" stroke="midnightblue" d="M21.2672,-193.852C24.2168,-228.046 36.6515,-344.245 75,-431 141.726,-581.954 274.738,-734.011 320.555,-783.96"/>
<polygon fill="midnightblue" stroke="midnightblue" points="318.013,-786.365 327.37,-791.334 323.154,-781.615 318.013,-786.365"/>
</g>
<!-- Node16 -->
<g id="node16" class="node"><title>Node16</title>
<g id="a_node16"><a xlink:href="../../db/d4a/classMain.html#a31b1c07522a8edca18e640eb54c2c12c" target="_top" xlink:title="Main::PrintCredits">
<polygon fill="white" stroke="black" points="95,-240.5 95,-259.5 195,-259.5 195,-240.5 95,-240.5"/>
<text text-anchor="middle" x="145" y="-247.5" font-family="Helvetica,sans-Serif" font-size="10.00">Main::PrintCredits</text>
</a>
</g>
</g>
<!-- Node1&#45;&gt;Node16 -->
<g id="edge18" class="edge"><title>Node1&#45;&gt;Node16</title>
<path fill="none" stroke="midnightblue" d="M29.6211,-193.839C39.7665,-204.233 57.0986,-220.415 75,-230 79.9479,-232.649 85.2884,-234.985 90.7305,-237.036"/>
<polygon fill="midnightblue" stroke="midnightblue" points="89.9785,-240.478 100.573,-240.425 92.2578,-233.86 89.9785,-240.478"/>
</g>
<!-- Node17 -->
<g id="node17" class="node"><title>Node17</title>
<g id="a_node17"><a xlink:href="../../d6/d85/classCCCC__Record.html#a06a849607bc79cf49a3499e93a419690" target="_top" xlink:title="CCCC_Record::set_active\l_project">
<polygon fill="white" stroke="black" points="75,-191 75,-221 215,-221 215,-191 75,-191"/>
<text text-anchor="start" x="83" y="-209" font-family="Helvetica,sans-Serif" font-size="10.00">CCCC_Record::set_active</text>
<text text-anchor="middle" x="145" y="-198" font-family="Helvetica,sans-Serif" font-size="10.00">_project</text>
</a>
</g>
</g>
<!-- Node1&#45;&gt;Node17 -->
<g id="edge19" class="edge"><title>Node1&#45;&gt;Node17</title>
<path fill="none" stroke="midnightblue" d="M39.257,-187.341C46.5188,-188.635 55.3554,-190.209 64.784,-191.889"/>
<polygon fill="midnightblue" stroke="midnightblue" points="64.3238,-195.362 74.7826,-193.67 65.5515,-188.47 64.3238,-195.362"/>
</g>
<!-- Node18 -->
<g id="node18" class="node"><title>Node18</title>
<g id="a_node18"><a xlink:href="../../db/d4a/classMain.html#a803470658c644fa9512140f9d8398dd5" target="_top" xlink:title="Main::ParseFiles">
<polygon fill="white" stroke="black" points="98,-152.5 98,-171.5 192,-171.5 192,-152.5 98,-152.5"/>
<text text-anchor="middle" x="145" y="-159.5" font-family="Helvetica,sans-Serif" font-size="10.00">Main::ParseFiles</text>
</a>
</g>
</g>
<!-- Node1&#45;&gt;Node18 -->
<g id="edge20" class="edge"><title>Node1&#45;&gt;Node18</title>
<path fill="none" stroke="midnightblue" d="M39.257,-180.659C52.2307,-178.348 70.2309,-175.141 87.6531,-172.038"/>
<polygon fill="midnightblue" stroke="midnightblue" points="88.5707,-175.429 97.8018,-170.23 87.343,-168.538 88.5707,-175.429"/>
</g>
<!-- Node20 -->
<g id="node20" class="node"><title>Node20</title>
<g id="a_node20"><a xlink:href="../../db/d4a/classMain.html#a9082bf8ff8a45db54491a19dd342f454" target="_top" xlink:title="Main::filesParsed">
<polygon fill="white" stroke="black" points="96.5,-114.5 96.5,-133.5 193.5,-133.5 193.5,-114.5 96.5,-114.5"/>
<text text-anchor="middle" x="145" y="-121.5" font-family="Helvetica,sans-Serif" font-size="10.00">Main::filesParsed</text>
</a>
</g>
</g>
<!-- Node1&#45;&gt;Node20 -->
<g id="edge22" class="edge"><title>Node1&#45;&gt;Node20</title>
<path fill="none" stroke="midnightblue" d="M30.9642,-174.203C41.3856,-164.936 58.2108,-151.252 75,-143 79.6886,-140.695 84.6984,-138.635 89.7975,-136.802"/>
<polygon fill="midnightblue" stroke="midnightblue" points="91.2528,-140.007 99.6522,-133.55 89.059,-133.36 91.2528,-140.007"/>
</g>
<!-- Node21 -->
<g id="node21" class="node"><title>Node21</title>
<g id="a_node21"><a xlink:href="../../d4/d6e/classCCCC__Project.html#a9e618e858690b526180d7af22b0d48df" target="_top" xlink:title="CCCC_Project::reindex">
<polygon fill="white" stroke="black" points="480.5,-276.5 480.5,-295.5 605.5,-295.5 605.5,-276.5 480.5,-276.5"/>
<text text-anchor="middle" x="543" y="-283.5" font-family="Helvetica,sans-Serif" font-size="10.00">CCCC_Project::reindex</text>
</a>
</g>
</g>
<!-- Node1&#45;&gt;Node21 -->
<g id="edge23" class="edge"><title>Node1&#45;&gt;Node21</title>
<path fill="none" stroke="midnightblue" d="M23.3441,-193.576C29.3945,-212.023 45.4624,-252.146 75,-269 210.532,-346.334 406.02,-317.059 494.868,-297.717"/>
<polygon fill="midnightblue" stroke="midnightblue" points="495.658,-301.126 504.655,-295.531 494.133,-294.295 495.658,-301.126"/>
</g>
<!-- Node32 -->
<g id="node32" class="node"><title>Node32</title>
<g id="a_node32"><a xlink:href="../../db/d4a/classMain.html#a73e7ee7cdbee235ec767f6d66b595b5e" target="_top" xlink:title="Main::DumpDatabase">
<polygon fill="white" stroke="black" points="87,-402.5 87,-421.5 203,-421.5 203,-402.5 87,-402.5"/>
<text text-anchor="middle" x="145" y="-409.5" font-family="Helvetica,sans-Serif" font-size="10.00">Main::DumpDatabase</text>
</a>
</g>
</g>
<!-- Node1&#45;&gt;Node32 -->
<g id="edge34" class="edge"><title>Node1&#45;&gt;Node32</title>
<path fill="none" stroke="midnightblue" d="M24.4761,-193.685C32.9664,-214.106 53.826,-262.912 75,-302 93.0523,-335.325 117.153,-372.321 131.571,-393.793"/>
<polygon fill="midnightblue" stroke="midnightblue" points="128.785,-395.921 137.286,-402.244 134.583,-392 128.785,-395.921"/>
</g>
<!-- Node38 -->
<g id="node38" class="node"><title>Node38</title>
<g id="a_node38"><a xlink:href="../../db/d4a/classMain.html#a41e7f9ccdd5f0029949137c8c5ac8ece" target="_top" xlink:title="Main::GenerateHtml">
<polygon fill="white" stroke="black" points="90,-76.5 90,-95.5 200,-95.5 200,-76.5 90,-76.5"/>
<text text-anchor="middle" x="145" y="-83.5" font-family="Helvetica,sans-Serif" font-size="10.00">Main::GenerateHtml</text>
</a>
</g>
</g>
<!-- Node1&#45;&gt;Node38 -->
<g id="edge61" class="edge"><title>Node1&#45;&gt;Node38</title>
<path fill="none" stroke="midnightblue" d="M24.4701,-174.347C31.8572,-157.608 49.3293,-123.241 75,-105 77.7346,-103.057 80.66,-101.312 83.7054,-99.7457"/>
<polygon fill="midnightblue" stroke="midnightblue" points="85.4115,-102.818 93.131,-95.5611 82.5711,-96.4199 85.4115,-102.818"/>
</g>
<!-- Node43 -->
<g id="node43" class="node"><title>Node43</title>
<g id="a_node43"><a xlink:href="../../db/d4a/classMain.html#a5aadc21ea7eee4faac32fb0e07c24f53" target="_top" xlink:title="Main::GenerateXml">
<polygon fill="white" stroke="black" points="91.5,-38.5 91.5,-57.5 198.5,-57.5 198.5,-38.5 91.5,-38.5"/>
<text text-anchor="middle" x="145" y="-45.5" font-family="Helvetica,sans-Serif" font-size="10.00">Main::GenerateXml</text>
</a>
</g>
</g>
<!-- Node1&#45;&gt;Node43 -->
<g id="edge66" class="edge"><title>Node1&#45;&gt;Node43</title>
<path fill="none" stroke="midnightblue" d="M22.1376,-174.479C26.4839,-152.175 40.4321,-96.2219 75,-67 77.2684,-65.0824 79.7149,-63.3572 82.2864,-61.8053"/>
<polygon fill="midnightblue" stroke="midnightblue" points="84.097,-64.8116 91.434,-57.1683 80.932,-58.5679 84.097,-64.8116"/>
</g>
<!-- Node46 -->
<g id="node46" class="node"><title>Node46</title>
<g id="a_node46"><a xlink:href="../../db/d4a/classMain.html#a152ac81c89c95b64e509adec2d4f97ec" target="_top" xlink:title="Main::DescribeOutput">
<polygon fill="white" stroke="black" points="87,-0.5 87,-19.5 203,-19.5 203,-0.5 87,-0.5"/>
<text text-anchor="middle" x="145" y="-7.5" font-family="Helvetica,sans-Serif" font-size="10.00">Main::DescribeOutput</text>
</a>
</g>
</g>
<!-- Node1&#45;&gt;Node46 -->
<g id="edge69" class="edge"><title>Node1&#45;&gt;Node46</title>
<path fill="none" stroke="midnightblue" d="M20.9284,-174.357C22.668,-147.243 31.4074,-69.6673 75,-29 76.6978,-27.4161 78.5155,-25.9622 80.4264,-24.6278"/>
<polygon fill="midnightblue" stroke="midnightblue" points="82.3985,-27.5311 89.3198,-19.5094 78.9068,-21.4641 82.3985,-27.5311"/>
</g>
<!-- Node3 -->
<g id="node3" class="node"><title>Node3</title>
<g id="a_node3"><a xlink:href="../../db/d4a/classMain.html#a95f10823dcf768a027a2c856fd6974a1" target="_top" xlink:title="Main::AddFileArgument">
<polygon fill="white" stroke="black" points="480.5,-791.5 480.5,-810.5 605.5,-810.5 605.5,-791.5 480.5,-791.5"/>
<text text-anchor="middle" x="543" y="-798.5" font-family="Helvetica,sans-Serif" font-size="10.00">Main::AddFileArgument</text>
</a>
</g>
</g>
<!-- Node2&#45;&gt;Node3 -->
<g id="edge2" class="edge"><title>Node2&#45;&gt;Node3</title>
<path fill="none" stroke="midnightblue" d="M387.502,-801C412.218,-801 442.673,-801 469.992,-801"/>
<polygon fill="midnightblue" stroke="midnightblue" points="470.29,-804.5 480.29,-801 470.29,-797.5 470.29,-804.5"/>
</g>
<!-- Node4 -->
<g id="node4" class="node"><title>Node4</title>
<g id="a_node4"><a xlink:href="../../db/d4a/classMain.html#a22ae8a510707f18617cdd6bbb9233849" target="_top" xlink:title="Main::PrintUsage">
<polygon fill="white" stroke="black" points="689.5,-848.5 689.5,-867.5 786.5,-867.5 786.5,-848.5 689.5,-848.5"/>
<text text-anchor="middle" x="738" y="-855.5" font-family="Helvetica,sans-Serif" font-size="10.00">Main::PrintUsage</text>
</a>
</g>
</g>
<!-- Node2&#45;&gt;Node4 -->
<g id="edge3" class="edge"><title>Node2&#45;&gt;Node4</title>
<path fill="none" stroke="midnightblue" d="M387.536,-808.883C409.66,-812.384 436.13,-816.497 460,-820 535.73,-831.115 623.262,-842.954 679.325,-850.409"/>
<polygon fill="midnightblue" stroke="midnightblue" points="679.043,-853.902 689.417,-851.749 679.965,-846.963 679.043,-853.902"/>
</g>
<!-- Node5 -->
<g id="node5" class="node"><title>Node5</title>
<g id="a_node5"><a xlink:href="../../db/d4a/classMain.html#ac291abc87469adcdbecb2a26e10651b3" target="_top" xlink:title="Main::HandleReportOption">
<polygon fill="white" stroke="black" points="472,-867.5 472,-886.5 614,-886.5 614,-867.5 472,-867.5"/>
<text text-anchor="middle" x="543" y="-874.5" font-family="Helvetica,sans-Serif" font-size="10.00">Main::HandleReportOption</text>
</a>
</g>
</g>
<!-- Node2&#45;&gt;Node5 -->
<g id="edge4" class="edge"><title>Node2&#45;&gt;Node5</title>
<path fill="none" stroke="midnightblue" d="M358.839,-810.594C382.731,-821.654 423.719,-839.98 460,-853 471.562,-857.149 484.224,-861.126 496.065,-864.607"/>
<polygon fill="midnightblue" stroke="midnightblue" points="495.198,-867.999 505.776,-867.407 497.138,-861.273 495.198,-867.999"/>
</g>
<!-- Node6 -->
<g id="node6" class="node"><title>Node6</title>
<g id="a_node6"><a xlink:href="../../db/d4a/classMain.html#a7bd82c65138e28bc4479a1601557e583" target="_top" xlink:title="Main::HandleDebugOption">
<polygon fill="white" stroke="black" points="473,-905.5 473,-924.5 613,-924.5 613,-905.5 473,-905.5"/>
<text text-anchor="middle" x="543" y="-912.5" font-family="Helvetica,sans-Serif" font-size="10.00">Main::HandleDebugOption</text>
</a>
</g>
</g>
<!-- Node2&#45;&gt;Node6 -->
<g id="edge6" class="edge"><title>Node2&#45;&gt;Node6</title>
<path fill="none" stroke="midnightblue" d="M347.883,-810.778C367.051,-830.154 412.886,-873.494 460,-896 465.027,-898.401 470.376,-900.509 475.838,-902.357"/>
<polygon fill="midnightblue" stroke="midnightblue" points="475.162,-905.811 485.749,-905.41 477.223,-899.121 475.162,-905.811"/>
</g>
<!-- Node7 -->
<g id="node7" class="node"><title>Node7</title>
<g id="a_node7"><a xlink:href="../../d4/d7f/classCCCC__Options.html#aabf76e7a9edb17ce2eb3ef45359230b7" target="_top" xlink:title="CCCC_Options::Load\l_Options">
<polygon fill="white" stroke="black" points="484,-742 484,-772 602,-772 602,-742 484,-742"/>
<text text-anchor="start" x="492" y="-760" font-family="Helvetica,sans-Serif" font-size="10.00">CCCC_Options::Load</text>
<text text-anchor="middle" x="543" y="-749" font-family="Helvetica,sans-Serif" font-size="10.00">_Options</text>
</a>
</g>
</g>
<!-- Node2&#45;&gt;Node7 -->
<g id="edge7" class="edge"><title>Node2&#45;&gt;Node7</title>
<path fill="none" stroke="midnightblue" d="M382.656,-791.453C409.228,-785.708 443.612,-778.273 473.635,-771.782"/>
<polygon fill="midnightblue" stroke="midnightblue" points="474.597,-775.154 483.632,-769.62 473.118,-768.313 474.597,-775.154"/>
</g>
<!-- Node13 -->
<g id="node13" class="node"><title>Node13</title>
<g id="a_node13"><a xlink:href="../../d4/d7f/classCCCC__Options.html#a27c73dee154b41fe008291e9df449b48" target="_top" xlink:title="CCCC_Options::Save\l_Options">
<polygon fill="white" stroke="black" points="484,-693 484,-723 602,-723 602,-693 484,-693"/>
<text text-anchor="start" x="492" y="-711" font-family="Helvetica,sans-Serif" font-size="10.00">CCCC_Options::Save</text>
<text text-anchor="middle" x="543" y="-700" font-family="Helvetica,sans-Serif" font-size="10.00">_Options</text>
</a>
</g>
</g>
<!-- Node2&#45;&gt;Node13 -->
<g id="edge15" class="edge"><title>Node2&#45;&gt;Node13</title>
<path fill="none" stroke="midnightblue" d="M353.312,-791.329C375.681,-777.049 419.754,-750.162 460,-733 465.438,-730.681 471.162,-728.48 476.953,-726.416"/>
<polygon fill="midnightblue" stroke="midnightblue" points="478.393,-729.623 486.723,-723.075 476.128,-722.999 478.393,-729.623"/>
</g>
<!-- Node5&#45;&gt;Node4 -->
<g id="edge5" class="edge"><title>Node5&#45;&gt;Node4</title>
<path fill="none" stroke="midnightblue" d="M614.223,-870.087C635.614,-867.981 658.87,-865.692 679.331,-863.677"/>
<polygon fill="midnightblue" stroke="midnightblue" points="679.83,-867.145 689.439,-862.682 679.144,-860.179 679.83,-867.145"/>
</g>
<!-- Node8 -->
<g id="node8" class="node"><title>Node8</title>
<g id="a_node8"><a xlink:href="../../d4/d7f/classCCCC__Options.html#ace084425ddde7d4c19657d7e13677ffc" target="_top" xlink:title="CCCC_Options::Add_Option">
<polygon fill="white" stroke="black" points="663,-747.5 663,-766.5 813,-766.5 813,-747.5 663,-747.5"/>
<text text-anchor="middle" x="738" y="-754.5" font-family="Helvetica,sans-Serif" font-size="10.00">CCCC_Options::Add_Option</text>
</a>
</g>
</g>
<!-- Node7&#45;&gt;Node8 -->
<g id="edge8" class="edge"><title>Node7&#45;&gt;Node8</title>
<path fill="none" stroke="midnightblue" d="M602.168,-757C617.977,-757 635.426,-757 652.377,-757"/>
<polygon fill="midnightblue" stroke="midnightblue" points="652.849,-760.5 662.849,-757 652.849,-753.5 652.849,-760.5"/>
</g>
<!-- Node9 -->
<g id="node9" class="node"><title>Node9</title>
<g id="a_node9"><a xlink:href="../../db/d6a/classCCCC__Item.html#aa8e1c13780b4a9191d00b85641cdde1d" target="_top" xlink:title="CCCC_Item::Extract">
<polygon fill="white" stroke="black" points="1004,-728.5 1004,-747.5 1114,-747.5 1114,-728.5 1004,-728.5"/>
<text text-anchor="middle" x="1059" y="-735.5" font-family="Helvetica,sans-Serif" font-size="10.00">CCCC_Item::Extract</text>
</a>
</g>
</g>
<!-- Node8&#45;&gt;Node9 -->
<g id="edge9" class="edge"><title>Node8&#45;&gt;Node9</title>
<path fill="none" stroke="midnightblue" d="M813.389,-752.569C868.103,-749.311 941.713,-744.926 993.849,-741.821"/>
<polygon fill="midnightblue" stroke="midnightblue" points="994.204,-745.306 1003.98,-741.218 993.788,-738.318 994.204,-745.306"/>
</g>
<!-- Node10 -->
<g id="node10" class="node"><title>Node10</title>
<g id="a_node10"><a xlink:href="../../d5/d39/cccc__opt_8cc.html#adaf4ab659cf8a851521a34e7b0b44bf5" target="_top" xlink:title="add_file_extension">
<polygon fill="white" stroke="black" points="856,-690.5 856,-709.5 962,-709.5 962,-690.5 856,-690.5"/>
<text text-anchor="middle" x="909" y="-697.5" font-family="Helvetica,sans-Serif" font-size="10.00">add_file_extension</text>
</a>
</g>
</g>
<!-- Node8&#45;&gt;Node10 -->
<g id="edge10" class="edge"><title>Node8&#45;&gt;Node10</title>
<path fill="none" stroke="midnightblue" d="M767.287,-747.459C795.437,-737.965 838.819,-723.333 869.971,-712.826"/>
<polygon fill="midnightblue" stroke="midnightblue" points="871.264,-716.084 879.621,-709.572 869.027,-709.451 871.264,-716.084"/>
</g>
<!-- Node11 -->
<g id="node11" class="node"><title>Node11</title>
<g id="a_node11"><a xlink:href="../../d5/d39/cccc__opt_8cc.html#afe053a52743dabb8c5e585bc2e8761d1" target="_top" xlink:title="add_treatment">
<polygon fill="white" stroke="black" points="866,-766.5 866,-785.5 952,-785.5 952,-766.5 866,-766.5"/>
<text text-anchor="middle" x="909" y="-773.5" font-family="Helvetica,sans-Serif" font-size="10.00">add_treatment</text>
</a>
</g>
</g>
<!-- Node8&#45;&gt;Node11 -->
<g id="edge12" class="edge"><title>Node8&#45;&gt;Node11</title>
<path fill="none" stroke="midnightblue" d="M813.126,-765.334C827.543,-766.955 842.37,-768.621 855.892,-770.142"/>
<polygon fill="midnightblue" stroke="midnightblue" points="855.621,-773.633 865.95,-771.272 856.404,-766.677 855.621,-773.633"/>
</g>
<!-- Node12 -->
<g id="node12" class="node"><title>Node12</title>
<g id="a_node12"><a xlink:href="../../d5/d39/cccc__opt_8cc.html#a1e1d75f7f5aad4c636db40a37b60c382" target="_top" xlink:title="add_dialect_keyword">
<polygon fill="white" stroke="black" points="850.5,-804.5 850.5,-823.5 967.5,-823.5 967.5,-804.5 850.5,-804.5"/>
<text text-anchor="middle" x="909" y="-811.5" font-family="Helvetica,sans-Serif" font-size="10.00">add_dialect_keyword</text>
</a>
</g>
</g>
<!-- Node8&#45;&gt;Node12 -->
<g id="edge13" class="edge"><title>Node8&#45;&gt;Node12</title>
<path fill="none" stroke="midnightblue" d="M766.792,-766.629C789.223,-774.372 821.608,-785.49 850,-795 856.066,-797.032 862.497,-799.162 868.783,-801.231"/>
<polygon fill="midnightblue" stroke="midnightblue" points="867.876,-804.617 878.469,-804.41 870.059,-797.966 867.876,-804.617"/>
</g>
<!-- Node10&#45;&gt;Node9 -->
<g id="edge11" class="edge"><title>Node10&#45;&gt;Node9</title>
<path fill="none" stroke="midnightblue" d="M947.347,-709.589C966.701,-714.558 990.53,-720.677 1011.11,-725.961"/>
<polygon fill="midnightblue" stroke="midnightblue" points="1010.37,-729.383 1020.92,-728.48 1012.11,-722.603 1010.37,-729.383"/>
</g>
<!-- Node12&#45;&gt;Node9 -->
<g id="edge14" class="edge"><title>Node12&#45;&gt;Node9</title>
<path fill="none" stroke="midnightblue" d="M943.98,-804.431C952.007,-801.746 960.429,-798.57 968,-795 992.788,-783.313 1019.03,-766.06 1036.74,-753.599"/>
<polygon fill="midnightblue" stroke="midnightblue" points="1039.07,-756.236 1045.17,-747.574 1035,-750.54 1039.07,-756.236"/>
</g>
<!-- Node14 -->
<g id="node14" class="node"><title>Node14</title>
<g id="a_node14"><a xlink:href="../../db/d6a/classCCCC__Item.html#a87231c9aa43ece932511d1143b64367e" target="_top" xlink:title="CCCC_Item::Insert">
<polygon fill="white" stroke="black" points="857,-578.5 857,-597.5 961,-597.5 961,-578.5 857,-578.5"/>
<text text-anchor="middle" x="909" y="-585.5" font-family="Helvetica,sans-Serif" font-size="10.00">CCCC_Item::Insert</text>
</a>
</g>
</g>
<!-- Node13&#45;&gt;Node14 -->
<g id="edge16" class="edge"><title>Node13&#45;&gt;Node14</title>
<path fill="none" stroke="midnightblue" d="M602.19,-712.032C658.913,-713.607 746.276,-709.648 814,-678 848.925,-661.679 879.052,-627.134 895.262,-605.907"/>
<polygon fill="midnightblue" stroke="midnightblue" points="898.189,-607.836 901.331,-597.718 892.565,-603.668 898.189,-607.836"/>
</g>
<!-- Node15 -->
<g id="node15" class="node"><title>Node15</title>
<g id="a_node15"><a xlink:href="../../db/d6a/classCCCC__Item.html#a5a3ccfe13d6c77b27cf93182f8cafb58" target="_top" xlink:title="CCCC_Item::ToFile">
<polygon fill="white" stroke="black" points="684.5,-578.5 684.5,-597.5 791.5,-597.5 791.5,-578.5 684.5,-578.5"/>
<text text-anchor="middle" x="738" y="-585.5" font-family="Helvetica,sans-Serif" font-size="10.00">CCCC_Item::ToFile</text>
</a>
</g>
</g>
<!-- Node13&#45;&gt;Node15 -->
<g id="edge17" class="edge"><title>Node13&#45;&gt;Node15</title>
<path fill="none" stroke="midnightblue" d="M568.444,-692.802C605.66,-669.662 676.096,-625.867 713.029,-602.904"/>
<polygon fill="midnightblue" stroke="midnightblue" points="715.012,-605.793 721.656,-597.54 711.316,-599.848 715.012,-605.793"/>
</g>
<!-- Node19 -->
<g id="node19" class="node"><title>Node19</title>
<g id="a_node19"><a xlink:href="../../d4/d7f/classCCCC__Options.html#a4f199a59589a51c7e4ab6f0834ac4366" target="_top" xlink:title="CCCC_Options::getFileLanguage">
<polygon fill="white" stroke="black" points="251,-152.5 251,-171.5 424,-171.5 424,-152.5 251,-152.5"/>
<text text-anchor="middle" x="337.5" y="-159.5" font-family="Helvetica,sans-Serif" font-size="10.00">CCCC_Options::getFileLanguage</text>
</a>
</g>
</g>
<!-- Node18&#45;&gt;Node19 -->
<g id="edge21" class="edge"><title>Node18&#45;&gt;Node19</title>
<path fill="none" stroke="midnightblue" d="M192.115,-162C206.935,-162 223.94,-162 240.958,-162"/>
<polygon fill="midnightblue" stroke="midnightblue" points="240.963,-165.5 250.963,-162 240.963,-158.5 240.963,-165.5"/>
</g>
<!-- Node22 -->
<g id="node22" class="node"><title>Node22</title>
<g id="a_node22"><a xlink:href="../../d8/dcf/classCCCC__Table.html#a0d099c7bc984323270cc8c63d5ff8379" target="_top" xlink:title="CCCC_Table::first_item">
<polygon fill="white" stroke="black" points="675,-388.5 675,-407.5 801,-407.5 801,-388.5 675,-388.5"/>
<text text-anchor="middle" x="738" y="-395.5" font-family="Helvetica,sans-Serif" font-size="10.00">CCCC_Table::first_item</text>
</a>
</g>
</g>
<!-- Node21&#45;&gt;Node22 -->
<g id="edge24" class="edge"><title>Node21&#45;&gt;Node22</title>
<path fill="none" stroke="midnightblue" d="M553.424,-295.787C572.248,-314.759 616.608,-356.635 662,-379 666.895,-381.412 672.125,-383.536 677.461,-385.405"/>
<polygon fill="midnightblue" stroke="midnightblue" points="676.538,-388.784 687.129,-388.497 678.67,-382.117 676.538,-388.784"/>
</g>
<!-- Node23 -->
<g id="node23" class="node"><title>Node23</title>
<g id="a_node23"><a xlink:href="../../d6/d85/classCCCC__Record.html#a81bf0541981287180a41e3d801e7a084" target="_top" xlink:title="CCCC_Record::key">
<polygon fill="white" stroke="black" points="684,-350.5 684,-369.5 792,-369.5 792,-350.5 684,-350.5"/>
<text text-anchor="middle" x="738" y="-357.5" font-family="Helvetica,sans-Serif" font-size="10.00">CCCC_Record::key</text>
</a>
</g>
</g>
<!-- Node21&#45;&gt;Node23 -->
<g id="edge25" class="edge"><title>Node21&#45;&gt;Node23</title>
<path fill="none" stroke="midnightblue" d="M561.947,-295.666C584.699,-307.613 625.378,-327.957 662,-341 668.872,-343.448 676.205,-345.712 683.492,-347.76"/>
<polygon fill="midnightblue" stroke="midnightblue" points="682.789,-351.196 693.355,-350.417 684.609,-344.436 682.789,-351.196"/>
</g>
<!-- Node25 -->
<g id="node25" class="node"><title>Node25</title>
<g id="a_node25"><a xlink:href="../../df/d99/classCCCC__Extent.html#a82a7a03bd389c67ba2f5dc7787e89739" target="_top" xlink:title="CCCC_Extent::get_visibility">
<polygon fill="white" stroke="black" points="666.5,-312.5 666.5,-331.5 809.5,-331.5 809.5,-312.5 666.5,-312.5"/>
<text text-anchor="middle" x="738" y="-319.5" font-family="Helvetica,sans-Serif" font-size="10.00">CCCC_Extent::get_visibility</text>
</a>
</g>
</g>
<!-- Node21&#45;&gt;Node25 -->
<g id="edge27" class="edge"><title>Node21&#45;&gt;Node25</title>
<path fill="none" stroke="midnightblue" d="M594.961,-295.506C619.708,-300.122 649.639,-305.705 675.632,-310.553"/>
<polygon fill="midnightblue" stroke="midnightblue" points="675.281,-314.048 685.753,-312.441 676.564,-307.167 675.281,-314.048"/>
</g>
<!-- Node26 -->
<g id="node26" class="node"><title>Node26</title>
<g id="a_node26"><a xlink:href="../../dc/d1e/classCCCC__Member.html#a94e543367fb135dd029a66bd9fb8af5a" target="_top" xlink:title="CCCC_Member::get_visibility">
<polygon fill="white" stroke="black" points="662,-274.5 662,-293.5 814,-293.5 814,-274.5 662,-274.5"/>
<text text-anchor="middle" x="738" y="-281.5" font-family="Helvetica,sans-Serif" font-size="10.00">CCCC_Member::get_visibility</text>
</a>
</g>
</g>
<!-- Node21&#45;&gt;Node26 -->
<g id="edge28" class="edge"><title>Node21&#45;&gt;Node26</title>
<path fill="none" stroke="midnightblue" d="M605.597,-285.362C620.257,-285.21 636.16,-285.045 651.672,-284.884"/>
<polygon fill="midnightblue" stroke="midnightblue" points="651.829,-288.383 661.792,-284.779 651.756,-281.383 651.829,-288.383"/>
</g>
<!-- Node27 -->
<g id="node27" class="node"><title>Node27</title>
<g id="a_node27"><a xlink:href="../../d8/dcf/classCCCC__Table.html#a080274070f7d48b68bd8d3291818d76f" target="_top" xlink:title="CCCC_Table::next_item">
<polygon fill="white" stroke="black" points="673.5,-464.5 673.5,-483.5 802.5,-483.5 802.5,-464.5 673.5,-464.5"/>
<text text-anchor="middle" x="738" y="-471.5" font-family="Helvetica,sans-Serif" font-size="10.00">CCCC_Table::next_item</text>
</a>
</g>
</g>
<!-- Node21&#45;&gt;Node27 -->
<g id="edge29" class="edge"><title>Node21&#45;&gt;Node27</title>
<path fill="none" stroke="midnightblue" d="M551.73,-295.774C569.8,-318.344 616.72,-375.346 662,-417 678.602,-432.272 699.086,-447.634 714.449,-458.556"/>
<polygon fill="midnightblue" stroke="midnightblue" points="712.639,-461.561 722.835,-464.439 716.659,-455.83 712.639,-461.561"/>
</g>
<!-- Node28 -->
<g id="node28" class="node"><title>Node28</title>
<g id="a_node28"><a xlink:href="../../d8/dcf/classCCCC__Table.html#a8e08fe4f6edb07f1fbf2813c66bb3606" target="_top" xlink:title="CCCC_Table::find_or\l_insert">
<polygon fill="white" stroke="black" points="680,-225 680,-255 796,-255 796,-225 680,-225"/>
<text text-anchor="start" x="688" y="-243" font-family="Helvetica,sans-Serif" font-size="10.00">CCCC_Table::find_or</text>
<text text-anchor="middle" x="738" y="-232" font-family="Helvetica,sans-Serif" font-size="10.00">_insert</text>
</a>
</g>
</g>
<!-- Node21&#45;&gt;Node28 -->
<g id="edge30" class="edge"><title>Node21&#45;&gt;Node28</title>
<path fill="none" stroke="midnightblue" d="M583.99,-276.469C608.78,-270.56 641.253,-262.82 669.903,-255.992"/>
<polygon fill="midnightblue" stroke="midnightblue" points="670.943,-259.342 679.859,-253.619 669.32,-252.533 670.943,-259.342"/>
</g>
<!-- Node29 -->
<g id="node29" class="node"><title>Node29</title>
<g id="a_node29"><a xlink:href="../../d6/d9f/classCCCC__Module.html#a2e35b964b59e60393b2af32dd537f505" target="_top" xlink:title="CCCC_Module::is_trivial">
<polygon fill="white" stroke="black" points="673,-186.5 673,-205.5 803,-205.5 803,-186.5 673,-186.5"/>
<text text-anchor="middle" x="738" y="-193.5" font-family="Helvetica,sans-Serif" font-size="10.00">CCCC_Module::is_trivial</text>
</a>
</g>
</g>
<!-- Node21&#45;&gt;Node29 -->
<g id="edge31" class="edge"><title>Node21&#45;&gt;Node29</title>
<path fill="none" stroke="midnightblue" d="M557.116,-276.327C578.2,-261.198 621.394,-231.924 662,-215 667.858,-212.558 674.109,-210.371 680.408,-208.427"/>
<polygon fill="midnightblue" stroke="midnightblue" points="681.66,-211.708 690.296,-205.57 679.717,-204.983 681.66,-211.708"/>
</g>
<!-- Node30 -->
<g id="node30" class="node"><title>Node30</title>
<g id="a_node30"><a xlink:href="../../d8/dcf/classCCCC__Table.html#a814a82c8e3da3598b7c8efa4e0fbacf4" target="_top" xlink:title="CCCC_Table::remove">
<polygon fill="white" stroke="black" points="678.5,-148.5 678.5,-167.5 797.5,-167.5 797.5,-148.5 678.5,-148.5"/>
<text text-anchor="middle" x="738" y="-155.5" font-family="Helvetica,sans-Serif" font-size="10.00">CCCC_Table::remove</text>
</a>
</g>
</g>
<!-- Node21&#45;&gt;Node30 -->
<g id="edge32" class="edge"><title>Node21&#45;&gt;Node30</title>
<path fill="none" stroke="midnightblue" d="M551.43,-276.452C568.527,-255.162 612.969,-203.591 662,-177 666.206,-174.719 670.695,-172.704 675.304,-170.927"/>
<polygon fill="midnightblue" stroke="midnightblue" points="676.587,-174.187 684.887,-167.601 674.292,-167.574 676.587,-174.187"/>
</g>
<!-- Node31 -->
<g id="node31" class="node"><title>Node31</title>
<g id="a_node31"><a xlink:href="../../df/d99/classCCCC__Extent.html#abe27f2b34d0542894c6339274e8d1834" target="_top" xlink:title="CCCC_Extent::get_usetype">
<polygon fill="white" stroke="black" points="665.5,-110.5 665.5,-129.5 810.5,-129.5 810.5,-110.5 665.5,-110.5"/>
<text text-anchor="middle" x="738" y="-117.5" font-family="Helvetica,sans-Serif" font-size="10.00">CCCC_Extent::get_usetype</text>
</a>
</g>
</g>
<!-- Node21&#45;&gt;Node31 -->
<g id="edge33" class="edge"><title>Node21&#45;&gt;Node31</title>
<path fill="none" stroke="midnightblue" d="M548.85,-276.316C562.628,-249.845 604.738,-175.805 662,-139 665.181,-136.955 668.57,-135.13 672.083,-133.502"/>
<polygon fill="midnightblue" stroke="midnightblue" points="673.661,-136.638 681.61,-129.633 671.028,-130.152 673.661,-136.638"/>
</g>
<!-- Node24 -->
<g id="node24" class="node"><title>Node24</title>
<g id="a_node24"><a xlink:href="../../d6/d85/classCCCC__Record.html#a03c15972bea5df4e34930fa4c34e34bd" target="_top" xlink:title="CCCC_Record::name">
<polygon fill="white" stroke="black" points="850,-350.5 850,-369.5 968,-369.5 968,-350.5 850,-350.5"/>
<text text-anchor="middle" x="909" y="-357.5" font-family="Helvetica,sans-Serif" font-size="10.00">CCCC_Record::name</text>
</a>
</g>
</g>
<!-- Node23&#45;&gt;Node24 -->
<g id="edge26" class="edge"><title>Node23&#45;&gt;Node24</title>
<path fill="none" stroke="midnightblue" d="M792.009,-360C807.096,-360 823.747,-360 839.61,-360"/>
<polygon fill="midnightblue" stroke="midnightblue" points="839.897,-363.5 849.897,-360 839.897,-356.5 839.897,-363.5"/>
</g>
<!-- Node33 -->
<g id="node33" class="node"><title>Node33</title>
<g id="a_node33"><a xlink:href="../../d4/d6e/classCCCC__Project.html#ad2b4c25d24f7ed427c79bd9c7bd8a971" target="_top" xlink:title="CCCC_Project::ToFile">
<polygon fill="white" stroke="black" points="278,-490.5 278,-509.5 397,-509.5 397,-490.5 278,-490.5"/>
<text text-anchor="middle" x="337.5" y="-497.5" font-family="Helvetica,sans-Serif" font-size="10.00">CCCC_Project::ToFile</text>
</a>
</g>
</g>
<!-- Node32&#45;&gt;Node33 -->
<g id="edge35" class="edge"><title>Node32&#45;&gt;Node33</title>
<path fill="none" stroke="midnightblue" d="M166.749,-421.585C200.531,-437.19 267.552,-468.15 306.513,-486.148"/>
<polygon fill="midnightblue" stroke="midnightblue" points="305.23,-489.41 315.776,-490.427 308.166,-483.056 305.23,-489.41"/>
</g>
<!-- Node33&#45;&gt;Node14 -->
<g id="edge58" class="edge"><title>Node33&#45;&gt;Node14</title>
<path fill="none" stroke="midnightblue" d="M343.745,-509.522C358.252,-534.728 401.725,-602.968 460,-628 475.54,-634.675 810.636,-624.659 814,-624 836.822,-619.528 861.319,-609.976 879.582,-601.835"/>
<polygon fill="midnightblue" stroke="midnightblue" points="881.147,-604.969 888.779,-597.62 878.23,-598.605 881.147,-604.969"/>
</g>
<!-- Node33&#45;&gt;Node15 -->
<g id="edge60" class="edge"><title>Node33&#45;&gt;Node15</title>
<path fill="none" stroke="midnightblue" d="M345.37,-509.51C362.015,-531.628 407.053,-586.15 460,-606 540.501,-636.18 643.321,-615.556 698.262,-600.279"/>
<polygon fill="midnightblue" stroke="midnightblue" points="699.299,-603.623 707.947,-597.503 697.37,-596.894 699.299,-603.623"/>
</g>
<!-- Node33&#45;&gt;Node22 -->
<g id="edge36" class="edge"><title>Node33&#45;&gt;Node22</title>
<path fill="none" stroke="midnightblue" d="M346.699,-490.337C364.706,-469.941 410.097,-422.902 460,-405 526.316,-381.21 607.414,-382.35 664.676,-387.68"/>
<polygon fill="midnightblue" stroke="midnightblue" points="664.426,-391.173 674.724,-388.681 665.12,-384.207 664.426,-391.173"/>
</g>
<!-- Node33&#45;&gt;Node27 -->
<g id="edge44" class="edge"><title>Node33&#45;&gt;Node27</title>
<path fill="none" stroke="midnightblue" d="M389.751,-490.474C411.356,-486.852 436.823,-483.096 460,-481 528.669,-474.79 607.275,-473.339 663.166,-473.265"/>
<polygon fill="midnightblue" stroke="midnightblue" points="663.329,-476.765 673.33,-473.267 663.33,-469.765 663.329,-476.765"/>
</g>
<!-- Node34 -->
<g id="node34" class="node"><title>Node34</title>
<g id="a_node34"><a xlink:href="../../d6/d9f/classCCCC__Module.html#a6f7f14ae0bef4dec23385b6abf14331f" target="_top" xlink:title="CCCC_Module::ToFile">
<polygon fill="white" stroke="black" points="482.5,-490.5 482.5,-509.5 603.5,-509.5 603.5,-490.5 482.5,-490.5"/>
<text text-anchor="middle" x="543" y="-497.5" font-family="Helvetica,sans-Serif" font-size="10.00">CCCC_Module::ToFile</text>
</a>
</g>
</g>
<!-- Node33&#45;&gt;Node34 -->
<g id="edge37" class="edge"><title>Node33&#45;&gt;Node34</title>
<path fill="none" stroke="midnightblue" d="M397.088,-500C420.512,-500 447.684,-500 472.126,-500"/>
<polygon fill="midnightblue" stroke="midnightblue" points="472.415,-503.5 482.415,-500 472.415,-496.5 472.415,-503.5"/>
</g>
<!-- Node35 -->
<g id="node35" class="node"><title>Node35</title>
<g id="a_node35"><a xlink:href="../../df/d99/classCCCC__Extent.html#a6fed4380d820bfad0a27934a62cf15be" target="_top" xlink:title="CCCC_Extent::AddToItem">
<polygon fill="white" stroke="black" points="668.5,-540.5 668.5,-559.5 807.5,-559.5 807.5,-540.5 668.5,-540.5"/>
<text text-anchor="middle" x="738" y="-547.5" font-family="Helvetica,sans-Serif" font-size="10.00">CCCC_Extent::AddToItem</text>
</a>
</g>
</g>
<!-- Node33&#45;&gt;Node35 -->
<g id="edge59" class="edge"><title>Node33&#45;&gt;Node35</title>
<path fill="none" stroke="midnightblue" d="M395.904,-509.504C416.134,-512.713 439.051,-516.191 460,-519 526.711,-527.945 602.702,-536.321 658.196,-542.106"/>
<polygon fill="midnightblue" stroke="midnightblue" points="658.005,-545.605 668.312,-543.156 658.727,-538.642 658.005,-545.605"/>
</g>
<!-- Node36 -->
<g id="node36" class="node"><title>Node36</title>
<g id="a_node36"><a xlink:href="../../dc/d1e/classCCCC__Member.html#a22edd2264d9f7fb3f80fcf7269b624e1" target="_top" xlink:title="CCCC_Member::ToFile">
<polygon fill="white" stroke="black" points="480.5,-414.5 480.5,-433.5 605.5,-433.5 605.5,-414.5 480.5,-414.5"/>
<text text-anchor="middle" x="543" y="-421.5" font-family="Helvetica,sans-Serif" font-size="10.00">CCCC_Member::ToFile</text>
</a>
</g>
</g>
<!-- Node33&#45;&gt;Node36 -->
<g id="edge45" class="edge"><title>Node33&#45;&gt;Node36</title>
<path fill="none" stroke="midnightblue" d="M358.839,-490.406C382.731,-479.346 423.719,-461.02 460,-448 471.562,-443.851 484.224,-439.874 496.065,-436.393"/>
<polygon fill="midnightblue" stroke="midnightblue" points="497.138,-439.727 505.776,-433.593 495.198,-433.001 497.138,-439.727"/>
</g>
<!-- Node37 -->
<g id="node37" class="node"><title>Node37</title>
<g id="a_node37"><a xlink:href="../../d2/d65/classCCCC__UseRelationship.html#ad5a6c8660690de211b0a40b52313ae05" target="_top" xlink:title="CCCC_UseRelationship\l::ToFile">
<polygon fill="white" stroke="black" points="478,-567 478,-597 608,-597 608,-567 478,-567"/>
<text text-anchor="start" x="486" y="-585" font-family="Helvetica,sans-Serif" font-size="10.00">CCCC_UseRelationship</text>
<text text-anchor="middle" x="543" y="-574" font-family="Helvetica,sans-Serif" font-size="10.00">::ToFile</text>
</a>
</g>
</g>
<!-- Node33&#45;&gt;Node37 -->
<g id="edge52" class="edge"><title>Node33&#45;&gt;Node37</title>
<path fill="none" stroke="midnightblue" d="M359.864,-509.556C384.019,-520.263 424.595,-537.959 460,-552 469.611,-555.811 479.921,-559.721 489.875,-563.407"/>
<polygon fill="midnightblue" stroke="midnightblue" points="488.682,-566.697 499.276,-566.861 491.097,-560.127 488.682,-566.697"/>
</g>
<!-- Node34&#45;&gt;Node14 -->
<g id="edge38" class="edge"><title>Node34&#45;&gt;Node14</title>
<path fill="none" stroke="midnightblue" d="M603.531,-499.586C659.332,-500.871 744.359,-507.169 814,-531 841.622,-540.452 869.796,-558.96 888,-572.327"/>
<polygon fill="midnightblue" stroke="midnightblue" points="885.995,-575.198 896.09,-578.413 890.204,-569.604 885.995,-575.198"/>
</g>
<!-- Node34&#45;&gt;Node15 -->
<g id="edge39" class="edge"><title>Node34&#45;&gt;Node15</title>
<path fill="none" stroke="midnightblue" d="M557.509,-509.618C578.781,-524.356 621.81,-552.544 662,-569 667.955,-571.438 674.308,-573.629 680.701,-575.58"/>
<polygon fill="midnightblue" stroke="midnightblue" points="680.152,-579.064 690.729,-578.45 682.077,-572.334 680.152,-579.064"/>
</g>
<!-- Node34&#45;&gt;Node22 -->
<g id="edge40" class="edge"><title>Node34&#45;&gt;Node22</title>
<path fill="none" stroke="midnightblue" d="M562.157,-490.404C596.211,-472.407 669.831,-433.499 709.819,-412.365"/>
<polygon fill="midnightblue" stroke="midnightblue" points="711.545,-415.412 718.751,-407.645 708.274,-409.223 711.545,-415.412"/>
</g>
<!-- Node34&#45;&gt;Node27 -->
<g id="edge43" class="edge"><title>Node34&#45;&gt;Node27</title>
<path fill="none" stroke="midnightblue" d="M603.745,-491.951C622.505,-489.424 643.445,-486.603 663.066,-483.96"/>
<polygon fill="midnightblue" stroke="midnightblue" points="663.744,-487.4 673.188,-482.596 662.81,-480.463 663.744,-487.4"/>
</g>
<!-- Node34&#45;&gt;Node35 -->
<g id="edge41" class="edge"><title>Node34&#45;&gt;Node35</title>
<path fill="none" stroke="midnightblue" d="M580.756,-509.522C611.779,-517.559 656.384,-529.115 690,-537.824"/>
<polygon fill="midnightblue" stroke="midnightblue" points="689.494,-541.308 700.053,-540.428 691.25,-534.532 689.494,-541.308"/>
</g>
<!-- Node35&#45;&gt;Node14 -->
<g id="edge42" class="edge"><title>Node35&#45;&gt;Node14</title>
<path fill="none" stroke="midnightblue" d="M781.646,-559.589C804.148,-564.649 831.948,-570.9 855.738,-576.249"/>
<polygon fill="midnightblue" stroke="midnightblue" points="855.137,-579.701 865.661,-578.48 856.672,-572.871 855.137,-579.701"/>
</g>
<!-- Node36&#45;&gt;Node14 -->
<g id="edge46" class="edge"><title>Node36&#45;&gt;Node14</title>
<path fill="none" stroke="midnightblue" d="M605.692,-425.309C674.279,-427.759 779.903,-434.796 814,-455 858.825,-481.561 887.823,-538.796 900.554,-568.784"/>
<polygon fill="midnightblue" stroke="midnightblue" points="897.361,-570.222 904.378,-578.159 903.842,-567.578 897.361,-570.222"/>
</g>
<!-- Node36&#45;&gt;Node15 -->
<g id="edge48" class="edge"><title>Node36&#45;&gt;Node15</title>
<path fill="none" stroke="midnightblue" d="M564.017,-433.638C582.332,-443.348 609.081,-459.899 626,-481 652.434,-513.968 630.1,-541.286 662,-569 665.893,-572.382 670.305,-575.177 674.992,-577.485"/>
<polygon fill="midnightblue" stroke="midnightblue" points="673.706,-580.74 684.283,-581.349 676.394,-574.277 673.706,-580.74"/>
</g>
<!-- Node36&#45;&gt;Node22 -->
<g id="edge49" class="edge"><title>Node36&#45;&gt;Node22</title>
<path fill="none" stroke="midnightblue" d="M605.597,-415.702C624.48,-413.158 645.423,-410.337 664.938,-407.708"/>
<polygon fill="midnightblue" stroke="midnightblue" points="665.552,-411.157 674.995,-406.353 664.617,-404.22 665.552,-411.157"/>
</g>
<!-- Node36&#45;&gt;Node23 -->
<g id="edge47" class="edge"><title>Node36&#45;&gt;Node23</title>
<path fill="none" stroke="midnightblue" d="M566.784,-414.405C590.348,-404.696 628.343,-389.641 662,-379 669.564,-376.608 677.63,-374.309 685.564,-372.187"/>
<polygon fill="midnightblue" stroke="midnightblue" points="686.7,-375.507 695.495,-369.599 684.935,-368.734 686.7,-375.507"/>
</g>
<!-- Node36&#45;&gt;Node27 -->
<g id="edge51" class="edge"><title>Node36&#45;&gt;Node27</title>
<path fill="none" stroke="midnightblue" d="M580.756,-433.522C611.779,-441.559 656.384,-453.115 690,-461.824"/>
<polygon fill="midnightblue" stroke="midnightblue" points="689.494,-465.308 700.053,-464.428 691.25,-458.532 689.494,-465.308"/>
</g>
<!-- Node36&#45;&gt;Node35 -->
<g id="edge50" class="edge"><title>Node36&#45;&gt;Node35</title>
<path fill="none" stroke="midnightblue" d="M558.824,-433.678C592.235,-455.49 673.627,-508.627 713.796,-534.851"/>
<polygon fill="midnightblue" stroke="midnightblue" points="712.103,-537.926 722.39,-540.462 715.93,-532.064 712.103,-537.926"/>
</g>
<!-- Node37&#45;&gt;Node14 -->
<g id="edge53" class="edge"><title>Node37&#45;&gt;Node14</title>
<path fill="none" stroke="midnightblue" d="M603.039,-597.031C621.762,-601.117 642.631,-604.971 662,-607 729.188,-614.039 746.78,-613.725 814,-607 829.076,-605.492 845.311,-602.655 859.977,-599.625"/>
<polygon fill="midnightblue" stroke="midnightblue" points="860.801,-603.028 869.846,-597.51 859.335,-596.183 860.801,-603.028"/>
</g>
<!-- Node37&#45;&gt;Node15 -->
<g id="edge54" class="edge"><title>Node37&#45;&gt;Node15</title>
<path fill="none" stroke="midnightblue" d="M608.266,-583.998C629.469,-584.657 653.018,-585.389 674.116,-586.045"/>
<polygon fill="midnightblue" stroke="midnightblue" points="674.152,-589.548 684.256,-586.36 674.37,-582.551 674.152,-589.548"/>
</g>
<!-- Node37&#45;&gt;Node22 -->
<g id="edge55" class="edge"><title>Node37&#45;&gt;Node22</title>
<path fill="none" stroke="midnightblue" d="M568.74,-566.863C586.231,-555.299 609.423,-538.13 626,-519 647.373,-494.337 640.563,-479.607 662,-455 676.458,-438.404 696.443,-423.503 712.148,-413.103"/>
<polygon fill="midnightblue" stroke="midnightblue" points="714.31,-415.874 720.826,-407.521 710.522,-409.987 714.31,-415.874"/>
</g>
<!-- Node37&#45;&gt;Node27 -->
<g id="edge57" class="edge"><title>Node37&#45;&gt;Node27</title>
<path fill="none" stroke="midnightblue" d="M570.836,-566.983C607.822,-546.286 674.043,-509.23 710.729,-488.701"/>
<polygon fill="midnightblue" stroke="midnightblue" points="712.797,-491.555 719.814,-483.617 709.378,-485.446 712.797,-491.555"/>
</g>
<!-- Node37&#45;&gt;Node35 -->
<g id="edge56" class="edge"><title>Node37&#45;&gt;Node35</title>
<path fill="none" stroke="midnightblue" d="M608.266,-571.344C627.966,-568.078 649.69,-564.476 669.593,-561.176"/>
<polygon fill="midnightblue" stroke="midnightblue" points="670.213,-564.621 679.506,-559.533 669.068,-557.716 670.213,-564.621"/>
</g>
<!-- Node39 -->
<g id="node39" class="node"><title>Node39</title>
<g id="a_node39"><a xlink:href="../../d2/d92/classCCCC__Html__Stream.html#a00291e1eff600f8ae50d83b08322592b" target="_top" xlink:title="CCCC_Html_Stream::Generate\lReports">
<polygon fill="white" stroke="black" points="256,-71 256,-101 419,-101 419,-71 256,-71"/>
<text text-anchor="start" x="264" y="-89" font-family="Helvetica,sans-Serif" font-size="10.00">CCCC_Html_Stream::Generate</text>
<text text-anchor="middle" x="337.5" y="-78" font-family="Helvetica,sans-Serif" font-size="10.00">Reports</text>
</a>
</g>
</g>
<!-- Node38&#45;&gt;Node39 -->
<g id="edge62" class="edge"><title>Node38&#45;&gt;Node39</title>
<path fill="none" stroke="midnightblue" d="M200.08,-86C214.337,-86 230.118,-86 245.738,-86"/>
<polygon fill="midnightblue" stroke="midnightblue" points="245.961,-89.5001 255.961,-86 245.961,-82.5001 245.961,-89.5001"/>
</g>
<!-- Node40 -->
<g id="node40" class="node"><title>Node40</title>
<g id="a_node40"><a xlink:href="../../d2/d92/classCCCC__Html__Stream.html#a31acdc68a7ee15c16ef89ceed3591057" target="_top" xlink:title="CCCC_Html_Stream::Table\l_Of_Contents">
<polygon fill="white" stroke="black" points="471,-67 471,-97 615,-97 615,-67 471,-67"/>
<text text-anchor="start" x="479" y="-85" font-family="Helvetica,sans-Serif" font-size="10.00">CCCC_Html_Stream::Table</text>
<text text-anchor="middle" x="543" y="-74" font-family="Helvetica,sans-Serif" font-size="10.00">_Of_Contents</text>
</a>
</g>
</g>
<!-- Node39&#45;&gt;Node40 -->
<g id="edge63" class="edge"><title>Node39&#45;&gt;Node40</title>
<path fill="none" stroke="midnightblue" d="M419.221,-84.4133C432.839,-84.1457 446.982,-83.8677 460.617,-83.5997"/>
<polygon fill="midnightblue" stroke="midnightblue" points="460.998,-87.093 470.927,-83.397 460.86,-80.0943 460.998,-87.093"/>
</g>
<!-- Node41 -->
<g id="node41" class="node"><title>Node41</title>
<g id="a_node41"><a xlink:href="../../d4/d6e/classCCCC__Project.html#ac0565e746210778bc6f165130464041b" target="_top" xlink:title="CCCC_Project::name">
<polygon fill="white" stroke="black" points="680,-72.5 680,-91.5 796,-91.5 796,-72.5 680,-72.5"/>
<text text-anchor="middle" x="738" y="-79.5" font-family="Helvetica,sans-Serif" font-size="10.00">CCCC_Project::name</text>
</a>
</g>
</g>
<!-- Node40&#45;&gt;Node41 -->
<g id="edge64" class="edge"><title>Node40&#45;&gt;Node41</title>
<path fill="none" stroke="midnightblue" d="M615.044,-82C632.924,-82 652.059,-82 669.747,-82"/>
<polygon fill="midnightblue" stroke="midnightblue" points="669.973,-85.5001 679.973,-82 669.973,-78.5001 669.973,-85.5001"/>
</g>
<!-- Node42 -->
<g id="node42" class="node"><title>Node42</title>
<g id="a_node42"><a xlink:href="../../d2/d92/classCCCC__Html__Stream.html#ab0ee2a9c916a9cce8480a00cca4da500" target="_top" xlink:title="CCCC_Html_Stream::Put\l_Section_TOC_Entry">
<polygon fill="white" stroke="black" points="671.5,-23 671.5,-53 804.5,-53 804.5,-23 671.5,-23"/>
<text text-anchor="start" x="679.5" y="-41" font-family="Helvetica,sans-Serif" font-size="10.00">CCCC_Html_Stream::Put</text>
<text text-anchor="middle" x="738" y="-30" font-family="Helvetica,sans-Serif" font-size="10.00">_Section_TOC_Entry</text>
</a>
</g>
</g>
<!-- Node40&#45;&gt;Node42 -->
<g id="edge65" class="edge"><title>Node40&#45;&gt;Node42</title>
<path fill="none" stroke="midnightblue" d="M609.88,-66.9808C626.494,-63.1932 644.458,-59.0976 661.504,-55.2115"/>
<polygon fill="midnightblue" stroke="midnightblue" points="662.445,-58.5868 671.417,-52.9516 660.889,-51.7619 662.445,-58.5868"/>
</g>
<!-- Node44 -->
<g id="node44" class="node"><title>Node44</title>
<g id="a_node44"><a xlink:href="../../db/d8c/classCCCC__Xml__Stream.html#a33272062831fd87a29b4c838cdad4f38" target="_top" xlink:title="CCCC_Xml_Stream::Generate\lReports">
<polygon fill="white" stroke="black" points="258,-22 258,-52 417,-52 417,-22 258,-22"/>
<text text-anchor="start" x="266" y="-40" font-family="Helvetica,sans-Serif" font-size="10.00">CCCC_Xml_Stream::Generate</text>
<text text-anchor="middle" x="337.5" y="-29" font-family="Helvetica,sans-Serif" font-size="10.00">Reports</text>
</a>
</g>
</g>
<!-- Node43&#45;&gt;Node44 -->
<g id="edge67" class="edge"><title>Node43&#45;&gt;Node44</title>
<path fill="none" stroke="midnightblue" d="M198.559,-44.9651C213.699,-44.0909 230.653,-43.1119 247.355,-42.1475"/>
<polygon fill="midnightblue" stroke="midnightblue" points="247.922,-45.6207 257.704,-41.5499 247.518,-38.6323 247.922,-45.6207"/>
</g>
<!-- Node45 -->
<g id="node45" class="node"><title>Node45</title>
<g id="a_node45"><a xlink:href="../../db/d8c/classCCCC__Xml__Stream.html#a7f3b818d0e17d21ef0c6e1b089ee8aec" target="_top" xlink:title="CCCC_Xml_Stream::Timestamp">
<polygon fill="white" stroke="black" points="460,-27.5 460,-46.5 626,-46.5 626,-27.5 460,-27.5"/>
<text text-anchor="middle" x="543" y="-34.5" font-family="Helvetica,sans-Serif" font-size="10.00">CCCC_Xml_Stream::Timestamp</text>
</a>
</g>
</g>
<!-- Node44&#45;&gt;Node45 -->
<g id="edge68" class="edge"><title>Node44&#45;&gt;Node45</title>
<path fill="none" stroke="midnightblue" d="M417.178,-37C427.773,-37 438.72,-37 449.526,-37"/>
<polygon fill="midnightblue" stroke="midnightblue" points="449.828,-40.5001 459.828,-37 449.828,-33.5001 449.828,-40.5001"/>
</g>
</g>
</svg>
