<?xml version="1.0" encoding="UTF-8" standalone="no"?>
<!DOCTYPE svg PUBLIC "-//W3C//DTD SVG 1.1//EN"
 "http://www.w3.org/Graphics/SVG/1.1/DTD/svg11.dtd">
<!-- Generated by graphviz version 2.38.0 (20140413.2041)
 -->
<!-- Title: CLexer::act4 Pages: 1 -->
<svg width="370pt" height="66pt"
 viewBox="0.00 0.00 370.00 66.00" xmlns="http://www.w3.org/2000/svg" xmlns:xlink="http://www.w3.org/1999/xlink">
<g id="graph0" class="graph" transform="scale(1 1) rotate(0) translate(4 62)">
<title>CLexer::act4</title>
<polygon fill="white" stroke="none" points="-4,4 -4,-62 366,-62 366,4 -4,4"/>
<!-- Node1 -->
<g id="node1" class="node"><title>Node1</title>
<polygon fill="#bfbfbf" stroke="black" points="0,-19.5 0,-38.5 76,-38.5 76,-19.5 0,-19.5"/>
<text text-anchor="middle" x="38" y="-26.5" font-family="Helvetica,sans-Serif" font-size="10.00">CLexer::act4</text>
</g>
<!-- Node2 -->
<g id="node2" class="node"><title>Node2</title>
<g id="a_node2"><a xlink:href="../../d4/d56/CLexer_8cpp.html#adf98f2c54a6098d1bbc63fb171ed7d4e" target="_top" xlink:title="endOfLine">
<polygon fill="white" stroke="black" points="112,-19.5 112,-38.5 178,-38.5 178,-19.5 112,-19.5"/>
<text text-anchor="middle" x="145" y="-26.5" font-family="Helvetica,sans-Serif" font-size="10.00">endOfLine</text>
</a>
</g>
</g>
<!-- Node1&#45;&gt;Node2 -->
<g id="edge1" class="edge"><title>Node1&#45;&gt;Node2</title>
<path fill="none" stroke="midnightblue" d="M76.0191,-29C84.3303,-29 93.2101,-29 101.717,-29"/>
<polygon fill="midnightblue" stroke="midnightblue" points="101.847,-32.5001 111.847,-29 101.847,-25.5001 101.847,-32.5001"/>
</g>
<!-- Node3 -->
<g id="node3" class="node"><title>Node3</title>
<g id="a_node3"><a xlink:href="../../d3/d5e/classParseStore.html#ab21a4aeadb4cc4938b58cbefbb8634e8" target="_top" xlink:title="ParseStore::currentInstance">
<polygon fill="white" stroke="black" points="214,-38.5 214,-57.5 362,-57.5 362,-38.5 214,-38.5"/>
<text text-anchor="middle" x="288" y="-45.5" font-family="Helvetica,sans-Serif" font-size="10.00">ParseStore::currentInstance</text>
</a>
</g>
</g>
<!-- Node2&#45;&gt;Node3 -->
<g id="edge2" class="edge"><title>Node2&#45;&gt;Node3</title>
<path fill="none" stroke="midnightblue" d="M178.348,-33.359C186.885,-34.5094 196.49,-35.8037 206.366,-37.1345"/>
<polygon fill="midnightblue" stroke="midnightblue" points="205.925,-40.6066 216.303,-38.4735 206.86,-33.6693 205.925,-40.6066"/>
</g>
<!-- Node4 -->
<g id="node4" class="node"><title>Node4</title>
<g id="a_node4"><a xlink:href="../../d3/d5e/classParseStore.html#a22c3448583c3e1e867ec332c7888367b" target="_top" xlink:title="ParseStore::endOfLine">
<polygon fill="white" stroke="black" points="226,-0.5 226,-19.5 350,-19.5 350,-0.5 226,-0.5"/>
<text text-anchor="middle" x="288" y="-7.5" font-family="Helvetica,sans-Serif" font-size="10.00">ParseStore::endOfLine</text>
</a>
</g>
</g>
<!-- Node2&#45;&gt;Node4 -->
<g id="edge3" class="edge"><title>Node2&#45;&gt;Node4</title>
<path fill="none" stroke="midnightblue" d="M178.348,-24.641C189.622,-23.1219 202.758,-21.3518 215.92,-19.5781"/>
<polygon fill="midnightblue" stroke="midnightblue" points="216.518,-23.0293 225.961,-18.2251 215.583,-16.092 216.518,-23.0293"/>
</g>
</g>
</svg>
