<?xml version="1.0" encoding="UTF-8" standalone="no"?>
<!DOCTYPE svg PUBLIC "-//W3C//DTD SVG 1.1//EN"
 "http://www.w3.org/Graphics/SVG/1.1/DTD/svg11.dtd">
<!-- Generated by graphviz version 2.38.0 (20140413.2041)
 -->
<!-- Title: CLexer::mode Pages: 1 -->
<svg width="214pt" height="598pt"
 viewBox="0.00 0.00 214.00 598.00" xmlns="http://www.w3.org/2000/svg" xmlns:xlink="http://www.w3.org/1999/xlink">
<g id="graph0" class="graph" transform="scale(1 1) rotate(0) translate(4 594)">
<title>CLexer::mode</title>
<polygon fill="white" stroke="none" points="-4,4 -4,-594 210,-594 210,4 -4,4"/>
<!-- Node1 -->
<g id="node1" class="node"><title>Node1</title>
<polygon fill="#bfbfbf" stroke="black" points="0,-285.5 0,-304.5 82,-304.5 82,-285.5 0,-285.5"/>
<text text-anchor="middle" x="41" y="-292.5" font-family="Helvetica,sans-Serif" font-size="10.00">CLexer::mode</text>
</g>
<!-- Node2 -->
<g id="node2" class="node"><title>Node2</title>
<g id="a_node2"><a xlink:href="../../dd/d32/classCLexer.html#a0fcf566c0c33c8431aedb031073df300" target="_top" xlink:title="CLexer::act6">
<polygon fill="white" stroke="black" points="124,-570.5 124,-589.5 200,-589.5 200,-570.5 124,-570.5"/>
<text text-anchor="middle" x="162" y="-577.5" font-family="Helvetica,sans-Serif" font-size="10.00">CLexer::act6</text>
</a>
</g>
</g>
<!-- Node1&#45;&gt;Node2 -->
<g id="edge1" class="edge"><title>Node1&#45;&gt;Node2</title>
<path fill="none" stroke="midnightblue" d="M42.1846,-314.857C43.6732,-363 53.8908,-487.389 118,-561 121.323,-564.816 125.559,-567.898 130.07,-570.378"/>
<polygon fill="midnightblue" stroke="midnightblue" points="45.678,-314.499 41.9691,-304.574 38.6795,-314.645 45.678,-314.499"/>
</g>
<!-- Node3 -->
<g id="node3" class="node"><title>Node3</title>
<g id="a_node3"><a xlink:href="../../dd/d32/classCLexer.html#a00826569520f74e045d2d139b749ef4a" target="_top" xlink:title="CLexer::act7">
<polygon fill="white" stroke="black" points="124,-532.5 124,-551.5 200,-551.5 200,-532.5 124,-532.5"/>
<text text-anchor="middle" x="162" y="-539.5" font-family="Helvetica,sans-Serif" font-size="10.00">CLexer::act7</text>
</a>
</g>
</g>
<!-- Node1&#45;&gt;Node3 -->
<g id="edge2" class="edge"><title>Node1&#45;&gt;Node3</title>
<path fill="none" stroke="midnightblue" d="M43.303,-314.613C47.1624,-357.672 62.0647,-461.524 118,-523 121.515,-526.864 125.96,-529.983 130.651,-532.488"/>
<polygon fill="midnightblue" stroke="midnightblue" points="46.7887,-314.293 42.5116,-304.6 39.8105,-314.844 46.7887,-314.293"/>
</g>
<!-- Node4 -->
<g id="node4" class="node"><title>Node4</title>
<g id="a_node4"><a xlink:href="../../dd/d32/classCLexer.html#afbc3e2c512aa222e3862bf6136817d1e" target="_top" xlink:title="CLexer::act8">
<polygon fill="white" stroke="black" points="124,-494.5 124,-513.5 200,-513.5 200,-494.5 124,-494.5"/>
<text text-anchor="middle" x="162" y="-501.5" font-family="Helvetica,sans-Serif" font-size="10.00">CLexer::act8</text>
</a>
</g>
</g>
<!-- Node1&#45;&gt;Node4 -->
<g id="edge3" class="edge"><title>Node1&#45;&gt;Node4</title>
<path fill="none" stroke="midnightblue" d="M44.8887,-314.874C51.362,-352.698 70.3775,-435.653 118,-485 121.627,-488.759 126.128,-491.825 130.84,-494.311"/>
<polygon fill="midnightblue" stroke="midnightblue" points="48.2932,-313.997 43.2646,-304.672 41.3803,-315.098 48.2932,-313.997"/>
</g>
<!-- Node5 -->
<g id="node5" class="node"><title>Node5</title>
<g id="a_node5"><a xlink:href="../../dd/d32/classCLexer.html#adb58c1a75b623d40538905c4a0c27752" target="_top" xlink:title="CLexer::act9">
<polygon fill="white" stroke="black" points="124,-456.5 124,-475.5 200,-475.5 200,-456.5 124,-456.5"/>
<text text-anchor="middle" x="162" y="-463.5" font-family="Helvetica,sans-Serif" font-size="10.00">CLexer::act9</text>
</a>
</g>
</g>
<!-- Node1&#45;&gt;Node5 -->
<g id="edge4" class="edge"><title>Node1&#45;&gt;Node5</title>
<path fill="none" stroke="midnightblue" d="M47.0219,-314.353C56.1456,-346.008 78.2707,-409.118 118,-447 121.898,-450.717 126.645,-453.781 131.543,-456.28"/>
<polygon fill="midnightblue" stroke="midnightblue" points="50.3555,-313.275 44.3294,-304.561 43.606,-315.131 50.3555,-313.275"/>
</g>
<!-- Node6 -->
<g id="node6" class="node"><title>Node6</title>
<g id="a_node6"><a xlink:href="../../dd/d32/classCLexer.html#ae2327742d33de478e4908d136af5326b" target="_top" xlink:title="CLexer::act10">
<polygon fill="white" stroke="black" points="121,-418.5 121,-437.5 203,-437.5 203,-418.5 121,-418.5"/>
<text text-anchor="middle" x="162" y="-425.5" font-family="Helvetica,sans-Serif" font-size="10.00">CLexer::act10</text>
</a>
</g>
</g>
<!-- Node1&#45;&gt;Node6 -->
<g id="edge5" class="edge"><title>Node1&#45;&gt;Node6</title>
<path fill="none" stroke="midnightblue" d="M50.4442,-313.968C62.3281,-338.769 86.1469,-382.202 118,-409 122.372,-412.678 127.568,-415.765 132.81,-418.31"/>
<polygon fill="midnightblue" stroke="midnightblue" points="53.4745,-312.183 46.0932,-304.582 47.1237,-315.127 53.4745,-312.183"/>
</g>
<!-- Node7 -->
<g id="node7" class="node"><title>Node7</title>
<g id="a_node7"><a xlink:href="../../dd/d32/classCLexer.html#a19a042d3904fd809edb53a39ff5cd655" target="_top" xlink:title="CLexer::act11">
<polygon fill="white" stroke="black" points="121,-380.5 121,-399.5 203,-399.5 203,-380.5 121,-380.5"/>
<text text-anchor="middle" x="162" y="-387.5" font-family="Helvetica,sans-Serif" font-size="10.00">CLexer::act11</text>
</a>
</g>
</g>
<!-- Node1&#45;&gt;Node7 -->
<g id="edge6" class="edge"><title>Node1&#45;&gt;Node7</title>
<path fill="none" stroke="midnightblue" d="M56.0875,-312.435C70.3145,-329.167 93.6192,-354.294 118,-371 123.251,-374.598 129.295,-377.768 135.16,-380.436"/>
<polygon fill="midnightblue" stroke="midnightblue" points="58.6043,-309.987 49.5176,-304.539 53.2234,-314.465 58.6043,-309.987"/>
</g>
<!-- Node8 -->
<g id="node8" class="node"><title>Node8</title>
<g id="a_node8"><a xlink:href="../../dd/d32/classCLexer.html#a263b3821e7a09a177eac07eb71ea9d31" target="_top" xlink:title="CLexer::act12">
<polygon fill="white" stroke="black" points="121,-342.5 121,-361.5 203,-361.5 203,-342.5 121,-342.5"/>
<text text-anchor="middle" x="162" y="-349.5" font-family="Helvetica,sans-Serif" font-size="10.00">CLexer::act12</text>
</a>
</g>
</g>
<!-- Node1&#45;&gt;Node8 -->
<g id="edge7" class="edge"><title>Node1&#45;&gt;Node8</title>
<path fill="none" stroke="midnightblue" d="M69.9072,-309.352C84.2088,-316.605 101.949,-325.447 118,-333 124.646,-336.128 131.934,-339.405 138.591,-342.339"/>
<polygon fill="midnightblue" stroke="midnightblue" points="71.1177,-306.04 60.6186,-304.619 67.94,-312.277 71.1177,-306.04"/>
</g>
<!-- Node9 -->
<g id="node9" class="node"><title>Node9</title>
<g id="a_node9"><a xlink:href="../../dd/d32/classCLexer.html#a29bde4900389b398ed845ae960ab3e32" target="_top" xlink:title="CLexer::act140">
<polygon fill="white" stroke="black" points="118,-304.5 118,-323.5 206,-323.5 206,-304.5 118,-304.5"/>
<text text-anchor="middle" x="162" y="-311.5" font-family="Helvetica,sans-Serif" font-size="10.00">CLexer::act140</text>
</a>
</g>
</g>
<!-- Node1&#45;&gt;Node9 -->
<g id="edge8" class="edge"><title>Node1&#45;&gt;Node9</title>
<path fill="none" stroke="midnightblue" d="M92.1686,-303.01C100.726,-304.376 109.548,-305.785 117.902,-307.119"/>
<polygon fill="midnightblue" stroke="midnightblue" points="92.7148,-299.553 82.288,-301.433 91.611,-306.466 92.7148,-299.553"/>
</g>
<!-- Node10 -->
<g id="node10" class="node"><title>Node10</title>
<g id="a_node10"><a xlink:href="../../dd/d32/classCLexer.html#a50874176db37893415680dc72cddd012" target="_top" xlink:title="CLexer::act141">
<polygon fill="white" stroke="black" points="118,-266.5 118,-285.5 206,-285.5 206,-266.5 118,-266.5"/>
<text text-anchor="middle" x="162" y="-273.5" font-family="Helvetica,sans-Serif" font-size="10.00">CLexer::act141</text>
</a>
</g>
</g>
<!-- Node1&#45;&gt;Node10 -->
<g id="edge9" class="edge"><title>Node1&#45;&gt;Node10</title>
<path fill="none" stroke="midnightblue" d="M92.1686,-286.99C100.726,-285.624 109.548,-284.215 117.902,-282.881"/>
<polygon fill="midnightblue" stroke="midnightblue" points="91.611,-283.534 82.288,-288.567 92.7148,-290.447 91.611,-283.534"/>
</g>
<!-- Node11 -->
<g id="node11" class="node"><title>Node11</title>
<g id="a_node11"><a xlink:href="../../dd/d32/classCLexer.html#ac33beed42fc6080619f6d2ee406e5d81" target="_top" xlink:title="CLexer::act142">
<polygon fill="white" stroke="black" points="118,-228.5 118,-247.5 206,-247.5 206,-228.5 118,-228.5"/>
<text text-anchor="middle" x="162" y="-235.5" font-family="Helvetica,sans-Serif" font-size="10.00">CLexer::act142</text>
</a>
</g>
</g>
<!-- Node1&#45;&gt;Node11 -->
<g id="edge10" class="edge"><title>Node1&#45;&gt;Node11</title>
<path fill="none" stroke="midnightblue" d="M69.9072,-280.648C84.2088,-273.395 101.949,-264.553 118,-257 124.646,-253.872 131.934,-250.595 138.591,-247.661"/>
<polygon fill="midnightblue" stroke="midnightblue" points="67.94,-277.723 60.6186,-285.381 71.1177,-283.96 67.94,-277.723"/>
</g>
<!-- Node12 -->
<g id="node12" class="node"><title>Node12</title>
<g id="a_node12"><a xlink:href="../../dd/d32/classCLexer.html#a3a38ec0e336c6dea59afd7e8abe355f3" target="_top" xlink:title="CLexer::act145">
<polygon fill="white" stroke="black" points="118,-190.5 118,-209.5 206,-209.5 206,-190.5 118,-190.5"/>
<text text-anchor="middle" x="162" y="-197.5" font-family="Helvetica,sans-Serif" font-size="10.00">CLexer::act145</text>
</a>
</g>
</g>
<!-- Node1&#45;&gt;Node12 -->
<g id="edge11" class="edge"><title>Node1&#45;&gt;Node12</title>
<path fill="none" stroke="midnightblue" d="M56.0875,-277.565C70.3145,-260.833 93.6192,-235.706 118,-219 123.251,-215.402 129.295,-212.232 135.16,-209.564"/>
<polygon fill="midnightblue" stroke="midnightblue" points="53.2234,-275.535 49.5176,-285.461 58.6043,-280.013 53.2234,-275.535"/>
</g>
<!-- Node13 -->
<g id="node13" class="node"><title>Node13</title>
<g id="a_node13"><a xlink:href="../../dd/d32/classCLexer.html#a5ec4b0e22c8f4b666695dad4bdd2102e" target="_top" xlink:title="CLexer::act148">
<polygon fill="white" stroke="black" points="118,-152.5 118,-171.5 206,-171.5 206,-152.5 118,-152.5"/>
<text text-anchor="middle" x="162" y="-159.5" font-family="Helvetica,sans-Serif" font-size="10.00">CLexer::act148</text>
</a>
</g>
</g>
<!-- Node1&#45;&gt;Node13 -->
<g id="edge12" class="edge"><title>Node1&#45;&gt;Node13</title>
<path fill="none" stroke="midnightblue" d="M50.4442,-276.032C62.3281,-251.231 86.1469,-207.798 118,-181 122.372,-177.322 127.568,-174.235 132.81,-171.69"/>
<polygon fill="midnightblue" stroke="midnightblue" points="47.1237,-274.873 46.0932,-285.418 53.4745,-277.817 47.1237,-274.873"/>
</g>
<!-- Node14 -->
<g id="node14" class="node"><title>Node14</title>
<g id="a_node14"><a xlink:href="../../dd/d32/classCLexer.html#a3e53384b670ab171a2ae7b06186fd37c" target="_top" xlink:title="CLexer::act150">
<polygon fill="white" stroke="black" points="118,-114.5 118,-133.5 206,-133.5 206,-114.5 118,-114.5"/>
<text text-anchor="middle" x="162" y="-121.5" font-family="Helvetica,sans-Serif" font-size="10.00">CLexer::act150</text>
</a>
</g>
</g>
<!-- Node1&#45;&gt;Node14 -->
<g id="edge13" class="edge"><title>Node1&#45;&gt;Node14</title>
<path fill="none" stroke="midnightblue" d="M47.0219,-275.647C56.1456,-243.992 78.2707,-180.882 118,-143 121.898,-139.283 126.645,-136.219 131.543,-133.72"/>
<polygon fill="midnightblue" stroke="midnightblue" points="43.606,-274.869 44.3294,-285.439 50.3555,-276.725 43.606,-274.869"/>
</g>
<!-- Node15 -->
<g id="node15" class="node"><title>Node15</title>
<g id="a_node15"><a xlink:href="../../dd/d32/classCLexer.html#a093e5988ba7d2c9111ce5aeab42ea542" target="_top" xlink:title="CLexer::act153">
<polygon fill="white" stroke="black" points="118,-76.5 118,-95.5 206,-95.5 206,-76.5 118,-76.5"/>
<text text-anchor="middle" x="162" y="-83.5" font-family="Helvetica,sans-Serif" font-size="10.00">CLexer::act153</text>
</a>
</g>
</g>
<!-- Node1&#45;&gt;Node15 -->
<g id="edge14" class="edge"><title>Node1&#45;&gt;Node15</title>
<path fill="none" stroke="midnightblue" d="M44.8887,-275.126C51.362,-237.302 70.3775,-154.347 118,-105 121.627,-101.241 126.128,-98.1746 130.84,-95.6886"/>
<polygon fill="midnightblue" stroke="midnightblue" points="41.3803,-274.902 43.2646,-285.328 48.2932,-276.003 41.3803,-274.902"/>
</g>
<!-- Node16 -->
<g id="node16" class="node"><title>Node16</title>
<g id="a_node16"><a xlink:href="../../dd/d32/classCLexer.html#a97e930098ce75c024bfb11cc660f86d6" target="_top" xlink:title="CLexer::act157">
<polygon fill="white" stroke="black" points="118,-38.5 118,-57.5 206,-57.5 206,-38.5 118,-38.5"/>
<text text-anchor="middle" x="162" y="-45.5" font-family="Helvetica,sans-Serif" font-size="10.00">CLexer::act157</text>
</a>
</g>
</g>
<!-- Node1&#45;&gt;Node16 -->
<g id="edge15" class="edge"><title>Node1&#45;&gt;Node16</title>
<path fill="none" stroke="midnightblue" d="M43.303,-275.387C47.1624,-232.328 62.0647,-128.476 118,-67 121.515,-63.1365 125.96,-60.0172 130.651,-57.5116"/>
<polygon fill="midnightblue" stroke="midnightblue" points="39.8105,-275.156 42.5116,-285.4 46.7887,-275.707 39.8105,-275.156"/>
</g>
<!-- Node17 -->
<g id="node17" class="node"><title>Node17</title>
<g id="a_node17"><a xlink:href="../../dd/d32/classCLexer.html#ae9d7bf87b56d0b99a5e51f59a072a1f1" target="_top" xlink:title="CLexer::act163">
<polygon fill="white" stroke="black" points="118,-0.5 118,-19.5 206,-19.5 206,-0.5 118,-0.5"/>
<text text-anchor="middle" x="162" y="-7.5" font-family="Helvetica,sans-Serif" font-size="10.00">CLexer::act163</text>
</a>
</g>
</g>
<!-- Node1&#45;&gt;Node17 -->
<g id="edge16" class="edge"><title>Node1&#45;&gt;Node17</title>
<path fill="none" stroke="midnightblue" d="M42.1846,-275.143C43.6732,-227 53.8908,-102.611 118,-29 121.323,-25.1841 125.559,-22.1021 130.07,-19.6224"/>
<polygon fill="midnightblue" stroke="midnightblue" points="38.6795,-275.355 41.9691,-285.426 45.678,-275.501 38.6795,-275.355"/>
</g>
</g>
</svg>
