<?xml version="1.0" encoding="UTF-8" standalone="no"?>
<!DOCTYPE svg PUBLIC "-//W3C//DTD SVG 1.1//EN"
 "http://www.w3.org/Graphics/SVG/1.1/DTD/svg11.dtd">
<!-- Generated by graphviz version 2.38.0 (20140413.2041)
 -->
<!-- Title: CLexer::act158 Pages: 1 -->
<svg width="382pt" height="66pt"
 viewBox="0.00 0.00 382.00 66.00" xmlns="http://www.w3.org/2000/svg" xmlns:xlink="http://www.w3.org/1999/xlink">
<g id="graph0" class="graph" transform="scale(1 1) rotate(0) translate(4 62)">
<title>CLexer::act158</title>
<polygon fill="white" stroke="none" points="-4,4 -4,-62 378,-62 378,4 -4,4"/>
<!-- Node1 -->
<g id="node1" class="node"><title>Node1</title>
<polygon fill="#bfbfbf" stroke="black" points="0,-19.5 0,-38.5 88,-38.5 88,-19.5 0,-19.5"/>
<text text-anchor="middle" x="44" y="-26.5" font-family="Helvetica,sans-Serif" font-size="10.00">CLexer::act158</text>
</g>
<!-- Node2 -->
<g id="node2" class="node"><title>Node2</title>
<g id="a_node2"><a xlink:href="../../d4/d56/CLexer_8cpp.html#adf98f2c54a6098d1bbc63fb171ed7d4e" target="_top" xlink:title="endOfLine">
<polygon fill="white" stroke="black" points="124,-19.5 124,-38.5 190,-38.5 190,-19.5 124,-19.5"/>
<text text-anchor="middle" x="157" y="-26.5" font-family="Helvetica,sans-Serif" font-size="10.00">endOfLine</text>
</a>
</g>
</g>
<!-- Node1&#45;&gt;Node2 -->
<g id="edge1" class="edge"><title>Node1&#45;&gt;Node2</title>
<path fill="none" stroke="midnightblue" d="M88.2333,-29C96.5368,-29 105.226,-29 113.506,-29"/>
<polygon fill="midnightblue" stroke="midnightblue" points="113.715,-32.5001 123.715,-29 113.715,-25.5001 113.715,-32.5001"/>
</g>
<!-- Node3 -->
<g id="node3" class="node"><title>Node3</title>
<g id="a_node3"><a xlink:href="../../d3/d5e/classParseStore.html#ab21a4aeadb4cc4938b58cbefbb8634e8" target="_top" xlink:title="ParseStore::currentInstance">
<polygon fill="white" stroke="black" points="226,-38.5 226,-57.5 374,-57.5 374,-38.5 226,-38.5"/>
<text text-anchor="middle" x="300" y="-45.5" font-family="Helvetica,sans-Serif" font-size="10.00">ParseStore::currentInstance</text>
</a>
</g>
</g>
<!-- Node2&#45;&gt;Node3 -->
<g id="edge2" class="edge"><title>Node2&#45;&gt;Node3</title>
<path fill="none" stroke="midnightblue" d="M190.348,-33.359C198.885,-34.5094 208.49,-35.8037 218.366,-37.1345"/>
<polygon fill="midnightblue" stroke="midnightblue" points="217.925,-40.6066 228.303,-38.4735 218.86,-33.6693 217.925,-40.6066"/>
</g>
<!-- Node4 -->
<g id="node4" class="node"><title>Node4</title>
<g id="a_node4"><a xlink:href="../../d3/d5e/classParseStore.html#a22c3448583c3e1e867ec332c7888367b" target="_top" xlink:title="ParseStore::endOfLine">
<polygon fill="white" stroke="black" points="238,-0.5 238,-19.5 362,-19.5 362,-0.5 238,-0.5"/>
<text text-anchor="middle" x="300" y="-7.5" font-family="Helvetica,sans-Serif" font-size="10.00">ParseStore::endOfLine</text>
</a>
</g>
</g>
<!-- Node2&#45;&gt;Node4 -->
<g id="edge3" class="edge"><title>Node2&#45;&gt;Node4</title>
<path fill="none" stroke="midnightblue" d="M190.348,-24.641C201.622,-23.1219 214.758,-21.3518 227.92,-19.5781"/>
<polygon fill="midnightblue" stroke="midnightblue" points="228.518,-23.0293 237.961,-18.2251 227.583,-16.092 228.518,-23.0293"/>
</g>
</g>
</svg>
