<?xml version="1.0" encoding="UTF-8" standalone="no"?>
<!DOCTYPE svg PUBLIC "-//W3C//DTD SVG 1.1//EN"
 "http://www.w3.org/Graphics/SVG/1.1/DTD/svg11.dtd">
<!-- Generated by graphviz version 2.38.0 (20140413.2041)
 -->
<!-- Title: CLexer::act153 Pages: 1 -->
<svg width="409pt" height="85pt"
 viewBox="0.00 0.00 409.00 85.00" xmlns="http://www.w3.org/2000/svg" xmlns:xlink="http://www.w3.org/1999/xlink">
<g id="graph0" class="graph" transform="scale(1 1) rotate(0) translate(4 81)">
<title>CLexer::act153</title>
<polygon fill="white" stroke="none" points="-4,4 -4,-81 405,-81 405,4 -4,4"/>
<!-- Node1 -->
<g id="node1" class="node"><title>Node1</title>
<polygon fill="#bfbfbf" stroke="black" points="0,-19.5 0,-38.5 88,-38.5 88,-19.5 0,-19.5"/>
<text text-anchor="middle" x="44" y="-26.5" font-family="Helvetica,sans-Serif" font-size="10.00">CLexer::act153</text>
</g>
<!-- Node2 -->
<g id="node2" class="node"><title>Node2</title>
<g id="a_node2"><a xlink:href="../../d4/d56/CLexer_8cpp.html#acf97acbf9c6e628252fdf410a7934d93" target="_top" xlink:title="IncrementCount">
<polygon fill="white" stroke="black" points="124,-38.5 124,-57.5 216,-57.5 216,-38.5 124,-38.5"/>
<text text-anchor="middle" x="170" y="-45.5" font-family="Helvetica,sans-Serif" font-size="10.00">IncrementCount</text>
</a>
</g>
</g>
<!-- Node1&#45;&gt;Node2 -->
<g id="edge1" class="edge"><title>Node1&#45;&gt;Node2</title>
<path fill="none" stroke="midnightblue" d="M88.0212,-35.592C96.367,-36.8708 105.221,-38.2274 113.892,-39.5561"/>
<polygon fill="midnightblue" stroke="midnightblue" points="113.532,-43.0416 123.947,-41.0967 114.592,-36.1224 113.532,-43.0416"/>
</g>
<!-- Node5 -->
<g id="node5" class="node"><title>Node5</title>
<g id="a_node5"><a xlink:href="../../dd/d32/classCLexer.html#ab398bb034124a0fd20e6dec4b1a1a73e" target="_top" xlink:title="CLexer::mode">
<polygon fill="white" stroke="black" points="129,-0.5 129,-19.5 211,-19.5 211,-0.5 129,-0.5"/>
<text text-anchor="middle" x="170" y="-7.5" font-family="Helvetica,sans-Serif" font-size="10.00">CLexer::mode</text>
</a>
</g>
</g>
<!-- Node1&#45;&gt;Node5 -->
<g id="edge4" class="edge"><title>Node1&#45;&gt;Node5</title>
<path fill="none" stroke="midnightblue" d="M88.0212,-22.408C97.989,-20.8807 108.681,-19.2424 118.922,-17.6732"/>
<polygon fill="midnightblue" stroke="midnightblue" points="119.615,-21.108 128.969,-16.1337 118.555,-14.1887 119.615,-21.108"/>
</g>
<!-- Node3 -->
<g id="node3" class="node"><title>Node3</title>
<g id="a_node3"><a xlink:href="../../d3/d5e/classParseStore.html#ab21a4aeadb4cc4938b58cbefbb8634e8" target="_top" xlink:title="ParseStore::currentInstance">
<polygon fill="white" stroke="black" points="252.5,-57.5 252.5,-76.5 400.5,-76.5 400.5,-57.5 252.5,-57.5"/>
<text text-anchor="middle" x="326.5" y="-64.5" font-family="Helvetica,sans-Serif" font-size="10.00">ParseStore::currentInstance</text>
</a>
</g>
</g>
<!-- Node2&#45;&gt;Node3 -->
<g id="edge2" class="edge"><title>Node2&#45;&gt;Node3</title>
<path fill="none" stroke="midnightblue" d="M216.103,-53.5467C224.386,-54.5653 233.27,-55.6578 242.262,-56.7637"/>
<polygon fill="midnightblue" stroke="midnightblue" points="242.083,-60.2678 252.435,-58.0147 242.937,-53.3202 242.083,-60.2678"/>
</g>
<!-- Node4 -->
<g id="node4" class="node"><title>Node4</title>
<g id="a_node4"><a xlink:href="../../d3/d5e/classParseStore.html#abbc0857a7efa036b5335b71be05cb0f6" target="_top" xlink:title="ParseStore::IncrementCount">
<polygon fill="white" stroke="black" points="252,-19.5 252,-38.5 401,-38.5 401,-19.5 252,-19.5"/>
<text text-anchor="middle" x="326.5" y="-26.5" font-family="Helvetica,sans-Serif" font-size="10.00">ParseStore::IncrementCount</text>
</a>
</g>
</g>
<!-- Node2&#45;&gt;Node4 -->
<g id="edge3" class="edge"><title>Node2&#45;&gt;Node4</title>
<path fill="none" stroke="midnightblue" d="M216.103,-42.4533C224.257,-41.4506 232.992,-40.3763 241.841,-39.2882"/>
<polygon fill="midnightblue" stroke="midnightblue" points="242.356,-42.7513 251.854,-38.0568 241.502,-35.8036 242.356,-42.7513"/>
</g>
</g>
</svg>
