<?xml version="1.0" encoding="UTF-8" standalone="no"?>
<!DOCTYPE svg PUBLIC "-//W3C//DTD SVG 1.1//EN"
 "http://www.w3.org/Graphics/SVG/1.1/DTD/svg11.dtd">
<!-- Generated by graphviz version 2.38.0 (20140413.2041)
 -->
<!-- Title: endOfLine Pages: 1 -->
<svg width="343pt" height="275pt"
 viewBox="0.00 0.00 343.00 275.00" xmlns="http://www.w3.org/2000/svg" xmlns:xlink="http://www.w3.org/1999/xlink">
<g id="graph0" class="graph" transform="scale(1 1) rotate(0) translate(4 271)">
<title>endOfLine</title>
<polygon fill="white" stroke="none" points="-4,4 -4,-271 339,-271 339,4 -4,4"/>
<!-- Node1 -->
<g id="node1" class="node"><title>Node1</title>
<polygon fill="#bfbfbf" stroke="black" points="0,-76.5 0,-95.5 66,-95.5 66,-76.5 0,-76.5"/>
<text text-anchor="middle" x="33" y="-83.5" font-family="Helvetica,sans-Serif" font-size="10.00">endOfLine</text>
</g>
<!-- Node2 -->
<g id="node2" class="node"><title>Node2</title>
<g id="a_node2"><a xlink:href="../../d8/d0b/JLexer_8cpp.html#a44bf86dbdeb42f4ee27685ea8e0ce360" target="_top" xlink:title="endOfCommentLine">
<polygon fill="white" stroke="black" points="102,-152.5 102,-171.5 213,-171.5 213,-152.5 102,-152.5"/>
<text text-anchor="middle" x="157.5" y="-159.5" font-family="Helvetica,sans-Serif" font-size="10.00">endOfCommentLine</text>
</a>
</g>
</g>
<!-- Node1&#45;&gt;Node2 -->
<g id="edge1" class="edge"><title>Node1&#45;&gt;Node2</title>
<path fill="none" stroke="midnightblue" d="M50.557,-102.869C63.5821,-115.357 82.699,-132.038 102,-143 108.448,-146.662 115.722,-149.795 122.805,-152.398"/>
<polygon fill="midnightblue" stroke="midnightblue" points="52.8724,-100.237 43.287,-95.7236 47.9655,-105.229 52.8724,-100.237"/>
</g>
<!-- Node9 -->
<g id="node9" class="node"><title>Node9</title>
<g id="a_node9"><a xlink:href="../../d2/d2e/classJLexer.html#a886053b0e737ed732be7acc3d435af18" target="_top" xlink:title="JLexer::act49">
<polygon fill="white" stroke="black" points="117.5,-114.5 117.5,-133.5 197.5,-133.5 197.5,-114.5 117.5,-114.5"/>
<text text-anchor="middle" x="157.5" y="-121.5" font-family="Helvetica,sans-Serif" font-size="10.00">JLexer::act49</text>
</a>
</g>
</g>
<!-- Node1&#45;&gt;Node9 -->
<g id="edge8" class="edge"><title>Node1&#45;&gt;Node9</title>
<path fill="none" stroke="midnightblue" d="M74.8777,-98.6804C91.4294,-103.815 110.221,-109.644 125.598,-114.414"/>
<polygon fill="midnightblue" stroke="midnightblue" points="75.4999,-95.209 64.9119,-95.589 73.426,-101.895 75.4999,-95.209"/>
</g>
<!-- Node10 -->
<g id="node10" class="node"><title>Node10</title>
<g id="a_node10"><a xlink:href="../../d2/d2e/classJLexer.html#a73f447a86e704321cda3035a709463f3" target="_top" xlink:title="JLexer::act50">
<polygon fill="white" stroke="black" points="117.5,-76.5 117.5,-95.5 197.5,-95.5 197.5,-76.5 117.5,-76.5"/>
<text text-anchor="middle" x="157.5" y="-83.5" font-family="Helvetica,sans-Serif" font-size="10.00">JLexer::act50</text>
</a>
</g>
</g>
<!-- Node1&#45;&gt;Node10 -->
<g id="edge9" class="edge"><title>Node1&#45;&gt;Node10</title>
<path fill="none" stroke="midnightblue" d="M76.4378,-86C89.6331,-86 104.118,-86 117.098,-86"/>
<polygon fill="midnightblue" stroke="midnightblue" points="76.1855,-82.5001 66.1854,-86 76.1854,-89.5001 76.1855,-82.5001"/>
</g>
<!-- Node11 -->
<g id="node11" class="node"><title>Node11</title>
<g id="a_node11"><a xlink:href="../../d2/d2e/classJLexer.html#a65a90fedd38e0f007a01bcb6fc05fbcd" target="_top" xlink:title="JLexer::act51">
<polygon fill="white" stroke="black" points="117.5,-38.5 117.5,-57.5 197.5,-57.5 197.5,-38.5 117.5,-38.5"/>
<text text-anchor="middle" x="157.5" y="-45.5" font-family="Helvetica,sans-Serif" font-size="10.00">JLexer::act51</text>
</a>
</g>
</g>
<!-- Node1&#45;&gt;Node11 -->
<g id="edge10" class="edge"><title>Node1&#45;&gt;Node11</title>
<path fill="none" stroke="midnightblue" d="M74.8777,-73.3196C91.4294,-68.1852 110.221,-62.3559 125.598,-57.5859"/>
<polygon fill="midnightblue" stroke="midnightblue" points="73.426,-70.1053 64.9119,-76.411 75.4999,-76.791 73.426,-70.1053"/>
</g>
<!-- Node12 -->
<g id="node12" class="node"><title>Node12</title>
<g id="a_node12"><a xlink:href="../../d2/d2e/classJLexer.html#a18a9c1037660df2c842ae488371d982f" target="_top" xlink:title="JLexer::act128">
<polygon fill="white" stroke="black" points="114.5,-0.5 114.5,-19.5 200.5,-19.5 200.5,-0.5 114.5,-0.5"/>
<text text-anchor="middle" x="157.5" y="-7.5" font-family="Helvetica,sans-Serif" font-size="10.00">JLexer::act128</text>
</a>
</g>
</g>
<!-- Node1&#45;&gt;Node12 -->
<g id="edge11" class="edge"><title>Node1&#45;&gt;Node12</title>
<path fill="none" stroke="midnightblue" d="M50.557,-69.131C63.5821,-56.6427 82.699,-39.9624 102,-29 108.448,-25.3379 115.722,-22.2054 122.805,-19.6023"/>
<polygon fill="midnightblue" stroke="midnightblue" points="47.9655,-66.7705 43.287,-76.2764 52.8724,-71.7629 47.9655,-66.7705"/>
</g>
<!-- Node3 -->
<g id="node3" class="node"><title>Node3</title>
<g id="a_node3"><a xlink:href="../../d2/d2e/classJLexer.html#a67fc94d7a73d602beedadbf2a57c937f" target="_top" xlink:title="JLexer::act116">
<polygon fill="white" stroke="black" points="249,-247.5 249,-266.5 335,-266.5 335,-247.5 249,-247.5"/>
<text text-anchor="middle" x="292" y="-254.5" font-family="Helvetica,sans-Serif" font-size="10.00">JLexer::act116</text>
</a>
</g>
</g>
<!-- Node2&#45;&gt;Node3 -->
<g id="edge2" class="edge"><title>Node2&#45;&gt;Node3</title>
<path fill="none" stroke="midnightblue" d="M175.746,-178.987C193.171,-195.52 221.392,-220.627 249,-238 254.554,-241.495 260.86,-244.701 266.865,-247.444"/>
<polygon fill="midnightblue" stroke="midnightblue" points="177.739,-176.047 168.109,-171.63 172.883,-181.088 177.739,-176.047"/>
</g>
<!-- Node4 -->
<g id="node4" class="node"><title>Node4</title>
<g id="a_node4"><a xlink:href="../../d2/d2e/classJLexer.html#a8ce9d42192752ad313df657247242e50" target="_top" xlink:title="JLexer::act117">
<polygon fill="white" stroke="black" points="249,-209.5 249,-228.5 335,-228.5 335,-209.5 249,-209.5"/>
<text text-anchor="middle" x="292" y="-216.5" font-family="Helvetica,sans-Serif" font-size="10.00">JLexer::act117</text>
</a>
</g>
</g>
<!-- Node2&#45;&gt;Node4 -->
<g id="edge3" class="edge"><title>Node2&#45;&gt;Node4</title>
<path fill="none" stroke="midnightblue" d="M190.156,-175.618C214.397,-186.046 247.228,-200.17 268.75,-209.428"/>
<polygon fill="midnightblue" stroke="midnightblue" points="191.247,-172.277 180.678,-171.541 188.48,-178.707 191.247,-172.277"/>
</g>
<!-- Node5 -->
<g id="node5" class="node"><title>Node5</title>
<g id="a_node5"><a xlink:href="../../d2/d2e/classJLexer.html#aa9818b797949fbc3adcc51457b28f0fd" target="_top" xlink:title="JLexer::act118">
<polygon fill="white" stroke="black" points="249,-171.5 249,-190.5 335,-190.5 335,-171.5 249,-171.5"/>
<text text-anchor="middle" x="292" y="-178.5" font-family="Helvetica,sans-Serif" font-size="10.00">JLexer::act118</text>
</a>
</g>
</g>
<!-- Node2&#45;&gt;Node5 -->
<g id="edge4" class="edge"><title>Node2&#45;&gt;Node5</title>
<path fill="none" stroke="midnightblue" d="M223.228,-171.282C231.85,-172.518 240.506,-173.759 248.612,-174.922"/>
<polygon fill="midnightblue" stroke="midnightblue" points="223.553,-167.793 213.158,-169.838 222.56,-174.722 223.553,-167.793"/>
</g>
<!-- Node6 -->
<g id="node6" class="node"><title>Node6</title>
<g id="a_node6"><a xlink:href="../../d2/d2e/classJLexer.html#a8838e48631b8ec021d1a62c136ee2876" target="_top" xlink:title="JLexer::act122">
<polygon fill="white" stroke="black" points="249,-133.5 249,-152.5 335,-152.5 335,-133.5 249,-133.5"/>
<text text-anchor="middle" x="292" y="-140.5" font-family="Helvetica,sans-Serif" font-size="10.00">JLexer::act122</text>
</a>
</g>
</g>
<!-- Node2&#45;&gt;Node6 -->
<g id="edge5" class="edge"><title>Node2&#45;&gt;Node6</title>
<path fill="none" stroke="midnightblue" d="M223.228,-152.718C231.85,-151.482 240.506,-150.241 248.612,-149.078"/>
<polygon fill="midnightblue" stroke="midnightblue" points="222.56,-149.278 213.158,-154.162 223.553,-156.207 222.56,-149.278"/>
</g>
<!-- Node7 -->
<g id="node7" class="node"><title>Node7</title>
<g id="a_node7"><a xlink:href="../../d2/d2e/classJLexer.html#a291ba24901031cb768da66a63e55a1d9" target="_top" xlink:title="JLexer::act123">
<polygon fill="white" stroke="black" points="249,-95.5 249,-114.5 335,-114.5 335,-95.5 249,-95.5"/>
<text text-anchor="middle" x="292" y="-102.5" font-family="Helvetica,sans-Serif" font-size="10.00">JLexer::act123</text>
</a>
</g>
</g>
<!-- Node2&#45;&gt;Node7 -->
<g id="edge6" class="edge"><title>Node2&#45;&gt;Node7</title>
<path fill="none" stroke="midnightblue" d="M198.126,-148.973C203.177,-147.082 208.241,-145.071 213,-143 229.588,-135.78 232.751,-131.954 249,-124 255.469,-120.833 262.581,-117.545 269.084,-114.612"/>
<polygon fill="midnightblue" stroke="midnightblue" points="196.729,-145.756 188.511,-152.443 199.106,-152.34 196.729,-145.756"/>
</g>
<!-- Node8 -->
<g id="node8" class="node"><title>Node8</title>
<g id="a_node8"><a xlink:href="../../d2/d2e/classJLexer.html#a98bb9e631dacf2121d2d36d7ce478756" target="_top" xlink:title="JLexer::act124">
<polygon fill="white" stroke="black" points="249,-57.5 249,-76.5 335,-76.5 335,-57.5 249,-57.5"/>
<text text-anchor="middle" x="292" y="-64.5" font-family="Helvetica,sans-Serif" font-size="10.00">JLexer::act124</text>
</a>
</g>
</g>
<!-- Node2&#45;&gt;Node8 -->
<g id="edge7" class="edge"><title>Node2&#45;&gt;Node8</title>
<path fill="none" stroke="midnightblue" d="M205.677,-147.95C208.255,-146.457 210.72,-144.812 213,-143 236.458,-124.359 226.398,-105.67 249,-86 253.226,-82.3222 258.281,-79.2352 263.396,-76.6907"/>
<polygon fill="midnightblue" stroke="midnightblue" points="203.982,-144.884 196.579,-152.462 207.092,-151.155 203.982,-144.884"/>
</g>
</g>
</svg>
