<?xml version="1.0" encoding="UTF-8" standalone="no"?>
<!DOCTYPE svg PUBLIC "-//W3C//DTD SVG 1.1//EN"
 "http://www.w3.org/Graphics/SVG/1.1/DTD/svg11.dtd">
<!-- Generated by graphviz version 2.38.0 (20140413.2041)
 -->
<!-- Title: endOfCommentLine Pages: 1 -->
<svg width="241pt" height="218pt"
 viewBox="0.00 0.00 241.00 218.00" xmlns="http://www.w3.org/2000/svg" xmlns:xlink="http://www.w3.org/1999/xlink">
<g id="graph0" class="graph" transform="scale(1 1) rotate(0) translate(4 214)">
<title>endOfCommentLine</title>
<polygon fill="white" stroke="none" points="-4,4 -4,-214 237,-214 237,4 -4,4"/>
<!-- Node1 -->
<g id="node1" class="node"><title>Node1</title>
<polygon fill="#bfbfbf" stroke="black" points="0,-95.5 0,-114.5 111,-114.5 111,-95.5 0,-95.5"/>
<text text-anchor="middle" x="55.5" y="-102.5" font-family="Helvetica,sans-Serif" font-size="10.00">endOfCommentLine</text>
</g>
<!-- Node2 -->
<g id="node2" class="node"><title>Node2</title>
<g id="a_node2"><a xlink:href="../../d2/d2e/classJLexer.html#a67fc94d7a73d602beedadbf2a57c937f" target="_top" xlink:title="JLexer::act116">
<polygon fill="white" stroke="black" points="147,-190.5 147,-209.5 233,-209.5 233,-190.5 147,-190.5"/>
<text text-anchor="middle" x="190" y="-197.5" font-family="Helvetica,sans-Serif" font-size="10.00">JLexer::act116</text>
</a>
</g>
</g>
<!-- Node1&#45;&gt;Node2 -->
<g id="edge1" class="edge"><title>Node1&#45;&gt;Node2</title>
<path fill="none" stroke="midnightblue" d="M73.7461,-121.987C91.1711,-138.52 119.392,-163.627 147,-181 152.554,-184.495 158.86,-187.701 164.865,-190.444"/>
<polygon fill="midnightblue" stroke="midnightblue" points="75.7394,-119.047 66.1092,-114.63 70.883,-124.088 75.7394,-119.047"/>
</g>
<!-- Node3 -->
<g id="node3" class="node"><title>Node3</title>
<g id="a_node3"><a xlink:href="../../d2/d2e/classJLexer.html#a8ce9d42192752ad313df657247242e50" target="_top" xlink:title="JLexer::act117">
<polygon fill="white" stroke="black" points="147,-152.5 147,-171.5 233,-171.5 233,-152.5 147,-152.5"/>
<text text-anchor="middle" x="190" y="-159.5" font-family="Helvetica,sans-Serif" font-size="10.00">JLexer::act117</text>
</a>
</g>
</g>
<!-- Node1&#45;&gt;Node3 -->
<g id="edge2" class="edge"><title>Node1&#45;&gt;Node3</title>
<path fill="none" stroke="midnightblue" d="M88.1561,-118.618C112.397,-129.046 145.228,-143.17 166.75,-152.428"/>
<polygon fill="midnightblue" stroke="midnightblue" points="89.2467,-115.277 78.6775,-114.541 86.4805,-121.707 89.2467,-115.277"/>
</g>
<!-- Node4 -->
<g id="node4" class="node"><title>Node4</title>
<g id="a_node4"><a xlink:href="../../d2/d2e/classJLexer.html#aa9818b797949fbc3adcc51457b28f0fd" target="_top" xlink:title="JLexer::act118">
<polygon fill="white" stroke="black" points="147,-114.5 147,-133.5 233,-133.5 233,-114.5 147,-114.5"/>
<text text-anchor="middle" x="190" y="-121.5" font-family="Helvetica,sans-Serif" font-size="10.00">JLexer::act118</text>
</a>
</g>
</g>
<!-- Node1&#45;&gt;Node4 -->
<g id="edge3" class="edge"><title>Node1&#45;&gt;Node4</title>
<path fill="none" stroke="midnightblue" d="M121.228,-114.282C129.85,-115.518 138.506,-116.759 146.612,-117.922"/>
<polygon fill="midnightblue" stroke="midnightblue" points="121.553,-110.793 111.158,-112.838 120.56,-117.722 121.553,-110.793"/>
</g>
<!-- Node5 -->
<g id="node5" class="node"><title>Node5</title>
<g id="a_node5"><a xlink:href="../../d2/d2e/classJLexer.html#a8838e48631b8ec021d1a62c136ee2876" target="_top" xlink:title="JLexer::act122">
<polygon fill="white" stroke="black" points="147,-76.5 147,-95.5 233,-95.5 233,-76.5 147,-76.5"/>
<text text-anchor="middle" x="190" y="-83.5" font-family="Helvetica,sans-Serif" font-size="10.00">JLexer::act122</text>
</a>
</g>
</g>
<!-- Node1&#45;&gt;Node5 -->
<g id="edge4" class="edge"><title>Node1&#45;&gt;Node5</title>
<path fill="none" stroke="midnightblue" d="M121.228,-95.7182C129.85,-94.4819 138.506,-93.2406 146.612,-92.0783"/>
<polygon fill="midnightblue" stroke="midnightblue" points="120.56,-92.2782 111.158,-97.1623 121.553,-99.2073 120.56,-92.2782"/>
</g>
<!-- Node6 -->
<g id="node6" class="node"><title>Node6</title>
<g id="a_node6"><a xlink:href="../../d2/d2e/classJLexer.html#a291ba24901031cb768da66a63e55a1d9" target="_top" xlink:title="JLexer::act123">
<polygon fill="white" stroke="black" points="147,-38.5 147,-57.5 233,-57.5 233,-38.5 147,-38.5"/>
<text text-anchor="middle" x="190" y="-45.5" font-family="Helvetica,sans-Serif" font-size="10.00">JLexer::act123</text>
</a>
</g>
</g>
<!-- Node1&#45;&gt;Node6 -->
<g id="edge5" class="edge"><title>Node1&#45;&gt;Node6</title>
<path fill="none" stroke="midnightblue" d="M88.1561,-91.3819C112.397,-80.9535 145.228,-66.8303 166.75,-57.5716"/>
<polygon fill="midnightblue" stroke="midnightblue" points="86.4805,-88.2926 78.6775,-95.4595 89.2467,-94.7228 86.4805,-88.2926"/>
</g>
<!-- Node7 -->
<g id="node7" class="node"><title>Node7</title>
<g id="a_node7"><a xlink:href="../../d2/d2e/classJLexer.html#a98bb9e631dacf2121d2d36d7ce478756" target="_top" xlink:title="JLexer::act124">
<polygon fill="white" stroke="black" points="147,-0.5 147,-19.5 233,-19.5 233,-0.5 147,-0.5"/>
<text text-anchor="middle" x="190" y="-7.5" font-family="Helvetica,sans-Serif" font-size="10.00">JLexer::act124</text>
</a>
</g>
</g>
<!-- Node1&#45;&gt;Node7 -->
<g id="edge6" class="edge"><title>Node1&#45;&gt;Node7</title>
<path fill="none" stroke="midnightblue" d="M73.7461,-88.0135C91.1711,-71.4796 119.392,-46.3732 147,-29 152.554,-25.5047 158.86,-22.2992 164.865,-19.5565"/>
<polygon fill="midnightblue" stroke="midnightblue" points="70.883,-85.9116 66.1092,-95.37 75.7394,-90.953 70.883,-85.9116"/>
</g>
</g>
</svg>
