<?xml version="1.0" encoding="UTF-8" standalone="no"?>
<!DOCTYPE svg PUBLIC "-//W3C//DTD SVG 1.1//EN"
 "http://www.w3.org/Graphics/SVG/1.1/DTD/svg11.dtd">
<!-- Generated by graphviz version 2.38.0 (20140413.2041)
 -->
<!-- Title: CCCC_Table::find Pages: 1 -->
<svg width="597pt" height="127pt"
 viewBox="0.00 0.00 597.00 126.50" xmlns="http://www.w3.org/2000/svg" xmlns:xlink="http://www.w3.org/1999/xlink">
<g id="graph0" class="graph" transform="scale(1 1) rotate(0) translate(4 122.5)">
<title>CCCC_Table::find</title>
<polygon fill="white" stroke="none" points="-4,4 -4,-122.5 593,-122.5 593,4 -4,4"/>
<!-- Node1 -->
<g id="node1" class="node"><title>Node1</title>
<polygon fill="#bfbfbf" stroke="black" points="0,-55 0,-74 101,-74 101,-55 0,-55"/>
<text text-anchor="middle" x="50.5" y="-62" font-family="Helvetica,sans-Serif" font-size="10.00">CCCC_Table::find</text>
</g>
<!-- Node2 -->
<g id="node2" class="node"><title>Node2</title>
<g id="a_node2"><a xlink:href="../../dc/d1e/classCCCC__Member.html#a5b4510004fda956c909278337ae19236" target="_top" xlink:title="CCCC_Member::FromFile">
<polygon fill="white" stroke="black" points="137,-99 137,-118 273,-118 273,-99 137,-99"/>
<text text-anchor="middle" x="205" y="-106" font-family="Helvetica,sans-Serif" font-size="10.00">CCCC_Member::FromFile</text>
</a>
</g>
</g>
<!-- Node1&#45;&gt;Node2 -->
<g id="edge1" class="edge"><title>Node1&#45;&gt;Node2</title>
<path fill="none" stroke="midnightblue" d="M93.6841,-76.9085C107.483,-80.9476 122.889,-85.4362 137,-89.5 147.805,-92.6117 159.602,-95.9701 170.244,-98.9852"/>
<polygon fill="midnightblue" stroke="midnightblue" points="94.5428,-73.513 83.962,-74.0593 92.5741,-80.2304 94.5428,-73.513"/>
</g>
<!-- Node5 -->
<g id="node5" class="node"><title>Node5</title>
<g id="a_node5"><a xlink:href="../../d2/d65/classCCCC__UseRelationship.html#a0f362d2a47005694937e7a14ede856be" target="_top" xlink:title="CCCC_UseRelationship\l::supplier_module_ptr">
<polygon fill="white" stroke="black" points="140,-49.5 140,-79.5 270,-79.5 270,-49.5 140,-49.5"/>
<text text-anchor="start" x="148" y="-67.5" font-family="Helvetica,sans-Serif" font-size="10.00">CCCC_UseRelationship</text>
<text text-anchor="middle" x="205" y="-56.5" font-family="Helvetica,sans-Serif" font-size="10.00">::supplier_module_ptr</text>
</a>
</g>
</g>
<!-- Node1&#45;&gt;Node5 -->
<g id="edge4" class="edge"><title>Node1&#45;&gt;Node5</title>
<path fill="none" stroke="midnightblue" d="M111.052,-64.5C120.459,-64.5 130.223,-64.5 139.732,-64.5"/>
<polygon fill="midnightblue" stroke="midnightblue" points="111.012,-61.0001 101.012,-64.5 111.012,-68.0001 111.012,-61.0001"/>
</g>
<!-- Node6 -->
<g id="node6" class="node"><title>Node6</title>
<g id="a_node6"><a xlink:href="../../d2/d65/classCCCC__UseRelationship.html#aed2ef8c07268a86fc66b12ce1d63e266" target="_top" xlink:title="CCCC_UseRelationship\l::client_module_ptr">
<polygon fill="white" stroke="black" points="140,-0.5 140,-30.5 270,-30.5 270,-0.5 140,-0.5"/>
<text text-anchor="start" x="148" y="-18.5" font-family="Helvetica,sans-Serif" font-size="10.00">CCCC_UseRelationship</text>
<text text-anchor="middle" x="205" y="-7.5" font-family="Helvetica,sans-Serif" font-size="10.00">::client_module_ptr</text>
</a>
</g>
</g>
<!-- Node1&#45;&gt;Node6 -->
<g id="edge5" class="edge"><title>Node1&#45;&gt;Node6</title>
<path fill="none" stroke="midnightblue" d="M90.8118,-51.8687C111.083,-45.3554 135.946,-37.3666 157.201,-30.537"/>
<polygon fill="midnightblue" stroke="midnightblue" points="89.7155,-48.5446 81.2656,-54.936 91.8569,-55.209 89.7155,-48.5446"/>
</g>
<!-- Node3 -->
<g id="node3" class="node"><title>Node3</title>
<g id="a_node3"><a xlink:href="../../d4/d6e/classCCCC__Project.html#a189af779423cacf2ee6cbb9f738392cc" target="_top" xlink:title="CCCC_Project::FromFile">
<polygon fill="white" stroke="black" points="309,-99 309,-118 440,-118 440,-99 309,-99"/>
<text text-anchor="middle" x="374.5" y="-106" font-family="Helvetica,sans-Serif" font-size="10.00">CCCC_Project::FromFile</text>
</a>
</g>
</g>
<!-- Node2&#45;&gt;Node3 -->
<g id="edge2" class="edge"><title>Node2&#45;&gt;Node3</title>
<path fill="none" stroke="midnightblue" d="M283.435,-108.5C291.911,-108.5 300.473,-108.5 308.772,-108.5"/>
<polygon fill="midnightblue" stroke="midnightblue" points="283.164,-105 273.164,-108.5 283.163,-112 283.164,-105"/>
</g>
<!-- Node4 -->
<g id="node4" class="node"><title>Node4</title>
<g id="a_node4"><a xlink:href="../../db/d4a/classMain.html#a13105815f91cc705481ca62c1e3ff562" target="_top" xlink:title="Main::LoadDatabase">
<polygon fill="white" stroke="black" points="476,-99 476,-118 589,-118 589,-99 476,-99"/>
<text text-anchor="middle" x="532.5" y="-106" font-family="Helvetica,sans-Serif" font-size="10.00">Main::LoadDatabase</text>
</a>
</g>
</g>
<!-- Node3&#45;&gt;Node4 -->
<g id="edge3" class="edge"><title>Node3&#45;&gt;Node4</title>
<path fill="none" stroke="midnightblue" d="M450.542,-108.5C458.977,-108.5 467.458,-108.5 475.59,-108.5"/>
<polygon fill="midnightblue" stroke="midnightblue" points="450.303,-105 440.303,-108.5 450.303,-112 450.303,-105"/>
</g>
</g>
</svg>
