<?xml version="1.0" encoding="UTF-8" standalone="no"?>
<!DOCTYPE svg PUBLIC "-//W3C//DTD SVG 1.1//EN"
 "http://www.w3.org/Graphics/SVG/1.1/DTD/svg11.dtd">
<!-- Generated by graphviz version 2.38.0 (20140413.2041)
 -->
<!-- Title: CCCC_Table::next_item Pages: 1 -->
<svg width="907pt" height="1020pt"
 viewBox="0.00 0.00 907.00 1020.46" xmlns="http://www.w3.org/2000/svg" xmlns:xlink="http://www.w3.org/1999/xlink">
<g id="graph0" class="graph" transform="scale(1 1) rotate(0) translate(4 1016.46)">
<title>CCCC_Table::next_item</title>
<polygon fill="white" stroke="none" points="-4,4 -4,-1016.46 903,-1016.46 903,4 -4,4"/>
<!-- Node1 -->
<g id="node1" class="node"><title>Node1</title>
<polygon fill="#bfbfbf" stroke="black" points="0,-472.461 0,-491.461 129,-491.461 129,-472.461 0,-472.461"/>
<text text-anchor="middle" x="64.5" y="-479.461" font-family="Helvetica,sans-Serif" font-size="10.00">CCCC_Table::next_item</text>
</g>
<!-- Node2 -->
<g id="node2" class="node"><title>Node2</title>
<g id="a_node2"><a xlink:href="../../d2/d92/classCCCC__Html__Stream.html#a81d206c53e52cd62d445beb809c3d215" target="_top" xlink:title="CCCC_Html_Stream::OO\l_Design">
<polygon fill="white" stroke="black" points="553.5,-638.961 553.5,-668.961 687.5,-668.961 687.5,-638.961 553.5,-638.961"/>
<text text-anchor="start" x="561.5" y="-656.961" font-family="Helvetica,sans-Serif" font-size="10.00">CCCC_Html_Stream::OO</text>
<text text-anchor="middle" x="620.5" y="-645.961" font-family="Helvetica,sans-Serif" font-size="10.00">_Design</text>
</a>
</g>
</g>
<!-- Node1&#45;&gt;Node2 -->
<g id="edge1" class="edge"><title>Node1&#45;&gt;Node2</title>
<path fill="none" stroke="midnightblue" d="M70.6756,-501.416C81.3933,-537.325 109.762,-613.241 165,-644.961 229.162,-681.807 443.15,-669.507 553.072,-660.287"/>
<polygon fill="midnightblue" stroke="midnightblue" points="74.0015,-500.315 67.9058,-491.65 67.267,-502.225 74.0015,-500.315"/>
</g>
<!-- Node3 -->
<g id="node3" class="node"><title>Node3</title>
<g id="a_node3"><a xlink:href="../../d2/d92/classCCCC__Html__Stream.html#a872d57e3b8d177d0fcc532237b53e6fe" target="_top" xlink:title="CCCC_Html_Stream::Procedural\l_Summary">
<polygon fill="white" stroke="black" points="536,-687.961 536,-717.961 705,-717.961 705,-687.961 536,-687.961"/>
<text text-anchor="start" x="544" y="-705.961" font-family="Helvetica,sans-Serif" font-size="10.00">CCCC_Html_Stream::Procedural</text>
<text text-anchor="middle" x="620.5" y="-694.961" font-family="Helvetica,sans-Serif" font-size="10.00">_Summary</text>
</a>
</g>
</g>
<!-- Node1&#45;&gt;Node3 -->
<g id="edge2" class="edge"><title>Node1&#45;&gt;Node3</title>
<path fill="none" stroke="midnightblue" d="M69.1935,-501.487C77.8886,-541.407 103.72,-631.966 165,-671.961 224.029,-710.487 421.205,-710.392 535.53,-706.781"/>
<polygon fill="midnightblue" stroke="midnightblue" points="72.6151,-500.748 67.1802,-491.654 65.7573,-502.153 72.6151,-500.748"/>
</g>
<!-- Node4 -->
<g id="node4" class="node"><title>Node4</title>
<g id="a_node4"><a xlink:href="../../d2/d92/classCCCC__Html__Stream.html#a0dbb99417ffc369edc76114cc2455ee2" target="_top" xlink:title="CCCC_Html_Stream::Structural\l_Summary">
<polygon fill="white" stroke="black" points="539.5,-736.961 539.5,-766.961 701.5,-766.961 701.5,-736.961 539.5,-736.961"/>
<text text-anchor="start" x="547.5" y="-754.961" font-family="Helvetica,sans-Serif" font-size="10.00">CCCC_Html_Stream::Structural</text>
<text text-anchor="middle" x="620.5" y="-743.961" font-family="Helvetica,sans-Serif" font-size="10.00">_Summary</text>
</a>
</g>
</g>
<!-- Node1&#45;&gt;Node4 -->
<g id="edge3" class="edge"><title>Node1&#45;&gt;Node4</title>
<path fill="none" stroke="midnightblue" d="M67.8688,-501.606C74.3464,-545.873 96.6956,-653.413 165,-702.961 222.978,-745.019 425.146,-752.128 539.35,-752.664"/>
<polygon fill="midnightblue" stroke="midnightblue" points="71.32,-501.008 66.5182,-491.564 64.3825,-501.941 71.32,-501.008"/>
</g>
<!-- Node5 -->
<g id="node5" class="node"><title>Node5</title>
<g id="a_node5"><a xlink:href="../../d2/d92/classCCCC__Html__Stream.html#a0abac1d610545f3aac5c469074e98ee8" target="_top" xlink:title="CCCC_Html_Stream::Structural\l_Detail">
<polygon fill="white" stroke="black" points="539.5,-981.961 539.5,-1011.96 701.5,-1011.96 701.5,-981.961 539.5,-981.961"/>
<text text-anchor="start" x="547.5" y="-999.961" font-family="Helvetica,sans-Serif" font-size="10.00">CCCC_Html_Stream::Structural</text>
<text text-anchor="middle" x="620.5" y="-988.961" font-family="Helvetica,sans-Serif" font-size="10.00">_Detail</text>
</a>
</g>
</g>
<!-- Node1&#45;&gt;Node5 -->
<g id="edge4" class="edge"><title>Node1&#45;&gt;Node5</title>
<path fill="none" stroke="midnightblue" d="M67.9892,-501.8C77.4931,-574.744 113.564,-826.953 165,-886.961 257.329,-994.676 435.389,-1006.59 539.115,-1003.3"/>
<polygon fill="midnightblue" stroke="midnightblue" points="71.4363,-501.163 66.6937,-491.689 64.4931,-502.053 71.4363,-501.163"/>
</g>
<!-- Node6 -->
<g id="node6" class="node"><title>Node6</title>
<g id="a_node6"><a xlink:href="../../d2/d92/classCCCC__Html__Stream.html#afe9cd530333567a8e6bfb38c6b586e81" target="_top" xlink:title="CCCC_Html_Stream::Procedural\l_Detail">
<polygon fill="white" stroke="black" points="536,-883.961 536,-913.961 705,-913.961 705,-883.961 536,-883.961"/>
<text text-anchor="start" x="544" y="-901.961" font-family="Helvetica,sans-Serif" font-size="10.00">CCCC_Html_Stream::Procedural</text>
<text text-anchor="middle" x="620.5" y="-890.961" font-family="Helvetica,sans-Serif" font-size="10.00">_Detail</text>
</a>
</g>
</g>
<!-- Node1&#45;&gt;Node6 -->
<g id="edge5" class="edge"><title>Node1&#45;&gt;Node6</title>
<path fill="none" stroke="midnightblue" d="M67.9082,-501.922C76.7908,-572.012 110.079,-805.176 165,-851.961 219.047,-898.001 419.721,-902.636 535.549,-901.259"/>
<polygon fill="midnightblue" stroke="midnightblue" points="71.3562,-501.285 66.6521,-491.792 64.4094,-502.147 71.3562,-501.285"/>
</g>
<!-- Node7 -->
<g id="node7" class="node"><title>Node7</title>
<g id="a_node7"><a xlink:href="../../d2/d92/classCCCC__Html__Stream.html#a103e3cbe446ab2d5978e6a4741e00a63" target="_top" xlink:title="CCCC_Html_Stream::Other\l_Extents">
<polygon fill="white" stroke="black" points="548,-834.961 548,-864.961 693,-864.961 693,-834.961 548,-834.961"/>
<text text-anchor="start" x="556" y="-852.961" font-family="Helvetica,sans-Serif" font-size="10.00">CCCC_Html_Stream::Other</text>
<text text-anchor="middle" x="620.5" y="-841.961" font-family="Helvetica,sans-Serif" font-size="10.00">_Extents</text>
</a>
</g>
</g>
<!-- Node1&#45;&gt;Node7 -->
<g id="edge6" class="edge"><title>Node1&#45;&gt;Node7</title>
<path fill="none" stroke="midnightblue" d="M68.3157,-501.541C78.2032,-567.35 113.544,-778.757 165,-819.961 222.174,-865.744 434.598,-860.976 547.646,-854.844"/>
<polygon fill="midnightblue" stroke="midnightblue" points="71.7776,-501.026 66.857,-491.643 64.8524,-502.046 71.7776,-501.026"/>
</g>
<!-- Node8 -->
<g id="node8" class="node"><title>Node8</title>
<g id="a_node8"><a xlink:href="../../d2/d92/classCCCC__Html__Stream.html#a4cdc271c6f74c77b19dec08a3c8500db" target="_top" xlink:title="CCCC_Html_Stream::Put\l_Extent_List">
<polygon fill="white" stroke="black" points="179,-780.961 179,-810.961 312,-810.961 312,-780.961 179,-780.961"/>
<text text-anchor="start" x="187" y="-798.961" font-family="Helvetica,sans-Serif" font-size="10.00">CCCC_Html_Stream::Put</text>
<text text-anchor="middle" x="245.5" y="-787.961" font-family="Helvetica,sans-Serif" font-size="10.00">_Extent_List</text>
</a>
</g>
</g>
<!-- Node1&#45;&gt;Node8 -->
<g id="edge7" class="edge"><title>Node1&#45;&gt;Node8</title>
<path fill="none" stroke="midnightblue" d="M67.4697,-501.552C73.3745,-550.679 95.092,-680.697 165,-757.961 173.827,-767.717 185.695,-775.206 197.565,-780.851"/>
<polygon fill="midnightblue" stroke="midnightblue" points="70.9476,-501.158 66.3623,-491.607 63.9906,-501.933 70.9476,-501.158"/>
</g>
<!-- Node14 -->
<g id="node14" class="node"><title>Node14</title>
<g id="a_node14"><a xlink:href="../../d2/d92/classCCCC__Html__Stream.html#abc48ef802e86d097b606dda746f1dc39" target="_top" xlink:title="CCCC_Html_Stream::Separate\l_Modules">
<polygon fill="white" stroke="black" points="165,-605.961 165,-635.961 326,-635.961 326,-605.961 165,-605.961"/>
<text text-anchor="start" x="173" y="-623.961" font-family="Helvetica,sans-Serif" font-size="10.00">CCCC_Html_Stream::Separate</text>
<text text-anchor="middle" x="245.5" y="-612.961" font-family="Helvetica,sans-Serif" font-size="10.00">_Modules</text>
</a>
</g>
</g>
<!-- Node1&#45;&gt;Node14 -->
<g id="edge19" class="edge"><title>Node1&#45;&gt;Node14</title>
<path fill="none" stroke="midnightblue" d="M77.7358,-499.957C94.7639,-523.776 127.745,-565.698 165,-590.961 173.669,-596.84 183.644,-601.765 193.535,-605.814"/>
<polygon fill="midnightblue" stroke="midnightblue" points="80.4261,-497.697 71.8253,-491.51 74.6906,-501.71 80.4261,-497.697"/>
</g>
<!-- Node15 -->
<g id="node15" class="node"><title>Node15</title>
<g id="a_node15"><a xlink:href="../../dc/d1e/classCCCC__Member.html#a22edd2264d9f7fb3f80fcf7269b624e1" target="_top" xlink:title="CCCC_Member::ToFile">
<polygon fill="white" stroke="black" points="183,-251.461 183,-270.461 308,-270.461 308,-251.461 183,-251.461"/>
<text text-anchor="middle" x="245.5" y="-258.461" font-family="Helvetica,sans-Serif" font-size="10.00">CCCC_Member::ToFile</text>
</a>
</g>
</g>
<!-- Node1&#45;&gt;Node15 -->
<g id="edge20" class="edge"><title>Node1&#45;&gt;Node15</title>
<path fill="none" stroke="midnightblue" d="M69.3951,-462.08C78.4673,-421.279 104.965,-327.901 165,-279.961 170.323,-275.711 176.444,-272.386 182.878,-269.79"/>
<polygon fill="midnightblue" stroke="midnightblue" points="65.9183,-461.607 67.285,-472.113 72.7684,-463.047 65.9183,-461.607"/>
</g>
<!-- Node16 -->
<g id="node16" class="node"><title>Node16</title>
<g id="a_node16"><a xlink:href="../../d4/d6e/classCCCC__Project.html#ad2b4c25d24f7ed427c79bd9c7bd8a971" target="_top" xlink:title="CCCC_Project::ToFile">
<polygon fill="white" stroke="black" points="371.5,-295.461 371.5,-314.461 490.5,-314.461 490.5,-295.461 371.5,-295.461"/>
<text text-anchor="middle" x="431" y="-302.461" font-family="Helvetica,sans-Serif" font-size="10.00">CCCC_Project::ToFile</text>
</a>
</g>
</g>
<!-- Node1&#45;&gt;Node16 -->
<g id="edge38" class="edge"><title>Node1&#45;&gt;Node16</title>
<path fill="none" stroke="midnightblue" d="M83.9243,-465.687C102.987,-449.636 134.232,-425.461 165,-410.961 231.997,-379.389 257.864,-396.995 326,-367.961 360.762,-353.148 397.758,-328.249 416.868,-314.611"/>
<polygon fill="midnightblue" stroke="midnightblue" points="81.6163,-463.056 76.3026,-472.222 86.1725,-468.37 81.6163,-463.056"/>
</g>
<!-- Node19 -->
<g id="node19" class="node"><title>Node19</title>
<g id="a_node19"><a xlink:href="../../d6/d9f/classCCCC__Module.html#ad1f26ab257c41657302b5c7b0253b034" target="_top" xlink:title="CCCC_Module::get_count">
<polygon fill="white" stroke="black" points="362,-567.461 362,-586.461 500,-586.461 500,-567.461 362,-567.461"/>
<text text-anchor="middle" x="431" y="-574.461" font-family="Helvetica,sans-Serif" font-size="10.00">CCCC_Module::get_count</text>
</a>
</g>
</g>
<!-- Node1&#45;&gt;Node19 -->
<g id="edge24" class="edge"><title>Node1&#45;&gt;Node19</title>
<path fill="none" stroke="midnightblue" d="M82.5484,-498.536C101.138,-515.473 132.588,-540.944 165,-552.961 228.888,-576.648 307.128,-581.007 361.973,-580.447"/>
<polygon fill="midnightblue" stroke="midnightblue" points="84.875,-495.919 75.1793,-491.648 80.0951,-501.033 84.875,-495.919"/>
</g>
<!-- Node20 -->
<g id="node20" class="node"><title>Node20</title>
<g id="a_node20"><a xlink:href="../../db/d8c/classCCCC__Xml__Stream.html#a261ad7db353c63e8f2ecc43dd120c35b" target="_top" xlink:title="CCCC_Xml_Stream::OO\l_Design">
<polygon fill="white" stroke="black" points="555,-452.961 555,-482.961 686,-482.961 686,-452.961 555,-452.961"/>
<text text-anchor="start" x="563" y="-470.961" font-family="Helvetica,sans-Serif" font-size="10.00">CCCC_Xml_Stream::OO</text>
<text text-anchor="middle" x="620.5" y="-459.961" font-family="Helvetica,sans-Serif" font-size="10.00">_Design</text>
</a>
</g>
</g>
<!-- Node1&#45;&gt;Node20 -->
<g id="edge41" class="edge"><title>Node1&#45;&gt;Node20</title>
<path fill="none" stroke="midnightblue" d="M139.461,-482.542C225.96,-482.889 373.439,-482.45 500,-476.961 517.772,-476.191 537.002,-474.931 554.735,-473.595"/>
<polygon fill="midnightblue" stroke="midnightblue" points="139.236,-479.041 129.221,-482.496 139.205,-486.041 139.236,-479.041"/>
</g>
<!-- Node21 -->
<g id="node21" class="node"><title>Node21</title>
<g id="a_node21"><a xlink:href="../../db/d8c/classCCCC__Xml__Stream.html#af8659ea64595d693d4b3a78f2620b379" target="_top" xlink:title="CCCC_Xml_Stream::Procedural\l_Summary">
<polygon fill="white" stroke="black" points="538,-403.961 538,-433.961 703,-433.961 703,-403.961 538,-403.961"/>
<text text-anchor="start" x="546" y="-421.961" font-family="Helvetica,sans-Serif" font-size="10.00">CCCC_Xml_Stream::Procedural</text>
<text text-anchor="middle" x="620.5" y="-410.961" font-family="Helvetica,sans-Serif" font-size="10.00">_Summary</text>
</a>
</g>
</g>
<!-- Node1&#45;&gt;Node21 -->
<g id="edge42" class="edge"><title>Node1&#45;&gt;Node21</title>
<path fill="none" stroke="midnightblue" d="M139.333,-476.176C225.923,-469.038 373.693,-455.762 500,-438.961 512.302,-437.325 525.281,-435.381 537.972,-433.357"/>
<polygon fill="midnightblue" stroke="midnightblue" points="139.021,-472.689 129.341,-476.994 139.593,-479.666 139.021,-472.689"/>
</g>
<!-- Node22 -->
<g id="node22" class="node"><title>Node22</title>
<g id="a_node22"><a xlink:href="../../db/d8c/classCCCC__Xml__Stream.html#a8e9d1d8c0d2645f1af6df568e58cd175" target="_top" xlink:title="CCCC_Xml_Stream::Structural\l_Summary">
<polygon fill="white" stroke="black" points="541.5,-354.961 541.5,-384.961 699.5,-384.961 699.5,-354.961 541.5,-354.961"/>
<text text-anchor="start" x="549.5" y="-372.961" font-family="Helvetica,sans-Serif" font-size="10.00">CCCC_Xml_Stream::Structural</text>
<text text-anchor="middle" x="620.5" y="-361.961" font-family="Helvetica,sans-Serif" font-size="10.00">_Summary</text>
</a>
</g>
</g>
<!-- Node1&#45;&gt;Node22 -->
<g id="edge43" class="edge"><title>Node1&#45;&gt;Node22</title>
<path fill="none" stroke="midnightblue" d="M109.676,-469.723C126.879,-465.14 146.799,-460.056 165,-455.961 296.233,-426.436 450.309,-398.73 541.154,-383.103"/>
<polygon fill="midnightblue" stroke="midnightblue" points="108.643,-466.377 99.894,-472.353 110.46,-473.137 108.643,-466.377"/>
</g>
<!-- Node24 -->
<g id="node24" class="node"><title>Node24</title>
<g id="a_node24"><a xlink:href="../../db/d8c/classCCCC__Xml__Stream.html#a221dc496f3d46314b700c1a3bb6e5e5c" target="_top" xlink:title="CCCC_Xml_Stream::Separate\l_Modules">
<polygon fill="white" stroke="black" points="741,-518.961 741,-548.961 899,-548.961 899,-518.961 741,-518.961"/>
<text text-anchor="start" x="749" y="-536.961" font-family="Helvetica,sans-Serif" font-size="10.00">CCCC_Xml_Stream::Separate</text>
<text text-anchor="middle" x="820" y="-525.961" font-family="Helvetica,sans-Serif" font-size="10.00">_Modules</text>
</a>
</g>
</g>
<!-- Node1&#45;&gt;Node24 -->
<g id="edge58" class="edge"><title>Node1&#45;&gt;Node24</title>
<path fill="none" stroke="midnightblue" d="M132.698,-492.961C143.479,-494.474 154.531,-495.878 165,-496.961 372.292,-518.403 617.925,-528.107 740.792,-531.89"/>
<polygon fill="midnightblue" stroke="midnightblue" points="132.871,-489.449 122.473,-491.482 131.869,-496.377 132.871,-489.449"/>
</g>
<!-- Node25 -->
<g id="node25" class="node"><title>Node25</title>
<g id="a_node25"><a xlink:href="../../d6/d9f/classCCCC__Module.html#a6f7f14ae0bef4dec23385b6abf14331f" target="_top" xlink:title="CCCC_Module::ToFile">
<polygon fill="white" stroke="black" points="185,-339.461 185,-358.461 306,-358.461 306,-339.461 185,-339.461"/>
<text text-anchor="middle" x="245.5" y="-346.461" font-family="Helvetica,sans-Serif" font-size="10.00">CCCC_Module::ToFile</text>
</a>
</g>
</g>
<!-- Node1&#45;&gt;Node25 -->
<g id="edge34" class="edge"><title>Node1&#45;&gt;Node25</title>
<path fill="none" stroke="midnightblue" d="M77.4898,-463.589C94.2412,-439.347 126.912,-396.95 165,-372.961 174.881,-366.738 186.469,-362.05 197.693,-358.549"/>
<polygon fill="midnightblue" stroke="midnightblue" points="74.3737,-461.95 71.685,-472.198 80.1776,-465.863 74.3737,-461.95"/>
</g>
<!-- Node26 -->
<g id="node26" class="node"><title>Node26</title>
<g id="a_node26"><a xlink:href="../../d4/d6e/classCCCC__Project.html#a9e618e858690b526180d7af22b0d48df" target="_top" xlink:title="CCCC_Project::reindex">
<polygon fill="white" stroke="black" points="368.5,-218.461 368.5,-237.461 493.5,-237.461 493.5,-218.461 368.5,-218.461"/>
<text text-anchor="middle" x="431" y="-225.461" font-family="Helvetica,sans-Serif" font-size="10.00">CCCC_Project::reindex</text>
</a>
</g>
</g>
<!-- Node1&#45;&gt;Node26 -->
<g id="edge36" class="edge"><title>Node1&#45;&gt;Node26</title>
<path fill="none" stroke="midnightblue" d="M66.8975,-462.325C71.4293,-415.043 90.1384,-294.874 165,-241.961 232.908,-193.963 336.796,-206.69 392.167,-218.372"/>
<polygon fill="midnightblue" stroke="midnightblue" points="63.396,-462.197 66.0421,-472.456 70.3711,-462.786 63.396,-462.197"/>
</g>
<!-- Node27 -->
<g id="node27" class="node"><title>Node27</title>
<g id="a_node27"><a xlink:href="../../d2/d65/classCCCC__UseRelationship.html#ad5a6c8660690de211b0a40b52313ae05" target="_top" xlink:title="CCCC_UseRelationship\l::ToFile">
<polygon fill="white" stroke="black" points="180.5,-289.961 180.5,-319.961 310.5,-319.961 310.5,-289.961 180.5,-289.961"/>
<text text-anchor="start" x="188.5" y="-307.961" font-family="Helvetica,sans-Serif" font-size="10.00">CCCC_UseRelationship</text>
<text text-anchor="middle" x="245.5" y="-296.961" font-family="Helvetica,sans-Serif" font-size="10.00">::ToFile</text>
</a>
</g>
</g>
<!-- Node1&#45;&gt;Node27 -->
<g id="edge39" class="edge"><title>Node1&#45;&gt;Node27</title>
<path fill="none" stroke="midnightblue" d="M73.0667,-462.48C86.6,-430.168 118.005,-365.534 165,-329.961 170.076,-326.119 175.755,-322.859 181.681,-320.095"/>
<polygon fill="midnightblue" stroke="midnightblue" points="69.6763,-461.527 69.1655,-472.11 76.1642,-464.156 69.6763,-461.527"/>
</g>
<!-- Node28 -->
<g id="node28" class="node"><title>Node28</title>
<g id="a_node28"><a xlink:href="../../db/d8c/classCCCC__Xml__Stream.html#abfc8789cda35a84224b19b6cb1371dc7" target="_top" xlink:title="CCCC_Xml_Stream::Structural\l_Detail">
<polygon fill="white" stroke="black" points="166.5,-163.961 166.5,-193.961 324.5,-193.961 324.5,-163.961 166.5,-163.961"/>
<text text-anchor="start" x="174.5" y="-181.961" font-family="Helvetica,sans-Serif" font-size="10.00">CCCC_Xml_Stream::Structural</text>
<text text-anchor="middle" x="245.5" y="-170.961" font-family="Helvetica,sans-Serif" font-size="10.00">_Detail</text>
</a>
</g>
</g>
<!-- Node1&#45;&gt;Node28 -->
<g id="edge44" class="edge"><title>Node1&#45;&gt;Node28</title>
<path fill="none" stroke="midnightblue" d="M67.1491,-462.215C72.3109,-412.768 92.4451,-282.343 165,-208.961 171.016,-202.877 178.386,-198.01 186.189,-194.12"/>
<polygon fill="midnightblue" stroke="midnightblue" points="63.6591,-461.945 66.1977,-472.231 70.6278,-462.607 63.6591,-461.945"/>
</g>
<!-- Node29 -->
<g id="node29" class="node"><title>Node29</title>
<g id="a_node29"><a xlink:href="../../db/d8c/classCCCC__Xml__Stream.html#ac1909e96b08f6199ea7c8aaa7478977d" target="_top" xlink:title="CCCC_Xml_Stream::Procedural\l_Detail">
<polygon fill="white" stroke="black" points="538,-160.961 538,-190.961 703,-190.961 703,-160.961 538,-160.961"/>
<text text-anchor="start" x="546" y="-178.961" font-family="Helvetica,sans-Serif" font-size="10.00">CCCC_Xml_Stream::Procedural</text>
<text text-anchor="middle" x="620.5" y="-167.961" font-family="Helvetica,sans-Serif" font-size="10.00">_Detail</text>
</a>
</g>
</g>
<!-- Node1&#45;&gt;Node29 -->
<g id="edge45" class="edge"><title>Node1&#45;&gt;Node29</title>
<path fill="none" stroke="midnightblue" d="M68.4392,-461.999C78.4874,-396.781 113.711,-192 165,-153.961 222.474,-111.336 254.495,-151.285 326,-153.961 346.648,-154.734 458.374,-163.313 537.842,-169.525"/>
<polygon fill="midnightblue" stroke="midnightblue" points="64.9357,-461.76 66.9035,-472.17 71.8572,-462.805 64.9357,-461.76"/>
</g>
<!-- Node30 -->
<g id="node30" class="node"><title>Node30</title>
<g id="a_node30"><a xlink:href="../../db/d8c/classCCCC__Xml__Stream.html#a0a4b9ede5f6f9f0e90c39abb78d93337" target="_top" xlink:title="CCCC_Xml_Stream::Other\l_Extents">
<polygon fill="white" stroke="black" points="550,-23.9613 550,-53.9613 691,-53.9613 691,-23.9613 550,-23.9613"/>
<text text-anchor="start" x="558" y="-41.9613" font-family="Helvetica,sans-Serif" font-size="10.00">CCCC_Xml_Stream::Other</text>
<text text-anchor="middle" x="620.5" y="-30.9613" font-family="Helvetica,sans-Serif" font-size="10.00">_Extents</text>
</a>
</g>
</g>
<!-- Node1&#45;&gt;Node30 -->
<g id="edge46" class="edge"><title>Node1&#45;&gt;Node30</title>
<path fill="none" stroke="midnightblue" d="M67.1617,-462.423C73.9834,-387.263 102.481,-118.373 165,-65.9613 279.639,30.1437 473.167,-1.08847 566.296,-23.9094"/>
<polygon fill="midnightblue" stroke="midnightblue" points="63.673,-462.142 66.2809,-472.411 70.646,-462.757 63.673,-462.142"/>
</g>
<!-- Node31 -->
<g id="node31" class="node"><title>Node31</title>
<g id="a_node31"><a xlink:href="../../db/d8c/classCCCC__Xml__Stream.html#a8d4f164a7fe732e7627a5fc81ffd8ef9" target="_top" xlink:title="CCCC_Xml_Stream::Put\l_Extent_List">
<polygon fill="white" stroke="black" points="181,-75.9613 181,-105.961 310,-105.961 310,-75.9613 181,-75.9613"/>
<text text-anchor="start" x="189" y="-93.9613" font-family="Helvetica,sans-Serif" font-size="10.00">CCCC_Xml_Stream::Put</text>
<text text-anchor="middle" x="245.5" y="-82.9613" font-family="Helvetica,sans-Serif" font-size="10.00">_Extent_List</text>
</a>
</g>
</g>
<!-- Node1&#45;&gt;Node31 -->
<g id="edge47" class="edge"><title>Node1&#45;&gt;Node31</title>
<path fill="none" stroke="midnightblue" d="M65.0748,-462.159C64.879,-402.524 72.3838,-222.505 165,-120.961 170.567,-114.858 177.503,-109.989 184.942,-106.107"/>
<polygon fill="midnightblue" stroke="midnightblue" points="61.578,-462.463 65.1937,-472.422 68.5775,-462.382 61.578,-462.463"/>
</g>
<!-- Node9 -->
<g id="node9" class="node"><title>Node9</title>
<g id="a_node9"><a xlink:href="../../d2/d92/classCCCC__Html__Stream.html#ab815f564805ca3e3fe9cabb5c2df79fa" target="_top" xlink:title="CCCC_Html_Stream::Put\l_Structural_Details_Cell">
<polygon fill="white" stroke="black" points="364.5,-928.961 364.5,-958.961 497.5,-958.961 497.5,-928.961 364.5,-928.961"/>
<text text-anchor="start" x="372.5" y="-946.961" font-family="Helvetica,sans-Serif" font-size="10.00">CCCC_Html_Stream::Put</text>
<text text-anchor="middle" x="431" y="-935.961" font-family="Helvetica,sans-Serif" font-size="10.00">_Structural_Details_Cell</text>
</a>
</g>
</g>
<!-- Node8&#45;&gt;Node9 -->
<g id="edge8" class="edge"><title>Node8&#45;&gt;Node9</title>
<path fill="none" stroke="midnightblue" d="M273.099,-817.414C310.742,-847.775 378.613,-902.516 411.346,-928.916"/>
<polygon fill="midnightblue" stroke="midnightblue" points="275.086,-814.52 265.105,-810.967 270.691,-819.969 275.086,-814.52"/>
</g>
<!-- Node11 -->
<g id="node11" class="node"><title>Node11</title>
<g id="a_node11"><a xlink:href="../../d2/d92/classCCCC__Html__Stream.html#a11a4dc19838cdbfe33b6d2e7f8b5823a" target="_top" xlink:title="CCCC_Html_Stream::Put\l_Label_Cell">
<polygon fill="white" stroke="black" points="364.5,-780.961 364.5,-810.961 497.5,-810.961 497.5,-780.961 364.5,-780.961"/>
<text text-anchor="start" x="372.5" y="-798.961" font-family="Helvetica,sans-Serif" font-size="10.00">CCCC_Html_Stream::Put</text>
<text text-anchor="middle" x="431" y="-787.961" font-family="Helvetica,sans-Serif" font-size="10.00">_Label_Cell</text>
</a>
</g>
</g>
<!-- Node8&#45;&gt;Node11 -->
<g id="edge10" class="edge"><title>Node8&#45;&gt;Node11</title>
<path fill="none" stroke="midnightblue" d="M322.301,-795.961C336.282,-795.961 350.773,-795.961 364.421,-795.961"/>
<polygon fill="midnightblue" stroke="midnightblue" points="322.229,-792.461 312.229,-795.961 322.229,-799.461 322.229,-792.461"/>
</g>
<!-- Node10 -->
<g id="node10" class="node"><title>Node10</title>
<g id="a_node10"><a xlink:href="../../d2/d92/classCCCC__Html__Stream.html#af0091534327b225ee300640d7a5e0220" target="_top" xlink:title="CCCC_Html_Stream::Structural\l_Detail">
<polygon fill="white" stroke="black" points="539.5,-932.961 539.5,-962.961 701.5,-962.961 701.5,-932.961 539.5,-932.961"/>
<text text-anchor="start" x="547.5" y="-950.961" font-family="Helvetica,sans-Serif" font-size="10.00">CCCC_Html_Stream::Structural</text>
<text text-anchor="middle" x="620.5" y="-939.961" font-family="Helvetica,sans-Serif" font-size="10.00">_Detail</text>
</a>
</g>
</g>
<!-- Node9&#45;&gt;Node10 -->
<g id="edge9" class="edge"><title>Node9&#45;&gt;Node10</title>
<path fill="none" stroke="midnightblue" d="M507.858,-945.58C518.259,-945.801 528.966,-946.03 539.439,-946.253"/>
<polygon fill="midnightblue" stroke="midnightblue" points="507.651,-942.074 497.578,-945.36 507.501,-949.073 507.651,-942.074"/>
</g>
<!-- Node11&#45;&gt;Node2 -->
<g id="edge12" class="edge"><title>Node11&#45;&gt;Node2</title>
<path fill="none" stroke="midnightblue" d="M446.673,-772.416C464.555,-745.647 497.23,-702.491 536,-677.961 541.353,-674.574 547.198,-671.652 553.228,-669.134"/>
<polygon fill="midnightblue" stroke="midnightblue" points="443.725,-770.529 441.188,-780.816 449.586,-774.356 443.725,-770.529"/>
</g>
<!-- Node11&#45;&gt;Node3 -->
<g id="edge13" class="edge"><title>Node11&#45;&gt;Node3</title>
<path fill="none" stroke="midnightblue" d="M458.993,-774.697C479.227,-759.615 508.118,-739.844 536,-726.961 543.257,-723.608 551.088,-720.615 558.945,-717.976"/>
<polygon fill="midnightblue" stroke="midnightblue" points="456.74,-772.013 450.88,-780.839 460.965,-777.594 456.74,-772.013"/>
</g>
<!-- Node11&#45;&gt;Node4 -->
<g id="edge14" class="edge"><title>Node11&#45;&gt;Node4</title>
<path fill="none" stroke="midnightblue" d="M506.049,-778.584C522.389,-774.75 539.565,-770.719 555.468,-766.987"/>
<polygon fill="midnightblue" stroke="midnightblue" points="504.938,-775.25 496.002,-780.942 506.538,-782.065 504.938,-775.25"/>
</g>
<!-- Node11&#45;&gt;Node5 -->
<g id="edge15" class="edge"><title>Node11&#45;&gt;Node5</title>
<path fill="none" stroke="midnightblue" d="M444.871,-820.081C469.557,-865.996 522.328,-962.357 536,-972.961 540.41,-976.382 545.289,-979.315 550.41,-981.83"/>
<polygon fill="midnightblue" stroke="midnightblue" points="447.864,-818.256 440.053,-811.098 441.695,-821.565 447.864,-818.256"/>
</g>
<!-- Node11&#45;&gt;Node6 -->
<g id="edge16" class="edge"><title>Node11&#45;&gt;Node6</title>
<path fill="none" stroke="midnightblue" d="M455.678,-818.057C475.712,-835.693 505.893,-859.866 536,-874.961 542.742,-878.342 550.035,-881.317 557.408,-883.917"/>
<polygon fill="midnightblue" stroke="midnightblue" points="457.785,-815.246 448.001,-811.181 453.115,-820.46 457.785,-815.246"/>
</g>
<!-- Node11&#45;&gt;Node7 -->
<g id="edge17" class="edge"><title>Node11&#45;&gt;Node7</title>
<path fill="none" stroke="midnightblue" d="M493.852,-813.775C517.604,-820.615 544.459,-828.349 567.226,-834.906"/>
<polygon fill="midnightblue" stroke="midnightblue" points="494.807,-810.408 484.229,-811.003 492.87,-817.134 494.807,-810.408"/>
</g>
<!-- Node12 -->
<g id="node12" class="node"><title>Node12</title>
<g id="a_node12"><a xlink:href="../../d2/d92/classCCCC__Html__Stream.html#aa4d916f2e9fc42d4b7924e1544be92f6" target="_top" xlink:title="CCCC_Html_Stream::Project\l_Summary">
<polygon fill="white" stroke="black" points="545,-785.961 545,-815.961 696,-815.961 696,-785.961 545,-785.961"/>
<text text-anchor="start" x="553" y="-803.961" font-family="Helvetica,sans-Serif" font-size="10.00">CCCC_Html_Stream::Project</text>
<text text-anchor="middle" x="620.5" y="-792.961" font-family="Helvetica,sans-Serif" font-size="10.00">_Summary</text>
</a>
</g>
</g>
<!-- Node11&#45;&gt;Node12 -->
<g id="edge11" class="edge"><title>Node11&#45;&gt;Node12</title>
<path fill="none" stroke="midnightblue" d="M507.767,-797.982C520.038,-798.309 532.737,-798.648 544.978,-798.974"/>
<polygon fill="midnightblue" stroke="midnightblue" points="507.668,-794.478 497.578,-797.71 507.482,-801.475 507.668,-794.478"/>
</g>
<!-- Node13 -->
<g id="node13" class="node"><title>Node13</title>
<g id="a_node13"><a xlink:href="../../d2/d92/classCCCC__Html__Stream.html#a4ad244ddfbe8c7929b2dbdce4197bbc6" target="_top" xlink:title="CCCC_Html_Stream::Module\l_Summary">
<polygon fill="white" stroke="black" points="544.5,-589.961 544.5,-619.961 696.5,-619.961 696.5,-589.961 544.5,-589.961"/>
<text text-anchor="start" x="552.5" y="-607.961" font-family="Helvetica,sans-Serif" font-size="10.00">CCCC_Html_Stream::Module</text>
<text text-anchor="middle" x="620.5" y="-596.961" font-family="Helvetica,sans-Serif" font-size="10.00">_Summary</text>
</a>
</g>
</g>
<!-- Node11&#45;&gt;Node13 -->
<g id="edge18" class="edge"><title>Node11&#45;&gt;Node13</title>
<path fill="none" stroke="midnightblue" d="M440.635,-771.496C454.792,-734.951 486.422,-666.404 536,-628.961 540.574,-625.507 545.63,-622.549 550.924,-620.017"/>
<polygon fill="midnightblue" stroke="midnightblue" points="437.342,-770.311 437.105,-780.903 443.895,-772.77 437.342,-770.311"/>
</g>
<!-- Node15&#45;&gt;Node16 -->
<g id="edge21" class="edge"><title>Node15&#45;&gt;Node16</title>
<path fill="none" stroke="midnightblue" d="M296.535,-272.909C306.307,-275.245 316.475,-277.678 326,-279.961 347.309,-285.069 371.07,-290.779 390.495,-295.452"/>
<polygon fill="midnightblue" stroke="midnightblue" points="297.078,-269.44 286.538,-270.519 295.451,-276.248 297.078,-269.44"/>
</g>
<!-- Node17 -->
<g id="node17" class="node"><title>Node17</title>
<g id="a_node17"><a xlink:href="../../db/d4a/classMain.html#a73e7ee7cdbee235ec767f6d66b595b5e" target="_top" xlink:title="Main::DumpDatabase">
<polygon fill="white" stroke="black" points="562.5,-273.461 562.5,-292.461 678.5,-292.461 678.5,-273.461 562.5,-273.461"/>
<text text-anchor="middle" x="620.5" y="-280.461" font-family="Helvetica,sans-Serif" font-size="10.00">Main::DumpDatabase</text>
</a>
</g>
</g>
<!-- Node16&#45;&gt;Node17 -->
<g id="edge22" class="edge"><title>Node16&#45;&gt;Node17</title>
<path fill="none" stroke="midnightblue" d="M500.664,-296.905C520.933,-294.527 542.891,-291.95 562.352,-289.667"/>
<polygon fill="midnightblue" stroke="midnightblue" points="500.079,-293.449 490.555,-298.091 500.895,-300.402 500.079,-293.449"/>
</g>
<!-- Node18 -->
<g id="node18" class="node"><title>Node18</title>
<g id="a_node18"><a xlink:href="../../d6/d93/ccccmain_8cc.html#a3c04138a5bfe5d72780bb7e82a18e627" target="_top" xlink:title="main">
<polygon fill="white" stroke="black" points="800.5,-248.461 800.5,-267.461 839.5,-267.461 839.5,-248.461 800.5,-248.461"/>
<text text-anchor="middle" x="820" y="-255.461" font-family="Helvetica,sans-Serif" font-size="10.00">main</text>
</a>
</g>
</g>
<!-- Node17&#45;&gt;Node18 -->
<g id="edge23" class="edge"><title>Node17&#45;&gt;Node18</title>
<path fill="none" stroke="midnightblue" d="M688.685,-274.457C727.924,-269.49 774.594,-263.582 800.074,-260.357"/>
<polygon fill="midnightblue" stroke="midnightblue" points="688.106,-271.002 678.625,-275.73 688.986,-277.947 688.106,-271.002"/>
</g>
<!-- Node19&#45;&gt;Node2 -->
<g id="edge25" class="edge"><title>Node19&#45;&gt;Node2</title>
<path fill="none" stroke="midnightblue" d="M457.691,-591.372C478.399,-602.6 508.496,-618.063 536,-628.961 545.004,-632.529 554.724,-635.875 564.24,-638.888"/>
<polygon fill="midnightblue" stroke="midnightblue" points="459.332,-588.28 448.881,-586.542 455.967,-594.418 459.332,-588.28"/>
</g>
<!-- Node19&#45;&gt;Node3 -->
<g id="edge26" class="edge"><title>Node19&#45;&gt;Node3</title>
<path fill="none" stroke="midnightblue" d="M445.578,-594.62C463.794,-617.137 498.252,-655.801 536,-677.961 542.525,-681.792 549.686,-685.08 556.987,-687.891"/>
<polygon fill="midnightblue" stroke="midnightblue" points="448.165,-592.249 439.212,-586.583 442.677,-596.595 448.165,-592.249"/>
</g>
<!-- Node19&#45;&gt;Node4 -->
<g id="edge27" class="edge"><title>Node19&#45;&gt;Node4</title>
<path fill="none" stroke="midnightblue" d="M440.17,-596.257C454.698,-628.248 488.071,-692.182 536,-726.961 541.266,-730.783 547.119,-734.026 553.214,-736.777"/>
<polygon fill="midnightblue" stroke="midnightblue" points="443.204,-594.463 435.971,-586.721 436.797,-597.284 443.204,-594.463"/>
</g>
<!-- Node19&#45;&gt;Node13 -->
<g id="edge28" class="edge"><title>Node19&#45;&gt;Node13</title>
<path fill="none" stroke="midnightblue" d="M505.763,-587.977C518.42,-589.867 531.587,-591.833 544.282,-593.729"/>
<polygon fill="midnightblue" stroke="midnightblue" points="506.148,-584.495 495.741,-586.48 505.114,-591.419 506.148,-584.495"/>
</g>
<!-- Node19&#45;&gt;Node20 -->
<g id="edge29" class="edge"><title>Node19&#45;&gt;Node20</title>
<path fill="none" stroke="midnightblue" d="M457.46,-562.16C493.087,-541.45 557.47,-504.021 593.424,-483.12"/>
<polygon fill="midnightblue" stroke="midnightblue" points="455.526,-559.237 448.639,-567.288 459.044,-565.288 455.526,-559.237"/>
</g>
<!-- Node19&#45;&gt;Node21 -->
<g id="edge30" class="edge"><title>Node19&#45;&gt;Node21</title>
<path fill="none" stroke="midnightblue" d="M444.16,-558.551C466.219,-525.655 512.699,-458.743 536,-442.961 541.12,-439.493 546.742,-436.52 552.574,-433.973"/>
<polygon fill="midnightblue" stroke="midnightblue" points="441.019,-556.953 438.387,-567.216 446.844,-560.834 441.019,-556.953"/>
</g>
<!-- Node19&#45;&gt;Node22 -->
<g id="edge31" class="edge"><title>Node19&#45;&gt;Node22</title>
<path fill="none" stroke="midnightblue" d="M440.495,-558.064C459.739,-516.012 507.22,-416.62 536,-393.961 540.385,-390.509 545.247,-387.553 550.356,-385.023"/>
<polygon fill="midnightblue" stroke="midnightblue" points="437.284,-556.669 436.337,-567.221 443.658,-559.563 437.284,-556.669"/>
</g>
<!-- Node23 -->
<g id="node23" class="node"><title>Node23</title>
<g id="a_node23"><a xlink:href="../../db/d8c/classCCCC__Xml__Stream.html#a86b2358b95c828fd96da2ba14ca458d0" target="_top" xlink:title="CCCC_Xml_Stream::Module\l_Summary">
<polygon fill="white" stroke="black" points="546,-540.961 546,-570.961 695,-570.961 695,-540.961 546,-540.961"/>
<text text-anchor="start" x="554" y="-558.961" font-family="Helvetica,sans-Serif" font-size="10.00">CCCC_Xml_Stream::Module</text>
<text text-anchor="middle" x="620.5" y="-547.961" font-family="Helvetica,sans-Serif" font-size="10.00">_Summary</text>
</a>
</g>
</g>
<!-- Node19&#45;&gt;Node23 -->
<g id="edge32" class="edge"><title>Node19&#45;&gt;Node23</title>
<path fill="none" stroke="midnightblue" d="M510.452,-568.175C522.211,-566.858 534.3,-565.504 545.952,-564.199"/>
<polygon fill="midnightblue" stroke="midnightblue" points="509.77,-564.729 500.222,-569.32 510.55,-571.686 509.77,-564.729"/>
</g>
<!-- Node23&#45;&gt;Node24 -->
<g id="edge33" class="edge"><title>Node23&#45;&gt;Node24</title>
<path fill="none" stroke="midnightblue" d="M705.289,-546.628C717.054,-545.317 729.109,-543.974 740.765,-542.676"/>
<polygon fill="midnightblue" stroke="midnightblue" points="704.593,-543.184 695.042,-547.769 705.368,-550.141 704.593,-543.184"/>
</g>
<!-- Node25&#45;&gt;Node16 -->
<g id="edge35" class="edge"><title>Node25&#45;&gt;Node16</title>
<path fill="none" stroke="midnightblue" d="M296.416,-336.992C325.911,-329.92 362.746,-321.088 390.261,-314.49"/>
<polygon fill="midnightblue" stroke="midnightblue" points="295.225,-333.679 286.317,-339.414 296.857,-340.486 295.225,-333.679"/>
</g>
<!-- Node26&#45;&gt;Node18 -->
<g id="edge37" class="edge"><title>Node26&#45;&gt;Node18</title>
<path fill="none" stroke="midnightblue" d="M503.762,-233.524C595.158,-240.609 747.572,-252.424 800.343,-256.515"/>
<polygon fill="midnightblue" stroke="midnightblue" points="503.99,-230.031 493.749,-232.748 503.449,-237.011 503.99,-230.031"/>
</g>
<!-- Node27&#45;&gt;Node16 -->
<g id="edge40" class="edge"><title>Node27&#45;&gt;Node16</title>
<path fill="none" stroke="midnightblue" d="M321.003,-304.961C337.783,-304.961 355.362,-304.961 371.384,-304.961"/>
<polygon fill="midnightblue" stroke="midnightblue" points="320.679,-301.461 310.679,-304.961 320.679,-308.461 320.679,-301.461"/>
</g>
<!-- Node32 -->
<g id="node32" class="node"><title>Node32</title>
<g id="a_node32"><a xlink:href="../../db/d8c/classCCCC__Xml__Stream.html#a1941d2f23e62a715ef8d12ce239ea48f" target="_top" xlink:title="CCCC_Xml_Stream::Put\l_Structural_Details_Node">
<polygon fill="white" stroke="black" points="552,-72.9613 552,-102.961 689,-102.961 689,-72.9613 552,-72.9613"/>
<text text-anchor="start" x="560" y="-90.9613" font-family="Helvetica,sans-Serif" font-size="10.00">CCCC_Xml_Stream::Put</text>
<text text-anchor="middle" x="620.5" y="-79.9613" font-family="Helvetica,sans-Serif" font-size="10.00">_Structural_Details_Node</text>
</a>
</g>
</g>
<!-- Node31&#45;&gt;Node32 -->
<g id="edge48" class="edge"><title>Node31&#45;&gt;Node32</title>
<path fill="none" stroke="midnightblue" d="M320.323,-90.3675C387.746,-89.8253 486.595,-89.0302 551.968,-88.5044"/>
<polygon fill="midnightblue" stroke="midnightblue" points="320.169,-86.8686 310.197,-90.449 320.225,-93.8683 320.169,-86.8686"/>
</g>
<!-- Node34 -->
<g id="node34" class="node"><title>Node34</title>
<g id="a_node34"><a xlink:href="../../db/d8c/classCCCC__Xml__Stream.html#a5857c6d4a204a15b65a411301e2caf57" target="_top" xlink:title="CCCC_Xml_Stream::Put\l_Label_Node">
<polygon fill="white" stroke="black" points="366.5,-116.961 366.5,-146.961 495.5,-146.961 495.5,-116.961 366.5,-116.961"/>
<text text-anchor="start" x="374.5" y="-134.961" font-family="Helvetica,sans-Serif" font-size="10.00">CCCC_Xml_Stream::Put</text>
<text text-anchor="middle" x="431" y="-123.961" font-family="Helvetica,sans-Serif" font-size="10.00">_Label_Node</text>
</a>
</g>
</g>
<!-- Node31&#45;&gt;Node34 -->
<g id="edge50" class="edge"><title>Node31&#45;&gt;Node34</title>
<path fill="none" stroke="midnightblue" d="M320.125,-107.411C335.465,-110.839 351.509,-114.424 366.448,-117.762"/>
<polygon fill="midnightblue" stroke="midnightblue" points="320.687,-103.951 310.164,-105.186 319.161,-110.782 320.687,-103.951"/>
</g>
<!-- Node33 -->
<g id="node33" class="node"><title>Node33</title>
<g id="a_node33"><a xlink:href="../../db/d8c/classCCCC__Xml__Stream.html#ad14905d5ffea2505b11396520c9cd14e" target="_top" xlink:title="CCCC_Xml_Stream::Structural\l_Detail">
<polygon fill="white" stroke="black" points="741,-94.9613 741,-124.961 899,-124.961 899,-94.9613 741,-94.9613"/>
<text text-anchor="start" x="749" y="-112.961" font-family="Helvetica,sans-Serif" font-size="10.00">CCCC_Xml_Stream::Structural</text>
<text text-anchor="middle" x="820" y="-101.961" font-family="Helvetica,sans-Serif" font-size="10.00">_Detail</text>
</a>
</g>
</g>
<!-- Node32&#45;&gt;Node33 -->
<g id="edge49" class="edge"><title>Node32&#45;&gt;Node33</title>
<path fill="none" stroke="midnightblue" d="M699.475,-96.6471C713.086,-98.1632 727.248,-99.7408 740.864,-101.257"/>
<polygon fill="midnightblue" stroke="midnightblue" points="699.518,-93.1303 689.192,-95.5017 698.743,-100.087 699.518,-93.1303"/>
</g>
<!-- Node34&#45;&gt;Node20 -->
<g id="edge51" class="edge"><title>Node34&#45;&gt;Node20</title>
<path fill="none" stroke="midnightblue" d="M457.669,-153.929C472.479,-168.094 490.08,-187.781 500,-208.961 544.631,-304.251 466.913,-363.595 536,-442.961 541.166,-448.896 547.679,-453.452 554.778,-456.943"/>
<polygon fill="midnightblue" stroke="midnightblue" points="459.951,-151.272 450.235,-147.046 455.195,-156.408 459.951,-151.272"/>
</g>
<!-- Node34&#45;&gt;Node21 -->
<g id="edge52" class="edge"><title>Node34&#45;&gt;Node21</title>
<path fill="none" stroke="midnightblue" d="M457.372,-154.072C472.072,-168.29 489.663,-187.981 500,-208.961 537.022,-284.1 479.764,-331.881 536,-393.961 539.454,-397.774 543.464,-401.016 547.82,-403.77"/>
<polygon fill="midnightblue" stroke="midnightblue" points="459.69,-151.448 450.002,-147.158 454.9,-156.553 459.69,-151.448"/>
</g>
<!-- Node34&#45;&gt;Node22 -->
<g id="edge53" class="edge"><title>Node34&#45;&gt;Node22</title>
<path fill="none" stroke="midnightblue" d="M455.524,-154.222C469.845,-168.75 487.69,-188.718 500,-208.961 523.029,-246.831 509.947,-266.105 536,-301.961 551.825,-323.741 576.266,-342.534 594.624,-354.809"/>
<polygon fill="midnightblue" stroke="midnightblue" points="457.965,-151.714 448.404,-147.148 453.031,-156.679 457.965,-151.714"/>
</g>
<!-- Node34&#45;&gt;Node29 -->
<g id="edge55" class="edge"><title>Node34&#45;&gt;Node29</title>
<path fill="none" stroke="midnightblue" d="M505.796,-149.279C522.154,-153.117 539.361,-157.155 555.298,-160.895"/>
<polygon fill="midnightblue" stroke="midnightblue" points="506.276,-145.796 495.741,-146.919 504.676,-152.611 506.276,-145.796"/>
</g>
<!-- Node34&#45;&gt;Node30 -->
<g id="edge56" class="edge"><title>Node34&#45;&gt;Node30</title>
<path fill="none" stroke="midnightblue" d="M458.993,-110.697C479.227,-95.6154 508.118,-75.8442 536,-62.9613 543.257,-59.6082 551.088,-56.6148 558.945,-53.9759"/>
<polygon fill="midnightblue" stroke="midnightblue" points="456.74,-108.013 450.88,-116.839 460.965,-113.594 456.74,-108.013"/>
</g>
<!-- Node34&#45;&gt;Node32 -->
<g id="edge54" class="edge"><title>Node34&#45;&gt;Node32</title>
<path fill="none" stroke="midnightblue" d="M505.796,-114.644C522.154,-110.805 539.361,-106.767 555.298,-103.027"/>
<polygon fill="midnightblue" stroke="midnightblue" points="504.676,-111.311 495.741,-117.003 506.276,-118.126 504.676,-111.311"/>
</g>
<!-- Node34&#45;&gt;Node33 -->
<g id="edge57" class="edge"><title>Node34&#45;&gt;Node33</title>
<path fill="none" stroke="midnightblue" d="M506.016,-127.754C573.352,-123.926 672.407,-118.295 740.969,-114.397"/>
<polygon fill="midnightblue" stroke="midnightblue" points="505.69,-124.266 495.905,-128.328 506.088,-131.255 505.69,-124.266"/>
</g>
</g>
</svg>
