<?xml version="1.0" encoding="UTF-8" standalone="no"?>
<!DOCTYPE svg PUBLIC "-//W3C//DTD SVG 1.1//EN"
 "http://www.w3.org/Graphics/SVG/1.1/DTD/svg11.dtd">
<!-- Generated by graphviz version 2.38.0 (20140413.2041)
 -->
<!-- Title: CCCC_Record::key Pages: 1 -->
<!--zoomable 749 -->
<svg id="main" version="1.1" xmlns="http://www.w3.org/2000/svg" xmlns:xlink="http://www.w3.org/1999/xlink" xml:space="preserve" onload="init(evt)">
<style type="text/css"><![CDATA[
.edge:hover path { stroke: red; }
.edge:hover polygon { stroke: red; fill: red; }
]]></style>
<script type="text/javascript"><![CDATA[
var edges = document.getElementsByTagName('g');
if (edges && edges.length) {
  for (var i=0;i<edges.length;i++) {
    if (edges[i].id.substr(0,4)=='edge') {
      edges[i].setAttribute('class','edge');
    }
  }
}
]]></script>
        <defs>
                <circle id="rim" cx="0" cy="0" r="7"/>
                <circle id="rim2" cx="0" cy="0" r="3.5"/>
                <g id="zoomPlus">
                        <use xlink:href="#rim" fill="#404040">
                                <set attributeName="fill" to="#808080" begin="zoomplus.mouseover" end="zoomplus.mouseout"/>
                        </use>
                        <path d="M-4,0h8M0,-4v8" fill="none" stroke="white" stroke-width="1.5" pointer-events="none"/>
                </g>
                <g id="zoomMin">
                        <use xlink:href="#rim" fill="#404040">
                                <set attributeName="fill" to="#808080" begin="zoomminus.mouseover" end="zoomminus.mouseout"/>
                        </use>
                        <path d="M-4,0h8" fill="none" stroke="white" stroke-width="1.5" pointer-events="none"/>
                </g>
                <g id="dirArrow">
                        <path fill="none" stroke="white" stroke-width="1.5" d="M0,-3.0v7 M-2.5,-0.5L0,-3.0L2.5,-0.5"/>
                </g>
               <g id="resetDef">
                       <use xlink:href="#rim2" fill="#404040">
                               <set attributeName="fill" to="#808080" begin="reset.mouseover" end="reset.mouseout"/>
                       </use>
               </g>
        </defs>

<script type="text/javascript">
var viewWidth = 1069;
var viewHeight = 749;
var sectionId = 'dynsection-6';
</script>
<script xlink:href="../../svgpan.js"/>
<svg id="graph" class="graph">
<g id="viewport">
<title>CCCC_Record::key</title>
<polygon fill="white" stroke="none" points="-4,4 -4,-744.837 1065,-744.837 1065,4 -4,4"/>
<!-- Node1 -->
<g id="node1" class="node"><title>Node1</title>
<polygon fill="#bfbfbf" stroke="black" points="0,-228.837 0,-247.837 108,-247.837 108,-228.837 0,-228.837"/>
<text text-anchor="middle" x="54" y="-235.837" font-family="Helvetica,sans-Serif" font-size="10.00">CCCC_Record::key</text>
</g>
<!-- Node2 -->
<g id="node2" class="node"><title>Node2</title>
<g id="a_node2"><a xlink:href="../../d2/d92/classCCCC__Html__Stream.html#a81d206c53e52cd62d445beb809c3d215" target="_top" xlink:title="CCCC_Html_Stream::OO\l_Design">
<polygon fill="white" stroke="black" points="715.5,-416.337 715.5,-446.337 849.5,-446.337 849.5,-416.337 715.5,-416.337"/>
<text text-anchor="start" x="723.5" y="-434.337" font-family="Helvetica,sans-Serif" font-size="10.00">CCCC_Html_Stream::OO</text>
<text text-anchor="middle" x="782.5" y="-423.337" font-family="Helvetica,sans-Serif" font-size="10.00">_Design</text>
</a>
</g>
</g>
<!-- Node1&#45;&gt;Node2 -->
<g id="edge1" class="edge"><title>Node1&#45;&gt;Node2</title>
<path fill="none" stroke="midnightblue" d="M60.6181,-257.409C71.1607,-289.479 97.1787,-353.606 144,-383.337 237.403,-442.648 571.991,-438.689 715.437,-434.036"/>
<polygon fill="midnightblue" stroke="midnightblue" points="63.956,-256.356 57.6284,-247.859 57.2757,-258.448 63.956,-256.356"/>
</g>
<!-- Node3 -->
<g id="node3" class="node"><title>Node3</title>
<g id="a_node3"><a xlink:href="../../d2/d92/classCCCC__Html__Stream.html#a872d57e3b8d177d0fcc532237b53e6fe" target="_top" xlink:title="CCCC_Html_Stream::Procedural\l_Summary">
<polygon fill="white" stroke="black" points="698,-367.337 698,-397.337 867,-397.337 867,-367.337 698,-367.337"/>
<text text-anchor="start" x="706" y="-385.337" font-family="Helvetica,sans-Serif" font-size="10.00">CCCC_Html_Stream::Procedural</text>
<text text-anchor="middle" x="782.5" y="-374.337" font-family="Helvetica,sans-Serif" font-size="10.00">_Summary</text>
</a>
</g>
</g>
<!-- Node1&#45;&gt;Node3 -->
<g id="edge2" class="edge"><title>Node1&#45;&gt;Node3</title>
<path fill="none" stroke="midnightblue" d="M63.4848,-257.272C76.5271,-283.84 104.232,-331.283 144,-352.337 237.638,-401.912 547.166,-394.159 697.752,-387.065"/>
<polygon fill="midnightblue" stroke="midnightblue" points="66.5005,-255.461 59.0722,-247.906 60.1681,-258.444 66.5005,-255.461"/>
</g>
<!-- Node4 -->
<g id="node4" class="node"><title>Node4</title>
<g id="a_node4"><a xlink:href="../../d2/d92/classCCCC__Html__Stream.html#a0dbb99417ffc369edc76114cc2455ee2" target="_top" xlink:title="CCCC_Html_Stream::Structural\l_Summary">
<polygon fill="white" stroke="black" points="701.5,-318.337 701.5,-348.337 863.5,-348.337 863.5,-318.337 701.5,-318.337"/>
<text text-anchor="start" x="709.5" y="-336.337" font-family="Helvetica,sans-Serif" font-size="10.00">CCCC_Html_Stream::Structural</text>
<text text-anchor="middle" x="782.5" y="-325.337" font-family="Helvetica,sans-Serif" font-size="10.00">_Summary</text>
</a>
</g>
</g>
<!-- Node1&#45;&gt;Node4 -->
<g id="edge3" class="edge"><title>Node1&#45;&gt;Node4</title>
<path fill="none" stroke="midnightblue" d="M66.9333,-256.48C82.0026,-277.568 110.099,-311.272 144,-325.337 242.401,-366.165 553.28,-350.115 701.451,-339.641"/>
<polygon fill="midnightblue" stroke="midnightblue" points="69.6801,-254.298 61.1225,-248.052 63.9169,-258.272 69.6801,-254.298"/>
</g>
<!-- Node5 -->
<g id="node5" class="node"><title>Node5</title>
<g id="a_node5"><a xlink:href="../../d2/d92/classCCCC__Html__Stream.html#abc882e68712ce2c2f95ce84821d1c516" target="_top" xlink:title="CCCC_Html_Stream::Put\l_Extent_URL">
<polygon fill="white" stroke="black" points="158,-465.337 158,-495.337 291,-495.337 291,-465.337 158,-465.337"/>
<text text-anchor="start" x="166" y="-483.337" font-family="Helvetica,sans-Serif" font-size="10.00">CCCC_Html_Stream::Put</text>
<text text-anchor="middle" x="224.5" y="-472.337" font-family="Helvetica,sans-Serif" font-size="10.00">_Extent_URL</text>
</a>
</g>
</g>
<!-- Node1&#45;&gt;Node5 -->
<g id="edge4" class="edge"><title>Node1&#45;&gt;Node5</title>
<path fill="none" stroke="midnightblue" d="M58.958,-257.936C67.7825,-297.141 92.4769,-386.109 144,-440.337 154.004,-450.866 167.38,-459.056 180.303,-465.205"/>
<polygon fill="midnightblue" stroke="midnightblue" points="62.3599,-257.107 56.8393,-248.064 55.5157,-258.576 62.3599,-257.107"/>
</g>
<!-- Node17 -->
<g id="node17" class="node"><title>Node17</title>
<g id="a_node17"><a xlink:href="../../d2/d92/classCCCC__Html__Stream.html#abc48ef802e86d097b606dda746f1dc39" target="_top" xlink:title="CCCC_Html_Stream::Separate\l_Modules">
<polygon fill="white" stroke="black" points="144,-286.337 144,-316.337 305,-316.337 305,-286.337 144,-286.337"/>
<text text-anchor="start" x="152" y="-304.337" font-family="Helvetica,sans-Serif" font-size="10.00">CCCC_Html_Stream::Separate</text>
<text text-anchor="middle" x="224.5" y="-293.337" font-family="Helvetica,sans-Serif" font-size="10.00">_Modules</text>
</a>
</g>
</g>
<!-- Node1&#45;&gt;Node17 -->
<g id="edge20" class="edge"><title>Node1&#45;&gt;Node17</title>
<path fill="none" stroke="midnightblue" d="M90.0802,-251.453C117.22,-261.601 154.833,-275.664 183.207,-286.272"/>
<polygon fill="midnightblue" stroke="midnightblue" points="91.184,-248.129 80.5915,-247.906 88.7325,-254.686 91.184,-248.129"/>
</g>
<!-- Node18 -->
<g id="node18" class="node"><title>Node18</title>
<g id="a_node18"><a xlink:href="../../dc/d1e/classCCCC__Member.html#a22edd2264d9f7fb3f80fcf7269b624e1" target="_top" xlink:title="CCCC_Member::ToFile">
<polygon fill="white" stroke="black" points="162,-45.8373 162,-64.8373 287,-64.8373 287,-45.8373 162,-45.8373"/>
<text text-anchor="middle" x="224.5" y="-52.8373" font-family="Helvetica,sans-Serif" font-size="10.00">CCCC_Member::ToFile</text>
</a>
</g>
</g>
<!-- Node1&#45;&gt;Node18 -->
<g id="edge21" class="edge"><title>Node1&#45;&gt;Node18</title>
<path fill="none" stroke="midnightblue" d="M60.5752,-218.886C71.1843,-185.364 97.4722,-116.72 144,-79.3373 151.867,-73.0162 161.376,-68.3576 171.041,-64.9248"/>
<polygon fill="midnightblue" stroke="midnightblue" points="57.1181,-218.226 57.5718,-228.811 63.8181,-220.254 57.1181,-218.226"/>
</g>
<!-- Node22 -->
<g id="node22" class="node"><title>Node22</title>
<g id="a_node22"><a xlink:href="../../dc/d1e/classCCCC__Member.html#a5b4510004fda956c909278337ae19236" target="_top" xlink:title="CCCC_Member::FromFile">
<polygon fill="white" stroke="black" points="156.5,-121.837 156.5,-140.837 292.5,-140.837 292.5,-121.837 156.5,-121.837"/>
<text text-anchor="middle" x="224.5" y="-128.837" font-family="Helvetica,sans-Serif" font-size="10.00">CCCC_Member::FromFile</text>
</a>
</g>
</g>
<!-- Node1&#45;&gt;Node22 -->
<g id="edge25" class="edge"><title>Node1&#45;&gt;Node22</title>
<path fill="none" stroke="midnightblue" d="M67.9739,-220.62C83.692,-200.472 112.067,-168.081 144,-150.337 150.947,-146.477 158.658,-143.397 166.468,-140.94"/>
<polygon fill="midnightblue" stroke="midnightblue" points="65.1186,-218.592 61.8569,-228.673 70.6928,-222.827 65.1186,-218.592"/>
</g>
<!-- Node25 -->
<g id="node25" class="node"><title>Node25</title>
<g id="a_node25"><a xlink:href="../../d6/d9f/classCCCC__Module.html#ad1f26ab257c41657302b5c7b0253b034" target="_top" xlink:title="CCCC_Module::get_count">
<polygon fill="white" stroke="black" points="517,-274.837 517,-293.837 655,-293.837 655,-274.837 517,-274.837"/>
<text text-anchor="middle" x="586" y="-281.837" font-family="Helvetica,sans-Serif" font-size="10.00">CCCC_Module::get_count</text>
</a>
</g>
</g>
<!-- Node1&#45;&gt;Node25 -->
<g id="edge28" class="edge"><title>Node1&#45;&gt;Node25</title>
<path fill="none" stroke="midnightblue" d="M118.243,-243.826C218.605,-252.537 413.534,-269.455 516.872,-278.424"/>
<polygon fill="midnightblue" stroke="midnightblue" points="118.51,-240.336 108.245,-242.959 117.905,-247.31 118.51,-240.336"/>
</g>
<!-- Node30 -->
<g id="node30" class="node"><title>Node30</title>
<g id="a_node30"><a xlink:href="../../db/d8c/classCCCC__Xml__Stream.html#a221dc496f3d46314b700c1a3bb6e5e5c" target="_top" xlink:title="CCCC_Xml_Stream::Separate\l_Modules">
<polygon fill="white" stroke="black" points="903,-100.337 903,-130.337 1061,-130.337 1061,-100.337 903,-100.337"/>
<text text-anchor="start" x="911" y="-118.337" font-family="Helvetica,sans-Serif" font-size="10.00">CCCC_Xml_Stream::Separate</text>
<text text-anchor="middle" x="982" y="-107.337" font-family="Helvetica,sans-Serif" font-size="10.00">_Modules</text>
</a>
</g>
</g>
<!-- Node1&#45;&gt;Node30 -->
<g id="edge44" class="edge"><title>Node1&#45;&gt;Node30</title>
<path fill="none" stroke="midnightblue" d="M62.2562,-219.122C74.307,-190.218 101.422,-136.38 144,-112.337 245.855,-54.8225 289.528,-93.3373 406.5,-93.3373 406.5,-93.3373 406.5,-93.3373 587,-93.3373 696.786,-93.3373 823.513,-101.958 902.952,-108.407"/>
<polygon fill="midnightblue" stroke="midnightblue" points="58.953,-217.957 58.4972,-228.542 65.4544,-220.551 58.953,-217.957"/>
</g>
<!-- Node31 -->
<g id="node31" class="node"><title>Node31</title>
<g id="a_node31"><a xlink:href="../../d6/d9f/classCCCC__Module.html#aa7d31814771b76de1477cc6c830000ec" target="_top" xlink:title="CCCC_Module::FromFile">
<polygon fill="white" stroke="black" points="158.5,-209.837 158.5,-228.837 290.5,-228.837 290.5,-209.837 158.5,-209.837"/>
<text text-anchor="middle" x="224.5" y="-216.837" font-family="Helvetica,sans-Serif" font-size="10.00">CCCC_Module::FromFile</text>
</a>
</g>
</g>
<!-- Node1&#45;&gt;Node31 -->
<g id="edge38" class="edge"><title>Node1&#45;&gt;Node31</title>
<path fill="none" stroke="midnightblue" d="M118.584,-231.168C131.609,-229.699 145.337,-228.151 158.414,-226.676"/>
<polygon fill="midnightblue" stroke="midnightblue" points="117.859,-227.727 108.314,-232.326 118.644,-234.683 117.859,-227.727"/>
</g>
<!-- Node32 -->
<g id="node32" class="node"><title>Node32</title>
<g id="a_node32"><a xlink:href="../../d4/d6e/classCCCC__Project.html#a9e618e858690b526180d7af22b0d48df" target="_top" xlink:title="CCCC_Project::reindex">
<polygon fill="white" stroke="black" points="345,-7.83727 345,-26.8373 470,-26.8373 470,-7.83727 345,-7.83727"/>
<text text-anchor="middle" x="407.5" y="-14.8373" font-family="Helvetica,sans-Serif" font-size="10.00">CCCC_Project::reindex</text>
</a>
</g>
</g>
<!-- Node1&#45;&gt;Node32 -->
<g id="edge40" class="edge"><title>Node1&#45;&gt;Node32</title>
<path fill="none" stroke="midnightblue" d="M57.0968,-218.573C62.6852,-176.847 82.0258,-80.0244 144,-36.3373 208.982,9.46999 306.897,1.78554 362.957,-7.83715"/>
<polygon fill="midnightblue" stroke="midnightblue" points="53.613,-218.228 55.8842,-228.577 60.5622,-219.07 53.613,-218.228"/>
</g>
<!-- Node33 -->
<g id="node33" class="node"><title>Node33</title>
<g id="a_node33"><a xlink:href="../../d2/d65/classCCCC__UseRelationship.html#aa1b47ba57ddfff5db36294ab4d4631d5" target="_top" xlink:title="CCCC_UseRelationship\l::FromFile">
<polygon fill="white" stroke="black" points="159.5,-160.337 159.5,-190.337 289.5,-190.337 289.5,-160.337 159.5,-160.337"/>
<text text-anchor="start" x="167.5" y="-178.337" font-family="Helvetica,sans-Serif" font-size="10.00">CCCC_UseRelationship</text>
<text text-anchor="middle" x="224.5" y="-167.337" font-family="Helvetica,sans-Serif" font-size="10.00">::FromFile</text>
</a>
</g>
</g>
<!-- Node1&#45;&gt;Node33 -->
<g id="edge42" class="edge"><title>Node1&#45;&gt;Node33</title>
<path fill="none" stroke="midnightblue" d="M85.4304,-224.461C102.485,-216.908 124.24,-207.642 144,-200.337 153.228,-196.926 163.163,-193.563 172.778,-190.463"/>
<polygon fill="midnightblue" stroke="midnightblue" points="83.6847,-221.407 75.9824,-228.682 86.5403,-227.798 83.6847,-221.407"/>
</g>
<!-- Node6 -->
<g id="node6" class="node"><title>Node6</title>
<g id="a_node6"><a xlink:href="../../d2/d92/classCCCC__Html__Stream.html#a9da417354e4d12217f7604be680f3398" target="_top" xlink:title="CCCC_Html_Stream::Put\l_Extent_Cell">
<polygon fill="white" stroke="black" points="341,-465.337 341,-495.337 474,-495.337 474,-465.337 341,-465.337"/>
<text text-anchor="start" x="349" y="-483.337" font-family="Helvetica,sans-Serif" font-size="10.00">CCCC_Html_Stream::Put</text>
<text text-anchor="middle" x="407.5" y="-472.337" font-family="Helvetica,sans-Serif" font-size="10.00">_Extent_Cell</text>
</a>
</g>
</g>
<!-- Node5&#45;&gt;Node6 -->
<g id="edge5" class="edge"><title>Node5&#45;&gt;Node6</title>
<path fill="none" stroke="midnightblue" d="M301.477,-480.337C314.552,-480.337 328.043,-480.337 340.819,-480.337"/>
<polygon fill="midnightblue" stroke="midnightblue" points="301.101,-476.837 291.101,-480.337 301.101,-483.837 301.101,-476.837"/>
</g>
<!-- Node9 -->
<g id="node9" class="node"><title>Node9</title>
<g id="a_node9"><a xlink:href="../../d2/d92/classCCCC__Html__Stream.html#a4cdc271c6f74c77b19dec08a3c8500db" target="_top" xlink:title="CCCC_Html_Stream::Put\l_Extent_List">
<polygon fill="white" stroke="black" points="341,-514.337 341,-544.337 474,-544.337 474,-514.337 341,-514.337"/>
<text text-anchor="start" x="349" y="-532.337" font-family="Helvetica,sans-Serif" font-size="10.00">CCCC_Html_Stream::Put</text>
<text text-anchor="middle" x="407.5" y="-521.337" font-family="Helvetica,sans-Serif" font-size="10.00">_Extent_List</text>
</a>
</g>
</g>
<!-- Node5&#45;&gt;Node9 -->
<g id="edge8" class="edge"><title>Node5&#45;&gt;Node9</title>
<path fill="none" stroke="midnightblue" d="M291.061,-498.086C310.677,-503.396 331.99,-509.166 350.901,-514.286"/>
<polygon fill="midnightblue" stroke="midnightblue" points="291.85,-494.674 281.283,-495.439 290.021,-501.43 291.85,-494.674"/>
</g>
<!-- Node7 -->
<g id="node7" class="node"><title>Node7</title>
<g id="a_node7"><a xlink:href="../../d2/d92/classCCCC__Html__Stream.html#a103e3cbe446ab2d5978e6a4741e00a63" target="_top" xlink:title="CCCC_Html_Stream::Other\l_Extents">
<polygon fill="white" stroke="black" points="710,-661.337 710,-691.337 855,-691.337 855,-661.337 710,-661.337"/>
<text text-anchor="start" x="718" y="-679.337" font-family="Helvetica,sans-Serif" font-size="10.00">CCCC_Html_Stream::Other</text>
<text text-anchor="middle" x="782.5" y="-668.337" font-family="Helvetica,sans-Serif" font-size="10.00">_Extents</text>
</a>
</g>
</g>
<!-- Node6&#45;&gt;Node7 -->
<g id="edge6" class="edge"><title>Node6&#45;&gt;Node7</title>
<path fill="none" stroke="midnightblue" d="M466.275,-500.129C468.968,-501.746 471.561,-503.48 474,-505.337 495.498,-521.711 489.486,-536.746 510,-554.337 581.529,-615.675 610.502,-617.369 698,-652.337 706.124,-655.584 714.852,-658.591 723.495,-661.301"/>
<polygon fill="midnightblue" stroke="midnightblue" points="467.863,-497.009 457.398,-495.356 464.548,-503.175 467.863,-497.009"/>
</g>
<!-- Node8 -->
<g id="node8" class="node"><title>Node8</title>
<g id="a_node8"><a xlink:href="../../d2/d92/classCCCC__Html__Stream.html#ae24c7515f1b41822c677e349a2eaecda" target="_top" xlink:title="CCCC_Html_Stream::Module\l_Detail">
<polygon fill="white" stroke="black" points="510,-465.337 510,-495.337 662,-495.337 662,-465.337 510,-465.337"/>
<text text-anchor="start" x="518" y="-483.337" font-family="Helvetica,sans-Serif" font-size="10.00">CCCC_Html_Stream::Module</text>
<text text-anchor="middle" x="586" y="-472.337" font-family="Helvetica,sans-Serif" font-size="10.00">_Detail</text>
</a>
</g>
</g>
<!-- Node6&#45;&gt;Node8 -->
<g id="edge7" class="edge"><title>Node6&#45;&gt;Node8</title>
<path fill="none" stroke="midnightblue" d="M484.369,-480.337C492.767,-480.337 501.317,-480.337 509.708,-480.337"/>
<polygon fill="midnightblue" stroke="midnightblue" points="484.222,-476.837 474.222,-480.337 484.222,-483.837 484.222,-476.837"/>
</g>
<!-- Node10 -->
<g id="node10" class="node"><title>Node10</title>
<g id="a_node10"><a xlink:href="../../d2/d92/classCCCC__Html__Stream.html#ab815f564805ca3e3fe9cabb5c2df79fa" target="_top" xlink:title="CCCC_Html_Stream::Put\l_Structural_Details_Cell">
<polygon fill="white" stroke="black" points="519.5,-681.337 519.5,-711.337 652.5,-711.337 652.5,-681.337 519.5,-681.337"/>
<text text-anchor="start" x="527.5" y="-699.337" font-family="Helvetica,sans-Serif" font-size="10.00">CCCC_Html_Stream::Put</text>
<text text-anchor="middle" x="586" y="-688.337" font-family="Helvetica,sans-Serif" font-size="10.00">_Structural_Details_Cell</text>
</a>
</g>
</g>
<!-- Node9&#45;&gt;Node10 -->
<g id="edge9" class="edge"><title>Node9&#45;&gt;Node10</title>
<path fill="none" stroke="midnightblue" d="M427.936,-552.309C447.661,-575.102 479.548,-610.552 510,-638.337 527.145,-653.98 548.155,-669.987 563.572,-681.21"/>
<polygon fill="midnightblue" stroke="midnightblue" points="430.416,-549.825 421.244,-544.521 425.107,-554.387 430.416,-549.825"/>
</g>
<!-- Node12 -->
<g id="node12" class="node"><title>Node12</title>
<g id="a_node12"><a xlink:href="../../d2/d92/classCCCC__Html__Stream.html#a11a4dc19838cdbfe33b6d2e7f8b5823a" target="_top" xlink:title="CCCC_Html_Stream::Put\l_Label_Cell">
<polygon fill="white" stroke="black" points="519.5,-514.337 519.5,-544.337 652.5,-544.337 652.5,-514.337 519.5,-514.337"/>
<text text-anchor="start" x="527.5" y="-532.337" font-family="Helvetica,sans-Serif" font-size="10.00">CCCC_Html_Stream::Put</text>
<text text-anchor="middle" x="586" y="-521.337" font-family="Helvetica,sans-Serif" font-size="10.00">_Label_Cell</text>
</a>
</g>
</g>
<!-- Node9&#45;&gt;Node12 -->
<g id="edge11" class="edge"><title>Node9&#45;&gt;Node12</title>
<path fill="none" stroke="midnightblue" d="M484.331,-529.337C495.945,-529.337 507.851,-529.337 519.223,-529.337"/>
<polygon fill="midnightblue" stroke="midnightblue" points="484.222,-525.837 474.222,-529.337 484.222,-532.837 484.222,-525.837"/>
</g>
<!-- Node11 -->
<g id="node11" class="node"><title>Node11</title>
<g id="a_node11"><a xlink:href="../../d2/d92/classCCCC__Html__Stream.html#af0091534327b225ee300640d7a5e0220" target="_top" xlink:title="CCCC_Html_Stream::Structural\l_Detail">
<polygon fill="white" stroke="black" points="701.5,-710.337 701.5,-740.337 863.5,-740.337 863.5,-710.337 701.5,-710.337"/>
<text text-anchor="start" x="709.5" y="-728.337" font-family="Helvetica,sans-Serif" font-size="10.00">CCCC_Html_Stream::Structural</text>
<text text-anchor="middle" x="782.5" y="-717.337" font-family="Helvetica,sans-Serif" font-size="10.00">_Detail</text>
</a>
</g>
</g>
<!-- Node10&#45;&gt;Node11 -->
<g id="edge10" class="edge"><title>Node10&#45;&gt;Node11</title>
<path fill="none" stroke="midnightblue" d="M662.634,-707.614C675.334,-709.508 688.553,-711.479 701.362,-713.389"/>
<polygon fill="midnightblue" stroke="midnightblue" points="662.985,-704.128 652.578,-706.115 661.952,-711.051 662.985,-704.128"/>
</g>
<!-- Node12&#45;&gt;Node2 -->
<g id="edge13" class="edge"><title>Node12&#45;&gt;Node2</title>
<path fill="none" stroke="midnightblue" d="M653.585,-509.733C656.515,-508.072 659.337,-506.276 662,-504.337 683.844,-488.428 675.827,-470.785 698,-455.337 703.322,-451.63 709.211,-448.49 715.328,-445.833"/>
<polygon fill="midnightblue" stroke="midnightblue" points="651.867,-506.68 644.532,-514.326 655.033,-512.923 651.867,-506.68"/>
</g>
<!-- Node12&#45;&gt;Node3 -->
<g id="edge14" class="edge"><title>Node12&#45;&gt;Node3</title>
<path fill="none" stroke="midnightblue" d="M657.329,-508.396C658.96,-507.122 660.522,-505.771 662,-504.337 695.304,-472.027 664.027,-437.943 698,-406.337 701.644,-402.947 705.737,-400.032 710.101,-397.526"/>
<polygon fill="midnightblue" stroke="midnightblue" points="655.063,-505.699 648.663,-514.142 658.932,-511.533 655.063,-505.699"/>
</g>
<!-- Node12&#45;&gt;Node4 -->
<g id="edge15" class="edge"><title>Node12&#45;&gt;Node4</title>
<path fill="none" stroke="midnightblue" d="M658.152,-508.088C659.499,-506.905 660.785,-505.656 662,-504.337 707.584,-454.874 651.391,-405.835 698,-357.337 701.24,-353.966 704.92,-351.059 708.885,-348.554"/>
<polygon fill="midnightblue" stroke="midnightblue" points="655.845,-505.439 649.844,-514.17 659.98,-511.087 655.845,-505.439"/>
</g>
<!-- Node12&#45;&gt;Node7 -->
<g id="edge18" class="edge"><title>Node12&#45;&gt;Node7</title>
<path fill="none" stroke="midnightblue" d="M608.223,-551.792C623.371,-567.932 644.142,-590.293 662,-610.337 678.355,-628.694 677.315,-639.049 698,-652.337 703.33,-655.761 709.159,-658.708 715.179,-661.241"/>
<polygon fill="midnightblue" stroke="midnightblue" points="610.676,-549.292 601.275,-544.405 605.577,-554.088 610.676,-549.292"/>
</g>
<!-- Node13 -->
<g id="node13" class="node"><title>Node13</title>
<g id="a_node13"><a xlink:href="../../d2/d92/classCCCC__Html__Stream.html#aa4d916f2e9fc42d4b7924e1544be92f6" target="_top" xlink:title="CCCC_Html_Stream::Project\l_Summary">
<polygon fill="white" stroke="black" points="707,-612.337 707,-642.337 858,-642.337 858,-612.337 707,-612.337"/>
<text text-anchor="start" x="715" y="-630.337" font-family="Helvetica,sans-Serif" font-size="10.00">CCCC_Html_Stream::Project</text>
<text text-anchor="middle" x="782.5" y="-619.337" font-family="Helvetica,sans-Serif" font-size="10.00">_Summary</text>
</a>
</g>
</g>
<!-- Node12&#45;&gt;Node13 -->
<g id="edge12" class="edge"><title>Node12&#45;&gt;Node13</title>
<path fill="none" stroke="midnightblue" d="M613.634,-550.526C635.292,-566.885 667.205,-589.067 698,-603.337 705.116,-606.635 712.787,-609.583 720.493,-612.188"/>
<polygon fill="midnightblue" stroke="midnightblue" points="615.643,-547.656 605.577,-544.351 611.385,-553.212 615.643,-547.656"/>
</g>
<!-- Node14 -->
<g id="node14" class="node"><title>Node14</title>
<g id="a_node14"><a xlink:href="../../d2/d92/classCCCC__Html__Stream.html#a0abac1d610545f3aac5c469074e98ee8" target="_top" xlink:title="CCCC_Html_Stream::Structural\l_Detail">
<polygon fill="white" stroke="black" points="701.5,-563.337 701.5,-593.337 863.5,-593.337 863.5,-563.337 701.5,-563.337"/>
<text text-anchor="start" x="709.5" y="-581.337" font-family="Helvetica,sans-Serif" font-size="10.00">CCCC_Html_Stream::Structural</text>
<text text-anchor="middle" x="782.5" y="-570.337" font-family="Helvetica,sans-Serif" font-size="10.00">_Detail</text>
</a>
</g>
</g>
<!-- Node12&#45;&gt;Node14 -->
<g id="edge16" class="edge"><title>Node12&#45;&gt;Node14</title>
<path fill="none" stroke="midnightblue" d="M656.662,-546.887C678.02,-552.268 701.315,-558.136 721.935,-563.331"/>
<polygon fill="midnightblue" stroke="midnightblue" points="657.23,-543.421 646.678,-544.372 655.52,-550.209 657.23,-543.421"/>
</g>
<!-- Node15 -->
<g id="node15" class="node"><title>Node15</title>
<g id="a_node15"><a xlink:href="../../d2/d92/classCCCC__Html__Stream.html#afe9cd530333567a8e6bfb38c6b586e81" target="_top" xlink:title="CCCC_Html_Stream::Procedural\l_Detail">
<polygon fill="white" stroke="black" points="698,-514.337 698,-544.337 867,-544.337 867,-514.337 698,-514.337"/>
<text text-anchor="start" x="706" y="-532.337" font-family="Helvetica,sans-Serif" font-size="10.00">CCCC_Html_Stream::Procedural</text>
<text text-anchor="middle" x="782.5" y="-521.337" font-family="Helvetica,sans-Serif" font-size="10.00">_Detail</text>
</a>
</g>
</g>
<!-- Node12&#45;&gt;Node15 -->
<g id="edge17" class="edge"><title>Node12&#45;&gt;Node15</title>
<path fill="none" stroke="midnightblue" d="M662.618,-529.337C674.19,-529.337 686.192,-529.337 697.923,-529.337"/>
<polygon fill="midnightblue" stroke="midnightblue" points="662.578,-525.837 652.578,-529.337 662.578,-532.837 662.578,-525.837"/>
</g>
<!-- Node16 -->
<g id="node16" class="node"><title>Node16</title>
<g id="a_node16"><a xlink:href="../../d2/d92/classCCCC__Html__Stream.html#a4ad244ddfbe8c7929b2dbdce4197bbc6" target="_top" xlink:title="CCCC_Html_Stream::Module\l_Summary">
<polygon fill="white" stroke="black" points="706.5,-465.337 706.5,-495.337 858.5,-495.337 858.5,-465.337 706.5,-465.337"/>
<text text-anchor="start" x="714.5" y="-483.337" font-family="Helvetica,sans-Serif" font-size="10.00">CCCC_Html_Stream::Module</text>
<text text-anchor="middle" x="782.5" y="-472.337" font-family="Helvetica,sans-Serif" font-size="10.00">_Summary</text>
</a>
</g>
</g>
<!-- Node12&#45;&gt;Node16 -->
<g id="edge19" class="edge"><title>Node12&#45;&gt;Node16</title>
<path fill="none" stroke="midnightblue" d="M656.662,-511.787C678.02,-506.407 701.315,-500.538 721.935,-495.343"/>
<polygon fill="midnightblue" stroke="midnightblue" points="655.52,-508.466 646.678,-514.303 657.23,-515.254 655.52,-508.466"/>
</g>
<!-- Node19 -->
<g id="node19" class="node"><title>Node19</title>
<g id="a_node19"><a xlink:href="../../d4/d6e/classCCCC__Project.html#ad2b4c25d24f7ed427c79bd9c7bd8a971" target="_top" xlink:title="CCCC_Project::ToFile">
<polygon fill="white" stroke="black" points="348,-45.8373 348,-64.8373 467,-64.8373 467,-45.8373 348,-45.8373"/>
<text text-anchor="middle" x="407.5" y="-52.8373" font-family="Helvetica,sans-Serif" font-size="10.00">CCCC_Project::ToFile</text>
</a>
</g>
</g>
<!-- Node18&#45;&gt;Node19 -->
<g id="edge22" class="edge"><title>Node18&#45;&gt;Node19</title>
<path fill="none" stroke="midnightblue" d="M297.336,-55.3373C314.107,-55.3373 331.773,-55.3373 347.891,-55.3373"/>
<polygon fill="midnightblue" stroke="midnightblue" points="297.031,-51.8374 287.031,-55.3373 297.031,-58.8374 297.031,-51.8374"/>
</g>
<!-- Node20 -->
<g id="node20" class="node"><title>Node20</title>
<g id="a_node20"><a xlink:href="../../db/d4a/classMain.html#a73e7ee7cdbee235ec767f6d66b595b5e" target="_top" xlink:title="Main::DumpDatabase">
<polygon fill="white" stroke="black" points="528,-45.8373 528,-64.8373 644,-64.8373 644,-45.8373 528,-45.8373"/>
<text text-anchor="middle" x="586" y="-52.8373" font-family="Helvetica,sans-Serif" font-size="10.00">Main::DumpDatabase</text>
</a>
</g>
</g>
<!-- Node19&#45;&gt;Node20 -->
<g id="edge23" class="edge"><title>Node19&#45;&gt;Node20</title>
<path fill="none" stroke="midnightblue" d="M477.525,-55.3373C494.23,-55.3373 511.901,-55.3373 527.983,-55.3373"/>
<polygon fill="midnightblue" stroke="midnightblue" points="477.272,-51.8374 467.272,-55.3373 477.272,-58.8374 477.272,-51.8374"/>
</g>
<!-- Node21 -->
<g id="node21" class="node"><title>Node21</title>
<g id="a_node21"><a xlink:href="../../d6/d93/ccccmain_8cc.html#a3c04138a5bfe5d72780bb7e82a18e627" target="_top" xlink:title="main">
<polygon fill="white" stroke="black" points="763,-26.8373 763,-45.8373 802,-45.8373 802,-26.8373 763,-26.8373"/>
<text text-anchor="middle" x="782.5" y="-33.8373" font-family="Helvetica,sans-Serif" font-size="10.00">main</text>
</a>
</g>
</g>
<!-- Node20&#45;&gt;Node21 -->
<g id="edge24" class="edge"><title>Node20&#45;&gt;Node21</title>
<path fill="none" stroke="midnightblue" d="M654.122,-48.7803C692.412,-45.0399 737.616,-40.6241 762.565,-38.1869"/>
<polygon fill="midnightblue" stroke="midnightblue" points="653.655,-45.3093 644.042,-49.765 654.335,-52.2761 653.655,-45.3093"/>
</g>
<!-- Node23 -->
<g id="node23" class="node"><title>Node23</title>
<g id="a_node23"><a xlink:href="../../d4/d6e/classCCCC__Project.html#a189af779423cacf2ee6cbb9f738392cc" target="_top" xlink:title="CCCC_Project::FromFile">
<polygon fill="white" stroke="black" points="342,-165.837 342,-184.837 473,-184.837 473,-165.837 342,-165.837"/>
<text text-anchor="middle" x="407.5" y="-172.837" font-family="Helvetica,sans-Serif" font-size="10.00">CCCC_Project::FromFile</text>
</a>
</g>
</g>
<!-- Node22&#45;&gt;Node23 -->
<g id="edge26" class="edge"><title>Node22&#45;&gt;Node23</title>
<path fill="none" stroke="midnightblue" d="M275.545,-143.242C285.316,-145.582 295.481,-148.028 305,-150.337 325.811,-155.387 349.002,-161.093 367.957,-165.778"/>
<polygon fill="midnightblue" stroke="midnightblue" points="276.089,-139.773 265.549,-140.852 274.461,-146.582 276.089,-139.773"/>
</g>
<!-- Node24 -->
<g id="node24" class="node"><title>Node24</title>
<g id="a_node24"><a xlink:href="../../db/d4a/classMain.html#a13105815f91cc705481ca62c1e3ff562" target="_top" xlink:title="Main::LoadDatabase">
<polygon fill="white" stroke="black" points="529.5,-165.837 529.5,-184.837 642.5,-184.837 642.5,-165.837 529.5,-165.837"/>
<text text-anchor="middle" x="586" y="-172.837" font-family="Helvetica,sans-Serif" font-size="10.00">Main::LoadDatabase</text>
</a>
</g>
</g>
<!-- Node23&#45;&gt;Node24 -->
<g id="edge27" class="edge"><title>Node23&#45;&gt;Node24</title>
<path fill="none" stroke="midnightblue" d="M483.26,-175.337C498.692,-175.337 514.688,-175.337 529.3,-175.337"/>
<polygon fill="midnightblue" stroke="midnightblue" points="483.22,-171.837 473.22,-175.337 483.22,-178.837 483.22,-171.837"/>
</g>
<!-- Node25&#45;&gt;Node2 -->
<g id="edge29" class="edge"><title>Node25&#45;&gt;Node2</title>
<path fill="none" stroke="midnightblue" d="M598.528,-302.247C616.566,-328.851 653.992,-378.64 698,-406.337 704.147,-410.206 710.925,-413.503 717.88,-416.307"/>
<polygon fill="midnightblue" stroke="midnightblue" points="601.421,-300.277 592.977,-293.878 595.588,-304.146 601.421,-300.277"/>
</g>
<!-- Node25&#45;&gt;Node3 -->
<g id="edge30" class="edge"><title>Node25&#45;&gt;Node3</title>
<path fill="none" stroke="midnightblue" d="M606.972,-300.07C628.419,-316.323 664.011,-341.488 698,-357.337 705.954,-361.046 714.591,-364.358 723.191,-367.262"/>
<polygon fill="midnightblue" stroke="midnightblue" points="609.016,-297.226 598.954,-293.907 604.75,-302.776 609.016,-297.226"/>
</g>
<!-- Node25&#45;&gt;Node4 -->
<g id="edge31" class="edge"><title>Node25&#45;&gt;Node4</title>
<path fill="none" stroke="midnightblue" d="M634.689,-296.351C660.97,-302.972 693.84,-311.253 721.812,-318.3"/>
<polygon fill="midnightblue" stroke="midnightblue" points="635.515,-292.95 624.963,-293.901 633.805,-299.738 635.515,-292.95"/>
</g>
<!-- Node25&#45;&gt;Node16 -->
<g id="edge32" class="edge"><title>Node25&#45;&gt;Node16</title>
<path fill="none" stroke="midnightblue" d="M594.321,-303.85C608.657,-339.394 643.835,-414.758 698,-455.337 703.208,-459.239 709.022,-462.535 715.091,-465.319"/>
<polygon fill="midnightblue" stroke="midnightblue" points="597.442,-302.221 590.543,-294.18 590.922,-304.768 597.442,-302.221"/>
</g>
<!-- Node26 -->
<g id="node26" class="node"><title>Node26</title>
<g id="a_node26"><a xlink:href="../../db/d8c/classCCCC__Xml__Stream.html#a261ad7db353c63e8f2ecc43dd120c35b" target="_top" xlink:title="CCCC_Xml_Stream::OO\l_Design">
<polygon fill="white" stroke="black" points="717,-220.337 717,-250.337 848,-250.337 848,-220.337 717,-220.337"/>
<text text-anchor="start" x="725" y="-238.337" font-family="Helvetica,sans-Serif" font-size="10.00">CCCC_Xml_Stream::OO</text>
<text text-anchor="middle" x="782.5" y="-227.337" font-family="Helvetica,sans-Serif" font-size="10.00">_Design</text>
</a>
</g>
</g>
<!-- Node25&#45;&gt;Node26 -->
<g id="edge33" class="edge"><title>Node25&#45;&gt;Node26</title>
<path fill="none" stroke="midnightblue" d="M634.689,-272.323C660.97,-265.702 693.84,-257.421 721.812,-250.374"/>
<polygon fill="midnightblue" stroke="midnightblue" points="633.805,-268.936 624.963,-274.773 635.515,-275.724 633.805,-268.936"/>
</g>
<!-- Node27 -->
<g id="node27" class="node"><title>Node27</title>
<g id="a_node27"><a xlink:href="../../db/d8c/classCCCC__Xml__Stream.html#af8659ea64595d693d4b3a78f2620b379" target="_top" xlink:title="CCCC_Xml_Stream::Procedural\l_Summary">
<polygon fill="white" stroke="black" points="700,-171.337 700,-201.337 865,-201.337 865,-171.337 700,-171.337"/>
<text text-anchor="start" x="708" y="-189.337" font-family="Helvetica,sans-Serif" font-size="10.00">CCCC_Xml_Stream::Procedural</text>
<text text-anchor="middle" x="782.5" y="-178.337" font-family="Helvetica,sans-Serif" font-size="10.00">_Summary</text>
</a>
</g>
</g>
<!-- Node25&#45;&gt;Node27 -->
<g id="edge34" class="edge"><title>Node25&#45;&gt;Node27</title>
<path fill="none" stroke="midnightblue" d="M606.555,-268.564C627.904,-252.02 663.647,-226.256 698,-210.337 705.116,-207.04 712.787,-204.091 720.493,-201.487"/>
<polygon fill="midnightblue" stroke="midnightblue" points="604.288,-265.894 598.592,-274.827 608.616,-271.396 604.288,-265.894"/>
</g>
<!-- Node28 -->
<g id="node28" class="node"><title>Node28</title>
<g id="a_node28"><a xlink:href="../../db/d8c/classCCCC__Xml__Stream.html#a8e9d1d8c0d2645f1af6df568e58cd175" target="_top" xlink:title="CCCC_Xml_Stream::Structural\l_Summary">
<polygon fill="white" stroke="black" points="703.5,-269.337 703.5,-299.337 861.5,-299.337 861.5,-269.337 703.5,-269.337"/>
<text text-anchor="start" x="711.5" y="-287.337" font-family="Helvetica,sans-Serif" font-size="10.00">CCCC_Xml_Stream::Structural</text>
<text text-anchor="middle" x="782.5" y="-276.337" font-family="Helvetica,sans-Serif" font-size="10.00">_Summary</text>
</a>
</g>
</g>
<!-- Node25&#45;&gt;Node28 -->
<g id="edge35" class="edge"><title>Node25&#45;&gt;Node28</title>
<path fill="none" stroke="midnightblue" d="M665.374,-284.337C677.835,-284.337 690.727,-284.337 703.186,-284.337"/>
<polygon fill="midnightblue" stroke="midnightblue" points="665.027,-280.837 655.027,-284.337 665.027,-287.837 665.027,-280.837"/>
</g>
<!-- Node29 -->
<g id="node29" class="node"><title>Node29</title>
<g id="a_node29"><a xlink:href="../../db/d8c/classCCCC__Xml__Stream.html#a86b2358b95c828fd96da2ba14ca458d0" target="_top" xlink:title="CCCC_Xml_Stream::Module\l_Summary">
<polygon fill="white" stroke="black" points="708,-122.337 708,-152.337 857,-152.337 857,-122.337 708,-122.337"/>
<text text-anchor="start" x="716" y="-140.337" font-family="Helvetica,sans-Serif" font-size="10.00">CCCC_Xml_Stream::Module</text>
<text text-anchor="middle" x="782.5" y="-129.337" font-family="Helvetica,sans-Serif" font-size="10.00">_Summary</text>
</a>
</g>
</g>
<!-- Node25&#45;&gt;Node29 -->
<g id="edge36" class="edge"><title>Node25&#45;&gt;Node29</title>
<path fill="none" stroke="midnightblue" d="M600.972,-266.582C625.267,-236.115 674.907,-175.76 698,-161.337 703.501,-157.902 709.51,-154.943 715.701,-152.398"/>
<polygon fill="midnightblue" stroke="midnightblue" points="598.039,-264.647 594.568,-274.657 603.523,-268.997 598.039,-264.647"/>
</g>
<!-- Node29&#45;&gt;Node30 -->
<g id="edge37" class="edge"><title>Node29&#45;&gt;Node30</title>
<path fill="none" stroke="midnightblue" d="M867.289,-128.004C879.054,-126.693 891.109,-125.35 902.765,-124.052"/>
<polygon fill="midnightblue" stroke="midnightblue" points="866.593,-124.56 857.042,-129.145 867.368,-131.517 866.593,-124.56"/>
</g>
<!-- Node31&#45;&gt;Node23 -->
<g id="edge39" class="edge"><title>Node31&#45;&gt;Node23</title>
<path fill="none" stroke="midnightblue" d="M274.736,-207.368C303.829,-200.296 340.162,-191.464 367.302,-184.866"/>
<polygon fill="midnightblue" stroke="midnightblue" points="273.665,-204.027 264.774,-209.79 275.318,-210.829 273.665,-204.027"/>
</g>
<!-- Node32&#45;&gt;Node21 -->
<g id="edge41" class="edge"><title>Node32&#45;&gt;Node21</title>
<path fill="none" stroke="midnightblue" d="M480.28,-20.9936C568.328,-25.4786 712.155,-32.8049 762.991,-35.3944"/>
<polygon fill="midnightblue" stroke="midnightblue" points="480.259,-17.4881 470.093,-20.4747 479.902,-24.479 480.259,-17.4881"/>
</g>
<!-- Node33&#45;&gt;Node23 -->
<g id="edge43" class="edge"><title>Node33&#45;&gt;Node23</title>
<path fill="none" stroke="midnightblue" d="M299.655,-175.337C313.667,-175.337 328.219,-175.337 341.907,-175.337"/>
<polygon fill="midnightblue" stroke="midnightblue" points="299.569,-171.837 289.569,-175.337 299.569,-178.837 299.569,-171.837"/>
</g>
</g>
</svg>
        <g id="navigator" transform="translate(0 0)" fill="#404254">
                <rect fill="#f2f5e9" fill-opacity="0.5" stroke="#606060" stroke-width=".5" x="0" y="0" width="60" height="60"/>
                <use id="zoomplus" xlink:href="#zoomPlus" x="17" y="9" onmousedown="handleZoom(evt,'in')"/>
                <use id="zoomminus" xlink:href="#zoomMin" x="42" y="9" onmousedown="handleZoom(evt,'out')"/>
                <use id="reset" xlink:href="#resetDef" x="30" y="36" onmousedown="handleReset()"/>
                <g id="arrowUp" xlink:href="#dirArrow" transform="translate(30 24)" onmousedown="handlePan(0,-1)">
                  <use xlink:href="#rim" fill="#404040">
                        <set attributeName="fill" to="#808080" begin="arrowUp.mouseover" end="arrowUp.mouseout"/>
                  </use>
                  <path fill="none" stroke="white" stroke-width="1.5" d="M0,-3.0v7 M-2.5,-0.5L0,-3.0L2.5,-0.5"/>
                </g>
                <g id="arrowRight" xlink:href="#dirArrow" transform="rotate(90) translate(36 -43)" onmousedown="handlePan(1,0)">
                  <use xlink:href="#rim" fill="#404040">
                        <set attributeName="fill" to="#808080" begin="arrowRight.mouseover" end="arrowRight.mouseout"/>
                  </use>
                  <path fill="none" stroke="white" stroke-width="1.5" d="M0,-3.0v7 M-2.5,-0.5L0,-3.0L2.5,-0.5"/>
                </g>
                <g id="arrowDown" xlink:href="#dirArrow" transform="rotate(180) translate(-30 -48)" onmousedown="handlePan(0,1)">
                  <use xlink:href="#rim" fill="#404040">
                        <set attributeName="fill" to="#808080" begin="arrowDown.mouseover" end="arrowDown.mouseout"/>
                  </use>
                  <path fill="none" stroke="white" stroke-width="1.5" d="M0,-3.0v7 M-2.5,-0.5L0,-3.0L2.5,-0.5"/>
                </g>
                <g id="arrowLeft" xlink:href="#dirArrow" transform="rotate(270) translate(-36 17)" onmousedown="handlePan(-1,0)">
                  <use xlink:href="#rim" fill="#404040">
                        <set attributeName="fill" to="#808080" begin="arrowLeft.mouseover" end="arrowLeft.mouseout"/>
                  </use>
                  <path fill="none" stroke="white" stroke-width="1.5" d="M0,-3.0v7 M-2.5,-0.5L0,-3.0L2.5,-0.5"/>
                </g>
        </g>
        <svg viewBox="0 0 15 15" width="100%" height="30px" preserveAspectRatio="xMaxYMin meet">
         <g id="arrow_out" transform="scale(0.3 0.3)">
          <a xlink:href="classCCCC__Record_a81bf0541981287180a41e3d801e7a084_icgraph_org.svg" target="_base">
           <rect id="button" ry="5" rx="5" y="6" x="6" height="38" width="38"
                fill="#f2f5e9" fill-opacity="0.5" stroke="#606060" stroke-width="1.0"/>
           <path id="arrow"
             d="M 11.500037,31.436501 C 11.940474,20.09759 22.043105,11.32322 32.158766,21.979434 L 37.068811,17.246167 C 37.068811,17.246167 37.088388,32 37.088388,32 L 22.160133,31.978069 C 22.160133,31.978069 26.997745,27.140456 26.997745,27.140456 C 18.528582,18.264221 13.291696,25.230495 11.500037,31.436501 z"
             style="fill:#404040;"/>
          </a>
         </g>
        </svg>
</svg>
