<?xml version="1.0" encoding="UTF-8" standalone="no"?>
<!DOCTYPE svg PUBLIC "-//W3C//DTD SVG 1.1//EN"
 "http://www.w3.org/Graphics/SVG/1.1/DTD/svg11.dtd">
<!-- Generated by graphviz version 2.38.0 (20140413.2041)
 -->
<!-- Title: CCCC_Record::add_extent Pages: 1 -->
<svg width="484pt" height="78pt"
 viewBox="0.00 0.00 484.00 77.50" xmlns="http://www.w3.org/2000/svg" xmlns:xlink="http://www.w3.org/1999/xlink">
<g id="graph0" class="graph" transform="scale(1 1) rotate(0) translate(4 73.5)">
<title>CCCC_Record::add_extent</title>
<polygon fill="white" stroke="none" points="-4,4 -4,-73.5 480,-73.5 480,4 -4,4"/>
<!-- Node1 -->
<g id="node1" class="node"><title>Node1</title>
<polygon fill="#bfbfbf" stroke="black" points="0,-28 0,-47 145,-47 145,-28 0,-28"/>
<text text-anchor="middle" x="72.5" y="-35" font-family="Helvetica,sans-Serif" font-size="10.00">CCCC_Record::add_extent</text>
</g>
<!-- Node2 -->
<g id="node2" class="node"><title>Node2</title>
<g id="a_node2"><a xlink:href="../../df/d99/classCCCC__Extent.html#abaf126bf784cc83e12eb98434674c4df" target="_top" xlink:title="CCCC_Extent::GetFromItem">
<polygon fill="white" stroke="black" points="181,-50 181,-69 330,-69 330,-50 181,-50"/>
<text text-anchor="middle" x="255.5" y="-57" font-family="Helvetica,sans-Serif" font-size="10.00">CCCC_Extent::GetFromItem</text>
</a>
</g>
</g>
<!-- Node1&#45;&gt;Node2 -->
<g id="edge1" class="edge"><title>Node1&#45;&gt;Node2</title>
<path fill="none" stroke="midnightblue" d="M145.036,-46.195C153.488,-47.2223 162.17,-48.2776 170.771,-49.323"/>
<polygon fill="midnightblue" stroke="midnightblue" points="170.462,-52.8111 180.811,-50.5433 171.306,-45.8622 170.462,-52.8111"/>
</g>
<!-- Node4 -->
<g id="node4" class="node"><title>Node4</title>
<g id="a_node4"><a xlink:href="../../d8/dcf/classCCCC__Table.html#a8e08fe4f6edb07f1fbf2813c66bb3606" target="_top" xlink:title="CCCC_Table::find_or\l_insert">
<polygon fill="white" stroke="black" points="197.5,-0.5 197.5,-30.5 313.5,-30.5 313.5,-0.5 197.5,-0.5"/>
<text text-anchor="start" x="205.5" y="-18.5" font-family="Helvetica,sans-Serif" font-size="10.00">CCCC_Table::find_or</text>
<text text-anchor="middle" x="255.5" y="-7.5" font-family="Helvetica,sans-Serif" font-size="10.00">_insert</text>
</a>
</g>
</g>
<!-- Node1&#45;&gt;Node4 -->
<g id="edge3" class="edge"><title>Node1&#45;&gt;Node4</title>
<path fill="none" stroke="midnightblue" d="M145.036,-28.805C158.895,-27.1205 173.374,-25.3606 187.095,-23.6928"/>
<polygon fill="midnightblue" stroke="midnightblue" points="187.912,-27.1194 197.417,-22.4383 187.068,-20.1705 187.912,-27.1194"/>
</g>
<!-- Node3 -->
<g id="node3" class="node"><title>Node3</title>
<g id="a_node3"><a xlink:href="../../db/d6a/classCCCC__Item.html#aa8e1c13780b4a9191d00b85641cdde1d" target="_top" xlink:title="CCCC_Item::Extract">
<polygon fill="white" stroke="black" points="366,-50 366,-69 476,-69 476,-50 366,-50"/>
<text text-anchor="middle" x="421" y="-57" font-family="Helvetica,sans-Serif" font-size="10.00">CCCC_Item::Extract</text>
</a>
</g>
</g>
<!-- Node2&#45;&gt;Node3 -->
<g id="edge2" class="edge"><title>Node2&#45;&gt;Node3</title>
<path fill="none" stroke="midnightblue" d="M330.119,-59.5C338.676,-59.5 347.352,-59.5 355.769,-59.5"/>
<polygon fill="midnightblue" stroke="midnightblue" points="355.882,-63.0001 365.881,-59.5 355.881,-56.0001 355.882,-63.0001"/>
</g>
</g>
</svg>
