<?xml version="1.0" encoding="UTF-8" standalone="no"?>
<!DOCTYPE svg PUBLIC "-//W3C//DTD SVG 1.1//EN"
 "http://www.w3.org/Graphics/SVG/1.1/DTD/svg11.dtd">
<!-- Generated by graphviz version 2.38.0 (20140413.2041)
 -->
<!-- Title: CCCC_Record::name Pages: 1 -->
<svg width="1223pt" height="749pt"
 viewBox="0.00 0.00 1223.00 748.84" xmlns="http://www.w3.org/2000/svg" xmlns:xlink="http://www.w3.org/1999/xlink">
<g id="graph0" class="graph" transform="scale(1 1) rotate(0) translate(4 744.837)">
<title>CCCC_Record::name</title>
<polygon fill="white" stroke="none" points="-4,4 -4,-744.837 1219,-744.837 1219,4 -4,4"/>
<!-- Node1 -->
<g id="node1" class="node"><title>Node1</title>
<polygon fill="#bfbfbf" stroke="black" points="0,-228.837 0,-247.837 118,-247.837 118,-228.837 0,-228.837"/>
<text text-anchor="middle" x="59" y="-235.837" font-family="Helvetica,sans-Serif" font-size="10.00">CCCC_Record::name</text>
</g>
<!-- Node2 -->
<g id="node2" class="node"><title>Node2</title>
<g id="a_node2"><a xlink:href="../../d6/d85/classCCCC__Record.html#a81bf0541981287180a41e3d801e7a084" target="_top" xlink:title="CCCC_Record::key">
<polygon fill="white" stroke="black" points="154,-228.837 154,-247.837 262,-247.837 262,-228.837 154,-228.837"/>
<text text-anchor="middle" x="208" y="-235.837" font-family="Helvetica,sans-Serif" font-size="10.00">CCCC_Record::key</text>
</a>
</g>
</g>
<!-- Node1&#45;&gt;Node2 -->
<g id="edge1" class="edge"><title>Node1&#45;&gt;Node2</title>
<path fill="none" stroke="midnightblue" d="M128.365,-238.337C136.845,-238.337 145.416,-238.337 153.624,-238.337"/>
<polygon fill="midnightblue" stroke="midnightblue" points="128.098,-234.837 118.098,-238.337 128.098,-241.837 128.098,-234.837"/>
</g>
<!-- Node3 -->
<g id="node3" class="node"><title>Node3</title>
<g id="a_node3"><a xlink:href="../../d2/d92/classCCCC__Html__Stream.html#a81d206c53e52cd62d445beb809c3d215" target="_top" xlink:title="CCCC_Html_Stream::OO\l_Design">
<polygon fill="white" stroke="black" points="869.5,-416.337 869.5,-446.337 1003.5,-446.337 1003.5,-416.337 869.5,-416.337"/>
<text text-anchor="start" x="877.5" y="-434.337" font-family="Helvetica,sans-Serif" font-size="10.00">CCCC_Html_Stream::OO</text>
<text text-anchor="middle" x="936.5" y="-423.337" font-family="Helvetica,sans-Serif" font-size="10.00">_Design</text>
</a>
</g>
</g>
<!-- Node2&#45;&gt;Node3 -->
<g id="edge2" class="edge"><title>Node2&#45;&gt;Node3</title>
<path fill="none" stroke="midnightblue" d="M214.618,-257.409C225.161,-289.479 251.179,-353.606 298,-383.337 391.403,-442.648 725.991,-438.689 869.437,-434.036"/>
<polygon fill="midnightblue" stroke="midnightblue" points="217.956,-256.356 211.628,-247.859 211.276,-258.448 217.956,-256.356"/>
</g>
<!-- Node4 -->
<g id="node4" class="node"><title>Node4</title>
<g id="a_node4"><a xlink:href="../../d2/d92/classCCCC__Html__Stream.html#a872d57e3b8d177d0fcc532237b53e6fe" target="_top" xlink:title="CCCC_Html_Stream::Procedural\l_Summary">
<polygon fill="white" stroke="black" points="852,-367.337 852,-397.337 1021,-397.337 1021,-367.337 852,-367.337"/>
<text text-anchor="start" x="860" y="-385.337" font-family="Helvetica,sans-Serif" font-size="10.00">CCCC_Html_Stream::Procedural</text>
<text text-anchor="middle" x="936.5" y="-374.337" font-family="Helvetica,sans-Serif" font-size="10.00">_Summary</text>
</a>
</g>
</g>
<!-- Node2&#45;&gt;Node4 -->
<g id="edge3" class="edge"><title>Node2&#45;&gt;Node4</title>
<path fill="none" stroke="midnightblue" d="M217.485,-257.272C230.527,-283.84 258.232,-331.283 298,-352.337 391.638,-401.912 701.166,-394.159 851.752,-387.065"/>
<polygon fill="midnightblue" stroke="midnightblue" points="220.5,-255.461 213.072,-247.906 214.168,-258.444 220.5,-255.461"/>
</g>
<!-- Node5 -->
<g id="node5" class="node"><title>Node5</title>
<g id="a_node5"><a xlink:href="../../d2/d92/classCCCC__Html__Stream.html#a0dbb99417ffc369edc76114cc2455ee2" target="_top" xlink:title="CCCC_Html_Stream::Structural\l_Summary">
<polygon fill="white" stroke="black" points="855.5,-318.337 855.5,-348.337 1017.5,-348.337 1017.5,-318.337 855.5,-318.337"/>
<text text-anchor="start" x="863.5" y="-336.337" font-family="Helvetica,sans-Serif" font-size="10.00">CCCC_Html_Stream::Structural</text>
<text text-anchor="middle" x="936.5" y="-325.337" font-family="Helvetica,sans-Serif" font-size="10.00">_Summary</text>
</a>
</g>
</g>
<!-- Node2&#45;&gt;Node5 -->
<g id="edge4" class="edge"><title>Node2&#45;&gt;Node5</title>
<path fill="none" stroke="midnightblue" d="M220.933,-256.48C236.003,-277.568 264.099,-311.272 298,-325.337 396.401,-366.165 707.28,-350.115 855.451,-339.641"/>
<polygon fill="midnightblue" stroke="midnightblue" points="223.68,-254.298 215.123,-248.052 217.917,-258.272 223.68,-254.298"/>
</g>
<!-- Node6 -->
<g id="node6" class="node"><title>Node6</title>
<g id="a_node6"><a xlink:href="../../d2/d92/classCCCC__Html__Stream.html#abc882e68712ce2c2f95ce84821d1c516" target="_top" xlink:title="CCCC_Html_Stream::Put\l_Extent_URL">
<polygon fill="white" stroke="black" points="312,-465.337 312,-495.337 445,-495.337 445,-465.337 312,-465.337"/>
<text text-anchor="start" x="320" y="-483.337" font-family="Helvetica,sans-Serif" font-size="10.00">CCCC_Html_Stream::Put</text>
<text text-anchor="middle" x="378.5" y="-472.337" font-family="Helvetica,sans-Serif" font-size="10.00">_Extent_URL</text>
</a>
</g>
</g>
<!-- Node2&#45;&gt;Node6 -->
<g id="edge5" class="edge"><title>Node2&#45;&gt;Node6</title>
<path fill="none" stroke="midnightblue" d="M212.958,-257.936C221.782,-297.141 246.477,-386.109 298,-440.337 308.004,-450.866 321.38,-459.056 334.303,-465.205"/>
<polygon fill="midnightblue" stroke="midnightblue" points="216.36,-257.107 210.839,-248.064 209.516,-258.576 216.36,-257.107"/>
</g>
<!-- Node18 -->
<g id="node18" class="node"><title>Node18</title>
<g id="a_node18"><a xlink:href="../../d2/d92/classCCCC__Html__Stream.html#abc48ef802e86d097b606dda746f1dc39" target="_top" xlink:title="CCCC_Html_Stream::Separate\l_Modules">
<polygon fill="white" stroke="black" points="298,-286.337 298,-316.337 459,-316.337 459,-286.337 298,-286.337"/>
<text text-anchor="start" x="306" y="-304.337" font-family="Helvetica,sans-Serif" font-size="10.00">CCCC_Html_Stream::Separate</text>
<text text-anchor="middle" x="378.5" y="-293.337" font-family="Helvetica,sans-Serif" font-size="10.00">_Modules</text>
</a>
</g>
</g>
<!-- Node2&#45;&gt;Node18 -->
<g id="edge21" class="edge"><title>Node2&#45;&gt;Node18</title>
<path fill="none" stroke="midnightblue" d="M244.08,-251.453C271.22,-261.601 308.833,-275.664 337.207,-286.272"/>
<polygon fill="midnightblue" stroke="midnightblue" points="245.184,-248.129 234.592,-247.906 242.732,-254.686 245.184,-248.129"/>
</g>
<!-- Node19 -->
<g id="node19" class="node"><title>Node19</title>
<g id="a_node19"><a xlink:href="../../dc/d1e/classCCCC__Member.html#a22edd2264d9f7fb3f80fcf7269b624e1" target="_top" xlink:title="CCCC_Member::ToFile">
<polygon fill="white" stroke="black" points="316,-45.8373 316,-64.8373 441,-64.8373 441,-45.8373 316,-45.8373"/>
<text text-anchor="middle" x="378.5" y="-52.8373" font-family="Helvetica,sans-Serif" font-size="10.00">CCCC_Member::ToFile</text>
</a>
</g>
</g>
<!-- Node2&#45;&gt;Node19 -->
<g id="edge22" class="edge"><title>Node2&#45;&gt;Node19</title>
<path fill="none" stroke="midnightblue" d="M214.575,-218.886C225.184,-185.364 251.472,-116.72 298,-79.3373 305.867,-73.0162 315.376,-68.3576 325.041,-64.9248"/>
<polygon fill="midnightblue" stroke="midnightblue" points="211.118,-218.226 211.572,-228.811 217.818,-220.254 211.118,-218.226"/>
</g>
<!-- Node23 -->
<g id="node23" class="node"><title>Node23</title>
<g id="a_node23"><a xlink:href="../../dc/d1e/classCCCC__Member.html#a5b4510004fda956c909278337ae19236" target="_top" xlink:title="CCCC_Member::FromFile">
<polygon fill="white" stroke="black" points="310.5,-121.837 310.5,-140.837 446.5,-140.837 446.5,-121.837 310.5,-121.837"/>
<text text-anchor="middle" x="378.5" y="-128.837" font-family="Helvetica,sans-Serif" font-size="10.00">CCCC_Member::FromFile</text>
</a>
</g>
</g>
<!-- Node2&#45;&gt;Node23 -->
<g id="edge26" class="edge"><title>Node2&#45;&gt;Node23</title>
<path fill="none" stroke="midnightblue" d="M221.974,-220.62C237.692,-200.472 266.067,-168.081 298,-150.337 304.947,-146.477 312.658,-143.397 320.468,-140.94"/>
<polygon fill="midnightblue" stroke="midnightblue" points="219.119,-218.592 215.857,-228.673 224.693,-222.827 219.119,-218.592"/>
</g>
<!-- Node26 -->
<g id="node26" class="node"><title>Node26</title>
<g id="a_node26"><a xlink:href="../../d6/d9f/classCCCC__Module.html#ad1f26ab257c41657302b5c7b0253b034" target="_top" xlink:title="CCCC_Module::get_count">
<polygon fill="white" stroke="black" points="671,-274.837 671,-293.837 809,-293.837 809,-274.837 671,-274.837"/>
<text text-anchor="middle" x="740" y="-281.837" font-family="Helvetica,sans-Serif" font-size="10.00">CCCC_Module::get_count</text>
</a>
</g>
</g>
<!-- Node2&#45;&gt;Node26 -->
<g id="edge29" class="edge"><title>Node2&#45;&gt;Node26</title>
<path fill="none" stroke="midnightblue" d="M272.243,-243.826C372.605,-252.537 567.534,-269.455 670.872,-278.424"/>
<polygon fill="midnightblue" stroke="midnightblue" points="272.51,-240.336 262.245,-242.959 271.905,-247.31 272.51,-240.336"/>
</g>
<!-- Node31 -->
<g id="node31" class="node"><title>Node31</title>
<g id="a_node31"><a xlink:href="../../db/d8c/classCCCC__Xml__Stream.html#a221dc496f3d46314b700c1a3bb6e5e5c" target="_top" xlink:title="CCCC_Xml_Stream::Separate\l_Modules">
<polygon fill="white" stroke="black" points="1057,-100.337 1057,-130.337 1215,-130.337 1215,-100.337 1057,-100.337"/>
<text text-anchor="start" x="1065" y="-118.337" font-family="Helvetica,sans-Serif" font-size="10.00">CCCC_Xml_Stream::Separate</text>
<text text-anchor="middle" x="1136" y="-107.337" font-family="Helvetica,sans-Serif" font-size="10.00">_Modules</text>
</a>
</g>
</g>
<!-- Node2&#45;&gt;Node31 -->
<g id="edge45" class="edge"><title>Node2&#45;&gt;Node31</title>
<path fill="none" stroke="midnightblue" d="M216.256,-219.122C228.307,-190.218 255.422,-136.38 298,-112.337 399.855,-54.8225 443.528,-93.3373 560.5,-93.3373 560.5,-93.3373 560.5,-93.3373 741,-93.3373 850.786,-93.3373 977.513,-101.958 1056.95,-108.407"/>
<polygon fill="midnightblue" stroke="midnightblue" points="212.953,-217.957 212.497,-228.542 219.454,-220.551 212.953,-217.957"/>
</g>
<!-- Node32 -->
<g id="node32" class="node"><title>Node32</title>
<g id="a_node32"><a xlink:href="../../d6/d9f/classCCCC__Module.html#aa7d31814771b76de1477cc6c830000ec" target="_top" xlink:title="CCCC_Module::FromFile">
<polygon fill="white" stroke="black" points="312.5,-209.837 312.5,-228.837 444.5,-228.837 444.5,-209.837 312.5,-209.837"/>
<text text-anchor="middle" x="378.5" y="-216.837" font-family="Helvetica,sans-Serif" font-size="10.00">CCCC_Module::FromFile</text>
</a>
</g>
</g>
<!-- Node2&#45;&gt;Node32 -->
<g id="edge39" class="edge"><title>Node2&#45;&gt;Node32</title>
<path fill="none" stroke="midnightblue" d="M272.584,-231.168C285.609,-229.699 299.337,-228.151 312.414,-226.676"/>
<polygon fill="midnightblue" stroke="midnightblue" points="271.859,-227.727 262.314,-232.326 272.644,-234.683 271.859,-227.727"/>
</g>
<!-- Node33 -->
<g id="node33" class="node"><title>Node33</title>
<g id="a_node33"><a xlink:href="../../d4/d6e/classCCCC__Project.html#a9e618e858690b526180d7af22b0d48df" target="_top" xlink:title="CCCC_Project::reindex">
<polygon fill="white" stroke="black" points="499,-7.83727 499,-26.8373 624,-26.8373 624,-7.83727 499,-7.83727"/>
<text text-anchor="middle" x="561.5" y="-14.8373" font-family="Helvetica,sans-Serif" font-size="10.00">CCCC_Project::reindex</text>
</a>
</g>
</g>
<!-- Node2&#45;&gt;Node33 -->
<g id="edge41" class="edge"><title>Node2&#45;&gt;Node33</title>
<path fill="none" stroke="midnightblue" d="M211.097,-218.573C216.685,-176.847 236.026,-80.0244 298,-36.3373 362.982,9.46999 460.897,1.78554 516.957,-7.83715"/>
<polygon fill="midnightblue" stroke="midnightblue" points="207.613,-218.228 209.884,-228.577 214.562,-219.07 207.613,-218.228"/>
</g>
<!-- Node34 -->
<g id="node34" class="node"><title>Node34</title>
<g id="a_node34"><a xlink:href="../../d2/d65/classCCCC__UseRelationship.html#aa1b47ba57ddfff5db36294ab4d4631d5" target="_top" xlink:title="CCCC_UseRelationship\l::FromFile">
<polygon fill="white" stroke="black" points="313.5,-160.337 313.5,-190.337 443.5,-190.337 443.5,-160.337 313.5,-160.337"/>
<text text-anchor="start" x="321.5" y="-178.337" font-family="Helvetica,sans-Serif" font-size="10.00">CCCC_UseRelationship</text>
<text text-anchor="middle" x="378.5" y="-167.337" font-family="Helvetica,sans-Serif" font-size="10.00">::FromFile</text>
</a>
</g>
</g>
<!-- Node2&#45;&gt;Node34 -->
<g id="edge43" class="edge"><title>Node2&#45;&gt;Node34</title>
<path fill="none" stroke="midnightblue" d="M239.43,-224.461C256.485,-216.908 278.24,-207.642 298,-200.337 307.228,-196.926 317.163,-193.563 326.778,-190.463"/>
<polygon fill="midnightblue" stroke="midnightblue" points="237.685,-221.407 229.982,-228.682 240.54,-227.798 237.685,-221.407"/>
</g>
<!-- Node7 -->
<g id="node7" class="node"><title>Node7</title>
<g id="a_node7"><a xlink:href="../../d2/d92/classCCCC__Html__Stream.html#a9da417354e4d12217f7604be680f3398" target="_top" xlink:title="CCCC_Html_Stream::Put\l_Extent_Cell">
<polygon fill="white" stroke="black" points="495,-465.337 495,-495.337 628,-495.337 628,-465.337 495,-465.337"/>
<text text-anchor="start" x="503" y="-483.337" font-family="Helvetica,sans-Serif" font-size="10.00">CCCC_Html_Stream::Put</text>
<text text-anchor="middle" x="561.5" y="-472.337" font-family="Helvetica,sans-Serif" font-size="10.00">_Extent_Cell</text>
</a>
</g>
</g>
<!-- Node6&#45;&gt;Node7 -->
<g id="edge6" class="edge"><title>Node6&#45;&gt;Node7</title>
<path fill="none" stroke="midnightblue" d="M455.477,-480.337C468.552,-480.337 482.043,-480.337 494.819,-480.337"/>
<polygon fill="midnightblue" stroke="midnightblue" points="455.101,-476.837 445.101,-480.337 455.101,-483.837 455.101,-476.837"/>
</g>
<!-- Node10 -->
<g id="node10" class="node"><title>Node10</title>
<g id="a_node10"><a xlink:href="../../d2/d92/classCCCC__Html__Stream.html#a4cdc271c6f74c77b19dec08a3c8500db" target="_top" xlink:title="CCCC_Html_Stream::Put\l_Extent_List">
<polygon fill="white" stroke="black" points="495,-514.337 495,-544.337 628,-544.337 628,-514.337 495,-514.337"/>
<text text-anchor="start" x="503" y="-532.337" font-family="Helvetica,sans-Serif" font-size="10.00">CCCC_Html_Stream::Put</text>
<text text-anchor="middle" x="561.5" y="-521.337" font-family="Helvetica,sans-Serif" font-size="10.00">_Extent_List</text>
</a>
</g>
</g>
<!-- Node6&#45;&gt;Node10 -->
<g id="edge9" class="edge"><title>Node6&#45;&gt;Node10</title>
<path fill="none" stroke="midnightblue" d="M445.061,-498.086C464.677,-503.396 485.99,-509.166 504.901,-514.286"/>
<polygon fill="midnightblue" stroke="midnightblue" points="445.85,-494.674 435.283,-495.439 444.021,-501.43 445.85,-494.674"/>
</g>
<!-- Node8 -->
<g id="node8" class="node"><title>Node8</title>
<g id="a_node8"><a xlink:href="../../d2/d92/classCCCC__Html__Stream.html#a103e3cbe446ab2d5978e6a4741e00a63" target="_top" xlink:title="CCCC_Html_Stream::Other\l_Extents">
<polygon fill="white" stroke="black" points="864,-661.337 864,-691.337 1009,-691.337 1009,-661.337 864,-661.337"/>
<text text-anchor="start" x="872" y="-679.337" font-family="Helvetica,sans-Serif" font-size="10.00">CCCC_Html_Stream::Other</text>
<text text-anchor="middle" x="936.5" y="-668.337" font-family="Helvetica,sans-Serif" font-size="10.00">_Extents</text>
</a>
</g>
</g>
<!-- Node7&#45;&gt;Node8 -->
<g id="edge7" class="edge"><title>Node7&#45;&gt;Node8</title>
<path fill="none" stroke="midnightblue" d="M620.275,-500.129C622.968,-501.746 625.561,-503.48 628,-505.337 649.498,-521.711 643.486,-536.746 664,-554.337 735.529,-615.675 764.502,-617.369 852,-652.337 860.124,-655.584 868.852,-658.591 877.495,-661.301"/>
<polygon fill="midnightblue" stroke="midnightblue" points="621.863,-497.009 611.398,-495.356 618.548,-503.175 621.863,-497.009"/>
</g>
<!-- Node9 -->
<g id="node9" class="node"><title>Node9</title>
<g id="a_node9"><a xlink:href="../../d2/d92/classCCCC__Html__Stream.html#ae24c7515f1b41822c677e349a2eaecda" target="_top" xlink:title="CCCC_Html_Stream::Module\l_Detail">
<polygon fill="white" stroke="black" points="664,-465.337 664,-495.337 816,-495.337 816,-465.337 664,-465.337"/>
<text text-anchor="start" x="672" y="-483.337" font-family="Helvetica,sans-Serif" font-size="10.00">CCCC_Html_Stream::Module</text>
<text text-anchor="middle" x="740" y="-472.337" font-family="Helvetica,sans-Serif" font-size="10.00">_Detail</text>
</a>
</g>
</g>
<!-- Node7&#45;&gt;Node9 -->
<g id="edge8" class="edge"><title>Node7&#45;&gt;Node9</title>
<path fill="none" stroke="midnightblue" d="M638.369,-480.337C646.767,-480.337 655.317,-480.337 663.708,-480.337"/>
<polygon fill="midnightblue" stroke="midnightblue" points="638.222,-476.837 628.222,-480.337 638.222,-483.837 638.222,-476.837"/>
</g>
<!-- Node11 -->
<g id="node11" class="node"><title>Node11</title>
<g id="a_node11"><a xlink:href="../../d2/d92/classCCCC__Html__Stream.html#ab815f564805ca3e3fe9cabb5c2df79fa" target="_top" xlink:title="CCCC_Html_Stream::Put\l_Structural_Details_Cell">
<polygon fill="white" stroke="black" points="673.5,-681.337 673.5,-711.337 806.5,-711.337 806.5,-681.337 673.5,-681.337"/>
<text text-anchor="start" x="681.5" y="-699.337" font-family="Helvetica,sans-Serif" font-size="10.00">CCCC_Html_Stream::Put</text>
<text text-anchor="middle" x="740" y="-688.337" font-family="Helvetica,sans-Serif" font-size="10.00">_Structural_Details_Cell</text>
</a>
</g>
</g>
<!-- Node10&#45;&gt;Node11 -->
<g id="edge10" class="edge"><title>Node10&#45;&gt;Node11</title>
<path fill="none" stroke="midnightblue" d="M581.936,-552.309C601.661,-575.102 633.548,-610.552 664,-638.337 681.145,-653.98 702.155,-669.987 717.572,-681.21"/>
<polygon fill="midnightblue" stroke="midnightblue" points="584.416,-549.825 575.244,-544.521 579.107,-554.387 584.416,-549.825"/>
</g>
<!-- Node13 -->
<g id="node13" class="node"><title>Node13</title>
<g id="a_node13"><a xlink:href="../../d2/d92/classCCCC__Html__Stream.html#a11a4dc19838cdbfe33b6d2e7f8b5823a" target="_top" xlink:title="CCCC_Html_Stream::Put\l_Label_Cell">
<polygon fill="white" stroke="black" points="673.5,-514.337 673.5,-544.337 806.5,-544.337 806.5,-514.337 673.5,-514.337"/>
<text text-anchor="start" x="681.5" y="-532.337" font-family="Helvetica,sans-Serif" font-size="10.00">CCCC_Html_Stream::Put</text>
<text text-anchor="middle" x="740" y="-521.337" font-family="Helvetica,sans-Serif" font-size="10.00">_Label_Cell</text>
</a>
</g>
</g>
<!-- Node10&#45;&gt;Node13 -->
<g id="edge12" class="edge"><title>Node10&#45;&gt;Node13</title>
<path fill="none" stroke="midnightblue" d="M638.331,-529.337C649.945,-529.337 661.851,-529.337 673.223,-529.337"/>
<polygon fill="midnightblue" stroke="midnightblue" points="638.222,-525.837 628.222,-529.337 638.222,-532.837 638.222,-525.837"/>
</g>
<!-- Node12 -->
<g id="node12" class="node"><title>Node12</title>
<g id="a_node12"><a xlink:href="../../d2/d92/classCCCC__Html__Stream.html#af0091534327b225ee300640d7a5e0220" target="_top" xlink:title="CCCC_Html_Stream::Structural\l_Detail">
<polygon fill="white" stroke="black" points="855.5,-710.337 855.5,-740.337 1017.5,-740.337 1017.5,-710.337 855.5,-710.337"/>
<text text-anchor="start" x="863.5" y="-728.337" font-family="Helvetica,sans-Serif" font-size="10.00">CCCC_Html_Stream::Structural</text>
<text text-anchor="middle" x="936.5" y="-717.337" font-family="Helvetica,sans-Serif" font-size="10.00">_Detail</text>
</a>
</g>
</g>
<!-- Node11&#45;&gt;Node12 -->
<g id="edge11" class="edge"><title>Node11&#45;&gt;Node12</title>
<path fill="none" stroke="midnightblue" d="M816.634,-707.614C829.334,-709.508 842.553,-711.479 855.362,-713.389"/>
<polygon fill="midnightblue" stroke="midnightblue" points="816.985,-704.128 806.578,-706.115 815.952,-711.051 816.985,-704.128"/>
</g>
<!-- Node13&#45;&gt;Node3 -->
<g id="edge14" class="edge"><title>Node13&#45;&gt;Node3</title>
<path fill="none" stroke="midnightblue" d="M807.585,-509.733C810.515,-508.072 813.337,-506.276 816,-504.337 837.844,-488.428 829.827,-470.785 852,-455.337 857.322,-451.63 863.211,-448.49 869.328,-445.833"/>
<polygon fill="midnightblue" stroke="midnightblue" points="805.867,-506.68 798.532,-514.326 809.033,-512.923 805.867,-506.68"/>
</g>
<!-- Node13&#45;&gt;Node4 -->
<g id="edge15" class="edge"><title>Node13&#45;&gt;Node4</title>
<path fill="none" stroke="midnightblue" d="M811.329,-508.396C812.96,-507.122 814.522,-505.771 816,-504.337 849.304,-472.027 818.027,-437.943 852,-406.337 855.644,-402.947 859.737,-400.032 864.101,-397.526"/>
<polygon fill="midnightblue" stroke="midnightblue" points="809.063,-505.699 802.663,-514.142 812.932,-511.533 809.063,-505.699"/>
</g>
<!-- Node13&#45;&gt;Node5 -->
<g id="edge16" class="edge"><title>Node13&#45;&gt;Node5</title>
<path fill="none" stroke="midnightblue" d="M812.152,-508.088C813.499,-506.905 814.785,-505.656 816,-504.337 861.584,-454.874 805.391,-405.835 852,-357.337 855.24,-353.966 858.92,-351.059 862.885,-348.554"/>
<polygon fill="midnightblue" stroke="midnightblue" points="809.845,-505.439 803.844,-514.17 813.98,-511.087 809.845,-505.439"/>
</g>
<!-- Node13&#45;&gt;Node8 -->
<g id="edge19" class="edge"><title>Node13&#45;&gt;Node8</title>
<path fill="none" stroke="midnightblue" d="M762.223,-551.792C777.371,-567.932 798.142,-590.293 816,-610.337 832.355,-628.694 831.315,-639.049 852,-652.337 857.33,-655.761 863.159,-658.708 869.179,-661.241"/>
<polygon fill="midnightblue" stroke="midnightblue" points="764.676,-549.292 755.275,-544.405 759.577,-554.088 764.676,-549.292"/>
</g>
<!-- Node14 -->
<g id="node14" class="node"><title>Node14</title>
<g id="a_node14"><a xlink:href="../../d2/d92/classCCCC__Html__Stream.html#aa4d916f2e9fc42d4b7924e1544be92f6" target="_top" xlink:title="CCCC_Html_Stream::Project\l_Summary">
<polygon fill="white" stroke="black" points="861,-612.337 861,-642.337 1012,-642.337 1012,-612.337 861,-612.337"/>
<text text-anchor="start" x="869" y="-630.337" font-family="Helvetica,sans-Serif" font-size="10.00">CCCC_Html_Stream::Project</text>
<text text-anchor="middle" x="936.5" y="-619.337" font-family="Helvetica,sans-Serif" font-size="10.00">_Summary</text>
</a>
</g>
</g>
<!-- Node13&#45;&gt;Node14 -->
<g id="edge13" class="edge"><title>Node13&#45;&gt;Node14</title>
<path fill="none" stroke="midnightblue" d="M767.634,-550.526C789.292,-566.885 821.205,-589.067 852,-603.337 859.116,-606.635 866.787,-609.583 874.493,-612.188"/>
<polygon fill="midnightblue" stroke="midnightblue" points="769.643,-547.656 759.577,-544.351 765.385,-553.212 769.643,-547.656"/>
</g>
<!-- Node15 -->
<g id="node15" class="node"><title>Node15</title>
<g id="a_node15"><a xlink:href="../../d2/d92/classCCCC__Html__Stream.html#a0abac1d610545f3aac5c469074e98ee8" target="_top" xlink:title="CCCC_Html_Stream::Structural\l_Detail">
<polygon fill="white" stroke="black" points="855.5,-563.337 855.5,-593.337 1017.5,-593.337 1017.5,-563.337 855.5,-563.337"/>
<text text-anchor="start" x="863.5" y="-581.337" font-family="Helvetica,sans-Serif" font-size="10.00">CCCC_Html_Stream::Structural</text>
<text text-anchor="middle" x="936.5" y="-570.337" font-family="Helvetica,sans-Serif" font-size="10.00">_Detail</text>
</a>
</g>
</g>
<!-- Node13&#45;&gt;Node15 -->
<g id="edge17" class="edge"><title>Node13&#45;&gt;Node15</title>
<path fill="none" stroke="midnightblue" d="M810.662,-546.887C832.02,-552.268 855.315,-558.136 875.935,-563.331"/>
<polygon fill="midnightblue" stroke="midnightblue" points="811.23,-543.421 800.678,-544.372 809.52,-550.209 811.23,-543.421"/>
</g>
<!-- Node16 -->
<g id="node16" class="node"><title>Node16</title>
<g id="a_node16"><a xlink:href="../../d2/d92/classCCCC__Html__Stream.html#afe9cd530333567a8e6bfb38c6b586e81" target="_top" xlink:title="CCCC_Html_Stream::Procedural\l_Detail">
<polygon fill="white" stroke="black" points="852,-514.337 852,-544.337 1021,-544.337 1021,-514.337 852,-514.337"/>
<text text-anchor="start" x="860" y="-532.337" font-family="Helvetica,sans-Serif" font-size="10.00">CCCC_Html_Stream::Procedural</text>
<text text-anchor="middle" x="936.5" y="-521.337" font-family="Helvetica,sans-Serif" font-size="10.00">_Detail</text>
</a>
</g>
</g>
<!-- Node13&#45;&gt;Node16 -->
<g id="edge18" class="edge"><title>Node13&#45;&gt;Node16</title>
<path fill="none" stroke="midnightblue" d="M816.618,-529.337C828.19,-529.337 840.192,-529.337 851.923,-529.337"/>
<polygon fill="midnightblue" stroke="midnightblue" points="816.578,-525.837 806.578,-529.337 816.578,-532.837 816.578,-525.837"/>
</g>
<!-- Node17 -->
<g id="node17" class="node"><title>Node17</title>
<g id="a_node17"><a xlink:href="../../d2/d92/classCCCC__Html__Stream.html#a4ad244ddfbe8c7929b2dbdce4197bbc6" target="_top" xlink:title="CCCC_Html_Stream::Module\l_Summary">
<polygon fill="white" stroke="black" points="860.5,-465.337 860.5,-495.337 1012.5,-495.337 1012.5,-465.337 860.5,-465.337"/>
<text text-anchor="start" x="868.5" y="-483.337" font-family="Helvetica,sans-Serif" font-size="10.00">CCCC_Html_Stream::Module</text>
<text text-anchor="middle" x="936.5" y="-472.337" font-family="Helvetica,sans-Serif" font-size="10.00">_Summary</text>
</a>
</g>
</g>
<!-- Node13&#45;&gt;Node17 -->
<g id="edge20" class="edge"><title>Node13&#45;&gt;Node17</title>
<path fill="none" stroke="midnightblue" d="M810.662,-511.787C832.02,-506.407 855.315,-500.538 875.935,-495.343"/>
<polygon fill="midnightblue" stroke="midnightblue" points="809.52,-508.466 800.678,-514.303 811.23,-515.254 809.52,-508.466"/>
</g>
<!-- Node20 -->
<g id="node20" class="node"><title>Node20</title>
<g id="a_node20"><a xlink:href="../../d4/d6e/classCCCC__Project.html#ad2b4c25d24f7ed427c79bd9c7bd8a971" target="_top" xlink:title="CCCC_Project::ToFile">
<polygon fill="white" stroke="black" points="502,-45.8373 502,-64.8373 621,-64.8373 621,-45.8373 502,-45.8373"/>
<text text-anchor="middle" x="561.5" y="-52.8373" font-family="Helvetica,sans-Serif" font-size="10.00">CCCC_Project::ToFile</text>
</a>
</g>
</g>
<!-- Node19&#45;&gt;Node20 -->
<g id="edge23" class="edge"><title>Node19&#45;&gt;Node20</title>
<path fill="none" stroke="midnightblue" d="M451.336,-55.3373C468.107,-55.3373 485.773,-55.3373 501.891,-55.3373"/>
<polygon fill="midnightblue" stroke="midnightblue" points="451.031,-51.8374 441.031,-55.3373 451.031,-58.8374 451.031,-51.8374"/>
</g>
<!-- Node21 -->
<g id="node21" class="node"><title>Node21</title>
<g id="a_node21"><a xlink:href="../../db/d4a/classMain.html#a73e7ee7cdbee235ec767f6d66b595b5e" target="_top" xlink:title="Main::DumpDatabase">
<polygon fill="white" stroke="black" points="682,-45.8373 682,-64.8373 798,-64.8373 798,-45.8373 682,-45.8373"/>
<text text-anchor="middle" x="740" y="-52.8373" font-family="Helvetica,sans-Serif" font-size="10.00">Main::DumpDatabase</text>
</a>
</g>
</g>
<!-- Node20&#45;&gt;Node21 -->
<g id="edge24" class="edge"><title>Node20&#45;&gt;Node21</title>
<path fill="none" stroke="midnightblue" d="M631.525,-55.3373C648.23,-55.3373 665.901,-55.3373 681.983,-55.3373"/>
<polygon fill="midnightblue" stroke="midnightblue" points="631.272,-51.8374 621.272,-55.3373 631.272,-58.8374 631.272,-51.8374"/>
</g>
<!-- Node22 -->
<g id="node22" class="node"><title>Node22</title>
<g id="a_node22"><a xlink:href="../../d6/d93/ccccmain_8cc.html#a3c04138a5bfe5d72780bb7e82a18e627" target="_top" xlink:title="main">
<polygon fill="white" stroke="black" points="917,-26.8373 917,-45.8373 956,-45.8373 956,-26.8373 917,-26.8373"/>
<text text-anchor="middle" x="936.5" y="-33.8373" font-family="Helvetica,sans-Serif" font-size="10.00">main</text>
</a>
</g>
</g>
<!-- Node21&#45;&gt;Node22 -->
<g id="edge25" class="edge"><title>Node21&#45;&gt;Node22</title>
<path fill="none" stroke="midnightblue" d="M808.122,-48.7803C846.412,-45.0399 891.616,-40.6241 916.565,-38.1869"/>
<polygon fill="midnightblue" stroke="midnightblue" points="807.655,-45.3093 798.042,-49.765 808.335,-52.2761 807.655,-45.3093"/>
</g>
<!-- Node24 -->
<g id="node24" class="node"><title>Node24</title>
<g id="a_node24"><a xlink:href="../../d4/d6e/classCCCC__Project.html#a189af779423cacf2ee6cbb9f738392cc" target="_top" xlink:title="CCCC_Project::FromFile">
<polygon fill="white" stroke="black" points="496,-165.837 496,-184.837 627,-184.837 627,-165.837 496,-165.837"/>
<text text-anchor="middle" x="561.5" y="-172.837" font-family="Helvetica,sans-Serif" font-size="10.00">CCCC_Project::FromFile</text>
</a>
</g>
</g>
<!-- Node23&#45;&gt;Node24 -->
<g id="edge27" class="edge"><title>Node23&#45;&gt;Node24</title>
<path fill="none" stroke="midnightblue" d="M429.545,-143.242C439.316,-145.582 449.481,-148.028 459,-150.337 479.811,-155.387 503.002,-161.093 521.957,-165.778"/>
<polygon fill="midnightblue" stroke="midnightblue" points="430.089,-139.773 419.549,-140.852 428.461,-146.582 430.089,-139.773"/>
</g>
<!-- Node25 -->
<g id="node25" class="node"><title>Node25</title>
<g id="a_node25"><a xlink:href="../../db/d4a/classMain.html#a13105815f91cc705481ca62c1e3ff562" target="_top" xlink:title="Main::LoadDatabase">
<polygon fill="white" stroke="black" points="683.5,-165.837 683.5,-184.837 796.5,-184.837 796.5,-165.837 683.5,-165.837"/>
<text text-anchor="middle" x="740" y="-172.837" font-family="Helvetica,sans-Serif" font-size="10.00">Main::LoadDatabase</text>
</a>
</g>
</g>
<!-- Node24&#45;&gt;Node25 -->
<g id="edge28" class="edge"><title>Node24&#45;&gt;Node25</title>
<path fill="none" stroke="midnightblue" d="M637.26,-175.337C652.692,-175.337 668.688,-175.337 683.3,-175.337"/>
<polygon fill="midnightblue" stroke="midnightblue" points="637.22,-171.837 627.22,-175.337 637.22,-178.837 637.22,-171.837"/>
</g>
<!-- Node26&#45;&gt;Node3 -->
<g id="edge30" class="edge"><title>Node26&#45;&gt;Node3</title>
<path fill="none" stroke="midnightblue" d="M752.528,-302.247C770.566,-328.851 807.992,-378.64 852,-406.337 858.147,-410.206 864.925,-413.503 871.88,-416.307"/>
<polygon fill="midnightblue" stroke="midnightblue" points="755.421,-300.277 746.977,-293.878 749.588,-304.146 755.421,-300.277"/>
</g>
<!-- Node26&#45;&gt;Node4 -->
<g id="edge31" class="edge"><title>Node26&#45;&gt;Node4</title>
<path fill="none" stroke="midnightblue" d="M760.972,-300.07C782.419,-316.323 818.011,-341.488 852,-357.337 859.954,-361.046 868.591,-364.358 877.191,-367.262"/>
<polygon fill="midnightblue" stroke="midnightblue" points="763.016,-297.226 752.954,-293.907 758.75,-302.776 763.016,-297.226"/>
</g>
<!-- Node26&#45;&gt;Node5 -->
<g id="edge32" class="edge"><title>Node26&#45;&gt;Node5</title>
<path fill="none" stroke="midnightblue" d="M788.689,-296.351C814.97,-302.972 847.84,-311.253 875.812,-318.3"/>
<polygon fill="midnightblue" stroke="midnightblue" points="789.515,-292.95 778.963,-293.901 787.805,-299.738 789.515,-292.95"/>
</g>
<!-- Node26&#45;&gt;Node17 -->
<g id="edge33" class="edge"><title>Node26&#45;&gt;Node17</title>
<path fill="none" stroke="midnightblue" d="M748.321,-303.85C762.657,-339.394 797.835,-414.758 852,-455.337 857.208,-459.239 863.022,-462.535 869.091,-465.319"/>
<polygon fill="midnightblue" stroke="midnightblue" points="751.442,-302.221 744.543,-294.18 744.922,-304.768 751.442,-302.221"/>
</g>
<!-- Node27 -->
<g id="node27" class="node"><title>Node27</title>
<g id="a_node27"><a xlink:href="../../db/d8c/classCCCC__Xml__Stream.html#a261ad7db353c63e8f2ecc43dd120c35b" target="_top" xlink:title="CCCC_Xml_Stream::OO\l_Design">
<polygon fill="white" stroke="black" points="871,-220.337 871,-250.337 1002,-250.337 1002,-220.337 871,-220.337"/>
<text text-anchor="start" x="879" y="-238.337" font-family="Helvetica,sans-Serif" font-size="10.00">CCCC_Xml_Stream::OO</text>
<text text-anchor="middle" x="936.5" y="-227.337" font-family="Helvetica,sans-Serif" font-size="10.00">_Design</text>
</a>
</g>
</g>
<!-- Node26&#45;&gt;Node27 -->
<g id="edge34" class="edge"><title>Node26&#45;&gt;Node27</title>
<path fill="none" stroke="midnightblue" d="M788.689,-272.323C814.97,-265.702 847.84,-257.421 875.812,-250.374"/>
<polygon fill="midnightblue" stroke="midnightblue" points="787.805,-268.936 778.963,-274.773 789.515,-275.724 787.805,-268.936"/>
</g>
<!-- Node28 -->
<g id="node28" class="node"><title>Node28</title>
<g id="a_node28"><a xlink:href="../../db/d8c/classCCCC__Xml__Stream.html#af8659ea64595d693d4b3a78f2620b379" target="_top" xlink:title="CCCC_Xml_Stream::Procedural\l_Summary">
<polygon fill="white" stroke="black" points="854,-171.337 854,-201.337 1019,-201.337 1019,-171.337 854,-171.337"/>
<text text-anchor="start" x="862" y="-189.337" font-family="Helvetica,sans-Serif" font-size="10.00">CCCC_Xml_Stream::Procedural</text>
<text text-anchor="middle" x="936.5" y="-178.337" font-family="Helvetica,sans-Serif" font-size="10.00">_Summary</text>
</a>
</g>
</g>
<!-- Node26&#45;&gt;Node28 -->
<g id="edge35" class="edge"><title>Node26&#45;&gt;Node28</title>
<path fill="none" stroke="midnightblue" d="M760.555,-268.564C781.904,-252.02 817.647,-226.256 852,-210.337 859.116,-207.04 866.787,-204.091 874.493,-201.487"/>
<polygon fill="midnightblue" stroke="midnightblue" points="758.288,-265.894 752.592,-274.827 762.616,-271.396 758.288,-265.894"/>
</g>
<!-- Node29 -->
<g id="node29" class="node"><title>Node29</title>
<g id="a_node29"><a xlink:href="../../db/d8c/classCCCC__Xml__Stream.html#a8e9d1d8c0d2645f1af6df568e58cd175" target="_top" xlink:title="CCCC_Xml_Stream::Structural\l_Summary">
<polygon fill="white" stroke="black" points="857.5,-269.337 857.5,-299.337 1015.5,-299.337 1015.5,-269.337 857.5,-269.337"/>
<text text-anchor="start" x="865.5" y="-287.337" font-family="Helvetica,sans-Serif" font-size="10.00">CCCC_Xml_Stream::Structural</text>
<text text-anchor="middle" x="936.5" y="-276.337" font-family="Helvetica,sans-Serif" font-size="10.00">_Summary</text>
</a>
</g>
</g>
<!-- Node26&#45;&gt;Node29 -->
<g id="edge36" class="edge"><title>Node26&#45;&gt;Node29</title>
<path fill="none" stroke="midnightblue" d="M819.374,-284.337C831.835,-284.337 844.727,-284.337 857.186,-284.337"/>
<polygon fill="midnightblue" stroke="midnightblue" points="819.027,-280.837 809.027,-284.337 819.027,-287.837 819.027,-280.837"/>
</g>
<!-- Node30 -->
<g id="node30" class="node"><title>Node30</title>
<g id="a_node30"><a xlink:href="../../db/d8c/classCCCC__Xml__Stream.html#a86b2358b95c828fd96da2ba14ca458d0" target="_top" xlink:title="CCCC_Xml_Stream::Module\l_Summary">
<polygon fill="white" stroke="black" points="862,-122.337 862,-152.337 1011,-152.337 1011,-122.337 862,-122.337"/>
<text text-anchor="start" x="870" y="-140.337" font-family="Helvetica,sans-Serif" font-size="10.00">CCCC_Xml_Stream::Module</text>
<text text-anchor="middle" x="936.5" y="-129.337" font-family="Helvetica,sans-Serif" font-size="10.00">_Summary</text>
</a>
</g>
</g>
<!-- Node26&#45;&gt;Node30 -->
<g id="edge37" class="edge"><title>Node26&#45;&gt;Node30</title>
<path fill="none" stroke="midnightblue" d="M754.972,-266.582C779.267,-236.115 828.907,-175.76 852,-161.337 857.501,-157.902 863.51,-154.943 869.701,-152.398"/>
<polygon fill="midnightblue" stroke="midnightblue" points="752.039,-264.647 748.568,-274.657 757.523,-268.997 752.039,-264.647"/>
</g>
<!-- Node30&#45;&gt;Node31 -->
<g id="edge38" class="edge"><title>Node30&#45;&gt;Node31</title>
<path fill="none" stroke="midnightblue" d="M1021.29,-128.004C1033.05,-126.693 1045.11,-125.35 1056.77,-124.052"/>
<polygon fill="midnightblue" stroke="midnightblue" points="1020.59,-124.56 1011.04,-129.145 1021.37,-131.517 1020.59,-124.56"/>
</g>
<!-- Node32&#45;&gt;Node24 -->
<g id="edge40" class="edge"><title>Node32&#45;&gt;Node24</title>
<path fill="none" stroke="midnightblue" d="M428.736,-207.368C457.829,-200.296 494.162,-191.464 521.302,-184.866"/>
<polygon fill="midnightblue" stroke="midnightblue" points="427.665,-204.027 418.774,-209.79 429.318,-210.829 427.665,-204.027"/>
</g>
<!-- Node33&#45;&gt;Node22 -->
<g id="edge42" class="edge"><title>Node33&#45;&gt;Node22</title>
<path fill="none" stroke="midnightblue" d="M634.28,-20.9936C722.328,-25.4786 866.155,-32.8049 916.991,-35.3944"/>
<polygon fill="midnightblue" stroke="midnightblue" points="634.259,-17.4881 624.093,-20.4747 633.902,-24.479 634.259,-17.4881"/>
</g>
<!-- Node34&#45;&gt;Node24 -->
<g id="edge44" class="edge"><title>Node34&#45;&gt;Node24</title>
<path fill="none" stroke="midnightblue" d="M453.655,-175.337C467.667,-175.337 482.219,-175.337 495.907,-175.337"/>
<polygon fill="midnightblue" stroke="midnightblue" points="453.569,-171.837 443.569,-175.337 453.569,-178.837 453.569,-171.837"/>
</g>
</g>
</svg>
