<?xml version="1.0" encoding="UTF-8" standalone="no"?>
<!DOCTYPE svg PUBLIC "-//W3C//DTD SVG 1.1//EN"
 "http://www.w3.org/Graphics/SVG/1.1/DTD/svg11.dtd">
<!-- Generated by graphviz version 2.38.0 (20140413.2041)
 -->
<!-- Title: CCCC_Record::set_active_project Pages: 1 -->
<svg width="464pt" height="66pt"
 viewBox="0.00 0.00 464.00 66.00" xmlns="http://www.w3.org/2000/svg" xmlns:xlink="http://www.w3.org/1999/xlink">
<g id="graph0" class="graph" transform="scale(1 1) rotate(0) translate(4 62)">
<title>CCCC_Record::set_active_project</title>
<polygon fill="white" stroke="none" points="-4,4 -4,-62 460,-62 460,4 -4,4"/>
<!-- Node1 -->
<g id="node1" class="node"><title>Node1</title>
<polygon fill="#bfbfbf" stroke="black" points="0,-14 0,-44 140,-44 140,-14 0,-14"/>
<text text-anchor="start" x="8" y="-32" font-family="Helvetica,sans-Serif" font-size="10.00">CCCC_Record::set_active</text>
<text text-anchor="middle" x="70" y="-21" font-family="Helvetica,sans-Serif" font-size="10.00">_project</text>
</g>
<!-- Node2 -->
<g id="node2" class="node"><title>Node2</title>
<g id="a_node2"><a xlink:href="../../d4/d6e/classCCCC__Project.html#a189af779423cacf2ee6cbb9f738392cc" target="_top" xlink:title="CCCC_Project::FromFile">
<polygon fill="white" stroke="black" points="176,-38.5 176,-57.5 307,-57.5 307,-38.5 176,-38.5"/>
<text text-anchor="middle" x="241.5" y="-45.5" font-family="Helvetica,sans-Serif" font-size="10.00">CCCC_Project::FromFile</text>
</a>
</g>
</g>
<!-- Node1&#45;&gt;Node2 -->
<g id="edge1" class="edge"><title>Node1&#45;&gt;Node2</title>
<path fill="none" stroke="midnightblue" d="M150.38,-37.8981C158.901,-38.8532 167.495,-39.8165 175.815,-40.7492"/>
<polygon fill="midnightblue" stroke="midnightblue" points="150.759,-34.4187 140.431,-36.7828 149.979,-41.3751 150.759,-34.4187"/>
</g>
<!-- Node4 -->
<g id="node4" class="node"><title>Node4</title>
<g id="a_node4"><a xlink:href="../../d6/d93/ccccmain_8cc.html#a3c04138a5bfe5d72780bb7e82a18e627" target="_top" xlink:title="main">
<polygon fill="white" stroke="black" points="222,-0.5 222,-19.5 261,-19.5 261,-0.5 222,-0.5"/>
<text text-anchor="middle" x="241.5" y="-7.5" font-family="Helvetica,sans-Serif" font-size="10.00">main</text>
</a>
</g>
</g>
<!-- Node1&#45;&gt;Node4 -->
<g id="edge3" class="edge"><title>Node1&#45;&gt;Node4</title>
<path fill="none" stroke="midnightblue" d="M150.575,-20.08C177.188,-17.0969 204.484,-14.0372 221.914,-12.0834"/>
<polygon fill="midnightblue" stroke="midnightblue" points="149.979,-16.6249 140.431,-21.2172 150.759,-23.5813 149.979,-16.6249"/>
</g>
<!-- Node3 -->
<g id="node3" class="node"><title>Node3</title>
<g id="a_node3"><a xlink:href="../../db/d4a/classMain.html#a13105815f91cc705481ca62c1e3ff562" target="_top" xlink:title="Main::LoadDatabase">
<polygon fill="white" stroke="black" points="343,-38.5 343,-57.5 456,-57.5 456,-38.5 343,-38.5"/>
<text text-anchor="middle" x="399.5" y="-45.5" font-family="Helvetica,sans-Serif" font-size="10.00">Main::LoadDatabase</text>
</a>
</g>
</g>
<!-- Node2&#45;&gt;Node3 -->
<g id="edge2" class="edge"><title>Node2&#45;&gt;Node3</title>
<path fill="none" stroke="midnightblue" d="M317.542,-48C325.977,-48 334.458,-48 342.59,-48"/>
<polygon fill="midnightblue" stroke="midnightblue" points="317.303,-44.5001 307.303,-48 317.303,-51.5001 317.303,-44.5001"/>
</g>
</g>
</svg>
