<?xml version="1.0" encoding="UTF-8" standalone="no"?>
<!DOCTYPE svg PUBLIC "-//W3C//DTD SVG 1.1//EN"
 "http://www.w3.org/Graphics/SVG/1.1/DTD/svg11.dtd">
<!-- Generated by graphviz version 2.38.0 (20140413.2041)
 -->
<!-- Title: CCCC_Metric::emphasis_level Pages: 1 -->
<svg width="707pt" height="872pt"
 viewBox="0.00 0.00 707.00 872.00" xmlns="http://www.w3.org/2000/svg" xmlns:xlink="http://www.w3.org/1999/xlink">
<g id="graph0" class="graph" transform="scale(1 1) rotate(0) translate(4 868)">
<title>CCCC_Metric::emphasis_level</title>
<polygon fill="white" stroke="none" points="-4,4 -4,-868 703,-868 703,4 -4,4"/>
<!-- Node1 -->
<g id="node1" class="node"><title>Node1</title>
<polygon fill="#bfbfbf" stroke="black" points="0,-416.5 0,-446.5 131,-446.5 131,-416.5 0,-416.5"/>
<text text-anchor="start" x="8" y="-434.5" font-family="Helvetica,sans-Serif" font-size="10.00">CCCC_Metric::emphasis</text>
<text text-anchor="middle" x="65.5" y="-423.5" font-family="Helvetica,sans-Serif" font-size="10.00">_level</text>
</g>
<!-- Node2 -->
<g id="node2" class="node"><title>Node2</title>
<g id="a_node2"><a xlink:href="../../d2/d92/classCCCC__Html__Stream.html#aba7d2e72e94a320608c67b73aebcd728" target="_top" xlink:title="CCCC_Html_Stream::Put\l_Metric_Cell">
<polygon fill="white" stroke="black" points="167,-612.5 167,-642.5 300,-642.5 300,-612.5 167,-612.5"/>
<text text-anchor="start" x="175" y="-630.5" font-family="Helvetica,sans-Serif" font-size="10.00">CCCC_Html_Stream::Put</text>
<text text-anchor="middle" x="233.5" y="-619.5" font-family="Helvetica,sans-Serif" font-size="10.00">_Metric_Cell</text>
</a>
</g>
</g>
<!-- Node1&#45;&gt;Node2 -->
<g id="edge1" class="edge"><title>Node1&#45;&gt;Node2</title>
<path fill="none" stroke="midnightblue" d="M85.7939,-454.281C120.085,-494.769 190.757,-578.213 219.706,-612.394"/>
<polygon fill="midnightblue" stroke="midnightblue" points="88.3839,-451.923 79.2501,-446.554 83.0422,-456.447 88.3839,-451.923"/>
</g>
<!-- Node12 -->
<g id="node12" class="node"><title>Node12</title>
<g id="a_node12"><a xlink:href="../../d9/db9/cccc__htm_8h.html#aa174e5c6a0ec5a0f0cdd9ce6a381de94" target="_top" xlink:title="operator\&lt;\&lt;">
<polygon fill="white" stroke="black" points="199,-422 199,-441 268,-441 268,-422 199,-422"/>
<text text-anchor="middle" x="233.5" y="-429" font-family="Helvetica,sans-Serif" font-size="10.00">operator&lt;&lt;</text>
</a>
</g>
</g>
<!-- Node1&#45;&gt;Node12 -->
<g id="edge11" class="edge"><title>Node1&#45;&gt;Node12</title>
<path fill="none" stroke="midnightblue" d="M141.283,-431.5C161.422,-431.5 182.211,-431.5 198.848,-431.5"/>
<polygon fill="midnightblue" stroke="midnightblue" points="141.155,-428 131.155,-431.5 141.155,-435 141.155,-428"/>
</g>
<!-- Node13 -->
<g id="node13" class="node"><title>Node13</title>
<g id="a_node13"><a xlink:href="../../db/d8c/classCCCC__Xml__Stream.html#a618ba6784d7300949e73cf61693d4388" target="_top" xlink:title="CCCC_Xml_Stream::Put\l_Metric_Node">
<polygon fill="white" stroke="black" points="169,-220.5 169,-250.5 298,-250.5 298,-220.5 169,-220.5"/>
<text text-anchor="start" x="177" y="-238.5" font-family="Helvetica,sans-Serif" font-size="10.00">CCCC_Xml_Stream::Put</text>
<text text-anchor="middle" x="233.5" y="-227.5" font-family="Helvetica,sans-Serif" font-size="10.00">_Metric_Node</text>
</a>
</g>
</g>
<!-- Node1&#45;&gt;Node13 -->
<g id="edge12" class="edge"><title>Node1&#45;&gt;Node13</title>
<path fill="none" stroke="midnightblue" d="M85.7939,-408.719C120.085,-368.231 190.757,-284.787 219.706,-250.606"/>
<polygon fill="midnightblue" stroke="midnightblue" points="83.0422,-406.553 79.2501,-416.446 88.3839,-411.077 83.0422,-406.553"/>
</g>
<!-- Node3 -->
<g id="node3" class="node"><title>Node3</title>
<g id="a_node3"><a xlink:href="../../d2/d92/classCCCC__Html__Stream.html#aa4d916f2e9fc42d4b7924e1544be92f6" target="_top" xlink:title="CCCC_Html_Stream::Project\l_Summary">
<polygon fill="white" stroke="black" points="345,-833.5 345,-863.5 496,-863.5 496,-833.5 345,-833.5"/>
<text text-anchor="start" x="353" y="-851.5" font-family="Helvetica,sans-Serif" font-size="10.00">CCCC_Html_Stream::Project</text>
<text text-anchor="middle" x="420.5" y="-840.5" font-family="Helvetica,sans-Serif" font-size="10.00">_Summary</text>
</a>
</g>
</g>
<!-- Node2&#45;&gt;Node3 -->
<g id="edge2" class="edge"><title>Node2&#45;&gt;Node3</title>
<path fill="none" stroke="midnightblue" d="M240.491,-652.632C251.805,-694.589 280.335,-778.795 336,-824.5 340.197,-827.946 344.864,-830.897 349.787,-833.425"/>
<polygon fill="midnightblue" stroke="midnightblue" points="243.812,-651.495 237.921,-642.689 237.034,-653.246 243.812,-651.495"/>
</g>
<!-- Node4 -->
<g id="node4" class="node"><title>Node4</title>
<g id="a_node4"><a xlink:href="../../d2/d92/classCCCC__Html__Stream.html#a81d206c53e52cd62d445beb809c3d215" target="_top" xlink:title="CCCC_Html_Stream::OO\l_Design">
<polygon fill="white" stroke="black" points="353.5,-784.5 353.5,-814.5 487.5,-814.5 487.5,-784.5 353.5,-784.5"/>
<text text-anchor="start" x="361.5" y="-802.5" font-family="Helvetica,sans-Serif" font-size="10.00">CCCC_Html_Stream::OO</text>
<text text-anchor="middle" x="420.5" y="-791.5" font-family="Helvetica,sans-Serif" font-size="10.00">_Design</text>
</a>
</g>
</g>
<!-- Node2&#45;&gt;Node4 -->
<g id="edge3" class="edge"><title>Node2&#45;&gt;Node4</title>
<path fill="none" stroke="midnightblue" d="M244.825,-652.026C259.972,-685.027 291.342,-743.295 336,-775.5 341.261,-779.294 347.11,-782.49 353.202,-785.183"/>
<polygon fill="midnightblue" stroke="midnightblue" points="247.916,-650.362 240.649,-642.652 241.522,-653.211 247.916,-650.362"/>
</g>
<!-- Node5 -->
<g id="node5" class="node"><title>Node5</title>
<g id="a_node5"><a xlink:href="../../d2/d92/classCCCC__Html__Stream.html#a872d57e3b8d177d0fcc532237b53e6fe" target="_top" xlink:title="CCCC_Html_Stream::Procedural\l_Summary">
<polygon fill="white" stroke="black" points="336,-735.5 336,-765.5 505,-765.5 505,-735.5 336,-735.5"/>
<text text-anchor="start" x="344" y="-753.5" font-family="Helvetica,sans-Serif" font-size="10.00">CCCC_Html_Stream::Procedural</text>
<text text-anchor="middle" x="420.5" y="-742.5" font-family="Helvetica,sans-Serif" font-size="10.00">_Summary</text>
</a>
</g>
</g>
<!-- Node2&#45;&gt;Node5 -->
<g id="edge4" class="edge"><title>Node2&#45;&gt;Node5</title>
<path fill="none" stroke="midnightblue" d="M252.385,-650.641C270.964,-673.152 302.03,-706.76 336,-726.5 341.869,-729.91 348.254,-732.863 354.794,-735.414"/>
<polygon fill="midnightblue" stroke="midnightblue" points="254.903,-648.188 245.896,-642.609 249.458,-652.587 254.903,-648.188"/>
</g>
<!-- Node6 -->
<g id="node6" class="node"><title>Node6</title>
<g id="a_node6"><a xlink:href="../../d2/d92/classCCCC__Html__Stream.html#a0dbb99417ffc369edc76114cc2455ee2" target="_top" xlink:title="CCCC_Html_Stream::Structural\l_Summary">
<polygon fill="white" stroke="black" points="339.5,-686.5 339.5,-716.5 501.5,-716.5 501.5,-686.5 339.5,-686.5"/>
<text text-anchor="start" x="347.5" y="-704.5" font-family="Helvetica,sans-Serif" font-size="10.00">CCCC_Html_Stream::Structural</text>
<text text-anchor="middle" x="420.5" y="-693.5" font-family="Helvetica,sans-Serif" font-size="10.00">_Summary</text>
</a>
</g>
</g>
<!-- Node2&#45;&gt;Node6 -->
<g id="edge5" class="edge"><title>Node2&#45;&gt;Node6</title>
<path fill="none" stroke="midnightblue" d="M270.832,-647.358C289.874,-657.26 313.798,-668.919 336,-677.5 344.301,-680.708 353.211,-683.712 362.008,-686.436"/>
<polygon fill="midnightblue" stroke="midnightblue" points="272.384,-644.22 261.905,-642.66 269.124,-650.415 272.384,-644.22"/>
</g>
<!-- Node7 -->
<g id="node7" class="node"><title>Node7</title>
<g id="a_node7"><a xlink:href="../../d2/d92/classCCCC__Html__Stream.html#a103e3cbe446ab2d5978e6a4741e00a63" target="_top" xlink:title="CCCC_Html_Stream::Other\l_Extents">
<polygon fill="white" stroke="black" points="348,-637.5 348,-667.5 493,-667.5 493,-637.5 348,-637.5"/>
<text text-anchor="start" x="356" y="-655.5" font-family="Helvetica,sans-Serif" font-size="10.00">CCCC_Html_Stream::Other</text>
<text text-anchor="middle" x="420.5" y="-644.5" font-family="Helvetica,sans-Serif" font-size="10.00">_Extents</text>
</a>
</g>
</g>
<!-- Node2&#45;&gt;Node7 -->
<g id="edge6" class="edge"><title>Node2&#45;&gt;Node7</title>
<path fill="none" stroke="midnightblue" d="M310.467,-637.766C322.772,-639.429 335.482,-641.146 347.685,-642.795"/>
<polygon fill="midnightblue" stroke="midnightblue" points="310.624,-634.255 300.245,-636.384 309.686,-641.192 310.624,-634.255"/>
</g>
<!-- Node8 -->
<g id="node8" class="node"><title>Node8</title>
<g id="a_node8"><a xlink:href="../../d2/d92/classCCCC__Html__Stream.html#a28711bf01fa4c6113f850773dc563c12" target="_top" xlink:title="CCCC_Html_Stream::Put\l_Metric_Cell">
<polygon fill="white" stroke="black" points="354,-588.5 354,-618.5 487,-618.5 487,-588.5 354,-588.5"/>
<text text-anchor="start" x="362" y="-606.5" font-family="Helvetica,sans-Serif" font-size="10.00">CCCC_Html_Stream::Put</text>
<text text-anchor="middle" x="420.5" y="-595.5" font-family="Helvetica,sans-Serif" font-size="10.00">_Metric_Cell</text>
</a>
</g>
</g>
<!-- Node2&#45;&gt;Node8 -->
<g id="edge7" class="edge"><title>Node2&#45;&gt;Node8</title>
<path fill="none" stroke="midnightblue" d="M310.188,-617.681C324.708,-615.797 339.8,-613.84 353.967,-612.002"/>
<polygon fill="midnightblue" stroke="midnightblue" points="309.712,-614.213 300.245,-618.971 310.612,-621.155 309.712,-614.213"/>
</g>
<!-- Node9 -->
<g id="node9" class="node"><title>Node9</title>
<g id="a_node9"><a xlink:href="../../d2/d92/classCCCC__Html__Stream.html#ae24c7515f1b41822c677e349a2eaecda" target="_top" xlink:title="CCCC_Html_Stream::Module\l_Detail">
<polygon fill="white" stroke="black" points="344.5,-539.5 344.5,-569.5 496.5,-569.5 496.5,-539.5 344.5,-539.5"/>
<text text-anchor="start" x="352.5" y="-557.5" font-family="Helvetica,sans-Serif" font-size="10.00">CCCC_Html_Stream::Module</text>
<text text-anchor="middle" x="420.5" y="-546.5" font-family="Helvetica,sans-Serif" font-size="10.00">_Detail</text>
</a>
</g>
</g>
<!-- Node2&#45;&gt;Node9 -->
<g id="edge8" class="edge"><title>Node2&#45;&gt;Node9</title>
<path fill="none" stroke="midnightblue" d="M272.438,-607.888C291.26,-598.591 314.515,-587.743 336,-579.5 345.183,-575.977 355.086,-572.631 364.752,-569.6"/>
<polygon fill="midnightblue" stroke="midnightblue" points="270.69,-604.849 263.307,-612.448 273.817,-611.112 270.69,-604.849"/>
</g>
<!-- Node10 -->
<g id="node10" class="node"><title>Node10</title>
<g id="a_node10"><a xlink:href="../../d2/d92/classCCCC__Html__Stream.html#a53accb88e6190e384cf10d3572bfc33b" target="_top" xlink:title="CCCC_Html_Stream::Procedural\l_Detail">
<polygon fill="white" stroke="black" points="336,-490.5 336,-520.5 505,-520.5 505,-490.5 336,-490.5"/>
<text text-anchor="start" x="344" y="-508.5" font-family="Helvetica,sans-Serif" font-size="10.00">CCCC_Html_Stream::Procedural</text>
<text text-anchor="middle" x="420.5" y="-497.5" font-family="Helvetica,sans-Serif" font-size="10.00">_Detail</text>
</a>
</g>
</g>
<!-- Node2&#45;&gt;Node10 -->
<g id="edge9" class="edge"><title>Node2&#45;&gt;Node10</title>
<path fill="none" stroke="midnightblue" d="M252.843,-604.552C271.567,-582.571 302.558,-549.952 336,-530.5 342.54,-526.696 349.711,-523.424 357.016,-520.622"/>
<polygon fill="midnightblue" stroke="midnightblue" points="250.008,-602.486 246.288,-612.406 255.383,-606.971 250.008,-602.486"/>
</g>
<!-- Node11 -->
<g id="node11" class="node"><title>Node11</title>
<g id="a_node11"><a xlink:href="../../d2/d92/classCCCC__Html__Stream.html#a4ad244ddfbe8c7929b2dbdce4197bbc6" target="_top" xlink:title="CCCC_Html_Stream::Module\l_Summary">
<polygon fill="white" stroke="black" points="344.5,-441.5 344.5,-471.5 496.5,-471.5 496.5,-441.5 344.5,-441.5"/>
<text text-anchor="start" x="352.5" y="-459.5" font-family="Helvetica,sans-Serif" font-size="10.00">CCCC_Html_Stream::Module</text>
<text text-anchor="middle" x="420.5" y="-448.5" font-family="Helvetica,sans-Serif" font-size="10.00">_Summary</text>
</a>
</g>
</g>
<!-- Node2&#45;&gt;Node11 -->
<g id="edge10" class="edge"><title>Node2&#45;&gt;Node11</title>
<path fill="none" stroke="midnightblue" d="M245.201,-602.874C260.596,-570.313 292.052,-513.348 336,-481.5 341.391,-477.593 347.396,-474.29 353.644,-471.5"/>
<polygon fill="midnightblue" stroke="midnightblue" points="241.938,-601.593 240.943,-612.141 248.299,-604.516 241.938,-601.593"/>
</g>
<!-- Node14 -->
<g id="node14" class="node"><title>Node14</title>
<g id="a_node14"><a xlink:href="../../db/d8c/classCCCC__Xml__Stream.html#a806e737e00ee1ea36916b3d858660ebe" target="_top" xlink:title="CCCC_Xml_Stream::Project\l_Summary">
<polygon fill="white" stroke="black" points="347,-392.5 347,-422.5 494,-422.5 494,-392.5 347,-392.5"/>
<text text-anchor="start" x="355" y="-410.5" font-family="Helvetica,sans-Serif" font-size="10.00">CCCC_Xml_Stream::Project</text>
<text text-anchor="middle" x="420.5" y="-399.5" font-family="Helvetica,sans-Serif" font-size="10.00">_Summary</text>
</a>
</g>
</g>
<!-- Node13&#45;&gt;Node14 -->
<g id="edge13" class="edge"><title>Node13&#45;&gt;Node14</title>
<path fill="none" stroke="midnightblue" d="M244.825,-260.026C259.972,-293.027 291.342,-351.295 336,-383.5 340.771,-386.941 346.027,-389.89 351.508,-392.418"/>
<polygon fill="midnightblue" stroke="midnightblue" points="247.916,-258.362 240.649,-250.652 241.522,-261.211 247.916,-258.362"/>
</g>
<!-- Node15 -->
<g id="node15" class="node"><title>Node15</title>
<g id="a_node15"><a xlink:href="../../db/d8c/classCCCC__Xml__Stream.html#a261ad7db353c63e8f2ecc43dd120c35b" target="_top" xlink:title="CCCC_Xml_Stream::OO\l_Design">
<polygon fill="white" stroke="black" points="355,-343.5 355,-373.5 486,-373.5 486,-343.5 355,-343.5"/>
<text text-anchor="start" x="363" y="-361.5" font-family="Helvetica,sans-Serif" font-size="10.00">CCCC_Xml_Stream::OO</text>
<text text-anchor="middle" x="420.5" y="-350.5" font-family="Helvetica,sans-Serif" font-size="10.00">_Design</text>
</a>
</g>
</g>
<!-- Node13&#45;&gt;Node15 -->
<g id="edge14" class="edge"><title>Node13&#45;&gt;Node15</title>
<path fill="none" stroke="midnightblue" d="M252.385,-258.641C270.964,-281.152 302.03,-314.76 336,-334.5 341.869,-337.91 348.254,-340.863 354.794,-343.414"/>
<polygon fill="midnightblue" stroke="midnightblue" points="254.903,-256.188 245.896,-250.609 249.458,-260.587 254.903,-256.188"/>
</g>
<!-- Node16 -->
<g id="node16" class="node"><title>Node16</title>
<g id="a_node16"><a xlink:href="../../db/d8c/classCCCC__Xml__Stream.html#af8659ea64595d693d4b3a78f2620b379" target="_top" xlink:title="CCCC_Xml_Stream::Procedural\l_Summary">
<polygon fill="white" stroke="black" points="338,-294.5 338,-324.5 503,-324.5 503,-294.5 338,-294.5"/>
<text text-anchor="start" x="346" y="-312.5" font-family="Helvetica,sans-Serif" font-size="10.00">CCCC_Xml_Stream::Procedural</text>
<text text-anchor="middle" x="420.5" y="-301.5" font-family="Helvetica,sans-Serif" font-size="10.00">_Summary</text>
</a>
</g>
</g>
<!-- Node13&#45;&gt;Node16 -->
<g id="edge15" class="edge"><title>Node13&#45;&gt;Node16</title>
<path fill="none" stroke="midnightblue" d="M270.832,-255.358C289.874,-265.26 313.798,-276.919 336,-285.5 344.301,-288.708 353.211,-291.712 362.008,-294.436"/>
<polygon fill="midnightblue" stroke="midnightblue" points="272.384,-252.22 261.905,-250.66 269.124,-258.415 272.384,-252.22"/>
</g>
<!-- Node17 -->
<g id="node17" class="node"><title>Node17</title>
<g id="a_node17"><a xlink:href="../../db/d8c/classCCCC__Xml__Stream.html#a8e9d1d8c0d2645f1af6df568e58cd175" target="_top" xlink:title="CCCC_Xml_Stream::Structural\l_Summary">
<polygon fill="white" stroke="black" points="341.5,-245.5 341.5,-275.5 499.5,-275.5 499.5,-245.5 341.5,-245.5"/>
<text text-anchor="start" x="349.5" y="-263.5" font-family="Helvetica,sans-Serif" font-size="10.00">CCCC_Xml_Stream::Structural</text>
<text text-anchor="middle" x="420.5" y="-252.5" font-family="Helvetica,sans-Serif" font-size="10.00">_Summary</text>
</a>
</g>
</g>
<!-- Node13&#45;&gt;Node17 -->
<g id="edge16" class="edge"><title>Node13&#45;&gt;Node17</title>
<path fill="none" stroke="midnightblue" d="M308.081,-245.443C319.01,-246.92 330.307,-248.447 341.326,-249.936"/>
<polygon fill="midnightblue" stroke="midnightblue" points="308.545,-241.974 298.167,-244.104 307.608,-248.911 308.545,-241.974"/>
</g>
<!-- Node18 -->
<g id="node18" class="node"><title>Node18</title>
<g id="a_node18"><a xlink:href="../../db/d8c/classCCCC__Xml__Stream.html#a0a4b9ede5f6f9f0e90c39abb78d93337" target="_top" xlink:title="CCCC_Xml_Stream::Other\l_Extents">
<polygon fill="white" stroke="black" points="350,-196.5 350,-226.5 491,-226.5 491,-196.5 350,-196.5"/>
<text text-anchor="start" x="358" y="-214.5" font-family="Helvetica,sans-Serif" font-size="10.00">CCCC_Xml_Stream::Other</text>
<text text-anchor="middle" x="420.5" y="-203.5" font-family="Helvetica,sans-Serif" font-size="10.00">_Extents</text>
</a>
</g>
</g>
<!-- Node13&#45;&gt;Node18 -->
<g id="edge17" class="edge"><title>Node13&#45;&gt;Node18</title>
<path fill="none" stroke="midnightblue" d="M308.444,-225.907C322.052,-224.142 336.22,-222.304 349.702,-220.555"/>
<polygon fill="midnightblue" stroke="midnightblue" points="307.633,-222.483 298.167,-227.241 308.534,-229.425 307.633,-222.483"/>
</g>
<!-- Node19 -->
<g id="node19" class="node"><title>Node19</title>
<g id="a_node19"><a xlink:href="../../db/d8c/classCCCC__Xml__Stream.html#a2cc4fe15afe69c43e523f2bcf2e676a5" target="_top" xlink:title="CCCC_Xml_Stream::Put\l_Metric_Node">
<polygon fill="white" stroke="black" points="356,-147.5 356,-177.5 485,-177.5 485,-147.5 356,-147.5"/>
<text text-anchor="start" x="364" y="-165.5" font-family="Helvetica,sans-Serif" font-size="10.00">CCCC_Xml_Stream::Put</text>
<text text-anchor="middle" x="420.5" y="-154.5" font-family="Helvetica,sans-Serif" font-size="10.00">_Metric_Node</text>
</a>
</g>
</g>
<!-- Node13&#45;&gt;Node19 -->
<g id="edge18" class="edge"><title>Node13&#45;&gt;Node19</title>
<path fill="none" stroke="midnightblue" d="M272.438,-215.888C291.26,-206.591 314.515,-195.743 336,-187.5 345.183,-183.977 355.086,-180.631 364.752,-177.6"/>
<polygon fill="midnightblue" stroke="midnightblue" points="270.69,-212.849 263.307,-220.448 273.817,-219.112 270.69,-212.849"/>
</g>
<!-- Node20 -->
<g id="node20" class="node"><title>Node20</title>
<g id="a_node20"><a xlink:href="../../db/d8c/classCCCC__Xml__Stream.html#af9e90e1e9e3993019242ba50295f22ea" target="_top" xlink:title="CCCC_Xml_Stream::Module\l_Detail">
<polygon fill="white" stroke="black" points="346,-98.5 346,-128.5 495,-128.5 495,-98.5 346,-98.5"/>
<text text-anchor="start" x="354" y="-116.5" font-family="Helvetica,sans-Serif" font-size="10.00">CCCC_Xml_Stream::Module</text>
<text text-anchor="middle" x="420.5" y="-105.5" font-family="Helvetica,sans-Serif" font-size="10.00">_Detail</text>
</a>
</g>
</g>
<!-- Node13&#45;&gt;Node20 -->
<g id="edge19" class="edge"><title>Node13&#45;&gt;Node20</title>
<path fill="none" stroke="midnightblue" d="M252.843,-212.552C271.567,-190.571 302.558,-157.952 336,-138.5 342.54,-134.696 349.711,-131.424 357.016,-128.622"/>
<polygon fill="midnightblue" stroke="midnightblue" points="250.008,-210.486 246.288,-220.406 255.383,-214.971 250.008,-210.486"/>
</g>
<!-- Node21 -->
<g id="node21" class="node"><title>Node21</title>
<g id="a_node21"><a xlink:href="../../db/d8c/classCCCC__Xml__Stream.html#ad70e63452c8fb298b0627f20b40def10" target="_top" xlink:title="CCCC_Xml_Stream::Procedural\l_Detail">
<polygon fill="white" stroke="black" points="338,-49.5 338,-79.5 503,-79.5 503,-49.5 338,-49.5"/>
<text text-anchor="start" x="346" y="-67.5" font-family="Helvetica,sans-Serif" font-size="10.00">CCCC_Xml_Stream::Procedural</text>
<text text-anchor="middle" x="420.5" y="-56.5" font-family="Helvetica,sans-Serif" font-size="10.00">_Detail</text>
</a>
</g>
</g>
<!-- Node13&#45;&gt;Node21 -->
<g id="edge20" class="edge"><title>Node13&#45;&gt;Node21</title>
<path fill="none" stroke="midnightblue" d="M245.201,-210.874C260.596,-178.313 292.052,-121.348 336,-89.5 341.391,-85.593 347.396,-82.2904 353.644,-79.5"/>
<polygon fill="midnightblue" stroke="midnightblue" points="241.938,-209.593 240.943,-220.141 248.299,-212.516 241.938,-209.593"/>
</g>
<!-- Node22 -->
<g id="node22" class="node"><title>Node22</title>
<g id="a_node22"><a xlink:href="../../db/d8c/classCCCC__Xml__Stream.html#a86b2358b95c828fd96da2ba14ca458d0" target="_top" xlink:title="CCCC_Xml_Stream::Module\l_Summary">
<polygon fill="white" stroke="black" points="346,-0.5 346,-30.5 495,-30.5 495,-0.5 346,-0.5"/>
<text text-anchor="start" x="354" y="-18.5" font-family="Helvetica,sans-Serif" font-size="10.00">CCCC_Xml_Stream::Module</text>
<text text-anchor="middle" x="420.5" y="-7.5" font-family="Helvetica,sans-Serif" font-size="10.00">_Summary</text>
</a>
</g>
</g>
<!-- Node13&#45;&gt;Node22 -->
<g id="edge21" class="edge"><title>Node13&#45;&gt;Node22</title>
<path fill="none" stroke="midnightblue" d="M240.529,-210.494C251.899,-168.747 280.511,-84.9646 336,-39.5 340.2,-36.0586 344.87,-33.1104 349.795,-30.5849"/>
<polygon fill="midnightblue" stroke="midnightblue" points="237.085,-209.827 237.945,-220.387 243.858,-211.596 237.085,-209.827"/>
</g>
<!-- Node23 -->
<g id="node23" class="node"><title>Node23</title>
<g id="a_node23"><a xlink:href="../../db/d8c/classCCCC__Xml__Stream.html#a221dc496f3d46314b700c1a3bb6e5e5c" target="_top" xlink:title="CCCC_Xml_Stream::Separate\l_Modules">
<polygon fill="white" stroke="black" points="541,-0.5 541,-30.5 699,-30.5 699,-0.5 541,-0.5"/>
<text text-anchor="start" x="549" y="-18.5" font-family="Helvetica,sans-Serif" font-size="10.00">CCCC_Xml_Stream::Separate</text>
<text text-anchor="middle" x="620" y="-7.5" font-family="Helvetica,sans-Serif" font-size="10.00">_Modules</text>
</a>
</g>
</g>
<!-- Node22&#45;&gt;Node23 -->
<g id="edge22" class="edge"><title>Node22&#45;&gt;Node23</title>
<path fill="none" stroke="midnightblue" d="M505.289,-15.5C517.054,-15.5 529.109,-15.5 540.765,-15.5"/>
<polygon fill="midnightblue" stroke="midnightblue" points="505.042,-12.0001 495.042,-15.5 505.042,-19.0001 505.042,-12.0001"/>
</g>
</g>
</svg>
