<?xml version="1.0" encoding="UTF-8" standalone="no"?>
<!DOCTYPE svg PUBLIC "-//W3C//DTD SVG 1.1//EN"
 "http://www.w3.org/Graphics/SVG/1.1/DTD/svg11.dtd">
<!-- Generated by graphviz version 2.38.0 (20140413.2041)
 -->
<!-- Title: cccc_mod.cc Pages: 1 -->
<svg width="825pt" height="532pt"
 viewBox="0.00 0.00 824.50 532.00" xmlns="http://www.w3.org/2000/svg" xmlns:xlink="http://www.w3.org/1999/xlink">
<g id="graph0" class="graph" transform="scale(1 1) rotate(0) translate(4 528)">
<title>cccc_mod.cc</title>
<polygon fill="white" stroke="none" points="-4,4 -4,-528 820.5,-528 820.5,4 -4,4"/>
<!-- Node1 -->
<g id="node1" class="node"><title>Node1</title>
<polygon fill="#bfbfbf" stroke="black" points="294.5,-504.5 294.5,-523.5 371.5,-523.5 371.5,-504.5 294.5,-504.5"/>
<text text-anchor="middle" x="333" y="-511.5" font-family="Helvetica,sans-Serif" font-size="10.00">cccc_mod.cc</text>
</g>
<!-- Node2 -->
<g id="node2" class="node"><title>Node2</title>
<g id="a_node2"><a xlink:href="../../d0/d84/cccc_8h.html" target="_top" xlink:title="cccc.h">
<polygon fill="white" stroke="black" points="384,-112.5 384,-131.5 430,-131.5 430,-112.5 384,-112.5"/>
<text text-anchor="middle" x="407" y="-119.5" font-family="Helvetica,sans-Serif" font-size="10.00">cccc.h</text>
</a>
</g>
</g>
<!-- Node1&#45;&gt;Node2 -->
<g id="edge1" class="edge"><title>Node1&#45;&gt;Node2</title>
<path fill="none" stroke="midnightblue" d="M323.704,-504.282C306.18,-486.851 270,-445.695 270,-403 270,-403 270,-403 270,-233 270,-202.501 270.943,-190.063 292,-168 313.727,-145.236 348.343,-133.783 373.927,-128.153"/>
<polygon fill="midnightblue" stroke="midnightblue" points="374.815,-131.545 383.929,-126.144 373.436,-124.682 374.815,-131.545"/>
</g>
<!-- Node16 -->
<g id="node16" class="node"><title>Node16</title>
<g id="a_node16"><a xlink:href="../../dd/d1e/cccc__itm_8h.html" target="_top" xlink:title="cccc_itm.h">
<polygon fill="white" stroke="black" points="301.5,-168.5 301.5,-187.5 366.5,-187.5 366.5,-168.5 301.5,-168.5"/>
<text text-anchor="middle" x="334" y="-175.5" font-family="Helvetica,sans-Serif" font-size="10.00">cccc_itm.h</text>
</a>
</g>
</g>
<!-- Node1&#45;&gt;Node16 -->
<g id="edge16" class="edge"><title>Node1&#45;&gt;Node16</title>
<path fill="none" stroke="midnightblue" d="M329.628,-504.313C322.804,-485.923 308,-441.581 308,-403 308,-403 308,-403 308,-289 308,-255.929 319.268,-218.729 326.968,-197.168"/>
<polygon fill="midnightblue" stroke="midnightblue" points="330.293,-198.268 330.494,-187.675 323.731,-195.831 330.293,-198.268"/>
</g>
<!-- Node17 -->
<g id="node17" class="node"><title>Node17</title>
<g id="a_node17"><a xlink:href="../../df/d69/cccc__mod_8h.html" target="_top" xlink:title="cccc_mod.h">
<polygon fill="white" stroke="black" points="336,-392.5 336,-411.5 408,-411.5 408,-392.5 336,-392.5"/>
<text text-anchor="middle" x="372" y="-399.5" font-family="Helvetica,sans-Serif" font-size="10.00">cccc_mod.h</text>
</a>
</g>
</g>
<!-- Node1&#45;&gt;Node17 -->
<g id="edge18" class="edge"><title>Node1&#45;&gt;Node17</title>
<path fill="none" stroke="midnightblue" d="M336.06,-504.368C342.382,-486.537 357.004,-445.295 365.522,-421.272"/>
<polygon fill="midnightblue" stroke="midnightblue" points="368.911,-422.186 368.954,-411.591 362.313,-419.847 368.911,-422.186"/>
</g>
<!-- Node25 -->
<g id="node25" class="node"><title>Node25</title>
<g id="a_node25"><a xlink:href="../../d7/d44/cccc__db_8h.html" target="_top" xlink:title="cccc_db.h">
<polygon fill="white" stroke="black" points="507.5,-448.5 507.5,-467.5 570.5,-467.5 570.5,-448.5 507.5,-448.5"/>
<text text-anchor="middle" x="539" y="-455.5" font-family="Helvetica,sans-Serif" font-size="10.00">cccc_db.h</text>
</a>
</g>
</g>
<!-- Node1&#45;&gt;Node25 -->
<g id="edge38" class="edge"><title>Node1&#45;&gt;Node25</title>
<path fill="none" stroke="midnightblue" d="M365.641,-504.444C401.258,-495.107 458.376,-480.134 497.236,-469.948"/>
<polygon fill="midnightblue" stroke="midnightblue" points="498.403,-473.26 507.188,-467.339 496.628,-466.489 498.403,-473.26"/>
</g>
<!-- Node3 -->
<g id="node3" class="node"><title>Node3</title>
<polygon fill="white" stroke="#bfbfbf" points="548.5,-56.5 548.5,-75.5 599.5,-75.5 599.5,-56.5 548.5,-56.5"/>
<text text-anchor="middle" x="574" y="-63.5" font-family="Helvetica,sans-Serif" font-size="10.00">cassert</text>
</g>
<!-- Node2&#45;&gt;Node3 -->
<g id="edge2" class="edge"><title>Node2&#45;&gt;Node3</title>
<path fill="none" stroke="midnightblue" d="M430.221,-113.492C458.323,-104.405 505.931,-89.0103 538.613,-78.4426"/>
<polygon fill="midnightblue" stroke="midnightblue" points="539.8,-81.7372 548.238,-75.3302 537.646,-75.0768 539.8,-81.7372"/>
</g>
<!-- Node4 -->
<g id="node4" class="node"><title>Node4</title>
<polygon fill="white" stroke="#bfbfbf" points="272.5,-56.5 272.5,-75.5 317.5,-75.5 317.5,-56.5 272.5,-56.5"/>
<text text-anchor="middle" x="295" y="-63.5" font-family="Helvetica,sans-Serif" font-size="10.00">cmath</text>
</g>
<!-- Node2&#45;&gt;Node4 -->
<g id="edge3" class="edge"><title>Node2&#45;&gt;Node4</title>
<path fill="none" stroke="midnightblue" d="M389.005,-112.324C370.962,-103.625 342.953,-90.1202 322.197,-80.113"/>
<polygon fill="midnightblue" stroke="midnightblue" points="323.478,-76.8449 312.95,-75.6545 320.438,-83.1502 323.478,-76.8449"/>
</g>
<!-- Node5 -->
<g id="node5" class="node"><title>Node5</title>
<polygon fill="white" stroke="#bfbfbf" points="336,-56.5 336,-75.5 380,-75.5 380,-56.5 336,-56.5"/>
<text text-anchor="middle" x="358" y="-63.5" font-family="Helvetica,sans-Serif" font-size="10.00">cstdio</text>
</g>
<!-- Node2&#45;&gt;Node5 -->
<g id="edge4" class="edge"><title>Node2&#45;&gt;Node5</title>
<path fill="none" stroke="midnightblue" d="M398.909,-112.083C391.845,-104.298 381.412,-92.8015 372.851,-83.3665"/>
<polygon fill="midnightblue" stroke="midnightblue" points="375.253,-80.8047 365.941,-75.7511 370.069,-85.5087 375.253,-80.8047"/>
</g>
<!-- Node6 -->
<g id="node6" class="node"><title>Node6</title>
<polygon fill="white" stroke="#bfbfbf" points="398,-56.5 398,-75.5 446,-75.5 446,-56.5 398,-56.5"/>
<text text-anchor="middle" x="422" y="-63.5" font-family="Helvetica,sans-Serif" font-size="10.00">cstring</text>
</g>
<!-- Node2&#45;&gt;Node6 -->
<g id="edge5" class="edge"><title>Node2&#45;&gt;Node6</title>
<path fill="none" stroke="midnightblue" d="M409.477,-112.083C411.486,-104.849 414.386,-94.4087 416.89,-85.3968"/>
<polygon fill="midnightblue" stroke="midnightblue" points="420.265,-86.323 419.569,-75.7511 413.52,-84.4495 420.265,-86.323"/>
</g>
<!-- Node7 -->
<g id="node7" class="node"><title>Node7</title>
<polygon fill="white" stroke="#bfbfbf" points="0,-56.5 0,-75.5 46,-75.5 46,-56.5 0,-56.5"/>
<text text-anchor="middle" x="23" y="-63.5" font-family="Helvetica,sans-Serif" font-size="10.00">cstdlib</text>
</g>
<!-- Node2&#45;&gt;Node7 -->
<g id="edge6" class="edge"><title>Node2&#45;&gt;Node7</title>
<path fill="none" stroke="midnightblue" d="M383.744,-119.218C328.522,-114.734 185.089,-101.617 56.3517,-76.0135"/>
<polygon fill="midnightblue" stroke="midnightblue" points="56.8169,-72.5368 46.3218,-73.9869 55.4306,-79.3981 56.8169,-72.5368"/>
</g>
<!-- Node8 -->
<g id="node8" class="node"><title>Node8</title>
<polygon fill="white" stroke="#bfbfbf" points="64.5,-56.5 64.5,-75.5 111.5,-75.5 111.5,-56.5 64.5,-56.5"/>
<text text-anchor="middle" x="88" y="-63.5" font-family="Helvetica,sans-Serif" font-size="10.00">cctype</text>
</g>
<!-- Node2&#45;&gt;Node8 -->
<g id="edge7" class="edge"><title>Node2&#45;&gt;Node8</title>
<path fill="none" stroke="midnightblue" d="M383.857,-118.238C336.518,-112.402 225.077,-97.7107 121.694,-75.9334"/>
<polygon fill="midnightblue" stroke="midnightblue" points="122.227,-72.4684 111.716,-73.8039 120.766,-79.3142 122.227,-72.4684"/>
</g>
<!-- Node9 -->
<g id="node9" class="node"><title>Node9</title>
<polygon fill="white" stroke="#bfbfbf" points="773.5,-56.5 773.5,-75.5 816.5,-75.5 816.5,-56.5 773.5,-56.5"/>
<text text-anchor="middle" x="795" y="-63.5" font-family="Helvetica,sans-Serif" font-size="10.00">string</text>
</g>
<!-- Node2&#45;&gt;Node9 -->
<g id="edge8" class="edge"><title>Node2&#45;&gt;Node9</title>
<path fill="none" stroke="midnightblue" d="M430.178,-119.348C485.955,-115.104 632.137,-102.392 763.589,-75.7582"/>
<polygon fill="midnightblue" stroke="midnightblue" points="764.34,-79.1771 773.429,-73.7324 762.928,-72.3209 764.34,-79.1771"/>
</g>
<!-- Node10 -->
<g id="node10" class="node"><title>Node10</title>
<polygon fill="white" stroke="#bfbfbf" points="698.5,-56.5 698.5,-75.5 755.5,-75.5 755.5,-56.5 698.5,-56.5"/>
<text text-anchor="middle" x="727" y="-63.5" font-family="Helvetica,sans-Serif" font-size="10.00">iostream</text>
</g>
<!-- Node2&#45;&gt;Node10 -->
<g id="edge9" class="edge"><title>Node2&#45;&gt;Node10</title>
<path fill="none" stroke="midnightblue" d="M430.132,-117.903C476.92,-111.512 586.311,-95.9297 688.547,-75.9567"/>
<polygon fill="midnightblue" stroke="midnightblue" points="689.282,-79.3792 698.416,-74.0103 687.928,-72.5115 689.282,-79.3792"/>
</g>
<!-- Node11 -->
<g id="node11" class="node"><title>Node11</title>
<polygon fill="white" stroke="#bfbfbf" points="130,-56.5 130,-75.5 184,-75.5 184,-56.5 130,-56.5"/>
<text text-anchor="middle" x="157" y="-63.5" font-family="Helvetica,sans-Serif" font-size="10.00">sstream</text>
</g>
<!-- Node2&#45;&gt;Node11 -->
<g id="edge10" class="edge"><title>Node2&#45;&gt;Node11</title>
<path fill="none" stroke="midnightblue" d="M383.82,-116.424C346.174,-108.928 269.181,-93.3336 194.186,-76.2069"/>
<polygon fill="midnightblue" stroke="midnightblue" points="194.63,-72.7179 184.1,-73.8914 193.064,-79.5404 194.63,-72.7179"/>
</g>
<!-- Node12 -->
<g id="node12" class="node"><title>Node12</title>
<polygon fill="white" stroke="#bfbfbf" points="202,-56.5 202,-75.5 254,-75.5 254,-56.5 202,-56.5"/>
<text text-anchor="middle" x="228" y="-63.5" font-family="Helvetica,sans-Serif" font-size="10.00">fstream</text>
</g>
<!-- Node2&#45;&gt;Node12 -->
<g id="edge11" class="edge"><title>Node2&#45;&gt;Node12</title>
<path fill="none" stroke="midnightblue" d="M383.965,-114.051C353.628,-104.899 299.951,-88.7058 264.171,-77.9119"/>
<polygon fill="midnightblue" stroke="midnightblue" points="264.723,-74.4227 254.138,-74.8853 262.701,-81.1244 264.723,-74.4227"/>
</g>
<!-- Node13 -->
<g id="node13" class="node"><title>Node13</title>
<g id="a_node13"><a xlink:href="../../d1/d7d/cccc__tok_8h.html" target="_top" xlink:title="cccc_tok.h">
<polygon fill="white" stroke="black" points="464,-56.5 464,-75.5 530,-75.5 530,-56.5 464,-56.5"/>
<text text-anchor="middle" x="497" y="-63.5" font-family="Helvetica,sans-Serif" font-size="10.00">cccc_tok.h</text>
</a>
</g>
</g>
<!-- Node2&#45;&gt;Node13 -->
<g id="edge12" class="edge"><title>Node2&#45;&gt;Node13</title>
<path fill="none" stroke="midnightblue" d="M416.345,-112.324C428.789,-103.743 450.609,-90.486 468.524,-80.5224"/>
<polygon fill="midnightblue" stroke="midnightblue" points="470.356,-83.5099 477.466,-75.6545 467.009,-77.3619 470.356,-83.5099"/>
</g>
<!-- Node15 -->
<g id="node15" class="node"><title>Node15</title>
<polygon fill="white" stroke="#bfbfbf" points="617.5,-56.5 617.5,-75.5 680.5,-75.5 680.5,-56.5 617.5,-56.5"/>
<text text-anchor="middle" x="649" y="-63.5" font-family="Helvetica,sans-Serif" font-size="10.00">AParser.h</text>
</g>
<!-- Node2&#45;&gt;Node15 -->
<g id="edge15" class="edge"><title>Node2&#45;&gt;Node15</title>
<path fill="none" stroke="midnightblue" d="M430.204,-115.822C471.018,-106.715 556.172,-87.7137 607.379,-76.2873"/>
<polygon fill="midnightblue" stroke="midnightblue" points="608.147,-79.702 617.145,-74.1081 606.623,-72.8701 608.147,-79.702"/>
</g>
<!-- Node13&#45;&gt;Node2 -->
<g id="edge13" class="edge"><title>Node13&#45;&gt;Node2</title>
<path fill="none" stroke="midnightblue" d="M487.686,-75.6545C475.258,-84.2279 453.442,-97.4835 435.521,-107.453"/>
<polygon fill="midnightblue" stroke="midnightblue" points="433.684,-104.468 426.575,-112.324 437.031,-110.616 433.684,-104.468"/>
</g>
<!-- Node14 -->
<g id="node14" class="node"><title>Node14</title>
<polygon fill="white" stroke="#bfbfbf" points="466,-0.5 466,-19.5 528,-19.5 528,-0.5 466,-0.5"/>
<text text-anchor="middle" x="497" y="-7.5" font-family="Helvetica,sans-Serif" font-size="10.00">AToken.h</text>
</g>
<!-- Node13&#45;&gt;Node14 -->
<g id="edge14" class="edge"><title>Node13&#45;&gt;Node14</title>
<path fill="none" stroke="midnightblue" d="M497,-56.083C497,-49.0059 497,-38.8611 497,-29.9865"/>
<polygon fill="midnightblue" stroke="midnightblue" points="500.5,-29.751 497,-19.7511 493.5,-29.7511 500.5,-29.751"/>
</g>
<!-- Node16&#45;&gt;Node2 -->
<g id="edge17" class="edge"><title>Node16&#45;&gt;Node2</title>
<path fill="none" stroke="midnightblue" d="M345.729,-168.324C356.837,-160.107 373.742,-147.602 386.983,-137.807"/>
<polygon fill="midnightblue" stroke="midnightblue" points="389.1,-140.595 395.058,-131.834 384.937,-134.967 389.1,-140.595"/>
</g>
<!-- Node17&#45;&gt;Node2 -->
<g id="edge19" class="edge"><title>Node17&#45;&gt;Node2</title>
<path fill="none" stroke="midnightblue" d="M375.102,-392.289C381.38,-373.856 395,-329.435 395,-291 395,-291 395,-291 395,-233 395,-200.758 400.158,-163.512 403.711,-141.681"/>
<polygon fill="midnightblue" stroke="midnightblue" points="407.212,-141.967 405.431,-131.523 400.31,-140.798 407.212,-141.967"/>
</g>
<!-- Node18 -->
<g id="node18" class="node"><title>Node18</title>
<g id="a_node18"><a xlink:href="../../df/de9/cccc__rec_8h.html" target="_top" xlink:title="cccc_rec.h">
<polygon fill="white" stroke="black" points="617.5,-336.5 617.5,-355.5 684.5,-355.5 684.5,-336.5 617.5,-336.5"/>
<text text-anchor="middle" x="651" y="-343.5" font-family="Helvetica,sans-Serif" font-size="10.00">cccc_rec.h</text>
</a>
</g>
</g>
<!-- Node17&#45;&gt;Node18 -->
<g id="edge20" class="edge"><title>Node17&#45;&gt;Node18</title>
<path fill="none" stroke="midnightblue" d="M408.188,-393.996C459.301,-384.103 552.51,-366.063 607.38,-355.443"/>
<polygon fill="midnightblue" stroke="midnightblue" points="608.337,-358.822 617.49,-353.486 607.007,-351.95 608.337,-358.822"/>
</g>
<!-- Node19 -->
<g id="node19" class="node"><title>Node19</title>
<g id="a_node19"><a xlink:href="../../df/dd4/cccc__tbl_8h.html" target="_top" xlink:title="cccc_tbl.h">
<polygon fill="white" stroke="black" points="659,-280.5 659,-299.5 721,-299.5 721,-280.5 659,-280.5"/>
<text text-anchor="middle" x="690" y="-287.5" font-family="Helvetica,sans-Serif" font-size="10.00">cccc_tbl.h</text>
</a>
</g>
</g>
<!-- Node18&#45;&gt;Node19 -->
<g id="edge21" class="edge"><title>Node18&#45;&gt;Node19</title>
<path fill="none" stroke="midnightblue" d="M657.44,-336.083C662.949,-328.455 671.031,-317.264 677.765,-307.941"/>
<polygon fill="midnightblue" stroke="midnightblue" points="680.662,-309.907 683.68,-299.751 674.987,-305.809 680.662,-309.907"/>
</g>
<!-- Node22 -->
<g id="node22" class="node"><title>Node22</title>
<g id="a_node22"><a xlink:href="../../d3/d11/cccc__ext_8h.html" target="_top" xlink:title="cccc_ext.h">
<polygon fill="white" stroke="black" points="739,-280.5 739,-299.5 805,-299.5 805,-280.5 739,-280.5"/>
<text text-anchor="middle" x="772" y="-287.5" font-family="Helvetica,sans-Serif" font-size="10.00">cccc_ext.h</text>
</a>
</g>
</g>
<!-- Node18&#45;&gt;Node22 -->
<g id="edge29" class="edge"><title>Node18&#45;&gt;Node22</title>
<path fill="none" stroke="midnightblue" d="M670.173,-336.444C689.909,-327.636 720.885,-313.812 743.493,-303.722"/>
<polygon fill="midnightblue" stroke="midnightblue" points="745.211,-306.788 752.917,-299.516 742.359,-300.396 745.211,-306.788"/>
</g>
<!-- Node23 -->
<g id="node23" class="node"><title>Node23</title>
<g id="a_node23"><a xlink:href="../../d7/d8f/cccc__utl_8h.html" target="_top" xlink:title="cccc_utl.h">
<polygon fill="white" stroke="black" points="600,-224.5 600,-243.5 662,-243.5 662,-224.5 600,-224.5"/>
<text text-anchor="middle" x="631" y="-231.5" font-family="Helvetica,sans-Serif" font-size="10.00">cccc_utl.h</text>
</a>
</g>
</g>
<!-- Node18&#45;&gt;Node23 -->
<g id="edge37" class="edge"><title>Node18&#45;&gt;Node23</title>
<path fill="none" stroke="midnightblue" d="M649.431,-336.368C646.203,-318.617 638.758,-277.666 634.381,-253.597"/>
<polygon fill="midnightblue" stroke="midnightblue" points="637.795,-252.804 632.562,-243.591 630.907,-254.056 637.795,-252.804"/>
</g>
<!-- Node19&#45;&gt;Node9 -->
<g id="edge23" class="edge"><title>Node19&#45;&gt;Node9</title>
<path fill="none" stroke="midnightblue" d="M698.051,-280.236C705.731,-271.539 717.246,-257.58 725,-244 756.062,-189.6 779.506,-118.709 789.581,-85.5806"/>
<polygon fill="midnightblue" stroke="midnightblue" points="792.972,-86.4551 792.476,-75.8719 786.264,-84.4542 792.972,-86.4551"/>
</g>
<!-- Node19&#45;&gt;Node10 -->
<g id="edge22" class="edge"><title>Node19&#45;&gt;Node10</title>
<path fill="none" stroke="midnightblue" d="M693.473,-280.449C697.069,-271.452 702.747,-256.844 707,-244 715.136,-219.427 718.987,-213.572 723,-188 728.629,-152.133 728.483,-109.579 727.792,-85.692"/>
<polygon fill="midnightblue" stroke="midnightblue" points="731.286,-85.4453 727.432,-75.5761 724.29,-85.6942 731.286,-85.4453"/>
</g>
<!-- Node20 -->
<g id="node20" class="node"><title>Node20</title>
<polygon fill="white" stroke="#bfbfbf" points="677.5,-168.5 677.5,-187.5 714.5,-187.5 714.5,-168.5 677.5,-168.5"/>
<text text-anchor="middle" x="696" y="-175.5" font-family="Helvetica,sans-Serif" font-size="10.00">map</text>
</g>
<!-- Node19&#45;&gt;Node20 -->
<g id="edge24" class="edge"><title>Node19&#45;&gt;Node20</title>
<path fill="none" stroke="midnightblue" d="M690.471,-280.368C691.439,-262.617 693.673,-221.666 694.986,-197.597"/>
<polygon fill="midnightblue" stroke="midnightblue" points="698.481,-197.767 695.531,-187.591 691.492,-197.386 698.481,-197.767"/>
</g>
<!-- Node21 -->
<g id="node21" class="node"><title>Node21</title>
<g id="a_node21"><a xlink:href="../../d1/d17/cccc__tbl_8cc.html" target="_top" xlink:title="cccc_tbl.cc">
<polygon fill="white" stroke="black" points="489.5,-224.5 489.5,-243.5 556.5,-243.5 556.5,-224.5 489.5,-224.5"/>
<text text-anchor="middle" x="523" y="-231.5" font-family="Helvetica,sans-Serif" font-size="10.00">cccc_tbl.cc</text>
</a>
</g>
</g>
<!-- Node19&#45;&gt;Node21 -->
<g id="edge25" class="edge"><title>Node19&#45;&gt;Node21</title>
<path fill="none" stroke="midnightblue" d="M658.844,-280.562C628.808,-271.501 583.855,-257.034 553.91,-246.837"/>
<polygon fill="midnightblue" stroke="midnightblue" points="554.968,-243.5 544.373,-243.556 552.691,-250.119 554.968,-243.5"/>
</g>
<!-- Node21&#45;&gt;Node3 -->
<g id="edge28" class="edge"><title>Node21&#45;&gt;Node3</title>
<path fill="none" stroke="midnightblue" d="M525.742,-224.075C533.77,-197.945 557.345,-121.211 568.293,-85.577"/>
<polygon fill="midnightblue" stroke="midnightblue" points="571.776,-86.1551 571.368,-75.5681 565.085,-84.0992 571.776,-86.1551"/>
</g>
<!-- Node21&#45;&gt;Node16 -->
<g id="edge26" class="edge"><title>Node21&#45;&gt;Node16</title>
<path fill="none" stroke="midnightblue" d="M493.052,-224.444C460.842,-215.241 409.466,-200.562 373.858,-190.388"/>
<polygon fill="midnightblue" stroke="midnightblue" points="374.384,-186.898 363.808,-187.516 372.461,-193.629 374.384,-186.898"/>
</g>
<!-- Node21&#45;&gt;Node19 -->
<g id="edge27" class="edge"><title>Node21&#45;&gt;Node19</title>
<path fill="none" stroke="midnightblue" d="M554.418,-243.516C584.462,-252.585 629.258,-267.004 659.117,-277.172"/>
<polygon fill="midnightblue" stroke="midnightblue" points="658.032,-280.5 668.627,-280.444 660.309,-273.881 658.032,-280.5"/>
</g>
<!-- Node22&#45;&gt;Node9 -->
<g id="edge30" class="edge"><title>Node22&#45;&gt;Node9</title>
<path fill="none" stroke="midnightblue" d="M778.105,-280.191C783.755,-271.46 791.755,-257.478 795,-244 808.575,-187.611 802.133,-118.156 797.811,-85.554"/>
<polygon fill="midnightblue" stroke="midnightblue" points="801.275,-85.0516 796.407,-75.6413 794.344,-86.0333 801.275,-85.0516"/>
</g>
<!-- Node22&#45;&gt;Node23 -->
<g id="edge31" class="edge"><title>Node22&#45;&gt;Node23</title>
<path fill="none" stroke="midnightblue" d="M749.658,-280.444C726.247,-271.478 689.264,-257.314 662.81,-247.183"/>
<polygon fill="midnightblue" stroke="midnightblue" points="663.828,-243.824 653.237,-243.516 661.324,-250.361 663.828,-243.824"/>
</g>
<!-- Node23&#45;&gt;Node2 -->
<g id="edge32" class="edge"><title>Node23&#45;&gt;Node2</title>
<path fill="none" stroke="midnightblue" d="M611.724,-224.463C591.872,-215.597 560.097,-201.202 533,-188 497.682,-170.793 457.425,-149.775 432.117,-136.387"/>
<polygon fill="midnightblue" stroke="midnightblue" points="433.665,-133.247 423.19,-131.654 430.385,-139.431 433.665,-133.247"/>
</g>
<!-- Node23&#45;&gt;Node13 -->
<g id="edge35" class="edge"><title>Node23&#45;&gt;Node13</title>
<path fill="none" stroke="midnightblue" d="M614.512,-224.37C600.367,-216.362 580.094,-203.381 566,-188 536.981,-156.331 515.013,-110.356 504.282,-85.1744"/>
<polygon fill="midnightblue" stroke="midnightblue" points="507.443,-83.658 500.383,-75.7574 500.975,-86.3358 507.443,-83.658"/>
</g>
<!-- Node23&#45;&gt;Node15 -->
<g id="edge36" class="edge"><title>Node23&#45;&gt;Node15</title>
<path fill="none" stroke="midnightblue" d="M631.968,-224.075C634.801,-197.945 643.122,-121.211 646.986,-85.577"/>
<polygon fill="midnightblue" stroke="midnightblue" points="650.472,-85.8872 648.071,-75.5681 643.513,-85.1325 650.472,-85.8872"/>
</g>
<!-- Node23&#45;&gt;Node20 -->
<g id="edge33" class="edge"><title>Node23&#45;&gt;Node20</title>
<path fill="none" stroke="midnightblue" d="M641.443,-224.324C651.146,-216.263 665.815,-204.077 677.5,-194.369"/>
<polygon fill="midnightblue" stroke="midnightblue" points="679.911,-196.916 685.367,-187.834 675.438,-191.532 679.911,-196.916"/>
</g>
<!-- Node24 -->
<g id="node24" class="node"><title>Node24</title>
<polygon fill="white" stroke="#bfbfbf" points="575,-168.5 575,-187.5 621,-187.5 621,-168.5 575,-168.5"/>
<text text-anchor="middle" x="598" y="-175.5" font-family="Helvetica,sans-Serif" font-size="10.00">vector</text>
</g>
<!-- Node23&#45;&gt;Node24 -->
<g id="edge34" class="edge"><title>Node23&#45;&gt;Node24</title>
<path fill="none" stroke="midnightblue" d="M625.551,-224.083C620.986,-216.613 614.332,-205.724 608.707,-196.52"/>
<polygon fill="midnightblue" stroke="midnightblue" points="611.549,-194.459 603.348,-187.751 605.576,-198.109 611.549,-194.459"/>
</g>
<!-- Node25&#45;&gt;Node2 -->
<g id="edge39" class="edge"><title>Node25&#45;&gt;Node2</title>
<path fill="none" stroke="midnightblue" d="M508.749,-448.359C490.323,-441.505 467.913,-430.02 455,-412 447.016,-400.859 418.439,-203.534 409.615,-141.504"/>
<polygon fill="midnightblue" stroke="midnightblue" points="413.076,-140.981 408.206,-131.571 406.145,-141.964 413.076,-140.981"/>
</g>
<!-- Node25&#45;&gt;Node17 -->
<g id="edge44" class="edge"><title>Node25&#45;&gt;Node17</title>
<path fill="none" stroke="midnightblue" d="M512.538,-448.444C484.322,-439.32 439.46,-424.813 408.032,-414.651"/>
<polygon fill="midnightblue" stroke="midnightblue" points="408.93,-411.263 398.338,-411.516 406.776,-417.923 408.93,-411.263"/>
</g>
<!-- Node25&#45;&gt;Node18 -->
<g id="edge41" class="edge"><title>Node25&#45;&gt;Node18</title>
<path fill="none" stroke="midnightblue" d="M570.581,-453.529C616.315,-447.777 697.446,-434.606 715,-412 730.091,-392.565 703.288,-372.777 679.886,-360.225"/>
<polygon fill="midnightblue" stroke="midnightblue" points="681.351,-357.043 670.852,-355.626 678.176,-363.282 681.351,-357.043"/>
</g>
<!-- Node25&#45;&gt;Node22 -->
<g id="edge40" class="edge"><title>Node25&#45;&gt;Node22</title>
<path fill="none" stroke="midnightblue" d="M570.667,-453.39C619.151,-447.257 708.631,-433.35 732,-412 761.311,-385.22 769.184,-336.531 771.272,-309.806"/>
<polygon fill="midnightblue" stroke="midnightblue" points="774.783,-309.712 771.869,-299.526 767.795,-309.306 774.783,-309.712"/>
</g>
<!-- Node26 -->
<g id="node26" class="node"><title>Node26</title>
<g id="a_node26"><a xlink:href="../../d1/da4/cccc__prj_8h.html" target="_top" xlink:title="cccc_prj.h">
<polygon fill="white" stroke="black" points="464,-392.5 464,-411.5 528,-411.5 528,-392.5 464,-392.5"/>
<text text-anchor="middle" x="496" y="-399.5" font-family="Helvetica,sans-Serif" font-size="10.00">cccc_prj.h</text>
</a>
</g>
</g>
<!-- Node25&#45;&gt;Node26 -->
<g id="edge42" class="edge"><title>Node25&#45;&gt;Node26</title>
<path fill="none" stroke="midnightblue" d="M531.899,-448.083C525.763,-440.377 516.73,-429.033 509.261,-419.653"/>
<polygon fill="midnightblue" stroke="midnightblue" points="511.936,-417.394 502.968,-411.751 506.46,-421.754 511.936,-417.394"/>
</g>
<!-- Node27 -->
<g id="node27" class="node"><title>Node27</title>
<g id="a_node27"><a xlink:href="../../dc/da1/cccc__mem_8h.html" target="_top" xlink:title="cccc_mem.h">
<polygon fill="white" stroke="black" points="546,-392.5 546,-411.5 620,-411.5 620,-392.5 546,-392.5"/>
<text text-anchor="middle" x="583" y="-399.5" font-family="Helvetica,sans-Serif" font-size="10.00">cccc_mem.h</text>
</a>
</g>
</g>
<!-- Node25&#45;&gt;Node27 -->
<g id="edge45" class="edge"><title>Node25&#45;&gt;Node27</title>
<path fill="none" stroke="midnightblue" d="M546.266,-448.083C552.545,-440.377 561.788,-429.033 569.431,-419.653"/>
<polygon fill="midnightblue" stroke="midnightblue" points="572.266,-421.714 575.869,-411.751 566.839,-417.293 572.266,-421.714"/>
</g>
<!-- Node28 -->
<g id="node28" class="node"><title>Node28</title>
<g id="a_node28"><a xlink:href="../../d4/d96/cccc__use_8h.html" target="_top" xlink:title="cccc_use.h">
<polygon fill="white" stroke="black" points="638,-392.5 638,-411.5 706,-411.5 706,-392.5 638,-392.5"/>
<text text-anchor="middle" x="672" y="-399.5" font-family="Helvetica,sans-Serif" font-size="10.00">cccc_use.h</text>
</a>
</g>
</g>
<!-- Node25&#45;&gt;Node28 -->
<g id="edge47" class="edge"><title>Node25&#45;&gt;Node28</title>
<path fill="none" stroke="midnightblue" d="M560.074,-448.444C582.06,-439.517 616.734,-425.439 641.664,-415.317"/>
<polygon fill="midnightblue" stroke="midnightblue" points="643.076,-418.521 651.024,-411.516 640.442,-412.035 643.076,-418.521"/>
</g>
<!-- Node26&#45;&gt;Node18 -->
<g id="edge43" class="edge"><title>Node26&#45;&gt;Node18</title>
<path fill="none" stroke="midnightblue" d="M520.56,-392.444C546.523,-383.399 587.668,-369.064 616.797,-358.916"/>
<polygon fill="midnightblue" stroke="midnightblue" points="618.263,-362.112 626.555,-355.516 615.96,-355.501 618.263,-362.112"/>
</g>
<!-- Node27&#45;&gt;Node18 -->
<g id="edge46" class="edge"><title>Node27&#45;&gt;Node18</title>
<path fill="none" stroke="midnightblue" d="M593.925,-392.324C604.175,-384.185 619.721,-371.839 632.001,-362.087"/>
<polygon fill="midnightblue" stroke="midnightblue" points="634.221,-364.794 639.876,-355.834 629.868,-359.312 634.221,-364.794"/>
</g>
<!-- Node28&#45;&gt;Node18 -->
<g id="edge48" class="edge"><title>Node28&#45;&gt;Node18</title>
<path fill="none" stroke="midnightblue" d="M668.532,-392.083C665.688,-384.77 661.571,-374.181 658.04,-365.103"/>
<polygon fill="midnightblue" stroke="midnightblue" points="661.29,-363.803 654.403,-355.751 654.766,-366.34 661.29,-363.803"/>
</g>
</g>
</svg>
