<?xml version="1.0" encoding="UTF-8" standalone="no"?>
<!DOCTYPE svg PUBLIC "-//W3C//DTD SVG 1.1//EN"
 "http://www.w3.org/Graphics/SVG/1.1/DTD/svg11.dtd">
<!-- Generated by graphviz version 2.38.0 (20140413.2041)
 -->
<!-- Title: operator&lt;&lt; Pages: 1 -->
<svg width="224pt" height="78pt"
 viewBox="0.00 0.00 224.00 77.50" xmlns="http://www.w3.org/2000/svg" xmlns:xlink="http://www.w3.org/1999/xlink">
<g id="graph0" class="graph" transform="scale(1 1) rotate(0) translate(4 73.5)">
<title>operator&lt;&lt;</title>
<polygon fill="white" stroke="none" points="-4,4 -4,-73.5 220,-73.5 220,4 -4,4"/>
<!-- Node1 -->
<g id="node1" class="node"><title>Node1</title>
<polygon fill="#bfbfbf" stroke="black" points="0,-28 0,-47 69,-47 69,-28 0,-28"/>
<text text-anchor="middle" x="34.5" y="-35" font-family="Helvetica,sans-Serif" font-size="10.00">operator&lt;&lt;</text>
</g>
<!-- Node2 -->
<g id="node2" class="node"><title>Node2</title>
<g id="a_node2"><a xlink:href="../../db/d75/cccc__xml_8cc.html#a7ef909da28865f4d656d47230acbd3e5" target="_top" xlink:title="ltrim">
<polygon fill="white" stroke="black" points="142.5,-50 142.5,-69 178.5,-69 178.5,-50 142.5,-50"/>
<text text-anchor="middle" x="160.5" y="-57" font-family="Helvetica,sans-Serif" font-size="10.00">ltrim</text>
</a>
</g>
</g>
<!-- Node1&#45;&gt;Node2 -->
<g id="edge1" class="edge"><title>Node1&#45;&gt;Node2</title>
<path fill="none" stroke="midnightblue" d="M69.0562,-43.4535C88.9346,-46.9803 113.794,-51.3908 132.416,-54.6948"/>
<polygon fill="midnightblue" stroke="midnightblue" points="131.855,-58.1498 142.312,-56.4506 133.077,-51.2574 131.855,-58.1498"/>
</g>
<!-- Node3 -->
<g id="node3" class="node"><title>Node3</title>
<g id="a_node3"><a xlink:href="../../dd/d72/classCCCC__Metric.html#a2ae8d7ed4d4d97e3daac85e95a1a2322" target="_top" xlink:title="CCCC_Metric::value\l_string">
<polygon fill="white" stroke="black" points="105,-0.5 105,-30.5 216,-30.5 216,-0.5 105,-0.5"/>
<text text-anchor="start" x="113" y="-18.5" font-family="Helvetica,sans-Serif" font-size="10.00">CCCC_Metric::value</text>
<text text-anchor="middle" x="160.5" y="-7.5" font-family="Helvetica,sans-Serif" font-size="10.00">_string</text>
</a>
</g>
</g>
<!-- Node1&#45;&gt;Node3 -->
<g id="edge2" class="edge"><title>Node1&#45;&gt;Node3</title>
<path fill="none" stroke="midnightblue" d="M69.0562,-31.5465C77.0815,-30.1226 85.9186,-28.5548 94.8294,-26.9738"/>
<polygon fill="midnightblue" stroke="midnightblue" points="95.6472,-30.3835 104.882,-25.1903 94.4243,-23.4911 95.6472,-30.3835"/>
</g>
</g>
</svg>
