<?xml version="1.0" encoding="UTF-8" standalone="no"?>
<!DOCTYPE svg PUBLIC "-//W3C//DTD SVG 1.1//EN"
 "http://www.w3.org/Graphics/SVG/1.1/DTD/svg11.dtd">
<!-- Generated by graphviz version 2.38.0 (20140413.2041)
 -->
<!-- Title: Main::HandleArgs Pages: 1 -->
<!--zoomable 267 -->
<svg id="main" version="1.1" xmlns="http://www.w3.org/2000/svg" xmlns:xlink="http://www.w3.org/1999/xlink" xml:space="preserve" onload="init(evt)">
<style type="text/css"><![CDATA[
.edge:hover path { stroke: red; }
.edge:hover polygon { stroke: red; fill: red; }
]]></style>
<script type="text/javascript"><![CDATA[
var edges = document.getElementsByTagName('g');
if (edges && edges.length) {
  for (var i=0;i<edges.length;i++) {
    if (edges[i].id.substr(0,4)=='edge') {
      edges[i].setAttribute('class','edge');
    }
  }
}
]]></script>
        <defs>
                <circle id="rim" cx="0" cy="0" r="7"/>
                <circle id="rim2" cx="0" cy="0" r="3.5"/>
                <g id="zoomPlus">
                        <use xlink:href="#rim" fill="#404040">
                                <set attributeName="fill" to="#808080" begin="zoomplus.mouseover" end="zoomplus.mouseout"/>
                        </use>
                        <path d="M-4,0h8M0,-4v8" fill="none" stroke="white" stroke-width="1.5" pointer-events="none"/>
                </g>
                <g id="zoomMin">
                        <use xlink:href="#rim" fill="#404040">
                                <set attributeName="fill" to="#808080" begin="zoomminus.mouseover" end="zoomminus.mouseout"/>
                        </use>
                        <path d="M-4,0h8" fill="none" stroke="white" stroke-width="1.5" pointer-events="none"/>
                </g>
                <g id="dirArrow">
                        <path fill="none" stroke="white" stroke-width="1.5" d="M0,-3.0v7 M-2.5,-0.5L0,-3.0L2.5,-0.5"/>
                </g>
               <g id="resetDef">
                       <use xlink:href="#rim2" fill="#404040">
                               <set attributeName="fill" to="#808080" begin="reset.mouseover" end="reset.mouseout"/>
                       </use>
               </g>
        </defs>

<script type="text/javascript">
var viewWidth = 771;
var viewHeight = 267;
var sectionId = 'dynsection-10';
</script>
<script xlink:href="../../svgpan.js"/>
<svg id="graph" class="graph">
<g id="viewport">
<title>Main::HandleArgs</title>
<polygon fill="white" stroke="none" points="-4,4 -4,-263 767,-263 767,4 -4,4"/>
<!-- Node1 -->
<g id="node1" class="node"><title>Node1</title>
<polygon fill="#bfbfbf" stroke="black" points="0,-144.5 0,-163.5 100,-163.5 100,-144.5 0,-144.5"/>
<text text-anchor="middle" x="50" y="-151.5" font-family="Helvetica,sans-Serif" font-size="10.00">Main::HandleArgs</text>
</g>
<!-- Node2 -->
<g id="node2" class="node"><title>Node2</title>
<g id="a_node2"><a xlink:href="../../db/d4a/classMain.html#a95f10823dcf768a027a2c856fd6974a1" target="_top" xlink:title="Main::AddFileArgument">
<polygon fill="white" stroke="black" points="144.5,-239.5 144.5,-258.5 269.5,-258.5 269.5,-239.5 144.5,-239.5"/>
<text text-anchor="middle" x="207" y="-246.5" font-family="Helvetica,sans-Serif" font-size="10.00">Main::AddFileArgument</text>
</a>
</g>
</g>
<!-- Node1&#45;&gt;Node2 -->
<g id="edge1" class="edge"><title>Node1&#45;&gt;Node2</title>
<path fill="none" stroke="midnightblue" d="M60.0743,-163.568C74.7508,-178.552 105.177,-207.633 136,-225 143.562,-229.261 152.008,-232.944 160.345,-236.058"/>
<polygon fill="midnightblue" stroke="midnightblue" points="159.428,-239.445 170.022,-239.453 161.745,-232.84 159.428,-239.445"/>
</g>
<!-- Node3 -->
<g id="node3" class="node"><title>Node3</title>
<g id="a_node3"><a xlink:href="../../db/d4a/classMain.html#a22ae8a510707f18617cdd6bbb9233849" target="_top" xlink:title="Main::PrintUsage">
<polygon fill="white" stroke="black" points="340.5,-182.5 340.5,-201.5 437.5,-201.5 437.5,-182.5 340.5,-182.5"/>
<text text-anchor="middle" x="389" y="-189.5" font-family="Helvetica,sans-Serif" font-size="10.00">Main::PrintUsage</text>
</a>
</g>
</g>
<!-- Node1&#45;&gt;Node3 -->
<g id="edge2" class="edge"><title>Node1&#45;&gt;Node3</title>
<path fill="none" stroke="midnightblue" d="M66.9136,-163.572C83.4904,-172.94 110.548,-186.57 136,-192 201.448,-205.964 278.652,-203.24 330.198,-198.786"/>
<polygon fill="midnightblue" stroke="midnightblue" points="330.835,-202.243 340.474,-197.846 330.197,-195.272 330.835,-202.243"/>
</g>
<!-- Node4 -->
<g id="node4" class="node"><title>Node4</title>
<g id="a_node4"><a xlink:href="../../db/d4a/classMain.html#ac291abc87469adcdbecb2a26e10651b3" target="_top" xlink:title="Main::HandleReportOption">
<polygon fill="white" stroke="black" points="136,-163.5 136,-182.5 278,-182.5 278,-163.5 136,-163.5"/>
<text text-anchor="middle" x="207" y="-170.5" font-family="Helvetica,sans-Serif" font-size="10.00">Main::HandleReportOption</text>
</a>
</g>
</g>
<!-- Node1&#45;&gt;Node4 -->
<g id="edge3" class="edge"><title>Node1&#45;&gt;Node4</title>
<path fill="none" stroke="midnightblue" d="M100.043,-160.012C108.203,-161.012 116.851,-162.072 125.549,-163.138"/>
<polygon fill="midnightblue" stroke="midnightblue" points="125.405,-166.647 135.756,-164.389 126.256,-159.699 125.405,-166.647"/>
</g>
<!-- Node5 -->
<g id="node5" class="node"><title>Node5</title>
<g id="a_node5"><a xlink:href="../../db/d4a/classMain.html#a7bd82c65138e28bc4479a1601557e583" target="_top" xlink:title="Main::HandleDebugOption">
<polygon fill="white" stroke="black" points="137,-125.5 137,-144.5 277,-144.5 277,-125.5 137,-125.5"/>
<text text-anchor="middle" x="207" y="-132.5" font-family="Helvetica,sans-Serif" font-size="10.00">Main::HandleDebugOption</text>
</a>
</g>
</g>
<!-- Node1&#45;&gt;Node5 -->
<g id="edge5" class="edge"><title>Node1&#45;&gt;Node5</title>
<path fill="none" stroke="midnightblue" d="M100.043,-147.988C108.641,-146.934 117.781,-145.814 126.95,-144.69"/>
<polygon fill="midnightblue" stroke="midnightblue" points="127.386,-148.163 136.886,-143.472 126.535,-141.215 127.386,-148.163"/>
</g>
<!-- Node6 -->
<g id="node6" class="node"><title>Node6</title>
<g id="a_node6"><a xlink:href="../../d4/d7f/classCCCC__Options.html#aabf76e7a9edb17ce2eb3ef45359230b7" target="_top" xlink:title="CCCC_Options::Load\l_Options">
<polygon fill="white" stroke="black" points="148,-76 148,-106 266,-106 266,-76 148,-76"/>
<text text-anchor="start" x="156" y="-94" font-family="Helvetica,sans-Serif" font-size="10.00">CCCC_Options::Load</text>
<text text-anchor="middle" x="207" y="-83" font-family="Helvetica,sans-Serif" font-size="10.00">_Options</text>
</a>
</g>
</g>
<!-- Node1&#45;&gt;Node6 -->
<g id="edge6" class="edge"><title>Node1&#45;&gt;Node6</title>
<path fill="none" stroke="midnightblue" d="M71.0773,-144.496C88.1834,-136.526 113.498,-125.032 136,-116 141.37,-113.844 147.007,-111.677 152.652,-109.568"/>
<polygon fill="midnightblue" stroke="midnightblue" points="153.939,-112.824 162.115,-106.086 151.522,-106.254 153.939,-112.824"/>
</g>
<!-- Node12 -->
<g id="node12" class="node"><title>Node12</title>
<g id="a_node12"><a xlink:href="../../d4/d7f/classCCCC__Options.html#a27c73dee154b41fe008291e9df449b48" target="_top" xlink:title="CCCC_Options::Save\l_Options">
<polygon fill="white" stroke="black" points="148,-27 148,-57 266,-57 266,-27 148,-27"/>
<text text-anchor="start" x="156" y="-45" font-family="Helvetica,sans-Serif" font-size="10.00">CCCC_Options::Save</text>
<text text-anchor="middle" x="207" y="-34" font-family="Helvetica,sans-Serif" font-size="10.00">_Options</text>
</a>
</g>
</g>
<!-- Node1&#45;&gt;Node12 -->
<g id="edge14" class="edge"><title>Node1&#45;&gt;Node12</title>
<path fill="none" stroke="midnightblue" d="M57.8291,-144.354C70.9818,-126.444 101.589,-87.8879 136,-66 138.573,-64.3635 141.27,-62.8242 144.047,-61.378"/>
<polygon fill="midnightblue" stroke="midnightblue" points="145.594,-64.5182 153.131,-57.0718 142.595,-58.193 145.594,-64.5182"/>
</g>
<!-- Node4&#45;&gt;Node3 -->
<g id="edge4" class="edge"><title>Node4&#45;&gt;Node3</title>
<path fill="none" stroke="midnightblue" d="M278.108,-180.4C295.357,-182.221 313.631,-184.15 330.223,-185.901"/>
<polygon fill="midnightblue" stroke="midnightblue" points="329.999,-189.397 340.311,-186.966 330.734,-182.436 329.999,-189.397"/>
</g>
<!-- Node7 -->
<g id="node7" class="node"><title>Node7</title>
<g id="a_node7"><a xlink:href="../../d4/d7f/classCCCC__Options.html#ace084425ddde7d4c19657d7e13677ffc" target="_top" xlink:title="CCCC_Options::Add_Option">
<polygon fill="white" stroke="black" points="314,-81.5 314,-100.5 464,-100.5 464,-81.5 314,-81.5"/>
<text text-anchor="middle" x="389" y="-88.5" font-family="Helvetica,sans-Serif" font-size="10.00">CCCC_Options::Add_Option</text>
</a>
</g>
</g>
<!-- Node6&#45;&gt;Node7 -->
<g id="edge7" class="edge"><title>Node6&#45;&gt;Node7</title>
<path fill="none" stroke="midnightblue" d="M266.441,-91C278.348,-91 291.099,-91 303.7,-91"/>
<polygon fill="midnightblue" stroke="midnightblue" points="303.755,-94.5001 313.755,-91 303.755,-87.5001 303.755,-94.5001"/>
</g>
<!-- Node8 -->
<g id="node8" class="node"><title>Node8</title>
<g id="a_node8"><a xlink:href="../../db/d6a/classCCCC__Item.html#aa8e1c13780b4a9191d00b85641cdde1d" target="_top" xlink:title="CCCC_Item::Extract">
<polygon fill="white" stroke="black" points="653,-100.5 653,-119.5 763,-119.5 763,-100.5 653,-100.5"/>
<text text-anchor="middle" x="708" y="-107.5" font-family="Helvetica,sans-Serif" font-size="10.00">CCCC_Item::Extract</text>
</a>
</g>
</g>
<!-- Node7&#45;&gt;Node8 -->
<g id="edge8" class="edge"><title>Node7&#45;&gt;Node8</title>
<path fill="none" stroke="midnightblue" d="M410.948,-100.59C432.683,-109.973 467.919,-123.615 500,-129 551.283,-137.608 565.281,-134.4 617,-129 631.315,-127.505 646.705,-124.708 660.639,-121.711"/>
<polygon fill="midnightblue" stroke="midnightblue" points="661.496,-125.106 670.492,-119.509 659.969,-118.275 661.496,-125.106"/>
</g>
<!-- Node9 -->
<g id="node9" class="node"><title>Node9</title>
<g id="a_node9"><a xlink:href="../../d5/d39/cccc__opt_8cc.html#adaf4ab659cf8a851521a34e7b0b44bf5" target="_top" xlink:title="add_file_extension">
<polygon fill="white" stroke="black" points="505.5,-100.5 505.5,-119.5 611.5,-119.5 611.5,-100.5 505.5,-100.5"/>
<text text-anchor="middle" x="558.5" y="-107.5" font-family="Helvetica,sans-Serif" font-size="10.00">add_file_extension</text>
</a>
</g>
</g>
<!-- Node7&#45;&gt;Node9 -->
<g id="edge9" class="edge"><title>Node7&#45;&gt;Node9</title>
<path fill="none" stroke="midnightblue" d="M464.443,-99.4443C474.689,-100.607 485.123,-101.79 495.122,-102.924"/>
<polygon fill="midnightblue" stroke="midnightblue" points="495.027,-106.436 505.357,-104.085 495.816,-99.4804 495.027,-106.436"/>
</g>
<!-- Node10 -->
<g id="node10" class="node"><title>Node10</title>
<g id="a_node10"><a xlink:href="../../d5/d39/cccc__opt_8cc.html#afe053a52743dabb8c5e585bc2e8761d1" target="_top" xlink:title="add_treatment">
<polygon fill="white" stroke="black" points="515.5,-62.5 515.5,-81.5 601.5,-81.5 601.5,-62.5 515.5,-62.5"/>
<text text-anchor="middle" x="558.5" y="-69.5" font-family="Helvetica,sans-Serif" font-size="10.00">add_treatment</text>
</a>
</g>
</g>
<!-- Node7&#45;&gt;Node10 -->
<g id="edge11" class="edge"><title>Node7&#45;&gt;Node10</title>
<path fill="none" stroke="midnightblue" d="M464.443,-82.5557C478.232,-80.9916 492.361,-79.3889 505.311,-77.9199"/>
<polygon fill="midnightblue" stroke="midnightblue" points="505.873,-81.3787 515.415,-76.7738 505.084,-74.4233 505.873,-81.3787"/>
</g>
<!-- Node11 -->
<g id="node11" class="node"><title>Node11</title>
<g id="a_node11"><a xlink:href="../../d5/d39/cccc__opt_8cc.html#a1e1d75f7f5aad4c636db40a37b60c382" target="_top" xlink:title="add_dialect_keyword">
<polygon fill="white" stroke="black" points="500,-24.5 500,-43.5 617,-43.5 617,-24.5 500,-24.5"/>
<text text-anchor="middle" x="558.5" y="-31.5" font-family="Helvetica,sans-Serif" font-size="10.00">add_dialect_keyword</text>
</a>
</g>
</g>
<!-- Node7&#45;&gt;Node11 -->
<g id="edge12" class="edge"><title>Node7&#45;&gt;Node11</title>
<path fill="none" stroke="midnightblue" d="M420.736,-81.4659C434.09,-77.2117 449.878,-72.0314 464,-67 480.172,-61.2384 483.844,-58.8062 500,-53 505.704,-50.9499 511.756,-48.8594 517.709,-46.8509"/>
<polygon fill="midnightblue" stroke="midnightblue" points="519.175,-50.0516 527.556,-43.5694 516.962,-43.4106 519.175,-50.0516"/>
</g>
<!-- Node9&#45;&gt;Node8 -->
<g id="edge10" class="edge"><title>Node9&#45;&gt;Node8</title>
<path fill="none" stroke="midnightblue" d="M611.503,-110C621.58,-110 632.253,-110 642.67,-110"/>
<polygon fill="midnightblue" stroke="midnightblue" points="642.971,-113.5 652.971,-110 642.971,-106.5 642.971,-113.5"/>
</g>
<!-- Node11&#45;&gt;Node8 -->
<g id="edge13" class="edge"><title>Node11&#45;&gt;Node8</title>
<path fill="none" stroke="midnightblue" d="M593.185,-43.5951C601.142,-46.2794 609.492,-49.4484 617,-53 641.773,-64.7186 668.019,-81.9672 685.734,-94.4184"/>
<polygon fill="midnightblue" stroke="midnightblue" points="683.995,-97.4769 694.168,-100.438 688.062,-91.7793 683.995,-97.4769"/>
</g>
<!-- Node13 -->
<g id="node13" class="node"><title>Node13</title>
<g id="a_node13"><a xlink:href="../../db/d6a/classCCCC__Item.html#a87231c9aa43ece932511d1143b64367e" target="_top" xlink:title="CCCC_Item::Insert">
<polygon fill="white" stroke="black" points="337,-38.5 337,-57.5 441,-57.5 441,-38.5 337,-38.5"/>
<text text-anchor="middle" x="389" y="-45.5" font-family="Helvetica,sans-Serif" font-size="10.00">CCCC_Item::Insert</text>
</a>
</g>
</g>
<!-- Node12&#45;&gt;Node13 -->
<g id="edge15" class="edge"><title>Node12&#45;&gt;Node13</title>
<path fill="none" stroke="midnightblue" d="M266.441,-43.948C285.76,-44.592 307.3,-45.31 326.819,-45.9606"/>
<polygon fill="midnightblue" stroke="midnightblue" points="326.708,-49.4588 336.819,-46.294 326.941,-42.4627 326.708,-49.4588"/>
</g>
<!-- Node14 -->
<g id="node14" class="node"><title>Node14</title>
<g id="a_node14"><a xlink:href="../../db/d6a/classCCCC__Item.html#a5a3ccfe13d6c77b27cf93182f8cafb58" target="_top" xlink:title="CCCC_Item::ToFile">
<polygon fill="white" stroke="black" points="335.5,-0.5 335.5,-19.5 442.5,-19.5 442.5,-0.5 335.5,-0.5"/>
<text text-anchor="middle" x="389" y="-7.5" font-family="Helvetica,sans-Serif" font-size="10.00">CCCC_Item::ToFile</text>
</a>
</g>
</g>
<!-- Node12&#45;&gt;Node14 -->
<g id="edge16" class="edge"><title>Node12&#45;&gt;Node14</title>
<path fill="none" stroke="midnightblue" d="M266.441,-31.6105C285.236,-28.2691 306.134,-24.554 325.227,-21.1596"/>
<polygon fill="midnightblue" stroke="midnightblue" points="326.091,-24.561 335.324,-19.3646 324.866,-17.6691 326.091,-24.561"/>
</g>
</g>
</svg>
        <g id="navigator" transform="translate(0 0)" fill="#404254">
                <rect fill="#f2f5e9" fill-opacity="0.5" stroke="#606060" stroke-width=".5" x="0" y="0" width="60" height="60"/>
                <use id="zoomplus" xlink:href="#zoomPlus" x="17" y="9" onmousedown="handleZoom(evt,'in')"/>
                <use id="zoomminus" xlink:href="#zoomMin" x="42" y="9" onmousedown="handleZoom(evt,'out')"/>
                <use id="reset" xlink:href="#resetDef" x="30" y="36" onmousedown="handleReset()"/>
                <g id="arrowUp" xlink:href="#dirArrow" transform="translate(30 24)" onmousedown="handlePan(0,-1)">
                  <use xlink:href="#rim" fill="#404040">
                        <set attributeName="fill" to="#808080" begin="arrowUp.mouseover" end="arrowUp.mouseout"/>
                  </use>
                  <path fill="none" stroke="white" stroke-width="1.5" d="M0,-3.0v7 M-2.5,-0.5L0,-3.0L2.5,-0.5"/>
                </g>
                <g id="arrowRight" xlink:href="#dirArrow" transform="rotate(90) translate(36 -43)" onmousedown="handlePan(1,0)">
                  <use xlink:href="#rim" fill="#404040">
                        <set attributeName="fill" to="#808080" begin="arrowRight.mouseover" end="arrowRight.mouseout"/>
                  </use>
                  <path fill="none" stroke="white" stroke-width="1.5" d="M0,-3.0v7 M-2.5,-0.5L0,-3.0L2.5,-0.5"/>
                </g>
                <g id="arrowDown" xlink:href="#dirArrow" transform="rotate(180) translate(-30 -48)" onmousedown="handlePan(0,1)">
                  <use xlink:href="#rim" fill="#404040">
                        <set attributeName="fill" to="#808080" begin="arrowDown.mouseover" end="arrowDown.mouseout"/>
                  </use>
                  <path fill="none" stroke="white" stroke-width="1.5" d="M0,-3.0v7 M-2.5,-0.5L0,-3.0L2.5,-0.5"/>
                </g>
                <g id="arrowLeft" xlink:href="#dirArrow" transform="rotate(270) translate(-36 17)" onmousedown="handlePan(-1,0)">
                  <use xlink:href="#rim" fill="#404040">
                        <set attributeName="fill" to="#808080" begin="arrowLeft.mouseover" end="arrowLeft.mouseout"/>
                  </use>
                  <path fill="none" stroke="white" stroke-width="1.5" d="M0,-3.0v7 M-2.5,-0.5L0,-3.0L2.5,-0.5"/>
                </g>
        </g>
        <svg viewBox="0 0 15 15" width="100%" height="30px" preserveAspectRatio="xMaxYMin meet">
         <g id="arrow_out" transform="scale(0.3 0.3)">
          <a xlink:href="classMain_a5628fe4502c55f833e7279fec307f775_cgraph_org.svg" target="_base">
           <rect id="button" ry="5" rx="5" y="6" x="6" height="38" width="38"
                fill="#f2f5e9" fill-opacity="0.5" stroke="#606060" stroke-width="1.0"/>
           <path id="arrow"
             d="M 11.500037,31.436501 C 11.940474,20.09759 22.043105,11.32322 32.158766,21.979434 L 37.068811,17.246167 C 37.068811,17.246167 37.088388,32 37.088388,32 L 22.160133,31.978069 C 22.160133,31.978069 26.997745,27.140456 26.997745,27.140456 C 18.528582,18.264221 13.291696,25.230495 11.500037,31.436501 z"
             style="fill:#404040;"/>
          </a>
         </g>
        </svg>
</svg>
