<?xml version="1.0" encoding="UTF-8" standalone="no"?>
<!DOCTYPE svg PUBLIC "-//W3C//DTD SVG 1.1//EN"
 "http://www.w3.org/Graphics/SVG/1.1/DTD/svg11.dtd">
<!-- Generated by graphviz version 2.38.0 (20140413.2041)
 -->
<!-- Title: Main::DumpDatabase Pages: 1 -->
<!--zoomable 330 -->
<svg id="main" version="1.1" xmlns="http://www.w3.org/2000/svg" xmlns:xlink="http://www.w3.org/1999/xlink" xml:space="preserve" onload="init(evt)">
<style type="text/css"><![CDATA[
.edge:hover path { stroke: red; }
.edge:hover polygon { stroke: red; fill: red; }
]]></style>
<script type="text/javascript"><![CDATA[
var edges = document.getElementsByTagName('g');
if (edges && edges.length) {
  for (var i=0;i<edges.length;i++) {
    if (edges[i].id.substr(0,4)=='edge') {
      edges[i].setAttribute('class','edge');
    }
  }
}
]]></script>
        <defs>
                <circle id="rim" cx="0" cy="0" r="7"/>
                <circle id="rim2" cx="0" cy="0" r="3.5"/>
                <g id="zoomPlus">
                        <use xlink:href="#rim" fill="#404040">
                                <set attributeName="fill" to="#808080" begin="zoomplus.mouseover" end="zoomplus.mouseout"/>
                        </use>
                        <path d="M-4,0h8M0,-4v8" fill="none" stroke="white" stroke-width="1.5" pointer-events="none"/>
                </g>
                <g id="zoomMin">
                        <use xlink:href="#rim" fill="#404040">
                                <set attributeName="fill" to="#808080" begin="zoomminus.mouseover" end="zoomminus.mouseout"/>
                        </use>
                        <path d="M-4,0h8" fill="none" stroke="white" stroke-width="1.5" pointer-events="none"/>
                </g>
                <g id="dirArrow">
                        <path fill="none" stroke="white" stroke-width="1.5" d="M0,-3.0v7 M-2.5,-0.5L0,-3.0L2.5,-0.5"/>
                </g>
               <g id="resetDef">
                       <use xlink:href="#rim2" fill="#404040">
                               <set attributeName="fill" to="#808080" begin="reset.mouseover" end="reset.mouseout"/>
                       </use>
               </g>
        </defs>

<script type="text/javascript">
var viewWidth = 774;
var viewHeight = 330;
var sectionId = 'dynsection-3';
</script>
<script xlink:href="../../svgpan.js"/>
<svg id="graph" class="graph">
<g id="viewport">
<title>Main::DumpDatabase</title>
<polygon fill="white" stroke="none" points="-4,4 -4,-326.419 770,-326.419 770,4 -4,4"/>
<!-- Node1 -->
<g id="node1" class="node"><title>Node1</title>
<polygon fill="#bfbfbf" stroke="black" points="0,-174.5 0,-193.5 116,-193.5 116,-174.5 0,-174.5"/>
<text text-anchor="middle" x="58" y="-181.5" font-family="Helvetica,sans-Serif" font-size="10.00">Main::DumpDatabase</text>
</g>
<!-- Node2 -->
<g id="node2" class="node"><title>Node2</title>
<g id="a_node2"><a xlink:href="../../d4/d6e/classCCCC__Project.html#ad2b4c25d24f7ed427c79bd9c7bd8a971" target="_top" xlink:title="CCCC_Project::ToFile">
<polygon fill="white" stroke="black" points="152,-174.5 152,-193.5 271,-193.5 271,-174.5 152,-174.5"/>
<text text-anchor="middle" x="211.5" y="-181.5" font-family="Helvetica,sans-Serif" font-size="10.00">CCCC_Project::ToFile</text>
</a>
</g>
</g>
<!-- Node1&#45;&gt;Node2 -->
<g id="edge1" class="edge"><title>Node1&#45;&gt;Node2</title>
<path fill="none" stroke="midnightblue" d="M116.276,-184C124.556,-184 133.15,-184 141.629,-184"/>
<polygon fill="midnightblue" stroke="midnightblue" points="141.884,-187.5 151.884,-184 141.884,-180.5 141.884,-187.5"/>
</g>
<!-- Node3 -->
<g id="node3" class="node"><title>Node3</title>
<g id="a_node3"><a xlink:href="../../d8/dcf/classCCCC__Table.html#a0d099c7bc984323270cc8c63d5ff8379" target="_top" xlink:title="CCCC_Table::first_item">
<polygon fill="white" stroke="black" points="479.5,-269.5 479.5,-288.5 605.5,-288.5 605.5,-269.5 479.5,-269.5"/>
<text text-anchor="middle" x="542.5" y="-276.5" font-family="Helvetica,sans-Serif" font-size="10.00">CCCC_Table::first_item</text>
</a>
</g>
</g>
<!-- Node2&#45;&gt;Node3 -->
<g id="edge2" class="edge"><title>Node2&#45;&gt;Node3</title>
<path fill="none" stroke="midnightblue" d="M216.361,-193.795C226.672,-218.404 257.481,-282.599 307,-307 374.329,-340.177 465.281,-311.585 511.64,-292.601"/>
<polygon fill="midnightblue" stroke="midnightblue" points="513.248,-295.722 521.097,-288.606 510.524,-289.273 513.248,-295.722"/>
</g>
<!-- Node4 -->
<g id="node4" class="node"><title>Node4</title>
<g id="a_node4"><a xlink:href="../../d6/d9f/classCCCC__Module.html#a6f7f14ae0bef4dec23385b6abf14331f" target="_top" xlink:title="CCCC_Module::ToFile">
<polygon fill="white" stroke="black" points="311.5,-278.5 311.5,-297.5 432.5,-297.5 432.5,-278.5 311.5,-278.5"/>
<text text-anchor="middle" x="372" y="-285.5" font-family="Helvetica,sans-Serif" font-size="10.00">CCCC_Module::ToFile</text>
</a>
</g>
</g>
<!-- Node2&#45;&gt;Node4 -->
<g id="edge3" class="edge"><title>Node2&#45;&gt;Node4</title>
<path fill="none" stroke="midnightblue" d="M221.583,-193.606C237.519,-209.991 272.145,-243.548 307,-264 314.058,-268.141 321.958,-271.793 329.733,-274.919"/>
<polygon fill="midnightblue" stroke="midnightblue" points="328.5,-278.194 339.091,-278.467 330.982,-271.649 328.5,-278.194"/>
</g>
<!-- Node5 -->
<g id="node5" class="node"><title>Node5</title>
<g id="a_node5"><a xlink:href="../../db/d6a/classCCCC__Item.html#a87231c9aa43ece932511d1143b64367e" target="_top" xlink:title="CCCC_Item::Insert">
<polygon fill="white" stroke="black" points="655,-193.5 655,-212.5 759,-212.5 759,-193.5 655,-193.5"/>
<text text-anchor="middle" x="707" y="-200.5" font-family="Helvetica,sans-Serif" font-size="10.00">CCCC_Item::Insert</text>
</a>
</g>
</g>
<!-- Node2&#45;&gt;Node5 -->
<g id="edge25" class="edge"><title>Node2&#45;&gt;Node5</title>
<path fill="none" stroke="midnightblue" d="M218.332,-174.403C231.278,-154.151 264.646,-107.478 307,-90 432.306,-38.2913 489.267,-32.4499 612,-90 653.589,-109.501 683.166,-157.446 697.062,-184.193"/>
<polygon fill="midnightblue" stroke="midnightblue" points="694.013,-185.921 701.612,-193.303 700.275,-182.793 694.013,-185.921"/>
</g>
<!-- Node6 -->
<g id="node6" class="node"><title>Node6</title>
<g id="a_node6"><a xlink:href="../../db/d6a/classCCCC__Item.html#a5a3ccfe13d6c77b27cf93182f8cafb58" target="_top" xlink:title="CCCC_Item::ToFile">
<polygon fill="white" stroke="black" points="489,-117.5 489,-136.5 596,-136.5 596,-117.5 489,-117.5"/>
<text text-anchor="middle" x="542.5" y="-124.5" font-family="Helvetica,sans-Serif" font-size="10.00">CCCC_Item::ToFile</text>
</a>
</g>
</g>
<!-- Node2&#45;&gt;Node6 -->
<g id="edge27" class="edge"><title>Node2&#45;&gt;Node6</title>
<path fill="none" stroke="midnightblue" d="M220.029,-174.283C234.547,-156.441 268.406,-119.007 307,-105 374.143,-80.6315 458.841,-99.7622 505.873,-114.375"/>
<polygon fill="midnightblue" stroke="midnightblue" points="505.005,-117.772 515.596,-117.499 507.147,-111.107 505.005,-117.772"/>
</g>
<!-- Node7 -->
<g id="node7" class="node"><title>Node7</title>
<g id="a_node7"><a xlink:href="../../df/d99/classCCCC__Extent.html#a6fed4380d820bfad0a27934a62cf15be" target="_top" xlink:title="CCCC_Extent::AddToItem">
<polygon fill="white" stroke="black" points="473,-231.5 473,-250.5 612,-250.5 612,-231.5 473,-231.5"/>
<text text-anchor="middle" x="542.5" y="-238.5" font-family="Helvetica,sans-Serif" font-size="10.00">CCCC_Extent::AddToItem</text>
</a>
</g>
</g>
<!-- Node2&#45;&gt;Node7 -->
<g id="edge26" class="edge"><title>Node2&#45;&gt;Node7</title>
<path fill="none" stroke="midnightblue" d="M227.472,-193.684C245.508,-204.769 277.121,-222.373 307,-230 357.756,-242.957 416.657,-245.676 462.73,-245.172"/>
<polygon fill="midnightblue" stroke="midnightblue" points="463.013,-248.668 472.955,-245.005 462.899,-241.669 463.013,-248.668"/>
</g>
<!-- Node8 -->
<g id="node8" class="node"><title>Node8</title>
<g id="a_node8"><a xlink:href="../../d8/dcf/classCCCC__Table.html#a080274070f7d48b68bd8d3291818d76f" target="_top" xlink:title="CCCC_Table::next_item">
<polygon fill="white" stroke="black" points="478,-155.5 478,-174.5 607,-174.5 607,-155.5 478,-155.5"/>
<text text-anchor="middle" x="542.5" y="-162.5" font-family="Helvetica,sans-Serif" font-size="10.00">CCCC_Table::next_item</text>
</a>
</g>
</g>
<!-- Node2&#45;&gt;Node8 -->
<g id="edge10" class="edge"><title>Node2&#45;&gt;Node8</title>
<path fill="none" stroke="midnightblue" d="M271.319,-180.603C326.268,-177.43 408.501,-172.681 467.804,-169.256"/>
<polygon fill="midnightblue" stroke="midnightblue" points="468.075,-172.746 477.857,-168.675 467.672,-165.758 468.075,-172.746"/>
</g>
<!-- Node9 -->
<g id="node9" class="node"><title>Node9</title>
<g id="a_node9"><a xlink:href="../../dc/d1e/classCCCC__Member.html#a22edd2264d9f7fb3f80fcf7269b624e1" target="_top" xlink:title="CCCC_Member::ToFile">
<polygon fill="white" stroke="black" points="309.5,-114.5 309.5,-133.5 434.5,-133.5 434.5,-114.5 309.5,-114.5"/>
<text text-anchor="middle" x="372" y="-121.5" font-family="Helvetica,sans-Serif" font-size="10.00">CCCC_Member::ToFile</text>
</a>
</g>
</g>
<!-- Node2&#45;&gt;Node9 -->
<g id="edge11" class="edge"><title>Node2&#45;&gt;Node9</title>
<path fill="none" stroke="midnightblue" d="M237.357,-174.49C256.407,-167.212 283.352,-156.938 307,-148 316.392,-144.45 326.567,-140.625 335.981,-137.095"/>
<polygon fill="midnightblue" stroke="midnightblue" points="337.315,-140.332 345.451,-133.546 334.859,-133.777 337.315,-140.332"/>
</g>
<!-- Node12 -->
<g id="node12" class="node"><title>Node12</title>
<g id="a_node12"><a xlink:href="../../d2/d65/classCCCC__UseRelationship.html#ad5a6c8660690de211b0a40b52313ae05" target="_top" xlink:title="CCCC_UseRelationship\l::ToFile">
<polygon fill="white" stroke="black" points="307,-191 307,-221 437,-221 437,-191 307,-191"/>
<text text-anchor="start" x="315" y="-209" font-family="Helvetica,sans-Serif" font-size="10.00">CCCC_UseRelationship</text>
<text text-anchor="middle" x="372" y="-198" font-family="Helvetica,sans-Serif" font-size="10.00">::ToFile</text>
</a>
</g>
</g>
<!-- Node2&#45;&gt;Node12 -->
<g id="edge19" class="edge"><title>Node2&#45;&gt;Node12</title>
<path fill="none" stroke="midnightblue" d="M271.069,-192.129C279.436,-193.291 288.133,-194.498 296.751,-195.694"/>
<polygon fill="midnightblue" stroke="midnightblue" points="296.421,-199.182 306.807,-197.09 297.383,-192.248 296.421,-199.182"/>
</g>
<!-- Node4&#45;&gt;Node3 -->
<g id="edge6" class="edge"><title>Node4&#45;&gt;Node3</title>
<path fill="none" stroke="midnightblue" d="M432.881,-284.802C444.631,-284.174 457.074,-283.509 469.18,-282.863"/>
<polygon fill="midnightblue" stroke="midnightblue" points="469.45,-286.353 479.249,-282.325 469.076,-279.363 469.45,-286.353"/>
</g>
<!-- Node4&#45;&gt;Node5 -->
<g id="edge4" class="edge"><title>Node4&#45;&gt;Node5</title>
<path fill="none" stroke="midnightblue" d="M404.659,-297.526C451.879,-309.964 542.63,-326.949 612,-298 649.263,-282.45 679.302,-244.141 694.719,-221.202"/>
<polygon fill="midnightblue" stroke="midnightblue" points="697.732,-222.989 700.24,-212.695 691.86,-219.178 697.732,-222.989"/>
</g>
<!-- Node4&#45;&gt;Node6 -->
<g id="edge5" class="edge"><title>Node4&#45;&gt;Node6</title>
<path fill="none" stroke="midnightblue" d="M386.582,-278.476C400.739,-267.97 422.804,-249.897 437,-230 460.591,-196.936 442.416,-172.729 473,-146 475.033,-144.223 477.218,-142.612 479.516,-141.15"/>
<polygon fill="midnightblue" stroke="midnightblue" points="481.638,-143.987 488.844,-136.221 478.367,-137.798 481.638,-143.987"/>
</g>
<!-- Node4&#45;&gt;Node7 -->
<g id="edge7" class="edge"><title>Node4&#45;&gt;Node7</title>
<path fill="none" stroke="midnightblue" d="M407.243,-278.39C426.551,-272.977 451.118,-266.098 473,-260 480.86,-257.809 489.23,-255.483 497.321,-253.237"/>
<polygon fill="midnightblue" stroke="midnightblue" points="498.299,-256.598 506.999,-250.552 496.427,-249.853 498.299,-256.598"/>
</g>
<!-- Node4&#45;&gt;Node8 -->
<g id="edge9" class="edge"><title>Node4&#45;&gt;Node8</title>
<path fill="none" stroke="midnightblue" d="M386.222,-278.348C415.26,-257.152 484.822,-206.373 520.143,-180.59"/>
<polygon fill="midnightblue" stroke="midnightblue" points="522.326,-183.33 528.34,-174.607 518.199,-177.676 522.326,-183.33"/>
</g>
<!-- Node7&#45;&gt;Node5 -->
<g id="edge8" class="edge"><title>Node7&#45;&gt;Node5</title>
<path fill="none" stroke="midnightblue" d="M584.506,-231.411C606.046,-226.374 632.635,-220.156 655.441,-214.823"/>
<polygon fill="midnightblue" stroke="midnightblue" points="656.349,-218.205 665.289,-212.52 654.755,-211.389 656.349,-218.205"/>
</g>
<!-- Node9&#45;&gt;Node3 -->
<g id="edge16" class="edge"><title>Node9&#45;&gt;Node3</title>
<path fill="none" stroke="midnightblue" d="M386.764,-133.565C400.866,-143.927 422.695,-161.6 437,-181 459.9,-212.055 443.661,-234.94 473,-260 474.971,-261.683 477.079,-263.218 479.289,-264.618"/>
<polygon fill="midnightblue" stroke="midnightblue" points="477.769,-267.773 488.242,-269.373 481.052,-261.591 477.769,-267.773"/>
</g>
<!-- Node9&#45;&gt;Node5 -->
<g id="edge12" class="edge"><title>Node9&#45;&gt;Node5</title>
<path fill="none" stroke="midnightblue" d="M400.455,-114.498C446.291,-100.274 540.425,-78.1305 612,-108 649.263,-123.55 679.302,-161.859 694.719,-184.798"/>
<polygon fill="midnightblue" stroke="midnightblue" points="691.86,-186.822 700.24,-193.305 697.732,-183.011 691.86,-186.822"/>
</g>
<!-- Node9&#45;&gt;Node6 -->
<g id="edge15" class="edge"><title>Node9&#45;&gt;Node6</title>
<path fill="none" stroke="midnightblue" d="M434.786,-125.1C449.071,-125.354 464.285,-125.625 478.616,-125.88"/>
<polygon fill="midnightblue" stroke="midnightblue" points="478.809,-129.384 488.87,-126.063 478.934,-122.385 478.809,-129.384"/>
</g>
<!-- Node9&#45;&gt;Node7 -->
<g id="edge17" class="edge"><title>Node9&#45;&gt;Node7</title>
<path fill="none" stroke="midnightblue" d="M386.789,-133.575C415.917,-153.8 483.933,-201.028 519.281,-225.572"/>
<polygon fill="midnightblue" stroke="midnightblue" points="517.31,-228.464 527.52,-231.293 521.303,-222.715 517.31,-228.464"/>
</g>
<!-- Node9&#45;&gt;Node8 -->
<g id="edge18" class="edge"><title>Node9&#45;&gt;Node8</title>
<path fill="none" stroke="midnightblue" d="M412.081,-133.509C436.027,-139.336 466.884,-146.844 492.461,-153.068"/>
<polygon fill="midnightblue" stroke="midnightblue" points="491.796,-156.508 502.34,-155.471 493.451,-149.706 491.796,-156.508"/>
</g>
<!-- Node10 -->
<g id="node10" class="node"><title>Node10</title>
<g id="a_node10"><a xlink:href="../../d6/d85/classCCCC__Record.html#a81bf0541981287180a41e3d801e7a084" target="_top" xlink:title="CCCC_Record::key">
<polygon fill="white" stroke="black" points="488.5,-0.5 488.5,-19.5 596.5,-19.5 596.5,-0.5 488.5,-0.5"/>
<text text-anchor="middle" x="542.5" y="-7.5" font-family="Helvetica,sans-Serif" font-size="10.00">CCCC_Record::key</text>
</a>
</g>
</g>
<!-- Node9&#45;&gt;Node10 -->
<g id="edge13" class="edge"><title>Node9&#45;&gt;Node10</title>
<path fill="none" stroke="midnightblue" d="M387.076,-114.477C416.12,-94.8271 482.929,-49.6267 518.398,-25.6299"/>
<polygon fill="midnightblue" stroke="midnightblue" points="520.785,-28.2406 527.106,-19.738 516.863,-22.4428 520.785,-28.2406"/>
</g>
<!-- Node11 -->
<g id="node11" class="node"><title>Node11</title>
<g id="a_node11"><a xlink:href="../../d6/d85/classCCCC__Record.html#a03c15972bea5df4e34930fa4c34e34bd" target="_top" xlink:title="CCCC_Record::name">
<polygon fill="white" stroke="black" points="648,-0.5 648,-19.5 766,-19.5 766,-0.5 648,-0.5"/>
<text text-anchor="middle" x="707" y="-7.5" font-family="Helvetica,sans-Serif" font-size="10.00">CCCC_Record::name</text>
</a>
</g>
</g>
<!-- Node10&#45;&gt;Node11 -->
<g id="edge14" class="edge"><title>Node10&#45;&gt;Node11</title>
<path fill="none" stroke="midnightblue" d="M596.709,-10C609.764,-10 623.921,-10 637.581,-10"/>
<polygon fill="midnightblue" stroke="midnightblue" points="637.904,-13.5001 647.904,-10 637.904,-6.5001 637.904,-13.5001"/>
</g>
<!-- Node12&#45;&gt;Node3 -->
<g id="edge22" class="edge"><title>Node12&#45;&gt;Node3</title>
<path fill="none" stroke="midnightblue" d="M397.317,-221.14C417.117,-232.968 446.096,-249.165 473,-260 478.86,-262.36 485.115,-264.536 491.373,-266.507"/>
<polygon fill="midnightblue" stroke="midnightblue" points="490.57,-269.92 501.153,-269.432 492.576,-263.213 490.57,-269.92"/>
</g>
<!-- Node12&#45;&gt;Node5 -->
<g id="edge20" class="edge"><title>Node12&#45;&gt;Node5</title>
<path fill="none" stroke="midnightblue" d="M437.206,-205.422C497.022,-204.883 585.598,-204.085 644.521,-203.554"/>
<polygon fill="midnightblue" stroke="midnightblue" points="644.833,-207.051 654.801,-203.461 644.77,-200.052 644.833,-207.051"/>
</g>
<!-- Node12&#45;&gt;Node6 -->
<g id="edge21" class="edge"><title>Node12&#45;&gt;Node6</title>
<path fill="none" stroke="midnightblue" d="M394.33,-190.873C413.981,-177.514 444.349,-158.299 473,-146 478.449,-143.661 484.265,-141.531 490.119,-139.613"/>
<polygon fill="midnightblue" stroke="midnightblue" points="491.421,-142.875 499.949,-136.587 489.361,-136.184 491.421,-142.875"/>
</g>
<!-- Node12&#45;&gt;Node7 -->
<g id="edge23" class="edge"><title>Node12&#45;&gt;Node7</title>
<path fill="none" stroke="midnightblue" d="M437.183,-219.332C453.128,-222.644 470.092,-226.167 485.603,-229.389"/>
<polygon fill="midnightblue" stroke="midnightblue" points="485.059,-232.851 495.562,-231.458 486.483,-225.997 485.059,-232.851"/>
</g>
<!-- Node12&#45;&gt;Node8 -->
<g id="edge24" class="edge"><title>Node12&#45;&gt;Node8</title>
<path fill="none" stroke="midnightblue" d="M434.786,-190.966C453.806,-186.338 474.474,-181.309 492.511,-176.92"/>
<polygon fill="midnightblue" stroke="midnightblue" points="493.344,-180.32 502.233,-174.554 491.689,-173.518 493.344,-180.32"/>
</g>
</g>
</svg>
        <g id="navigator" transform="translate(0 0)" fill="#404254">
                <rect fill="#f2f5e9" fill-opacity="0.5" stroke="#606060" stroke-width=".5" x="0" y="0" width="60" height="60"/>
                <use id="zoomplus" xlink:href="#zoomPlus" x="17" y="9" onmousedown="handleZoom(evt,'in')"/>
                <use id="zoomminus" xlink:href="#zoomMin" x="42" y="9" onmousedown="handleZoom(evt,'out')"/>
                <use id="reset" xlink:href="#resetDef" x="30" y="36" onmousedown="handleReset()"/>
                <g id="arrowUp" xlink:href="#dirArrow" transform="translate(30 24)" onmousedown="handlePan(0,-1)">
                  <use xlink:href="#rim" fill="#404040">
                        <set attributeName="fill" to="#808080" begin="arrowUp.mouseover" end="arrowUp.mouseout"/>
                  </use>
                  <path fill="none" stroke="white" stroke-width="1.5" d="M0,-3.0v7 M-2.5,-0.5L0,-3.0L2.5,-0.5"/>
                </g>
                <g id="arrowRight" xlink:href="#dirArrow" transform="rotate(90) translate(36 -43)" onmousedown="handlePan(1,0)">
                  <use xlink:href="#rim" fill="#404040">
                        <set attributeName="fill" to="#808080" begin="arrowRight.mouseover" end="arrowRight.mouseout"/>
                  </use>
                  <path fill="none" stroke="white" stroke-width="1.5" d="M0,-3.0v7 M-2.5,-0.5L0,-3.0L2.5,-0.5"/>
                </g>
                <g id="arrowDown" xlink:href="#dirArrow" transform="rotate(180) translate(-30 -48)" onmousedown="handlePan(0,1)">
                  <use xlink:href="#rim" fill="#404040">
                        <set attributeName="fill" to="#808080" begin="arrowDown.mouseover" end="arrowDown.mouseout"/>
                  </use>
                  <path fill="none" stroke="white" stroke-width="1.5" d="M0,-3.0v7 M-2.5,-0.5L0,-3.0L2.5,-0.5"/>
                </g>
                <g id="arrowLeft" xlink:href="#dirArrow" transform="rotate(270) translate(-36 17)" onmousedown="handlePan(-1,0)">
                  <use xlink:href="#rim" fill="#404040">
                        <set attributeName="fill" to="#808080" begin="arrowLeft.mouseover" end="arrowLeft.mouseout"/>
                  </use>
                  <path fill="none" stroke="white" stroke-width="1.5" d="M0,-3.0v7 M-2.5,-0.5L0,-3.0L2.5,-0.5"/>
                </g>
        </g>
        <svg viewBox="0 0 15 15" width="100%" height="30px" preserveAspectRatio="xMaxYMin meet">
         <g id="arrow_out" transform="scale(0.3 0.3)">
          <a xlink:href="classMain_a73e7ee7cdbee235ec767f6d66b595b5e_cgraph_org.svg" target="_base">
           <rect id="button" ry="5" rx="5" y="6" x="6" height="38" width="38"
                fill="#f2f5e9" fill-opacity="0.5" stroke="#606060" stroke-width="1.0"/>
           <path id="arrow"
             d="M 11.500037,31.436501 C 11.940474,20.09759 22.043105,11.32322 32.158766,21.979434 L 37.068811,17.246167 C 37.068811,17.246167 37.088388,32 37.088388,32 L 22.160133,31.978069 C 22.160133,31.978069 26.997745,27.140456 26.997745,27.140456 C 18.528582,18.264221 13.291696,25.230495 11.500037,31.436501 z"
             style="fill:#404040;"/>
          </a>
         </g>
        </svg>
</svg>
