<?xml version="1.0" encoding="UTF-8" standalone="no"?>
<!DOCTYPE svg PUBLIC "-//W3C//DTD SVG 1.1//EN"
 "http://www.w3.org/Graphics/SVG/1.1/DTD/svg11.dtd">
<!-- Generated by graphviz version 2.38.0 (20140413.2041)
 -->
<!-- Title: Main::LoadDatabase Pages: 1 -->
<svg width="803pt" height="368pt"
 viewBox="0.00 0.00 803.00 367.50" xmlns="http://www.w3.org/2000/svg" xmlns:xlink="http://www.w3.org/1999/xlink">
<g id="graph0" class="graph" transform="scale(1 1) rotate(0) translate(4 363.5)">
<title>Main::LoadDatabase</title>
<polygon fill="white" stroke="none" points="-4,4 -4,-363.5 799,-363.5 799,4 -4,4"/>
<!-- Node1 -->
<g id="node1" class="node"><title>Node1</title>
<polygon fill="#bfbfbf" stroke="black" points="0,-170.5 0,-189.5 113,-189.5 113,-170.5 0,-170.5"/>
<text text-anchor="middle" x="56.5" y="-177.5" font-family="Helvetica,sans-Serif" font-size="10.00">Main::LoadDatabase</text>
</g>
<!-- Node2 -->
<g id="node2" class="node"><title>Node2</title>
<g id="a_node2"><a xlink:href="../../d4/d6e/classCCCC__Project.html#a189af779423cacf2ee6cbb9f738392cc" target="_top" xlink:title="CCCC_Project::FromFile">
<polygon fill="white" stroke="black" points="149,-170.5 149,-189.5 280,-189.5 280,-170.5 149,-170.5"/>
<text text-anchor="middle" x="214.5" y="-177.5" font-family="Helvetica,sans-Serif" font-size="10.00">CCCC_Project::FromFile</text>
</a>
</g>
</g>
<!-- Node1&#45;&gt;Node2 -->
<g id="edge1" class="edge"><title>Node1&#45;&gt;Node2</title>
<path fill="none" stroke="midnightblue" d="M113.379,-180C121.674,-180 130.332,-180 138.935,-180"/>
<polygon fill="midnightblue" stroke="midnightblue" points="138.983,-183.5 148.983,-180 138.983,-176.5 138.983,-183.5"/>
</g>
<!-- Node3 -->
<g id="node3" class="node"><title>Node3</title>
<g id="a_node3"><a xlink:href="../../d6/d85/classCCCC__Record.html#a06a849607bc79cf49a3499e93a419690" target="_top" xlink:title="CCCC_Record::set_active\l_project">
<polygon fill="white" stroke="black" points="316,-329 316,-359 456,-359 456,-329 316,-329"/>
<text text-anchor="start" x="324" y="-347" font-family="Helvetica,sans-Serif" font-size="10.00">CCCC_Record::set_active</text>
<text text-anchor="middle" x="386" y="-336" font-family="Helvetica,sans-Serif" font-size="10.00">_project</text>
</a>
</g>
</g>
<!-- Node2&#45;&gt;Node3 -->
<g id="edge2" class="edge"><title>Node2&#45;&gt;Node3</title>
<path fill="none" stroke="midnightblue" d="M220.494,-189.788C233.272,-213.967 269.454,-277.221 316,-314 320.91,-317.88 326.399,-321.358 332.077,-324.449"/>
<polygon fill="midnightblue" stroke="midnightblue" points="330.596,-327.621 341.102,-328.99 333.742,-321.368 330.596,-327.621"/>
</g>
<!-- Node4 -->
<g id="node4" class="node"><title>Node4</title>
<g id="a_node4"><a xlink:href="../../d8/d19/cccc__db_8cc.html#a927bd440a1aaf7c7b9a1e83354aace57" target="_top" xlink:title="PeekAtNextLinePrefix">
<polygon fill="white" stroke="black" points="507,-278.5 507,-297.5 626,-297.5 626,-278.5 507,-278.5"/>
<text text-anchor="middle" x="566.5" y="-285.5" font-family="Helvetica,sans-Serif" font-size="10.00">PeekAtNextLinePrefix</text>
</a>
</g>
</g>
<!-- Node2&#45;&gt;Node4 -->
<g id="edge3" class="edge"><title>Node2&#45;&gt;Node4</title>
<path fill="none" stroke="midnightblue" d="M223.102,-189.652C238.391,-208.251 274.93,-248.738 316,-266 373.594,-290.206 445.127,-294.172 496.812,-292.991"/>
<polygon fill="midnightblue" stroke="midnightblue" points="496.984,-296.488 506.875,-292.691 496.775,-289.491 496.984,-296.488"/>
</g>
<!-- Node5 -->
<g id="node5" class="node"><title>Node5</title>
<g id="a_node5"><a xlink:href="../../d6/d9f/classCCCC__Module.html#aa7d31814771b76de1477cc6c830000ec" target="_top" xlink:title="CCCC_Module::FromFile">
<polygon fill="white" stroke="black" points="320,-214.5 320,-233.5 452,-233.5 452,-214.5 320,-214.5"/>
<text text-anchor="middle" x="386" y="-221.5" font-family="Helvetica,sans-Serif" font-size="10.00">CCCC_Module::FromFile</text>
</a>
</g>
</g>
<!-- Node2&#45;&gt;Node5 -->
<g id="edge4" class="edge"><title>Node2&#45;&gt;Node5</title>
<path fill="none" stroke="midnightblue" d="M252.279,-189.547C277.6,-196.12 311.44,-204.905 338.612,-211.958"/>
<polygon fill="midnightblue" stroke="midnightblue" points="337.734,-215.346 348.293,-214.471 339.493,-208.571 337.734,-215.346"/>
</g>
<!-- Node6 -->
<g id="node6" class="node"><title>Node6</title>
<g id="a_node6"><a xlink:href="../../db/d6a/classCCCC__Item.html#a032272ebee4fc350bcac563774493725" target="_top" xlink:title="CCCC_Item::FromFile">
<polygon fill="white" stroke="black" points="507.5,-240.5 507.5,-259.5 625.5,-259.5 625.5,-240.5 507.5,-240.5"/>
<text text-anchor="middle" x="566.5" y="-247.5" font-family="Helvetica,sans-Serif" font-size="10.00">CCCC_Item::FromFile</text>
</a>
</g>
</g>
<!-- Node2&#45;&gt;Node6 -->
<g id="edge29" class="edge"><title>Node2&#45;&gt;Node6</title>
<path fill="none" stroke="midnightblue" d="M226.272,-189.541C243.683,-204.278 279.735,-232.02 316,-243 375.268,-260.944 446.114,-261.036 497.143,-257.615"/>
<polygon fill="midnightblue" stroke="midnightblue" points="497.68,-261.085 507.397,-256.863 497.168,-254.104 497.68,-261.085"/>
</g>
<!-- Node8 -->
<g id="node8" class="node"><title>Node8</title>
<g id="a_node8"><a xlink:href="../../d8/dcf/classCCCC__Table.html#a8e08fe4f6edb07f1fbf2813c66bb3606" target="_top" xlink:title="CCCC_Table::find_or\l_insert">
<polygon fill="white" stroke="black" points="508.5,-77 508.5,-107 624.5,-107 624.5,-77 508.5,-77"/>
<text text-anchor="start" x="516.5" y="-95" font-family="Helvetica,sans-Serif" font-size="10.00">CCCC_Table::find_or</text>
<text text-anchor="middle" x="566.5" y="-84" font-family="Helvetica,sans-Serif" font-size="10.00">_insert</text>
</a>
</g>
</g>
<!-- Node2&#45;&gt;Node8 -->
<g id="edge31" class="edge"><title>Node2&#45;&gt;Node8</title>
<path fill="none" stroke="midnightblue" d="M221.265,-170.341C234.673,-148.953 270.316,-97.9892 316,-79 376.58,-53.8188 452.67,-62.9311 504.796,-74.604"/>
<polygon fill="midnightblue" stroke="midnightblue" points="504.031,-78.0195 514.565,-76.8844 505.622,-71.2028 504.031,-78.0195"/>
</g>
<!-- Node9 -->
<g id="node9" class="node"><title>Node9</title>
<g id="a_node9"><a xlink:href="../../df/d99/classCCCC__Extent.html#abaf126bf784cc83e12eb98434674c4df" target="_top" xlink:title="CCCC_Extent::GetFromItem">
<polygon fill="white" stroke="black" points="492,-126.5 492,-145.5 641,-145.5 641,-126.5 492,-126.5"/>
<text text-anchor="middle" x="566.5" y="-133.5" font-family="Helvetica,sans-Serif" font-size="10.00">CCCC_Extent::GetFromItem</text>
</a>
</g>
</g>
<!-- Node2&#45;&gt;Node9 -->
<g id="edge30" class="edge"><title>Node2&#45;&gt;Node9</title>
<path fill="none" stroke="midnightblue" d="M247.802,-170.498C267.369,-165.11 292.925,-158.722 316,-155 370.854,-146.153 433.175,-141.403 481.81,-138.865"/>
<polygon fill="midnightblue" stroke="midnightblue" points="482.161,-142.352 491.973,-138.357 481.811,-135.361 482.161,-142.352"/>
</g>
<!-- Node12 -->
<g id="node12" class="node"><title>Node12</title>
<g id="a_node12"><a xlink:href="../../d8/d19/cccc__db_8cc.html#a74ff1b8c4eed1e0645812a96d43db24c" target="_top" xlink:title="DisposeOfImportRecord">
<polygon fill="white" stroke="black" points="320.5,-12.5 320.5,-31.5 451.5,-31.5 451.5,-12.5 320.5,-12.5"/>
<text text-anchor="middle" x="386" y="-19.5" font-family="Helvetica,sans-Serif" font-size="10.00">DisposeOfImportRecord</text>
</a>
</g>
</g>
<!-- Node2&#45;&gt;Node12 -->
<g id="edge13" class="edge"><title>Node2&#45;&gt;Node12</title>
<path fill="none" stroke="midnightblue" d="M220.146,-170.352C232.376,-145.941 267.866,-81.17 316,-46 321.844,-41.7302 328.51,-38.1715 335.343,-35.219"/>
<polygon fill="midnightblue" stroke="midnightblue" points="336.663,-38.4609 344.701,-31.5587 334.113,-31.9418 336.663,-38.4609"/>
</g>
<!-- Node13 -->
<g id="node13" class="node"><title>Node13</title>
<g id="a_node13"><a xlink:href="../../dc/d1e/classCCCC__Member.html#a5b4510004fda956c909278337ae19236" target="_top" xlink:title="CCCC_Member::FromFile">
<polygon fill="white" stroke="black" points="318,-88.5 318,-107.5 454,-107.5 454,-88.5 318,-88.5"/>
<text text-anchor="middle" x="386" y="-95.5" font-family="Helvetica,sans-Serif" font-size="10.00">CCCC_Member::FromFile</text>
</a>
</g>
</g>
<!-- Node2&#45;&gt;Node13 -->
<g id="edge14" class="edge"><title>Node2&#45;&gt;Node13</title>
<path fill="none" stroke="midnightblue" d="M230.017,-170.448C249.152,-158.137 284.125,-136.583 316,-122 324.902,-117.927 334.709,-114.128 344.066,-110.809"/>
<polygon fill="midnightblue" stroke="midnightblue" points="345.278,-114.093 353.596,-107.532 343.002,-107.474 345.278,-114.093"/>
</g>
<!-- Node15 -->
<g id="node15" class="node"><title>Node15</title>
<g id="a_node15"><a xlink:href="../../d2/d65/classCCCC__UseRelationship.html#aa1b47ba57ddfff5db36294ab4d4631d5" target="_top" xlink:title="CCCC_UseRelationship\l::FromFile">
<polygon fill="white" stroke="black" points="321,-165 321,-195 451,-195 451,-165 321,-165"/>
<text text-anchor="start" x="329" y="-183" font-family="Helvetica,sans-Serif" font-size="10.00">CCCC_UseRelationship</text>
<text text-anchor="middle" x="386" y="-172" font-family="Helvetica,sans-Serif" font-size="10.00">::FromFile</text>
</a>
</g>
</g>
<!-- Node2&#45;&gt;Node15 -->
<g id="edge22" class="edge"><title>Node2&#45;&gt;Node15</title>
<path fill="none" stroke="midnightblue" d="M280.064,-180C290.098,-180 300.533,-180 310.76,-180"/>
<polygon fill="midnightblue" stroke="midnightblue" points="310.896,-183.5 320.896,-180 310.896,-176.5 310.896,-183.5"/>
</g>
<!-- Node5&#45;&gt;Node4 -->
<g id="edge8" class="edge"><title>Node5&#45;&gt;Node4</title>
<path fill="none" stroke="midnightblue" d="M406.775,-233.548C427.623,-243.358 461.593,-258.621 492,-269 499.112,-271.427 506.701,-273.716 514.204,-275.807"/>
<polygon fill="midnightblue" stroke="midnightblue" points="513.401,-279.216 523.968,-278.438 515.222,-272.457 513.401,-279.216"/>
</g>
<!-- Node5&#45;&gt;Node6 -->
<g id="edge5" class="edge"><title>Node5&#45;&gt;Node6</title>
<path fill="none" stroke="midnightblue" d="M452.2,-233.497C466.847,-235.63 482.426,-237.9 497.195,-240.051"/>
<polygon fill="midnightblue" stroke="midnightblue" points="496.869,-243.54 507.269,-241.518 497.878,-236.613 496.869,-243.54"/>
</g>
<!-- Node7 -->
<g id="node7" class="node"><title>Node7</title>
<g id="a_node7"><a xlink:href="../../db/d6a/classCCCC__Item.html#aa8e1c13780b4a9191d00b85641cdde1d" target="_top" xlink:title="CCCC_Item::Extract">
<polygon fill="white" stroke="black" points="681,-145.5 681,-164.5 791,-164.5 791,-145.5 681,-145.5"/>
<text text-anchor="middle" x="736" y="-152.5" font-family="Helvetica,sans-Serif" font-size="10.00">CCCC_Item::Extract</text>
</a>
</g>
</g>
<!-- Node5&#45;&gt;Node7 -->
<g id="edge6" class="edge"><title>Node5&#45;&gt;Node7</title>
<path fill="none" stroke="midnightblue" d="M395,-233.643C411.075,-252.167 449.419,-292.203 492,-307 554.553,-328.738 587.587,-346.146 641,-307 683.856,-275.592 644.915,-235.352 677,-193 684.18,-183.523 694.452,-175.702 704.363,-169.671"/>
<polygon fill="midnightblue" stroke="midnightblue" points="706.281,-172.607 713.263,-164.638 702.836,-166.513 706.281,-172.607"/>
</g>
<!-- Node5&#45;&gt;Node8 -->
<g id="edge7" class="edge"><title>Node5&#45;&gt;Node8</title>
<path fill="none" stroke="midnightblue" d="M439.411,-214.382C445.453,-211.72 451.168,-208.326 456,-204 487.175,-176.085 461.472,-145.621 492,-117 494.409,-114.741 497.03,-112.686 499.801,-110.816"/>
<polygon fill="midnightblue" stroke="midnightblue" points="501.624,-113.805 508.498,-105.743 498.097,-107.758 501.624,-113.805"/>
</g>
<!-- Node5&#45;&gt;Node9 -->
<g id="edge9" class="edge"><title>Node5&#45;&gt;Node9</title>
<path fill="none" stroke="midnightblue" d="M427.072,-214.394C436.729,-211.534 446.885,-208.059 456,-204 488.555,-189.504 522.98,-166.729 544.351,-151.585"/>
<polygon fill="midnightblue" stroke="midnightblue" points="546.59,-154.286 552.667,-145.608 542.504,-148.602 546.59,-154.286"/>
</g>
<!-- Node10 -->
<g id="node10" class="node"><title>Node10</title>
<g id="a_node10"><a xlink:href="../../d6/d85/classCCCC__Record.html#a81bf0541981287180a41e3d801e7a084" target="_top" xlink:title="CCCC_Record::key">
<polygon fill="white" stroke="black" points="512.5,-202.5 512.5,-221.5 620.5,-221.5 620.5,-202.5 512.5,-202.5"/>
<text text-anchor="middle" x="566.5" y="-209.5" font-family="Helvetica,sans-Serif" font-size="10.00">CCCC_Record::key</text>
</a>
</g>
</g>
<!-- Node5&#45;&gt;Node10 -->
<g id="edge11" class="edge"><title>Node5&#45;&gt;Node10</title>
<path fill="none" stroke="midnightblue" d="M452.2,-219.617C468.458,-218.524 485.866,-217.354 502.038,-216.266"/>
<polygon fill="midnightblue" stroke="midnightblue" points="502.72,-219.728 512.463,-215.566 502.25,-212.744 502.72,-219.728"/>
</g>
<!-- Node9&#45;&gt;Node7 -->
<g id="edge10" class="edge"><title>Node9&#45;&gt;Node7</title>
<path fill="none" stroke="midnightblue" d="M641.456,-144.389C651.109,-145.484 660.939,-146.599 670.423,-147.675"/>
<polygon fill="midnightblue" stroke="midnightblue" points="670.222,-151.174 680.552,-148.824 671.011,-144.219 670.222,-151.174"/>
</g>
<!-- Node11 -->
<g id="node11" class="node"><title>Node11</title>
<g id="a_node11"><a xlink:href="../../d6/d85/classCCCC__Record.html#a03c15972bea5df4e34930fa4c34e34bd" target="_top" xlink:title="CCCC_Record::name">
<polygon fill="white" stroke="black" points="677,-202.5 677,-221.5 795,-221.5 795,-202.5 677,-202.5"/>
<text text-anchor="middle" x="736" y="-209.5" font-family="Helvetica,sans-Serif" font-size="10.00">CCCC_Record::name</text>
</a>
</g>
</g>
<!-- Node10&#45;&gt;Node11 -->
<g id="edge12" class="edge"><title>Node10&#45;&gt;Node11</title>
<path fill="none" stroke="midnightblue" d="M620.959,-212C635.428,-212 651.291,-212 666.464,-212"/>
<polygon fill="midnightblue" stroke="midnightblue" points="666.834,-215.5 676.833,-212 666.833,-208.5 666.834,-215.5"/>
</g>
<!-- Node13&#45;&gt;Node4 -->
<g id="edge19" class="edge"><title>Node13&#45;&gt;Node4</title>
<path fill="none" stroke="midnightblue" d="M403.264,-107.525C418.918,-117.487 442.191,-134.514 456,-155 485.698,-199.058 453.449,-232.436 492,-269 493.883,-270.786 495.91,-272.409 498.05,-273.884"/>
<polygon fill="midnightblue" stroke="midnightblue" points="496.365,-276.953 506.785,-278.873 499.837,-270.874 496.365,-276.953"/>
</g>
<!-- Node13&#45;&gt;Node6 -->
<g id="edge15" class="edge"><title>Node13&#45;&gt;Node6</title>
<path fill="none" stroke="midnightblue" d="M402.106,-107.567C417.305,-117.803 440.635,-135.258 456,-155 478.956,-184.495 463.191,-207.189 492,-231 494.045,-232.69 496.222,-234.231 498.498,-235.637"/>
<polygon fill="midnightblue" stroke="midnightblue" points="497.213,-238.914 507.701,-240.417 500.439,-232.702 497.213,-238.914"/>
</g>
<!-- Node13&#45;&gt;Node7 -->
<g id="edge16" class="edge"><title>Node13&#45;&gt;Node7</title>
<path fill="none" stroke="midnightblue" d="M408.972,-88.4176C454.15,-70.1759 560.018,-35.009 641,-67 676.657,-81.0859 706.726,-115.793 722.691,-137.17"/>
<polygon fill="midnightblue" stroke="midnightblue" points="719.954,-139.358 728.645,-145.417 725.629,-135.26 719.954,-139.358"/>
</g>
<!-- Node13&#45;&gt;Node8 -->
<g id="edge18" class="edge"><title>Node13&#45;&gt;Node8</title>
<path fill="none" stroke="midnightblue" d="M454.229,-95.7402C468.543,-95.259 483.664,-94.7508 497.989,-94.2693"/>
<polygon fill="midnightblue" stroke="midnightblue" points="498.379,-97.7582 508.256,-93.9242 498.144,-90.7622 498.379,-97.7582"/>
</g>
<!-- Node13&#45;&gt;Node9 -->
<g id="edge20" class="edge"><title>Node13&#45;&gt;Node9</title>
<path fill="none" stroke="midnightblue" d="M432.043,-107.589C456.023,-112.694 485.698,-119.011 510.972,-124.392"/>
<polygon fill="midnightblue" stroke="midnightblue" points="510.271,-127.821 520.781,-126.48 511.729,-120.974 510.271,-127.821"/>
</g>
<!-- Node13&#45;&gt;Node10 -->
<g id="edge21" class="edge"><title>Node13&#45;&gt;Node10</title>
<path fill="none" stroke="midnightblue" d="M401.912,-107.523C432.809,-127.256 504.056,-172.758 541.505,-196.675"/>
<polygon fill="midnightblue" stroke="midnightblue" points="539.941,-199.829 550.252,-202.262 543.708,-193.93 539.941,-199.829"/>
</g>
<!-- Node14 -->
<g id="node14" class="node"><title>Node14</title>
<g id="a_node14"><a xlink:href="../../d8/dcf/classCCCC__Table.html#a3a7ba7fd705a066ae69c4776b4d7e1f4" target="_top" xlink:title="CCCC_Table::find">
<polygon fill="white" stroke="black" points="516,-0.5 516,-19.5 617,-19.5 617,-0.5 516,-0.5"/>
<text text-anchor="middle" x="566.5" y="-7.5" font-family="Helvetica,sans-Serif" font-size="10.00">CCCC_Table::find</text>
</a>
</g>
</g>
<!-- Node13&#45;&gt;Node14 -->
<g id="edge17" class="edge"><title>Node13&#45;&gt;Node14</title>
<path fill="none" stroke="midnightblue" d="M400.363,-88.4507C419.784,-74.9045 457.289,-49.9825 492,-34 501.236,-29.7472 511.442,-25.9099 521.234,-22.6145"/>
<polygon fill="midnightblue" stroke="midnightblue" points="522.403,-25.9151 530.838,-19.5045 520.246,-19.2556 522.403,-25.9151"/>
</g>
<!-- Node15&#45;&gt;Node4 -->
<g id="edge26" class="edge"><title>Node15&#45;&gt;Node4</title>
<path fill="none" stroke="midnightblue" d="M440.742,-195.04C446.215,-197.836 451.431,-201.128 456,-205 480.898,-226.099 466.132,-249.102 492,-269 494.351,-270.808 496.856,-272.445 499.47,-273.927"/>
<polygon fill="midnightblue" stroke="midnightblue" points="498.187,-277.194 508.714,-278.392 501.232,-270.891 498.187,-277.194"/>
</g>
<!-- Node15&#45;&gt;Node6 -->
<g id="edge23" class="edge"><title>Node15&#45;&gt;Node6</title>
<path fill="none" stroke="midnightblue" d="M434.155,-195.092C441.616,-198.044 449.13,-201.366 456,-205 473.446,-214.228 474.137,-222.607 492,-231 497.07,-233.382 502.482,-235.497 507.983,-237.367"/>
<polygon fill="midnightblue" stroke="midnightblue" points="507.338,-240.833 517.927,-240.476 509.426,-234.151 507.338,-240.833"/>
</g>
<!-- Node15&#45;&gt;Node7 -->
<g id="edge24" class="edge"><title>Node15&#45;&gt;Node7</title>
<path fill="none" stroke="midnightblue" d="M451.234,-175.385C513.742,-170.895 608.193,-164.11 670.717,-159.618"/>
<polygon fill="midnightblue" stroke="midnightblue" points="671.128,-163.098 680.852,-158.89 670.627,-156.116 671.128,-163.098"/>
</g>
<!-- Node15&#45;&gt;Node8 -->
<g id="edge25" class="edge"><title>Node15&#45;&gt;Node8</title>
<path fill="none" stroke="midnightblue" d="M409.176,-164.791C429.919,-151.032 462.106,-130.86 492,-117 496.694,-114.823 501.634,-112.738 506.639,-110.764"/>
<polygon fill="midnightblue" stroke="midnightblue" points="508.182,-113.922 516.299,-107.113 505.707,-107.375 508.182,-113.922"/>
</g>
<!-- Node15&#45;&gt;Node9 -->
<g id="edge27" class="edge"><title>Node15&#45;&gt;Node9</title>
<path fill="none" stroke="midnightblue" d="M447.93,-164.981C470.512,-159.414 495.792,-153.183 517.107,-147.929"/>
<polygon fill="midnightblue" stroke="midnightblue" points="518.038,-151.304 526.91,-145.512 516.363,-144.508 518.038,-151.304"/>
</g>
<!-- Node15&#45;&gt;Node10 -->
<g id="edge28" class="edge"><title>Node15&#45;&gt;Node10</title>
<path fill="none" stroke="midnightblue" d="M451.19,-191.508C467.827,-194.49 485.728,-197.699 502.313,-200.672"/>
<polygon fill="midnightblue" stroke="midnightblue" points="501.986,-204.169 512.447,-202.489 503.221,-197.279 501.986,-204.169"/>
</g>
</g>
</svg>
