<?xml version="1.0" encoding="UTF-8" standalone="no"?>
<!DOCTYPE svg PUBLIC "-//W3C//DTD SVG 1.1//EN"
 "http://www.w3.org/Graphics/SVG/1.1/DTD/svg11.dtd">
<!-- Generated by graphviz version 2.38.0 (20140413.2041)
 -->
<!-- Title: Main::GenerateHtml Pages: 1 -->
<svg width="666pt" height="78pt"
 viewBox="0.00 0.00 666.00 77.50" xmlns="http://www.w3.org/2000/svg" xmlns:xlink="http://www.w3.org/1999/xlink">
<g id="graph0" class="graph" transform="scale(1 1) rotate(0) translate(4 73.5)">
<title>Main::GenerateHtml</title>
<polygon fill="white" stroke="none" points="-4,4 -4,-73.5 662,-73.5 662,4 -4,4"/>
<!-- Node1 -->
<g id="node1" class="node"><title>Node1</title>
<polygon fill="#bfbfbf" stroke="black" points="0,-28 0,-47 110,-47 110,-28 0,-28"/>
<text text-anchor="middle" x="55" y="-35" font-family="Helvetica,sans-Serif" font-size="10.00">Main::GenerateHtml</text>
</g>
<!-- Node2 -->
<g id="node2" class="node"><title>Node2</title>
<g id="a_node2"><a xlink:href="../../d2/d92/classCCCC__Html__Stream.html#a00291e1eff600f8ae50d83b08322592b" target="_top" xlink:title="CCCC_Html_Stream::Generate\lReports">
<polygon fill="white" stroke="black" points="146,-22.5 146,-52.5 309,-52.5 309,-22.5 146,-22.5"/>
<text text-anchor="start" x="154" y="-40.5" font-family="Helvetica,sans-Serif" font-size="10.00">CCCC_Html_Stream::Generate</text>
<text text-anchor="middle" x="227.5" y="-29.5" font-family="Helvetica,sans-Serif" font-size="10.00">Reports</text>
</a>
</g>
</g>
<!-- Node1&#45;&gt;Node2 -->
<g id="edge1" class="edge"><title>Node1&#45;&gt;Node2</title>
<path fill="none" stroke="midnightblue" d="M110.416,-37.5C118.542,-37.5 127.099,-37.5 135.732,-37.5"/>
<polygon fill="midnightblue" stroke="midnightblue" points="135.88,-41.0001 145.88,-37.5 135.88,-34.0001 135.88,-41.0001"/>
</g>
<!-- Node3 -->
<g id="node3" class="node"><title>Node3</title>
<g id="a_node3"><a xlink:href="../../d2/d92/classCCCC__Html__Stream.html#a31acdc68a7ee15c16ef89ceed3591057" target="_top" xlink:title="CCCC_Html_Stream::Table\l_Of_Contents">
<polygon fill="white" stroke="black" points="345,-22.5 345,-52.5 489,-52.5 489,-22.5 345,-22.5"/>
<text text-anchor="start" x="353" y="-40.5" font-family="Helvetica,sans-Serif" font-size="10.00">CCCC_Html_Stream::Table</text>
<text text-anchor="middle" x="417" y="-29.5" font-family="Helvetica,sans-Serif" font-size="10.00">_Of_Contents</text>
</a>
</g>
</g>
<!-- Node2&#45;&gt;Node3 -->
<g id="edge2" class="edge"><title>Node2&#45;&gt;Node3</title>
<path fill="none" stroke="midnightblue" d="M309.105,-37.5C317.573,-37.5 326.186,-37.5 334.662,-37.5"/>
<polygon fill="midnightblue" stroke="midnightblue" points="334.914,-41.0001 344.914,-37.5 334.914,-34.0001 334.914,-41.0001"/>
</g>
<!-- Node4 -->
<g id="node4" class="node"><title>Node4</title>
<g id="a_node4"><a xlink:href="../../d4/d6e/classCCCC__Project.html#ac0565e746210778bc6f165130464041b" target="_top" xlink:title="CCCC_Project::name">
<polygon fill="white" stroke="black" points="533.5,-50 533.5,-69 649.5,-69 649.5,-50 533.5,-50"/>
<text text-anchor="middle" x="591.5" y="-57" font-family="Helvetica,sans-Serif" font-size="10.00">CCCC_Project::name</text>
</a>
</g>
</g>
<!-- Node3&#45;&gt;Node4 -->
<g id="edge3" class="edge"><title>Node3&#45;&gt;Node4</title>
<path fill="none" stroke="midnightblue" d="M489.158,-46.5753C500.456,-48.0161 512.11,-49.5025 523.313,-50.9312"/>
<polygon fill="midnightblue" stroke="midnightblue" points="523.089,-54.4309 533.451,-52.2242 523.974,-47.4871 523.089,-54.4309"/>
</g>
<!-- Node5 -->
<g id="node5" class="node"><title>Node5</title>
<g id="a_node5"><a xlink:href="../../d2/d92/classCCCC__Html__Stream.html#ab0ee2a9c916a9cce8480a00cca4da500" target="_top" xlink:title="CCCC_Html_Stream::Put\l_Section_TOC_Entry">
<polygon fill="white" stroke="black" points="525,-0.5 525,-30.5 658,-30.5 658,-0.5 525,-0.5"/>
<text text-anchor="start" x="533" y="-18.5" font-family="Helvetica,sans-Serif" font-size="10.00">CCCC_Html_Stream::Put</text>
<text text-anchor="middle" x="591.5" y="-7.5" font-family="Helvetica,sans-Serif" font-size="10.00">_Section_TOC_Entry</text>
</a>
</g>
</g>
<!-- Node3&#45;&gt;Node5 -->
<g id="edge4" class="edge"><title>Node3&#45;&gt;Node5</title>
<path fill="none" stroke="midnightblue" d="M489.158,-28.4247C497.63,-27.3443 506.302,-26.2383 514.834,-25.1502"/>
<polygon fill="midnightblue" stroke="midnightblue" points="515.287,-28.6208 524.764,-23.8837 514.402,-21.677 515.287,-28.6208"/>
</g>
</g>
</svg>
