<?xml version="1.0" encoding="UTF-8" standalone="no"?>
<!DOCTYPE svg PUBLIC "-//W3C//DTD SVG 1.1//EN"
 "http://www.w3.org/Graphics/SVG/1.1/DTD/svg11.dtd">
<!-- Generated by graphviz version 2.38.0 (20140413.2041)
 -->
<!-- Title: cccc.h Pages: 1 -->
<!--zoomable 140 -->
<svg id="main" version="1.1" xmlns="http://www.w3.org/2000/svg" xmlns:xlink="http://www.w3.org/1999/xlink" xml:space="preserve" onload="init(evt)">
<style type="text/css"><![CDATA[
.edge:hover path { stroke: red; }
.edge:hover polygon { stroke: red; fill: red; }
]]></style>
<script type="text/javascript"><![CDATA[
var edges = document.getElementsByTagName('g');
if (edges && edges.length) {
  for (var i=0;i<edges.length;i++) {
    if (edges[i].id.substr(0,4)=='edge') {
      edges[i].setAttribute('class','edge');
    }
  }
}
]]></script>
        <defs>
                <circle id="rim" cx="0" cy="0" r="7"/>
                <circle id="rim2" cx="0" cy="0" r="3.5"/>
                <g id="zoomPlus">
                        <use xlink:href="#rim" fill="#404040">
                                <set attributeName="fill" to="#808080" begin="zoomplus.mouseover" end="zoomplus.mouseout"/>
                        </use>
                        <path d="M-4,0h8M0,-4v8" fill="none" stroke="white" stroke-width="1.5" pointer-events="none"/>
                </g>
                <g id="zoomMin">
                        <use xlink:href="#rim" fill="#404040">
                                <set attributeName="fill" to="#808080" begin="zoomminus.mouseover" end="zoomminus.mouseout"/>
                        </use>
                        <path d="M-4,0h8" fill="none" stroke="white" stroke-width="1.5" pointer-events="none"/>
                </g>
                <g id="dirArrow">
                        <path fill="none" stroke="white" stroke-width="1.5" d="M0,-3.0v7 M-2.5,-0.5L0,-3.0L2.5,-0.5"/>
                </g>
               <g id="resetDef">
                       <use xlink:href="#rim2" fill="#404040">
                               <set attributeName="fill" to="#808080" begin="reset.mouseover" end="reset.mouseout"/>
                       </use>
               </g>
        </defs>

<script type="text/javascript">
var viewWidth = 824;
var viewHeight = 140;
var sectionId = 'dynsection-0';
</script>
<script xlink:href="../../svgpan.js"/>
<svg id="graph" class="graph">
<g id="viewport">
<title>cccc.h</title>
<polygon fill="white" stroke="none" points="-4,4 -4,-136 820,-136 820,4 -4,4"/>
<!-- Node1 -->
<g id="node1" class="node"><title>Node1</title>
<polygon fill="#bfbfbf" stroke="black" points="388.5,-112.5 388.5,-131.5 434.5,-131.5 434.5,-112.5 388.5,-112.5"/>
<text text-anchor="middle" x="411.5" y="-119.5" font-family="Helvetica,sans-Serif" font-size="10.00">cccc.h</text>
</g>
<!-- Node2 -->
<g id="node2" class="node"><title>Node2</title>
<polygon fill="white" stroke="#bfbfbf" points="-3.55271e-15,-56.5 -3.55271e-15,-75.5 51,-75.5 51,-56.5 -3.55271e-15,-56.5"/>
<text text-anchor="middle" x="25.5" y="-63.5" font-family="Helvetica,sans-Serif" font-size="10.00">cassert</text>
</g>
<!-- Node1&#45;&gt;Node2 -->
<g id="edge1" class="edge"><title>Node1&#45;&gt;Node2</title>
<path fill="none" stroke="midnightblue" d="M388.345,-119.035C333.356,-114.155 190.485,-100.236 61.1133,-75.8805"/>
<polygon fill="midnightblue" stroke="midnightblue" points="61.5104,-72.3931 51.0314,-73.9557 60.1976,-79.2689 61.5104,-72.3931"/>
</g>
<!-- Node3 -->
<g id="node3" class="node"><title>Node3</title>
<polygon fill="white" stroke="#bfbfbf" points="69,-56.5 69,-75.5 114,-75.5 114,-56.5 69,-56.5"/>
<text text-anchor="middle" x="91.5" y="-63.5" font-family="Helvetica,sans-Serif" font-size="10.00">cmath</text>
</g>
<!-- Node1&#45;&gt;Node3 -->
<g id="edge2" class="edge"><title>Node1&#45;&gt;Node3</title>
<path fill="none" stroke="midnightblue" d="M388.181,-118.314C340.485,-112.617 228.219,-98.1702 124.182,-75.9069"/>
<polygon fill="midnightblue" stroke="midnightblue" points="124.657,-72.4286 114.142,-73.7281 123.172,-79.2694 124.657,-72.4286"/>
</g>
<!-- Node4 -->
<g id="node4" class="node"><title>Node4</title>
<polygon fill="white" stroke="#bfbfbf" points="132.5,-56.5 132.5,-75.5 176.5,-75.5 176.5,-56.5 132.5,-56.5"/>
<text text-anchor="middle" x="154.5" y="-63.5" font-family="Helvetica,sans-Serif" font-size="10.00">cstdio</text>
</g>
<!-- Node1&#45;&gt;Node4 -->
<g id="edge3" class="edge"><title>Node1&#45;&gt;Node4</title>
<path fill="none" stroke="midnightblue" d="M388.256,-117.053C348.818,-110.211 266.107,-95.2359 186.926,-76.186"/>
<polygon fill="midnightblue" stroke="midnightblue" points="187.333,-72.683 176.789,-73.7196 185.678,-79.4846 187.333,-72.683"/>
</g>
<!-- Node5 -->
<g id="node5" class="node"><title>Node5</title>
<polygon fill="white" stroke="#bfbfbf" points="194.5,-56.5 194.5,-75.5 242.5,-75.5 242.5,-56.5 194.5,-56.5"/>
<text text-anchor="middle" x="218.5" y="-63.5" font-family="Helvetica,sans-Serif" font-size="10.00">cstring</text>
</g>
<!-- Node1&#45;&gt;Node5 -->
<g id="edge4" class="edge"><title>Node1&#45;&gt;Node5</title>
<path fill="none" stroke="midnightblue" d="M388.22,-114.486C354.443,-105.036 291.635,-87.4625 252.624,-76.5476"/>
<polygon fill="midnightblue" stroke="midnightblue" points="253.347,-73.1155 242.773,-73.7915 251.46,-79.8566 253.347,-73.1155"/>
</g>
<!-- Node6 -->
<g id="node6" class="node"><title>Node6</title>
<polygon fill="white" stroke="#bfbfbf" points="260.5,-56.5 260.5,-75.5 306.5,-75.5 306.5,-56.5 260.5,-56.5"/>
<text text-anchor="middle" x="283.5" y="-63.5" font-family="Helvetica,sans-Serif" font-size="10.00">cstdlib</text>
</g>
<!-- Node1&#45;&gt;Node6 -->
<g id="edge5" class="edge"><title>Node1&#45;&gt;Node6</title>
<path fill="none" stroke="midnightblue" d="M391.218,-112.444C370.153,-103.557 336.983,-89.5632 313.014,-79.4514"/>
<polygon fill="midnightblue" stroke="midnightblue" points="314.261,-76.1787 303.687,-75.5164 311.54,-82.6283 314.261,-76.1787"/>
</g>
<!-- Node7 -->
<g id="node7" class="node"><title>Node7</title>
<polygon fill="white" stroke="#bfbfbf" points="325,-56.5 325,-75.5 372,-75.5 372,-56.5 325,-56.5"/>
<text text-anchor="middle" x="348.5" y="-63.5" font-family="Helvetica,sans-Serif" font-size="10.00">cctype</text>
</g>
<!-- Node1&#45;&gt;Node7 -->
<g id="edge6" class="edge"><title>Node1&#45;&gt;Node7</title>
<path fill="none" stroke="midnightblue" d="M401.378,-112.324C391.974,-104.263 377.756,-92.0765 366.431,-82.3695"/>
<polygon fill="midnightblue" stroke="midnightblue" points="368.677,-79.6844 358.806,-75.8339 364.121,-84.9993 368.677,-79.6844"/>
</g>
<!-- Node8 -->
<g id="node8" class="node"><title>Node8</title>
<polygon fill="white" stroke="#bfbfbf" points="390,-56.5 390,-75.5 433,-75.5 433,-56.5 390,-56.5"/>
<text text-anchor="middle" x="411.5" y="-63.5" font-family="Helvetica,sans-Serif" font-size="10.00">string</text>
</g>
<!-- Node1&#45;&gt;Node8 -->
<g id="edge7" class="edge"><title>Node1&#45;&gt;Node8</title>
<path fill="none" stroke="midnightblue" d="M411.5,-112.083C411.5,-105.006 411.5,-94.8611 411.5,-85.9865"/>
<polygon fill="midnightblue" stroke="midnightblue" points="415,-85.751 411.5,-75.7511 408,-85.7511 415,-85.751"/>
</g>
<!-- Node9 -->
<g id="node9" class="node"><title>Node9</title>
<polygon fill="white" stroke="#bfbfbf" points="451,-56.5 451,-75.5 508,-75.5 508,-56.5 451,-56.5"/>
<text text-anchor="middle" x="479.5" y="-63.5" font-family="Helvetica,sans-Serif" font-size="10.00">iostream</text>
</g>
<!-- Node1&#45;&gt;Node9 -->
<g id="edge8" class="edge"><title>Node1&#45;&gt;Node9</title>
<path fill="none" stroke="midnightblue" d="M422.425,-112.324C432.675,-104.185 448.221,-91.8395 460.501,-82.0874"/>
<polygon fill="midnightblue" stroke="midnightblue" points="462.721,-84.7937 468.376,-75.8339 458.368,-79.3119 462.721,-84.7937"/>
</g>
<!-- Node10 -->
<g id="node10" class="node"><title>Node10</title>
<polygon fill="white" stroke="#bfbfbf" points="526.5,-56.5 526.5,-75.5 580.5,-75.5 580.5,-56.5 526.5,-56.5"/>
<text text-anchor="middle" x="553.5" y="-63.5" font-family="Helvetica,sans-Serif" font-size="10.00">sstream</text>
</g>
<!-- Node1&#45;&gt;Node10 -->
<g id="edge9" class="edge"><title>Node1&#45;&gt;Node10</title>
<path fill="none" stroke="midnightblue" d="M434,-112.444C457.577,-103.478 494.822,-89.314 521.464,-79.1827"/>
<polygon fill="midnightblue" stroke="midnightblue" points="523.002,-82.3424 531.105,-75.5164 520.514,-75.7995 523.002,-82.3424"/>
</g>
<!-- Node11 -->
<g id="node11" class="node"><title>Node11</title>
<polygon fill="white" stroke="#bfbfbf" points="598.5,-56.5 598.5,-75.5 650.5,-75.5 650.5,-56.5 598.5,-56.5"/>
<text text-anchor="middle" x="624.5" y="-63.5" font-family="Helvetica,sans-Serif" font-size="10.00">fstream</text>
</g>
<!-- Node1&#45;&gt;Node11 -->
<g id="edge10" class="edge"><title>Node1&#45;&gt;Node11</title>
<path fill="none" stroke="midnightblue" d="M434.549,-115.205C466.766,-107.098 527.341,-91.8298 588.34,-76.2887"/>
<polygon fill="midnightblue" stroke="midnightblue" points="589.304,-79.655 598.13,-73.7932 587.575,-72.872 589.304,-79.655"/>
</g>
<!-- Node12 -->
<g id="node12" class="node"><title>Node12</title>
<g id="a_node12"><a xlink:href="../../d1/d7d/cccc__tok_8h.html" target="_top" xlink:title="cccc_tok.h">
<polygon fill="white" stroke="black" points="668.5,-56.5 668.5,-75.5 734.5,-75.5 734.5,-56.5 668.5,-56.5"/>
<text text-anchor="middle" x="701.5" y="-63.5" font-family="Helvetica,sans-Serif" font-size="10.00">cccc_tok.h</text>
</a>
</g>
</g>
<!-- Node1&#45;&gt;Node12 -->
<g id="edge11" class="edge"><title>Node1&#45;&gt;Node12</title>
<path fill="none" stroke="midnightblue" d="M434.565,-116.096C477.445,-108.125 571.3,-91.6671 650.5,-76 653.086,-75.4885 655.758,-74.9467 658.467,-74.3928"/>
<polygon fill="midnightblue" stroke="midnightblue" points="659.259,-77.8033 668.352,-72.3655 657.852,-70.946 659.259,-77.8033"/>
</g>
<!-- Node14 -->
<g id="node14" class="node"><title>Node14</title>
<polygon fill="white" stroke="#bfbfbf" points="753,-56.5 753,-75.5 816,-75.5 816,-56.5 753,-56.5"/>
<text text-anchor="middle" x="784.5" y="-63.5" font-family="Helvetica,sans-Serif" font-size="10.00">AParser.h</text>
</g>
<!-- Node1&#45;&gt;Node14 -->
<g id="edge14" class="edge"><title>Node1&#45;&gt;Node14</title>
<path fill="none" stroke="midnightblue" d="M434.543,-118.531C487.247,-112.744 620.801,-97.2965 742.876,-75.9779"/>
<polygon fill="midnightblue" stroke="midnightblue" points="743.527,-79.4172 752.767,-74.233 742.311,-72.5236 743.527,-79.4172"/>
</g>
<!-- Node12&#45;&gt;Node1 -->
<g id="edge12" class="edge"><title>Node12&#45;&gt;Node1</title>
<path fill="none" stroke="midnightblue" d="M670.713,-75.559C669.97,-75.7081 669.232,-75.8553 668.5,-76 588.715,-91.7828 494.058,-108.368 444.735,-116.272"/>
<polygon fill="midnightblue" stroke="midnightblue" points="443.965,-112.85 434.634,-117.867 445.058,-119.764 443.965,-112.85"/>
</g>
<!-- Node13 -->
<g id="node13" class="node"><title>Node13</title>
<polygon fill="white" stroke="#bfbfbf" points="670.5,-0.5 670.5,-19.5 732.5,-19.5 732.5,-0.5 670.5,-0.5"/>
<text text-anchor="middle" x="701.5" y="-7.5" font-family="Helvetica,sans-Serif" font-size="10.00">AToken.h</text>
</g>
<!-- Node12&#45;&gt;Node13 -->
<g id="edge13" class="edge"><title>Node12&#45;&gt;Node13</title>
<path fill="none" stroke="midnightblue" d="M701.5,-56.083C701.5,-49.0059 701.5,-38.8611 701.5,-29.9865"/>
<polygon fill="midnightblue" stroke="midnightblue" points="705,-29.751 701.5,-19.7511 698,-29.7511 705,-29.751"/>
</g>
</g>
</svg>
        <g id="navigator" transform="translate(0 0)" fill="#404254">
                <rect fill="#f2f5e9" fill-opacity="0.5" stroke="#606060" stroke-width=".5" x="0" y="0" width="60" height="60"/>
                <use id="zoomplus" xlink:href="#zoomPlus" x="17" y="9" onmousedown="handleZoom(evt,'in')"/>
                <use id="zoomminus" xlink:href="#zoomMin" x="42" y="9" onmousedown="handleZoom(evt,'out')"/>
                <use id="reset" xlink:href="#resetDef" x="30" y="36" onmousedown="handleReset()"/>
                <g id="arrowUp" xlink:href="#dirArrow" transform="translate(30 24)" onmousedown="handlePan(0,-1)">
                  <use xlink:href="#rim" fill="#404040">
                        <set attributeName="fill" to="#808080" begin="arrowUp.mouseover" end="arrowUp.mouseout"/>
                  </use>
                  <path fill="none" stroke="white" stroke-width="1.5" d="M0,-3.0v7 M-2.5,-0.5L0,-3.0L2.5,-0.5"/>
                </g>
                <g id="arrowRight" xlink:href="#dirArrow" transform="rotate(90) translate(36 -43)" onmousedown="handlePan(1,0)">
                  <use xlink:href="#rim" fill="#404040">
                        <set attributeName="fill" to="#808080" begin="arrowRight.mouseover" end="arrowRight.mouseout"/>
                  </use>
                  <path fill="none" stroke="white" stroke-width="1.5" d="M0,-3.0v7 M-2.5,-0.5L0,-3.0L2.5,-0.5"/>
                </g>
                <g id="arrowDown" xlink:href="#dirArrow" transform="rotate(180) translate(-30 -48)" onmousedown="handlePan(0,1)">
                  <use xlink:href="#rim" fill="#404040">
                        <set attributeName="fill" to="#808080" begin="arrowDown.mouseover" end="arrowDown.mouseout"/>
                  </use>
                  <path fill="none" stroke="white" stroke-width="1.5" d="M0,-3.0v7 M-2.5,-0.5L0,-3.0L2.5,-0.5"/>
                </g>
                <g id="arrowLeft" xlink:href="#dirArrow" transform="rotate(270) translate(-36 17)" onmousedown="handlePan(-1,0)">
                  <use xlink:href="#rim" fill="#404040">
                        <set attributeName="fill" to="#808080" begin="arrowLeft.mouseover" end="arrowLeft.mouseout"/>
                  </use>
                  <path fill="none" stroke="white" stroke-width="1.5" d="M0,-3.0v7 M-2.5,-0.5L0,-3.0L2.5,-0.5"/>
                </g>
        </g>
        <svg viewBox="0 0 15 15" width="100%" height="30px" preserveAspectRatio="xMaxYMin meet">
         <g id="arrow_out" transform="scale(0.3 0.3)">
          <a xlink:href="cccc_8h__incl_org.svg" target="_base">
           <rect id="button" ry="5" rx="5" y="6" x="6" height="38" width="38"
                fill="#f2f5e9" fill-opacity="0.5" stroke="#606060" stroke-width="1.0"/>
           <path id="arrow"
             d="M 11.500037,31.436501 C 11.940474,20.09759 22.043105,11.32322 32.158766,21.979434 L 37.068811,17.246167 C 37.068811,17.246167 37.088388,32 37.088388,32 L 22.160133,31.978069 C 22.160133,31.978069 26.997745,27.140456 26.997745,27.140456 C 18.528582,18.264221 13.291696,25.230495 11.500037,31.436501 z"
             style="fill:#404040;"/>
          </a>
         </g>
        </svg>
</svg>
