<?xml version="1.0" encoding="UTF-8" standalone="no"?>
<!DOCTYPE svg PUBLIC "-//W3C//DTD SVG 1.1//EN"
 "http://www.w3.org/Graphics/SVG/1.1/DTD/svg11.dtd">
<!-- Generated by graphviz version 2.38.0 (20140413.2041)
 -->
<!-- Title: JParser::packageDefinition Pages: 1 -->
<svg width="807pt" height="85pt"
 viewBox="0.00 0.00 807.00 85.00" xmlns="http://www.w3.org/2000/svg" xmlns:xlink="http://www.w3.org/1999/xlink">
<g id="graph0" class="graph" transform="scale(1 1) rotate(0) translate(4 81)">
<title>JParser::packageDefinition</title>
<polygon fill="white" stroke="none" points="-4,4 -4,-81 803,-81 803,4 -4,4"/>
<!-- Node1 -->
<g id="node1" class="node"><title>Node1</title>
<polygon fill="#bfbfbf" stroke="black" points="0,-38.5 0,-57.5 143,-57.5 143,-38.5 0,-38.5"/>
<text text-anchor="middle" x="71.5" y="-45.5" font-family="Helvetica,sans-Serif" font-size="10.00">JParser::packageDefinition</text>
</g>
<!-- Node2 -->
<g id="node2" class="node"><title>Node2</title>
<g id="a_node2"><a xlink:href="../../d6/d6b/classJParser.html#a047ce8a8ba05c97e98ce4f14bad49b5e" target="_top" xlink:title="JParser::identifier2">
<polygon fill="white" stroke="black" points="179,-57.5 179,-76.5 283,-76.5 283,-57.5 179,-57.5"/>
<text text-anchor="middle" x="231" y="-64.5" font-family="Helvetica,sans-Serif" font-size="10.00">JParser::identifier2</text>
</a>
</g>
</g>
<!-- Node1&#45;&gt;Node2 -->
<g id="edge1" class="edge"><title>Node1&#45;&gt;Node2</title>
<path fill="none" stroke="midnightblue" d="M143.417,-56.5551C151.892,-57.5775 160.489,-58.6146 168.811,-59.6185"/>
<polygon fill="midnightblue" stroke="midnightblue" points="168.451,-63.1003 178.798,-60.8232 169.289,-56.1507 168.451,-63.1003"/>
</g>
<!-- Node5 -->
<g id="node5" class="node"><title>Node5</title>
<g id="a_node5"><a xlink:href="../../d6/d6b/classJParser.html#aece759e081c41c51c75fdc18ff349086" target="_top" xlink:title="JParser::syn">
<polygon fill="white" stroke="black" points="354,-19.5 354,-38.5 428,-38.5 428,-19.5 354,-19.5"/>
<text text-anchor="middle" x="391" y="-26.5" font-family="Helvetica,sans-Serif" font-size="10.00">JParser::syn</text>
</a>
</g>
</g>
<!-- Node1&#45;&gt;Node5 -->
<g id="edge8" class="edge"><title>Node1&#45;&gt;Node5</title>
<path fill="none" stroke="midnightblue" d="M143.358,-43.7597C204.526,-40.0992 291.116,-34.9174 343.755,-31.7674"/>
<polygon fill="midnightblue" stroke="midnightblue" points="344.039,-35.2568 353.812,-31.1656 343.621,-28.2693 344.039,-35.2568"/>
</g>
<!-- Node3 -->
<g id="node3" class="node"><title>Node3</title>
<g id="a_node3"><a xlink:href="../../da/d6a/classParseUtility.html#a128c7755b687730e50a5c063261f6c78" target="_top" xlink:title="ParseUtility::scopeCombine">
<polygon fill="white" stroke="black" points="319,-57.5 319,-76.5 463,-76.5 463,-57.5 319,-57.5"/>
<text text-anchor="middle" x="391" y="-64.5" font-family="Helvetica,sans-Serif" font-size="10.00">ParseUtility::scopeCombine</text>
</a>
</g>
</g>
<!-- Node2&#45;&gt;Node3 -->
<g id="edge2" class="edge"><title>Node2&#45;&gt;Node3</title>
<path fill="none" stroke="midnightblue" d="M283.298,-67C291.458,-67 300.07,-67 308.719,-67"/>
<polygon fill="midnightblue" stroke="midnightblue" points="308.863,-70.5001 318.863,-67 308.863,-63.5001 308.863,-70.5001"/>
</g>
<!-- Node2&#45;&gt;Node5 -->
<g id="edge4" class="edge"><title>Node2&#45;&gt;Node5</title>
<path fill="none" stroke="midnightblue" d="M271.87,-57.411C293.849,-52.1249 321.234,-45.5386 344.102,-40.0388"/>
<polygon fill="midnightblue" stroke="midnightblue" points="345.021,-43.4177 353.925,-37.6763 343.384,-36.6118 345.021,-43.4177"/>
</g>
<!-- Node4 -->
<g id="node4" class="node"><title>Node4</title>
<g id="a_node4"><a xlink:href="../../d4/d6e/classCCCC__Project.html#ac0565e746210778bc6f165130464041b" target="_top" xlink:title="CCCC_Project::name">
<polygon fill="white" stroke="black" points="499,-57.5 499,-76.5 615,-76.5 615,-57.5 499,-57.5"/>
<text text-anchor="middle" x="557" y="-64.5" font-family="Helvetica,sans-Serif" font-size="10.00">CCCC_Project::name</text>
</a>
</g>
</g>
<!-- Node3&#45;&gt;Node4 -->
<g id="edge3" class="edge"><title>Node3&#45;&gt;Node4</title>
<path fill="none" stroke="midnightblue" d="M463.456,-67C471.71,-67 480.109,-67 488.311,-67"/>
<polygon fill="midnightblue" stroke="midnightblue" points="488.569,-70.5001 498.569,-67 488.569,-63.5001 488.569,-70.5001"/>
</g>
<!-- Node6 -->
<g id="node6" class="node"><title>Node6</title>
<g id="a_node6"><a xlink:href="../../da/d6a/classParseUtility.html#aabfa4c56607539ef14be2e2a7260006b" target="_top" xlink:title="ParseUtility::syn">
<polygon fill="white" stroke="black" points="511.5,-19.5 511.5,-38.5 602.5,-38.5 602.5,-19.5 511.5,-19.5"/>
<text text-anchor="middle" x="557" y="-26.5" font-family="Helvetica,sans-Serif" font-size="10.00">ParseUtility::syn</text>
</a>
</g>
</g>
<!-- Node5&#45;&gt;Node6 -->
<g id="edge5" class="edge"><title>Node5&#45;&gt;Node6</title>
<path fill="none" stroke="midnightblue" d="M428.397,-29C449.783,-29 477.237,-29 501.197,-29"/>
<polygon fill="midnightblue" stroke="midnightblue" points="501.224,-32.5001 511.224,-29 501.223,-25.5001 501.224,-32.5001"/>
</g>
<!-- Node7 -->
<g id="node7" class="node"><title>Node7</title>
<g id="a_node7"><a xlink:href="../../d3/d5e/classParseStore.html#ab21a4aeadb4cc4938b58cbefbb8634e8" target="_top" xlink:title="ParseStore::currentInstance">
<polygon fill="white" stroke="black" points="651,-38.5 651,-57.5 799,-57.5 799,-38.5 651,-38.5"/>
<text text-anchor="middle" x="725" y="-45.5" font-family="Helvetica,sans-Serif" font-size="10.00">ParseStore::currentInstance</text>
</a>
</g>
</g>
<!-- Node6&#45;&gt;Node7 -->
<g id="edge6" class="edge"><title>Node6&#45;&gt;Node7</title>
<path fill="none" stroke="midnightblue" d="M602.922,-34.1417C614.705,-35.4904 627.796,-36.9887 640.89,-38.4874"/>
<polygon fill="midnightblue" stroke="midnightblue" points="640.549,-41.9712 650.882,-39.6311 641.345,-35.0166 640.549,-41.9712"/>
</g>
<!-- Node8 -->
<g id="node8" class="node"><title>Node8</title>
<g id="a_node8"><a xlink:href="../../d3/d5e/classParseStore.html#ae7b3d82d22174c1a1165a592d6c1700c" target="_top" xlink:title="ParseStore::filename">
<polygon fill="white" stroke="black" points="668,-0.5 668,-19.5 782,-19.5 782,-0.5 668,-0.5"/>
<text text-anchor="middle" x="725" y="-7.5" font-family="Helvetica,sans-Serif" font-size="10.00">ParseStore::filename</text>
</a>
</g>
</g>
<!-- Node6&#45;&gt;Node8 -->
<g id="edge7" class="edge"><title>Node6&#45;&gt;Node8</title>
<path fill="none" stroke="midnightblue" d="M602.922,-23.8583C619.773,-21.9296 639.298,-19.6948 657.684,-17.5904"/>
<polygon fill="midnightblue" stroke="midnightblue" points="658.219,-21.052 667.757,-16.4375 657.423,-14.0974 658.219,-21.052"/>
</g>
</g>
</svg>
