<?xml version="1.0" encoding="UTF-8" standalone="no"?>
<!DOCTYPE svg PUBLIC "-//W3C//DTD SVG 1.1//EN"
 "http://www.w3.org/Graphics/SVG/1.1/DTD/svg11.dtd">
<!-- Generated by graphviz version 2.38.0 (20140413.2041)
 -->
<!-- Title: JParser::tracein Pages: 1 -->
<svg width="333pt" height="66pt"
 viewBox="0.00 0.00 333.00 66.00" xmlns="http://www.w3.org/2000/svg" xmlns:xlink="http://www.w3.org/1999/xlink">
<g id="graph0" class="graph" transform="scale(1 1) rotate(0) translate(4 62)">
<title>JParser::tracein</title>
<polygon fill="white" stroke="none" points="-4,4 -4,-62 329,-62 329,4 -4,4"/>
<!-- Node1 -->
<g id="node1" class="node"><title>Node1</title>
<polygon fill="#bfbfbf" stroke="black" points="0,-19.5 0,-38.5 90,-38.5 90,-19.5 0,-19.5"/>
<text text-anchor="middle" x="45" y="-26.5" font-family="Helvetica,sans-Serif" font-size="10.00">JParser::tracein</text>
</g>
<!-- Node2 -->
<g id="node2" class="node"><title>Node2</title>
<g id="a_node2"><a xlink:href="../../da/d6a/classParseUtility.html#a60f0ab3b7348e1a57a4a44b3a70f4073" target="_top" xlink:title="ParseUtility::tracein">
<polygon fill="white" stroke="black" points="126,-19.5 126,-38.5 233,-38.5 233,-19.5 126,-19.5"/>
<text text-anchor="middle" x="179.5" y="-26.5" font-family="Helvetica,sans-Serif" font-size="10.00">ParseUtility::tracein</text>
</a>
</g>
</g>
<!-- Node1&#45;&gt;Node2 -->
<g id="edge1" class="edge"><title>Node1&#45;&gt;Node2</title>
<path fill="none" stroke="midnightblue" d="M90.1206,-29C98.3451,-29 107.084,-29 115.743,-29"/>
<polygon fill="midnightblue" stroke="midnightblue" points="115.835,-32.5001 125.835,-29 115.835,-25.5001 115.835,-32.5001"/>
</g>
<!-- Node3 -->
<g id="node3" class="node"><title>Node3</title>
<g id="a_node3"><a xlink:href="../../dc/d0b/cccc__utl_8cc.html#a608d90cc7e438ccb3dbe55b9db92ef52" target="_top" xlink:title="toktrace">
<polygon fill="white" stroke="black" points="269.5,-38.5 269.5,-57.5 324.5,-57.5 324.5,-38.5 269.5,-38.5"/>
<text text-anchor="middle" x="297" y="-45.5" font-family="Helvetica,sans-Serif" font-size="10.00">toktrace</text>
</a>
</g>
</g>
<!-- Node2&#45;&gt;Node3 -->
<g id="edge2" class="edge"><title>Node2&#45;&gt;Node3</title>
<path fill="none" stroke="midnightblue" d="M233.18,-37.666C241.965,-39.1111 250.908,-40.5822 259.186,-41.9441"/>
<polygon fill="midnightblue" stroke="midnightblue" points="258.82,-45.4308 269.256,-43.6005 259.957,-38.5237 258.82,-45.4308"/>
</g>
<!-- Node4 -->
<g id="node4" class="node"><title>Node4</title>
<g id="a_node4"><a xlink:href="../../dc/d0b/cccc__utl_8cc.html#a53c65f5e380c16d8390a5a3fdd2a4f59" target="_top" xlink:title="rectrace">
<polygon fill="white" stroke="black" points="269,-0.5 269,-19.5 325,-19.5 325,-0.5 269,-0.5"/>
<text text-anchor="middle" x="297" y="-7.5" font-family="Helvetica,sans-Serif" font-size="10.00">rectrace</text>
</a>
</g>
</g>
<!-- Node2&#45;&gt;Node4 -->
<g id="edge3" class="edge"><title>Node2&#45;&gt;Node4</title>
<path fill="none" stroke="midnightblue" d="M233.18,-20.334C241.881,-18.9026 250.737,-17.4458 258.95,-16.0948"/>
<polygon fill="midnightblue" stroke="midnightblue" points="259.649,-19.527 268.948,-14.4502 258.512,-12.6199 259.649,-19.527"/>
</g>
</g>
</svg>
