<?xml version="1.0" encoding="UTF-8" standalone="no"?>
<!DOCTYPE svg PUBLIC "-//W3C//DTD SVG 1.1//EN"
 "http://www.w3.org/Graphics/SVG/1.1/DTD/svg11.dtd">
<!-- Generated by graphviz version 2.38.0 (20140413.2041)
 -->
<!-- Title: JParser::implementsClause Pages: 1 -->
<svg width="1025pt" height="233pt"
 viewBox="0.00 0.00 1025.00 232.50" xmlns="http://www.w3.org/2000/svg" xmlns:xlink="http://www.w3.org/1999/xlink">
<g id="graph0" class="graph" transform="scale(1 1) rotate(0) translate(4 228.5)">
<title>JParser::implementsClause</title>
<polygon fill="white" stroke="none" points="-4,4 -4,-228.5 1021,-228.5 1021,4 -4,4"/>
<!-- Node1 -->
<g id="node1" class="node"><title>Node1</title>
<polygon fill="#bfbfbf" stroke="black" points="0,-148 0,-167 143,-167 143,-148 0,-148"/>
<text text-anchor="middle" x="71.5" y="-155" font-family="Helvetica,sans-Serif" font-size="10.00">JParser::implementsClause</text>
</g>
<!-- Node2 -->
<g id="node2" class="node"><title>Node2</title>
<g id="a_node2"><a xlink:href="../../d6/d6b/classJParser.html#a047ce8a8ba05c97e98ce4f14bad49b5e" target="_top" xlink:title="JParser::identifier2">
<polygon fill="white" stroke="black" points="382.5,-205 382.5,-224 486.5,-224 486.5,-205 382.5,-205"/>
<text text-anchor="middle" x="434.5" y="-212" font-family="Helvetica,sans-Serif" font-size="10.00">JParser::identifier2</text>
</a>
</g>
</g>
<!-- Node1&#45;&gt;Node2 -->
<g id="edge1" class="edge"><title>Node1&#45;&gt;Node2</title>
<path fill="none" stroke="midnightblue" d="M97.9404,-167.014C119.28,-174.596 150.718,-184.848 179,-190.5 244.279,-203.546 320.435,-209.543 372.31,-212.273"/>
<polygon fill="midnightblue" stroke="midnightblue" points="372.187,-215.772 382.35,-212.777 372.538,-208.78 372.187,-215.772"/>
</g>
<!-- Node5 -->
<g id="node5" class="node"><title>Node5</title>
<g id="a_node5"><a xlink:href="../../d6/d6b/classJParser.html#aece759e081c41c51c75fdc18ff349086" target="_top" xlink:title="JParser::syn">
<polygon fill="white" stroke="black" points="558,-167 558,-186 632,-186 632,-167 558,-167"/>
<text text-anchor="middle" x="595" y="-174" font-family="Helvetica,sans-Serif" font-size="10.00">JParser::syn</text>
</a>
</g>
</g>
<!-- Node1&#45;&gt;Node5 -->
<g id="edge23" class="edge"><title>Node1&#45;&gt;Node5</title>
<path fill="none" stroke="midnightblue" d="M143.103,-160.072C251.615,-164.026 456.406,-171.487 547.862,-174.819"/>
<polygon fill="midnightblue" stroke="midnightblue" points="547.798,-178.319 557.918,-175.185 548.053,-171.324 547.798,-178.319"/>
</g>
<!-- Node9 -->
<g id="node9" class="node"><title>Node9</title>
<g id="a_node9"><a xlink:href="../../d6/d6b/classJParser.html#a2b9364e5ceb9729cdcb6ccbf4527732a" target="_top" xlink:title="JParser::moreSuperclassNames">
<polygon fill="white" stroke="black" points="179,-129 179,-148 346,-148 346,-129 179,-129"/>
<text text-anchor="middle" x="262.5" y="-136" font-family="Helvetica,sans-Serif" font-size="10.00">JParser::moreSuperclassNames</text>
</a>
</g>
</g>
<!-- Node1&#45;&gt;Node9 -->
<g id="edge8" class="edge"><title>Node1&#45;&gt;Node9</title>
<path fill="none" stroke="midnightblue" d="M143.145,-150.398C151.51,-149.557 160.142,-148.689 168.755,-147.824"/>
<polygon fill="midnightblue" stroke="midnightblue" points="169.239,-151.293 178.839,-146.81 168.539,-144.328 169.239,-151.293"/>
</g>
<!-- Node10 -->
<g id="node10" class="node"><title>Node10</title>
<g id="a_node10"><a xlink:href="../../d3/d5e/classParseStore.html#aa8ae64513f8e2a44885a25d7b78a73e9" target="_top" xlink:title="ParseStore::record\l_userel_extent">
<polygon fill="white" stroke="black" points="382,-79.5 382,-109.5 487,-109.5 487,-79.5 382,-79.5"/>
<text text-anchor="start" x="390" y="-97.5" font-family="Helvetica,sans-Serif" font-size="10.00">ParseStore::record</text>
<text text-anchor="middle" x="434.5" y="-86.5" font-family="Helvetica,sans-Serif" font-size="10.00">_userel_extent</text>
</a>
</g>
</g>
<!-- Node1&#45;&gt;Node10 -->
<g id="edge22" class="edge"><title>Node1&#45;&gt;Node10</title>
<path fill="none" stroke="midnightblue" d="M94.4692,-147.869C115.682,-139.002 148.924,-126.236 179,-119.5 243.782,-104.992 319.715,-98.9025 371.67,-96.3473"/>
<polygon fill="midnightblue" stroke="midnightblue" points="371.904,-99.8403 381.731,-95.8819 371.58,-92.8478 371.904,-99.8403"/>
</g>
<!-- Node3 -->
<g id="node3" class="node"><title>Node3</title>
<g id="a_node3"><a xlink:href="../../da/d6a/classParseUtility.html#a128c7755b687730e50a5c063261f6c78" target="_top" xlink:title="ParseUtility::scopeCombine">
<polygon fill="white" stroke="black" points="523,-205 523,-224 667,-224 667,-205 523,-205"/>
<text text-anchor="middle" x="595" y="-212" font-family="Helvetica,sans-Serif" font-size="10.00">ParseUtility::scopeCombine</text>
</a>
</g>
</g>
<!-- Node2&#45;&gt;Node3 -->
<g id="edge2" class="edge"><title>Node2&#45;&gt;Node3</title>
<path fill="none" stroke="midnightblue" d="M486.523,-214.5C494.939,-214.5 503.844,-214.5 512.782,-214.5"/>
<polygon fill="midnightblue" stroke="midnightblue" points="512.864,-218 522.864,-214.5 512.864,-211 512.864,-218"/>
</g>
<!-- Node2&#45;&gt;Node5 -->
<g id="edge4" class="edge"><title>Node2&#45;&gt;Node5</title>
<path fill="none" stroke="midnightblue" d="M475.496,-204.911C497.545,-199.625 525.017,-193.039 547.957,-187.539"/>
<polygon fill="midnightblue" stroke="midnightblue" points="548.902,-190.911 557.811,-185.176 547.27,-184.104 548.902,-190.911"/>
</g>
<!-- Node4 -->
<g id="node4" class="node"><title>Node4</title>
<g id="a_node4"><a xlink:href="../../d4/d6e/classCCCC__Project.html#ac0565e746210778bc6f165130464041b" target="_top" xlink:title="CCCC_Project::name">
<polygon fill="white" stroke="black" points="710,-205 710,-224 826,-224 826,-205 710,-205"/>
<text text-anchor="middle" x="768" y="-212" font-family="Helvetica,sans-Serif" font-size="10.00">CCCC_Project::name</text>
</a>
</g>
</g>
<!-- Node3&#45;&gt;Node4 -->
<g id="edge3" class="edge"><title>Node3&#45;&gt;Node4</title>
<path fill="none" stroke="midnightblue" d="M667.034,-214.5C677.882,-214.5 689.05,-214.5 699.812,-214.5"/>
<polygon fill="midnightblue" stroke="midnightblue" points="699.982,-218 709.981,-214.5 699.981,-211 699.982,-218"/>
</g>
<!-- Node6 -->
<g id="node6" class="node"><title>Node6</title>
<g id="a_node6"><a xlink:href="../../da/d6a/classParseUtility.html#aabfa4c56607539ef14be2e2a7260006b" target="_top" xlink:title="ParseUtility::syn">
<polygon fill="white" stroke="black" points="722.5,-167 722.5,-186 813.5,-186 813.5,-167 722.5,-167"/>
<text text-anchor="middle" x="768" y="-174" font-family="Helvetica,sans-Serif" font-size="10.00">ParseUtility::syn</text>
</a>
</g>
</g>
<!-- Node5&#45;&gt;Node6 -->
<g id="edge5" class="edge"><title>Node5&#45;&gt;Node6</title>
<path fill="none" stroke="midnightblue" d="M632.265,-176.5C655.46,-176.5 685.989,-176.5 712.121,-176.5"/>
<polygon fill="midnightblue" stroke="midnightblue" points="712.267,-180 722.267,-176.5 712.267,-173 712.267,-180"/>
</g>
<!-- Node7 -->
<g id="node7" class="node"><title>Node7</title>
<g id="a_node7"><a xlink:href="../../d3/d5e/classParseStore.html#ab21a4aeadb4cc4938b58cbefbb8634e8" target="_top" xlink:title="ParseStore::currentInstance">
<polygon fill="white" stroke="black" points="869,-160 869,-179 1017,-179 1017,-160 869,-160"/>
<text text-anchor="middle" x="943" y="-167" font-family="Helvetica,sans-Serif" font-size="10.00">ParseStore::currentInstance</text>
</a>
</g>
</g>
<!-- Node6&#45;&gt;Node7 -->
<g id="edge6" class="edge"><title>Node6&#45;&gt;Node7</title>
<path fill="none" stroke="midnightblue" d="M813.552,-174.697C827.349,-174.139 843.025,-173.505 858.568,-172.876"/>
<polygon fill="midnightblue" stroke="midnightblue" points="858.892,-176.366 868.742,-172.464 858.609,-169.371 858.892,-176.366"/>
</g>
<!-- Node8 -->
<g id="node8" class="node"><title>Node8</title>
<g id="a_node8"><a xlink:href="../../d3/d5e/classParseStore.html#ae7b3d82d22174c1a1165a592d6c1700c" target="_top" xlink:title="ParseStore::filename">
<polygon fill="white" stroke="black" points="886,-198 886,-217 1000,-217 1000,-198 886,-198"/>
<text text-anchor="middle" x="943" y="-205" font-family="Helvetica,sans-Serif" font-size="10.00">ParseStore::filename</text>
</a>
</g>
</g>
<!-- Node6&#45;&gt;Node8 -->
<g id="edge7" class="edge"><title>Node6&#45;&gt;Node8</title>
<path fill="none" stroke="midnightblue" d="M813.552,-184.483C833.43,-188.045 857.208,-192.306 878.872,-196.188"/>
<polygon fill="midnightblue" stroke="midnightblue" points="878.521,-199.681 888.981,-198 879.755,-192.791 878.521,-199.681"/>
</g>
<!-- Node9&#45;&gt;Node2 -->
<g id="edge9" class="edge"><title>Node9&#45;&gt;Node2</title>
<path fill="none" stroke="midnightblue" d="M285.031,-148.125C314.793,-161.431 368.675,-185.52 402.693,-200.728"/>
<polygon fill="midnightblue" stroke="midnightblue" points="401.586,-204.067 412.144,-204.953 404.443,-197.676 401.586,-204.067"/>
</g>
<!-- Node9&#45;&gt;Node5 -->
<g id="edge21" class="edge"><title>Node9&#45;&gt;Node5</title>
<path fill="none" stroke="midnightblue" d="M346.078,-146.907C388.266,-151.319 440.402,-156.95 487,-162.5 506.935,-164.874 528.928,-167.714 547.764,-170.213"/>
<polygon fill="midnightblue" stroke="midnightblue" points="547.496,-173.708 557.871,-171.561 548.421,-166.77 547.496,-173.708"/>
</g>
<!-- Node9&#45;&gt;Node10 -->
<g id="edge10" class="edge"><title>Node9&#45;&gt;Node10</title>
<path fill="none" stroke="midnightblue" d="M300.387,-128.953C321.329,-123.532 348.081,-116.608 372.102,-110.391"/>
<polygon fill="midnightblue" stroke="midnightblue" points="373.049,-113.762 381.853,-107.868 371.295,-106.985 373.049,-113.762"/>
</g>
<!-- Node11 -->
<g id="node11" class="node"><title>Node11</title>
<g id="a_node11"><a xlink:href="../../db/d6a/classCCCC__Item.html#a87231c9aa43ece932511d1143b64367e" target="_top" xlink:title="CCCC_Item::Insert">
<polygon fill="white" stroke="black" points="716,-10 716,-29 820,-29 820,-10 716,-10"/>
<text text-anchor="middle" x="768" y="-17" font-family="Helvetica,sans-Serif" font-size="10.00">CCCC_Item::Insert</text>
</a>
</g>
</g>
<!-- Node10&#45;&gt;Node11 -->
<g id="edge11" class="edge"><title>Node10&#45;&gt;Node11</title>
<path fill="none" stroke="midnightblue" d="M487.297,-82.7812C549.309,-68.7514 652.567,-45.3899 714.77,-31.3167"/>
<polygon fill="midnightblue" stroke="midnightblue" points="715.782,-34.6764 724.763,-29.0559 714.237,-27.8489 715.782,-34.6764"/>
</g>
<!-- Node12 -->
<g id="node12" class="node"><title>Node12</title>
<g id="a_node12"><a xlink:href="../../d3/d5e/classParseStore.html#a058a15dda767cb8cf60dc578ec8ffb38" target="_top" xlink:title="ParseStore::flags">
<polygon fill="white" stroke="black" points="546.5,-126 546.5,-145 643.5,-145 643.5,-126 546.5,-126"/>
<text text-anchor="middle" x="595" y="-133" font-family="Helvetica,sans-Serif" font-size="10.00">ParseStore::flags</text>
</a>
</g>
</g>
<!-- Node10&#45;&gt;Node12 -->
<g id="edge12" class="edge"><title>Node10&#45;&gt;Node12</title>
<path fill="none" stroke="midnightblue" d="M487.399,-107.925C506.684,-112.914 528.433,-118.539 547.232,-123.402"/>
<polygon fill="midnightblue" stroke="midnightblue" points="546.493,-126.826 557.051,-125.942 548.247,-120.049 546.493,-126.826"/>
</g>
<!-- Node13 -->
<g id="node13" class="node"><title>Node13</title>
<g id="a_node13"><a xlink:href="../../d3/d5e/classParseStore.html#ab07edec82aea81e439fa34d2f557b36f" target="_top" xlink:title="ParseStore::insert\l_extent">
<polygon fill="white" stroke="black" points="544.5,-0.5 544.5,-30.5 645.5,-30.5 645.5,-0.5 544.5,-0.5"/>
<text text-anchor="start" x="552.5" y="-18.5" font-family="Helvetica,sans-Serif" font-size="10.00">ParseStore::insert</text>
<text text-anchor="middle" x="595" y="-7.5" font-family="Helvetica,sans-Serif" font-size="10.00">_extent</text>
</a>
</g>
</g>
<!-- Node10&#45;&gt;Node13 -->
<g id="edge13" class="edge"><title>Node10&#45;&gt;Node13</title>
<path fill="none" stroke="midnightblue" d="M460.755,-79.3767C478.023,-69.2812 501.575,-55.9853 523,-45.5 530.602,-41.7794 538.782,-38.066 546.79,-34.5834"/>
<polygon fill="midnightblue" stroke="midnightblue" points="548.249,-37.7659 556.067,-30.6144 545.496,-31.3302 548.249,-37.7659"/>
</g>
<!-- Node14 -->
<g id="node14" class="node"><title>Node14</title>
<g id="a_node14"><a xlink:href="../../d4/d6e/classCCCC__Project.html#adae36526071c67957535938bf6401d9f" target="_top" xlink:title="CCCC_Project::add_userel">
<polygon fill="white" stroke="black" points="523.5,-88 523.5,-107 666.5,-107 666.5,-88 523.5,-88"/>
<text text-anchor="middle" x="595" y="-95" font-family="Helvetica,sans-Serif" font-size="10.00">CCCC_Project::add_userel</text>
</a>
</g>
</g>
<!-- Node10&#45;&gt;Node14 -->
<g id="edge15" class="edge"><title>Node10&#45;&gt;Node14</title>
<path fill="none" stroke="midnightblue" d="M487.399,-95.4823C495.64,-95.6383 504.331,-95.8028 513.049,-95.9678"/>
<polygon fill="midnightblue" stroke="midnightblue" points="513.207,-99.4713 523.271,-96.1613 513.34,-92.4726 513.207,-99.4713"/>
</g>
<!-- Node13&#45;&gt;Node11 -->
<g id="edge14" class="edge"><title>Node13&#45;&gt;Node11</title>
<path fill="none" stroke="midnightblue" d="M645.92,-16.6677C664.64,-17.1056 686.13,-17.6083 705.76,-18.0675"/>
<polygon fill="midnightblue" stroke="midnightblue" points="705.752,-21.5682 715.831,-18.3031 705.916,-14.5701 705.752,-21.5682"/>
</g>
<!-- Node15 -->
<g id="node15" class="node"><title>Node15</title>
<g id="a_node15"><a xlink:href="../../d8/dcf/classCCCC__Table.html#a8e08fe4f6edb07f1fbf2813c66bb3606" target="_top" xlink:title="CCCC_Table::find_or\l_insert">
<polygon fill="white" stroke="black" points="885,-106.5 885,-136.5 1001,-136.5 1001,-106.5 885,-106.5"/>
<text text-anchor="start" x="893" y="-124.5" font-family="Helvetica,sans-Serif" font-size="10.00">CCCC_Table::find_or</text>
<text text-anchor="middle" x="943" y="-113.5" font-family="Helvetica,sans-Serif" font-size="10.00">_insert</text>
</a>
</g>
</g>
<!-- Node14&#45;&gt;Node15 -->
<g id="edge16" class="edge"><title>Node14&#45;&gt;Node15</title>
<path fill="none" stroke="midnightblue" d="M666.853,-102.415C727.781,-106.641 815.045,-112.694 874.868,-116.843"/>
<polygon fill="midnightblue" stroke="midnightblue" points="874.747,-120.343 884.965,-117.544 875.231,-113.36 874.747,-120.343"/>
</g>
<!-- Node16 -->
<g id="node16" class="node"><title>Node16</title>
<g id="a_node16"><a xlink:href="../../d2/d65/classCCCC__UseRelationship.html#aea65f893850f8e1903c3e53ac04170f6" target="_top" xlink:title="CCCC_UseRelationship\l::add_extent">
<polygon fill="white" stroke="black" points="703,-62.5 703,-92.5 833,-92.5 833,-62.5 703,-62.5"/>
<text text-anchor="start" x="711" y="-80.5" font-family="Helvetica,sans-Serif" font-size="10.00">CCCC_UseRelationship</text>
<text text-anchor="middle" x="768" y="-69.5" font-family="Helvetica,sans-Serif" font-size="10.00">::add_extent</text>
</a>
</g>
</g>
<!-- Node14&#45;&gt;Node16 -->
<g id="edge17" class="edge"><title>Node14&#45;&gt;Node16</title>
<path fill="none" stroke="midnightblue" d="M666.54,-89.2498C675.202,-88.2366 684.076,-87.1988 692.79,-86.1795"/>
<polygon fill="midnightblue" stroke="midnightblue" points="693.399,-89.6322 702.925,-84.9942 692.586,-82.6796 693.399,-89.6322"/>
</g>
<!-- Node16&#45;&gt;Node15 -->
<g id="edge18" class="edge"><title>Node16&#45;&gt;Node15</title>
<path fill="none" stroke="midnightblue" d="M828.053,-92.5192C843.149,-96.3586 859.488,-100.514 874.953,-104.448"/>
<polygon fill="midnightblue" stroke="midnightblue" points="874.413,-107.922 884.968,-106.995 876.139,-101.138 874.413,-107.922"/>
</g>
<!-- Node17 -->
<g id="node17" class="node"><title>Node17</title>
<g id="a_node17"><a xlink:href="../../df/d99/classCCCC__Extent.html#a82a7a03bd389c67ba2f5dc7787e89739" target="_top" xlink:title="CCCC_Extent::get_visibility">
<polygon fill="white" stroke="black" points="871.5,-68 871.5,-87 1014.5,-87 1014.5,-68 871.5,-68"/>
<text text-anchor="middle" x="943" y="-75" font-family="Helvetica,sans-Serif" font-size="10.00">CCCC_Extent::get_visibility</text>
</a>
</g>
</g>
<!-- Node16&#45;&gt;Node17 -->
<g id="edge19" class="edge"><title>Node16&#45;&gt;Node17</title>
<path fill="none" stroke="midnightblue" d="M833.419,-77.5C842.52,-77.5 851.97,-77.5 861.329,-77.5"/>
<polygon fill="midnightblue" stroke="midnightblue" points="861.428,-81.0001 871.428,-77.5 861.428,-74.0001 861.428,-81.0001"/>
</g>
<!-- Node18 -->
<g id="node18" class="node"><title>Node18</title>
<g id="a_node18"><a xlink:href="../../df/d99/classCCCC__Extent.html#abe27f2b34d0542894c6339274e8d1834" target="_top" xlink:title="CCCC_Extent::get_usetype">
<polygon fill="white" stroke="black" points="870.5,-30 870.5,-49 1015.5,-49 1015.5,-30 870.5,-30"/>
<text text-anchor="middle" x="943" y="-37" font-family="Helvetica,sans-Serif" font-size="10.00">CCCC_Extent::get_usetype</text>
</a>
</g>
</g>
<!-- Node16&#45;&gt;Node18 -->
<g id="edge20" class="edge"><title>Node16&#45;&gt;Node18</title>
<path fill="none" stroke="midnightblue" d="M833.419,-63.3502C851.568,-59.3637 871.107,-55.0719 888.539,-51.2428"/>
<polygon fill="midnightblue" stroke="midnightblue" points="889.517,-54.6116 898.533,-49.0476 888.015,-47.7746 889.517,-54.6116"/>
</g>
</g>
</svg>
