<?xml version="1.0" encoding="UTF-8" standalone="no"?>
<!DOCTYPE svg PUBLIC "-//W3C//DTD SVG 1.1//EN"
 "http://www.w3.org/Graphics/SVG/1.1/DTD/svg11.dtd">
<!-- Generated by graphviz version 2.38.0 (20140413.2041)
 -->
<!-- Title: JParser::packageDefinition Pages: 1 -->
<svg width="522pt" height="28pt"
 viewBox="0.00 0.00 522.00 28.00" xmlns="http://www.w3.org/2000/svg" xmlns:xlink="http://www.w3.org/1999/xlink">
<g id="graph0" class="graph" transform="scale(1 1) rotate(0) translate(4 24)">
<title>JParser::packageDefinition</title>
<polygon fill="white" stroke="none" points="-4,4 -4,-24 518,-24 518,4 -4,4"/>
<!-- Node1 -->
<g id="node1" class="node"><title>Node1</title>
<polygon fill="#bfbfbf" stroke="black" points="0,-0.5 0,-19.5 143,-19.5 143,-0.5 0,-0.5"/>
<text text-anchor="middle" x="71.5" y="-7.5" font-family="Helvetica,sans-Serif" font-size="10.00">JParser::packageDefinition</text>
</g>
<!-- Node2 -->
<g id="node2" class="node"><title>Node2</title>
<g id="a_node2"><a xlink:href="../../d6/d6b/classJParser.html#a8ec8a5877e6bd6b1fe20850a9ffe0902" target="_top" xlink:title="JParser::compilationUnit">
<polygon fill="white" stroke="black" points="179,-0.5 179,-19.5 309,-19.5 309,-0.5 179,-0.5"/>
<text text-anchor="middle" x="244" y="-7.5" font-family="Helvetica,sans-Serif" font-size="10.00">JParser::compilationUnit</text>
</a>
</g>
</g>
<!-- Node1&#45;&gt;Node2 -->
<g id="edge1" class="edge"><title>Node1&#45;&gt;Node2</title>
<path fill="none" stroke="midnightblue" d="M153.354,-10C161.937,-10 170.58,-10 178.933,-10"/>
<polygon fill="midnightblue" stroke="midnightblue" points="153.326,-6.5001 143.326,-10 153.326,-13.5001 153.326,-6.5001"/>
</g>
<!-- Node3 -->
<g id="node3" class="node"><title>Node3</title>
<g id="a_node3"><a xlink:href="../../db/d4a/classMain.html#a803470658c644fa9512140f9d8398dd5" target="_top" xlink:title="Main::ParseFiles">
<polygon fill="white" stroke="black" points="345,-0.5 345,-19.5 439,-19.5 439,-0.5 345,-0.5"/>
<text text-anchor="middle" x="392" y="-7.5" font-family="Helvetica,sans-Serif" font-size="10.00">Main::ParseFiles</text>
</a>
</g>
</g>
<!-- Node2&#45;&gt;Node3 -->
<g id="edge2" class="edge"><title>Node2&#45;&gt;Node3</title>
<path fill="none" stroke="midnightblue" d="M319.301,-10C328.059,-10 336.793,-10 344.997,-10"/>
<polygon fill="midnightblue" stroke="midnightblue" points="319.038,-6.5001 309.038,-10 319.038,-13.5001 319.038,-6.5001"/>
</g>
<!-- Node4 -->
<g id="node4" class="node"><title>Node4</title>
<g id="a_node4"><a xlink:href="../../d6/d93/ccccmain_8cc.html#a3c04138a5bfe5d72780bb7e82a18e627" target="_top" xlink:title="main">
<polygon fill="white" stroke="black" points="475,-0.5 475,-19.5 514,-19.5 514,-0.5 475,-0.5"/>
<text text-anchor="middle" x="494.5" y="-7.5" font-family="Helvetica,sans-Serif" font-size="10.00">main</text>
</a>
</g>
</g>
<!-- Node3&#45;&gt;Node4 -->
<g id="edge3" class="edge"><title>Node3&#45;&gt;Node4</title>
<path fill="none" stroke="midnightblue" d="M449.179,-10C458.395,-10 467.342,-10 474.755,-10"/>
<polygon fill="midnightblue" stroke="midnightblue" points="449.132,-6.5001 439.132,-10 449.132,-13.5001 449.132,-6.5001"/>
</g>
</g>
</svg>
