<?xml version="1.0" encoding="UTF-8" standalone="no"?>
<!DOCTYPE svg PUBLIC "-//W3C//DTD SVG 1.1//EN"
 "http://www.w3.org/Graphics/SVG/1.1/DTD/svg11.dtd">
<!-- Generated by graphviz version 2.38.0 (20140413.2041)
 -->
<!-- Title: JParser::interfaceExtends Pages: 1 -->
<svg width="1019pt" height="233pt"
 viewBox="0.00 0.00 1019.00 232.50" xmlns="http://www.w3.org/2000/svg" xmlns:xlink="http://www.w3.org/1999/xlink">
<g id="graph0" class="graph" transform="scale(1 1) rotate(0) translate(4 228.5)">
<title>JParser::interfaceExtends</title>
<polygon fill="white" stroke="none" points="-4,4 -4,-228.5 1015,-228.5 1015,4 -4,4"/>
<!-- Node1 -->
<g id="node1" class="node"><title>Node1</title>
<polygon fill="#bfbfbf" stroke="black" points="0,-148 0,-167 137,-167 137,-148 0,-148"/>
<text text-anchor="middle" x="68.5" y="-155" font-family="Helvetica,sans-Serif" font-size="10.00">JParser::interfaceExtends</text>
</g>
<!-- Node2 -->
<g id="node2" class="node"><title>Node2</title>
<g id="a_node2"><a xlink:href="../../d6/d6b/classJParser.html#a047ce8a8ba05c97e98ce4f14bad49b5e" target="_top" xlink:title="JParser::identifier2">
<polygon fill="white" stroke="black" points="376.5,-205 376.5,-224 480.5,-224 480.5,-205 376.5,-205"/>
<text text-anchor="middle" x="428.5" y="-212" font-family="Helvetica,sans-Serif" font-size="10.00">JParser::identifier2</text>
</a>
</g>
</g>
<!-- Node1&#45;&gt;Node2 -->
<g id="edge1" class="edge"><title>Node1&#45;&gt;Node2</title>
<path fill="none" stroke="midnightblue" d="M94.1987,-167.031C114.922,-174.623 145.466,-184.88 173,-190.5 238.225,-203.813 314.39,-209.764 366.282,-212.411"/>
<polygon fill="midnightblue" stroke="midnightblue" points="366.168,-215.909 376.326,-212.897 366.507,-208.917 366.168,-215.909"/>
</g>
<!-- Node5 -->
<g id="node5" class="node"><title>Node5</title>
<g id="a_node5"><a xlink:href="../../d6/d6b/classJParser.html#aece759e081c41c51c75fdc18ff349086" target="_top" xlink:title="JParser::syn">
<polygon fill="white" stroke="black" points="552,-167 552,-186 626,-186 626,-167 552,-167"/>
<text text-anchor="middle" x="589" y="-174" font-family="Helvetica,sans-Serif" font-size="10.00">JParser::syn</text>
</a>
</g>
</g>
<!-- Node1&#45;&gt;Node5 -->
<g id="edge23" class="edge"><title>Node1&#45;&gt;Node5</title>
<path fill="none" stroke="midnightblue" d="M137.019,-159.974C243.971,-163.893 449.627,-171.429 541.584,-174.799"/>
<polygon fill="midnightblue" stroke="midnightblue" points="541.575,-178.301 551.697,-175.17 541.832,-171.306 541.575,-178.301"/>
</g>
<!-- Node9 -->
<g id="node9" class="node"><title>Node9</title>
<g id="a_node9"><a xlink:href="../../d6/d6b/classJParser.html#a2b9364e5ceb9729cdcb6ccbf4527732a" target="_top" xlink:title="JParser::moreSuperclassNames">
<polygon fill="white" stroke="black" points="173,-129 173,-148 340,-148 340,-129 173,-129"/>
<text text-anchor="middle" x="256.5" y="-136" font-family="Helvetica,sans-Serif" font-size="10.00">JParser::moreSuperclassNames</text>
</a>
</g>
</g>
<!-- Node1&#45;&gt;Node9 -->
<g id="edge8" class="edge"><title>Node1&#45;&gt;Node9</title>
<path fill="none" stroke="midnightblue" d="M137.176,-150.587C145.538,-149.733 154.195,-148.848 162.849,-147.964"/>
<polygon fill="midnightblue" stroke="midnightblue" points="163.394,-151.427 172.987,-146.929 162.683,-144.463 163.394,-151.427"/>
</g>
<!-- Node10 -->
<g id="node10" class="node"><title>Node10</title>
<g id="a_node10"><a xlink:href="../../d3/d5e/classParseStore.html#aa8ae64513f8e2a44885a25d7b78a73e9" target="_top" xlink:title="ParseStore::record\l_userel_extent">
<polygon fill="white" stroke="black" points="376,-79.5 376,-109.5 481,-109.5 481,-79.5 376,-79.5"/>
<text text-anchor="start" x="384" y="-97.5" font-family="Helvetica,sans-Serif" font-size="10.00">ParseStore::record</text>
<text text-anchor="middle" x="428.5" y="-86.5" font-family="Helvetica,sans-Serif" font-size="10.00">_userel_extent</text>
</a>
</g>
</g>
<!-- Node1&#45;&gt;Node10 -->
<g id="edge22" class="edge"><title>Node1&#45;&gt;Node10</title>
<path fill="none" stroke="midnightblue" d="M90.8205,-147.853C111.414,-138.976 143.705,-126.202 173,-119.5 237.715,-104.696 313.66,-98.6563 365.636,-96.1937"/>
<polygon fill="midnightblue" stroke="midnightblue" points="365.866,-99.687 375.701,-95.7473 365.556,-92.6939 365.866,-99.687"/>
</g>
<!-- Node3 -->
<g id="node3" class="node"><title>Node3</title>
<g id="a_node3"><a xlink:href="../../da/d6a/classParseUtility.html#a128c7755b687730e50a5c063261f6c78" target="_top" xlink:title="ParseUtility::scopeCombine">
<polygon fill="white" stroke="black" points="517,-205 517,-224 661,-224 661,-205 517,-205"/>
<text text-anchor="middle" x="589" y="-212" font-family="Helvetica,sans-Serif" font-size="10.00">ParseUtility::scopeCombine</text>
</a>
</g>
</g>
<!-- Node2&#45;&gt;Node3 -->
<g id="edge2" class="edge"><title>Node2&#45;&gt;Node3</title>
<path fill="none" stroke="midnightblue" d="M480.523,-214.5C488.939,-214.5 497.844,-214.5 506.782,-214.5"/>
<polygon fill="midnightblue" stroke="midnightblue" points="506.864,-218 516.864,-214.5 506.864,-211 506.864,-218"/>
</g>
<!-- Node2&#45;&gt;Node5 -->
<g id="edge4" class="edge"><title>Node2&#45;&gt;Node5</title>
<path fill="none" stroke="midnightblue" d="M469.496,-204.911C491.545,-199.625 519.017,-193.039 541.957,-187.539"/>
<polygon fill="midnightblue" stroke="midnightblue" points="542.902,-190.911 551.811,-185.176 541.27,-184.104 542.902,-190.911"/>
</g>
<!-- Node4 -->
<g id="node4" class="node"><title>Node4</title>
<g id="a_node4"><a xlink:href="../../d4/d6e/classCCCC__Project.html#ac0565e746210778bc6f165130464041b" target="_top" xlink:title="CCCC_Project::name">
<polygon fill="white" stroke="black" points="704,-205 704,-224 820,-224 820,-205 704,-205"/>
<text text-anchor="middle" x="762" y="-212" font-family="Helvetica,sans-Serif" font-size="10.00">CCCC_Project::name</text>
</a>
</g>
</g>
<!-- Node3&#45;&gt;Node4 -->
<g id="edge3" class="edge"><title>Node3&#45;&gt;Node4</title>
<path fill="none" stroke="midnightblue" d="M661.034,-214.5C671.882,-214.5 683.05,-214.5 693.812,-214.5"/>
<polygon fill="midnightblue" stroke="midnightblue" points="693.982,-218 703.981,-214.5 693.981,-211 693.982,-218"/>
</g>
<!-- Node6 -->
<g id="node6" class="node"><title>Node6</title>
<g id="a_node6"><a xlink:href="../../da/d6a/classParseUtility.html#aabfa4c56607539ef14be2e2a7260006b" target="_top" xlink:title="ParseUtility::syn">
<polygon fill="white" stroke="black" points="716.5,-167 716.5,-186 807.5,-186 807.5,-167 716.5,-167"/>
<text text-anchor="middle" x="762" y="-174" font-family="Helvetica,sans-Serif" font-size="10.00">ParseUtility::syn</text>
</a>
</g>
</g>
<!-- Node5&#45;&gt;Node6 -->
<g id="edge5" class="edge"><title>Node5&#45;&gt;Node6</title>
<path fill="none" stroke="midnightblue" d="M626.265,-176.5C649.46,-176.5 679.989,-176.5 706.121,-176.5"/>
<polygon fill="midnightblue" stroke="midnightblue" points="706.267,-180 716.267,-176.5 706.267,-173 706.267,-180"/>
</g>
<!-- Node7 -->
<g id="node7" class="node"><title>Node7</title>
<g id="a_node7"><a xlink:href="../../d3/d5e/classParseStore.html#ab21a4aeadb4cc4938b58cbefbb8634e8" target="_top" xlink:title="ParseStore::currentInstance">
<polygon fill="white" stroke="black" points="863,-160 863,-179 1011,-179 1011,-160 863,-160"/>
<text text-anchor="middle" x="937" y="-167" font-family="Helvetica,sans-Serif" font-size="10.00">ParseStore::currentInstance</text>
</a>
</g>
</g>
<!-- Node6&#45;&gt;Node7 -->
<g id="edge6" class="edge"><title>Node6&#45;&gt;Node7</title>
<path fill="none" stroke="midnightblue" d="M807.552,-174.697C821.349,-174.139 837.025,-173.505 852.568,-172.876"/>
<polygon fill="midnightblue" stroke="midnightblue" points="852.892,-176.366 862.742,-172.464 852.609,-169.371 852.892,-176.366"/>
</g>
<!-- Node8 -->
<g id="node8" class="node"><title>Node8</title>
<g id="a_node8"><a xlink:href="../../d3/d5e/classParseStore.html#ae7b3d82d22174c1a1165a592d6c1700c" target="_top" xlink:title="ParseStore::filename">
<polygon fill="white" stroke="black" points="880,-198 880,-217 994,-217 994,-198 880,-198"/>
<text text-anchor="middle" x="937" y="-205" font-family="Helvetica,sans-Serif" font-size="10.00">ParseStore::filename</text>
</a>
</g>
</g>
<!-- Node6&#45;&gt;Node8 -->
<g id="edge7" class="edge"><title>Node6&#45;&gt;Node8</title>
<path fill="none" stroke="midnightblue" d="M807.552,-184.483C827.43,-188.045 851.208,-192.306 872.872,-196.188"/>
<polygon fill="midnightblue" stroke="midnightblue" points="872.521,-199.681 882.981,-198 873.755,-192.791 872.521,-199.681"/>
</g>
<!-- Node9&#45;&gt;Node2 -->
<g id="edge9" class="edge"><title>Node9&#45;&gt;Node2</title>
<path fill="none" stroke="midnightblue" d="M279.031,-148.125C308.793,-161.431 362.675,-185.52 396.693,-200.728"/>
<polygon fill="midnightblue" stroke="midnightblue" points="395.586,-204.067 406.144,-204.953 398.443,-197.676 395.586,-204.067"/>
</g>
<!-- Node9&#45;&gt;Node5 -->
<g id="edge21" class="edge"><title>Node9&#45;&gt;Node5</title>
<path fill="none" stroke="midnightblue" d="M340.078,-146.907C382.266,-151.319 434.402,-156.95 481,-162.5 500.935,-164.874 522.928,-167.714 541.764,-170.213"/>
<polygon fill="midnightblue" stroke="midnightblue" points="541.496,-173.708 551.871,-171.561 542.421,-166.77 541.496,-173.708"/>
</g>
<!-- Node9&#45;&gt;Node10 -->
<g id="edge10" class="edge"><title>Node9&#45;&gt;Node10</title>
<path fill="none" stroke="midnightblue" d="M294.387,-128.953C315.329,-123.532 342.081,-116.608 366.102,-110.391"/>
<polygon fill="midnightblue" stroke="midnightblue" points="367.049,-113.762 375.853,-107.868 365.295,-106.985 367.049,-113.762"/>
</g>
<!-- Node11 -->
<g id="node11" class="node"><title>Node11</title>
<g id="a_node11"><a xlink:href="../../db/d6a/classCCCC__Item.html#a87231c9aa43ece932511d1143b64367e" target="_top" xlink:title="CCCC_Item::Insert">
<polygon fill="white" stroke="black" points="710,-10 710,-29 814,-29 814,-10 710,-10"/>
<text text-anchor="middle" x="762" y="-17" font-family="Helvetica,sans-Serif" font-size="10.00">CCCC_Item::Insert</text>
</a>
</g>
</g>
<!-- Node10&#45;&gt;Node11 -->
<g id="edge11" class="edge"><title>Node10&#45;&gt;Node11</title>
<path fill="none" stroke="midnightblue" d="M481.297,-82.7812C543.309,-68.7514 646.567,-45.3899 708.77,-31.3167"/>
<polygon fill="midnightblue" stroke="midnightblue" points="709.782,-34.6764 718.763,-29.0559 708.237,-27.8489 709.782,-34.6764"/>
</g>
<!-- Node12 -->
<g id="node12" class="node"><title>Node12</title>
<g id="a_node12"><a xlink:href="../../d3/d5e/classParseStore.html#a058a15dda767cb8cf60dc578ec8ffb38" target="_top" xlink:title="ParseStore::flags">
<polygon fill="white" stroke="black" points="540.5,-126 540.5,-145 637.5,-145 637.5,-126 540.5,-126"/>
<text text-anchor="middle" x="589" y="-133" font-family="Helvetica,sans-Serif" font-size="10.00">ParseStore::flags</text>
</a>
</g>
</g>
<!-- Node10&#45;&gt;Node12 -->
<g id="edge12" class="edge"><title>Node10&#45;&gt;Node12</title>
<path fill="none" stroke="midnightblue" d="M481.399,-107.925C500.684,-112.914 522.433,-118.539 541.232,-123.402"/>
<polygon fill="midnightblue" stroke="midnightblue" points="540.493,-126.826 551.051,-125.942 542.247,-120.049 540.493,-126.826"/>
</g>
<!-- Node13 -->
<g id="node13" class="node"><title>Node13</title>
<g id="a_node13"><a xlink:href="../../d3/d5e/classParseStore.html#ab07edec82aea81e439fa34d2f557b36f" target="_top" xlink:title="ParseStore::insert\l_extent">
<polygon fill="white" stroke="black" points="538.5,-0.5 538.5,-30.5 639.5,-30.5 639.5,-0.5 538.5,-0.5"/>
<text text-anchor="start" x="546.5" y="-18.5" font-family="Helvetica,sans-Serif" font-size="10.00">ParseStore::insert</text>
<text text-anchor="middle" x="589" y="-7.5" font-family="Helvetica,sans-Serif" font-size="10.00">_extent</text>
</a>
</g>
</g>
<!-- Node10&#45;&gt;Node13 -->
<g id="edge13" class="edge"><title>Node10&#45;&gt;Node13</title>
<path fill="none" stroke="midnightblue" d="M454.755,-79.3767C472.023,-69.2812 495.575,-55.9853 517,-45.5 524.602,-41.7794 532.782,-38.066 540.79,-34.5834"/>
<polygon fill="midnightblue" stroke="midnightblue" points="542.249,-37.7659 550.067,-30.6144 539.496,-31.3302 542.249,-37.7659"/>
</g>
<!-- Node14 -->
<g id="node14" class="node"><title>Node14</title>
<g id="a_node14"><a xlink:href="../../d4/d6e/classCCCC__Project.html#adae36526071c67957535938bf6401d9f" target="_top" xlink:title="CCCC_Project::add_userel">
<polygon fill="white" stroke="black" points="517.5,-88 517.5,-107 660.5,-107 660.5,-88 517.5,-88"/>
<text text-anchor="middle" x="589" y="-95" font-family="Helvetica,sans-Serif" font-size="10.00">CCCC_Project::add_userel</text>
</a>
</g>
</g>
<!-- Node10&#45;&gt;Node14 -->
<g id="edge15" class="edge"><title>Node10&#45;&gt;Node14</title>
<path fill="none" stroke="midnightblue" d="M481.399,-95.4823C489.64,-95.6383 498.331,-95.8028 507.049,-95.9678"/>
<polygon fill="midnightblue" stroke="midnightblue" points="507.207,-99.4713 517.271,-96.1613 507.34,-92.4726 507.207,-99.4713"/>
</g>
<!-- Node13&#45;&gt;Node11 -->
<g id="edge14" class="edge"><title>Node13&#45;&gt;Node11</title>
<path fill="none" stroke="midnightblue" d="M639.92,-16.6677C658.64,-17.1056 680.13,-17.6083 699.76,-18.0675"/>
<polygon fill="midnightblue" stroke="midnightblue" points="699.752,-21.5682 709.831,-18.3031 699.916,-14.5701 699.752,-21.5682"/>
</g>
<!-- Node15 -->
<g id="node15" class="node"><title>Node15</title>
<g id="a_node15"><a xlink:href="../../d8/dcf/classCCCC__Table.html#a8e08fe4f6edb07f1fbf2813c66bb3606" target="_top" xlink:title="CCCC_Table::find_or\l_insert">
<polygon fill="white" stroke="black" points="879,-106.5 879,-136.5 995,-136.5 995,-106.5 879,-106.5"/>
<text text-anchor="start" x="887" y="-124.5" font-family="Helvetica,sans-Serif" font-size="10.00">CCCC_Table::find_or</text>
<text text-anchor="middle" x="937" y="-113.5" font-family="Helvetica,sans-Serif" font-size="10.00">_insert</text>
</a>
</g>
</g>
<!-- Node14&#45;&gt;Node15 -->
<g id="edge16" class="edge"><title>Node14&#45;&gt;Node15</title>
<path fill="none" stroke="midnightblue" d="M660.853,-102.415C721.781,-106.641 809.045,-112.694 868.868,-116.843"/>
<polygon fill="midnightblue" stroke="midnightblue" points="868.747,-120.343 878.965,-117.544 869.231,-113.36 868.747,-120.343"/>
</g>
<!-- Node16 -->
<g id="node16" class="node"><title>Node16</title>
<g id="a_node16"><a xlink:href="../../d2/d65/classCCCC__UseRelationship.html#aea65f893850f8e1903c3e53ac04170f6" target="_top" xlink:title="CCCC_UseRelationship\l::add_extent">
<polygon fill="white" stroke="black" points="697,-62.5 697,-92.5 827,-92.5 827,-62.5 697,-62.5"/>
<text text-anchor="start" x="705" y="-80.5" font-family="Helvetica,sans-Serif" font-size="10.00">CCCC_UseRelationship</text>
<text text-anchor="middle" x="762" y="-69.5" font-family="Helvetica,sans-Serif" font-size="10.00">::add_extent</text>
</a>
</g>
</g>
<!-- Node14&#45;&gt;Node16 -->
<g id="edge17" class="edge"><title>Node14&#45;&gt;Node16</title>
<path fill="none" stroke="midnightblue" d="M660.54,-89.2498C669.202,-88.2366 678.076,-87.1988 686.79,-86.1795"/>
<polygon fill="midnightblue" stroke="midnightblue" points="687.399,-89.6322 696.925,-84.9942 686.586,-82.6796 687.399,-89.6322"/>
</g>
<!-- Node16&#45;&gt;Node15 -->
<g id="edge18" class="edge"><title>Node16&#45;&gt;Node15</title>
<path fill="none" stroke="midnightblue" d="M822.053,-92.5192C837.149,-96.3586 853.488,-100.514 868.953,-104.448"/>
<polygon fill="midnightblue" stroke="midnightblue" points="868.413,-107.922 878.968,-106.995 870.139,-101.138 868.413,-107.922"/>
</g>
<!-- Node17 -->
<g id="node17" class="node"><title>Node17</title>
<g id="a_node17"><a xlink:href="../../df/d99/classCCCC__Extent.html#a82a7a03bd389c67ba2f5dc7787e89739" target="_top" xlink:title="CCCC_Extent::get_visibility">
<polygon fill="white" stroke="black" points="865.5,-68 865.5,-87 1008.5,-87 1008.5,-68 865.5,-68"/>
<text text-anchor="middle" x="937" y="-75" font-family="Helvetica,sans-Serif" font-size="10.00">CCCC_Extent::get_visibility</text>
</a>
</g>
</g>
<!-- Node16&#45;&gt;Node17 -->
<g id="edge19" class="edge"><title>Node16&#45;&gt;Node17</title>
<path fill="none" stroke="midnightblue" d="M827.419,-77.5C836.52,-77.5 845.97,-77.5 855.329,-77.5"/>
<polygon fill="midnightblue" stroke="midnightblue" points="855.428,-81.0001 865.428,-77.5 855.428,-74.0001 855.428,-81.0001"/>
</g>
<!-- Node18 -->
<g id="node18" class="node"><title>Node18</title>
<g id="a_node18"><a xlink:href="../../df/d99/classCCCC__Extent.html#abe27f2b34d0542894c6339274e8d1834" target="_top" xlink:title="CCCC_Extent::get_usetype">
<polygon fill="white" stroke="black" points="864.5,-30 864.5,-49 1009.5,-49 1009.5,-30 864.5,-30"/>
<text text-anchor="middle" x="937" y="-37" font-family="Helvetica,sans-Serif" font-size="10.00">CCCC_Extent::get_usetype</text>
</a>
</g>
</g>
<!-- Node16&#45;&gt;Node18 -->
<g id="edge20" class="edge"><title>Node16&#45;&gt;Node18</title>
<path fill="none" stroke="midnightblue" d="M827.419,-63.3502C845.568,-59.3637 865.107,-55.0719 882.539,-51.2428"/>
<polygon fill="midnightblue" stroke="midnightblue" points="883.517,-54.6116 892.533,-49.0476 882.015,-47.7746 883.517,-54.6116"/>
</g>
</g>
</svg>
