<?xml version="1.0" encoding="UTF-8" standalone="no"?>
<!DOCTYPE svg PUBLIC "-//W3C//DTD SVG 1.1//EN"
 "http://www.w3.org/Graphics/SVG/1.1/DTD/svg11.dtd">
<!-- Generated by graphviz version 2.38.0 (20140413.2041)
 -->
<!-- Title: JParser::moreSuperclassNames Pages: 1 -->
<svg width="846pt" height="290pt"
 viewBox="0.00 0.00 846.00 290.00" xmlns="http://www.w3.org/2000/svg" xmlns:xlink="http://www.w3.org/1999/xlink">
<g id="graph0" class="graph" transform="scale(1 1) rotate(0) translate(4 286)">
<title>JParser::moreSuperclassNames</title>
<polygon fill="white" stroke="none" points="-4,4 -4,-286 842,-286 842,4 -4,4"/>
<!-- Node1 -->
<g id="node1" class="node"><title>Node1</title>
<polygon fill="#bfbfbf" stroke="black" points="0,-208.5 0,-227.5 167,-227.5 167,-208.5 0,-208.5"/>
<text text-anchor="middle" x="83.5" y="-215.5" font-family="Helvetica,sans-Serif" font-size="10.00">JParser::moreSuperclassNames</text>
</g>
<!-- Node2 -->
<g id="node2" class="node"><title>Node2</title>
<g id="a_node2"><a xlink:href="../../d6/d6b/classJParser.html#a047ce8a8ba05c97e98ce4f14bad49b5e" target="_top" xlink:title="JParser::identifier2">
<polygon fill="white" stroke="black" points="203.5,-246.5 203.5,-265.5 307.5,-265.5 307.5,-246.5 203.5,-246.5"/>
<text text-anchor="middle" x="255.5" y="-253.5" font-family="Helvetica,sans-Serif" font-size="10.00">JParser::identifier2</text>
</a>
</g>
</g>
<!-- Node1&#45;&gt;Node2 -->
<g id="edge1" class="edge"><title>Node1&#45;&gt;Node2</title>
<path fill="none" stroke="midnightblue" d="M127.398,-227.589C150.034,-232.649 177.998,-238.9 201.929,-244.249"/>
<polygon fill="midnightblue" stroke="midnightblue" points="201.388,-247.714 211.91,-246.48 202.915,-240.883 201.388,-247.714"/>
</g>
<!-- Node5 -->
<g id="node5" class="node"><title>Node5</title>
<g id="a_node5"><a xlink:href="../../d6/d6b/classJParser.html#aece759e081c41c51c75fdc18ff349086" target="_top" xlink:title="JParser::syn">
<polygon fill="white" stroke="black" points="379,-224.5 379,-243.5 453,-243.5 453,-224.5 379,-224.5"/>
<text text-anchor="middle" x="416" y="-231.5" font-family="Helvetica,sans-Serif" font-size="10.00">JParser::syn</text>
</a>
</g>
</g>
<!-- Node1&#45;&gt;Node5 -->
<g id="edge19" class="edge"><title>Node1&#45;&gt;Node5</title>
<path fill="none" stroke="midnightblue" d="M167.047,-221.996C230.725,-225.079 316.479,-229.23 368.643,-231.756"/>
<polygon fill="midnightblue" stroke="midnightblue" points="368.77,-235.266 378.928,-232.254 369.109,-228.274 368.77,-235.266"/>
</g>
<!-- Node9 -->
<g id="node9" class="node"><title>Node9</title>
<g id="a_node9"><a xlink:href="../../d3/d5e/classParseStore.html#aa8ae64513f8e2a44885a25d7b78a73e9" target="_top" xlink:title="ParseStore::record\l_userel_extent">
<polygon fill="white" stroke="black" points="203,-143 203,-173 308,-173 308,-143 203,-143"/>
<text text-anchor="start" x="211" y="-161" font-family="Helvetica,sans-Serif" font-size="10.00">ParseStore::record</text>
<text text-anchor="middle" x="255.5" y="-150" font-family="Helvetica,sans-Serif" font-size="10.00">_userel_extent</text>
</a>
</g>
</g>
<!-- Node1&#45;&gt;Node9 -->
<g id="edge8" class="edge"><title>Node1&#45;&gt;Node9</title>
<path fill="none" stroke="midnightblue" d="M111.437,-208.493C135.767,-199.906 172.256,-187.027 202.292,-176.426"/>
<polygon fill="midnightblue" stroke="midnightblue" points="203.529,-179.701 211.794,-173.073 201.199,-173.101 203.529,-179.701"/>
</g>
<!-- Node3 -->
<g id="node3" class="node"><title>Node3</title>
<g id="a_node3"><a xlink:href="../../da/d6a/classParseUtility.html#a128c7755b687730e50a5c063261f6c78" target="_top" xlink:title="ParseUtility::scopeCombine">
<polygon fill="white" stroke="black" points="344,-262.5 344,-281.5 488,-281.5 488,-262.5 344,-262.5"/>
<text text-anchor="middle" x="416" y="-269.5" font-family="Helvetica,sans-Serif" font-size="10.00">ParseUtility::scopeCombine</text>
</a>
</g>
</g>
<!-- Node2&#45;&gt;Node3 -->
<g id="edge2" class="edge"><title>Node2&#45;&gt;Node3</title>
<path fill="none" stroke="midnightblue" d="M307.523,-261.151C315.939,-262 324.844,-262.899 333.782,-263.801"/>
<polygon fill="midnightblue" stroke="midnightblue" points="333.563,-267.297 343.864,-264.819 334.266,-260.332 333.563,-267.297"/>
</g>
<!-- Node2&#45;&gt;Node5 -->
<g id="edge4" class="edge"><title>Node2&#45;&gt;Node5</title>
<path fill="none" stroke="midnightblue" d="M307.523,-248.918C327.161,-246.192 349.459,-243.097 368.634,-240.436"/>
<polygon fill="midnightblue" stroke="midnightblue" points="369.213,-243.889 378.637,-239.047 368.251,-236.955 369.213,-243.889"/>
</g>
<!-- Node4 -->
<g id="node4" class="node"><title>Node4</title>
<g id="a_node4"><a xlink:href="../../d4/d6e/classCCCC__Project.html#ac0565e746210778bc6f165130464041b" target="_top" xlink:title="CCCC_Project::name">
<polygon fill="white" stroke="black" points="531,-262.5 531,-281.5 647,-281.5 647,-262.5 531,-262.5"/>
<text text-anchor="middle" x="589" y="-269.5" font-family="Helvetica,sans-Serif" font-size="10.00">CCCC_Project::name</text>
</a>
</g>
</g>
<!-- Node3&#45;&gt;Node4 -->
<g id="edge3" class="edge"><title>Node3&#45;&gt;Node4</title>
<path fill="none" stroke="midnightblue" d="M488.034,-272C498.882,-272 510.05,-272 520.812,-272"/>
<polygon fill="midnightblue" stroke="midnightblue" points="520.982,-275.5 530.981,-272 520.981,-268.5 520.982,-275.5"/>
</g>
<!-- Node6 -->
<g id="node6" class="node"><title>Node6</title>
<g id="a_node6"><a xlink:href="../../da/d6a/classParseUtility.html#aabfa4c56607539ef14be2e2a7260006b" target="_top" xlink:title="ParseUtility::syn">
<polygon fill="white" stroke="black" points="543.5,-224.5 543.5,-243.5 634.5,-243.5 634.5,-224.5 543.5,-224.5"/>
<text text-anchor="middle" x="589" y="-231.5" font-family="Helvetica,sans-Serif" font-size="10.00">ParseUtility::syn</text>
</a>
</g>
</g>
<!-- Node5&#45;&gt;Node6 -->
<g id="edge5" class="edge"><title>Node5&#45;&gt;Node6</title>
<path fill="none" stroke="midnightblue" d="M453.265,-234C476.46,-234 506.989,-234 533.121,-234"/>
<polygon fill="midnightblue" stroke="midnightblue" points="533.267,-237.5 543.267,-234 533.267,-230.5 533.267,-237.5"/>
</g>
<!-- Node7 -->
<g id="node7" class="node"><title>Node7</title>
<g id="a_node7"><a xlink:href="../../d3/d5e/classParseStore.html#ab21a4aeadb4cc4938b58cbefbb8634e8" target="_top" xlink:title="ParseStore::currentInstance">
<polygon fill="white" stroke="black" points="690,-243.5 690,-262.5 838,-262.5 838,-243.5 690,-243.5"/>
<text text-anchor="middle" x="764" y="-250.5" font-family="Helvetica,sans-Serif" font-size="10.00">ParseStore::currentInstance</text>
</a>
</g>
</g>
<!-- Node6&#45;&gt;Node7 -->
<g id="edge6" class="edge"><title>Node6&#45;&gt;Node7</title>
<path fill="none" stroke="midnightblue" d="M634.552,-238.893C648.349,-240.408 664.025,-242.13 679.568,-243.837"/>
<polygon fill="midnightblue" stroke="midnightblue" points="679.42,-247.342 689.742,-244.954 680.184,-240.383 679.42,-247.342"/>
</g>
<!-- Node8 -->
<g id="node8" class="node"><title>Node8</title>
<g id="a_node8"><a xlink:href="../../d3/d5e/classParseStore.html#ae7b3d82d22174c1a1165a592d6c1700c" target="_top" xlink:title="ParseStore::filename">
<polygon fill="white" stroke="black" points="707,-205.5 707,-224.5 821,-224.5 821,-205.5 707,-205.5"/>
<text text-anchor="middle" x="764" y="-212.5" font-family="Helvetica,sans-Serif" font-size="10.00">ParseStore::filename</text>
</a>
</g>
</g>
<!-- Node6&#45;&gt;Node8 -->
<g id="edge7" class="edge"><title>Node6&#45;&gt;Node8</title>
<path fill="none" stroke="midnightblue" d="M634.552,-229.107C653.48,-227.028 675.943,-224.561 696.751,-222.276"/>
<polygon fill="midnightblue" stroke="midnightblue" points="697.251,-225.742 706.809,-221.171 696.487,-218.784 697.251,-225.742"/>
</g>
<!-- Node10 -->
<g id="node10" class="node"><title>Node10</title>
<g id="a_node10"><a xlink:href="../../db/d6a/classCCCC__Item.html#a87231c9aa43ece932511d1143b64367e" target="_top" xlink:title="CCCC_Item::Insert">
<polygon fill="white" stroke="black" points="537,-164.5 537,-183.5 641,-183.5 641,-164.5 537,-164.5"/>
<text text-anchor="middle" x="589" y="-171.5" font-family="Helvetica,sans-Serif" font-size="10.00">CCCC_Item::Insert</text>
</a>
</g>
</g>
<!-- Node9&#45;&gt;Node10 -->
<g id="edge9" class="edge"><title>Node9&#45;&gt;Node10</title>
<path fill="none" stroke="midnightblue" d="M308.021,-171.101C319.769,-173.553 332.253,-175.739 344,-177 405.937,-183.647 477.222,-181.669 526.682,-178.78"/>
<polygon fill="midnightblue" stroke="midnightblue" points="527.128,-182.26 536.894,-178.153 526.698,-175.273 527.128,-182.26"/>
</g>
<!-- Node11 -->
<g id="node11" class="node"><title>Node11</title>
<g id="a_node11"><a xlink:href="../../d3/d5e/classParseStore.html#a058a15dda767cb8cf60dc578ec8ffb38" target="_top" xlink:title="ParseStore::flags">
<polygon fill="white" stroke="black" points="367.5,-148.5 367.5,-167.5 464.5,-167.5 464.5,-148.5 367.5,-148.5"/>
<text text-anchor="middle" x="416" y="-155.5" font-family="Helvetica,sans-Serif" font-size="10.00">ParseStore::flags</text>
</a>
</g>
</g>
<!-- Node9&#45;&gt;Node11 -->
<g id="edge10" class="edge"><title>Node9&#45;&gt;Node11</title>
<path fill="none" stroke="midnightblue" d="M308.399,-158C323.952,-158 341.106,-158 357.024,-158"/>
<polygon fill="midnightblue" stroke="midnightblue" points="357.277,-161.5 367.277,-158 357.277,-154.5 357.277,-161.5"/>
</g>
<!-- Node12 -->
<g id="node12" class="node"><title>Node12</title>
<g id="a_node12"><a xlink:href="../../d3/d5e/classParseStore.html#ab07edec82aea81e439fa34d2f557b36f" target="_top" xlink:title="ParseStore::insert\l_extent">
<polygon fill="white" stroke="black" points="365.5,-99 365.5,-129 466.5,-129 466.5,-99 365.5,-99"/>
<text text-anchor="start" x="373.5" y="-117" font-family="Helvetica,sans-Serif" font-size="10.00">ParseStore::insert</text>
<text text-anchor="middle" x="416" y="-106" font-family="Helvetica,sans-Serif" font-size="10.00">_extent</text>
</a>
</g>
</g>
<!-- Node9&#45;&gt;Node12 -->
<g id="edge11" class="edge"><title>Node9&#45;&gt;Node12</title>
<path fill="none" stroke="midnightblue" d="M308.399,-143.593C323.433,-139.419 339.964,-134.83 355.428,-130.537"/>
<polygon fill="midnightblue" stroke="midnightblue" points="356.711,-133.814 365.41,-127.766 354.838,-127.069 356.711,-133.814"/>
</g>
<!-- Node13 -->
<g id="node13" class="node"><title>Node13</title>
<g id="a_node13"><a xlink:href="../../d4/d6e/classCCCC__Project.html#adae36526071c67957535938bf6401d9f" target="_top" xlink:title="CCCC_Project::add_userel">
<polygon fill="white" stroke="black" points="344.5,-60.5 344.5,-79.5 487.5,-79.5 487.5,-60.5 344.5,-60.5"/>
<text text-anchor="middle" x="416" y="-67.5" font-family="Helvetica,sans-Serif" font-size="10.00">CCCC_Project::add_userel</text>
</a>
</g>
</g>
<!-- Node9&#45;&gt;Node13 -->
<g id="edge13" class="edge"><title>Node9&#45;&gt;Node13</title>
<path fill="none" stroke="midnightblue" d="M271.591,-142.892C288.044,-127.239 315.809,-103.129 344,-89 348.657,-86.6657 353.635,-84.5927 358.713,-82.757"/>
<polygon fill="midnightblue" stroke="midnightblue" points="360.143,-85.9708 368.542,-79.5131 357.949,-79.3235 360.143,-85.9708"/>
</g>
<!-- Node12&#45;&gt;Node10 -->
<g id="edge12" class="edge"><title>Node12&#45;&gt;Node10</title>
<path fill="none" stroke="midnightblue" d="M460.151,-129.141C488.225,-138.991 524.449,-151.701 551.167,-161.076"/>
<polygon fill="midnightblue" stroke="midnightblue" points="550.31,-164.484 560.905,-164.493 552.627,-157.879 550.31,-164.484"/>
</g>
<!-- Node14 -->
<g id="node14" class="node"><title>Node14</title>
<g id="a_node14"><a xlink:href="../../d8/dcf/classCCCC__Table.html#a8e08fe4f6edb07f1fbf2813c66bb3606" target="_top" xlink:title="CCCC_Table::find_or\l_insert">
<polygon fill="white" stroke="black" points="706,-77 706,-107 822,-107 822,-77 706,-77"/>
<text text-anchor="start" x="714" y="-95" font-family="Helvetica,sans-Serif" font-size="10.00">CCCC_Table::find_or</text>
<text text-anchor="middle" x="764" y="-84" font-family="Helvetica,sans-Serif" font-size="10.00">_insert</text>
</a>
</g>
</g>
<!-- Node13&#45;&gt;Node14 -->
<g id="edge14" class="edge"><title>Node13&#45;&gt;Node14</title>
<path fill="none" stroke="midnightblue" d="M487.853,-74.5051C548.781,-78.3792 636.045,-83.9277 695.868,-87.7315"/>
<polygon fill="midnightblue" stroke="midnightblue" points="695.763,-91.2318 705.965,-88.3735 696.207,-84.2459 695.763,-91.2318"/>
</g>
<!-- Node15 -->
<g id="node15" class="node"><title>Node15</title>
<g id="a_node15"><a xlink:href="../../d2/d65/classCCCC__UseRelationship.html#aea65f893850f8e1903c3e53ac04170f6" target="_top" xlink:title="CCCC_UseRelationship\l::add_extent">
<polygon fill="white" stroke="black" points="524,-33 524,-63 654,-63 654,-33 524,-33"/>
<text text-anchor="start" x="532" y="-51" font-family="Helvetica,sans-Serif" font-size="10.00">CCCC_UseRelationship</text>
<text text-anchor="middle" x="589" y="-40" font-family="Helvetica,sans-Serif" font-size="10.00">::add_extent</text>
</a>
</g>
</g>
<!-- Node13&#45;&gt;Node15 -->
<g id="edge15" class="edge"><title>Node13&#45;&gt;Node15</title>
<path fill="none" stroke="midnightblue" d="M487.54,-60.9247C496.202,-59.8103 505.076,-58.6686 513.79,-57.5475"/>
<polygon fill="midnightblue" stroke="midnightblue" points="514.453,-60.9911 523.925,-56.2436 513.56,-54.0483 514.453,-60.9911"/>
</g>
<!-- Node15&#45;&gt;Node14 -->
<g id="edge16" class="edge"><title>Node15&#45;&gt;Node14</title>
<path fill="none" stroke="midnightblue" d="M649.053,-63.0192C664.149,-66.8586 680.488,-71.0144 695.953,-74.9476"/>
<polygon fill="midnightblue" stroke="midnightblue" points="695.413,-78.4217 705.968,-77.4946 697.139,-71.6377 695.413,-78.4217"/>
</g>
<!-- Node16 -->
<g id="node16" class="node"><title>Node16</title>
<g id="a_node16"><a xlink:href="../../df/d99/classCCCC__Extent.html#a82a7a03bd389c67ba2f5dc7787e89739" target="_top" xlink:title="CCCC_Extent::get_visibility">
<polygon fill="white" stroke="black" points="692.5,-38.5 692.5,-57.5 835.5,-57.5 835.5,-38.5 692.5,-38.5"/>
<text text-anchor="middle" x="764" y="-45.5" font-family="Helvetica,sans-Serif" font-size="10.00">CCCC_Extent::get_visibility</text>
</a>
</g>
</g>
<!-- Node15&#45;&gt;Node16 -->
<g id="edge17" class="edge"><title>Node15&#45;&gt;Node16</title>
<path fill="none" stroke="midnightblue" d="M654.419,-48C663.52,-48 672.97,-48 682.329,-48"/>
<polygon fill="midnightblue" stroke="midnightblue" points="682.428,-51.5001 692.428,-48 682.428,-44.5001 682.428,-51.5001"/>
</g>
<!-- Node17 -->
<g id="node17" class="node"><title>Node17</title>
<g id="a_node17"><a xlink:href="../../df/d99/classCCCC__Extent.html#abe27f2b34d0542894c6339274e8d1834" target="_top" xlink:title="CCCC_Extent::get_usetype">
<polygon fill="white" stroke="black" points="691.5,-0.5 691.5,-19.5 836.5,-19.5 836.5,-0.5 691.5,-0.5"/>
<text text-anchor="middle" x="764" y="-7.5" font-family="Helvetica,sans-Serif" font-size="10.00">CCCC_Extent::get_usetype</text>
</a>
</g>
</g>
<!-- Node15&#45;&gt;Node17 -->
<g id="edge18" class="edge"><title>Node15&#45;&gt;Node17</title>
<path fill="none" stroke="midnightblue" d="M654.419,-33.8502C672.568,-29.8637 692.107,-25.5719 709.539,-21.7428"/>
<polygon fill="midnightblue" stroke="midnightblue" points="710.517,-25.1116 719.533,-19.5476 709.015,-18.2746 710.517,-25.1116"/>
</g>
</g>
</svg>
