<?xml version="1.0" encoding="UTF-8" standalone="no"?>
<!DOCTYPE svg PUBLIC "-//W3C//DTD SVG 1.1//EN"
 "http://www.w3.org/Graphics/SVG/1.1/DTD/svg11.dtd">
<!-- Generated by graphviz version 2.38.0 (20140413.2041)
 -->
<!-- Title: JParser::importDefinition Pages: 1 -->
<svg width="714pt" height="66pt"
 viewBox="0.00 0.00 714.00 66.00" xmlns="http://www.w3.org/2000/svg" xmlns:xlink="http://www.w3.org/1999/xlink">
<g id="graph0" class="graph" transform="scale(1 1) rotate(0) translate(4 62)">
<title>JParser::importDefinition</title>
<polygon fill="white" stroke="none" points="-4,4 -4,-62 710,-62 710,4 -4,4"/>
<!-- Node1 -->
<g id="node1" class="node"><title>Node1</title>
<polygon fill="#bfbfbf" stroke="black" points="0,-19.5 0,-38.5 131,-38.5 131,-19.5 0,-19.5"/>
<text text-anchor="middle" x="65.5" y="-26.5" font-family="Helvetica,sans-Serif" font-size="10.00">JParser::importDefinition</text>
</g>
<!-- Node2 -->
<g id="node2" class="node"><title>Node2</title>
<g id="a_node2"><a xlink:href="../../d6/d6b/classJParser.html#a6d0e898b4d9c1c6a210981c0132dd418" target="_top" xlink:title="JParser::identifierStar">
<polygon fill="white" stroke="black" points="167,-38.5 167,-57.5 285,-57.5 285,-38.5 167,-38.5"/>
<text text-anchor="middle" x="226" y="-45.5" font-family="Helvetica,sans-Serif" font-size="10.00">JParser::identifierStar</text>
</a>
</g>
</g>
<!-- Node1&#45;&gt;Node2 -->
<g id="edge1" class="edge"><title>Node1&#45;&gt;Node2</title>
<path fill="none" stroke="midnightblue" d="M131.425,-36.7828C139.752,-37.781 148.297,-38.8053 156.676,-39.8098"/>
<polygon fill="midnightblue" stroke="midnightblue" points="156.443,-43.3068 166.788,-41.0219 157.276,-36.3565 156.443,-43.3068"/>
</g>
<!-- Node3 -->
<g id="node3" class="node"><title>Node3</title>
<g id="a_node3"><a xlink:href="../../d6/d6b/classJParser.html#aece759e081c41c51c75fdc18ff349086" target="_top" xlink:title="JParser::syn">
<polygon fill="white" stroke="black" points="321,-19.5 321,-38.5 395,-38.5 395,-19.5 321,-19.5"/>
<text text-anchor="middle" x="358" y="-26.5" font-family="Helvetica,sans-Serif" font-size="10.00">JParser::syn</text>
</a>
</g>
</g>
<!-- Node1&#45;&gt;Node3 -->
<g id="edge6" class="edge"><title>Node1&#45;&gt;Node3</title>
<path fill="none" stroke="midnightblue" d="M131.332,-29C185.703,-29 262.025,-29 310.493,-29"/>
<polygon fill="midnightblue" stroke="midnightblue" points="310.692,-32.5001 320.692,-29 310.692,-25.5001 310.692,-32.5001"/>
</g>
<!-- Node2&#45;&gt;Node3 -->
<g id="edge2" class="edge"><title>Node2&#45;&gt;Node3</title>
<path fill="none" stroke="midnightblue" d="M285.156,-39.5003C293.807,-38.2359 302.622,-36.9476 310.978,-35.7263"/>
<polygon fill="midnightblue" stroke="midnightblue" points="311.512,-39.1855 320.901,-34.276 310.5,-32.259 311.512,-39.1855"/>
</g>
<!-- Node4 -->
<g id="node4" class="node"><title>Node4</title>
<g id="a_node4"><a xlink:href="../../da/d6a/classParseUtility.html#aabfa4c56607539ef14be2e2a7260006b" target="_top" xlink:title="ParseUtility::syn">
<polygon fill="white" stroke="black" points="431,-19.5 431,-38.5 522,-38.5 522,-19.5 431,-19.5"/>
<text text-anchor="middle" x="476.5" y="-26.5" font-family="Helvetica,sans-Serif" font-size="10.00">ParseUtility::syn</text>
</a>
</g>
</g>
<!-- Node3&#45;&gt;Node4 -->
<g id="edge3" class="edge"><title>Node3&#45;&gt;Node4</title>
<path fill="none" stroke="midnightblue" d="M395.223,-29C403.288,-29 412.014,-29 420.641,-29"/>
<polygon fill="midnightblue" stroke="midnightblue" points="420.677,-32.5001 430.677,-29 420.677,-25.5001 420.677,-32.5001"/>
</g>
<!-- Node5 -->
<g id="node5" class="node"><title>Node5</title>
<g id="a_node5"><a xlink:href="../../d3/d5e/classParseStore.html#ab21a4aeadb4cc4938b58cbefbb8634e8" target="_top" xlink:title="ParseStore::currentInstance">
<polygon fill="white" stroke="black" points="558,-38.5 558,-57.5 706,-57.5 706,-38.5 558,-38.5"/>
<text text-anchor="middle" x="632" y="-45.5" font-family="Helvetica,sans-Serif" font-size="10.00">ParseStore::currentInstance</text>
</a>
</g>
</g>
<!-- Node4&#45;&gt;Node5 -->
<g id="edge4" class="edge"><title>Node4&#45;&gt;Node5</title>
<path fill="none" stroke="midnightblue" d="M522.311,-34.5467C530.412,-35.5494 539.091,-36.6237 547.882,-37.7118"/>
<polygon fill="midnightblue" stroke="midnightblue" points="547.476,-41.1882 557.831,-38.9432 548.336,-34.2412 547.476,-41.1882"/>
</g>
<!-- Node6 -->
<g id="node6" class="node"><title>Node6</title>
<g id="a_node6"><a xlink:href="../../d3/d5e/classParseStore.html#ae7b3d82d22174c1a1165a592d6c1700c" target="_top" xlink:title="ParseStore::filename">
<polygon fill="white" stroke="black" points="575,-0.5 575,-19.5 689,-19.5 689,-0.5 575,-0.5"/>
<text text-anchor="middle" x="632" y="-7.5" font-family="Helvetica,sans-Serif" font-size="10.00">ParseStore::filename</text>
</a>
</g>
</g>
<!-- Node4&#45;&gt;Node6 -->
<g id="edge5" class="edge"><title>Node4&#45;&gt;Node6</title>
<path fill="none" stroke="midnightblue" d="M522.311,-23.4533C535.556,-21.8139 550.345,-19.9833 564.644,-18.2135"/>
<polygon fill="midnightblue" stroke="midnightblue" points="565.446,-21.641 574.94,-16.939 564.586,-14.694 565.446,-21.641"/>
</g>
</g>
</svg>
