<?xml version="1.0" encoding="UTF-8" standalone="no"?>
<!DOCTYPE svg PUBLIC "-//W3C//DTD SVG 1.1//EN"
 "http://www.w3.org/Graphics/SVG/1.1/DTD/svg11.dtd">
<!-- Generated by graphviz version 2.38.0 (20140413.2041)
 -->
<!-- Title: JParser::superClassClause Pages: 1 -->
<svg width="822pt" height="290pt"
 viewBox="0.00 0.00 822.00 290.00" xmlns="http://www.w3.org/2000/svg" xmlns:xlink="http://www.w3.org/1999/xlink">
<g id="graph0" class="graph" transform="scale(1 1) rotate(0) translate(4 286)">
<title>JParser::superClassClause</title>
<polygon fill="white" stroke="none" points="-4,4 -4,-286 818,-286 818,4 -4,4"/>
<!-- Node1 -->
<g id="node1" class="node"><title>Node1</title>
<polygon fill="#bfbfbf" stroke="black" points="0,-208.5 0,-227.5 143,-227.5 143,-208.5 0,-208.5"/>
<text text-anchor="middle" x="71.5" y="-215.5" font-family="Helvetica,sans-Serif" font-size="10.00">JParser::superClassClause</text>
</g>
<!-- Node2 -->
<g id="node2" class="node"><title>Node2</title>
<g id="a_node2"><a xlink:href="../../d6/d6b/classJParser.html#a047ce8a8ba05c97e98ce4f14bad49b5e" target="_top" xlink:title="JParser::identifier2">
<polygon fill="white" stroke="black" points="179.5,-246.5 179.5,-265.5 283.5,-265.5 283.5,-246.5 179.5,-246.5"/>
<text text-anchor="middle" x="231.5" y="-253.5" font-family="Helvetica,sans-Serif" font-size="10.00">JParser::identifier2</text>
</a>
</g>
</g>
<!-- Node1&#45;&gt;Node2 -->
<g id="edge1" class="edge"><title>Node1&#45;&gt;Node2</title>
<path fill="none" stroke="midnightblue" d="M112.37,-227.589C133.22,-232.604 158.935,-238.788 181.043,-244.105"/>
<polygon fill="midnightblue" stroke="midnightblue" points="180.375,-247.544 190.917,-246.48 182.012,-240.739 180.375,-247.544"/>
</g>
<!-- Node5 -->
<g id="node5" class="node"><title>Node5</title>
<g id="a_node5"><a xlink:href="../../d6/d6b/classJParser.html#aece759e081c41c51c75fdc18ff349086" target="_top" xlink:title="JParser::syn">
<polygon fill="white" stroke="black" points="355,-224.5 355,-243.5 429,-243.5 429,-224.5 355,-224.5"/>
<text text-anchor="middle" x="392" y="-231.5" font-family="Helvetica,sans-Serif" font-size="10.00">JParser::syn</text>
</a>
</g>
</g>
<!-- Node1&#45;&gt;Node5 -->
<g id="edge19" class="edge"><title>Node1&#45;&gt;Node5</title>
<path fill="none" stroke="midnightblue" d="M143.185,-221.551C204.523,-224.632 291.562,-229.005 344.491,-231.664"/>
<polygon fill="midnightblue" stroke="midnightblue" points="344.442,-235.165 354.605,-232.172 344.793,-228.174 344.442,-235.165"/>
</g>
<!-- Node9 -->
<g id="node9" class="node"><title>Node9</title>
<g id="a_node9"><a xlink:href="../../d3/d5e/classParseStore.html#aa8ae64513f8e2a44885a25d7b78a73e9" target="_top" xlink:title="ParseStore::record\l_userel_extent">
<polygon fill="white" stroke="black" points="179,-143 179,-173 284,-173 284,-143 179,-143"/>
<text text-anchor="start" x="187" y="-161" font-family="Helvetica,sans-Serif" font-size="10.00">ParseStore::record</text>
<text text-anchor="middle" x="231.5" y="-150" font-family="Helvetica,sans-Serif" font-size="10.00">_userel_extent</text>
</a>
</g>
</g>
<!-- Node1&#45;&gt;Node9 -->
<g id="edge8" class="edge"><title>Node1&#45;&gt;Node9</title>
<path fill="none" stroke="midnightblue" d="M97.5356,-208.493C119.953,-199.98 153.475,-187.25 181.251,-176.702"/>
<polygon fill="midnightblue" stroke="midnightblue" points="182.702,-179.895 190.808,-173.073 180.217,-173.351 182.702,-179.895"/>
</g>
<!-- Node3 -->
<g id="node3" class="node"><title>Node3</title>
<g id="a_node3"><a xlink:href="../../da/d6a/classParseUtility.html#a128c7755b687730e50a5c063261f6c78" target="_top" xlink:title="ParseUtility::scopeCombine">
<polygon fill="white" stroke="black" points="320,-262.5 320,-281.5 464,-281.5 464,-262.5 320,-262.5"/>
<text text-anchor="middle" x="392" y="-269.5" font-family="Helvetica,sans-Serif" font-size="10.00">ParseUtility::scopeCombine</text>
</a>
</g>
</g>
<!-- Node2&#45;&gt;Node3 -->
<g id="edge2" class="edge"><title>Node2&#45;&gt;Node3</title>
<path fill="none" stroke="midnightblue" d="M283.523,-261.151C291.939,-262 300.844,-262.899 309.782,-263.801"/>
<polygon fill="midnightblue" stroke="midnightblue" points="309.563,-267.297 319.864,-264.819 310.266,-260.332 309.563,-267.297"/>
</g>
<!-- Node2&#45;&gt;Node5 -->
<g id="edge4" class="edge"><title>Node2&#45;&gt;Node5</title>
<path fill="none" stroke="midnightblue" d="M283.523,-248.918C303.161,-246.192 325.459,-243.097 344.634,-240.436"/>
<polygon fill="midnightblue" stroke="midnightblue" points="345.213,-243.889 354.637,-239.047 344.251,-236.955 345.213,-243.889"/>
</g>
<!-- Node4 -->
<g id="node4" class="node"><title>Node4</title>
<g id="a_node4"><a xlink:href="../../d4/d6e/classCCCC__Project.html#ac0565e746210778bc6f165130464041b" target="_top" xlink:title="CCCC_Project::name">
<polygon fill="white" stroke="black" points="507,-262.5 507,-281.5 623,-281.5 623,-262.5 507,-262.5"/>
<text text-anchor="middle" x="565" y="-269.5" font-family="Helvetica,sans-Serif" font-size="10.00">CCCC_Project::name</text>
</a>
</g>
</g>
<!-- Node3&#45;&gt;Node4 -->
<g id="edge3" class="edge"><title>Node3&#45;&gt;Node4</title>
<path fill="none" stroke="midnightblue" d="M464.034,-272C474.882,-272 486.05,-272 496.812,-272"/>
<polygon fill="midnightblue" stroke="midnightblue" points="496.982,-275.5 506.981,-272 496.981,-268.5 496.982,-275.5"/>
</g>
<!-- Node6 -->
<g id="node6" class="node"><title>Node6</title>
<g id="a_node6"><a xlink:href="../../da/d6a/classParseUtility.html#aabfa4c56607539ef14be2e2a7260006b" target="_top" xlink:title="ParseUtility::syn">
<polygon fill="white" stroke="black" points="519.5,-224.5 519.5,-243.5 610.5,-243.5 610.5,-224.5 519.5,-224.5"/>
<text text-anchor="middle" x="565" y="-231.5" font-family="Helvetica,sans-Serif" font-size="10.00">ParseUtility::syn</text>
</a>
</g>
</g>
<!-- Node5&#45;&gt;Node6 -->
<g id="edge5" class="edge"><title>Node5&#45;&gt;Node6</title>
<path fill="none" stroke="midnightblue" d="M429.265,-234C452.46,-234 482.989,-234 509.121,-234"/>
<polygon fill="midnightblue" stroke="midnightblue" points="509.267,-237.5 519.267,-234 509.267,-230.5 509.267,-237.5"/>
</g>
<!-- Node7 -->
<g id="node7" class="node"><title>Node7</title>
<g id="a_node7"><a xlink:href="../../d3/d5e/classParseStore.html#ab21a4aeadb4cc4938b58cbefbb8634e8" target="_top" xlink:title="ParseStore::currentInstance">
<polygon fill="white" stroke="black" points="666,-243.5 666,-262.5 814,-262.5 814,-243.5 666,-243.5"/>
<text text-anchor="middle" x="740" y="-250.5" font-family="Helvetica,sans-Serif" font-size="10.00">ParseStore::currentInstance</text>
</a>
</g>
</g>
<!-- Node6&#45;&gt;Node7 -->
<g id="edge6" class="edge"><title>Node6&#45;&gt;Node7</title>
<path fill="none" stroke="midnightblue" d="M610.552,-238.893C624.349,-240.408 640.025,-242.13 655.568,-243.837"/>
<polygon fill="midnightblue" stroke="midnightblue" points="655.42,-247.342 665.742,-244.954 656.184,-240.383 655.42,-247.342"/>
</g>
<!-- Node8 -->
<g id="node8" class="node"><title>Node8</title>
<g id="a_node8"><a xlink:href="../../d3/d5e/classParseStore.html#ae7b3d82d22174c1a1165a592d6c1700c" target="_top" xlink:title="ParseStore::filename">
<polygon fill="white" stroke="black" points="683,-205.5 683,-224.5 797,-224.5 797,-205.5 683,-205.5"/>
<text text-anchor="middle" x="740" y="-212.5" font-family="Helvetica,sans-Serif" font-size="10.00">ParseStore::filename</text>
</a>
</g>
</g>
<!-- Node6&#45;&gt;Node8 -->
<g id="edge7" class="edge"><title>Node6&#45;&gt;Node8</title>
<path fill="none" stroke="midnightblue" d="M610.552,-229.107C629.48,-227.028 651.943,-224.561 672.751,-222.276"/>
<polygon fill="midnightblue" stroke="midnightblue" points="673.251,-225.742 682.809,-221.171 672.487,-218.784 673.251,-225.742"/>
</g>
<!-- Node10 -->
<g id="node10" class="node"><title>Node10</title>
<g id="a_node10"><a xlink:href="../../db/d6a/classCCCC__Item.html#a87231c9aa43ece932511d1143b64367e" target="_top" xlink:title="CCCC_Item::Insert">
<polygon fill="white" stroke="black" points="513,-164.5 513,-183.5 617,-183.5 617,-164.5 513,-164.5"/>
<text text-anchor="middle" x="565" y="-171.5" font-family="Helvetica,sans-Serif" font-size="10.00">CCCC_Item::Insert</text>
</a>
</g>
</g>
<!-- Node9&#45;&gt;Node10 -->
<g id="edge9" class="edge"><title>Node9&#45;&gt;Node10</title>
<path fill="none" stroke="midnightblue" d="M284.021,-171.101C295.769,-173.553 308.253,-175.739 320,-177 381.937,-183.647 453.222,-181.669 502.682,-178.78"/>
<polygon fill="midnightblue" stroke="midnightblue" points="503.128,-182.26 512.894,-178.153 502.698,-175.273 503.128,-182.26"/>
</g>
<!-- Node11 -->
<g id="node11" class="node"><title>Node11</title>
<g id="a_node11"><a xlink:href="../../d3/d5e/classParseStore.html#a058a15dda767cb8cf60dc578ec8ffb38" target="_top" xlink:title="ParseStore::flags">
<polygon fill="white" stroke="black" points="343.5,-148.5 343.5,-167.5 440.5,-167.5 440.5,-148.5 343.5,-148.5"/>
<text text-anchor="middle" x="392" y="-155.5" font-family="Helvetica,sans-Serif" font-size="10.00">ParseStore::flags</text>
</a>
</g>
</g>
<!-- Node9&#45;&gt;Node11 -->
<g id="edge10" class="edge"><title>Node9&#45;&gt;Node11</title>
<path fill="none" stroke="midnightblue" d="M284.399,-158C299.952,-158 317.106,-158 333.024,-158"/>
<polygon fill="midnightblue" stroke="midnightblue" points="333.277,-161.5 343.277,-158 333.277,-154.5 333.277,-161.5"/>
</g>
<!-- Node12 -->
<g id="node12" class="node"><title>Node12</title>
<g id="a_node12"><a xlink:href="../../d3/d5e/classParseStore.html#ab07edec82aea81e439fa34d2f557b36f" target="_top" xlink:title="ParseStore::insert\l_extent">
<polygon fill="white" stroke="black" points="341.5,-99 341.5,-129 442.5,-129 442.5,-99 341.5,-99"/>
<text text-anchor="start" x="349.5" y="-117" font-family="Helvetica,sans-Serif" font-size="10.00">ParseStore::insert</text>
<text text-anchor="middle" x="392" y="-106" font-family="Helvetica,sans-Serif" font-size="10.00">_extent</text>
</a>
</g>
</g>
<!-- Node9&#45;&gt;Node12 -->
<g id="edge11" class="edge"><title>Node9&#45;&gt;Node12</title>
<path fill="none" stroke="midnightblue" d="M284.399,-143.593C299.433,-139.419 315.964,-134.83 331.428,-130.537"/>
<polygon fill="midnightblue" stroke="midnightblue" points="332.711,-133.814 341.41,-127.766 330.838,-127.069 332.711,-133.814"/>
</g>
<!-- Node13 -->
<g id="node13" class="node"><title>Node13</title>
<g id="a_node13"><a xlink:href="../../d4/d6e/classCCCC__Project.html#adae36526071c67957535938bf6401d9f" target="_top" xlink:title="CCCC_Project::add_userel">
<polygon fill="white" stroke="black" points="320.5,-60.5 320.5,-79.5 463.5,-79.5 463.5,-60.5 320.5,-60.5"/>
<text text-anchor="middle" x="392" y="-67.5" font-family="Helvetica,sans-Serif" font-size="10.00">CCCC_Project::add_userel</text>
</a>
</g>
</g>
<!-- Node9&#45;&gt;Node13 -->
<g id="edge13" class="edge"><title>Node9&#45;&gt;Node13</title>
<path fill="none" stroke="midnightblue" d="M247.591,-142.892C264.044,-127.239 291.809,-103.129 320,-89 324.657,-86.6657 329.635,-84.5927 334.713,-82.757"/>
<polygon fill="midnightblue" stroke="midnightblue" points="336.143,-85.9708 344.542,-79.5131 333.949,-79.3235 336.143,-85.9708"/>
</g>
<!-- Node12&#45;&gt;Node10 -->
<g id="edge12" class="edge"><title>Node12&#45;&gt;Node10</title>
<path fill="none" stroke="midnightblue" d="M436.151,-129.141C464.225,-138.991 500.449,-151.701 527.167,-161.076"/>
<polygon fill="midnightblue" stroke="midnightblue" points="526.31,-164.484 536.905,-164.493 528.627,-157.879 526.31,-164.484"/>
</g>
<!-- Node14 -->
<g id="node14" class="node"><title>Node14</title>
<g id="a_node14"><a xlink:href="../../d8/dcf/classCCCC__Table.html#a8e08fe4f6edb07f1fbf2813c66bb3606" target="_top" xlink:title="CCCC_Table::find_or\l_insert">
<polygon fill="white" stroke="black" points="682,-77 682,-107 798,-107 798,-77 682,-77"/>
<text text-anchor="start" x="690" y="-95" font-family="Helvetica,sans-Serif" font-size="10.00">CCCC_Table::find_or</text>
<text text-anchor="middle" x="740" y="-84" font-family="Helvetica,sans-Serif" font-size="10.00">_insert</text>
</a>
</g>
</g>
<!-- Node13&#45;&gt;Node14 -->
<g id="edge14" class="edge"><title>Node13&#45;&gt;Node14</title>
<path fill="none" stroke="midnightblue" d="M463.853,-74.5051C524.781,-78.3792 612.045,-83.9277 671.868,-87.7315"/>
<polygon fill="midnightblue" stroke="midnightblue" points="671.763,-91.2318 681.965,-88.3735 672.207,-84.2459 671.763,-91.2318"/>
</g>
<!-- Node15 -->
<g id="node15" class="node"><title>Node15</title>
<g id="a_node15"><a xlink:href="../../d2/d65/classCCCC__UseRelationship.html#aea65f893850f8e1903c3e53ac04170f6" target="_top" xlink:title="CCCC_UseRelationship\l::add_extent">
<polygon fill="white" stroke="black" points="500,-33 500,-63 630,-63 630,-33 500,-33"/>
<text text-anchor="start" x="508" y="-51" font-family="Helvetica,sans-Serif" font-size="10.00">CCCC_UseRelationship</text>
<text text-anchor="middle" x="565" y="-40" font-family="Helvetica,sans-Serif" font-size="10.00">::add_extent</text>
</a>
</g>
</g>
<!-- Node13&#45;&gt;Node15 -->
<g id="edge15" class="edge"><title>Node13&#45;&gt;Node15</title>
<path fill="none" stroke="midnightblue" d="M463.54,-60.9247C472.202,-59.8103 481.076,-58.6686 489.79,-57.5475"/>
<polygon fill="midnightblue" stroke="midnightblue" points="490.453,-60.9911 499.925,-56.2436 489.56,-54.0483 490.453,-60.9911"/>
</g>
<!-- Node15&#45;&gt;Node14 -->
<g id="edge16" class="edge"><title>Node15&#45;&gt;Node14</title>
<path fill="none" stroke="midnightblue" d="M625.053,-63.0192C640.149,-66.8586 656.488,-71.0144 671.953,-74.9476"/>
<polygon fill="midnightblue" stroke="midnightblue" points="671.413,-78.4217 681.968,-77.4946 673.139,-71.6377 671.413,-78.4217"/>
</g>
<!-- Node16 -->
<g id="node16" class="node"><title>Node16</title>
<g id="a_node16"><a xlink:href="../../df/d99/classCCCC__Extent.html#a82a7a03bd389c67ba2f5dc7787e89739" target="_top" xlink:title="CCCC_Extent::get_visibility">
<polygon fill="white" stroke="black" points="668.5,-38.5 668.5,-57.5 811.5,-57.5 811.5,-38.5 668.5,-38.5"/>
<text text-anchor="middle" x="740" y="-45.5" font-family="Helvetica,sans-Serif" font-size="10.00">CCCC_Extent::get_visibility</text>
</a>
</g>
</g>
<!-- Node15&#45;&gt;Node16 -->
<g id="edge17" class="edge"><title>Node15&#45;&gt;Node16</title>
<path fill="none" stroke="midnightblue" d="M630.419,-48C639.52,-48 648.97,-48 658.329,-48"/>
<polygon fill="midnightblue" stroke="midnightblue" points="658.428,-51.5001 668.428,-48 658.428,-44.5001 658.428,-51.5001"/>
</g>
<!-- Node17 -->
<g id="node17" class="node"><title>Node17</title>
<g id="a_node17"><a xlink:href="../../df/d99/classCCCC__Extent.html#abe27f2b34d0542894c6339274e8d1834" target="_top" xlink:title="CCCC_Extent::get_usetype">
<polygon fill="white" stroke="black" points="667.5,-0.5 667.5,-19.5 812.5,-19.5 812.5,-0.5 667.5,-0.5"/>
<text text-anchor="middle" x="740" y="-7.5" font-family="Helvetica,sans-Serif" font-size="10.00">CCCC_Extent::get_usetype</text>
</a>
</g>
</g>
<!-- Node15&#45;&gt;Node17 -->
<g id="edge18" class="edge"><title>Node15&#45;&gt;Node17</title>
<path fill="none" stroke="midnightblue" d="M630.419,-33.8502C648.568,-29.8637 668.107,-25.5719 685.539,-21.7428"/>
<polygon fill="midnightblue" stroke="midnightblue" points="686.517,-25.1116 695.533,-19.5476 685.015,-18.2746 686.517,-25.1116"/>
</g>
</g>
</svg>
