<?xml version="1.0" encoding="UTF-8" standalone="no"?>
<!DOCTYPE svg PUBLIC "-//W3C//DTD SVG 1.1//EN"
 "http://www.w3.org/Graphics/SVG/1.1/DTD/svg11.dtd">
<!-- Generated by graphviz version 2.38.0 (20140413.2041)
 -->
<!-- Title: CParser::inheritance_access_key Pages: 1 -->
<svg width="1684pt" height="204pt"
 viewBox="0.00 0.00 1684.00 204.00" xmlns="http://www.w3.org/2000/svg" xmlns:xlink="http://www.w3.org/1999/xlink">
<g id="graph0" class="graph" transform="scale(1 1) rotate(0) translate(4 200)">
<title>CParser::inheritance_access_key</title>
<polygon fill="white" stroke="none" points="-4,4 -4,-200 1680,-200 1680,4 -4,4"/>
<!-- Node1 -->
<g id="node1" class="node"><title>Node1</title>
<polygon fill="#bfbfbf" stroke="black" points="0,-7 0,-37 113,-37 113,-7 0,-7"/>
<text text-anchor="start" x="8" y="-25" font-family="Helvetica,sans-Serif" font-size="10.00">CParser::inheritance</text>
<text text-anchor="middle" x="56.5" y="-14" font-family="Helvetica,sans-Serif" font-size="10.00">_access_key</text>
</g>
<!-- Node2 -->
<g id="node2" class="node"><title>Node2</title>
<g id="a_node2"><a xlink:href="../../d0/df6/classCParser.html#a3fce2125a1d6753cea421ea08a7c7eea" target="_top" xlink:title="CParser::inheritance_item">
<polygon fill="white" stroke="black" points="149,-12.5 149,-31.5 287,-31.5 287,-12.5 149,-12.5"/>
<text text-anchor="middle" x="218" y="-19.5" font-family="Helvetica,sans-Serif" font-size="10.00">CParser::inheritance_item</text>
</a>
</g>
</g>
<!-- Node1&#45;&gt;Node2 -->
<g id="edge1" class="edge"><title>Node1&#45;&gt;Node2</title>
<path fill="none" stroke="midnightblue" d="M123.414,-22C131.826,-22 140.45,-22 148.895,-22"/>
<polygon fill="midnightblue" stroke="midnightblue" points="123.285,-18.5001 113.285,-22 123.285,-25.5001 123.285,-18.5001"/>
</g>
<!-- Node3 -->
<g id="node3" class="node"><title>Node3</title>
<g id="a_node3"><a xlink:href="../../d0/df6/classCParser.html#a5fc18448dadd6cb275480e1fa34e436b" target="_top" xlink:title="CParser::inheritance\l_item_list">
<polygon fill="white" stroke="black" points="323,-7 323,-37 436,-37 436,-7 323,-7"/>
<text text-anchor="start" x="331" y="-25" font-family="Helvetica,sans-Serif" font-size="10.00">CParser::inheritance</text>
<text text-anchor="middle" x="379.5" y="-14" font-family="Helvetica,sans-Serif" font-size="10.00">_item_list</text>
</a>
</g>
</g>
<!-- Node2&#45;&gt;Node3 -->
<g id="edge2" class="edge"><title>Node2&#45;&gt;Node3</title>
<path fill="none" stroke="midnightblue" d="M297.166,-22C305.767,-22 314.392,-22 322.641,-22"/>
<polygon fill="midnightblue" stroke="midnightblue" points="297.105,-18.5001 287.105,-22 297.105,-25.5001 297.105,-18.5001"/>
</g>
<!-- Node4 -->
<g id="node4" class="node"><title>Node4</title>
<g id="a_node4"><a xlink:href="../../d0/df6/classCParser.html#a304bbe29d48bf8d9415ad5d6280dcdf6" target="_top" xlink:title="CParser::inheritance_list">
<polygon fill="white" stroke="black" points="472,-12.5 472,-31.5 603,-31.5 603,-12.5 472,-12.5"/>
<text text-anchor="middle" x="537.5" y="-19.5" font-family="Helvetica,sans-Serif" font-size="10.00">CParser::inheritance_list</text>
</a>
</g>
</g>
<!-- Node3&#45;&gt;Node4 -->
<g id="edge3" class="edge"><title>Node3&#45;&gt;Node4</title>
<path fill="none" stroke="midnightblue" d="M446.536,-22C454.963,-22 463.58,-22 471.983,-22"/>
<polygon fill="midnightblue" stroke="midnightblue" points="446.379,-18.5001 436.379,-22 446.379,-25.5001 446.379,-18.5001"/>
</g>
<!-- Node5 -->
<g id="node5" class="node"><title>Node5</title>
<g id="a_node5"><a xlink:href="../../d0/df6/classCParser.html#a40fba8426e7ac46e9926515ee81e97f3" target="_top" xlink:title="CParser::class_suffix">
<polygon fill="white" stroke="black" points="639,-12.5 639,-31.5 753,-31.5 753,-12.5 639,-12.5"/>
<text text-anchor="middle" x="696" y="-19.5" font-family="Helvetica,sans-Serif" font-size="10.00">CParser::class_suffix</text>
</a>
</g>
</g>
<!-- Node4&#45;&gt;Node5 -->
<g id="edge4" class="edge"><title>Node4&#45;&gt;Node5</title>
<path fill="none" stroke="midnightblue" d="M613.081,-22C621.663,-22 630.304,-22 638.59,-22"/>
<polygon fill="midnightblue" stroke="midnightblue" points="613.058,-18.5001 603.058,-22 613.058,-25.5001 613.058,-18.5001"/>
</g>
<!-- Node6 -->
<g id="node6" class="node"><title>Node6</title>
<g id="a_node6"><a xlink:href="../../d0/df6/classCParser.html#a1ed5fcfb2e97e3551fceabe81989a667" target="_top" xlink:title="CParser::class_declaration\l_or_definition">
<polygon fill="white" stroke="black" points="789,-29 789,-59 932,-59 932,-29 789,-29"/>
<text text-anchor="start" x="797" y="-47" font-family="Helvetica,sans-Serif" font-size="10.00">CParser::class_declaration</text>
<text text-anchor="middle" x="860.5" y="-36" font-family="Helvetica,sans-Serif" font-size="10.00">_or_definition</text>
</a>
</g>
</g>
<!-- Node5&#45;&gt;Node6 -->
<g id="edge5" class="edge"><title>Node5&#45;&gt;Node6</title>
<path fill="none" stroke="midnightblue" d="M763.473,-30.9994C771.858,-32.1346 780.46,-33.2992 788.905,-34.4426"/>
<polygon fill="midnightblue" stroke="midnightblue" points="763.758,-27.5061 753.379,-29.6328 762.819,-34.4428 763.758,-27.5061"/>
</g>
<!-- Node7 -->
<g id="node7" class="node"><title>Node7</title>
<g id="a_node7"><a xlink:href="../../d0/df6/classCParser.html#ab3ab57ace628c2476dd8dfe5a96f9a15" target="_top" xlink:title="CParser::definition\l_or_declaration">
<polygon fill="white" stroke="black" points="987,-78 987,-108 1090,-108 1090,-78 987,-78"/>
<text text-anchor="start" x="995" y="-96" font-family="Helvetica,sans-Serif" font-size="10.00">CParser::definition</text>
<text text-anchor="middle" x="1038.5" y="-85" font-family="Helvetica,sans-Serif" font-size="10.00">_or_declaration</text>
</a>
</g>
</g>
<!-- Node6&#45;&gt;Node7 -->
<g id="edge6" class="edge"><title>Node6&#45;&gt;Node7</title>
<path fill="none" stroke="midnightblue" d="M925.474,-61.811C945.639,-67.4252 967.627,-73.5468 986.741,-78.8683"/>
<polygon fill="midnightblue" stroke="midnightblue" points="926.314,-58.4118 915.742,-59.1014 924.437,-65.1554 926.314,-58.4118"/>
</g>
<!-- Node17 -->
<g id="node17" class="node"><title>Node17</title>
<g id="a_node17"><a xlink:href="../../d0/df6/classCParser.html#a12561a45dab96760d7ab45896681dd33" target="_top" xlink:title="CParser::class_or_method\l_declaration_or_definition">
<polygon fill="white" stroke="black" points="968,-29 968,-59 1109,-59 1109,-29 968,-29"/>
<text text-anchor="start" x="976" y="-47" font-family="Helvetica,sans-Serif" font-size="10.00">CParser::class_or_method</text>
<text text-anchor="middle" x="1038.5" y="-36" font-family="Helvetica,sans-Serif" font-size="10.00">_declaration_or_definition</text>
</a>
</g>
</g>
<!-- Node6&#45;&gt;Node17 -->
<g id="edge19" class="edge"><title>Node6&#45;&gt;Node17</title>
<path fill="none" stroke="midnightblue" d="M942.08,-44C950.659,-44 959.333,-44 967.772,-44"/>
<polygon fill="midnightblue" stroke="midnightblue" points="942.072,-40.5001 932.072,-44 942.072,-47.5001 942.072,-40.5001"/>
</g>
<!-- Node8 -->
<g id="node8" class="node"><title>Node8</title>
<g id="a_node8"><a xlink:href="../../d0/df6/classCParser.html#a2b78ab2005bef5c43ee2d4689210eab1" target="_top" xlink:title="CParser::link_item">
<polygon fill="white" stroke="black" points="1164.5,-83.5 1164.5,-102.5 1265.5,-102.5 1265.5,-83.5 1164.5,-83.5"/>
<text text-anchor="middle" x="1215" y="-90.5" font-family="Helvetica,sans-Serif" font-size="10.00">CParser::link_item</text>
</a>
</g>
</g>
<!-- Node7&#45;&gt;Node8 -->
<g id="edge7" class="edge"><title>Node7&#45;&gt;Node8</title>
<path fill="none" stroke="midnightblue" d="M1100.51,-93C1121.44,-93 1144.59,-93 1164.5,-93"/>
<polygon fill="midnightblue" stroke="midnightblue" points="1100.44,-89.5001 1090.44,-93 1100.44,-96.5001 1100.44,-89.5001"/>
</g>
<!-- Node14 -->
<g id="node14" class="node"><title>Node14</title>
<g id="a_node14"><a xlink:href="../../d0/df6/classCParser.html#a85eb09132fa5a588749cea062f0d11ea" target="_top" xlink:title="CParser::class_block_item">
<polygon fill="white" stroke="black" points="1145,-39.5 1145,-58.5 1285,-58.5 1285,-39.5 1145,-39.5"/>
<text text-anchor="middle" x="1215" y="-46.5" font-family="Helvetica,sans-Serif" font-size="10.00">CParser::class_block_item</text>
</a>
</g>
</g>
<!-- Node7&#45;&gt;Node14 -->
<g id="edge15" class="edge"><title>Node7&#45;&gt;Node14</title>
<path fill="none" stroke="midnightblue" d="M1100.31,-77.6656C1125.6,-71.2904 1154.15,-64.0906 1176.32,-58.5014"/>
<polygon fill="midnightblue" stroke="midnightblue" points="1099.28,-74.3163 1090.44,-80.1551 1100.99,-81.1038 1099.28,-74.3163"/>
</g>
<!-- Node9 -->
<g id="node9" class="node"><title>Node9</title>
<g id="a_node9"><a xlink:href="../../d0/df6/classCParser.html#a4f02da23566af37123efb3768769c09b" target="_top" xlink:title="CParser::start">
<polygon fill="white" stroke="black" points="1345.5,-176.5 1345.5,-195.5 1426.5,-195.5 1426.5,-176.5 1345.5,-176.5"/>
<text text-anchor="middle" x="1386" y="-183.5" font-family="Helvetica,sans-Serif" font-size="10.00">CParser::start</text>
</a>
</g>
</g>
<!-- Node8&#45;&gt;Node9 -->
<g id="edge8" class="edge"><title>Node8&#45;&gt;Node9</title>
<path fill="none" stroke="midnightblue" d="M1234.64,-109.002C1254.77,-125.56 1288.34,-151.172 1321,-167 1328.61,-170.69 1337.09,-173.82 1345.32,-176.41"/>
<polygon fill="midnightblue" stroke="midnightblue" points="1236.8,-106.244 1226.89,-102.515 1232.31,-111.615 1236.8,-106.244"/>
</g>
<!-- Node12 -->
<g id="node12" class="node"><title>Node12</title>
<g id="a_node12"><a xlink:href="../../d0/df6/classCParser.html#a86906e492ff9c606fb3537078f46f93e" target="_top" xlink:title="CParser::extern_linkage\l_block">
<polygon fill="white" stroke="black" points="1321,-127 1321,-157 1451,-157 1451,-127 1321,-127"/>
<text text-anchor="start" x="1329" y="-145" font-family="Helvetica,sans-Serif" font-size="10.00">CParser::extern_linkage</text>
<text text-anchor="middle" x="1386" y="-134" font-family="Helvetica,sans-Serif" font-size="10.00">_block</text>
</a>
</g>
</g>
<!-- Node8&#45;&gt;Node12 -->
<g id="edge11" class="edge"><title>Node8&#45;&gt;Node12</title>
<path fill="none" stroke="midnightblue" d="M1275.47,-103.762C1301.21,-110.653 1330.35,-119.438 1352.1,-126.986"/>
<polygon fill="midnightblue" stroke="midnightblue" points="1276.35,-100.376 1265.79,-101.221 1274.57,-107.147 1276.35,-100.376"/>
</g>
<!-- Node13 -->
<g id="node13" class="node"><title>Node13</title>
<g id="a_node13"><a xlink:href="../../d0/df6/classCParser.html#a4fad913a0694a5376ad76669d8943122" target="_top" xlink:title="CParser::namespace\l_block">
<polygon fill="white" stroke="black" points="1328.5,-78 1328.5,-108 1443.5,-108 1443.5,-78 1328.5,-78"/>
<text text-anchor="start" x="1336.5" y="-96" font-family="Helvetica,sans-Serif" font-size="10.00">CParser::namespace</text>
<text text-anchor="middle" x="1386" y="-85" font-family="Helvetica,sans-Serif" font-size="10.00">_block</text>
</a>
</g>
</g>
<!-- Node8&#45;&gt;Node13 -->
<g id="edge13" class="edge"><title>Node8&#45;&gt;Node13</title>
<path fill="none" stroke="midnightblue" d="M1276.17,-86.505C1293.19,-86.1389 1311.65,-86.167 1328.45,-86.5894"/>
<polygon fill="midnightblue" stroke="midnightblue" points="1275.69,-83.0166 1265.79,-86.7839 1275.88,-90.014 1275.69,-83.0166"/>
</g>
<!-- Node10 -->
<g id="node10" class="node"><title>Node10</title>
<g id="a_node10"><a xlink:href="../../db/d4a/classMain.html#a803470658c644fa9512140f9d8398dd5" target="_top" xlink:title="Main::ParseFiles">
<polygon fill="white" stroke="black" points="1497,-176.5 1497,-195.5 1591,-195.5 1591,-176.5 1497,-176.5"/>
<text text-anchor="middle" x="1544" y="-183.5" font-family="Helvetica,sans-Serif" font-size="10.00">Main::ParseFiles</text>
</a>
</g>
</g>
<!-- Node9&#45;&gt;Node10 -->
<g id="edge9" class="edge"><title>Node9&#45;&gt;Node10</title>
<path fill="none" stroke="midnightblue" d="M1436.87,-186C1456.14,-186 1478.05,-186 1496.94,-186"/>
<polygon fill="midnightblue" stroke="midnightblue" points="1436.77,-182.5 1426.77,-186 1436.77,-189.5 1436.77,-182.5"/>
</g>
<!-- Node11 -->
<g id="node11" class="node"><title>Node11</title>
<g id="a_node11"><a xlink:href="../../d6/d93/ccccmain_8cc.html#a3c04138a5bfe5d72780bb7e82a18e627" target="_top" xlink:title="main">
<polygon fill="white" stroke="black" points="1637,-176.5 1637,-195.5 1676,-195.5 1676,-176.5 1637,-176.5"/>
<text text-anchor="middle" x="1656.5" y="-183.5" font-family="Helvetica,sans-Serif" font-size="10.00">main</text>
</a>
</g>
</g>
<!-- Node10&#45;&gt;Node11 -->
<g id="edge10" class="edge"><title>Node10&#45;&gt;Node11</title>
<path fill="none" stroke="midnightblue" d="M1601.49,-186C1614.33,-186 1627.09,-186 1636.97,-186"/>
<polygon fill="midnightblue" stroke="midnightblue" points="1601.22,-182.5 1591.22,-186 1601.22,-189.5 1601.22,-182.5"/>
</g>
<!-- Node12&#45;&gt;Node8 -->
<g id="edge12" class="edge"><title>Node12&#45;&gt;Node8</title>
<path fill="none" stroke="midnightblue" d="M1310.98,-127.243C1282.59,-119.263 1252.6,-109.789 1234.09,-102.614"/>
<polygon fill="midnightblue" stroke="midnightblue" points="1310.36,-130.703 1320.94,-129.996 1312.23,-123.957 1310.36,-130.703"/>
</g>
<!-- Node13&#45;&gt;Node8 -->
<g id="edge14" class="edge"><title>Node13&#45;&gt;Node8</title>
<path fill="none" stroke="midnightblue" d="M1318.29,-99.6152C1300.8,-99.8839 1282.23,-99.7509 1265.79,-99.2161"/>
<polygon fill="midnightblue" stroke="midnightblue" points="1318.52,-103.111 1328.45,-99.4106 1318.38,-96.1129 1318.52,-103.111"/>
</g>
<!-- Node15 -->
<g id="node15" class="node"><title>Node15</title>
<g id="a_node15"><a xlink:href="../../d0/df6/classCParser.html#a4b9f00c05d44a13b3c18b28b52f5be9e" target="_top" xlink:title="CParser::class_block\l_item_list">
<polygon fill="white" stroke="black" points="1329,-29 1329,-59 1443,-59 1443,-29 1329,-29"/>
<text text-anchor="start" x="1337" y="-47" font-family="Helvetica,sans-Serif" font-size="10.00">CParser::class_block</text>
<text text-anchor="middle" x="1386" y="-36" font-family="Helvetica,sans-Serif" font-size="10.00">_item_list</text>
</a>
</g>
</g>
<!-- Node14&#45;&gt;Node15 -->
<g id="edge16" class="edge"><title>Node14&#45;&gt;Node15</title>
<path fill="none" stroke="midnightblue" d="M1295.5,-46.648C1306.74,-46.3154 1318.1,-45.9792 1328.79,-45.6632"/>
<polygon fill="midnightblue" stroke="midnightblue" points="1295.12,-43.1576 1285.23,-46.9519 1295.33,-50.1545 1295.12,-43.1576"/>
</g>
<!-- Node16 -->
<g id="node16" class="node"><title>Node16</title>
<g id="a_node16"><a xlink:href="../../d0/df6/classCParser.html#a06c7cac9034f27ad6d998b49a7b574c8" target="_top" xlink:title="CParser::class_block">
<polygon fill="white" stroke="black" points="1487,-12.5 1487,-31.5 1601,-31.5 1601,-12.5 1487,-12.5"/>
<text text-anchor="middle" x="1544" y="-19.5" font-family="Helvetica,sans-Serif" font-size="10.00">CParser::class_block</text>
</a>
</g>
</g>
<!-- Node15&#45;&gt;Node16 -->
<g id="edge17" class="edge"><title>Node15&#45;&gt;Node16</title>
<path fill="none" stroke="midnightblue" d="M1453.4,-34.6353C1464.51,-33.0688 1475.94,-31.457 1486.76,-29.9308"/>
<polygon fill="midnightblue" stroke="midnightblue" points="1452.73,-31.1953 1443.32,-36.0575 1453.71,-38.1267 1452.73,-31.1953"/>
</g>
<!-- Node16&#45;&gt;Node5 -->
<g id="edge18" class="edge"><title>Node16&#45;&gt;Node5</title>
<path fill="none" stroke="midnightblue" d="M1476.69,-14.9173C1410.69,-8.48604 1306.47,-0 1216,-0 1037.5,-0 1037.5,-0 1037.5,-0 937.24,-0 820.719,-9.61613 753.262,-16.1333"/>
<polygon fill="midnightblue" stroke="midnightblue" points="1476.65,-18.4303 1486.95,-15.9302 1477.34,-11.4642 1476.65,-18.4303"/>
</g>
</g>
</svg>
