<?xml version="1.0" encoding="UTF-8" standalone="no"?>
<!DOCTYPE svg PUBLIC "-//W3C//DTD SVG 1.1//EN"
 "http://www.w3.org/Graphics/SVG/1.1/DTD/svg11.dtd">
<!-- Generated by graphviz version 2.38.0 (20140413.2041)
 -->
<!-- Title: CParser::init_expr Pages: 1 -->
<svg width="2631pt" height="271pt"
 viewBox="0.00 0.00 2631.00 271.00" xmlns="http://www.w3.org/2000/svg" xmlns:xlink="http://www.w3.org/1999/xlink">
<g id="graph0" class="graph" transform="scale(1 1) rotate(0) translate(4 267)">
<title>CParser::init_expr</title>
<polygon fill="white" stroke="none" points="-4,4 -4,-267 2627,-267 2627,4 -4,4"/>
<!-- Node1 -->
<g id="node1" class="node"><title>Node1</title>
<polygon fill="#bfbfbf" stroke="black" points="0,-148.5 0,-167.5 101,-167.5 101,-148.5 0,-148.5"/>
<text text-anchor="middle" x="50.5" y="-155.5" font-family="Helvetica,sans-Serif" font-size="10.00">CParser::init_expr</text>
</g>
<!-- Node2 -->
<g id="node2" class="node"><title>Node2</title>
<g id="a_node2"><a xlink:href="../../d0/df6/classCParser.html#aa7fd7f7807fc630d9020e84dbb3445e0" target="_top" xlink:title="CParser::opt_initializer">
<polygon fill="white" stroke="black" points="137,-148.5 137,-167.5 259,-167.5 259,-148.5 137,-148.5"/>
<text text-anchor="middle" x="198" y="-155.5" font-family="Helvetica,sans-Serif" font-size="10.00">CParser::opt_initializer</text>
</a>
</g>
</g>
<!-- Node1&#45;&gt;Node2 -->
<g id="edge1" class="edge"><title>Node1&#45;&gt;Node2</title>
<path fill="none" stroke="midnightblue" d="M111.345,-158C119.814,-158 128.524,-158 136.996,-158"/>
<polygon fill="midnightblue" stroke="midnightblue" points="111.166,-154.5 101.166,-158 111.166,-161.5 111.166,-154.5"/>
</g>
<!-- Node3 -->
<g id="node3" class="node"><title>Node3</title>
<g id="a_node3"><a xlink:href="../../d0/df6/classCParser.html#a9104801570f44810a98b9f3a5a76c06c" target="_top" xlink:title="CParser::instance_item">
<polygon fill="white" stroke="black" points="295,-148.5 295,-167.5 420,-167.5 420,-148.5 295,-148.5"/>
<text text-anchor="middle" x="357.5" y="-155.5" font-family="Helvetica,sans-Serif" font-size="10.00">CParser::instance_item</text>
</a>
</g>
</g>
<!-- Node2&#45;&gt;Node3 -->
<g id="edge2" class="edge"><title>Node2&#45;&gt;Node3</title>
<path fill="none" stroke="midnightblue" d="M269.639,-158C278.07,-158 286.626,-158 294.916,-158"/>
<polygon fill="midnightblue" stroke="midnightblue" points="269.443,-154.5 259.443,-158 269.443,-161.5 269.443,-154.5"/>
</g>
<!-- Node4 -->
<g id="node4" class="node"><title>Node4</title>
<g id="a_node4"><a xlink:href="../../d0/df6/classCParser.html#a6331346ed010ab6c734d29daeb5d896f" target="_top" xlink:title="CParser::instance_declaration">
<polygon fill="white" stroke="black" points="456,-127.5 456,-146.5 614,-146.5 614,-127.5 456,-127.5"/>
<text text-anchor="middle" x="535" y="-134.5" font-family="Helvetica,sans-Serif" font-size="10.00">CParser::instance_declaration</text>
</a>
</g>
</g>
<!-- Node3&#45;&gt;Node4 -->
<g id="edge3" class="edge"><title>Node3&#45;&gt;Node4</title>
<path fill="none" stroke="midnightblue" d="M430.442,-149.391C438.794,-148.392 447.343,-147.369 455.773,-146.36"/>
<polygon fill="midnightblue" stroke="midnightblue" points="429.888,-145.933 420.375,-150.596 430.72,-152.883 429.888,-145.933"/>
</g>
<!-- Node19 -->
<g id="node19" class="node"><title>Node19</title>
<g id="a_node19"><a xlink:href="../../d0/df6/classCParser.html#a70d42f7013f81c71092f771ff9232941" target="_top" xlink:title="CParser::ctor_init_item">
<polygon fill="white" stroke="black" points="473.5,-170.5 473.5,-189.5 596.5,-189.5 596.5,-170.5 473.5,-170.5"/>
<text text-anchor="middle" x="535" y="-177.5" font-family="Helvetica,sans-Serif" font-size="10.00">CParser::ctor_init_item</text>
</a>
</g>
</g>
<!-- Node3&#45;&gt;Node19 -->
<g id="edge21" class="edge"><title>Node3&#45;&gt;Node19</title>
<path fill="none" stroke="midnightblue" d="M430.58,-167.036C444.763,-168.814 459.51,-170.662 473.275,-172.388"/>
<polygon fill="midnightblue" stroke="midnightblue" points="430.732,-163.527 420.375,-165.756 429.862,-170.473 430.732,-163.527"/>
</g>
<!-- Node5 -->
<g id="node5" class="node"><title>Node5</title>
<g id="a_node5"><a xlink:href="../../d0/df6/classCParser.html#ab3ab57ace628c2476dd8dfe5a96f9a15" target="_top" xlink:title="CParser::definition\l_or_declaration">
<polygon fill="white" stroke="black" points="1522,-122 1522,-152 1625,-152 1625,-122 1522,-122"/>
<text text-anchor="start" x="1530" y="-140" font-family="Helvetica,sans-Serif" font-size="10.00">CParser::definition</text>
<text text-anchor="middle" x="1573.5" y="-129" font-family="Helvetica,sans-Serif" font-size="10.00">_or_declaration</text>
</a>
</g>
</g>
<!-- Node4&#45;&gt;Node5 -->
<g id="edge4" class="edge"><title>Node4&#45;&gt;Node5</title>
<path fill="none" stroke="midnightblue" d="M624.113,-137C687.943,-137 776.31,-137 854,-137 854,-137 854,-137 1196,-137 1312.68,-137 1449.69,-137 1521.95,-137"/>
<polygon fill="midnightblue" stroke="midnightblue" points="624.085,-133.5 614.085,-137 624.085,-140.5 624.085,-133.5"/>
</g>
<!-- Node18 -->
<g id="node18" class="node"><title>Node18</title>
<g id="a_node18"><a xlink:href="../../d0/df6/classCParser.html#a4e7cf3c3b19f9c664f345a10116c2c2c" target="_top" xlink:title="CParser::knr_param\l_decl_list">
<polygon fill="white" stroke="black" points="650,-78 650,-108 761,-108 761,-78 650,-78"/>
<text text-anchor="start" x="658" y="-96" font-family="Helvetica,sans-Serif" font-size="10.00">CParser::knr_param</text>
<text text-anchor="middle" x="705.5" y="-85" font-family="Helvetica,sans-Serif" font-size="10.00">_decl_list</text>
</a>
</g>
</g>
<!-- Node4&#45;&gt;Node18 -->
<g id="edge20" class="edge"><title>Node4&#45;&gt;Node18</title>
<path fill="none" stroke="midnightblue" d="M582.449,-124.871C603.289,-119.429 628.021,-112.971 649.755,-107.296"/>
<polygon fill="midnightblue" stroke="midnightblue" points="581.353,-121.54 572.562,-127.453 583.122,-128.312 581.353,-121.54"/>
</g>
<!-- Node6 -->
<g id="node6" class="node"><title>Node6</title>
<g id="a_node6"><a xlink:href="../../d0/df6/classCParser.html#a2b78ab2005bef5c43ee2d4689210eab1" target="_top" xlink:title="CParser::link_item">
<polygon fill="white" stroke="black" points="1680.5,-127.5 1680.5,-146.5 1781.5,-146.5 1781.5,-127.5 1680.5,-127.5"/>
<text text-anchor="middle" x="1731" y="-134.5" font-family="Helvetica,sans-Serif" font-size="10.00">CParser::link_item</text>
</a>
</g>
</g>
<!-- Node5&#45;&gt;Node6 -->
<g id="edge5" class="edge"><title>Node5&#45;&gt;Node6</title>
<path fill="none" stroke="midnightblue" d="M1635.52,-137C1650.36,-137 1666.05,-137 1680.29,-137"/>
<polygon fill="midnightblue" stroke="midnightblue" points="1635.42,-133.5 1625.42,-137 1635.42,-140.5 1635.42,-133.5"/>
</g>
<!-- Node12 -->
<g id="node12" class="node"><title>Node12</title>
<g id="a_node12"><a xlink:href="../../d0/df6/classCParser.html#a85eb09132fa5a588749cea062f0d11ea" target="_top" xlink:title="CParser::class_block_item">
<polygon fill="white" stroke="black" points="1661,-61.5 1661,-80.5 1801,-80.5 1801,-61.5 1661,-61.5"/>
<text text-anchor="middle" x="1731" y="-68.5" font-family="Helvetica,sans-Serif" font-size="10.00">CParser::class_block_item</text>
</a>
</g>
</g>
<!-- Node5&#45;&gt;Node12 -->
<g id="edge13" class="edge"><title>Node5&#45;&gt;Node12</title>
<path fill="none" stroke="midnightblue" d="M1619.64,-117.841C1648.46,-105.609 1684.58,-90.2783 1707.48,-80.5578"/>
<polygon fill="midnightblue" stroke="midnightblue" points="1618.01,-114.729 1610.17,-121.858 1620.75,-121.173 1618.01,-114.729"/>
</g>
<!-- Node7 -->
<g id="node7" class="node"><title>Node7</title>
<g id="a_node7"><a xlink:href="../../d0/df6/classCParser.html#a4f02da23566af37123efb3768769c09b" target="_top" xlink:title="CParser::start">
<polygon fill="white" stroke="black" points="1861.5,-127.5 1861.5,-146.5 1942.5,-146.5 1942.5,-127.5 1861.5,-127.5"/>
<text text-anchor="middle" x="1902" y="-134.5" font-family="Helvetica,sans-Serif" font-size="10.00">CParser::start</text>
</a>
</g>
</g>
<!-- Node6&#45;&gt;Node7 -->
<g id="edge6" class="edge"><title>Node6&#45;&gt;Node7</title>
<path fill="none" stroke="midnightblue" d="M1791.85,-137C1814.95,-137 1840.75,-137 1861.46,-137"/>
<polygon fill="midnightblue" stroke="midnightblue" points="1791.79,-133.5 1781.79,-137 1791.79,-140.5 1791.79,-133.5"/>
</g>
<!-- Node10 -->
<g id="node10" class="node"><title>Node10</title>
<g id="a_node10"><a xlink:href="../../d0/df6/classCParser.html#a86906e492ff9c606fb3537078f46f93e" target="_top" xlink:title="CParser::extern_linkage\l_block">
<polygon fill="white" stroke="black" points="1837,-78 1837,-108 1967,-108 1967,-78 1837,-78"/>
<text text-anchor="start" x="1845" y="-96" font-family="Helvetica,sans-Serif" font-size="10.00">CParser::extern_linkage</text>
<text text-anchor="middle" x="1902" y="-85" font-family="Helvetica,sans-Serif" font-size="10.00">_block</text>
</a>
</g>
</g>
<!-- Node6&#45;&gt;Node10 -->
<g id="edge9" class="edge"><title>Node6&#45;&gt;Node10</title>
<path fill="none" stroke="midnightblue" d="M1760.91,-124.24C1781.73,-117.463 1810.65,-109.487 1836.81,-103.139"/>
<polygon fill="midnightblue" stroke="midnightblue" points="1759.74,-120.941 1751.39,-127.459 1761.98,-127.573 1759.74,-120.941"/>
</g>
<!-- Node11 -->
<g id="node11" class="node"><title>Node11</title>
<g id="a_node11"><a xlink:href="../../d0/df6/classCParser.html#a4fad913a0694a5376ad76669d8943122" target="_top" xlink:title="CParser::namespace\l_block">
<polygon fill="white" stroke="black" points="1844.5,-166 1844.5,-196 1959.5,-196 1959.5,-166 1844.5,-166"/>
<text text-anchor="start" x="1852.5" y="-184" font-family="Helvetica,sans-Serif" font-size="10.00">CParser::namespace</text>
<text text-anchor="middle" x="1902" y="-173" font-family="Helvetica,sans-Serif" font-size="10.00">_block</text>
</a>
</g>
</g>
<!-- Node6&#45;&gt;Node11 -->
<g id="edge11" class="edge"><title>Node6&#45;&gt;Node11</title>
<path fill="none" stroke="midnightblue" d="M1791.7,-146.06C1816.17,-151.891 1843.67,-159.331 1864.97,-165.972"/>
<polygon fill="midnightblue" stroke="midnightblue" points="1792.33,-142.61 1781.79,-143.747 1790.74,-149.427 1792.33,-142.61"/>
</g>
<!-- Node8 -->
<g id="node8" class="node"><title>Node8</title>
<g id="a_node8"><a xlink:href="../../db/d4a/classMain.html#a803470658c644fa9512140f9d8398dd5" target="_top" xlink:title="Main::ParseFiles">
<polygon fill="white" stroke="black" points="2013,-127.5 2013,-146.5 2107,-146.5 2107,-127.5 2013,-127.5"/>
<text text-anchor="middle" x="2060" y="-134.5" font-family="Helvetica,sans-Serif" font-size="10.00">Main::ParseFiles</text>
</a>
</g>
</g>
<!-- Node7&#45;&gt;Node8 -->
<g id="edge7" class="edge"><title>Node7&#45;&gt;Node8</title>
<path fill="none" stroke="midnightblue" d="M1952.87,-137C1972.14,-137 1994.05,-137 2012.94,-137"/>
<polygon fill="midnightblue" stroke="midnightblue" points="1952.77,-133.5 1942.77,-137 1952.77,-140.5 1952.77,-133.5"/>
</g>
<!-- Node9 -->
<g id="node9" class="node"><title>Node9</title>
<g id="a_node9"><a xlink:href="../../d6/d93/ccccmain_8cc.html#a3c04138a5bfe5d72780bb7e82a18e627" target="_top" xlink:title="main">
<polygon fill="white" stroke="black" points="2190.5,-127.5 2190.5,-146.5 2229.5,-146.5 2229.5,-127.5 2190.5,-127.5"/>
<text text-anchor="middle" x="2210" y="-134.5" font-family="Helvetica,sans-Serif" font-size="10.00">main</text>
</a>
</g>
</g>
<!-- Node8&#45;&gt;Node9 -->
<g id="edge8" class="edge"><title>Node8&#45;&gt;Node9</title>
<path fill="none" stroke="midnightblue" d="M2117.15,-137C2143.09,-137 2172.14,-137 2190.49,-137"/>
<polygon fill="midnightblue" stroke="midnightblue" points="2117.02,-133.5 2107.02,-137 2117.02,-140.5 2117.02,-133.5"/>
</g>
<!-- Node10&#45;&gt;Node6 -->
<g id="edge10" class="edge"><title>Node10&#45;&gt;Node6</title>
<path fill="none" stroke="midnightblue" d="M1855.22,-110.994C1832.51,-117.757 1805.03,-124.958 1781.79,-130.253"/>
<polygon fill="midnightblue" stroke="midnightblue" points="1856.42,-114.289 1864.97,-108.028 1854.38,-107.592 1856.42,-114.289"/>
</g>
<!-- Node11&#45;&gt;Node6 -->
<g id="edge12" class="edge"><title>Node11&#45;&gt;Node6</title>
<path fill="none" stroke="midnightblue" d="M1834.36,-170.265C1804.55,-162.964 1771.64,-153.687 1751.39,-146.541"/>
<polygon fill="midnightblue" stroke="midnightblue" points="1833.79,-173.726 1844.33,-172.659 1835.42,-166.92 1833.79,-173.726"/>
</g>
<!-- Node13 -->
<g id="node13" class="node"><title>Node13</title>
<g id="a_node13"><a xlink:href="../../d0/df6/classCParser.html#a4b9f00c05d44a13b3c18b28b52f5be9e" target="_top" xlink:title="CParser::class_block\l_item_list">
<polygon fill="white" stroke="black" points="1845,-29 1845,-59 1959,-59 1959,-29 1845,-29"/>
<text text-anchor="start" x="1853" y="-47" font-family="Helvetica,sans-Serif" font-size="10.00">CParser::class_block</text>
<text text-anchor="middle" x="1902" y="-36" font-family="Helvetica,sans-Serif" font-size="10.00">_item_list</text>
</a>
</g>
</g>
<!-- Node12&#45;&gt;Node13 -->
<g id="edge14" class="edge"><title>Node12&#45;&gt;Node13</title>
<path fill="none" stroke="midnightblue" d="M1801.87,-59.8377C1816.17,-57.5534 1831.04,-55.177 1844.79,-52.9809"/>
<polygon fill="midnightblue" stroke="midnightblue" points="1800.91,-56.4469 1791.58,-61.4808 1802.01,-63.3593 1800.91,-56.4469"/>
</g>
<!-- Node14 -->
<g id="node14" class="node"><title>Node14</title>
<g id="a_node14"><a xlink:href="../../d0/df6/classCParser.html#a06c7cac9034f27ad6d998b49a7b574c8" target="_top" xlink:title="CParser::class_block">
<polygon fill="white" stroke="black" points="2003,-34.5 2003,-53.5 2117,-53.5 2117,-34.5 2003,-34.5"/>
<text text-anchor="middle" x="2060" y="-41.5" font-family="Helvetica,sans-Serif" font-size="10.00">CParser::class_block</text>
</a>
</g>
</g>
<!-- Node13&#45;&gt;Node14 -->
<g id="edge15" class="edge"><title>Node13&#45;&gt;Node14</title>
<path fill="none" stroke="midnightblue" d="M1969.4,-44C1980.51,-44 1991.94,-44 2002.76,-44"/>
<polygon fill="midnightblue" stroke="midnightblue" points="1969.32,-40.5001 1959.32,-44 1969.32,-47.5001 1969.32,-40.5001"/>
</g>
<!-- Node15 -->
<g id="node15" class="node"><title>Node15</title>
<g id="a_node15"><a xlink:href="../../d0/df6/classCParser.html#a40fba8426e7ac46e9926515ee81e97f3" target="_top" xlink:title="CParser::class_suffix">
<polygon fill="white" stroke="black" points="2153,-34.5 2153,-53.5 2267,-53.5 2267,-34.5 2153,-34.5"/>
<text text-anchor="middle" x="2210" y="-41.5" font-family="Helvetica,sans-Serif" font-size="10.00">CParser::class_suffix</text>
</a>
</g>
</g>
<!-- Node14&#45;&gt;Node15 -->
<g id="edge16" class="edge"><title>Node14&#45;&gt;Node15</title>
<path fill="none" stroke="midnightblue" d="M2127.56,-44C2135.98,-44 2144.54,-44 2152.78,-44"/>
<polygon fill="midnightblue" stroke="midnightblue" points="2127.37,-40.5001 2117.37,-44 2127.37,-47.5001 2127.37,-40.5001"/>
</g>
<!-- Node16 -->
<g id="node16" class="node"><title>Node16</title>
<g id="a_node16"><a xlink:href="../../d0/df6/classCParser.html#a1ed5fcfb2e97e3551fceabe81989a667" target="_top" xlink:title="CParser::class_declaration\l_or_definition">
<polygon fill="white" stroke="black" points="2303,-29 2303,-59 2446,-59 2446,-29 2303,-29"/>
<text text-anchor="start" x="2311" y="-47" font-family="Helvetica,sans-Serif" font-size="10.00">CParser::class_declaration</text>
<text text-anchor="middle" x="2374.5" y="-36" font-family="Helvetica,sans-Serif" font-size="10.00">_or_definition</text>
</a>
</g>
</g>
<!-- Node15&#45;&gt;Node16 -->
<g id="edge17" class="edge"><title>Node15&#45;&gt;Node16</title>
<path fill="none" stroke="midnightblue" d="M2277.47,-44C2285.86,-44 2294.46,-44 2302.91,-44"/>
<polygon fill="midnightblue" stroke="midnightblue" points="2277.38,-40.5001 2267.38,-44 2277.38,-47.5001 2277.38,-40.5001"/>
</g>
<!-- Node16&#45;&gt;Node5 -->
<g id="edge18" class="edge"><title>Node16&#45;&gt;Node5</title>
<path fill="none" stroke="midnightblue" d="M2296.36,-27.0145C2233.37,-14.6274 2141.87,-0 2061,-0 1901,-0 1901,-0 1901,-0 1791.86,-7.10543e-15 1757.04,-0.153266 1661,-52 1628.76,-69.403 1600.39,-102.417 1585.52,-121.781"/>
<polygon fill="midnightblue" stroke="midnightblue" points="2295.73,-30.4572 2306.22,-28.9808 2297.1,-23.5924 2295.73,-30.4572"/>
</g>
<!-- Node17 -->
<g id="node17" class="node"><title>Node17</title>
<g id="a_node17"><a xlink:href="../../d0/df6/classCParser.html#a12561a45dab96760d7ab45896681dd33" target="_top" xlink:title="CParser::class_or_method\l_declaration_or_definition">
<polygon fill="white" stroke="black" points="2482,-210 2482,-240 2623,-240 2623,-210 2482,-210"/>
<text text-anchor="start" x="2490" y="-228" font-family="Helvetica,sans-Serif" font-size="10.00">CParser::class_or_method</text>
<text text-anchor="middle" x="2552.5" y="-217" font-family="Helvetica,sans-Serif" font-size="10.00">_declaration_or_definition</text>
</a>
</g>
</g>
<!-- Node16&#45;&gt;Node17 -->
<g id="edge19" class="edge"><title>Node16&#45;&gt;Node17</title>
<path fill="none" stroke="midnightblue" d="M2397.4,-66.5199C2433.77,-103.929 2505.71,-177.913 2536.72,-209.795"/>
<polygon fill="midnightblue" stroke="midnightblue" points="2399.68,-63.8501 2390.2,-59.1206 2394.67,-68.73 2399.68,-63.8501"/>
</g>
<!-- Node20 -->
<g id="node20" class="node"><title>Node20</title>
<g id="a_node20"><a xlink:href="../../d0/df6/classCParser.html#a617e49ab4458d5b4adf577a6a0bc05cd" target="_top" xlink:title="CParser::ctor_init\l_item_list">
<polygon fill="white" stroke="black" points="656.5,-171 656.5,-201 754.5,-201 754.5,-171 656.5,-171"/>
<text text-anchor="start" x="664.5" y="-189" font-family="Helvetica,sans-Serif" font-size="10.00">CParser::ctor_init</text>
<text text-anchor="middle" x="705.5" y="-178" font-family="Helvetica,sans-Serif" font-size="10.00">_item_list</text>
</a>
</g>
</g>
<!-- Node19&#45;&gt;Node20 -->
<g id="edge22" class="edge"><title>Node19&#45;&gt;Node20</title>
<path fill="none" stroke="midnightblue" d="M607.081,-182.531C623.727,-183.124 641.075,-183.742 656.44,-184.289"/>
<polygon fill="midnightblue" stroke="midnightblue" points="606.951,-179.024 596.832,-182.166 606.701,-186.02 606.951,-179.024"/>
</g>
<!-- Node21 -->
<g id="node21" class="node"><title>Node21</title>
<g id="a_node21"><a xlink:href="../../d0/df6/classCParser.html#ab6c0eabf2b00874bf8f70b576d96ce52" target="_top" xlink:title="CParser::ctor_init_list">
<polygon fill="white" stroke="black" points="797,-178.5 797,-197.5 913,-197.5 913,-178.5 797,-178.5"/>
<text text-anchor="middle" x="855" y="-185.5" font-family="Helvetica,sans-Serif" font-size="10.00">CParser::ctor_init_list</text>
</a>
</g>
</g>
<!-- Node20&#45;&gt;Node21 -->
<g id="edge23" class="edge"><title>Node20&#45;&gt;Node21</title>
<path fill="none" stroke="midnightblue" d="M765.087,-186.794C775.552,-186.936 786.443,-187.084 796.867,-187.225"/>
<polygon fill="midnightblue" stroke="midnightblue" points="764.844,-183.291 754.797,-186.655 764.749,-190.29 764.844,-183.291"/>
</g>
<!-- Node22 -->
<g id="node22" class="node"><title>Node22</title>
<g id="a_node22"><a xlink:href="../../d0/df6/classCParser.html#ad7a6fd3a8b7daa3c26191f4512236a59" target="_top" xlink:title="CParser::method_suffix">
<polygon fill="white" stroke="black" points="949,-197.5 949,-216.5 1074,-216.5 1074,-197.5 949,-197.5"/>
<text text-anchor="middle" x="1011.5" y="-204.5" font-family="Helvetica,sans-Serif" font-size="10.00">CParser::method_suffix</text>
</a>
</g>
</g>
<!-- Node21&#45;&gt;Node22 -->
<g id="edge24" class="edge"><title>Node21&#45;&gt;Node22</title>
<path fill="none" stroke="midnightblue" d="M923.086,-196.25C931.689,-197.308 940.464,-198.387 948.973,-199.434"/>
<polygon fill="midnightblue" stroke="midnightblue" points="923.444,-192.768 913.091,-195.021 922.589,-199.715 923.444,-192.768"/>
</g>
<!-- Node23 -->
<g id="node23" class="node"><title>Node23</title>
<g id="a_node23"><a xlink:href="../../d0/df6/classCParser.html#a0dd2a579512bf1a17aaeac5fdec860a7" target="_top" xlink:title="CParser::method_declaration\l_or_definition_with_implicit_type">
<polygon fill="white" stroke="black" points="1110,-201 1110,-231 1280,-231 1280,-201 1110,-201"/>
<text text-anchor="start" x="1118" y="-219" font-family="Helvetica,sans-Serif" font-size="10.00">CParser::method_declaration</text>
<text text-anchor="middle" x="1195" y="-208" font-family="Helvetica,sans-Serif" font-size="10.00">_or_definition_with_implicit_type</text>
</a>
</g>
</g>
<!-- Node22&#45;&gt;Node23 -->
<g id="edge25" class="edge"><title>Node22&#45;&gt;Node23</title>
<path fill="none" stroke="midnightblue" d="M1084.34,-210.562C1092.75,-210.98 1101.4,-211.408 1109.97,-211.833"/>
<polygon fill="midnightblue" stroke="midnightblue" points="1084.36,-207.059 1074.2,-210.06 1084.02,-214.051 1084.36,-207.059"/>
</g>
<!-- Node23&#45;&gt;Node5 -->
<g id="edge26" class="edge"><title>Node23&#45;&gt;Node5</title>
<path fill="none" stroke="midnightblue" d="M1277.5,-198.899C1351.79,-183.31 1459.22,-160.77 1521.85,-147.627"/>
<polygon fill="midnightblue" stroke="midnightblue" points="1276.77,-195.476 1267.7,-200.955 1278.21,-202.327 1276.77,-195.476"/>
</g>
<!-- Node23&#45;&gt;Node17 -->
<g id="edge30" class="edge"><title>Node23&#45;&gt;Node17</title>
<path fill="none" stroke="midnightblue" d="M1262.44,-233.44C1279.77,-237.455 1298.5,-241.327 1316,-244 1429,-261.262 1458.19,-263 1572.5,-263 1572.5,-263 1572.5,-263 2211,-263 2305.28,-263 2413.34,-248.433 2481.98,-237.338"/>
<polygon fill="midnightblue" stroke="midnightblue" points="1262.96,-229.966 1252.42,-231.068 1261.34,-236.777 1262.96,-229.966"/>
</g>
<!-- Node24 -->
<g id="node24" class="node"><title>Node24</title>
<g id="a_node24"><a xlink:href="../../d0/df6/classCParser.html#af0c9d35d4c997c6f34cf4a26563b513c" target="_top" xlink:title="CParser::method_declaration\l_or_definition_with_explicit_type">
<polygon fill="white" stroke="black" points="1316,-204 1316,-234 1486,-234 1486,-204 1316,-204"/>
<text text-anchor="start" x="1324" y="-222" font-family="Helvetica,sans-Serif" font-size="10.00">CParser::method_declaration</text>
<text text-anchor="middle" x="1401" y="-211" font-family="Helvetica,sans-Serif" font-size="10.00">_or_definition_with_explicit_type</text>
</a>
</g>
</g>
<!-- Node23&#45;&gt;Node24 -->
<g id="edge27" class="edge"><title>Node23&#45;&gt;Node24</title>
<path fill="none" stroke="midnightblue" d="M1290.4,-217.388C1298.85,-217.512 1307.36,-217.638 1315.71,-217.76"/>
<polygon fill="midnightblue" stroke="midnightblue" points="1290.2,-213.885 1280.15,-217.238 1290.1,-220.884 1290.2,-213.885"/>
</g>
<!-- Node24&#45;&gt;Node5 -->
<g id="edge28" class="edge"><title>Node24&#45;&gt;Node5</title>
<path fill="none" stroke="midnightblue" d="M1458.83,-200.436C1468.04,-196.936 1477.38,-193.082 1486,-189 1508.65,-178.279 1532.98,-163.31 1550.06,-152.184"/>
<polygon fill="midnightblue" stroke="midnightblue" points="1457.49,-197.202 1449.32,-203.95 1459.91,-203.769 1457.49,-197.202"/>
</g>
<!-- Node24&#45;&gt;Node17 -->
<g id="edge29" class="edge"><title>Node24&#45;&gt;Node17</title>
<path fill="none" stroke="midnightblue" d="M1496.57,-221.645C1562.09,-223.254 1651.34,-225 1730,-225 1730,-225 1730,-225 2211,-225 2304.7,-225 2412.9,-225 2481.72,-225"/>
<polygon fill="midnightblue" stroke="midnightblue" points="1496.34,-218.139 1486.26,-221.389 1496.17,-225.137 1496.34,-218.139"/>
</g>
</g>
</svg>
