<?xml version="1.0" encoding="UTF-8" standalone="no"?>
<!DOCTYPE svg PUBLIC "-//W3C//DTD SVG 1.1//EN"
 "http://www.w3.org/Graphics/SVG/1.1/DTD/svg11.dtd">
<!-- Generated by graphviz version 2.38.0 (20140413.2041)
 -->
<!-- Title: CParser::indirection_modifiers Pages: 1 -->
<svg width="686pt" height="75pt"
 viewBox="0.00 0.00 686.00 74.50" xmlns="http://www.w3.org/2000/svg" xmlns:xlink="http://www.w3.org/1999/xlink">
<g id="graph0" class="graph" transform="scale(1 1) rotate(0) translate(4 70.5)">
<title>CParser::indirection_modifiers</title>
<polygon fill="white" stroke="none" points="-4,4 -4,-70.5 682,-70.5 682,4 -4,4"/>
<!-- Node1 -->
<g id="node1" class="node"><title>Node1</title>
<polygon fill="#bfbfbf" stroke="black" points="0,-14 0,-44 109,-44 109,-14 0,-14"/>
<text text-anchor="start" x="8" y="-32" font-family="Helvetica,sans-Serif" font-size="10.00">CParser::indirection</text>
<text text-anchor="middle" x="54.5" y="-21" font-family="Helvetica,sans-Serif" font-size="10.00">_modifiers</text>
</g>
<!-- Node2 -->
<g id="node2" class="node"><title>Node2</title>
<g id="a_node2"><a xlink:href="../../d0/df6/classCParser.html#a80be2f0d41b613906058b6df76ce7815" target="_top" xlink:title="CParser::indirection\l_modifier">
<polygon fill="white" stroke="black" points="145,-36 145,-66 254,-66 254,-36 145,-36"/>
<text text-anchor="start" x="153" y="-54" font-family="Helvetica,sans-Serif" font-size="10.00">CParser::indirection</text>
<text text-anchor="middle" x="199.5" y="-43" font-family="Helvetica,sans-Serif" font-size="10.00">_modifier</text>
</a>
</g>
</g>
<!-- Node1&#45;&gt;Node2 -->
<g id="edge1" class="edge"><title>Node1&#45;&gt;Node2</title>
<path fill="none" stroke="midnightblue" d="M109.155,-37.2546C117.471,-38.534 126.132,-39.8664 134.646,-41.1763"/>
<polygon fill="midnightblue" stroke="midnightblue" points="134.129,-44.6378 144.545,-42.6992 135.193,-37.7192 134.129,-44.6378"/>
</g>
<!-- Node3 -->
<g id="node3" class="node"><title>Node3</title>
<g id="a_node3"><a xlink:href="../../d0/df6/classCParser.html#a5e1630bd24884bb1cbc5680926dce957" target="_top" xlink:title="CParser::syn">
<polygon fill="white" stroke="black" points="290,-19.5 290,-38.5 367,-38.5 367,-19.5 290,-19.5"/>
<text text-anchor="middle" x="328.5" y="-26.5" font-family="Helvetica,sans-Serif" font-size="10.00">CParser::syn</text>
</a>
</g>
</g>
<!-- Node1&#45;&gt;Node3 -->
<g id="edge6" class="edge"><title>Node1&#45;&gt;Node3</title>
<path fill="none" stroke="midnightblue" d="M109.45,-27.5995C121.169,-27.3498 133.5,-27.1285 145,-27 193.441,-26.4588 205.56,-26.3411 254,-27 262.258,-27.1123 271.036,-27.2956 279.544,-27.5068"/>
<polygon fill="midnightblue" stroke="midnightblue" points="279.646,-31.0106 289.735,-27.7754 279.831,-24.0131 279.646,-31.0106"/>
</g>
<!-- Node2&#45;&gt;Node3 -->
<g id="edge2" class="edge"><title>Node2&#45;&gt;Node3</title>
<path fill="none" stroke="midnightblue" d="M254.359,-41.67C262.819,-40.2047 271.511,-38.6988 279.818,-37.2598"/>
<polygon fill="midnightblue" stroke="midnightblue" points="280.462,-40.7005 289.718,-35.5449 279.268,-33.8032 280.462,-40.7005"/>
</g>
<!-- Node4 -->
<g id="node4" class="node"><title>Node4</title>
<g id="a_node4"><a xlink:href="../../da/d6a/classParseUtility.html#aabfa4c56607539ef14be2e2a7260006b" target="_top" xlink:title="ParseUtility::syn">
<polygon fill="white" stroke="black" points="403,-19.5 403,-38.5 494,-38.5 494,-19.5 403,-19.5"/>
<text text-anchor="middle" x="448.5" y="-26.5" font-family="Helvetica,sans-Serif" font-size="10.00">ParseUtility::syn</text>
</a>
</g>
</g>
<!-- Node3&#45;&gt;Node4 -->
<g id="edge3" class="edge"><title>Node3&#45;&gt;Node4</title>
<path fill="none" stroke="midnightblue" d="M367.16,-29C375.305,-29 384.076,-29 392.726,-29"/>
<polygon fill="midnightblue" stroke="midnightblue" points="392.779,-32.5001 402.779,-29 392.779,-25.5001 392.779,-32.5001"/>
</g>
<!-- Node5 -->
<g id="node5" class="node"><title>Node5</title>
<g id="a_node5"><a xlink:href="../../d3/d5e/classParseStore.html#ab21a4aeadb4cc4938b58cbefbb8634e8" target="_top" xlink:title="ParseStore::currentInstance">
<polygon fill="white" stroke="black" points="530,-38.5 530,-57.5 678,-57.5 678,-38.5 530,-38.5"/>
<text text-anchor="middle" x="604" y="-45.5" font-family="Helvetica,sans-Serif" font-size="10.00">ParseStore::currentInstance</text>
</a>
</g>
</g>
<!-- Node4&#45;&gt;Node5 -->
<g id="edge4" class="edge"><title>Node4&#45;&gt;Node5</title>
<path fill="none" stroke="midnightblue" d="M494.311,-34.5467C502.412,-35.5494 511.091,-36.6237 519.882,-37.7118"/>
<polygon fill="midnightblue" stroke="midnightblue" points="519.476,-41.1882 529.831,-38.9432 520.336,-34.2412 519.476,-41.1882"/>
</g>
<!-- Node6 -->
<g id="node6" class="node"><title>Node6</title>
<g id="a_node6"><a xlink:href="../../d3/d5e/classParseStore.html#ae7b3d82d22174c1a1165a592d6c1700c" target="_top" xlink:title="ParseStore::filename">
<polygon fill="white" stroke="black" points="547,-0.5 547,-19.5 661,-19.5 661,-0.5 547,-0.5"/>
<text text-anchor="middle" x="604" y="-7.5" font-family="Helvetica,sans-Serif" font-size="10.00">ParseStore::filename</text>
</a>
</g>
</g>
<!-- Node4&#45;&gt;Node6 -->
<g id="edge5" class="edge"><title>Node4&#45;&gt;Node6</title>
<path fill="none" stroke="midnightblue" d="M494.311,-23.4533C507.556,-21.8139 522.345,-19.9833 536.644,-18.2135"/>
<polygon fill="midnightblue" stroke="midnightblue" points="537.446,-21.641 546.94,-16.939 536.586,-14.694 537.446,-21.641"/>
</g>
</g>
</svg>
