<?xml version="1.0" encoding="UTF-8" standalone="no"?>
<!DOCTYPE svg PUBLIC "-//W3C//DTD SVG 1.1//EN"
 "http://www.w3.org/Graphics/SVG/1.1/DTD/svg11.dtd">
<!-- Generated by graphviz version 2.38.0 (20140413.2041)
 -->
<!-- Title: CParser::opt_const_modifier Pages: 1 -->
<!--zoomable 271 -->
<svg id="main" version="1.1" xmlns="http://www.w3.org/2000/svg" xmlns:xlink="http://www.w3.org/1999/xlink" xml:space="preserve" onload="init(evt)">
<style type="text/css"><![CDATA[
.edge:hover path { stroke: red; }
.edge:hover polygon { stroke: red; fill: red; }
]]></style>
<script type="text/javascript"><![CDATA[
var edges = document.getElementsByTagName('g');
if (edges && edges.length) {
  for (var i=0;i<edges.length;i++) {
    if (edges[i].id.substr(0,4)=='edge') {
      edges[i].setAttribute('class','edge');
    }
  }
}
]]></script>
        <defs>
                <circle id="rim" cx="0" cy="0" r="7"/>
                <circle id="rim2" cx="0" cy="0" r="3.5"/>
                <g id="zoomPlus">
                        <use xlink:href="#rim" fill="#404040">
                                <set attributeName="fill" to="#808080" begin="zoomplus.mouseover" end="zoomplus.mouseout"/>
                        </use>
                        <path d="M-4,0h8M0,-4v8" fill="none" stroke="white" stroke-width="1.5" pointer-events="none"/>
                </g>
                <g id="zoomMin">
                        <use xlink:href="#rim" fill="#404040">
                                <set attributeName="fill" to="#808080" begin="zoomminus.mouseover" end="zoomminus.mouseout"/>
                        </use>
                        <path d="M-4,0h8" fill="none" stroke="white" stroke-width="1.5" pointer-events="none"/>
                </g>
                <g id="dirArrow">
                        <path fill="none" stroke="white" stroke-width="1.5" d="M0,-3.0v7 M-2.5,-0.5L0,-3.0L2.5,-0.5"/>
                </g>
               <g id="resetDef">
                       <use xlink:href="#rim2" fill="#404040">
                               <set attributeName="fill" to="#808080" begin="reset.mouseover" end="reset.mouseout"/>
                       </use>
               </g>
        </defs>

<script type="text/javascript">
var viewWidth = 1845;
var viewHeight = 271;
var sectionId = 'dynsection-148';
</script>
<script xlink:href="../../svgpan.js"/>
<svg id="graph" class="graph">
<g id="viewport">
<title>CParser::opt_const_modifier</title>
<polygon fill="white" stroke="none" points="-4,4 -4,-267 1841,-267 1841,4 -4,4"/>
<!-- Node1 -->
<g id="node1" class="node"><title>Node1</title>
<polygon fill="#bfbfbf" stroke="black" points="0,-139 0,-169 107,-169 107,-139 0,-139"/>
<text text-anchor="start" x="8" y="-157" font-family="Helvetica,sans-Serif" font-size="10.00">CParser::opt_const</text>
<text text-anchor="middle" x="53.5" y="-146" font-family="Helvetica,sans-Serif" font-size="10.00">_modifier</text>
</g>
<!-- Node2 -->
<g id="node2" class="node"><title>Node2</title>
<g id="a_node2"><a xlink:href="../../d0/df6/classCParser.html#ab263641e50f3b30b3ac343dd3a5f7e61" target="_top" xlink:title="CParser::method_signature">
<polygon fill="white" stroke="black" points="143,-144.5 143,-163.5 288,-163.5 288,-144.5 143,-144.5"/>
<text text-anchor="middle" x="215.5" y="-151.5" font-family="Helvetica,sans-Serif" font-size="10.00">CParser::method_signature</text>
</a>
</g>
</g>
<!-- Node1&#45;&gt;Node2 -->
<g id="edge1" class="edge"><title>Node1&#45;&gt;Node2</title>
<path fill="none" stroke="midnightblue" d="M117.383,-154C125.749,-154 134.378,-154 142.879,-154"/>
<polygon fill="midnightblue" stroke="midnightblue" points="117.333,-150.5 107.333,-154 117.333,-157.5 117.333,-150.5"/>
</g>
<!-- Node3 -->
<g id="node3" class="node"><title>Node3</title>
<g id="a_node3"><a xlink:href="../../d0/df6/classCParser.html#a0dd2a579512bf1a17aaeac5fdec860a7" target="_top" xlink:title="CParser::method_declaration\l_or_definition_with_implicit_type">
<polygon fill="white" stroke="black" points="324,-139 324,-169 494,-169 494,-139 324,-139"/>
<text text-anchor="start" x="332" y="-157" font-family="Helvetica,sans-Serif" font-size="10.00">CParser::method_declaration</text>
<text text-anchor="middle" x="409" y="-146" font-family="Helvetica,sans-Serif" font-size="10.00">_or_definition_with_implicit_type</text>
</a>
</g>
</g>
<!-- Node2&#45;&gt;Node3 -->
<g id="edge2" class="edge"><title>Node2&#45;&gt;Node3</title>
<path fill="none" stroke="midnightblue" d="M298.324,-154C306.798,-154 315.421,-154 323.919,-154"/>
<polygon fill="midnightblue" stroke="midnightblue" points="298.08,-150.5 288.08,-154 298.08,-157.5 298.08,-150.5"/>
</g>
<!-- Node4 -->
<g id="node4" class="node"><title>Node4</title>
<g id="a_node4"><a xlink:href="../../d0/df6/classCParser.html#ab3ab57ace628c2476dd8dfe5a96f9a15" target="_top" xlink:title="CParser::definition\l_or_declaration">
<polygon fill="white" stroke="black" points="736,-117 736,-147 839,-147 839,-117 736,-117"/>
<text text-anchor="start" x="744" y="-135" font-family="Helvetica,sans-Serif" font-size="10.00">CParser::definition</text>
<text text-anchor="middle" x="787.5" y="-124" font-family="Helvetica,sans-Serif" font-size="10.00">_or_declaration</text>
</a>
</g>
</g>
<!-- Node3&#45;&gt;Node4 -->
<g id="edge3" class="edge"><title>Node3&#45;&gt;Node4</title>
<path fill="none" stroke="midnightblue" d="M504.213,-148.495C577.67,-144.203 676.833,-138.408 735.966,-134.953"/>
<polygon fill="midnightblue" stroke="midnightblue" points="503.804,-145.013 494.025,-149.09 504.213,-152.001 503.804,-145.013"/>
</g>
<!-- Node16 -->
<g id="node16" class="node"><title>Node16</title>
<g id="a_node16"><a xlink:href="../../d0/df6/classCParser.html#a12561a45dab96760d7ab45896681dd33" target="_top" xlink:title="CParser::class_or_method\l_declaration_or_definition">
<polygon fill="white" stroke="black" points="1696,-120 1696,-150 1837,-150 1837,-120 1696,-120"/>
<text text-anchor="start" x="1704" y="-138" font-family="Helvetica,sans-Serif" font-size="10.00">CParser::class_or_method</text>
<text text-anchor="middle" x="1766.5" y="-127" font-family="Helvetica,sans-Serif" font-size="10.00">_declaration_or_definition</text>
</a>
</g>
</g>
<!-- Node3&#45;&gt;Node16 -->
<g id="edge22" class="edge"><title>Node3&#45;&gt;Node16</title>
<path fill="none" stroke="midnightblue" d="M449.78,-173.581C517.294,-204.956 659.376,-263 786.5,-263 786.5,-263 786.5,-263 1425,-263 1551.94,-263 1689.45,-184.092 1742.68,-150.186"/>
<polygon fill="midnightblue" stroke="midnightblue" points="450.91,-170.245 440.371,-169.156 447.931,-176.579 450.91,-170.245"/>
</g>
<!-- Node17 -->
<g id="node17" class="node"><title>Node17</title>
<g id="a_node17"><a xlink:href="../../d0/df6/classCParser.html#af0c9d35d4c997c6f34cf4a26563b513c" target="_top" xlink:title="CParser::method_declaration\l_or_definition_with_explicit_type">
<polygon fill="white" stroke="black" points="530,-95 530,-125 700,-125 700,-95 530,-95"/>
<text text-anchor="start" x="538" y="-113" font-family="Helvetica,sans-Serif" font-size="10.00">CParser::method_declaration</text>
<text text-anchor="middle" x="615" y="-102" font-family="Helvetica,sans-Serif" font-size="10.00">_or_definition_with_explicit_type</text>
</a>
</g>
</g>
<!-- Node3&#45;&gt;Node17 -->
<g id="edge19" class="edge"><title>Node3&#45;&gt;Node17</title>
<path fill="none" stroke="midnightblue" d="M489.56,-136.84C507.637,-132.941 526.704,-128.829 544.333,-125.026"/>
<polygon fill="midnightblue" stroke="midnightblue" points="488.672,-133.451 479.635,-138.981 490.148,-140.294 488.672,-133.451"/>
</g>
<!-- Node5 -->
<g id="node5" class="node"><title>Node5</title>
<g id="a_node5"><a xlink:href="../../d0/df6/classCParser.html#a2b78ab2005bef5c43ee2d4689210eab1" target="_top" xlink:title="CParser::link_item">
<polygon fill="white" stroke="black" points="894.5,-122.5 894.5,-141.5 995.5,-141.5 995.5,-122.5 894.5,-122.5"/>
<text text-anchor="middle" x="945" y="-129.5" font-family="Helvetica,sans-Serif" font-size="10.00">CParser::link_item</text>
</a>
</g>
</g>
<!-- Node4&#45;&gt;Node5 -->
<g id="edge4" class="edge"><title>Node4&#45;&gt;Node5</title>
<path fill="none" stroke="midnightblue" d="M849.524,-132C864.362,-132 880.053,-132 894.294,-132"/>
<polygon fill="midnightblue" stroke="midnightblue" points="849.417,-128.5 839.417,-132 849.416,-135.5 849.417,-128.5"/>
</g>
<!-- Node11 -->
<g id="node11" class="node"><title>Node11</title>
<g id="a_node11"><a xlink:href="../../d0/df6/classCParser.html#a85eb09132fa5a588749cea062f0d11ea" target="_top" xlink:title="CParser::class_block_item">
<polygon fill="white" stroke="black" points="875,-59.5 875,-78.5 1015,-78.5 1015,-59.5 875,-59.5"/>
<text text-anchor="middle" x="945" y="-66.5" font-family="Helvetica,sans-Serif" font-size="10.00">CParser::class_block_item</text>
</a>
</g>
</g>
<!-- Node4&#45;&gt;Node11 -->
<g id="edge12" class="edge"><title>Node4&#45;&gt;Node11</title>
<path fill="none" stroke="midnightblue" d="M835.339,-113.023C863.296,-101.697 897.622,-87.7899 920.117,-78.6761"/>
<polygon fill="midnightblue" stroke="midnightblue" points="833.7,-109.911 825.746,-116.91 836.329,-116.399 833.7,-109.911"/>
</g>
<!-- Node6 -->
<g id="node6" class="node"><title>Node6</title>
<g id="a_node6"><a xlink:href="../../d0/df6/classCParser.html#a4f02da23566af37123efb3768769c09b" target="_top" xlink:title="CParser::start">
<polygon fill="white" stroke="black" points="1075.5,-78.5 1075.5,-97.5 1156.5,-97.5 1156.5,-78.5 1075.5,-78.5"/>
<text text-anchor="middle" x="1116" y="-85.5" font-family="Helvetica,sans-Serif" font-size="10.00">CParser::start</text>
</a>
</g>
</g>
<!-- Node5&#45;&gt;Node6 -->
<g id="edge5" class="edge"><title>Node5&#45;&gt;Node6</title>
<path fill="none" stroke="midnightblue" d="M992.685,-119.845C1019.73,-112.805 1053.28,-104.069 1078.4,-97.5287"/>
<polygon fill="midnightblue" stroke="midnightblue" points="991.466,-116.546 982.67,-122.453 993.23,-123.32 991.466,-116.546"/>
</g>
<!-- Node9 -->
<g id="node9" class="node"><title>Node9</title>
<g id="a_node9"><a xlink:href="../../d0/df6/classCParser.html#a86906e492ff9c606fb3537078f46f93e" target="_top" xlink:title="CParser::extern_linkage\l_block">
<polygon fill="white" stroke="black" points="1051,-166 1051,-196 1181,-196 1181,-166 1051,-166"/>
<text text-anchor="start" x="1059" y="-184" font-family="Helvetica,sans-Serif" font-size="10.00">CParser::extern_linkage</text>
<text text-anchor="middle" x="1116" y="-173" font-family="Helvetica,sans-Serif" font-size="10.00">_block</text>
</a>
</g>
</g>
<!-- Node5&#45;&gt;Node9 -->
<g id="edge8" class="edge"><title>Node5&#45;&gt;Node9</title>
<path fill="none" stroke="midnightblue" d="M1005.47,-142.762C1031.21,-149.653 1060.35,-158.438 1082.1,-165.986"/>
<polygon fill="midnightblue" stroke="midnightblue" points="1006.35,-139.376 995.792,-140.221 1004.57,-146.147 1006.35,-139.376"/>
</g>
<!-- Node10 -->
<g id="node10" class="node"><title>Node10</title>
<g id="a_node10"><a xlink:href="../../d0/df6/classCParser.html#a4fad913a0694a5376ad76669d8943122" target="_top" xlink:title="CParser::namespace\l_block">
<polygon fill="white" stroke="black" points="1058.5,-117 1058.5,-147 1173.5,-147 1173.5,-117 1058.5,-117"/>
<text text-anchor="start" x="1066.5" y="-135" font-family="Helvetica,sans-Serif" font-size="10.00">CParser::namespace</text>
<text text-anchor="middle" x="1116" y="-124" font-family="Helvetica,sans-Serif" font-size="10.00">_block</text>
</a>
</g>
</g>
<!-- Node5&#45;&gt;Node10 -->
<g id="edge10" class="edge"><title>Node5&#45;&gt;Node10</title>
<path fill="none" stroke="midnightblue" d="M1006.17,-125.505C1023.19,-125.139 1041.65,-125.167 1058.45,-125.589"/>
<polygon fill="midnightblue" stroke="midnightblue" points="1005.69,-122.017 995.792,-125.784 1005.88,-129.014 1005.69,-122.017"/>
</g>
<!-- Node7 -->
<g id="node7" class="node"><title>Node7</title>
<g id="a_node7"><a xlink:href="../../db/d4a/classMain.html#a803470658c644fa9512140f9d8398dd5" target="_top" xlink:title="Main::ParseFiles">
<polygon fill="white" stroke="black" points="1227,-78.5 1227,-97.5 1321,-97.5 1321,-78.5 1227,-78.5"/>
<text text-anchor="middle" x="1274" y="-85.5" font-family="Helvetica,sans-Serif" font-size="10.00">Main::ParseFiles</text>
</a>
</g>
</g>
<!-- Node6&#45;&gt;Node7 -->
<g id="edge6" class="edge"><title>Node6&#45;&gt;Node7</title>
<path fill="none" stroke="midnightblue" d="M1166.87,-88C1186.14,-88 1208.05,-88 1226.94,-88"/>
<polygon fill="midnightblue" stroke="midnightblue" points="1166.77,-84.5001 1156.77,-88 1166.77,-91.5001 1166.77,-84.5001"/>
</g>
<!-- Node8 -->
<g id="node8" class="node"><title>Node8</title>
<g id="a_node8"><a xlink:href="../../d6/d93/ccccmain_8cc.html#a3c04138a5bfe5d72780bb7e82a18e627" target="_top" xlink:title="main">
<polygon fill="white" stroke="black" points="1404.5,-78.5 1404.5,-97.5 1443.5,-97.5 1443.5,-78.5 1404.5,-78.5"/>
<text text-anchor="middle" x="1424" y="-85.5" font-family="Helvetica,sans-Serif" font-size="10.00">main</text>
</a>
</g>
</g>
<!-- Node7&#45;&gt;Node8 -->
<g id="edge7" class="edge"><title>Node7&#45;&gt;Node8</title>
<path fill="none" stroke="midnightblue" d="M1331.15,-88C1357.09,-88 1386.14,-88 1404.49,-88"/>
<polygon fill="midnightblue" stroke="midnightblue" points="1331.02,-84.5001 1321.02,-88 1331.02,-91.5001 1331.02,-84.5001"/>
</g>
<!-- Node9&#45;&gt;Node5 -->
<g id="edge9" class="edge"><title>Node9&#45;&gt;Node5</title>
<path fill="none" stroke="midnightblue" d="M1040.98,-166.243C1012.59,-158.263 982.595,-148.789 964.086,-141.614"/>
<polygon fill="midnightblue" stroke="midnightblue" points="1040.36,-169.703 1050.94,-168.996 1042.23,-162.957 1040.36,-169.703"/>
</g>
<!-- Node10&#45;&gt;Node5 -->
<g id="edge11" class="edge"><title>Node10&#45;&gt;Node5</title>
<path fill="none" stroke="midnightblue" d="M1048.29,-138.615C1030.8,-138.884 1012.23,-138.751 995.792,-138.216"/>
<polygon fill="midnightblue" stroke="midnightblue" points="1048.52,-142.111 1058.45,-138.411 1048.38,-135.113 1048.52,-142.111"/>
</g>
<!-- Node12 -->
<g id="node12" class="node"><title>Node12</title>
<g id="a_node12"><a xlink:href="../../d0/df6/classCParser.html#a4b9f00c05d44a13b3c18b28b52f5be9e" target="_top" xlink:title="CParser::class_block\l_item_list">
<polygon fill="white" stroke="black" points="1059,-29 1059,-59 1173,-59 1173,-29 1059,-29"/>
<text text-anchor="start" x="1067" y="-47" font-family="Helvetica,sans-Serif" font-size="10.00">CParser::class_block</text>
<text text-anchor="middle" x="1116" y="-36" font-family="Helvetica,sans-Serif" font-size="10.00">_item_list</text>
</a>
</g>
</g>
<!-- Node11&#45;&gt;Node12 -->
<g id="edge13" class="edge"><title>Node11&#45;&gt;Node12</title>
<path fill="none" stroke="midnightblue" d="M1020.58,-57.9674C1033.42,-56.0683 1046.57,-54.1233 1058.82,-52.3112"/>
<polygon fill="midnightblue" stroke="midnightblue" points="1019.75,-54.5515 1010.37,-59.4773 1020.78,-61.4761 1019.75,-54.5515"/>
</g>
<!-- Node13 -->
<g id="node13" class="node"><title>Node13</title>
<g id="a_node13"><a xlink:href="../../d0/df6/classCParser.html#a06c7cac9034f27ad6d998b49a7b574c8" target="_top" xlink:title="CParser::class_block">
<polygon fill="white" stroke="black" points="1217,-35.5 1217,-54.5 1331,-54.5 1331,-35.5 1217,-35.5"/>
<text text-anchor="middle" x="1274" y="-42.5" font-family="Helvetica,sans-Serif" font-size="10.00">CParser::class_block</text>
</a>
</g>
</g>
<!-- Node12&#45;&gt;Node13 -->
<g id="edge14" class="edge"><title>Node12&#45;&gt;Node13</title>
<path fill="none" stroke="midnightblue" d="M1183.4,-44.4257C1194.51,-44.4969 1205.94,-44.5701 1216.76,-44.6395"/>
<polygon fill="midnightblue" stroke="midnightblue" points="1183.34,-40.9253 1173.32,-44.361 1183.3,-47.9252 1183.34,-40.9253"/>
</g>
<!-- Node14 -->
<g id="node14" class="node"><title>Node14</title>
<g id="a_node14"><a xlink:href="../../d0/df6/classCParser.html#a40fba8426e7ac46e9926515ee81e97f3" target="_top" xlink:title="CParser::class_suffix">
<polygon fill="white" stroke="black" points="1367,-38.5 1367,-57.5 1481,-57.5 1481,-38.5 1367,-38.5"/>
<text text-anchor="middle" x="1424" y="-45.5" font-family="Helvetica,sans-Serif" font-size="10.00">CParser::class_suffix</text>
</a>
</g>
</g>
<!-- Node13&#45;&gt;Node14 -->
<g id="edge15" class="edge"><title>Node13&#45;&gt;Node14</title>
<path fill="none" stroke="midnightblue" d="M1341.56,-46.3491C1349.98,-46.5199 1358.54,-46.6934 1366.78,-46.8604"/>
<polygon fill="midnightblue" stroke="midnightblue" points="1341.44,-42.8462 1331.37,-46.1427 1341.3,-49.8448 1341.44,-42.8462"/>
</g>
<!-- Node15 -->
<g id="node15" class="node"><title>Node15</title>
<g id="a_node15"><a xlink:href="../../d0/df6/classCParser.html#a1ed5fcfb2e97e3551fceabe81989a667" target="_top" xlink:title="CParser::class_declaration\l_or_definition">
<polygon fill="white" stroke="black" points="1517,-120 1517,-150 1660,-150 1660,-120 1517,-120"/>
<text text-anchor="start" x="1525" y="-138" font-family="Helvetica,sans-Serif" font-size="10.00">CParser::class_declaration</text>
<text text-anchor="middle" x="1588.5" y="-127" font-family="Helvetica,sans-Serif" font-size="10.00">_or_definition</text>
</a>
</g>
</g>
<!-- Node14&#45;&gt;Node15 -->
<g id="edge16" class="edge"><title>Node14&#45;&gt;Node15</title>
<path fill="none" stroke="midnightblue" d="M1463.07,-61.1248C1469.15,-63.549 1475.31,-66.205 1481,-69 1511.65,-84.0627 1544.76,-105.474 1565.79,-119.781"/>
<polygon fill="midnightblue" stroke="midnightblue" points="1464.25,-57.8271 1453.66,-57.5192 1461.74,-64.3642 1464.25,-57.8271"/>
</g>
<!-- Node15&#45;&gt;Node4 -->
<g id="edge17" class="edge"><title>Node15&#45;&gt;Node4</title>
<path fill="none" stroke="midnightblue" d="M1547.62,-154.304C1489.22,-180.749 1376.35,-225 1275,-225 1115,-225 1115,-225 1115,-225 1002.72,-225 876.747,-173.502 819.634,-147.149"/>
<polygon fill="midnightblue" stroke="midnightblue" points="1549.23,-157.417 1556.85,-150.064 1546.3,-151.056 1549.23,-157.417"/>
</g>
<!-- Node15&#45;&gt;Node16 -->
<g id="edge18" class="edge"><title>Node15&#45;&gt;Node16</title>
<path fill="none" stroke="midnightblue" d="M1670.08,-135C1678.66,-135 1687.33,-135 1695.77,-135"/>
<polygon fill="midnightblue" stroke="midnightblue" points="1670.07,-131.5 1660.07,-135 1670.07,-138.5 1670.07,-131.5"/>
</g>
<!-- Node17&#45;&gt;Node4 -->
<g id="edge20" class="edge"><title>Node17&#45;&gt;Node4</title>
<path fill="none" stroke="midnightblue" d="M710.429,-122.184C719.068,-123.299 727.58,-124.397 735.604,-125.433"/>
<polygon fill="midnightblue" stroke="midnightblue" points="710.617,-118.68 700.251,-120.871 709.721,-125.622 710.617,-118.68"/>
</g>
<!-- Node17&#45;&gt;Node16 -->
<g id="edge21" class="edge"><title>Node17&#45;&gt;Node16</title>
<path fill="none" stroke="midnightblue" d="M650.61,-90.0908C709.07,-58.3943 831.973,-0 944,-0 944,-0 944,-0 1425,-0 1553.77,-0 1691.88,-84.4703 1743.97,-119.776"/>
<polygon fill="midnightblue" stroke="midnightblue" points="648.872,-87.0526 641.793,-94.9356 652.242,-93.1875 648.872,-87.0526"/>
</g>
</g>
</svg>
        <g id="navigator" transform="translate(0 0)" fill="#404254">
                <rect fill="#f2f5e9" fill-opacity="0.5" stroke="#606060" stroke-width=".5" x="0" y="0" width="60" height="60"/>
                <use id="zoomplus" xlink:href="#zoomPlus" x="17" y="9" onmousedown="handleZoom(evt,'in')"/>
                <use id="zoomminus" xlink:href="#zoomMin" x="42" y="9" onmousedown="handleZoom(evt,'out')"/>
                <use id="reset" xlink:href="#resetDef" x="30" y="36" onmousedown="handleReset()"/>
                <g id="arrowUp" xlink:href="#dirArrow" transform="translate(30 24)" onmousedown="handlePan(0,-1)">
                  <use xlink:href="#rim" fill="#404040">
                        <set attributeName="fill" to="#808080" begin="arrowUp.mouseover" end="arrowUp.mouseout"/>
                  </use>
                  <path fill="none" stroke="white" stroke-width="1.5" d="M0,-3.0v7 M-2.5,-0.5L0,-3.0L2.5,-0.5"/>
                </g>
                <g id="arrowRight" xlink:href="#dirArrow" transform="rotate(90) translate(36 -43)" onmousedown="handlePan(1,0)">
                  <use xlink:href="#rim" fill="#404040">
                        <set attributeName="fill" to="#808080" begin="arrowRight.mouseover" end="arrowRight.mouseout"/>
                  </use>
                  <path fill="none" stroke="white" stroke-width="1.5" d="M0,-3.0v7 M-2.5,-0.5L0,-3.0L2.5,-0.5"/>
                </g>
                <g id="arrowDown" xlink:href="#dirArrow" transform="rotate(180) translate(-30 -48)" onmousedown="handlePan(0,1)">
                  <use xlink:href="#rim" fill="#404040">
                        <set attributeName="fill" to="#808080" begin="arrowDown.mouseover" end="arrowDown.mouseout"/>
                  </use>
                  <path fill="none" stroke="white" stroke-width="1.5" d="M0,-3.0v7 M-2.5,-0.5L0,-3.0L2.5,-0.5"/>
                </g>
                <g id="arrowLeft" xlink:href="#dirArrow" transform="rotate(270) translate(-36 17)" onmousedown="handlePan(-1,0)">
                  <use xlink:href="#rim" fill="#404040">
                        <set attributeName="fill" to="#808080" begin="arrowLeft.mouseover" end="arrowLeft.mouseout"/>
                  </use>
                  <path fill="none" stroke="white" stroke-width="1.5" d="M0,-3.0v7 M-2.5,-0.5L0,-3.0L2.5,-0.5"/>
                </g>
        </g>
        <svg viewBox="0 0 15 15" width="100%" height="30px" preserveAspectRatio="xMaxYMin meet">
         <g id="arrow_out" transform="scale(0.3 0.3)">
          <a xlink:href="classCParser_a9773797fc0455db616d4a66ec0bb6e58_icgraph_org.svg" target="_base">
           <rect id="button" ry="5" rx="5" y="6" x="6" height="38" width="38"
                fill="#f2f5e9" fill-opacity="0.5" stroke="#606060" stroke-width="1.0"/>
           <path id="arrow"
             d="M 11.500037,31.436501 C 11.940474,20.09759 22.043105,11.32322 32.158766,21.979434 L 37.068811,17.246167 C 37.068811,17.246167 37.088388,32 37.088388,32 L 22.160133,31.978069 C 22.160133,31.978069 26.997745,27.140456 26.997745,27.140456 C 18.528582,18.264221 13.291696,25.230495 11.500037,31.436501 z"
             style="fill:#404040;"/>
          </a>
         </g>
        </svg>
</svg>
