<?xml version="1.0" encoding="UTF-8" standalone="no"?>
<!DOCTYPE svg PUBLIC "-//W3C//DTD SVG 1.1//EN"
 "http://www.w3.org/Graphics/SVG/1.1/DTD/svg11.dtd">
<!-- Generated by graphviz version 2.38.0 (20140413.2041)
 -->
<!-- Title: CParser::string_literal Pages: 1 -->
<svg width="3755pt" height="331pt"
 viewBox="0.00 0.00 3755.00 331.00" xmlns="http://www.w3.org/2000/svg" xmlns:xlink="http://www.w3.org/1999/xlink">
<g id="graph0" class="graph" transform="scale(1 1) rotate(0) translate(4 327)">
<title>CParser::string_literal</title>
<polygon fill="white" stroke="none" points="-4,4 -4,-327 3751,-327 3751,4 -4,4"/>
<!-- Node1 -->
<g id="node1" class="node"><title>Node1</title>
<polygon fill="#bfbfbf" stroke="black" points="0,-74.5 0,-93.5 118,-93.5 118,-74.5 0,-74.5"/>
<text text-anchor="middle" x="59" y="-81.5" font-family="Helvetica,sans-Serif" font-size="10.00">CParser::string_literal</text>
</g>
<!-- Node2 -->
<g id="node2" class="node"><title>Node2</title>
<g id="a_node2"><a xlink:href="../../d0/df6/classCParser.html#a6125d39bebbef0edc81fe5f030e76759" target="_top" xlink:title="CParser::literal">
<polygon fill="white" stroke="black" points="154,-74.5 154,-93.5 240,-93.5 240,-74.5 154,-74.5"/>
<text text-anchor="middle" x="197" y="-81.5" font-family="Helvetica,sans-Serif" font-size="10.00">CParser::literal</text>
</a>
</g>
</g>
<!-- Node1&#45;&gt;Node2 -->
<g id="edge1" class="edge"><title>Node1&#45;&gt;Node2</title>
<path fill="none" stroke="midnightblue" d="M128.248,-84C136.945,-84 145.637,-84 153.753,-84"/>
<polygon fill="midnightblue" stroke="midnightblue" points="128.071,-80.5001 118.071,-84 128.071,-87.5001 128.071,-80.5001"/>
</g>
<!-- Node3 -->
<g id="node3" class="node"><title>Node3</title>
<g id="a_node3"><a xlink:href="../../d0/df6/classCParser.html#aafddea1c1b7e4873c90f0ef88644cdd2" target="_top" xlink:title="CParser::param_spec">
<polygon fill="white" stroke="black" points="276,-74.5 276,-93.5 395,-93.5 395,-74.5 276,-74.5"/>
<text text-anchor="middle" x="335.5" y="-81.5" font-family="Helvetica,sans-Serif" font-size="10.00">CParser::param_spec</text>
</a>
</g>
</g>
<!-- Node2&#45;&gt;Node3 -->
<g id="edge2" class="edge"><title>Node2&#45;&gt;Node3</title>
<path fill="none" stroke="midnightblue" d="M250.095,-84C258.486,-84 267.223,-84 275.758,-84"/>
<polygon fill="midnightblue" stroke="midnightblue" points="250.068,-80.5001 240.068,-84 250.068,-87.5001 250.068,-80.5001"/>
</g>
<!-- Node24 -->
<g id="node24" class="node"><title>Node24</title>
<g id="a_node24"><a xlink:href="../../d0/df6/classCParser.html#af54caee0e45703b090b9734347de7911" target="_top" xlink:title="CParser::constant">
<polygon fill="white" stroke="black" points="749.5,-14.5 749.5,-33.5 850.5,-33.5 850.5,-14.5 749.5,-14.5"/>
<text text-anchor="middle" x="800" y="-21.5" font-family="Helvetica,sans-Serif" font-size="10.00">CParser::constant</text>
</a>
</g>
</g>
<!-- Node2&#45;&gt;Node24 -->
<g id="edge30" class="edge"><title>Node2&#45;&gt;Node24</title>
<path fill="none" stroke="midnightblue" d="M241.823,-72.0175C252.904,-69.3495 264.831,-66.7863 276,-65 448.449,-37.4205 655.983,-28.1539 749.293,-25.2397"/>
<polygon fill="midnightblue" stroke="midnightblue" points="240.79,-68.6678 231.93,-74.4779 242.479,-75.4609 240.79,-68.6678"/>
</g>
<!-- Node36 -->
<g id="node36" class="node"><title>Node36</title>
<g id="a_node36"><a xlink:href="../../d0/df6/classCParser.html#a52e049b9361b6e9c7a2c4f6266d98916" target="_top" xlink:title="CParser::scoped">
<polygon fill="white" stroke="black" points="288,-126.5 288,-145.5 383,-145.5 383,-126.5 288,-126.5"/>
<text text-anchor="middle" x="335.5" y="-133.5" font-family="Helvetica,sans-Serif" font-size="10.00">CParser::scoped</text>
</a>
</g>
</g>
<!-- Node2&#45;&gt;Node36 -->
<g id="edge44" class="edge"><title>Node2&#45;&gt;Node36</title>
<path fill="none" stroke="midnightblue" d="M232.437,-97.1189C256.306,-106.212 287.558,-118.117 309.16,-126.347"/>
<polygon fill="midnightblue" stroke="midnightblue" points="233.627,-93.8269 223.036,-93.5376 231.135,-100.368 233.627,-93.8269"/>
</g>
<!-- Node4 -->
<g id="node4" class="node"><title>Node4</title>
<g id="a_node4"><a xlink:href="../../d0/df6/classCParser.html#afe2b338c3a7a63e56c81f6b0ec17debd" target="_top" xlink:title="CParser::param_item">
<polygon fill="white" stroke="black" points="431,-74.5 431,-93.5 547,-93.5 547,-74.5 431,-74.5"/>
<text text-anchor="middle" x="489" y="-81.5" font-family="Helvetica,sans-Serif" font-size="10.00">CParser::param_item</text>
</a>
</g>
</g>
<!-- Node3&#45;&gt;Node4 -->
<g id="edge3" class="edge"><title>Node3&#45;&gt;Node4</title>
<path fill="none" stroke="midnightblue" d="M405.298,-84C413.75,-84 422.319,-84 430.579,-84"/>
<polygon fill="midnightblue" stroke="midnightblue" points="405.074,-80.5001 395.074,-84 405.074,-87.5001 405.074,-80.5001"/>
</g>
<!-- Node5 -->
<g id="node5" class="node"><title>Node5</title>
<g id="a_node5"><a xlink:href="../../d0/df6/classCParser.html#ab9745428cd9f00cf216add3af0dbb2cc" target="_top" xlink:title="CParser::param_list\l_items">
<polygon fill="white" stroke="black" points="745.5,-68 745.5,-98 854.5,-98 854.5,-68 745.5,-68"/>
<text text-anchor="start" x="753.5" y="-86" font-family="Helvetica,sans-Serif" font-size="10.00">CParser::param_list</text>
<text text-anchor="middle" x="800" y="-75" font-family="Helvetica,sans-Serif" font-size="10.00">_items</text>
</a>
</g>
</g>
<!-- Node4&#45;&gt;Node5 -->
<g id="edge4" class="edge"><title>Node4&#45;&gt;Node5</title>
<path fill="none" stroke="midnightblue" d="M557.173,-81.5756C565.862,-81.3377 574.641,-81.1348 583,-81 637.215,-80.1258 650.781,-80.4233 705,-81 718.058,-81.1389 732.134,-81.3863 745.317,-81.6608"/>
<polygon fill="midnightblue" stroke="midnightblue" points="556.94,-78.0808 547.045,-81.8691 557.142,-85.0779 556.94,-78.0808"/>
</g>
<!-- Node23 -->
<g id="node23" class="node"><title>Node23</title>
<g id="a_node23"><a xlink:href="../../d0/df6/classCParser.html#ac2385c4ec53b01f101e04378849f4919" target="_top" xlink:title="CParser::more_param\l_items">
<polygon fill="white" stroke="black" points="584,-91 584,-121 704,-121 704,-91 584,-91"/>
<text text-anchor="start" x="592" y="-109" font-family="Helvetica,sans-Serif" font-size="10.00">CParser::more_param</text>
<text text-anchor="middle" x="644" y="-98" font-family="Helvetica,sans-Serif" font-size="10.00">_items</text>
</a>
</g>
</g>
<!-- Node4&#45;&gt;Node23 -->
<g id="edge28" class="edge"><title>Node4&#45;&gt;Node23</title>
<path fill="none" stroke="midnightblue" d="M557.338,-93.6825C566.219,-94.9596 575.268,-96.2608 583.996,-97.5157"/>
<polygon fill="midnightblue" stroke="midnightblue" points="557.803,-90.2136 547.407,-92.2546 556.807,-97.1423 557.803,-90.2136"/>
</g>
<!-- Node6 -->
<g id="node6" class="node"><title>Node6</title>
<g id="a_node6"><a xlink:href="../../d0/df6/classCParser.html#afbe8666c28623fadda88dce63f2d0dd7" target="_top" xlink:title="CParser::param_list">
<polygon fill="white" stroke="black" points="903.5,-76.5 903.5,-95.5 1012.5,-95.5 1012.5,-76.5 903.5,-76.5"/>
<text text-anchor="middle" x="958" y="-83.5" font-family="Helvetica,sans-Serif" font-size="10.00">CParser::param_list</text>
</a>
</g>
</g>
<!-- Node5&#45;&gt;Node6 -->
<g id="edge5" class="edge"><title>Node5&#45;&gt;Node6</title>
<path fill="none" stroke="midnightblue" d="M864.839,-84.2277C877.674,-84.4745 891.039,-84.7315 903.479,-84.9708"/>
<polygon fill="midnightblue" stroke="midnightblue" points="864.752,-80.7254 854.686,-84.0324 864.617,-87.7242 864.752,-80.7254"/>
</g>
<!-- Node7 -->
<g id="node7" class="node"><title>Node7</title>
<g id="a_node7"><a xlink:href="../../d0/df6/classCParser.html#ab263641e50f3b30b3ac343dd3a5f7e61" target="_top" xlink:title="CParser::method_signature">
<polygon fill="white" stroke="black" points="1371,-29.5 1371,-48.5 1516,-48.5 1516,-29.5 1371,-29.5"/>
<text text-anchor="middle" x="1443.5" y="-36.5" font-family="Helvetica,sans-Serif" font-size="10.00">CParser::method_signature</text>
</a>
</g>
</g>
<!-- Node6&#45;&gt;Node7 -->
<g id="edge6" class="edge"><title>Node6&#45;&gt;Node7</title>
<path fill="none" stroke="midnightblue" d="M1009.96,-74.2779C1025.04,-71.1692 1041.62,-68.0983 1057,-66 1165.85,-51.1461 1293.18,-44.2477 1370.81,-41.2048"/>
<polygon fill="midnightblue" stroke="midnightblue" points="1008.86,-70.9332 999.801,-76.4245 1010.31,-77.7821 1008.86,-70.9332"/>
</g>
<!-- Node8 -->
<g id="node8" class="node"><title>Node8</title>
<g id="a_node8"><a xlink:href="../../d0/df6/classCParser.html#a0dd2a579512bf1a17aaeac5fdec860a7" target="_top" xlink:title="CParser::method_declaration\l_or_definition_with_implicit_type">
<polygon fill="white" stroke="black" points="2234,-68 2234,-98 2404,-98 2404,-68 2234,-68"/>
<text text-anchor="start" x="2242" y="-86" font-family="Helvetica,sans-Serif" font-size="10.00">CParser::method_declaration</text>
<text text-anchor="middle" x="2319" y="-75" font-family="Helvetica,sans-Serif" font-size="10.00">_or_definition_with_implicit_type</text>
</a>
</g>
</g>
<!-- Node7&#45;&gt;Node8 -->
<g id="edge7" class="edge"><title>Node7&#45;&gt;Node8</title>
<path fill="none" stroke="midnightblue" d="M1526.48,-39C1598.63,-39 1706.54,-39 1800.5,-39 1800.5,-39 1800.5,-39 1966,-39 2061.77,-39 2171.07,-55.2343 2242.12,-67.9808"/>
<polygon fill="midnightblue" stroke="midnightblue" points="1526.1,-35.5001 1516.1,-39 1526.1,-42.5001 1526.1,-35.5001"/>
</g>
<!-- Node9 -->
<g id="node9" class="node"><title>Node9</title>
<g id="a_node9"><a xlink:href="../../d0/df6/classCParser.html#ab3ab57ace628c2476dd8dfe5a96f9a15" target="_top" xlink:title="CParser::definition\l_or_declaration">
<polygon fill="white" stroke="black" points="2646,-161 2646,-191 2749,-191 2749,-161 2646,-161"/>
<text text-anchor="start" x="2654" y="-179" font-family="Helvetica,sans-Serif" font-size="10.00">CParser::definition</text>
<text text-anchor="middle" x="2697.5" y="-168" font-family="Helvetica,sans-Serif" font-size="10.00">_or_declaration</text>
</a>
</g>
</g>
<!-- Node8&#45;&gt;Node9 -->
<g id="edge8" class="edge"><title>Node8&#45;&gt;Node9</title>
<path fill="none" stroke="midnightblue" d="M2378.77,-100.923C2398.19,-106.637 2419.96,-112.817 2440,-118 2510.94,-136.348 2593.75,-154.488 2645.66,-165.468"/>
<polygon fill="midnightblue" stroke="midnightblue" points="2379.73,-97.5566 2369.15,-98.0739 2377.74,-104.269 2379.73,-97.5566"/>
</g>
<!-- Node21 -->
<g id="node21" class="node"><title>Node21</title>
<g id="a_node21"><a xlink:href="../../d0/df6/classCParser.html#a12561a45dab96760d7ab45896681dd33" target="_top" xlink:title="CParser::class_or_method\l_declaration_or_definition">
<polygon fill="white" stroke="black" points="3606,-73 3606,-103 3747,-103 3747,-73 3606,-73"/>
<text text-anchor="start" x="3614" y="-91" font-family="Helvetica,sans-Serif" font-size="10.00">CParser::class_or_method</text>
<text text-anchor="middle" x="3676.5" y="-80" font-family="Helvetica,sans-Serif" font-size="10.00">_declaration_or_definition</text>
</a>
</g>
</g>
<!-- Node8&#45;&gt;Node21 -->
<g id="edge27" class="edge"><title>Node8&#45;&gt;Node21</title>
<path fill="none" stroke="midnightblue" d="M2414.33,-70.1287C2490.36,-60.8668 2600.11,-50 2696.5,-50 2696.5,-50 2696.5,-50 3335,-50 3429.28,-50 3537.34,-64.5667 3605.98,-75.6625"/>
<polygon fill="midnightblue" stroke="midnightblue" points="2413.8,-66.6682 2404.3,-71.3654 2414.65,-73.6157 2413.8,-66.6682"/>
</g>
<!-- Node22 -->
<g id="node22" class="node"><title>Node22</title>
<g id="a_node22"><a xlink:href="../../d0/df6/classCParser.html#af0c9d35d4c997c6f34cf4a26563b513c" target="_top" xlink:title="CParser::method_declaration\l_or_definition_with_explicit_type">
<polygon fill="white" stroke="black" points="2440,-79 2440,-109 2610,-109 2610,-79 2440,-79"/>
<text text-anchor="start" x="2448" y="-97" font-family="Helvetica,sans-Serif" font-size="10.00">CParser::method_declaration</text>
<text text-anchor="middle" x="2525" y="-86" font-family="Helvetica,sans-Serif" font-size="10.00">_or_definition_with_explicit_type</text>
</a>
</g>
</g>
<!-- Node8&#45;&gt;Node22 -->
<g id="edge24" class="edge"><title>Node8&#45;&gt;Node22</title>
<path fill="none" stroke="midnightblue" d="M2414.4,-88.0903C2422.85,-88.5457 2431.36,-89.0048 2439.71,-89.455"/>
<polygon fill="midnightblue" stroke="midnightblue" points="2414.33,-84.5812 2404.15,-87.5376 2413.95,-91.5711 2414.33,-84.5812"/>
</g>
<!-- Node10 -->
<g id="node10" class="node"><title>Node10</title>
<g id="a_node10"><a xlink:href="../../d0/df6/classCParser.html#a2b78ab2005bef5c43ee2d4689210eab1" target="_top" xlink:title="CParser::link_item">
<polygon fill="white" stroke="black" points="2804.5,-234.5 2804.5,-253.5 2905.5,-253.5 2905.5,-234.5 2804.5,-234.5"/>
<text text-anchor="middle" x="2855" y="-241.5" font-family="Helvetica,sans-Serif" font-size="10.00">CParser::link_item</text>
</a>
</g>
</g>
<!-- Node9&#45;&gt;Node10 -->
<g id="edge9" class="edge"><title>Node9&#45;&gt;Node10</title>
<path fill="none" stroke="midnightblue" d="M2742.21,-195.114C2771.49,-207.921 2808.81,-224.238 2832.06,-234.404"/>
<polygon fill="midnightblue" stroke="midnightblue" points="2743.58,-191.891 2733.01,-191.091 2740.77,-198.305 2743.58,-191.891"/>
</g>
<!-- Node16 -->
<g id="node16" class="node"><title>Node16</title>
<g id="a_node16"><a xlink:href="../../d0/df6/classCParser.html#a85eb09132fa5a588749cea062f0d11ea" target="_top" xlink:title="CParser::class_block_item">
<polygon fill="white" stroke="black" points="2785,-125.5 2785,-144.5 2925,-144.5 2925,-125.5 2785,-125.5"/>
<text text-anchor="middle" x="2855" y="-132.5" font-family="Helvetica,sans-Serif" font-size="10.00">CParser::class_block_item</text>
</a>
</g>
</g>
<!-- Node9&#45;&gt;Node16 -->
<g id="edge17" class="edge"><title>Node9&#45;&gt;Node16</title>
<path fill="none" stroke="midnightblue" d="M2759.28,-159.975C2779.05,-154.762 2800.36,-149.143 2817.75,-144.558"/>
<polygon fill="midnightblue" stroke="midnightblue" points="2758.19,-156.641 2749.42,-162.575 2759.98,-163.41 2758.19,-156.641"/>
</g>
<!-- Node11 -->
<g id="node11" class="node"><title>Node11</title>
<g id="a_node11"><a xlink:href="../../d0/df6/classCParser.html#a4f02da23566af37123efb3768769c09b" target="_top" xlink:title="CParser::start">
<polygon fill="white" stroke="black" points="2985.5,-303.5 2985.5,-322.5 3066.5,-322.5 3066.5,-303.5 2985.5,-303.5"/>
<text text-anchor="middle" x="3026" y="-310.5" font-family="Helvetica,sans-Serif" font-size="10.00">CParser::start</text>
</a>
</g>
</g>
<!-- Node10&#45;&gt;Node11 -->
<g id="edge10" class="edge"><title>Node10&#45;&gt;Node11</title>
<path fill="none" stroke="midnightblue" d="M2882.76,-258.172C2903.69,-268.898 2933.7,-283.522 2961,-294 2969.98,-297.447 2979.87,-300.657 2989.12,-303.42"/>
<polygon fill="midnightblue" stroke="midnightblue" points="2884.32,-255.037 2873.83,-253.547 2881.1,-261.253 2884.32,-255.037"/>
</g>
<!-- Node14 -->
<g id="node14" class="node"><title>Node14</title>
<g id="a_node14"><a xlink:href="../../d0/df6/classCParser.html#a86906e492ff9c606fb3537078f46f93e" target="_top" xlink:title="CParser::extern_linkage\l_block">
<polygon fill="white" stroke="black" points="2961,-254 2961,-284 3091,-284 3091,-254 2961,-254"/>
<text text-anchor="start" x="2969" y="-272" font-family="Helvetica,sans-Serif" font-size="10.00">CParser::extern_linkage</text>
<text text-anchor="middle" x="3026" y="-261" font-family="Helvetica,sans-Serif" font-size="10.00">_block</text>
</a>
</g>
</g>
<!-- Node10&#45;&gt;Node14 -->
<g id="edge13" class="edge"><title>Node10&#45;&gt;Node14</title>
<path fill="none" stroke="midnightblue" d="M2915.91,-246.373C2932.49,-248.465 2950.46,-251.137 2966.94,-253.963"/>
<polygon fill="midnightblue" stroke="midnightblue" points="2916.14,-242.875 2905.79,-245.15 2915.3,-249.825 2916.14,-242.875"/>
</g>
<!-- Node15 -->
<g id="node15" class="node"><title>Node15</title>
<g id="a_node15"><a xlink:href="../../d0/df6/classCParser.html#a4fad913a0694a5376ad76669d8943122" target="_top" xlink:title="CParser::namespace\l_block">
<polygon fill="white" stroke="black" points="2968.5,-205 2968.5,-235 3083.5,-235 3083.5,-205 2968.5,-205"/>
<text text-anchor="start" x="2976.5" y="-223" font-family="Helvetica,sans-Serif" font-size="10.00">CParser::namespace</text>
<text text-anchor="middle" x="3026" y="-212" font-family="Helvetica,sans-Serif" font-size="10.00">_block</text>
</a>
</g>
</g>
<!-- Node10&#45;&gt;Node15 -->
<g id="edge15" class="edge"><title>Node10&#45;&gt;Node15</title>
<path fill="none" stroke="midnightblue" d="M2895.68,-232.542C2917.37,-228.468 2944.62,-224.404 2968.5,-221.615"/>
<polygon fill="midnightblue" stroke="midnightblue" points="2894.97,-229.115 2885.82,-234.473 2896.31,-235.985 2894.97,-229.115"/>
</g>
<!-- Node12 -->
<g id="node12" class="node"><title>Node12</title>
<g id="a_node12"><a xlink:href="../../db/d4a/classMain.html#a803470658c644fa9512140f9d8398dd5" target="_top" xlink:title="Main::ParseFiles">
<polygon fill="white" stroke="black" points="3137,-303.5 3137,-322.5 3231,-322.5 3231,-303.5 3137,-303.5"/>
<text text-anchor="middle" x="3184" y="-310.5" font-family="Helvetica,sans-Serif" font-size="10.00">Main::ParseFiles</text>
</a>
</g>
</g>
<!-- Node11&#45;&gt;Node12 -->
<g id="edge11" class="edge"><title>Node11&#45;&gt;Node12</title>
<path fill="none" stroke="midnightblue" d="M3076.87,-313C3096.14,-313 3118.05,-313 3136.94,-313"/>
<polygon fill="midnightblue" stroke="midnightblue" points="3076.77,-309.5 3066.77,-313 3076.77,-316.5 3076.77,-309.5"/>
</g>
<!-- Node13 -->
<g id="node13" class="node"><title>Node13</title>
<g id="a_node13"><a xlink:href="../../d6/d93/ccccmain_8cc.html#a3c04138a5bfe5d72780bb7e82a18e627" target="_top" xlink:title="main">
<polygon fill="white" stroke="black" points="3314.5,-303.5 3314.5,-322.5 3353.5,-322.5 3353.5,-303.5 3314.5,-303.5"/>
<text text-anchor="middle" x="3334" y="-310.5" font-family="Helvetica,sans-Serif" font-size="10.00">main</text>
</a>
</g>
</g>
<!-- Node12&#45;&gt;Node13 -->
<g id="edge12" class="edge"><title>Node12&#45;&gt;Node13</title>
<path fill="none" stroke="midnightblue" d="M3241.15,-313C3267.09,-313 3296.14,-313 3314.49,-313"/>
<polygon fill="midnightblue" stroke="midnightblue" points="3241.02,-309.5 3231.02,-313 3241.02,-316.5 3241.02,-309.5"/>
</g>
<!-- Node14&#45;&gt;Node10 -->
<g id="edge14" class="edge"><title>Node14&#45;&gt;Node10</title>
<path fill="none" stroke="midnightblue" d="M2951.06,-264.766C2927.73,-261.523 2903.3,-257.422 2885.05,-253.54"/>
<polygon fill="midnightblue" stroke="midnightblue" points="2950.6,-268.235 2960.98,-266.1 2951.53,-261.297 2950.6,-268.235"/>
</g>
<!-- Node15&#45;&gt;Node10 -->
<g id="edge16" class="edge"><title>Node15&#45;&gt;Node10</title>
<path fill="none" stroke="midnightblue" d="M2958.29,-236.089C2940.8,-238.842 2922.23,-241.345 2905.79,-243.145"/>
<polygon fill="midnightblue" stroke="midnightblue" points="2959.14,-239.498 2968.45,-234.442 2958.02,-232.588 2959.14,-239.498"/>
</g>
<!-- Node17 -->
<g id="node17" class="node"><title>Node17</title>
<g id="a_node17"><a xlink:href="../../d0/df6/classCParser.html#a4b9f00c05d44a13b3c18b28b52f5be9e" target="_top" xlink:title="CParser::class_block\l_item_list">
<polygon fill="white" stroke="black" points="2969,-117 2969,-147 3083,-147 3083,-117 2969,-117"/>
<text text-anchor="start" x="2977" y="-135" font-family="Helvetica,sans-Serif" font-size="10.00">CParser::class_block</text>
<text text-anchor="middle" x="3026" y="-124" font-family="Helvetica,sans-Serif" font-size="10.00">_item_list</text>
</a>
</g>
</g>
<!-- Node16&#45;&gt;Node17 -->
<g id="edge18" class="edge"><title>Node16&#45;&gt;Node17</title>
<path fill="none" stroke="midnightblue" d="M2935.5,-133.589C2946.74,-133.389 2958.1,-133.188 2968.79,-132.998"/>
<polygon fill="midnightblue" stroke="midnightblue" points="2935.16,-130.094 2925.23,-133.771 2935.29,-137.093 2935.16,-130.094"/>
</g>
<!-- Node18 -->
<g id="node18" class="node"><title>Node18</title>
<g id="a_node18"><a xlink:href="../../d0/df6/classCParser.html#a06c7cac9034f27ad6d998b49a7b574c8" target="_top" xlink:title="CParser::class_block">
<polygon fill="white" stroke="black" points="3127,-122.5 3127,-141.5 3241,-141.5 3241,-122.5 3127,-122.5"/>
<text text-anchor="middle" x="3184" y="-129.5" font-family="Helvetica,sans-Serif" font-size="10.00">CParser::class_block</text>
</a>
</g>
</g>
<!-- Node17&#45;&gt;Node18 -->
<g id="edge19" class="edge"><title>Node17&#45;&gt;Node18</title>
<path fill="none" stroke="midnightblue" d="M3093.4,-132C3104.51,-132 3115.94,-132 3126.76,-132"/>
<polygon fill="midnightblue" stroke="midnightblue" points="3093.32,-128.5 3083.32,-132 3093.32,-135.5 3093.32,-128.5"/>
</g>
<!-- Node19 -->
<g id="node19" class="node"><title>Node19</title>
<g id="a_node19"><a xlink:href="../../d0/df6/classCParser.html#a40fba8426e7ac46e9926515ee81e97f3" target="_top" xlink:title="CParser::class_suffix">
<polygon fill="white" stroke="black" points="3277,-122.5 3277,-141.5 3391,-141.5 3391,-122.5 3277,-122.5"/>
<text text-anchor="middle" x="3334" y="-129.5" font-family="Helvetica,sans-Serif" font-size="10.00">CParser::class_suffix</text>
</a>
</g>
</g>
<!-- Node18&#45;&gt;Node19 -->
<g id="edge20" class="edge"><title>Node18&#45;&gt;Node19</title>
<path fill="none" stroke="midnightblue" d="M3251.56,-132C3259.98,-132 3268.54,-132 3276.78,-132"/>
<polygon fill="midnightblue" stroke="midnightblue" points="3251.37,-128.5 3241.37,-132 3251.37,-135.5 3251.37,-128.5"/>
</g>
<!-- Node20 -->
<g id="node20" class="node"><title>Node20</title>
<g id="a_node20"><a xlink:href="../../d0/df6/classCParser.html#a1ed5fcfb2e97e3551fceabe81989a667" target="_top" xlink:title="CParser::class_declaration\l_or_definition">
<polygon fill="white" stroke="black" points="3427,-117 3427,-147 3570,-147 3570,-117 3427,-117"/>
<text text-anchor="start" x="3435" y="-135" font-family="Helvetica,sans-Serif" font-size="10.00">CParser::class_declaration</text>
<text text-anchor="middle" x="3498.5" y="-124" font-family="Helvetica,sans-Serif" font-size="10.00">_or_definition</text>
</a>
</g>
</g>
<!-- Node19&#45;&gt;Node20 -->
<g id="edge21" class="edge"><title>Node19&#45;&gt;Node20</title>
<path fill="none" stroke="midnightblue" d="M3401.47,-132C3409.86,-132 3418.46,-132 3426.91,-132"/>
<polygon fill="midnightblue" stroke="midnightblue" points="3401.38,-128.5 3391.38,-132 3401.38,-135.5 3401.38,-128.5"/>
</g>
<!-- Node20&#45;&gt;Node9 -->
<g id="edge22" class="edge"><title>Node20&#45;&gt;Node9</title>
<path fill="none" stroke="midnightblue" d="M3420.36,-148.985C3357.37,-161.373 3265.87,-176 3185,-176 3025,-176 3025,-176 3025,-176 2927.36,-176 2813.3,-176 2749.12,-176"/>
<polygon fill="midnightblue" stroke="midnightblue" points="3421.1,-152.408 3430.22,-147.019 3419.73,-145.543 3421.1,-152.408"/>
</g>
<!-- Node20&#45;&gt;Node21 -->
<g id="edge23" class="edge"><title>Node20&#45;&gt;Node21</title>
<path fill="none" stroke="midnightblue" d="M3569.44,-114.515C3584.65,-110.713 3600.61,-106.723 3615.4,-103.026"/>
<polygon fill="midnightblue" stroke="midnightblue" points="3568.43,-111.16 3559.58,-116.981 3570.13,-117.951 3568.43,-111.16"/>
</g>
<!-- Node22&#45;&gt;Node9 -->
<g id="edge25" class="edge"><title>Node22&#45;&gt;Node9</title>
<path fill="none" stroke="midnightblue" d="M2582.83,-112.564C2592.04,-116.064 2601.38,-119.918 2610,-124 2632.65,-134.721 2656.98,-149.69 2674.06,-160.816"/>
<polygon fill="midnightblue" stroke="midnightblue" points="2583.91,-109.231 2573.32,-109.05 2581.49,-115.798 2583.91,-109.231"/>
</g>
<!-- Node22&#45;&gt;Node21 -->
<g id="edge26" class="edge"><title>Node22&#45;&gt;Node21</title>
<path fill="none" stroke="midnightblue" d="M2620.57,-91.3547C2686.09,-89.7463 2775.34,-88 2854,-88 2854,-88 2854,-88 3335,-88 3428.7,-88 3536.9,-88 3605.72,-88"/>
<polygon fill="midnightblue" stroke="midnightblue" points="2620.17,-87.8634 2610.26,-91.6114 2620.34,-94.8613 2620.17,-87.8634"/>
</g>
<!-- Node23&#45;&gt;Node5 -->
<g id="edge29" class="edge"><title>Node23&#45;&gt;Node5</title>
<path fill="none" stroke="midnightblue" d="M714.073,-95.6839C724.565,-94.1169 735.256,-92.5202 745.354,-91.012"/>
<polygon fill="midnightblue" stroke="midnightblue" points="713.473,-92.2346 704.1,-97.1734 714.507,-99.1578 713.473,-92.2346"/>
</g>
<!-- Node25 -->
<g id="node25" class="node"><title>Node25</title>
<g id="a_node25"><a xlink:href="../../d0/df6/classCParser.html#aa600547e6bdaf5e45d02c89a19c7fa4b" target="_top" xlink:title="CParser::init_expr_item">
<polygon fill="white" stroke="black" points="895,-0.5 895,-19.5 1021,-19.5 1021,-0.5 895,-0.5"/>
<text text-anchor="middle" x="958" y="-7.5" font-family="Helvetica,sans-Serif" font-size="10.00">CParser::init_expr_item</text>
</a>
</g>
</g>
<!-- Node24&#45;&gt;Node25 -->
<g id="edge31" class="edge"><title>Node24&#45;&gt;Node25</title>
<path fill="none" stroke="midnightblue" d="M860.835,-18.6302C871.964,-17.6314 883.617,-16.5857 894.815,-15.5807"/>
<polygon fill="midnightblue" stroke="midnightblue" points="860.435,-15.1519 850.788,-19.5318 861.061,-22.1239 860.435,-15.1519"/>
</g>
<!-- Node35 -->
<g id="node35" class="node"><title>Node35</title>
<g id="a_node35"><a xlink:href="../../d0/df6/classCParser.html#a8715e75c1e5fe112f10ccf0986cc2c7d" target="_top" xlink:title="CParser::init_value">
<polygon fill="white" stroke="black" points="906,-38.5 906,-57.5 1010,-57.5 1010,-38.5 906,-38.5"/>
<text text-anchor="middle" x="958" y="-45.5" font-family="Helvetica,sans-Serif" font-size="10.00">CParser::init_value</text>
</a>
</g>
</g>
<!-- Node24&#45;&gt;Node35 -->
<g id="edge43" class="edge"><title>Node24&#45;&gt;Node35</title>
<path fill="none" stroke="midnightblue" d="M860.874,-33.2113C875.696,-35.4916 891.442,-37.9142 905.808,-40.1242"/>
<polygon fill="midnightblue" stroke="midnightblue" points="861.204,-29.7211 850.788,-31.6597 860.14,-36.6397 861.204,-29.7211"/>
</g>
<!-- Node26 -->
<g id="node26" class="node"><title>Node26</title>
<g id="a_node26"><a xlink:href="../../d0/df6/classCParser.html#a545c65918de48a33554b6fa86bf7bee4" target="_top" xlink:title="CParser::init_expr">
<polygon fill="white" stroke="black" points="1065,-75.5 1065,-94.5 1166,-94.5 1166,-75.5 1065,-75.5"/>
<text text-anchor="middle" x="1115.5" y="-82.5" font-family="Helvetica,sans-Serif" font-size="10.00">CParser::init_expr</text>
</a>
</g>
</g>
<!-- Node25&#45;&gt;Node26 -->
<g id="edge32" class="edge"><title>Node25&#45;&gt;Node26</title>
<path fill="none" stroke="midnightblue" d="M1005.04,-22.7374C1010.49,-24.6467 1015.92,-26.741 1021,-29 1050.91,-42.3028 1083.09,-63.2001 1100.82,-75.3524"/>
<polygon fill="midnightblue" stroke="midnightblue" points="1005.87,-19.3241 995.277,-19.5052 1003.67,-25.9697 1005.87,-19.3241"/>
</g>
<!-- Node27 -->
<g id="node27" class="node"><title>Node27</title>
<g id="a_node27"><a xlink:href="../../d0/df6/classCParser.html#aa7fd7f7807fc630d9020e84dbb3445e0" target="_top" xlink:title="CParser::opt_initializer">
<polygon fill="white" stroke="black" points="1211.5,-75.5 1211.5,-94.5 1333.5,-94.5 1333.5,-75.5 1211.5,-75.5"/>
<text text-anchor="middle" x="1272.5" y="-82.5" font-family="Helvetica,sans-Serif" font-size="10.00">CParser::opt_initializer</text>
</a>
</g>
</g>
<!-- Node26&#45;&gt;Node27 -->
<g id="edge33" class="edge"><title>Node26&#45;&gt;Node27</title>
<path fill="none" stroke="midnightblue" d="M1176.69,-85C1188.08,-85 1200.01,-85 1211.4,-85"/>
<polygon fill="midnightblue" stroke="midnightblue" points="1176.4,-81.5001 1166.4,-85 1176.4,-88.5001 1176.4,-81.5001"/>
</g>
<!-- Node28 -->
<g id="node28" class="node"><title>Node28</title>
<g id="a_node28"><a xlink:href="../../d0/df6/classCParser.html#a9104801570f44810a98b9f3a5a76c06c" target="_top" xlink:title="CParser::instance_item">
<polygon fill="white" stroke="black" points="1381,-114.5 1381,-133.5 1506,-133.5 1506,-114.5 1381,-114.5"/>
<text text-anchor="middle" x="1443.5" y="-121.5" font-family="Helvetica,sans-Serif" font-size="10.00">CParser::instance_item</text>
</a>
</g>
</g>
<!-- Node27&#45;&gt;Node28 -->
<g id="edge34" class="edge"><title>Node27&#45;&gt;Node28</title>
<path fill="none" stroke="midnightblue" d="M1324.7,-96.8152C1349.23,-102.476 1378.21,-109.164 1401.29,-114.491"/>
<polygon fill="midnightblue" stroke="midnightblue" points="1325.37,-93.3788 1314.84,-94.5405 1323.8,-100.2 1325.37,-93.3788"/>
</g>
<!-- Node29 -->
<g id="node29" class="node"><title>Node29</title>
<g id="a_node29"><a xlink:href="../../d0/df6/classCParser.html#a6331346ed010ab6c734d29daeb5d896f" target="_top" xlink:title="CParser::instance_declaration">
<polygon fill="white" stroke="black" points="1552,-122.5 1552,-141.5 1710,-141.5 1710,-122.5 1552,-122.5"/>
<text text-anchor="middle" x="1631" y="-129.5" font-family="Helvetica,sans-Serif" font-size="10.00">CParser::instance_declaration</text>
</a>
</g>
</g>
<!-- Node28&#45;&gt;Node29 -->
<g id="edge35" class="edge"><title>Node28&#45;&gt;Node29</title>
<path fill="none" stroke="midnightblue" d="M1516.14,-127.089C1527.82,-127.593 1539.97,-128.117 1551.81,-128.628"/>
<polygon fill="midnightblue" stroke="midnightblue" points="1516.15,-123.587 1506.01,-126.653 1515.85,-130.58 1516.15,-123.587"/>
</g>
<!-- Node31 -->
<g id="node31" class="node"><title>Node31</title>
<g id="a_node31"><a xlink:href="../../d0/df6/classCParser.html#a70d42f7013f81c71092f771ff9232941" target="_top" xlink:title="CParser::ctor_init_item">
<polygon fill="white" stroke="black" points="1569.5,-79.5 1569.5,-98.5 1692.5,-98.5 1692.5,-79.5 1569.5,-79.5"/>
<text text-anchor="middle" x="1631" y="-86.5" font-family="Helvetica,sans-Serif" font-size="10.00">CParser::ctor_init_item</text>
</a>
</g>
</g>
<!-- Node28&#45;&gt;Node31 -->
<g id="edge38" class="edge"><title>Node28&#45;&gt;Node31</title>
<path fill="none" stroke="midnightblue" d="M1505.25,-112.538C1529.24,-108.012 1556.48,-102.872 1579.37,-98.5523"/>
<polygon fill="midnightblue" stroke="midnightblue" points="1504.37,-109.143 1495.19,-114.436 1505.66,-116.021 1504.37,-109.143"/>
</g>
<!-- Node29&#45;&gt;Node9 -->
<g id="edge36" class="edge"><title>Node29&#45;&gt;Node9</title>
<path fill="none" stroke="midnightblue" d="M1681.43,-143.712C1701.39,-148.099 1724.7,-152.792 1746,-156 1842.21,-170.491 1866.7,-176 1964,-176 1964,-176 1964,-176 2320,-176 2436.68,-176 2573.69,-176 2645.95,-176"/>
<polygon fill="midnightblue" stroke="midnightblue" points="1682.15,-140.286 1671.63,-141.523 1680.62,-147.118 1682.15,-140.286"/>
</g>
<!-- Node30 -->
<g id="node30" class="node"><title>Node30</title>
<g id="a_node30"><a xlink:href="../../d0/df6/classCParser.html#a4e7cf3c3b19f9c664f345a10116c2c2c" target="_top" xlink:title="CParser::knr_param\l_decl_list">
<polygon fill="white" stroke="black" points="1746,-117 1746,-147 1857,-147 1857,-117 1746,-117"/>
<text text-anchor="start" x="1754" y="-135" font-family="Helvetica,sans-Serif" font-size="10.00">CParser::knr_param</text>
<text text-anchor="middle" x="1801.5" y="-124" font-family="Helvetica,sans-Serif" font-size="10.00">_decl_list</text>
</a>
</g>
</g>
<!-- Node29&#45;&gt;Node30 -->
<g id="edge37" class="edge"><title>Node29&#45;&gt;Node30</title>
<path fill="none" stroke="midnightblue" d="M1720.5,-132C1729.16,-132 1737.75,-132 1745.92,-132"/>
<polygon fill="midnightblue" stroke="midnightblue" points="1720.33,-128.5 1710.33,-132 1720.33,-135.5 1720.33,-128.5"/>
</g>
<!-- Node32 -->
<g id="node32" class="node"><title>Node32</title>
<g id="a_node32"><a xlink:href="../../d0/df6/classCParser.html#a617e49ab4458d5b4adf577a6a0bc05cd" target="_top" xlink:title="CParser::ctor_init\l_item_list">
<polygon fill="white" stroke="black" points="1752.5,-68 1752.5,-98 1850.5,-98 1850.5,-68 1752.5,-68"/>
<text text-anchor="start" x="1760.5" y="-86" font-family="Helvetica,sans-Serif" font-size="10.00">CParser::ctor_init</text>
<text text-anchor="middle" x="1801.5" y="-75" font-family="Helvetica,sans-Serif" font-size="10.00">_item_list</text>
</a>
</g>
</g>
<!-- Node31&#45;&gt;Node32 -->
<g id="edge39" class="edge"><title>Node31&#45;&gt;Node32</title>
<path fill="none" stroke="midnightblue" d="M1703.08,-86.4689C1719.73,-85.8762 1737.07,-85.2585 1752.44,-84.7113"/>
<polygon fill="midnightblue" stroke="midnightblue" points="1702.7,-82.9801 1692.83,-86.8339 1702.95,-89.9757 1702.7,-82.9801"/>
</g>
<!-- Node33 -->
<g id="node33" class="node"><title>Node33</title>
<g id="a_node33"><a xlink:href="../../d0/df6/classCParser.html#ab6c0eabf2b00874bf8f70b576d96ce52" target="_top" xlink:title="CParser::ctor_init_list">
<polygon fill="white" stroke="black" points="1907,-73.5 1907,-92.5 2023,-92.5 2023,-73.5 1907,-73.5"/>
<text text-anchor="middle" x="1965" y="-80.5" font-family="Helvetica,sans-Serif" font-size="10.00">CParser::ctor_init_list</text>
</a>
</g>
</g>
<!-- Node32&#45;&gt;Node33 -->
<g id="edge40" class="edge"><title>Node32&#45;&gt;Node33</title>
<path fill="none" stroke="midnightblue" d="M1860.69,-83C1875.69,-83 1891.82,-83 1906.76,-83"/>
<polygon fill="midnightblue" stroke="midnightblue" points="1860.52,-79.5001 1850.52,-83 1860.52,-86.5001 1860.52,-79.5001"/>
</g>
<!-- Node34 -->
<g id="node34" class="node"><title>Node34</title>
<g id="a_node34"><a xlink:href="../../d0/df6/classCParser.html#ad7a6fd3a8b7daa3c26191f4512236a59" target="_top" xlink:title="CParser::method_suffix">
<polygon fill="white" stroke="black" points="2073,-73.5 2073,-92.5 2198,-92.5 2198,-73.5 2073,-73.5"/>
<text text-anchor="middle" x="2135.5" y="-80.5" font-family="Helvetica,sans-Serif" font-size="10.00">CParser::method_suffix</text>
</a>
</g>
</g>
<!-- Node33&#45;&gt;Node34 -->
<g id="edge41" class="edge"><title>Node33&#45;&gt;Node34</title>
<path fill="none" stroke="midnightblue" d="M2033.37,-83C2046.42,-83 2060.04,-83 2072.89,-83"/>
<polygon fill="midnightblue" stroke="midnightblue" points="2033.05,-79.5001 2023.05,-83 2033.05,-86.5001 2033.05,-79.5001"/>
</g>
<!-- Node34&#45;&gt;Node8 -->
<g id="edge42" class="edge"><title>Node34&#45;&gt;Node8</title>
<path fill="none" stroke="midnightblue" d="M2208.34,-83C2216.75,-83 2225.4,-83 2233.97,-83"/>
<polygon fill="midnightblue" stroke="midnightblue" points="2208.2,-79.5001 2198.2,-83 2208.2,-86.5001 2208.2,-79.5001"/>
</g>
<!-- Node37 -->
<g id="node37" class="node"><title>Node37</title>
<g id="a_node37"><a xlink:href="../../d0/df6/classCParser.html#a424ec587e8167b682804c23c4804d895" target="_top" xlink:title="CParser::balanced">
<polygon fill="white" stroke="black" points="437.5,-140.5 437.5,-159.5 540.5,-159.5 540.5,-140.5 437.5,-140.5"/>
<text text-anchor="middle" x="489" y="-147.5" font-family="Helvetica,sans-Serif" font-size="10.00">CParser::balanced</text>
</a>
</g>
</g>
<!-- Node36&#45;&gt;Node37 -->
<g id="edge45" class="edge"><title>Node36&#45;&gt;Node37</title>
<path fill="none" stroke="midnightblue" d="M393.462,-141.264C407.846,-142.593 423.194,-144.011 437.249,-145.31"/>
<polygon fill="midnightblue" stroke="midnightblue" points="393.471,-137.75 383.191,-140.315 392.827,-144.72 393.471,-137.75"/>
</g>
<!-- Node38 -->
<g id="node38" class="node"><title>Node38</title>
<g id="a_node38"><a xlink:href="../../d0/df6/classCParser.html#a967d50b91351cf003898543b6d7af7a7" target="_top" xlink:title="CParser::balanced_list">
<polygon fill="white" stroke="black" points="583,-140.5 583,-159.5 705,-159.5 705,-140.5 583,-140.5"/>
<text text-anchor="middle" x="644" y="-147.5" font-family="Helvetica,sans-Serif" font-size="10.00">CParser::balanced_list</text>
</a>
</g>
</g>
<!-- Node37&#45;&gt;Node38 -->
<g id="edge46" class="edge"><title>Node37&#45;&gt;Node38</title>
<path fill="none" stroke="midnightblue" d="M550.577,-150C561.232,-150 572.319,-150 582.959,-150"/>
<polygon fill="midnightblue" stroke="midnightblue" points="550.522,-146.5 540.522,-150 550.522,-153.5 550.522,-146.5"/>
</g>
<!-- Node39 -->
<g id="node39" class="node"><title>Node39</title>
<g id="a_node39"><a xlink:href="../../d0/df6/classCParser.html#a51affc383cd0859af5d84b628c8a2f5c" target="_top" xlink:title="CParser::paren_block">
<polygon fill="white" stroke="black" points="741,-117.5 741,-136.5 859,-136.5 859,-117.5 741,-117.5"/>
<text text-anchor="middle" x="800" y="-124.5" font-family="Helvetica,sans-Serif" font-size="10.00">CParser::paren_block</text>
</a>
</g>
</g>
<!-- Node38&#45;&gt;Node39 -->
<g id="edge47" class="edge"><title>Node38&#45;&gt;Node39</title>
<path fill="none" stroke="midnightblue" d="M715.335,-139.495C723.843,-138.225 732.46,-136.938 740.767,-135.697"/>
<polygon fill="midnightblue" stroke="midnightblue" points="714.796,-136.037 705.423,-140.976 715.83,-142.96 714.796,-136.037"/>
</g>
<!-- Node45 -->
<g id="node45" class="node"><title>Node45</title>
<g id="a_node45"><a xlink:href="../../d0/df6/classCParser.html#ac73c93a601c6e7123e0ebbd7be03b60d" target="_top" xlink:title="CParser::brack_block">
<polygon fill="white" stroke="black" points="742,-216.5 742,-235.5 858,-235.5 858,-216.5 742,-216.5"/>
<text text-anchor="middle" x="800" y="-223.5" font-family="Helvetica,sans-Serif" font-size="10.00">CParser::brack_block</text>
</a>
</g>
</g>
<!-- Node38&#45;&gt;Node45 -->
<g id="edge59" class="edge"><title>Node38&#45;&gt;Node45</title>
<path fill="none" stroke="midnightblue" d="M673.487,-164.059C704.394,-179.311 752.894,-203.246 779.654,-216.453"/>
<polygon fill="midnightblue" stroke="midnightblue" points="675.021,-160.912 664.504,-159.625 671.923,-167.19 675.021,-160.912"/>
</g>
<!-- Node39&#45;&gt;Node6 -->
<g id="edge48" class="edge"><title>Node39&#45;&gt;Node6</title>
<path fill="none" stroke="midnightblue" d="M846.952,-114.923C870.496,-108.735 898.758,-101.307 920.745,-95.5286"/>
<polygon fill="midnightblue" stroke="midnightblue" points="845.964,-111.564 837.182,-117.491 847.743,-118.334 845.964,-111.564"/>
</g>
<!-- Node39&#45;&gt;Node25 -->
<g id="edge55" class="edge"><title>Node39&#45;&gt;Node25</title>
<path fill="none" stroke="midnightblue" d="M851.381,-112.693C854.098,-111.001 856.666,-109.111 859,-107 887.318,-81.3901 866.242,-54.1149 895,-29 899.409,-25.1492 904.586,-22.0789 910.035,-19.6308"/>
<polygon fill="midnightblue" stroke="midnightblue" points="849.535,-109.709 842.302,-117.451 852.784,-115.909 849.535,-109.709"/>
</g>
<!-- Node39&#45;&gt;Node35 -->
<g id="edge56" class="edge"><title>Node39&#45;&gt;Node35</title>
<path fill="none" stroke="midnightblue" d="M847.459,-113.407C851.493,-111.511 855.404,-109.382 859,-107 878.94,-93.7923 874.834,-79.8598 895,-67 900.98,-63.1865 907.772,-60.0994 914.613,-57.6119"/>
<polygon fill="midnightblue" stroke="midnightblue" points="845.772,-110.32 837.908,-117.419 848.483,-116.773 845.772,-110.32"/>
</g>
<!-- Node40 -->
<g id="node40" class="node"><title>Node40</title>
<g id="a_node40"><a xlink:href="../../d0/df6/classCParser.html#a74aee17394e57d00d5cf1cb233f2dd42" target="_top" xlink:title="CParser::fptr_type\l_alias">
<polygon fill="white" stroke="black" points="907,-153 907,-183 1009,-183 1009,-153 907,-153"/>
<text text-anchor="start" x="915" y="-171" font-family="Helvetica,sans-Serif" font-size="10.00">CParser::fptr_type</text>
<text text-anchor="middle" x="958" y="-160" font-family="Helvetica,sans-Serif" font-size="10.00">_alias</text>
</a>
</g>
</g>
<!-- Node39&#45;&gt;Node40 -->
<g id="edge49" class="edge"><title>Node39&#45;&gt;Node40</title>
<path fill="none" stroke="midnightblue" d="M846.999,-139.089C865.807,-144.033 887.619,-149.765 906.836,-154.816"/>
<polygon fill="midnightblue" stroke="midnightblue" points="847.743,-135.666 837.182,-136.509 845.964,-142.436 847.743,-135.666"/>
</g>
<!-- Node43 -->
<g id="node43" class="node"><title>Node43</title>
<g id="a_node43"><a xlink:href="../../d0/df6/classCParser.html#a5e83377507b06b136005686f47f13fcb" target="_top" xlink:title="CParser::item_specifier">
<polygon fill="white" stroke="black" points="1210,-114.5 1210,-133.5 1335,-133.5 1335,-114.5 1210,-114.5"/>
<text text-anchor="middle" x="1272.5" y="-121.5" font-family="Helvetica,sans-Serif" font-size="10.00">CParser::item_specifier</text>
</a>
</g>
</g>
<!-- Node39&#45;&gt;Node43 -->
<g id="edge53" class="edge"><title>Node39&#45;&gt;Node43</title>
<path fill="none" stroke="midnightblue" d="M869.426,-126.564C960.919,-125.98 1121.76,-124.955 1209.74,-124.394"/>
<polygon fill="midnightblue" stroke="midnightblue" points="869.142,-123.065 859.164,-126.629 869.187,-130.065 869.142,-123.065"/>
</g>
<!-- Node44 -->
<g id="node44" class="node"><title>Node44</title>
<g id="a_node44"><a xlink:href="../../d0/df6/classCParser.html#a35e24b97e6c8566e503521071040413f" target="_top" xlink:title="CParser::block">
<polygon fill="white" stroke="black" points="916,-202.5 916,-221.5 1000,-221.5 1000,-202.5 916,-202.5"/>
<text text-anchor="middle" x="958" y="-209.5" font-family="Helvetica,sans-Serif" font-size="10.00">CParser::block</text>
</a>
</g>
</g>
<!-- Node39&#45;&gt;Node44 -->
<g id="edge57" class="edge"><title>Node39&#45;&gt;Node44</title>
<path fill="none" stroke="midnightblue" d="M820.583,-143.1C838.896,-157.515 867.478,-178.415 895,-192 903.215,-196.055 912.438,-199.546 921.21,-202.424"/>
<polygon fill="midnightblue" stroke="midnightblue" points="822.462,-140.121 812.467,-136.605 818.088,-145.586 822.462,-140.121"/>
</g>
<!-- Node41 -->
<g id="node41" class="node"><title>Node41</title>
<g id="a_node41"><a xlink:href="../../d0/df6/classCParser.html#a7042164da94c48da4e577a2bf0af04c4" target="_top" xlink:title="CParser::fptr_typedef\l_definition">
<polygon fill="white" stroke="black" points="1057,-197 1057,-227 1174,-227 1174,-197 1057,-197"/>
<text text-anchor="start" x="1065" y="-215" font-family="Helvetica,sans-Serif" font-size="10.00">CParser::fptr_typedef</text>
<text text-anchor="middle" x="1115.5" y="-204" font-family="Helvetica,sans-Serif" font-size="10.00">_definition</text>
</a>
</g>
</g>
<!-- Node40&#45;&gt;Node41 -->
<g id="edge50" class="edge"><title>Node40&#45;&gt;Node41</title>
<path fill="none" stroke="midnightblue" d="M1019.03,-184.987C1032.97,-188.93 1047.7,-193.099 1061.32,-196.952"/>
<polygon fill="midnightblue" stroke="midnightblue" points="1019.63,-181.519 1009.06,-182.164 1017.73,-188.255 1019.63,-181.519"/>
</g>
<!-- Node42 -->
<g id="node42" class="node"><title>Node42</title>
<g id="a_node42"><a xlink:href="../../d0/df6/classCParser.html#a8c598aa662fff7e10be2ee78e078935a" target="_top" xlink:title="CParser::typedef_definition">
<polygon fill="white" stroke="black" points="1893,-204.5 1893,-223.5 2037,-223.5 2037,-204.5 1893,-204.5"/>
<text text-anchor="middle" x="1965" y="-211.5" font-family="Helvetica,sans-Serif" font-size="10.00">CParser::typedef_definition</text>
</a>
</g>
</g>
<!-- Node41&#45;&gt;Node42 -->
<g id="edge51" class="edge"><title>Node41&#45;&gt;Node42</title>
<path fill="none" stroke="midnightblue" d="M1184.47,-212.66C1250.42,-213.242 1353.32,-214 1442.5,-214 1442.5,-214 1442.5,-214 1632,-214 1721.92,-214 1825.53,-214 1892.76,-214"/>
<polygon fill="midnightblue" stroke="midnightblue" points="1184.24,-209.158 1174.21,-212.568 1184.18,-216.157 1184.24,-209.158"/>
</g>
<!-- Node42&#45;&gt;Node9 -->
<g id="edge52" class="edge"><title>Node42&#45;&gt;Node9</title>
<path fill="none" stroke="midnightblue" d="M2047.23,-214.175C2169.58,-213.715 2408.31,-210.004 2610,-190 2621.66,-188.844 2634.13,-187.117 2645.87,-185.267"/>
<polygon fill="midnightblue" stroke="midnightblue" points="2047.18,-210.675 2037.19,-214.206 2047.2,-217.675 2047.18,-210.675"/>
</g>
<!-- Node43&#45;&gt;Node28 -->
<g id="edge54" class="edge"><title>Node43&#45;&gt;Node28</title>
<path fill="none" stroke="midnightblue" d="M1345.65,-124C1357.36,-124 1369.39,-124 1380.82,-124"/>
<polygon fill="midnightblue" stroke="midnightblue" points="1345.47,-120.5 1335.47,-124 1345.47,-127.5 1345.47,-120.5"/>
</g>
<!-- Node44&#45;&gt;Node37 -->
<g id="edge58" class="edge"><title>Node44&#45;&gt;Node37</title>
<path fill="none" stroke="midnightblue" d="M905.699,-207.528C833.454,-200.906 697.732,-187.28 583,-169 566.563,-166.381 548.62,-162.871 532.918,-159.581"/>
<polygon fill="midnightblue" stroke="midnightblue" points="905.612,-211.034 915.888,-208.454 906.246,-204.063 905.612,-211.034"/>
</g>
<!-- Node45&#45;&gt;Node44 -->
<g id="edge60" class="edge"><title>Node45&#45;&gt;Node44</title>
<path fill="none" stroke="midnightblue" d="M868.201,-219.969C884.432,-218.513 901.299,-216.999 915.917,-215.687"/>
<polygon fill="midnightblue" stroke="midnightblue" points="867.85,-216.486 858.203,-220.866 868.476,-223.458 867.85,-216.486"/>
</g>
<!-- Node46 -->
<g id="node46" class="node"><title>Node46</title>
<g id="a_node46"><a xlink:href="../../d0/df6/classCParser.html#a42ff2d36ecac90dd1cf7ac0a3a5862f1" target="_top" xlink:title="CParser::brack_list">
<polygon fill="white" stroke="black" points="1063.5,-157.5 1063.5,-176.5 1167.5,-176.5 1167.5,-157.5 1063.5,-157.5"/>
<text text-anchor="middle" x="1115.5" y="-164.5" font-family="Helvetica,sans-Serif" font-size="10.00">CParser::brack_list</text>
</a>
</g>
</g>
<!-- Node45&#45;&gt;Node46 -->
<g id="edge61" class="edge"><title>Node45&#45;&gt;Node46</title>
<path fill="none" stroke="midnightblue" d="M843.804,-237.852C889.935,-248.222 964.35,-257.845 1021,-231 1043.83,-220.18 1036.29,-201.473 1057,-187 1063.15,-182.702 1070.31,-179.249 1077.45,-176.504"/>
<polygon fill="midnightblue" stroke="midnightblue" points="844.379,-234.391 833.843,-235.501 842.772,-241.204 844.379,-234.391"/>
</g>
<!-- Node46&#45;&gt;Node28 -->
<g id="edge62" class="edge"><title>Node46&#45;&gt;Node28</title>
<path fill="none" stroke="midnightblue" d="M1178.05,-161.326C1221.9,-157.019 1282.19,-150.559 1335,-143 1353.86,-140.301 1374.47,-136.793 1392.57,-133.527"/>
<polygon fill="midnightblue" stroke="midnightblue" points="1177.45,-157.868 1167.83,-162.32 1178.12,-164.836 1177.45,-157.868"/>
</g>
</g>
</svg>
