<?xml version="1.0" encoding="UTF-8" standalone="no"?>
<!DOCTYPE svg PUBLIC "-//W3C//DTD SVG 1.1//EN"
 "http://www.w3.org/Graphics/SVG/1.1/DTD/svg11.dtd">
<!-- Generated by graphviz version 2.38.0 (20140413.2041)
 -->
<!-- Title: CParser::brack_block Pages: 1 -->
<svg width="1284pt" height="440pt"
 viewBox="0.00 0.00 1284.00 440.17" xmlns="http://www.w3.org/2000/svg" xmlns:xlink="http://www.w3.org/1999/xlink">
<g id="graph0" class="graph" transform="scale(1 1) rotate(0) translate(4 436.172)">
<title>CParser::brack_block</title>
<polygon fill="white" stroke="none" points="-4,4 -4,-436.172 1280,-436.172 1280,4 -4,4"/>
<!-- Node1 -->
<g id="node1" class="node"><title>Node1</title>
<polygon fill="#bfbfbf" stroke="black" points="0,-248.974 0,-267.974 116,-267.974 116,-248.974 0,-248.974"/>
<text text-anchor="middle" x="58" y="-255.974" font-family="Helvetica,sans-Serif" font-size="10.00">CParser::brack_block</text>
</g>
<!-- Node2 -->
<g id="node2" class="node"><title>Node2</title>
<g id="a_node2"><a xlink:href="../../d0/df6/classCParser.html#a967d50b91351cf003898543b6d7af7a7" target="_top" xlink:title="CParser::balanced_list">
<polygon fill="white" stroke="black" points="152,-248.974 152,-267.974 274,-267.974 274,-248.974 152,-248.974"/>
<text text-anchor="middle" x="213" y="-255.974" font-family="Helvetica,sans-Serif" font-size="10.00">CParser::balanced_list</text>
</a>
</g>
</g>
<!-- Node1&#45;&gt;Node2 -->
<g id="edge1" class="edge"><title>Node1&#45;&gt;Node2</title>
<path fill="none" stroke="midnightblue" d="M116.407,-258.474C124.666,-258.474 133.242,-258.474 141.715,-258.474"/>
<polygon fill="midnightblue" stroke="midnightblue" points="141.972,-261.974 151.972,-258.474 141.972,-254.974 141.972,-261.974"/>
</g>
<!-- Node6 -->
<g id="node6" class="node"><title>Node6</title>
<g id="a_node6"><a xlink:href="../../d0/df6/classCParser.html#a5e1630bd24884bb1cbc5680926dce957" target="_top" xlink:title="CParser::syn">
<polygon fill="white" stroke="black" points="888,-210.974 888,-229.974 965,-229.974 965,-210.974 888,-210.974"/>
<text text-anchor="middle" x="926.5" y="-217.974" font-family="Helvetica,sans-Serif" font-size="10.00">CParser::syn</text>
</a>
</g>
</g>
<!-- Node1&#45;&gt;Node6 -->
<g id="edge28" class="edge"><title>Node1&#45;&gt;Node6</title>
<path fill="none" stroke="midnightblue" d="M67.815,-268.158C101.76,-304.332 228.713,-429.474 360.5,-429.474 360.5,-429.474 360.5,-429.474 640,-429.474 736.141,-429.474 777.065,-446.706 852,-386.474 898.772,-348.879 916.628,-275.385 922.708,-240.185"/>
<polygon fill="midnightblue" stroke="midnightblue" points="926.183,-240.621 924.29,-230.197 919.269,-239.526 926.183,-240.621"/>
</g>
<!-- Node3 -->
<g id="node3" class="node"><title>Node3</title>
<g id="a_node3"><a xlink:href="../../d0/df6/classCParser.html#a424ec587e8167b682804c23c4804d895" target="_top" xlink:title="CParser::balanced">
<polygon fill="white" stroke="black" points="310,-248.974 310,-267.974 413,-267.974 413,-248.974 310,-248.974"/>
<text text-anchor="middle" x="361.5" y="-255.974" font-family="Helvetica,sans-Serif" font-size="10.00">CParser::balanced</text>
</a>
</g>
</g>
<!-- Node2&#45;&gt;Node3 -->
<g id="edge2" class="edge"><title>Node2&#45;&gt;Node3</title>
<path fill="none" stroke="midnightblue" d="M274.01,-258.474C282.437,-258.474 291.105,-258.474 299.549,-258.474"/>
<polygon fill="midnightblue" stroke="midnightblue" points="299.706,-261.974 309.706,-258.474 299.706,-254.974 299.706,-261.974"/>
</g>
<!-- Node2&#45;&gt;Node6 -->
<g id="edge27" class="edge"><title>Node2&#45;&gt;Node6</title>
<path fill="none" stroke="midnightblue" d="M224.904,-268.039C260.836,-298.535 379.829,-391.474 495.5,-391.474 495.5,-391.474 495.5,-391.474 640,-391.474 735.885,-391.474 774.128,-407.42 852,-351.474 890.499,-323.815 911.383,-269.386 920.256,-240.15"/>
<polygon fill="midnightblue" stroke="midnightblue" points="923.692,-240.863 923.08,-230.286 916.963,-238.936 923.692,-240.863"/>
</g>
<!-- Node4 -->
<g id="node4" class="node"><title>Node4</title>
<g id="a_node4"><a xlink:href="../../d0/df6/classCParser.html#a52e049b9361b6e9c7a2c4f6266d98916" target="_top" xlink:title="CParser::scoped">
<polygon fill="white" stroke="black" points="449,-248.974 449,-267.974 544,-267.974 544,-248.974 449,-248.974"/>
<text text-anchor="middle" x="496.5" y="-255.974" font-family="Helvetica,sans-Serif" font-size="10.00">CParser::scoped</text>
</a>
</g>
</g>
<!-- Node3&#45;&gt;Node4 -->
<g id="edge3" class="edge"><title>Node3&#45;&gt;Node4</title>
<path fill="none" stroke="midnightblue" d="M413.161,-258.474C421.511,-258.474 430.215,-258.474 438.704,-258.474"/>
<polygon fill="midnightblue" stroke="midnightblue" points="438.913,-261.974 448.913,-258.474 438.913,-254.974 438.913,-261.974"/>
</g>
<!-- Node3&#45;&gt;Node6 -->
<g id="edge26" class="edge"><title>Node3&#45;&gt;Node6</title>
<path fill="none" stroke="midnightblue" d="M381.115,-268.057C448.707,-301.427 685.918,-406.017 852,-321.474 885.67,-304.335 907.553,-263.747 918.098,-239.563"/>
<polygon fill="midnightblue" stroke="midnightblue" points="921.452,-240.613 922.036,-230.034 914.982,-237.939 921.452,-240.613"/>
</g>
<!-- Node13 -->
<g id="node13" class="node"><title>Node13</title>
<g id="a_node13"><a xlink:href="../../d0/df6/classCParser.html#a35e24b97e6c8566e503521071040413f" target="_top" xlink:title="CParser::block">
<polygon fill="white" stroke="black" points="454.5,-115.974 454.5,-134.974 538.5,-134.974 538.5,-115.974 454.5,-115.974"/>
<text text-anchor="middle" x="496.5" y="-122.974" font-family="Helvetica,sans-Serif" font-size="10.00">CParser::block</text>
</a>
</g>
</g>
<!-- Node3&#45;&gt;Node13 -->
<g id="edge16" class="edge"><title>Node3&#45;&gt;Node13</title>
<path fill="none" stroke="midnightblue" d="M372.065,-248.909C394.387,-226.587 450.164,-170.81 478.461,-142.513"/>
<polygon fill="midnightblue" stroke="midnightblue" points="481.067,-144.857 485.663,-135.311 476.117,-139.908 481.067,-144.857"/>
</g>
<!-- Node5 -->
<g id="node5" class="node"><title>Node5</title>
<g id="a_node5"><a xlink:href="../../d0/df6/classCParser.html#a2406cf660d9f7e6c3be87b61b2ffba4b" target="_top" xlink:title="CParser::keyword">
<polygon fill="white" stroke="black" points="743,-267.974 743,-286.974 843,-286.974 843,-267.974 743,-267.974"/>
<text text-anchor="middle" x="793" y="-274.974" font-family="Helvetica,sans-Serif" font-size="10.00">CParser::keyword</text>
</a>
</g>
</g>
<!-- Node4&#45;&gt;Node5 -->
<g id="edge4" class="edge"><title>Node4&#45;&gt;Node5</title>
<path fill="none" stroke="midnightblue" d="M544.164,-261.485C595.162,-264.775 676.992,-270.054 732.551,-273.639"/>
<polygon fill="midnightblue" stroke="midnightblue" points="732.402,-277.136 742.606,-274.288 732.852,-270.151 732.402,-277.136"/>
</g>
<!-- Node4&#45;&gt;Node6 -->
<g id="edge15" class="edge"><title>Node4&#45;&gt;Node6</title>
<path fill="none" stroke="midnightblue" d="M519.771,-268.124C577.364,-291.579 734.894,-346.132 852,-296.474 879.612,-284.766 901.919,-257.043 914.444,-238.518"/>
<polygon fill="midnightblue" stroke="midnightblue" points="917.438,-240.335 919.933,-230.038 911.561,-236.531 917.438,-240.335"/>
</g>
<!-- Node10 -->
<g id="node10" class="node"><title>Node10</title>
<g id="a_node10"><a xlink:href="../../d0/df6/classCParser.html#a177b7d8d53b6d7c2c89bbea896b3d154" target="_top" xlink:title="CParser::op">
<polygon fill="white" stroke="black" points="757,-229.974 757,-248.974 829,-248.974 829,-229.974 757,-229.974"/>
<text text-anchor="middle" x="793" y="-236.974" font-family="Helvetica,sans-Serif" font-size="10.00">CParser::op</text>
</a>
</g>
</g>
<!-- Node4&#45;&gt;Node10 -->
<g id="edge9" class="edge"><title>Node4&#45;&gt;Node10</title>
<path fill="none" stroke="midnightblue" d="M544.164,-255.464C599.627,-251.885 691.558,-245.954 746.503,-242.41"/>
<polygon fill="midnightblue" stroke="midnightblue" points="746.892,-245.892 756.646,-241.755 746.441,-238.906 746.892,-245.892"/>
</g>
<!-- Node11 -->
<g id="node11" class="node"><title>Node11</title>
<g id="a_node11"><a xlink:href="../../d0/df6/classCParser.html#a6125d39bebbef0edc81fe5f030e76759" target="_top" xlink:title="CParser::literal">
<polygon fill="white" stroke="black" points="596,-191.974 596,-210.974 682,-210.974 682,-191.974 596,-191.974"/>
<text text-anchor="middle" x="639" y="-198.974" font-family="Helvetica,sans-Serif" font-size="10.00">CParser::literal</text>
</a>
</g>
</g>
<!-- Node4&#45;&gt;Node11 -->
<g id="edge11" class="edge"><title>Node4&#45;&gt;Node11</title>
<path fill="none" stroke="midnightblue" d="M521.017,-248.934C544.014,-239.604 579.24,-225.313 605.03,-214.85"/>
<polygon fill="midnightblue" stroke="midnightblue" points="606.456,-218.049 614.407,-211.046 603.824,-211.562 606.456,-218.049"/>
</g>
<!-- Node5&#45;&gt;Node6 -->
<g id="edge5" class="edge"><title>Node5&#45;&gt;Node6</title>
<path fill="none" stroke="midnightblue" d="M826.247,-267.928C834.725,-265.143 843.791,-261.915 852,-258.474 868.362,-251.617 886.043,-242.532 899.962,-234.965"/>
<polygon fill="midnightblue" stroke="midnightblue" points="901.87,-237.91 908.935,-230.014 898.489,-231.78 901.87,-237.91"/>
</g>
<!-- Node7 -->
<g id="node7" class="node"><title>Node7</title>
<g id="a_node7"><a xlink:href="../../da/d6a/classParseUtility.html#aabfa4c56607539ef14be2e2a7260006b" target="_top" xlink:title="ParseUtility::syn">
<polygon fill="white" stroke="black" points="1001,-210.974 1001,-229.974 1092,-229.974 1092,-210.974 1001,-210.974"/>
<text text-anchor="middle" x="1046.5" y="-217.974" font-family="Helvetica,sans-Serif" font-size="10.00">ParseUtility::syn</text>
</a>
</g>
</g>
<!-- Node6&#45;&gt;Node7 -->
<g id="edge6" class="edge"><title>Node6&#45;&gt;Node7</title>
<path fill="none" stroke="midnightblue" d="M965.16,-220.474C973.305,-220.474 982.076,-220.474 990.726,-220.474"/>
<polygon fill="midnightblue" stroke="midnightblue" points="990.779,-223.974 1000.78,-220.474 990.779,-216.974 990.779,-223.974"/>
</g>
<!-- Node8 -->
<g id="node8" class="node"><title>Node8</title>
<g id="a_node8"><a xlink:href="../../d3/d5e/classParseStore.html#ab21a4aeadb4cc4938b58cbefbb8634e8" target="_top" xlink:title="ParseStore::currentInstance">
<polygon fill="white" stroke="black" points="1128,-229.974 1128,-248.974 1276,-248.974 1276,-229.974 1128,-229.974"/>
<text text-anchor="middle" x="1202" y="-236.974" font-family="Helvetica,sans-Serif" font-size="10.00">ParseStore::currentInstance</text>
</a>
</g>
</g>
<!-- Node7&#45;&gt;Node8 -->
<g id="edge7" class="edge"><title>Node7&#45;&gt;Node8</title>
<path fill="none" stroke="midnightblue" d="M1092.31,-226.021C1100.41,-227.024 1109.09,-228.098 1117.88,-229.186"/>
<polygon fill="midnightblue" stroke="midnightblue" points="1117.48,-232.662 1127.83,-230.417 1118.34,-225.715 1117.48,-232.662"/>
</g>
<!-- Node9 -->
<g id="node9" class="node"><title>Node9</title>
<g id="a_node9"><a xlink:href="../../d3/d5e/classParseStore.html#ae7b3d82d22174c1a1165a592d6c1700c" target="_top" xlink:title="ParseStore::filename">
<polygon fill="white" stroke="black" points="1145,-191.974 1145,-210.974 1259,-210.974 1259,-191.974 1145,-191.974"/>
<text text-anchor="middle" x="1202" y="-198.974" font-family="Helvetica,sans-Serif" font-size="10.00">ParseStore::filename</text>
</a>
</g>
</g>
<!-- Node7&#45;&gt;Node9 -->
<g id="edge8" class="edge"><title>Node7&#45;&gt;Node9</title>
<path fill="none" stroke="midnightblue" d="M1092.31,-214.928C1105.56,-213.288 1120.35,-211.458 1134.64,-209.688"/>
<polygon fill="midnightblue" stroke="midnightblue" points="1135.45,-213.115 1144.94,-208.413 1134.59,-206.168 1135.45,-213.115"/>
</g>
<!-- Node10&#45;&gt;Node6 -->
<g id="edge10" class="edge"><title>Node10&#45;&gt;Node6</title>
<path fill="none" stroke="midnightblue" d="M829.24,-234.383C844.093,-232.237 861.615,-229.705 877.611,-227.394"/>
<polygon fill="midnightblue" stroke="midnightblue" points="878.462,-230.807 887.859,-225.913 877.461,-223.879 878.462,-230.807"/>
</g>
<!-- Node11&#45;&gt;Node6 -->
<g id="edge14" class="edge"><title>Node11&#45;&gt;Node6</title>
<path fill="none" stroke="midnightblue" d="M682.127,-204.278C734.294,-207.749 822.94,-213.649 877.631,-217.289"/>
<polygon fill="midnightblue" stroke="midnightblue" points="877.552,-220.791 887.763,-217.963 878.017,-213.806 877.552,-220.791"/>
</g>
<!-- Node12 -->
<g id="node12" class="node"><title>Node12</title>
<g id="a_node12"><a xlink:href="../../d0/df6/classCParser.html#a37ac23e2bafc84982f17db1ace720958" target="_top" xlink:title="CParser::string_literal">
<polygon fill="white" stroke="black" points="734,-153.974 734,-172.974 852,-172.974 852,-153.974 734,-153.974"/>
<text text-anchor="middle" x="793" y="-160.974" font-family="Helvetica,sans-Serif" font-size="10.00">CParser::string_literal</text>
</a>
</g>
</g>
<!-- Node11&#45;&gt;Node12 -->
<g id="edge12" class="edge"><title>Node11&#45;&gt;Node12</title>
<path fill="none" stroke="midnightblue" d="M678.356,-191.885C698.324,-186.893 722.93,-180.742 744.133,-175.441"/>
<polygon fill="midnightblue" stroke="midnightblue" points="745.067,-178.815 753.92,-172.994 743.369,-172.024 745.067,-178.815"/>
</g>
<!-- Node12&#45;&gt;Node6 -->
<g id="edge13" class="edge"><title>Node12&#45;&gt;Node6</title>
<path fill="none" stroke="midnightblue" d="M817.49,-173.009C828.067,-177.35 840.693,-182.598 852,-187.474 866.366,-193.67 882.21,-200.751 895.497,-206.762"/>
<polygon fill="midnightblue" stroke="midnightblue" points="894.11,-209.976 904.663,-210.921 897.003,-203.601 894.11,-209.976"/>
</g>
<!-- Node13&#45;&gt;Node1 -->
<g id="edge21" class="edge"><title>Node13&#45;&gt;Node1</title>
<path fill="none" stroke="midnightblue" d="M464.1,-135.042C386.715,-158.621 186.851,-219.519 100.144,-245.938"/>
<polygon fill="midnightblue" stroke="midnightblue" points="98.9377,-242.646 90.392,-248.909 100.978,-249.343 98.9377,-242.646"/>
</g>
<!-- Node13&#45;&gt;Node6 -->
<g id="edge25" class="edge"><title>Node13&#45;&gt;Node6</title>
<path fill="none" stroke="midnightblue" d="M538.572,-118.37C607.068,-108.495 747.414,-96.783 852,-144.474 879.146,-156.853 901.45,-184.15 914.118,-202.431"/>
<polygon fill="midnightblue" stroke="midnightblue" points="911.238,-204.421 919.69,-210.81 917.067,-200.545 911.238,-204.421"/>
</g>
<!-- Node14 -->
<g id="node14" class="node"><title>Node14</title>
<g id="a_node14"><a xlink:href="../../d0/df6/classCParser.html#a0a168a887a9f004b6635cd3fb47f565e" target="_top" xlink:title="CParser::brace_block">
<polygon fill="white" stroke="black" points="581,-77.9742 581,-96.9742 697,-96.9742 697,-77.9742 581,-77.9742"/>
<text text-anchor="middle" x="639" y="-84.9742" font-family="Helvetica,sans-Serif" font-size="10.00">CParser::brace_block</text>
</a>
</g>
</g>
<!-- Node13&#45;&gt;Node14 -->
<g id="edge17" class="edge"><title>Node13&#45;&gt;Node14</title>
<path fill="none" stroke="midnightblue" d="M532.954,-115.885C551.091,-110.98 573.368,-104.955 592.733,-99.7172"/>
<polygon fill="midnightblue" stroke="midnightblue" points="593.818,-103.05 602.557,-97.0602 591.99,-96.2925 593.818,-103.05"/>
</g>
<!-- Node16 -->
<g id="node16" class="node"><title>Node16</title>
<g id="a_node16"><a xlink:href="../../d0/df6/classCParser.html#a51affc383cd0859af5d84b628c8a2f5c" target="_top" xlink:title="CParser::paren_block">
<polygon fill="white" stroke="black" points="580,-39.9742 580,-58.9742 698,-58.9742 698,-39.9742 580,-39.9742"/>
<text text-anchor="middle" x="639" y="-46.9742" font-family="Helvetica,sans-Serif" font-size="10.00">CParser::paren_block</text>
</a>
</g>
</g>
<!-- Node13&#45;&gt;Node16 -->
<g id="edge22" class="edge"><title>Node13&#45;&gt;Node16</title>
<path fill="none" stroke="midnightblue" d="M509.119,-115.82C524.504,-103.432 552.865,-81.938 580,-68.4742 584.34,-66.3211 588.979,-64.331 593.673,-62.5144"/>
<polygon fill="midnightblue" stroke="midnightblue" points="595.09,-65.7237 603.305,-59.0326 592.711,-59.1406 595.09,-65.7237"/>
</g>
<!-- Node14&#45;&gt;Node6 -->
<g id="edge20" class="edge"><title>Node14&#45;&gt;Node6</title>
<path fill="none" stroke="midnightblue" d="M697.25,-81.4667C742.451,-79.5182 805.442,-83.2407 852,-111.474 886.324,-132.289 908.177,-175.95 918.494,-201.242"/>
<polygon fill="midnightblue" stroke="midnightblue" points="915.335,-202.777 922.212,-210.836 921.862,-200.247 915.335,-202.777"/>
</g>
<!-- Node15 -->
<g id="node15" class="node"><title>Node15</title>
<g id="a_node15"><a xlink:href="../../d0/df6/classCParser.html#ad3478bb95eecaaa4fb98396fb1b48d82" target="_top" xlink:title="CParser::skip_until\l_matching_rbrace">
<polygon fill="white" stroke="black" points="741,-28.4742 741,-58.4742 845,-58.4742 845,-28.4742 741,-28.4742"/>
<text text-anchor="start" x="749" y="-46.4742" font-family="Helvetica,sans-Serif" font-size="10.00">CParser::skip_until</text>
<text text-anchor="middle" x="793" y="-35.4742" font-family="Helvetica,sans-Serif" font-size="10.00">_matching_rbrace</text>
</a>
</g>
</g>
<!-- Node14&#45;&gt;Node15 -->
<g id="edge18" class="edge"><title>Node14&#45;&gt;Node15</title>
<path fill="none" stroke="midnightblue" d="M672.982,-77.9269C690.015,-72.9963 711.346,-66.8215 731.228,-61.0663"/>
<polygon fill="midnightblue" stroke="midnightblue" points="732.214,-64.4246 740.846,-58.282 730.267,-57.7007 732.214,-64.4246"/>
</g>
<!-- Node15&#45;&gt;Node6 -->
<g id="edge19" class="edge"><title>Node15&#45;&gt;Node6</title>
<path fill="none" stroke="midnightblue" d="M831.632,-58.515C838.975,-62.6114 846.188,-67.5824 852,-73.4742 888.762,-110.744 910.583,-170.095 919.996,-200.736"/>
<polygon fill="midnightblue" stroke="midnightblue" points="916.727,-202.025 922.908,-210.631 923.443,-200.049 916.727,-202.025"/>
</g>
<!-- Node16&#45;&gt;Node2 -->
<g id="edge23" class="edge"><title>Node16&#45;&gt;Node2</title>
<path fill="none" stroke="midnightblue" d="M593.943,-59.0336C554.801,-68.3894 496.586,-84.4473 449,-106.474 363.733,-145.943 273.195,-212.514 234.001,-242.722"/>
<polygon fill="midnightblue" stroke="midnightblue" points="231.765,-240.027 226.014,-248.925 236.059,-245.555 231.765,-240.027"/>
</g>
<!-- Node16&#45;&gt;Node6 -->
<g id="edge24" class="edge"><title>Node16&#45;&gt;Node6</title>
<path fill="none" stroke="midnightblue" d="M656.671,-39.8577C694.993,-19.1569 790.757,24.4127 852,-18.4742 912.483,-60.8293 923.379,-158.379 925.208,-200.504"/>
<polygon fill="midnightblue" stroke="midnightblue" points="921.713,-200.718 925.514,-210.607 928.709,-200.506 921.713,-200.718"/>
</g>
</g>
</svg>
