<?xml version="1.0" encoding="UTF-8" standalone="no"?>
<!DOCTYPE svg PUBLIC "-//W3C//DTD SVG 1.1//EN"
 "http://www.w3.org/Graphics/SVG/1.1/DTD/svg11.dtd">
<!-- Generated by graphviz version 2.38.0 (20140413.2041)
 -->
<!-- Title: CParser::tag_list_opt Pages: 1 -->
<svg width="1603pt" height="204pt"
 viewBox="0.00 0.00 1603.00 204.00" xmlns="http://www.w3.org/2000/svg" xmlns:xlink="http://www.w3.org/1999/xlink">
<g id="graph0" class="graph" transform="scale(1 1) rotate(0) translate(4 200)">
<title>CParser::tag_list_opt</title>
<polygon fill="white" stroke="none" points="-4,4 -4,-200 1599,-200 1599,4 -4,4"/>
<!-- Node1 -->
<g id="node1" class="node"><title>Node1</title>
<polygon fill="#bfbfbf" stroke="black" points="0,-34.5 0,-53.5 115,-53.5 115,-34.5 0,-34.5"/>
<text text-anchor="middle" x="57.5" y="-41.5" font-family="Helvetica,sans-Serif" font-size="10.00">CParser::tag_list_opt</text>
</g>
<!-- Node2 -->
<g id="node2" class="node"><title>Node2</title>
<g id="a_node2"><a xlink:href="../../d0/df6/classCParser.html#a94f850703a70f3f6ad4d55a05bff0057" target="_top" xlink:title="CParser::struct_typedef\l_definition">
<polygon fill="white" stroke="black" points="151,-29 151,-59 278,-59 278,-29 151,-29"/>
<text text-anchor="start" x="159" y="-47" font-family="Helvetica,sans-Serif" font-size="10.00">CParser::struct_typedef</text>
<text text-anchor="middle" x="214.5" y="-36" font-family="Helvetica,sans-Serif" font-size="10.00">_definition</text>
</a>
</g>
</g>
<!-- Node1&#45;&gt;Node2 -->
<g id="edge1" class="edge"><title>Node1&#45;&gt;Node2</title>
<path fill="none" stroke="midnightblue" d="M125.515,-44C133.951,-44 142.556,-44 150.92,-44"/>
<polygon fill="midnightblue" stroke="midnightblue" points="125.336,-40.5001 115.336,-44 125.336,-47.5001 125.336,-40.5001"/>
</g>
<!-- Node3 -->
<g id="node3" class="node"><title>Node3</title>
<g id="a_node3"><a xlink:href="../../d0/df6/classCParser.html#a8c598aa662fff7e10be2ee78e078935a" target="_top" xlink:title="CParser::typedef_definition">
<polygon fill="white" stroke="black" points="314,-34.5 314,-53.5 458,-53.5 458,-34.5 314,-34.5"/>
<text text-anchor="middle" x="386" y="-41.5" font-family="Helvetica,sans-Serif" font-size="10.00">CParser::typedef_definition</text>
</a>
</g>
</g>
<!-- Node2&#45;&gt;Node3 -->
<g id="edge2" class="edge"><title>Node2&#45;&gt;Node3</title>
<path fill="none" stroke="midnightblue" d="M288.319,-44C296.753,-44 305.348,-44 313.76,-44"/>
<polygon fill="midnightblue" stroke="midnightblue" points="288.134,-40.5001 278.134,-44 288.134,-47.5001 288.134,-40.5001"/>
</g>
<!-- Node4 -->
<g id="node4" class="node"><title>Node4</title>
<g id="a_node4"><a xlink:href="../../d0/df6/classCParser.html#ab3ab57ace628c2476dd8dfe5a96f9a15" target="_top" xlink:title="CParser::definition\l_or_declaration">
<polygon fill="white" stroke="black" points="494,-29 494,-59 597,-59 597,-29 494,-29"/>
<text text-anchor="start" x="502" y="-47" font-family="Helvetica,sans-Serif" font-size="10.00">CParser::definition</text>
<text text-anchor="middle" x="545.5" y="-36" font-family="Helvetica,sans-Serif" font-size="10.00">_or_declaration</text>
</a>
</g>
</g>
<!-- Node3&#45;&gt;Node4 -->
<g id="edge3" class="edge"><title>Node3&#45;&gt;Node4</title>
<path fill="none" stroke="midnightblue" d="M468.432,-44C477.003,-44 485.53,-44 493.609,-44"/>
<polygon fill="midnightblue" stroke="midnightblue" points="468.377,-40.5001 458.377,-44 468.377,-47.5001 468.377,-40.5001"/>
</g>
<!-- Node5 -->
<g id="node5" class="node"><title>Node5</title>
<g id="a_node5"><a xlink:href="../../d0/df6/classCParser.html#a2b78ab2005bef5c43ee2d4689210eab1" target="_top" xlink:title="CParser::link_item">
<polygon fill="white" stroke="black" points="652.5,-107.5 652.5,-126.5 753.5,-126.5 753.5,-107.5 652.5,-107.5"/>
<text text-anchor="middle" x="703" y="-114.5" font-family="Helvetica,sans-Serif" font-size="10.00">CParser::link_item</text>
</a>
</g>
</g>
<!-- Node4&#45;&gt;Node5 -->
<g id="edge4" class="edge"><title>Node4&#45;&gt;Node5</title>
<path fill="none" stroke="midnightblue" d="M587.79,-63.3838C618.097,-77.6116 657.959,-96.3248 681.686,-107.464"/>
<polygon fill="midnightblue" stroke="midnightblue" points="589.259,-60.207 578.72,-59.1256 586.284,-66.5435 589.259,-60.207"/>
</g>
<!-- Node11 -->
<g id="node11" class="node"><title>Node11</title>
<g id="a_node11"><a xlink:href="../../d0/df6/classCParser.html#a85eb09132fa5a588749cea062f0d11ea" target="_top" xlink:title="CParser::class_block_item">
<polygon fill="white" stroke="black" points="633,-34.5 633,-53.5 773,-53.5 773,-34.5 633,-34.5"/>
<text text-anchor="middle" x="703" y="-41.5" font-family="Helvetica,sans-Serif" font-size="10.00">CParser::class_block_item</text>
</a>
</g>
</g>
<!-- Node4&#45;&gt;Node11 -->
<g id="edge12" class="edge"><title>Node4&#45;&gt;Node11</title>
<path fill="none" stroke="midnightblue" d="M607.438,-44C615.787,-44 624.408,-44 632.89,-44"/>
<polygon fill="midnightblue" stroke="midnightblue" points="607.417,-40.5001 597.417,-44 607.416,-47.5001 607.417,-40.5001"/>
</g>
<!-- Node6 -->
<g id="node6" class="node"><title>Node6</title>
<g id="a_node6"><a xlink:href="../../d0/df6/classCParser.html#a4f02da23566af37123efb3768769c09b" target="_top" xlink:title="CParser::start">
<polygon fill="white" stroke="black" points="833.5,-176.5 833.5,-195.5 914.5,-195.5 914.5,-176.5 833.5,-176.5"/>
<text text-anchor="middle" x="874" y="-183.5" font-family="Helvetica,sans-Serif" font-size="10.00">CParser::start</text>
</a>
</g>
</g>
<!-- Node5&#45;&gt;Node6 -->
<g id="edge5" class="edge"><title>Node5&#45;&gt;Node6</title>
<path fill="none" stroke="midnightblue" d="M730.765,-131.172C751.687,-141.898 781.702,-156.522 809,-167 817.981,-170.447 827.866,-173.657 837.125,-176.42"/>
<polygon fill="midnightblue" stroke="midnightblue" points="732.324,-128.037 721.834,-126.547 729.105,-134.253 732.324,-128.037"/>
</g>
<!-- Node9 -->
<g id="node9" class="node"><title>Node9</title>
<g id="a_node9"><a xlink:href="../../d0/df6/classCParser.html#a86906e492ff9c606fb3537078f46f93e" target="_top" xlink:title="CParser::extern_linkage\l_block">
<polygon fill="white" stroke="black" points="809,-127 809,-157 939,-157 939,-127 809,-127"/>
<text text-anchor="start" x="817" y="-145" font-family="Helvetica,sans-Serif" font-size="10.00">CParser::extern_linkage</text>
<text text-anchor="middle" x="874" y="-134" font-family="Helvetica,sans-Serif" font-size="10.00">_block</text>
</a>
</g>
</g>
<!-- Node5&#45;&gt;Node9 -->
<g id="edge8" class="edge"><title>Node5&#45;&gt;Node9</title>
<path fill="none" stroke="midnightblue" d="M763.912,-119.373C780.494,-121.465 798.461,-124.137 814.936,-126.963"/>
<polygon fill="midnightblue" stroke="midnightblue" points="764.139,-115.875 753.792,-118.15 763.299,-122.825 764.139,-115.875"/>
</g>
<!-- Node10 -->
<g id="node10" class="node"><title>Node10</title>
<g id="a_node10"><a xlink:href="../../d0/df6/classCParser.html#a4fad913a0694a5376ad76669d8943122" target="_top" xlink:title="CParser::namespace\l_block">
<polygon fill="white" stroke="black" points="816.5,-78 816.5,-108 931.5,-108 931.5,-78 816.5,-78"/>
<text text-anchor="start" x="824.5" y="-96" font-family="Helvetica,sans-Serif" font-size="10.00">CParser::namespace</text>
<text text-anchor="middle" x="874" y="-85" font-family="Helvetica,sans-Serif" font-size="10.00">_block</text>
</a>
</g>
</g>
<!-- Node5&#45;&gt;Node10 -->
<g id="edge10" class="edge"><title>Node5&#45;&gt;Node10</title>
<path fill="none" stroke="midnightblue" d="M743.68,-105.542C765.375,-101.468 792.617,-97.4042 816.497,-94.6148"/>
<polygon fill="midnightblue" stroke="midnightblue" points="742.965,-102.115 733.825,-107.473 744.311,-108.985 742.965,-102.115"/>
</g>
<!-- Node7 -->
<g id="node7" class="node"><title>Node7</title>
<g id="a_node7"><a xlink:href="../../db/d4a/classMain.html#a803470658c644fa9512140f9d8398dd5" target="_top" xlink:title="Main::ParseFiles">
<polygon fill="white" stroke="black" points="985,-176.5 985,-195.5 1079,-195.5 1079,-176.5 985,-176.5"/>
<text text-anchor="middle" x="1032" y="-183.5" font-family="Helvetica,sans-Serif" font-size="10.00">Main::ParseFiles</text>
</a>
</g>
</g>
<!-- Node6&#45;&gt;Node7 -->
<g id="edge6" class="edge"><title>Node6&#45;&gt;Node7</title>
<path fill="none" stroke="midnightblue" d="M924.869,-186C944.138,-186 966.051,-186 984.942,-186"/>
<polygon fill="midnightblue" stroke="midnightblue" points="924.769,-182.5 914.769,-186 924.769,-189.5 924.769,-182.5"/>
</g>
<!-- Node8 -->
<g id="node8" class="node"><title>Node8</title>
<g id="a_node8"><a xlink:href="../../d6/d93/ccccmain_8cc.html#a3c04138a5bfe5d72780bb7e82a18e627" target="_top" xlink:title="main">
<polygon fill="white" stroke="black" points="1162.5,-176.5 1162.5,-195.5 1201.5,-195.5 1201.5,-176.5 1162.5,-176.5"/>
<text text-anchor="middle" x="1182" y="-183.5" font-family="Helvetica,sans-Serif" font-size="10.00">main</text>
</a>
</g>
</g>
<!-- Node7&#45;&gt;Node8 -->
<g id="edge7" class="edge"><title>Node7&#45;&gt;Node8</title>
<path fill="none" stroke="midnightblue" d="M1089.15,-186C1115.09,-186 1144.14,-186 1162.49,-186"/>
<polygon fill="midnightblue" stroke="midnightblue" points="1089.02,-182.5 1079.02,-186 1089.02,-189.5 1089.02,-182.5"/>
</g>
<!-- Node9&#45;&gt;Node5 -->
<g id="edge9" class="edge"><title>Node9&#45;&gt;Node5</title>
<path fill="none" stroke="midnightblue" d="M799.065,-137.766C775.729,-134.523 751.302,-130.422 733.052,-126.54"/>
<polygon fill="midnightblue" stroke="midnightblue" points="798.6,-141.235 808.978,-139.1 799.534,-134.297 798.6,-141.235"/>
</g>
<!-- Node10&#45;&gt;Node5 -->
<g id="edge11" class="edge"><title>Node10&#45;&gt;Node5</title>
<path fill="none" stroke="midnightblue" d="M806.292,-109.089C788.795,-111.842 770.232,-114.345 753.792,-116.145"/>
<polygon fill="midnightblue" stroke="midnightblue" points="807.136,-112.498 816.446,-107.442 806.015,-105.588 807.136,-112.498"/>
</g>
<!-- Node12 -->
<g id="node12" class="node"><title>Node12</title>
<g id="a_node12"><a xlink:href="../../d0/df6/classCParser.html#a4b9f00c05d44a13b3c18b28b52f5be9e" target="_top" xlink:title="CParser::class_block\l_item_list">
<polygon fill="white" stroke="black" points="817,-29 817,-59 931,-59 931,-29 817,-29"/>
<text text-anchor="start" x="825" y="-47" font-family="Helvetica,sans-Serif" font-size="10.00">CParser::class_block</text>
<text text-anchor="middle" x="874" y="-36" font-family="Helvetica,sans-Serif" font-size="10.00">_item_list</text>
</a>
</g>
</g>
<!-- Node11&#45;&gt;Node12 -->
<g id="edge13" class="edge"><title>Node11&#45;&gt;Node12</title>
<path fill="none" stroke="midnightblue" d="M783.497,-44C794.741,-44 806.104,-44 816.785,-44"/>
<polygon fill="midnightblue" stroke="midnightblue" points="783.226,-40.5001 773.226,-44 783.226,-47.5001 783.226,-40.5001"/>
</g>
<!-- Node13 -->
<g id="node13" class="node"><title>Node13</title>
<g id="a_node13"><a xlink:href="../../d0/df6/classCParser.html#a06c7cac9034f27ad6d998b49a7b574c8" target="_top" xlink:title="CParser::class_block">
<polygon fill="white" stroke="black" points="975,-31.5 975,-50.5 1089,-50.5 1089,-31.5 975,-31.5"/>
<text text-anchor="middle" x="1032" y="-38.5" font-family="Helvetica,sans-Serif" font-size="10.00">CParser::class_block</text>
</a>
</g>
</g>
<!-- Node12&#45;&gt;Node13 -->
<g id="edge14" class="edge"><title>Node12&#45;&gt;Node13</title>
<path fill="none" stroke="midnightblue" d="M941.404,-42.723C952.512,-42.5094 963.941,-42.2896 974.763,-42.0815"/>
<polygon fill="midnightblue" stroke="midnightblue" points="941.25,-39.2252 931.32,-42.9169 941.385,-46.2239 941.25,-39.2252"/>
</g>
<!-- Node14 -->
<g id="node14" class="node"><title>Node14</title>
<g id="a_node14"><a xlink:href="../../d0/df6/classCParser.html#a40fba8426e7ac46e9926515ee81e97f3" target="_top" xlink:title="CParser::class_suffix">
<polygon fill="white" stroke="black" points="1125,-29.5 1125,-48.5 1239,-48.5 1239,-29.5 1125,-29.5"/>
<text text-anchor="middle" x="1182" y="-36.5" font-family="Helvetica,sans-Serif" font-size="10.00">CParser::class_suffix</text>
</a>
</g>
</g>
<!-- Node13&#45;&gt;Node14 -->
<g id="edge15" class="edge"><title>Node13&#45;&gt;Node14</title>
<path fill="none" stroke="midnightblue" d="M1099.56,-40.1006C1107.98,-39.9867 1116.54,-39.8711 1124.78,-39.7597"/>
<polygon fill="midnightblue" stroke="midnightblue" points="1099.33,-36.6033 1089.37,-40.2382 1099.42,-43.6026 1099.33,-36.6033"/>
</g>
<!-- Node15 -->
<g id="node15" class="node"><title>Node15</title>
<g id="a_node15"><a xlink:href="../../d0/df6/classCParser.html#a1ed5fcfb2e97e3551fceabe81989a667" target="_top" xlink:title="CParser::class_declaration\l_or_definition">
<polygon fill="white" stroke="black" points="1275,-4 1275,-34 1418,-34 1418,-4 1275,-4"/>
<text text-anchor="start" x="1283" y="-22" font-family="Helvetica,sans-Serif" font-size="10.00">CParser::class_declaration</text>
<text text-anchor="middle" x="1346.5" y="-11" font-family="Helvetica,sans-Serif" font-size="10.00">_or_definition</text>
</a>
</g>
</g>
<!-- Node14&#45;&gt;Node15 -->
<g id="edge16" class="edge"><title>Node14&#45;&gt;Node15</title>
<path fill="none" stroke="midnightblue" d="M1249.47,-30.8187C1257.86,-29.7867 1266.46,-28.728 1274.91,-27.6886"/>
<polygon fill="midnightblue" stroke="midnightblue" points="1248.88,-27.3657 1239.38,-32.0611 1249.73,-34.3133 1248.88,-27.3657"/>
</g>
<!-- Node15&#45;&gt;Node4 -->
<g id="edge17" class="edge"><title>Node15&#45;&gt;Node4</title>
<path fill="none" stroke="midnightblue" d="M1264.56,-11.374C1201.52,-6.08976 1111.78,-0 1033,-0 873,-0 873,-0 873,-0 765.756,-0 738.874,-7.91348 633,-25 621.312,-26.8862 608.83,-29.3567 597.088,-31.8893"/>
<polygon fill="midnightblue" stroke="midnightblue" points="1264.57,-14.8876 1274.83,-12.2478 1265.16,-7.91282 1264.57,-14.8876"/>
</g>
<!-- Node16 -->
<g id="node16" class="node"><title>Node16</title>
<g id="a_node16"><a xlink:href="../../d0/df6/classCParser.html#a12561a45dab96760d7ab45896681dd33" target="_top" xlink:title="CParser::class_or_method\l_declaration_or_definition">
<polygon fill="white" stroke="black" points="1454,-4 1454,-34 1595,-34 1595,-4 1454,-4"/>
<text text-anchor="start" x="1462" y="-22" font-family="Helvetica,sans-Serif" font-size="10.00">CParser::class_or_method</text>
<text text-anchor="middle" x="1524.5" y="-11" font-family="Helvetica,sans-Serif" font-size="10.00">_declaration_or_definition</text>
</a>
</g>
</g>
<!-- Node15&#45;&gt;Node16 -->
<g id="edge18" class="edge"><title>Node15&#45;&gt;Node16</title>
<path fill="none" stroke="midnightblue" d="M1428.08,-19C1436.66,-19 1445.33,-19 1453.77,-19"/>
<polygon fill="midnightblue" stroke="midnightblue" points="1428.07,-15.5001 1418.07,-19 1428.07,-22.5001 1428.07,-15.5001"/>
</g>
</g>
</svg>
