<?xml version="1.0" encoding="UTF-8" standalone="no"?>
<!DOCTYPE svg PUBLIC "-//W3C//DTD SVG 1.1//EN"
 "http://www.w3.org/Graphics/SVG/1.1/DTD/svg11.dtd">
<!-- Generated by graphviz version 2.38.0 (20140413.2041)
 -->
<!-- Title: CParser::ctor_init_list Pages: 1 -->
<svg width="1834pt" height="271pt"
 viewBox="0.00 0.00 1834.00 271.00" xmlns="http://www.w3.org/2000/svg" xmlns:xlink="http://www.w3.org/1999/xlink">
<g id="graph0" class="graph" transform="scale(1 1) rotate(0) translate(4 267)">
<title>CParser::ctor_init_list</title>
<polygon fill="white" stroke="none" points="-4,4 -4,-267 1830,-267 1830,4 -4,4"/>
<!-- Node1 -->
<g id="node1" class="node"><title>Node1</title>
<polygon fill="#bfbfbf" stroke="black" points="0,-144.5 0,-163.5 116,-163.5 116,-144.5 0,-144.5"/>
<text text-anchor="middle" x="58" y="-151.5" font-family="Helvetica,sans-Serif" font-size="10.00">CParser::ctor_init_list</text>
</g>
<!-- Node2 -->
<g id="node2" class="node"><title>Node2</title>
<g id="a_node2"><a xlink:href="../../d0/df6/classCParser.html#ad7a6fd3a8b7daa3c26191f4512236a59" target="_top" xlink:title="CParser::method_suffix">
<polygon fill="white" stroke="black" points="152,-144.5 152,-163.5 277,-163.5 277,-144.5 152,-144.5"/>
<text text-anchor="middle" x="214.5" y="-151.5" font-family="Helvetica,sans-Serif" font-size="10.00">CParser::method_suffix</text>
</a>
</g>
</g>
<!-- Node1&#45;&gt;Node2 -->
<g id="edge1" class="edge"><title>Node1&#45;&gt;Node2</title>
<path fill="none" stroke="midnightblue" d="M126.367,-154C134.88,-154 143.556,-154 151.973,-154"/>
<polygon fill="midnightblue" stroke="midnightblue" points="126.091,-150.5 116.091,-154 126.091,-157.5 126.091,-150.5"/>
</g>
<!-- Node3 -->
<g id="node3" class="node"><title>Node3</title>
<g id="a_node3"><a xlink:href="../../d0/df6/classCParser.html#a0dd2a579512bf1a17aaeac5fdec860a7" target="_top" xlink:title="CParser::method_declaration\l_or_definition_with_implicit_type">
<polygon fill="white" stroke="black" points="313,-139 313,-169 483,-169 483,-139 313,-139"/>
<text text-anchor="start" x="321" y="-157" font-family="Helvetica,sans-Serif" font-size="10.00">CParser::method_declaration</text>
<text text-anchor="middle" x="398" y="-146" font-family="Helvetica,sans-Serif" font-size="10.00">_or_definition_with_implicit_type</text>
</a>
</g>
</g>
<!-- Node2&#45;&gt;Node3 -->
<g id="edge2" class="edge"><title>Node2&#45;&gt;Node3</title>
<path fill="none" stroke="midnightblue" d="M287.336,-154C295.755,-154 304.401,-154 312.966,-154"/>
<polygon fill="midnightblue" stroke="midnightblue" points="287.201,-150.5 277.201,-154 287.201,-157.5 287.201,-150.5"/>
</g>
<!-- Node4 -->
<g id="node4" class="node"><title>Node4</title>
<g id="a_node4"><a xlink:href="../../d0/df6/classCParser.html#ab3ab57ace628c2476dd8dfe5a96f9a15" target="_top" xlink:title="CParser::definition\l_or_declaration">
<polygon fill="white" stroke="black" points="725,-117 725,-147 828,-147 828,-117 725,-117"/>
<text text-anchor="start" x="733" y="-135" font-family="Helvetica,sans-Serif" font-size="10.00">CParser::definition</text>
<text text-anchor="middle" x="776.5" y="-124" font-family="Helvetica,sans-Serif" font-size="10.00">_or_declaration</text>
</a>
</g>
</g>
<!-- Node3&#45;&gt;Node4 -->
<g id="edge3" class="edge"><title>Node3&#45;&gt;Node4</title>
<path fill="none" stroke="midnightblue" d="M493.213,-148.495C566.67,-144.203 665.833,-138.408 724.966,-134.953"/>
<polygon fill="midnightblue" stroke="midnightblue" points="492.804,-145.013 483.025,-149.09 493.213,-152.001 492.804,-145.013"/>
</g>
<!-- Node16 -->
<g id="node16" class="node"><title>Node16</title>
<g id="a_node16"><a xlink:href="../../d0/df6/classCParser.html#a12561a45dab96760d7ab45896681dd33" target="_top" xlink:title="CParser::class_or_method\l_declaration_or_definition">
<polygon fill="white" stroke="black" points="1685,-120 1685,-150 1826,-150 1826,-120 1685,-120"/>
<text text-anchor="start" x="1693" y="-138" font-family="Helvetica,sans-Serif" font-size="10.00">CParser::class_or_method</text>
<text text-anchor="middle" x="1755.5" y="-127" font-family="Helvetica,sans-Serif" font-size="10.00">_declaration_or_definition</text>
</a>
</g>
</g>
<!-- Node3&#45;&gt;Node16 -->
<g id="edge22" class="edge"><title>Node3&#45;&gt;Node16</title>
<path fill="none" stroke="midnightblue" d="M438.78,-173.581C506.294,-204.956 648.376,-263 775.5,-263 775.5,-263 775.5,-263 1414,-263 1540.94,-263 1678.45,-184.092 1731.68,-150.186"/>
<polygon fill="midnightblue" stroke="midnightblue" points="439.91,-170.245 429.371,-169.156 436.931,-176.579 439.91,-170.245"/>
</g>
<!-- Node17 -->
<g id="node17" class="node"><title>Node17</title>
<g id="a_node17"><a xlink:href="../../d0/df6/classCParser.html#af0c9d35d4c997c6f34cf4a26563b513c" target="_top" xlink:title="CParser::method_declaration\l_or_definition_with_explicit_type">
<polygon fill="white" stroke="black" points="519,-95 519,-125 689,-125 689,-95 519,-95"/>
<text text-anchor="start" x="527" y="-113" font-family="Helvetica,sans-Serif" font-size="10.00">CParser::method_declaration</text>
<text text-anchor="middle" x="604" y="-102" font-family="Helvetica,sans-Serif" font-size="10.00">_or_definition_with_explicit_type</text>
</a>
</g>
</g>
<!-- Node3&#45;&gt;Node17 -->
<g id="edge19" class="edge"><title>Node3&#45;&gt;Node17</title>
<path fill="none" stroke="midnightblue" d="M478.56,-136.84C496.637,-132.941 515.704,-128.829 533.333,-125.026"/>
<polygon fill="midnightblue" stroke="midnightblue" points="477.672,-133.451 468.635,-138.981 479.148,-140.294 477.672,-133.451"/>
</g>
<!-- Node5 -->
<g id="node5" class="node"><title>Node5</title>
<g id="a_node5"><a xlink:href="../../d0/df6/classCParser.html#a2b78ab2005bef5c43ee2d4689210eab1" target="_top" xlink:title="CParser::link_item">
<polygon fill="white" stroke="black" points="883.5,-122.5 883.5,-141.5 984.5,-141.5 984.5,-122.5 883.5,-122.5"/>
<text text-anchor="middle" x="934" y="-129.5" font-family="Helvetica,sans-Serif" font-size="10.00">CParser::link_item</text>
</a>
</g>
</g>
<!-- Node4&#45;&gt;Node5 -->
<g id="edge4" class="edge"><title>Node4&#45;&gt;Node5</title>
<path fill="none" stroke="midnightblue" d="M838.524,-132C853.362,-132 869.053,-132 883.294,-132"/>
<polygon fill="midnightblue" stroke="midnightblue" points="838.417,-128.5 828.417,-132 838.416,-135.5 838.417,-128.5"/>
</g>
<!-- Node11 -->
<g id="node11" class="node"><title>Node11</title>
<g id="a_node11"><a xlink:href="../../d0/df6/classCParser.html#a85eb09132fa5a588749cea062f0d11ea" target="_top" xlink:title="CParser::class_block_item">
<polygon fill="white" stroke="black" points="864,-59.5 864,-78.5 1004,-78.5 1004,-59.5 864,-59.5"/>
<text text-anchor="middle" x="934" y="-66.5" font-family="Helvetica,sans-Serif" font-size="10.00">CParser::class_block_item</text>
</a>
</g>
</g>
<!-- Node4&#45;&gt;Node11 -->
<g id="edge12" class="edge"><title>Node4&#45;&gt;Node11</title>
<path fill="none" stroke="midnightblue" d="M824.339,-113.023C852.296,-101.697 886.622,-87.7899 909.117,-78.6761"/>
<polygon fill="midnightblue" stroke="midnightblue" points="822.7,-109.911 814.746,-116.91 825.329,-116.399 822.7,-109.911"/>
</g>
<!-- Node6 -->
<g id="node6" class="node"><title>Node6</title>
<g id="a_node6"><a xlink:href="../../d0/df6/classCParser.html#a4f02da23566af37123efb3768769c09b" target="_top" xlink:title="CParser::start">
<polygon fill="white" stroke="black" points="1064.5,-78.5 1064.5,-97.5 1145.5,-97.5 1145.5,-78.5 1064.5,-78.5"/>
<text text-anchor="middle" x="1105" y="-85.5" font-family="Helvetica,sans-Serif" font-size="10.00">CParser::start</text>
</a>
</g>
</g>
<!-- Node5&#45;&gt;Node6 -->
<g id="edge5" class="edge"><title>Node5&#45;&gt;Node6</title>
<path fill="none" stroke="midnightblue" d="M981.685,-119.845C1008.73,-112.805 1042.28,-104.069 1067.4,-97.5287"/>
<polygon fill="midnightblue" stroke="midnightblue" points="980.466,-116.546 971.67,-122.453 982.23,-123.32 980.466,-116.546"/>
</g>
<!-- Node9 -->
<g id="node9" class="node"><title>Node9</title>
<g id="a_node9"><a xlink:href="../../d0/df6/classCParser.html#a86906e492ff9c606fb3537078f46f93e" target="_top" xlink:title="CParser::extern_linkage\l_block">
<polygon fill="white" stroke="black" points="1040,-166 1040,-196 1170,-196 1170,-166 1040,-166"/>
<text text-anchor="start" x="1048" y="-184" font-family="Helvetica,sans-Serif" font-size="10.00">CParser::extern_linkage</text>
<text text-anchor="middle" x="1105" y="-173" font-family="Helvetica,sans-Serif" font-size="10.00">_block</text>
</a>
</g>
</g>
<!-- Node5&#45;&gt;Node9 -->
<g id="edge8" class="edge"><title>Node5&#45;&gt;Node9</title>
<path fill="none" stroke="midnightblue" d="M994.467,-142.762C1020.21,-149.653 1049.35,-158.438 1071.1,-165.986"/>
<polygon fill="midnightblue" stroke="midnightblue" points="995.353,-139.376 984.792,-140.221 993.574,-146.147 995.353,-139.376"/>
</g>
<!-- Node10 -->
<g id="node10" class="node"><title>Node10</title>
<g id="a_node10"><a xlink:href="../../d0/df6/classCParser.html#a4fad913a0694a5376ad76669d8943122" target="_top" xlink:title="CParser::namespace\l_block">
<polygon fill="white" stroke="black" points="1047.5,-117 1047.5,-147 1162.5,-147 1162.5,-117 1047.5,-117"/>
<text text-anchor="start" x="1055.5" y="-135" font-family="Helvetica,sans-Serif" font-size="10.00">CParser::namespace</text>
<text text-anchor="middle" x="1105" y="-124" font-family="Helvetica,sans-Serif" font-size="10.00">_block</text>
</a>
</g>
</g>
<!-- Node5&#45;&gt;Node10 -->
<g id="edge10" class="edge"><title>Node5&#45;&gt;Node10</title>
<path fill="none" stroke="midnightblue" d="M995.174,-125.505C1012.19,-125.139 1030.65,-125.167 1047.45,-125.589"/>
<polygon fill="midnightblue" stroke="midnightblue" points="994.694,-122.017 984.792,-125.784 994.882,-129.014 994.694,-122.017"/>
</g>
<!-- Node7 -->
<g id="node7" class="node"><title>Node7</title>
<g id="a_node7"><a xlink:href="../../db/d4a/classMain.html#a803470658c644fa9512140f9d8398dd5" target="_top" xlink:title="Main::ParseFiles">
<polygon fill="white" stroke="black" points="1216,-78.5 1216,-97.5 1310,-97.5 1310,-78.5 1216,-78.5"/>
<text text-anchor="middle" x="1263" y="-85.5" font-family="Helvetica,sans-Serif" font-size="10.00">Main::ParseFiles</text>
</a>
</g>
</g>
<!-- Node6&#45;&gt;Node7 -->
<g id="edge6" class="edge"><title>Node6&#45;&gt;Node7</title>
<path fill="none" stroke="midnightblue" d="M1155.87,-88C1175.14,-88 1197.05,-88 1215.94,-88"/>
<polygon fill="midnightblue" stroke="midnightblue" points="1155.77,-84.5001 1145.77,-88 1155.77,-91.5001 1155.77,-84.5001"/>
</g>
<!-- Node8 -->
<g id="node8" class="node"><title>Node8</title>
<g id="a_node8"><a xlink:href="../../d6/d93/ccccmain_8cc.html#a3c04138a5bfe5d72780bb7e82a18e627" target="_top" xlink:title="main">
<polygon fill="white" stroke="black" points="1393.5,-78.5 1393.5,-97.5 1432.5,-97.5 1432.5,-78.5 1393.5,-78.5"/>
<text text-anchor="middle" x="1413" y="-85.5" font-family="Helvetica,sans-Serif" font-size="10.00">main</text>
</a>
</g>
</g>
<!-- Node7&#45;&gt;Node8 -->
<g id="edge7" class="edge"><title>Node7&#45;&gt;Node8</title>
<path fill="none" stroke="midnightblue" d="M1320.15,-88C1346.09,-88 1375.14,-88 1393.49,-88"/>
<polygon fill="midnightblue" stroke="midnightblue" points="1320.02,-84.5001 1310.02,-88 1320.02,-91.5001 1320.02,-84.5001"/>
</g>
<!-- Node9&#45;&gt;Node5 -->
<g id="edge9" class="edge"><title>Node9&#45;&gt;Node5</title>
<path fill="none" stroke="midnightblue" d="M1029.98,-166.243C1001.59,-158.263 971.595,-148.789 953.086,-141.614"/>
<polygon fill="midnightblue" stroke="midnightblue" points="1029.36,-169.703 1039.94,-168.996 1031.23,-162.957 1029.36,-169.703"/>
</g>
<!-- Node10&#45;&gt;Node5 -->
<g id="edge11" class="edge"><title>Node10&#45;&gt;Node5</title>
<path fill="none" stroke="midnightblue" d="M1037.29,-138.615C1019.8,-138.884 1001.23,-138.751 984.792,-138.216"/>
<polygon fill="midnightblue" stroke="midnightblue" points="1037.52,-142.111 1047.45,-138.411 1037.38,-135.113 1037.52,-142.111"/>
</g>
<!-- Node12 -->
<g id="node12" class="node"><title>Node12</title>
<g id="a_node12"><a xlink:href="../../d0/df6/classCParser.html#a4b9f00c05d44a13b3c18b28b52f5be9e" target="_top" xlink:title="CParser::class_block\l_item_list">
<polygon fill="white" stroke="black" points="1048,-29 1048,-59 1162,-59 1162,-29 1048,-29"/>
<text text-anchor="start" x="1056" y="-47" font-family="Helvetica,sans-Serif" font-size="10.00">CParser::class_block</text>
<text text-anchor="middle" x="1105" y="-36" font-family="Helvetica,sans-Serif" font-size="10.00">_item_list</text>
</a>
</g>
</g>
<!-- Node11&#45;&gt;Node12 -->
<g id="edge13" class="edge"><title>Node11&#45;&gt;Node12</title>
<path fill="none" stroke="midnightblue" d="M1009.58,-57.9674C1022.42,-56.0683 1035.57,-54.1233 1047.82,-52.3112"/>
<polygon fill="midnightblue" stroke="midnightblue" points="1008.75,-54.5515 999.374,-59.4773 1009.78,-61.4761 1008.75,-54.5515"/>
</g>
<!-- Node13 -->
<g id="node13" class="node"><title>Node13</title>
<g id="a_node13"><a xlink:href="../../d0/df6/classCParser.html#a06c7cac9034f27ad6d998b49a7b574c8" target="_top" xlink:title="CParser::class_block">
<polygon fill="white" stroke="black" points="1206,-35.5 1206,-54.5 1320,-54.5 1320,-35.5 1206,-35.5"/>
<text text-anchor="middle" x="1263" y="-42.5" font-family="Helvetica,sans-Serif" font-size="10.00">CParser::class_block</text>
</a>
</g>
</g>
<!-- Node12&#45;&gt;Node13 -->
<g id="edge14" class="edge"><title>Node12&#45;&gt;Node13</title>
<path fill="none" stroke="midnightblue" d="M1172.4,-44.4257C1183.51,-44.4969 1194.94,-44.5701 1205.76,-44.6395"/>
<polygon fill="midnightblue" stroke="midnightblue" points="1172.34,-40.9253 1162.32,-44.361 1172.3,-47.9252 1172.34,-40.9253"/>
</g>
<!-- Node14 -->
<g id="node14" class="node"><title>Node14</title>
<g id="a_node14"><a xlink:href="../../d0/df6/classCParser.html#a40fba8426e7ac46e9926515ee81e97f3" target="_top" xlink:title="CParser::class_suffix">
<polygon fill="white" stroke="black" points="1356,-38.5 1356,-57.5 1470,-57.5 1470,-38.5 1356,-38.5"/>
<text text-anchor="middle" x="1413" y="-45.5" font-family="Helvetica,sans-Serif" font-size="10.00">CParser::class_suffix</text>
</a>
</g>
</g>
<!-- Node13&#45;&gt;Node14 -->
<g id="edge15" class="edge"><title>Node13&#45;&gt;Node14</title>
<path fill="none" stroke="midnightblue" d="M1330.56,-46.3491C1338.98,-46.5199 1347.54,-46.6934 1355.78,-46.8604"/>
<polygon fill="midnightblue" stroke="midnightblue" points="1330.44,-42.8462 1320.37,-46.1427 1330.3,-49.8448 1330.44,-42.8462"/>
</g>
<!-- Node15 -->
<g id="node15" class="node"><title>Node15</title>
<g id="a_node15"><a xlink:href="../../d0/df6/classCParser.html#a1ed5fcfb2e97e3551fceabe81989a667" target="_top" xlink:title="CParser::class_declaration\l_or_definition">
<polygon fill="white" stroke="black" points="1506,-120 1506,-150 1649,-150 1649,-120 1506,-120"/>
<text text-anchor="start" x="1514" y="-138" font-family="Helvetica,sans-Serif" font-size="10.00">CParser::class_declaration</text>
<text text-anchor="middle" x="1577.5" y="-127" font-family="Helvetica,sans-Serif" font-size="10.00">_or_definition</text>
</a>
</g>
</g>
<!-- Node14&#45;&gt;Node15 -->
<g id="edge16" class="edge"><title>Node14&#45;&gt;Node15</title>
<path fill="none" stroke="midnightblue" d="M1452.07,-61.1248C1458.15,-63.549 1464.31,-66.205 1470,-69 1500.65,-84.0627 1533.76,-105.474 1554.79,-119.781"/>
<polygon fill="midnightblue" stroke="midnightblue" points="1453.25,-57.8271 1442.66,-57.5192 1450.74,-64.3642 1453.25,-57.8271"/>
</g>
<!-- Node15&#45;&gt;Node4 -->
<g id="edge17" class="edge"><title>Node15&#45;&gt;Node4</title>
<path fill="none" stroke="midnightblue" d="M1536.62,-154.304C1478.22,-180.749 1365.35,-225 1264,-225 1104,-225 1104,-225 1104,-225 991.722,-225 865.747,-173.502 808.634,-147.149"/>
<polygon fill="midnightblue" stroke="midnightblue" points="1538.23,-157.417 1545.85,-150.064 1535.3,-151.056 1538.23,-157.417"/>
</g>
<!-- Node15&#45;&gt;Node16 -->
<g id="edge18" class="edge"><title>Node15&#45;&gt;Node16</title>
<path fill="none" stroke="midnightblue" d="M1659.08,-135C1667.66,-135 1676.33,-135 1684.77,-135"/>
<polygon fill="midnightblue" stroke="midnightblue" points="1659.07,-131.5 1649.07,-135 1659.07,-138.5 1659.07,-131.5"/>
</g>
<!-- Node17&#45;&gt;Node4 -->
<g id="edge20" class="edge"><title>Node17&#45;&gt;Node4</title>
<path fill="none" stroke="midnightblue" d="M699.429,-122.184C708.068,-123.299 716.58,-124.397 724.604,-125.433"/>
<polygon fill="midnightblue" stroke="midnightblue" points="699.617,-118.68 689.251,-120.871 698.721,-125.622 699.617,-118.68"/>
</g>
<!-- Node17&#45;&gt;Node16 -->
<g id="edge21" class="edge"><title>Node17&#45;&gt;Node16</title>
<path fill="none" stroke="midnightblue" d="M639.61,-90.0908C698.07,-58.3943 820.973,-0 933,-0 933,-0 933,-0 1414,-0 1542.77,-0 1680.88,-84.4703 1732.97,-119.776"/>
<polygon fill="midnightblue" stroke="midnightblue" points="637.872,-87.0526 630.793,-94.9356 641.242,-93.1875 637.872,-87.0526"/>
</g>
</g>
</svg>
