<?xml version="1.0" encoding="UTF-8" standalone="no"?>
<!DOCTYPE svg PUBLIC "-//W3C//DTD SVG 1.1//EN"
 "http://www.w3.org/Graphics/SVG/1.1/DTD/svg11.dtd">
<!-- Generated by graphviz version 2.38.0 (20140413.2041)
 -->
<!-- Title: CParser::anonymous_union_definition Pages: 1 -->
<svg width="874pt" height="154pt"
 viewBox="0.00 0.00 874.00 153.50" xmlns="http://www.w3.org/2000/svg" xmlns:xlink="http://www.w3.org/1999/xlink">
<g id="graph0" class="graph" transform="scale(1 1) rotate(0) translate(4 149.5)">
<title>CParser::anonymous_union_definition</title>
<polygon fill="white" stroke="none" points="-4,4 -4,-149.5 870,-149.5 870,4 -4,4"/>
<!-- Node1 -->
<g id="node1" class="node"><title>Node1</title>
<polygon fill="#bfbfbf" stroke="black" points="0,-33 0,-63 114,-63 114,-33 0,-33"/>
<text text-anchor="start" x="8" y="-51" font-family="Helvetica,sans-Serif" font-size="10.00">CParser::anonymous</text>
<text text-anchor="middle" x="57" y="-40" font-family="Helvetica,sans-Serif" font-size="10.00">_union_definition</text>
</g>
<!-- Node2 -->
<g id="node2" class="node"><title>Node2</title>
<g id="a_node2"><a xlink:href="../../d0/df6/classCParser.html#a0a168a887a9f004b6635cd3fb47f565e" target="_top" xlink:title="CParser::brace_block">
<polygon fill="white" stroke="black" points="150,-76.5 150,-95.5 266,-95.5 266,-76.5 150,-76.5"/>
<text text-anchor="middle" x="208" y="-83.5" font-family="Helvetica,sans-Serif" font-size="10.00">CParser::brace_block</text>
</a>
</g>
</g>
<!-- Node1&#45;&gt;Node2 -->
<g id="edge1" class="edge"><title>Node1&#45;&gt;Node2</title>
<path fill="none" stroke="midnightblue" d="M114.331,-62.3662C129.329,-66.1913 145.374,-70.2834 159.827,-73.9692"/>
<polygon fill="midnightblue" stroke="midnightblue" points="158.99,-77.3679 169.545,-76.4478 160.72,-70.585 158.99,-77.3679"/>
</g>
<!-- Node4 -->
<g id="node4" class="node"><title>Node4</title>
<g id="a_node4"><a xlink:href="../../d0/df6/classCParser.html#a5e1630bd24884bb1cbc5680926dce957" target="_top" xlink:title="CParser::syn">
<polygon fill="white" stroke="black" points="478,-57.5 478,-76.5 555,-76.5 555,-57.5 478,-57.5"/>
<text text-anchor="middle" x="516.5" y="-64.5" font-family="Helvetica,sans-Serif" font-size="10.00">CParser::syn</text>
</a>
</g>
</g>
<!-- Node1&#45;&gt;Node4 -->
<g id="edge10" class="edge"><title>Node1&#45;&gt;Node4</title>
<path fill="none" stroke="midnightblue" d="M114.098,-50.3298C204.917,-54.1015 382.542,-61.4782 467.716,-65.0155"/>
<polygon fill="midnightblue" stroke="midnightblue" points="467.742,-68.5195 477.879,-65.4376 468.032,-61.5256 467.742,-68.5195"/>
</g>
<!-- Node8 -->
<g id="node8" class="node"><title>Node8</title>
<g id="a_node8"><a xlink:href="../../d0/df6/classCParser.html#a2847da4a3fa9e0f3493aee68ac157bd4" target="_top" xlink:title="CParser::opt_instance_list">
<polygon fill="white" stroke="black" points="302,-0.5 302,-19.5 442,-19.5 442,-0.5 302,-0.5"/>
<text text-anchor="middle" x="372" y="-7.5" font-family="Helvetica,sans-Serif" font-size="10.00">CParser::opt_instance_list</text>
</a>
</g>
</g>
<!-- Node1&#45;&gt;Node8 -->
<g id="edge8" class="edge"><title>Node1&#45;&gt;Node8</title>
<path fill="none" stroke="midnightblue" d="M114.385,-39.0291C126.141,-37.2684 138.465,-35.5033 150,-34 196.845,-27.8949 249.419,-22.141 291.534,-17.7983"/>
<polygon fill="midnightblue" stroke="midnightblue" points="292.137,-21.2548 301.729,-16.7535 291.424,-14.2913 292.137,-21.2548"/>
</g>
<!-- Node3 -->
<g id="node3" class="node"><title>Node3</title>
<g id="a_node3"><a xlink:href="../../d0/df6/classCParser.html#ad3478bb95eecaaa4fb98396fb1b48d82" target="_top" xlink:title="CParser::skip_until\l_matching_rbrace">
<polygon fill="white" stroke="black" points="320,-115 320,-145 424,-145 424,-115 320,-115"/>
<text text-anchor="start" x="328" y="-133" font-family="Helvetica,sans-Serif" font-size="10.00">CParser::skip_until</text>
<text text-anchor="middle" x="372" y="-122" font-family="Helvetica,sans-Serif" font-size="10.00">_matching_rbrace</text>
</a>
</g>
</g>
<!-- Node2&#45;&gt;Node3 -->
<g id="edge2" class="edge"><title>Node2&#45;&gt;Node3</title>
<path fill="none" stroke="midnightblue" d="M244.152,-95.5473C263.444,-100.787 287.911,-107.433 310.199,-113.486"/>
<polygon fill="midnightblue" stroke="midnightblue" points="309.359,-116.885 319.926,-116.128 311.193,-110.129 309.359,-116.885"/>
</g>
<!-- Node2&#45;&gt;Node4 -->
<g id="edge7" class="edge"><title>Node2&#45;&gt;Node4</title>
<path fill="none" stroke="midnightblue" d="M266.291,-82.4485C324.402,-78.8462 413.314,-73.3345 467.741,-69.9606"/>
<polygon fill="midnightblue" stroke="midnightblue" points="468.053,-73.4481 477.817,-69.336 467.619,-66.4615 468.053,-73.4481"/>
</g>
<!-- Node3&#45;&gt;Node4 -->
<g id="edge3" class="edge"><title>Node3&#45;&gt;Node4</title>
<path fill="none" stroke="midnightblue" d="M407.783,-114.972C418.744,-110.212 430.888,-104.91 442,-100 456.208,-93.7222 471.919,-86.6814 485.157,-80.7207"/>
<polygon fill="midnightblue" stroke="midnightblue" points="486.624,-83.8986 494.302,-76.5977 483.747,-77.5172 486.624,-83.8986"/>
</g>
<!-- Node5 -->
<g id="node5" class="node"><title>Node5</title>
<g id="a_node5"><a xlink:href="../../da/d6a/classParseUtility.html#aabfa4c56607539ef14be2e2a7260006b" target="_top" xlink:title="ParseUtility::syn">
<polygon fill="white" stroke="black" points="591,-57.5 591,-76.5 682,-76.5 682,-57.5 591,-57.5"/>
<text text-anchor="middle" x="636.5" y="-64.5" font-family="Helvetica,sans-Serif" font-size="10.00">ParseUtility::syn</text>
</a>
</g>
</g>
<!-- Node4&#45;&gt;Node5 -->
<g id="edge4" class="edge"><title>Node4&#45;&gt;Node5</title>
<path fill="none" stroke="midnightblue" d="M555.16,-67C563.305,-67 572.076,-67 580.726,-67"/>
<polygon fill="midnightblue" stroke="midnightblue" points="580.779,-70.5001 590.779,-67 580.779,-63.5001 580.779,-70.5001"/>
</g>
<!-- Node6 -->
<g id="node6" class="node"><title>Node6</title>
<g id="a_node6"><a xlink:href="../../d3/d5e/classParseStore.html#ab21a4aeadb4cc4938b58cbefbb8634e8" target="_top" xlink:title="ParseStore::currentInstance">
<polygon fill="white" stroke="black" points="718,-76.5 718,-95.5 866,-95.5 866,-76.5 718,-76.5"/>
<text text-anchor="middle" x="792" y="-83.5" font-family="Helvetica,sans-Serif" font-size="10.00">ParseStore::currentInstance</text>
</a>
</g>
</g>
<!-- Node5&#45;&gt;Node6 -->
<g id="edge5" class="edge"><title>Node5&#45;&gt;Node6</title>
<path fill="none" stroke="midnightblue" d="M682.311,-72.5467C690.412,-73.5494 699.091,-74.6237 707.882,-75.7118"/>
<polygon fill="midnightblue" stroke="midnightblue" points="707.476,-79.1882 717.831,-76.9432 708.336,-72.2412 707.476,-79.1882"/>
</g>
<!-- Node7 -->
<g id="node7" class="node"><title>Node7</title>
<g id="a_node7"><a xlink:href="../../d3/d5e/classParseStore.html#ae7b3d82d22174c1a1165a592d6c1700c" target="_top" xlink:title="ParseStore::filename">
<polygon fill="white" stroke="black" points="735,-38.5 735,-57.5 849,-57.5 849,-38.5 735,-38.5"/>
<text text-anchor="middle" x="792" y="-45.5" font-family="Helvetica,sans-Serif" font-size="10.00">ParseStore::filename</text>
</a>
</g>
</g>
<!-- Node5&#45;&gt;Node7 -->
<g id="edge6" class="edge"><title>Node5&#45;&gt;Node7</title>
<path fill="none" stroke="midnightblue" d="M682.311,-61.4533C695.556,-59.8139 710.345,-57.9833 724.644,-56.2135"/>
<polygon fill="midnightblue" stroke="midnightblue" points="725.446,-59.641 734.94,-54.939 724.586,-52.694 725.446,-59.641"/>
</g>
<!-- Node8&#45;&gt;Node4 -->
<g id="edge9" class="edge"><title>Node8&#45;&gt;Node4</title>
<path fill="none" stroke="midnightblue" d="M402.417,-19.6006C414.737,-23.7841 429.153,-28.8931 442,-34 456.748,-39.8626 472.861,-47.0108 486.232,-53.1534"/>
<polygon fill="midnightblue" stroke="midnightblue" points="484.88,-56.3846 495.425,-57.4157 487.825,-50.034 484.88,-56.3846"/>
</g>
</g>
</svg>
