<?xml version="1.0" encoding="UTF-8" standalone="no"?>
<!DOCTYPE svg PUBLIC "-//W3C//DTD SVG 1.1//EN"
 "http://www.w3.org/Graphics/SVG/1.1/DTD/svg11.dtd">
<!-- Generated by graphviz version 2.38.0 (20140413.2041)
 -->
<!-- Title: CParser::literal Pages: 1 -->
<!--zoomable 331 -->
<svg id="main" version="1.1" xmlns="http://www.w3.org/2000/svg" xmlns:xlink="http://www.w3.org/1999/xlink" xml:space="preserve" onload="init(evt)">
<style type="text/css"><![CDATA[
.edge:hover path { stroke: red; }
.edge:hover polygon { stroke: red; fill: red; }
]]></style>
<script type="text/javascript"><![CDATA[
var edges = document.getElementsByTagName('g');
if (edges && edges.length) {
  for (var i=0;i<edges.length;i++) {
    if (edges[i].id.substr(0,4)=='edge') {
      edges[i].setAttribute('class','edge');
    }
  }
}
]]></script>
        <defs>
                <circle id="rim" cx="0" cy="0" r="7"/>
                <circle id="rim2" cx="0" cy="0" r="3.5"/>
                <g id="zoomPlus">
                        <use xlink:href="#rim" fill="#404040">
                                <set attributeName="fill" to="#808080" begin="zoomplus.mouseover" end="zoomplus.mouseout"/>
                        </use>
                        <path d="M-4,0h8M0,-4v8" fill="none" stroke="white" stroke-width="1.5" pointer-events="none"/>
                </g>
                <g id="zoomMin">
                        <use xlink:href="#rim" fill="#404040">
                                <set attributeName="fill" to="#808080" begin="zoomminus.mouseover" end="zoomminus.mouseout"/>
                        </use>
                        <path d="M-4,0h8" fill="none" stroke="white" stroke-width="1.5" pointer-events="none"/>
                </g>
                <g id="dirArrow">
                        <path fill="none" stroke="white" stroke-width="1.5" d="M0,-3.0v7 M-2.5,-0.5L0,-3.0L2.5,-0.5"/>
                </g>
               <g id="resetDef">
                       <use xlink:href="#rim2" fill="#404040">
                               <set attributeName="fill" to="#808080" begin="reset.mouseover" end="reset.mouseout"/>
                       </use>
               </g>
        </defs>

<script type="text/javascript">
var viewWidth = 3601;
var viewHeight = 331;
var sectionId = 'dynsection-117';
</script>
<script xlink:href="../../svgpan.js"/>
<svg id="graph" class="graph">
<g id="viewport">
<title>CParser::literal</title>
<polygon fill="white" stroke="none" points="-4,4 -4,-327 3597,-327 3597,4 -4,4"/>
<!-- Node1 -->
<g id="node1" class="node"><title>Node1</title>
<polygon fill="#bfbfbf" stroke="black" points="0,-74.5 0,-93.5 86,-93.5 86,-74.5 0,-74.5"/>
<text text-anchor="middle" x="43" y="-81.5" font-family="Helvetica,sans-Serif" font-size="10.00">CParser::literal</text>
</g>
<!-- Node2 -->
<g id="node2" class="node"><title>Node2</title>
<g id="a_node2"><a xlink:href="../../d0/df6/classCParser.html#aafddea1c1b7e4873c90f0ef88644cdd2" target="_top" xlink:title="CParser::param_spec">
<polygon fill="white" stroke="black" points="122,-74.5 122,-93.5 241,-93.5 241,-74.5 122,-74.5"/>
<text text-anchor="middle" x="181.5" y="-81.5" font-family="Helvetica,sans-Serif" font-size="10.00">CParser::param_spec</text>
</a>
</g>
</g>
<!-- Node1&#45;&gt;Node2 -->
<g id="edge1" class="edge"><title>Node1&#45;&gt;Node2</title>
<path fill="none" stroke="midnightblue" d="M96.0953,-84C104.486,-84 113.223,-84 121.758,-84"/>
<polygon fill="midnightblue" stroke="midnightblue" points="96.0683,-80.5001 86.0683,-84 96.0683,-87.5001 96.0683,-80.5001"/>
</g>
<!-- Node23 -->
<g id="node23" class="node"><title>Node23</title>
<g id="a_node23"><a xlink:href="../../d0/df6/classCParser.html#af54caee0e45703b090b9734347de7911" target="_top" xlink:title="CParser::constant">
<polygon fill="white" stroke="black" points="595.5,-14.5 595.5,-33.5 696.5,-33.5 696.5,-14.5 595.5,-14.5"/>
<text text-anchor="middle" x="646" y="-21.5" font-family="Helvetica,sans-Serif" font-size="10.00">CParser::constant</text>
</a>
</g>
</g>
<!-- Node1&#45;&gt;Node23 -->
<g id="edge29" class="edge"><title>Node1&#45;&gt;Node23</title>
<path fill="none" stroke="midnightblue" d="M87.8229,-72.0175C98.9041,-69.3495 110.831,-66.7863 122,-65 294.449,-37.4205 501.983,-28.1539 595.293,-25.2397"/>
<polygon fill="midnightblue" stroke="midnightblue" points="86.7896,-68.6678 77.93,-74.4779 88.4791,-75.4609 86.7896,-68.6678"/>
</g>
<!-- Node35 -->
<g id="node35" class="node"><title>Node35</title>
<g id="a_node35"><a xlink:href="../../d0/df6/classCParser.html#a52e049b9361b6e9c7a2c4f6266d98916" target="_top" xlink:title="CParser::scoped">
<polygon fill="white" stroke="black" points="134,-126.5 134,-145.5 229,-145.5 229,-126.5 134,-126.5"/>
<text text-anchor="middle" x="181.5" y="-133.5" font-family="Helvetica,sans-Serif" font-size="10.00">CParser::scoped</text>
</a>
</g>
</g>
<!-- Node1&#45;&gt;Node35 -->
<g id="edge43" class="edge"><title>Node1&#45;&gt;Node35</title>
<path fill="none" stroke="midnightblue" d="M78.4371,-97.1189C102.306,-106.212 133.558,-118.117 155.16,-126.347"/>
<polygon fill="midnightblue" stroke="midnightblue" points="79.6271,-93.8269 69.0362,-93.5376 77.1351,-100.368 79.6271,-93.8269"/>
</g>
<!-- Node3 -->
<g id="node3" class="node"><title>Node3</title>
<g id="a_node3"><a xlink:href="../../d0/df6/classCParser.html#afe2b338c3a7a63e56c81f6b0ec17debd" target="_top" xlink:title="CParser::param_item">
<polygon fill="white" stroke="black" points="277,-74.5 277,-93.5 393,-93.5 393,-74.5 277,-74.5"/>
<text text-anchor="middle" x="335" y="-81.5" font-family="Helvetica,sans-Serif" font-size="10.00">CParser::param_item</text>
</a>
</g>
</g>
<!-- Node2&#45;&gt;Node3 -->
<g id="edge2" class="edge"><title>Node2&#45;&gt;Node3</title>
<path fill="none" stroke="midnightblue" d="M251.298,-84C259.75,-84 268.319,-84 276.579,-84"/>
<polygon fill="midnightblue" stroke="midnightblue" points="251.074,-80.5001 241.074,-84 251.074,-87.5001 251.074,-80.5001"/>
</g>
<!-- Node4 -->
<g id="node4" class="node"><title>Node4</title>
<g id="a_node4"><a xlink:href="../../d0/df6/classCParser.html#ab9745428cd9f00cf216add3af0dbb2cc" target="_top" xlink:title="CParser::param_list\l_items">
<polygon fill="white" stroke="black" points="591.5,-68 591.5,-98 700.5,-98 700.5,-68 591.5,-68"/>
<text text-anchor="start" x="599.5" y="-86" font-family="Helvetica,sans-Serif" font-size="10.00">CParser::param_list</text>
<text text-anchor="middle" x="646" y="-75" font-family="Helvetica,sans-Serif" font-size="10.00">_items</text>
</a>
</g>
</g>
<!-- Node3&#45;&gt;Node4 -->
<g id="edge3" class="edge"><title>Node3&#45;&gt;Node4</title>
<path fill="none" stroke="midnightblue" d="M403.173,-81.5756C411.862,-81.3377 420.641,-81.1348 429,-81 483.215,-80.1258 496.781,-80.4233 551,-81 564.058,-81.1389 578.134,-81.3863 591.317,-81.6608"/>
<polygon fill="midnightblue" stroke="midnightblue" points="402.94,-78.0808 393.045,-81.8691 403.142,-85.0779 402.94,-78.0808"/>
</g>
<!-- Node22 -->
<g id="node22" class="node"><title>Node22</title>
<g id="a_node22"><a xlink:href="../../d0/df6/classCParser.html#ac2385c4ec53b01f101e04378849f4919" target="_top" xlink:title="CParser::more_param\l_items">
<polygon fill="white" stroke="black" points="430,-91 430,-121 550,-121 550,-91 430,-91"/>
<text text-anchor="start" x="438" y="-109" font-family="Helvetica,sans-Serif" font-size="10.00">CParser::more_param</text>
<text text-anchor="middle" x="490" y="-98" font-family="Helvetica,sans-Serif" font-size="10.00">_items</text>
</a>
</g>
</g>
<!-- Node3&#45;&gt;Node22 -->
<g id="edge27" class="edge"><title>Node3&#45;&gt;Node22</title>
<path fill="none" stroke="midnightblue" d="M403.338,-93.6825C412.219,-94.9596 421.268,-96.2608 429.996,-97.5157"/>
<polygon fill="midnightblue" stroke="midnightblue" points="403.803,-90.2136 393.407,-92.2546 402.807,-97.1423 403.803,-90.2136"/>
</g>
<!-- Node5 -->
<g id="node5" class="node"><title>Node5</title>
<g id="a_node5"><a xlink:href="../../d0/df6/classCParser.html#afbe8666c28623fadda88dce63f2d0dd7" target="_top" xlink:title="CParser::param_list">
<polygon fill="white" stroke="black" points="749.5,-76.5 749.5,-95.5 858.5,-95.5 858.5,-76.5 749.5,-76.5"/>
<text text-anchor="middle" x="804" y="-83.5" font-family="Helvetica,sans-Serif" font-size="10.00">CParser::param_list</text>
</a>
</g>
</g>
<!-- Node4&#45;&gt;Node5 -->
<g id="edge4" class="edge"><title>Node4&#45;&gt;Node5</title>
<path fill="none" stroke="midnightblue" d="M710.839,-84.2277C723.674,-84.4745 737.039,-84.7315 749.479,-84.9708"/>
<polygon fill="midnightblue" stroke="midnightblue" points="710.752,-80.7254 700.686,-84.0324 710.617,-87.7242 710.752,-80.7254"/>
</g>
<!-- Node6 -->
<g id="node6" class="node"><title>Node6</title>
<g id="a_node6"><a xlink:href="../../d0/df6/classCParser.html#ab263641e50f3b30b3ac343dd3a5f7e61" target="_top" xlink:title="CParser::method_signature">
<polygon fill="white" stroke="black" points="1217,-29.5 1217,-48.5 1362,-48.5 1362,-29.5 1217,-29.5"/>
<text text-anchor="middle" x="1289.5" y="-36.5" font-family="Helvetica,sans-Serif" font-size="10.00">CParser::method_signature</text>
</a>
</g>
</g>
<!-- Node5&#45;&gt;Node6 -->
<g id="edge5" class="edge"><title>Node5&#45;&gt;Node6</title>
<path fill="none" stroke="midnightblue" d="M855.963,-74.2779C871.038,-71.1692 887.623,-68.0983 903,-66 1011.85,-51.1461 1139.18,-44.2477 1216.81,-41.2048"/>
<polygon fill="midnightblue" stroke="midnightblue" points="854.861,-70.9332 845.801,-76.4245 856.308,-77.7821 854.861,-70.9332"/>
</g>
<!-- Node7 -->
<g id="node7" class="node"><title>Node7</title>
<g id="a_node7"><a xlink:href="../../d0/df6/classCParser.html#a0dd2a579512bf1a17aaeac5fdec860a7" target="_top" xlink:title="CParser::method_declaration\l_or_definition_with_implicit_type">
<polygon fill="white" stroke="black" points="2080,-68 2080,-98 2250,-98 2250,-68 2080,-68"/>
<text text-anchor="start" x="2088" y="-86" font-family="Helvetica,sans-Serif" font-size="10.00">CParser::method_declaration</text>
<text text-anchor="middle" x="2165" y="-75" font-family="Helvetica,sans-Serif" font-size="10.00">_or_definition_with_implicit_type</text>
</a>
</g>
</g>
<!-- Node6&#45;&gt;Node7 -->
<g id="edge6" class="edge"><title>Node6&#45;&gt;Node7</title>
<path fill="none" stroke="midnightblue" d="M1372.48,-39C1444.63,-39 1552.54,-39 1646.5,-39 1646.5,-39 1646.5,-39 1812,-39 1907.77,-39 2017.07,-55.2343 2088.12,-67.9808"/>
<polygon fill="midnightblue" stroke="midnightblue" points="1372.1,-35.5001 1362.1,-39 1372.1,-42.5001 1372.1,-35.5001"/>
</g>
<!-- Node8 -->
<g id="node8" class="node"><title>Node8</title>
<g id="a_node8"><a xlink:href="../../d0/df6/classCParser.html#ab3ab57ace628c2476dd8dfe5a96f9a15" target="_top" xlink:title="CParser::definition\l_or_declaration">
<polygon fill="white" stroke="black" points="2492,-161 2492,-191 2595,-191 2595,-161 2492,-161"/>
<text text-anchor="start" x="2500" y="-179" font-family="Helvetica,sans-Serif" font-size="10.00">CParser::definition</text>
<text text-anchor="middle" x="2543.5" y="-168" font-family="Helvetica,sans-Serif" font-size="10.00">_or_declaration</text>
</a>
</g>
</g>
<!-- Node7&#45;&gt;Node8 -->
<g id="edge7" class="edge"><title>Node7&#45;&gt;Node8</title>
<path fill="none" stroke="midnightblue" d="M2224.77,-100.923C2244.19,-106.637 2265.96,-112.817 2286,-118 2356.94,-136.348 2439.75,-154.488 2491.66,-165.468"/>
<polygon fill="midnightblue" stroke="midnightblue" points="2225.73,-97.5566 2215.15,-98.0739 2223.74,-104.269 2225.73,-97.5566"/>
</g>
<!-- Node20 -->
<g id="node20" class="node"><title>Node20</title>
<g id="a_node20"><a xlink:href="../../d0/df6/classCParser.html#a12561a45dab96760d7ab45896681dd33" target="_top" xlink:title="CParser::class_or_method\l_declaration_or_definition">
<polygon fill="white" stroke="black" points="3452,-73 3452,-103 3593,-103 3593,-73 3452,-73"/>
<text text-anchor="start" x="3460" y="-91" font-family="Helvetica,sans-Serif" font-size="10.00">CParser::class_or_method</text>
<text text-anchor="middle" x="3522.5" y="-80" font-family="Helvetica,sans-Serif" font-size="10.00">_declaration_or_definition</text>
</a>
</g>
</g>
<!-- Node7&#45;&gt;Node20 -->
<g id="edge26" class="edge"><title>Node7&#45;&gt;Node20</title>
<path fill="none" stroke="midnightblue" d="M2260.33,-70.1287C2336.36,-60.8668 2446.11,-50 2542.5,-50 2542.5,-50 2542.5,-50 3181,-50 3275.28,-50 3383.34,-64.5667 3451.98,-75.6625"/>
<polygon fill="midnightblue" stroke="midnightblue" points="2259.8,-66.6682 2250.3,-71.3654 2260.65,-73.6157 2259.8,-66.6682"/>
</g>
<!-- Node21 -->
<g id="node21" class="node"><title>Node21</title>
<g id="a_node21"><a xlink:href="../../d0/df6/classCParser.html#af0c9d35d4c997c6f34cf4a26563b513c" target="_top" xlink:title="CParser::method_declaration\l_or_definition_with_explicit_type">
<polygon fill="white" stroke="black" points="2286,-79 2286,-109 2456,-109 2456,-79 2286,-79"/>
<text text-anchor="start" x="2294" y="-97" font-family="Helvetica,sans-Serif" font-size="10.00">CParser::method_declaration</text>
<text text-anchor="middle" x="2371" y="-86" font-family="Helvetica,sans-Serif" font-size="10.00">_or_definition_with_explicit_type</text>
</a>
</g>
</g>
<!-- Node7&#45;&gt;Node21 -->
<g id="edge23" class="edge"><title>Node7&#45;&gt;Node21</title>
<path fill="none" stroke="midnightblue" d="M2260.4,-88.0903C2268.85,-88.5457 2277.36,-89.0048 2285.71,-89.455"/>
<polygon fill="midnightblue" stroke="midnightblue" points="2260.33,-84.5812 2250.15,-87.5376 2259.95,-91.5711 2260.33,-84.5812"/>
</g>
<!-- Node9 -->
<g id="node9" class="node"><title>Node9</title>
<g id="a_node9"><a xlink:href="../../d0/df6/classCParser.html#a2b78ab2005bef5c43ee2d4689210eab1" target="_top" xlink:title="CParser::link_item">
<polygon fill="white" stroke="black" points="2650.5,-234.5 2650.5,-253.5 2751.5,-253.5 2751.5,-234.5 2650.5,-234.5"/>
<text text-anchor="middle" x="2701" y="-241.5" font-family="Helvetica,sans-Serif" font-size="10.00">CParser::link_item</text>
</a>
</g>
</g>
<!-- Node8&#45;&gt;Node9 -->
<g id="edge8" class="edge"><title>Node8&#45;&gt;Node9</title>
<path fill="none" stroke="midnightblue" d="M2588.21,-195.114C2617.49,-207.921 2654.81,-224.238 2678.06,-234.404"/>
<polygon fill="midnightblue" stroke="midnightblue" points="2589.58,-191.891 2579.01,-191.091 2586.77,-198.305 2589.58,-191.891"/>
</g>
<!-- Node15 -->
<g id="node15" class="node"><title>Node15</title>
<g id="a_node15"><a xlink:href="../../d0/df6/classCParser.html#a85eb09132fa5a588749cea062f0d11ea" target="_top" xlink:title="CParser::class_block_item">
<polygon fill="white" stroke="black" points="2631,-125.5 2631,-144.5 2771,-144.5 2771,-125.5 2631,-125.5"/>
<text text-anchor="middle" x="2701" y="-132.5" font-family="Helvetica,sans-Serif" font-size="10.00">CParser::class_block_item</text>
</a>
</g>
</g>
<!-- Node8&#45;&gt;Node15 -->
<g id="edge16" class="edge"><title>Node8&#45;&gt;Node15</title>
<path fill="none" stroke="midnightblue" d="M2605.28,-159.975C2625.05,-154.762 2646.36,-149.143 2663.75,-144.558"/>
<polygon fill="midnightblue" stroke="midnightblue" points="2604.19,-156.641 2595.42,-162.575 2605.98,-163.41 2604.19,-156.641"/>
</g>
<!-- Node10 -->
<g id="node10" class="node"><title>Node10</title>
<g id="a_node10"><a xlink:href="../../d0/df6/classCParser.html#a4f02da23566af37123efb3768769c09b" target="_top" xlink:title="CParser::start">
<polygon fill="white" stroke="black" points="2831.5,-303.5 2831.5,-322.5 2912.5,-322.5 2912.5,-303.5 2831.5,-303.5"/>
<text text-anchor="middle" x="2872" y="-310.5" font-family="Helvetica,sans-Serif" font-size="10.00">CParser::start</text>
</a>
</g>
</g>
<!-- Node9&#45;&gt;Node10 -->
<g id="edge9" class="edge"><title>Node9&#45;&gt;Node10</title>
<path fill="none" stroke="midnightblue" d="M2728.76,-258.172C2749.69,-268.898 2779.7,-283.522 2807,-294 2815.98,-297.447 2825.87,-300.657 2835.12,-303.42"/>
<polygon fill="midnightblue" stroke="midnightblue" points="2730.32,-255.037 2719.83,-253.547 2727.1,-261.253 2730.32,-255.037"/>
</g>
<!-- Node13 -->
<g id="node13" class="node"><title>Node13</title>
<g id="a_node13"><a xlink:href="../../d0/df6/classCParser.html#a86906e492ff9c606fb3537078f46f93e" target="_top" xlink:title="CParser::extern_linkage\l_block">
<polygon fill="white" stroke="black" points="2807,-254 2807,-284 2937,-284 2937,-254 2807,-254"/>
<text text-anchor="start" x="2815" y="-272" font-family="Helvetica,sans-Serif" font-size="10.00">CParser::extern_linkage</text>
<text text-anchor="middle" x="2872" y="-261" font-family="Helvetica,sans-Serif" font-size="10.00">_block</text>
</a>
</g>
</g>
<!-- Node9&#45;&gt;Node13 -->
<g id="edge12" class="edge"><title>Node9&#45;&gt;Node13</title>
<path fill="none" stroke="midnightblue" d="M2761.91,-246.373C2778.49,-248.465 2796.46,-251.137 2812.94,-253.963"/>
<polygon fill="midnightblue" stroke="midnightblue" points="2762.14,-242.875 2751.79,-245.15 2761.3,-249.825 2762.14,-242.875"/>
</g>
<!-- Node14 -->
<g id="node14" class="node"><title>Node14</title>
<g id="a_node14"><a xlink:href="../../d0/df6/classCParser.html#a4fad913a0694a5376ad76669d8943122" target="_top" xlink:title="CParser::namespace\l_block">
<polygon fill="white" stroke="black" points="2814.5,-205 2814.5,-235 2929.5,-235 2929.5,-205 2814.5,-205"/>
<text text-anchor="start" x="2822.5" y="-223" font-family="Helvetica,sans-Serif" font-size="10.00">CParser::namespace</text>
<text text-anchor="middle" x="2872" y="-212" font-family="Helvetica,sans-Serif" font-size="10.00">_block</text>
</a>
</g>
</g>
<!-- Node9&#45;&gt;Node14 -->
<g id="edge14" class="edge"><title>Node9&#45;&gt;Node14</title>
<path fill="none" stroke="midnightblue" d="M2741.68,-232.542C2763.37,-228.468 2790.62,-224.404 2814.5,-221.615"/>
<polygon fill="midnightblue" stroke="midnightblue" points="2740.97,-229.115 2731.82,-234.473 2742.31,-235.985 2740.97,-229.115"/>
</g>
<!-- Node11 -->
<g id="node11" class="node"><title>Node11</title>
<g id="a_node11"><a xlink:href="../../db/d4a/classMain.html#a803470658c644fa9512140f9d8398dd5" target="_top" xlink:title="Main::ParseFiles">
<polygon fill="white" stroke="black" points="2983,-303.5 2983,-322.5 3077,-322.5 3077,-303.5 2983,-303.5"/>
<text text-anchor="middle" x="3030" y="-310.5" font-family="Helvetica,sans-Serif" font-size="10.00">Main::ParseFiles</text>
</a>
</g>
</g>
<!-- Node10&#45;&gt;Node11 -->
<g id="edge10" class="edge"><title>Node10&#45;&gt;Node11</title>
<path fill="none" stroke="midnightblue" d="M2922.87,-313C2942.14,-313 2964.05,-313 2982.94,-313"/>
<polygon fill="midnightblue" stroke="midnightblue" points="2922.77,-309.5 2912.77,-313 2922.77,-316.5 2922.77,-309.5"/>
</g>
<!-- Node12 -->
<g id="node12" class="node"><title>Node12</title>
<g id="a_node12"><a xlink:href="../../d6/d93/ccccmain_8cc.html#a3c04138a5bfe5d72780bb7e82a18e627" target="_top" xlink:title="main">
<polygon fill="white" stroke="black" points="3160.5,-303.5 3160.5,-322.5 3199.5,-322.5 3199.5,-303.5 3160.5,-303.5"/>
<text text-anchor="middle" x="3180" y="-310.5" font-family="Helvetica,sans-Serif" font-size="10.00">main</text>
</a>
</g>
</g>
<!-- Node11&#45;&gt;Node12 -->
<g id="edge11" class="edge"><title>Node11&#45;&gt;Node12</title>
<path fill="none" stroke="midnightblue" d="M3087.15,-313C3113.09,-313 3142.14,-313 3160.49,-313"/>
<polygon fill="midnightblue" stroke="midnightblue" points="3087.02,-309.5 3077.02,-313 3087.02,-316.5 3087.02,-309.5"/>
</g>
<!-- Node13&#45;&gt;Node9 -->
<g id="edge13" class="edge"><title>Node13&#45;&gt;Node9</title>
<path fill="none" stroke="midnightblue" d="M2797.06,-264.766C2773.73,-261.523 2749.3,-257.422 2731.05,-253.54"/>
<polygon fill="midnightblue" stroke="midnightblue" points="2796.6,-268.235 2806.98,-266.1 2797.53,-261.297 2796.6,-268.235"/>
</g>
<!-- Node14&#45;&gt;Node9 -->
<g id="edge15" class="edge"><title>Node14&#45;&gt;Node9</title>
<path fill="none" stroke="midnightblue" d="M2804.29,-236.089C2786.8,-238.842 2768.23,-241.345 2751.79,-243.145"/>
<polygon fill="midnightblue" stroke="midnightblue" points="2805.14,-239.498 2814.45,-234.442 2804.02,-232.588 2805.14,-239.498"/>
</g>
<!-- Node16 -->
<g id="node16" class="node"><title>Node16</title>
<g id="a_node16"><a xlink:href="../../d0/df6/classCParser.html#a4b9f00c05d44a13b3c18b28b52f5be9e" target="_top" xlink:title="CParser::class_block\l_item_list">
<polygon fill="white" stroke="black" points="2815,-117 2815,-147 2929,-147 2929,-117 2815,-117"/>
<text text-anchor="start" x="2823" y="-135" font-family="Helvetica,sans-Serif" font-size="10.00">CParser::class_block</text>
<text text-anchor="middle" x="2872" y="-124" font-family="Helvetica,sans-Serif" font-size="10.00">_item_list</text>
</a>
</g>
</g>
<!-- Node15&#45;&gt;Node16 -->
<g id="edge17" class="edge"><title>Node15&#45;&gt;Node16</title>
<path fill="none" stroke="midnightblue" d="M2781.5,-133.589C2792.74,-133.389 2804.1,-133.188 2814.79,-132.998"/>
<polygon fill="midnightblue" stroke="midnightblue" points="2781.16,-130.094 2771.23,-133.771 2781.29,-137.093 2781.16,-130.094"/>
</g>
<!-- Node17 -->
<g id="node17" class="node"><title>Node17</title>
<g id="a_node17"><a xlink:href="../../d0/df6/classCParser.html#a06c7cac9034f27ad6d998b49a7b574c8" target="_top" xlink:title="CParser::class_block">
<polygon fill="white" stroke="black" points="2973,-122.5 2973,-141.5 3087,-141.5 3087,-122.5 2973,-122.5"/>
<text text-anchor="middle" x="3030" y="-129.5" font-family="Helvetica,sans-Serif" font-size="10.00">CParser::class_block</text>
</a>
</g>
</g>
<!-- Node16&#45;&gt;Node17 -->
<g id="edge18" class="edge"><title>Node16&#45;&gt;Node17</title>
<path fill="none" stroke="midnightblue" d="M2939.4,-132C2950.51,-132 2961.94,-132 2972.76,-132"/>
<polygon fill="midnightblue" stroke="midnightblue" points="2939.32,-128.5 2929.32,-132 2939.32,-135.5 2939.32,-128.5"/>
</g>
<!-- Node18 -->
<g id="node18" class="node"><title>Node18</title>
<g id="a_node18"><a xlink:href="../../d0/df6/classCParser.html#a40fba8426e7ac46e9926515ee81e97f3" target="_top" xlink:title="CParser::class_suffix">
<polygon fill="white" stroke="black" points="3123,-122.5 3123,-141.5 3237,-141.5 3237,-122.5 3123,-122.5"/>
<text text-anchor="middle" x="3180" y="-129.5" font-family="Helvetica,sans-Serif" font-size="10.00">CParser::class_suffix</text>
</a>
</g>
</g>
<!-- Node17&#45;&gt;Node18 -->
<g id="edge19" class="edge"><title>Node17&#45;&gt;Node18</title>
<path fill="none" stroke="midnightblue" d="M3097.56,-132C3105.98,-132 3114.54,-132 3122.78,-132"/>
<polygon fill="midnightblue" stroke="midnightblue" points="3097.37,-128.5 3087.37,-132 3097.37,-135.5 3097.37,-128.5"/>
</g>
<!-- Node19 -->
<g id="node19" class="node"><title>Node19</title>
<g id="a_node19"><a xlink:href="../../d0/df6/classCParser.html#a1ed5fcfb2e97e3551fceabe81989a667" target="_top" xlink:title="CParser::class_declaration\l_or_definition">
<polygon fill="white" stroke="black" points="3273,-117 3273,-147 3416,-147 3416,-117 3273,-117"/>
<text text-anchor="start" x="3281" y="-135" font-family="Helvetica,sans-Serif" font-size="10.00">CParser::class_declaration</text>
<text text-anchor="middle" x="3344.5" y="-124" font-family="Helvetica,sans-Serif" font-size="10.00">_or_definition</text>
</a>
</g>
</g>
<!-- Node18&#45;&gt;Node19 -->
<g id="edge20" class="edge"><title>Node18&#45;&gt;Node19</title>
<path fill="none" stroke="midnightblue" d="M3247.47,-132C3255.86,-132 3264.46,-132 3272.91,-132"/>
<polygon fill="midnightblue" stroke="midnightblue" points="3247.38,-128.5 3237.38,-132 3247.38,-135.5 3247.38,-128.5"/>
</g>
<!-- Node19&#45;&gt;Node8 -->
<g id="edge21" class="edge"><title>Node19&#45;&gt;Node8</title>
<path fill="none" stroke="midnightblue" d="M3266.36,-148.985C3203.37,-161.373 3111.87,-176 3031,-176 2871,-176 2871,-176 2871,-176 2773.36,-176 2659.3,-176 2595.12,-176"/>
<polygon fill="midnightblue" stroke="midnightblue" points="3267.1,-152.408 3276.22,-147.019 3265.73,-145.543 3267.1,-152.408"/>
</g>
<!-- Node19&#45;&gt;Node20 -->
<g id="edge22" class="edge"><title>Node19&#45;&gt;Node20</title>
<path fill="none" stroke="midnightblue" d="M3415.44,-114.515C3430.65,-110.713 3446.61,-106.723 3461.4,-103.026"/>
<polygon fill="midnightblue" stroke="midnightblue" points="3414.43,-111.16 3405.58,-116.981 3416.13,-117.951 3414.43,-111.16"/>
</g>
<!-- Node21&#45;&gt;Node8 -->
<g id="edge24" class="edge"><title>Node21&#45;&gt;Node8</title>
<path fill="none" stroke="midnightblue" d="M2428.83,-112.564C2438.04,-116.064 2447.38,-119.918 2456,-124 2478.65,-134.721 2502.98,-149.69 2520.06,-160.816"/>
<polygon fill="midnightblue" stroke="midnightblue" points="2429.91,-109.231 2419.32,-109.05 2427.49,-115.798 2429.91,-109.231"/>
</g>
<!-- Node21&#45;&gt;Node20 -->
<g id="edge25" class="edge"><title>Node21&#45;&gt;Node20</title>
<path fill="none" stroke="midnightblue" d="M2466.57,-91.3547C2532.09,-89.7463 2621.34,-88 2700,-88 2700,-88 2700,-88 3181,-88 3274.7,-88 3382.9,-88 3451.72,-88"/>
<polygon fill="midnightblue" stroke="midnightblue" points="2466.17,-87.8634 2456.26,-91.6114 2466.34,-94.8613 2466.17,-87.8634"/>
</g>
<!-- Node22&#45;&gt;Node4 -->
<g id="edge28" class="edge"><title>Node22&#45;&gt;Node4</title>
<path fill="none" stroke="midnightblue" d="M560.073,-95.6839C570.565,-94.1169 581.256,-92.5202 591.354,-91.012"/>
<polygon fill="midnightblue" stroke="midnightblue" points="559.473,-92.2346 550.1,-97.1734 560.507,-99.1578 559.473,-92.2346"/>
</g>
<!-- Node24 -->
<g id="node24" class="node"><title>Node24</title>
<g id="a_node24"><a xlink:href="../../d0/df6/classCParser.html#aa600547e6bdaf5e45d02c89a19c7fa4b" target="_top" xlink:title="CParser::init_expr_item">
<polygon fill="white" stroke="black" points="741,-0.5 741,-19.5 867,-19.5 867,-0.5 741,-0.5"/>
<text text-anchor="middle" x="804" y="-7.5" font-family="Helvetica,sans-Serif" font-size="10.00">CParser::init_expr_item</text>
</a>
</g>
</g>
<!-- Node23&#45;&gt;Node24 -->
<g id="edge30" class="edge"><title>Node23&#45;&gt;Node24</title>
<path fill="none" stroke="midnightblue" d="M706.835,-18.6302C717.964,-17.6314 729.617,-16.5857 740.815,-15.5807"/>
<polygon fill="midnightblue" stroke="midnightblue" points="706.435,-15.1519 696.788,-19.5318 707.061,-22.1239 706.435,-15.1519"/>
</g>
<!-- Node34 -->
<g id="node34" class="node"><title>Node34</title>
<g id="a_node34"><a xlink:href="../../d0/df6/classCParser.html#a8715e75c1e5fe112f10ccf0986cc2c7d" target="_top" xlink:title="CParser::init_value">
<polygon fill="white" stroke="black" points="752,-38.5 752,-57.5 856,-57.5 856,-38.5 752,-38.5"/>
<text text-anchor="middle" x="804" y="-45.5" font-family="Helvetica,sans-Serif" font-size="10.00">CParser::init_value</text>
</a>
</g>
</g>
<!-- Node23&#45;&gt;Node34 -->
<g id="edge42" class="edge"><title>Node23&#45;&gt;Node34</title>
<path fill="none" stroke="midnightblue" d="M706.874,-33.2113C721.696,-35.4916 737.442,-37.9142 751.808,-40.1242"/>
<polygon fill="midnightblue" stroke="midnightblue" points="707.204,-29.7211 696.788,-31.6597 706.14,-36.6397 707.204,-29.7211"/>
</g>
<!-- Node25 -->
<g id="node25" class="node"><title>Node25</title>
<g id="a_node25"><a xlink:href="../../d0/df6/classCParser.html#a545c65918de48a33554b6fa86bf7bee4" target="_top" xlink:title="CParser::init_expr">
<polygon fill="white" stroke="black" points="911,-75.5 911,-94.5 1012,-94.5 1012,-75.5 911,-75.5"/>
<text text-anchor="middle" x="961.5" y="-82.5" font-family="Helvetica,sans-Serif" font-size="10.00">CParser::init_expr</text>
</a>
</g>
</g>
<!-- Node24&#45;&gt;Node25 -->
<g id="edge31" class="edge"><title>Node24&#45;&gt;Node25</title>
<path fill="none" stroke="midnightblue" d="M851.045,-22.7374C856.495,-24.6467 861.921,-26.741 867,-29 896.909,-42.3028 929.094,-63.2001 946.82,-75.3524"/>
<polygon fill="midnightblue" stroke="midnightblue" points="851.87,-19.3241 841.277,-19.5052 849.671,-25.9697 851.87,-19.3241"/>
</g>
<!-- Node26 -->
<g id="node26" class="node"><title>Node26</title>
<g id="a_node26"><a xlink:href="../../d0/df6/classCParser.html#aa7fd7f7807fc630d9020e84dbb3445e0" target="_top" xlink:title="CParser::opt_initializer">
<polygon fill="white" stroke="black" points="1057.5,-75.5 1057.5,-94.5 1179.5,-94.5 1179.5,-75.5 1057.5,-75.5"/>
<text text-anchor="middle" x="1118.5" y="-82.5" font-family="Helvetica,sans-Serif" font-size="10.00">CParser::opt_initializer</text>
</a>
</g>
</g>
<!-- Node25&#45;&gt;Node26 -->
<g id="edge32" class="edge"><title>Node25&#45;&gt;Node26</title>
<path fill="none" stroke="midnightblue" d="M1022.69,-85C1034.08,-85 1046.01,-85 1057.4,-85"/>
<polygon fill="midnightblue" stroke="midnightblue" points="1022.4,-81.5001 1012.4,-85 1022.4,-88.5001 1022.4,-81.5001"/>
</g>
<!-- Node27 -->
<g id="node27" class="node"><title>Node27</title>
<g id="a_node27"><a xlink:href="../../d0/df6/classCParser.html#a9104801570f44810a98b9f3a5a76c06c" target="_top" xlink:title="CParser::instance_item">
<polygon fill="white" stroke="black" points="1227,-114.5 1227,-133.5 1352,-133.5 1352,-114.5 1227,-114.5"/>
<text text-anchor="middle" x="1289.5" y="-121.5" font-family="Helvetica,sans-Serif" font-size="10.00">CParser::instance_item</text>
</a>
</g>
</g>
<!-- Node26&#45;&gt;Node27 -->
<g id="edge33" class="edge"><title>Node26&#45;&gt;Node27</title>
<path fill="none" stroke="midnightblue" d="M1170.7,-96.8152C1195.23,-102.476 1224.21,-109.164 1247.29,-114.491"/>
<polygon fill="midnightblue" stroke="midnightblue" points="1171.37,-93.3788 1160.84,-94.5405 1169.8,-100.2 1171.37,-93.3788"/>
</g>
<!-- Node28 -->
<g id="node28" class="node"><title>Node28</title>
<g id="a_node28"><a xlink:href="../../d0/df6/classCParser.html#a6331346ed010ab6c734d29daeb5d896f" target="_top" xlink:title="CParser::instance_declaration">
<polygon fill="white" stroke="black" points="1398,-122.5 1398,-141.5 1556,-141.5 1556,-122.5 1398,-122.5"/>
<text text-anchor="middle" x="1477" y="-129.5" font-family="Helvetica,sans-Serif" font-size="10.00">CParser::instance_declaration</text>
</a>
</g>
</g>
<!-- Node27&#45;&gt;Node28 -->
<g id="edge34" class="edge"><title>Node27&#45;&gt;Node28</title>
<path fill="none" stroke="midnightblue" d="M1362.14,-127.089C1373.82,-127.593 1385.97,-128.117 1397.81,-128.628"/>
<polygon fill="midnightblue" stroke="midnightblue" points="1362.15,-123.587 1352.01,-126.653 1361.85,-130.58 1362.15,-123.587"/>
</g>
<!-- Node30 -->
<g id="node30" class="node"><title>Node30</title>
<g id="a_node30"><a xlink:href="../../d0/df6/classCParser.html#a70d42f7013f81c71092f771ff9232941" target="_top" xlink:title="CParser::ctor_init_item">
<polygon fill="white" stroke="black" points="1415.5,-79.5 1415.5,-98.5 1538.5,-98.5 1538.5,-79.5 1415.5,-79.5"/>
<text text-anchor="middle" x="1477" y="-86.5" font-family="Helvetica,sans-Serif" font-size="10.00">CParser::ctor_init_item</text>
</a>
</g>
</g>
<!-- Node27&#45;&gt;Node30 -->
<g id="edge37" class="edge"><title>Node27&#45;&gt;Node30</title>
<path fill="none" stroke="midnightblue" d="M1351.25,-112.538C1375.24,-108.012 1402.48,-102.872 1425.37,-98.5523"/>
<polygon fill="midnightblue" stroke="midnightblue" points="1350.37,-109.143 1341.19,-114.436 1351.66,-116.021 1350.37,-109.143"/>
</g>
<!-- Node28&#45;&gt;Node8 -->
<g id="edge35" class="edge"><title>Node28&#45;&gt;Node8</title>
<path fill="none" stroke="midnightblue" d="M1527.43,-143.712C1547.39,-148.099 1570.7,-152.792 1592,-156 1688.21,-170.491 1712.7,-176 1810,-176 1810,-176 1810,-176 2166,-176 2282.68,-176 2419.69,-176 2491.95,-176"/>
<polygon fill="midnightblue" stroke="midnightblue" points="1528.15,-140.286 1517.63,-141.523 1526.62,-147.118 1528.15,-140.286"/>
</g>
<!-- Node29 -->
<g id="node29" class="node"><title>Node29</title>
<g id="a_node29"><a xlink:href="../../d0/df6/classCParser.html#a4e7cf3c3b19f9c664f345a10116c2c2c" target="_top" xlink:title="CParser::knr_param\l_decl_list">
<polygon fill="white" stroke="black" points="1592,-117 1592,-147 1703,-147 1703,-117 1592,-117"/>
<text text-anchor="start" x="1600" y="-135" font-family="Helvetica,sans-Serif" font-size="10.00">CParser::knr_param</text>
<text text-anchor="middle" x="1647.5" y="-124" font-family="Helvetica,sans-Serif" font-size="10.00">_decl_list</text>
</a>
</g>
</g>
<!-- Node28&#45;&gt;Node29 -->
<g id="edge36" class="edge"><title>Node28&#45;&gt;Node29</title>
<path fill="none" stroke="midnightblue" d="M1566.5,-132C1575.16,-132 1583.75,-132 1591.92,-132"/>
<polygon fill="midnightblue" stroke="midnightblue" points="1566.33,-128.5 1556.33,-132 1566.33,-135.5 1566.33,-128.5"/>
</g>
<!-- Node31 -->
<g id="node31" class="node"><title>Node31</title>
<g id="a_node31"><a xlink:href="../../d0/df6/classCParser.html#a617e49ab4458d5b4adf577a6a0bc05cd" target="_top" xlink:title="CParser::ctor_init\l_item_list">
<polygon fill="white" stroke="black" points="1598.5,-68 1598.5,-98 1696.5,-98 1696.5,-68 1598.5,-68"/>
<text text-anchor="start" x="1606.5" y="-86" font-family="Helvetica,sans-Serif" font-size="10.00">CParser::ctor_init</text>
<text text-anchor="middle" x="1647.5" y="-75" font-family="Helvetica,sans-Serif" font-size="10.00">_item_list</text>
</a>
</g>
</g>
<!-- Node30&#45;&gt;Node31 -->
<g id="edge38" class="edge"><title>Node30&#45;&gt;Node31</title>
<path fill="none" stroke="midnightblue" d="M1549.08,-86.4689C1565.73,-85.8762 1583.07,-85.2585 1598.44,-84.7113"/>
<polygon fill="midnightblue" stroke="midnightblue" points="1548.7,-82.9801 1538.83,-86.8339 1548.95,-89.9757 1548.7,-82.9801"/>
</g>
<!-- Node32 -->
<g id="node32" class="node"><title>Node32</title>
<g id="a_node32"><a xlink:href="../../d0/df6/classCParser.html#ab6c0eabf2b00874bf8f70b576d96ce52" target="_top" xlink:title="CParser::ctor_init_list">
<polygon fill="white" stroke="black" points="1753,-73.5 1753,-92.5 1869,-92.5 1869,-73.5 1753,-73.5"/>
<text text-anchor="middle" x="1811" y="-80.5" font-family="Helvetica,sans-Serif" font-size="10.00">CParser::ctor_init_list</text>
</a>
</g>
</g>
<!-- Node31&#45;&gt;Node32 -->
<g id="edge39" class="edge"><title>Node31&#45;&gt;Node32</title>
<path fill="none" stroke="midnightblue" d="M1706.69,-83C1721.69,-83 1737.82,-83 1752.76,-83"/>
<polygon fill="midnightblue" stroke="midnightblue" points="1706.52,-79.5001 1696.52,-83 1706.52,-86.5001 1706.52,-79.5001"/>
</g>
<!-- Node33 -->
<g id="node33" class="node"><title>Node33</title>
<g id="a_node33"><a xlink:href="../../d0/df6/classCParser.html#ad7a6fd3a8b7daa3c26191f4512236a59" target="_top" xlink:title="CParser::method_suffix">
<polygon fill="white" stroke="black" points="1919,-73.5 1919,-92.5 2044,-92.5 2044,-73.5 1919,-73.5"/>
<text text-anchor="middle" x="1981.5" y="-80.5" font-family="Helvetica,sans-Serif" font-size="10.00">CParser::method_suffix</text>
</a>
</g>
</g>
<!-- Node32&#45;&gt;Node33 -->
<g id="edge40" class="edge"><title>Node32&#45;&gt;Node33</title>
<path fill="none" stroke="midnightblue" d="M1879.37,-83C1892.42,-83 1906.04,-83 1918.89,-83"/>
<polygon fill="midnightblue" stroke="midnightblue" points="1879.05,-79.5001 1869.05,-83 1879.05,-86.5001 1879.05,-79.5001"/>
</g>
<!-- Node33&#45;&gt;Node7 -->
<g id="edge41" class="edge"><title>Node33&#45;&gt;Node7</title>
<path fill="none" stroke="midnightblue" d="M2054.34,-83C2062.75,-83 2071.4,-83 2079.97,-83"/>
<polygon fill="midnightblue" stroke="midnightblue" points="2054.2,-79.5001 2044.2,-83 2054.2,-86.5001 2054.2,-79.5001"/>
</g>
<!-- Node36 -->
<g id="node36" class="node"><title>Node36</title>
<g id="a_node36"><a xlink:href="../../d0/df6/classCParser.html#a424ec587e8167b682804c23c4804d895" target="_top" xlink:title="CParser::balanced">
<polygon fill="white" stroke="black" points="283.5,-140.5 283.5,-159.5 386.5,-159.5 386.5,-140.5 283.5,-140.5"/>
<text text-anchor="middle" x="335" y="-147.5" font-family="Helvetica,sans-Serif" font-size="10.00">CParser::balanced</text>
</a>
</g>
</g>
<!-- Node35&#45;&gt;Node36 -->
<g id="edge44" class="edge"><title>Node35&#45;&gt;Node36</title>
<path fill="none" stroke="midnightblue" d="M239.462,-141.264C253.846,-142.593 269.194,-144.011 283.249,-145.31"/>
<polygon fill="midnightblue" stroke="midnightblue" points="239.471,-137.75 229.191,-140.315 238.827,-144.72 239.471,-137.75"/>
</g>
<!-- Node37 -->
<g id="node37" class="node"><title>Node37</title>
<g id="a_node37"><a xlink:href="../../d0/df6/classCParser.html#a967d50b91351cf003898543b6d7af7a7" target="_top" xlink:title="CParser::balanced_list">
<polygon fill="white" stroke="black" points="429,-140.5 429,-159.5 551,-159.5 551,-140.5 429,-140.5"/>
<text text-anchor="middle" x="490" y="-147.5" font-family="Helvetica,sans-Serif" font-size="10.00">CParser::balanced_list</text>
</a>
</g>
</g>
<!-- Node36&#45;&gt;Node37 -->
<g id="edge45" class="edge"><title>Node36&#45;&gt;Node37</title>
<path fill="none" stroke="midnightblue" d="M396.577,-150C407.232,-150 418.319,-150 428.959,-150"/>
<polygon fill="midnightblue" stroke="midnightblue" points="396.522,-146.5 386.522,-150 396.522,-153.5 396.522,-146.5"/>
</g>
<!-- Node38 -->
<g id="node38" class="node"><title>Node38</title>
<g id="a_node38"><a xlink:href="../../d0/df6/classCParser.html#a51affc383cd0859af5d84b628c8a2f5c" target="_top" xlink:title="CParser::paren_block">
<polygon fill="white" stroke="black" points="587,-117.5 587,-136.5 705,-136.5 705,-117.5 587,-117.5"/>
<text text-anchor="middle" x="646" y="-124.5" font-family="Helvetica,sans-Serif" font-size="10.00">CParser::paren_block</text>
</a>
</g>
</g>
<!-- Node37&#45;&gt;Node38 -->
<g id="edge46" class="edge"><title>Node37&#45;&gt;Node38</title>
<path fill="none" stroke="midnightblue" d="M561.335,-139.495C569.843,-138.225 578.46,-136.938 586.767,-135.697"/>
<polygon fill="midnightblue" stroke="midnightblue" points="560.796,-136.037 551.423,-140.976 561.83,-142.96 560.796,-136.037"/>
</g>
<!-- Node44 -->
<g id="node44" class="node"><title>Node44</title>
<g id="a_node44"><a xlink:href="../../d0/df6/classCParser.html#ac73c93a601c6e7123e0ebbd7be03b60d" target="_top" xlink:title="CParser::brack_block">
<polygon fill="white" stroke="black" points="588,-216.5 588,-235.5 704,-235.5 704,-216.5 588,-216.5"/>
<text text-anchor="middle" x="646" y="-223.5" font-family="Helvetica,sans-Serif" font-size="10.00">CParser::brack_block</text>
</a>
</g>
</g>
<!-- Node37&#45;&gt;Node44 -->
<g id="edge58" class="edge"><title>Node37&#45;&gt;Node44</title>
<path fill="none" stroke="midnightblue" d="M519.487,-164.059C550.394,-179.311 598.894,-203.246 625.654,-216.453"/>
<polygon fill="midnightblue" stroke="midnightblue" points="521.021,-160.912 510.504,-159.625 517.923,-167.19 521.021,-160.912"/>
</g>
<!-- Node38&#45;&gt;Node5 -->
<g id="edge47" class="edge"><title>Node38&#45;&gt;Node5</title>
<path fill="none" stroke="midnightblue" d="M692.952,-114.923C716.496,-108.735 744.758,-101.307 766.745,-95.5286"/>
<polygon fill="midnightblue" stroke="midnightblue" points="691.964,-111.564 683.182,-117.491 693.743,-118.334 691.964,-111.564"/>
</g>
<!-- Node38&#45;&gt;Node24 -->
<g id="edge54" class="edge"><title>Node38&#45;&gt;Node24</title>
<path fill="none" stroke="midnightblue" d="M697.381,-112.693C700.098,-111.001 702.666,-109.111 705,-107 733.318,-81.3901 712.242,-54.1149 741,-29 745.409,-25.1492 750.586,-22.0789 756.035,-19.6308"/>
<polygon fill="midnightblue" stroke="midnightblue" points="695.535,-109.709 688.302,-117.451 698.784,-115.909 695.535,-109.709"/>
</g>
<!-- Node38&#45;&gt;Node34 -->
<g id="edge55" class="edge"><title>Node38&#45;&gt;Node34</title>
<path fill="none" stroke="midnightblue" d="M693.459,-113.407C697.493,-111.511 701.404,-109.382 705,-107 724.94,-93.7923 720.834,-79.8598 741,-67 746.98,-63.1865 753.772,-60.0994 760.613,-57.6119"/>
<polygon fill="midnightblue" stroke="midnightblue" points="691.772,-110.32 683.908,-117.419 694.483,-116.773 691.772,-110.32"/>
</g>
<!-- Node39 -->
<g id="node39" class="node"><title>Node39</title>
<g id="a_node39"><a xlink:href="../../d0/df6/classCParser.html#a74aee17394e57d00d5cf1cb233f2dd42" target="_top" xlink:title="CParser::fptr_type\l_alias">
<polygon fill="white" stroke="black" points="753,-153 753,-183 855,-183 855,-153 753,-153"/>
<text text-anchor="start" x="761" y="-171" font-family="Helvetica,sans-Serif" font-size="10.00">CParser::fptr_type</text>
<text text-anchor="middle" x="804" y="-160" font-family="Helvetica,sans-Serif" font-size="10.00">_alias</text>
</a>
</g>
</g>
<!-- Node38&#45;&gt;Node39 -->
<g id="edge48" class="edge"><title>Node38&#45;&gt;Node39</title>
<path fill="none" stroke="midnightblue" d="M692.999,-139.089C711.807,-144.033 733.619,-149.765 752.836,-154.816"/>
<polygon fill="midnightblue" stroke="midnightblue" points="693.743,-135.666 683.182,-136.509 691.964,-142.436 693.743,-135.666"/>
</g>
<!-- Node42 -->
<g id="node42" class="node"><title>Node42</title>
<g id="a_node42"><a xlink:href="../../d0/df6/classCParser.html#a5e83377507b06b136005686f47f13fcb" target="_top" xlink:title="CParser::item_specifier">
<polygon fill="white" stroke="black" points="1056,-114.5 1056,-133.5 1181,-133.5 1181,-114.5 1056,-114.5"/>
<text text-anchor="middle" x="1118.5" y="-121.5" font-family="Helvetica,sans-Serif" font-size="10.00">CParser::item_specifier</text>
</a>
</g>
</g>
<!-- Node38&#45;&gt;Node42 -->
<g id="edge52" class="edge"><title>Node38&#45;&gt;Node42</title>
<path fill="none" stroke="midnightblue" d="M715.426,-126.564C806.919,-125.98 967.765,-124.955 1055.74,-124.394"/>
<polygon fill="midnightblue" stroke="midnightblue" points="715.142,-123.065 705.164,-126.629 715.187,-130.065 715.142,-123.065"/>
</g>
<!-- Node43 -->
<g id="node43" class="node"><title>Node43</title>
<g id="a_node43"><a xlink:href="../../d0/df6/classCParser.html#a35e24b97e6c8566e503521071040413f" target="_top" xlink:title="CParser::block">
<polygon fill="white" stroke="black" points="762,-202.5 762,-221.5 846,-221.5 846,-202.5 762,-202.5"/>
<text text-anchor="middle" x="804" y="-209.5" font-family="Helvetica,sans-Serif" font-size="10.00">CParser::block</text>
</a>
</g>
</g>
<!-- Node38&#45;&gt;Node43 -->
<g id="edge56" class="edge"><title>Node38&#45;&gt;Node43</title>
<path fill="none" stroke="midnightblue" d="M666.583,-143.1C684.896,-157.515 713.478,-178.415 741,-192 749.215,-196.055 758.438,-199.546 767.21,-202.424"/>
<polygon fill="midnightblue" stroke="midnightblue" points="668.462,-140.121 658.467,-136.605 664.088,-145.586 668.462,-140.121"/>
</g>
<!-- Node40 -->
<g id="node40" class="node"><title>Node40</title>
<g id="a_node40"><a xlink:href="../../d0/df6/classCParser.html#a7042164da94c48da4e577a2bf0af04c4" target="_top" xlink:title="CParser::fptr_typedef\l_definition">
<polygon fill="white" stroke="black" points="903,-197 903,-227 1020,-227 1020,-197 903,-197"/>
<text text-anchor="start" x="911" y="-215" font-family="Helvetica,sans-Serif" font-size="10.00">CParser::fptr_typedef</text>
<text text-anchor="middle" x="961.5" y="-204" font-family="Helvetica,sans-Serif" font-size="10.00">_definition</text>
</a>
</g>
</g>
<!-- Node39&#45;&gt;Node40 -->
<g id="edge49" class="edge"><title>Node39&#45;&gt;Node40</title>
<path fill="none" stroke="midnightblue" d="M865.034,-184.987C878.968,-188.93 893.703,-193.099 907.319,-196.952"/>
<polygon fill="midnightblue" stroke="midnightblue" points="865.632,-181.519 855.057,-182.164 863.726,-188.255 865.632,-181.519"/>
</g>
<!-- Node41 -->
<g id="node41" class="node"><title>Node41</title>
<g id="a_node41"><a xlink:href="../../d0/df6/classCParser.html#a8c598aa662fff7e10be2ee78e078935a" target="_top" xlink:title="CParser::typedef_definition">
<polygon fill="white" stroke="black" points="1739,-204.5 1739,-223.5 1883,-223.5 1883,-204.5 1739,-204.5"/>
<text text-anchor="middle" x="1811" y="-211.5" font-family="Helvetica,sans-Serif" font-size="10.00">CParser::typedef_definition</text>
</a>
</g>
</g>
<!-- Node40&#45;&gt;Node41 -->
<g id="edge50" class="edge"><title>Node40&#45;&gt;Node41</title>
<path fill="none" stroke="midnightblue" d="M1030.47,-212.66C1096.42,-213.242 1199.32,-214 1288.5,-214 1288.5,-214 1288.5,-214 1478,-214 1567.92,-214 1671.53,-214 1738.76,-214"/>
<polygon fill="midnightblue" stroke="midnightblue" points="1030.24,-209.158 1020.21,-212.568 1030.18,-216.157 1030.24,-209.158"/>
</g>
<!-- Node41&#45;&gt;Node8 -->
<g id="edge51" class="edge"><title>Node41&#45;&gt;Node8</title>
<path fill="none" stroke="midnightblue" d="M1893.23,-214.175C2015.58,-213.715 2254.31,-210.004 2456,-190 2467.66,-188.844 2480.13,-187.117 2491.87,-185.267"/>
<polygon fill="midnightblue" stroke="midnightblue" points="1893.18,-210.675 1883.19,-214.206 1893.2,-217.675 1893.18,-210.675"/>
</g>
<!-- Node42&#45;&gt;Node27 -->
<g id="edge53" class="edge"><title>Node42&#45;&gt;Node27</title>
<path fill="none" stroke="midnightblue" d="M1191.65,-124C1203.36,-124 1215.39,-124 1226.82,-124"/>
<polygon fill="midnightblue" stroke="midnightblue" points="1191.47,-120.5 1181.47,-124 1191.47,-127.5 1191.47,-120.5"/>
</g>
<!-- Node43&#45;&gt;Node36 -->
<g id="edge57" class="edge"><title>Node43&#45;&gt;Node36</title>
<path fill="none" stroke="midnightblue" d="M751.699,-207.528C679.454,-200.906 543.732,-187.28 429,-169 412.563,-166.381 394.62,-162.871 378.918,-159.581"/>
<polygon fill="midnightblue" stroke="midnightblue" points="751.612,-211.034 761.888,-208.454 752.246,-204.063 751.612,-211.034"/>
</g>
<!-- Node44&#45;&gt;Node43 -->
<g id="edge59" class="edge"><title>Node44&#45;&gt;Node43</title>
<path fill="none" stroke="midnightblue" d="M714.201,-219.969C730.432,-218.513 747.299,-216.999 761.917,-215.687"/>
<polygon fill="midnightblue" stroke="midnightblue" points="713.85,-216.486 704.203,-220.866 714.476,-223.458 713.85,-216.486"/>
</g>
<!-- Node45 -->
<g id="node45" class="node"><title>Node45</title>
<g id="a_node45"><a xlink:href="../../d0/df6/classCParser.html#a42ff2d36ecac90dd1cf7ac0a3a5862f1" target="_top" xlink:title="CParser::brack_list">
<polygon fill="white" stroke="black" points="909.5,-157.5 909.5,-176.5 1013.5,-176.5 1013.5,-157.5 909.5,-157.5"/>
<text text-anchor="middle" x="961.5" y="-164.5" font-family="Helvetica,sans-Serif" font-size="10.00">CParser::brack_list</text>
</a>
</g>
</g>
<!-- Node44&#45;&gt;Node45 -->
<g id="edge60" class="edge"><title>Node44&#45;&gt;Node45</title>
<path fill="none" stroke="midnightblue" d="M689.804,-237.852C735.935,-248.222 810.35,-257.845 867,-231 889.833,-220.18 882.289,-201.473 903,-187 909.151,-182.702 916.313,-179.249 923.452,-176.504"/>
<polygon fill="midnightblue" stroke="midnightblue" points="690.379,-234.391 679.843,-235.501 688.772,-241.204 690.379,-234.391"/>
</g>
<!-- Node45&#45;&gt;Node27 -->
<g id="edge61" class="edge"><title>Node45&#45;&gt;Node27</title>
<path fill="none" stroke="midnightblue" d="M1024.05,-161.326C1067.9,-157.019 1128.19,-150.559 1181,-143 1199.86,-140.301 1220.47,-136.793 1238.57,-133.527"/>
<polygon fill="midnightblue" stroke="midnightblue" points="1023.45,-157.868 1013.83,-162.32 1024.12,-164.836 1023.45,-157.868"/>
</g>
</g>
</svg>
        <g id="navigator" transform="translate(0 0)" fill="#404254">
                <rect fill="#f2f5e9" fill-opacity="0.5" stroke="#606060" stroke-width=".5" x="0" y="0" width="60" height="60"/>
                <use id="zoomplus" xlink:href="#zoomPlus" x="17" y="9" onmousedown="handleZoom(evt,'in')"/>
                <use id="zoomminus" xlink:href="#zoomMin" x="42" y="9" onmousedown="handleZoom(evt,'out')"/>
                <use id="reset" xlink:href="#resetDef" x="30" y="36" onmousedown="handleReset()"/>
                <g id="arrowUp" xlink:href="#dirArrow" transform="translate(30 24)" onmousedown="handlePan(0,-1)">
                  <use xlink:href="#rim" fill="#404040">
                        <set attributeName="fill" to="#808080" begin="arrowUp.mouseover" end="arrowUp.mouseout"/>
                  </use>
                  <path fill="none" stroke="white" stroke-width="1.5" d="M0,-3.0v7 M-2.5,-0.5L0,-3.0L2.5,-0.5"/>
                </g>
                <g id="arrowRight" xlink:href="#dirArrow" transform="rotate(90) translate(36 -43)" onmousedown="handlePan(1,0)">
                  <use xlink:href="#rim" fill="#404040">
                        <set attributeName="fill" to="#808080" begin="arrowRight.mouseover" end="arrowRight.mouseout"/>
                  </use>
                  <path fill="none" stroke="white" stroke-width="1.5" d="M0,-3.0v7 M-2.5,-0.5L0,-3.0L2.5,-0.5"/>
                </g>
                <g id="arrowDown" xlink:href="#dirArrow" transform="rotate(180) translate(-30 -48)" onmousedown="handlePan(0,1)">
                  <use xlink:href="#rim" fill="#404040">
                        <set attributeName="fill" to="#808080" begin="arrowDown.mouseover" end="arrowDown.mouseout"/>
                  </use>
                  <path fill="none" stroke="white" stroke-width="1.5" d="M0,-3.0v7 M-2.5,-0.5L0,-3.0L2.5,-0.5"/>
                </g>
                <g id="arrowLeft" xlink:href="#dirArrow" transform="rotate(270) translate(-36 17)" onmousedown="handlePan(-1,0)">
                  <use xlink:href="#rim" fill="#404040">
                        <set attributeName="fill" to="#808080" begin="arrowLeft.mouseover" end="arrowLeft.mouseout"/>
                  </use>
                  <path fill="none" stroke="white" stroke-width="1.5" d="M0,-3.0v7 M-2.5,-0.5L0,-3.0L2.5,-0.5"/>
                </g>
        </g>
        <svg viewBox="0 0 15 15" width="100%" height="30px" preserveAspectRatio="xMaxYMin meet">
         <g id="arrow_out" transform="scale(0.3 0.3)">
          <a xlink:href="classCParser_a6125d39bebbef0edc81fe5f030e76759_icgraph_org.svg" target="_base">
           <rect id="button" ry="5" rx="5" y="6" x="6" height="38" width="38"
                fill="#f2f5e9" fill-opacity="0.5" stroke="#606060" stroke-width="1.0"/>
           <path id="arrow"
             d="M 11.500037,31.436501 C 11.940474,20.09759 22.043105,11.32322 32.158766,21.979434 L 37.068811,17.246167 C 37.068811,17.246167 37.088388,32 37.088388,32 L 22.160133,31.978069 C 22.160133,31.978069 26.997745,27.140456 26.997745,27.140456 C 18.528582,18.264221 13.291696,25.230495 11.500037,31.436501 z"
             style="fill:#404040;"/>
          </a>
         </g>
        </svg>
</svg>
