<?xml version="1.0" encoding="UTF-8" standalone="no"?>
<!DOCTYPE svg PUBLIC "-//W3C//DTD SVG 1.1//EN"
 "http://www.w3.org/Graphics/SVG/1.1/DTD/svg11.dtd">
<!-- Generated by graphviz version 2.38.0 (20140413.2041)
 -->
<!-- Title: CParser::link_item Pages: 1 -->
<svg width="480pt" height="127pt"
 viewBox="0.00 0.00 480.00 126.50" xmlns="http://www.w3.org/2000/svg" xmlns:xlink="http://www.w3.org/1999/xlink">
<g id="graph0" class="graph" transform="scale(1 1) rotate(0) translate(4 122.5)">
<title>CParser::link_item</title>
<polygon fill="white" stroke="none" points="-4,4 -4,-122.5 476,-122.5 476,4 -4,4"/>
<!-- Node1 -->
<g id="node1" class="node"><title>Node1</title>
<polygon fill="#bfbfbf" stroke="black" points="0,-55 0,-74 101,-74 101,-55 0,-55"/>
<text text-anchor="middle" x="50.5" y="-62" font-family="Helvetica,sans-Serif" font-size="10.00">CParser::link_item</text>
</g>
<!-- Node2 -->
<g id="node2" class="node"><title>Node2</title>
<g id="a_node2"><a xlink:href="../../d0/df6/classCParser.html#a4f02da23566af37123efb3768769c09b" target="_top" xlink:title="CParser::start">
<polygon fill="white" stroke="black" points="161.5,-99 161.5,-118 242.5,-118 242.5,-99 161.5,-99"/>
<text text-anchor="middle" x="202" y="-106" font-family="Helvetica,sans-Serif" font-size="10.00">CParser::start</text>
</a>
</g>
</g>
<!-- Node1&#45;&gt;Node2 -->
<g id="edge1" class="edge"><title>Node1&#45;&gt;Node2</title>
<path fill="none" stroke="midnightblue" d="M93.7498,-76.9347C117.504,-83.926 146.696,-92.5177 168.624,-98.9713"/>
<polygon fill="midnightblue" stroke="midnightblue" points="94.5206,-73.5132 83.9393,-74.0473 92.5442,-80.2284 94.5206,-73.5132"/>
</g>
<!-- Node5 -->
<g id="node5" class="node"><title>Node5</title>
<g id="a_node5"><a xlink:href="../../d0/df6/classCParser.html#a86906e492ff9c606fb3537078f46f93e" target="_top" xlink:title="CParser::extern_linkage\l_block">
<polygon fill="white" stroke="black" points="137,-49.5 137,-79.5 267,-79.5 267,-49.5 137,-49.5"/>
<text text-anchor="start" x="145" y="-67.5" font-family="Helvetica,sans-Serif" font-size="10.00">CParser::extern_linkage</text>
<text text-anchor="middle" x="202" y="-56.5" font-family="Helvetica,sans-Serif" font-size="10.00">_block</text>
</a>
</g>
</g>
<!-- Node1&#45;&gt;Node5 -->
<g id="edge4" class="edge"><title>Node1&#45;&gt;Node5</title>
<path fill="none" stroke="midnightblue" d="M111.341,-57.8708C119.718,-57.7334 128.355,-57.7132 136.809,-57.8102"/>
<polygon fill="midnightblue" stroke="midnightblue" points="111.2,-54.373 101.281,-58.0965 111.357,-61.3712 111.2,-54.373"/>
</g>
<!-- Node6 -->
<g id="node6" class="node"><title>Node6</title>
<g id="a_node6"><a xlink:href="../../d0/df6/classCParser.html#a4fad913a0694a5376ad76669d8943122" target="_top" xlink:title="CParser::namespace\l_block">
<polygon fill="white" stroke="black" points="144.5,-0.5 144.5,-30.5 259.5,-30.5 259.5,-0.5 144.5,-0.5"/>
<text text-anchor="start" x="152.5" y="-18.5" font-family="Helvetica,sans-Serif" font-size="10.00">CParser::namespace</text>
<text text-anchor="middle" x="202" y="-7.5" font-family="Helvetica,sans-Serif" font-size="10.00">_block</text>
</a>
</g>
</g>
<!-- Node1&#45;&gt;Node6 -->
<g id="edge6" class="edge"><title>Node1&#45;&gt;Node6</title>
<path fill="none" stroke="midnightblue" d="M76.9475,-50.9359C95.4063,-43.5201 121.105,-34.6478 144.327,-27.5036"/>
<polygon fill="midnightblue" stroke="midnightblue" points="75.3754,-47.7995 67.4991,-54.8858 78.0753,-54.2579 75.3754,-47.7995"/>
</g>
<!-- Node3 -->
<g id="node3" class="node"><title>Node3</title>
<g id="a_node3"><a xlink:href="../../db/d4a/classMain.html#a803470658c644fa9512140f9d8398dd5" target="_top" xlink:title="Main::ParseFiles">
<polygon fill="white" stroke="black" points="303,-99 303,-118 397,-118 397,-99 303,-99"/>
<text text-anchor="middle" x="350" y="-106" font-family="Helvetica,sans-Serif" font-size="10.00">Main::ParseFiles</text>
</a>
</g>
</g>
<!-- Node2&#45;&gt;Node3 -->
<g id="edge2" class="edge"><title>Node2&#45;&gt;Node3</title>
<path fill="none" stroke="midnightblue" d="M252.893,-108.5C269.125,-108.5 287.056,-108.5 302.99,-108.5"/>
<polygon fill="midnightblue" stroke="midnightblue" points="252.51,-105 242.51,-108.5 252.51,-112 252.51,-105"/>
</g>
<!-- Node4 -->
<g id="node4" class="node"><title>Node4</title>
<g id="a_node4"><a xlink:href="../../d6/d93/ccccmain_8cc.html#a3c04138a5bfe5d72780bb7e82a18e627" target="_top" xlink:title="main">
<polygon fill="white" stroke="black" points="433,-99 433,-118 472,-118 472,-99 433,-99"/>
<text text-anchor="middle" x="452.5" y="-106" font-family="Helvetica,sans-Serif" font-size="10.00">main</text>
</a>
</g>
</g>
<!-- Node3&#45;&gt;Node4 -->
<g id="edge3" class="edge"><title>Node3&#45;&gt;Node4</title>
<path fill="none" stroke="midnightblue" d="M407.179,-108.5C416.395,-108.5 425.342,-108.5 432.755,-108.5"/>
<polygon fill="midnightblue" stroke="midnightblue" points="407.132,-105 397.132,-108.5 407.132,-112 407.132,-105"/>
</g>
<!-- Node5&#45;&gt;Node1 -->
<g id="edge5" class="edge"><title>Node5&#45;&gt;Node1</title>
<path fill="none" stroke="midnightblue" d="M126.717,-71.2499C118.094,-71.2542 109.462,-71.1388 101.281,-70.9035"/>
<polygon fill="midnightblue" stroke="midnightblue" points="126.83,-74.7494 136.809,-71.1898 126.788,-67.7495 126.83,-74.7494"/>
</g>
<!-- Node6&#45;&gt;Node1 -->
<g id="edge7" class="edge"><title>Node6&#45;&gt;Node1</title>
<path fill="none" stroke="midnightblue" d="M162.334,-34.1691C143.326,-41.2603 120.222,-48.9563 100.038,-54.9579"/>
<polygon fill="midnightblue" stroke="midnightblue" points="163.771,-37.3668 171.863,-30.5281 161.272,-30.8278 163.771,-37.3668"/>
</g>
</g>
</svg>
