<?xml version="1.0" encoding="UTF-8" standalone="no"?>
<!DOCTYPE svg PUBLIC "-//W3C//DTD SVG 1.1//EN"
 "http://www.w3.org/Graphics/SVG/1.1/DTD/svg11.dtd">
<!-- Generated by graphviz version 2.38.0 (20140413.2041)
 -->
<!-- Title: CParser::class_prefix Pages: 1 -->
<svg width="1122pt" height="204pt"
 viewBox="0.00 0.00 1122.00 204.00" xmlns="http://www.w3.org/2000/svg" xmlns:xlink="http://www.w3.org/1999/xlink">
<g id="graph0" class="graph" transform="scale(1 1) rotate(0) translate(4 200)">
<title>CParser::class_prefix</title>
<polygon fill="white" stroke="none" points="-4,4 -4,-200 1118,-200 1118,4 -4,4"/>
<!-- Node1 -->
<g id="node1" class="node"><title>Node1</title>
<polygon fill="#bfbfbf" stroke="black" points="0,-34.5 0,-53.5 116,-53.5 116,-34.5 0,-34.5"/>
<text text-anchor="middle" x="58" y="-41.5" font-family="Helvetica,sans-Serif" font-size="10.00">CParser::class_prefix</text>
</g>
<!-- Node2 -->
<g id="node2" class="node"><title>Node2</title>
<g id="a_node2"><a xlink:href="../../d0/df6/classCParser.html#a1ed5fcfb2e97e3551fceabe81989a667" target="_top" xlink:title="CParser::class_declaration\l_or_definition">
<polygon fill="white" stroke="black" points="152,-29 152,-59 295,-59 295,-29 152,-29"/>
<text text-anchor="start" x="160" y="-47" font-family="Helvetica,sans-Serif" font-size="10.00">CParser::class_declaration</text>
<text text-anchor="middle" x="223.5" y="-36" font-family="Helvetica,sans-Serif" font-size="10.00">_or_definition</text>
</a>
</g>
</g>
<!-- Node1&#45;&gt;Node2 -->
<g id="edge1" class="edge"><title>Node1&#45;&gt;Node2</title>
<path fill="none" stroke="midnightblue" d="M126.321,-44C134.737,-44 143.365,-44 151.83,-44"/>
<polygon fill="midnightblue" stroke="midnightblue" points="126.184,-40.5001 116.184,-44 126.184,-47.5001 126.184,-40.5001"/>
</g>
<!-- Node3 -->
<g id="node3" class="node"><title>Node3</title>
<g id="a_node3"><a xlink:href="../../d0/df6/classCParser.html#ab3ab57ace628c2476dd8dfe5a96f9a15" target="_top" xlink:title="CParser::definition\l_or_declaration">
<polygon fill="white" stroke="black" points="350,-78 350,-108 453,-108 453,-78 350,-78"/>
<text text-anchor="start" x="358" y="-96" font-family="Helvetica,sans-Serif" font-size="10.00">CParser::definition</text>
<text text-anchor="middle" x="401.5" y="-85" font-family="Helvetica,sans-Serif" font-size="10.00">_or_declaration</text>
</a>
</g>
</g>
<!-- Node2&#45;&gt;Node3 -->
<g id="edge2" class="edge"><title>Node2&#45;&gt;Node3</title>
<path fill="none" stroke="midnightblue" d="M288.474,-61.811C308.639,-67.4252 330.627,-73.5468 349.741,-78.8683"/>
<polygon fill="midnightblue" stroke="midnightblue" points="289.314,-58.4118 278.742,-59.1014 287.437,-65.1554 289.314,-58.4118"/>
</g>
<!-- Node14 -->
<g id="node14" class="node"><title>Node14</title>
<g id="a_node14"><a xlink:href="../../d0/df6/classCParser.html#a12561a45dab96760d7ab45896681dd33" target="_top" xlink:title="CParser::class_or_method\l_declaration_or_definition">
<polygon fill="white" stroke="black" points="331,-29 331,-59 472,-59 472,-29 331,-29"/>
<text text-anchor="start" x="339" y="-47" font-family="Helvetica,sans-Serif" font-size="10.00">CParser::class_or_method</text>
<text text-anchor="middle" x="401.5" y="-36" font-family="Helvetica,sans-Serif" font-size="10.00">_declaration_or_definition</text>
</a>
</g>
</g>
<!-- Node2&#45;&gt;Node14 -->
<g id="edge16" class="edge"><title>Node2&#45;&gt;Node14</title>
<path fill="none" stroke="midnightblue" d="M305.08,-44C313.659,-44 322.333,-44 330.772,-44"/>
<polygon fill="midnightblue" stroke="midnightblue" points="305.072,-40.5001 295.072,-44 305.072,-47.5001 305.072,-40.5001"/>
</g>
<!-- Node4 -->
<g id="node4" class="node"><title>Node4</title>
<g id="a_node4"><a xlink:href="../../d0/df6/classCParser.html#a2b78ab2005bef5c43ee2d4689210eab1" target="_top" xlink:title="CParser::link_item">
<polygon fill="white" stroke="black" points="527.5,-107.5 527.5,-126.5 628.5,-126.5 628.5,-107.5 527.5,-107.5"/>
<text text-anchor="middle" x="578" y="-114.5" font-family="Helvetica,sans-Serif" font-size="10.00">CParser::link_item</text>
</a>
</g>
</g>
<!-- Node3&#45;&gt;Node4 -->
<g id="edge3" class="edge"><title>Node3&#45;&gt;Node4</title>
<path fill="none" stroke="midnightblue" d="M463.514,-101.392C484.444,-104.27 507.595,-107.454 527.498,-110.192"/>
<polygon fill="midnightblue" stroke="midnightblue" points="463.825,-97.9016 453.442,-100.006 462.872,-104.836 463.825,-97.9016"/>
</g>
<!-- Node10 -->
<g id="node10" class="node"><title>Node10</title>
<g id="a_node10"><a xlink:href="../../d0/df6/classCParser.html#a85eb09132fa5a588749cea062f0d11ea" target="_top" xlink:title="CParser::class_block_item">
<polygon fill="white" stroke="black" points="508,-51.5 508,-70.5 648,-70.5 648,-51.5 508,-51.5"/>
<text text-anchor="middle" x="578" y="-58.5" font-family="Helvetica,sans-Serif" font-size="10.00">CParser::class_block_item</text>
</a>
</g>
</g>
<!-- Node3&#45;&gt;Node10 -->
<g id="edge11" class="edge"><title>Node3&#45;&gt;Node10</title>
<path fill="none" stroke="midnightblue" d="M463.435,-81.8256C483.546,-78.1376 505.715,-74.0723 525.087,-70.5198"/>
<polygon fill="midnightblue" stroke="midnightblue" points="462.646,-78.4118 453.442,-83.6583 463.909,-85.297 462.646,-78.4118"/>
</g>
<!-- Node5 -->
<g id="node5" class="node"><title>Node5</title>
<g id="a_node5"><a xlink:href="../../d0/df6/classCParser.html#a4f02da23566af37123efb3768769c09b" target="_top" xlink:title="CParser::start">
<polygon fill="white" stroke="black" points="708.5,-176.5 708.5,-195.5 789.5,-195.5 789.5,-176.5 708.5,-176.5"/>
<text text-anchor="middle" x="749" y="-183.5" font-family="Helvetica,sans-Serif" font-size="10.00">CParser::start</text>
</a>
</g>
</g>
<!-- Node4&#45;&gt;Node5 -->
<g id="edge4" class="edge"><title>Node4&#45;&gt;Node5</title>
<path fill="none" stroke="midnightblue" d="M605.765,-131.172C626.687,-141.898 656.702,-156.522 684,-167 692.981,-170.447 702.866,-173.657 712.125,-176.42"/>
<polygon fill="midnightblue" stroke="midnightblue" points="607.324,-128.037 596.834,-126.547 604.105,-134.253 607.324,-128.037"/>
</g>
<!-- Node8 -->
<g id="node8" class="node"><title>Node8</title>
<g id="a_node8"><a xlink:href="../../d0/df6/classCParser.html#a86906e492ff9c606fb3537078f46f93e" target="_top" xlink:title="CParser::extern_linkage\l_block">
<polygon fill="white" stroke="black" points="684,-127 684,-157 814,-157 814,-127 684,-127"/>
<text text-anchor="start" x="692" y="-145" font-family="Helvetica,sans-Serif" font-size="10.00">CParser::extern_linkage</text>
<text text-anchor="middle" x="749" y="-134" font-family="Helvetica,sans-Serif" font-size="10.00">_block</text>
</a>
</g>
</g>
<!-- Node4&#45;&gt;Node8 -->
<g id="edge7" class="edge"><title>Node4&#45;&gt;Node8</title>
<path fill="none" stroke="midnightblue" d="M638.912,-119.373C655.494,-121.465 673.461,-124.137 689.936,-126.963"/>
<polygon fill="midnightblue" stroke="midnightblue" points="639.139,-115.875 628.792,-118.15 638.299,-122.825 639.139,-115.875"/>
</g>
<!-- Node9 -->
<g id="node9" class="node"><title>Node9</title>
<g id="a_node9"><a xlink:href="../../d0/df6/classCParser.html#a4fad913a0694a5376ad76669d8943122" target="_top" xlink:title="CParser::namespace\l_block">
<polygon fill="white" stroke="black" points="691.5,-78 691.5,-108 806.5,-108 806.5,-78 691.5,-78"/>
<text text-anchor="start" x="699.5" y="-96" font-family="Helvetica,sans-Serif" font-size="10.00">CParser::namespace</text>
<text text-anchor="middle" x="749" y="-85" font-family="Helvetica,sans-Serif" font-size="10.00">_block</text>
</a>
</g>
</g>
<!-- Node4&#45;&gt;Node9 -->
<g id="edge9" class="edge"><title>Node4&#45;&gt;Node9</title>
<path fill="none" stroke="midnightblue" d="M618.68,-105.542C640.375,-101.468 667.617,-97.4042 691.497,-94.6148"/>
<polygon fill="midnightblue" stroke="midnightblue" points="617.965,-102.115 608.825,-107.473 619.311,-108.985 617.965,-102.115"/>
</g>
<!-- Node6 -->
<g id="node6" class="node"><title>Node6</title>
<g id="a_node6"><a xlink:href="../../db/d4a/classMain.html#a803470658c644fa9512140f9d8398dd5" target="_top" xlink:title="Main::ParseFiles">
<polygon fill="white" stroke="black" points="860,-176.5 860,-195.5 954,-195.5 954,-176.5 860,-176.5"/>
<text text-anchor="middle" x="907" y="-183.5" font-family="Helvetica,sans-Serif" font-size="10.00">Main::ParseFiles</text>
</a>
</g>
</g>
<!-- Node5&#45;&gt;Node6 -->
<g id="edge5" class="edge"><title>Node5&#45;&gt;Node6</title>
<path fill="none" stroke="midnightblue" d="M799.869,-186C819.138,-186 841.051,-186 859.942,-186"/>
<polygon fill="midnightblue" stroke="midnightblue" points="799.769,-182.5 789.769,-186 799.769,-189.5 799.769,-182.5"/>
</g>
<!-- Node7 -->
<g id="node7" class="node"><title>Node7</title>
<g id="a_node7"><a xlink:href="../../d6/d93/ccccmain_8cc.html#a3c04138a5bfe5d72780bb7e82a18e627" target="_top" xlink:title="main">
<polygon fill="white" stroke="black" points="1037.5,-176.5 1037.5,-195.5 1076.5,-195.5 1076.5,-176.5 1037.5,-176.5"/>
<text text-anchor="middle" x="1057" y="-183.5" font-family="Helvetica,sans-Serif" font-size="10.00">main</text>
</a>
</g>
</g>
<!-- Node6&#45;&gt;Node7 -->
<g id="edge6" class="edge"><title>Node6&#45;&gt;Node7</title>
<path fill="none" stroke="midnightblue" d="M964.15,-186C990.09,-186 1019.14,-186 1037.49,-186"/>
<polygon fill="midnightblue" stroke="midnightblue" points="964.017,-182.5 954.017,-186 964.017,-189.5 964.017,-182.5"/>
</g>
<!-- Node8&#45;&gt;Node4 -->
<g id="edge8" class="edge"><title>Node8&#45;&gt;Node4</title>
<path fill="none" stroke="midnightblue" d="M674.065,-137.766C650.729,-134.523 626.302,-130.422 608.052,-126.54"/>
<polygon fill="midnightblue" stroke="midnightblue" points="673.6,-141.235 683.978,-139.1 674.534,-134.297 673.6,-141.235"/>
</g>
<!-- Node9&#45;&gt;Node4 -->
<g id="edge10" class="edge"><title>Node9&#45;&gt;Node4</title>
<path fill="none" stroke="midnightblue" d="M681.292,-109.089C663.795,-111.842 645.232,-114.345 628.792,-116.145"/>
<polygon fill="midnightblue" stroke="midnightblue" points="682.136,-112.498 691.446,-107.442 681.015,-105.588 682.136,-112.498"/>
</g>
<!-- Node11 -->
<g id="node11" class="node"><title>Node11</title>
<g id="a_node11"><a xlink:href="../../d0/df6/classCParser.html#a4b9f00c05d44a13b3c18b28b52f5be9e" target="_top" xlink:title="CParser::class_block\l_item_list">
<polygon fill="white" stroke="black" points="692,-29 692,-59 806,-59 806,-29 692,-29"/>
<text text-anchor="start" x="700" y="-47" font-family="Helvetica,sans-Serif" font-size="10.00">CParser::class_block</text>
<text text-anchor="middle" x="749" y="-36" font-family="Helvetica,sans-Serif" font-size="10.00">_item_list</text>
</a>
</g>
</g>
<!-- Node10&#45;&gt;Node11 -->
<g id="edge12" class="edge"><title>Node10&#45;&gt;Node11</title>
<path fill="none" stroke="midnightblue" d="M658.497,-53.0033C669.741,-51.8722 681.104,-50.7292 691.785,-49.6548"/>
<polygon fill="midnightblue" stroke="midnightblue" points="657.826,-49.553 648.226,-54.0364 658.527,-56.5179 657.826,-49.553"/>
</g>
<!-- Node12 -->
<g id="node12" class="node"><title>Node12</title>
<g id="a_node12"><a xlink:href="../../d0/df6/classCParser.html#a06c7cac9034f27ad6d998b49a7b574c8" target="_top" xlink:title="CParser::class_block">
<polygon fill="white" stroke="black" points="850,-31.5 850,-50.5 964,-50.5 964,-31.5 850,-31.5"/>
<text text-anchor="middle" x="907" y="-38.5" font-family="Helvetica,sans-Serif" font-size="10.00">CParser::class_block</text>
</a>
</g>
</g>
<!-- Node11&#45;&gt;Node12 -->
<g id="edge13" class="edge"><title>Node11&#45;&gt;Node12</title>
<path fill="none" stroke="midnightblue" d="M816.404,-42.723C827.512,-42.5094 838.941,-42.2896 849.763,-42.0815"/>
<polygon fill="midnightblue" stroke="midnightblue" points="816.25,-39.2252 806.32,-42.9169 816.385,-46.2239 816.25,-39.2252"/>
</g>
<!-- Node13 -->
<g id="node13" class="node"><title>Node13</title>
<g id="a_node13"><a xlink:href="../../d0/df6/classCParser.html#a40fba8426e7ac46e9926515ee81e97f3" target="_top" xlink:title="CParser::class_suffix">
<polygon fill="white" stroke="black" points="1000,-11.5 1000,-30.5 1114,-30.5 1114,-11.5 1000,-11.5"/>
<text text-anchor="middle" x="1057" y="-18.5" font-family="Helvetica,sans-Serif" font-size="10.00">CParser::class_suffix</text>
</a>
</g>
</g>
<!-- Node12&#45;&gt;Node13 -->
<g id="edge14" class="edge"><title>Node12&#45;&gt;Node13</title>
<path fill="none" stroke="midnightblue" d="M974.558,-32.0057C982.984,-30.8671 991.539,-29.7109 999.782,-28.597"/>
<polygon fill="midnightblue" stroke="midnightblue" points="973.816,-28.5741 964.375,-33.3818 974.753,-35.511 973.816,-28.5741"/>
</g>
<!-- Node13&#45;&gt;Node2 -->
<g id="edge15" class="edge"><title>Node13&#45;&gt;Node2</title>
<path fill="none" stroke="midnightblue" d="M989.938,-13.8421C928.024,-7.757 832.851,-0 750,-0 577,-0 577,-0 577,-0 467.341,-0 439.364,-2.19816 331,-19 314.766,-21.5171 297.343,-25.1875 281.389,-28.9443"/>
<polygon fill="midnightblue" stroke="midnightblue" points="989.663,-17.332 999.961,-14.8412 990.358,-10.3665 989.663,-17.332"/>
</g>
</g>
</svg>
