<?xml version="1.0" encoding="UTF-8" standalone="no"?>
<!DOCTYPE svg PUBLIC "-//W3C//DTD SVG 1.1//EN"
 "http://www.w3.org/Graphics/SVG/1.1/DTD/svg11.dtd">
<!-- Generated by graphviz version 2.38.0 (20140413.2041)
 -->
<!-- Title: CParser::access_modifier Pages: 1 -->
<svg width="1635pt" height="137pt"
 viewBox="0.00 0.00 1635.00 137.00" xmlns="http://www.w3.org/2000/svg" xmlns:xlink="http://www.w3.org/1999/xlink">
<g id="graph0" class="graph" transform="scale(1 1) rotate(0) translate(4 133)">
<title>CParser::access_modifier</title>
<polygon fill="white" stroke="none" points="-4,4 -4,-133 1631,-133 1631,4 -4,4"/>
<!-- Node1 -->
<g id="node1" class="node"><title>Node1</title>
<polygon fill="#bfbfbf" stroke="black" points="0,-77 0,-96 137,-96 137,-77 0,-77"/>
<text text-anchor="middle" x="68.5" y="-84" font-family="Helvetica,sans-Serif" font-size="10.00">CParser::access_modifier</text>
</g>
<!-- Node2 -->
<g id="node2" class="node"><title>Node2</title>
<g id="a_node2"><a xlink:href="../../d0/df6/classCParser.html#a85eb09132fa5a588749cea062f0d11ea" target="_top" xlink:title="CParser::class_block_item">
<polygon fill="white" stroke="black" points="173,-77 173,-96 313,-96 313,-77 173,-77"/>
<text text-anchor="middle" x="243" y="-84" font-family="Helvetica,sans-Serif" font-size="10.00">CParser::class_block_item</text>
</a>
</g>
</g>
<!-- Node1&#45;&gt;Node2 -->
<g id="edge1" class="edge"><title>Node1&#45;&gt;Node2</title>
<path fill="none" stroke="midnightblue" d="M147.429,-86.5C155.892,-86.5 164.463,-86.5 172.812,-86.5"/>
<polygon fill="midnightblue" stroke="midnightblue" points="147.182,-83.0001 137.181,-86.5 147.181,-90.0001 147.182,-83.0001"/>
</g>
<!-- Node3 -->
<g id="node3" class="node"><title>Node3</title>
<g id="a_node3"><a xlink:href="../../d0/df6/classCParser.html#a4b9f00c05d44a13b3c18b28b52f5be9e" target="_top" xlink:title="CParser::class_block\l_item_list">
<polygon fill="white" stroke="black" points="349,-93.5 349,-123.5 463,-123.5 463,-93.5 349,-93.5"/>
<text text-anchor="start" x="357" y="-111.5" font-family="Helvetica,sans-Serif" font-size="10.00">CParser::class_block</text>
<text text-anchor="middle" x="406" y="-100.5" font-family="Helvetica,sans-Serif" font-size="10.00">_item_list</text>
</a>
</g>
</g>
<!-- Node2&#45;&gt;Node3 -->
<g id="edge2" class="edge"><title>Node2&#45;&gt;Node3</title>
<path fill="none" stroke="midnightblue" d="M323.336,-97.341C331.988,-98.5232 340.657,-99.7078 348.944,-100.84"/>
<polygon fill="midnightblue" stroke="midnightblue" points="323.595,-93.8438 313.213,-95.9577 322.647,-100.779 323.595,-93.8438"/>
</g>
<!-- Node4 -->
<g id="node4" class="node"><title>Node4</title>
<g id="a_node4"><a xlink:href="../../d0/df6/classCParser.html#a06c7cac9034f27ad6d998b49a7b574c8" target="_top" xlink:title="CParser::class_block">
<polygon fill="white" stroke="black" points="499,-99 499,-118 613,-118 613,-99 499,-99"/>
<text text-anchor="middle" x="556" y="-106" font-family="Helvetica,sans-Serif" font-size="10.00">CParser::class_block</text>
</a>
</g>
</g>
<!-- Node3&#45;&gt;Node4 -->
<g id="edge3" class="edge"><title>Node3&#45;&gt;Node4</title>
<path fill="none" stroke="midnightblue" d="M473.558,-108.5C481.984,-108.5 490.539,-108.5 498.782,-108.5"/>
<polygon fill="midnightblue" stroke="midnightblue" points="473.375,-105 463.375,-108.5 473.375,-112 473.375,-105"/>
</g>
<!-- Node5 -->
<g id="node5" class="node"><title>Node5</title>
<g id="a_node5"><a xlink:href="../../d0/df6/classCParser.html#a40fba8426e7ac46e9926515ee81e97f3" target="_top" xlink:title="CParser::class_suffix">
<polygon fill="white" stroke="black" points="649,-99 649,-118 763,-118 763,-99 649,-99"/>
<text text-anchor="middle" x="706" y="-106" font-family="Helvetica,sans-Serif" font-size="10.00">CParser::class_suffix</text>
</a>
</g>
</g>
<!-- Node4&#45;&gt;Node5 -->
<g id="edge4" class="edge"><title>Node4&#45;&gt;Node5</title>
<path fill="none" stroke="midnightblue" d="M623.558,-108.5C631.984,-108.5 640.539,-108.5 648.782,-108.5"/>
<polygon fill="midnightblue" stroke="midnightblue" points="623.375,-105 613.375,-108.5 623.375,-112 623.375,-105"/>
</g>
<!-- Node6 -->
<g id="node6" class="node"><title>Node6</title>
<g id="a_node6"><a xlink:href="../../d0/df6/classCParser.html#a1ed5fcfb2e97e3551fceabe81989a667" target="_top" xlink:title="CParser::class_declaration\l_or_definition">
<polygon fill="white" stroke="black" points="799,-93.5 799,-123.5 942,-123.5 942,-93.5 799,-93.5"/>
<text text-anchor="start" x="807" y="-111.5" font-family="Helvetica,sans-Serif" font-size="10.00">CParser::class_declaration</text>
<text text-anchor="middle" x="870.5" y="-100.5" font-family="Helvetica,sans-Serif" font-size="10.00">_or_definition</text>
</a>
</g>
</g>
<!-- Node5&#45;&gt;Node6 -->
<g id="edge5" class="edge"><title>Node5&#45;&gt;Node6</title>
<path fill="none" stroke="midnightblue" d="M773.473,-108.5C781.858,-108.5 790.46,-108.5 798.905,-108.5"/>
<polygon fill="midnightblue" stroke="midnightblue" points="773.379,-105 763.379,-108.5 773.379,-112 773.379,-105"/>
</g>
<!-- Node7 -->
<g id="node7" class="node"><title>Node7</title>
<g id="a_node7"><a xlink:href="../../d0/df6/classCParser.html#ab3ab57ace628c2476dd8dfe5a96f9a15" target="_top" xlink:title="CParser::definition\l_or_declaration">
<polygon fill="white" stroke="black" points="997,-49.5 997,-79.5 1100,-79.5 1100,-49.5 997,-49.5"/>
<text text-anchor="start" x="1005" y="-67.5" font-family="Helvetica,sans-Serif" font-size="10.00">CParser::definition</text>
<text text-anchor="middle" x="1048.5" y="-56.5" font-family="Helvetica,sans-Serif" font-size="10.00">_or_declaration</text>
</a>
</g>
</g>
<!-- Node6&#45;&gt;Node7 -->
<g id="edge6" class="edge"><title>Node6&#45;&gt;Node7</title>
<path fill="none" stroke="midnightblue" d="M941.419,-91.0202C959.91,-86.3974 979.515,-81.4962 996.773,-77.1817"/>
<polygon fill="midnightblue" stroke="midnightblue" points="940.429,-87.6598 931.577,-93.4808 942.127,-94.4508 940.429,-87.6598"/>
</g>
<!-- Node14 -->
<g id="node14" class="node"><title>Node14</title>
<g id="a_node14"><a xlink:href="../../d0/df6/classCParser.html#a12561a45dab96760d7ab45896681dd33" target="_top" xlink:title="CParser::class_or_method\l_declaration_or_definition">
<polygon fill="white" stroke="black" points="978,-98.5 978,-128.5 1119,-128.5 1119,-98.5 978,-98.5"/>
<text text-anchor="start" x="986" y="-116.5" font-family="Helvetica,sans-Serif" font-size="10.00">CParser::class_or_method</text>
<text text-anchor="middle" x="1048.5" y="-105.5" font-family="Helvetica,sans-Serif" font-size="10.00">_declaration_or_definition</text>
</a>
</g>
</g>
<!-- Node6&#45;&gt;Node14 -->
<g id="edge16" class="edge"><title>Node6&#45;&gt;Node14</title>
<path fill="none" stroke="midnightblue" d="M952.08,-110.789C960.659,-111.033 969.333,-111.279 977.772,-111.519"/>
<polygon fill="midnightblue" stroke="midnightblue" points="952.167,-107.29 942.072,-110.505 951.968,-114.288 952.167,-107.29"/>
</g>
<!-- Node7&#45;&gt;Node2 -->
<g id="edge15" class="edge"><title>Node7&#45;&gt;Node2</title>
<path fill="none" stroke="midnightblue" d="M986.611,-64.5C918.487,-64.5 804.837,-64.5 707,-64.5 555,-64.5 555,-64.5 555,-64.5 471.643,-64.5 376.031,-72.4613 313.073,-78.8055"/>
<polygon fill="midnightblue" stroke="midnightblue" points="986.735,-68.0001 996.735,-64.5 986.735,-61.0001 986.735,-68.0001"/>
</g>
<!-- Node8 -->
<g id="node8" class="node"><title>Node8</title>
<g id="a_node8"><a xlink:href="../../d0/df6/classCParser.html#a2b78ab2005bef5c43ee2d4689210eab1" target="_top" xlink:title="CParser::link_item">
<polygon fill="white" stroke="black" points="1155,-55 1155,-74 1256,-74 1256,-55 1155,-55"/>
<text text-anchor="middle" x="1205.5" y="-62" font-family="Helvetica,sans-Serif" font-size="10.00">CParser::link_item</text>
</a>
</g>
</g>
<!-- Node7&#45;&gt;Node8 -->
<g id="edge7" class="edge"><title>Node7&#45;&gt;Node8</title>
<path fill="none" stroke="midnightblue" d="M1110.33,-64.5C1125.12,-64.5 1140.76,-64.5 1154.95,-64.5"/>
<polygon fill="midnightblue" stroke="midnightblue" points="1110.25,-61.0001 1100.25,-64.5 1110.25,-68.0001 1110.25,-61.0001"/>
</g>
<!-- Node9 -->
<g id="node9" class="node"><title>Node9</title>
<g id="a_node9"><a xlink:href="../../d0/df6/classCParser.html#a4f02da23566af37123efb3768769c09b" target="_top" xlink:title="CParser::start">
<polygon fill="white" stroke="black" points="1316.5,-99 1316.5,-118 1397.5,-118 1397.5,-99 1316.5,-99"/>
<text text-anchor="middle" x="1357" y="-106" font-family="Helvetica,sans-Serif" font-size="10.00">CParser::start</text>
</a>
</g>
</g>
<!-- Node8&#45;&gt;Node9 -->
<g id="edge8" class="edge"><title>Node8&#45;&gt;Node9</title>
<path fill="none" stroke="midnightblue" d="M1248.75,-76.9347C1272.5,-83.926 1301.7,-92.5177 1323.62,-98.9713"/>
<polygon fill="midnightblue" stroke="midnightblue" points="1249.52,-73.5132 1238.94,-74.0473 1247.54,-80.2284 1249.52,-73.5132"/>
</g>
<!-- Node12 -->
<g id="node12" class="node"><title>Node12</title>
<g id="a_node12"><a xlink:href="../../d0/df6/classCParser.html#a86906e492ff9c606fb3537078f46f93e" target="_top" xlink:title="CParser::extern_linkage\l_block">
<polygon fill="white" stroke="black" points="1292,-49.5 1292,-79.5 1422,-79.5 1422,-49.5 1292,-49.5"/>
<text text-anchor="start" x="1300" y="-67.5" font-family="Helvetica,sans-Serif" font-size="10.00">CParser::extern_linkage</text>
<text text-anchor="middle" x="1357" y="-56.5" font-family="Helvetica,sans-Serif" font-size="10.00">_block</text>
</a>
</g>
</g>
<!-- Node8&#45;&gt;Node12 -->
<g id="edge11" class="edge"><title>Node8&#45;&gt;Node12</title>
<path fill="none" stroke="midnightblue" d="M1266.34,-57.8708C1274.72,-57.7334 1283.36,-57.7132 1291.81,-57.8102"/>
<polygon fill="midnightblue" stroke="midnightblue" points="1266.2,-54.373 1256.28,-58.0965 1266.36,-61.3712 1266.2,-54.373"/>
</g>
<!-- Node13 -->
<g id="node13" class="node"><title>Node13</title>
<g id="a_node13"><a xlink:href="../../d0/df6/classCParser.html#a4fad913a0694a5376ad76669d8943122" target="_top" xlink:title="CParser::namespace\l_block">
<polygon fill="white" stroke="black" points="1299.5,-0.5 1299.5,-30.5 1414.5,-30.5 1414.5,-0.5 1299.5,-0.5"/>
<text text-anchor="start" x="1307.5" y="-18.5" font-family="Helvetica,sans-Serif" font-size="10.00">CParser::namespace</text>
<text text-anchor="middle" x="1357" y="-7.5" font-family="Helvetica,sans-Serif" font-size="10.00">_block</text>
</a>
</g>
</g>
<!-- Node8&#45;&gt;Node13 -->
<g id="edge13" class="edge"><title>Node8&#45;&gt;Node13</title>
<path fill="none" stroke="midnightblue" d="M1231.95,-50.9359C1250.41,-43.5201 1276.1,-34.6478 1299.33,-27.5036"/>
<polygon fill="midnightblue" stroke="midnightblue" points="1230.38,-47.7995 1222.5,-54.8858 1233.08,-54.2579 1230.38,-47.7995"/>
</g>
<!-- Node10 -->
<g id="node10" class="node"><title>Node10</title>
<g id="a_node10"><a xlink:href="../../db/d4a/classMain.html#a803470658c644fa9512140f9d8398dd5" target="_top" xlink:title="Main::ParseFiles">
<polygon fill="white" stroke="black" points="1458,-99 1458,-118 1552,-118 1552,-99 1458,-99"/>
<text text-anchor="middle" x="1505" y="-106" font-family="Helvetica,sans-Serif" font-size="10.00">Main::ParseFiles</text>
</a>
</g>
</g>
<!-- Node9&#45;&gt;Node10 -->
<g id="edge9" class="edge"><title>Node9&#45;&gt;Node10</title>
<path fill="none" stroke="midnightblue" d="M1407.89,-108.5C1424.12,-108.5 1442.06,-108.5 1457.99,-108.5"/>
<polygon fill="midnightblue" stroke="midnightblue" points="1407.51,-105 1397.51,-108.5 1407.51,-112 1407.51,-105"/>
</g>
<!-- Node11 -->
<g id="node11" class="node"><title>Node11</title>
<g id="a_node11"><a xlink:href="../../d6/d93/ccccmain_8cc.html#a3c04138a5bfe5d72780bb7e82a18e627" target="_top" xlink:title="main">
<polygon fill="white" stroke="black" points="1588,-99 1588,-118 1627,-118 1627,-99 1588,-99"/>
<text text-anchor="middle" x="1607.5" y="-106" font-family="Helvetica,sans-Serif" font-size="10.00">main</text>
</a>
</g>
</g>
<!-- Node10&#45;&gt;Node11 -->
<g id="edge10" class="edge"><title>Node10&#45;&gt;Node11</title>
<path fill="none" stroke="midnightblue" d="M1562.18,-108.5C1571.4,-108.5 1580.34,-108.5 1587.76,-108.5"/>
<polygon fill="midnightblue" stroke="midnightblue" points="1562.13,-105 1552.13,-108.5 1562.13,-112 1562.13,-105"/>
</g>
<!-- Node12&#45;&gt;Node8 -->
<g id="edge12" class="edge"><title>Node12&#45;&gt;Node8</title>
<path fill="none" stroke="midnightblue" d="M1281.72,-71.2499C1273.09,-71.2542 1264.46,-71.1388 1256.28,-70.9035"/>
<polygon fill="midnightblue" stroke="midnightblue" points="1281.83,-74.7494 1291.81,-71.1898 1281.79,-67.7495 1281.83,-74.7494"/>
</g>
<!-- Node13&#45;&gt;Node8 -->
<g id="edge14" class="edge"><title>Node13&#45;&gt;Node8</title>
<path fill="none" stroke="midnightblue" d="M1317.33,-34.1691C1298.33,-41.2603 1275.22,-48.9563 1255.04,-54.9579"/>
<polygon fill="midnightblue" stroke="midnightblue" points="1318.77,-37.3668 1326.86,-30.5281 1316.27,-30.8278 1318.77,-37.3668"/>
</g>
</g>
</svg>
