<?xml version="1.0" encoding="UTF-8" standalone="no"?>
<!DOCTYPE svg PUBLIC "-//W3C//DTD SVG 1.1//EN"
 "http://www.w3.org/Graphics/SVG/1.1/DTD/svg11.dtd">
<!-- Generated by graphviz version 2.38.0 (20140413.2041)
 -->
<!-- Title: CParser::operator_member_name Pages: 1 -->
<!--zoomable 726 -->
<svg id="main" version="1.1" xmlns="http://www.w3.org/2000/svg" xmlns:xlink="http://www.w3.org/1999/xlink" xml:space="preserve" onload="init(evt)">
<style type="text/css"><![CDATA[
.edge:hover path { stroke: red; }
.edge:hover polygon { stroke: red; fill: red; }
]]></style>
<script type="text/javascript"><![CDATA[
var edges = document.getElementsByTagName('g');
if (edges && edges.length) {
  for (var i=0;i<edges.length;i++) {
    if (edges[i].id.substr(0,4)=='edge') {
      edges[i].setAttribute('class','edge');
    }
  }
}
]]></script>
        <defs>
                <circle id="rim" cx="0" cy="0" r="7"/>
                <circle id="rim2" cx="0" cy="0" r="3.5"/>
                <g id="zoomPlus">
                        <use xlink:href="#rim" fill="#404040">
                                <set attributeName="fill" to="#808080" begin="zoomplus.mouseover" end="zoomplus.mouseout"/>
                        </use>
                        <path d="M-4,0h8M0,-4v8" fill="none" stroke="white" stroke-width="1.5" pointer-events="none"/>
                </g>
                <g id="zoomMin">
                        <use xlink:href="#rim" fill="#404040">
                                <set attributeName="fill" to="#808080" begin="zoomminus.mouseover" end="zoomminus.mouseout"/>
                        </use>
                        <path d="M-4,0h8" fill="none" stroke="white" stroke-width="1.5" pointer-events="none"/>
                </g>
                <g id="dirArrow">
                        <path fill="none" stroke="white" stroke-width="1.5" d="M0,-3.0v7 M-2.5,-0.5L0,-3.0L2.5,-0.5"/>
                </g>
               <g id="resetDef">
                       <use xlink:href="#rim2" fill="#404040">
                               <set attributeName="fill" to="#808080" begin="reset.mouseover" end="reset.mouseout"/>
                       </use>
               </g>
        </defs>

<script type="text/javascript">
var viewWidth = 2006;
var viewHeight = 726;
var sectionId = 'dynsection-143';
</script>
<script xlink:href="../../svgpan.js"/>
<svg id="graph" class="graph">
<g id="viewport">
<title>CParser::operator_member_name</title>
<polygon fill="white" stroke="none" points="-4,4 -4,-721.715 2002,-721.715 2002,4 -4,4"/>
<!-- Node1 -->
<g id="node1" class="node"><title>Node1</title>
<polygon fill="#bfbfbf" stroke="black" points="0,-601 0,-620 176,-620 176,-601 0,-601"/>
<text text-anchor="middle" x="88" y="-608" font-family="Helvetica,sans-Serif" font-size="10.00">CParser::operator_member_name</text>
</g>
<!-- Node2 -->
<g id="node2" class="node"><title>Node2</title>
<g id="a_node2"><a xlink:href="../../d0/df6/classCParser.html#a4bf5a797adb8a33705182662a6a8f45b" target="_top" xlink:title="CParser::operator_identifier">
<polygon fill="white" stroke="black" points="212,-601 212,-620 359,-620 359,-601 212,-601"/>
<text text-anchor="middle" x="285.5" y="-608" font-family="Helvetica,sans-Serif" font-size="10.00">CParser::operator_identifier</text>
</a>
</g>
</g>
<!-- Node1&#45;&gt;Node2 -->
<g id="edge1" class="edge"><title>Node1&#45;&gt;Node2</title>
<path fill="none" stroke="midnightblue" d="M176.172,-610.5C184.642,-610.5 193.219,-610.5 201.644,-610.5"/>
<polygon fill="midnightblue" stroke="midnightblue" points="201.83,-614 211.829,-610.5 201.829,-607 201.83,-614"/>
</g>
<!-- Node4 -->
<g id="node4" class="node"><title>Node4</title>
<g id="a_node4"><a xlink:href="../../d0/df6/classCParser.html#a5e1630bd24884bb1cbc5680926dce957" target="_top" xlink:title="CParser::syn">
<polygon fill="white" stroke="black" points="1610,-354 1610,-373 1687,-373 1687,-354 1610,-354"/>
<text text-anchor="middle" x="1648.5" y="-361" font-family="Helvetica,sans-Serif" font-size="10.00">CParser::syn</text>
</a>
</g>
</g>
<!-- Node1&#45;&gt;Node4 -->
<g id="edge48" class="edge"><title>Node1&#45;&gt;Node4</title>
<path fill="none" stroke="midnightblue" d="M110.634,-620.132C166.919,-644.284 323.04,-705.5 459.5,-705.5 459.5,-705.5 459.5,-705.5 1326,-705.5 1437.14,-705.5 1491.42,-747.875 1574,-673.5 1617.82,-634.036 1639.63,-445.247 1645.7,-383.264"/>
<polygon fill="midnightblue" stroke="midnightblue" points="1649.19,-383.516 1646.65,-373.231 1642.22,-382.856 1649.19,-383.516"/>
</g>
<!-- Node3 -->
<g id="node3" class="node"><title>Node3</title>
<g id="a_node3"><a xlink:href="../../d0/df6/classCParser.html#a177b7d8d53b6d7c2c89bbea896b3d154" target="_top" xlink:title="CParser::op">
<polygon fill="white" stroke="black" points="582.5,-620 582.5,-639 654.5,-639 654.5,-620 582.5,-620"/>
<text text-anchor="middle" x="618.5" y="-627" font-family="Helvetica,sans-Serif" font-size="10.00">CParser::op</text>
</a>
</g>
</g>
<!-- Node2&#45;&gt;Node3 -->
<g id="edge2" class="edge"><title>Node2&#45;&gt;Node3</title>
<path fill="none" stroke="midnightblue" d="M359.139,-614.67C424.037,-618.395 517.101,-623.737 572.019,-626.889"/>
<polygon fill="midnightblue" stroke="midnightblue" points="571.96,-630.392 582.145,-627.471 572.362,-623.403 571.96,-630.392"/>
</g>
<!-- Node2&#45;&gt;Node4 -->
<g id="edge47" class="edge"><title>Node2&#45;&gt;Node4</title>
<path fill="none" stroke="midnightblue" d="M319.533,-620.041C378.722,-636.267 507,-667.5 617.5,-667.5 617.5,-667.5 617.5,-667.5 1326,-667.5 1436.92,-667.5 1489.99,-711.927 1574,-639.5 1613.53,-605.423 1637.75,-440.78 1645.11,-383.329"/>
<polygon fill="midnightblue" stroke="midnightblue" points="1648.62,-383.415 1646.39,-373.059 1641.68,-382.549 1648.62,-383.415"/>
</g>
<!-- Node8 -->
<g id="node8" class="node"><title>Node8</title>
<g id="a_node8"><a xlink:href="../../d0/df6/classCParser.html#ab214b7a662d6c62ddf8d51f0116865cf" target="_top" xlink:title="CParser::new_or_delete">
<polygon fill="white" stroke="black" points="395,-582 395,-601 526,-601 526,-582 395,-582"/>
<text text-anchor="middle" x="460.5" y="-589" font-family="Helvetica,sans-Serif" font-size="10.00">CParser::new_or_delete</text>
</a>
</g>
</g>
<!-- Node2&#45;&gt;Node8 -->
<g id="edge7" class="edge"><title>Node2&#45;&gt;Node8</title>
<path fill="none" stroke="midnightblue" d="M359.116,-602.525C367.53,-601.601 376.125,-600.657 384.569,-599.729"/>
<polygon fill="midnightblue" stroke="midnightblue" points="385.216,-603.18 394.774,-598.609 384.451,-596.221 385.216,-603.18"/>
</g>
<!-- Node9 -->
<g id="node9" class="node"><title>Node9</title>
<g id="a_node9"><a xlink:href="../../d0/df6/classCParser.html#a5426875088dc6d2b5deaef3b61c55135" target="_top" xlink:title="CParser::type">
<polygon fill="white" stroke="black" points="420.5,-477 420.5,-496 500.5,-496 500.5,-477 420.5,-477"/>
<text text-anchor="middle" x="460.5" y="-484" font-family="Helvetica,sans-Serif" font-size="10.00">CParser::type</text>
</a>
</g>
</g>
<!-- Node2&#45;&gt;Node9 -->
<g id="edge9" class="edge"><title>Node2&#45;&gt;Node9</title>
<path fill="none" stroke="midnightblue" d="M299.788,-600.976C329.401,-579.75 401.067,-528.383 437.478,-502.285"/>
<polygon fill="midnightblue" stroke="midnightblue" points="439.84,-504.898 445.928,-496.228 435.762,-499.209 439.84,-504.898"/>
</g>
<!-- Node3&#45;&gt;Node4 -->
<g id="edge3" class="edge"><title>Node3&#45;&gt;Node4</title>
<path fill="none" stroke="midnightblue" d="M654.595,-629.5C713.554,-629.5 836.227,-629.5 940,-629.5 940,-629.5 940,-629.5 1326,-629.5 1436.74,-629.5 1488.33,-675.663 1574,-605.5 1642.89,-549.085 1648.76,-430.203 1648.22,-383.213"/>
<polygon fill="midnightblue" stroke="midnightblue" points="1651.72,-383.049 1647.99,-373.131 1644.72,-383.209 1651.72,-383.049"/>
</g>
<!-- Node5 -->
<g id="node5" class="node"><title>Node5</title>
<g id="a_node5"><a xlink:href="../../da/d6a/classParseUtility.html#aabfa4c56607539ef14be2e2a7260006b" target="_top" xlink:title="ParseUtility::syn">
<polygon fill="white" stroke="black" points="1723,-354 1723,-373 1814,-373 1814,-354 1723,-354"/>
<text text-anchor="middle" x="1768.5" y="-361" font-family="Helvetica,sans-Serif" font-size="10.00">ParseUtility::syn</text>
</a>
</g>
</g>
<!-- Node4&#45;&gt;Node5 -->
<g id="edge4" class="edge"><title>Node4&#45;&gt;Node5</title>
<path fill="none" stroke="midnightblue" d="M1687.16,-363.5C1695.3,-363.5 1704.08,-363.5 1712.73,-363.5"/>
<polygon fill="midnightblue" stroke="midnightblue" points="1712.78,-367 1722.78,-363.5 1712.78,-360 1712.78,-367"/>
</g>
<!-- Node6 -->
<g id="node6" class="node"><title>Node6</title>
<g id="a_node6"><a xlink:href="../../d3/d5e/classParseStore.html#ab21a4aeadb4cc4938b58cbefbb8634e8" target="_top" xlink:title="ParseStore::currentInstance">
<polygon fill="white" stroke="black" points="1850,-373 1850,-392 1998,-392 1998,-373 1850,-373"/>
<text text-anchor="middle" x="1924" y="-380" font-family="Helvetica,sans-Serif" font-size="10.00">ParseStore::currentInstance</text>
</a>
</g>
</g>
<!-- Node5&#45;&gt;Node6 -->
<g id="edge5" class="edge"><title>Node5&#45;&gt;Node6</title>
<path fill="none" stroke="midnightblue" d="M1814.31,-369.047C1822.41,-370.049 1831.09,-371.124 1839.88,-372.212"/>
<polygon fill="midnightblue" stroke="midnightblue" points="1839.48,-375.688 1849.83,-373.443 1840.34,-368.741 1839.48,-375.688"/>
</g>
<!-- Node7 -->
<g id="node7" class="node"><title>Node7</title>
<g id="a_node7"><a xlink:href="../../d3/d5e/classParseStore.html#ae7b3d82d22174c1a1165a592d6c1700c" target="_top" xlink:title="ParseStore::filename">
<polygon fill="white" stroke="black" points="1867,-335 1867,-354 1981,-354 1981,-335 1867,-335"/>
<text text-anchor="middle" x="1924" y="-342" font-family="Helvetica,sans-Serif" font-size="10.00">ParseStore::filename</text>
</a>
</g>
</g>
<!-- Node5&#45;&gt;Node7 -->
<g id="edge6" class="edge"><title>Node5&#45;&gt;Node7</title>
<path fill="none" stroke="midnightblue" d="M1814.31,-357.953C1827.56,-356.314 1842.35,-354.483 1856.64,-352.713"/>
<polygon fill="midnightblue" stroke="midnightblue" points="1857.45,-356.141 1866.94,-351.439 1856.59,-349.194 1857.45,-356.141"/>
</g>
<!-- Node8&#45;&gt;Node4 -->
<g id="edge8" class="edge"><title>Node8&#45;&gt;Node4</title>
<path fill="none" stroke="midnightblue" d="M526.113,-591.5C588.726,-591.5 686.371,-591.5 771,-591.5 771,-591.5 771,-591.5 1326,-591.5 1438.18,-591.5 1487.21,-615.578 1574,-544.5 1624.65,-503.021 1640.71,-421.185 1645.54,-383.437"/>
<polygon fill="midnightblue" stroke="midnightblue" points="1649.05,-383.563 1646.71,-373.23 1642.09,-382.769 1649.05,-383.563"/>
</g>
<!-- Node9&#45;&gt;Node4 -->
<g id="edge46" class="edge"><title>Node9&#45;&gt;Node4</title>
<path fill="none" stroke="midnightblue" d="M487.583,-496.099C540.333,-514.626 663.794,-553.5 771,-553.5 771,-553.5 771,-553.5 1326,-553.5 1438.44,-553.5 1484.02,-570.932 1574,-503.5 1614.5,-473.149 1634.79,-413.906 1642.97,-383.125"/>
<polygon fill="midnightblue" stroke="midnightblue" points="1646.42,-383.728 1645.45,-373.178 1639.63,-382.033 1646.42,-383.728"/>
</g>
<!-- Node10 -->
<g id="node10" class="node"><title>Node10</title>
<g id="a_node10"><a xlink:href="../../d0/df6/classCParser.html#aeb64a7eb39e1e247d6b06c833355fd1d" target="_top" xlink:title="CParser::cv_qualifier">
<polygon fill="white" stroke="black" points="562,-477 562,-496 675,-496 675,-477 562,-477"/>
<text text-anchor="middle" x="618.5" y="-484" font-family="Helvetica,sans-Serif" font-size="10.00">CParser::cv_qualifier</text>
</a>
</g>
</g>
<!-- Node9&#45;&gt;Node10 -->
<g id="edge10" class="edge"><title>Node9&#45;&gt;Node10</title>
<path fill="none" stroke="midnightblue" d="M500.865,-486.5C516.333,-486.5 534.513,-486.5 551.856,-486.5"/>
<polygon fill="midnightblue" stroke="midnightblue" points="551.944,-490 561.944,-486.5 551.944,-483 551.944,-490"/>
</g>
<!-- Node12 -->
<g id="node12" class="node"><title>Node12</title>
<g id="a_node12"><a xlink:href="../../d0/df6/classCParser.html#a03c75fc2be131ba2c0a21fd9687b49ca" target="_top" xlink:title="CParser::type_name">
<polygon fill="white" stroke="black" points="562,-420 562,-439 675,-439 675,-420 562,-420"/>
<text text-anchor="middle" x="618.5" y="-427" font-family="Helvetica,sans-Serif" font-size="10.00">CParser::type_name</text>
</a>
</g>
</g>
<!-- Node9&#45;&gt;Node12 -->
<g id="edge13" class="edge"><title>Node9&#45;&gt;Node12</title>
<path fill="none" stroke="midnightblue" d="M487.611,-476.959C513.37,-467.547 552.948,-453.086 581.647,-442.6"/>
<polygon fill="midnightblue" stroke="midnightblue" points="583.112,-445.791 591.304,-439.072 580.71,-439.216 583.112,-445.791"/>
</g>
<!-- Node26 -->
<g id="node26" class="node"><title>Node26</title>
<g id="a_node26"><a xlink:href="../../d0/df6/classCParser.html#acec16523a6abcc5dcaa503fdfec12d5e" target="_top" xlink:title="CParser::indirection\l_modifiers">
<polygon fill="white" stroke="black" points="1270.5,-38.5 1270.5,-68.5 1379.5,-68.5 1379.5,-38.5 1270.5,-38.5"/>
<text text-anchor="start" x="1278.5" y="-56.5" font-family="Helvetica,sans-Serif" font-size="10.00">CParser::indirection</text>
<text text-anchor="middle" x="1325" y="-45.5" font-family="Helvetica,sans-Serif" font-size="10.00">_modifiers</text>
</a>
</g>
</g>
<!-- Node9&#45;&gt;Node26 -->
<g id="edge42" class="edge"><title>Node9&#45;&gt;Node26</title>
<path fill="none" stroke="midnightblue" d="M463.871,-476.884C479.269,-416.981 570.778,-97.5 771,-97.5 771,-97.5 771,-97.5 942,-97.5 1054.53,-97.5 1184.5,-78.4217 1260.15,-65.3905"/>
<polygon fill="midnightblue" stroke="midnightblue" points="1261.2,-68.7594 1270.45,-63.5945 1260,-61.8634 1261.2,-68.7594"/>
</g>
<!-- Node10&#45;&gt;Node4 -->
<g id="edge12" class="edge"><title>Node10&#45;&gt;Node4</title>
<path fill="none" stroke="midnightblue" d="M675.233,-494.617C739.059,-503.196 846.837,-515.5 940,-515.5 940,-515.5 940,-515.5 1326,-515.5 1438.71,-515.5 1479.19,-523.451 1574,-462.5 1604.76,-442.724 1627.2,-405.255 1638.72,-382.514"/>
<polygon fill="midnightblue" stroke="midnightblue" points="1642.02,-383.742 1643.24,-373.218 1635.72,-380.682 1642.02,-383.742"/>
</g>
<!-- Node11 -->
<g id="node11" class="node"><title>Node11</title>
<g id="a_node11"><a xlink:href="../../d0/df6/classCParser.html#a2912da073892123622f3c380820f7a12" target="_top" xlink:title="CParser::typeCombine">
<polygon fill="white" stroke="black" points="711,-468 711,-487 833,-487 833,-468 711,-468"/>
<text text-anchor="middle" x="772" y="-475" font-family="Helvetica,sans-Serif" font-size="10.00">CParser::typeCombine</text>
</a>
</g>
</g>
<!-- Node10&#45;&gt;Node11 -->
<g id="edge11" class="edge"><title>Node10&#45;&gt;Node11</title>
<path fill="none" stroke="midnightblue" d="M675.053,-483.2C683.429,-482.702 692.161,-482.184 700.796,-481.671"/>
<polygon fill="midnightblue" stroke="midnightblue" points="701.087,-485.16 710.861,-481.073 700.671,-478.172 701.087,-485.16"/>
</g>
<!-- Node12&#45;&gt;Node4 -->
<g id="edge41" class="edge"><title>Node12&#45;&gt;Node4</title>
<path fill="none" stroke="midnightblue" d="M675.23,-430.624C805.412,-433.187 1139.64,-439.404 1419,-441.5 1487.89,-442.017 1510.75,-468.805 1574,-441.5 1602.06,-429.387 1624.37,-400.708 1636.76,-381.708"/>
<polygon fill="midnightblue" stroke="midnightblue" points="1639.84,-383.37 1642.17,-373.033 1633.9,-379.666 1639.84,-383.37"/>
</g>
<!-- Node13 -->
<g id="node13" class="node"><title>Node13</title>
<g id="a_node13"><a xlink:href="../../d0/df6/classCParser.html#a10a7b42902ca78cb3c11c04eb3b55d96" target="_top" xlink:title="CParser::builtin_type">
<polygon fill="white" stroke="black" points="1268.5,-392 1268.5,-411 1381.5,-411 1381.5,-392 1268.5,-392"/>
<text text-anchor="middle" x="1325" y="-399" font-family="Helvetica,sans-Serif" font-size="10.00">CParser::builtin_type</text>
</a>
</g>
</g>
<!-- Node12&#45;&gt;Node13 -->
<g id="edge14" class="edge"><title>Node12&#45;&gt;Node13</title>
<path fill="none" stroke="midnightblue" d="M675.144,-427.027C686.979,-426.512 699.403,-425.981 711,-425.5 910.161,-417.248 1145.75,-408.234 1258.06,-403.983"/>
<polygon fill="midnightblue" stroke="midnightblue" points="1258.35,-407.475 1268.21,-403.599 1258.09,-400.48 1258.35,-407.475"/>
</g>
<!-- Node15 -->
<g id="node15" class="node"><title>Node15</title>
<g id="a_node15"><a xlink:href="../../d0/df6/classCParser.html#ab3ce487b55d4cee3cdcb791d4f7c33b0" target="_top" xlink:title="CParser::user_type">
<polygon fill="white" stroke="black" points="718.5,-297 718.5,-316 825.5,-316 825.5,-297 718.5,-297"/>
<text text-anchor="middle" x="772" y="-304" font-family="Helvetica,sans-Serif" font-size="10.00">CParser::user_type</text>
</a>
</g>
</g>
<!-- Node12&#45;&gt;Node15 -->
<g id="edge18" class="edge"><title>Node12&#45;&gt;Node15</title>
<path fill="none" stroke="midnightblue" d="M631.388,-419.848C657.385,-398.742 719.511,-348.303 751.392,-322.419"/>
<polygon fill="midnightblue" stroke="midnightblue" points="753.61,-325.127 759.167,-316.107 749.198,-319.693 753.61,-325.127"/>
</g>
<!-- Node13&#45;&gt;Node4 -->
<g id="edge17" class="edge"><title>Node13&#45;&gt;Node4</title>
<path fill="none" stroke="midnightblue" d="M1355.21,-411.044C1402.56,-424.929 1498.42,-446.373 1574,-420.5 1596.99,-412.631 1618.34,-394.32 1632.05,-380.561"/>
<polygon fill="midnightblue" stroke="midnightblue" points="1634.8,-382.745 1639.18,-373.099 1629.74,-377.907 1634.8,-382.745"/>
</g>
<!-- Node14 -->
<g id="node14" class="node"><title>Node14</title>
<g id="a_node14"><a xlink:href="../../d0/df6/classCParser.html#a2892a3b78b33e67d6b648ed24668fed0" target="_top" xlink:title="CParser::type_keyword">
<polygon fill="white" stroke="black" points="1433.5,-392 1433.5,-411 1559.5,-411 1559.5,-392 1433.5,-392"/>
<text text-anchor="middle" x="1496.5" y="-399" font-family="Helvetica,sans-Serif" font-size="10.00">CParser::type_keyword</text>
</a>
</g>
</g>
<!-- Node13&#45;&gt;Node14 -->
<g id="edge15" class="edge"><title>Node13&#45;&gt;Node14</title>
<path fill="none" stroke="midnightblue" d="M1381.5,-401.5C1394.86,-401.5 1409.33,-401.5 1423.33,-401.5"/>
<polygon fill="midnightblue" stroke="midnightblue" points="1423.42,-405 1433.42,-401.5 1423.42,-398 1423.42,-405"/>
</g>
<!-- Node14&#45;&gt;Node4 -->
<g id="edge16" class="edge"><title>Node14&#45;&gt;Node4</title>
<path fill="none" stroke="midnightblue" d="M1535.35,-391.911C1554.97,-386.942 1579.12,-380.823 1599.98,-375.539"/>
<polygon fill="midnightblue" stroke="midnightblue" points="1601.09,-378.869 1609.92,-373.02 1599.37,-372.083 1601.09,-378.869"/>
</g>
<!-- Node15&#45;&gt;Node4 -->
<g id="edge40" class="edge"><title>Node15&#45;&gt;Node4</title>
<path fill="none" stroke="midnightblue" d="M809.591,-316.041C875.14,-332.267 1017.14,-363.5 1139,-363.5 1139,-363.5 1139,-363.5 1326,-363.5 1423.08,-363.5 1536.66,-363.5 1599.5,-363.5"/>
<polygon fill="midnightblue" stroke="midnightblue" points="1599.88,-367 1609.88,-363.5 1599.88,-360 1599.88,-367"/>
</g>
<!-- Node16 -->
<g id="node16" class="node"><title>Node16</title>
<g id="a_node16"><a xlink:href="../../d0/df6/classCParser.html#a631e11d228a64f7cd7eaa437a58d2bca" target="_top" xlink:title="CParser::class_key">
<polygon fill="white" stroke="black" points="1086.5,-297 1086.5,-316 1193.5,-316 1193.5,-297 1086.5,-297"/>
<text text-anchor="middle" x="1140" y="-304" font-family="Helvetica,sans-Serif" font-size="10.00">CParser::class_key</text>
</a>
</g>
</g>
<!-- Node15&#45;&gt;Node16 -->
<g id="edge19" class="edge"><title>Node15&#45;&gt;Node16</title>
<path fill="none" stroke="midnightblue" d="M825.829,-306.5C892.151,-306.5 1005.77,-306.5 1076.39,-306.5"/>
<polygon fill="midnightblue" stroke="midnightblue" points="1076.48,-310 1086.48,-306.5 1076.48,-303 1076.48,-310"/>
</g>
<!-- Node18 -->
<g id="node18" class="node"><title>Node18</title>
<g id="a_node18"><a xlink:href="../../d0/df6/classCParser.html#ac121563570276b8286f8351a4f69e56e" target="_top" xlink:title="CParser::scoped_identifier">
<polygon fill="white" stroke="black" points="870.5,-221 870.5,-240 1011.5,-240 1011.5,-221 870.5,-221"/>
<text text-anchor="middle" x="941" y="-228" font-family="Helvetica,sans-Serif" font-size="10.00">CParser::scoped_identifier</text>
</a>
</g>
</g>
<!-- Node15&#45;&gt;Node18 -->
<g id="edge22" class="edge"><title>Node15&#45;&gt;Node18</title>
<path fill="none" stroke="midnightblue" d="M794.151,-296.875C823.388,-283.569 876.319,-259.48 909.737,-244.272"/>
<polygon fill="midnightblue" stroke="midnightblue" points="911.369,-247.375 919.021,-240.047 908.469,-241.004 911.369,-247.375"/>
</g>
<!-- Node24 -->
<g id="node24" class="node"><title>Node24</title>
<g id="a_node24"><a xlink:href="../../da/d6a/classParseUtility.html#a128c7755b687730e50a5c063261f6c78" target="_top" xlink:title="ParseUtility::scopeCombine">
<polygon fill="white" stroke="black" points="869,-174 869,-193 1013,-193 1013,-174 869,-174"/>
<text text-anchor="middle" x="941" y="-181" font-family="Helvetica,sans-Serif" font-size="10.00">ParseUtility::scopeCombine</text>
</a>
</g>
</g>
<!-- Node15&#45;&gt;Node24 -->
<g id="edge38" class="edge"><title>Node15&#45;&gt;Node24</title>
<path fill="none" stroke="midnightblue" d="M780.461,-296.855C795.414,-278.093 830.898,-236.349 869,-211.5 877.999,-205.631 888.421,-200.671 898.461,-196.632"/>
<polygon fill="midnightblue" stroke="midnightblue" points="899.805,-199.866 907.911,-193.043 897.32,-193.322 899.805,-199.866"/>
</g>
<!-- Node16&#45;&gt;Node4 -->
<g id="edge21" class="edge"><title>Node16&#45;&gt;Node4</title>
<path fill="none" stroke="midnightblue" d="M1193.5,-310.194C1275.15,-316.281 1437.37,-329.743 1574,-349.5 1582.41,-350.716 1591.32,-352.224 1599.92,-353.796"/>
<polygon fill="midnightblue" stroke="midnightblue" points="1599.37,-357.253 1609.84,-355.658 1600.66,-350.373 1599.37,-357.253"/>
</g>
<!-- Node17 -->
<g id="node17" class="node"><title>Node17</title>
<g id="a_node17"><a xlink:href="../../d3/d5e/classParseStore.html#a238b27bbf877e69812ecc620fbc18d5f" target="_top" xlink:title="ParseStore::set_flag">
<polygon fill="white" stroke="black" points="1269,-278 1269,-297 1381,-297 1381,-278 1269,-278"/>
<text text-anchor="middle" x="1325" y="-285" font-family="Helvetica,sans-Serif" font-size="10.00">ParseStore::set_flag</text>
</a>
</g>
</g>
<!-- Node16&#45;&gt;Node17 -->
<g id="edge20" class="edge"><title>Node16&#45;&gt;Node17</title>
<path fill="none" stroke="midnightblue" d="M1193.93,-301.004C1214.25,-298.895 1237.68,-296.462 1259.01,-294.248"/>
<polygon fill="midnightblue" stroke="midnightblue" points="1259.38,-297.729 1268.96,-293.215 1258.65,-290.766 1259.38,-297.729"/>
</g>
<!-- Node18&#45;&gt;Node4 -->
<g id="edge37" class="edge"><title>Node18&#45;&gt;Node4</title>
<path fill="none" stroke="midnightblue" d="M1011.76,-231.922C1099.24,-234.752 1253.46,-243.214 1383,-268.5 1470.2,-285.522 1491.41,-294.749 1574,-327.5 1589.99,-333.841 1607.29,-342.235 1621.09,-349.323"/>
<polygon fill="midnightblue" stroke="midnightblue" points="1619.54,-352.461 1630.03,-353.98 1622.78,-346.254 1619.54,-352.461"/>
</g>
<!-- Node19 -->
<g id="node19" class="node"><title>Node19</title>
<g id="a_node19"><a xlink:href="../../d0/df6/classCParser.html#a8b303b41d0199334a5987bb471063729" target="_top" xlink:title="CParser::explicit_scope_spec">
<polygon fill="white" stroke="black" points="1062.5,-202 1062.5,-221 1217.5,-221 1217.5,-202 1062.5,-202"/>
<text text-anchor="middle" x="1140" y="-209" font-family="Helvetica,sans-Serif" font-size="10.00">CParser::explicit_scope_spec</text>
</a>
</g>
</g>
<!-- Node18&#45;&gt;Node19 -->
<g id="edge23" class="edge"><title>Node18&#45;&gt;Node19</title>
<path fill="none" stroke="midnightblue" d="M1011.73,-223.775C1024.79,-222.516 1038.58,-221.185 1052.08,-219.883"/>
<polygon fill="midnightblue" stroke="midnightblue" points="1052.71,-223.339 1062.33,-218.895 1052.04,-216.371 1052.71,-223.339"/>
</g>
<!-- Node22 -->
<g id="node22" class="node"><title>Node22</title>
<g id="a_node22"><a xlink:href="../../d0/df6/classCParser.html#aea0a3166305befe762f047b6e4a6f90f" target="_top" xlink:title="CParser::unscoped_member_name">
<polygon fill="white" stroke="black" points="1049,-126 1049,-145 1231,-145 1231,-126 1049,-126"/>
<text text-anchor="middle" x="1140" y="-133" font-family="Helvetica,sans-Serif" font-size="10.00">CParser::unscoped_member_name</text>
</a>
</g>
</g>
<!-- Node18&#45;&gt;Node22 -->
<g id="edge31" class="edge"><title>Node18&#45;&gt;Node22</title>
<path fill="none" stroke="midnightblue" d="M977.225,-220.93C989.325,-216.564 1002.46,-210.534 1013,-202.5 1034.21,-186.331 1026.52,-168.838 1049,-154.5 1052.22,-152.447 1055.62,-150.612 1059.15,-148.972"/>
<polygon fill="midnightblue" stroke="midnightblue" points="1060.78,-152.087 1068.71,-145.071 1058.13,-145.606 1060.78,-152.087"/>
</g>
<!-- Node19&#45;&gt;Node4 -->
<g id="edge30" class="edge"><title>Node19&#45;&gt;Node4</title>
<path fill="none" stroke="midnightblue" d="M1217.79,-215.367C1325.68,-221.989 1515.5,-238.34 1574,-273.5 1602.96,-290.905 1625.48,-324.056 1637.6,-344.901"/>
<polygon fill="midnightblue" stroke="midnightblue" points="1634.62,-346.748 1642.56,-353.768 1640.73,-343.331 1634.62,-346.748"/>
</g>
<!-- Node19&#45;&gt;Node17 -->
<g id="edge29" class="edge"><title>Node19&#45;&gt;Node17</title>
<path fill="none" stroke="midnightblue" d="M1164.18,-221.125C1196.49,-234.545 1255.22,-258.934 1291.78,-274.117"/>
<polygon fill="midnightblue" stroke="midnightblue" points="1290.43,-277.35 1301.01,-277.953 1293.12,-270.885 1290.43,-277.35"/>
</g>
<!-- Node20 -->
<g id="node20" class="node"><title>Node20</title>
<g id="a_node20"><a xlink:href="../../d0/df6/classCParser.html#a729069b96fa400ec2fd9a34d4016fcdb" target="_top" xlink:title="CParser::angle_block">
<polygon fill="white" stroke="black" points="1267,-164 1267,-183 1383,-183 1383,-164 1267,-164"/>
<text text-anchor="middle" x="1325" y="-171" font-family="Helvetica,sans-Serif" font-size="10.00">CParser::angle_block</text>
</a>
</g>
</g>
<!-- Node19&#45;&gt;Node20 -->
<g id="edge24" class="edge"><title>Node19&#45;&gt;Node20</title>
<path fill="none" stroke="midnightblue" d="M1187.18,-201.911C1211.76,-196.806 1242.19,-190.489 1268.1,-185.108"/>
<polygon fill="midnightblue" stroke="midnightblue" points="1269.07,-188.48 1278.15,-183.02 1267.65,-181.626 1269.07,-188.48"/>
</g>
<!-- Node20&#45;&gt;Node4 -->
<g id="edge28" class="edge"><title>Node20&#45;&gt;Node4</title>
<path fill="none" stroke="midnightblue" d="M1372.43,-183.053C1439.67,-197.196 1557.91,-223.34 1574,-235.5 1610.98,-263.452 1632.4,-315.811 1641.78,-344.129"/>
<polygon fill="midnightblue" stroke="midnightblue" points="1638.45,-345.217 1644.8,-353.704 1645.13,-343.114 1638.45,-345.217"/>
</g>
<!-- Node21 -->
<g id="node21" class="node"><title>Node21</title>
<g id="a_node21"><a xlink:href="../../d0/df6/classCParser.html#aa127d8f0df3a28071ce4fe43684632ef" target="_top" xlink:title="CParser::angle_balanced_list">
<polygon fill="white" stroke="black" points="1419.5,-164 1419.5,-183 1573.5,-183 1573.5,-164 1419.5,-164"/>
<text text-anchor="middle" x="1496.5" y="-171" font-family="Helvetica,sans-Serif" font-size="10.00">CParser::angle_balanced_list</text>
</a>
</g>
</g>
<!-- Node20&#45;&gt;Node21 -->
<g id="edge25" class="edge"><title>Node20&#45;&gt;Node21</title>
<path fill="none" stroke="midnightblue" d="M1383.38,-167.073C1391.67,-166.871 1400.34,-166.764 1409.04,-166.751"/>
<polygon fill="midnightblue" stroke="midnightblue" points="1409.23,-170.252 1419.24,-166.78 1409.25,-163.252 1409.23,-170.252"/>
</g>
<!-- Node21&#45;&gt;Node4 -->
<g id="edge27" class="edge"><title>Node21&#45;&gt;Node4</title>
<path fill="none" stroke="midnightblue" d="M1549.25,-183.119C1558.23,-186.546 1566.94,-191.195 1574,-197.5 1618.55,-237.283 1637.42,-309.123 1644.21,-343.765"/>
<polygon fill="midnightblue" stroke="midnightblue" points="1640.77,-344.41 1646.02,-353.617 1647.66,-343.151 1640.77,-344.41"/>
</g>
<!-- Node21&#45;&gt;Node20 -->
<g id="edge26" class="edge"><title>Node21&#45;&gt;Node20</title>
<path fill="none" stroke="midnightblue" d="M1419.24,-180.22C1410.67,-180.281 1401.99,-180.249 1393.55,-180.125"/>
<polygon fill="midnightblue" stroke="midnightblue" points="1393.45,-176.622 1383.38,-179.927 1393.31,-183.621 1393.45,-176.622"/>
</g>
<!-- Node22&#45;&gt;Node1 -->
<g id="edge35" class="edge"><title>Node22&#45;&gt;Node1</title>
<path fill="none" stroke="midnightblue" d="M1111.85,-125.875C1051.67,-105.424 902.145,-59.5 773,-59.5 459.5,-59.5 459.5,-59.5 459.5,-59.5 197.813,-59.5 108.892,-492.78 92.1098,-590.905"/>
<polygon fill="midnightblue" stroke="midnightblue" points="88.6294,-590.499 90.4494,-600.936 95.5355,-591.642 88.6294,-590.499"/>
</g>
<!-- Node22&#45;&gt;Node4 -->
<g id="edge36" class="edge"><title>Node22&#45;&gt;Node4</title>
<path fill="none" stroke="midnightblue" d="M1231.07,-127.999C1341.84,-120.692 1521.65,-115.666 1574,-154.5 1635.4,-200.051 1645.77,-300.87 1647.33,-343.667"/>
<polygon fill="midnightblue" stroke="midnightblue" points="1643.83,-343.974 1647.57,-353.888 1650.83,-343.809 1643.83,-343.974"/>
</g>
<!-- Node22&#45;&gt;Node20 -->
<g id="edge32" class="edge"><title>Node22&#45;&gt;Node20</title>
<path fill="none" stroke="midnightblue" d="M1187.18,-145.089C1211.76,-150.194 1242.19,-156.511 1268.1,-161.892"/>
<polygon fill="midnightblue" stroke="midnightblue" points="1267.65,-165.374 1278.15,-163.98 1269.07,-158.52 1267.65,-165.374"/>
</g>
<!-- Node23 -->
<g id="node23" class="node"><title>Node23</title>
<g id="a_node23"><a xlink:href="../../d0/df6/classCParser.html#ac5cba09faa6ccf6314b75950f0d8e40e" target="_top" xlink:title="CParser::dtor_member_name">
<polygon fill="white" stroke="black" points="1419,-88 1419,-107 1574,-107 1574,-88 1419,-88"/>
<text text-anchor="middle" x="1496.5" y="-95" font-family="Helvetica,sans-Serif" font-size="10.00">CParser::dtor_member_name</text>
</a>
</g>
</g>
<!-- Node22&#45;&gt;Node23 -->
<g id="edge33" class="edge"><title>Node22&#45;&gt;Node23</title>
<path fill="none" stroke="midnightblue" d="M1226.05,-125.979C1239.74,-124.467 1253.76,-122.931 1267,-121.5 1313.81,-116.441 1366.03,-110.945 1408.72,-106.49"/>
<polygon fill="midnightblue" stroke="midnightblue" points="1409.22,-109.958 1418.8,-105.44 1408.49,-102.996 1409.22,-109.958"/>
</g>
<!-- Node23&#45;&gt;Node4 -->
<g id="edge34" class="edge"><title>Node23&#45;&gt;Node4</title>
<path fill="none" stroke="midnightblue" d="M1551.47,-107.072C1559.81,-110.508 1567.73,-115.172 1574,-121.5 1636.11,-184.182 1646,-297.588 1647.38,-343.449"/>
<polygon fill="midnightblue" stroke="midnightblue" points="1643.88,-343.65 1647.58,-353.581 1650.88,-343.516 1643.88,-343.65"/>
</g>
<!-- Node25 -->
<g id="node25" class="node"><title>Node25</title>
<g id="a_node25"><a xlink:href="../../d4/d6e/classCCCC__Project.html#ac0565e746210778bc6f165130464041b" target="_top" xlink:title="CCCC_Project::name">
<polygon fill="white" stroke="black" points="1082,-164 1082,-183 1198,-183 1198,-164 1082,-164"/>
<text text-anchor="middle" x="1140" y="-171" font-family="Helvetica,sans-Serif" font-size="10.00">CCCC_Project::name</text>
</a>
</g>
</g>
<!-- Node24&#45;&gt;Node25 -->
<g id="edge39" class="edge"><title>Node24&#45;&gt;Node25</title>
<path fill="none" stroke="midnightblue" d="M1013.12,-179.89C1032.27,-178.918 1052.92,-177.869 1071.85,-176.909"/>
<polygon fill="midnightblue" stroke="midnightblue" points="1072.06,-180.403 1081.87,-176.4 1071.71,-173.412 1072.06,-180.403"/>
</g>
<!-- Node26&#45;&gt;Node4 -->
<g id="edge45" class="edge"><title>Node26&#45;&gt;Node4</title>
<path fill="none" stroke="midnightblue" d="M1379.74,-51.9754C1443.82,-51.3142 1545.8,-54.2929 1574,-78.5 1614.98,-113.684 1638.4,-285.115 1645.32,-343.772"/>
<polygon fill="midnightblue" stroke="midnightblue" points="1641.86,-344.389 1646.48,-353.926 1648.82,-343.592 1641.86,-344.389"/>
</g>
<!-- Node27 -->
<g id="node27" class="node"><title>Node27</title>
<g id="a_node27"><a xlink:href="../../d0/df6/classCParser.html#a80be2f0d41b613906058b6df76ce7815" target="_top" xlink:title="CParser::indirection\l_modifier">
<polygon fill="white" stroke="black" points="1442,-0.5 1442,-30.5 1551,-30.5 1551,-0.5 1442,-0.5"/>
<text text-anchor="start" x="1450" y="-18.5" font-family="Helvetica,sans-Serif" font-size="10.00">CParser::indirection</text>
<text text-anchor="middle" x="1496.5" y="-7.5" font-family="Helvetica,sans-Serif" font-size="10.00">_modifier</text>
</a>
</g>
</g>
<!-- Node26&#45;&gt;Node27 -->
<g id="edge43" class="edge"><title>Node26&#45;&gt;Node27</title>
<path fill="none" stroke="midnightblue" d="M1379.63,-41.4766C1396.25,-37.7504 1414.73,-33.6085 1431.95,-29.7466"/>
<polygon fill="midnightblue" stroke="midnightblue" points="1432.94,-33.1133 1441.93,-27.5104 1431.4,-26.2828 1432.94,-33.1133"/>
</g>
<!-- Node27&#45;&gt;Node4 -->
<g id="edge44" class="edge"><title>Node27&#45;&gt;Node4</title>
<path fill="none" stroke="midnightblue" d="M1551.2,-28.7678C1559.78,-32.9262 1567.85,-38.3725 1574,-45.5 1613.47,-91.2309 1638.18,-281.397 1645.34,-343.665"/>
<polygon fill="midnightblue" stroke="midnightblue" points="1641.87,-344.193 1646.47,-353.74 1648.83,-343.412 1641.87,-344.193"/>
</g>
</g>
</svg>
        <g id="navigator" transform="translate(0 0)" fill="#404254">
                <rect fill="#f2f5e9" fill-opacity="0.5" stroke="#606060" stroke-width=".5" x="0" y="0" width="60" height="60"/>
                <use id="zoomplus" xlink:href="#zoomPlus" x="17" y="9" onmousedown="handleZoom(evt,'in')"/>
                <use id="zoomminus" xlink:href="#zoomMin" x="42" y="9" onmousedown="handleZoom(evt,'out')"/>
                <use id="reset" xlink:href="#resetDef" x="30" y="36" onmousedown="handleReset()"/>
                <g id="arrowUp" xlink:href="#dirArrow" transform="translate(30 24)" onmousedown="handlePan(0,-1)">
                  <use xlink:href="#rim" fill="#404040">
                        <set attributeName="fill" to="#808080" begin="arrowUp.mouseover" end="arrowUp.mouseout"/>
                  </use>
                  <path fill="none" stroke="white" stroke-width="1.5" d="M0,-3.0v7 M-2.5,-0.5L0,-3.0L2.5,-0.5"/>
                </g>
                <g id="arrowRight" xlink:href="#dirArrow" transform="rotate(90) translate(36 -43)" onmousedown="handlePan(1,0)">
                  <use xlink:href="#rim" fill="#404040">
                        <set attributeName="fill" to="#808080" begin="arrowRight.mouseover" end="arrowRight.mouseout"/>
                  </use>
                  <path fill="none" stroke="white" stroke-width="1.5" d="M0,-3.0v7 M-2.5,-0.5L0,-3.0L2.5,-0.5"/>
                </g>
                <g id="arrowDown" xlink:href="#dirArrow" transform="rotate(180) translate(-30 -48)" onmousedown="handlePan(0,1)">
                  <use xlink:href="#rim" fill="#404040">
                        <set attributeName="fill" to="#808080" begin="arrowDown.mouseover" end="arrowDown.mouseout"/>
                  </use>
                  <path fill="none" stroke="white" stroke-width="1.5" d="M0,-3.0v7 M-2.5,-0.5L0,-3.0L2.5,-0.5"/>
                </g>
                <g id="arrowLeft" xlink:href="#dirArrow" transform="rotate(270) translate(-36 17)" onmousedown="handlePan(-1,0)">
                  <use xlink:href="#rim" fill="#404040">
                        <set attributeName="fill" to="#808080" begin="arrowLeft.mouseover" end="arrowLeft.mouseout"/>
                  </use>
                  <path fill="none" stroke="white" stroke-width="1.5" d="M0,-3.0v7 M-2.5,-0.5L0,-3.0L2.5,-0.5"/>
                </g>
        </g>
        <svg viewBox="0 0 15 15" width="100%" height="30px" preserveAspectRatio="xMaxYMin meet">
         <g id="arrow_out" transform="scale(0.3 0.3)">
          <a xlink:href="classCParser_ac99dcea42e50abf304d0a7bb001b1829_cgraph_org.svg" target="_base">
           <rect id="button" ry="5" rx="5" y="6" x="6" height="38" width="38"
                fill="#f2f5e9" fill-opacity="0.5" stroke="#606060" stroke-width="1.0"/>
           <path id="arrow"
             d="M 11.500037,31.436501 C 11.940474,20.09759 22.043105,11.32322 32.158766,21.979434 L 37.068811,17.246167 C 37.068811,17.246167 37.088388,32 37.088388,32 L 22.160133,31.978069 C 22.160133,31.978069 26.997745,27.140456 26.997745,27.140456 C 18.528582,18.264221 13.291696,25.230495 11.500037,31.436501 z"
             style="fill:#404040;"/>
          </a>
         </g>
        </svg>
</svg>
