<?xml version="1.0" encoding="UTF-8" standalone="no"?>
<!DOCTYPE svg PUBLIC "-//W3C//DTD SVG 1.1//EN"
 "http://www.w3.org/Graphics/SVG/1.1/DTD/svg11.dtd">
<!-- Generated by graphviz version 2.38.0 (20140413.2041)
 -->
<!-- Title: CParser::balanced Pages: 1 -->
<svg width="3316pt" height="286pt"
 viewBox="0.00 0.00 3316.00 286.32" xmlns="http://www.w3.org/2000/svg" xmlns:xlink="http://www.w3.org/1999/xlink">
<g id="graph0" class="graph" transform="scale(1 1) rotate(0) translate(4 282.317)">
<title>CParser::balanced</title>
<polygon fill="white" stroke="none" points="-4,4 -4,-282.317 3312,-282.317 3312,4 -4,4"/>
<!-- Node1 -->
<g id="node1" class="node"><title>Node1</title>
<polygon fill="#bfbfbf" stroke="black" points="0,-29.8172 0,-48.8172 103,-48.8172 103,-29.8172 0,-29.8172"/>
<text text-anchor="middle" x="51.5" y="-36.8172" font-family="Helvetica,sans-Serif" font-size="10.00">CParser::balanced</text>
</g>
<!-- Node2 -->
<g id="node2" class="node"><title>Node2</title>
<g id="a_node2"><a xlink:href="../../d0/df6/classCParser.html#a967d50b91351cf003898543b6d7af7a7" target="_top" xlink:title="CParser::balanced_list">
<polygon fill="white" stroke="black" points="139,-48.8172 139,-67.8172 261,-67.8172 261,-48.8172 139,-48.8172"/>
<text text-anchor="middle" x="200" y="-55.8172" font-family="Helvetica,sans-Serif" font-size="10.00">CParser::balanced_list</text>
</a>
</g>
</g>
<!-- Node1&#45;&gt;Node2 -->
<g id="edge1" class="edge"><title>Node1&#45;&gt;Node2</title>
<path fill="none" stroke="midnightblue" d="M113.462,-47.2236C121.887,-48.3162 130.535,-49.4378 138.943,-50.5283"/>
<polygon fill="midnightblue" stroke="midnightblue" points="113.695,-43.7245 103.327,-45.9092 112.794,-50.6663 113.695,-43.7245"/>
</g>
<!-- Node3 -->
<g id="node3" class="node"><title>Node3</title>
<g id="a_node3"><a xlink:href="../../d0/df6/classCParser.html#a51affc383cd0859af5d84b628c8a2f5c" target="_top" xlink:title="CParser::paren_block">
<polygon fill="white" stroke="black" points="297,-105.817 297,-124.817 415,-124.817 415,-105.817 297,-105.817"/>
<text text-anchor="middle" x="356" y="-112.817" font-family="Helvetica,sans-Serif" font-size="10.00">CParser::paren_block</text>
</a>
</g>
</g>
<!-- Node2&#45;&gt;Node3 -->
<g id="edge2" class="edge"><title>Node2&#45;&gt;Node3</title>
<path fill="none" stroke="midnightblue" d="M236.3,-71.3827C264.607,-81.86 303.68,-96.3223 329.14,-105.746"/>
<polygon fill="midnightblue" stroke="midnightblue" points="237.369,-68.0466 226.776,-67.8577 234.939,-74.6113 237.369,-68.0466"/>
</g>
<!-- Node37 -->
<g id="node37" class="node"><title>Node37</title>
<g id="a_node37"><a xlink:href="../../d0/df6/classCParser.html#ac73c93a601c6e7123e0ebbd7be03b60d" target="_top" xlink:title="CParser::brack_block">
<polygon fill="white" stroke="black" points="298,-48.8172 298,-67.8172 414,-67.8172 414,-48.8172 298,-48.8172"/>
<text text-anchor="middle" x="356" y="-55.8172" font-family="Helvetica,sans-Serif" font-size="10.00">CParser::brack_block</text>
</a>
</g>
</g>
<!-- Node2&#45;&gt;Node37 -->
<g id="edge47" class="edge"><title>Node2&#45;&gt;Node37</title>
<path fill="none" stroke="midnightblue" d="M271.625,-58.3172C280.382,-58.3172 289.249,-58.3172 297.771,-58.3172"/>
<polygon fill="midnightblue" stroke="midnightblue" points="271.423,-54.8173 261.423,-58.3172 271.423,-61.8173 271.423,-54.8173"/>
</g>
<!-- Node4 -->
<g id="node4" class="node"><title>Node4</title>
<g id="a_node4"><a xlink:href="../../d0/df6/classCParser.html#afbe8666c28623fadda88dce63f2d0dd7" target="_top" xlink:title="CParser::param_list">
<polygon fill="white" stroke="black" points="459.5,-222.817 459.5,-241.817 568.5,-241.817 568.5,-222.817 459.5,-222.817"/>
<text text-anchor="middle" x="514" y="-229.817" font-family="Helvetica,sans-Serif" font-size="10.00">CParser::param_list</text>
</a>
</g>
</g>
<!-- Node3&#45;&gt;Node4 -->
<g id="edge3" class="edge"><title>Node3&#45;&gt;Node4</title>
<path fill="none" stroke="midnightblue" d="M371.484,-132.455C388.793,-152.1 419.401,-184.288 451,-205.317 461.556,-212.342 474.24,-218.245 485.378,-222.723"/>
<polygon fill="midnightblue" stroke="midnightblue" points="374.109,-130.14 364.916,-124.873 368.818,-134.724 374.109,-130.14"/>
</g>
<!-- Node21 -->
<g id="node21" class="node"><title>Node21</title>
<g id="a_node21"><a xlink:href="../../d0/df6/classCParser.html#a74aee17394e57d00d5cf1cb233f2dd42" target="_top" xlink:title="CParser::fptr_type\l_alias">
<polygon fill="white" stroke="black" points="624.5,-56.3172 624.5,-86.3172 726.5,-86.3172 726.5,-56.3172 624.5,-56.3172"/>
<text text-anchor="start" x="632.5" y="-74.3172" font-family="Helvetica,sans-Serif" font-size="10.00">CParser::fptr_type</text>
<text text-anchor="middle" x="675.5" y="-63.3172" font-family="Helvetica,sans-Serif" font-size="10.00">_alias</text>
</a>
</g>
</g>
<!-- Node3&#45;&gt;Node21 -->
<g id="edge26" class="edge"><title>Node3&#45;&gt;Node21</title>
<path fill="none" stroke="midnightblue" d="M409.906,-103.774C423.274,-101.092 437.63,-98.412 451,-96.3172 510.21,-87.0401 578.77,-79.9 624.179,-75.6696"/>
<polygon fill="midnightblue" stroke="midnightblue" points="409.006,-100.386 399.909,-105.816 410.407,-107.244 409.006,-100.386"/>
</g>
<!-- Node24 -->
<g id="node24" class="node"><title>Node24</title>
<g id="a_node24"><a xlink:href="../../d0/df6/classCParser.html#a5e83377507b06b136005686f47f13fcb" target="_top" xlink:title="CParser::item_specifier">
<polygon fill="white" stroke="black" points="613,-181.817 613,-200.817 738,-200.817 738,-181.817 613,-181.817"/>
<text text-anchor="middle" x="675.5" y="-188.817" font-family="Helvetica,sans-Serif" font-size="10.00">CParser::item_specifier</text>
</a>
</g>
</g>
<!-- Node3&#45;&gt;Node24 -->
<g id="edge30" class="edge"><title>Node3&#45;&gt;Node24</title>
<path fill="none" stroke="midnightblue" d="M376.933,-131.189C395.094,-144.686 423.241,-163.274 451,-172.317 503.763,-189.507 567.037,-193.447 612.772,-193.562"/>
<polygon fill="midnightblue" stroke="midnightblue" points="378.94,-128.318 368.866,-125.037 374.695,-133.884 378.94,-128.318"/>
</g>
<!-- Node32 -->
<g id="node32" class="node"><title>Node32</title>
<g id="a_node32"><a xlink:href="../../d0/df6/classCParser.html#aa600547e6bdaf5e45d02c89a19c7fa4b" target="_top" xlink:title="CParser::init_expr_item">
<polygon fill="white" stroke="black" points="451,-143.817 451,-162.817 577,-162.817 577,-143.817 451,-143.817"/>
<text text-anchor="middle" x="514" y="-150.817" font-family="Helvetica,sans-Serif" font-size="10.00">CParser::init_expr_item</text>
</a>
</g>
</g>
<!-- Node3&#45;&gt;Node32 -->
<g id="edge40" class="edge"><title>Node3&#45;&gt;Node32</title>
<path fill="none" stroke="midnightblue" d="M406.132,-127.285C427.993,-132.61 453.376,-138.793 473.918,-143.797"/>
<polygon fill="midnightblue" stroke="midnightblue" points="406.91,-123.872 396.365,-124.906 405.253,-130.674 406.91,-123.872"/>
</g>
<!-- Node35 -->
<g id="node35" class="node"><title>Node35</title>
<g id="a_node35"><a xlink:href="../../d0/df6/classCParser.html#a8715e75c1e5fe112f10ccf0986cc2c7d" target="_top" xlink:title="CParser::init_value">
<polygon fill="white" stroke="black" points="462,-105.817 462,-124.817 566,-124.817 566,-105.817 462,-105.817"/>
<text text-anchor="middle" x="514" y="-112.817" font-family="Helvetica,sans-Serif" font-size="10.00">CParser::init_value</text>
</a>
</g>
</g>
<!-- Node3&#45;&gt;Node35 -->
<g id="edge44" class="edge"><title>Node3&#45;&gt;Node35</title>
<path fill="none" stroke="midnightblue" d="M425.282,-115.317C437.54,-115.317 450.123,-115.317 461.795,-115.317"/>
<polygon fill="midnightblue" stroke="midnightblue" points="425.089,-111.817 415.089,-115.317 425.089,-118.817 425.089,-111.817"/>
</g>
<!-- Node36 -->
<g id="node36" class="node"><title>Node36</title>
<g id="a_node36"><a xlink:href="../../d0/df6/classCParser.html#a35e24b97e6c8566e503521071040413f" target="_top" xlink:title="CParser::block">
<polygon fill="white" stroke="black" points="472,-29.8172 472,-48.8172 556,-48.8172 556,-29.8172 472,-29.8172"/>
<text text-anchor="middle" x="514" y="-36.8172" font-family="Helvetica,sans-Serif" font-size="10.00">CParser::block</text>
</a>
</g>
</g>
<!-- Node3&#45;&gt;Node36 -->
<g id="edge45" class="edge"><title>Node3&#45;&gt;Node36</title>
<path fill="none" stroke="midnightblue" d="M381.373,-100.633C400.074,-89.6636 426.719,-74.6687 451,-63.3172 462.188,-58.0869 474.855,-53.036 485.81,-48.9283"/>
<polygon fill="midnightblue" stroke="midnightblue" points="379.447,-97.7063 372.624,-105.812 383.013,-103.73 379.447,-97.7063"/>
</g>
<!-- Node5 -->
<g id="node5" class="node"><title>Node5</title>
<g id="a_node5"><a xlink:href="../../d0/df6/classCParser.html#ab263641e50f3b30b3ac343dd3a5f7e61" target="_top" xlink:title="CParser::method_signature">
<polygon fill="white" stroke="black" points="932,-228.817 932,-247.817 1077,-247.817 1077,-228.817 932,-228.817"/>
<text text-anchor="middle" x="1004.5" y="-235.817" font-family="Helvetica,sans-Serif" font-size="10.00">CParser::method_signature</text>
</a>
</g>
</g>
<!-- Node4&#45;&gt;Node5 -->
<g id="edge4" class="edge"><title>Node4&#45;&gt;Node5</title>
<path fill="none" stroke="midnightblue" d="M578.866,-233.102C669.999,-234.221 836.825,-236.27 931.988,-237.439"/>
<polygon fill="midnightblue" stroke="midnightblue" points="578.718,-229.6 568.675,-232.976 578.632,-236.599 578.718,-229.6"/>
</g>
<!-- Node6 -->
<g id="node6" class="node"><title>Node6</title>
<g id="a_node6"><a xlink:href="../../d0/df6/classCParser.html#a0dd2a579512bf1a17aaeac5fdec860a7" target="_top" xlink:title="CParser::method_declaration\l_or_definition_with_implicit_type">
<polygon fill="white" stroke="black" points="1795,-219.317 1795,-249.317 1965,-249.317 1965,-219.317 1795,-219.317"/>
<text text-anchor="start" x="1803" y="-237.317" font-family="Helvetica,sans-Serif" font-size="10.00">CParser::method_declaration</text>
<text text-anchor="middle" x="1880" y="-226.317" font-family="Helvetica,sans-Serif" font-size="10.00">_or_definition_with_implicit_type</text>
</a>
</g>
</g>
<!-- Node5&#45;&gt;Node6 -->
<g id="edge5" class="edge"><title>Node5&#45;&gt;Node6</title>
<path fill="none" stroke="midnightblue" d="M1087.48,-239.039C1159.63,-239.612 1267.54,-240.317 1361.5,-240.317 1361.5,-240.317 1361.5,-240.317 1527,-240.317 1618.53,-240.317 1723.42,-238.264 1794.73,-236.56"/>
<polygon fill="midnightblue" stroke="midnightblue" points="1087.12,-235.536 1077.1,-238.956 1087.07,-242.536 1087.12,-235.536"/>
</g>
<!-- Node7 -->
<g id="node7" class="node"><title>Node7</title>
<g id="a_node7"><a xlink:href="../../d0/df6/classCParser.html#ab3ab57ace628c2476dd8dfe5a96f9a15" target="_top" xlink:title="CParser::definition\l_or_declaration">
<polygon fill="white" stroke="black" points="2207,-137.317 2207,-167.317 2310,-167.317 2310,-137.317 2207,-137.317"/>
<text text-anchor="start" x="2215" y="-155.317" font-family="Helvetica,sans-Serif" font-size="10.00">CParser::definition</text>
<text text-anchor="middle" x="2258.5" y="-144.317" font-family="Helvetica,sans-Serif" font-size="10.00">_or_declaration</text>
</a>
</g>
</g>
<!-- Node6&#45;&gt;Node7 -->
<g id="edge6" class="edge"><title>Node6&#45;&gt;Node7</title>
<path fill="none" stroke="midnightblue" d="M1959.86,-217.142C2034.27,-200.936 2143.59,-177.127 2206.96,-163.326"/>
<polygon fill="midnightblue" stroke="midnightblue" points="1959.08,-213.729 1950.06,-219.277 1960.57,-220.569 1959.08,-213.729"/>
</g>
<!-- Node19 -->
<g id="node19" class="node"><title>Node19</title>
<g id="a_node19"><a xlink:href="../../d0/df6/classCParser.html#a12561a45dab96760d7ab45896681dd33" target="_top" xlink:title="CParser::class_or_method\l_declaration_or_definition">
<polygon fill="white" stroke="black" points="3167,-225.317 3167,-255.317 3308,-255.317 3308,-225.317 3167,-225.317"/>
<text text-anchor="start" x="3175" y="-243.317" font-family="Helvetica,sans-Serif" font-size="10.00">CParser::class_or_method</text>
<text text-anchor="middle" x="3237.5" y="-232.317" font-family="Helvetica,sans-Serif" font-size="10.00">_declaration_or_definition</text>
</a>
</g>
</g>
<!-- Node6&#45;&gt;Node19 -->
<g id="edge25" class="edge"><title>Node6&#45;&gt;Node19</title>
<path fill="none" stroke="midnightblue" d="M1955.71,-251.464C1970.65,-254.445 1986.27,-257.247 2001,-259.317 2114.2,-275.231 2143.19,-278.317 2257.5,-278.317 2257.5,-278.317 2257.5,-278.317 2896,-278.317 2990.28,-278.317 3098.34,-263.75 3166.98,-252.655"/>
<polygon fill="midnightblue" stroke="midnightblue" points="1955.99,-247.95 1945.5,-249.378 1954.59,-254.808 1955.99,-247.95"/>
</g>
<!-- Node20 -->
<g id="node20" class="node"><title>Node20</title>
<g id="a_node20"><a xlink:href="../../d0/df6/classCParser.html#af0c9d35d4c997c6f34cf4a26563b513c" target="_top" xlink:title="CParser::method_declaration\l_or_definition_with_explicit_type">
<polygon fill="white" stroke="black" points="2001,-219.317 2001,-249.317 2171,-249.317 2171,-219.317 2001,-219.317"/>
<text text-anchor="start" x="2009" y="-237.317" font-family="Helvetica,sans-Serif" font-size="10.00">CParser::method_declaration</text>
<text text-anchor="middle" x="2086" y="-226.317" font-family="Helvetica,sans-Serif" font-size="10.00">_or_definition_with_explicit_type</text>
</a>
</g>
</g>
<!-- Node6&#45;&gt;Node20 -->
<g id="edge22" class="edge"><title>Node6&#45;&gt;Node20</title>
<path fill="none" stroke="midnightblue" d="M1975.4,-234.317C1983.85,-234.317 1992.36,-234.317 2000.71,-234.317"/>
<polygon fill="midnightblue" stroke="midnightblue" points="1975.15,-230.817 1965.15,-234.317 1975.15,-237.817 1975.15,-230.817"/>
</g>
<!-- Node8 -->
<g id="node8" class="node"><title>Node8</title>
<g id="a_node8"><a xlink:href="../../d0/df6/classCParser.html#a2b78ab2005bef5c43ee2d4689210eab1" target="_top" xlink:title="CParser::link_item">
<polygon fill="white" stroke="black" points="2365.5,-145.817 2365.5,-164.817 2466.5,-164.817 2466.5,-145.817 2365.5,-145.817"/>
<text text-anchor="middle" x="2416" y="-152.817" font-family="Helvetica,sans-Serif" font-size="10.00">CParser::link_item</text>
</a>
</g>
</g>
<!-- Node7&#45;&gt;Node8 -->
<g id="edge7" class="edge"><title>Node7&#45;&gt;Node8</title>
<path fill="none" stroke="midnightblue" d="M2320.52,-153.495C2335.36,-153.781 2351.05,-154.084 2365.29,-154.358"/>
<polygon fill="midnightblue" stroke="midnightblue" points="2320.48,-149.993 2310.42,-153.3 2320.35,-156.992 2320.48,-149.993"/>
</g>
<!-- Node14 -->
<g id="node14" class="node"><title>Node14</title>
<g id="a_node14"><a xlink:href="../../d0/df6/classCParser.html#a85eb09132fa5a588749cea062f0d11ea" target="_top" xlink:title="CParser::class_block_item">
<polygon fill="white" stroke="black" points="2346,-78.8172 2346,-97.8172 2486,-97.8172 2486,-78.8172 2346,-78.8172"/>
<text text-anchor="middle" x="2416" y="-85.8172" font-family="Helvetica,sans-Serif" font-size="10.00">CParser::class_block_item</text>
</a>
</g>
</g>
<!-- Node7&#45;&gt;Node14 -->
<g id="edge15" class="edge"><title>Node7&#45;&gt;Node14</title>
<path fill="none" stroke="midnightblue" d="M2305.3,-133.465C2333.73,-121.767 2369.04,-107.232 2391.8,-97.8668"/>
<polygon fill="midnightblue" stroke="midnightblue" points="2303.87,-130.269 2295.96,-137.312 2306.54,-136.743 2303.87,-130.269"/>
</g>
<!-- Node9 -->
<g id="node9" class="node"><title>Node9</title>
<g id="a_node9"><a xlink:href="../../d0/df6/classCParser.html#a4f02da23566af37123efb3768769c09b" target="_top" xlink:title="CParser::start">
<polygon fill="white" stroke="black" points="2546.5,-192.817 2546.5,-211.817 2627.5,-211.817 2627.5,-192.817 2546.5,-192.817"/>
<text text-anchor="middle" x="2587" y="-199.817" font-family="Helvetica,sans-Serif" font-size="10.00">CParser::start</text>
</a>
</g>
</g>
<!-- Node8&#45;&gt;Node9 -->
<g id="edge8" class="edge"><title>Node8&#45;&gt;Node9</title>
<path fill="none" stroke="midnightblue" d="M2460.84,-167.509C2489.11,-175.372 2525.36,-185.452 2551.56,-192.74"/>
<polygon fill="midnightblue" stroke="midnightblue" points="2461.77,-164.136 2451.2,-164.828 2459.9,-170.88 2461.77,-164.136"/>
</g>
<!-- Node12 -->
<g id="node12" class="node"><title>Node12</title>
<g id="a_node12"><a xlink:href="../../d0/df6/classCParser.html#a86906e492ff9c606fb3537078f46f93e" target="_top" xlink:title="CParser::extern_linkage\l_block">
<polygon fill="white" stroke="black" points="2522,-143.317 2522,-173.317 2652,-173.317 2652,-143.317 2522,-143.317"/>
<text text-anchor="start" x="2530" y="-161.317" font-family="Helvetica,sans-Serif" font-size="10.00">CParser::extern_linkage</text>
<text text-anchor="middle" x="2587" y="-150.317" font-family="Helvetica,sans-Serif" font-size="10.00">_block</text>
</a>
</g>
</g>
<!-- Node8&#45;&gt;Node12 -->
<g id="edge11" class="edge"><title>Node8&#45;&gt;Node12</title>
<path fill="none" stroke="midnightblue" d="M2477.13,-149.891C2491.62,-149.835 2507.15,-150.085 2521.81,-150.604"/>
<polygon fill="midnightblue" stroke="midnightblue" points="2476.76,-146.394 2466.79,-149.985 2476.82,-153.393 2476.76,-146.394"/>
</g>
<!-- Node13 -->
<g id="node13" class="node"><title>Node13</title>
<g id="a_node13"><a xlink:href="../../d0/df6/classCParser.html#a4fad913a0694a5376ad76669d8943122" target="_top" xlink:title="CParser::namespace\l_block">
<polygon fill="white" stroke="black" points="2529.5,-94.3172 2529.5,-124.317 2644.5,-124.317 2644.5,-94.3172 2529.5,-94.3172"/>
<text text-anchor="start" x="2537.5" y="-112.317" font-family="Helvetica,sans-Serif" font-size="10.00">CParser::namespace</text>
<text text-anchor="middle" x="2587" y="-101.317" font-family="Helvetica,sans-Serif" font-size="10.00">_block</text>
</a>
</g>
</g>
<!-- Node8&#45;&gt;Node13 -->
<g id="edge13" class="edge"><title>Node8&#45;&gt;Node13</title>
<path fill="none" stroke="midnightblue" d="M2445.47,-142.363C2468.31,-134.637 2501.08,-125.312 2529.24,-118.351"/>
<polygon fill="midnightblue" stroke="midnightblue" points="2444.01,-139.169 2435.73,-145.786 2446.33,-145.773 2444.01,-139.169"/>
</g>
<!-- Node10 -->
<g id="node10" class="node"><title>Node10</title>
<g id="a_node10"><a xlink:href="../../db/d4a/classMain.html#a803470658c644fa9512140f9d8398dd5" target="_top" xlink:title="Main::ParseFiles">
<polygon fill="white" stroke="black" points="2698,-192.817 2698,-211.817 2792,-211.817 2792,-192.817 2698,-192.817"/>
<text text-anchor="middle" x="2745" y="-199.817" font-family="Helvetica,sans-Serif" font-size="10.00">Main::ParseFiles</text>
</a>
</g>
</g>
<!-- Node9&#45;&gt;Node10 -->
<g id="edge9" class="edge"><title>Node9&#45;&gt;Node10</title>
<path fill="none" stroke="midnightblue" d="M2637.87,-202.317C2657.14,-202.317 2679.05,-202.317 2697.94,-202.317"/>
<polygon fill="midnightblue" stroke="midnightblue" points="2637.77,-198.817 2627.77,-202.317 2637.77,-205.817 2637.77,-198.817"/>
</g>
<!-- Node11 -->
<g id="node11" class="node"><title>Node11</title>
<g id="a_node11"><a xlink:href="../../d6/d93/ccccmain_8cc.html#a3c04138a5bfe5d72780bb7e82a18e627" target="_top" xlink:title="main">
<polygon fill="white" stroke="black" points="2875.5,-192.817 2875.5,-211.817 2914.5,-211.817 2914.5,-192.817 2875.5,-192.817"/>
<text text-anchor="middle" x="2895" y="-199.817" font-family="Helvetica,sans-Serif" font-size="10.00">main</text>
</a>
</g>
</g>
<!-- Node10&#45;&gt;Node11 -->
<g id="edge10" class="edge"><title>Node10&#45;&gt;Node11</title>
<path fill="none" stroke="midnightblue" d="M2802.15,-202.317C2828.09,-202.317 2857.14,-202.317 2875.49,-202.317"/>
<polygon fill="midnightblue" stroke="midnightblue" points="2802.02,-198.817 2792.02,-202.317 2802.02,-205.817 2802.02,-198.817"/>
</g>
<!-- Node12&#45;&gt;Node8 -->
<g id="edge12" class="edge"><title>Node12&#45;&gt;Node8</title>
<path fill="none" stroke="midnightblue" d="M2511.45,-163.702C2496.34,-163.561 2480.79,-163.121 2466.79,-162.417"/>
<polygon fill="midnightblue" stroke="midnightblue" points="2511.8,-167.204 2521.81,-163.751 2511.83,-160.204 2511.8,-167.204"/>
</g>
<!-- Node13&#45;&gt;Node8 -->
<g id="edge14" class="edge"><title>Node13&#45;&gt;Node8</title>
<path fill="none" stroke="midnightblue" d="M2541.46,-127.468C2518.51,-134.61 2490.45,-142.309 2466.79,-147.981"/>
<polygon fill="midnightblue" stroke="midnightblue" points="2542.82,-130.711 2551.28,-124.343 2540.69,-124.04 2542.82,-130.711"/>
</g>
<!-- Node15 -->
<g id="node15" class="node"><title>Node15</title>
<g id="a_node15"><a xlink:href="../../d0/df6/classCParser.html#a4b9f00c05d44a13b3c18b28b52f5be9e" target="_top" xlink:title="CParser::class_block\l_item_list">
<polygon fill="white" stroke="black" points="2530,-45.3172 2530,-75.3172 2644,-75.3172 2644,-45.3172 2530,-45.3172"/>
<text text-anchor="start" x="2538" y="-63.3172" font-family="Helvetica,sans-Serif" font-size="10.00">CParser::class_block</text>
<text text-anchor="middle" x="2587" y="-52.3172" font-family="Helvetica,sans-Serif" font-size="10.00">_item_list</text>
</a>
</g>
</g>
<!-- Node14&#45;&gt;Node15 -->
<g id="edge16" class="edge"><title>Node14&#45;&gt;Node15</title>
<path fill="none" stroke="midnightblue" d="M2484.85,-77.0751C2499.74,-74.6088 2515.34,-72.0236 2529.72,-69.6423"/>
<polygon fill="midnightblue" stroke="midnightblue" points="2483.98,-73.672 2474.69,-78.7595 2485.13,-80.5778 2483.98,-73.672"/>
</g>
<!-- Node16 -->
<g id="node16" class="node"><title>Node16</title>
<g id="a_node16"><a xlink:href="../../d0/df6/classCParser.html#a06c7cac9034f27ad6d998b49a7b574c8" target="_top" xlink:title="CParser::class_block">
<polygon fill="white" stroke="black" points="2688,-50.8172 2688,-69.8172 2802,-69.8172 2802,-50.8172 2688,-50.8172"/>
<text text-anchor="middle" x="2745" y="-57.8172" font-family="Helvetica,sans-Serif" font-size="10.00">CParser::class_block</text>
</a>
</g>
</g>
<!-- Node15&#45;&gt;Node16 -->
<g id="edge17" class="edge"><title>Node15&#45;&gt;Node16</title>
<path fill="none" stroke="midnightblue" d="M2654.4,-60.3172C2665.51,-60.3172 2676.94,-60.3172 2687.76,-60.3172"/>
<polygon fill="midnightblue" stroke="midnightblue" points="2654.32,-56.8173 2644.32,-60.3172 2654.32,-63.8173 2654.32,-56.8173"/>
</g>
<!-- Node17 -->
<g id="node17" class="node"><title>Node17</title>
<g id="a_node17"><a xlink:href="../../d0/df6/classCParser.html#a40fba8426e7ac46e9926515ee81e97f3" target="_top" xlink:title="CParser::class_suffix">
<polygon fill="white" stroke="black" points="2838,-50.8172 2838,-69.8172 2952,-69.8172 2952,-50.8172 2838,-50.8172"/>
<text text-anchor="middle" x="2895" y="-57.8172" font-family="Helvetica,sans-Serif" font-size="10.00">CParser::class_suffix</text>
</a>
</g>
</g>
<!-- Node16&#45;&gt;Node17 -->
<g id="edge18" class="edge"><title>Node16&#45;&gt;Node17</title>
<path fill="none" stroke="midnightblue" d="M2812.56,-60.3172C2820.98,-60.3172 2829.54,-60.3172 2837.78,-60.3172"/>
<polygon fill="midnightblue" stroke="midnightblue" points="2812.37,-56.8173 2802.37,-60.3172 2812.37,-63.8173 2812.37,-56.8173"/>
</g>
<!-- Node18 -->
<g id="node18" class="node"><title>Node18</title>
<g id="a_node18"><a xlink:href="../../d0/df6/classCParser.html#a1ed5fcfb2e97e3551fceabe81989a667" target="_top" xlink:title="CParser::class_declaration\l_or_definition">
<polygon fill="white" stroke="black" points="2988,-45.3172 2988,-75.3172 3131,-75.3172 3131,-45.3172 2988,-45.3172"/>
<text text-anchor="start" x="2996" y="-63.3172" font-family="Helvetica,sans-Serif" font-size="10.00">CParser::class_declaration</text>
<text text-anchor="middle" x="3059.5" y="-52.3172" font-family="Helvetica,sans-Serif" font-size="10.00">_or_definition</text>
</a>
</g>
</g>
<!-- Node17&#45;&gt;Node18 -->
<g id="edge19" class="edge"><title>Node17&#45;&gt;Node18</title>
<path fill="none" stroke="midnightblue" d="M2962.47,-60.3172C2970.86,-60.3172 2979.46,-60.3172 2987.91,-60.3172"/>
<polygon fill="midnightblue" stroke="midnightblue" points="2962.38,-56.8173 2952.38,-60.3172 2962.38,-63.8173 2962.38,-56.8173"/>
</g>
<!-- Node18&#45;&gt;Node7 -->
<g id="edge20" class="edge"><title>Node18&#45;&gt;Node7</title>
<path fill="none" stroke="midnightblue" d="M2981.36,-43.3317C2918.37,-30.9446 2826.87,-16.3172 2746,-16.3172 2586,-16.3172 2586,-16.3172 2586,-16.3172 2476.76,-16.3172 2442.33,-17.8066 2346,-69.3172 2314.25,-86.2957 2285.91,-118.231 2270.87,-137.155"/>
<polygon fill="midnightblue" stroke="midnightblue" points="2980.73,-46.7744 2991.22,-45.298 2982.1,-39.9096 2980.73,-46.7744"/>
</g>
<!-- Node18&#45;&gt;Node19 -->
<g id="edge21" class="edge"><title>Node18&#45;&gt;Node19</title>
<path fill="none" stroke="midnightblue" d="M3082.4,-82.7127C3118.77,-119.915 3190.71,-193.49 3221.72,-225.196"/>
<polygon fill="midnightblue" stroke="midnightblue" points="3084.7,-80.0575 3075.2,-75.3543 3079.69,-84.9513 3084.7,-80.0575"/>
</g>
<!-- Node20&#45;&gt;Node7 -->
<g id="edge23" class="edge"><title>Node20&#45;&gt;Node7</title>
<path fill="none" stroke="midnightblue" d="M2143.83,-215.754C2153.04,-212.253 2162.38,-208.399 2171,-204.317 2193.65,-193.596 2217.98,-178.627 2235.06,-167.501"/>
<polygon fill="midnightblue" stroke="midnightblue" points="2142.49,-212.519 2134.32,-219.268 2144.91,-219.086 2142.49,-212.519"/>
</g>
<!-- Node20&#45;&gt;Node19 -->
<g id="edge24" class="edge"><title>Node20&#45;&gt;Node19</title>
<path fill="none" stroke="midnightblue" d="M2181.57,-236.962C2247.09,-238.571 2336.34,-240.317 2415,-240.317 2415,-240.317 2415,-240.317 2896,-240.317 2989.7,-240.317 3097.9,-240.317 3166.72,-240.317"/>
<polygon fill="midnightblue" stroke="midnightblue" points="2181.34,-233.456 2171.26,-236.706 2181.17,-240.454 2181.34,-233.456"/>
</g>
<!-- Node22 -->
<g id="node22" class="node"><title>Node22</title>
<g id="a_node22"><a xlink:href="../../d0/df6/classCParser.html#a7042164da94c48da4e577a2bf0af04c4" target="_top" xlink:title="CParser::fptr_typedef\l_definition">
<polygon fill="white" stroke="black" points="776.5,-50.3172 776.5,-80.3172 893.5,-80.3172 893.5,-50.3172 776.5,-50.3172"/>
<text text-anchor="start" x="784.5" y="-68.3172" font-family="Helvetica,sans-Serif" font-size="10.00">CParser::fptr_typedef</text>
<text text-anchor="middle" x="835" y="-57.3172" font-family="Helvetica,sans-Serif" font-size="10.00">_definition</text>
</a>
</g>
</g>
<!-- Node21&#45;&gt;Node22 -->
<g id="edge27" class="edge"><title>Node21&#45;&gt;Node22</title>
<path fill="none" stroke="midnightblue" d="M736.943,-69.0146C749.853,-68.5228 763.457,-68.0046 776.262,-67.5168"/>
<polygon fill="midnightblue" stroke="midnightblue" points="736.627,-65.524 726.767,-69.4023 736.893,-72.519 736.627,-65.524"/>
</g>
<!-- Node23 -->
<g id="node23" class="node"><title>Node23</title>
<g id="a_node23"><a xlink:href="../../d0/df6/classCParser.html#a8c598aa662fff7e10be2ee78e078935a" target="_top" xlink:title="CParser::typedef_definition">
<polygon fill="white" stroke="black" points="1454,-79.8172 1454,-98.8172 1598,-98.8172 1598,-79.8172 1454,-79.8172"/>
<text text-anchor="middle" x="1526" y="-86.8172" font-family="Helvetica,sans-Serif" font-size="10.00">CParser::typedef_definition</text>
</a>
</g>
</g>
<!-- Node22&#45;&gt;Node23 -->
<g id="edge28" class="edge"><title>Node22&#45;&gt;Node23</title>
<path fill="none" stroke="midnightblue" d="M904.006,-66.8671C1012.66,-69.468 1232.11,-75.2319 1418,-83.3172 1429.62,-83.8225 1441.94,-84.4387 1453.93,-85.0815"/>
<polygon fill="midnightblue" stroke="midnightblue" points="903.923,-63.3642 893.842,-66.6253 903.756,-70.3623 903.923,-63.3642"/>
</g>
<!-- Node23&#45;&gt;Node7 -->
<g id="edge29" class="edge"><title>Node23&#45;&gt;Node7</title>
<path fill="none" stroke="midnightblue" d="M1608.22,-93.2906C1730.57,-99.7738 1969.29,-114.363 2171,-138.317 2182.63,-139.699 2195.09,-141.516 2206.83,-143.381"/>
<polygon fill="midnightblue" stroke="midnightblue" points="1608.36,-89.7927 1598.19,-92.763 1607.99,-96.7831 1608.36,-89.7927"/>
</g>
<!-- Node25 -->
<g id="node25" class="node"><title>Node25</title>
<g id="a_node25"><a xlink:href="../../d0/df6/classCParser.html#a9104801570f44810a98b9f3a5a76c06c" target="_top" xlink:title="CParser::instance_item">
<polygon fill="white" stroke="black" points="942,-143.817 942,-162.817 1067,-162.817 1067,-143.817 942,-143.817"/>
<text text-anchor="middle" x="1004.5" y="-150.817" font-family="Helvetica,sans-Serif" font-size="10.00">CParser::instance_item</text>
</a>
</g>
</g>
<!-- Node24&#45;&gt;Node25 -->
<g id="edge31" class="edge"><title>Node24&#45;&gt;Node25</title>
<path fill="none" stroke="midnightblue" d="M748.236,-186.719C791.201,-183.564 846.847,-178.775 896,-172.317 915.355,-169.774 936.537,-166.202 954.943,-162.84"/>
<polygon fill="midnightblue" stroke="midnightblue" points="747.88,-183.236 738.158,-187.446 748.384,-190.217 747.88,-183.236"/>
</g>
<!-- Node26 -->
<g id="node26" class="node"><title>Node26</title>
<g id="a_node26"><a xlink:href="../../d0/df6/classCParser.html#a6331346ed010ab6c734d29daeb5d896f" target="_top" xlink:title="CParser::instance_declaration">
<polygon fill="white" stroke="black" points="1113,-142.817 1113,-161.817 1271,-161.817 1271,-142.817 1113,-142.817"/>
<text text-anchor="middle" x="1192" y="-149.817" font-family="Helvetica,sans-Serif" font-size="10.00">CParser::instance_declaration</text>
</a>
</g>
</g>
<!-- Node25&#45;&gt;Node26 -->
<g id="edge32" class="edge"><title>Node25&#45;&gt;Node26</title>
<path fill="none" stroke="midnightblue" d="M1077.14,-152.931C1088.82,-152.868 1100.97,-152.803 1112.81,-152.739"/>
<polygon fill="midnightblue" stroke="midnightblue" points="1076.99,-149.432 1067.01,-152.986 1077.03,-156.432 1076.99,-149.432"/>
</g>
<!-- Node28 -->
<g id="node28" class="node"><title>Node28</title>
<g id="a_node28"><a xlink:href="../../d0/df6/classCParser.html#a70d42f7013f81c71092f771ff9232941" target="_top" xlink:title="CParser::ctor_init_item">
<polygon fill="white" stroke="black" points="1130.5,-183.817 1130.5,-202.817 1253.5,-202.817 1253.5,-183.817 1130.5,-183.817"/>
<text text-anchor="middle" x="1192" y="-190.817" font-family="Helvetica,sans-Serif" font-size="10.00">CParser::ctor_init_item</text>
</a>
</g>
</g>
<!-- Node25&#45;&gt;Node28 -->
<g id="edge35" class="edge"><title>Node25&#45;&gt;Node28</title>
<path fill="none" stroke="midnightblue" d="M1059.87,-165.04C1087.58,-171.016 1120.84,-178.188 1146.93,-183.814"/>
<polygon fill="midnightblue" stroke="midnightblue" points="1060.44,-161.585 1049.93,-162.898 1058.97,-168.428 1060.44,-161.585"/>
</g>
<!-- Node26&#45;&gt;Node7 -->
<g id="edge33" class="edge"><title>Node26&#45;&gt;Node7</title>
<path fill="none" stroke="midnightblue" d="M1281.23,-152.317C1348.13,-152.317 1442.35,-152.317 1525,-152.317 1525,-152.317 1525,-152.317 1881,-152.317 1997.68,-152.317 2134.69,-152.317 2206.95,-152.317"/>
<polygon fill="midnightblue" stroke="midnightblue" points="1281.15,-148.817 1271.15,-152.317 1281.15,-155.817 1281.15,-148.817"/>
</g>
<!-- Node27 -->
<g id="node27" class="node"><title>Node27</title>
<g id="a_node27"><a xlink:href="../../d0/df6/classCParser.html#a4e7cf3c3b19f9c664f345a10116c2c2c" target="_top" xlink:title="CParser::knr_param\l_decl_list">
<polygon fill="white" stroke="black" points="1307,-93.3172 1307,-123.317 1418,-123.317 1418,-93.3172 1307,-93.3172"/>
<text text-anchor="start" x="1315" y="-111.317" font-family="Helvetica,sans-Serif" font-size="10.00">CParser::knr_param</text>
<text text-anchor="middle" x="1362.5" y="-100.317" font-family="Helvetica,sans-Serif" font-size="10.00">_decl_list</text>
</a>
</g>
</g>
<!-- Node26&#45;&gt;Node27 -->
<g id="edge34" class="edge"><title>Node26&#45;&gt;Node27</title>
<path fill="none" stroke="midnightblue" d="M1239.45,-140.188C1260.29,-134.746 1285.02,-128.288 1306.75,-122.613"/>
<polygon fill="midnightblue" stroke="midnightblue" points="1238.35,-136.857 1229.56,-142.77 1240.12,-143.63 1238.35,-136.857"/>
</g>
<!-- Node29 -->
<g id="node29" class="node"><title>Node29</title>
<g id="a_node29"><a xlink:href="../../d0/df6/classCParser.html#a617e49ab4458d5b4adf577a6a0bc05cd" target="_top" xlink:title="CParser::ctor_init\l_item_list">
<polygon fill="white" stroke="black" points="1313.5,-181.317 1313.5,-211.317 1411.5,-211.317 1411.5,-181.317 1313.5,-181.317"/>
<text text-anchor="start" x="1321.5" y="-199.317" font-family="Helvetica,sans-Serif" font-size="10.00">CParser::ctor_init</text>
<text text-anchor="middle" x="1362.5" y="-188.317" font-family="Helvetica,sans-Serif" font-size="10.00">_item_list</text>
</a>
</g>
</g>
<!-- Node28&#45;&gt;Node29 -->
<g id="edge36" class="edge"><title>Node28&#45;&gt;Node29</title>
<path fill="none" stroke="midnightblue" d="M1264.08,-194.583C1280.73,-194.879 1298.07,-195.188 1313.44,-195.462"/>
<polygon fill="midnightblue" stroke="midnightblue" points="1263.89,-191.079 1253.83,-194.4 1263.77,-198.078 1263.89,-191.079"/>
</g>
<!-- Node30 -->
<g id="node30" class="node"><title>Node30</title>
<g id="a_node30"><a xlink:href="../../d0/df6/classCParser.html#ab6c0eabf2b00874bf8f70b576d96ce52" target="_top" xlink:title="CParser::ctor_init_list">
<polygon fill="white" stroke="black" points="1468,-187.817 1468,-206.817 1584,-206.817 1584,-187.817 1468,-187.817"/>
<text text-anchor="middle" x="1526" y="-194.817" font-family="Helvetica,sans-Serif" font-size="10.00">CParser::ctor_init_list</text>
</a>
</g>
</g>
<!-- Node29&#45;&gt;Node30 -->
<g id="edge37" class="edge"><title>Node29&#45;&gt;Node30</title>
<path fill="none" stroke="midnightblue" d="M1421.69,-196.678C1436.69,-196.77 1452.82,-196.87 1467.76,-196.963"/>
<polygon fill="midnightblue" stroke="midnightblue" points="1421.54,-193.177 1411.52,-196.615 1421.5,-200.176 1421.54,-193.177"/>
</g>
<!-- Node31 -->
<g id="node31" class="node"><title>Node31</title>
<g id="a_node31"><a xlink:href="../../d0/df6/classCParser.html#ad7a6fd3a8b7daa3c26191f4512236a59" target="_top" xlink:title="CParser::method_suffix">
<polygon fill="white" stroke="black" points="1634,-189.817 1634,-208.817 1759,-208.817 1759,-189.817 1634,-189.817"/>
<text text-anchor="middle" x="1696.5" y="-196.817" font-family="Helvetica,sans-Serif" font-size="10.00">CParser::method_suffix</text>
</a>
</g>
</g>
<!-- Node30&#45;&gt;Node31 -->
<g id="edge38" class="edge"><title>Node30&#45;&gt;Node31</title>
<path fill="none" stroke="midnightblue" d="M1594.37,-198.117C1607.42,-198.272 1621.04,-198.433 1633.89,-198.586"/>
<polygon fill="midnightblue" stroke="midnightblue" points="1594.09,-194.613 1584.05,-197.994 1594,-201.613 1594.09,-194.613"/>
</g>
<!-- Node31&#45;&gt;Node6 -->
<g id="edge39" class="edge"><title>Node31&#45;&gt;Node6</title>
<path fill="none" stroke="midnightblue" d="M1757.12,-210.814C1771.2,-213.529 1786.41,-216.462 1801.16,-219.306"/>
<polygon fill="midnightblue" stroke="midnightblue" points="1757.58,-207.338 1747.1,-208.881 1756.25,-214.211 1757.58,-207.338"/>
</g>
<!-- Node33 -->
<g id="node33" class="node"><title>Node33</title>
<g id="a_node33"><a xlink:href="../../d0/df6/classCParser.html#a545c65918de48a33554b6fa86bf7bee4" target="_top" xlink:title="CParser::init_expr">
<polygon fill="white" stroke="black" points="625,-143.817 625,-162.817 726,-162.817 726,-143.817 625,-143.817"/>
<text text-anchor="middle" x="675.5" y="-150.817" font-family="Helvetica,sans-Serif" font-size="10.00">CParser::init_expr</text>
</a>
</g>
</g>
<!-- Node32&#45;&gt;Node33 -->
<g id="edge41" class="edge"><title>Node32&#45;&gt;Node33</title>
<path fill="none" stroke="midnightblue" d="M587.248,-153.317C599.971,-153.317 612.952,-153.317 624.879,-153.317"/>
<polygon fill="midnightblue" stroke="midnightblue" points="587.124,-149.817 577.124,-153.317 587.124,-156.817 587.124,-149.817"/>
</g>
<!-- Node34 -->
<g id="node34" class="node"><title>Node34</title>
<g id="a_node34"><a xlink:href="../../d0/df6/classCParser.html#aa7fd7f7807fc630d9020e84dbb3445e0" target="_top" xlink:title="CParser::opt_initializer">
<polygon fill="white" stroke="black" points="774,-143.817 774,-162.817 896,-162.817 896,-143.817 774,-143.817"/>
<text text-anchor="middle" x="835" y="-150.817" font-family="Helvetica,sans-Serif" font-size="10.00">CParser::opt_initializer</text>
</a>
</g>
</g>
<!-- Node33&#45;&gt;Node34 -->
<g id="edge42" class="edge"><title>Node33&#45;&gt;Node34</title>
<path fill="none" stroke="midnightblue" d="M736.418,-153.317C748.635,-153.317 761.496,-153.317 773.726,-153.317"/>
<polygon fill="midnightblue" stroke="midnightblue" points="736.334,-149.817 726.334,-153.317 736.334,-156.817 736.334,-149.817"/>
</g>
<!-- Node34&#45;&gt;Node25 -->
<g id="edge43" class="edge"><title>Node34&#45;&gt;Node25</title>
<path fill="none" stroke="midnightblue" d="M906.673,-153.317C918.412,-153.317 930.503,-153.317 941.991,-153.317"/>
<polygon fill="midnightblue" stroke="midnightblue" points="906.471,-149.817 896.471,-153.317 906.471,-156.817 906.471,-149.817"/>
</g>
<!-- Node36&#45;&gt;Node1 -->
<g id="edge46" class="edge"><title>Node36&#45;&gt;Node1</title>
<path fill="none" stroke="midnightblue" d="M461.637,-39.3172C372.779,-39.3172 191.424,-39.3172 103.099,-39.3172"/>
<polygon fill="midnightblue" stroke="midnightblue" points="461.745,-42.8173 471.745,-39.3172 461.745,-35.8173 461.745,-42.8173"/>
</g>
<!-- Node37&#45;&gt;Node36 -->
<g id="edge48" class="edge"><title>Node37&#45;&gt;Node36</title>
<path fill="none" stroke="midnightblue" d="M424.201,-50.1325C440.432,-48.1557 457.299,-46.1013 471.917,-44.3209"/>
<polygon fill="midnightblue" stroke="midnightblue" points="423.706,-46.6668 414.203,-51.3502 424.553,-53.6154 423.706,-46.6668"/>
</g>
<!-- Node38 -->
<g id="node38" class="node"><title>Node38</title>
<g id="a_node38"><a xlink:href="../../d0/df6/classCParser.html#a42ff2d36ecac90dd1cf7ac0a3a5862f1" target="_top" xlink:title="CParser::brack_list">
<polygon fill="white" stroke="black" points="783,-102.817 783,-121.817 887,-121.817 887,-102.817 783,-102.817"/>
<text text-anchor="middle" x="835" y="-109.817" font-family="Helvetica,sans-Serif" font-size="10.00">CParser::brack_list</text>
</a>
</g>
</g>
<!-- Node37&#45;&gt;Node38 -->
<g id="edge49" class="edge"><title>Node37&#45;&gt;Node38</title>
<path fill="none" stroke="midnightblue" d="M383.918,-44.2002C402.266,-35.399 427.419,-24.9033 451,-20.3172 576.722,4.13358 626.657,16.9819 738,-46.3172 759.668,-58.6355 753.713,-74.8369 774,-89.3172 781.809,-94.891 791.142,-99.3155 800.095,-102.734"/>
<polygon fill="midnightblue" stroke="midnightblue" points="382.15,-41.1702 374.734,-48.7372 385.25,-47.4462 382.15,-41.1702"/>
</g>
<!-- Node38&#45;&gt;Node25 -->
<g id="edge50" class="edge"><title>Node38&#45;&gt;Node25</title>
<path fill="none" stroke="midnightblue" d="M884.663,-124.229C910.077,-130.45 940.753,-137.958 964.572,-143.789"/>
<polygon fill="midnightblue" stroke="midnightblue" points="885.394,-120.805 874.849,-121.826 883.73,-127.604 885.394,-120.805"/>
</g>
</g>
</svg>
