<?xml version="1.0" encoding="UTF-8" standalone="no"?>
<!DOCTYPE svg PUBLIC "-//W3C//DTD SVG 1.1//EN"
 "http://www.w3.org/Graphics/SVG/1.1/DTD/svg11.dtd">
<!-- Generated by graphviz version 2.38.0 (20140413.2041)
 -->
<!-- Title: CParser::scoped Pages: 1 -->
<svg width="3447pt" height="286pt"
 viewBox="0.00 0.00 3447.00 286.32" xmlns="http://www.w3.org/2000/svg" xmlns:xlink="http://www.w3.org/1999/xlink">
<g id="graph0" class="graph" transform="scale(1 1) rotate(0) translate(4 282.317)">
<title>CParser::scoped</title>
<polygon fill="white" stroke="none" points="-4,4 -4,-282.317 3443,-282.317 3443,4 -4,4"/>
<!-- Node1 -->
<g id="node1" class="node"><title>Node1</title>
<polygon fill="#bfbfbf" stroke="black" points="0,-29.8172 0,-48.8172 95,-48.8172 95,-29.8172 0,-29.8172"/>
<text text-anchor="middle" x="47.5" y="-36.8172" font-family="Helvetica,sans-Serif" font-size="10.00">CParser::scoped</text>
</g>
<!-- Node2 -->
<g id="node2" class="node"><title>Node2</title>
<g id="a_node2"><a xlink:href="../../d0/df6/classCParser.html#a424ec587e8167b682804c23c4804d895" target="_top" xlink:title="CParser::balanced">
<polygon fill="white" stroke="black" points="131,-29.8172 131,-48.8172 234,-48.8172 234,-29.8172 131,-29.8172"/>
<text text-anchor="middle" x="182.5" y="-36.8172" font-family="Helvetica,sans-Serif" font-size="10.00">CParser::balanced</text>
</a>
</g>
</g>
<!-- Node1&#45;&gt;Node2 -->
<g id="edge1" class="edge"><title>Node1&#45;&gt;Node2</title>
<path fill="none" stroke="midnightblue" d="M105.204,-39.3172C113.676,-39.3172 122.364,-39.3172 130.703,-39.3172"/>
<polygon fill="midnightblue" stroke="midnightblue" points="105.017,-35.8173 95.0169,-39.3172 105.017,-42.8173 105.017,-35.8173"/>
</g>
<!-- Node3 -->
<g id="node3" class="node"><title>Node3</title>
<g id="a_node3"><a xlink:href="../../d0/df6/classCParser.html#a967d50b91351cf003898543b6d7af7a7" target="_top" xlink:title="CParser::balanced_list">
<polygon fill="white" stroke="black" points="270,-48.8172 270,-67.8172 392,-67.8172 392,-48.8172 270,-48.8172"/>
<text text-anchor="middle" x="331" y="-55.8172" font-family="Helvetica,sans-Serif" font-size="10.00">CParser::balanced_list</text>
</a>
</g>
</g>
<!-- Node2&#45;&gt;Node3 -->
<g id="edge2" class="edge"><title>Node2&#45;&gt;Node3</title>
<path fill="none" stroke="midnightblue" d="M244.462,-47.2236C252.887,-48.3162 261.535,-49.4378 269.943,-50.5283"/>
<polygon fill="midnightblue" stroke="midnightblue" points="244.695,-43.7245 234.327,-45.9092 243.794,-50.6663 244.695,-43.7245"/>
</g>
<!-- Node4 -->
<g id="node4" class="node"><title>Node4</title>
<g id="a_node4"><a xlink:href="../../d0/df6/classCParser.html#a51affc383cd0859af5d84b628c8a2f5c" target="_top" xlink:title="CParser::paren_block">
<polygon fill="white" stroke="black" points="428,-105.817 428,-124.817 546,-124.817 546,-105.817 428,-105.817"/>
<text text-anchor="middle" x="487" y="-112.817" font-family="Helvetica,sans-Serif" font-size="10.00">CParser::paren_block</text>
</a>
</g>
</g>
<!-- Node3&#45;&gt;Node4 -->
<g id="edge3" class="edge"><title>Node3&#45;&gt;Node4</title>
<path fill="none" stroke="midnightblue" d="M367.3,-71.3827C395.607,-81.86 434.68,-96.3223 460.14,-105.746"/>
<polygon fill="midnightblue" stroke="midnightblue" points="368.369,-68.0466 357.776,-67.8577 365.939,-74.6113 368.369,-68.0466"/>
</g>
<!-- Node38 -->
<g id="node38" class="node"><title>Node38</title>
<g id="a_node38"><a xlink:href="../../d0/df6/classCParser.html#ac73c93a601c6e7123e0ebbd7be03b60d" target="_top" xlink:title="CParser::brack_block">
<polygon fill="white" stroke="black" points="429,-48.8172 429,-67.8172 545,-67.8172 545,-48.8172 429,-48.8172"/>
<text text-anchor="middle" x="487" y="-55.8172" font-family="Helvetica,sans-Serif" font-size="10.00">CParser::brack_block</text>
</a>
</g>
</g>
<!-- Node3&#45;&gt;Node38 -->
<g id="edge48" class="edge"><title>Node3&#45;&gt;Node38</title>
<path fill="none" stroke="midnightblue" d="M402.625,-58.3172C411.382,-58.3172 420.249,-58.3172 428.771,-58.3172"/>
<polygon fill="midnightblue" stroke="midnightblue" points="402.423,-54.8173 392.423,-58.3172 402.423,-61.8173 402.423,-54.8173"/>
</g>
<!-- Node5 -->
<g id="node5" class="node"><title>Node5</title>
<g id="a_node5"><a xlink:href="../../d0/df6/classCParser.html#afbe8666c28623fadda88dce63f2d0dd7" target="_top" xlink:title="CParser::param_list">
<polygon fill="white" stroke="black" points="590.5,-222.817 590.5,-241.817 699.5,-241.817 699.5,-222.817 590.5,-222.817"/>
<text text-anchor="middle" x="645" y="-229.817" font-family="Helvetica,sans-Serif" font-size="10.00">CParser::param_list</text>
</a>
</g>
</g>
<!-- Node4&#45;&gt;Node5 -->
<g id="edge4" class="edge"><title>Node4&#45;&gt;Node5</title>
<path fill="none" stroke="midnightblue" d="M502.484,-132.455C519.793,-152.1 550.401,-184.288 582,-205.317 592.556,-212.342 605.24,-218.245 616.378,-222.723"/>
<polygon fill="midnightblue" stroke="midnightblue" points="505.109,-130.14 495.916,-124.873 499.818,-134.724 505.109,-130.14"/>
</g>
<!-- Node22 -->
<g id="node22" class="node"><title>Node22</title>
<g id="a_node22"><a xlink:href="../../d0/df6/classCParser.html#a74aee17394e57d00d5cf1cb233f2dd42" target="_top" xlink:title="CParser::fptr_type\l_alias">
<polygon fill="white" stroke="black" points="755.5,-56.3172 755.5,-86.3172 857.5,-86.3172 857.5,-56.3172 755.5,-56.3172"/>
<text text-anchor="start" x="763.5" y="-74.3172" font-family="Helvetica,sans-Serif" font-size="10.00">CParser::fptr_type</text>
<text text-anchor="middle" x="806.5" y="-63.3172" font-family="Helvetica,sans-Serif" font-size="10.00">_alias</text>
</a>
</g>
</g>
<!-- Node4&#45;&gt;Node22 -->
<g id="edge27" class="edge"><title>Node4&#45;&gt;Node22</title>
<path fill="none" stroke="midnightblue" d="M540.906,-103.774C554.274,-101.092 568.63,-98.412 582,-96.3172 641.21,-87.0401 709.77,-79.9 755.179,-75.6696"/>
<polygon fill="midnightblue" stroke="midnightblue" points="540.006,-100.386 530.909,-105.816 541.407,-107.244 540.006,-100.386"/>
</g>
<!-- Node25 -->
<g id="node25" class="node"><title>Node25</title>
<g id="a_node25"><a xlink:href="../../d0/df6/classCParser.html#a5e83377507b06b136005686f47f13fcb" target="_top" xlink:title="CParser::item_specifier">
<polygon fill="white" stroke="black" points="744,-181.817 744,-200.817 869,-200.817 869,-181.817 744,-181.817"/>
<text text-anchor="middle" x="806.5" y="-188.817" font-family="Helvetica,sans-Serif" font-size="10.00">CParser::item_specifier</text>
</a>
</g>
</g>
<!-- Node4&#45;&gt;Node25 -->
<g id="edge31" class="edge"><title>Node4&#45;&gt;Node25</title>
<path fill="none" stroke="midnightblue" d="M507.933,-131.189C526.094,-144.686 554.241,-163.274 582,-172.317 634.763,-189.507 698.037,-193.447 743.772,-193.562"/>
<polygon fill="midnightblue" stroke="midnightblue" points="509.94,-128.318 499.866,-125.037 505.695,-133.884 509.94,-128.318"/>
</g>
<!-- Node33 -->
<g id="node33" class="node"><title>Node33</title>
<g id="a_node33"><a xlink:href="../../d0/df6/classCParser.html#aa600547e6bdaf5e45d02c89a19c7fa4b" target="_top" xlink:title="CParser::init_expr_item">
<polygon fill="white" stroke="black" points="582,-143.817 582,-162.817 708,-162.817 708,-143.817 582,-143.817"/>
<text text-anchor="middle" x="645" y="-150.817" font-family="Helvetica,sans-Serif" font-size="10.00">CParser::init_expr_item</text>
</a>
</g>
</g>
<!-- Node4&#45;&gt;Node33 -->
<g id="edge41" class="edge"><title>Node4&#45;&gt;Node33</title>
<path fill="none" stroke="midnightblue" d="M537.132,-127.285C558.993,-132.61 584.376,-138.793 604.918,-143.797"/>
<polygon fill="midnightblue" stroke="midnightblue" points="537.91,-123.872 527.365,-124.906 536.253,-130.674 537.91,-123.872"/>
</g>
<!-- Node36 -->
<g id="node36" class="node"><title>Node36</title>
<g id="a_node36"><a xlink:href="../../d0/df6/classCParser.html#a8715e75c1e5fe112f10ccf0986cc2c7d" target="_top" xlink:title="CParser::init_value">
<polygon fill="white" stroke="black" points="593,-105.817 593,-124.817 697,-124.817 697,-105.817 593,-105.817"/>
<text text-anchor="middle" x="645" y="-112.817" font-family="Helvetica,sans-Serif" font-size="10.00">CParser::init_value</text>
</a>
</g>
</g>
<!-- Node4&#45;&gt;Node36 -->
<g id="edge45" class="edge"><title>Node4&#45;&gt;Node36</title>
<path fill="none" stroke="midnightblue" d="M556.282,-115.317C568.54,-115.317 581.123,-115.317 592.795,-115.317"/>
<polygon fill="midnightblue" stroke="midnightblue" points="556.089,-111.817 546.089,-115.317 556.089,-118.817 556.089,-111.817"/>
</g>
<!-- Node37 -->
<g id="node37" class="node"><title>Node37</title>
<g id="a_node37"><a xlink:href="../../d0/df6/classCParser.html#a35e24b97e6c8566e503521071040413f" target="_top" xlink:title="CParser::block">
<polygon fill="white" stroke="black" points="603,-29.8172 603,-48.8172 687,-48.8172 687,-29.8172 603,-29.8172"/>
<text text-anchor="middle" x="645" y="-36.8172" font-family="Helvetica,sans-Serif" font-size="10.00">CParser::block</text>
</a>
</g>
</g>
<!-- Node4&#45;&gt;Node37 -->
<g id="edge46" class="edge"><title>Node4&#45;&gt;Node37</title>
<path fill="none" stroke="midnightblue" d="M512.373,-100.633C531.074,-89.6636 557.719,-74.6687 582,-63.3172 593.188,-58.0869 605.855,-53.036 616.81,-48.9283"/>
<polygon fill="midnightblue" stroke="midnightblue" points="510.447,-97.7063 503.624,-105.812 514.013,-103.73 510.447,-97.7063"/>
</g>
<!-- Node6 -->
<g id="node6" class="node"><title>Node6</title>
<g id="a_node6"><a xlink:href="../../d0/df6/classCParser.html#ab263641e50f3b30b3ac343dd3a5f7e61" target="_top" xlink:title="CParser::method_signature">
<polygon fill="white" stroke="black" points="1063,-228.817 1063,-247.817 1208,-247.817 1208,-228.817 1063,-228.817"/>
<text text-anchor="middle" x="1135.5" y="-235.817" font-family="Helvetica,sans-Serif" font-size="10.00">CParser::method_signature</text>
</a>
</g>
</g>
<!-- Node5&#45;&gt;Node6 -->
<g id="edge5" class="edge"><title>Node5&#45;&gt;Node6</title>
<path fill="none" stroke="midnightblue" d="M709.866,-233.102C800.999,-234.221 967.825,-236.27 1062.99,-237.439"/>
<polygon fill="midnightblue" stroke="midnightblue" points="709.718,-229.6 699.675,-232.976 709.632,-236.599 709.718,-229.6"/>
</g>
<!-- Node7 -->
<g id="node7" class="node"><title>Node7</title>
<g id="a_node7"><a xlink:href="../../d0/df6/classCParser.html#a0dd2a579512bf1a17aaeac5fdec860a7" target="_top" xlink:title="CParser::method_declaration\l_or_definition_with_implicit_type">
<polygon fill="white" stroke="black" points="1926,-219.317 1926,-249.317 2096,-249.317 2096,-219.317 1926,-219.317"/>
<text text-anchor="start" x="1934" y="-237.317" font-family="Helvetica,sans-Serif" font-size="10.00">CParser::method_declaration</text>
<text text-anchor="middle" x="2011" y="-226.317" font-family="Helvetica,sans-Serif" font-size="10.00">_or_definition_with_implicit_type</text>
</a>
</g>
</g>
<!-- Node6&#45;&gt;Node7 -->
<g id="edge6" class="edge"><title>Node6&#45;&gt;Node7</title>
<path fill="none" stroke="midnightblue" d="M1218.48,-239.039C1290.63,-239.612 1398.54,-240.317 1492.5,-240.317 1492.5,-240.317 1492.5,-240.317 1658,-240.317 1749.53,-240.317 1854.42,-238.264 1925.73,-236.56"/>
<polygon fill="midnightblue" stroke="midnightblue" points="1218.12,-235.536 1208.1,-238.956 1218.07,-242.536 1218.12,-235.536"/>
</g>
<!-- Node8 -->
<g id="node8" class="node"><title>Node8</title>
<g id="a_node8"><a xlink:href="../../d0/df6/classCParser.html#ab3ab57ace628c2476dd8dfe5a96f9a15" target="_top" xlink:title="CParser::definition\l_or_declaration">
<polygon fill="white" stroke="black" points="2338,-137.317 2338,-167.317 2441,-167.317 2441,-137.317 2338,-137.317"/>
<text text-anchor="start" x="2346" y="-155.317" font-family="Helvetica,sans-Serif" font-size="10.00">CParser::definition</text>
<text text-anchor="middle" x="2389.5" y="-144.317" font-family="Helvetica,sans-Serif" font-size="10.00">_or_declaration</text>
</a>
</g>
</g>
<!-- Node7&#45;&gt;Node8 -->
<g id="edge7" class="edge"><title>Node7&#45;&gt;Node8</title>
<path fill="none" stroke="midnightblue" d="M2090.86,-217.142C2165.27,-200.936 2274.59,-177.127 2337.96,-163.326"/>
<polygon fill="midnightblue" stroke="midnightblue" points="2090.08,-213.729 2081.06,-219.277 2091.57,-220.569 2090.08,-213.729"/>
</g>
<!-- Node20 -->
<g id="node20" class="node"><title>Node20</title>
<g id="a_node20"><a xlink:href="../../d0/df6/classCParser.html#a12561a45dab96760d7ab45896681dd33" target="_top" xlink:title="CParser::class_or_method\l_declaration_or_definition">
<polygon fill="white" stroke="black" points="3298,-225.317 3298,-255.317 3439,-255.317 3439,-225.317 3298,-225.317"/>
<text text-anchor="start" x="3306" y="-243.317" font-family="Helvetica,sans-Serif" font-size="10.00">CParser::class_or_method</text>
<text text-anchor="middle" x="3368.5" y="-232.317" font-family="Helvetica,sans-Serif" font-size="10.00">_declaration_or_definition</text>
</a>
</g>
</g>
<!-- Node7&#45;&gt;Node20 -->
<g id="edge26" class="edge"><title>Node7&#45;&gt;Node20</title>
<path fill="none" stroke="midnightblue" d="M2086.71,-251.464C2101.65,-254.445 2117.27,-257.247 2132,-259.317 2245.2,-275.231 2274.19,-278.317 2388.5,-278.317 2388.5,-278.317 2388.5,-278.317 3027,-278.317 3121.28,-278.317 3229.34,-263.75 3297.98,-252.655"/>
<polygon fill="midnightblue" stroke="midnightblue" points="2086.99,-247.95 2076.5,-249.378 2085.59,-254.808 2086.99,-247.95"/>
</g>
<!-- Node21 -->
<g id="node21" class="node"><title>Node21</title>
<g id="a_node21"><a xlink:href="../../d0/df6/classCParser.html#af0c9d35d4c997c6f34cf4a26563b513c" target="_top" xlink:title="CParser::method_declaration\l_or_definition_with_explicit_type">
<polygon fill="white" stroke="black" points="2132,-219.317 2132,-249.317 2302,-249.317 2302,-219.317 2132,-219.317"/>
<text text-anchor="start" x="2140" y="-237.317" font-family="Helvetica,sans-Serif" font-size="10.00">CParser::method_declaration</text>
<text text-anchor="middle" x="2217" y="-226.317" font-family="Helvetica,sans-Serif" font-size="10.00">_or_definition_with_explicit_type</text>
</a>
</g>
</g>
<!-- Node7&#45;&gt;Node21 -->
<g id="edge23" class="edge"><title>Node7&#45;&gt;Node21</title>
<path fill="none" stroke="midnightblue" d="M2106.4,-234.317C2114.85,-234.317 2123.36,-234.317 2131.71,-234.317"/>
<polygon fill="midnightblue" stroke="midnightblue" points="2106.15,-230.817 2096.15,-234.317 2106.15,-237.817 2106.15,-230.817"/>
</g>
<!-- Node9 -->
<g id="node9" class="node"><title>Node9</title>
<g id="a_node9"><a xlink:href="../../d0/df6/classCParser.html#a2b78ab2005bef5c43ee2d4689210eab1" target="_top" xlink:title="CParser::link_item">
<polygon fill="white" stroke="black" points="2496.5,-145.817 2496.5,-164.817 2597.5,-164.817 2597.5,-145.817 2496.5,-145.817"/>
<text text-anchor="middle" x="2547" y="-152.817" font-family="Helvetica,sans-Serif" font-size="10.00">CParser::link_item</text>
</a>
</g>
</g>
<!-- Node8&#45;&gt;Node9 -->
<g id="edge8" class="edge"><title>Node8&#45;&gt;Node9</title>
<path fill="none" stroke="midnightblue" d="M2451.52,-153.495C2466.36,-153.781 2482.05,-154.084 2496.29,-154.358"/>
<polygon fill="midnightblue" stroke="midnightblue" points="2451.48,-149.993 2441.42,-153.3 2451.35,-156.992 2451.48,-149.993"/>
</g>
<!-- Node15 -->
<g id="node15" class="node"><title>Node15</title>
<g id="a_node15"><a xlink:href="../../d0/df6/classCParser.html#a85eb09132fa5a588749cea062f0d11ea" target="_top" xlink:title="CParser::class_block_item">
<polygon fill="white" stroke="black" points="2477,-78.8172 2477,-97.8172 2617,-97.8172 2617,-78.8172 2477,-78.8172"/>
<text text-anchor="middle" x="2547" y="-85.8172" font-family="Helvetica,sans-Serif" font-size="10.00">CParser::class_block_item</text>
</a>
</g>
</g>
<!-- Node8&#45;&gt;Node15 -->
<g id="edge16" class="edge"><title>Node8&#45;&gt;Node15</title>
<path fill="none" stroke="midnightblue" d="M2436.3,-133.465C2464.73,-121.767 2500.04,-107.232 2522.8,-97.8668"/>
<polygon fill="midnightblue" stroke="midnightblue" points="2434.87,-130.269 2426.96,-137.312 2437.54,-136.743 2434.87,-130.269"/>
</g>
<!-- Node10 -->
<g id="node10" class="node"><title>Node10</title>
<g id="a_node10"><a xlink:href="../../d0/df6/classCParser.html#a4f02da23566af37123efb3768769c09b" target="_top" xlink:title="CParser::start">
<polygon fill="white" stroke="black" points="2677.5,-192.817 2677.5,-211.817 2758.5,-211.817 2758.5,-192.817 2677.5,-192.817"/>
<text text-anchor="middle" x="2718" y="-199.817" font-family="Helvetica,sans-Serif" font-size="10.00">CParser::start</text>
</a>
</g>
</g>
<!-- Node9&#45;&gt;Node10 -->
<g id="edge9" class="edge"><title>Node9&#45;&gt;Node10</title>
<path fill="none" stroke="midnightblue" d="M2591.84,-167.509C2620.11,-175.372 2656.36,-185.452 2682.56,-192.74"/>
<polygon fill="midnightblue" stroke="midnightblue" points="2592.77,-164.136 2582.2,-164.828 2590.9,-170.88 2592.77,-164.136"/>
</g>
<!-- Node13 -->
<g id="node13" class="node"><title>Node13</title>
<g id="a_node13"><a xlink:href="../../d0/df6/classCParser.html#a86906e492ff9c606fb3537078f46f93e" target="_top" xlink:title="CParser::extern_linkage\l_block">
<polygon fill="white" stroke="black" points="2653,-143.317 2653,-173.317 2783,-173.317 2783,-143.317 2653,-143.317"/>
<text text-anchor="start" x="2661" y="-161.317" font-family="Helvetica,sans-Serif" font-size="10.00">CParser::extern_linkage</text>
<text text-anchor="middle" x="2718" y="-150.317" font-family="Helvetica,sans-Serif" font-size="10.00">_block</text>
</a>
</g>
</g>
<!-- Node9&#45;&gt;Node13 -->
<g id="edge12" class="edge"><title>Node9&#45;&gt;Node13</title>
<path fill="none" stroke="midnightblue" d="M2608.13,-149.891C2622.62,-149.835 2638.15,-150.085 2652.81,-150.604"/>
<polygon fill="midnightblue" stroke="midnightblue" points="2607.76,-146.394 2597.79,-149.985 2607.82,-153.393 2607.76,-146.394"/>
</g>
<!-- Node14 -->
<g id="node14" class="node"><title>Node14</title>
<g id="a_node14"><a xlink:href="../../d0/df6/classCParser.html#a4fad913a0694a5376ad76669d8943122" target="_top" xlink:title="CParser::namespace\l_block">
<polygon fill="white" stroke="black" points="2660.5,-94.3172 2660.5,-124.317 2775.5,-124.317 2775.5,-94.3172 2660.5,-94.3172"/>
<text text-anchor="start" x="2668.5" y="-112.317" font-family="Helvetica,sans-Serif" font-size="10.00">CParser::namespace</text>
<text text-anchor="middle" x="2718" y="-101.317" font-family="Helvetica,sans-Serif" font-size="10.00">_block</text>
</a>
</g>
</g>
<!-- Node9&#45;&gt;Node14 -->
<g id="edge14" class="edge"><title>Node9&#45;&gt;Node14</title>
<path fill="none" stroke="midnightblue" d="M2576.47,-142.363C2599.31,-134.637 2632.08,-125.312 2660.24,-118.351"/>
<polygon fill="midnightblue" stroke="midnightblue" points="2575.01,-139.169 2566.73,-145.786 2577.33,-145.773 2575.01,-139.169"/>
</g>
<!-- Node11 -->
<g id="node11" class="node"><title>Node11</title>
<g id="a_node11"><a xlink:href="../../db/d4a/classMain.html#a803470658c644fa9512140f9d8398dd5" target="_top" xlink:title="Main::ParseFiles">
<polygon fill="white" stroke="black" points="2829,-192.817 2829,-211.817 2923,-211.817 2923,-192.817 2829,-192.817"/>
<text text-anchor="middle" x="2876" y="-199.817" font-family="Helvetica,sans-Serif" font-size="10.00">Main::ParseFiles</text>
</a>
</g>
</g>
<!-- Node10&#45;&gt;Node11 -->
<g id="edge10" class="edge"><title>Node10&#45;&gt;Node11</title>
<path fill="none" stroke="midnightblue" d="M2768.87,-202.317C2788.14,-202.317 2810.05,-202.317 2828.94,-202.317"/>
<polygon fill="midnightblue" stroke="midnightblue" points="2768.77,-198.817 2758.77,-202.317 2768.77,-205.817 2768.77,-198.817"/>
</g>
<!-- Node12 -->
<g id="node12" class="node"><title>Node12</title>
<g id="a_node12"><a xlink:href="../../d6/d93/ccccmain_8cc.html#a3c04138a5bfe5d72780bb7e82a18e627" target="_top" xlink:title="main">
<polygon fill="white" stroke="black" points="3006.5,-192.817 3006.5,-211.817 3045.5,-211.817 3045.5,-192.817 3006.5,-192.817"/>
<text text-anchor="middle" x="3026" y="-199.817" font-family="Helvetica,sans-Serif" font-size="10.00">main</text>
</a>
</g>
</g>
<!-- Node11&#45;&gt;Node12 -->
<g id="edge11" class="edge"><title>Node11&#45;&gt;Node12</title>
<path fill="none" stroke="midnightblue" d="M2933.15,-202.317C2959.09,-202.317 2988.14,-202.317 3006.49,-202.317"/>
<polygon fill="midnightblue" stroke="midnightblue" points="2933.02,-198.817 2923.02,-202.317 2933.02,-205.817 2933.02,-198.817"/>
</g>
<!-- Node13&#45;&gt;Node9 -->
<g id="edge13" class="edge"><title>Node13&#45;&gt;Node9</title>
<path fill="none" stroke="midnightblue" d="M2642.45,-163.702C2627.34,-163.561 2611.79,-163.121 2597.79,-162.417"/>
<polygon fill="midnightblue" stroke="midnightblue" points="2642.8,-167.204 2652.81,-163.751 2642.83,-160.204 2642.8,-167.204"/>
</g>
<!-- Node14&#45;&gt;Node9 -->
<g id="edge15" class="edge"><title>Node14&#45;&gt;Node9</title>
<path fill="none" stroke="midnightblue" d="M2672.46,-127.468C2649.51,-134.61 2621.45,-142.309 2597.79,-147.981"/>
<polygon fill="midnightblue" stroke="midnightblue" points="2673.82,-130.711 2682.28,-124.343 2671.69,-124.04 2673.82,-130.711"/>
</g>
<!-- Node16 -->
<g id="node16" class="node"><title>Node16</title>
<g id="a_node16"><a xlink:href="../../d0/df6/classCParser.html#a4b9f00c05d44a13b3c18b28b52f5be9e" target="_top" xlink:title="CParser::class_block\l_item_list">
<polygon fill="white" stroke="black" points="2661,-45.3172 2661,-75.3172 2775,-75.3172 2775,-45.3172 2661,-45.3172"/>
<text text-anchor="start" x="2669" y="-63.3172" font-family="Helvetica,sans-Serif" font-size="10.00">CParser::class_block</text>
<text text-anchor="middle" x="2718" y="-52.3172" font-family="Helvetica,sans-Serif" font-size="10.00">_item_list</text>
</a>
</g>
</g>
<!-- Node15&#45;&gt;Node16 -->
<g id="edge17" class="edge"><title>Node15&#45;&gt;Node16</title>
<path fill="none" stroke="midnightblue" d="M2615.85,-77.0751C2630.74,-74.6088 2646.34,-72.0236 2660.72,-69.6423"/>
<polygon fill="midnightblue" stroke="midnightblue" points="2614.98,-73.672 2605.69,-78.7595 2616.13,-80.5778 2614.98,-73.672"/>
</g>
<!-- Node17 -->
<g id="node17" class="node"><title>Node17</title>
<g id="a_node17"><a xlink:href="../../d0/df6/classCParser.html#a06c7cac9034f27ad6d998b49a7b574c8" target="_top" xlink:title="CParser::class_block">
<polygon fill="white" stroke="black" points="2819,-50.8172 2819,-69.8172 2933,-69.8172 2933,-50.8172 2819,-50.8172"/>
<text text-anchor="middle" x="2876" y="-57.8172" font-family="Helvetica,sans-Serif" font-size="10.00">CParser::class_block</text>
</a>
</g>
</g>
<!-- Node16&#45;&gt;Node17 -->
<g id="edge18" class="edge"><title>Node16&#45;&gt;Node17</title>
<path fill="none" stroke="midnightblue" d="M2785.4,-60.3172C2796.51,-60.3172 2807.94,-60.3172 2818.76,-60.3172"/>
<polygon fill="midnightblue" stroke="midnightblue" points="2785.32,-56.8173 2775.32,-60.3172 2785.32,-63.8173 2785.32,-56.8173"/>
</g>
<!-- Node18 -->
<g id="node18" class="node"><title>Node18</title>
<g id="a_node18"><a xlink:href="../../d0/df6/classCParser.html#a40fba8426e7ac46e9926515ee81e97f3" target="_top" xlink:title="CParser::class_suffix">
<polygon fill="white" stroke="black" points="2969,-50.8172 2969,-69.8172 3083,-69.8172 3083,-50.8172 2969,-50.8172"/>
<text text-anchor="middle" x="3026" y="-57.8172" font-family="Helvetica,sans-Serif" font-size="10.00">CParser::class_suffix</text>
</a>
</g>
</g>
<!-- Node17&#45;&gt;Node18 -->
<g id="edge19" class="edge"><title>Node17&#45;&gt;Node18</title>
<path fill="none" stroke="midnightblue" d="M2943.56,-60.3172C2951.98,-60.3172 2960.54,-60.3172 2968.78,-60.3172"/>
<polygon fill="midnightblue" stroke="midnightblue" points="2943.37,-56.8173 2933.37,-60.3172 2943.37,-63.8173 2943.37,-56.8173"/>
</g>
<!-- Node19 -->
<g id="node19" class="node"><title>Node19</title>
<g id="a_node19"><a xlink:href="../../d0/df6/classCParser.html#a1ed5fcfb2e97e3551fceabe81989a667" target="_top" xlink:title="CParser::class_declaration\l_or_definition">
<polygon fill="white" stroke="black" points="3119,-45.3172 3119,-75.3172 3262,-75.3172 3262,-45.3172 3119,-45.3172"/>
<text text-anchor="start" x="3127" y="-63.3172" font-family="Helvetica,sans-Serif" font-size="10.00">CParser::class_declaration</text>
<text text-anchor="middle" x="3190.5" y="-52.3172" font-family="Helvetica,sans-Serif" font-size="10.00">_or_definition</text>
</a>
</g>
</g>
<!-- Node18&#45;&gt;Node19 -->
<g id="edge20" class="edge"><title>Node18&#45;&gt;Node19</title>
<path fill="none" stroke="midnightblue" d="M3093.47,-60.3172C3101.86,-60.3172 3110.46,-60.3172 3118.91,-60.3172"/>
<polygon fill="midnightblue" stroke="midnightblue" points="3093.38,-56.8173 3083.38,-60.3172 3093.38,-63.8173 3093.38,-56.8173"/>
</g>
<!-- Node19&#45;&gt;Node8 -->
<g id="edge21" class="edge"><title>Node19&#45;&gt;Node8</title>
<path fill="none" stroke="midnightblue" d="M3112.36,-43.3317C3049.37,-30.9446 2957.87,-16.3172 2877,-16.3172 2717,-16.3172 2717,-16.3172 2717,-16.3172 2607.76,-16.3172 2573.33,-17.8066 2477,-69.3172 2445.25,-86.2957 2416.91,-118.231 2401.87,-137.155"/>
<polygon fill="midnightblue" stroke="midnightblue" points="3111.73,-46.7744 3122.22,-45.298 3113.1,-39.9096 3111.73,-46.7744"/>
</g>
<!-- Node19&#45;&gt;Node20 -->
<g id="edge22" class="edge"><title>Node19&#45;&gt;Node20</title>
<path fill="none" stroke="midnightblue" d="M3213.4,-82.7127C3249.77,-119.915 3321.71,-193.49 3352.72,-225.196"/>
<polygon fill="midnightblue" stroke="midnightblue" points="3215.7,-80.0575 3206.2,-75.3543 3210.69,-84.9513 3215.7,-80.0575"/>
</g>
<!-- Node21&#45;&gt;Node8 -->
<g id="edge24" class="edge"><title>Node21&#45;&gt;Node8</title>
<path fill="none" stroke="midnightblue" d="M2274.83,-215.754C2284.04,-212.253 2293.38,-208.399 2302,-204.317 2324.65,-193.596 2348.98,-178.627 2366.06,-167.501"/>
<polygon fill="midnightblue" stroke="midnightblue" points="2273.49,-212.519 2265.32,-219.268 2275.91,-219.086 2273.49,-212.519"/>
</g>
<!-- Node21&#45;&gt;Node20 -->
<g id="edge25" class="edge"><title>Node21&#45;&gt;Node20</title>
<path fill="none" stroke="midnightblue" d="M2312.57,-236.962C2378.09,-238.571 2467.34,-240.317 2546,-240.317 2546,-240.317 2546,-240.317 3027,-240.317 3120.7,-240.317 3228.9,-240.317 3297.72,-240.317"/>
<polygon fill="midnightblue" stroke="midnightblue" points="2312.34,-233.456 2302.26,-236.706 2312.17,-240.454 2312.34,-233.456"/>
</g>
<!-- Node23 -->
<g id="node23" class="node"><title>Node23</title>
<g id="a_node23"><a xlink:href="../../d0/df6/classCParser.html#a7042164da94c48da4e577a2bf0af04c4" target="_top" xlink:title="CParser::fptr_typedef\l_definition">
<polygon fill="white" stroke="black" points="907.5,-50.3172 907.5,-80.3172 1024.5,-80.3172 1024.5,-50.3172 907.5,-50.3172"/>
<text text-anchor="start" x="915.5" y="-68.3172" font-family="Helvetica,sans-Serif" font-size="10.00">CParser::fptr_typedef</text>
<text text-anchor="middle" x="966" y="-57.3172" font-family="Helvetica,sans-Serif" font-size="10.00">_definition</text>
</a>
</g>
</g>
<!-- Node22&#45;&gt;Node23 -->
<g id="edge28" class="edge"><title>Node22&#45;&gt;Node23</title>
<path fill="none" stroke="midnightblue" d="M867.943,-69.0146C880.853,-68.5228 894.457,-68.0046 907.262,-67.5168"/>
<polygon fill="midnightblue" stroke="midnightblue" points="867.627,-65.524 857.767,-69.4023 867.893,-72.519 867.627,-65.524"/>
</g>
<!-- Node24 -->
<g id="node24" class="node"><title>Node24</title>
<g id="a_node24"><a xlink:href="../../d0/df6/classCParser.html#a8c598aa662fff7e10be2ee78e078935a" target="_top" xlink:title="CParser::typedef_definition">
<polygon fill="white" stroke="black" points="1585,-79.8172 1585,-98.8172 1729,-98.8172 1729,-79.8172 1585,-79.8172"/>
<text text-anchor="middle" x="1657" y="-86.8172" font-family="Helvetica,sans-Serif" font-size="10.00">CParser::typedef_definition</text>
</a>
</g>
</g>
<!-- Node23&#45;&gt;Node24 -->
<g id="edge29" class="edge"><title>Node23&#45;&gt;Node24</title>
<path fill="none" stroke="midnightblue" d="M1035.01,-66.8671C1143.66,-69.468 1363.11,-75.2319 1549,-83.3172 1560.62,-83.8225 1572.94,-84.4387 1584.93,-85.0815"/>
<polygon fill="midnightblue" stroke="midnightblue" points="1034.92,-63.3642 1024.84,-66.6253 1034.76,-70.3623 1034.92,-63.3642"/>
</g>
<!-- Node24&#45;&gt;Node8 -->
<g id="edge30" class="edge"><title>Node24&#45;&gt;Node8</title>
<path fill="none" stroke="midnightblue" d="M1739.22,-93.2906C1861.57,-99.7738 2100.29,-114.363 2302,-138.317 2313.63,-139.699 2326.09,-141.516 2337.83,-143.381"/>
<polygon fill="midnightblue" stroke="midnightblue" points="1739.36,-89.7927 1729.19,-92.763 1738.99,-96.7831 1739.36,-89.7927"/>
</g>
<!-- Node26 -->
<g id="node26" class="node"><title>Node26</title>
<g id="a_node26"><a xlink:href="../../d0/df6/classCParser.html#a9104801570f44810a98b9f3a5a76c06c" target="_top" xlink:title="CParser::instance_item">
<polygon fill="white" stroke="black" points="1073,-143.817 1073,-162.817 1198,-162.817 1198,-143.817 1073,-143.817"/>
<text text-anchor="middle" x="1135.5" y="-150.817" font-family="Helvetica,sans-Serif" font-size="10.00">CParser::instance_item</text>
</a>
</g>
</g>
<!-- Node25&#45;&gt;Node26 -->
<g id="edge32" class="edge"><title>Node25&#45;&gt;Node26</title>
<path fill="none" stroke="midnightblue" d="M879.236,-186.719C922.201,-183.564 977.847,-178.775 1027,-172.317 1046.35,-169.774 1067.54,-166.202 1085.94,-162.84"/>
<polygon fill="midnightblue" stroke="midnightblue" points="878.88,-183.236 869.158,-187.446 879.384,-190.217 878.88,-183.236"/>
</g>
<!-- Node27 -->
<g id="node27" class="node"><title>Node27</title>
<g id="a_node27"><a xlink:href="../../d0/df6/classCParser.html#a6331346ed010ab6c734d29daeb5d896f" target="_top" xlink:title="CParser::instance_declaration">
<polygon fill="white" stroke="black" points="1244,-142.817 1244,-161.817 1402,-161.817 1402,-142.817 1244,-142.817"/>
<text text-anchor="middle" x="1323" y="-149.817" font-family="Helvetica,sans-Serif" font-size="10.00">CParser::instance_declaration</text>
</a>
</g>
</g>
<!-- Node26&#45;&gt;Node27 -->
<g id="edge33" class="edge"><title>Node26&#45;&gt;Node27</title>
<path fill="none" stroke="midnightblue" d="M1208.14,-152.931C1219.82,-152.868 1231.97,-152.803 1243.81,-152.739"/>
<polygon fill="midnightblue" stroke="midnightblue" points="1207.99,-149.432 1198.01,-152.986 1208.03,-156.432 1207.99,-149.432"/>
</g>
<!-- Node29 -->
<g id="node29" class="node"><title>Node29</title>
<g id="a_node29"><a xlink:href="../../d0/df6/classCParser.html#a70d42f7013f81c71092f771ff9232941" target="_top" xlink:title="CParser::ctor_init_item">
<polygon fill="white" stroke="black" points="1261.5,-183.817 1261.5,-202.817 1384.5,-202.817 1384.5,-183.817 1261.5,-183.817"/>
<text text-anchor="middle" x="1323" y="-190.817" font-family="Helvetica,sans-Serif" font-size="10.00">CParser::ctor_init_item</text>
</a>
</g>
</g>
<!-- Node26&#45;&gt;Node29 -->
<g id="edge36" class="edge"><title>Node26&#45;&gt;Node29</title>
<path fill="none" stroke="midnightblue" d="M1190.87,-165.04C1218.58,-171.016 1251.84,-178.188 1277.93,-183.814"/>
<polygon fill="midnightblue" stroke="midnightblue" points="1191.44,-161.585 1180.93,-162.898 1189.97,-168.428 1191.44,-161.585"/>
</g>
<!-- Node27&#45;&gt;Node8 -->
<g id="edge34" class="edge"><title>Node27&#45;&gt;Node8</title>
<path fill="none" stroke="midnightblue" d="M1412.23,-152.317C1479.13,-152.317 1573.35,-152.317 1656,-152.317 1656,-152.317 1656,-152.317 2012,-152.317 2128.68,-152.317 2265.69,-152.317 2337.95,-152.317"/>
<polygon fill="midnightblue" stroke="midnightblue" points="1412.15,-148.817 1402.15,-152.317 1412.15,-155.817 1412.15,-148.817"/>
</g>
<!-- Node28 -->
<g id="node28" class="node"><title>Node28</title>
<g id="a_node28"><a xlink:href="../../d0/df6/classCParser.html#a4e7cf3c3b19f9c664f345a10116c2c2c" target="_top" xlink:title="CParser::knr_param\l_decl_list">
<polygon fill="white" stroke="black" points="1438,-93.3172 1438,-123.317 1549,-123.317 1549,-93.3172 1438,-93.3172"/>
<text text-anchor="start" x="1446" y="-111.317" font-family="Helvetica,sans-Serif" font-size="10.00">CParser::knr_param</text>
<text text-anchor="middle" x="1493.5" y="-100.317" font-family="Helvetica,sans-Serif" font-size="10.00">_decl_list</text>
</a>
</g>
</g>
<!-- Node27&#45;&gt;Node28 -->
<g id="edge35" class="edge"><title>Node27&#45;&gt;Node28</title>
<path fill="none" stroke="midnightblue" d="M1370.45,-140.188C1391.29,-134.746 1416.02,-128.288 1437.75,-122.613"/>
<polygon fill="midnightblue" stroke="midnightblue" points="1369.35,-136.857 1360.56,-142.77 1371.12,-143.63 1369.35,-136.857"/>
</g>
<!-- Node30 -->
<g id="node30" class="node"><title>Node30</title>
<g id="a_node30"><a xlink:href="../../d0/df6/classCParser.html#a617e49ab4458d5b4adf577a6a0bc05cd" target="_top" xlink:title="CParser::ctor_init\l_item_list">
<polygon fill="white" stroke="black" points="1444.5,-181.317 1444.5,-211.317 1542.5,-211.317 1542.5,-181.317 1444.5,-181.317"/>
<text text-anchor="start" x="1452.5" y="-199.317" font-family="Helvetica,sans-Serif" font-size="10.00">CParser::ctor_init</text>
<text text-anchor="middle" x="1493.5" y="-188.317" font-family="Helvetica,sans-Serif" font-size="10.00">_item_list</text>
</a>
</g>
</g>
<!-- Node29&#45;&gt;Node30 -->
<g id="edge37" class="edge"><title>Node29&#45;&gt;Node30</title>
<path fill="none" stroke="midnightblue" d="M1395.08,-194.583C1411.73,-194.879 1429.07,-195.188 1444.44,-195.462"/>
<polygon fill="midnightblue" stroke="midnightblue" points="1394.89,-191.079 1384.83,-194.4 1394.77,-198.078 1394.89,-191.079"/>
</g>
<!-- Node31 -->
<g id="node31" class="node"><title>Node31</title>
<g id="a_node31"><a xlink:href="../../d0/df6/classCParser.html#ab6c0eabf2b00874bf8f70b576d96ce52" target="_top" xlink:title="CParser::ctor_init_list">
<polygon fill="white" stroke="black" points="1599,-187.817 1599,-206.817 1715,-206.817 1715,-187.817 1599,-187.817"/>
<text text-anchor="middle" x="1657" y="-194.817" font-family="Helvetica,sans-Serif" font-size="10.00">CParser::ctor_init_list</text>
</a>
</g>
</g>
<!-- Node30&#45;&gt;Node31 -->
<g id="edge38" class="edge"><title>Node30&#45;&gt;Node31</title>
<path fill="none" stroke="midnightblue" d="M1552.69,-196.678C1567.69,-196.77 1583.82,-196.87 1598.76,-196.963"/>
<polygon fill="midnightblue" stroke="midnightblue" points="1552.54,-193.177 1542.52,-196.615 1552.5,-200.176 1552.54,-193.177"/>
</g>
<!-- Node32 -->
<g id="node32" class="node"><title>Node32</title>
<g id="a_node32"><a xlink:href="../../d0/df6/classCParser.html#ad7a6fd3a8b7daa3c26191f4512236a59" target="_top" xlink:title="CParser::method_suffix">
<polygon fill="white" stroke="black" points="1765,-189.817 1765,-208.817 1890,-208.817 1890,-189.817 1765,-189.817"/>
<text text-anchor="middle" x="1827.5" y="-196.817" font-family="Helvetica,sans-Serif" font-size="10.00">CParser::method_suffix</text>
</a>
</g>
</g>
<!-- Node31&#45;&gt;Node32 -->
<g id="edge39" class="edge"><title>Node31&#45;&gt;Node32</title>
<path fill="none" stroke="midnightblue" d="M1725.37,-198.117C1738.42,-198.272 1752.04,-198.433 1764.89,-198.586"/>
<polygon fill="midnightblue" stroke="midnightblue" points="1725.09,-194.613 1715.05,-197.994 1725,-201.613 1725.09,-194.613"/>
</g>
<!-- Node32&#45;&gt;Node7 -->
<g id="edge40" class="edge"><title>Node32&#45;&gt;Node7</title>
<path fill="none" stroke="midnightblue" d="M1888.12,-210.814C1902.2,-213.529 1917.41,-216.462 1932.16,-219.306"/>
<polygon fill="midnightblue" stroke="midnightblue" points="1888.58,-207.338 1878.1,-208.881 1887.25,-214.211 1888.58,-207.338"/>
</g>
<!-- Node34 -->
<g id="node34" class="node"><title>Node34</title>
<g id="a_node34"><a xlink:href="../../d0/df6/classCParser.html#a545c65918de48a33554b6fa86bf7bee4" target="_top" xlink:title="CParser::init_expr">
<polygon fill="white" stroke="black" points="756,-143.817 756,-162.817 857,-162.817 857,-143.817 756,-143.817"/>
<text text-anchor="middle" x="806.5" y="-150.817" font-family="Helvetica,sans-Serif" font-size="10.00">CParser::init_expr</text>
</a>
</g>
</g>
<!-- Node33&#45;&gt;Node34 -->
<g id="edge42" class="edge"><title>Node33&#45;&gt;Node34</title>
<path fill="none" stroke="midnightblue" d="M718.248,-153.317C730.971,-153.317 743.952,-153.317 755.879,-153.317"/>
<polygon fill="midnightblue" stroke="midnightblue" points="718.124,-149.817 708.124,-153.317 718.124,-156.817 718.124,-149.817"/>
</g>
<!-- Node35 -->
<g id="node35" class="node"><title>Node35</title>
<g id="a_node35"><a xlink:href="../../d0/df6/classCParser.html#aa7fd7f7807fc630d9020e84dbb3445e0" target="_top" xlink:title="CParser::opt_initializer">
<polygon fill="white" stroke="black" points="905,-143.817 905,-162.817 1027,-162.817 1027,-143.817 905,-143.817"/>
<text text-anchor="middle" x="966" y="-150.817" font-family="Helvetica,sans-Serif" font-size="10.00">CParser::opt_initializer</text>
</a>
</g>
</g>
<!-- Node34&#45;&gt;Node35 -->
<g id="edge43" class="edge"><title>Node34&#45;&gt;Node35</title>
<path fill="none" stroke="midnightblue" d="M867.418,-153.317C879.635,-153.317 892.496,-153.317 904.726,-153.317"/>
<polygon fill="midnightblue" stroke="midnightblue" points="867.334,-149.817 857.334,-153.317 867.334,-156.817 867.334,-149.817"/>
</g>
<!-- Node35&#45;&gt;Node26 -->
<g id="edge44" class="edge"><title>Node35&#45;&gt;Node26</title>
<path fill="none" stroke="midnightblue" d="M1037.67,-153.317C1049.41,-153.317 1061.5,-153.317 1072.99,-153.317"/>
<polygon fill="midnightblue" stroke="midnightblue" points="1037.47,-149.817 1027.47,-153.317 1037.47,-156.817 1037.47,-149.817"/>
</g>
<!-- Node37&#45;&gt;Node2 -->
<g id="edge47" class="edge"><title>Node37&#45;&gt;Node2</title>
<path fill="none" stroke="midnightblue" d="M592.637,-39.3172C503.779,-39.3172 322.424,-39.3172 234.099,-39.3172"/>
<polygon fill="midnightblue" stroke="midnightblue" points="592.745,-42.8173 602.745,-39.3172 592.745,-35.8173 592.745,-42.8173"/>
</g>
<!-- Node38&#45;&gt;Node37 -->
<g id="edge49" class="edge"><title>Node38&#45;&gt;Node37</title>
<path fill="none" stroke="midnightblue" d="M555.201,-50.1325C571.432,-48.1557 588.299,-46.1013 602.917,-44.3209"/>
<polygon fill="midnightblue" stroke="midnightblue" points="554.706,-46.6668 545.203,-51.3502 555.553,-53.6154 554.706,-46.6668"/>
</g>
<!-- Node39 -->
<g id="node39" class="node"><title>Node39</title>
<g id="a_node39"><a xlink:href="../../d0/df6/classCParser.html#a42ff2d36ecac90dd1cf7ac0a3a5862f1" target="_top" xlink:title="CParser::brack_list">
<polygon fill="white" stroke="black" points="914,-102.817 914,-121.817 1018,-121.817 1018,-102.817 914,-102.817"/>
<text text-anchor="middle" x="966" y="-109.817" font-family="Helvetica,sans-Serif" font-size="10.00">CParser::brack_list</text>
</a>
</g>
</g>
<!-- Node38&#45;&gt;Node39 -->
<g id="edge50" class="edge"><title>Node38&#45;&gt;Node39</title>
<path fill="none" stroke="midnightblue" d="M514.918,-44.2002C533.266,-35.399 558.419,-24.9033 582,-20.3172 707.722,4.13358 757.657,16.9819 869,-46.3172 890.668,-58.6355 884.713,-74.8369 905,-89.3172 912.809,-94.891 922.142,-99.3155 931.095,-102.734"/>
<polygon fill="midnightblue" stroke="midnightblue" points="513.15,-41.1702 505.734,-48.7372 516.25,-47.4462 513.15,-41.1702"/>
</g>
<!-- Node39&#45;&gt;Node26 -->
<g id="edge51" class="edge"><title>Node39&#45;&gt;Node26</title>
<path fill="none" stroke="midnightblue" d="M1015.66,-124.229C1041.08,-130.45 1071.75,-137.958 1095.57,-143.789"/>
<polygon fill="midnightblue" stroke="midnightblue" points="1016.39,-120.805 1005.85,-121.826 1014.73,-127.604 1016.39,-120.805"/>
</g>
</g>
</svg>
