<?xml version="1.0" encoding="UTF-8" standalone="no"?>
<!DOCTYPE svg PUBLIC "-//W3C//DTD SVG 1.1//EN"
 "http://www.w3.org/Graphics/SVG/1.1/DTD/svg11.dtd">
<!-- Generated by graphviz version 2.38.0 (20140413.2041)
 -->
<!-- Title: CParser::brack_block Pages: 1 -->
<svg width="3589pt" height="302pt"
 viewBox="0.00 0.00 3589.00 301.50" xmlns="http://www.w3.org/2000/svg" xmlns:xlink="http://www.w3.org/1999/xlink">
<g id="graph0" class="graph" transform="scale(1 1) rotate(0) translate(4 297.5)">
<title>CParser::brack_block</title>
<polygon fill="white" stroke="none" points="-4,4 -4,-297.5 3585,-297.5 3585,4 -4,4"/>
<!-- Node1 -->
<g id="node1" class="node"><title>Node1</title>
<polygon fill="#bfbfbf" stroke="black" points="0,-167 0,-186 116,-186 116,-167 0,-167"/>
<text text-anchor="middle" x="58" y="-174" font-family="Helvetica,sans-Serif" font-size="10.00">CParser::brack_block</text>
</g>
<!-- Node2 -->
<g id="node2" class="node"><title>Node2</title>
<g id="a_node2"><a xlink:href="../../d0/df6/classCParser.html#a35e24b97e6c8566e503521071040413f" target="_top" xlink:title="CParser::block">
<polygon fill="white" stroke="black" points="152,-167 152,-186 236,-186 236,-167 152,-167"/>
<text text-anchor="middle" x="194" y="-174" font-family="Helvetica,sans-Serif" font-size="10.00">CParser::block</text>
</a>
</g>
</g>
<!-- Node1&#45;&gt;Node2 -->
<g id="edge1" class="edge"><title>Node1&#45;&gt;Node2</title>
<path fill="none" stroke="midnightblue" d="M126.366,-176.5C135.038,-176.5 143.702,-176.5 151.776,-176.5"/>
<polygon fill="midnightblue" stroke="midnightblue" points="126.217,-173 116.217,-176.5 126.217,-180 126.217,-173"/>
</g>
<!-- Node38 -->
<g id="node38" class="node"><title>Node38</title>
<g id="a_node38"><a xlink:href="../../d0/df6/classCParser.html#a42ff2d36ecac90dd1cf7ac0a3a5862f1" target="_top" xlink:title="CParser::brack_list">
<polygon fill="white" stroke="black" points="272,-82 272,-101 376,-101 376,-82 272,-82"/>
<text text-anchor="middle" x="324" y="-89" font-family="Helvetica,sans-Serif" font-size="10.00">CParser::brack_list</text>
</a>
</g>
</g>
<!-- Node1&#45;&gt;Node38 -->
<g id="edge49" class="edge"><title>Node1&#45;&gt;Node38</title>
<path fill="none" stroke="midnightblue" d="M98.2829,-163.852C151.541,-146.705 245.478,-116.46 293.27,-101.072"/>
<polygon fill="midnightblue" stroke="midnightblue" points="96.9618,-160.6 88.5157,-166.997 99.1072,-167.264 96.9618,-160.6"/>
</g>
<!-- Node3 -->
<g id="node3" class="node"><title>Node3</title>
<g id="a_node3"><a xlink:href="../../d0/df6/classCParser.html#a424ec587e8167b682804c23c4804d895" target="_top" xlink:title="CParser::balanced">
<polygon fill="white" stroke="black" points="272.5,-178 272.5,-197 375.5,-197 375.5,-178 272.5,-178"/>
<text text-anchor="middle" x="324" y="-185" font-family="Helvetica,sans-Serif" font-size="10.00">CParser::balanced</text>
</a>
</g>
</g>
<!-- Node2&#45;&gt;Node3 -->
<g id="edge2" class="edge"><title>Node2&#45;&gt;Node3</title>
<path fill="none" stroke="midnightblue" d="M246.178,-180.898C254.835,-181.642 263.819,-182.414 272.46,-183.157"/>
<polygon fill="midnightblue" stroke="midnightblue" points="246.468,-177.41 236.205,-180.041 245.868,-184.384 246.468,-177.41"/>
</g>
<!-- Node4 -->
<g id="node4" class="node"><title>Node4</title>
<g id="a_node4"><a xlink:href="../../d0/df6/classCParser.html#a967d50b91351cf003898543b6d7af7a7" target="_top" xlink:title="CParser::balanced_list">
<polygon fill="white" stroke="black" points="412,-179 412,-198 534,-198 534,-179 412,-179"/>
<text text-anchor="middle" x="473" y="-186" font-family="Helvetica,sans-Serif" font-size="10.00">CParser::balanced_list</text>
</a>
</g>
</g>
<!-- Node3&#45;&gt;Node4 -->
<g id="edge3" class="edge"><title>Node3&#45;&gt;Node4</title>
<path fill="none" stroke="midnightblue" d="M385.644,-187.913C394.331,-187.972 403.266,-188.032 411.943,-188.091"/>
<polygon fill="midnightblue" stroke="midnightblue" points="385.613,-184.412 375.589,-187.844 385.565,-191.412 385.613,-184.412"/>
</g>
<!-- Node4&#45;&gt;Node1 -->
<g id="edge48" class="edge"><title>Node4&#45;&gt;Node1</title>
<path fill="none" stroke="midnightblue" d="M420.081,-200.051C405.864,-202.717 390.402,-205.161 376,-206.5 276.752,-215.724 250.608,-210.047 152,-195.5 135.208,-193.023 116.873,-189.463 100.956,-186.093"/>
<polygon fill="midnightblue" stroke="midnightblue" points="421.034,-203.432 430.181,-198.084 419.696,-196.561 421.034,-203.432"/>
</g>
<!-- Node5 -->
<g id="node5" class="node"><title>Node5</title>
<g id="a_node5"><a xlink:href="../../d0/df6/classCParser.html#a51affc383cd0859af5d84b628c8a2f5c" target="_top" xlink:title="CParser::paren_block">
<polygon fill="white" stroke="black" points="570,-179 570,-198 688,-198 688,-179 570,-179"/>
<text text-anchor="middle" x="629" y="-186" font-family="Helvetica,sans-Serif" font-size="10.00">CParser::paren_block</text>
</a>
</g>
</g>
<!-- Node4&#45;&gt;Node5 -->
<g id="edge4" class="edge"><title>Node4&#45;&gt;Node5</title>
<path fill="none" stroke="midnightblue" d="M544.613,-188.5C553.03,-188.5 561.551,-188.5 569.767,-188.5"/>
<polygon fill="midnightblue" stroke="midnightblue" points="544.423,-185 534.423,-188.5 544.423,-192 544.423,-185"/>
</g>
<!-- Node5&#45;&gt;Node2 -->
<g id="edge47" class="edge"><title>Node5&#45;&gt;Node2</title>
<path fill="none" stroke="midnightblue" d="M579.578,-176.854C565.015,-173.856 548.936,-171.042 534,-169.5 524.281,-168.496 305.406,-166.769 272,-168.5 260.323,-169.105 247.689,-170.223 236.098,-171.435"/>
<polygon fill="midnightblue" stroke="midnightblue" points="578.875,-180.282 589.385,-178.945 580.335,-173.436 578.875,-180.282"/>
</g>
<!-- Node6 -->
<g id="node6" class="node"><title>Node6</title>
<g id="a_node6"><a xlink:href="../../d0/df6/classCParser.html#afbe8666c28623fadda88dce63f2d0dd7" target="_top" xlink:title="CParser::param_list">
<polygon fill="white" stroke="black" points="732.5,-274 732.5,-293 841.5,-293 841.5,-274 732.5,-274"/>
<text text-anchor="middle" x="787" y="-281" font-family="Helvetica,sans-Serif" font-size="10.00">CParser::param_list</text>
</a>
</g>
</g>
<!-- Node5&#45;&gt;Node6 -->
<g id="edge5" class="edge"><title>Node5&#45;&gt;Node6</title>
<path fill="none" stroke="midnightblue" d="M646.518,-205.208C664.252,-222.293 693.951,-248.525 724,-264.5 731.058,-268.252 738.97,-271.385 746.719,-273.952"/>
<polygon fill="midnightblue" stroke="midnightblue" points="648.84,-202.583 639.253,-198.072 643.935,-207.577 648.84,-202.583"/>
</g>
<!-- Node23 -->
<g id="node23" class="node"><title>Node23</title>
<g id="a_node23"><a xlink:href="../../d0/df6/classCParser.html#a74aee17394e57d00d5cf1cb233f2dd42" target="_top" xlink:title="CParser::fptr_type\l_alias">
<polygon fill="white" stroke="black" points="897.5,-117.5 897.5,-147.5 999.5,-147.5 999.5,-117.5 897.5,-117.5"/>
<text text-anchor="start" x="905.5" y="-135.5" font-family="Helvetica,sans-Serif" font-size="10.00">CParser::fptr_type</text>
<text text-anchor="middle" x="948.5" y="-124.5" font-family="Helvetica,sans-Serif" font-size="10.00">_alias</text>
</a>
</g>
</g>
<!-- Node5&#45;&gt;Node23 -->
<g id="edge28" class="edge"><title>Node5&#45;&gt;Node23</title>
<path fill="none" stroke="midnightblue" d="M694.334,-177.153C754.315,-166.574 842.54,-151.013 897.43,-141.331"/>
<polygon fill="midnightblue" stroke="midnightblue" points="693.459,-173.753 684.219,-178.937 694.675,-180.647 693.459,-173.753"/>
</g>
<!-- Node26 -->
<g id="node26" class="node"><title>Node26</title>
<g id="a_node26"><a xlink:href="../../d0/df6/classCParser.html#a5e83377507b06b136005686f47f13fcb" target="_top" xlink:title="CParser::item_specifier">
<polygon fill="white" stroke="black" points="886,-169 886,-188 1011,-188 1011,-169 886,-169"/>
<text text-anchor="middle" x="948.5" y="-176" font-family="Helvetica,sans-Serif" font-size="10.00">CParser::item_specifier</text>
</a>
</g>
</g>
<!-- Node5&#45;&gt;Node26 -->
<g id="edge32" class="edge"><title>Node5&#45;&gt;Node26</title>
<path fill="none" stroke="midnightblue" d="M698.365,-186.347C754.067,-184.592 832.034,-182.137 885.842,-180.442"/>
<polygon fill="midnightblue" stroke="midnightblue" points="698.119,-182.853 688.234,-186.666 698.34,-189.849 698.119,-182.853"/>
</g>
<!-- Node34 -->
<g id="node34" class="node"><title>Node34</title>
<g id="a_node34"><a xlink:href="../../d0/df6/classCParser.html#aa600547e6bdaf5e45d02c89a19c7fa4b" target="_top" xlink:title="CParser::init_expr_item">
<polygon fill="white" stroke="black" points="724,-236 724,-255 850,-255 850,-236 724,-236"/>
<text text-anchor="middle" x="787" y="-243" font-family="Helvetica,sans-Serif" font-size="10.00">CParser::init_expr_item</text>
</a>
</g>
</g>
<!-- Node5&#45;&gt;Node34 -->
<g id="edge42" class="edge"><title>Node5&#45;&gt;Node34</title>
<path fill="none" stroke="midnightblue" d="M661.688,-202.11C679.792,-209.683 703.003,-219.054 724,-226.5 733.337,-229.811 743.581,-233.091 753.006,-235.97"/>
<polygon fill="midnightblue" stroke="midnightblue" points="662.777,-198.77 652.202,-198.111 660.058,-205.221 662.777,-198.77"/>
</g>
<!-- Node37 -->
<g id="node37" class="node"><title>Node37</title>
<g id="a_node37"><a xlink:href="../../d0/df6/classCParser.html#a8715e75c1e5fe112f10ccf0986cc2c7d" target="_top" xlink:title="CParser::init_value">
<polygon fill="white" stroke="black" points="735,-198 735,-217 839,-217 839,-198 735,-198"/>
<text text-anchor="middle" x="787" y="-205" font-family="Helvetica,sans-Serif" font-size="10.00">CParser::init_value</text>
</a>
</g>
</g>
<!-- Node5&#45;&gt;Node37 -->
<g id="edge46" class="edge"><title>Node5&#45;&gt;Node37</title>
<path fill="none" stroke="midnightblue" d="M698.282,-196.816C710.54,-198.309 723.123,-199.842 734.795,-201.263"/>
<polygon fill="midnightblue" stroke="midnightblue" points="698.438,-193.31 688.089,-195.575 697.592,-200.258 698.438,-193.31"/>
</g>
<!-- Node7 -->
<g id="node7" class="node"><title>Node7</title>
<g id="a_node7"><a xlink:href="../../d0/df6/classCParser.html#ab263641e50f3b30b3ac343dd3a5f7e61" target="_top" xlink:title="CParser::method_signature">
<polygon fill="white" stroke="black" points="1205,-274 1205,-293 1350,-293 1350,-274 1205,-274"/>
<text text-anchor="middle" x="1277.5" y="-281" font-family="Helvetica,sans-Serif" font-size="10.00">CParser::method_signature</text>
</a>
</g>
</g>
<!-- Node6&#45;&gt;Node7 -->
<g id="edge6" class="edge"><title>Node6&#45;&gt;Node7</title>
<path fill="none" stroke="midnightblue" d="M851.866,-283.5C942.999,-283.5 1109.82,-283.5 1204.99,-283.5"/>
<polygon fill="midnightblue" stroke="midnightblue" points="851.675,-280 841.675,-283.5 851.675,-287 851.675,-280"/>
</g>
<!-- Node8 -->
<g id="node8" class="node"><title>Node8</title>
<g id="a_node8"><a xlink:href="../../d0/df6/classCParser.html#a0dd2a579512bf1a17aaeac5fdec860a7" target="_top" xlink:title="CParser::method_declaration\l_or_definition_with_implicit_type">
<polygon fill="white" stroke="black" points="2068,-224.5 2068,-254.5 2238,-254.5 2238,-224.5 2068,-224.5"/>
<text text-anchor="start" x="2076" y="-242.5" font-family="Helvetica,sans-Serif" font-size="10.00">CParser::method_declaration</text>
<text text-anchor="middle" x="2153" y="-231.5" font-family="Helvetica,sans-Serif" font-size="10.00">_or_definition_with_implicit_type</text>
</a>
</g>
</g>
<!-- Node7&#45;&gt;Node8 -->
<g id="edge7" class="edge"><title>Node7&#45;&gt;Node8</title>
<path fill="none" stroke="midnightblue" d="M1360.48,-283.5C1432.63,-283.5 1540.54,-283.5 1634.5,-283.5 1634.5,-283.5 1634.5,-283.5 1800,-283.5 1895.77,-283.5 2005.07,-267.266 2076.12,-254.519"/>
<polygon fill="midnightblue" stroke="midnightblue" points="1360.1,-280 1350.1,-283.5 1360.1,-287 1360.1,-280"/>
</g>
<!-- Node9 -->
<g id="node9" class="node"><title>Node9</title>
<g id="a_node9"><a xlink:href="../../d0/df6/classCParser.html#ab3ab57ace628c2476dd8dfe5a96f9a15" target="_top" xlink:title="CParser::definition\l_or_declaration">
<polygon fill="white" stroke="black" points="2480,-131.5 2480,-161.5 2583,-161.5 2583,-131.5 2480,-131.5"/>
<text text-anchor="start" x="2488" y="-149.5" font-family="Helvetica,sans-Serif" font-size="10.00">CParser::definition</text>
<text text-anchor="middle" x="2531.5" y="-138.5" font-family="Helvetica,sans-Serif" font-size="10.00">_or_declaration</text>
</a>
</g>
</g>
<!-- Node8&#45;&gt;Node9 -->
<g id="edge8" class="edge"><title>Node8&#45;&gt;Node9</title>
<path fill="none" stroke="midnightblue" d="M2211.17,-221.425C2230.98,-215.408 2253.38,-208.875 2274,-203.5 2344.85,-185.027 2427.68,-167.312 2479.62,-156.666"/>
<polygon fill="midnightblue" stroke="midnightblue" points="2209.91,-218.149 2201.37,-224.422 2211.96,-224.843 2209.91,-218.149"/>
</g>
<!-- Node21 -->
<g id="node21" class="node"><title>Node21</title>
<g id="a_node21"><a xlink:href="../../d0/df6/classCParser.html#a12561a45dab96760d7ab45896681dd33" target="_top" xlink:title="CParser::class_or_method\l_declaration_or_definition">
<polygon fill="white" stroke="black" points="3440,-219.5 3440,-249.5 3581,-249.5 3581,-219.5 3440,-219.5"/>
<text text-anchor="start" x="3448" y="-237.5" font-family="Helvetica,sans-Serif" font-size="10.00">CParser::class_or_method</text>
<text text-anchor="middle" x="3510.5" y="-226.5" font-family="Helvetica,sans-Serif" font-size="10.00">_declaration_or_definition</text>
</a>
</g>
</g>
<!-- Node8&#45;&gt;Node21 -->
<g id="edge27" class="edge"><title>Node8&#45;&gt;Node21</title>
<path fill="none" stroke="midnightblue" d="M2248.33,-252.371C2324.36,-261.633 2434.11,-272.5 2530.5,-272.5 2530.5,-272.5 2530.5,-272.5 3169,-272.5 3263.28,-272.5 3371.34,-257.933 3439.98,-246.838"/>
<polygon fill="midnightblue" stroke="midnightblue" points="2248.65,-248.884 2238.3,-251.135 2247.8,-255.832 2248.65,-248.884"/>
</g>
<!-- Node22 -->
<g id="node22" class="node"><title>Node22</title>
<g id="a_node22"><a xlink:href="../../d0/df6/classCParser.html#af0c9d35d4c997c6f34cf4a26563b513c" target="_top" xlink:title="CParser::method_declaration\l_or_definition_with_explicit_type">
<polygon fill="white" stroke="black" points="2274,-213.5 2274,-243.5 2444,-243.5 2444,-213.5 2274,-213.5"/>
<text text-anchor="start" x="2282" y="-231.5" font-family="Helvetica,sans-Serif" font-size="10.00">CParser::method_declaration</text>
<text text-anchor="middle" x="2359" y="-220.5" font-family="Helvetica,sans-Serif" font-size="10.00">_or_definition_with_explicit_type</text>
</a>
</g>
</g>
<!-- Node8&#45;&gt;Node22 -->
<g id="edge24" class="edge"><title>Node8&#45;&gt;Node22</title>
<path fill="none" stroke="midnightblue" d="M2248.4,-234.41C2256.85,-233.954 2265.36,-233.495 2273.71,-233.045"/>
<polygon fill="midnightblue" stroke="midnightblue" points="2247.95,-230.929 2238.15,-234.962 2248.33,-237.919 2247.95,-230.929"/>
</g>
<!-- Node10 -->
<g id="node10" class="node"><title>Node10</title>
<g id="a_node10"><a xlink:href="../../d0/df6/classCParser.html#a2b78ab2005bef5c43ee2d4689210eab1" target="_top" xlink:title="CParser::link_item">
<polygon fill="white" stroke="black" points="2638.5,-55 2638.5,-74 2739.5,-74 2739.5,-55 2638.5,-55"/>
<text text-anchor="middle" x="2689" y="-62" font-family="Helvetica,sans-Serif" font-size="10.00">CParser::link_item</text>
</a>
</g>
</g>
<!-- Node9&#45;&gt;Node10 -->
<g id="edge9" class="edge"><title>Node9&#45;&gt;Node10</title>
<path fill="none" stroke="midnightblue" d="M2570,-126.727C2601.61,-110.054 2645.5,-86.9119 2669.86,-74.0644"/>
<polygon fill="midnightblue" stroke="midnightblue" points="2568.23,-123.699 2561.02,-131.46 2571.5,-129.891 2568.23,-123.699"/>
</g>
<!-- Node16 -->
<g id="node16" class="node"><title>Node16</title>
<g id="a_node16"><a xlink:href="../../d0/df6/classCParser.html#a85eb09132fa5a588749cea062f0d11ea" target="_top" xlink:title="CParser::class_block_item">
<polygon fill="white" stroke="black" points="2619,-178 2619,-197 2759,-197 2759,-178 2619,-178"/>
<text text-anchor="middle" x="2689" y="-185" font-family="Helvetica,sans-Serif" font-size="10.00">CParser::class_block_item</text>
</a>
</g>
</g>
<!-- Node9&#45;&gt;Node16 -->
<g id="edge17" class="edge"><title>Node9&#45;&gt;Node16</title>
<path fill="none" stroke="midnightblue" d="M2593.28,-162.525C2613.05,-167.738 2634.36,-173.357 2651.75,-177.942"/>
<polygon fill="midnightblue" stroke="midnightblue" points="2593.98,-159.09 2583.42,-159.925 2592.19,-165.859 2593.98,-159.09"/>
</g>
<!-- Node11 -->
<g id="node11" class="node"><title>Node11</title>
<g id="a_node11"><a xlink:href="../../d0/df6/classCParser.html#a4f02da23566af37123efb3768769c09b" target="_top" xlink:title="CParser::start">
<polygon fill="white" stroke="black" points="2819.5,-99 2819.5,-118 2900.5,-118 2900.5,-99 2819.5,-99"/>
<text text-anchor="middle" x="2860" y="-106" font-family="Helvetica,sans-Serif" font-size="10.00">CParser::start</text>
</a>
</g>
</g>
<!-- Node10&#45;&gt;Node11 -->
<g id="edge10" class="edge"><title>Node10&#45;&gt;Node11</title>
<path fill="none" stroke="midnightblue" d="M2736.69,-76.6547C2763.73,-83.6955 2797.28,-92.4312 2822.4,-98.9713"/>
<polygon fill="midnightblue" stroke="midnightblue" points="2737.23,-73.1799 2726.67,-74.0473 2735.47,-79.9541 2737.23,-73.1799"/>
</g>
<!-- Node14 -->
<g id="node14" class="node"><title>Node14</title>
<g id="a_node14"><a xlink:href="../../d0/df6/classCParser.html#a86906e492ff9c606fb3537078f46f93e" target="_top" xlink:title="CParser::extern_linkage\l_block">
<polygon fill="white" stroke="black" points="2795,-49.5 2795,-79.5 2925,-79.5 2925,-49.5 2795,-49.5"/>
<text text-anchor="start" x="2803" y="-67.5" font-family="Helvetica,sans-Serif" font-size="10.00">CParser::extern_linkage</text>
<text text-anchor="middle" x="2860" y="-56.5" font-family="Helvetica,sans-Serif" font-size="10.00">_block</text>
</a>
</g>
</g>
<!-- Node10&#45;&gt;Node14 -->
<g id="edge13" class="edge"><title>Node10&#45;&gt;Node14</title>
<path fill="none" stroke="midnightblue" d="M2750.13,-58.006C2764.62,-57.6936 2780.15,-57.6671 2794.81,-57.9265"/>
<polygon fill="midnightblue" stroke="midnightblue" points="2749.69,-54.5163 2739.79,-58.2839 2749.88,-61.5138 2749.69,-54.5163"/>
</g>
<!-- Node15 -->
<g id="node15" class="node"><title>Node15</title>
<g id="a_node15"><a xlink:href="../../d0/df6/classCParser.html#a4fad913a0694a5376ad76669d8943122" target="_top" xlink:title="CParser::namespace\l_block">
<polygon fill="white" stroke="black" points="2802.5,-0.5 2802.5,-30.5 2917.5,-30.5 2917.5,-0.5 2802.5,-0.5"/>
<text text-anchor="start" x="2810.5" y="-18.5" font-family="Helvetica,sans-Serif" font-size="10.00">CParser::namespace</text>
<text text-anchor="middle" x="2860" y="-7.5" font-family="Helvetica,sans-Serif" font-size="10.00">_block</text>
</a>
</g>
</g>
<!-- Node10&#45;&gt;Node15 -->
<g id="edge15" class="edge"><title>Node10&#45;&gt;Node15</title>
<path fill="none" stroke="midnightblue" d="M2717.5,-51.3893C2740.35,-43.2023 2773.61,-33.13 2802.15,-25.5645"/>
<polygon fill="midnightblue" stroke="midnightblue" points="2716.24,-48.1219 2708.09,-54.8858 2718.68,-54.6836 2716.24,-48.1219"/>
</g>
<!-- Node12 -->
<g id="node12" class="node"><title>Node12</title>
<g id="a_node12"><a xlink:href="../../db/d4a/classMain.html#a803470658c644fa9512140f9d8398dd5" target="_top" xlink:title="Main::ParseFiles">
<polygon fill="white" stroke="black" points="2971,-99 2971,-118 3065,-118 3065,-99 2971,-99"/>
<text text-anchor="middle" x="3018" y="-106" font-family="Helvetica,sans-Serif" font-size="10.00">Main::ParseFiles</text>
</a>
</g>
</g>
<!-- Node11&#45;&gt;Node12 -->
<g id="edge11" class="edge"><title>Node11&#45;&gt;Node12</title>
<path fill="none" stroke="midnightblue" d="M2910.87,-108.5C2930.14,-108.5 2952.05,-108.5 2970.94,-108.5"/>
<polygon fill="midnightblue" stroke="midnightblue" points="2910.77,-105 2900.77,-108.5 2910.77,-112 2910.77,-105"/>
</g>
<!-- Node13 -->
<g id="node13" class="node"><title>Node13</title>
<g id="a_node13"><a xlink:href="../../d6/d93/ccccmain_8cc.html#a3c04138a5bfe5d72780bb7e82a18e627" target="_top" xlink:title="main">
<polygon fill="white" stroke="black" points="3148.5,-99 3148.5,-118 3187.5,-118 3187.5,-99 3148.5,-99"/>
<text text-anchor="middle" x="3168" y="-106" font-family="Helvetica,sans-Serif" font-size="10.00">main</text>
</a>
</g>
</g>
<!-- Node12&#45;&gt;Node13 -->
<g id="edge12" class="edge"><title>Node12&#45;&gt;Node13</title>
<path fill="none" stroke="midnightblue" d="M3075.15,-108.5C3101.09,-108.5 3130.14,-108.5 3148.49,-108.5"/>
<polygon fill="midnightblue" stroke="midnightblue" points="3075.02,-105 3065.02,-108.5 3075.02,-112 3075.02,-105"/>
</g>
<!-- Node14&#45;&gt;Node10 -->
<g id="edge14" class="edge"><title>Node14&#45;&gt;Node10</title>
<path fill="none" stroke="midnightblue" d="M2784.45,-71.2083C2769.34,-71.3356 2753.79,-71.1715 2739.79,-70.7161"/>
<polygon fill="midnightblue" stroke="midnightblue" points="2784.86,-74.7033 2794.81,-71.0735 2784.77,-67.7039 2784.86,-74.7033"/>
</g>
<!-- Node15&#45;&gt;Node10 -->
<g id="edge16" class="edge"><title>Node15&#45;&gt;Node10</title>
<path fill="none" stroke="midnightblue" d="M2816.49,-33.7714C2793.18,-41.5019 2764.16,-50.0075 2739.79,-56.2795"/>
<polygon fill="midnightblue" stroke="midnightblue" points="2817.75,-37.0392 2826.1,-30.5145 2815.51,-30.4096 2817.75,-37.0392"/>
</g>
<!-- Node17 -->
<g id="node17" class="node"><title>Node17</title>
<g id="a_node17"><a xlink:href="../../d0/df6/classCParser.html#a4b9f00c05d44a13b3c18b28b52f5be9e" target="_top" xlink:title="CParser::class_block\l_item_list">
<polygon fill="white" stroke="black" points="2803,-175.5 2803,-205.5 2917,-205.5 2917,-175.5 2803,-175.5"/>
<text text-anchor="start" x="2811" y="-193.5" font-family="Helvetica,sans-Serif" font-size="10.00">CParser::class_block</text>
<text text-anchor="middle" x="2860" y="-182.5" font-family="Helvetica,sans-Serif" font-size="10.00">_item_list</text>
</a>
</g>
</g>
<!-- Node16&#45;&gt;Node17 -->
<g id="edge18" class="edge"><title>Node16&#45;&gt;Node17</title>
<path fill="none" stroke="midnightblue" d="M2769.5,-188.911C2780.74,-189.111 2792.1,-189.312 2802.79,-189.502"/>
<polygon fill="midnightblue" stroke="midnightblue" points="2769.29,-185.407 2759.23,-188.729 2769.16,-192.406 2769.29,-185.407"/>
</g>
<!-- Node18 -->
<g id="node18" class="node"><title>Node18</title>
<g id="a_node18"><a xlink:href="../../d0/df6/classCParser.html#a06c7cac9034f27ad6d998b49a7b574c8" target="_top" xlink:title="CParser::class_block">
<polygon fill="white" stroke="black" points="2961,-181 2961,-200 3075,-200 3075,-181 2961,-181"/>
<text text-anchor="middle" x="3018" y="-188" font-family="Helvetica,sans-Serif" font-size="10.00">CParser::class_block</text>
</a>
</g>
</g>
<!-- Node17&#45;&gt;Node18 -->
<g id="edge19" class="edge"><title>Node17&#45;&gt;Node18</title>
<path fill="none" stroke="midnightblue" d="M2927.4,-190.5C2938.51,-190.5 2949.94,-190.5 2960.76,-190.5"/>
<polygon fill="midnightblue" stroke="midnightblue" points="2927.32,-187 2917.32,-190.5 2927.32,-194 2927.32,-187"/>
</g>
<!-- Node19 -->
<g id="node19" class="node"><title>Node19</title>
<g id="a_node19"><a xlink:href="../../d0/df6/classCParser.html#a40fba8426e7ac46e9926515ee81e97f3" target="_top" xlink:title="CParser::class_suffix">
<polygon fill="white" stroke="black" points="3111,-181 3111,-200 3225,-200 3225,-181 3111,-181"/>
<text text-anchor="middle" x="3168" y="-188" font-family="Helvetica,sans-Serif" font-size="10.00">CParser::class_suffix</text>
</a>
</g>
</g>
<!-- Node18&#45;&gt;Node19 -->
<g id="edge20" class="edge"><title>Node18&#45;&gt;Node19</title>
<path fill="none" stroke="midnightblue" d="M3085.56,-190.5C3093.98,-190.5 3102.54,-190.5 3110.78,-190.5"/>
<polygon fill="midnightblue" stroke="midnightblue" points="3085.37,-187 3075.37,-190.5 3085.37,-194 3085.37,-187"/>
</g>
<!-- Node20 -->
<g id="node20" class="node"><title>Node20</title>
<g id="a_node20"><a xlink:href="../../d0/df6/classCParser.html#a1ed5fcfb2e97e3551fceabe81989a667" target="_top" xlink:title="CParser::class_declaration\l_or_definition">
<polygon fill="white" stroke="black" points="3261,-175.5 3261,-205.5 3404,-205.5 3404,-175.5 3261,-175.5"/>
<text text-anchor="start" x="3269" y="-193.5" font-family="Helvetica,sans-Serif" font-size="10.00">CParser::class_declaration</text>
<text text-anchor="middle" x="3332.5" y="-182.5" font-family="Helvetica,sans-Serif" font-size="10.00">_or_definition</text>
</a>
</g>
</g>
<!-- Node19&#45;&gt;Node20 -->
<g id="edge21" class="edge"><title>Node19&#45;&gt;Node20</title>
<path fill="none" stroke="midnightblue" d="M3235.47,-190.5C3243.86,-190.5 3252.46,-190.5 3260.91,-190.5"/>
<polygon fill="midnightblue" stroke="midnightblue" points="3235.38,-187 3225.38,-190.5 3235.38,-194 3235.38,-187"/>
</g>
<!-- Node20&#45;&gt;Node9 -->
<g id="edge22" class="edge"><title>Node20&#45;&gt;Node9</title>
<path fill="none" stroke="midnightblue" d="M3254.36,-173.515C3191.37,-161.127 3099.87,-146.5 3019,-146.5 2859,-146.5 2859,-146.5 2859,-146.5 2761.36,-146.5 2647.3,-146.5 2583.12,-146.5"/>
<polygon fill="midnightblue" stroke="midnightblue" points="3253.73,-176.957 3264.22,-175.481 3255.1,-170.092 3253.73,-176.957"/>
</g>
<!-- Node20&#45;&gt;Node21 -->
<g id="edge23" class="edge"><title>Node20&#45;&gt;Node21</title>
<path fill="none" stroke="midnightblue" d="M3403.44,-207.985C3418.65,-211.787 3434.61,-215.777 3449.4,-219.474"/>
<polygon fill="midnightblue" stroke="midnightblue" points="3404.13,-204.549 3393.58,-205.519 3402.43,-211.34 3404.13,-204.549"/>
</g>
<!-- Node22&#45;&gt;Node9 -->
<g id="edge25" class="edge"><title>Node22&#45;&gt;Node9</title>
<path fill="none" stroke="midnightblue" d="M2416.83,-209.936C2426.04,-206.436 2435.38,-202.582 2444,-198.5 2466.65,-187.779 2490.98,-172.81 2508.06,-161.684"/>
<polygon fill="midnightblue" stroke="midnightblue" points="2415.49,-206.702 2407.32,-213.45 2417.91,-213.269 2415.49,-206.702"/>
</g>
<!-- Node22&#45;&gt;Node21 -->
<g id="edge26" class="edge"><title>Node22&#45;&gt;Node21</title>
<path fill="none" stroke="midnightblue" d="M2454.57,-231.145C2520.09,-232.754 2609.34,-234.5 2688,-234.5 2688,-234.5 2688,-234.5 3169,-234.5 3262.7,-234.5 3370.9,-234.5 3439.72,-234.5"/>
<polygon fill="midnightblue" stroke="midnightblue" points="2454.34,-227.639 2444.26,-230.889 2454.17,-234.637 2454.34,-227.639"/>
</g>
<!-- Node24 -->
<g id="node24" class="node"><title>Node24</title>
<g id="a_node24"><a xlink:href="../../d0/df6/classCParser.html#a7042164da94c48da4e577a2bf0af04c4" target="_top" xlink:title="CParser::fptr_typedef\l_definition">
<polygon fill="white" stroke="black" points="1049.5,-117.5 1049.5,-147.5 1166.5,-147.5 1166.5,-117.5 1049.5,-117.5"/>
<text text-anchor="start" x="1057.5" y="-135.5" font-family="Helvetica,sans-Serif" font-size="10.00">CParser::fptr_typedef</text>
<text text-anchor="middle" x="1108" y="-124.5" font-family="Helvetica,sans-Serif" font-size="10.00">_definition</text>
</a>
</g>
</g>
<!-- Node23&#45;&gt;Node24 -->
<g id="edge29" class="edge"><title>Node23&#45;&gt;Node24</title>
<path fill="none" stroke="midnightblue" d="M1009.94,-132.5C1022.85,-132.5 1036.46,-132.5 1049.26,-132.5"/>
<polygon fill="midnightblue" stroke="midnightblue" points="1009.77,-129 999.767,-132.5 1009.77,-136 1009.77,-129"/>
</g>
<!-- Node25 -->
<g id="node25" class="node"><title>Node25</title>
<g id="a_node25"><a xlink:href="../../d0/df6/classCParser.html#a8c598aa662fff7e10be2ee78e078935a" target="_top" xlink:title="CParser::typedef_definition">
<polygon fill="white" stroke="black" points="1727,-99 1727,-118 1871,-118 1871,-99 1727,-99"/>
<text text-anchor="middle" x="1799" y="-106" font-family="Helvetica,sans-Serif" font-size="10.00">CParser::typedef_definition</text>
</a>
</g>
</g>
<!-- Node24&#45;&gt;Node25 -->
<g id="edge30" class="edge"><title>Node24&#45;&gt;Node25</title>
<path fill="none" stroke="midnightblue" d="M1176.84,-130.137C1307.65,-125.581 1593.58,-115.621 1726.91,-110.976"/>
<polygon fill="midnightblue" stroke="midnightblue" points="1176.43,-126.649 1166.56,-130.495 1176.67,-133.645 1176.43,-126.649"/>
</g>
<!-- Node25&#45;&gt;Node9 -->
<g id="edge31" class="edge"><title>Node25&#45;&gt;Node9</title>
<path fill="none" stroke="midnightblue" d="M1881.23,-108.325C2003.58,-108.785 2242.31,-112.496 2444,-132.5 2455.66,-133.656 2468.13,-135.383 2479.87,-137.233"/>
<polygon fill="midnightblue" stroke="midnightblue" points="1881.2,-104.825 1871.19,-108.294 1881.18,-111.825 1881.2,-104.825"/>
</g>
<!-- Node27 -->
<g id="node27" class="node"><title>Node27</title>
<g id="a_node27"><a xlink:href="../../d0/df6/classCParser.html#a9104801570f44810a98b9f3a5a76c06c" target="_top" xlink:title="CParser::instance_item">
<polygon fill="white" stroke="black" points="1215,-178 1215,-197 1340,-197 1340,-178 1215,-178"/>
<text text-anchor="middle" x="1277.5" y="-185" font-family="Helvetica,sans-Serif" font-size="10.00">CParser::instance_item</text>
</a>
</g>
</g>
<!-- Node26&#45;&gt;Node27 -->
<g id="edge33" class="edge"><title>Node26&#45;&gt;Node27</title>
<path fill="none" stroke="midnightblue" d="M1021.19,-180.473C1079.17,-182.069 1159.93,-184.292 1214.99,-185.807"/>
<polygon fill="midnightblue" stroke="midnightblue" points="1021.1,-176.969 1011.01,-180.193 1020.91,-183.967 1021.1,-176.969"/>
</g>
<!-- Node28 -->
<g id="node28" class="node"><title>Node28</title>
<g id="a_node28"><a xlink:href="../../d0/df6/classCParser.html#a6331346ed010ab6c734d29daeb5d896f" target="_top" xlink:title="CParser::instance_declaration">
<polygon fill="white" stroke="black" points="1386,-178 1386,-197 1544,-197 1544,-178 1386,-178"/>
<text text-anchor="middle" x="1465" y="-185" font-family="Helvetica,sans-Serif" font-size="10.00">CParser::instance_declaration</text>
</a>
</g>
</g>
<!-- Node27&#45;&gt;Node28 -->
<g id="edge34" class="edge"><title>Node27&#45;&gt;Node28</title>
<path fill="none" stroke="midnightblue" d="M1350.14,-187.5C1361.82,-187.5 1373.97,-187.5 1385.81,-187.5"/>
<polygon fill="midnightblue" stroke="midnightblue" points="1350.01,-184 1340.01,-187.5 1350.01,-191 1350.01,-184"/>
</g>
<!-- Node30 -->
<g id="node30" class="node"><title>Node30</title>
<g id="a_node30"><a xlink:href="../../d0/df6/classCParser.html#a70d42f7013f81c71092f771ff9232941" target="_top" xlink:title="CParser::ctor_init_item">
<polygon fill="white" stroke="black" points="1403.5,-225 1403.5,-244 1526.5,-244 1526.5,-225 1403.5,-225"/>
<text text-anchor="middle" x="1465" y="-232" font-family="Helvetica,sans-Serif" font-size="10.00">CParser::ctor_init_item</text>
</a>
</g>
</g>
<!-- Node27&#45;&gt;Node30 -->
<g id="edge37" class="edge"><title>Node27&#45;&gt;Node30</title>
<path fill="none" stroke="midnightblue" d="M1325.81,-199.486C1356.96,-207.378 1397.19,-217.571 1426.2,-224.922"/>
<polygon fill="midnightblue" stroke="midnightblue" points="1326.59,-196.075 1316.04,-197.011 1324.87,-202.86 1326.59,-196.075"/>
</g>
<!-- Node28&#45;&gt;Node9 -->
<g id="edge35" class="edge"><title>Node28&#45;&gt;Node9</title>
<path fill="none" stroke="midnightblue" d="M1519.64,-175.961C1538.63,-172.19 1560.2,-168.266 1580,-165.5 1676.32,-152.045 1700.74,-146.5 1798,-146.5 1798,-146.5 1798,-146.5 2154,-146.5 2270.68,-146.5 2407.69,-146.5 2479.95,-146.5"/>
<polygon fill="midnightblue" stroke="midnightblue" points="1518.78,-172.563 1509.67,-177.971 1520.17,-179.425 1518.78,-172.563"/>
</g>
<!-- Node29 -->
<g id="node29" class="node"><title>Node29</title>
<g id="a_node29"><a xlink:href="../../d0/df6/classCParser.html#a4e7cf3c3b19f9c664f345a10116c2c2c" target="_top" xlink:title="CParser::knr_param\l_decl_list">
<polygon fill="white" stroke="black" points="1580,-175.5 1580,-205.5 1691,-205.5 1691,-175.5 1580,-175.5"/>
<text text-anchor="start" x="1588" y="-193.5" font-family="Helvetica,sans-Serif" font-size="10.00">CParser::knr_param</text>
<text text-anchor="middle" x="1635.5" y="-182.5" font-family="Helvetica,sans-Serif" font-size="10.00">_decl_list</text>
</a>
</g>
</g>
<!-- Node28&#45;&gt;Node29 -->
<g id="edge36" class="edge"><title>Node28&#45;&gt;Node29</title>
<path fill="none" stroke="midnightblue" d="M1554.5,-189.076C1563.16,-189.23 1571.75,-189.383 1579.92,-189.528"/>
<polygon fill="midnightblue" stroke="midnightblue" points="1554.39,-185.573 1544.33,-188.895 1554.27,-192.572 1554.39,-185.573"/>
</g>
<!-- Node31 -->
<g id="node31" class="node"><title>Node31</title>
<g id="a_node31"><a xlink:href="../../d0/df6/classCParser.html#a617e49ab4458d5b4adf577a6a0bc05cd" target="_top" xlink:title="CParser::ctor_init\l_item_list">
<polygon fill="white" stroke="black" points="1586.5,-224.5 1586.5,-254.5 1684.5,-254.5 1684.5,-224.5 1586.5,-224.5"/>
<text text-anchor="start" x="1594.5" y="-242.5" font-family="Helvetica,sans-Serif" font-size="10.00">CParser::ctor_init</text>
<text text-anchor="middle" x="1635.5" y="-231.5" font-family="Helvetica,sans-Serif" font-size="10.00">_item_list</text>
</a>
</g>
</g>
<!-- Node30&#45;&gt;Node31 -->
<g id="edge38" class="edge"><title>Node30&#45;&gt;Node31</title>
<path fill="none" stroke="midnightblue" d="M1537.08,-236.609C1553.73,-237.103 1571.07,-237.618 1586.44,-238.074"/>
<polygon fill="midnightblue" stroke="midnightblue" points="1536.93,-233.103 1526.83,-236.305 1536.72,-240.1 1536.93,-233.103"/>
</g>
<!-- Node32 -->
<g id="node32" class="node"><title>Node32</title>
<g id="a_node32"><a xlink:href="../../d0/df6/classCParser.html#ab6c0eabf2b00874bf8f70b576d96ce52" target="_top" xlink:title="CParser::ctor_init_list">
<polygon fill="white" stroke="black" points="1741,-230 1741,-249 1857,-249 1857,-230 1741,-230"/>
<text text-anchor="middle" x="1799" y="-237" font-family="Helvetica,sans-Serif" font-size="10.00">CParser::ctor_init_list</text>
</a>
</g>
</g>
<!-- Node31&#45;&gt;Node32 -->
<g id="edge39" class="edge"><title>Node31&#45;&gt;Node32</title>
<path fill="none" stroke="midnightblue" d="M1694.69,-239.5C1709.69,-239.5 1725.82,-239.5 1740.76,-239.5"/>
<polygon fill="midnightblue" stroke="midnightblue" points="1694.52,-236 1684.52,-239.5 1694.52,-243 1694.52,-236"/>
</g>
<!-- Node33 -->
<g id="node33" class="node"><title>Node33</title>
<g id="a_node33"><a xlink:href="../../d0/df6/classCParser.html#ad7a6fd3a8b7daa3c26191f4512236a59" target="_top" xlink:title="CParser::method_suffix">
<polygon fill="white" stroke="black" points="1907,-230 1907,-249 2032,-249 2032,-230 1907,-230"/>
<text text-anchor="middle" x="1969.5" y="-237" font-family="Helvetica,sans-Serif" font-size="10.00">CParser::method_suffix</text>
</a>
</g>
</g>
<!-- Node32&#45;&gt;Node33 -->
<g id="edge40" class="edge"><title>Node32&#45;&gt;Node33</title>
<path fill="none" stroke="midnightblue" d="M1867.37,-239.5C1880.42,-239.5 1894.04,-239.5 1906.89,-239.5"/>
<polygon fill="midnightblue" stroke="midnightblue" points="1867.05,-236 1857.05,-239.5 1867.05,-243 1867.05,-236"/>
</g>
<!-- Node33&#45;&gt;Node8 -->
<g id="edge41" class="edge"><title>Node33&#45;&gt;Node8</title>
<path fill="none" stroke="midnightblue" d="M2042.34,-239.5C2050.75,-239.5 2059.4,-239.5 2067.97,-239.5"/>
<polygon fill="midnightblue" stroke="midnightblue" points="2042.2,-236 2032.2,-239.5 2042.2,-243 2042.2,-236"/>
</g>
<!-- Node35 -->
<g id="node35" class="node"><title>Node35</title>
<g id="a_node35"><a xlink:href="../../d0/df6/classCParser.html#a545c65918de48a33554b6fa86bf7bee4" target="_top" xlink:title="CParser::init_expr">
<polygon fill="white" stroke="black" points="898,-228 898,-247 999,-247 999,-228 898,-228"/>
<text text-anchor="middle" x="948.5" y="-235" font-family="Helvetica,sans-Serif" font-size="10.00">CParser::init_expr</text>
</a>
</g>
</g>
<!-- Node34&#45;&gt;Node35 -->
<g id="edge43" class="edge"><title>Node34&#45;&gt;Node35</title>
<path fill="none" stroke="midnightblue" d="M860.248,-241.876C872.971,-241.238 885.952,-240.587 897.879,-239.989"/>
<polygon fill="midnightblue" stroke="midnightblue" points="859.936,-238.387 850.124,-242.384 860.286,-245.379 859.936,-238.387"/>
</g>
<!-- Node36 -->
<g id="node36" class="node"><title>Node36</title>
<g id="a_node36"><a xlink:href="../../d0/df6/classCParser.html#aa7fd7f7807fc630d9020e84dbb3445e0" target="_top" xlink:title="CParser::opt_initializer">
<polygon fill="white" stroke="black" points="1047,-213 1047,-232 1169,-232 1169,-213 1047,-213"/>
<text text-anchor="middle" x="1108" y="-220" font-family="Helvetica,sans-Serif" font-size="10.00">CParser::opt_initializer</text>
</a>
</g>
</g>
<!-- Node35&#45;&gt;Node36 -->
<g id="edge44" class="edge"><title>Node35&#45;&gt;Node36</title>
<path fill="none" stroke="midnightblue" d="M1009.42,-231.794C1021.64,-230.63 1034.5,-229.405 1046.73,-228.24"/>
<polygon fill="midnightblue" stroke="midnightblue" points="1008.96,-228.321 999.334,-232.754 1009.62,-235.29 1008.96,-228.321"/>
</g>
<!-- Node36&#45;&gt;Node27 -->
<g id="edge45" class="edge"><title>Node36&#45;&gt;Node27</title>
<path fill="none" stroke="midnightblue" d="M1164.72,-210.856C1186.17,-206.375 1210.39,-201.314 1230.79,-197.052"/>
<polygon fill="midnightblue" stroke="midnightblue" points="1163.84,-207.465 1154.77,-212.936 1165.27,-214.317 1163.84,-207.465"/>
</g>
<!-- Node38&#45;&gt;Node27 -->
<g id="edge50" class="edge"><title>Node38&#45;&gt;Node27</title>
<path fill="none" stroke="midnightblue" d="M386.456,-90.5351C447.669,-89.658 544.33,-88.5 628,-88.5 628,-88.5 628,-88.5 949.5,-88.5 1047.42,-88.5 1077.46,-72.7251 1169,-107.5 1210.76,-123.363 1250.35,-160.431 1267.53,-177.974"/>
<polygon fill="midnightblue" stroke="midnightblue" points="386.146,-87.0391 376.197,-90.6842 386.247,-94.0384 386.146,-87.0391"/>
</g>
</g>
</svg>
