<?xml version="1.0" encoding="UTF-8" standalone="no"?>
<!DOCTYPE svg PUBLIC "-//W3C//DTD SVG 1.1//EN"
 "http://www.w3.org/Graphics/SVG/1.1/DTD/svg11.dtd">
<!-- Generated by graphviz version 2.38.0 (20140413.2041)
 -->
<!-- Title: CParser::scoped_identifier Pages: 1 -->
<svg width="1939pt" height="810pt"
 viewBox="0.00 0.00 1939.00 810.09" xmlns="http://www.w3.org/2000/svg" xmlns:xlink="http://www.w3.org/1999/xlink">
<g id="graph0" class="graph" transform="scale(1 1) rotate(0) translate(4 806.095)">
<title>CParser::scoped_identifier</title>
<polygon fill="white" stroke="none" points="-4,4 -4,-806.095 1935,-806.095 1935,4 -4,4"/>
<!-- Node1 -->
<g id="node1" class="node"><title>Node1</title>
<polygon fill="#bfbfbf" stroke="black" points="0,-629.192 0,-648.192 141,-648.192 141,-629.192 0,-629.192"/>
<text text-anchor="middle" x="70.5" y="-636.192" font-family="Helvetica,sans-Serif" font-size="10.00">CParser::scoped_identifier</text>
</g>
<!-- Node2 -->
<g id="node2" class="node"><title>Node2</title>
<g id="a_node2"><a xlink:href="../../d0/df6/classCParser.html#a8b303b41d0199334a5987bb471063729" target="_top" xlink:title="CParser::explicit_scope_spec">
<polygon fill="white" stroke="black" points="965,-610.192 965,-629.192 1120,-629.192 1120,-610.192 965,-610.192"/>
<text text-anchor="middle" x="1042.5" y="-617.192" font-family="Helvetica,sans-Serif" font-size="10.00">CParser::explicit_scope_spec</text>
</a>
</g>
</g>
<!-- Node1&#45;&gt;Node2 -->
<g id="edge1" class="edge"><title>Node1&#45;&gt;Node2</title>
<path fill="none" stroke="midnightblue" d="M141.182,-633.501C222.81,-627.875 362.143,-619.692 482,-619.692 482,-619.692 482,-619.692 685.5,-619.692 777.25,-619.692 882.301,-619.692 954.375,-619.692"/>
<polygon fill="midnightblue" stroke="midnightblue" points="954.764,-623.193 964.764,-619.692 954.764,-616.193 954.764,-623.193"/>
</g>
<!-- Node5 -->
<g id="node5" class="node"><title>Node5</title>
<g id="a_node5"><a xlink:href="../../d0/df6/classCParser.html#a5e1630bd24884bb1cbc5680926dce957" target="_top" xlink:title="CParser::syn">
<polygon fill="white" stroke="black" points="1523.5,-382.192 1523.5,-401.192 1600.5,-401.192 1600.5,-382.192 1523.5,-382.192"/>
<text text-anchor="middle" x="1562" y="-389.192" font-family="Helvetica,sans-Serif" font-size="10.00">CParser::syn</text>
</a>
</g>
</g>
<!-- Node1&#45;&gt;Node5 -->
<g id="edge48" class="edge"><title>Node1&#45;&gt;Node5</title>
<path fill="none" stroke="midnightblue" d="M141.182,-643.884C222.81,-649.51 362.143,-657.692 482,-657.692 482,-657.692 482,-657.692 1218,-657.692 1330.02,-657.692 1379.5,-694.364 1468,-625.692 1537.73,-571.586 1555.32,-457.285 1559.64,-411.384"/>
<polygon fill="midnightblue" stroke="midnightblue" points="1563.14,-411.52 1560.47,-401.266 1556.16,-410.943 1563.14,-411.52"/>
</g>
<!-- Node10 -->
<g id="node10" class="node"><title>Node10</title>
<g id="a_node10"><a xlink:href="../../d0/df6/classCParser.html#aea0a3166305befe762f047b6e4a6f90f" target="_top" xlink:title="CParser::unscoped_member_name">
<polygon fill="white" stroke="black" points="177,-534.192 177,-553.192 359,-553.192 359,-534.192 177,-534.192"/>
<text text-anchor="middle" x="268" y="-541.192" font-family="Helvetica,sans-Serif" font-size="10.00">CParser::unscoped_member_name</text>
</a>
</g>
</g>
<!-- Node1&#45;&gt;Node10 -->
<g id="edge12" class="edge"><title>Node1&#45;&gt;Node10</title>
<path fill="none" stroke="midnightblue" d="M91.3215,-629.061C126.101,-612.16 198.229,-577.11 238.406,-557.587"/>
<polygon fill="midnightblue" stroke="midnightblue" points="239.952,-560.727 247.417,-553.209 236.893,-554.431 239.952,-560.727"/>
</g>
<!-- Node3 -->
<g id="node3" class="node"><title>Node3</title>
<g id="a_node3"><a xlink:href="../../d0/df6/classCParser.html#a729069b96fa400ec2fd9a34d4016fcdb" target="_top" xlink:title="CParser::angle_block">
<polygon fill="white" stroke="black" points="1159,-382.192 1159,-401.192 1275,-401.192 1275,-382.192 1159,-382.192"/>
<text text-anchor="middle" x="1217" y="-389.192" font-family="Helvetica,sans-Serif" font-size="10.00">CParser::angle_block</text>
</a>
</g>
</g>
<!-- Node2&#45;&gt;Node3 -->
<g id="edge2" class="edge"><title>Node2&#45;&gt;Node3</title>
<path fill="none" stroke="midnightblue" d="M1050.69,-610.186C1076.99,-575.421 1168.22,-454.851 1202.68,-409.302"/>
<polygon fill="midnightblue" stroke="midnightblue" points="1205.53,-411.326 1208.78,-401.24 1199.95,-407.103 1205.53,-411.326"/>
</g>
<!-- Node2&#45;&gt;Node5 -->
<g id="edge11" class="edge"><title>Node2&#45;&gt;Node5</title>
<path fill="none" stroke="midnightblue" d="M1120.36,-624.584C1227.13,-629.85 1413.39,-633.035 1468,-595.692 1531.57,-552.222 1552.43,-454.087 1558.63,-411.753"/>
<polygon fill="midnightblue" stroke="midnightblue" points="1562.13,-411.977 1559.98,-401.602 1555.19,-411.05 1562.13,-411.977"/>
</g>
<!-- Node9 -->
<g id="node9" class="node"><title>Node9</title>
<g id="a_node9"><a xlink:href="../../d3/d5e/classParseStore.html#a238b27bbf877e69812ecc620fbc18d5f" target="_top" xlink:title="ParseStore::set_flag">
<polygon fill="white" stroke="black" points="1506,-781.192 1506,-800.192 1618,-800.192 1618,-781.192 1506,-781.192"/>
<text text-anchor="middle" x="1562" y="-788.192" font-family="Helvetica,sans-Serif" font-size="10.00">ParseStore::set_flag</text>
</a>
</g>
</g>
<!-- Node2&#45;&gt;Node9 -->
<g id="edge10" class="edge"><title>Node2&#45;&gt;Node9</title>
<path fill="none" stroke="midnightblue" d="M1053.13,-629.403C1085.9,-661.574 1197.54,-764.139 1314,-790.692 1374.43,-804.471 1445.36,-802.69 1495.67,-798.528"/>
<polygon fill="midnightblue" stroke="midnightblue" points="1496.11,-802.003 1505.77,-797.638 1495.5,-795.03 1496.11,-802.003"/>
</g>
<!-- Node4 -->
<g id="node4" class="node"><title>Node4</title>
<g id="a_node4"><a xlink:href="../../d0/df6/classCParser.html#aa127d8f0df3a28071ce4fe43684632ef" target="_top" xlink:title="CParser::angle_balanced_list">
<polygon fill="white" stroke="black" points="1314,-382.192 1314,-401.192 1468,-401.192 1468,-382.192 1314,-382.192"/>
<text text-anchor="middle" x="1391" y="-389.192" font-family="Helvetica,sans-Serif" font-size="10.00">CParser::angle_balanced_list</text>
</a>
</g>
</g>
<!-- Node3&#45;&gt;Node4 -->
<g id="edge3" class="edge"><title>Node3&#45;&gt;Node4</title>
<path fill="none" stroke="midnightblue" d="M1275.27,-385.289C1284.41,-385.061 1294.04,-384.945 1303.67,-384.943"/>
<polygon fill="midnightblue" stroke="midnightblue" points="1303.68,-388.442 1313.69,-384.981 1303.71,-381.443 1303.68,-388.442"/>
</g>
<!-- Node3&#45;&gt;Node5 -->
<g id="edge9" class="edge"><title>Node3&#45;&gt;Node5</title>
<path fill="none" stroke="midnightblue" d="M1256.98,-382.182C1274.32,-378.417 1295.06,-374.549 1314,-372.692 1382.12,-366.016 1399.9,-365.807 1468,-372.692 1482.78,-374.186 1498.68,-376.983 1513.07,-379.981"/>
<polygon fill="midnightblue" stroke="midnightblue" points="1512.74,-383.49 1523.26,-382.183 1514.22,-376.648 1512.74,-383.49"/>
</g>
<!-- Node4&#45;&gt;Node3 -->
<g id="edge4" class="edge"><title>Node4&#45;&gt;Node3</title>
<path fill="none" stroke="midnightblue" d="M1313.69,-398.404C1304.32,-398.479 1294.78,-398.445 1285.55,-398.302"/>
<polygon fill="midnightblue" stroke="midnightblue" points="1285.34,-394.798 1275.27,-398.096 1285.2,-401.796 1285.34,-394.798"/>
</g>
<!-- Node4&#45;&gt;Node5 -->
<g id="edge5" class="edge"><title>Node4&#45;&gt;Node5</title>
<path fill="none" stroke="midnightblue" d="M1468.1,-391.692C1483.32,-391.692 1498.9,-391.692 1512.86,-391.692"/>
<polygon fill="midnightblue" stroke="midnightblue" points="1513.17,-395.193 1523.17,-391.692 1513.17,-388.193 1513.17,-395.193"/>
</g>
<!-- Node6 -->
<g id="node6" class="node"><title>Node6</title>
<g id="a_node6"><a xlink:href="../../da/d6a/classParseUtility.html#aabfa4c56607539ef14be2e2a7260006b" target="_top" xlink:title="ParseUtility::syn">
<polygon fill="white" stroke="black" points="1656,-382.192 1656,-401.192 1747,-401.192 1747,-382.192 1656,-382.192"/>
<text text-anchor="middle" x="1701.5" y="-389.192" font-family="Helvetica,sans-Serif" font-size="10.00">ParseUtility::syn</text>
</a>
</g>
</g>
<!-- Node5&#45;&gt;Node6 -->
<g id="edge6" class="edge"><title>Node5&#45;&gt;Node6</title>
<path fill="none" stroke="midnightblue" d="M1600.57,-391.692C1614.4,-391.692 1630.36,-391.692 1645.41,-391.692"/>
<polygon fill="midnightblue" stroke="midnightblue" points="1645.64,-395.193 1655.64,-391.692 1645.64,-388.193 1645.64,-395.193"/>
</g>
<!-- Node7 -->
<g id="node7" class="node"><title>Node7</title>
<g id="a_node7"><a xlink:href="../../d3/d5e/classParseStore.html#ab21a4aeadb4cc4938b58cbefbb8634e8" target="_top" xlink:title="ParseStore::currentInstance">
<polygon fill="white" stroke="black" points="1783,-401.192 1783,-420.192 1931,-420.192 1931,-401.192 1783,-401.192"/>
<text text-anchor="middle" x="1857" y="-408.192" font-family="Helvetica,sans-Serif" font-size="10.00">ParseStore::currentInstance</text>
</a>
</g>
</g>
<!-- Node6&#45;&gt;Node7 -->
<g id="edge7" class="edge"><title>Node6&#45;&gt;Node7</title>
<path fill="none" stroke="midnightblue" d="M1747.31,-397.239C1755.41,-398.242 1764.09,-399.316 1772.88,-400.404"/>
<polygon fill="midnightblue" stroke="midnightblue" points="1772.48,-403.881 1782.83,-401.636 1773.34,-396.934 1772.48,-403.881"/>
</g>
<!-- Node8 -->
<g id="node8" class="node"><title>Node8</title>
<g id="a_node8"><a xlink:href="../../d3/d5e/classParseStore.html#ae7b3d82d22174c1a1165a592d6c1700c" target="_top" xlink:title="ParseStore::filename">
<polygon fill="white" stroke="black" points="1800,-363.192 1800,-382.192 1914,-382.192 1914,-363.192 1800,-363.192"/>
<text text-anchor="middle" x="1857" y="-370.192" font-family="Helvetica,sans-Serif" font-size="10.00">ParseStore::filename</text>
</a>
</g>
</g>
<!-- Node6&#45;&gt;Node8 -->
<g id="edge8" class="edge"><title>Node6&#45;&gt;Node8</title>
<path fill="none" stroke="midnightblue" d="M1747.31,-386.146C1760.56,-384.506 1775.35,-382.676 1789.64,-380.906"/>
<polygon fill="midnightblue" stroke="midnightblue" points="1790.45,-384.333 1799.94,-379.631 1789.59,-377.386 1790.45,-384.333"/>
</g>
<!-- Node10&#45;&gt;Node3 -->
<g id="edge13" class="edge"><title>Node10&#45;&gt;Node3</title>
<path fill="none" stroke="midnightblue" d="M280.315,-534.009C326.755,-495.291 508.553,-353.692 683.5,-353.692 683.5,-353.692 683.5,-353.692 864.5,-353.692 965.271,-353.692 1081.36,-369.321 1151.67,-380.533"/>
<polygon fill="midnightblue" stroke="midnightblue" points="1151.27,-384.014 1161.7,-382.153 1152.39,-377.104 1151.27,-384.014"/>
</g>
<!-- Node10&#45;&gt;Node5 -->
<g id="edge47" class="edge"><title>Node10&#45;&gt;Node5</title>
<path fill="none" stroke="midnightblue" d="M333.095,-553.232C414.401,-564.489 559.026,-581.692 683.5,-581.692 683.5,-581.692 683.5,-581.692 1218,-581.692 1329.96,-581.692 1374.5,-612.281 1468,-550.692 1518.85,-517.2 1545.5,-445.578 1555.83,-411.068"/>
<polygon fill="midnightblue" stroke="midnightblue" points="1559.24,-411.839 1558.61,-401.263 1552.51,-409.925 1559.24,-411.839"/>
</g>
<!-- Node11 -->
<g id="node11" class="node"><title>Node11</title>
<g id="a_node11"><a xlink:href="../../d0/df6/classCParser.html#ac5cba09faa6ccf6314b75950f0d8e40e" target="_top" xlink:title="CParser::dtor_member_name">
<polygon fill="white" stroke="black" points="607,-534.192 607,-553.192 762,-553.192 762,-534.192 607,-534.192"/>
<text text-anchor="middle" x="684.5" y="-541.192" font-family="Helvetica,sans-Serif" font-size="10.00">CParser::dtor_member_name</text>
</a>
</g>
</g>
<!-- Node10&#45;&gt;Node11 -->
<g id="edge14" class="edge"><title>Node10&#45;&gt;Node11</title>
<path fill="none" stroke="midnightblue" d="M359.196,-543.692C429.677,-543.692 527.031,-543.692 596.644,-543.692"/>
<polygon fill="midnightblue" stroke="midnightblue" points="596.707,-547.193 606.707,-543.692 596.707,-540.193 596.707,-547.193"/>
</g>
<!-- Node12 -->
<g id="node12" class="node"><title>Node12</title>
<g id="a_node12"><a xlink:href="../../d0/df6/classCParser.html#ac99dcea42e50abf304d0a7bb001b1829" target="_top" xlink:title="CParser::operator_member_name">
<polygon fill="white" stroke="black" points="395,-496.192 395,-515.192 571,-515.192 571,-496.192 395,-496.192"/>
<text text-anchor="middle" x="483" y="-503.192" font-family="Helvetica,sans-Serif" font-size="10.00">CParser::operator_member_name</text>
</a>
</g>
</g>
<!-- Node10&#45;&gt;Node12 -->
<g id="edge16" class="edge"><title>Node10&#45;&gt;Node12</title>
<path fill="none" stroke="midnightblue" d="M322.474,-534.153C351.592,-528.958 387.811,-522.496 418.374,-517.044"/>
<polygon fill="midnightblue" stroke="midnightblue" points="419.274,-520.438 428.504,-515.236 418.045,-513.547 419.274,-520.438"/>
</g>
<!-- Node11&#45;&gt;Node5 -->
<g id="edge15" class="edge"><title>Node11&#45;&gt;Node5</title>
<path fill="none" stroke="midnightblue" d="M762.236,-543.692C834.334,-543.692 945.238,-543.692 1041.5,-543.692 1041.5,-543.692 1041.5,-543.692 1218,-543.692 1329.62,-543.692 1371.08,-575.067 1468,-519.692 1511.76,-494.692 1540.56,-439.782 1553.37,-410.674"/>
<polygon fill="midnightblue" stroke="midnightblue" points="1556.7,-411.795 1557.37,-401.221 1550.25,-409.071 1556.7,-411.795"/>
</g>
<!-- Node12&#45;&gt;Node5 -->
<g id="edge46" class="edge"><title>Node12&#45;&gt;Node5</title>
<path fill="none" stroke="midnightblue" d="M571.194,-505.692C647.91,-505.692 762.618,-505.692 862.5,-505.692 862.5,-505.692 862.5,-505.692 1218,-505.692 1330.74,-505.692 1364.65,-507.756 1468,-462.692 1497.76,-449.714 1526.62,-425.263 1544.09,-408.725"/>
<polygon fill="midnightblue" stroke="midnightblue" points="1546.97,-410.805 1551.71,-401.328 1542.1,-405.783 1546.97,-410.805"/>
</g>
<!-- Node13 -->
<g id="node13" class="node"><title>Node13</title>
<g id="a_node13"><a xlink:href="../../d0/df6/classCParser.html#a4bf5a797adb8a33705182662a6a8f45b" target="_top" xlink:title="CParser::operator_identifier">
<polygon fill="white" stroke="black" points="611,-420.192 611,-439.192 758,-439.192 758,-420.192 611,-420.192"/>
<text text-anchor="middle" x="684.5" y="-427.192" font-family="Helvetica,sans-Serif" font-size="10.00">CParser::operator_identifier</text>
</a>
</g>
</g>
<!-- Node12&#45;&gt;Node13 -->
<g id="edge17" class="edge"><title>Node12&#45;&gt;Node13</title>
<path fill="none" stroke="midnightblue" d="M509.267,-496.067C544.644,-482.59 609.059,-458.051 648.878,-442.882"/>
<polygon fill="midnightblue" stroke="midnightblue" points="650.339,-446.07 658.438,-439.24 647.847,-439.529 650.339,-446.07"/>
</g>
<!-- Node13&#45;&gt;Node5 -->
<g id="edge45" class="edge"><title>Node13&#45;&gt;Node5</title>
<path fill="none" stroke="midnightblue" d="M736.041,-439.218C755.369,-442.6 777.653,-446.186 798,-448.692 905.737,-461.966 932.949,-467.692 1041.5,-467.692 1041.5,-467.692 1041.5,-467.692 1218,-467.692 1330.26,-467.692 1359.95,-462.133 1468,-431.692 1490.7,-425.299 1515.14,-414.621 1533.28,-405.905"/>
<polygon fill="midnightblue" stroke="midnightblue" points="1535.21,-408.853 1542.65,-401.305 1532.13,-402.57 1535.21,-408.853"/>
</g>
<!-- Node14 -->
<g id="node14" class="node"><title>Node14</title>
<g id="a_node14"><a xlink:href="../../d0/df6/classCParser.html#a177b7d8d53b6d7c2c89bbea896b3d154" target="_top" xlink:title="CParser::op">
<polygon fill="white" stroke="black" points="827.5,-420.192 827.5,-439.192 899.5,-439.192 899.5,-420.192 827.5,-420.192"/>
<text text-anchor="middle" x="863.5" y="-427.192" font-family="Helvetica,sans-Serif" font-size="10.00">CParser::op</text>
</a>
</g>
</g>
<!-- Node13&#45;&gt;Node14 -->
<g id="edge18" class="edge"><title>Node13&#45;&gt;Node14</title>
<path fill="none" stroke="midnightblue" d="M758.003,-429.692C777.955,-429.692 799.029,-429.692 816.985,-429.692"/>
<polygon fill="midnightblue" stroke="midnightblue" points="817.165,-433.193 827.165,-429.692 817.165,-426.193 817.165,-433.193"/>
</g>
<!-- Node15 -->
<g id="node15" class="node"><title>Node15</title>
<g id="a_node15"><a xlink:href="../../d0/df6/classCParser.html#ab214b7a662d6c62ddf8d51f0116865cf" target="_top" xlink:title="CParser::new_or_delete">
<polygon fill="white" stroke="black" points="798,-382.192 798,-401.192 929,-401.192 929,-382.192 798,-382.192"/>
<text text-anchor="middle" x="863.5" y="-389.192" font-family="Helvetica,sans-Serif" font-size="10.00">CParser::new_or_delete</text>
</a>
</g>
</g>
<!-- Node13&#45;&gt;Node15 -->
<g id="edge20" class="edge"><title>Node13&#45;&gt;Node15</title>
<path fill="none" stroke="midnightblue" d="M730.165,-420.103C753.837,-415.021 783.108,-408.737 808.097,-403.372"/>
<polygon fill="midnightblue" stroke="midnightblue" points="809.114,-406.734 818.157,-401.213 807.645,-399.89 809.114,-406.734"/>
</g>
<!-- Node16 -->
<g id="node16" class="node"><title>Node16</title>
<g id="a_node16"><a xlink:href="../../d0/df6/classCParser.html#a5426875088dc6d2b5deaef3b61c55135" target="_top" xlink:title="CParser::type">
<polygon fill="white" stroke="black" points="823.5,-153.192 823.5,-172.192 903.5,-172.192 903.5,-153.192 823.5,-153.192"/>
<text text-anchor="middle" x="863.5" y="-160.192" font-family="Helvetica,sans-Serif" font-size="10.00">CParser::type</text>
</a>
</g>
</g>
<!-- Node13&#45;&gt;Node16 -->
<g id="edge22" class="edge"><title>Node13&#45;&gt;Node16</title>
<path fill="none" stroke="midnightblue" d="M691.8,-420.19C717.656,-381.185 815.899,-232.989 850.419,-180.917"/>
<polygon fill="midnightblue" stroke="midnightblue" points="853.483,-182.629 856.091,-172.36 847.648,-178.761 853.483,-182.629"/>
</g>
<!-- Node14&#45;&gt;Node5 -->
<g id="edge19" class="edge"><title>Node14&#45;&gt;Node5</title>
<path fill="none" stroke="midnightblue" d="M899.688,-430.666C992.809,-432.793 1253.26,-435.823 1468,-410.692 1482.75,-408.966 1498.64,-406.1 1513.04,-403.112"/>
<polygon fill="midnightblue" stroke="midnightblue" points="1514.18,-406.447 1523.23,-400.928 1512.72,-399.602 1514.18,-406.447"/>
</g>
<!-- Node15&#45;&gt;Node5 -->
<g id="edge21" class="edge"><title>Node15&#45;&gt;Node5</title>
<path fill="none" stroke="midnightblue" d="M919.358,-382.147C1025.79,-365.17 1267.47,-334.16 1468,-363.692 1487.8,-366.609 1509.24,-372.841 1526.53,-378.686"/>
<polygon fill="midnightblue" stroke="midnightblue" points="1525.6,-382.067 1536.19,-382.056 1527.9,-375.458 1525.6,-382.067"/>
</g>
<!-- Node16&#45;&gt;Node5 -->
<g id="edge44" class="edge"><title>Node16&#45;&gt;Node5</title>
<path fill="none" stroke="midnightblue" d="M875.624,-152.982C893.231,-138.229 929.207,-110.531 965,-97.6925 1175.73,-22.1068 1289.02,63.7947 1468,-70.6925 1517.77,-108.094 1549.45,-308.387 1558.4,-372.169"/>
<polygon fill="midnightblue" stroke="midnightblue" points="1554.93,-372.685 1559.76,-382.117 1561.87,-371.734 1554.93,-372.685"/>
</g>
<!-- Node17 -->
<g id="node17" class="node"><title>Node17</title>
<g id="a_node17"><a xlink:href="../../d0/df6/classCParser.html#aeb64a7eb39e1e247d6b06c833355fd1d" target="_top" xlink:title="CParser::cv_qualifier">
<polygon fill="white" stroke="black" points="986,-107.192 986,-126.192 1099,-126.192 1099,-107.192 986,-107.192"/>
<text text-anchor="middle" x="1042.5" y="-114.192" font-family="Helvetica,sans-Serif" font-size="10.00">CParser::cv_qualifier</text>
</a>
</g>
</g>
<!-- Node16&#45;&gt;Node17 -->
<g id="edge23" class="edge"><title>Node16&#45;&gt;Node17</title>
<path fill="none" stroke="midnightblue" d="M901.175,-153.161C928.348,-146.099 965.587,-136.421 994.874,-128.81"/>
<polygon fill="midnightblue" stroke="midnightblue" points="996.074,-132.114 1004.87,-126.211 994.314,-125.339 996.074,-132.114"/>
</g>
<!-- Node19 -->
<g id="node19" class="node"><title>Node19</title>
<g id="a_node19"><a xlink:href="../../d0/df6/classCParser.html#a03c75fc2be131ba2c0a21fd9687b49ca" target="_top" xlink:title="CParser::type_name">
<polygon fill="white" stroke="black" points="986,-249.192 986,-268.192 1099,-268.192 1099,-249.192 986,-249.192"/>
<text text-anchor="middle" x="1042.5" y="-256.192" font-family="Helvetica,sans-Serif" font-size="10.00">CParser::type_name</text>
</a>
</g>
</g>
<!-- Node16&#45;&gt;Node19 -->
<g id="edge26" class="edge"><title>Node16&#45;&gt;Node19</title>
<path fill="none" stroke="midnightblue" d="M882.119,-172.248C913.263,-189.14 978.205,-224.363 1014.85,-244.239"/>
<polygon fill="midnightblue" stroke="midnightblue" points="1013.49,-247.484 1023.95,-249.175 1016.83,-241.331 1013.49,-247.484"/>
</g>
<!-- Node26 -->
<g id="node26" class="node"><title>Node26</title>
<g id="a_node26"><a xlink:href="../../d0/df6/classCParser.html#acec16523a6abcc5dcaa503fdfec12d5e" target="_top" xlink:title="CParser::indirection\l_modifiers">
<polygon fill="white" stroke="black" points="1162.5,-147.692 1162.5,-177.692 1271.5,-177.692 1271.5,-147.692 1162.5,-147.692"/>
<text text-anchor="start" x="1170.5" y="-165.692" font-family="Helvetica,sans-Serif" font-size="10.00">CParser::indirection</text>
<text text-anchor="middle" x="1217" y="-154.692" font-family="Helvetica,sans-Serif" font-size="10.00">_modifiers</text>
</a>
</g>
</g>
<!-- Node16&#45;&gt;Node26 -->
<g id="edge40" class="edge"><title>Node16&#45;&gt;Node26</title>
<path fill="none" stroke="midnightblue" d="M903.798,-162.692C963.987,-162.692 1079.62,-162.692 1152.01,-162.692"/>
<polygon fill="midnightblue" stroke="midnightblue" points="1152.37,-166.193 1162.37,-162.692 1152.37,-159.193 1152.37,-166.193"/>
</g>
<!-- Node17&#45;&gt;Node5 -->
<g id="edge25" class="edge"><title>Node17&#45;&gt;Node5</title>
<path fill="none" stroke="midnightblue" d="M1089.93,-107.155C1187.38,-88.2515 1409.12,-51.434 1468,-94.6925 1514.22,-128.655 1547.74,-310.571 1557.84,-371.667"/>
<polygon fill="midnightblue" stroke="midnightblue" points="1554.44,-372.59 1559.49,-381.902 1561.35,-371.471 1554.44,-372.59"/>
</g>
<!-- Node18 -->
<g id="node18" class="node"><title>Node18</title>
<g id="a_node18"><a xlink:href="../../d0/df6/classCParser.html#a2912da073892123622f3c380820f7a12" target="_top" xlink:title="CParser::typeCombine">
<polygon fill="white" stroke="black" points="1156,-107.192 1156,-126.192 1278,-126.192 1278,-107.192 1156,-107.192"/>
<text text-anchor="middle" x="1217" y="-114.192" font-family="Helvetica,sans-Serif" font-size="10.00">CParser::typeCombine</text>
</a>
</g>
</g>
<!-- Node17&#45;&gt;Node18 -->
<g id="edge24" class="edge"><title>Node17&#45;&gt;Node18</title>
<path fill="none" stroke="midnightblue" d="M1099.03,-116.692C1113.9,-116.692 1130.16,-116.692 1145.71,-116.692"/>
<polygon fill="midnightblue" stroke="midnightblue" points="1145.8,-120.193 1155.8,-116.692 1145.8,-113.193 1145.8,-120.193"/>
</g>
<!-- Node19&#45;&gt;Node5 -->
<g id="edge39" class="edge"><title>Node19&#45;&gt;Node5</title>
<path fill="none" stroke="midnightblue" d="M1099.3,-259.836C1199.12,-262.618 1403.85,-271.883 1468,-301.692 1502.77,-317.847 1532.5,-352.448 1548.47,-373.73"/>
<polygon fill="midnightblue" stroke="midnightblue" points="1545.73,-375.915 1554.44,-381.942 1551.39,-371.797 1545.73,-375.915"/>
</g>
<!-- Node20 -->
<g id="node20" class="node"><title>Node20</title>
<g id="a_node20"><a xlink:href="../../d0/df6/classCParser.html#a10a7b42902ca78cb3c11c04eb3b55d96" target="_top" xlink:title="CParser::builtin_type">
<polygon fill="white" stroke="black" points="1160.5,-230.192 1160.5,-249.192 1273.5,-249.192 1273.5,-230.192 1160.5,-230.192"/>
<text text-anchor="middle" x="1217" y="-237.192" font-family="Helvetica,sans-Serif" font-size="10.00">CParser::builtin_type</text>
</a>
</g>
</g>
<!-- Node19&#45;&gt;Node20 -->
<g id="edge27" class="edge"><title>Node19&#45;&gt;Node20</title>
<path fill="none" stroke="midnightblue" d="M1099.03,-252.576C1115.26,-250.788 1133.16,-248.817 1149.97,-246.965"/>
<polygon fill="midnightblue" stroke="midnightblue" points="1150.72,-250.404 1160.28,-245.83 1149.96,-243.446 1150.72,-250.404"/>
</g>
<!-- Node22 -->
<g id="node22" class="node"><title>Node22</title>
<g id="a_node22"><a xlink:href="../../d0/df6/classCParser.html#ab3ce487b55d4cee3cdcb791d4f7c33b0" target="_top" xlink:title="CParser::user_type">
<polygon fill="white" stroke="black" points="1163.5,-686.192 1163.5,-705.192 1270.5,-705.192 1270.5,-686.192 1163.5,-686.192"/>
<text text-anchor="middle" x="1217" y="-693.192" font-family="Helvetica,sans-Serif" font-size="10.00">CParser::user_type</text>
</a>
</g>
</g>
<!-- Node19&#45;&gt;Node22 -->
<g id="edge31" class="edge"><title>Node19&#45;&gt;Node22</title>
<path fill="none" stroke="midnightblue" d="M1047.26,-268.226C1068.96,-323.189 1178.15,-599.799 1208.28,-676.147"/>
<polygon fill="midnightblue" stroke="midnightblue" points="1205.21,-677.892 1212.14,-685.909 1211.72,-675.322 1205.21,-677.892"/>
</g>
<!-- Node20&#45;&gt;Node5 -->
<g id="edge30" class="edge"><title>Node20&#45;&gt;Node5</title>
<path fill="none" stroke="midnightblue" d="M1273.56,-232.526C1326.97,-228.384 1408.18,-229.516 1468,-263.692 1511.76,-288.693 1540.56,-343.603 1553.37,-372.711"/>
<polygon fill="midnightblue" stroke="midnightblue" points="1550.25,-374.314 1557.37,-382.164 1556.7,-371.59 1550.25,-374.314"/>
</g>
<!-- Node21 -->
<g id="node21" class="node"><title>Node21</title>
<g id="a_node21"><a xlink:href="../../d0/df6/classCParser.html#a2892a3b78b33e67d6b648ed24668fed0" target="_top" xlink:title="CParser::type_keyword">
<polygon fill="white" stroke="black" points="1328,-192.192 1328,-211.192 1454,-211.192 1454,-192.192 1328,-192.192"/>
<text text-anchor="middle" x="1391" y="-199.192" font-family="Helvetica,sans-Serif" font-size="10.00">CParser::type_keyword</text>
</a>
</g>
</g>
<!-- Node20&#45;&gt;Node21 -->
<g id="edge28" class="edge"><title>Node20&#45;&gt;Node21</title>
<path fill="none" stroke="midnightblue" d="M1261.4,-230.103C1284.41,-225.021 1312.85,-218.737 1337.13,-213.372"/>
<polygon fill="midnightblue" stroke="midnightblue" points="1337.9,-216.787 1346.91,-211.213 1336.39,-209.952 1337.9,-216.787"/>
</g>
<!-- Node21&#45;&gt;Node5 -->
<g id="edge29" class="edge"><title>Node21&#45;&gt;Node5</title>
<path fill="none" stroke="midnightblue" d="M1441.37,-211.321C1450.88,-214.756 1460.27,-219.405 1468,-225.692 1516.79,-265.387 1544.45,-337.858 1555.42,-372.395"/>
<polygon fill="midnightblue" stroke="midnightblue" points="1552.14,-373.639 1558.4,-382.186 1558.84,-371.6 1552.14,-373.639"/>
</g>
<!-- Node22&#45;&gt;Node1 -->
<g id="edge35" class="edge"><title>Node22&#45;&gt;Node1</title>
<path fill="none" stroke="midnightblue" d="M1163.3,-695.692C1094.55,-695.692 970.53,-695.692 864.5,-695.692 482,-695.692 482,-695.692 482,-695.692 346.025,-695.692 310.506,-697.485 177,-671.692 152.873,-667.031 126.487,-658.777 106.139,-651.69"/>
<polygon fill="midnightblue" stroke="midnightblue" points="107.266,-648.376 96.6708,-648.326 104.922,-654.972 107.266,-648.376"/>
</g>
<!-- Node22&#45;&gt;Node5 -->
<g id="edge38" class="edge"><title>Node22&#45;&gt;Node5</title>
<path fill="none" stroke="midnightblue" d="M1265.52,-705.246C1320.42,-713.393 1410.55,-717.484 1468,-671.692 1550.67,-605.802 1560.49,-464.161 1561.19,-411.739"/>
<polygon fill="midnightblue" stroke="midnightblue" points="1564.69,-411.457 1561.22,-401.447 1557.69,-411.437 1564.69,-411.457"/>
</g>
<!-- Node23 -->
<g id="node23" class="node"><title>Node23</title>
<g id="a_node23"><a xlink:href="../../d0/df6/classCParser.html#a631e11d228a64f7cd7eaa437a58d2bca" target="_top" xlink:title="CParser::class_key">
<polygon fill="white" stroke="black" points="1337.5,-762.192 1337.5,-781.192 1444.5,-781.192 1444.5,-762.192 1337.5,-762.192"/>
<text text-anchor="middle" x="1391" y="-769.192" font-family="Helvetica,sans-Serif" font-size="10.00">CParser::class_key</text>
</a>
</g>
</g>
<!-- Node22&#45;&gt;Node23 -->
<g id="edge32" class="edge"><title>Node22&#45;&gt;Node23</title>
<path fill="none" stroke="midnightblue" d="M1231.33,-705.324C1249.29,-717.888 1282.63,-739.784 1314,-752.692 1319.94,-755.138 1326.28,-757.328 1332.67,-759.274"/>
<polygon fill="midnightblue" stroke="midnightblue" points="1332.11,-762.755 1342.69,-762.131 1334.03,-756.023 1332.11,-762.755"/>
</g>
<!-- Node24 -->
<g id="node24" class="node"><title>Node24</title>
<g id="a_node24"><a xlink:href="../../da/d6a/classParseUtility.html#a128c7755b687730e50a5c063261f6c78" target="_top" xlink:title="ParseUtility::scopeCombine">
<polygon fill="white" stroke="black" points="1319,-724.192 1319,-743.192 1463,-743.192 1463,-724.192 1319,-724.192"/>
<text text-anchor="middle" x="1391" y="-731.192" font-family="Helvetica,sans-Serif" font-size="10.00">ParseUtility::scopeCombine</text>
</a>
</g>
</g>
<!-- Node22&#45;&gt;Node24 -->
<g id="edge36" class="edge"><title>Node22&#45;&gt;Node24</title>
<path fill="none" stroke="midnightblue" d="M1261.4,-705.281C1284.41,-710.364 1312.85,-716.648 1337.13,-722.013"/>
<polygon fill="midnightblue" stroke="midnightblue" points="1336.39,-725.433 1346.91,-724.172 1337.9,-718.597 1336.39,-725.433"/>
</g>
<!-- Node23&#45;&gt;Node5 -->
<g id="edge34" class="edge"><title>Node23&#45;&gt;Node5</title>
<path fill="none" stroke="midnightblue" d="M1444.53,-766.414C1453.25,-763.474 1461.53,-759.113 1468,-752.692 1517.6,-703.444 1549.71,-480.293 1558.53,-411.768"/>
<polygon fill="midnightblue" stroke="midnightblue" points="1562.05,-411.851 1559.83,-401.491 1555.1,-410.975 1562.05,-411.851"/>
</g>
<!-- Node23&#45;&gt;Node9 -->
<g id="edge33" class="edge"><title>Node23&#45;&gt;Node9</title>
<path fill="none" stroke="midnightblue" d="M1444.55,-777.6C1460.67,-779.413 1478.62,-781.431 1495.51,-783.329"/>
<polygon fill="midnightblue" stroke="midnightblue" points="1495.53,-786.853 1505.85,-784.493 1496.31,-779.897 1495.53,-786.853"/>
</g>
<!-- Node25 -->
<g id="node25" class="node"><title>Node25</title>
<g id="a_node25"><a xlink:href="../../d4/d6e/classCCCC__Project.html#ac0565e746210778bc6f165130464041b" target="_top" xlink:title="CCCC_Project::name">
<polygon fill="white" stroke="black" points="1504,-724.192 1504,-743.192 1620,-743.192 1620,-724.192 1504,-724.192"/>
<text text-anchor="middle" x="1562" y="-731.192" font-family="Helvetica,sans-Serif" font-size="10.00">CCCC_Project::name</text>
</a>
</g>
</g>
<!-- Node24&#45;&gt;Node25 -->
<g id="edge37" class="edge"><title>Node24&#45;&gt;Node25</title>
<path fill="none" stroke="midnightblue" d="M1463.18,-733.692C1473.22,-733.692 1483.52,-733.692 1493.5,-733.692"/>
<polygon fill="midnightblue" stroke="midnightblue" points="1493.74,-737.193 1503.74,-733.692 1493.74,-730.193 1493.74,-737.193"/>
</g>
<!-- Node26&#45;&gt;Node5 -->
<g id="edge43" class="edge"><title>Node26&#45;&gt;Node5</title>
<path fill="none" stroke="midnightblue" d="M1271.59,-152.248C1326.13,-144.738 1410.6,-142.065 1468,-182.692 1532.57,-228.4 1552.96,-329.519 1558.83,-372.142"/>
<polygon fill="midnightblue" stroke="midnightblue" points="1555.36,-372.599 1560.08,-382.085 1562.31,-371.728 1555.36,-372.599"/>
</g>
<!-- Node27 -->
<g id="node27" class="node"><title>Node27</title>
<g id="a_node27"><a xlink:href="../../d0/df6/classCParser.html#a80be2f0d41b613906058b6df76ce7815" target="_top" xlink:title="CParser::indirection\l_modifier">
<polygon fill="white" stroke="black" points="1336.5,-104.692 1336.5,-134.692 1445.5,-134.692 1445.5,-104.692 1336.5,-104.692"/>
<text text-anchor="start" x="1344.5" y="-122.692" font-family="Helvetica,sans-Serif" font-size="10.00">CParser::indirection</text>
<text text-anchor="middle" x="1391" y="-111.692" font-family="Helvetica,sans-Serif" font-size="10.00">_modifier</text>
</a>
</g>
</g>
<!-- Node26&#45;&gt;Node27 -->
<g id="edge41" class="edge"><title>Node26&#45;&gt;Node27</title>
<path fill="none" stroke="midnightblue" d="M1271.95,-149.205C1289.24,-144.882 1308.55,-140.056 1326.46,-135.578"/>
<polygon fill="midnightblue" stroke="midnightblue" points="1327.39,-138.953 1336.24,-133.132 1325.69,-132.162 1327.39,-138.953"/>
</g>
<!-- Node27&#45;&gt;Node5 -->
<g id="edge42" class="edge"><title>Node27&#45;&gt;Node5</title>
<path fill="none" stroke="midnightblue" d="M1445.73,-134.312C1453.91,-138.304 1461.71,-143.345 1468,-149.692 1531.67,-213.943 1552.69,-326.455 1558.78,-371.859"/>
<polygon fill="midnightblue" stroke="midnightblue" points="1555.32,-372.393 1560.03,-381.886 1562.27,-371.531 1555.32,-372.393"/>
</g>
</g>
</svg>
