<?xml version="1.0" encoding="UTF-8" standalone="no"?>
<!DOCTYPE svg PUBLIC "-//W3C//DTD SVG 1.1//EN"
 "http://www.w3.org/Graphics/SVG/1.1/DTD/svg11.dtd">
<!-- Generated by graphviz version 2.38.0 (20140413.2041)
 -->
<!-- Title: CParser::balanced_list Pages: 1 -->
<!--zoomable 373 -->
<svg id="main" version="1.1" xmlns="http://www.w3.org/2000/svg" xmlns:xlink="http://www.w3.org/1999/xlink" xml:space="preserve" onload="init(evt)">
<style type="text/css"><![CDATA[
.edge:hover path { stroke: red; }
.edge:hover polygon { stroke: red; fill: red; }
]]></style>
<script type="text/javascript"><![CDATA[
var edges = document.getElementsByTagName('g');
if (edges && edges.length) {
  for (var i=0;i<edges.length;i++) {
    if (edges[i].id.substr(0,4)=='edge') {
      edges[i].setAttribute('class','edge');
    }
  }
}
]]></script>
        <defs>
                <circle id="rim" cx="0" cy="0" r="7"/>
                <circle id="rim2" cx="0" cy="0" r="3.5"/>
                <g id="zoomPlus">
                        <use xlink:href="#rim" fill="#404040">
                                <set attributeName="fill" to="#808080" begin="zoomplus.mouseover" end="zoomplus.mouseout"/>
                        </use>
                        <path d="M-4,0h8M0,-4v8" fill="none" stroke="white" stroke-width="1.5" pointer-events="none"/>
                </g>
                <g id="zoomMin">
                        <use xlink:href="#rim" fill="#404040">
                                <set attributeName="fill" to="#808080" begin="zoomminus.mouseover" end="zoomminus.mouseout"/>
                        </use>
                        <path d="M-4,0h8" fill="none" stroke="white" stroke-width="1.5" pointer-events="none"/>
                </g>
                <g id="dirArrow">
                        <path fill="none" stroke="white" stroke-width="1.5" d="M0,-3.0v7 M-2.5,-0.5L0,-3.0L2.5,-0.5"/>
                </g>
               <g id="resetDef">
                       <use xlink:href="#rim2" fill="#404040">
                               <set attributeName="fill" to="#808080" begin="reset.mouseover" end="reset.mouseout"/>
                       </use>
               </g>
        </defs>

<script type="text/javascript">
var viewWidth = 3159;
var viewHeight = 373;
var sectionId = 'dynsection-17';
</script>
<script xlink:href="../../svgpan.js"/>
<svg id="graph" class="graph">
<g id="viewport">
<title>CParser::balanced_list</title>
<polygon fill="white" stroke="none" points="-4,4 -4,-369 3155,-369 3155,4 -4,4"/>
<!-- Node1 -->
<g id="node1" class="node"><title>Node1</title>
<polygon fill="#bfbfbf" stroke="black" points="0,-57.5 0,-76.5 122,-76.5 122,-57.5 0,-57.5"/>
<text text-anchor="middle" x="61" y="-64.5" font-family="Helvetica,sans-Serif" font-size="10.00">CParser::balanced_list</text>
</g>
<!-- Node2 -->
<g id="node2" class="node"><title>Node2</title>
<g id="a_node2"><a xlink:href="../../d0/df6/classCParser.html#a51affc383cd0859af5d84b628c8a2f5c" target="_top" xlink:title="CParser::paren_block">
<polygon fill="white" stroke="black" points="158,-152.5 158,-171.5 276,-171.5 276,-152.5 158,-152.5"/>
<text text-anchor="middle" x="217" y="-159.5" font-family="Helvetica,sans-Serif" font-size="10.00">CParser::paren_block</text>
</a>
</g>
</g>
<!-- Node1&#45;&gt;Node2 -->
<g id="edge1" class="edge"><title>Node1&#45;&gt;Node2</title>
<path fill="none" stroke="midnightblue" d="M86.3469,-82.0192C118.295,-101.727 173.451,-135.752 200.345,-152.343"/>
<polygon fill="midnightblue" stroke="midnightblue" points="87.9623,-78.9034 77.6138,-76.6319 84.2871,-84.861 87.9623,-78.9034"/>
</g>
<!-- Node37 -->
<g id="node37" class="node"><title>Node37</title>
<g id="a_node37"><a xlink:href="../../d0/df6/classCParser.html#ac73c93a601c6e7123e0ebbd7be03b60d" target="_top" xlink:title="CParser::brack_block">
<polygon fill="white" stroke="black" points="159,-57.5 159,-76.5 275,-76.5 275,-57.5 159,-57.5"/>
<text text-anchor="middle" x="217" y="-64.5" font-family="Helvetica,sans-Serif" font-size="10.00">CParser::brack_block</text>
</a>
</g>
</g>
<!-- Node1&#45;&gt;Node37 -->
<g id="edge47" class="edge"><title>Node1&#45;&gt;Node37</title>
<path fill="none" stroke="midnightblue" d="M132.625,-67C141.382,-67 150.249,-67 158.771,-67"/>
<polygon fill="midnightblue" stroke="midnightblue" points="132.423,-63.5001 122.423,-67 132.423,-70.5001 132.423,-63.5001"/>
</g>
<!-- Node3 -->
<g id="node3" class="node"><title>Node3</title>
<g id="a_node3"><a xlink:href="../../d0/df6/classCParser.html#afbe8666c28623fadda88dce63f2d0dd7" target="_top" xlink:title="CParser::param_list">
<polygon fill="white" stroke="black" points="320.5,-114.5 320.5,-133.5 429.5,-133.5 429.5,-114.5 320.5,-114.5"/>
<text text-anchor="middle" x="375" y="-121.5" font-family="Helvetica,sans-Serif" font-size="10.00">CParser::param_list</text>
</a>
</g>
</g>
<!-- Node2&#45;&gt;Node3 -->
<g id="edge2" class="edge"><title>Node2&#45;&gt;Node3</title>
<path fill="none" stroke="midnightblue" d="M267.132,-150.032C288.993,-144.707 314.376,-138.524 334.918,-133.52"/>
<polygon fill="midnightblue" stroke="midnightblue" points="266.253,-146.644 257.365,-152.411 267.91,-153.445 266.253,-146.644"/>
</g>
<!-- Node20 -->
<g id="node20" class="node"><title>Node20</title>
<g id="a_node20"><a xlink:href="../../d0/df6/classCParser.html#a74aee17394e57d00d5cf1cb233f2dd42" target="_top" xlink:title="CParser::fptr_type\l_alias">
<polygon fill="white" stroke="black" points="475,-237 475,-267 577,-267 577,-237 475,-237"/>
<text text-anchor="start" x="483" y="-255" font-family="Helvetica,sans-Serif" font-size="10.00">CParser::fptr_type</text>
<text text-anchor="middle" x="526" y="-244" font-family="Helvetica,sans-Serif" font-size="10.00">_alias</text>
</a>
</g>
</g>
<!-- Node2&#45;&gt;Node20 -->
<g id="edge25" class="edge"><title>Node2&#45;&gt;Node20</title>
<path fill="none" stroke="midnightblue" d="M238.401,-177.633C256.675,-190.81 284.723,-209.062 312,-219 365.618,-238.536 430.941,-246.507 474.996,-249.759"/>
<polygon fill="midnightblue" stroke="midnightblue" points="240.388,-174.749 230.262,-171.63 236.233,-180.383 240.388,-174.749"/>
</g>
<!-- Node23 -->
<g id="node23" class="node"><title>Node23</title>
<g id="a_node23"><a xlink:href="../../d0/df6/classCParser.html#a5e83377507b06b136005686f47f13fcb" target="_top" xlink:title="CParser::item_specifier">
<polygon fill="white" stroke="black" points="614,-152.5 614,-171.5 739,-171.5 739,-152.5 614,-152.5"/>
<text text-anchor="middle" x="676.5" y="-159.5" font-family="Helvetica,sans-Serif" font-size="10.00">CParser::item_specifier</text>
</a>
</g>
</g>
<!-- Node2&#45;&gt;Node23 -->
<g id="edge29" class="edge"><title>Node2&#45;&gt;Node23</title>
<path fill="none" stroke="midnightblue" d="M286.636,-162C375.367,-162 528.577,-162 613.792,-162"/>
<polygon fill="midnightblue" stroke="midnightblue" points="286.407,-158.5 276.407,-162 286.407,-165.5 286.407,-158.5"/>
</g>
<!-- Node31 -->
<g id="node31" class="node"><title>Node31</title>
<g id="a_node31"><a xlink:href="../../d0/df6/classCParser.html#aa600547e6bdaf5e45d02c89a19c7fa4b" target="_top" xlink:title="CParser::init_expr_item">
<polygon fill="white" stroke="black" points="312,-190.5 312,-209.5 438,-209.5 438,-190.5 312,-190.5"/>
<text text-anchor="middle" x="375" y="-197.5" font-family="Helvetica,sans-Serif" font-size="10.00">CParser::init_expr_item</text>
</a>
</g>
</g>
<!-- Node2&#45;&gt;Node31 -->
<g id="edge39" class="edge"><title>Node2&#45;&gt;Node31</title>
<path fill="none" stroke="midnightblue" d="M267.132,-173.968C288.993,-179.293 314.376,-185.476 334.918,-190.48"/>
<polygon fill="midnightblue" stroke="midnightblue" points="267.91,-170.555 257.365,-171.589 266.253,-177.356 267.91,-170.555"/>
</g>
<!-- Node34 -->
<g id="node34" class="node"><title>Node34</title>
<g id="a_node34"><a xlink:href="../../d0/df6/classCParser.html#a8715e75c1e5fe112f10ccf0986cc2c7d" target="_top" xlink:title="CParser::init_value">
<polygon fill="white" stroke="black" points="323,-266.5 323,-285.5 427,-285.5 427,-266.5 323,-266.5"/>
<text text-anchor="middle" x="375" y="-273.5" font-family="Helvetica,sans-Serif" font-size="10.00">CParser::init_value</text>
</a>
</g>
</g>
<!-- Node2&#45;&gt;Node34 -->
<g id="edge43" class="edge"><title>Node2&#45;&gt;Node34</title>
<path fill="none" stroke="midnightblue" d="M232.332,-179.372C249.499,-199.235 279.972,-231.629 312,-252 321.252,-257.885 332.176,-262.707 342.256,-266.445"/>
<polygon fill="midnightblue" stroke="midnightblue" points="234.962,-177.06 225.824,-171.697 229.623,-181.588 234.962,-177.06"/>
</g>
<!-- Node35 -->
<g id="node35" class="node"><title>Node35</title>
<g id="a_node35"><a xlink:href="../../d0/df6/classCParser.html#a35e24b97e6c8566e503521071040413f" target="_top" xlink:title="CParser::block">
<polygon fill="white" stroke="black" points="333,-76.5 333,-95.5 417,-95.5 417,-76.5 333,-76.5"/>
<text text-anchor="middle" x="375" y="-83.5" font-family="Helvetica,sans-Serif" font-size="10.00">CParser::block</text>
</a>
</g>
</g>
<!-- Node2&#45;&gt;Node35 -->
<g id="edge44" class="edge"><title>Node2&#45;&gt;Node35</title>
<path fill="none" stroke="midnightblue" d="M239.739,-146.678C258.266,-134.153 285.956,-116.669 312,-105 320.014,-101.409 328.9,-98.2431 337.383,-95.5757"/>
<polygon fill="midnightblue" stroke="midnightblue" points="237.692,-143.838 231.427,-152.381 241.653,-149.61 237.692,-143.838"/>
</g>
<!-- Node4 -->
<g id="node4" class="node"><title>Node4</title>
<g id="a_node4"><a xlink:href="../../d0/df6/classCParser.html#ab263641e50f3b30b3ac343dd3a5f7e61" target="_top" xlink:title="CParser::method_signature">
<polygon fill="white" stroke="black" points="775,-72.5 775,-91.5 920,-91.5 920,-72.5 775,-72.5"/>
<text text-anchor="middle" x="847.5" y="-79.5" font-family="Helvetica,sans-Serif" font-size="10.00">CParser::method_signature</text>
</a>
</g>
</g>
<!-- Node3&#45;&gt;Node4 -->
<g id="edge3" class="edge"><title>Node3&#45;&gt;Node4</title>
<path fill="none" stroke="midnightblue" d="M439.543,-118.328C526.784,-110.54 683.213,-96.5761 774.625,-88.416"/>
<polygon fill="midnightblue" stroke="midnightblue" points="439.163,-114.848 429.514,-119.223 439.786,-121.82 439.163,-114.848"/>
</g>
<!-- Node5 -->
<g id="node5" class="node"><title>Node5</title>
<g id="a_node5"><a xlink:href="../../d0/df6/classCParser.html#a0dd2a579512bf1a17aaeac5fdec860a7" target="_top" xlink:title="CParser::method_declaration\l_or_definition_with_implicit_type">
<polygon fill="white" stroke="black" points="1638,-110 1638,-140 1808,-140 1808,-110 1638,-110"/>
<text text-anchor="start" x="1646" y="-128" font-family="Helvetica,sans-Serif" font-size="10.00">CParser::method_declaration</text>
<text text-anchor="middle" x="1723" y="-117" font-family="Helvetica,sans-Serif" font-size="10.00">_or_definition_with_implicit_type</text>
</a>
</g>
</g>
<!-- Node4&#45;&gt;Node5 -->
<g id="edge4" class="edge"><title>Node4&#45;&gt;Node5</title>
<path fill="none" stroke="midnightblue" d="M930.477,-81.6391C1002.63,-81.3526 1110.54,-81 1204.5,-81 1204.5,-81 1204.5,-81 1370,-81 1465.77,-81 1575.07,-97.2343 1646.12,-109.981"/>
<polygon fill="midnightblue" stroke="midnightblue" points="930.082,-78.1406 920.097,-81.6808 930.111,-85.1405 930.082,-78.1406"/>
</g>
<!-- Node6 -->
<g id="node6" class="node"><title>Node6</title>
<g id="a_node6"><a xlink:href="../../d0/df6/classCParser.html#ab3ab57ace628c2476dd8dfe5a96f9a15" target="_top" xlink:title="CParser::definition\l_or_declaration">
<polygon fill="white" stroke="black" points="2050,-203 2050,-233 2153,-233 2153,-203 2050,-203"/>
<text text-anchor="start" x="2058" y="-221" font-family="Helvetica,sans-Serif" font-size="10.00">CParser::definition</text>
<text text-anchor="middle" x="2101.5" y="-210" font-family="Helvetica,sans-Serif" font-size="10.00">_or_declaration</text>
</a>
</g>
</g>
<!-- Node5&#45;&gt;Node6 -->
<g id="edge5" class="edge"><title>Node5&#45;&gt;Node6</title>
<path fill="none" stroke="midnightblue" d="M1782.77,-142.923C1802.19,-148.637 1823.96,-154.817 1844,-160 1914.94,-178.348 1997.75,-196.488 2049.66,-207.468"/>
<polygon fill="midnightblue" stroke="midnightblue" points="1783.73,-139.557 1773.15,-140.074 1781.74,-146.269 1783.73,-139.557"/>
</g>
<!-- Node18 -->
<g id="node18" class="node"><title>Node18</title>
<g id="a_node18"><a xlink:href="../../d0/df6/classCParser.html#a12561a45dab96760d7ab45896681dd33" target="_top" xlink:title="CParser::class_or_method\l_declaration_or_definition">
<polygon fill="white" stroke="black" points="3010,-115 3010,-145 3151,-145 3151,-115 3010,-115"/>
<text text-anchor="start" x="3018" y="-133" font-family="Helvetica,sans-Serif" font-size="10.00">CParser::class_or_method</text>
<text text-anchor="middle" x="3080.5" y="-122" font-family="Helvetica,sans-Serif" font-size="10.00">_declaration_or_definition</text>
</a>
</g>
</g>
<!-- Node5&#45;&gt;Node18 -->
<g id="edge24" class="edge"><title>Node5&#45;&gt;Node18</title>
<path fill="none" stroke="midnightblue" d="M1818.33,-112.129C1894.36,-102.867 2004.11,-92 2100.5,-92 2100.5,-92 2100.5,-92 2739,-92 2833.28,-92 2941.34,-106.567 3009.98,-117.662"/>
<polygon fill="midnightblue" stroke="midnightblue" points="1817.8,-108.668 1808.3,-113.365 1818.65,-115.616 1817.8,-108.668"/>
</g>
<!-- Node19 -->
<g id="node19" class="node"><title>Node19</title>
<g id="a_node19"><a xlink:href="../../d0/df6/classCParser.html#af0c9d35d4c997c6f34cf4a26563b513c" target="_top" xlink:title="CParser::method_declaration\l_or_definition_with_explicit_type">
<polygon fill="white" stroke="black" points="1844,-121 1844,-151 2014,-151 2014,-121 1844,-121"/>
<text text-anchor="start" x="1852" y="-139" font-family="Helvetica,sans-Serif" font-size="10.00">CParser::method_declaration</text>
<text text-anchor="middle" x="1929" y="-128" font-family="Helvetica,sans-Serif" font-size="10.00">_or_definition_with_explicit_type</text>
</a>
</g>
</g>
<!-- Node5&#45;&gt;Node19 -->
<g id="edge21" class="edge"><title>Node5&#45;&gt;Node19</title>
<path fill="none" stroke="midnightblue" d="M1818.4,-130.09C1826.85,-130.546 1835.36,-131.005 1843.71,-131.455"/>
<polygon fill="midnightblue" stroke="midnightblue" points="1818.33,-126.581 1808.15,-129.538 1817.95,-133.571 1818.33,-126.581"/>
</g>
<!-- Node7 -->
<g id="node7" class="node"><title>Node7</title>
<g id="a_node7"><a xlink:href="../../d0/df6/classCParser.html#a2b78ab2005bef5c43ee2d4689210eab1" target="_top" xlink:title="CParser::link_item">
<polygon fill="white" stroke="black" points="2208.5,-276.5 2208.5,-295.5 2309.5,-295.5 2309.5,-276.5 2208.5,-276.5"/>
<text text-anchor="middle" x="2259" y="-283.5" font-family="Helvetica,sans-Serif" font-size="10.00">CParser::link_item</text>
</a>
</g>
</g>
<!-- Node6&#45;&gt;Node7 -->
<g id="edge6" class="edge"><title>Node6&#45;&gt;Node7</title>
<path fill="none" stroke="midnightblue" d="M2146.21,-237.114C2175.49,-249.921 2212.81,-266.238 2236.06,-276.404"/>
<polygon fill="midnightblue" stroke="midnightblue" points="2147.58,-233.891 2137.01,-233.091 2144.77,-240.305 2147.58,-233.891"/>
</g>
<!-- Node13 -->
<g id="node13" class="node"><title>Node13</title>
<g id="a_node13"><a xlink:href="../../d0/df6/classCParser.html#a85eb09132fa5a588749cea062f0d11ea" target="_top" xlink:title="CParser::class_block_item">
<polygon fill="white" stroke="black" points="2189,-167.5 2189,-186.5 2329,-186.5 2329,-167.5 2189,-167.5"/>
<text text-anchor="middle" x="2259" y="-174.5" font-family="Helvetica,sans-Serif" font-size="10.00">CParser::class_block_item</text>
</a>
</g>
</g>
<!-- Node6&#45;&gt;Node13 -->
<g id="edge14" class="edge"><title>Node6&#45;&gt;Node13</title>
<path fill="none" stroke="midnightblue" d="M2163.28,-201.975C2183.05,-196.762 2204.36,-191.143 2221.75,-186.558"/>
<polygon fill="midnightblue" stroke="midnightblue" points="2162.19,-198.641 2153.42,-204.575 2163.98,-205.41 2162.19,-198.641"/>
</g>
<!-- Node8 -->
<g id="node8" class="node"><title>Node8</title>
<g id="a_node8"><a xlink:href="../../d0/df6/classCParser.html#a4f02da23566af37123efb3768769c09b" target="_top" xlink:title="CParser::start">
<polygon fill="white" stroke="black" points="2389.5,-345.5 2389.5,-364.5 2470.5,-364.5 2470.5,-345.5 2389.5,-345.5"/>
<text text-anchor="middle" x="2430" y="-352.5" font-family="Helvetica,sans-Serif" font-size="10.00">CParser::start</text>
</a>
</g>
</g>
<!-- Node7&#45;&gt;Node8 -->
<g id="edge7" class="edge"><title>Node7&#45;&gt;Node8</title>
<path fill="none" stroke="midnightblue" d="M2286.76,-300.172C2307.69,-310.898 2337.7,-325.522 2365,-336 2373.98,-339.447 2383.87,-342.657 2393.12,-345.42"/>
<polygon fill="midnightblue" stroke="midnightblue" points="2288.32,-297.037 2277.83,-295.547 2285.1,-303.253 2288.32,-297.037"/>
</g>
<!-- Node11 -->
<g id="node11" class="node"><title>Node11</title>
<g id="a_node11"><a xlink:href="../../d0/df6/classCParser.html#a86906e492ff9c606fb3537078f46f93e" target="_top" xlink:title="CParser::extern_linkage\l_block">
<polygon fill="white" stroke="black" points="2365,-296 2365,-326 2495,-326 2495,-296 2365,-296"/>
<text text-anchor="start" x="2373" y="-314" font-family="Helvetica,sans-Serif" font-size="10.00">CParser::extern_linkage</text>
<text text-anchor="middle" x="2430" y="-303" font-family="Helvetica,sans-Serif" font-size="10.00">_block</text>
</a>
</g>
</g>
<!-- Node7&#45;&gt;Node11 -->
<g id="edge10" class="edge"><title>Node7&#45;&gt;Node11</title>
<path fill="none" stroke="midnightblue" d="M2319.91,-288.373C2336.49,-290.465 2354.46,-293.137 2370.94,-295.963"/>
<polygon fill="midnightblue" stroke="midnightblue" points="2320.14,-284.875 2309.79,-287.15 2319.3,-291.825 2320.14,-284.875"/>
</g>
<!-- Node12 -->
<g id="node12" class="node"><title>Node12</title>
<g id="a_node12"><a xlink:href="../../d0/df6/classCParser.html#a4fad913a0694a5376ad76669d8943122" target="_top" xlink:title="CParser::namespace\l_block">
<polygon fill="white" stroke="black" points="2372.5,-247 2372.5,-277 2487.5,-277 2487.5,-247 2372.5,-247"/>
<text text-anchor="start" x="2380.5" y="-265" font-family="Helvetica,sans-Serif" font-size="10.00">CParser::namespace</text>
<text text-anchor="middle" x="2430" y="-254" font-family="Helvetica,sans-Serif" font-size="10.00">_block</text>
</a>
</g>
</g>
<!-- Node7&#45;&gt;Node12 -->
<g id="edge12" class="edge"><title>Node7&#45;&gt;Node12</title>
<path fill="none" stroke="midnightblue" d="M2299.68,-274.542C2321.37,-270.468 2348.62,-266.404 2372.5,-263.615"/>
<polygon fill="midnightblue" stroke="midnightblue" points="2298.97,-271.115 2289.82,-276.473 2300.31,-277.985 2298.97,-271.115"/>
</g>
<!-- Node9 -->
<g id="node9" class="node"><title>Node9</title>
<g id="a_node9"><a xlink:href="../../db/d4a/classMain.html#a803470658c644fa9512140f9d8398dd5" target="_top" xlink:title="Main::ParseFiles">
<polygon fill="white" stroke="black" points="2541,-345.5 2541,-364.5 2635,-364.5 2635,-345.5 2541,-345.5"/>
<text text-anchor="middle" x="2588" y="-352.5" font-family="Helvetica,sans-Serif" font-size="10.00">Main::ParseFiles</text>
</a>
</g>
</g>
<!-- Node8&#45;&gt;Node9 -->
<g id="edge8" class="edge"><title>Node8&#45;&gt;Node9</title>
<path fill="none" stroke="midnightblue" d="M2480.87,-355C2500.14,-355 2522.05,-355 2540.94,-355"/>
<polygon fill="midnightblue" stroke="midnightblue" points="2480.77,-351.5 2470.77,-355 2480.77,-358.5 2480.77,-351.5"/>
</g>
<!-- Node10 -->
<g id="node10" class="node"><title>Node10</title>
<g id="a_node10"><a xlink:href="../../d6/d93/ccccmain_8cc.html#a3c04138a5bfe5d72780bb7e82a18e627" target="_top" xlink:title="main">
<polygon fill="white" stroke="black" points="2718.5,-345.5 2718.5,-364.5 2757.5,-364.5 2757.5,-345.5 2718.5,-345.5"/>
<text text-anchor="middle" x="2738" y="-352.5" font-family="Helvetica,sans-Serif" font-size="10.00">main</text>
</a>
</g>
</g>
<!-- Node9&#45;&gt;Node10 -->
<g id="edge9" class="edge"><title>Node9&#45;&gt;Node10</title>
<path fill="none" stroke="midnightblue" d="M2645.15,-355C2671.09,-355 2700.14,-355 2718.49,-355"/>
<polygon fill="midnightblue" stroke="midnightblue" points="2645.02,-351.5 2635.02,-355 2645.02,-358.5 2645.02,-351.5"/>
</g>
<!-- Node11&#45;&gt;Node7 -->
<g id="edge11" class="edge"><title>Node11&#45;&gt;Node7</title>
<path fill="none" stroke="midnightblue" d="M2355.06,-306.766C2331.73,-303.523 2307.3,-299.422 2289.05,-295.54"/>
<polygon fill="midnightblue" stroke="midnightblue" points="2354.6,-310.235 2364.98,-308.1 2355.53,-303.297 2354.6,-310.235"/>
</g>
<!-- Node12&#45;&gt;Node7 -->
<g id="edge13" class="edge"><title>Node12&#45;&gt;Node7</title>
<path fill="none" stroke="midnightblue" d="M2362.29,-278.089C2344.8,-280.842 2326.23,-283.345 2309.79,-285.145"/>
<polygon fill="midnightblue" stroke="midnightblue" points="2363.14,-281.498 2372.45,-276.442 2362.02,-274.588 2363.14,-281.498"/>
</g>
<!-- Node14 -->
<g id="node14" class="node"><title>Node14</title>
<g id="a_node14"><a xlink:href="../../d0/df6/classCParser.html#a4b9f00c05d44a13b3c18b28b52f5be9e" target="_top" xlink:title="CParser::class_block\l_item_list">
<polygon fill="white" stroke="black" points="2373,-159 2373,-189 2487,-189 2487,-159 2373,-159"/>
<text text-anchor="start" x="2381" y="-177" font-family="Helvetica,sans-Serif" font-size="10.00">CParser::class_block</text>
<text text-anchor="middle" x="2430" y="-166" font-family="Helvetica,sans-Serif" font-size="10.00">_item_list</text>
</a>
</g>
</g>
<!-- Node13&#45;&gt;Node14 -->
<g id="edge15" class="edge"><title>Node13&#45;&gt;Node14</title>
<path fill="none" stroke="midnightblue" d="M2339.5,-175.589C2350.74,-175.389 2362.1,-175.188 2372.79,-174.998"/>
<polygon fill="midnightblue" stroke="midnightblue" points="2339.16,-172.094 2329.23,-175.771 2339.29,-179.093 2339.16,-172.094"/>
</g>
<!-- Node15 -->
<g id="node15" class="node"><title>Node15</title>
<g id="a_node15"><a xlink:href="../../d0/df6/classCParser.html#a06c7cac9034f27ad6d998b49a7b574c8" target="_top" xlink:title="CParser::class_block">
<polygon fill="white" stroke="black" points="2531,-164.5 2531,-183.5 2645,-183.5 2645,-164.5 2531,-164.5"/>
<text text-anchor="middle" x="2588" y="-171.5" font-family="Helvetica,sans-Serif" font-size="10.00">CParser::class_block</text>
</a>
</g>
</g>
<!-- Node14&#45;&gt;Node15 -->
<g id="edge16" class="edge"><title>Node14&#45;&gt;Node15</title>
<path fill="none" stroke="midnightblue" d="M2497.4,-174C2508.51,-174 2519.94,-174 2530.76,-174"/>
<polygon fill="midnightblue" stroke="midnightblue" points="2497.32,-170.5 2487.32,-174 2497.32,-177.5 2497.32,-170.5"/>
</g>
<!-- Node16 -->
<g id="node16" class="node"><title>Node16</title>
<g id="a_node16"><a xlink:href="../../d0/df6/classCParser.html#a40fba8426e7ac46e9926515ee81e97f3" target="_top" xlink:title="CParser::class_suffix">
<polygon fill="white" stroke="black" points="2681,-164.5 2681,-183.5 2795,-183.5 2795,-164.5 2681,-164.5"/>
<text text-anchor="middle" x="2738" y="-171.5" font-family="Helvetica,sans-Serif" font-size="10.00">CParser::class_suffix</text>
</a>
</g>
</g>
<!-- Node15&#45;&gt;Node16 -->
<g id="edge17" class="edge"><title>Node15&#45;&gt;Node16</title>
<path fill="none" stroke="midnightblue" d="M2655.56,-174C2663.98,-174 2672.54,-174 2680.78,-174"/>
<polygon fill="midnightblue" stroke="midnightblue" points="2655.37,-170.5 2645.37,-174 2655.37,-177.5 2655.37,-170.5"/>
</g>
<!-- Node17 -->
<g id="node17" class="node"><title>Node17</title>
<g id="a_node17"><a xlink:href="../../d0/df6/classCParser.html#a1ed5fcfb2e97e3551fceabe81989a667" target="_top" xlink:title="CParser::class_declaration\l_or_definition">
<polygon fill="white" stroke="black" points="2831,-159 2831,-189 2974,-189 2974,-159 2831,-159"/>
<text text-anchor="start" x="2839" y="-177" font-family="Helvetica,sans-Serif" font-size="10.00">CParser::class_declaration</text>
<text text-anchor="middle" x="2902.5" y="-166" font-family="Helvetica,sans-Serif" font-size="10.00">_or_definition</text>
</a>
</g>
</g>
<!-- Node16&#45;&gt;Node17 -->
<g id="edge18" class="edge"><title>Node16&#45;&gt;Node17</title>
<path fill="none" stroke="midnightblue" d="M2805.47,-174C2813.86,-174 2822.46,-174 2830.91,-174"/>
<polygon fill="midnightblue" stroke="midnightblue" points="2805.38,-170.5 2795.38,-174 2805.38,-177.5 2805.38,-170.5"/>
</g>
<!-- Node17&#45;&gt;Node6 -->
<g id="edge19" class="edge"><title>Node17&#45;&gt;Node6</title>
<path fill="none" stroke="midnightblue" d="M2824.36,-190.985C2761.37,-203.373 2669.87,-218 2589,-218 2429,-218 2429,-218 2429,-218 2331.36,-218 2217.3,-218 2153.12,-218"/>
<polygon fill="midnightblue" stroke="midnightblue" points="2825.1,-194.408 2834.22,-189.019 2823.73,-187.543 2825.1,-194.408"/>
</g>
<!-- Node17&#45;&gt;Node18 -->
<g id="edge20" class="edge"><title>Node17&#45;&gt;Node18</title>
<path fill="none" stroke="midnightblue" d="M2973.44,-156.515C2988.65,-152.713 3004.61,-148.723 3019.4,-145.026"/>
<polygon fill="midnightblue" stroke="midnightblue" points="2972.43,-153.16 2963.58,-158.981 2974.13,-159.951 2972.43,-153.16"/>
</g>
<!-- Node19&#45;&gt;Node6 -->
<g id="edge22" class="edge"><title>Node19&#45;&gt;Node6</title>
<path fill="none" stroke="midnightblue" d="M1986.83,-154.564C1996.04,-158.064 2005.38,-161.918 2014,-166 2036.65,-176.721 2060.98,-191.69 2078.06,-202.816"/>
<polygon fill="midnightblue" stroke="midnightblue" points="1987.91,-151.231 1977.32,-151.05 1985.49,-157.798 1987.91,-151.231"/>
</g>
<!-- Node19&#45;&gt;Node18 -->
<g id="edge23" class="edge"><title>Node19&#45;&gt;Node18</title>
<path fill="none" stroke="midnightblue" d="M2024.57,-133.355C2090.09,-131.746 2179.34,-130 2258,-130 2258,-130 2258,-130 2739,-130 2832.7,-130 2940.9,-130 3009.72,-130"/>
<polygon fill="midnightblue" stroke="midnightblue" points="2024.17,-129.863 2014.26,-133.611 2024.34,-136.861 2024.17,-129.863"/>
</g>
<!-- Node21 -->
<g id="node21" class="node"><title>Node21</title>
<g id="a_node21"><a xlink:href="../../d0/df6/classCParser.html#a7042164da94c48da4e577a2bf0af04c4" target="_top" xlink:title="CParser::fptr_typedef\l_definition">
<polygon fill="white" stroke="black" points="618,-239 618,-269 735,-269 735,-239 618,-239"/>
<text text-anchor="start" x="626" y="-257" font-family="Helvetica,sans-Serif" font-size="10.00">CParser::fptr_typedef</text>
<text text-anchor="middle" x="676.5" y="-246" font-family="Helvetica,sans-Serif" font-size="10.00">_definition</text>
</a>
</g>
</g>
<!-- Node20&#45;&gt;Node21 -->
<g id="edge26" class="edge"><title>Node20&#45;&gt;Node21</title>
<path fill="none" stroke="midnightblue" d="M587.551,-252.816C597.562,-252.95 607.917,-253.09 617.854,-253.224"/>
<polygon fill="midnightblue" stroke="midnightblue" points="587.322,-249.312 577.275,-252.677 587.227,-256.312 587.322,-249.312"/>
</g>
<!-- Node22 -->
<g id="node22" class="node"><title>Node22</title>
<g id="a_node22"><a xlink:href="../../d0/df6/classCParser.html#a8c598aa662fff7e10be2ee78e078935a" target="_top" xlink:title="CParser::typedef_definition">
<polygon fill="white" stroke="black" points="1297,-246.5 1297,-265.5 1441,-265.5 1441,-246.5 1297,-246.5"/>
<text text-anchor="middle" x="1369" y="-253.5" font-family="Helvetica,sans-Serif" font-size="10.00">CParser::typedef_definition</text>
</a>
</g>
</g>
<!-- Node21&#45;&gt;Node22 -->
<g id="edge27" class="edge"><title>Node21&#45;&gt;Node22</title>
<path fill="none" stroke="midnightblue" d="M745.486,-254.197C876.579,-254.577 1163.13,-255.407 1296.76,-255.794"/>
<polygon fill="midnightblue" stroke="midnightblue" points="745.194,-250.696 735.184,-254.167 745.174,-257.696 745.194,-250.696"/>
</g>
<!-- Node22&#45;&gt;Node6 -->
<g id="edge28" class="edge"><title>Node22&#45;&gt;Node6</title>
<path fill="none" stroke="midnightblue" d="M1451.23,-256.175C1573.58,-255.715 1812.31,-252.004 2014,-232 2025.66,-230.844 2038.13,-229.117 2049.87,-227.267"/>
<polygon fill="midnightblue" stroke="midnightblue" points="1451.18,-252.675 1441.19,-256.206 1451.2,-259.675 1451.18,-252.675"/>
</g>
<!-- Node24 -->
<g id="node24" class="node"><title>Node24</title>
<g id="a_node24"><a xlink:href="../../d0/df6/classCParser.html#a9104801570f44810a98b9f3a5a76c06c" target="_top" xlink:title="CParser::instance_item">
<polygon fill="white" stroke="black" points="785,-152.5 785,-171.5 910,-171.5 910,-152.5 785,-152.5"/>
<text text-anchor="middle" x="847.5" y="-159.5" font-family="Helvetica,sans-Serif" font-size="10.00">CParser::instance_item</text>
</a>
</g>
</g>
<!-- Node23&#45;&gt;Node24 -->
<g id="edge30" class="edge"><title>Node23&#45;&gt;Node24</title>
<path fill="none" stroke="midnightblue" d="M749.652,-162C761.36,-162 773.391,-162 784.82,-162"/>
<polygon fill="midnightblue" stroke="midnightblue" points="749.47,-158.5 739.47,-162 749.47,-165.5 749.47,-158.5"/>
</g>
<!-- Node25 -->
<g id="node25" class="node"><title>Node25</title>
<g id="a_node25"><a xlink:href="../../d0/df6/classCParser.html#a6331346ed010ab6c734d29daeb5d896f" target="_top" xlink:title="CParser::instance_declaration">
<polygon fill="white" stroke="black" points="956,-164.5 956,-183.5 1114,-183.5 1114,-164.5 956,-164.5"/>
<text text-anchor="middle" x="1035" y="-171.5" font-family="Helvetica,sans-Serif" font-size="10.00">CParser::instance_declaration</text>
</a>
</g>
</g>
<!-- Node24&#45;&gt;Node25 -->
<g id="edge31" class="edge"><title>Node24&#45;&gt;Node25</title>
<path fill="none" stroke="midnightblue" d="M920.137,-166.634C931.819,-167.39 943.974,-168.176 955.805,-168.942"/>
<polygon fill="midnightblue" stroke="midnightblue" points="920.216,-163.132 910.011,-165.979 919.764,-170.118 920.216,-163.132"/>
</g>
<!-- Node27 -->
<g id="node27" class="node"><title>Node27</title>
<g id="a_node27"><a xlink:href="../../d0/df6/classCParser.html#a70d42f7013f81c71092f771ff9232941" target="_top" xlink:title="CParser::ctor_init_item">
<polygon fill="white" stroke="black" points="973.5,-120.5 973.5,-139.5 1096.5,-139.5 1096.5,-120.5 973.5,-120.5"/>
<text text-anchor="middle" x="1035" y="-127.5" font-family="Helvetica,sans-Serif" font-size="10.00">CParser::ctor_init_item</text>
</a>
</g>
</g>
<!-- Node24&#45;&gt;Node27 -->
<g id="edge34" class="edge"><title>Node24&#45;&gt;Node27</title>
<path fill="none" stroke="midnightblue" d="M913.579,-150.773C934.851,-147.104 958.26,-143.066 978.738,-139.533"/>
<polygon fill="midnightblue" stroke="midnightblue" points="912.913,-147.336 903.654,-152.486 914.103,-154.235 912.913,-147.336"/>
</g>
<!-- Node25&#45;&gt;Node6 -->
<g id="edge32" class="edge"><title>Node25&#45;&gt;Node6</title>
<path fill="none" stroke="midnightblue" d="M1085.43,-185.712C1105.39,-190.099 1128.7,-194.792 1150,-198 1246.21,-212.491 1270.7,-218 1368,-218 1368,-218 1368,-218 1724,-218 1840.68,-218 1977.69,-218 2049.95,-218"/>
<polygon fill="midnightblue" stroke="midnightblue" points="1086.15,-182.286 1075.63,-183.523 1084.62,-189.118 1086.15,-182.286"/>
</g>
<!-- Node26 -->
<g id="node26" class="node"><title>Node26</title>
<g id="a_node26"><a xlink:href="../../d0/df6/classCParser.html#a4e7cf3c3b19f9c664f345a10116c2c2c" target="_top" xlink:title="CParser::knr_param\l_decl_list">
<polygon fill="white" stroke="black" points="1150,-159 1150,-189 1261,-189 1261,-159 1150,-159"/>
<text text-anchor="start" x="1158" y="-177" font-family="Helvetica,sans-Serif" font-size="10.00">CParser::knr_param</text>
<text text-anchor="middle" x="1205.5" y="-166" font-family="Helvetica,sans-Serif" font-size="10.00">_decl_list</text>
</a>
</g>
</g>
<!-- Node25&#45;&gt;Node26 -->
<g id="edge33" class="edge"><title>Node25&#45;&gt;Node26</title>
<path fill="none" stroke="midnightblue" d="M1124.5,-174C1133.16,-174 1141.75,-174 1149.92,-174"/>
<polygon fill="midnightblue" stroke="midnightblue" points="1124.33,-170.5 1114.33,-174 1124.33,-177.5 1124.33,-170.5"/>
</g>
<!-- Node28 -->
<g id="node28" class="node"><title>Node28</title>
<g id="a_node28"><a xlink:href="../../d0/df6/classCParser.html#a617e49ab4458d5b4adf577a6a0bc05cd" target="_top" xlink:title="CParser::ctor_init\l_item_list">
<polygon fill="white" stroke="black" points="1156.5,-110 1156.5,-140 1254.5,-140 1254.5,-110 1156.5,-110"/>
<text text-anchor="start" x="1164.5" y="-128" font-family="Helvetica,sans-Serif" font-size="10.00">CParser::ctor_init</text>
<text text-anchor="middle" x="1205.5" y="-117" font-family="Helvetica,sans-Serif" font-size="10.00">_item_list</text>
</a>
</g>
</g>
<!-- Node27&#45;&gt;Node28 -->
<g id="edge35" class="edge"><title>Node27&#45;&gt;Node28</title>
<path fill="none" stroke="midnightblue" d="M1107.08,-127.891C1123.73,-127.397 1141.07,-126.882 1156.44,-126.426"/>
<polygon fill="midnightblue" stroke="midnightblue" points="1106.72,-124.4 1096.83,-128.195 1106.93,-131.397 1106.72,-124.4"/>
</g>
<!-- Node29 -->
<g id="node29" class="node"><title>Node29</title>
<g id="a_node29"><a xlink:href="../../d0/df6/classCParser.html#ab6c0eabf2b00874bf8f70b576d96ce52" target="_top" xlink:title="CParser::ctor_init_list">
<polygon fill="white" stroke="black" points="1311,-115.5 1311,-134.5 1427,-134.5 1427,-115.5 1311,-115.5"/>
<text text-anchor="middle" x="1369" y="-122.5" font-family="Helvetica,sans-Serif" font-size="10.00">CParser::ctor_init_list</text>
</a>
</g>
</g>
<!-- Node28&#45;&gt;Node29 -->
<g id="edge36" class="edge"><title>Node28&#45;&gt;Node29</title>
<path fill="none" stroke="midnightblue" d="M1264.69,-125C1279.69,-125 1295.82,-125 1310.76,-125"/>
<polygon fill="midnightblue" stroke="midnightblue" points="1264.52,-121.5 1254.52,-125 1264.52,-128.5 1264.52,-121.5"/>
</g>
<!-- Node30 -->
<g id="node30" class="node"><title>Node30</title>
<g id="a_node30"><a xlink:href="../../d0/df6/classCParser.html#ad7a6fd3a8b7daa3c26191f4512236a59" target="_top" xlink:title="CParser::method_suffix">
<polygon fill="white" stroke="black" points="1477,-115.5 1477,-134.5 1602,-134.5 1602,-115.5 1477,-115.5"/>
<text text-anchor="middle" x="1539.5" y="-122.5" font-family="Helvetica,sans-Serif" font-size="10.00">CParser::method_suffix</text>
</a>
</g>
</g>
<!-- Node29&#45;&gt;Node30 -->
<g id="edge37" class="edge"><title>Node29&#45;&gt;Node30</title>
<path fill="none" stroke="midnightblue" d="M1437.37,-125C1450.42,-125 1464.04,-125 1476.89,-125"/>
<polygon fill="midnightblue" stroke="midnightblue" points="1437.05,-121.5 1427.05,-125 1437.05,-128.5 1437.05,-121.5"/>
</g>
<!-- Node30&#45;&gt;Node5 -->
<g id="edge38" class="edge"><title>Node30&#45;&gt;Node5</title>
<path fill="none" stroke="midnightblue" d="M1612.34,-125C1620.75,-125 1629.4,-125 1637.97,-125"/>
<polygon fill="midnightblue" stroke="midnightblue" points="1612.2,-121.5 1602.2,-125 1612.2,-128.5 1612.2,-121.5"/>
</g>
<!-- Node32 -->
<g id="node32" class="node"><title>Node32</title>
<g id="a_node32"><a xlink:href="../../d0/df6/classCParser.html#a545c65918de48a33554b6fa86bf7bee4" target="_top" xlink:title="CParser::init_expr">
<polygon fill="white" stroke="black" points="475.5,-190.5 475.5,-209.5 576.5,-209.5 576.5,-190.5 475.5,-190.5"/>
<text text-anchor="middle" x="526" y="-197.5" font-family="Helvetica,sans-Serif" font-size="10.00">CParser::init_expr</text>
</a>
</g>
</g>
<!-- Node31&#45;&gt;Node32 -->
<g id="edge40" class="edge"><title>Node31&#45;&gt;Node32</title>
<path fill="none" stroke="midnightblue" d="M448.474,-200C457.502,-200 466.569,-200 475.146,-200"/>
<polygon fill="midnightblue" stroke="midnightblue" points="448.326,-196.5 438.326,-200 448.326,-203.5 448.326,-196.5"/>
</g>
<!-- Node33 -->
<g id="node33" class="node"><title>Node33</title>
<g id="a_node33"><a xlink:href="../../d0/df6/classCParser.html#aa7fd7f7807fc630d9020e84dbb3445e0" target="_top" xlink:title="CParser::opt_initializer">
<polygon fill="white" stroke="black" points="615.5,-190.5 615.5,-209.5 737.5,-209.5 737.5,-190.5 615.5,-190.5"/>
<text text-anchor="middle" x="676.5" y="-197.5" font-family="Helvetica,sans-Serif" font-size="10.00">CParser::opt_initializer</text>
</a>
</g>
</g>
<!-- Node32&#45;&gt;Node33 -->
<g id="edge41" class="edge"><title>Node32&#45;&gt;Node33</title>
<path fill="none" stroke="midnightblue" d="M586.917,-200C596.327,-200 606.057,-200 615.47,-200"/>
<polygon fill="midnightblue" stroke="midnightblue" points="586.861,-196.5 576.861,-200 586.861,-203.5 586.861,-196.5"/>
</g>
<!-- Node33&#45;&gt;Node24 -->
<g id="edge42" class="edge"><title>Node33&#45;&gt;Node24</title>
<path fill="none" stroke="midnightblue" d="M730.087,-188.176C753.913,-182.818 781.707,-176.569 804.161,-171.52"/>
<polygon fill="midnightblue" stroke="midnightblue" points="729.134,-184.802 720.146,-190.411 730.67,-191.632 729.134,-184.802"/>
</g>
<!-- Node36 -->
<g id="node36" class="node"><title>Node36</title>
<g id="a_node36"><a xlink:href="../../d0/df6/classCParser.html#a424ec587e8167b682804c23c4804d895" target="_top" xlink:title="CParser::balanced">
<polygon fill="white" stroke="black" points="474.5,-38.5 474.5,-57.5 577.5,-57.5 577.5,-38.5 474.5,-38.5"/>
<text text-anchor="middle" x="526" y="-45.5" font-family="Helvetica,sans-Serif" font-size="10.00">CParser::balanced</text>
</a>
</g>
</g>
<!-- Node35&#45;&gt;Node36 -->
<g id="edge45" class="edge"><title>Node35&#45;&gt;Node36</title>
<path fill="none" stroke="midnightblue" d="M423.492,-73.8879C444.244,-68.5956 468.228,-62.4787 487.671,-57.5201"/>
<polygon fill="midnightblue" stroke="midnightblue" points="422.424,-70.5482 413.599,-76.411 424.154,-77.3311 422.424,-70.5482"/>
</g>
<!-- Node36&#45;&gt;Node1 -->
<g id="edge46" class="edge"><title>Node36&#45;&gt;Node1</title>
<path fill="none" stroke="midnightblue" d="M464.014,-44.3721C391.047,-40.8684 265.279,-37.4858 158,-48 139.062,-49.8561 118.32,-53.7248 100.977,-57.4898"/>
<polygon fill="midnightblue" stroke="midnightblue" points="464.227,-47.8869 474.388,-44.8882 464.575,-40.8955 464.227,-47.8869"/>
</g>
<!-- Node37&#45;&gt;Node35 -->
<g id="edge48" class="edge"><title>Node37&#45;&gt;Node35</title>
<path fill="none" stroke="midnightblue" d="M285.201,-75.1847C301.432,-77.1616 318.299,-79.2159 332.917,-80.9963"/>
<polygon fill="midnightblue" stroke="midnightblue" points="285.553,-71.7018 275.203,-73.967 284.706,-78.6504 285.553,-71.7018"/>
</g>
<!-- Node38 -->
<g id="node38" class="node"><title>Node38</title>
<g id="a_node38"><a xlink:href="../../d0/df6/classCParser.html#a42ff2d36ecac90dd1cf7ac0a3a5862f1" target="_top" xlink:title="CParser::brack_list">
<polygon fill="white" stroke="black" points="474,-0.5 474,-19.5 578,-19.5 578,-0.5 474,-0.5"/>
<text text-anchor="middle" x="526" y="-7.5" font-family="Helvetica,sans-Serif" font-size="10.00">CParser::brack_list</text>
</a>
</g>
</g>
<!-- Node37&#45;&gt;Node38 -->
<g id="edge49" class="edge"><title>Node37&#45;&gt;Node38</title>
<path fill="none" stroke="midnightblue" d="M279.36,-55.6074C336.428,-45.0117 420.468,-29.4082 473.959,-19.4766"/>
<polygon fill="midnightblue" stroke="midnightblue" points="278.578,-52.1927 269.385,-57.4595 279.856,-59.0751 278.578,-52.1927"/>
</g>
<!-- Node38&#45;&gt;Node24 -->
<g id="edge50" class="edge"><title>Node38&#45;&gt;Node24</title>
<path fill="none" stroke="midnightblue" d="M563.883,-23.2238C568.663,-25.0885 573.469,-27.0399 578,-29 674.683,-70.8223 786.412,-129.699 828.889,-152.481"/>
<polygon fill="midnightblue" stroke="midnightblue" points="564.795,-19.8263 554.204,-19.5431 562.307,-26.3692 564.795,-19.8263"/>
</g>
</g>
</svg>
        <g id="navigator" transform="translate(0 0)" fill="#404254">
                <rect fill="#f2f5e9" fill-opacity="0.5" stroke="#606060" stroke-width=".5" x="0" y="0" width="60" height="60"/>
                <use id="zoomplus" xlink:href="#zoomPlus" x="17" y="9" onmousedown="handleZoom(evt,'in')"/>
                <use id="zoomminus" xlink:href="#zoomMin" x="42" y="9" onmousedown="handleZoom(evt,'out')"/>
                <use id="reset" xlink:href="#resetDef" x="30" y="36" onmousedown="handleReset()"/>
                <g id="arrowUp" xlink:href="#dirArrow" transform="translate(30 24)" onmousedown="handlePan(0,-1)">
                  <use xlink:href="#rim" fill="#404040">
                        <set attributeName="fill" to="#808080" begin="arrowUp.mouseover" end="arrowUp.mouseout"/>
                  </use>
                  <path fill="none" stroke="white" stroke-width="1.5" d="M0,-3.0v7 M-2.5,-0.5L0,-3.0L2.5,-0.5"/>
                </g>
                <g id="arrowRight" xlink:href="#dirArrow" transform="rotate(90) translate(36 -43)" onmousedown="handlePan(1,0)">
                  <use xlink:href="#rim" fill="#404040">
                        <set attributeName="fill" to="#808080" begin="arrowRight.mouseover" end="arrowRight.mouseout"/>
                  </use>
                  <path fill="none" stroke="white" stroke-width="1.5" d="M0,-3.0v7 M-2.5,-0.5L0,-3.0L2.5,-0.5"/>
                </g>
                <g id="arrowDown" xlink:href="#dirArrow" transform="rotate(180) translate(-30 -48)" onmousedown="handlePan(0,1)">
                  <use xlink:href="#rim" fill="#404040">
                        <set attributeName="fill" to="#808080" begin="arrowDown.mouseover" end="arrowDown.mouseout"/>
                  </use>
                  <path fill="none" stroke="white" stroke-width="1.5" d="M0,-3.0v7 M-2.5,-0.5L0,-3.0L2.5,-0.5"/>
                </g>
                <g id="arrowLeft" xlink:href="#dirArrow" transform="rotate(270) translate(-36 17)" onmousedown="handlePan(-1,0)">
                  <use xlink:href="#rim" fill="#404040">
                        <set attributeName="fill" to="#808080" begin="arrowLeft.mouseover" end="arrowLeft.mouseout"/>
                  </use>
                  <path fill="none" stroke="white" stroke-width="1.5" d="M0,-3.0v7 M-2.5,-0.5L0,-3.0L2.5,-0.5"/>
                </g>
        </g>
        <svg viewBox="0 0 15 15" width="100%" height="30px" preserveAspectRatio="xMaxYMin meet">
         <g id="arrow_out" transform="scale(0.3 0.3)">
          <a xlink:href="classCParser_a967d50b91351cf003898543b6d7af7a7_icgraph_org.svg" target="_base">
           <rect id="button" ry="5" rx="5" y="6" x="6" height="38" width="38"
                fill="#f2f5e9" fill-opacity="0.5" stroke="#606060" stroke-width="1.0"/>
           <path id="arrow"
             d="M 11.500037,31.436501 C 11.940474,20.09759 22.043105,11.32322 32.158766,21.979434 L 37.068811,17.246167 C 37.068811,17.246167 37.088388,32 37.088388,32 L 22.160133,31.978069 C 22.160133,31.978069 26.997745,27.140456 26.997745,27.140456 C 18.528582,18.264221 13.291696,25.230495 11.500037,31.436501 z"
             style="fill:#404040;"/>
          </a>
         </g>
        </svg>
</svg>
