<?xml version="1.0" encoding="UTF-8" standalone="no"?>
<!DOCTYPE svg PUBLIC "-//W3C//DTD SVG 1.1//EN"
 "http://www.w3.org/Graphics/SVG/1.1/DTD/svg11.dtd">
<!-- Generated by graphviz version 2.38.0 (20140413.2041)
 -->
<!-- Title: CParser::constant Pages: 1 -->
<svg width="2930pt" height="271pt"
 viewBox="0.00 0.00 2930.00 271.00" xmlns="http://www.w3.org/2000/svg" xmlns:xlink="http://www.w3.org/1999/xlink">
<g id="graph0" class="graph" transform="scale(1 1) rotate(0) translate(4 267)">
<title>CParser::constant</title>
<polygon fill="white" stroke="none" points="-4,4 -4,-267 2926,-267 2926,4 -4,4"/>
<!-- Node1 -->
<g id="node1" class="node"><title>Node1</title>
<polygon fill="#bfbfbf" stroke="black" points="0,-129.5 0,-148.5 101,-148.5 101,-129.5 0,-129.5"/>
<text text-anchor="middle" x="50.5" y="-136.5" font-family="Helvetica,sans-Serif" font-size="10.00">CParser::constant</text>
</g>
<!-- Node2 -->
<g id="node2" class="node"><title>Node2</title>
<g id="a_node2"><a xlink:href="../../d0/df6/classCParser.html#aa600547e6bdaf5e45d02c89a19c7fa4b" target="_top" xlink:title="CParser::init_expr_item">
<polygon fill="white" stroke="black" points="137,-148.5 137,-167.5 263,-167.5 263,-148.5 137,-148.5"/>
<text text-anchor="middle" x="200" y="-155.5" font-family="Helvetica,sans-Serif" font-size="10.00">CParser::init_expr_item</text>
</a>
</g>
</g>
<!-- Node1&#45;&gt;Node2 -->
<g id="edge1" class="edge"><title>Node1&#45;&gt;Node2</title>
<path fill="none" stroke="midnightblue" d="M111.158,-146.685C119.594,-147.771 128.285,-148.891 136.768,-149.984"/>
<polygon fill="midnightblue" stroke="midnightblue" points="111.391,-143.186 101.026,-145.38 110.497,-150.129 111.391,-143.186"/>
</g>
<!-- Node27 -->
<g id="node27" class="node"><title>Node27</title>
<g id="a_node27"><a xlink:href="../../d0/df6/classCParser.html#a8715e75c1e5fe112f10ccf0986cc2c7d" target="_top" xlink:title="CParser::init_value">
<polygon fill="white" stroke="black" points="148,-110.5 148,-129.5 252,-129.5 252,-110.5 148,-110.5"/>
<text text-anchor="middle" x="200" y="-117.5" font-family="Helvetica,sans-Serif" font-size="10.00">CParser::init_value</text>
</a>
</g>
</g>
<!-- Node1&#45;&gt;Node27 -->
<g id="edge33" class="edge"><title>Node1&#45;&gt;Node27</title>
<path fill="none" stroke="midnightblue" d="M111.099,-131.323C123.277,-129.754 135.99,-128.117 147.842,-126.59"/>
<polygon fill="midnightblue" stroke="midnightblue" points="110.497,-127.871 101.026,-132.62 111.391,-134.814 110.497,-127.871"/>
</g>
<!-- Node3 -->
<g id="node3" class="node"><title>Node3</title>
<g id="a_node3"><a xlink:href="../../d0/df6/classCParser.html#a545c65918de48a33554b6fa86bf7bee4" target="_top" xlink:title="CParser::init_expr">
<polygon fill="white" stroke="black" points="299,-148.5 299,-167.5 400,-167.5 400,-148.5 299,-148.5"/>
<text text-anchor="middle" x="349.5" y="-155.5" font-family="Helvetica,sans-Serif" font-size="10.00">CParser::init_expr</text>
</a>
</g>
</g>
<!-- Node2&#45;&gt;Node3 -->
<g id="edge2" class="edge"><title>Node2&#45;&gt;Node3</title>
<path fill="none" stroke="midnightblue" d="M273.294,-158C281.99,-158 290.714,-158 298.981,-158"/>
<polygon fill="midnightblue" stroke="midnightblue" points="273.126,-154.5 263.126,-158 273.126,-161.5 273.126,-154.5"/>
</g>
<!-- Node4 -->
<g id="node4" class="node"><title>Node4</title>
<g id="a_node4"><a xlink:href="../../d0/df6/classCParser.html#aa7fd7f7807fc630d9020e84dbb3445e0" target="_top" xlink:title="CParser::opt_initializer">
<polygon fill="white" stroke="black" points="436,-148.5 436,-167.5 558,-167.5 558,-148.5 436,-148.5"/>
<text text-anchor="middle" x="497" y="-155.5" font-family="Helvetica,sans-Serif" font-size="10.00">CParser::opt_initializer</text>
</a>
</g>
</g>
<!-- Node3&#45;&gt;Node4 -->
<g id="edge3" class="edge"><title>Node3&#45;&gt;Node4</title>
<path fill="none" stroke="midnightblue" d="M410.345,-158C418.814,-158 427.524,-158 435.996,-158"/>
<polygon fill="midnightblue" stroke="midnightblue" points="410.166,-154.5 400.166,-158 410.166,-161.5 410.166,-154.5"/>
</g>
<!-- Node5 -->
<g id="node5" class="node"><title>Node5</title>
<g id="a_node5"><a xlink:href="../../d0/df6/classCParser.html#a9104801570f44810a98b9f3a5a76c06c" target="_top" xlink:title="CParser::instance_item">
<polygon fill="white" stroke="black" points="594,-148.5 594,-167.5 719,-167.5 719,-148.5 594,-148.5"/>
<text text-anchor="middle" x="656.5" y="-155.5" font-family="Helvetica,sans-Serif" font-size="10.00">CParser::instance_item</text>
</a>
</g>
</g>
<!-- Node4&#45;&gt;Node5 -->
<g id="edge4" class="edge"><title>Node4&#45;&gt;Node5</title>
<path fill="none" stroke="midnightblue" d="M568.639,-158C577.07,-158 585.626,-158 593.916,-158"/>
<polygon fill="midnightblue" stroke="midnightblue" points="568.443,-154.5 558.443,-158 568.443,-161.5 568.443,-154.5"/>
</g>
<!-- Node6 -->
<g id="node6" class="node"><title>Node6</title>
<g id="a_node6"><a xlink:href="../../d0/df6/classCParser.html#a6331346ed010ab6c734d29daeb5d896f" target="_top" xlink:title="CParser::instance_declaration">
<polygon fill="white" stroke="black" points="755,-127.5 755,-146.5 913,-146.5 913,-127.5 755,-127.5"/>
<text text-anchor="middle" x="834" y="-134.5" font-family="Helvetica,sans-Serif" font-size="10.00">CParser::instance_declaration</text>
</a>
</g>
</g>
<!-- Node5&#45;&gt;Node6 -->
<g id="edge5" class="edge"><title>Node5&#45;&gt;Node6</title>
<path fill="none" stroke="midnightblue" d="M729.442,-149.391C737.794,-148.392 746.343,-147.369 754.773,-146.36"/>
<polygon fill="midnightblue" stroke="midnightblue" points="728.888,-145.933 719.375,-150.596 729.72,-152.883 728.888,-145.933"/>
</g>
<!-- Node21 -->
<g id="node21" class="node"><title>Node21</title>
<g id="a_node21"><a xlink:href="../../d0/df6/classCParser.html#a70d42f7013f81c71092f771ff9232941" target="_top" xlink:title="CParser::ctor_init_item">
<polygon fill="white" stroke="black" points="772.5,-170.5 772.5,-189.5 895.5,-189.5 895.5,-170.5 772.5,-170.5"/>
<text text-anchor="middle" x="834" y="-177.5" font-family="Helvetica,sans-Serif" font-size="10.00">CParser::ctor_init_item</text>
</a>
</g>
</g>
<!-- Node5&#45;&gt;Node21 -->
<g id="edge23" class="edge"><title>Node5&#45;&gt;Node21</title>
<path fill="none" stroke="midnightblue" d="M729.58,-167.036C743.763,-168.814 758.51,-170.662 772.275,-172.388"/>
<polygon fill="midnightblue" stroke="midnightblue" points="729.732,-163.527 719.375,-165.756 728.862,-170.473 729.732,-163.527"/>
</g>
<!-- Node7 -->
<g id="node7" class="node"><title>Node7</title>
<g id="a_node7"><a xlink:href="../../d0/df6/classCParser.html#ab3ab57ace628c2476dd8dfe5a96f9a15" target="_top" xlink:title="CParser::definition\l_or_declaration">
<polygon fill="white" stroke="black" points="1821,-122 1821,-152 1924,-152 1924,-122 1821,-122"/>
<text text-anchor="start" x="1829" y="-140" font-family="Helvetica,sans-Serif" font-size="10.00">CParser::definition</text>
<text text-anchor="middle" x="1872.5" y="-129" font-family="Helvetica,sans-Serif" font-size="10.00">_or_declaration</text>
</a>
</g>
</g>
<!-- Node6&#45;&gt;Node7 -->
<g id="edge6" class="edge"><title>Node6&#45;&gt;Node7</title>
<path fill="none" stroke="midnightblue" d="M923.113,-137C986.943,-137 1075.31,-137 1153,-137 1153,-137 1153,-137 1495,-137 1611.68,-137 1748.69,-137 1820.95,-137"/>
<polygon fill="midnightblue" stroke="midnightblue" points="923.085,-133.5 913.085,-137 923.085,-140.5 923.085,-133.5"/>
</g>
<!-- Node20 -->
<g id="node20" class="node"><title>Node20</title>
<g id="a_node20"><a xlink:href="../../d0/df6/classCParser.html#a4e7cf3c3b19f9c664f345a10116c2c2c" target="_top" xlink:title="CParser::knr_param\l_decl_list">
<polygon fill="white" stroke="black" points="949,-78 949,-108 1060,-108 1060,-78 949,-78"/>
<text text-anchor="start" x="957" y="-96" font-family="Helvetica,sans-Serif" font-size="10.00">CParser::knr_param</text>
<text text-anchor="middle" x="1004.5" y="-85" font-family="Helvetica,sans-Serif" font-size="10.00">_decl_list</text>
</a>
</g>
</g>
<!-- Node6&#45;&gt;Node20 -->
<g id="edge22" class="edge"><title>Node6&#45;&gt;Node20</title>
<path fill="none" stroke="midnightblue" d="M881.449,-124.871C902.289,-119.429 927.021,-112.971 948.755,-107.296"/>
<polygon fill="midnightblue" stroke="midnightblue" points="880.353,-121.54 871.562,-127.453 882.122,-128.312 880.353,-121.54"/>
</g>
<!-- Node8 -->
<g id="node8" class="node"><title>Node8</title>
<g id="a_node8"><a xlink:href="../../d0/df6/classCParser.html#a2b78ab2005bef5c43ee2d4689210eab1" target="_top" xlink:title="CParser::link_item">
<polygon fill="white" stroke="black" points="1979.5,-127.5 1979.5,-146.5 2080.5,-146.5 2080.5,-127.5 1979.5,-127.5"/>
<text text-anchor="middle" x="2030" y="-134.5" font-family="Helvetica,sans-Serif" font-size="10.00">CParser::link_item</text>
</a>
</g>
</g>
<!-- Node7&#45;&gt;Node8 -->
<g id="edge7" class="edge"><title>Node7&#45;&gt;Node8</title>
<path fill="none" stroke="midnightblue" d="M1934.52,-137C1949.36,-137 1965.05,-137 1979.29,-137"/>
<polygon fill="midnightblue" stroke="midnightblue" points="1934.42,-133.5 1924.42,-137 1934.42,-140.5 1934.42,-133.5"/>
</g>
<!-- Node14 -->
<g id="node14" class="node"><title>Node14</title>
<g id="a_node14"><a xlink:href="../../d0/df6/classCParser.html#a85eb09132fa5a588749cea062f0d11ea" target="_top" xlink:title="CParser::class_block_item">
<polygon fill="white" stroke="black" points="1960,-61.5 1960,-80.5 2100,-80.5 2100,-61.5 1960,-61.5"/>
<text text-anchor="middle" x="2030" y="-68.5" font-family="Helvetica,sans-Serif" font-size="10.00">CParser::class_block_item</text>
</a>
</g>
</g>
<!-- Node7&#45;&gt;Node14 -->
<g id="edge15" class="edge"><title>Node7&#45;&gt;Node14</title>
<path fill="none" stroke="midnightblue" d="M1918.64,-117.841C1947.46,-105.609 1983.58,-90.2783 2006.48,-80.5578"/>
<polygon fill="midnightblue" stroke="midnightblue" points="1917.01,-114.729 1909.17,-121.858 1919.75,-121.173 1917.01,-114.729"/>
</g>
<!-- Node9 -->
<g id="node9" class="node"><title>Node9</title>
<g id="a_node9"><a xlink:href="../../d0/df6/classCParser.html#a4f02da23566af37123efb3768769c09b" target="_top" xlink:title="CParser::start">
<polygon fill="white" stroke="black" points="2160.5,-127.5 2160.5,-146.5 2241.5,-146.5 2241.5,-127.5 2160.5,-127.5"/>
<text text-anchor="middle" x="2201" y="-134.5" font-family="Helvetica,sans-Serif" font-size="10.00">CParser::start</text>
</a>
</g>
</g>
<!-- Node8&#45;&gt;Node9 -->
<g id="edge8" class="edge"><title>Node8&#45;&gt;Node9</title>
<path fill="none" stroke="midnightblue" d="M2090.85,-137C2113.95,-137 2139.75,-137 2160.46,-137"/>
<polygon fill="midnightblue" stroke="midnightblue" points="2090.79,-133.5 2080.79,-137 2090.79,-140.5 2090.79,-133.5"/>
</g>
<!-- Node12 -->
<g id="node12" class="node"><title>Node12</title>
<g id="a_node12"><a xlink:href="../../d0/df6/classCParser.html#a86906e492ff9c606fb3537078f46f93e" target="_top" xlink:title="CParser::extern_linkage\l_block">
<polygon fill="white" stroke="black" points="2136,-78 2136,-108 2266,-108 2266,-78 2136,-78"/>
<text text-anchor="start" x="2144" y="-96" font-family="Helvetica,sans-Serif" font-size="10.00">CParser::extern_linkage</text>
<text text-anchor="middle" x="2201" y="-85" font-family="Helvetica,sans-Serif" font-size="10.00">_block</text>
</a>
</g>
</g>
<!-- Node8&#45;&gt;Node12 -->
<g id="edge11" class="edge"><title>Node8&#45;&gt;Node12</title>
<path fill="none" stroke="midnightblue" d="M2059.91,-124.24C2080.73,-117.463 2109.65,-109.487 2135.81,-103.139"/>
<polygon fill="midnightblue" stroke="midnightblue" points="2058.74,-120.941 2050.39,-127.459 2060.98,-127.573 2058.74,-120.941"/>
</g>
<!-- Node13 -->
<g id="node13" class="node"><title>Node13</title>
<g id="a_node13"><a xlink:href="../../d0/df6/classCParser.html#a4fad913a0694a5376ad76669d8943122" target="_top" xlink:title="CParser::namespace\l_block">
<polygon fill="white" stroke="black" points="2143.5,-166 2143.5,-196 2258.5,-196 2258.5,-166 2143.5,-166"/>
<text text-anchor="start" x="2151.5" y="-184" font-family="Helvetica,sans-Serif" font-size="10.00">CParser::namespace</text>
<text text-anchor="middle" x="2201" y="-173" font-family="Helvetica,sans-Serif" font-size="10.00">_block</text>
</a>
</g>
</g>
<!-- Node8&#45;&gt;Node13 -->
<g id="edge13" class="edge"><title>Node8&#45;&gt;Node13</title>
<path fill="none" stroke="midnightblue" d="M2090.7,-146.06C2115.17,-151.891 2142.67,-159.331 2163.97,-165.972"/>
<polygon fill="midnightblue" stroke="midnightblue" points="2091.33,-142.61 2080.79,-143.747 2089.74,-149.427 2091.33,-142.61"/>
</g>
<!-- Node10 -->
<g id="node10" class="node"><title>Node10</title>
<g id="a_node10"><a xlink:href="../../db/d4a/classMain.html#a803470658c644fa9512140f9d8398dd5" target="_top" xlink:title="Main::ParseFiles">
<polygon fill="white" stroke="black" points="2312,-127.5 2312,-146.5 2406,-146.5 2406,-127.5 2312,-127.5"/>
<text text-anchor="middle" x="2359" y="-134.5" font-family="Helvetica,sans-Serif" font-size="10.00">Main::ParseFiles</text>
</a>
</g>
</g>
<!-- Node9&#45;&gt;Node10 -->
<g id="edge9" class="edge"><title>Node9&#45;&gt;Node10</title>
<path fill="none" stroke="midnightblue" d="M2251.87,-137C2271.14,-137 2293.05,-137 2311.94,-137"/>
<polygon fill="midnightblue" stroke="midnightblue" points="2251.77,-133.5 2241.77,-137 2251.77,-140.5 2251.77,-133.5"/>
</g>
<!-- Node11 -->
<g id="node11" class="node"><title>Node11</title>
<g id="a_node11"><a xlink:href="../../d6/d93/ccccmain_8cc.html#a3c04138a5bfe5d72780bb7e82a18e627" target="_top" xlink:title="main">
<polygon fill="white" stroke="black" points="2489.5,-127.5 2489.5,-146.5 2528.5,-146.5 2528.5,-127.5 2489.5,-127.5"/>
<text text-anchor="middle" x="2509" y="-134.5" font-family="Helvetica,sans-Serif" font-size="10.00">main</text>
</a>
</g>
</g>
<!-- Node10&#45;&gt;Node11 -->
<g id="edge10" class="edge"><title>Node10&#45;&gt;Node11</title>
<path fill="none" stroke="midnightblue" d="M2416.15,-137C2442.09,-137 2471.14,-137 2489.49,-137"/>
<polygon fill="midnightblue" stroke="midnightblue" points="2416.02,-133.5 2406.02,-137 2416.02,-140.5 2416.02,-133.5"/>
</g>
<!-- Node12&#45;&gt;Node8 -->
<g id="edge12" class="edge"><title>Node12&#45;&gt;Node8</title>
<path fill="none" stroke="midnightblue" d="M2154.22,-110.994C2131.51,-117.757 2104.03,-124.958 2080.79,-130.253"/>
<polygon fill="midnightblue" stroke="midnightblue" points="2155.42,-114.289 2163.97,-108.028 2153.38,-107.592 2155.42,-114.289"/>
</g>
<!-- Node13&#45;&gt;Node8 -->
<g id="edge14" class="edge"><title>Node13&#45;&gt;Node8</title>
<path fill="none" stroke="midnightblue" d="M2133.36,-170.265C2103.55,-162.964 2070.64,-153.687 2050.39,-146.541"/>
<polygon fill="midnightblue" stroke="midnightblue" points="2132.79,-173.726 2143.33,-172.659 2134.42,-166.92 2132.79,-173.726"/>
</g>
<!-- Node15 -->
<g id="node15" class="node"><title>Node15</title>
<g id="a_node15"><a xlink:href="../../d0/df6/classCParser.html#a4b9f00c05d44a13b3c18b28b52f5be9e" target="_top" xlink:title="CParser::class_block\l_item_list">
<polygon fill="white" stroke="black" points="2144,-29 2144,-59 2258,-59 2258,-29 2144,-29"/>
<text text-anchor="start" x="2152" y="-47" font-family="Helvetica,sans-Serif" font-size="10.00">CParser::class_block</text>
<text text-anchor="middle" x="2201" y="-36" font-family="Helvetica,sans-Serif" font-size="10.00">_item_list</text>
</a>
</g>
</g>
<!-- Node14&#45;&gt;Node15 -->
<g id="edge16" class="edge"><title>Node14&#45;&gt;Node15</title>
<path fill="none" stroke="midnightblue" d="M2100.87,-59.8377C2115.17,-57.5534 2130.04,-55.177 2143.79,-52.9809"/>
<polygon fill="midnightblue" stroke="midnightblue" points="2099.91,-56.4469 2090.58,-61.4808 2101.01,-63.3593 2099.91,-56.4469"/>
</g>
<!-- Node16 -->
<g id="node16" class="node"><title>Node16</title>
<g id="a_node16"><a xlink:href="../../d0/df6/classCParser.html#a06c7cac9034f27ad6d998b49a7b574c8" target="_top" xlink:title="CParser::class_block">
<polygon fill="white" stroke="black" points="2302,-34.5 2302,-53.5 2416,-53.5 2416,-34.5 2302,-34.5"/>
<text text-anchor="middle" x="2359" y="-41.5" font-family="Helvetica,sans-Serif" font-size="10.00">CParser::class_block</text>
</a>
</g>
</g>
<!-- Node15&#45;&gt;Node16 -->
<g id="edge17" class="edge"><title>Node15&#45;&gt;Node16</title>
<path fill="none" stroke="midnightblue" d="M2268.4,-44C2279.51,-44 2290.94,-44 2301.76,-44"/>
<polygon fill="midnightblue" stroke="midnightblue" points="2268.32,-40.5001 2258.32,-44 2268.32,-47.5001 2268.32,-40.5001"/>
</g>
<!-- Node17 -->
<g id="node17" class="node"><title>Node17</title>
<g id="a_node17"><a xlink:href="../../d0/df6/classCParser.html#a40fba8426e7ac46e9926515ee81e97f3" target="_top" xlink:title="CParser::class_suffix">
<polygon fill="white" stroke="black" points="2452,-34.5 2452,-53.5 2566,-53.5 2566,-34.5 2452,-34.5"/>
<text text-anchor="middle" x="2509" y="-41.5" font-family="Helvetica,sans-Serif" font-size="10.00">CParser::class_suffix</text>
</a>
</g>
</g>
<!-- Node16&#45;&gt;Node17 -->
<g id="edge18" class="edge"><title>Node16&#45;&gt;Node17</title>
<path fill="none" stroke="midnightblue" d="M2426.56,-44C2434.98,-44 2443.54,-44 2451.78,-44"/>
<polygon fill="midnightblue" stroke="midnightblue" points="2426.37,-40.5001 2416.37,-44 2426.37,-47.5001 2426.37,-40.5001"/>
</g>
<!-- Node18 -->
<g id="node18" class="node"><title>Node18</title>
<g id="a_node18"><a xlink:href="../../d0/df6/classCParser.html#a1ed5fcfb2e97e3551fceabe81989a667" target="_top" xlink:title="CParser::class_declaration\l_or_definition">
<polygon fill="white" stroke="black" points="2602,-29 2602,-59 2745,-59 2745,-29 2602,-29"/>
<text text-anchor="start" x="2610" y="-47" font-family="Helvetica,sans-Serif" font-size="10.00">CParser::class_declaration</text>
<text text-anchor="middle" x="2673.5" y="-36" font-family="Helvetica,sans-Serif" font-size="10.00">_or_definition</text>
</a>
</g>
</g>
<!-- Node17&#45;&gt;Node18 -->
<g id="edge19" class="edge"><title>Node17&#45;&gt;Node18</title>
<path fill="none" stroke="midnightblue" d="M2576.47,-44C2584.86,-44 2593.46,-44 2601.91,-44"/>
<polygon fill="midnightblue" stroke="midnightblue" points="2576.38,-40.5001 2566.38,-44 2576.38,-47.5001 2576.38,-40.5001"/>
</g>
<!-- Node18&#45;&gt;Node7 -->
<g id="edge20" class="edge"><title>Node18&#45;&gt;Node7</title>
<path fill="none" stroke="midnightblue" d="M2595.36,-27.0145C2532.37,-14.6274 2440.87,-0 2360,-0 2200,-0 2200,-0 2200,-0 2090.86,-0 2056.04,-0.153266 1960,-52 1927.76,-69.403 1899.39,-102.417 1884.52,-121.781"/>
<polygon fill="midnightblue" stroke="midnightblue" points="2594.73,-30.4572 2605.22,-28.9808 2596.1,-23.5924 2594.73,-30.4572"/>
</g>
<!-- Node19 -->
<g id="node19" class="node"><title>Node19</title>
<g id="a_node19"><a xlink:href="../../d0/df6/classCParser.html#a12561a45dab96760d7ab45896681dd33" target="_top" xlink:title="CParser::class_or_method\l_declaration_or_definition">
<polygon fill="white" stroke="black" points="2781,-210 2781,-240 2922,-240 2922,-210 2781,-210"/>
<text text-anchor="start" x="2789" y="-228" font-family="Helvetica,sans-Serif" font-size="10.00">CParser::class_or_method</text>
<text text-anchor="middle" x="2851.5" y="-217" font-family="Helvetica,sans-Serif" font-size="10.00">_declaration_or_definition</text>
</a>
</g>
</g>
<!-- Node18&#45;&gt;Node19 -->
<g id="edge21" class="edge"><title>Node18&#45;&gt;Node19</title>
<path fill="none" stroke="midnightblue" d="M2696.4,-66.5199C2732.77,-103.929 2804.71,-177.913 2835.72,-209.795"/>
<polygon fill="midnightblue" stroke="midnightblue" points="2698.68,-63.8501 2689.2,-59.1206 2693.67,-68.73 2698.68,-63.8501"/>
</g>
<!-- Node22 -->
<g id="node22" class="node"><title>Node22</title>
<g id="a_node22"><a xlink:href="../../d0/df6/classCParser.html#a617e49ab4458d5b4adf577a6a0bc05cd" target="_top" xlink:title="CParser::ctor_init\l_item_list">
<polygon fill="white" stroke="black" points="955.5,-171 955.5,-201 1053.5,-201 1053.5,-171 955.5,-171"/>
<text text-anchor="start" x="963.5" y="-189" font-family="Helvetica,sans-Serif" font-size="10.00">CParser::ctor_init</text>
<text text-anchor="middle" x="1004.5" y="-178" font-family="Helvetica,sans-Serif" font-size="10.00">_item_list</text>
</a>
</g>
</g>
<!-- Node21&#45;&gt;Node22 -->
<g id="edge24" class="edge"><title>Node21&#45;&gt;Node22</title>
<path fill="none" stroke="midnightblue" d="M906.081,-182.531C922.727,-183.124 940.075,-183.742 955.44,-184.289"/>
<polygon fill="midnightblue" stroke="midnightblue" points="905.951,-179.024 895.832,-182.166 905.701,-186.02 905.951,-179.024"/>
</g>
<!-- Node23 -->
<g id="node23" class="node"><title>Node23</title>
<g id="a_node23"><a xlink:href="../../d0/df6/classCParser.html#ab6c0eabf2b00874bf8f70b576d96ce52" target="_top" xlink:title="CParser::ctor_init_list">
<polygon fill="white" stroke="black" points="1096,-178.5 1096,-197.5 1212,-197.5 1212,-178.5 1096,-178.5"/>
<text text-anchor="middle" x="1154" y="-185.5" font-family="Helvetica,sans-Serif" font-size="10.00">CParser::ctor_init_list</text>
</a>
</g>
</g>
<!-- Node22&#45;&gt;Node23 -->
<g id="edge25" class="edge"><title>Node22&#45;&gt;Node23</title>
<path fill="none" stroke="midnightblue" d="M1064.09,-186.794C1074.55,-186.936 1085.44,-187.084 1095.87,-187.225"/>
<polygon fill="midnightblue" stroke="midnightblue" points="1063.84,-183.291 1053.8,-186.655 1063.75,-190.29 1063.84,-183.291"/>
</g>
<!-- Node24 -->
<g id="node24" class="node"><title>Node24</title>
<g id="a_node24"><a xlink:href="../../d0/df6/classCParser.html#ad7a6fd3a8b7daa3c26191f4512236a59" target="_top" xlink:title="CParser::method_suffix">
<polygon fill="white" stroke="black" points="1248,-197.5 1248,-216.5 1373,-216.5 1373,-197.5 1248,-197.5"/>
<text text-anchor="middle" x="1310.5" y="-204.5" font-family="Helvetica,sans-Serif" font-size="10.00">CParser::method_suffix</text>
</a>
</g>
</g>
<!-- Node23&#45;&gt;Node24 -->
<g id="edge26" class="edge"><title>Node23&#45;&gt;Node24</title>
<path fill="none" stroke="midnightblue" d="M1222.09,-196.25C1230.69,-197.308 1239.46,-198.387 1247.97,-199.434"/>
<polygon fill="midnightblue" stroke="midnightblue" points="1222.44,-192.768 1212.09,-195.021 1221.59,-199.715 1222.44,-192.768"/>
</g>
<!-- Node25 -->
<g id="node25" class="node"><title>Node25</title>
<g id="a_node25"><a xlink:href="../../d0/df6/classCParser.html#a0dd2a579512bf1a17aaeac5fdec860a7" target="_top" xlink:title="CParser::method_declaration\l_or_definition_with_implicit_type">
<polygon fill="white" stroke="black" points="1409,-201 1409,-231 1579,-231 1579,-201 1409,-201"/>
<text text-anchor="start" x="1417" y="-219" font-family="Helvetica,sans-Serif" font-size="10.00">CParser::method_declaration</text>
<text text-anchor="middle" x="1494" y="-208" font-family="Helvetica,sans-Serif" font-size="10.00">_or_definition_with_implicit_type</text>
</a>
</g>
</g>
<!-- Node24&#45;&gt;Node25 -->
<g id="edge27" class="edge"><title>Node24&#45;&gt;Node25</title>
<path fill="none" stroke="midnightblue" d="M1383.34,-210.562C1391.75,-210.98 1400.4,-211.408 1408.97,-211.833"/>
<polygon fill="midnightblue" stroke="midnightblue" points="1383.36,-207.059 1373.2,-210.06 1383.02,-214.051 1383.36,-207.059"/>
</g>
<!-- Node25&#45;&gt;Node7 -->
<g id="edge28" class="edge"><title>Node25&#45;&gt;Node7</title>
<path fill="none" stroke="midnightblue" d="M1576.5,-198.899C1650.79,-183.31 1758.22,-160.77 1820.85,-147.627"/>
<polygon fill="midnightblue" stroke="midnightblue" points="1575.77,-195.476 1566.7,-200.955 1577.21,-202.327 1575.77,-195.476"/>
</g>
<!-- Node25&#45;&gt;Node19 -->
<g id="edge32" class="edge"><title>Node25&#45;&gt;Node19</title>
<path fill="none" stroke="midnightblue" d="M1561.44,-233.44C1578.77,-237.455 1597.5,-241.327 1615,-244 1728,-261.262 1757.19,-263 1871.5,-263 1871.5,-263 1871.5,-263 2510,-263 2604.28,-263 2712.34,-248.433 2780.98,-237.338"/>
<polygon fill="midnightblue" stroke="midnightblue" points="1561.96,-229.966 1551.42,-231.068 1560.34,-236.777 1561.96,-229.966"/>
</g>
<!-- Node26 -->
<g id="node26" class="node"><title>Node26</title>
<g id="a_node26"><a xlink:href="../../d0/df6/classCParser.html#af0c9d35d4c997c6f34cf4a26563b513c" target="_top" xlink:title="CParser::method_declaration\l_or_definition_with_explicit_type">
<polygon fill="white" stroke="black" points="1615,-204 1615,-234 1785,-234 1785,-204 1615,-204"/>
<text text-anchor="start" x="1623" y="-222" font-family="Helvetica,sans-Serif" font-size="10.00">CParser::method_declaration</text>
<text text-anchor="middle" x="1700" y="-211" font-family="Helvetica,sans-Serif" font-size="10.00">_or_definition_with_explicit_type</text>
</a>
</g>
</g>
<!-- Node25&#45;&gt;Node26 -->
<g id="edge29" class="edge"><title>Node25&#45;&gt;Node26</title>
<path fill="none" stroke="midnightblue" d="M1589.4,-217.388C1597.85,-217.512 1606.36,-217.638 1614.71,-217.76"/>
<polygon fill="midnightblue" stroke="midnightblue" points="1589.2,-213.885 1579.15,-217.238 1589.1,-220.884 1589.2,-213.885"/>
</g>
<!-- Node26&#45;&gt;Node7 -->
<g id="edge30" class="edge"><title>Node26&#45;&gt;Node7</title>
<path fill="none" stroke="midnightblue" d="M1757.83,-200.436C1767.04,-196.936 1776.38,-193.082 1785,-189 1807.65,-178.279 1831.98,-163.31 1849.06,-152.184"/>
<polygon fill="midnightblue" stroke="midnightblue" points="1756.49,-197.202 1748.32,-203.95 1758.91,-203.769 1756.49,-197.202"/>
</g>
<!-- Node26&#45;&gt;Node19 -->
<g id="edge31" class="edge"><title>Node26&#45;&gt;Node19</title>
<path fill="none" stroke="midnightblue" d="M1795.57,-221.645C1861.09,-223.254 1950.34,-225 2029,-225 2029,-225 2029,-225 2510,-225 2603.7,-225 2711.9,-225 2780.72,-225"/>
<polygon fill="midnightblue" stroke="midnightblue" points="1795.34,-218.139 1785.26,-221.389 1795.17,-225.137 1795.34,-218.139"/>
</g>
</g>
</svg>
