<?xml version="1.0" encoding="UTF-8" standalone="no"?>
<!DOCTYPE svg PUBLIC "-//W3C//DTD SVG 1.1//EN"
 "http://www.w3.org/Graphics/SVG/1.1/DTD/svg11.dtd">
<!-- Generated by graphviz version 2.38.0 (20140413.2041)
 -->
<!-- Title: CParser::init_expr_item Pages: 1 -->
<!--zoomable 649 -->
<svg id="main" version="1.1" xmlns="http://www.w3.org/2000/svg" xmlns:xlink="http://www.w3.org/1999/xlink" xml:space="preserve" onload="init(evt)">
<style type="text/css"><![CDATA[
.edge:hover path { stroke: red; }
.edge:hover polygon { stroke: red; fill: red; }
]]></style>
<script type="text/javascript"><![CDATA[
var edges = document.getElementsByTagName('g');
if (edges && edges.length) {
  for (var i=0;i<edges.length;i++) {
    if (edges[i].id.substr(0,4)=='edge') {
      edges[i].setAttribute('class','edge');
    }
  }
}
]]></script>
        <defs>
                <circle id="rim" cx="0" cy="0" r="7"/>
                <circle id="rim2" cx="0" cy="0" r="3.5"/>
                <g id="zoomPlus">
                        <use xlink:href="#rim" fill="#404040">
                                <set attributeName="fill" to="#808080" begin="zoomplus.mouseover" end="zoomplus.mouseout"/>
                        </use>
                        <path d="M-4,0h8M0,-4v8" fill="none" stroke="white" stroke-width="1.5" pointer-events="none"/>
                </g>
                <g id="zoomMin">
                        <use xlink:href="#rim" fill="#404040">
                                <set attributeName="fill" to="#808080" begin="zoomminus.mouseover" end="zoomminus.mouseout"/>
                        </use>
                        <path d="M-4,0h8" fill="none" stroke="white" stroke-width="1.5" pointer-events="none"/>
                </g>
                <g id="dirArrow">
                        <path fill="none" stroke="white" stroke-width="1.5" d="M0,-3.0v7 M-2.5,-0.5L0,-3.0L2.5,-0.5"/>
                </g>
               <g id="resetDef">
                       <use xlink:href="#rim2" fill="#404040">
                               <set attributeName="fill" to="#808080" begin="reset.mouseover" end="reset.mouseout"/>
                       </use>
               </g>
        </defs>

<script type="text/javascript">
var viewWidth = 1491;
var viewHeight = 649;
var sectionId = 'dynsection-98';
</script>
<script xlink:href="../../svgpan.js"/>
<svg id="graph" class="graph">
<g id="viewport">
<title>CParser::init_expr_item</title>
<polygon fill="white" stroke="none" points="-4,4 -4,-644.772 1487,-644.772 1487,4 -4,4"/>
<!-- Node1 -->
<g id="node1" class="node"><title>Node1</title>
<polygon fill="#bfbfbf" stroke="black" points="0,-133.5 0,-152.5 126,-152.5 126,-133.5 0,-133.5"/>
<text text-anchor="middle" x="63" y="-140.5" font-family="Helvetica,sans-Serif" font-size="10.00">CParser::init_expr_item</text>
</g>
<!-- Node2 -->
<g id="node2" class="node"><title>Node2</title>
<g id="a_node2"><a xlink:href="../../d0/df6/classCParser.html#a51affc383cd0859af5d84b628c8a2f5c" target="_top" xlink:title="CParser::paren_block">
<polygon fill="white" stroke="black" points="162,-525.5 162,-544.5 280,-544.5 280,-525.5 162,-525.5"/>
<text text-anchor="middle" x="221" y="-532.5" font-family="Helvetica,sans-Serif" font-size="10.00">CParser::paren_block</text>
</a>
</g>
</g>
<!-- Node1&#45;&gt;Node2 -->
<g id="edge1" class="edge"><title>Node1&#45;&gt;Node2</title>
<path fill="none" stroke="midnightblue" d="M67.8562,-152.69C88.3406,-204.164 184.517,-445.837 212.404,-515.912"/>
<polygon fill="midnightblue" stroke="midnightblue" points="209.189,-517.301 216.139,-525.298 215.693,-514.712 209.189,-517.301"/>
</g>
<!-- Node7 -->
<g id="node7" class="node"><title>Node7</title>
<g id="a_node7"><a xlink:href="../../d0/df6/classCParser.html#a5e1630bd24884bb1cbc5680926dce957" target="_top" xlink:title="CParser::syn">
<polygon fill="white" stroke="black" points="1095,-304.5 1095,-323.5 1172,-323.5 1172,-304.5 1095,-304.5"/>
<text text-anchor="middle" x="1133.5" y="-311.5" font-family="Helvetica,sans-Serif" font-size="10.00">CParser::syn</text>
</a>
</g>
</g>
<!-- Node1&#45;&gt;Node7 -->
<g id="edge41" class="edge"><title>Node1&#45;&gt;Node7</title>
<path fill="none" stroke="midnightblue" d="M126.092,-137.014C189.292,-131.445 290.121,-124 377.5,-124 377.5,-124 377.5,-124 812,-124 922.102,-124 969.442,-78.9543 1059,-143 1109.5,-179.113 1125.6,-257.334 1130.49,-294.12"/>
<polygon fill="midnightblue" stroke="midnightblue" points="1127.02,-294.594 1131.67,-304.113 1133.97,-293.771 1127.02,-294.594"/>
</g>
<!-- Node15 -->
<g id="node15" class="node"><title>Node15</title>
<g id="a_node15"><a xlink:href="../../d0/df6/classCParser.html#a0a168a887a9f004b6635cd3fb47f565e" target="_top" xlink:title="CParser::brace_block">
<polygon fill="white" stroke="black" points="753,-404.5 753,-423.5 869,-423.5 869,-404.5 753,-404.5"/>
<text text-anchor="middle" x="811" y="-411.5" font-family="Helvetica,sans-Serif" font-size="10.00">CParser::brace_block</text>
</a>
</g>
</g>
<!-- Node1&#45;&gt;Node15 -->
<g id="edge30" class="edge"><title>Node1&#45;&gt;Node15</title>
<path fill="none" stroke="midnightblue" d="M70.1881,-152.59C99.1093,-196.119 225.954,-373 377.5,-373 377.5,-373 377.5,-373 529.5,-373 611.044,-373 704.533,-390.174 760.347,-402.292"/>
<polygon fill="midnightblue" stroke="midnightblue" points="759.8,-405.756 770.319,-404.491 761.307,-398.92 759.8,-405.756"/>
</g>
<!-- Node18 -->
<g id="node18" class="node"><title>Node18</title>
<g id="a_node18"><a xlink:href="../../d0/df6/classCParser.html#a24315cc224dff391f5e26575333d5d58" target="_top" xlink:title="CParser::cast_keyword">
<polygon fill="white" stroke="black" points="316,-76.5 316,-95.5 441,-95.5 441,-76.5 316,-76.5"/>
<text text-anchor="middle" x="378.5" y="-83.5" font-family="Helvetica,sans-Serif" font-size="10.00">CParser::cast_keyword</text>
</a>
</g>
</g>
<!-- Node1&#45;&gt;Node18 -->
<g id="edge31" class="edge"><title>Node1&#45;&gt;Node18</title>
<path fill="none" stroke="midnightblue" d="M87.7578,-133.402C107.357,-125.875 136.058,-115.743 162,-110 209.197,-99.5517 263.268,-93.5467 305.441,-90.1562"/>
<polygon fill="midnightblue" stroke="midnightblue" points="305.919,-93.6298 315.619,-89.3699 305.38,-86.6506 305.919,-93.6298"/>
</g>
<!-- Node19 -->
<g id="node19" class="node"><title>Node19</title>
<g id="a_node19"><a xlink:href="../../d0/df6/classCParser.html#a729069b96fa400ec2fd9a34d4016fcdb" target="_top" xlink:title="CParser::angle_block">
<polygon fill="white" stroke="black" points="753,-19.5 753,-38.5 869,-38.5 869,-19.5 753,-19.5"/>
<text text-anchor="middle" x="811" y="-26.5" font-family="Helvetica,sans-Serif" font-size="10.00">CParser::angle_block</text>
</a>
</g>
</g>
<!-- Node1&#45;&gt;Node19 -->
<g id="edge33" class="edge"><title>Node1&#45;&gt;Node19</title>
<path fill="none" stroke="midnightblue" d="M77.9351,-133.455C96.3546,-121.287 130.2,-100.457 162,-89 253.724,-55.9523 280.004,-48 377.5,-48 377.5,-48 377.5,-48 529.5,-48 602.445,-48 685.817,-41.5248 742.582,-36.1346"/>
<polygon fill="midnightblue" stroke="midnightblue" points="743.245,-39.5869 752.863,-35.1425 742.573,-32.6192 743.245,-39.5869"/>
</g>
<!-- Node21 -->
<g id="node21" class="node"><title>Node21</title>
<g id="a_node21"><a xlink:href="../../d0/df6/classCParser.html#af54caee0e45703b090b9734347de7911" target="_top" xlink:title="CParser::constant">
<polygon fill="white" stroke="black" points="616,-152.5 616,-171.5 717,-171.5 717,-152.5 616,-152.5"/>
<text text-anchor="middle" x="666.5" y="-159.5" font-family="Helvetica,sans-Serif" font-size="10.00">CParser::constant</text>
</a>
</g>
</g>
<!-- Node1&#45;&gt;Node21 -->
<g id="edge38" class="edge"><title>Node1&#45;&gt;Node21</title>
<path fill="none" stroke="midnightblue" d="M126.106,-144.962C242.244,-148.63 490.892,-156.485 605.448,-160.103"/>
<polygon fill="midnightblue" stroke="midnightblue" points="605.671,-163.612 615.777,-160.429 605.893,-156.615 605.671,-163.612"/>
</g>
<!-- Node3 -->
<g id="node3" class="node"><title>Node3</title>
<g id="a_node3"><a xlink:href="../../d0/df6/classCParser.html#a967d50b91351cf003898543b6d7af7a7" target="_top" xlink:title="CParser::balanced_list">
<polygon fill="white" stroke="black" points="317.5,-544.5 317.5,-563.5 439.5,-563.5 439.5,-544.5 317.5,-544.5"/>
<text text-anchor="middle" x="378.5" y="-551.5" font-family="Helvetica,sans-Serif" font-size="10.00">CParser::balanced_list</text>
</a>
</g>
</g>
<!-- Node2&#45;&gt;Node3 -->
<g id="edge2" class="edge"><title>Node2&#45;&gt;Node3</title>
<path fill="none" stroke="midnightblue" d="M280.345,-542.129C289.111,-543.2 298.229,-544.314 307.212,-545.412"/>
<polygon fill="midnightblue" stroke="midnightblue" points="306.921,-548.902 317.272,-546.641 307.77,-541.954 306.921,-548.902"/>
</g>
<!-- Node2&#45;&gt;Node7 -->
<g id="edge29" class="edge"><title>Node2&#45;&gt;Node7</title>
<path fill="none" stroke="midnightblue" d="M239.649,-544.632C285.609,-568.784 413.358,-630 527.5,-630 527.5,-630 527.5,-630 812,-630 922.813,-630 976.153,-669.593 1059,-596 1098.89,-560.562 1122.95,-392.065 1130.18,-333.843"/>
<polygon fill="midnightblue" stroke="midnightblue" points="1133.67,-334.089 1131.4,-323.741 1126.72,-333.249 1133.67,-334.089"/>
</g>
<!-- Node4 -->
<g id="node4" class="node"><title>Node4</title>
<g id="a_node4"><a xlink:href="../../d0/df6/classCParser.html#a424ec587e8167b682804c23c4804d895" target="_top" xlink:title="CParser::balanced">
<polygon fill="white" stroke="black" points="477,-468.5 477,-487.5 580,-487.5 580,-468.5 477,-468.5"/>
<text text-anchor="middle" x="528.5" y="-475.5" font-family="Helvetica,sans-Serif" font-size="10.00">CParser::balanced</text>
</a>
</g>
</g>
<!-- Node3&#45;&gt;Node4 -->
<g id="edge3" class="edge"><title>Node3&#45;&gt;Node4</title>
<path fill="none" stroke="midnightblue" d="M398.244,-544.375C423.933,-531.183 470.261,-507.393 499.914,-492.166"/>
<polygon fill="midnightblue" stroke="midnightblue" points="501.611,-495.229 508.908,-487.547 498.413,-489.002 501.611,-495.229"/>
</g>
<!-- Node3&#45;&gt;Node7 -->
<g id="edge28" class="edge"><title>Node3&#45;&gt;Node7</title>
<path fill="none" stroke="midnightblue" d="M423.843,-563.589C479.857,-574.846 579.347,-592 665.5,-592 665.5,-592 665.5,-592 812,-592 922.639,-592 974.608,-632.547 1059,-561 1128.36,-502.198 1133.92,-381.079 1133.26,-333.655"/>
<polygon fill="midnightblue" stroke="midnightblue" points="1136.75,-333.412 1133,-323.504 1129.76,-333.589 1136.75,-333.412"/>
</g>
<!-- Node5 -->
<g id="node5" class="node"><title>Node5</title>
<g id="a_node5"><a xlink:href="../../d0/df6/classCParser.html#a52e049b9361b6e9c7a2c4f6266d98916" target="_top" xlink:title="CParser::scoped">
<polygon fill="white" stroke="black" points="619,-304.5 619,-323.5 714,-323.5 714,-304.5 619,-304.5"/>
<text text-anchor="middle" x="666.5" y="-311.5" font-family="Helvetica,sans-Serif" font-size="10.00">CParser::scoped</text>
</a>
</g>
</g>
<!-- Node4&#45;&gt;Node5 -->
<g id="edge4" class="edge"><title>Node4&#45;&gt;Node5</title>
<path fill="none" stroke="midnightblue" d="M537.6,-468.232C559.952,-441.278 622.719,-365.589 651.165,-331.286"/>
<polygon fill="midnightblue" stroke="midnightblue" points="653.923,-333.443 657.613,-323.511 648.535,-328.975 653.923,-333.443"/>
</g>
<!-- Node4&#45;&gt;Node7 -->
<g id="edge27" class="edge"><title>Node4&#45;&gt;Node7</title>
<path fill="none" stroke="midnightblue" d="M580.221,-482.415C696.99,-491.589 980.789,-507.944 1059,-458 1103.23,-429.758 1122.06,-365.965 1129,-333.61"/>
<polygon fill="midnightblue" stroke="midnightblue" points="1132.47,-334.075 1130.98,-323.586 1125.6,-332.718 1132.47,-334.075"/>
</g>
<!-- Node14 -->
<g id="node14" class="node"><title>Node14</title>
<g id="a_node14"><a xlink:href="../../d0/df6/classCParser.html#a35e24b97e6c8566e503521071040413f" target="_top" xlink:title="CParser::block">
<polygon fill="white" stroke="black" points="624.5,-506.5 624.5,-525.5 708.5,-525.5 708.5,-506.5 624.5,-506.5"/>
<text text-anchor="middle" x="666.5" y="-513.5" font-family="Helvetica,sans-Serif" font-size="10.00">CParser::block</text>
</a>
</g>
</g>
<!-- Node4&#45;&gt;Node14 -->
<g id="edge17" class="edge"><title>Node4&#45;&gt;Node14</title>
<path fill="none" stroke="midnightblue" d="M563.819,-487.589C581.294,-492.472 602.741,-498.464 621.425,-503.685"/>
<polygon fill="midnightblue" stroke="midnightblue" points="620.619,-507.094 631.192,-506.414 622.503,-500.352 620.619,-507.094"/>
</g>
<!-- Node6 -->
<g id="node6" class="node"><title>Node6</title>
<g id="a_node6"><a xlink:href="../../d0/df6/classCParser.html#a2406cf660d9f7e6c3be87b61b2ffba4b" target="_top" xlink:title="CParser::keyword">
<polygon fill="white" stroke="black" points="932,-304.5 932,-323.5 1032,-323.5 1032,-304.5 932,-304.5"/>
<text text-anchor="middle" x="982" y="-311.5" font-family="Helvetica,sans-Serif" font-size="10.00">CParser::keyword</text>
</a>
</g>
</g>
<!-- Node5&#45;&gt;Node6 -->
<g id="edge5" class="edge"><title>Node5&#45;&gt;Node6</title>
<path fill="none" stroke="midnightblue" d="M714.096,-314C769.321,-314 861.432,-314 921.694,-314"/>
<polygon fill="midnightblue" stroke="midnightblue" points="921.82,-317.5 931.82,-314 921.82,-310.5 921.82,-317.5"/>
</g>
<!-- Node5&#45;&gt;Node7 -->
<g id="edge16" class="edge"><title>Node5&#45;&gt;Node7</title>
<path fill="none" stroke="midnightblue" d="M714.109,-306.501C787.686,-295.84 935.128,-279.248 1059,-295 1070.21,-296.426 1082.16,-299.028 1093.09,-301.859"/>
<polygon fill="midnightblue" stroke="midnightblue" points="1092.23,-305.251 1102.8,-304.496 1094.06,-298.496 1092.23,-305.251"/>
</g>
<!-- Node11 -->
<g id="node11" class="node"><title>Node11</title>
<g id="a_node11"><a xlink:href="../../d0/df6/classCParser.html#a177b7d8d53b6d7c2c89bbea896b3d154" target="_top" xlink:title="CParser::op">
<polygon fill="white" stroke="black" points="946,-342.5 946,-361.5 1018,-361.5 1018,-342.5 946,-342.5"/>
<text text-anchor="middle" x="982" y="-349.5" font-family="Helvetica,sans-Serif" font-size="10.00">CParser::op</text>
</a>
</g>
</g>
<!-- Node5&#45;&gt;Node11 -->
<g id="edge10" class="edge"><title>Node5&#45;&gt;Node11</title>
<path fill="none" stroke="midnightblue" d="M714.021,-322.115C726.646,-324.182 740.329,-326.297 753,-328 816.262,-336.502 889.739,-343.77 935.807,-348.014"/>
<polygon fill="midnightblue" stroke="midnightblue" points="935.495,-351.5 945.772,-348.924 936.132,-344.529 935.495,-351.5"/>
</g>
<!-- Node12 -->
<g id="node12" class="node"><title>Node12</title>
<g id="a_node12"><a xlink:href="../../d0/df6/classCParser.html#a6125d39bebbef0edc81fe5f030e76759" target="_top" xlink:title="CParser::literal">
<polygon fill="white" stroke="black" points="768,-209.5 768,-228.5 854,-228.5 854,-209.5 768,-209.5"/>
<text text-anchor="middle" x="811" y="-216.5" font-family="Helvetica,sans-Serif" font-size="10.00">CParser::literal</text>
</a>
</g>
</g>
<!-- Node5&#45;&gt;Node12 -->
<g id="edge12" class="edge"><title>Node5&#45;&gt;Node12</title>
<path fill="none" stroke="midnightblue" d="M681.948,-304.368C706.7,-287.867 757.404,-254.064 787.044,-234.304"/>
<polygon fill="midnightblue" stroke="midnightblue" points="789.135,-237.117 795.514,-228.657 785.252,-231.292 789.135,-237.117"/>
</g>
<!-- Node6&#45;&gt;Node7 -->
<g id="edge6" class="edge"><title>Node6&#45;&gt;Node7</title>
<path fill="none" stroke="midnightblue" d="M1032.37,-314C1049.13,-314 1067.82,-314 1084.48,-314"/>
<polygon fill="midnightblue" stroke="midnightblue" points="1084.55,-317.5 1094.55,-314 1084.55,-310.5 1084.55,-317.5"/>
</g>
<!-- Node8 -->
<g id="node8" class="node"><title>Node8</title>
<g id="a_node8"><a xlink:href="../../da/d6a/classParseUtility.html#aabfa4c56607539ef14be2e2a7260006b" target="_top" xlink:title="ParseUtility::syn">
<polygon fill="white" stroke="black" points="1208,-304.5 1208,-323.5 1299,-323.5 1299,-304.5 1208,-304.5"/>
<text text-anchor="middle" x="1253.5" y="-311.5" font-family="Helvetica,sans-Serif" font-size="10.00">ParseUtility::syn</text>
</a>
</g>
</g>
<!-- Node7&#45;&gt;Node8 -->
<g id="edge7" class="edge"><title>Node7&#45;&gt;Node8</title>
<path fill="none" stroke="midnightblue" d="M1172.16,-314C1180.3,-314 1189.08,-314 1197.73,-314"/>
<polygon fill="midnightblue" stroke="midnightblue" points="1197.78,-317.5 1207.78,-314 1197.78,-310.5 1197.78,-317.5"/>
</g>
<!-- Node9 -->
<g id="node9" class="node"><title>Node9</title>
<g id="a_node9"><a xlink:href="../../d3/d5e/classParseStore.html#ab21a4aeadb4cc4938b58cbefbb8634e8" target="_top" xlink:title="ParseStore::currentInstance">
<polygon fill="white" stroke="black" points="1335,-323.5 1335,-342.5 1483,-342.5 1483,-323.5 1335,-323.5"/>
<text text-anchor="middle" x="1409" y="-330.5" font-family="Helvetica,sans-Serif" font-size="10.00">ParseStore::currentInstance</text>
</a>
</g>
</g>
<!-- Node8&#45;&gt;Node9 -->
<g id="edge8" class="edge"><title>Node8&#45;&gt;Node9</title>
<path fill="none" stroke="midnightblue" d="M1299.31,-319.547C1307.41,-320.549 1316.09,-321.624 1324.88,-322.712"/>
<polygon fill="midnightblue" stroke="midnightblue" points="1324.48,-326.188 1334.83,-323.943 1325.34,-319.241 1324.48,-326.188"/>
</g>
<!-- Node10 -->
<g id="node10" class="node"><title>Node10</title>
<g id="a_node10"><a xlink:href="../../d3/d5e/classParseStore.html#ae7b3d82d22174c1a1165a592d6c1700c" target="_top" xlink:title="ParseStore::filename">
<polygon fill="white" stroke="black" points="1352,-285.5 1352,-304.5 1466,-304.5 1466,-285.5 1352,-285.5"/>
<text text-anchor="middle" x="1409" y="-292.5" font-family="Helvetica,sans-Serif" font-size="10.00">ParseStore::filename</text>
</a>
</g>
</g>
<!-- Node8&#45;&gt;Node10 -->
<g id="edge9" class="edge"><title>Node8&#45;&gt;Node10</title>
<path fill="none" stroke="midnightblue" d="M1299.31,-308.453C1312.56,-306.814 1327.35,-304.983 1341.64,-303.213"/>
<polygon fill="midnightblue" stroke="midnightblue" points="1342.45,-306.641 1351.94,-301.939 1341.59,-299.694 1342.45,-306.641"/>
</g>
<!-- Node11&#45;&gt;Node7 -->
<g id="edge11" class="edge"><title>Node11&#45;&gt;Node7</title>
<path fill="none" stroke="midnightblue" d="M1018.2,-343.261C1031.05,-340.056 1045.69,-336.385 1059,-333 1067.72,-330.782 1077.02,-328.395 1085.97,-326.087"/>
<polygon fill="midnightblue" stroke="midnightblue" points="1087.07,-329.419 1095.88,-323.529 1085.32,-322.641 1087.07,-329.419"/>
</g>
<!-- Node12&#45;&gt;Node7 -->
<g id="edge15" class="edge"><title>Node12&#45;&gt;Node7</title>
<path fill="none" stroke="midnightblue" d="M848.581,-209.448C898.868,-198.365 990.86,-185.566 1059,-219 1091.14,-234.772 1113.23,-272.124 1124.3,-295.012"/>
<polygon fill="midnightblue" stroke="midnightblue" points="1121.24,-296.755 1128.6,-304.381 1127.61,-293.833 1121.24,-296.755"/>
</g>
<!-- Node13 -->
<g id="node13" class="node"><title>Node13</title>
<g id="a_node13"><a xlink:href="../../d0/df6/classCParser.html#a37ac23e2bafc84982f17db1ace720958" target="_top" xlink:title="CParser::string_literal">
<polygon fill="white" stroke="black" points="923,-228.5 923,-247.5 1041,-247.5 1041,-228.5 923,-228.5"/>
<text text-anchor="middle" x="982" y="-235.5" font-family="Helvetica,sans-Serif" font-size="10.00">CParser::string_literal</text>
</a>
</g>
</g>
<!-- Node12&#45;&gt;Node13 -->
<g id="edge13" class="edge"><title>Node12&#45;&gt;Node13</title>
<path fill="none" stroke="midnightblue" d="M854.21,-223.745C871.86,-225.73 892.826,-228.087 912.576,-230.307"/>
<polygon fill="midnightblue" stroke="midnightblue" points="912.441,-233.814 922.77,-231.453 913.223,-226.858 912.441,-233.814"/>
</g>
<!-- Node13&#45;&gt;Node7 -->
<g id="edge14" class="edge"><title>Node13&#45;&gt;Node7</title>
<path fill="none" stroke="midnightblue" d="M1021.4,-247.602C1033.72,-251.343 1047.23,-256.155 1059,-262 1078.71,-271.785 1098.97,-286.534 1113.21,-297.828"/>
<polygon fill="midnightblue" stroke="midnightblue" points="1111.27,-300.761 1121.25,-304.338 1115.68,-295.323 1111.27,-300.761"/>
</g>
<!-- Node14&#45;&gt;Node2 -->
<g id="edge25" class="edge"><title>Node14&#45;&gt;Node2</title>
<path fill="none" stroke="midnightblue" d="M624.436,-517.759C548.186,-521.026 384.014,-528.059 290.631,-532.06"/>
<polygon fill="midnightblue" stroke="midnightblue" points="290.277,-528.572 280.436,-532.497 290.577,-535.565 290.277,-528.572"/>
</g>
<!-- Node14&#45;&gt;Node7 -->
<g id="edge26" class="edge"><title>Node14&#45;&gt;Node7</title>
<path fill="none" stroke="midnightblue" d="M691.226,-525.606C757.241,-550.617 945.648,-610.118 1059,-525 1120.79,-478.601 1130.92,-376.655 1132.38,-333.7"/>
<polygon fill="midnightblue" stroke="midnightblue" points="1135.88,-333.752 1132.59,-323.68 1128.88,-333.603 1135.88,-333.752"/>
</g>
<!-- Node14&#45;&gt;Node15 -->
<g id="edge18" class="edge"><title>Node14&#45;&gt;Node15</title>
<path fill="none" stroke="midnightblue" d="M680.906,-506.404C705.519,-488.786 758.126,-451.131 788.03,-429.726"/>
<polygon fill="midnightblue" stroke="midnightblue" points="790.431,-432.311 796.526,-423.645 786.357,-426.619 790.431,-432.311"/>
</g>
<!-- Node17 -->
<g id="node17" class="node"><title>Node17</title>
<g id="a_node17"><a xlink:href="../../d0/df6/classCParser.html#ac73c93a601c6e7123e0ebbd7be03b60d" target="_top" xlink:title="CParser::brack_block">
<polygon fill="white" stroke="black" points="753,-506.5 753,-525.5 869,-525.5 869,-506.5 753,-506.5"/>
<text text-anchor="middle" x="811" y="-513.5" font-family="Helvetica,sans-Serif" font-size="10.00">CParser::brack_block</text>
</a>
</g>
</g>
<!-- Node14&#45;&gt;Node17 -->
<g id="edge22" class="edge"><title>Node14&#45;&gt;Node17</title>
<path fill="none" stroke="midnightblue" d="M708.717,-516C719.398,-516 731.18,-516 742.818,-516"/>
<polygon fill="midnightblue" stroke="midnightblue" points="742.976,-519.5 752.976,-516 742.976,-512.5 742.976,-519.5"/>
</g>
<!-- Node15&#45;&gt;Node7 -->
<g id="edge21" class="edge"><title>Node15&#45;&gt;Node7</title>
<path fill="none" stroke="midnightblue" d="M869.187,-411.861C920.756,-408.146 997.685,-398.087 1059,-371 1080.73,-361.4 1101.76,-344.008 1115.72,-330.951"/>
<polygon fill="midnightblue" stroke="midnightblue" points="1118.3,-333.318 1123.07,-323.856 1113.44,-328.281 1118.3,-333.318"/>
</g>
<!-- Node16 -->
<g id="node16" class="node"><title>Node16</title>
<g id="a_node16"><a xlink:href="../../d0/df6/classCParser.html#ad3478bb95eecaaa4fb98396fb1b48d82" target="_top" xlink:title="CParser::skip_until\l_matching_rbrace">
<polygon fill="white" stroke="black" points="930,-419 930,-449 1034,-449 1034,-419 930,-419"/>
<text text-anchor="start" x="938" y="-437" font-family="Helvetica,sans-Serif" font-size="10.00">CParser::skip_until</text>
<text text-anchor="middle" x="982" y="-426" font-family="Helvetica,sans-Serif" font-size="10.00">_matching_rbrace</text>
</a>
</g>
</g>
<!-- Node15&#45;&gt;Node16 -->
<g id="edge19" class="edge"><title>Node15&#45;&gt;Node16</title>
<path fill="none" stroke="midnightblue" d="M869.216,-420.771C885.472,-422.695 903.238,-424.797 919.725,-426.748"/>
<polygon fill="midnightblue" stroke="midnightblue" points="919.458,-430.241 929.8,-427.941 920.281,-423.29 919.458,-430.241"/>
</g>
<!-- Node16&#45;&gt;Node7 -->
<g id="edge20" class="edge"><title>Node16&#45;&gt;Node7</title>
<path fill="none" stroke="midnightblue" d="M1031.96,-418.951C1041.4,-414.895 1050.87,-409.941 1059,-404 1086,-384.274 1108.85,-352.363 1121.6,-332.315"/>
<polygon fill="midnightblue" stroke="midnightblue" points="1124.6,-334.125 1126.88,-323.778 1118.64,-330.444 1124.6,-334.125"/>
</g>
<!-- Node17&#45;&gt;Node3 -->
<g id="edge23" class="edge"><title>Node17&#45;&gt;Node3</title>
<path fill="none" stroke="midnightblue" d="M769.931,-525.514C753.602,-529.043 734.487,-532.734 717,-535 625.244,-546.892 518.501,-551.342 450.03,-553.007"/>
<polygon fill="midnightblue" stroke="midnightblue" points="449.712,-549.514 439.795,-553.242 449.872,-556.512 449.712,-549.514"/>
</g>
<!-- Node17&#45;&gt;Node7 -->
<g id="edge24" class="edge"><title>Node17&#45;&gt;Node7</title>
<path fill="none" stroke="midnightblue" d="M865.024,-525.514C919.175,-532.144 1003.02,-533.507 1059,-492 1110.84,-453.561 1126.29,-371.887 1130.76,-334.033"/>
<polygon fill="midnightblue" stroke="midnightblue" points="1134.27,-334.096 1131.82,-323.789 1127.31,-333.375 1134.27,-334.096"/>
</g>
<!-- Node18&#45;&gt;Node7 -->
<g id="edge32" class="edge"><title>Node18&#45;&gt;Node7</title>
<path fill="none" stroke="midnightblue" d="M441.148,-86C499.069,-86 588.166,-86 665.5,-86 665.5,-86 665.5,-86 812,-86 922.295,-86 971.93,-42.2962 1059,-110 1117.67,-155.625 1129.56,-252.216 1131.93,-294.02"/>
<polygon fill="midnightblue" stroke="midnightblue" points="1128.45,-294.433 1132.38,-304.271 1135.44,-294.128 1128.45,-294.433"/>
</g>
<!-- Node19&#45;&gt;Node7 -->
<g id="edge37" class="edge"><title>Node19&#45;&gt;Node7</title>
<path fill="none" stroke="midnightblue" d="M869.214,-32.1217C933.214,-36.7634 1031.53,-47.7053 1059,-72 1125.4,-130.729 1132.78,-247.337 1132.94,-294.007"/>
<polygon fill="midnightblue" stroke="midnightblue" points="1129.43,-294.259 1132.85,-304.288 1136.43,-294.317 1129.43,-294.259"/>
</g>
<!-- Node20 -->
<g id="node20" class="node"><title>Node20</title>
<g id="a_node20"><a xlink:href="../../d0/df6/classCParser.html#aa127d8f0df3a28071ce4fe43684632ef" target="_top" xlink:title="CParser::angle_balanced_list">
<polygon fill="white" stroke="black" points="905,-0.5 905,-19.5 1059,-19.5 1059,-0.5 905,-0.5"/>
<text text-anchor="middle" x="982" y="-7.5" font-family="Helvetica,sans-Serif" font-size="10.00">CParser::angle_balanced_list</text>
</a>
</g>
</g>
<!-- Node19&#45;&gt;Node20 -->
<g id="edge34" class="edge"><title>Node19&#45;&gt;Node20</title>
<path fill="none" stroke="midnightblue" d="M847.017,-19.4705C861.08,-17.1409 877.965,-14.8571 894.935,-12.9269"/>
<polygon fill="midnightblue" stroke="midnightblue" points="895.357,-16.4018 904.916,-11.8337 894.594,-9.44342 895.357,-16.4018"/>
</g>
<!-- Node20&#45;&gt;Node7 -->
<g id="edge36" class="edge"><title>Node20&#45;&gt;Node7</title>
<path fill="none" stroke="midnightblue" d="M1037.21,-19.5894C1045.33,-23.0268 1052.99,-27.6864 1059,-34 1130.05,-108.632 1134.44,-243.321 1133.37,-293.996"/>
<polygon fill="midnightblue" stroke="midnightblue" points="1129.86,-294.136 1133.05,-304.241 1136.86,-294.355 1129.86,-294.136"/>
</g>
<!-- Node20&#45;&gt;Node19 -->
<g id="edge35" class="edge"><title>Node20&#45;&gt;Node19</title>
<path fill="none" stroke="midnightblue" d="M946.022,-19.5232C926.721,-22.7217 902.093,-25.8346 879.228,-28.0649"/>
<polygon fill="midnightblue" stroke="midnightblue" points="878.849,-24.5849 869.216,-28.9945 879.496,-31.5549 878.849,-24.5849"/>
</g>
<!-- Node21&#45;&gt;Node7 -->
<g id="edge40" class="edge"><title>Node21&#45;&gt;Node7</title>
<path fill="none" stroke="midnightblue" d="M717.3,-152.62C796.206,-140.526 951.972,-128.175 1059,-194 1096.48,-217.05 1117.6,-267.057 1126.83,-294.685"/>
<polygon fill="midnightblue" stroke="midnightblue" points="1123.55,-295.904 1129.89,-304.39 1130.22,-293.8 1123.55,-295.904"/>
</g>
<!-- Node21&#45;&gt;Node12 -->
<g id="edge39" class="edge"><title>Node21&#45;&gt;Node12</title>
<path fill="none" stroke="midnightblue" d="M691.351,-171.541C714.676,-180.87 750.404,-195.162 776.561,-205.624"/>
<polygon fill="midnightblue" stroke="midnightblue" points="775.486,-208.964 786.071,-209.428 778.086,-202.465 775.486,-208.964"/>
</g>
</g>
</svg>
        <g id="navigator" transform="translate(0 0)" fill="#404254">
                <rect fill="#f2f5e9" fill-opacity="0.5" stroke="#606060" stroke-width=".5" x="0" y="0" width="60" height="60"/>
                <use id="zoomplus" xlink:href="#zoomPlus" x="17" y="9" onmousedown="handleZoom(evt,'in')"/>
                <use id="zoomminus" xlink:href="#zoomMin" x="42" y="9" onmousedown="handleZoom(evt,'out')"/>
                <use id="reset" xlink:href="#resetDef" x="30" y="36" onmousedown="handleReset()"/>
                <g id="arrowUp" xlink:href="#dirArrow" transform="translate(30 24)" onmousedown="handlePan(0,-1)">
                  <use xlink:href="#rim" fill="#404040">
                        <set attributeName="fill" to="#808080" begin="arrowUp.mouseover" end="arrowUp.mouseout"/>
                  </use>
                  <path fill="none" stroke="white" stroke-width="1.5" d="M0,-3.0v7 M-2.5,-0.5L0,-3.0L2.5,-0.5"/>
                </g>
                <g id="arrowRight" xlink:href="#dirArrow" transform="rotate(90) translate(36 -43)" onmousedown="handlePan(1,0)">
                  <use xlink:href="#rim" fill="#404040">
                        <set attributeName="fill" to="#808080" begin="arrowRight.mouseover" end="arrowRight.mouseout"/>
                  </use>
                  <path fill="none" stroke="white" stroke-width="1.5" d="M0,-3.0v7 M-2.5,-0.5L0,-3.0L2.5,-0.5"/>
                </g>
                <g id="arrowDown" xlink:href="#dirArrow" transform="rotate(180) translate(-30 -48)" onmousedown="handlePan(0,1)">
                  <use xlink:href="#rim" fill="#404040">
                        <set attributeName="fill" to="#808080" begin="arrowDown.mouseover" end="arrowDown.mouseout"/>
                  </use>
                  <path fill="none" stroke="white" stroke-width="1.5" d="M0,-3.0v7 M-2.5,-0.5L0,-3.0L2.5,-0.5"/>
                </g>
                <g id="arrowLeft" xlink:href="#dirArrow" transform="rotate(270) translate(-36 17)" onmousedown="handlePan(-1,0)">
                  <use xlink:href="#rim" fill="#404040">
                        <set attributeName="fill" to="#808080" begin="arrowLeft.mouseover" end="arrowLeft.mouseout"/>
                  </use>
                  <path fill="none" stroke="white" stroke-width="1.5" d="M0,-3.0v7 M-2.5,-0.5L0,-3.0L2.5,-0.5"/>
                </g>
        </g>
        <svg viewBox="0 0 15 15" width="100%" height="30px" preserveAspectRatio="xMaxYMin meet">
         <g id="arrow_out" transform="scale(0.3 0.3)">
          <a xlink:href="classCParser_aa600547e6bdaf5e45d02c89a19c7fa4b_cgraph_org.svg" target="_base">
           <rect id="button" ry="5" rx="5" y="6" x="6" height="38" width="38"
                fill="#f2f5e9" fill-opacity="0.5" stroke="#606060" stroke-width="1.0"/>
           <path id="arrow"
             d="M 11.500037,31.436501 C 11.940474,20.09759 22.043105,11.32322 32.158766,21.979434 L 37.068811,17.246167 C 37.068811,17.246167 37.088388,32 37.088388,32 L 22.160133,31.978069 C 22.160133,31.978069 26.997745,27.140456 26.997745,27.140456 C 18.528582,18.264221 13.291696,25.230495 11.500037,31.436501 z"
             style="fill:#404040;"/>
          </a>
         </g>
        </svg>
</svg>
