<?xml version="1.0" encoding="UTF-8" standalone="no"?>
<!DOCTYPE svg PUBLIC "-//W3C//DTD SVG 1.1//EN"
 "http://www.w3.org/Graphics/SVG/1.1/DTD/svg11.dtd">
<!-- Generated by graphviz version 2.38.0 (20140413.2041)
 -->
<!-- Title: CParser::cast_keyword Pages: 1 -->
<svg width="557pt" height="66pt"
 viewBox="0.00 0.00 557.00 66.00" xmlns="http://www.w3.org/2000/svg" xmlns:xlink="http://www.w3.org/1999/xlink">
<g id="graph0" class="graph" transform="scale(1 1) rotate(0) translate(4 62)">
<title>CParser::cast_keyword</title>
<polygon fill="white" stroke="none" points="-4,4 -4,-62 553,-62 553,4 -4,4"/>
<!-- Node1 -->
<g id="node1" class="node"><title>Node1</title>
<polygon fill="#bfbfbf" stroke="black" points="0,-19.5 0,-38.5 125,-38.5 125,-19.5 0,-19.5"/>
<text text-anchor="middle" x="62.5" y="-26.5" font-family="Helvetica,sans-Serif" font-size="10.00">CParser::cast_keyword</text>
</g>
<!-- Node2 -->
<g id="node2" class="node"><title>Node2</title>
<g id="a_node2"><a xlink:href="../../d0/df6/classCParser.html#a5e1630bd24884bb1cbc5680926dce957" target="_top" xlink:title="CParser::syn">
<polygon fill="white" stroke="black" points="161,-19.5 161,-38.5 238,-38.5 238,-19.5 161,-19.5"/>
<text text-anchor="middle" x="199.5" y="-26.5" font-family="Helvetica,sans-Serif" font-size="10.00">CParser::syn</text>
</a>
</g>
</g>
<!-- Node1&#45;&gt;Node2 -->
<g id="edge1" class="edge"><title>Node1&#45;&gt;Node2</title>
<path fill="none" stroke="midnightblue" d="M125.074,-29C133.68,-29 142.415,-29 150.714,-29"/>
<polygon fill="midnightblue" stroke="midnightblue" points="150.951,-32.5001 160.951,-29 150.951,-25.5001 150.951,-32.5001"/>
</g>
<!-- Node3 -->
<g id="node3" class="node"><title>Node3</title>
<g id="a_node3"><a xlink:href="../../da/d6a/classParseUtility.html#aabfa4c56607539ef14be2e2a7260006b" target="_top" xlink:title="ParseUtility::syn">
<polygon fill="white" stroke="black" points="274,-19.5 274,-38.5 365,-38.5 365,-19.5 274,-19.5"/>
<text text-anchor="middle" x="319.5" y="-26.5" font-family="Helvetica,sans-Serif" font-size="10.00">ParseUtility::syn</text>
</a>
</g>
</g>
<!-- Node2&#45;&gt;Node3 -->
<g id="edge2" class="edge"><title>Node2&#45;&gt;Node3</title>
<path fill="none" stroke="midnightblue" d="M238.16,-29C246.305,-29 255.076,-29 263.726,-29"/>
<polygon fill="midnightblue" stroke="midnightblue" points="263.779,-32.5001 273.779,-29 263.779,-25.5001 263.779,-32.5001"/>
</g>
<!-- Node4 -->
<g id="node4" class="node"><title>Node4</title>
<g id="a_node4"><a xlink:href="../../d3/d5e/classParseStore.html#ab21a4aeadb4cc4938b58cbefbb8634e8" target="_top" xlink:title="ParseStore::currentInstance">
<polygon fill="white" stroke="black" points="401,-38.5 401,-57.5 549,-57.5 549,-38.5 401,-38.5"/>
<text text-anchor="middle" x="475" y="-45.5" font-family="Helvetica,sans-Serif" font-size="10.00">ParseStore::currentInstance</text>
</a>
</g>
</g>
<!-- Node3&#45;&gt;Node4 -->
<g id="edge3" class="edge"><title>Node3&#45;&gt;Node4</title>
<path fill="none" stroke="midnightblue" d="M365.311,-34.5467C373.412,-35.5494 382.091,-36.6237 390.882,-37.7118"/>
<polygon fill="midnightblue" stroke="midnightblue" points="390.476,-41.1882 400.831,-38.9432 391.336,-34.2412 390.476,-41.1882"/>
</g>
<!-- Node5 -->
<g id="node5" class="node"><title>Node5</title>
<g id="a_node5"><a xlink:href="../../d3/d5e/classParseStore.html#ae7b3d82d22174c1a1165a592d6c1700c" target="_top" xlink:title="ParseStore::filename">
<polygon fill="white" stroke="black" points="418,-0.5 418,-19.5 532,-19.5 532,-0.5 418,-0.5"/>
<text text-anchor="middle" x="475" y="-7.5" font-family="Helvetica,sans-Serif" font-size="10.00">ParseStore::filename</text>
</a>
</g>
</g>
<!-- Node3&#45;&gt;Node5 -->
<g id="edge4" class="edge"><title>Node3&#45;&gt;Node5</title>
<path fill="none" stroke="midnightblue" d="M365.311,-23.4533C378.556,-21.8139 393.345,-19.9833 407.644,-18.2135"/>
<polygon fill="midnightblue" stroke="midnightblue" points="408.446,-21.641 417.94,-16.939 407.586,-14.694 408.446,-21.641"/>
</g>
</g>
</svg>
