<?xml version="1.0" encoding="UTF-8" standalone="no"?>
<!DOCTYPE svg PUBLIC "-//W3C//DTD SVG 1.1//EN"
 "http://www.w3.org/Graphics/SVG/1.1/DTD/svg11.dtd">
<!-- Generated by graphviz version 2.38.0 (20140413.2041)
 -->
<!-- Title: CParser::more_param_items Pages: 1 -->
<svg width="2148pt" height="271pt"
 viewBox="0.00 0.00 2148.00 271.00" xmlns="http://www.w3.org/2000/svg" xmlns:xlink="http://www.w3.org/1999/xlink">
<g id="graph0" class="graph" transform="scale(1 1) rotate(0) translate(4 267)">
<title>CParser::more_param_items</title>
<polygon fill="white" stroke="none" points="-4,4 -4,-267 2144,-267 2144,4 -4,4"/>
<!-- Node1 -->
<g id="node1" class="node"><title>Node1</title>
<polygon fill="#bfbfbf" stroke="black" points="0,-139 0,-169 120,-169 120,-139 0,-139"/>
<text text-anchor="start" x="8" y="-157" font-family="Helvetica,sans-Serif" font-size="10.00">CParser::more_param</text>
<text text-anchor="middle" x="60" y="-146" font-family="Helvetica,sans-Serif" font-size="10.00">_items</text>
</g>
<!-- Node2 -->
<g id="node2" class="node"><title>Node2</title>
<g id="a_node2"><a xlink:href="../../d0/df6/classCParser.html#ab9745428cd9f00cf216add3af0dbb2cc" target="_top" xlink:title="CParser::param_list\l_items">
<polygon fill="white" stroke="black" points="156,-139 156,-169 265,-169 265,-139 156,-139"/>
<text text-anchor="start" x="164" y="-157" font-family="Helvetica,sans-Serif" font-size="10.00">CParser::param_list</text>
<text text-anchor="middle" x="210.5" y="-146" font-family="Helvetica,sans-Serif" font-size="10.00">_items</text>
</a>
</g>
</g>
<!-- Node1&#45;&gt;Node2 -->
<g id="edge1" class="edge"><title>Node1&#45;&gt;Node2</title>
<path fill="none" stroke="midnightblue" d="M130.18,-154C138.811,-154 147.534,-154 155.88,-154"/>
<polygon fill="midnightblue" stroke="midnightblue" points="130.118,-150.5 120.118,-154 130.118,-157.5 130.118,-150.5"/>
</g>
<!-- Node3 -->
<g id="node3" class="node"><title>Node3</title>
<g id="a_node3"><a xlink:href="../../d0/df6/classCParser.html#afbe8666c28623fadda88dce63f2d0dd7" target="_top" xlink:title="CParser::param_list">
<polygon fill="white" stroke="black" points="301,-144.5 301,-163.5 410,-163.5 410,-144.5 301,-144.5"/>
<text text-anchor="middle" x="355.5" y="-151.5" font-family="Helvetica,sans-Serif" font-size="10.00">CParser::param_list</text>
</a>
</g>
</g>
<!-- Node2&#45;&gt;Node3 -->
<g id="edge2" class="edge"><title>Node2&#45;&gt;Node3</title>
<path fill="none" stroke="midnightblue" d="M275.324,-154C283.745,-154 292.31,-154 300.545,-154"/>
<polygon fill="midnightblue" stroke="midnightblue" points="275.155,-150.5 265.155,-154 275.155,-157.5 275.155,-150.5"/>
</g>
<!-- Node4 -->
<g id="node4" class="node"><title>Node4</title>
<g id="a_node4"><a xlink:href="../../d0/df6/classCParser.html#ab263641e50f3b30b3ac343dd3a5f7e61" target="_top" xlink:title="CParser::method_signature">
<polygon fill="white" stroke="black" points="446,-144.5 446,-163.5 591,-163.5 591,-144.5 446,-144.5"/>
<text text-anchor="middle" x="518.5" y="-151.5" font-family="Helvetica,sans-Serif" font-size="10.00">CParser::method_signature</text>
</a>
</g>
</g>
<!-- Node3&#45;&gt;Node4 -->
<g id="edge3" class="edge"><title>Node3&#45;&gt;Node4</title>
<path fill="none" stroke="midnightblue" d="M420.205,-154C428.606,-154 437.263,-154 445.786,-154"/>
<polygon fill="midnightblue" stroke="midnightblue" points="420.111,-150.5 410.111,-154 420.111,-157.5 420.111,-150.5"/>
</g>
<!-- Node5 -->
<g id="node5" class="node"><title>Node5</title>
<g id="a_node5"><a xlink:href="../../d0/df6/classCParser.html#a0dd2a579512bf1a17aaeac5fdec860a7" target="_top" xlink:title="CParser::method_declaration\l_or_definition_with_implicit_type">
<polygon fill="white" stroke="black" points="627,-139 627,-169 797,-169 797,-139 627,-139"/>
<text text-anchor="start" x="635" y="-157" font-family="Helvetica,sans-Serif" font-size="10.00">CParser::method_declaration</text>
<text text-anchor="middle" x="712" y="-146" font-family="Helvetica,sans-Serif" font-size="10.00">_or_definition_with_implicit_type</text>
</a>
</g>
</g>
<!-- Node4&#45;&gt;Node5 -->
<g id="edge4" class="edge"><title>Node4&#45;&gt;Node5</title>
<path fill="none" stroke="midnightblue" d="M601.324,-154C609.798,-154 618.421,-154 626.919,-154"/>
<polygon fill="midnightblue" stroke="midnightblue" points="601.08,-150.5 591.08,-154 601.08,-157.5 601.08,-150.5"/>
</g>
<!-- Node6 -->
<g id="node6" class="node"><title>Node6</title>
<g id="a_node6"><a xlink:href="../../d0/df6/classCParser.html#ab3ab57ace628c2476dd8dfe5a96f9a15" target="_top" xlink:title="CParser::definition\l_or_declaration">
<polygon fill="white" stroke="black" points="1039,-117 1039,-147 1142,-147 1142,-117 1039,-117"/>
<text text-anchor="start" x="1047" y="-135" font-family="Helvetica,sans-Serif" font-size="10.00">CParser::definition</text>
<text text-anchor="middle" x="1090.5" y="-124" font-family="Helvetica,sans-Serif" font-size="10.00">_or_declaration</text>
</a>
</g>
</g>
<!-- Node5&#45;&gt;Node6 -->
<g id="edge5" class="edge"><title>Node5&#45;&gt;Node6</title>
<path fill="none" stroke="midnightblue" d="M807.213,-148.495C880.67,-144.203 979.833,-138.408 1038.97,-134.953"/>
<polygon fill="midnightblue" stroke="midnightblue" points="806.804,-145.013 797.025,-149.09 807.213,-152.001 806.804,-145.013"/>
</g>
<!-- Node18 -->
<g id="node18" class="node"><title>Node18</title>
<g id="a_node18"><a xlink:href="../../d0/df6/classCParser.html#a12561a45dab96760d7ab45896681dd33" target="_top" xlink:title="CParser::class_or_method\l_declaration_or_definition">
<polygon fill="white" stroke="black" points="1999,-120 1999,-150 2140,-150 2140,-120 1999,-120"/>
<text text-anchor="start" x="2007" y="-138" font-family="Helvetica,sans-Serif" font-size="10.00">CParser::class_or_method</text>
<text text-anchor="middle" x="2069.5" y="-127" font-family="Helvetica,sans-Serif" font-size="10.00">_declaration_or_definition</text>
</a>
</g>
</g>
<!-- Node5&#45;&gt;Node18 -->
<g id="edge24" class="edge"><title>Node5&#45;&gt;Node18</title>
<path fill="none" stroke="midnightblue" d="M752.78,-173.581C820.294,-204.956 962.376,-263 1089.5,-263 1089.5,-263 1089.5,-263 1728,-263 1854.94,-263 1992.45,-184.092 2045.68,-150.186"/>
<polygon fill="midnightblue" stroke="midnightblue" points="753.91,-170.245 743.371,-169.156 750.931,-176.579 753.91,-170.245"/>
</g>
<!-- Node19 -->
<g id="node19" class="node"><title>Node19</title>
<g id="a_node19"><a xlink:href="../../d0/df6/classCParser.html#af0c9d35d4c997c6f34cf4a26563b513c" target="_top" xlink:title="CParser::method_declaration\l_or_definition_with_explicit_type">
<polygon fill="white" stroke="black" points="833,-95 833,-125 1003,-125 1003,-95 833,-95"/>
<text text-anchor="start" x="841" y="-113" font-family="Helvetica,sans-Serif" font-size="10.00">CParser::method_declaration</text>
<text text-anchor="middle" x="918" y="-102" font-family="Helvetica,sans-Serif" font-size="10.00">_or_definition_with_explicit_type</text>
</a>
</g>
</g>
<!-- Node5&#45;&gt;Node19 -->
<g id="edge21" class="edge"><title>Node5&#45;&gt;Node19</title>
<path fill="none" stroke="midnightblue" d="M792.56,-136.84C810.637,-132.941 829.704,-128.829 847.333,-125.026"/>
<polygon fill="midnightblue" stroke="midnightblue" points="791.672,-133.451 782.635,-138.981 793.148,-140.294 791.672,-133.451"/>
</g>
<!-- Node7 -->
<g id="node7" class="node"><title>Node7</title>
<g id="a_node7"><a xlink:href="../../d0/df6/classCParser.html#a2b78ab2005bef5c43ee2d4689210eab1" target="_top" xlink:title="CParser::link_item">
<polygon fill="white" stroke="black" points="1197.5,-122.5 1197.5,-141.5 1298.5,-141.5 1298.5,-122.5 1197.5,-122.5"/>
<text text-anchor="middle" x="1248" y="-129.5" font-family="Helvetica,sans-Serif" font-size="10.00">CParser::link_item</text>
</a>
</g>
</g>
<!-- Node6&#45;&gt;Node7 -->
<g id="edge6" class="edge"><title>Node6&#45;&gt;Node7</title>
<path fill="none" stroke="midnightblue" d="M1152.52,-132C1167.36,-132 1183.05,-132 1197.29,-132"/>
<polygon fill="midnightblue" stroke="midnightblue" points="1152.42,-128.5 1142.42,-132 1152.42,-135.5 1152.42,-128.5"/>
</g>
<!-- Node13 -->
<g id="node13" class="node"><title>Node13</title>
<g id="a_node13"><a xlink:href="../../d0/df6/classCParser.html#a85eb09132fa5a588749cea062f0d11ea" target="_top" xlink:title="CParser::class_block_item">
<polygon fill="white" stroke="black" points="1178,-59.5 1178,-78.5 1318,-78.5 1318,-59.5 1178,-59.5"/>
<text text-anchor="middle" x="1248" y="-66.5" font-family="Helvetica,sans-Serif" font-size="10.00">CParser::class_block_item</text>
</a>
</g>
</g>
<!-- Node6&#45;&gt;Node13 -->
<g id="edge14" class="edge"><title>Node6&#45;&gt;Node13</title>
<path fill="none" stroke="midnightblue" d="M1138.34,-113.023C1166.3,-101.697 1200.62,-87.7899 1223.12,-78.6761"/>
<polygon fill="midnightblue" stroke="midnightblue" points="1136.7,-109.911 1128.75,-116.91 1139.33,-116.399 1136.7,-109.911"/>
</g>
<!-- Node8 -->
<g id="node8" class="node"><title>Node8</title>
<g id="a_node8"><a xlink:href="../../d0/df6/classCParser.html#a4f02da23566af37123efb3768769c09b" target="_top" xlink:title="CParser::start">
<polygon fill="white" stroke="black" points="1378.5,-78.5 1378.5,-97.5 1459.5,-97.5 1459.5,-78.5 1378.5,-78.5"/>
<text text-anchor="middle" x="1419" y="-85.5" font-family="Helvetica,sans-Serif" font-size="10.00">CParser::start</text>
</a>
</g>
</g>
<!-- Node7&#45;&gt;Node8 -->
<g id="edge7" class="edge"><title>Node7&#45;&gt;Node8</title>
<path fill="none" stroke="midnightblue" d="M1295.69,-119.845C1322.73,-112.805 1356.28,-104.069 1381.4,-97.5287"/>
<polygon fill="midnightblue" stroke="midnightblue" points="1294.47,-116.546 1285.67,-122.453 1296.23,-123.32 1294.47,-116.546"/>
</g>
<!-- Node11 -->
<g id="node11" class="node"><title>Node11</title>
<g id="a_node11"><a xlink:href="../../d0/df6/classCParser.html#a86906e492ff9c606fb3537078f46f93e" target="_top" xlink:title="CParser::extern_linkage\l_block">
<polygon fill="white" stroke="black" points="1354,-166 1354,-196 1484,-196 1484,-166 1354,-166"/>
<text text-anchor="start" x="1362" y="-184" font-family="Helvetica,sans-Serif" font-size="10.00">CParser::extern_linkage</text>
<text text-anchor="middle" x="1419" y="-173" font-family="Helvetica,sans-Serif" font-size="10.00">_block</text>
</a>
</g>
</g>
<!-- Node7&#45;&gt;Node11 -->
<g id="edge10" class="edge"><title>Node7&#45;&gt;Node11</title>
<path fill="none" stroke="midnightblue" d="M1308.47,-142.762C1334.21,-149.653 1363.35,-158.438 1385.1,-165.986"/>
<polygon fill="midnightblue" stroke="midnightblue" points="1309.35,-139.376 1298.79,-140.221 1307.57,-146.147 1309.35,-139.376"/>
</g>
<!-- Node12 -->
<g id="node12" class="node"><title>Node12</title>
<g id="a_node12"><a xlink:href="../../d0/df6/classCParser.html#a4fad913a0694a5376ad76669d8943122" target="_top" xlink:title="CParser::namespace\l_block">
<polygon fill="white" stroke="black" points="1361.5,-117 1361.5,-147 1476.5,-147 1476.5,-117 1361.5,-117"/>
<text text-anchor="start" x="1369.5" y="-135" font-family="Helvetica,sans-Serif" font-size="10.00">CParser::namespace</text>
<text text-anchor="middle" x="1419" y="-124" font-family="Helvetica,sans-Serif" font-size="10.00">_block</text>
</a>
</g>
</g>
<!-- Node7&#45;&gt;Node12 -->
<g id="edge12" class="edge"><title>Node7&#45;&gt;Node12</title>
<path fill="none" stroke="midnightblue" d="M1309.17,-125.505C1326.19,-125.139 1344.65,-125.167 1361.45,-125.589"/>
<polygon fill="midnightblue" stroke="midnightblue" points="1308.69,-122.017 1298.79,-125.784 1308.88,-129.014 1308.69,-122.017"/>
</g>
<!-- Node9 -->
<g id="node9" class="node"><title>Node9</title>
<g id="a_node9"><a xlink:href="../../db/d4a/classMain.html#a803470658c644fa9512140f9d8398dd5" target="_top" xlink:title="Main::ParseFiles">
<polygon fill="white" stroke="black" points="1530,-78.5 1530,-97.5 1624,-97.5 1624,-78.5 1530,-78.5"/>
<text text-anchor="middle" x="1577" y="-85.5" font-family="Helvetica,sans-Serif" font-size="10.00">Main::ParseFiles</text>
</a>
</g>
</g>
<!-- Node8&#45;&gt;Node9 -->
<g id="edge8" class="edge"><title>Node8&#45;&gt;Node9</title>
<path fill="none" stroke="midnightblue" d="M1469.87,-88C1489.14,-88 1511.05,-88 1529.94,-88"/>
<polygon fill="midnightblue" stroke="midnightblue" points="1469.77,-84.5001 1459.77,-88 1469.77,-91.5001 1469.77,-84.5001"/>
</g>
<!-- Node10 -->
<g id="node10" class="node"><title>Node10</title>
<g id="a_node10"><a xlink:href="../../d6/d93/ccccmain_8cc.html#a3c04138a5bfe5d72780bb7e82a18e627" target="_top" xlink:title="main">
<polygon fill="white" stroke="black" points="1707.5,-78.5 1707.5,-97.5 1746.5,-97.5 1746.5,-78.5 1707.5,-78.5"/>
<text text-anchor="middle" x="1727" y="-85.5" font-family="Helvetica,sans-Serif" font-size="10.00">main</text>
</a>
</g>
</g>
<!-- Node9&#45;&gt;Node10 -->
<g id="edge9" class="edge"><title>Node9&#45;&gt;Node10</title>
<path fill="none" stroke="midnightblue" d="M1634.15,-88C1660.09,-88 1689.14,-88 1707.49,-88"/>
<polygon fill="midnightblue" stroke="midnightblue" points="1634.02,-84.5001 1624.02,-88 1634.02,-91.5001 1634.02,-84.5001"/>
</g>
<!-- Node11&#45;&gt;Node7 -->
<g id="edge11" class="edge"><title>Node11&#45;&gt;Node7</title>
<path fill="none" stroke="midnightblue" d="M1343.98,-166.243C1315.59,-158.263 1285.6,-148.789 1267.09,-141.614"/>
<polygon fill="midnightblue" stroke="midnightblue" points="1343.36,-169.703 1353.94,-168.996 1345.23,-162.957 1343.36,-169.703"/>
</g>
<!-- Node12&#45;&gt;Node7 -->
<g id="edge13" class="edge"><title>Node12&#45;&gt;Node7</title>
<path fill="none" stroke="midnightblue" d="M1351.29,-138.615C1333.8,-138.884 1315.23,-138.751 1298.79,-138.216"/>
<polygon fill="midnightblue" stroke="midnightblue" points="1351.52,-142.111 1361.45,-138.411 1351.38,-135.113 1351.52,-142.111"/>
</g>
<!-- Node14 -->
<g id="node14" class="node"><title>Node14</title>
<g id="a_node14"><a xlink:href="../../d0/df6/classCParser.html#a4b9f00c05d44a13b3c18b28b52f5be9e" target="_top" xlink:title="CParser::class_block\l_item_list">
<polygon fill="white" stroke="black" points="1362,-29 1362,-59 1476,-59 1476,-29 1362,-29"/>
<text text-anchor="start" x="1370" y="-47" font-family="Helvetica,sans-Serif" font-size="10.00">CParser::class_block</text>
<text text-anchor="middle" x="1419" y="-36" font-family="Helvetica,sans-Serif" font-size="10.00">_item_list</text>
</a>
</g>
</g>
<!-- Node13&#45;&gt;Node14 -->
<g id="edge15" class="edge"><title>Node13&#45;&gt;Node14</title>
<path fill="none" stroke="midnightblue" d="M1323.58,-57.9674C1336.42,-56.0683 1349.57,-54.1233 1361.82,-52.3112"/>
<polygon fill="midnightblue" stroke="midnightblue" points="1322.75,-54.5515 1313.37,-59.4773 1323.78,-61.4761 1322.75,-54.5515"/>
</g>
<!-- Node15 -->
<g id="node15" class="node"><title>Node15</title>
<g id="a_node15"><a xlink:href="../../d0/df6/classCParser.html#a06c7cac9034f27ad6d998b49a7b574c8" target="_top" xlink:title="CParser::class_block">
<polygon fill="white" stroke="black" points="1520,-35.5 1520,-54.5 1634,-54.5 1634,-35.5 1520,-35.5"/>
<text text-anchor="middle" x="1577" y="-42.5" font-family="Helvetica,sans-Serif" font-size="10.00">CParser::class_block</text>
</a>
</g>
</g>
<!-- Node14&#45;&gt;Node15 -->
<g id="edge16" class="edge"><title>Node14&#45;&gt;Node15</title>
<path fill="none" stroke="midnightblue" d="M1486.4,-44.4257C1497.51,-44.4969 1508.94,-44.5701 1519.76,-44.6395"/>
<polygon fill="midnightblue" stroke="midnightblue" points="1486.34,-40.9253 1476.32,-44.361 1486.3,-47.9252 1486.34,-40.9253"/>
</g>
<!-- Node16 -->
<g id="node16" class="node"><title>Node16</title>
<g id="a_node16"><a xlink:href="../../d0/df6/classCParser.html#a40fba8426e7ac46e9926515ee81e97f3" target="_top" xlink:title="CParser::class_suffix">
<polygon fill="white" stroke="black" points="1670,-38.5 1670,-57.5 1784,-57.5 1784,-38.5 1670,-38.5"/>
<text text-anchor="middle" x="1727" y="-45.5" font-family="Helvetica,sans-Serif" font-size="10.00">CParser::class_suffix</text>
</a>
</g>
</g>
<!-- Node15&#45;&gt;Node16 -->
<g id="edge17" class="edge"><title>Node15&#45;&gt;Node16</title>
<path fill="none" stroke="midnightblue" d="M1644.56,-46.3491C1652.98,-46.5199 1661.54,-46.6934 1669.78,-46.8604"/>
<polygon fill="midnightblue" stroke="midnightblue" points="1644.44,-42.8462 1634.37,-46.1427 1644.3,-49.8448 1644.44,-42.8462"/>
</g>
<!-- Node17 -->
<g id="node17" class="node"><title>Node17</title>
<g id="a_node17"><a xlink:href="../../d0/df6/classCParser.html#a1ed5fcfb2e97e3551fceabe81989a667" target="_top" xlink:title="CParser::class_declaration\l_or_definition">
<polygon fill="white" stroke="black" points="1820,-120 1820,-150 1963,-150 1963,-120 1820,-120"/>
<text text-anchor="start" x="1828" y="-138" font-family="Helvetica,sans-Serif" font-size="10.00">CParser::class_declaration</text>
<text text-anchor="middle" x="1891.5" y="-127" font-family="Helvetica,sans-Serif" font-size="10.00">_or_definition</text>
</a>
</g>
</g>
<!-- Node16&#45;&gt;Node17 -->
<g id="edge18" class="edge"><title>Node16&#45;&gt;Node17</title>
<path fill="none" stroke="midnightblue" d="M1766.07,-61.1248C1772.15,-63.549 1778.31,-66.205 1784,-69 1814.65,-84.0627 1847.76,-105.474 1868.79,-119.781"/>
<polygon fill="midnightblue" stroke="midnightblue" points="1767.25,-57.8271 1756.66,-57.5192 1764.74,-64.3642 1767.25,-57.8271"/>
</g>
<!-- Node17&#45;&gt;Node6 -->
<g id="edge19" class="edge"><title>Node17&#45;&gt;Node6</title>
<path fill="none" stroke="midnightblue" d="M1850.62,-154.304C1792.22,-180.749 1679.35,-225 1578,-225 1418,-225 1418,-225 1418,-225 1305.72,-225 1179.75,-173.502 1122.63,-147.149"/>
<polygon fill="midnightblue" stroke="midnightblue" points="1852.23,-157.417 1859.85,-150.064 1849.3,-151.056 1852.23,-157.417"/>
</g>
<!-- Node17&#45;&gt;Node18 -->
<g id="edge20" class="edge"><title>Node17&#45;&gt;Node18</title>
<path fill="none" stroke="midnightblue" d="M1973.08,-135C1981.66,-135 1990.33,-135 1998.77,-135"/>
<polygon fill="midnightblue" stroke="midnightblue" points="1973.07,-131.5 1963.07,-135 1973.07,-138.5 1973.07,-131.5"/>
</g>
<!-- Node19&#45;&gt;Node6 -->
<g id="edge22" class="edge"><title>Node19&#45;&gt;Node6</title>
<path fill="none" stroke="midnightblue" d="M1013.43,-122.184C1022.07,-123.299 1030.58,-124.397 1038.6,-125.433"/>
<polygon fill="midnightblue" stroke="midnightblue" points="1013.62,-118.68 1003.25,-120.871 1012.72,-125.622 1013.62,-118.68"/>
</g>
<!-- Node19&#45;&gt;Node18 -->
<g id="edge23" class="edge"><title>Node19&#45;&gt;Node18</title>
<path fill="none" stroke="midnightblue" d="M953.61,-90.0908C1012.07,-58.3943 1134.97,-0 1247,-0 1247,-0 1247,-0 1728,-0 1856.77,-0 1994.88,-84.4703 2046.97,-119.776"/>
<polygon fill="midnightblue" stroke="midnightblue" points="951.872,-87.0526 944.793,-94.9356 955.242,-93.1875 951.872,-87.0526"/>
</g>
</g>
</svg>
