<?xml version="1.0" encoding="UTF-8" standalone="no"?>
<!DOCTYPE svg PUBLIC "-//W3C//DTD SVG 1.1//EN"
 "http://www.w3.org/Graphics/SVG/1.1/DTD/svg11.dtd">
<!-- Generated by graphviz version 2.38.0 (20140413.2041)
 -->
<!-- Title: CParser::extern_linkage_block Pages: 1 -->
<svg width="631pt" height="78pt"
 viewBox="0.00 0.00 631.00 77.50" xmlns="http://www.w3.org/2000/svg" xmlns:xlink="http://www.w3.org/1999/xlink">
<g id="graph0" class="graph" transform="scale(1 1) rotate(0) translate(4 73.5)">
<title>CParser::extern_linkage_block</title>
<polygon fill="white" stroke="none" points="-4,4 -4,-73.5 627,-73.5 627,4 -4,4"/>
<!-- Node1 -->
<g id="node1" class="node"><title>Node1</title>
<polygon fill="#bfbfbf" stroke="black" points="0,-0.5 0,-30.5 130,-30.5 130,-0.5 0,-0.5"/>
<text text-anchor="start" x="8" y="-18.5" font-family="Helvetica,sans-Serif" font-size="10.00">CParser::extern_linkage</text>
<text text-anchor="middle" x="65" y="-7.5" font-family="Helvetica,sans-Serif" font-size="10.00">_block</text>
</g>
<!-- Node2 -->
<g id="node2" class="node"><title>Node2</title>
<g id="a_node2"><a xlink:href="../../d0/df6/classCParser.html#a2b78ab2005bef5c43ee2d4689210eab1" target="_top" xlink:title="CParser::link_item">
<polygon fill="white" stroke="black" points="166,-6 166,-25 267,-25 267,-6 166,-6"/>
<text text-anchor="middle" x="216.5" y="-13" font-family="Helvetica,sans-Serif" font-size="10.00">CParser::link_item</text>
</a>
</g>
</g>
<!-- Node1&#45;&gt;Node2 -->
<g id="edge1" class="edge"><title>Node1&#45;&gt;Node2</title>
<path fill="none" stroke="midnightblue" d="M140.343,-8.75009C148.951,-8.74633 157.566,-8.86192 165.732,-9.09685"/>
<polygon fill="midnightblue" stroke="midnightblue" points="140.248,-5.25049 130.269,-8.80933 140.29,-12.2504 140.248,-5.25049"/>
</g>
<!-- Node2&#45;&gt;Node1 -->
<g id="edge5" class="edge"><title>Node2&#45;&gt;Node1</title>
<path fill="none" stroke="midnightblue" d="M155.691,-22.1287C147.33,-22.2661 138.709,-22.2868 130.269,-22.1907"/>
<polygon fill="midnightblue" stroke="midnightblue" points="155.813,-25.6269 165.732,-21.9031 155.656,-18.6287 155.813,-25.6269"/>
</g>
<!-- Node3 -->
<g id="node3" class="node"><title>Node3</title>
<g id="a_node3"><a xlink:href="../../d0/df6/classCParser.html#a4f02da23566af37123efb3768769c09b" target="_top" xlink:title="CParser::start">
<polygon fill="white" stroke="black" points="320,-50 320,-69 401,-69 401,-50 320,-50"/>
<text text-anchor="middle" x="360.5" y="-57" font-family="Helvetica,sans-Serif" font-size="10.00">CParser::start</text>
</a>
</g>
</g>
<!-- Node2&#45;&gt;Node3 -->
<g id="edge2" class="edge"><title>Node2&#45;&gt;Node3</title>
<path fill="none" stroke="midnightblue" d="M257.933,-28.0285C280.44,-35.0027 308.014,-43.5465 328.748,-49.9713"/>
<polygon fill="midnightblue" stroke="midnightblue" points="258.9,-24.664 248.312,-25.0473 256.828,-31.3504 258.9,-24.664"/>
</g>
<!-- Node6 -->
<g id="node6" class="node"><title>Node6</title>
<g id="a_node6"><a xlink:href="../../d0/df6/classCParser.html#a4fad913a0694a5376ad76669d8943122" target="_top" xlink:title="CParser::namespace\l_block">
<polygon fill="white" stroke="black" points="303,-0.5 303,-30.5 418,-30.5 418,-0.5 303,-0.5"/>
<text text-anchor="start" x="311" y="-18.5" font-family="Helvetica,sans-Serif" font-size="10.00">CParser::namespace</text>
<text text-anchor="middle" x="360.5" y="-7.5" font-family="Helvetica,sans-Serif" font-size="10.00">_block</text>
</a>
</g>
</g>
<!-- Node2&#45;&gt;Node6 -->
<g id="edge6" class="edge"><title>Node2&#45;&gt;Node6</title>
<path fill="none" stroke="midnightblue" d="M277.326,-8.82486C285.771,-8.71086 294.433,-8.72706 302.817,-8.87348"/>
<polygon fill="midnightblue" stroke="midnightblue" points="277.093,-5.32874 267.165,-9.0285 277.233,-12.3273 277.093,-5.32874"/>
</g>
<!-- Node4 -->
<g id="node4" class="node"><title>Node4</title>
<g id="a_node4"><a xlink:href="../../db/d4a/classMain.html#a803470658c644fa9512140f9d8398dd5" target="_top" xlink:title="Main::ParseFiles">
<polygon fill="white" stroke="black" points="454,-50 454,-69 548,-69 548,-50 454,-50"/>
<text text-anchor="middle" x="501" y="-57" font-family="Helvetica,sans-Serif" font-size="10.00">Main::ParseFiles</text>
</a>
</g>
</g>
<!-- Node3&#45;&gt;Node4 -->
<g id="edge3" class="edge"><title>Node3&#45;&gt;Node4</title>
<path fill="none" stroke="midnightblue" d="M411.522,-59.5C425.372,-59.5 440.337,-59.5 453.949,-59.5"/>
<polygon fill="midnightblue" stroke="midnightblue" points="411.189,-56.0001 401.189,-59.5 411.189,-63.0001 411.189,-56.0001"/>
</g>
<!-- Node5 -->
<g id="node5" class="node"><title>Node5</title>
<g id="a_node5"><a xlink:href="../../d6/d93/ccccmain_8cc.html#a3c04138a5bfe5d72780bb7e82a18e627" target="_top" xlink:title="main">
<polygon fill="white" stroke="black" points="584,-50 584,-69 623,-69 623,-50 584,-50"/>
<text text-anchor="middle" x="603.5" y="-57" font-family="Helvetica,sans-Serif" font-size="10.00">main</text>
</a>
</g>
</g>
<!-- Node4&#45;&gt;Node5 -->
<g id="edge4" class="edge"><title>Node4&#45;&gt;Node5</title>
<path fill="none" stroke="midnightblue" d="M558.179,-59.5C567.395,-59.5 576.342,-59.5 583.755,-59.5"/>
<polygon fill="midnightblue" stroke="midnightblue" points="558.132,-56.0001 548.132,-59.5 558.132,-63.0001 558.132,-56.0001"/>
</g>
<!-- Node6&#45;&gt;Node2 -->
<g id="edge7" class="edge"><title>Node6&#45;&gt;Node2</title>
<path fill="none" stroke="midnightblue" d="M292.767,-22.2392C284.147,-22.283 275.442,-22.1938 267.165,-21.9715"/>
<polygon fill="midnightblue" stroke="midnightblue" points="292.857,-25.7385 302.817,-22.1265 292.778,-18.7389 292.857,-25.7385"/>
</g>
</g>
</svg>
