<?xml version="1.0" encoding="UTF-8" standalone="no"?>
<!DOCTYPE svg PUBLIC "-//W3C//DTD SVG 1.1//EN"
 "http://www.w3.org/Graphics/SVG/1.1/DTD/svg11.dtd">
<!-- Generated by graphviz version 2.38.0 (20140413.2041)
 -->
<!-- Title: CParser::param_type Pages: 1 -->
<!--zoomable 888 -->
<svg id="main" version="1.1" xmlns="http://www.w3.org/2000/svg" xmlns:xlink="http://www.w3.org/1999/xlink" xml:space="preserve" onload="init(evt)">
<style type="text/css"><![CDATA[
.edge:hover path { stroke: red; }
.edge:hover polygon { stroke: red; fill: red; }
]]></style>
<script type="text/javascript"><![CDATA[
var edges = document.getElementsByTagName('g');
if (edges && edges.length) {
  for (var i=0;i<edges.length;i++) {
    if (edges[i].id.substr(0,4)=='edge') {
      edges[i].setAttribute('class','edge');
    }
  }
}
]]></script>
        <defs>
                <circle id="rim" cx="0" cy="0" r="7"/>
                <circle id="rim2" cx="0" cy="0" r="3.5"/>
                <g id="zoomPlus">
                        <use xlink:href="#rim" fill="#404040">
                                <set attributeName="fill" to="#808080" begin="zoomplus.mouseover" end="zoomplus.mouseout"/>
                        </use>
                        <path d="M-4,0h8M0,-4v8" fill="none" stroke="white" stroke-width="1.5" pointer-events="none"/>
                </g>
                <g id="zoomMin">
                        <use xlink:href="#rim" fill="#404040">
                                <set attributeName="fill" to="#808080" begin="zoomminus.mouseover" end="zoomminus.mouseout"/>
                        </use>
                        <path d="M-4,0h8" fill="none" stroke="white" stroke-width="1.5" pointer-events="none"/>
                </g>
                <g id="dirArrow">
                        <path fill="none" stroke="white" stroke-width="1.5" d="M0,-3.0v7 M-2.5,-0.5L0,-3.0L2.5,-0.5"/>
                </g>
               <g id="resetDef">
                       <use xlink:href="#rim2" fill="#404040">
                               <set attributeName="fill" to="#808080" begin="reset.mouseover" end="reset.mouseout"/>
                       </use>
               </g>
        </defs>

<script type="text/javascript">
var viewWidth = 2044;
var viewHeight = 888;
var sectionId = 'dynsection-161';
</script>
<script xlink:href="../../svgpan.js"/>
<svg id="graph" class="graph">
<g id="viewport">
<title>CParser::param_type</title>
<polygon fill="white" stroke="none" points="-4,4 -4,-884.281 2040,-884.281 2040,4 -4,4"/>
<!-- Node1 -->
<g id="node1" class="node"><title>Node1</title>
<polygon fill="#bfbfbf" stroke="black" points="0,-693.5 0,-712.5 116,-712.5 116,-693.5 0,-693.5"/>
<text text-anchor="middle" x="58" y="-700.5" font-family="Helvetica,sans-Serif" font-size="10.00">CParser::param_type</text>
</g>
<!-- Node2 -->
<g id="node2" class="node"><title>Node2</title>
<g id="a_node2"><a xlink:href="../../d0/df6/classCParser.html#a5426875088dc6d2b5deaef3b61c55135" target="_top" xlink:title="CParser::type">
<polygon fill="white" stroke="black" points="177.5,-693.5 177.5,-712.5 257.5,-712.5 257.5,-693.5 177.5,-693.5"/>
<text text-anchor="middle" x="217.5" y="-700.5" font-family="Helvetica,sans-Serif" font-size="10.00">CParser::type</text>
</a>
</g>
</g>
<!-- Node1&#45;&gt;Node2 -->
<g id="edge1" class="edge"><title>Node1&#45;&gt;Node2</title>
<path fill="none" stroke="midnightblue" d="M116.307,-703C132.901,-703 150.871,-703 166.949,-703"/>
<polygon fill="midnightblue" stroke="midnightblue" points="167.208,-706.5 177.208,-703 167.208,-699.5 167.208,-706.5"/>
</g>
<!-- Node4 -->
<g id="node4" class="node"><title>Node4</title>
<g id="a_node4"><a xlink:href="../../d0/df6/classCParser.html#a2912da073892123622f3c380820f7a12" target="_top" xlink:title="CParser::typeCombine">
<polygon fill="white" stroke="black" points="502,-823.5 502,-842.5 624,-842.5 624,-823.5 502,-823.5"/>
<text text-anchor="middle" x="563" y="-830.5" font-family="Helvetica,sans-Serif" font-size="10.00">CParser::typeCombine</text>
</a>
</g>
</g>
<!-- Node1&#45;&gt;Node4 -->
<g id="edge62" class="edge"><title>Node1&#45;&gt;Node4</title>
<path fill="none" stroke="midnightblue" d="M75.9731,-712.578C116.5,-734.916 222.717,-790.36 319,-814 376.07,-828.012 442.731,-832.413 491.783,-833.507"/>
<polygon fill="midnightblue" stroke="midnightblue" points="491.911,-837.01 501.973,-833.693 492.039,-830.011 491.911,-837.01"/>
</g>
<!-- Node5 -->
<g id="node5" class="node"><title>Node5</title>
<g id="a_node5"><a xlink:href="../../d0/df6/classCParser.html#a5e1630bd24884bb1cbc5680926dce957" target="_top" xlink:title="CParser::syn">
<polygon fill="white" stroke="black" points="1648,-484.5 1648,-503.5 1725,-503.5 1725,-484.5 1648,-484.5"/>
<text text-anchor="middle" x="1686.5" y="-491.5" font-family="Helvetica,sans-Serif" font-size="10.00">CParser::syn</text>
</a>
</g>
</g>
<!-- Node1&#45;&gt;Node5 -->
<g id="edge63" class="edge"><title>Node1&#45;&gt;Node5</title>
<path fill="none" stroke="midnightblue" d="M66.6402,-712.754C81.3112,-730.865 115.247,-769.856 152,-792 247.283,-849.41 278.258,-871 389.5,-871 389.5,-871 389.5,-871 1349.5,-871 1467.72,-871 1526.17,-909.298 1612,-828 1658.26,-784.187 1678.61,-579.096 1683.99,-513.93"/>
<polygon fill="midnightblue" stroke="midnightblue" points="1687.49,-514.016 1684.79,-503.77 1680.51,-513.461 1687.49,-514.016"/>
</g>
<!-- Node29 -->
<g id="node29" class="node"><title>Node29</title>
<g id="a_node29"><a xlink:href="../../d3/d5e/classParseStore.html#aa8ae64513f8e2a44885a25d7b78a73e9" target="_top" xlink:title="ParseStore::record\l_userel_extent">
<polygon fill="white" stroke="black" points="165,-183 165,-213 270,-213 270,-183 165,-183"/>
<text text-anchor="start" x="173" y="-201" font-family="Helvetica,sans-Serif" font-size="10.00">ParseStore::record</text>
<text text-anchor="middle" x="217.5" y="-190" font-family="Helvetica,sans-Serif" font-size="10.00">_userel_extent</text>
</a>
</g>
</g>
<!-- Node1&#45;&gt;Node29 -->
<g id="edge50" class="edge"><title>Node1&#45;&gt;Node29</title>
<path fill="none" stroke="midnightblue" d="M62.0056,-693.363C80.5969,-633.753 180.067,-314.816 208.752,-222.842"/>
<polygon fill="midnightblue" stroke="midnightblue" points="212.109,-223.836 211.745,-213.247 205.426,-221.751 212.109,-223.836"/>
</g>
<!-- Node38 -->
<g id="node38" class="node"><title>Node38</title>
<g id="a_node38"><a xlink:href="../../d3/d5e/classParseStore.html#a0915da8493f5b1f137c9c0112318bd89" target="_top" xlink:title="ParseStore::get_visibility">
<polygon fill="white" stroke="black" points="152,-144.5 152,-163.5 283,-163.5 283,-144.5 152,-144.5"/>
<text text-anchor="middle" x="217.5" y="-151.5" font-family="Helvetica,sans-Serif" font-size="10.00">ParseStore::get_visibility</text>
</a>
</g>
</g>
<!-- Node1&#45;&gt;Node38 -->
<g id="edge61" class="edge"><title>Node1&#45;&gt;Node38</title>
<path fill="none" stroke="midnightblue" d="M59.3452,-693.322C61.8581,-628.229 79.3463,-254.346 152,-173 153.176,-171.683 154.438,-170.456 155.773,-169.311"/>
<polygon fill="midnightblue" stroke="midnightblue" points="157.814,-172.156 164.101,-163.628 153.868,-166.374 157.814,-172.156"/>
</g>
<!-- Node3 -->
<g id="node3" class="node"><title>Node3</title>
<g id="a_node3"><a xlink:href="../../d0/df6/classCParser.html#aeb64a7eb39e1e247d6b06c833355fd1d" target="_top" xlink:title="CParser::cv_qualifier">
<polygon fill="white" stroke="black" points="334,-785.5 334,-804.5 447,-804.5 447,-785.5 334,-785.5"/>
<text text-anchor="middle" x="390.5" y="-792.5" font-family="Helvetica,sans-Serif" font-size="10.00">CParser::cv_qualifier</text>
</a>
</g>
</g>
<!-- Node2&#45;&gt;Node3 -->
<g id="edge2" class="edge"><title>Node2&#45;&gt;Node3</title>
<path fill="none" stroke="midnightblue" d="M235.88,-712.631C255.876,-723.684 289.724,-742.308 319,-758 333.117,-765.567 348.899,-773.864 361.945,-780.68"/>
<polygon fill="midnightblue" stroke="midnightblue" points="360.414,-783.829 370.899,-785.35 363.651,-777.622 360.414,-783.829"/>
</g>
<!-- Node2&#45;&gt;Node5 -->
<g id="edge49" class="edge"><title>Node2&#45;&gt;Node5</title>
<path fill="none" stroke="midnightblue" d="M257.651,-703C321.417,-703 451.674,-703 562,-703 562,-703 562,-703 1349.5,-703 1466.47,-703 1517.97,-753.57 1612,-684 1667.76,-642.748 1681.22,-553.204 1684.47,-513.561"/>
<polygon fill="midnightblue" stroke="midnightblue" points="1687.96,-513.795 1685.15,-503.579 1680.98,-513.317 1687.96,-513.795"/>
</g>
<!-- Node9 -->
<g id="node9" class="node"><title>Node9</title>
<g id="a_node9"><a xlink:href="../../d0/df6/classCParser.html#a03c75fc2be131ba2c0a21fd9687b49ca" target="_top" xlink:title="CParser::type_name">
<polygon fill="white" stroke="black" points="334,-259.5 334,-278.5 447,-278.5 447,-259.5 334,-259.5"/>
<text text-anchor="middle" x="390.5" y="-266.5" font-family="Helvetica,sans-Serif" font-size="10.00">CParser::type_name</text>
</a>
</g>
</g>
<!-- Node2&#45;&gt;Node9 -->
<g id="edge8" class="edge"><title>Node2&#45;&gt;Node9</title>
<path fill="none" stroke="midnightblue" d="M222.393,-693.12C244.284,-637.56 352.126,-363.855 381.883,-288.332"/>
<polygon fill="midnightblue" stroke="midnightblue" points="385.278,-289.263 385.687,-278.676 378.765,-286.697 385.278,-289.263"/>
</g>
<!-- Node27 -->
<g id="node27" class="node"><title>Node27</title>
<g id="a_node27"><a xlink:href="../../d0/df6/classCParser.html#acec16523a6abcc5dcaa503fdfec12d5e" target="_top" xlink:title="CParser::indirection\l_modifiers">
<polygon fill="white" stroke="black" points="1294,-732 1294,-762 1403,-762 1403,-732 1294,-732"/>
<text text-anchor="start" x="1302" y="-750" font-family="Helvetica,sans-Serif" font-size="10.00">CParser::indirection</text>
<text text-anchor="middle" x="1348.5" y="-739" font-family="Helvetica,sans-Serif" font-size="10.00">_modifiers</text>
</a>
</g>
</g>
<!-- Node2&#45;&gt;Node27 -->
<g id="edge45" class="edge"><title>Node2&#45;&gt;Node27</title>
<path fill="none" stroke="midnightblue" d="M257.728,-710.76C321.334,-722.646 451.042,-744 562,-744 562,-744 562,-744 937,-744 1059.68,-744 1202.98,-745.356 1283.7,-746.245"/>
<polygon fill="midnightblue" stroke="midnightblue" points="1283.67,-749.745 1293.71,-746.356 1283.75,-742.745 1283.67,-749.745"/>
</g>
<!-- Node3&#45;&gt;Node4 -->
<g id="edge3" class="edge"><title>Node3&#45;&gt;Node4</title>
<path fill="none" stroke="midnightblue" d="M434.524,-804.589C457.226,-809.649 485.273,-815.9 509.274,-821.249"/>
<polygon fill="midnightblue" stroke="midnightblue" points="508.763,-824.721 519.285,-823.48 510.286,-817.888 508.763,-824.721"/>
</g>
<!-- Node3&#45;&gt;Node5 -->
<g id="edge4" class="edge"><title>Node3&#45;&gt;Node5</title>
<path fill="none" stroke="midnightblue" d="M447.002,-799.154C673.452,-815.574 1519.82,-871.603 1612,-799 1657.62,-763.069 1678.24,-575.396 1683.85,-513.688"/>
<polygon fill="midnightblue" stroke="midnightblue" points="1687.34,-513.964 1684.73,-503.696 1680.37,-513.352 1687.34,-513.964"/>
</g>
<!-- Node6 -->
<g id="node6" class="node"><title>Node6</title>
<g id="a_node6"><a xlink:href="../../da/d6a/classParseUtility.html#aabfa4c56607539ef14be2e2a7260006b" target="_top" xlink:title="ParseUtility::syn">
<polygon fill="white" stroke="black" points="1761,-484.5 1761,-503.5 1852,-503.5 1852,-484.5 1761,-484.5"/>
<text text-anchor="middle" x="1806.5" y="-491.5" font-family="Helvetica,sans-Serif" font-size="10.00">ParseUtility::syn</text>
</a>
</g>
</g>
<!-- Node5&#45;&gt;Node6 -->
<g id="edge5" class="edge"><title>Node5&#45;&gt;Node6</title>
<path fill="none" stroke="midnightblue" d="M1725.16,-494C1733.3,-494 1742.08,-494 1750.73,-494"/>
<polygon fill="midnightblue" stroke="midnightblue" points="1750.78,-497.5 1760.78,-494 1750.78,-490.5 1750.78,-497.5"/>
</g>
<!-- Node7 -->
<g id="node7" class="node"><title>Node7</title>
<g id="a_node7"><a xlink:href="../../d3/d5e/classParseStore.html#ab21a4aeadb4cc4938b58cbefbb8634e8" target="_top" xlink:title="ParseStore::currentInstance">
<polygon fill="white" stroke="black" points="1888,-503.5 1888,-522.5 2036,-522.5 2036,-503.5 1888,-503.5"/>
<text text-anchor="middle" x="1962" y="-510.5" font-family="Helvetica,sans-Serif" font-size="10.00">ParseStore::currentInstance</text>
</a>
</g>
</g>
<!-- Node6&#45;&gt;Node7 -->
<g id="edge6" class="edge"><title>Node6&#45;&gt;Node7</title>
<path fill="none" stroke="midnightblue" d="M1852.31,-499.547C1860.41,-500.549 1869.09,-501.624 1877.88,-502.712"/>
<polygon fill="midnightblue" stroke="midnightblue" points="1877.48,-506.188 1887.83,-503.943 1878.34,-499.241 1877.48,-506.188"/>
</g>
<!-- Node8 -->
<g id="node8" class="node"><title>Node8</title>
<g id="a_node8"><a xlink:href="../../d3/d5e/classParseStore.html#ae7b3d82d22174c1a1165a592d6c1700c" target="_top" xlink:title="ParseStore::filename">
<polygon fill="white" stroke="black" points="1905,-465.5 1905,-484.5 2019,-484.5 2019,-465.5 1905,-465.5"/>
<text text-anchor="middle" x="1962" y="-472.5" font-family="Helvetica,sans-Serif" font-size="10.00">ParseStore::filename</text>
</a>
</g>
</g>
<!-- Node6&#45;&gt;Node8 -->
<g id="edge7" class="edge"><title>Node6&#45;&gt;Node8</title>
<path fill="none" stroke="midnightblue" d="M1852.31,-488.453C1865.56,-486.814 1880.35,-484.983 1894.64,-483.213"/>
<polygon fill="midnightblue" stroke="midnightblue" points="1895.45,-486.641 1904.94,-481.939 1894.59,-479.694 1895.45,-486.641"/>
</g>
<!-- Node9&#45;&gt;Node5 -->
<g id="edge44" class="edge"><title>Node9&#45;&gt;Node5</title>
<path fill="none" stroke="midnightblue" d="M423.899,-259.493C484.506,-242.574 619.405,-209 735.5,-209 735.5,-209 735.5,-209 1349.5,-209 1407.99,-209 1566.77,-190.919 1612,-228 1650.91,-259.9 1675.45,-418.503 1683,-474.435"/>
<polygon fill="midnightblue" stroke="midnightblue" points="1679.55,-475 1684.32,-484.458 1686.49,-474.086 1679.55,-475"/>
</g>
<!-- Node10 -->
<g id="node10" class="node"><title>Node10</title>
<g id="a_node10"><a xlink:href="../../d0/df6/classCParser.html#a10a7b42902ca78cb3c11c04eb3b55d96" target="_top" xlink:title="CParser::builtin_type">
<polygon fill="white" stroke="black" points="1292,-161.5 1292,-180.5 1405,-180.5 1405,-161.5 1292,-161.5"/>
<text text-anchor="middle" x="1348.5" y="-168.5" font-family="Helvetica,sans-Serif" font-size="10.00">CParser::builtin_type</text>
</a>
</g>
</g>
<!-- Node9&#45;&gt;Node10 -->
<g id="edge9" class="edge"><title>Node9&#45;&gt;Node10</title>
<path fill="none" stroke="midnightblue" d="M418.389,-259.477C432.186,-253.858 448.815,-245.899 462,-236 481.392,-221.44 476.44,-206.101 498,-195 592.325,-146.435 629.407,-171 735.5,-171 735.5,-171 735.5,-171 937,-171 1058.65,-171 1200.58,-171 1281.66,-171"/>
<polygon fill="midnightblue" stroke="midnightblue" points="1281.73,-174.5 1291.73,-171 1281.73,-167.5 1281.73,-174.5"/>
</g>
<!-- Node12 -->
<g id="node12" class="node"><title>Node12</title>
<g id="a_node12"><a xlink:href="../../d0/df6/classCParser.html#ab3ce487b55d4cee3cdcb791d4f7c33b0" target="_top" xlink:title="CParser::user_type">
<polygon fill="white" stroke="black" points="509.5,-275.5 509.5,-294.5 616.5,-294.5 616.5,-275.5 509.5,-275.5"/>
<text text-anchor="middle" x="563" y="-282.5" font-family="Helvetica,sans-Serif" font-size="10.00">CParser::user_type</text>
</a>
</g>
</g>
<!-- Node9&#45;&gt;Node12 -->
<g id="edge13" class="edge"><title>Node9&#45;&gt;Node12</title>
<path fill="none" stroke="midnightblue" d="M447.328,-274.239C463.816,-275.786 481.977,-277.49 498.889,-279.078"/>
<polygon fill="midnightblue" stroke="midnightblue" points="498.948,-282.598 509.231,-280.048 499.602,-275.629 498.948,-282.598"/>
</g>
<!-- Node10&#45;&gt;Node5 -->
<g id="edge12" class="edge"><title>Node10&#45;&gt;Node5</title>
<path fill="none" stroke="midnightblue" d="M1369.32,-161.399C1417.07,-139.811 1539.85,-93.7086 1612,-152 1662.91,-193.13 1680.19,-407.423 1684.39,-474.146"/>
<polygon fill="midnightblue" stroke="midnightblue" points="1680.9,-474.409 1684.99,-484.183 1687.88,-473.991 1680.9,-474.409"/>
</g>
<!-- Node11 -->
<g id="node11" class="node"><title>Node11</title>
<g id="a_node11"><a xlink:href="../../d0/df6/classCParser.html#a2892a3b78b33e67d6b648ed24668fed0" target="_top" xlink:title="CParser::type_keyword">
<polygon fill="white" stroke="black" points="1472,-161.5 1472,-180.5 1598,-180.5 1598,-161.5 1472,-161.5"/>
<text text-anchor="middle" x="1535" y="-168.5" font-family="Helvetica,sans-Serif" font-size="10.00">CParser::type_keyword</text>
</a>
</g>
</g>
<!-- Node10&#45;&gt;Node11 -->
<g id="edge10" class="edge"><title>Node10&#45;&gt;Node11</title>
<path fill="none" stroke="midnightblue" d="M1405.11,-171C1422.91,-171 1442.9,-171 1461.72,-171"/>
<polygon fill="midnightblue" stroke="midnightblue" points="1461.73,-174.5 1471.73,-171 1461.73,-167.5 1461.73,-174.5"/>
</g>
<!-- Node11&#45;&gt;Node5 -->
<g id="edge11" class="edge"><title>Node11&#45;&gt;Node5</title>
<path fill="none" stroke="midnightblue" d="M1590.29,-180.509C1598.41,-183.956 1606.04,-188.64 1612,-195 1650.8,-236.406 1675.8,-414.795 1683.2,-474.47"/>
<polygon fill="midnightblue" stroke="midnightblue" points="1679.73,-474.953 1684.41,-484.46 1686.68,-474.111 1679.73,-474.953"/>
</g>
<!-- Node12&#45;&gt;Node5 -->
<g id="edge43" class="edge"><title>Node12&#45;&gt;Node5</title>
<path fill="none" stroke="midnightblue" d="M616.662,-276.187C688.423,-264.961 821.046,-247 935,-247 935,-247 935,-247 1349.5,-247 1466.69,-247 1520.36,-198.947 1612,-272 1675.67,-322.752 1684.69,-430.223 1685.61,-474.405"/>
<polygon fill="midnightblue" stroke="midnightblue" points="1682.11,-474.455 1685.7,-484.425 1689.11,-474.394 1682.11,-474.455"/>
</g>
<!-- Node13 -->
<g id="node13" class="node"><title>Node13</title>
<g id="a_node13"><a xlink:href="../../d0/df6/classCParser.html#a631e11d228a64f7cd7eaa437a58d2bca" target="_top" xlink:title="CParser::class_key">
<polygon fill="white" stroke="black" points="1097.5,-275.5 1097.5,-294.5 1204.5,-294.5 1204.5,-275.5 1097.5,-275.5"/>
<text text-anchor="middle" x="1151" y="-282.5" font-family="Helvetica,sans-Serif" font-size="10.00">CParser::class_key</text>
</a>
</g>
</g>
<!-- Node12&#45;&gt;Node13 -->
<g id="edge14" class="edge"><title>Node12&#45;&gt;Node13</title>
<path fill="none" stroke="midnightblue" d="M616.519,-285C724.507,-285 971.051,-285 1087.23,-285"/>
<polygon fill="midnightblue" stroke="midnightblue" points="1087.39,-288.5 1097.39,-285 1087.39,-281.5 1087.39,-288.5"/>
</g>
<!-- Node15 -->
<g id="node15" class="node"><title>Node15</title>
<g id="a_node15"><a xlink:href="../../d0/df6/classCParser.html#ac121563570276b8286f8351a4f69e56e" target="_top" xlink:title="CParser::scoped_identifier">
<polygon fill="white" stroke="black" points="666,-370.5 666,-389.5 807,-389.5 807,-370.5 666,-370.5"/>
<text text-anchor="middle" x="736.5" y="-377.5" font-family="Helvetica,sans-Serif" font-size="10.00">CParser::scoped_identifier</text>
</a>
</g>
</g>
<!-- Node12&#45;&gt;Node15 -->
<g id="edge17" class="edge"><title>Node12&#45;&gt;Node15</title>
<path fill="none" stroke="midnightblue" d="M580.548,-294.631C600.311,-306.088 634.416,-325.712 664,-342 678.467,-349.965 694.715,-358.623 708.061,-365.66"/>
<polygon fill="midnightblue" stroke="midnightblue" points="706.72,-368.909 717.2,-370.464 709.977,-362.713 706.72,-368.909"/>
</g>
<!-- Node25 -->
<g id="node25" class="node"><title>Node25</title>
<g id="a_node25"><a xlink:href="../../da/d6a/classParseUtility.html#a128c7755b687730e50a5c063261f6c78" target="_top" xlink:title="ParseUtility::scopeCombine">
<polygon fill="white" stroke="black" points="664.5,-313.5 664.5,-332.5 808.5,-332.5 808.5,-313.5 664.5,-313.5"/>
<text text-anchor="middle" x="736.5" y="-320.5" font-family="Helvetica,sans-Serif" font-size="10.00">ParseUtility::scopeCombine</text>
</a>
</g>
</g>
<!-- Node12&#45;&gt;Node25 -->
<g id="edge41" class="edge"><title>Node12&#45;&gt;Node25</title>
<path fill="none" stroke="midnightblue" d="M607.277,-294.589C630.112,-299.649 658.323,-305.9 682.465,-311.249"/>
<polygon fill="midnightblue" stroke="midnightblue" points="682.014,-314.734 692.535,-313.48 683.528,-307.899 682.014,-314.734"/>
</g>
<!-- Node13&#45;&gt;Node5 -->
<g id="edge16" class="edge"><title>Node13&#45;&gt;Node5</title>
<path fill="none" stroke="midnightblue" d="M1204.65,-280.864C1311.3,-273.568 1548.16,-263.196 1612,-309 1666.69,-348.242 1680.71,-434.861 1684.28,-474.049"/>
<polygon fill="midnightblue" stroke="midnightblue" points="1680.81,-474.476 1685.07,-484.177 1687.79,-473.937 1680.81,-474.476"/>
</g>
<!-- Node14 -->
<g id="node14" class="node"><title>Node14</title>
<g id="a_node14"><a xlink:href="../../d3/d5e/classParseStore.html#a238b27bbf877e69812ecc620fbc18d5f" target="_top" xlink:title="ParseStore::set_flag">
<polygon fill="white" stroke="black" points="1292.5,-351.5 1292.5,-370.5 1404.5,-370.5 1404.5,-351.5 1292.5,-351.5"/>
<text text-anchor="middle" x="1348.5" y="-358.5" font-family="Helvetica,sans-Serif" font-size="10.00">ParseStore::set_flag</text>
</a>
</g>
</g>
<!-- Node13&#45;&gt;Node14 -->
<g id="edge15" class="edge"><title>Node13&#45;&gt;Node14</title>
<path fill="none" stroke="midnightblue" d="M1176.76,-294.625C1211.43,-308.102 1274.55,-332.642 1313.57,-347.811"/>
<polygon fill="midnightblue" stroke="midnightblue" points="1312.35,-351.092 1322.94,-351.453 1314.89,-344.567 1312.35,-351.092"/>
</g>
<!-- Node15&#45;&gt;Node5 -->
<g id="edge40" class="edge"><title>Node15&#45;&gt;Node5</title>
<path fill="none" stroke="midnightblue" d="M794.471,-370.447C912.086,-352.131 1190.16,-316.094 1422,-342 1508.04,-351.615 1540.54,-336.11 1612,-385 1644.96,-407.554 1667.21,-450.208 1677.98,-474.942"/>
<polygon fill="midnightblue" stroke="midnightblue" points="1674.82,-476.45 1681.9,-484.335 1681.28,-473.758 1674.82,-476.45"/>
</g>
<!-- Node16 -->
<g id="node16" class="node"><title>Node16</title>
<g id="a_node16"><a xlink:href="../../d0/df6/classCParser.html#a8b303b41d0199334a5987bb471063729" target="_top" xlink:title="CParser::explicit_scope_spec">
<polygon fill="white" stroke="black" points="1073.5,-389.5 1073.5,-408.5 1228.5,-408.5 1228.5,-389.5 1073.5,-389.5"/>
<text text-anchor="middle" x="1151" y="-396.5" font-family="Helvetica,sans-Serif" font-size="10.00">CParser::explicit_scope_spec</text>
</a>
</g>
</g>
<!-- Node15&#45;&gt;Node16 -->
<g id="edge18" class="edge"><title>Node15&#45;&gt;Node16</title>
<path fill="none" stroke="midnightblue" d="M807.009,-383.202C877.546,-386.451 986.919,-391.488 1063.13,-394.999"/>
<polygon fill="midnightblue" stroke="midnightblue" points="1063.04,-398.498 1073.19,-395.462 1063.36,-391.505 1063.04,-398.498"/>
</g>
<!-- Node19 -->
<g id="node19" class="node"><title>Node19</title>
<g id="a_node19"><a xlink:href="../../d0/df6/classCParser.html#aea0a3166305befe762f047b6e4a6f90f" target="_top" xlink:title="CParser::unscoped_member_name">
<polygon fill="white" stroke="black" points="845,-465.5 845,-484.5 1027,-484.5 1027,-465.5 845,-465.5"/>
<text text-anchor="middle" x="936" y="-472.5" font-family="Helvetica,sans-Serif" font-size="10.00">CParser::unscoped_member_name</text>
</a>
</g>
</g>
<!-- Node15&#45;&gt;Node19 -->
<g id="edge26" class="edge"><title>Node15&#45;&gt;Node19</title>
<path fill="none" stroke="midnightblue" d="M757.524,-389.632C792.659,-406.532 865.526,-441.582 906.113,-461.105"/>
<polygon fill="midnightblue" stroke="midnightblue" points="904.688,-464.303 915.216,-465.484 907.722,-457.995 904.688,-464.303"/>
</g>
<!-- Node16&#45;&gt;Node5 -->
<g id="edge25" class="edge"><title>Node16&#45;&gt;Node5</title>
<path fill="none" stroke="midnightblue" d="M1228.55,-393.965C1341.37,-387.75 1546.04,-381.42 1612,-412 1640.77,-425.337 1663.11,-455.813 1675.28,-475.621"/>
<polygon fill="midnightblue" stroke="midnightblue" points="1672.33,-477.518 1680.42,-484.366 1678.37,-473.971 1672.33,-477.518"/>
</g>
<!-- Node16&#45;&gt;Node14 -->
<g id="edge24" class="edge"><title>Node16&#45;&gt;Node14</title>
<path fill="none" stroke="midnightblue" d="M1201.08,-389.46C1227.57,-384.31 1260.47,-377.916 1288.37,-372.494"/>
<polygon fill="midnightblue" stroke="midnightblue" points="1289.25,-375.888 1298.4,-370.544 1287.92,-369.016 1289.25,-375.888"/>
</g>
<!-- Node17 -->
<g id="node17" class="node"><title>Node17</title>
<g id="a_node17"><a xlink:href="../../d0/df6/classCParser.html#a729069b96fa400ec2fd9a34d4016fcdb" target="_top" xlink:title="CParser::angle_block">
<polygon fill="white" stroke="black" points="1290.5,-465.5 1290.5,-484.5 1406.5,-484.5 1406.5,-465.5 1290.5,-465.5"/>
<text text-anchor="middle" x="1348.5" y="-472.5" font-family="Helvetica,sans-Serif" font-size="10.00">CParser::angle_block</text>
</a>
</g>
</g>
<!-- Node16&#45;&gt;Node17 -->
<g id="edge19" class="edge"><title>Node16&#45;&gt;Node17</title>
<path fill="none" stroke="midnightblue" d="M1206.48,-408.54C1217.4,-411.108 1228.69,-414.243 1239,-418 1269.48,-429.103 1302.13,-447.195 1323.56,-460.015"/>
<polygon fill="midnightblue" stroke="midnightblue" points="1321.93,-463.119 1332.29,-465.32 1325.57,-457.137 1321.93,-463.119"/>
</g>
<!-- Node17&#45;&gt;Node5 -->
<g id="edge23" class="edge"><title>Node17&#45;&gt;Node5</title>
<path fill="none" stroke="midnightblue" d="M1385.75,-465.43C1436.93,-453.473 1532.97,-436.779 1612,-456 1630.43,-460.483 1649.41,-470.455 1663.46,-479.058"/>
<polygon fill="midnightblue" stroke="midnightblue" points="1661.61,-482.03 1671.93,-484.443 1665.37,-476.124 1661.61,-482.03"/>
</g>
<!-- Node18 -->
<g id="node18" class="node"><title>Node18</title>
<g id="a_node18"><a xlink:href="../../d0/df6/classCParser.html#aa127d8f0df3a28071ce4fe43684632ef" target="_top" xlink:title="CParser::angle_balanced_list">
<polygon fill="white" stroke="black" points="1458,-465.5 1458,-484.5 1612,-484.5 1612,-465.5 1458,-465.5"/>
<text text-anchor="middle" x="1535" y="-472.5" font-family="Helvetica,sans-Serif" font-size="10.00">CParser::angle_balanced_list</text>
</a>
</g>
</g>
<!-- Node17&#45;&gt;Node18 -->
<g id="edge20" class="edge"><title>Node17&#45;&gt;Node18</title>
<path fill="none" stroke="midnightblue" d="M1406.61,-468.705C1419.64,-468.351 1433.77,-468.204 1447.72,-468.263"/>
<polygon fill="midnightblue" stroke="midnightblue" points="1447.8,-471.763 1457.82,-468.342 1447.85,-464.763 1447.8,-471.763"/>
</g>
<!-- Node18&#45;&gt;Node5 -->
<g id="edge22" class="edge"><title>Node18&#45;&gt;Node5</title>
<path fill="none" stroke="midnightblue" d="M1611.19,-484.556C1620.18,-485.699 1629.17,-486.841 1637.63,-487.916"/>
<polygon fill="midnightblue" stroke="midnightblue" points="1637.28,-491.4 1647.64,-489.189 1638.16,-484.456 1637.28,-491.4"/>
</g>
<!-- Node18&#45;&gt;Node17 -->
<g id="edge21" class="edge"><title>Node18&#45;&gt;Node17</title>
<path fill="none" stroke="midnightblue" d="M1457.82,-481.658C1444.17,-481.816 1430.04,-481.771 1416.67,-481.523"/>
<polygon fill="midnightblue" stroke="midnightblue" points="1416.69,-478.023 1406.61,-481.295 1416.53,-485.021 1416.69,-478.023"/>
</g>
<!-- Node19&#45;&gt;Node5 -->
<g id="edge39" class="edge"><title>Node19&#45;&gt;Node5</title>
<path fill="none" stroke="midnightblue" d="M1012.86,-484.511C1029.37,-486.277 1046.75,-487.908 1063,-489 1276.98,-503.384 1533.25,-498.473 1637.69,-495.537"/>
<polygon fill="midnightblue" stroke="midnightblue" points="1638.01,-499.029 1647.9,-495.242 1637.8,-492.032 1638.01,-499.029"/>
</g>
<!-- Node19&#45;&gt;Node17 -->
<g id="edge27" class="edge"><title>Node19&#45;&gt;Node17</title>
<path fill="none" stroke="midnightblue" d="M1027.09,-475C1103.41,-475 1211.15,-475 1280.17,-475"/>
<polygon fill="midnightblue" stroke="midnightblue" points="1280.48,-478.5 1290.48,-475 1280.48,-471.5 1280.48,-478.5"/>
</g>
<!-- Node20 -->
<g id="node20" class="node"><title>Node20</title>
<g id="a_node20"><a xlink:href="../../d0/df6/classCParser.html#ac5cba09faa6ccf6314b75950f0d8e40e" target="_top" xlink:title="CParser::dtor_member_name">
<polygon fill="white" stroke="black" points="1073.5,-427.5 1073.5,-446.5 1228.5,-446.5 1228.5,-427.5 1073.5,-427.5"/>
<text text-anchor="middle" x="1151" y="-434.5" font-family="Helvetica,sans-Serif" font-size="10.00">CParser::dtor_member_name</text>
</a>
</g>
</g>
<!-- Node19&#45;&gt;Node20 -->
<g id="edge28" class="edge"><title>Node19&#45;&gt;Node20</title>
<path fill="none" stroke="midnightblue" d="M990.474,-465.46C1019.59,-460.265 1055.81,-453.804 1086.37,-448.351"/>
<polygon fill="midnightblue" stroke="midnightblue" points="1087.27,-451.746 1096.5,-446.544 1086.04,-444.855 1087.27,-451.746"/>
</g>
<!-- Node21 -->
<g id="node21" class="node"><title>Node21</title>
<g id="a_node21"><a xlink:href="../../d0/df6/classCParser.html#ac99dcea42e50abf304d0a7bb001b1829" target="_top" xlink:title="CParser::operator_member_name">
<polygon fill="white" stroke="black" points="1063,-541.5 1063,-560.5 1239,-560.5 1239,-541.5 1063,-541.5"/>
<text text-anchor="middle" x="1151" y="-548.5" font-family="Helvetica,sans-Serif" font-size="10.00">CParser::operator_member_name</text>
</a>
</g>
</g>
<!-- Node19&#45;&gt;Node21 -->
<g id="edge30" class="edge"><title>Node19&#45;&gt;Node21</title>
<path fill="none" stroke="midnightblue" d="M958.098,-484.639C982.881,-495.741 1025.39,-514.106 1063,-527 1075.4,-531.25 1088.98,-535.285 1101.65,-538.792"/>
<polygon fill="midnightblue" stroke="midnightblue" points="1101.01,-542.244 1111.58,-541.484 1102.84,-535.488 1101.01,-542.244"/>
</g>
<!-- Node20&#45;&gt;Node5 -->
<g id="edge29" class="edge"><title>Node20&#45;&gt;Node5</title>
<path fill="none" stroke="midnightblue" d="M1207.84,-427.472C1296.12,-414.652 1472.23,-398.255 1612,-443 1633.31,-449.823 1653.92,-465.123 1667.86,-477.195"/>
<polygon fill="midnightblue" stroke="midnightblue" points="1665.86,-480.099 1675.63,-484.19 1670.54,-474.897 1665.86,-480.099"/>
</g>
<!-- Node21&#45;&gt;Node5 -->
<g id="edge38" class="edge"><title>Node21&#45;&gt;Node5</title>
<path fill="none" stroke="midnightblue" d="M1239.42,-555.905C1332.99,-558.976 1485.1,-557.66 1612,-527 1628.68,-522.97 1646.25,-515.223 1660.03,-508.248"/>
<polygon fill="midnightblue" stroke="midnightblue" points="1661.68,-511.339 1668.91,-503.597 1658.43,-505.138 1661.68,-511.339"/>
</g>
<!-- Node22 -->
<g id="node22" class="node"><title>Node22</title>
<g id="a_node22"><a xlink:href="../../d0/df6/classCParser.html#a4bf5a797adb8a33705182662a6a8f45b" target="_top" xlink:title="CParser::operator_identifier">
<polygon fill="white" stroke="black" points="1275,-617.5 1275,-636.5 1422,-636.5 1422,-617.5 1275,-617.5"/>
<text text-anchor="middle" x="1348.5" y="-624.5" font-family="Helvetica,sans-Serif" font-size="10.00">CParser::operator_identifier</text>
</a>
</g>
</g>
<!-- Node21&#45;&gt;Node22 -->
<g id="edge31" class="edge"><title>Node21&#45;&gt;Node22</title>
<path fill="none" stroke="midnightblue" d="M1176.76,-560.625C1211.43,-574.102 1274.55,-598.642 1313.57,-613.811"/>
<polygon fill="midnightblue" stroke="midnightblue" points="1312.35,-617.092 1322.94,-617.453 1314.89,-610.567 1312.35,-617.092"/>
</g>
<!-- Node22&#45;&gt;Node2 -->
<g id="edge36" class="edge"><title>Node22&#45;&gt;Node2</title>
<path fill="none" stroke="midnightblue" d="M1274.88,-632.394C1192.87,-638.011 1055.43,-646 937,-646 562,-646 562,-646 562,-646 453.263,-646 327.744,-674.141 262.711,-690.877"/>
<polygon fill="midnightblue" stroke="midnightblue" points="261.598,-687.55 252.804,-693.459 263.364,-694.324 261.598,-687.55"/>
</g>
<!-- Node22&#45;&gt;Node5 -->
<g id="edge37" class="edge"><title>Node22&#45;&gt;Node5</title>
<path fill="none" stroke="midnightblue" d="M1404.9,-617.487C1470.93,-605.534 1576.76,-584.252 1612,-565 1636.17,-551.794 1658.06,-528.494 1671.54,-512.199"/>
<polygon fill="midnightblue" stroke="midnightblue" points="1674.61,-513.968 1678.13,-503.975 1669.14,-509.592 1674.61,-513.968"/>
</g>
<!-- Node23 -->
<g id="node23" class="node"><title>Node23</title>
<g id="a_node23"><a xlink:href="../../d0/df6/classCParser.html#a177b7d8d53b6d7c2c89bbea896b3d154" target="_top" xlink:title="CParser::op">
<polygon fill="white" stroke="black" points="1499,-655.5 1499,-674.5 1571,-674.5 1571,-655.5 1499,-655.5"/>
<text text-anchor="middle" x="1535" y="-662.5" font-family="Helvetica,sans-Serif" font-size="10.00">CParser::op</text>
</a>
</g>
</g>
<!-- Node22&#45;&gt;Node23 -->
<g id="edge32" class="edge"><title>Node22&#45;&gt;Node23</title>
<path fill="none" stroke="midnightblue" d="M1396.06,-636.589C1424.48,-642.444 1460.66,-649.894 1488.83,-655.696"/>
<polygon fill="midnightblue" stroke="midnightblue" points="1488.31,-659.164 1498.82,-657.753 1489.73,-652.308 1488.31,-659.164"/>
</g>
<!-- Node24 -->
<g id="node24" class="node"><title>Node24</title>
<g id="a_node24"><a xlink:href="../../d0/df6/classCParser.html#ab214b7a662d6c62ddf8d51f0116865cf" target="_top" xlink:title="CParser::new_or_delete">
<polygon fill="white" stroke="black" points="1469.5,-617.5 1469.5,-636.5 1600.5,-636.5 1600.5,-617.5 1469.5,-617.5"/>
<text text-anchor="middle" x="1535" y="-624.5" font-family="Helvetica,sans-Serif" font-size="10.00">CParser::new_or_delete</text>
</a>
</g>
</g>
<!-- Node22&#45;&gt;Node24 -->
<g id="edge34" class="edge"><title>Node22&#45;&gt;Node24</title>
<path fill="none" stroke="midnightblue" d="M1422.15,-627C1434.37,-627 1447.06,-627 1459.32,-627"/>
<polygon fill="midnightblue" stroke="midnightblue" points="1459.5,-630.5 1469.5,-627 1459.5,-623.5 1459.5,-630.5"/>
</g>
<!-- Node23&#45;&gt;Node5 -->
<g id="edge33" class="edge"><title>Node23&#45;&gt;Node5</title>
<path fill="none" stroke="midnightblue" d="M1571.02,-662.652C1585.01,-660.185 1600.5,-655.353 1612,-646 1654.52,-611.427 1674.14,-546.284 1681.62,-513.66"/>
<polygon fill="midnightblue" stroke="midnightblue" points="1685.11,-514.092 1683.78,-503.581 1678.27,-512.625 1685.11,-514.092"/>
</g>
<!-- Node24&#45;&gt;Node5 -->
<g id="edge35" class="edge"><title>Node24&#45;&gt;Node5</title>
<path fill="none" stroke="midnightblue" d="M1583.39,-617.425C1593.46,-613.967 1603.58,-609.294 1612,-603 1643.84,-579.212 1666.37,-537.356 1677.52,-513.017"/>
<polygon fill="midnightblue" stroke="midnightblue" points="1680.77,-514.324 1681.6,-503.762 1674.37,-511.501 1680.77,-514.324"/>
</g>
<!-- Node26 -->
<g id="node26" class="node"><title>Node26</title>
<g id="a_node26"><a xlink:href="../../d4/d6e/classCCCC__Project.html#ac0565e746210778bc6f165130464041b" target="_top" xlink:title="CCCC_Project::name">
<polygon fill="white" stroke="black" points="878,-313.5 878,-332.5 994,-332.5 994,-313.5 878,-313.5"/>
<text text-anchor="middle" x="936" y="-320.5" font-family="Helvetica,sans-Serif" font-size="10.00">CCCC_Project::name</text>
</a>
</g>
</g>
<!-- Node25&#45;&gt;Node26 -->
<g id="edge42" class="edge"><title>Node25&#45;&gt;Node26</title>
<path fill="none" stroke="midnightblue" d="M808.523,-323C827.834,-323 848.684,-323 867.777,-323"/>
<polygon fill="midnightblue" stroke="midnightblue" points="867.882,-326.5 877.882,-323 867.882,-319.5 867.882,-326.5"/>
</g>
<!-- Node27&#45;&gt;Node5 -->
<g id="edge48" class="edge"><title>Node27&#45;&gt;Node5</title>
<path fill="none" stroke="midnightblue" d="M1379.94,-762.088C1433.04,-786.004 1543.44,-824.786 1612,-772 1653.72,-739.878 1676.59,-571.948 1683.35,-513.823"/>
<polygon fill="midnightblue" stroke="midnightblue" points="1686.84,-514.064 1684.49,-503.735 1679.89,-513.28 1686.84,-514.064"/>
</g>
<!-- Node28 -->
<g id="node28" class="node"><title>Node28</title>
<g id="a_node28"><a xlink:href="../../d0/df6/classCParser.html#a80be2f0d41b613906058b6df76ce7815" target="_top" xlink:title="CParser::indirection\l_modifier">
<polygon fill="white" stroke="black" points="1480.5,-732 1480.5,-762 1589.5,-762 1589.5,-732 1480.5,-732"/>
<text text-anchor="start" x="1488.5" y="-750" font-family="Helvetica,sans-Serif" font-size="10.00">CParser::indirection</text>
<text text-anchor="middle" x="1535" y="-739" font-family="Helvetica,sans-Serif" font-size="10.00">_modifier</text>
</a>
</g>
</g>
<!-- Node27&#45;&gt;Node28 -->
<g id="edge46" class="edge"><title>Node27&#45;&gt;Node28</title>
<path fill="none" stroke="midnightblue" d="M1403.36,-747C1424.3,-747 1448.44,-747 1470.24,-747"/>
<polygon fill="midnightblue" stroke="midnightblue" points="1470.39,-750.5 1480.39,-747 1470.39,-743.5 1470.39,-750.5"/>
</g>
<!-- Node28&#45;&gt;Node5 -->
<g id="edge47" class="edge"><title>Node28&#45;&gt;Node5</title>
<path fill="none" stroke="midnightblue" d="M1589.61,-732.828C1597.9,-728.777 1605.77,-723.602 1612,-717 1667.48,-658.225 1681.11,-556.718 1684.44,-513.933"/>
<polygon fill="midnightblue" stroke="midnightblue" points="1687.93,-514.153 1685.1,-503.942 1680.95,-513.687 1687.93,-514.153"/>
</g>
<!-- Node30 -->
<g id="node30" class="node"><title>Node30</title>
<g id="a_node30"><a xlink:href="../../db/d6a/classCCCC__Item.html#a87231c9aa43ece932511d1143b64367e" target="_top" xlink:title="CCCC_Item::Insert">
<polygon fill="white" stroke="black" points="511,-123.5 511,-142.5 615,-142.5 615,-123.5 511,-123.5"/>
<text text-anchor="middle" x="563" y="-130.5" font-family="Helvetica,sans-Serif" font-size="10.00">CCCC_Item::Insert</text>
</a>
</g>
</g>
<!-- Node29&#45;&gt;Node30 -->
<g id="edge51" class="edge"><title>Node29&#45;&gt;Node30</title>
<path fill="none" stroke="midnightblue" d="M270.066,-191.2C319.534,-184.332 396.213,-172.788 462,-159 480.639,-155.094 501.017,-149.956 518.485,-145.28"/>
<polygon fill="midnightblue" stroke="midnightblue" points="519.663,-148.587 528.399,-142.593 517.832,-141.83 519.663,-148.587"/>
</g>
<!-- Node31 -->
<g id="node31" class="node"><title>Node31</title>
<g id="a_node31"><a xlink:href="../../d3/d5e/classParseStore.html#a058a15dda767cb8cf60dc578ec8ffb38" target="_top" xlink:title="ParseStore::flags">
<polygon fill="white" stroke="black" points="342,-207.5 342,-226.5 439,-226.5 439,-207.5 342,-207.5"/>
<text text-anchor="middle" x="390.5" y="-214.5" font-family="Helvetica,sans-Serif" font-size="10.00">ParseStore::flags</text>
</a>
</g>
</g>
<!-- Node29&#45;&gt;Node31 -->
<g id="edge52" class="edge"><title>Node29&#45;&gt;Node31</title>
<path fill="none" stroke="midnightblue" d="M270.27,-203.752C289.69,-205.91 311.876,-208.375 331.801,-210.589"/>
<polygon fill="midnightblue" stroke="midnightblue" points="331.662,-214.095 341.988,-211.721 332.435,-207.138 331.662,-214.095"/>
</g>
<!-- Node32 -->
<g id="node32" class="node"><title>Node32</title>
<g id="a_node32"><a xlink:href="../../d3/d5e/classParseStore.html#ab07edec82aea81e439fa34d2f557b36f" target="_top" xlink:title="ParseStore::insert\l_extent">
<polygon fill="white" stroke="black" points="340,-120 340,-150 441,-150 441,-120 340,-120"/>
<text text-anchor="start" x="348" y="-138" font-family="Helvetica,sans-Serif" font-size="10.00">ParseStore::insert</text>
<text text-anchor="middle" x="390.5" y="-127" font-family="Helvetica,sans-Serif" font-size="10.00">_extent</text>
</a>
</g>
</g>
<!-- Node29&#45;&gt;Node32 -->
<g id="edge53" class="edge"><title>Node29&#45;&gt;Node32</title>
<path fill="none" stroke="midnightblue" d="M259.459,-182.91C283.377,-174.098 313.748,-162.909 339.123,-153.56"/>
<polygon fill="midnightblue" stroke="midnightblue" points="340.406,-156.817 348.579,-150.076 337.986,-150.249 340.406,-156.817"/>
</g>
<!-- Node33 -->
<g id="node33" class="node"><title>Node33</title>
<g id="a_node33"><a xlink:href="../../d4/d6e/classCCCC__Project.html#adae36526071c67957535938bf6401d9f" target="_top" xlink:title="CCCC_Project::add_userel">
<polygon fill="white" stroke="black" points="319,-81.5 319,-100.5 462,-100.5 462,-81.5 319,-81.5"/>
<text text-anchor="middle" x="390.5" y="-88.5" font-family="Helvetica,sans-Serif" font-size="10.00">CCCC_Project::add_userel</text>
</a>
</g>
</g>
<!-- Node29&#45;&gt;Node33 -->
<g id="edge55" class="edge"><title>Node29&#45;&gt;Node33</title>
<path fill="none" stroke="midnightblue" d="M268.067,-182.927C273.424,-180.124 278.54,-176.839 283,-173 307.442,-151.962 293.473,-129.707 319,-110 321.352,-108.184 323.864,-106.542 326.487,-105.056"/>
<polygon fill="midnightblue" stroke="midnightblue" points="328.275,-108.08 335.763,-100.585 325.236,-101.774 328.275,-108.08"/>
</g>
<!-- Node32&#45;&gt;Node30 -->
<g id="edge54" class="edge"><title>Node32&#45;&gt;Node30</title>
<path fill="none" stroke="midnightblue" d="M441.274,-134.416C459.939,-134.197 481.367,-133.946 500.939,-133.716"/>
<polygon fill="midnightblue" stroke="midnightblue" points="501.022,-137.216 510.981,-133.598 500.94,-130.216 501.022,-137.216"/>
</g>
<!-- Node34 -->
<g id="node34" class="node"><title>Node34</title>
<g id="a_node34"><a xlink:href="../../d8/dcf/classCCCC__Table.html#a8e08fe4f6edb07f1fbf2813c66bb3606" target="_top" xlink:title="CCCC_Table::find_or\l_insert">
<polygon fill="white" stroke="black" points="678.5,-77 678.5,-107 794.5,-107 794.5,-77 678.5,-77"/>
<text text-anchor="start" x="686.5" y="-95" font-family="Helvetica,sans-Serif" font-size="10.00">CCCC_Table::find_or</text>
<text text-anchor="middle" x="736.5" y="-84" font-family="Helvetica,sans-Serif" font-size="10.00">_insert</text>
</a>
</g>
</g>
<!-- Node33&#45;&gt;Node34 -->
<g id="edge56" class="edge"><title>Node33&#45;&gt;Node34</title>
<path fill="none" stroke="midnightblue" d="M462.36,-91.206C522.786,-91.3816 609.042,-91.6324 668.372,-91.8049"/>
<polygon fill="midnightblue" stroke="midnightblue" points="668.378,-95.3048 678.389,-91.834 668.399,-88.3048 668.378,-95.3048"/>
</g>
<!-- Node35 -->
<g id="node35" class="node"><title>Node35</title>
<g id="a_node35"><a xlink:href="../../d2/d65/classCCCC__UseRelationship.html#aea65f893850f8e1903c3e53ac04170f6" target="_top" xlink:title="CCCC_UseRelationship\l::add_extent">
<polygon fill="white" stroke="black" points="498,-33 498,-63 628,-63 628,-33 498,-33"/>
<text text-anchor="start" x="506" y="-51" font-family="Helvetica,sans-Serif" font-size="10.00">CCCC_UseRelationship</text>
<text text-anchor="middle" x="563" y="-40" font-family="Helvetica,sans-Serif" font-size="10.00">::add_extent</text>
</a>
</g>
</g>
<!-- Node33&#45;&gt;Node35 -->
<g id="edge57" class="edge"><title>Node33&#45;&gt;Node35</title>
<path fill="none" stroke="midnightblue" d="M429.339,-81.4569C447.971,-76.758 471.033,-70.9417 492.676,-65.4836"/>
<polygon fill="midnightblue" stroke="midnightblue" points="493.658,-68.8455 502.498,-63.0063 491.946,-62.0581 493.658,-68.8455"/>
</g>
<!-- Node35&#45;&gt;Node34 -->
<g id="edge58" class="edge"><title>Node35&#45;&gt;Node34</title>
<path fill="none" stroke="midnightblue" d="M622.541,-63.0192C637.346,-66.8177 653.359,-70.926 668.545,-74.822"/>
<polygon fill="midnightblue" stroke="midnightblue" points="667.828,-78.2513 678.384,-77.3462 669.567,-71.4709 667.828,-78.2513"/>
</g>
<!-- Node36 -->
<g id="node36" class="node"><title>Node36</title>
<g id="a_node36"><a xlink:href="../../df/d99/classCCCC__Extent.html#a82a7a03bd389c67ba2f5dc7787e89739" target="_top" xlink:title="CCCC_Extent::get_visibility">
<polygon fill="white" stroke="black" points="665,-38.5 665,-57.5 808,-57.5 808,-38.5 665,-38.5"/>
<text text-anchor="middle" x="736.5" y="-45.5" font-family="Helvetica,sans-Serif" font-size="10.00">CCCC_Extent::get_visibility</text>
</a>
</g>
</g>
<!-- Node35&#45;&gt;Node36 -->
<g id="edge59" class="edge"><title>Node35&#45;&gt;Node36</title>
<path fill="none" stroke="midnightblue" d="M628.348,-48C636.888,-48 645.729,-48 654.505,-48"/>
<polygon fill="midnightblue" stroke="midnightblue" points="654.753,-51.5001 664.753,-48 654.753,-44.5001 654.753,-51.5001"/>
</g>
<!-- Node37 -->
<g id="node37" class="node"><title>Node37</title>
<g id="a_node37"><a xlink:href="../../df/d99/classCCCC__Extent.html#abe27f2b34d0542894c6339274e8d1834" target="_top" xlink:title="CCCC_Extent::get_usetype">
<polygon fill="white" stroke="black" points="664,-0.5 664,-19.5 809,-19.5 809,-0.5 664,-0.5"/>
<text text-anchor="middle" x="736.5" y="-7.5" font-family="Helvetica,sans-Serif" font-size="10.00">CCCC_Extent::get_usetype</text>
</a>
</g>
</g>
<!-- Node35&#45;&gt;Node37 -->
<g id="edge60" class="edge"><title>Node35&#45;&gt;Node37</title>
<path fill="none" stroke="midnightblue" d="M628.348,-33.7421C646.225,-29.781 665.428,-25.5262 682.57,-21.728"/>
<polygon fill="midnightblue" stroke="midnightblue" points="683.393,-25.1306 692.399,-19.5501 681.878,-18.2963 683.393,-25.1306"/>
</g>
</g>
</svg>
        <g id="navigator" transform="translate(0 0)" fill="#404254">
                <rect fill="#f2f5e9" fill-opacity="0.5" stroke="#606060" stroke-width=".5" x="0" y="0" width="60" height="60"/>
                <use id="zoomplus" xlink:href="#zoomPlus" x="17" y="9" onmousedown="handleZoom(evt,'in')"/>
                <use id="zoomminus" xlink:href="#zoomMin" x="42" y="9" onmousedown="handleZoom(evt,'out')"/>
                <use id="reset" xlink:href="#resetDef" x="30" y="36" onmousedown="handleReset()"/>
                <g id="arrowUp" xlink:href="#dirArrow" transform="translate(30 24)" onmousedown="handlePan(0,-1)">
                  <use xlink:href="#rim" fill="#404040">
                        <set attributeName="fill" to="#808080" begin="arrowUp.mouseover" end="arrowUp.mouseout"/>
                  </use>
                  <path fill="none" stroke="white" stroke-width="1.5" d="M0,-3.0v7 M-2.5,-0.5L0,-3.0L2.5,-0.5"/>
                </g>
                <g id="arrowRight" xlink:href="#dirArrow" transform="rotate(90) translate(36 -43)" onmousedown="handlePan(1,0)">
                  <use xlink:href="#rim" fill="#404040">
                        <set attributeName="fill" to="#808080" begin="arrowRight.mouseover" end="arrowRight.mouseout"/>
                  </use>
                  <path fill="none" stroke="white" stroke-width="1.5" d="M0,-3.0v7 M-2.5,-0.5L0,-3.0L2.5,-0.5"/>
                </g>
                <g id="arrowDown" xlink:href="#dirArrow" transform="rotate(180) translate(-30 -48)" onmousedown="handlePan(0,1)">
                  <use xlink:href="#rim" fill="#404040">
                        <set attributeName="fill" to="#808080" begin="arrowDown.mouseover" end="arrowDown.mouseout"/>
                  </use>
                  <path fill="none" stroke="white" stroke-width="1.5" d="M0,-3.0v7 M-2.5,-0.5L0,-3.0L2.5,-0.5"/>
                </g>
                <g id="arrowLeft" xlink:href="#dirArrow" transform="rotate(270) translate(-36 17)" onmousedown="handlePan(-1,0)">
                  <use xlink:href="#rim" fill="#404040">
                        <set attributeName="fill" to="#808080" begin="arrowLeft.mouseover" end="arrowLeft.mouseout"/>
                  </use>
                  <path fill="none" stroke="white" stroke-width="1.5" d="M0,-3.0v7 M-2.5,-0.5L0,-3.0L2.5,-0.5"/>
                </g>
        </g>
        <svg viewBox="0 0 15 15" width="100%" height="30px" preserveAspectRatio="xMaxYMin meet">
         <g id="arrow_out" transform="scale(0.3 0.3)">
          <a xlink:href="classCParser_a95df41979cfa46504c628004a1bc9e79_cgraph_org.svg" target="_base">
           <rect id="button" ry="5" rx="5" y="6" x="6" height="38" width="38"
                fill="#f2f5e9" fill-opacity="0.5" stroke="#606060" stroke-width="1.0"/>
           <path id="arrow"
             d="M 11.500037,31.436501 C 11.940474,20.09759 22.043105,11.32322 32.158766,21.979434 L 37.068811,17.246167 C 37.068811,17.246167 37.088388,32 37.088388,32 L 22.160133,31.978069 C 22.160133,31.978069 26.997745,27.140456 26.997745,27.140456 C 18.528582,18.264221 13.291696,25.230495 11.500037,31.436501 z"
             style="fill:#404040;"/>
          </a>
         </g>
        </svg>
</svg>
