<?xml version="1.0" encoding="UTF-8" standalone="no"?>
<!DOCTYPE svg PUBLIC "-//W3C//DTD SVG 1.1//EN"
 "http://www.w3.org/Graphics/SVG/1.1/DTD/svg11.dtd">
<!-- Generated by graphviz version 2.38.0 (20140413.2041)
 -->
<!-- Title: CParser::simple_type_alias Pages: 1 -->
<svg width="1608pt" height="204pt"
 viewBox="0.00 0.00 1608.00 204.00" xmlns="http://www.w3.org/2000/svg" xmlns:xlink="http://www.w3.org/1999/xlink">
<g id="graph0" class="graph" transform="scale(1 1) rotate(0) translate(4 200)">
<title>CParser::simple_type_alias</title>
<polygon fill="white" stroke="none" points="-4,4 -4,-200 1604,-200 1604,4 -4,4"/>
<!-- Node1 -->
<g id="node1" class="node"><title>Node1</title>
<polygon fill="#bfbfbf" stroke="black" points="0,-29 0,-59 116,-59 116,-29 0,-29"/>
<text text-anchor="start" x="8" y="-47" font-family="Helvetica,sans-Serif" font-size="10.00">CParser::simple_type</text>
<text text-anchor="middle" x="58" y="-36" font-family="Helvetica,sans-Serif" font-size="10.00">_alias</text>
</g>
<!-- Node2 -->
<g id="node2" class="node"><title>Node2</title>
<g id="a_node2"><a xlink:href="../../d0/df6/classCParser.html#adc9d4d015cd2bad4f949afebbc0ef43c" target="_top" xlink:title="CParser::simple_typedef\l_definition">
<polygon fill="white" stroke="black" points="152,-29 152,-59 283,-59 283,-29 152,-29"/>
<text text-anchor="start" x="160" y="-47" font-family="Helvetica,sans-Serif" font-size="10.00">CParser::simple_typedef</text>
<text text-anchor="middle" x="217.5" y="-36" font-family="Helvetica,sans-Serif" font-size="10.00">_definition</text>
</a>
</g>
</g>
<!-- Node1&#45;&gt;Node2 -->
<g id="edge1" class="edge"><title>Node1&#45;&gt;Node2</title>
<path fill="none" stroke="midnightblue" d="M126.438,-44C134.837,-44 143.412,-44 151.768,-44"/>
<polygon fill="midnightblue" stroke="midnightblue" points="126.307,-40.5001 116.307,-44 126.307,-47.5001 126.307,-40.5001"/>
</g>
<!-- Node3 -->
<g id="node3" class="node"><title>Node3</title>
<g id="a_node3"><a xlink:href="../../d0/df6/classCParser.html#a8c598aa662fff7e10be2ee78e078935a" target="_top" xlink:title="CParser::typedef_definition">
<polygon fill="white" stroke="black" points="319,-34.5 319,-53.5 463,-53.5 463,-34.5 319,-34.5"/>
<text text-anchor="middle" x="391" y="-41.5" font-family="Helvetica,sans-Serif" font-size="10.00">CParser::typedef_definition</text>
</a>
</g>
</g>
<!-- Node2&#45;&gt;Node3 -->
<g id="edge2" class="edge"><title>Node2&#45;&gt;Node3</title>
<path fill="none" stroke="midnightblue" d="M293.486,-44C301.881,-44 310.416,-44 318.762,-44"/>
<polygon fill="midnightblue" stroke="midnightblue" points="293.337,-40.5001 283.337,-44 293.337,-47.5001 293.337,-40.5001"/>
</g>
<!-- Node4 -->
<g id="node4" class="node"><title>Node4</title>
<g id="a_node4"><a xlink:href="../../d0/df6/classCParser.html#ab3ab57ace628c2476dd8dfe5a96f9a15" target="_top" xlink:title="CParser::definition\l_or_declaration">
<polygon fill="white" stroke="black" points="499,-29 499,-59 602,-59 602,-29 499,-29"/>
<text text-anchor="start" x="507" y="-47" font-family="Helvetica,sans-Serif" font-size="10.00">CParser::definition</text>
<text text-anchor="middle" x="550.5" y="-36" font-family="Helvetica,sans-Serif" font-size="10.00">_or_declaration</text>
</a>
</g>
</g>
<!-- Node3&#45;&gt;Node4 -->
<g id="edge3" class="edge"><title>Node3&#45;&gt;Node4</title>
<path fill="none" stroke="midnightblue" d="M473.432,-44C482.003,-44 490.53,-44 498.609,-44"/>
<polygon fill="midnightblue" stroke="midnightblue" points="473.377,-40.5001 463.377,-44 473.377,-47.5001 473.377,-40.5001"/>
</g>
<!-- Node5 -->
<g id="node5" class="node"><title>Node5</title>
<g id="a_node5"><a xlink:href="../../d0/df6/classCParser.html#a2b78ab2005bef5c43ee2d4689210eab1" target="_top" xlink:title="CParser::link_item">
<polygon fill="white" stroke="black" points="657.5,-107.5 657.5,-126.5 758.5,-126.5 758.5,-107.5 657.5,-107.5"/>
<text text-anchor="middle" x="708" y="-114.5" font-family="Helvetica,sans-Serif" font-size="10.00">CParser::link_item</text>
</a>
</g>
</g>
<!-- Node4&#45;&gt;Node5 -->
<g id="edge4" class="edge"><title>Node4&#45;&gt;Node5</title>
<path fill="none" stroke="midnightblue" d="M592.79,-63.3838C623.097,-77.6116 662.959,-96.3248 686.686,-107.464"/>
<polygon fill="midnightblue" stroke="midnightblue" points="594.259,-60.207 583.72,-59.1256 591.284,-66.5435 594.259,-60.207"/>
</g>
<!-- Node11 -->
<g id="node11" class="node"><title>Node11</title>
<g id="a_node11"><a xlink:href="../../d0/df6/classCParser.html#a85eb09132fa5a588749cea062f0d11ea" target="_top" xlink:title="CParser::class_block_item">
<polygon fill="white" stroke="black" points="638,-34.5 638,-53.5 778,-53.5 778,-34.5 638,-34.5"/>
<text text-anchor="middle" x="708" y="-41.5" font-family="Helvetica,sans-Serif" font-size="10.00">CParser::class_block_item</text>
</a>
</g>
</g>
<!-- Node4&#45;&gt;Node11 -->
<g id="edge12" class="edge"><title>Node4&#45;&gt;Node11</title>
<path fill="none" stroke="midnightblue" d="M612.438,-44C620.787,-44 629.408,-44 637.89,-44"/>
<polygon fill="midnightblue" stroke="midnightblue" points="612.417,-40.5001 602.417,-44 612.416,-47.5001 612.417,-40.5001"/>
</g>
<!-- Node6 -->
<g id="node6" class="node"><title>Node6</title>
<g id="a_node6"><a xlink:href="../../d0/df6/classCParser.html#a4f02da23566af37123efb3768769c09b" target="_top" xlink:title="CParser::start">
<polygon fill="white" stroke="black" points="838.5,-176.5 838.5,-195.5 919.5,-195.5 919.5,-176.5 838.5,-176.5"/>
<text text-anchor="middle" x="879" y="-183.5" font-family="Helvetica,sans-Serif" font-size="10.00">CParser::start</text>
</a>
</g>
</g>
<!-- Node5&#45;&gt;Node6 -->
<g id="edge5" class="edge"><title>Node5&#45;&gt;Node6</title>
<path fill="none" stroke="midnightblue" d="M735.765,-131.172C756.687,-141.898 786.702,-156.522 814,-167 822.981,-170.447 832.866,-173.657 842.125,-176.42"/>
<polygon fill="midnightblue" stroke="midnightblue" points="737.324,-128.037 726.834,-126.547 734.105,-134.253 737.324,-128.037"/>
</g>
<!-- Node9 -->
<g id="node9" class="node"><title>Node9</title>
<g id="a_node9"><a xlink:href="../../d0/df6/classCParser.html#a86906e492ff9c606fb3537078f46f93e" target="_top" xlink:title="CParser::extern_linkage\l_block">
<polygon fill="white" stroke="black" points="814,-127 814,-157 944,-157 944,-127 814,-127"/>
<text text-anchor="start" x="822" y="-145" font-family="Helvetica,sans-Serif" font-size="10.00">CParser::extern_linkage</text>
<text text-anchor="middle" x="879" y="-134" font-family="Helvetica,sans-Serif" font-size="10.00">_block</text>
</a>
</g>
</g>
<!-- Node5&#45;&gt;Node9 -->
<g id="edge8" class="edge"><title>Node5&#45;&gt;Node9</title>
<path fill="none" stroke="midnightblue" d="M768.912,-119.373C785.494,-121.465 803.461,-124.137 819.936,-126.963"/>
<polygon fill="midnightblue" stroke="midnightblue" points="769.139,-115.875 758.792,-118.15 768.299,-122.825 769.139,-115.875"/>
</g>
<!-- Node10 -->
<g id="node10" class="node"><title>Node10</title>
<g id="a_node10"><a xlink:href="../../d0/df6/classCParser.html#a4fad913a0694a5376ad76669d8943122" target="_top" xlink:title="CParser::namespace\l_block">
<polygon fill="white" stroke="black" points="821.5,-78 821.5,-108 936.5,-108 936.5,-78 821.5,-78"/>
<text text-anchor="start" x="829.5" y="-96" font-family="Helvetica,sans-Serif" font-size="10.00">CParser::namespace</text>
<text text-anchor="middle" x="879" y="-85" font-family="Helvetica,sans-Serif" font-size="10.00">_block</text>
</a>
</g>
</g>
<!-- Node5&#45;&gt;Node10 -->
<g id="edge10" class="edge"><title>Node5&#45;&gt;Node10</title>
<path fill="none" stroke="midnightblue" d="M748.68,-105.542C770.375,-101.468 797.617,-97.4042 821.497,-94.6148"/>
<polygon fill="midnightblue" stroke="midnightblue" points="747.965,-102.115 738.825,-107.473 749.311,-108.985 747.965,-102.115"/>
</g>
<!-- Node7 -->
<g id="node7" class="node"><title>Node7</title>
<g id="a_node7"><a xlink:href="../../db/d4a/classMain.html#a803470658c644fa9512140f9d8398dd5" target="_top" xlink:title="Main::ParseFiles">
<polygon fill="white" stroke="black" points="990,-176.5 990,-195.5 1084,-195.5 1084,-176.5 990,-176.5"/>
<text text-anchor="middle" x="1037" y="-183.5" font-family="Helvetica,sans-Serif" font-size="10.00">Main::ParseFiles</text>
</a>
</g>
</g>
<!-- Node6&#45;&gt;Node7 -->
<g id="edge6" class="edge"><title>Node6&#45;&gt;Node7</title>
<path fill="none" stroke="midnightblue" d="M929.869,-186C949.138,-186 971.051,-186 989.942,-186"/>
<polygon fill="midnightblue" stroke="midnightblue" points="929.769,-182.5 919.769,-186 929.769,-189.5 929.769,-182.5"/>
</g>
<!-- Node8 -->
<g id="node8" class="node"><title>Node8</title>
<g id="a_node8"><a xlink:href="../../d6/d93/ccccmain_8cc.html#a3c04138a5bfe5d72780bb7e82a18e627" target="_top" xlink:title="main">
<polygon fill="white" stroke="black" points="1167.5,-176.5 1167.5,-195.5 1206.5,-195.5 1206.5,-176.5 1167.5,-176.5"/>
<text text-anchor="middle" x="1187" y="-183.5" font-family="Helvetica,sans-Serif" font-size="10.00">main</text>
</a>
</g>
</g>
<!-- Node7&#45;&gt;Node8 -->
<g id="edge7" class="edge"><title>Node7&#45;&gt;Node8</title>
<path fill="none" stroke="midnightblue" d="M1094.15,-186C1120.09,-186 1149.14,-186 1167.49,-186"/>
<polygon fill="midnightblue" stroke="midnightblue" points="1094.02,-182.5 1084.02,-186 1094.02,-189.5 1094.02,-182.5"/>
</g>
<!-- Node9&#45;&gt;Node5 -->
<g id="edge9" class="edge"><title>Node9&#45;&gt;Node5</title>
<path fill="none" stroke="midnightblue" d="M804.065,-137.766C780.729,-134.523 756.302,-130.422 738.052,-126.54"/>
<polygon fill="midnightblue" stroke="midnightblue" points="803.6,-141.235 813.978,-139.1 804.534,-134.297 803.6,-141.235"/>
</g>
<!-- Node10&#45;&gt;Node5 -->
<g id="edge11" class="edge"><title>Node10&#45;&gt;Node5</title>
<path fill="none" stroke="midnightblue" d="M811.292,-109.089C793.795,-111.842 775.232,-114.345 758.792,-116.145"/>
<polygon fill="midnightblue" stroke="midnightblue" points="812.136,-112.498 821.446,-107.442 811.015,-105.588 812.136,-112.498"/>
</g>
<!-- Node12 -->
<g id="node12" class="node"><title>Node12</title>
<g id="a_node12"><a xlink:href="../../d0/df6/classCParser.html#a4b9f00c05d44a13b3c18b28b52f5be9e" target="_top" xlink:title="CParser::class_block\l_item_list">
<polygon fill="white" stroke="black" points="822,-29 822,-59 936,-59 936,-29 822,-29"/>
<text text-anchor="start" x="830" y="-47" font-family="Helvetica,sans-Serif" font-size="10.00">CParser::class_block</text>
<text text-anchor="middle" x="879" y="-36" font-family="Helvetica,sans-Serif" font-size="10.00">_item_list</text>
</a>
</g>
</g>
<!-- Node11&#45;&gt;Node12 -->
<g id="edge13" class="edge"><title>Node11&#45;&gt;Node12</title>
<path fill="none" stroke="midnightblue" d="M788.497,-44C799.741,-44 811.104,-44 821.785,-44"/>
<polygon fill="midnightblue" stroke="midnightblue" points="788.226,-40.5001 778.226,-44 788.226,-47.5001 788.226,-40.5001"/>
</g>
<!-- Node13 -->
<g id="node13" class="node"><title>Node13</title>
<g id="a_node13"><a xlink:href="../../d0/df6/classCParser.html#a06c7cac9034f27ad6d998b49a7b574c8" target="_top" xlink:title="CParser::class_block">
<polygon fill="white" stroke="black" points="980,-31.5 980,-50.5 1094,-50.5 1094,-31.5 980,-31.5"/>
<text text-anchor="middle" x="1037" y="-38.5" font-family="Helvetica,sans-Serif" font-size="10.00">CParser::class_block</text>
</a>
</g>
</g>
<!-- Node12&#45;&gt;Node13 -->
<g id="edge14" class="edge"><title>Node12&#45;&gt;Node13</title>
<path fill="none" stroke="midnightblue" d="M946.404,-42.723C957.512,-42.5094 968.941,-42.2896 979.763,-42.0815"/>
<polygon fill="midnightblue" stroke="midnightblue" points="946.25,-39.2252 936.32,-42.9169 946.385,-46.2239 946.25,-39.2252"/>
</g>
<!-- Node14 -->
<g id="node14" class="node"><title>Node14</title>
<g id="a_node14"><a xlink:href="../../d0/df6/classCParser.html#a40fba8426e7ac46e9926515ee81e97f3" target="_top" xlink:title="CParser::class_suffix">
<polygon fill="white" stroke="black" points="1130,-29.5 1130,-48.5 1244,-48.5 1244,-29.5 1130,-29.5"/>
<text text-anchor="middle" x="1187" y="-36.5" font-family="Helvetica,sans-Serif" font-size="10.00">CParser::class_suffix</text>
</a>
</g>
</g>
<!-- Node13&#45;&gt;Node14 -->
<g id="edge15" class="edge"><title>Node13&#45;&gt;Node14</title>
<path fill="none" stroke="midnightblue" d="M1104.56,-40.1006C1112.98,-39.9867 1121.54,-39.8711 1129.78,-39.7597"/>
<polygon fill="midnightblue" stroke="midnightblue" points="1104.33,-36.6033 1094.37,-40.2382 1104.42,-43.6026 1104.33,-36.6033"/>
</g>
<!-- Node15 -->
<g id="node15" class="node"><title>Node15</title>
<g id="a_node15"><a xlink:href="../../d0/df6/classCParser.html#a1ed5fcfb2e97e3551fceabe81989a667" target="_top" xlink:title="CParser::class_declaration\l_or_definition">
<polygon fill="white" stroke="black" points="1280,-4 1280,-34 1423,-34 1423,-4 1280,-4"/>
<text text-anchor="start" x="1288" y="-22" font-family="Helvetica,sans-Serif" font-size="10.00">CParser::class_declaration</text>
<text text-anchor="middle" x="1351.5" y="-11" font-family="Helvetica,sans-Serif" font-size="10.00">_or_definition</text>
</a>
</g>
</g>
<!-- Node14&#45;&gt;Node15 -->
<g id="edge16" class="edge"><title>Node14&#45;&gt;Node15</title>
<path fill="none" stroke="midnightblue" d="M1254.47,-30.8187C1262.86,-29.7867 1271.46,-28.728 1279.91,-27.6886"/>
<polygon fill="midnightblue" stroke="midnightblue" points="1253.88,-27.3657 1244.38,-32.0611 1254.73,-34.3133 1253.88,-27.3657"/>
</g>
<!-- Node15&#45;&gt;Node4 -->
<g id="edge17" class="edge"><title>Node15&#45;&gt;Node4</title>
<path fill="none" stroke="midnightblue" d="M1269.56,-11.374C1206.52,-6.08976 1116.78,-0 1038,-0 878,-0 878,-0 878,-0 770.756,-0 743.874,-7.91348 638,-25 626.312,-26.8862 613.83,-29.3567 602.088,-31.8893"/>
<polygon fill="midnightblue" stroke="midnightblue" points="1269.57,-14.8876 1279.83,-12.2478 1270.16,-7.91282 1269.57,-14.8876"/>
</g>
<!-- Node16 -->
<g id="node16" class="node"><title>Node16</title>
<g id="a_node16"><a xlink:href="../../d0/df6/classCParser.html#a12561a45dab96760d7ab45896681dd33" target="_top" xlink:title="CParser::class_or_method\l_declaration_or_definition">
<polygon fill="white" stroke="black" points="1459,-4 1459,-34 1600,-34 1600,-4 1459,-4"/>
<text text-anchor="start" x="1467" y="-22" font-family="Helvetica,sans-Serif" font-size="10.00">CParser::class_or_method</text>
<text text-anchor="middle" x="1529.5" y="-11" font-family="Helvetica,sans-Serif" font-size="10.00">_declaration_or_definition</text>
</a>
</g>
</g>
<!-- Node15&#45;&gt;Node16 -->
<g id="edge18" class="edge"><title>Node15&#45;&gt;Node16</title>
<path fill="none" stroke="midnightblue" d="M1433.08,-19C1441.66,-19 1450.33,-19 1458.77,-19"/>
<polygon fill="midnightblue" stroke="midnightblue" points="1433.07,-15.5001 1423.07,-19 1433.07,-22.5001 1433.07,-15.5001"/>
</g>
</g>
</svg>
