<?xml version="1.0" encoding="UTF-8" standalone="no"?>
<!DOCTYPE svg PUBLIC "-//W3C//DTD SVG 1.1//EN"
 "http://www.w3.org/Graphics/SVG/1.1/DTD/svg11.dtd">
<!-- Generated by graphviz version 2.38.0 (20140413.2041)
 -->
<!-- Title: CParser::unscoped_member_name Pages: 1 -->
<svg width="2204pt" height="733pt"
 viewBox="0.00 0.00 2204.00 732.81" xmlns="http://www.w3.org/2000/svg" xmlns:xlink="http://www.w3.org/1999/xlink">
<g id="graph0" class="graph" transform="scale(1 1) rotate(0) translate(4 728.815)">
<title>CParser::unscoped_member_name</title>
<polygon fill="white" stroke="none" points="-4,4 -4,-728.815 2200,-728.815 2200,4 -4,4"/>
<!-- Node1 -->
<g id="node1" class="node"><title>Node1</title>
<polygon fill="#bfbfbf" stroke="black" points="0,-629.67 0,-648.67 182,-648.67 182,-629.67 0,-629.67"/>
<text text-anchor="middle" x="91" y="-636.67" font-family="Helvetica,sans-Serif" font-size="10.00">CParser::unscoped_member_name</text>
</g>
<!-- Node2 -->
<g id="node2" class="node"><title>Node2</title>
<g id="a_node2"><a xlink:href="../../d0/df6/classCParser.html#a729069b96fa400ec2fd9a34d4016fcdb" target="_top" xlink:title="CParser::angle_block">
<polygon fill="white" stroke="black" points="1466,-553.67 1466,-572.67 1582,-572.67 1582,-553.67 1466,-553.67"/>
<text text-anchor="middle" x="1524" y="-560.67" font-family="Helvetica,sans-Serif" font-size="10.00">CParser::angle_block</text>
</a>
</g>
</g>
<!-- Node1&#45;&gt;Node2 -->
<g id="edge1" class="edge"><title>Node1&#45;&gt;Node2</title>
<path fill="none" stroke="midnightblue" d="M182.156,-639.17C266.12,-639.17 394.779,-639.17 506.5,-639.17 506.5,-639.17 506.5,-639.17 1168,-639.17 1287.06,-639.17 1423.7,-597.792 1487.15,-576.099"/>
<polygon fill="midnightblue" stroke="midnightblue" points="1488.39,-579.375 1496.69,-572.796 1486.1,-572.76 1488.39,-579.375"/>
</g>
<!-- Node4 -->
<g id="node4" class="node"><title>Node4</title>
<g id="a_node4"><a xlink:href="../../d0/df6/classCParser.html#a5e1630bd24884bb1cbc5680926dce957" target="_top" xlink:title="CParser::syn">
<polygon fill="white" stroke="black" points="1808,-363.67 1808,-382.67 1885,-382.67 1885,-363.67 1808,-363.67"/>
<text text-anchor="middle" x="1846.5" y="-370.67" font-family="Helvetica,sans-Serif" font-size="10.00">CParser::syn</text>
</a>
</g>
</g>
<!-- Node1&#45;&gt;Node4 -->
<g id="edge48" class="edge"><title>Node1&#45;&gt;Node4</title>
<path fill="none" stroke="midnightblue" d="M120.987,-648.71C146.34,-656.75 184.276,-668.052 218,-675.17 344.658,-701.906 377.051,-715.17 506.5,-715.17 506.5,-715.17 506.5,-715.17 1525,-715.17 1636,-715.17 1690.14,-753.141 1772,-678.17 1814.73,-639.031 1837.21,-454.236 1843.58,-392.963"/>
<polygon fill="midnightblue" stroke="midnightblue" points="1847.09,-393.028 1844.61,-382.727 1840.12,-392.326 1847.09,-393.028"/>
</g>
<!-- Node8 -->
<g id="node8" class="node"><title>Node8</title>
<g id="a_node8"><a xlink:href="../../d0/df6/classCParser.html#ac5cba09faa6ccf6314b75950f0d8e40e" target="_top" xlink:title="CParser::dtor_member_name">
<polygon fill="white" stroke="black" points="430,-667.67 430,-686.67 585,-686.67 585,-667.67 430,-667.67"/>
<text text-anchor="middle" x="507.5" y="-674.67" font-family="Helvetica,sans-Serif" font-size="10.00">CParser::dtor_member_name</text>
</a>
</g>
</g>
<!-- Node1&#45;&gt;Node8 -->
<g id="edge9" class="edge"><title>Node1&#45;&gt;Node8</title>
<path fill="none" stroke="midnightblue" d="M174.653,-648.685C189.095,-650.253 203.98,-651.808 218,-653.17 285.719,-659.748 362.491,-666.08 419.806,-670.587"/>
<polygon fill="midnightblue" stroke="midnightblue" points="419.67,-674.087 429.913,-671.379 420.217,-667.109 419.67,-674.087"/>
</g>
<!-- Node9 -->
<g id="node9" class="node"><title>Node9</title>
<g id="a_node9"><a xlink:href="../../d0/df6/classCParser.html#ac99dcea42e50abf304d0a7bb001b1829" target="_top" xlink:title="CParser::operator_member_name">
<polygon fill="white" stroke="black" points="218,-127.67 218,-146.67 394,-146.67 394,-127.67 218,-127.67"/>
<text text-anchor="middle" x="306" y="-134.67" font-family="Helvetica,sans-Serif" font-size="10.00">CParser::operator_member_name</text>
</a>
</g>
</g>
<!-- Node1&#45;&gt;Node9 -->
<g id="edge11" class="edge"><title>Node1&#45;&gt;Node9</title>
<path fill="none" stroke="midnightblue" d="M96.0648,-629.59C121.767,-569.015 261.774,-239.045 296.969,-156.098"/>
<polygon fill="midnightblue" stroke="midnightblue" points="300.208,-157.423 300.893,-146.851 293.765,-154.689 300.208,-157.423"/>
</g>
<!-- Node3 -->
<g id="node3" class="node"><title>Node3</title>
<g id="a_node3"><a xlink:href="../../d0/df6/classCParser.html#aa127d8f0df3a28071ce4fe43684632ef" target="_top" xlink:title="CParser::angle_balanced_list">
<polygon fill="white" stroke="black" points="1618,-553.67 1618,-572.67 1772,-572.67 1772,-553.67 1618,-553.67"/>
<text text-anchor="middle" x="1695" y="-560.67" font-family="Helvetica,sans-Serif" font-size="10.00">CParser::angle_balanced_list</text>
</a>
</g>
</g>
<!-- Node2&#45;&gt;Node3 -->
<g id="edge2" class="edge"><title>Node2&#45;&gt;Node3</title>
<path fill="none" stroke="midnightblue" d="M1582.22,-556.743C1590.47,-556.541 1599.12,-556.434 1607.8,-556.421"/>
<polygon fill="midnightblue" stroke="midnightblue" points="1607.96,-559.922 1617.97,-556.45 1607.98,-552.922 1607.96,-559.922"/>
</g>
<!-- Node2&#45;&gt;Node4 -->
<g id="edge8" class="edge"><title>Node2&#45;&gt;Node4</title>
<path fill="none" stroke="midnightblue" d="M1545.55,-572.786C1591.09,-592.524 1701.98,-631.767 1772,-582.17 1834.52,-537.882 1844.25,-435.973 1845.48,-392.931"/>
<polygon fill="midnightblue" stroke="midnightblue" points="1848.98,-392.94 1845.64,-382.885 1841.99,-392.828 1848.98,-392.94"/>
</g>
<!-- Node3&#45;&gt;Node2 -->
<g id="edge3" class="edge"><title>Node3&#45;&gt;Node2</title>
<path fill="none" stroke="midnightblue" d="M1617.97,-569.89C1609.42,-569.951 1600.77,-569.92 1592.35,-569.795"/>
<polygon fill="midnightblue" stroke="midnightblue" points="1592.28,-566.293 1582.22,-569.597 1592.15,-573.292 1592.28,-566.293"/>
</g>
<!-- Node3&#45;&gt;Node4 -->
<g id="edge4" class="edge"><title>Node3&#45;&gt;Node4</title>
<path fill="none" stroke="midnightblue" d="M1747.02,-553.652C1756.08,-550.215 1764.89,-545.537 1772,-539.17 1816.51,-499.345 1835.4,-427.526 1842.21,-392.897"/>
<polygon fill="midnightblue" stroke="midnightblue" points="1845.65,-393.515 1844.01,-383.048 1838.77,-392.254 1845.65,-393.515"/>
</g>
<!-- Node5 -->
<g id="node5" class="node"><title>Node5</title>
<g id="a_node5"><a xlink:href="../../da/d6a/classParseUtility.html#aabfa4c56607539ef14be2e2a7260006b" target="_top" xlink:title="ParseUtility::syn">
<polygon fill="white" stroke="black" points="1921,-363.67 1921,-382.67 2012,-382.67 2012,-363.67 1921,-363.67"/>
<text text-anchor="middle" x="1966.5" y="-370.67" font-family="Helvetica,sans-Serif" font-size="10.00">ParseUtility::syn</text>
</a>
</g>
</g>
<!-- Node4&#45;&gt;Node5 -->
<g id="edge5" class="edge"><title>Node4&#45;&gt;Node5</title>
<path fill="none" stroke="midnightblue" d="M1885.16,-373.17C1893.3,-373.17 1902.08,-373.17 1910.73,-373.17"/>
<polygon fill="midnightblue" stroke="midnightblue" points="1910.78,-376.67 1920.78,-373.17 1910.78,-369.67 1910.78,-376.67"/>
</g>
<!-- Node6 -->
<g id="node6" class="node"><title>Node6</title>
<g id="a_node6"><a xlink:href="../../d3/d5e/classParseStore.html#ab21a4aeadb4cc4938b58cbefbb8634e8" target="_top" xlink:title="ParseStore::currentInstance">
<polygon fill="white" stroke="black" points="2048,-382.67 2048,-401.67 2196,-401.67 2196,-382.67 2048,-382.67"/>
<text text-anchor="middle" x="2122" y="-389.67" font-family="Helvetica,sans-Serif" font-size="10.00">ParseStore::currentInstance</text>
</a>
</g>
</g>
<!-- Node5&#45;&gt;Node6 -->
<g id="edge6" class="edge"><title>Node5&#45;&gt;Node6</title>
<path fill="none" stroke="midnightblue" d="M2012.31,-378.717C2020.41,-379.72 2029.09,-380.794 2037.88,-381.882"/>
<polygon fill="midnightblue" stroke="midnightblue" points="2037.48,-385.358 2047.83,-383.113 2038.34,-378.411 2037.48,-385.358"/>
</g>
<!-- Node7 -->
<g id="node7" class="node"><title>Node7</title>
<g id="a_node7"><a xlink:href="../../d3/d5e/classParseStore.html#ae7b3d82d22174c1a1165a592d6c1700c" target="_top" xlink:title="ParseStore::filename">
<polygon fill="white" stroke="black" points="2065,-344.67 2065,-363.67 2179,-363.67 2179,-344.67 2065,-344.67"/>
<text text-anchor="middle" x="2122" y="-351.67" font-family="Helvetica,sans-Serif" font-size="10.00">ParseStore::filename</text>
</a>
</g>
</g>
<!-- Node5&#45;&gt;Node7 -->
<g id="edge7" class="edge"><title>Node5&#45;&gt;Node7</title>
<path fill="none" stroke="midnightblue" d="M2012.31,-367.624C2025.56,-365.984 2040.35,-364.154 2054.64,-362.384"/>
<polygon fill="midnightblue" stroke="midnightblue" points="2055.45,-365.811 2064.94,-361.109 2054.59,-358.864 2055.45,-365.811"/>
</g>
<!-- Node8&#45;&gt;Node4 -->
<g id="edge10" class="edge"><title>Node8&#45;&gt;Node4</title>
<path fill="none" stroke="midnightblue" d="M585.004,-677.17C652.904,-677.17 754.806,-677.17 843.5,-677.17 843.5,-677.17 843.5,-677.17 1525,-677.17 1636,-677.17 1688.95,-713.816 1772,-640.17 1809.78,-606.673 1835.04,-448.42 1842.9,-392.666"/>
<polygon fill="midnightblue" stroke="midnightblue" points="1846.37,-393.06 1844.27,-382.677 1839.44,-392.106 1846.37,-393.06"/>
</g>
<!-- Node9&#45;&gt;Node4 -->
<g id="edge47" class="edge"><title>Node9&#45;&gt;Node4</title>
<path fill="none" stroke="midnightblue" d="M324.511,-127.514C377.312,-99.332 540.266,-19.1703 685.5,-19.1703 685.5,-19.1703 685.5,-19.1703 1525,-19.1703 1635.1,-19.1703 1688.92,34.0805 1772,-38.1703 1820.32,-80.1907 1839.33,-288.079 1844.17,-353.455"/>
<polygon fill="midnightblue" stroke="midnightblue" points="1840.69,-353.896 1844.89,-363.623 1847.68,-353.4 1840.69,-353.896"/>
</g>
<!-- Node10 -->
<g id="node10" class="node"><title>Node10</title>
<g id="a_node10"><a xlink:href="../../d0/df6/classCParser.html#a4bf5a797adb8a33705182662a6a8f45b" target="_top" xlink:title="CParser::operator_identifier">
<polygon fill="white" stroke="black" points="434,-127.67 434,-146.67 581,-146.67 581,-127.67 434,-127.67"/>
<text text-anchor="middle" x="507.5" y="-134.67" font-family="Helvetica,sans-Serif" font-size="10.00">CParser::operator_identifier</text>
</a>
</g>
</g>
<!-- Node9&#45;&gt;Node10 -->
<g id="edge12" class="edge"><title>Node9&#45;&gt;Node10</title>
<path fill="none" stroke="midnightblue" d="M394.213,-137.17C404.018,-137.17 413.988,-137.17 423.734,-137.17"/>
<polygon fill="midnightblue" stroke="midnightblue" points="423.794,-140.67 433.794,-137.17 423.793,-133.67 423.794,-140.67"/>
</g>
<!-- Node10&#45;&gt;Node4 -->
<g id="edge46" class="edge"><title>Node10&#45;&gt;Node4</title>
<path fill="none" stroke="midnightblue" d="M554.877,-127.64C619.323,-115.248 739.751,-95.1703 843.5,-95.1703 843.5,-95.1703 843.5,-95.1703 1525,-95.1703 1635.1,-95.1703 1686.77,-44.4667 1772,-114.17 1809.83,-145.111 1834.9,-298.336 1842.81,-353.411"/>
<polygon fill="midnightblue" stroke="midnightblue" points="1839.39,-354.177 1844.24,-363.595 1846.32,-353.206 1839.39,-354.177"/>
</g>
<!-- Node11 -->
<g id="node11" class="node"><title>Node11</title>
<g id="a_node11"><a xlink:href="../../d0/df6/classCParser.html#a177b7d8d53b6d7c2c89bbea896b3d154" target="_top" xlink:title="CParser::op">
<polygon fill="white" stroke="black" points="808.5,-47.6703 808.5,-66.6703 880.5,-66.6703 880.5,-47.6703 808.5,-47.6703"/>
<text text-anchor="middle" x="844.5" y="-54.6703" font-family="Helvetica,sans-Serif" font-size="10.00">CParser::op</text>
</a>
</g>
</g>
<!-- Node10&#45;&gt;Node11 -->
<g id="edge13" class="edge"><title>Node10&#45;&gt;Node11</title>
<path fill="none" stroke="midnightblue" d="M523.44,-127.561C544.346,-114.634 583.938,-92.0149 621,-81.1703 680.675,-63.709 752.692,-58.7 798.299,-57.3983"/>
<polygon fill="midnightblue" stroke="midnightblue" points="798.543,-60.8936 808.458,-57.1574 798.377,-53.8955 798.543,-60.8936"/>
</g>
<!-- Node12 -->
<g id="node12" class="node"><title>Node12</title>
<g id="a_node12"><a xlink:href="../../d0/df6/classCParser.html#ab214b7a662d6c62ddf8d51f0116865cf" target="_top" xlink:title="CParser::new_or_delete">
<polygon fill="white" stroke="black" points="621,-577.67 621,-596.67 752,-596.67 752,-577.67 621,-577.67"/>
<text text-anchor="middle" x="686.5" y="-584.67" font-family="Helvetica,sans-Serif" font-size="10.00">CParser::new_or_delete</text>
</a>
</g>
</g>
<!-- Node10&#45;&gt;Node12 -->
<g id="edge15" class="edge"><title>Node10&#45;&gt;Node12</title>
<path fill="none" stroke="midnightblue" d="M512.362,-146.988C534.717,-203.824 647.607,-490.831 677.971,-568.028"/>
<polygon fill="midnightblue" stroke="midnightblue" points="674.772,-569.457 681.689,-577.482 681.286,-566.895 674.772,-569.457"/>
</g>
<!-- Node13 -->
<g id="node13" class="node"><title>Node13</title>
<g id="a_node13"><a xlink:href="../../d0/df6/classCParser.html#a5426875088dc6d2b5deaef3b61c55135" target="_top" xlink:title="CParser::type">
<polygon fill="white" stroke="black" points="646.5,-169.67 646.5,-188.67 726.5,-188.67 726.5,-169.67 646.5,-169.67"/>
<text text-anchor="middle" x="686.5" y="-176.67" font-family="Helvetica,sans-Serif" font-size="10.00">CParser::type</text>
</a>
</g>
</g>
<!-- Node10&#45;&gt;Node13 -->
<g id="edge17" class="edge"><title>Node10&#45;&gt;Node13</title>
<path fill="none" stroke="midnightblue" d="M548.664,-146.701C574.735,-152.887 608.88,-160.989 636.539,-167.552"/>
<polygon fill="midnightblue" stroke="midnightblue" points="635.87,-170.991 646.408,-169.894 637.487,-164.18 635.87,-170.991"/>
</g>
<!-- Node11&#45;&gt;Node4 -->
<g id="edge14" class="edge"><title>Node11&#45;&gt;Node4</title>
<path fill="none" stroke="midnightblue" d="M880.595,-57.1703C939.554,-57.1703 1062.23,-57.1703 1166,-57.1703 1166,-57.1703 1166,-57.1703 1525,-57.1703 1635.29,-57.1703 1688.4,-9.23173 1772,-81.1703 1813.98,-117.291 1836.82,-293.637 1843.44,-353.355"/>
<polygon fill="midnightblue" stroke="midnightblue" points="1840,-354.099 1844.55,-363.667 1846.96,-353.35 1840,-354.099"/>
</g>
<!-- Node12&#45;&gt;Node4 -->
<g id="edge16" class="edge"><title>Node12&#45;&gt;Node4</title>
<path fill="none" stroke="midnightblue" d="M752.075,-591.793C814.659,-595.871 912.285,-601.17 997,-601.17 997,-601.17 997,-601.17 1168,-601.17 1302.23,-601.17 1663.89,-688.734 1772,-609.17 1842.09,-557.591 1847.26,-439.649 1846.38,-392.841"/>
<polygon fill="midnightblue" stroke="midnightblue" points="1849.87,-392.678 1846.07,-382.79 1842.88,-392.892 1849.87,-392.678"/>
</g>
<!-- Node13&#45;&gt;Node4 -->
<g id="edge45" class="edge"><title>Node13&#45;&gt;Node4</title>
<path fill="none" stroke="midnightblue" d="M726.311,-169.639C784.671,-156.165 898.676,-133.17 997,-133.17 997,-133.17 997,-133.17 1525,-133.17 1635.21,-133.17 1685.42,-86.9702 1772,-155.17 1834.5,-204.403 1844.24,-309.011 1845.48,-353.008"/>
<polygon fill="midnightblue" stroke="midnightblue" points="1841.99,-353.324 1845.64,-363.268 1848.98,-353.214 1841.99,-353.324"/>
</g>
<!-- Node14 -->
<g id="node14" class="node"><title>Node14</title>
<g id="a_node14"><a xlink:href="../../d0/df6/classCParser.html#aeb64a7eb39e1e247d6b06c833355fd1d" target="_top" xlink:title="CParser::cv_qualifier">
<polygon fill="white" stroke="black" points="788,-208.67 788,-227.67 901,-227.67 901,-208.67 788,-208.67"/>
<text text-anchor="middle" x="844.5" y="-215.67" font-family="Helvetica,sans-Serif" font-size="10.00">CParser::cv_qualifier</text>
</a>
</g>
</g>
<!-- Node13&#45;&gt;Node14 -->
<g id="edge18" class="edge"><title>Node13&#45;&gt;Node14</title>
<path fill="none" stroke="midnightblue" d="M725.662,-188.711C746.704,-193.971 773.033,-200.553 795.463,-206.161"/>
<polygon fill="midnightblue" stroke="midnightblue" points="794.912,-209.631 805.462,-208.661 796.61,-202.84 794.912,-209.631"/>
</g>
<!-- Node16 -->
<g id="node16" class="node"><title>Node16</title>
<g id="a_node16"><a xlink:href="../../d0/df6/classCParser.html#a03c75fc2be131ba2c0a21fd9687b49ca" target="_top" xlink:title="CParser::type_name">
<polygon fill="white" stroke="black" points="788,-325.67 788,-344.67 901,-344.67 901,-325.67 788,-325.67"/>
<text text-anchor="middle" x="844.5" y="-332.67" font-family="Helvetica,sans-Serif" font-size="10.00">CParser::type_name</text>
</a>
</g>
</g>
<!-- Node13&#45;&gt;Node16 -->
<g id="edge21" class="edge"><title>Node13&#45;&gt;Node16</title>
<path fill="none" stroke="midnightblue" d="M697.258,-188.929C723.085,-214.756 793.482,-285.153 826.27,-317.94"/>
<polygon fill="midnightblue" stroke="midnightblue" points="824.199,-320.819 833.745,-325.415 829.149,-315.869 824.199,-320.819"/>
</g>
<!-- Node26 -->
<g id="node26" class="node"><title>Node26</title>
<g id="a_node26"><a xlink:href="../../d0/df6/classCParser.html#acec16523a6abcc5dcaa503fdfec12d5e" target="_top" xlink:title="CParser::indirection\l_modifiers">
<polygon fill="white" stroke="black" points="1469.5,-164.17 1469.5,-194.17 1578.5,-194.17 1578.5,-164.17 1469.5,-164.17"/>
<text text-anchor="start" x="1477.5" y="-182.17" font-family="Helvetica,sans-Serif" font-size="10.00">CParser::indirection</text>
<text text-anchor="middle" x="1524" y="-171.17" font-family="Helvetica,sans-Serif" font-size="10.00">_modifiers</text>
</a>
</g>
</g>
<!-- Node13&#45;&gt;Node26 -->
<g id="edge41" class="edge"><title>Node13&#45;&gt;Node26</title>
<path fill="none" stroke="midnightblue" d="M726.586,-179.17C785.297,-179.17 899.744,-179.17 997,-179.17 997,-179.17 997,-179.17 1168,-179.17 1269.92,-179.17 1388.3,-179.17 1459.34,-179.17"/>
<polygon fill="midnightblue" stroke="midnightblue" points="1459.47,-182.67 1469.47,-179.17 1459.47,-175.67 1459.47,-182.67"/>
</g>
<!-- Node14&#45;&gt;Node4 -->
<g id="edge20" class="edge"><title>Node14&#45;&gt;Node4</title>
<path fill="none" stroke="midnightblue" d="M886.777,-227.737C902.438,-231.104 920.477,-234.669 937,-237.17 1038.09,-252.476 1063.75,-259.17 1166,-259.17 1166,-259.17 1166,-259.17 1525,-259.17 1636.07,-259.17 1673.35,-246.139 1772,-297.17 1798.24,-310.744 1820.54,-337.289 1833.48,-355.131"/>
<polygon fill="midnightblue" stroke="midnightblue" points="1830.77,-357.361 1839.36,-363.553 1836.5,-353.352 1830.77,-357.361"/>
</g>
<!-- Node15 -->
<g id="node15" class="node"><title>Node15</title>
<g id="a_node15"><a xlink:href="../../d0/df6/classCParser.html#a2912da073892123622f3c380820f7a12" target="_top" xlink:title="CParser::typeCombine">
<polygon fill="white" stroke="black" points="937,-208.67 937,-227.67 1059,-227.67 1059,-208.67 937,-208.67"/>
<text text-anchor="middle" x="998" y="-215.67" font-family="Helvetica,sans-Serif" font-size="10.00">CParser::typeCombine</text>
</a>
</g>
</g>
<!-- Node14&#45;&gt;Node15 -->
<g id="edge19" class="edge"><title>Node14&#45;&gt;Node15</title>
<path fill="none" stroke="midnightblue" d="M901.053,-218.17C909.429,-218.17 918.161,-218.17 926.796,-218.17"/>
<polygon fill="midnightblue" stroke="midnightblue" points="926.861,-221.67 936.861,-218.17 926.861,-214.67 926.861,-221.67"/>
</g>
<!-- Node16&#45;&gt;Node4 -->
<g id="edge40" class="edge"><title>Node16&#45;&gt;Node4</title>
<path fill="none" stroke="midnightblue" d="M894.973,-325.63C957.751,-314.374 1069.48,-297.17 1166,-297.17 1166,-297.17 1166,-297.17 1525,-297.17 1636.14,-297.17 1666.21,-302.11 1772,-336.17 1789.13,-341.684 1807.19,-350.727 1821.12,-358.493"/>
<polygon fill="midnightblue" stroke="midnightblue" points="1819.63,-361.672 1830.05,-363.606 1823.11,-355.598 1819.63,-361.672"/>
</g>
<!-- Node17 -->
<g id="node17" class="node"><title>Node17</title>
<g id="a_node17"><a xlink:href="../../d0/df6/classCParser.html#a10a7b42902ca78cb3c11c04eb3b55d96" target="_top" xlink:title="CParser::builtin_type">
<polygon fill="white" stroke="black" points="1467.5,-439.67 1467.5,-458.67 1580.5,-458.67 1580.5,-439.67 1467.5,-439.67"/>
<text text-anchor="middle" x="1524" y="-446.67" font-family="Helvetica,sans-Serif" font-size="10.00">CParser::builtin_type</text>
</a>
</g>
</g>
<!-- Node16&#45;&gt;Node17 -->
<g id="edge22" class="edge"><title>Node16&#45;&gt;Node17</title>
<path fill="none" stroke="midnightblue" d="M858.111,-344.879C875.124,-357.528 906.79,-379.519 937,-392.17 1113.69,-466.16 1345.71,-462.369 1457.38,-455.024"/>
<polygon fill="midnightblue" stroke="midnightblue" points="1457.74,-458.507 1467.48,-454.328 1457.26,-451.524 1457.74,-458.507"/>
</g>
<!-- Node19 -->
<g id="node19" class="node"><title>Node19</title>
<g id="a_node19"><a xlink:href="../../d0/df6/classCParser.html#ab3ce487b55d4cee3cdcb791d4f7c33b0" target="_top" xlink:title="CParser::user_type">
<polygon fill="white" stroke="black" points="944.5,-363.67 944.5,-382.67 1051.5,-382.67 1051.5,-363.67 944.5,-363.67"/>
<text text-anchor="middle" x="998" y="-370.67" font-family="Helvetica,sans-Serif" font-size="10.00">CParser::user_type</text>
</a>
</g>
</g>
<!-- Node16&#45;&gt;Node19 -->
<g id="edge26" class="edge"><title>Node16&#45;&gt;Node19</title>
<path fill="none" stroke="midnightblue" d="M883.73,-344.759C903.632,-349.751 928.157,-355.903 949.291,-361.204"/>
<polygon fill="midnightblue" stroke="midnightblue" points="948.494,-364.612 959.045,-363.65 950.197,-357.822 948.494,-364.612"/>
</g>
<!-- Node17&#45;&gt;Node4 -->
<g id="edge25" class="edge"><title>Node17&#45;&gt;Node4</title>
<path fill="none" stroke="midnightblue" d="M1565.27,-439.622C1624.35,-425.611 1734.35,-399.526 1797.54,-384.543"/>
<polygon fill="midnightblue" stroke="midnightblue" points="1798.72,-387.861 1807.64,-382.148 1797.1,-381.05 1798.72,-387.861"/>
</g>
<!-- Node18 -->
<g id="node18" class="node"><title>Node18</title>
<g id="a_node18"><a xlink:href="../../d0/df6/classCParser.html#a2892a3b78b33e67d6b648ed24668fed0" target="_top" xlink:title="CParser::type_keyword">
<polygon fill="white" stroke="black" points="1632,-439.67 1632,-458.67 1758,-458.67 1758,-439.67 1632,-439.67"/>
<text text-anchor="middle" x="1695" y="-446.67" font-family="Helvetica,sans-Serif" font-size="10.00">CParser::type_keyword</text>
</a>
</g>
</g>
<!-- Node17&#45;&gt;Node18 -->
<g id="edge23" class="edge"><title>Node17&#45;&gt;Node18</title>
<path fill="none" stroke="midnightblue" d="M1580.81,-449.17C1593.83,-449.17 1607.89,-449.17 1621.52,-449.17"/>
<polygon fill="midnightblue" stroke="midnightblue" points="1621.83,-452.67 1631.83,-449.17 1621.83,-445.67 1621.83,-452.67"/>
</g>
<!-- Node18&#45;&gt;Node4 -->
<g id="edge24" class="edge"><title>Node18&#45;&gt;Node4</title>
<path fill="none" stroke="midnightblue" d="M1734.4,-439.568C1746.72,-435.827 1760.23,-431.015 1772,-425.17 1791.71,-415.385 1811.97,-400.636 1826.21,-389.342"/>
<polygon fill="midnightblue" stroke="midnightblue" points="1828.68,-391.848 1834.25,-382.832 1824.27,-386.409 1828.68,-391.848"/>
</g>
<!-- Node19&#45;&gt;Node4 -->
<g id="edge39" class="edge"><title>Node19&#45;&gt;Node4</title>
<path fill="none" stroke="midnightblue" d="M1051.66,-363.923C1120.4,-352.675 1244.55,-335.17 1351.5,-335.17 1351.5,-335.17 1351.5,-335.17 1525,-335.17 1622.4,-335.17 1735.29,-352.69 1797.73,-363.937"/>
<polygon fill="midnightblue" stroke="midnightblue" points="1797.22,-367.4 1807.68,-365.753 1798.47,-360.514 1797.22,-367.4"/>
</g>
<!-- Node20 -->
<g id="node20" class="node"><title>Node20</title>
<g id="a_node20"><a xlink:href="../../d0/df6/classCParser.html#a631e11d228a64f7cd7eaa437a58d2bca" target="_top" xlink:title="CParser::class_key">
<polygon fill="white" stroke="black" points="1299,-363.67 1299,-382.67 1406,-382.67 1406,-363.67 1299,-363.67"/>
<text text-anchor="middle" x="1352.5" y="-370.67" font-family="Helvetica,sans-Serif" font-size="10.00">CParser::class_key</text>
</a>
</g>
</g>
<!-- Node19&#45;&gt;Node20 -->
<g id="edge27" class="edge"><title>Node19&#45;&gt;Node20</title>
<path fill="none" stroke="midnightblue" d="M1051.77,-373.17C1115.16,-373.17 1221.38,-373.17 1288.87,-373.17"/>
<polygon fill="midnightblue" stroke="midnightblue" points="1288.94,-376.67 1298.94,-373.17 1288.94,-369.67 1288.94,-376.67"/>
</g>
<!-- Node22 -->
<g id="node22" class="node"><title>Node22</title>
<g id="a_node22"><a xlink:href="../../d0/df6/classCParser.html#ac121563570276b8286f8351a4f69e56e" target="_top" xlink:title="CParser::scoped_identifier">
<polygon fill="white" stroke="black" points="1096.5,-496.67 1096.5,-515.67 1237.5,-515.67 1237.5,-496.67 1096.5,-496.67"/>
<text text-anchor="middle" x="1167" y="-503.67" font-family="Helvetica,sans-Serif" font-size="10.00">CParser::scoped_identifier</text>
</a>
</g>
</g>
<!-- Node19&#45;&gt;Node22 -->
<g id="edge30" class="edge"><title>Node19&#45;&gt;Node22</title>
<path fill="none" stroke="midnightblue" d="M1011.01,-382.735C1039.28,-405.248 1110.27,-461.79 1145.51,-489.851"/>
<polygon fill="midnightblue" stroke="midnightblue" points="1143.65,-492.841 1153.65,-496.333 1148.01,-487.365 1143.65,-492.841"/>
</g>
<!-- Node24 -->
<g id="node24" class="node"><title>Node24</title>
<g id="a_node24"><a xlink:href="../../da/d6a/classParseUtility.html#a128c7755b687730e50a5c063261f6c78" target="_top" xlink:title="ParseUtility::scopeCombine">
<polygon fill="white" stroke="black" points="1095,-401.67 1095,-420.67 1239,-420.67 1239,-401.67 1095,-401.67"/>
<text text-anchor="middle" x="1167" y="-408.67" font-family="Helvetica,sans-Serif" font-size="10.00">ParseUtility::scopeCombine</text>
</a>
</g>
</g>
<!-- Node19&#45;&gt;Node24 -->
<g id="edge37" class="edge"><title>Node19&#45;&gt;Node24</title>
<path fill="none" stroke="midnightblue" d="M1041.14,-382.759C1063.38,-387.819 1090.85,-394.07 1114.36,-399.419"/>
<polygon fill="midnightblue" stroke="midnightblue" points="1113.63,-402.844 1124.16,-401.65 1115.19,-396.019 1113.63,-402.844"/>
</g>
<!-- Node20&#45;&gt;Node4 -->
<g id="edge29" class="edge"><title>Node20&#45;&gt;Node4</title>
<path fill="none" stroke="midnightblue" d="M1406.15,-373.17C1502.35,-373.17 1705.1,-373.17 1797.63,-373.17"/>
<polygon fill="midnightblue" stroke="midnightblue" points="1797.82,-376.67 1807.82,-373.17 1797.82,-369.67 1797.82,-376.67"/>
</g>
<!-- Node21 -->
<g id="node21" class="node"><title>Node21</title>
<g id="a_node21"><a xlink:href="../../d3/d5e/classParseStore.html#a238b27bbf877e69812ecc620fbc18d5f" target="_top" xlink:title="ParseStore::set_flag">
<polygon fill="white" stroke="black" points="1468,-401.67 1468,-420.67 1580,-420.67 1580,-401.67 1468,-401.67"/>
<text text-anchor="middle" x="1524" y="-408.67" font-family="Helvetica,sans-Serif" font-size="10.00">ParseStore::set_flag</text>
</a>
</g>
</g>
<!-- Node20&#45;&gt;Node21 -->
<g id="edge28" class="edge"><title>Node20&#45;&gt;Node21</title>
<path fill="none" stroke="midnightblue" d="M1396.27,-382.759C1418.84,-387.819 1446.72,-394.07 1470.58,-399.419"/>
<polygon fill="midnightblue" stroke="midnightblue" points="1470.01,-402.878 1480.54,-401.65 1471.54,-396.047 1470.01,-402.878"/>
</g>
<!-- Node22&#45;&gt;Node1 -->
<g id="edge35" class="edge"><title>Node22&#45;&gt;Node1</title>
<path fill="none" stroke="midnightblue" d="M1099.56,-515.706C1034.85,-524.159 933.634,-535.17 845.5,-535.17 506.5,-535.17 506.5,-535.17 506.5,-535.17 359.414,-535.17 191.556,-597.541 123.308,-625.681"/>
<polygon fill="midnightblue" stroke="midnightblue" points="121.859,-622.493 113.976,-629.573 124.553,-628.954 121.859,-622.493"/>
</g>
<!-- Node22&#45;&gt;Node4 -->
<g id="edge36" class="edge"><title>Node22&#45;&gt;Node4</title>
<path fill="none" stroke="midnightblue" d="M1237.53,-513.471C1376.83,-526.737 1684.29,-548.756 1772,-495.17 1810,-471.953 1830.91,-421.024 1839.97,-392.864"/>
<polygon fill="midnightblue" stroke="midnightblue" points="1843.42,-393.556 1842.96,-382.971 1836.72,-391.529 1843.42,-393.556"/>
</g>
<!-- Node23 -->
<g id="node23" class="node"><title>Node23</title>
<g id="a_node23"><a xlink:href="../../d0/df6/classCParser.html#a8b303b41d0199334a5987bb471063729" target="_top" xlink:title="CParser::explicit_scope_spec">
<polygon fill="white" stroke="black" points="1275,-477.67 1275,-496.67 1430,-496.67 1430,-477.67 1275,-477.67"/>
<text text-anchor="middle" x="1352.5" y="-484.67" font-family="Helvetica,sans-Serif" font-size="10.00">CParser::explicit_scope_spec</text>
</a>
</g>
</g>
<!-- Node22&#45;&gt;Node23 -->
<g id="edge31" class="edge"><title>Node22&#45;&gt;Node23</title>
<path fill="none" stroke="midnightblue" d="M1237.64,-498.96C1246.47,-498.045 1255.61,-497.099 1264.67,-496.161"/>
<polygon fill="midnightblue" stroke="midnightblue" points="1265.28,-499.617 1274.86,-495.105 1264.56,-492.654 1265.28,-499.617"/>
</g>
<!-- Node23&#45;&gt;Node2 -->
<g id="edge32" class="edge"><title>Node23&#45;&gt;Node2</title>
<path fill="none" stroke="midnightblue" d="M1374.97,-496.796C1404.64,-510.101 1458.37,-534.19 1492.28,-549.398"/>
<polygon fill="midnightblue" stroke="midnightblue" points="1491.15,-552.725 1501.71,-553.623 1494.01,-546.338 1491.15,-552.725"/>
</g>
<!-- Node23&#45;&gt;Node4 -->
<g id="edge34" class="edge"><title>Node23&#45;&gt;Node4</title>
<path fill="none" stroke="midnightblue" d="M1430.38,-491.26C1534.66,-495.53 1714.55,-497.995 1772,-468.17 1803.62,-451.756 1825.77,-414.943 1837.01,-392.267"/>
<polygon fill="midnightblue" stroke="midnightblue" points="1840.29,-393.503 1841.4,-382.966 1833.96,-390.515 1840.29,-393.503"/>
</g>
<!-- Node23&#45;&gt;Node21 -->
<g id="edge33" class="edge"><title>Node23&#45;&gt;Node21</title>
<path fill="none" stroke="midnightblue" d="M1370.66,-477.472C1392.41,-465.419 1431.25,-444.674 1466,-430.17 1471.11,-428.036 1476.56,-425.969 1481.98,-424.034"/>
<polygon fill="midnightblue" stroke="midnightblue" points="1483.32,-427.275 1491.63,-420.706 1481.04,-420.657 1483.32,-427.275"/>
</g>
<!-- Node25 -->
<g id="node25" class="node"><title>Node25</title>
<g id="a_node25"><a xlink:href="../../d4/d6e/classCCCC__Project.html#ac0565e746210778bc6f165130464041b" target="_top" xlink:title="CCCC_Project::name">
<polygon fill="white" stroke="black" points="1294.5,-401.67 1294.5,-420.67 1410.5,-420.67 1410.5,-401.67 1294.5,-401.67"/>
<text text-anchor="middle" x="1352.5" y="-408.67" font-family="Helvetica,sans-Serif" font-size="10.00">CCCC_Project::name</text>
</a>
</g>
</g>
<!-- Node24&#45;&gt;Node25 -->
<g id="edge38" class="edge"><title>Node24&#45;&gt;Node25</title>
<path fill="none" stroke="midnightblue" d="M1239.21,-411.17C1253.88,-411.17 1269.29,-411.17 1283.84,-411.17"/>
<polygon fill="midnightblue" stroke="midnightblue" points="1284.25,-414.67 1294.25,-411.17 1284.25,-407.67 1284.25,-414.67"/>
</g>
<!-- Node26&#45;&gt;Node4 -->
<g id="edge44" class="edge"><title>Node26&#45;&gt;Node4</title>
<path fill="none" stroke="midnightblue" d="M1578.51,-166.078C1632.46,-156.156 1715.62,-150.202 1772,-190.17 1826.4,-228.737 1840.57,-314.551 1844.23,-353.392"/>
<polygon fill="midnightblue" stroke="midnightblue" points="1840.75,-353.744 1845.04,-363.431 1847.73,-353.183 1840.75,-353.744"/>
</g>
<!-- Node27 -->
<g id="node27" class="node"><title>Node27</title>
<g id="a_node27"><a xlink:href="../../d0/df6/classCParser.html#a80be2f0d41b613906058b6df76ce7815" target="_top" xlink:title="CParser::indirection\l_modifier">
<polygon fill="white" stroke="black" points="1640.5,-200.17 1640.5,-230.17 1749.5,-230.17 1749.5,-200.17 1640.5,-200.17"/>
<text text-anchor="start" x="1648.5" y="-218.17" font-family="Helvetica,sans-Serif" font-size="10.00">CParser::indirection</text>
<text text-anchor="middle" x="1695" y="-207.17" font-family="Helvetica,sans-Serif" font-size="10.00">_modifier</text>
</a>
</g>
</g>
<!-- Node26&#45;&gt;Node27 -->
<g id="edge42" class="edge"><title>Node26&#45;&gt;Node27</title>
<path fill="none" stroke="midnightblue" d="M1578.94,-190.66C1595.33,-194.152 1613.5,-198.021 1630.46,-201.635"/>
<polygon fill="midnightblue" stroke="midnightblue" points="1629.78,-205.068 1640.29,-203.728 1631.23,-198.221 1629.78,-205.068"/>
</g>
<!-- Node27&#45;&gt;Node4 -->
<g id="edge43" class="edge"><title>Node27&#45;&gt;Node4</title>
<path fill="none" stroke="midnightblue" d="M1748.14,-230.281C1756.69,-234.239 1765.02,-239.141 1772,-245.17 1806.74,-275.2 1828.86,-325.913 1839.01,-353.635"/>
<polygon fill="midnightblue" stroke="midnightblue" points="1835.8,-355.078 1842.41,-363.357 1842.41,-352.762 1835.8,-355.078"/>
</g>
</g>
</svg>
