<?xml version="1.0" encoding="UTF-8" standalone="no"?>
<!DOCTYPE svg PUBLIC "-//W3C//DTD SVG 1.1//EN"
 "http://www.w3.org/Graphics/SVG/1.1/DTD/svg11.dtd">
<!-- Generated by graphviz version 2.38.0 (20140413.2041)
 -->
<!-- Title: CParser::item_specifier Pages: 1 -->
<svg width="2497pt" height="271pt"
 viewBox="0.00 0.00 2497.00 271.00" xmlns="http://www.w3.org/2000/svg" xmlns:xlink="http://www.w3.org/1999/xlink">
<g id="graph0" class="graph" transform="scale(1 1) rotate(0) translate(4 267)">
<title>CParser::item_specifier</title>
<polygon fill="white" stroke="none" points="-4,4 -4,-267 2493,-267 2493,4 -4,4"/>
<!-- Node1 -->
<g id="node1" class="node"><title>Node1</title>
<polygon fill="#bfbfbf" stroke="black" points="0,-148.5 0,-167.5 125,-167.5 125,-148.5 0,-148.5"/>
<text text-anchor="middle" x="62.5" y="-155.5" font-family="Helvetica,sans-Serif" font-size="10.00">CParser::item_specifier</text>
</g>
<!-- Node2 -->
<g id="node2" class="node"><title>Node2</title>
<g id="a_node2"><a xlink:href="../../d0/df6/classCParser.html#a9104801570f44810a98b9f3a5a76c06c" target="_top" xlink:title="CParser::instance_item">
<polygon fill="white" stroke="black" points="161,-148.5 161,-167.5 286,-167.5 286,-148.5 161,-148.5"/>
<text text-anchor="middle" x="223.5" y="-155.5" font-family="Helvetica,sans-Serif" font-size="10.00">CParser::instance_item</text>
</a>
</g>
</g>
<!-- Node1&#45;&gt;Node2 -->
<g id="edge1" class="edge"><title>Node1&#45;&gt;Node2</title>
<path fill="none" stroke="midnightblue" d="M135.592,-158C143.99,-158 152.499,-158 160.74,-158"/>
<polygon fill="midnightblue" stroke="midnightblue" points="135.429,-154.5 125.429,-158 135.429,-161.5 135.429,-154.5"/>
</g>
<!-- Node3 -->
<g id="node3" class="node"><title>Node3</title>
<g id="a_node3"><a xlink:href="../../d0/df6/classCParser.html#a6331346ed010ab6c734d29daeb5d896f" target="_top" xlink:title="CParser::instance_declaration">
<polygon fill="white" stroke="black" points="322,-127.5 322,-146.5 480,-146.5 480,-127.5 322,-127.5"/>
<text text-anchor="middle" x="401" y="-134.5" font-family="Helvetica,sans-Serif" font-size="10.00">CParser::instance_declaration</text>
</a>
</g>
</g>
<!-- Node2&#45;&gt;Node3 -->
<g id="edge2" class="edge"><title>Node2&#45;&gt;Node3</title>
<path fill="none" stroke="midnightblue" d="M296.442,-149.391C304.794,-148.392 313.343,-147.369 321.773,-146.36"/>
<polygon fill="midnightblue" stroke="midnightblue" points="295.888,-145.933 286.375,-150.596 296.72,-152.883 295.888,-145.933"/>
</g>
<!-- Node18 -->
<g id="node18" class="node"><title>Node18</title>
<g id="a_node18"><a xlink:href="../../d0/df6/classCParser.html#a70d42f7013f81c71092f771ff9232941" target="_top" xlink:title="CParser::ctor_init_item">
<polygon fill="white" stroke="black" points="339.5,-170.5 339.5,-189.5 462.5,-189.5 462.5,-170.5 339.5,-170.5"/>
<text text-anchor="middle" x="401" y="-177.5" font-family="Helvetica,sans-Serif" font-size="10.00">CParser::ctor_init_item</text>
</a>
</g>
</g>
<!-- Node2&#45;&gt;Node18 -->
<g id="edge20" class="edge"><title>Node2&#45;&gt;Node18</title>
<path fill="none" stroke="midnightblue" d="M296.58,-167.036C310.763,-168.814 325.51,-170.662 339.275,-172.388"/>
<polygon fill="midnightblue" stroke="midnightblue" points="296.732,-163.527 286.375,-165.756 295.862,-170.473 296.732,-163.527"/>
</g>
<!-- Node4 -->
<g id="node4" class="node"><title>Node4</title>
<g id="a_node4"><a xlink:href="../../d0/df6/classCParser.html#ab3ab57ace628c2476dd8dfe5a96f9a15" target="_top" xlink:title="CParser::definition\l_or_declaration">
<polygon fill="white" stroke="black" points="1388,-122 1388,-152 1491,-152 1491,-122 1388,-122"/>
<text text-anchor="start" x="1396" y="-140" font-family="Helvetica,sans-Serif" font-size="10.00">CParser::definition</text>
<text text-anchor="middle" x="1439.5" y="-129" font-family="Helvetica,sans-Serif" font-size="10.00">_or_declaration</text>
</a>
</g>
</g>
<!-- Node3&#45;&gt;Node4 -->
<g id="edge3" class="edge"><title>Node3&#45;&gt;Node4</title>
<path fill="none" stroke="midnightblue" d="M490.113,-137C553.943,-137 642.31,-137 720,-137 720,-137 720,-137 1062,-137 1178.68,-137 1315.69,-137 1387.95,-137"/>
<polygon fill="midnightblue" stroke="midnightblue" points="490.085,-133.5 480.085,-137 490.085,-140.5 490.085,-133.5"/>
</g>
<!-- Node17 -->
<g id="node17" class="node"><title>Node17</title>
<g id="a_node17"><a xlink:href="../../d0/df6/classCParser.html#a4e7cf3c3b19f9c664f345a10116c2c2c" target="_top" xlink:title="CParser::knr_param\l_decl_list">
<polygon fill="white" stroke="black" points="516,-78 516,-108 627,-108 627,-78 516,-78"/>
<text text-anchor="start" x="524" y="-96" font-family="Helvetica,sans-Serif" font-size="10.00">CParser::knr_param</text>
<text text-anchor="middle" x="571.5" y="-85" font-family="Helvetica,sans-Serif" font-size="10.00">_decl_list</text>
</a>
</g>
</g>
<!-- Node3&#45;&gt;Node17 -->
<g id="edge19" class="edge"><title>Node3&#45;&gt;Node17</title>
<path fill="none" stroke="midnightblue" d="M448.449,-124.871C469.289,-119.429 494.021,-112.971 515.755,-107.296"/>
<polygon fill="midnightblue" stroke="midnightblue" points="447.353,-121.54 438.562,-127.453 449.122,-128.312 447.353,-121.54"/>
</g>
<!-- Node5 -->
<g id="node5" class="node"><title>Node5</title>
<g id="a_node5"><a xlink:href="../../d0/df6/classCParser.html#a2b78ab2005bef5c43ee2d4689210eab1" target="_top" xlink:title="CParser::link_item">
<polygon fill="white" stroke="black" points="1546.5,-127.5 1546.5,-146.5 1647.5,-146.5 1647.5,-127.5 1546.5,-127.5"/>
<text text-anchor="middle" x="1597" y="-134.5" font-family="Helvetica,sans-Serif" font-size="10.00">CParser::link_item</text>
</a>
</g>
</g>
<!-- Node4&#45;&gt;Node5 -->
<g id="edge4" class="edge"><title>Node4&#45;&gt;Node5</title>
<path fill="none" stroke="midnightblue" d="M1501.52,-137C1516.36,-137 1532.05,-137 1546.29,-137"/>
<polygon fill="midnightblue" stroke="midnightblue" points="1501.42,-133.5 1491.42,-137 1501.42,-140.5 1501.42,-133.5"/>
</g>
<!-- Node11 -->
<g id="node11" class="node"><title>Node11</title>
<g id="a_node11"><a xlink:href="../../d0/df6/classCParser.html#a85eb09132fa5a588749cea062f0d11ea" target="_top" xlink:title="CParser::class_block_item">
<polygon fill="white" stroke="black" points="1527,-61.5 1527,-80.5 1667,-80.5 1667,-61.5 1527,-61.5"/>
<text text-anchor="middle" x="1597" y="-68.5" font-family="Helvetica,sans-Serif" font-size="10.00">CParser::class_block_item</text>
</a>
</g>
</g>
<!-- Node4&#45;&gt;Node11 -->
<g id="edge12" class="edge"><title>Node4&#45;&gt;Node11</title>
<path fill="none" stroke="midnightblue" d="M1485.64,-117.841C1514.46,-105.609 1550.58,-90.2783 1573.48,-80.5578"/>
<polygon fill="midnightblue" stroke="midnightblue" points="1484.01,-114.729 1476.17,-121.858 1486.75,-121.173 1484.01,-114.729"/>
</g>
<!-- Node6 -->
<g id="node6" class="node"><title>Node6</title>
<g id="a_node6"><a xlink:href="../../d0/df6/classCParser.html#a4f02da23566af37123efb3768769c09b" target="_top" xlink:title="CParser::start">
<polygon fill="white" stroke="black" points="1727.5,-127.5 1727.5,-146.5 1808.5,-146.5 1808.5,-127.5 1727.5,-127.5"/>
<text text-anchor="middle" x="1768" y="-134.5" font-family="Helvetica,sans-Serif" font-size="10.00">CParser::start</text>
</a>
</g>
</g>
<!-- Node5&#45;&gt;Node6 -->
<g id="edge5" class="edge"><title>Node5&#45;&gt;Node6</title>
<path fill="none" stroke="midnightblue" d="M1657.85,-137C1680.95,-137 1706.75,-137 1727.46,-137"/>
<polygon fill="midnightblue" stroke="midnightblue" points="1657.79,-133.5 1647.79,-137 1657.79,-140.5 1657.79,-133.5"/>
</g>
<!-- Node9 -->
<g id="node9" class="node"><title>Node9</title>
<g id="a_node9"><a xlink:href="../../d0/df6/classCParser.html#a86906e492ff9c606fb3537078f46f93e" target="_top" xlink:title="CParser::extern_linkage\l_block">
<polygon fill="white" stroke="black" points="1703,-78 1703,-108 1833,-108 1833,-78 1703,-78"/>
<text text-anchor="start" x="1711" y="-96" font-family="Helvetica,sans-Serif" font-size="10.00">CParser::extern_linkage</text>
<text text-anchor="middle" x="1768" y="-85" font-family="Helvetica,sans-Serif" font-size="10.00">_block</text>
</a>
</g>
</g>
<!-- Node5&#45;&gt;Node9 -->
<g id="edge8" class="edge"><title>Node5&#45;&gt;Node9</title>
<path fill="none" stroke="midnightblue" d="M1626.91,-124.24C1647.73,-117.463 1676.65,-109.487 1702.81,-103.139"/>
<polygon fill="midnightblue" stroke="midnightblue" points="1625.74,-120.941 1617.39,-127.459 1627.98,-127.573 1625.74,-120.941"/>
</g>
<!-- Node10 -->
<g id="node10" class="node"><title>Node10</title>
<g id="a_node10"><a xlink:href="../../d0/df6/classCParser.html#a4fad913a0694a5376ad76669d8943122" target="_top" xlink:title="CParser::namespace\l_block">
<polygon fill="white" stroke="black" points="1710.5,-166 1710.5,-196 1825.5,-196 1825.5,-166 1710.5,-166"/>
<text text-anchor="start" x="1718.5" y="-184" font-family="Helvetica,sans-Serif" font-size="10.00">CParser::namespace</text>
<text text-anchor="middle" x="1768" y="-173" font-family="Helvetica,sans-Serif" font-size="10.00">_block</text>
</a>
</g>
</g>
<!-- Node5&#45;&gt;Node10 -->
<g id="edge10" class="edge"><title>Node5&#45;&gt;Node10</title>
<path fill="none" stroke="midnightblue" d="M1657.7,-146.06C1682.17,-151.891 1709.67,-159.331 1730.97,-165.972"/>
<polygon fill="midnightblue" stroke="midnightblue" points="1658.33,-142.61 1647.79,-143.747 1656.74,-149.427 1658.33,-142.61"/>
</g>
<!-- Node7 -->
<g id="node7" class="node"><title>Node7</title>
<g id="a_node7"><a xlink:href="../../db/d4a/classMain.html#a803470658c644fa9512140f9d8398dd5" target="_top" xlink:title="Main::ParseFiles">
<polygon fill="white" stroke="black" points="1879,-127.5 1879,-146.5 1973,-146.5 1973,-127.5 1879,-127.5"/>
<text text-anchor="middle" x="1926" y="-134.5" font-family="Helvetica,sans-Serif" font-size="10.00">Main::ParseFiles</text>
</a>
</g>
</g>
<!-- Node6&#45;&gt;Node7 -->
<g id="edge6" class="edge"><title>Node6&#45;&gt;Node7</title>
<path fill="none" stroke="midnightblue" d="M1818.87,-137C1838.14,-137 1860.05,-137 1878.94,-137"/>
<polygon fill="midnightblue" stroke="midnightblue" points="1818.77,-133.5 1808.77,-137 1818.77,-140.5 1818.77,-133.5"/>
</g>
<!-- Node8 -->
<g id="node8" class="node"><title>Node8</title>
<g id="a_node8"><a xlink:href="../../d6/d93/ccccmain_8cc.html#a3c04138a5bfe5d72780bb7e82a18e627" target="_top" xlink:title="main">
<polygon fill="white" stroke="black" points="2056.5,-127.5 2056.5,-146.5 2095.5,-146.5 2095.5,-127.5 2056.5,-127.5"/>
<text text-anchor="middle" x="2076" y="-134.5" font-family="Helvetica,sans-Serif" font-size="10.00">main</text>
</a>
</g>
</g>
<!-- Node7&#45;&gt;Node8 -->
<g id="edge7" class="edge"><title>Node7&#45;&gt;Node8</title>
<path fill="none" stroke="midnightblue" d="M1983.15,-137C2009.09,-137 2038.14,-137 2056.49,-137"/>
<polygon fill="midnightblue" stroke="midnightblue" points="1983.02,-133.5 1973.02,-137 1983.02,-140.5 1983.02,-133.5"/>
</g>
<!-- Node9&#45;&gt;Node5 -->
<g id="edge9" class="edge"><title>Node9&#45;&gt;Node5</title>
<path fill="none" stroke="midnightblue" d="M1721.22,-110.994C1698.51,-117.757 1671.03,-124.958 1647.79,-130.253"/>
<polygon fill="midnightblue" stroke="midnightblue" points="1722.42,-114.289 1730.97,-108.028 1720.38,-107.592 1722.42,-114.289"/>
</g>
<!-- Node10&#45;&gt;Node5 -->
<g id="edge11" class="edge"><title>Node10&#45;&gt;Node5</title>
<path fill="none" stroke="midnightblue" d="M1700.36,-170.265C1670.55,-162.964 1637.64,-153.687 1617.39,-146.541"/>
<polygon fill="midnightblue" stroke="midnightblue" points="1699.79,-173.726 1710.33,-172.659 1701.42,-166.92 1699.79,-173.726"/>
</g>
<!-- Node12 -->
<g id="node12" class="node"><title>Node12</title>
<g id="a_node12"><a xlink:href="../../d0/df6/classCParser.html#a4b9f00c05d44a13b3c18b28b52f5be9e" target="_top" xlink:title="CParser::class_block\l_item_list">
<polygon fill="white" stroke="black" points="1711,-29 1711,-59 1825,-59 1825,-29 1711,-29"/>
<text text-anchor="start" x="1719" y="-47" font-family="Helvetica,sans-Serif" font-size="10.00">CParser::class_block</text>
<text text-anchor="middle" x="1768" y="-36" font-family="Helvetica,sans-Serif" font-size="10.00">_item_list</text>
</a>
</g>
</g>
<!-- Node11&#45;&gt;Node12 -->
<g id="edge13" class="edge"><title>Node11&#45;&gt;Node12</title>
<path fill="none" stroke="midnightblue" d="M1667.87,-59.8377C1682.17,-57.5534 1697.04,-55.177 1710.79,-52.9809"/>
<polygon fill="midnightblue" stroke="midnightblue" points="1666.91,-56.4469 1657.58,-61.4808 1668.01,-63.3593 1666.91,-56.4469"/>
</g>
<!-- Node13 -->
<g id="node13" class="node"><title>Node13</title>
<g id="a_node13"><a xlink:href="../../d0/df6/classCParser.html#a06c7cac9034f27ad6d998b49a7b574c8" target="_top" xlink:title="CParser::class_block">
<polygon fill="white" stroke="black" points="1869,-34.5 1869,-53.5 1983,-53.5 1983,-34.5 1869,-34.5"/>
<text text-anchor="middle" x="1926" y="-41.5" font-family="Helvetica,sans-Serif" font-size="10.00">CParser::class_block</text>
</a>
</g>
</g>
<!-- Node12&#45;&gt;Node13 -->
<g id="edge14" class="edge"><title>Node12&#45;&gt;Node13</title>
<path fill="none" stroke="midnightblue" d="M1835.4,-44C1846.51,-44 1857.94,-44 1868.76,-44"/>
<polygon fill="midnightblue" stroke="midnightblue" points="1835.32,-40.5001 1825.32,-44 1835.32,-47.5001 1835.32,-40.5001"/>
</g>
<!-- Node14 -->
<g id="node14" class="node"><title>Node14</title>
<g id="a_node14"><a xlink:href="../../d0/df6/classCParser.html#a40fba8426e7ac46e9926515ee81e97f3" target="_top" xlink:title="CParser::class_suffix">
<polygon fill="white" stroke="black" points="2019,-34.5 2019,-53.5 2133,-53.5 2133,-34.5 2019,-34.5"/>
<text text-anchor="middle" x="2076" y="-41.5" font-family="Helvetica,sans-Serif" font-size="10.00">CParser::class_suffix</text>
</a>
</g>
</g>
<!-- Node13&#45;&gt;Node14 -->
<g id="edge15" class="edge"><title>Node13&#45;&gt;Node14</title>
<path fill="none" stroke="midnightblue" d="M1993.56,-44C2001.98,-44 2010.54,-44 2018.78,-44"/>
<polygon fill="midnightblue" stroke="midnightblue" points="1993.37,-40.5001 1983.37,-44 1993.37,-47.5001 1993.37,-40.5001"/>
</g>
<!-- Node15 -->
<g id="node15" class="node"><title>Node15</title>
<g id="a_node15"><a xlink:href="../../d0/df6/classCParser.html#a1ed5fcfb2e97e3551fceabe81989a667" target="_top" xlink:title="CParser::class_declaration\l_or_definition">
<polygon fill="white" stroke="black" points="2169,-29 2169,-59 2312,-59 2312,-29 2169,-29"/>
<text text-anchor="start" x="2177" y="-47" font-family="Helvetica,sans-Serif" font-size="10.00">CParser::class_declaration</text>
<text text-anchor="middle" x="2240.5" y="-36" font-family="Helvetica,sans-Serif" font-size="10.00">_or_definition</text>
</a>
</g>
</g>
<!-- Node14&#45;&gt;Node15 -->
<g id="edge16" class="edge"><title>Node14&#45;&gt;Node15</title>
<path fill="none" stroke="midnightblue" d="M2143.47,-44C2151.86,-44 2160.46,-44 2168.91,-44"/>
<polygon fill="midnightblue" stroke="midnightblue" points="2143.38,-40.5001 2133.38,-44 2143.38,-47.5001 2143.38,-40.5001"/>
</g>
<!-- Node15&#45;&gt;Node4 -->
<g id="edge17" class="edge"><title>Node15&#45;&gt;Node4</title>
<path fill="none" stroke="midnightblue" d="M2162.36,-27.0145C2099.37,-14.6274 2007.87,-0 1927,-0 1767,-0 1767,-0 1767,-0 1657.86,-7.10543e-15 1623.04,-0.153266 1527,-52 1494.76,-69.403 1466.39,-102.417 1451.52,-121.781"/>
<polygon fill="midnightblue" stroke="midnightblue" points="2161.73,-30.4572 2172.22,-28.9808 2163.1,-23.5924 2161.73,-30.4572"/>
</g>
<!-- Node16 -->
<g id="node16" class="node"><title>Node16</title>
<g id="a_node16"><a xlink:href="../../d0/df6/classCParser.html#a12561a45dab96760d7ab45896681dd33" target="_top" xlink:title="CParser::class_or_method\l_declaration_or_definition">
<polygon fill="white" stroke="black" points="2348,-210 2348,-240 2489,-240 2489,-210 2348,-210"/>
<text text-anchor="start" x="2356" y="-228" font-family="Helvetica,sans-Serif" font-size="10.00">CParser::class_or_method</text>
<text text-anchor="middle" x="2418.5" y="-217" font-family="Helvetica,sans-Serif" font-size="10.00">_declaration_or_definition</text>
</a>
</g>
</g>
<!-- Node15&#45;&gt;Node16 -->
<g id="edge18" class="edge"><title>Node15&#45;&gt;Node16</title>
<path fill="none" stroke="midnightblue" d="M2263.4,-66.5199C2299.77,-103.929 2371.71,-177.913 2402.72,-209.795"/>
<polygon fill="midnightblue" stroke="midnightblue" points="2265.68,-63.8501 2256.2,-59.1206 2260.67,-68.73 2265.68,-63.8501"/>
</g>
<!-- Node19 -->
<g id="node19" class="node"><title>Node19</title>
<g id="a_node19"><a xlink:href="../../d0/df6/classCParser.html#a617e49ab4458d5b4adf577a6a0bc05cd" target="_top" xlink:title="CParser::ctor_init\l_item_list">
<polygon fill="white" stroke="black" points="522.5,-171 522.5,-201 620.5,-201 620.5,-171 522.5,-171"/>
<text text-anchor="start" x="530.5" y="-189" font-family="Helvetica,sans-Serif" font-size="10.00">CParser::ctor_init</text>
<text text-anchor="middle" x="571.5" y="-178" font-family="Helvetica,sans-Serif" font-size="10.00">_item_list</text>
</a>
</g>
</g>
<!-- Node18&#45;&gt;Node19 -->
<g id="edge21" class="edge"><title>Node18&#45;&gt;Node19</title>
<path fill="none" stroke="midnightblue" d="M473.081,-182.531C489.727,-183.124 507.075,-183.742 522.44,-184.289"/>
<polygon fill="midnightblue" stroke="midnightblue" points="472.951,-179.024 462.832,-182.166 472.701,-186.02 472.951,-179.024"/>
</g>
<!-- Node20 -->
<g id="node20" class="node"><title>Node20</title>
<g id="a_node20"><a xlink:href="../../d0/df6/classCParser.html#ab6c0eabf2b00874bf8f70b576d96ce52" target="_top" xlink:title="CParser::ctor_init_list">
<polygon fill="white" stroke="black" points="663,-178.5 663,-197.5 779,-197.5 779,-178.5 663,-178.5"/>
<text text-anchor="middle" x="721" y="-185.5" font-family="Helvetica,sans-Serif" font-size="10.00">CParser::ctor_init_list</text>
</a>
</g>
</g>
<!-- Node19&#45;&gt;Node20 -->
<g id="edge22" class="edge"><title>Node19&#45;&gt;Node20</title>
<path fill="none" stroke="midnightblue" d="M631.087,-186.794C641.552,-186.936 652.443,-187.084 662.867,-187.225"/>
<polygon fill="midnightblue" stroke="midnightblue" points="630.844,-183.291 620.797,-186.655 630.749,-190.29 630.844,-183.291"/>
</g>
<!-- Node21 -->
<g id="node21" class="node"><title>Node21</title>
<g id="a_node21"><a xlink:href="../../d0/df6/classCParser.html#ad7a6fd3a8b7daa3c26191f4512236a59" target="_top" xlink:title="CParser::method_suffix">
<polygon fill="white" stroke="black" points="815,-197.5 815,-216.5 940,-216.5 940,-197.5 815,-197.5"/>
<text text-anchor="middle" x="877.5" y="-204.5" font-family="Helvetica,sans-Serif" font-size="10.00">CParser::method_suffix</text>
</a>
</g>
</g>
<!-- Node20&#45;&gt;Node21 -->
<g id="edge23" class="edge"><title>Node20&#45;&gt;Node21</title>
<path fill="none" stroke="midnightblue" d="M789.086,-196.25C797.689,-197.308 806.464,-198.387 814.973,-199.434"/>
<polygon fill="midnightblue" stroke="midnightblue" points="789.444,-192.768 779.091,-195.021 788.589,-199.715 789.444,-192.768"/>
</g>
<!-- Node22 -->
<g id="node22" class="node"><title>Node22</title>
<g id="a_node22"><a xlink:href="../../d0/df6/classCParser.html#a0dd2a579512bf1a17aaeac5fdec860a7" target="_top" xlink:title="CParser::method_declaration\l_or_definition_with_implicit_type">
<polygon fill="white" stroke="black" points="976,-201 976,-231 1146,-231 1146,-201 976,-201"/>
<text text-anchor="start" x="984" y="-219" font-family="Helvetica,sans-Serif" font-size="10.00">CParser::method_declaration</text>
<text text-anchor="middle" x="1061" y="-208" font-family="Helvetica,sans-Serif" font-size="10.00">_or_definition_with_implicit_type</text>
</a>
</g>
</g>
<!-- Node21&#45;&gt;Node22 -->
<g id="edge24" class="edge"><title>Node21&#45;&gt;Node22</title>
<path fill="none" stroke="midnightblue" d="M950.336,-210.562C958.755,-210.98 967.401,-211.408 975.966,-211.833"/>
<polygon fill="midnightblue" stroke="midnightblue" points="950.362,-207.059 940.201,-210.06 950.015,-214.051 950.362,-207.059"/>
</g>
<!-- Node22&#45;&gt;Node4 -->
<g id="edge25" class="edge"><title>Node22&#45;&gt;Node4</title>
<path fill="none" stroke="midnightblue" d="M1143.5,-198.899C1217.79,-183.31 1325.22,-160.77 1387.85,-147.627"/>
<polygon fill="midnightblue" stroke="midnightblue" points="1142.77,-195.476 1133.7,-200.955 1144.21,-202.327 1142.77,-195.476"/>
</g>
<!-- Node22&#45;&gt;Node16 -->
<g id="edge29" class="edge"><title>Node22&#45;&gt;Node16</title>
<path fill="none" stroke="midnightblue" d="M1128.44,-233.44C1145.77,-237.455 1164.5,-241.327 1182,-244 1295,-261.262 1324.19,-263 1438.5,-263 1438.5,-263 1438.5,-263 2077,-263 2171.28,-263 2279.34,-248.433 2347.98,-237.338"/>
<polygon fill="midnightblue" stroke="midnightblue" points="1128.96,-229.966 1118.42,-231.068 1127.34,-236.777 1128.96,-229.966"/>
</g>
<!-- Node23 -->
<g id="node23" class="node"><title>Node23</title>
<g id="a_node23"><a xlink:href="../../d0/df6/classCParser.html#af0c9d35d4c997c6f34cf4a26563b513c" target="_top" xlink:title="CParser::method_declaration\l_or_definition_with_explicit_type">
<polygon fill="white" stroke="black" points="1182,-204 1182,-234 1352,-234 1352,-204 1182,-204"/>
<text text-anchor="start" x="1190" y="-222" font-family="Helvetica,sans-Serif" font-size="10.00">CParser::method_declaration</text>
<text text-anchor="middle" x="1267" y="-211" font-family="Helvetica,sans-Serif" font-size="10.00">_or_definition_with_explicit_type</text>
</a>
</g>
</g>
<!-- Node22&#45;&gt;Node23 -->
<g id="edge26" class="edge"><title>Node22&#45;&gt;Node23</title>
<path fill="none" stroke="midnightblue" d="M1156.4,-217.388C1164.85,-217.512 1173.36,-217.638 1181.71,-217.76"/>
<polygon fill="midnightblue" stroke="midnightblue" points="1156.2,-213.885 1146.15,-217.238 1156.1,-220.884 1156.2,-213.885"/>
</g>
<!-- Node23&#45;&gt;Node4 -->
<g id="edge27" class="edge"><title>Node23&#45;&gt;Node4</title>
<path fill="none" stroke="midnightblue" d="M1324.83,-200.436C1334.04,-196.936 1343.38,-193.082 1352,-189 1374.65,-178.279 1398.98,-163.31 1416.06,-152.184"/>
<polygon fill="midnightblue" stroke="midnightblue" points="1323.49,-197.202 1315.32,-203.95 1325.91,-203.769 1323.49,-197.202"/>
</g>
<!-- Node23&#45;&gt;Node16 -->
<g id="edge28" class="edge"><title>Node23&#45;&gt;Node16</title>
<path fill="none" stroke="midnightblue" d="M1362.57,-221.645C1428.09,-223.254 1517.34,-225 1596,-225 1596,-225 1596,-225 2077,-225 2170.7,-225 2278.9,-225 2347.72,-225"/>
<polygon fill="midnightblue" stroke="midnightblue" points="1362.34,-218.139 1352.26,-221.389 1362.17,-225.137 1362.34,-218.139"/>
</g>
</g>
</svg>
