<?xml version="1.0" encoding="UTF-8" standalone="no"?>
<!DOCTYPE svg PUBLIC "-//W3C//DTD SVG 1.1//EN"
 "http://www.w3.org/Graphics/SVG/1.1/DTD/svg11.dtd">
<!-- Generated by graphviz version 2.38.0 (20140413.2041)
 -->
<!-- Title: CParser::ctor_init_item Pages: 1 -->
<svg width="2127pt" height="271pt"
 viewBox="0.00 0.00 2127.00 271.00" xmlns="http://www.w3.org/2000/svg" xmlns:xlink="http://www.w3.org/1999/xlink">
<g id="graph0" class="graph" transform="scale(1 1) rotate(0) translate(4 267)">
<title>CParser::ctor_init_item</title>
<polygon fill="white" stroke="none" points="-4,4 -4,-267 2123,-267 2123,4 -4,4"/>
<!-- Node1 -->
<g id="node1" class="node"><title>Node1</title>
<polygon fill="#bfbfbf" stroke="black" points="0,-144.5 0,-163.5 123,-163.5 123,-144.5 0,-144.5"/>
<text text-anchor="middle" x="61.5" y="-151.5" font-family="Helvetica,sans-Serif" font-size="10.00">CParser::ctor_init_item</text>
</g>
<!-- Node2 -->
<g id="node2" class="node"><title>Node2</title>
<g id="a_node2"><a xlink:href="../../d0/df6/classCParser.html#a617e49ab4458d5b4adf577a6a0bc05cd" target="_top" xlink:title="CParser::ctor_init\l_item_list">
<polygon fill="white" stroke="black" points="159,-139 159,-169 257,-169 257,-139 159,-139"/>
<text text-anchor="start" x="167" y="-157" font-family="Helvetica,sans-Serif" font-size="10.00">CParser::ctor_init</text>
<text text-anchor="middle" x="208" y="-146" font-family="Helvetica,sans-Serif" font-size="10.00">_item_list</text>
</a>
</g>
</g>
<!-- Node1&#45;&gt;Node2 -->
<g id="edge1" class="edge"><title>Node1&#45;&gt;Node2</title>
<path fill="none" stroke="midnightblue" d="M133.455,-154C142.087,-154 150.744,-154 158.932,-154"/>
<polygon fill="midnightblue" stroke="midnightblue" points="133.362,-150.5 123.362,-154 133.362,-157.5 133.362,-150.5"/>
</g>
<!-- Node3 -->
<g id="node3" class="node"><title>Node3</title>
<g id="a_node3"><a xlink:href="../../d0/df6/classCParser.html#ab6c0eabf2b00874bf8f70b576d96ce52" target="_top" xlink:title="CParser::ctor_init_list">
<polygon fill="white" stroke="black" points="293,-144.5 293,-163.5 409,-163.5 409,-144.5 293,-144.5"/>
<text text-anchor="middle" x="351" y="-151.5" font-family="Helvetica,sans-Serif" font-size="10.00">CParser::ctor_init_list</text>
</a>
</g>
</g>
<!-- Node2&#45;&gt;Node3 -->
<g id="edge2" class="edge"><title>Node2&#45;&gt;Node3</title>
<path fill="none" stroke="midnightblue" d="M267.28,-154C275.727,-154 284.416,-154 292.84,-154"/>
<polygon fill="midnightblue" stroke="midnightblue" points="267.13,-150.5 257.13,-154 267.13,-157.5 267.13,-150.5"/>
</g>
<!-- Node4 -->
<g id="node4" class="node"><title>Node4</title>
<g id="a_node4"><a xlink:href="../../d0/df6/classCParser.html#ad7a6fd3a8b7daa3c26191f4512236a59" target="_top" xlink:title="CParser::method_suffix">
<polygon fill="white" stroke="black" points="445,-144.5 445,-163.5 570,-163.5 570,-144.5 445,-144.5"/>
<text text-anchor="middle" x="507.5" y="-151.5" font-family="Helvetica,sans-Serif" font-size="10.00">CParser::method_suffix</text>
</a>
</g>
</g>
<!-- Node3&#45;&gt;Node4 -->
<g id="edge3" class="edge"><title>Node3&#45;&gt;Node4</title>
<path fill="none" stroke="midnightblue" d="M419.367,-154C427.88,-154 436.556,-154 444.973,-154"/>
<polygon fill="midnightblue" stroke="midnightblue" points="419.091,-150.5 409.091,-154 419.091,-157.5 419.091,-150.5"/>
</g>
<!-- Node5 -->
<g id="node5" class="node"><title>Node5</title>
<g id="a_node5"><a xlink:href="../../d0/df6/classCParser.html#a0dd2a579512bf1a17aaeac5fdec860a7" target="_top" xlink:title="CParser::method_declaration\l_or_definition_with_implicit_type">
<polygon fill="white" stroke="black" points="606,-139 606,-169 776,-169 776,-139 606,-139"/>
<text text-anchor="start" x="614" y="-157" font-family="Helvetica,sans-Serif" font-size="10.00">CParser::method_declaration</text>
<text text-anchor="middle" x="691" y="-146" font-family="Helvetica,sans-Serif" font-size="10.00">_or_definition_with_implicit_type</text>
</a>
</g>
</g>
<!-- Node4&#45;&gt;Node5 -->
<g id="edge4" class="edge"><title>Node4&#45;&gt;Node5</title>
<path fill="none" stroke="midnightblue" d="M580.336,-154C588.755,-154 597.401,-154 605.966,-154"/>
<polygon fill="midnightblue" stroke="midnightblue" points="580.201,-150.5 570.201,-154 580.201,-157.5 580.201,-150.5"/>
</g>
<!-- Node6 -->
<g id="node6" class="node"><title>Node6</title>
<g id="a_node6"><a xlink:href="../../d0/df6/classCParser.html#ab3ab57ace628c2476dd8dfe5a96f9a15" target="_top" xlink:title="CParser::definition\l_or_declaration">
<polygon fill="white" stroke="black" points="1018,-117 1018,-147 1121,-147 1121,-117 1018,-117"/>
<text text-anchor="start" x="1026" y="-135" font-family="Helvetica,sans-Serif" font-size="10.00">CParser::definition</text>
<text text-anchor="middle" x="1069.5" y="-124" font-family="Helvetica,sans-Serif" font-size="10.00">_or_declaration</text>
</a>
</g>
</g>
<!-- Node5&#45;&gt;Node6 -->
<g id="edge5" class="edge"><title>Node5&#45;&gt;Node6</title>
<path fill="none" stroke="midnightblue" d="M786.213,-148.495C859.67,-144.203 958.833,-138.408 1017.97,-134.953"/>
<polygon fill="midnightblue" stroke="midnightblue" points="785.804,-145.013 776.025,-149.09 786.213,-152.001 785.804,-145.013"/>
</g>
<!-- Node18 -->
<g id="node18" class="node"><title>Node18</title>
<g id="a_node18"><a xlink:href="../../d0/df6/classCParser.html#a12561a45dab96760d7ab45896681dd33" target="_top" xlink:title="CParser::class_or_method\l_declaration_or_definition">
<polygon fill="white" stroke="black" points="1978,-120 1978,-150 2119,-150 2119,-120 1978,-120"/>
<text text-anchor="start" x="1986" y="-138" font-family="Helvetica,sans-Serif" font-size="10.00">CParser::class_or_method</text>
<text text-anchor="middle" x="2048.5" y="-127" font-family="Helvetica,sans-Serif" font-size="10.00">_declaration_or_definition</text>
</a>
</g>
</g>
<!-- Node5&#45;&gt;Node18 -->
<g id="edge24" class="edge"><title>Node5&#45;&gt;Node18</title>
<path fill="none" stroke="midnightblue" d="M731.78,-173.581C799.294,-204.956 941.376,-263 1068.5,-263 1068.5,-263 1068.5,-263 1707,-263 1833.94,-263 1971.45,-184.092 2024.68,-150.186"/>
<polygon fill="midnightblue" stroke="midnightblue" points="732.91,-170.245 722.371,-169.156 729.931,-176.579 732.91,-170.245"/>
</g>
<!-- Node19 -->
<g id="node19" class="node"><title>Node19</title>
<g id="a_node19"><a xlink:href="../../d0/df6/classCParser.html#af0c9d35d4c997c6f34cf4a26563b513c" target="_top" xlink:title="CParser::method_declaration\l_or_definition_with_explicit_type">
<polygon fill="white" stroke="black" points="812,-95 812,-125 982,-125 982,-95 812,-95"/>
<text text-anchor="start" x="820" y="-113" font-family="Helvetica,sans-Serif" font-size="10.00">CParser::method_declaration</text>
<text text-anchor="middle" x="897" y="-102" font-family="Helvetica,sans-Serif" font-size="10.00">_or_definition_with_explicit_type</text>
</a>
</g>
</g>
<!-- Node5&#45;&gt;Node19 -->
<g id="edge21" class="edge"><title>Node5&#45;&gt;Node19</title>
<path fill="none" stroke="midnightblue" d="M771.56,-136.84C789.637,-132.941 808.704,-128.829 826.333,-125.026"/>
<polygon fill="midnightblue" stroke="midnightblue" points="770.672,-133.451 761.635,-138.981 772.148,-140.294 770.672,-133.451"/>
</g>
<!-- Node7 -->
<g id="node7" class="node"><title>Node7</title>
<g id="a_node7"><a xlink:href="../../d0/df6/classCParser.html#a2b78ab2005bef5c43ee2d4689210eab1" target="_top" xlink:title="CParser::link_item">
<polygon fill="white" stroke="black" points="1176.5,-122.5 1176.5,-141.5 1277.5,-141.5 1277.5,-122.5 1176.5,-122.5"/>
<text text-anchor="middle" x="1227" y="-129.5" font-family="Helvetica,sans-Serif" font-size="10.00">CParser::link_item</text>
</a>
</g>
</g>
<!-- Node6&#45;&gt;Node7 -->
<g id="edge6" class="edge"><title>Node6&#45;&gt;Node7</title>
<path fill="none" stroke="midnightblue" d="M1131.52,-132C1146.36,-132 1162.05,-132 1176.29,-132"/>
<polygon fill="midnightblue" stroke="midnightblue" points="1131.42,-128.5 1121.42,-132 1131.42,-135.5 1131.42,-128.5"/>
</g>
<!-- Node13 -->
<g id="node13" class="node"><title>Node13</title>
<g id="a_node13"><a xlink:href="../../d0/df6/classCParser.html#a85eb09132fa5a588749cea062f0d11ea" target="_top" xlink:title="CParser::class_block_item">
<polygon fill="white" stroke="black" points="1157,-59.5 1157,-78.5 1297,-78.5 1297,-59.5 1157,-59.5"/>
<text text-anchor="middle" x="1227" y="-66.5" font-family="Helvetica,sans-Serif" font-size="10.00">CParser::class_block_item</text>
</a>
</g>
</g>
<!-- Node6&#45;&gt;Node13 -->
<g id="edge14" class="edge"><title>Node6&#45;&gt;Node13</title>
<path fill="none" stroke="midnightblue" d="M1117.34,-113.023C1145.3,-101.697 1179.62,-87.7899 1202.12,-78.6761"/>
<polygon fill="midnightblue" stroke="midnightblue" points="1115.7,-109.911 1107.75,-116.91 1118.33,-116.399 1115.7,-109.911"/>
</g>
<!-- Node8 -->
<g id="node8" class="node"><title>Node8</title>
<g id="a_node8"><a xlink:href="../../d0/df6/classCParser.html#a4f02da23566af37123efb3768769c09b" target="_top" xlink:title="CParser::start">
<polygon fill="white" stroke="black" points="1357.5,-78.5 1357.5,-97.5 1438.5,-97.5 1438.5,-78.5 1357.5,-78.5"/>
<text text-anchor="middle" x="1398" y="-85.5" font-family="Helvetica,sans-Serif" font-size="10.00">CParser::start</text>
</a>
</g>
</g>
<!-- Node7&#45;&gt;Node8 -->
<g id="edge7" class="edge"><title>Node7&#45;&gt;Node8</title>
<path fill="none" stroke="midnightblue" d="M1274.69,-119.845C1301.73,-112.805 1335.28,-104.069 1360.4,-97.5287"/>
<polygon fill="midnightblue" stroke="midnightblue" points="1273.47,-116.546 1264.67,-122.453 1275.23,-123.32 1273.47,-116.546"/>
</g>
<!-- Node11 -->
<g id="node11" class="node"><title>Node11</title>
<g id="a_node11"><a xlink:href="../../d0/df6/classCParser.html#a86906e492ff9c606fb3537078f46f93e" target="_top" xlink:title="CParser::extern_linkage\l_block">
<polygon fill="white" stroke="black" points="1333,-166 1333,-196 1463,-196 1463,-166 1333,-166"/>
<text text-anchor="start" x="1341" y="-184" font-family="Helvetica,sans-Serif" font-size="10.00">CParser::extern_linkage</text>
<text text-anchor="middle" x="1398" y="-173" font-family="Helvetica,sans-Serif" font-size="10.00">_block</text>
</a>
</g>
</g>
<!-- Node7&#45;&gt;Node11 -->
<g id="edge10" class="edge"><title>Node7&#45;&gt;Node11</title>
<path fill="none" stroke="midnightblue" d="M1287.47,-142.762C1313.21,-149.653 1342.35,-158.438 1364.1,-165.986"/>
<polygon fill="midnightblue" stroke="midnightblue" points="1288.35,-139.376 1277.79,-140.221 1286.57,-146.147 1288.35,-139.376"/>
</g>
<!-- Node12 -->
<g id="node12" class="node"><title>Node12</title>
<g id="a_node12"><a xlink:href="../../d0/df6/classCParser.html#a4fad913a0694a5376ad76669d8943122" target="_top" xlink:title="CParser::namespace\l_block">
<polygon fill="white" stroke="black" points="1340.5,-117 1340.5,-147 1455.5,-147 1455.5,-117 1340.5,-117"/>
<text text-anchor="start" x="1348.5" y="-135" font-family="Helvetica,sans-Serif" font-size="10.00">CParser::namespace</text>
<text text-anchor="middle" x="1398" y="-124" font-family="Helvetica,sans-Serif" font-size="10.00">_block</text>
</a>
</g>
</g>
<!-- Node7&#45;&gt;Node12 -->
<g id="edge12" class="edge"><title>Node7&#45;&gt;Node12</title>
<path fill="none" stroke="midnightblue" d="M1288.17,-125.505C1305.19,-125.139 1323.65,-125.167 1340.45,-125.589"/>
<polygon fill="midnightblue" stroke="midnightblue" points="1287.69,-122.017 1277.79,-125.784 1287.88,-129.014 1287.69,-122.017"/>
</g>
<!-- Node9 -->
<g id="node9" class="node"><title>Node9</title>
<g id="a_node9"><a xlink:href="../../db/d4a/classMain.html#a803470658c644fa9512140f9d8398dd5" target="_top" xlink:title="Main::ParseFiles">
<polygon fill="white" stroke="black" points="1509,-78.5 1509,-97.5 1603,-97.5 1603,-78.5 1509,-78.5"/>
<text text-anchor="middle" x="1556" y="-85.5" font-family="Helvetica,sans-Serif" font-size="10.00">Main::ParseFiles</text>
</a>
</g>
</g>
<!-- Node8&#45;&gt;Node9 -->
<g id="edge8" class="edge"><title>Node8&#45;&gt;Node9</title>
<path fill="none" stroke="midnightblue" d="M1448.87,-88C1468.14,-88 1490.05,-88 1508.94,-88"/>
<polygon fill="midnightblue" stroke="midnightblue" points="1448.77,-84.5001 1438.77,-88 1448.77,-91.5001 1448.77,-84.5001"/>
</g>
<!-- Node10 -->
<g id="node10" class="node"><title>Node10</title>
<g id="a_node10"><a xlink:href="../../d6/d93/ccccmain_8cc.html#a3c04138a5bfe5d72780bb7e82a18e627" target="_top" xlink:title="main">
<polygon fill="white" stroke="black" points="1686.5,-78.5 1686.5,-97.5 1725.5,-97.5 1725.5,-78.5 1686.5,-78.5"/>
<text text-anchor="middle" x="1706" y="-85.5" font-family="Helvetica,sans-Serif" font-size="10.00">main</text>
</a>
</g>
</g>
<!-- Node9&#45;&gt;Node10 -->
<g id="edge9" class="edge"><title>Node9&#45;&gt;Node10</title>
<path fill="none" stroke="midnightblue" d="M1613.15,-88C1639.09,-88 1668.14,-88 1686.49,-88"/>
<polygon fill="midnightblue" stroke="midnightblue" points="1613.02,-84.5001 1603.02,-88 1613.02,-91.5001 1613.02,-84.5001"/>
</g>
<!-- Node11&#45;&gt;Node7 -->
<g id="edge11" class="edge"><title>Node11&#45;&gt;Node7</title>
<path fill="none" stroke="midnightblue" d="M1322.98,-166.243C1294.59,-158.263 1264.6,-148.789 1246.09,-141.614"/>
<polygon fill="midnightblue" stroke="midnightblue" points="1322.36,-169.703 1332.94,-168.996 1324.23,-162.957 1322.36,-169.703"/>
</g>
<!-- Node12&#45;&gt;Node7 -->
<g id="edge13" class="edge"><title>Node12&#45;&gt;Node7</title>
<path fill="none" stroke="midnightblue" d="M1330.29,-138.615C1312.8,-138.884 1294.23,-138.751 1277.79,-138.216"/>
<polygon fill="midnightblue" stroke="midnightblue" points="1330.52,-142.111 1340.45,-138.411 1330.38,-135.113 1330.52,-142.111"/>
</g>
<!-- Node14 -->
<g id="node14" class="node"><title>Node14</title>
<g id="a_node14"><a xlink:href="../../d0/df6/classCParser.html#a4b9f00c05d44a13b3c18b28b52f5be9e" target="_top" xlink:title="CParser::class_block\l_item_list">
<polygon fill="white" stroke="black" points="1341,-29 1341,-59 1455,-59 1455,-29 1341,-29"/>
<text text-anchor="start" x="1349" y="-47" font-family="Helvetica,sans-Serif" font-size="10.00">CParser::class_block</text>
<text text-anchor="middle" x="1398" y="-36" font-family="Helvetica,sans-Serif" font-size="10.00">_item_list</text>
</a>
</g>
</g>
<!-- Node13&#45;&gt;Node14 -->
<g id="edge15" class="edge"><title>Node13&#45;&gt;Node14</title>
<path fill="none" stroke="midnightblue" d="M1302.58,-57.9674C1315.42,-56.0683 1328.57,-54.1233 1340.82,-52.3112"/>
<polygon fill="midnightblue" stroke="midnightblue" points="1301.75,-54.5515 1292.37,-59.4773 1302.78,-61.4761 1301.75,-54.5515"/>
</g>
<!-- Node15 -->
<g id="node15" class="node"><title>Node15</title>
<g id="a_node15"><a xlink:href="../../d0/df6/classCParser.html#a06c7cac9034f27ad6d998b49a7b574c8" target="_top" xlink:title="CParser::class_block">
<polygon fill="white" stroke="black" points="1499,-35.5 1499,-54.5 1613,-54.5 1613,-35.5 1499,-35.5"/>
<text text-anchor="middle" x="1556" y="-42.5" font-family="Helvetica,sans-Serif" font-size="10.00">CParser::class_block</text>
</a>
</g>
</g>
<!-- Node14&#45;&gt;Node15 -->
<g id="edge16" class="edge"><title>Node14&#45;&gt;Node15</title>
<path fill="none" stroke="midnightblue" d="M1465.4,-44.4257C1476.51,-44.4969 1487.94,-44.5701 1498.76,-44.6395"/>
<polygon fill="midnightblue" stroke="midnightblue" points="1465.34,-40.9253 1455.32,-44.361 1465.3,-47.9252 1465.34,-40.9253"/>
</g>
<!-- Node16 -->
<g id="node16" class="node"><title>Node16</title>
<g id="a_node16"><a xlink:href="../../d0/df6/classCParser.html#a40fba8426e7ac46e9926515ee81e97f3" target="_top" xlink:title="CParser::class_suffix">
<polygon fill="white" stroke="black" points="1649,-38.5 1649,-57.5 1763,-57.5 1763,-38.5 1649,-38.5"/>
<text text-anchor="middle" x="1706" y="-45.5" font-family="Helvetica,sans-Serif" font-size="10.00">CParser::class_suffix</text>
</a>
</g>
</g>
<!-- Node15&#45;&gt;Node16 -->
<g id="edge17" class="edge"><title>Node15&#45;&gt;Node16</title>
<path fill="none" stroke="midnightblue" d="M1623.56,-46.3491C1631.98,-46.5199 1640.54,-46.6934 1648.78,-46.8604"/>
<polygon fill="midnightblue" stroke="midnightblue" points="1623.44,-42.8462 1613.37,-46.1427 1623.3,-49.8448 1623.44,-42.8462"/>
</g>
<!-- Node17 -->
<g id="node17" class="node"><title>Node17</title>
<g id="a_node17"><a xlink:href="../../d0/df6/classCParser.html#a1ed5fcfb2e97e3551fceabe81989a667" target="_top" xlink:title="CParser::class_declaration\l_or_definition">
<polygon fill="white" stroke="black" points="1799,-120 1799,-150 1942,-150 1942,-120 1799,-120"/>
<text text-anchor="start" x="1807" y="-138" font-family="Helvetica,sans-Serif" font-size="10.00">CParser::class_declaration</text>
<text text-anchor="middle" x="1870.5" y="-127" font-family="Helvetica,sans-Serif" font-size="10.00">_or_definition</text>
</a>
</g>
</g>
<!-- Node16&#45;&gt;Node17 -->
<g id="edge18" class="edge"><title>Node16&#45;&gt;Node17</title>
<path fill="none" stroke="midnightblue" d="M1745.07,-61.1248C1751.15,-63.549 1757.31,-66.205 1763,-69 1793.65,-84.0627 1826.76,-105.474 1847.79,-119.781"/>
<polygon fill="midnightblue" stroke="midnightblue" points="1746.25,-57.8271 1735.66,-57.5192 1743.74,-64.3642 1746.25,-57.8271"/>
</g>
<!-- Node17&#45;&gt;Node6 -->
<g id="edge19" class="edge"><title>Node17&#45;&gt;Node6</title>
<path fill="none" stroke="midnightblue" d="M1829.62,-154.304C1771.22,-180.749 1658.35,-225 1557,-225 1397,-225 1397,-225 1397,-225 1284.72,-225 1158.75,-173.502 1101.63,-147.149"/>
<polygon fill="midnightblue" stroke="midnightblue" points="1831.23,-157.417 1838.85,-150.064 1828.3,-151.056 1831.23,-157.417"/>
</g>
<!-- Node17&#45;&gt;Node18 -->
<g id="edge20" class="edge"><title>Node17&#45;&gt;Node18</title>
<path fill="none" stroke="midnightblue" d="M1952.08,-135C1960.66,-135 1969.33,-135 1977.77,-135"/>
<polygon fill="midnightblue" stroke="midnightblue" points="1952.07,-131.5 1942.07,-135 1952.07,-138.5 1952.07,-131.5"/>
</g>
<!-- Node19&#45;&gt;Node6 -->
<g id="edge22" class="edge"><title>Node19&#45;&gt;Node6</title>
<path fill="none" stroke="midnightblue" d="M992.429,-122.184C1001.07,-123.299 1009.58,-124.397 1017.6,-125.433"/>
<polygon fill="midnightblue" stroke="midnightblue" points="992.617,-118.68 982.251,-120.871 991.721,-125.622 992.617,-118.68"/>
</g>
<!-- Node19&#45;&gt;Node18 -->
<g id="edge23" class="edge"><title>Node19&#45;&gt;Node18</title>
<path fill="none" stroke="midnightblue" d="M932.61,-90.0908C991.07,-58.3943 1113.97,-0 1226,-0 1226,-0 1226,-0 1707,-0 1835.77,-0 1973.88,-84.4703 2025.97,-119.776"/>
<polygon fill="midnightblue" stroke="midnightblue" points="930.872,-87.0526 923.793,-94.9356 934.242,-93.1875 930.872,-87.0526"/>
</g>
</g>
</svg>
