<?xml version="1.0" encoding="UTF-8" standalone="no"?>
<!DOCTYPE svg PUBLIC "-//W3C//DTD SVG 1.1//EN"
 "http://www.w3.org/Graphics/SVG/1.1/DTD/svg11.dtd">
<!-- Generated by graphviz version 2.38.0 (20140413.2041)
 -->
<!-- Title: CParser::class_item_qualifier_list Pages: 1 -->
<svg width="723pt" height="94pt"
 viewBox="0.00 0.00 723.00 93.50" xmlns="http://www.w3.org/2000/svg" xmlns:xlink="http://www.w3.org/1999/xlink">
<g id="graph0" class="graph" transform="scale(1 1) rotate(0) translate(4 89.5)">
<title>CParser::class_item_qualifier_list</title>
<polygon fill="white" stroke="none" points="-4,4 -4,-89.5 719,-89.5 719,4 -4,4"/>
<!-- Node1 -->
<g id="node1" class="node"><title>Node1</title>
<polygon fill="#bfbfbf" stroke="black" points="0,-33 0,-63 110,-63 110,-33 0,-33"/>
<text text-anchor="start" x="8" y="-51" font-family="Helvetica,sans-Serif" font-size="10.00">CParser::class_item</text>
<text text-anchor="middle" x="55" y="-40" font-family="Helvetica,sans-Serif" font-size="10.00">_qualifier_list</text>
</g>
<!-- Node2 -->
<g id="node2" class="node"><title>Node2</title>
<g id="a_node2"><a xlink:href="../../d0/df6/classCParser.html#a2df5685b6480de943aaf87a59b73d069" target="_top" xlink:title="CParser::class_item\l_qualifier">
<polygon fill="white" stroke="black" points="146,-55 146,-85 256,-85 256,-55 146,-55"/>
<text text-anchor="start" x="154" y="-73" font-family="Helvetica,sans-Serif" font-size="10.00">CParser::class_item</text>
<text text-anchor="middle" x="201" y="-62" font-family="Helvetica,sans-Serif" font-size="10.00">_qualifier</text>
</a>
</g>
</g>
<!-- Node1&#45;&gt;Node2 -->
<g id="edge1" class="edge"><title>Node1&#45;&gt;Node2</title>
<path fill="none" stroke="midnightblue" d="M110.03,-56.2546C118.405,-57.534 127.126,-58.8664 135.7,-60.1763"/>
<polygon fill="midnightblue" stroke="midnightblue" points="135.253,-63.6487 145.667,-61.6992 136.311,-56.729 135.253,-63.6487"/>
</g>
<!-- Node4 -->
<g id="node4" class="node"><title>Node4</title>
<g id="a_node4"><a xlink:href="../../d0/df6/classCParser.html#a5e1630bd24884bb1cbc5680926dce957" target="_top" xlink:title="CParser::syn">
<polygon fill="white" stroke="black" points="309.5,-19.5 309.5,-38.5 386.5,-38.5 386.5,-19.5 309.5,-19.5"/>
<text text-anchor="middle" x="348" y="-26.5" font-family="Helvetica,sans-Serif" font-size="10.00">CParser::syn</text>
</a>
</g>
</g>
<!-- Node1&#45;&gt;Node4 -->
<g id="edge7" class="edge"><title>Node1&#45;&gt;Node4</title>
<path fill="none" stroke="midnightblue" d="M110.053,-44.4708C164.334,-40.9266 247.172,-35.518 299.143,-32.1247"/>
<polygon fill="midnightblue" stroke="midnightblue" points="299.675,-35.5975 309.426,-31.4533 299.219,-28.6123 299.675,-35.5975"/>
</g>
<!-- Node3 -->
<g id="node3" class="node"><title>Node3</title>
<g id="a_node3"><a xlink:href="../../d3/d5e/classParseStore.html#a238b27bbf877e69812ecc620fbc18d5f" target="_top" xlink:title="ParseStore::set_flag">
<polygon fill="white" stroke="black" points="292,-60.5 292,-79.5 404,-79.5 404,-60.5 292,-60.5"/>
<text text-anchor="middle" x="348" y="-67.5" font-family="Helvetica,sans-Serif" font-size="10.00">ParseStore::set_flag</text>
</a>
</g>
</g>
<!-- Node2&#45;&gt;Node3 -->
<g id="edge2" class="edge"><title>Node2&#45;&gt;Node3</title>
<path fill="none" stroke="midnightblue" d="M256.405,-70C264.632,-70 273.191,-70 281.62,-70"/>
<polygon fill="midnightblue" stroke="midnightblue" points="281.807,-73.5001 291.807,-70 281.807,-66.5001 281.807,-73.5001"/>
</g>
<!-- Node2&#45;&gt;Node4 -->
<g id="edge3" class="edge"><title>Node2&#45;&gt;Node4</title>
<path fill="none" stroke="midnightblue" d="M255.169,-54.9659C271.082,-50.4665 288.335,-45.5881 303.545,-41.2874"/>
<polygon fill="midnightblue" stroke="midnightblue" points="304.539,-44.6434 313.21,-38.5545 302.635,-37.9075 304.539,-44.6434"/>
</g>
<!-- Node5 -->
<g id="node5" class="node"><title>Node5</title>
<g id="a_node5"><a xlink:href="../../da/d6a/classParseUtility.html#aabfa4c56607539ef14be2e2a7260006b" target="_top" xlink:title="ParseUtility::syn">
<polygon fill="white" stroke="black" points="440,-19.5 440,-38.5 531,-38.5 531,-19.5 440,-19.5"/>
<text text-anchor="middle" x="485.5" y="-26.5" font-family="Helvetica,sans-Serif" font-size="10.00">ParseUtility::syn</text>
</a>
</g>
</g>
<!-- Node4&#45;&gt;Node5 -->
<g id="edge4" class="edge"><title>Node4&#45;&gt;Node5</title>
<path fill="none" stroke="midnightblue" d="M386.744,-29C399.977,-29 415.124,-29 429.479,-29"/>
<polygon fill="midnightblue" stroke="midnightblue" points="429.754,-32.5001 439.754,-29 429.754,-25.5001 429.754,-32.5001"/>
</g>
<!-- Node6 -->
<g id="node6" class="node"><title>Node6</title>
<g id="a_node6"><a xlink:href="../../d3/d5e/classParseStore.html#ab21a4aeadb4cc4938b58cbefbb8634e8" target="_top" xlink:title="ParseStore::currentInstance">
<polygon fill="white" stroke="black" points="567,-38.5 567,-57.5 715,-57.5 715,-38.5 567,-38.5"/>
<text text-anchor="middle" x="641" y="-45.5" font-family="Helvetica,sans-Serif" font-size="10.00">ParseStore::currentInstance</text>
</a>
</g>
</g>
<!-- Node5&#45;&gt;Node6 -->
<g id="edge5" class="edge"><title>Node5&#45;&gt;Node6</title>
<path fill="none" stroke="midnightblue" d="M531.311,-34.5467C539.412,-35.5494 548.091,-36.6237 556.882,-37.7118"/>
<polygon fill="midnightblue" stroke="midnightblue" points="556.476,-41.1882 566.831,-38.9432 557.336,-34.2412 556.476,-41.1882"/>
</g>
<!-- Node7 -->
<g id="node7" class="node"><title>Node7</title>
<g id="a_node7"><a xlink:href="../../d3/d5e/classParseStore.html#ae7b3d82d22174c1a1165a592d6c1700c" target="_top" xlink:title="ParseStore::filename">
<polygon fill="white" stroke="black" points="584,-0.5 584,-19.5 698,-19.5 698,-0.5 584,-0.5"/>
<text text-anchor="middle" x="641" y="-7.5" font-family="Helvetica,sans-Serif" font-size="10.00">ParseStore::filename</text>
</a>
</g>
</g>
<!-- Node5&#45;&gt;Node7 -->
<g id="edge6" class="edge"><title>Node5&#45;&gt;Node7</title>
<path fill="none" stroke="midnightblue" d="M531.311,-23.4533C544.556,-21.8139 559.345,-19.9833 573.644,-18.2135"/>
<polygon fill="midnightblue" stroke="midnightblue" points="574.446,-21.641 583.94,-16.939 573.586,-14.694 574.446,-21.641"/>
</g>
</g>
</svg>
