<?xml version="1.0" encoding="UTF-8" standalone="no"?>
<!DOCTYPE svg PUBLIC "-//W3C//DTD SVG 1.1//EN"
 "http://www.w3.org/Graphics/SVG/1.1/DTD/svg11.dtd">
<!-- Generated by graphviz version 2.38.0 (20140413.2041)
 -->
<!-- Title: CParser::angle_block Pages: 1 -->
<svg width="738pt" height="66pt"
 viewBox="0.00 0.00 738.00 66.00" xmlns="http://www.w3.org/2000/svg" xmlns:xlink="http://www.w3.org/1999/xlink">
<g id="graph0" class="graph" transform="scale(1 1) rotate(0) translate(4 62)">
<title>CParser::angle_block</title>
<polygon fill="white" stroke="none" points="-4,4 -4,-62 734,-62 734,4 -4,4"/>
<!-- Node1 -->
<g id="node1" class="node"><title>Node1</title>
<polygon fill="#bfbfbf" stroke="black" points="0,-38.5 0,-57.5 116,-57.5 116,-38.5 0,-38.5"/>
<text text-anchor="middle" x="58" y="-45.5" font-family="Helvetica,sans-Serif" font-size="10.00">CParser::angle_block</text>
</g>
<!-- Node2 -->
<g id="node2" class="node"><title>Node2</title>
<g id="a_node2"><a xlink:href="../../d0/df6/classCParser.html#aa127d8f0df3a28071ce4fe43684632ef" target="_top" xlink:title="CParser::angle_balanced_list">
<polygon fill="white" stroke="black" points="152,-38.5 152,-57.5 306,-57.5 306,-38.5 152,-38.5"/>
<text text-anchor="middle" x="229" y="-45.5" font-family="Helvetica,sans-Serif" font-size="10.00">CParser::angle_balanced_list</text>
</a>
</g>
</g>
<!-- Node1&#45;&gt;Node2 -->
<g id="edge1" class="edge"><title>Node1&#45;&gt;Node2</title>
<path fill="none" stroke="midnightblue" d="M116.216,-41.573C124.475,-41.3709 133.124,-41.2636 141.796,-41.2512"/>
<polygon fill="midnightblue" stroke="midnightblue" points="141.956,-44.7516 151.966,-41.2802 141.976,-37.7516 141.956,-44.7516"/>
</g>
<!-- Node3 -->
<g id="node3" class="node"><title>Node3</title>
<g id="a_node3"><a xlink:href="../../d0/df6/classCParser.html#a5e1630bd24884bb1cbc5680926dce957" target="_top" xlink:title="CParser::syn">
<polygon fill="white" stroke="black" points="342,-19.5 342,-38.5 419,-38.5 419,-19.5 342,-19.5"/>
<text text-anchor="middle" x="380.5" y="-26.5" font-family="Helvetica,sans-Serif" font-size="10.00">CParser::syn</text>
</a>
</g>
</g>
<!-- Node1&#45;&gt;Node3 -->
<g id="edge7" class="edge"><title>Node1&#45;&gt;Node3</title>
<path fill="none" stroke="midnightblue" d="M96.7426,-38.4904C113.541,-34.7254 133.637,-30.8566 152,-29 213.924,-22.7391 285.814,-24.1861 331.938,-26.224"/>
<polygon fill="midnightblue" stroke="midnightblue" points="331.792,-29.7209 341.945,-26.6934 332.12,-22.7286 331.792,-29.7209"/>
</g>
<!-- Node2&#45;&gt;Node1 -->
<g id="edge2" class="edge"><title>Node2&#45;&gt;Node1</title>
<path fill="none" stroke="midnightblue" d="M151.966,-54.7198C143.425,-54.7809 134.767,-54.7493 126.346,-54.6248"/>
<polygon fill="midnightblue" stroke="midnightblue" points="126.282,-51.123 116.216,-54.427 126.145,-58.1217 126.282,-51.123"/>
</g>
<!-- Node2&#45;&gt;Node3 -->
<g id="edge3" class="edge"><title>Node2&#45;&gt;Node3</title>
<path fill="none" stroke="midnightblue" d="M305.188,-38.4443C314.183,-37.3012 323.169,-36.1591 331.626,-35.0844"/>
<polygon fill="midnightblue" stroke="midnightblue" points="332.165,-38.5441 341.644,-33.8112 331.282,-31.6 332.165,-38.5441"/>
</g>
<!-- Node4 -->
<g id="node4" class="node"><title>Node4</title>
<g id="a_node4"><a xlink:href="../../da/d6a/classParseUtility.html#aabfa4c56607539ef14be2e2a7260006b" target="_top" xlink:title="ParseUtility::syn">
<polygon fill="white" stroke="black" points="455,-19.5 455,-38.5 546,-38.5 546,-19.5 455,-19.5"/>
<text text-anchor="middle" x="500.5" y="-26.5" font-family="Helvetica,sans-Serif" font-size="10.00">ParseUtility::syn</text>
</a>
</g>
</g>
<!-- Node3&#45;&gt;Node4 -->
<g id="edge4" class="edge"><title>Node3&#45;&gt;Node4</title>
<path fill="none" stroke="midnightblue" d="M419.16,-29C427.305,-29 436.076,-29 444.726,-29"/>
<polygon fill="midnightblue" stroke="midnightblue" points="444.779,-32.5001 454.779,-29 444.779,-25.5001 444.779,-32.5001"/>
</g>
<!-- Node5 -->
<g id="node5" class="node"><title>Node5</title>
<g id="a_node5"><a xlink:href="../../d3/d5e/classParseStore.html#ab21a4aeadb4cc4938b58cbefbb8634e8" target="_top" xlink:title="ParseStore::currentInstance">
<polygon fill="white" stroke="black" points="582,-38.5 582,-57.5 730,-57.5 730,-38.5 582,-38.5"/>
<text text-anchor="middle" x="656" y="-45.5" font-family="Helvetica,sans-Serif" font-size="10.00">ParseStore::currentInstance</text>
</a>
</g>
</g>
<!-- Node4&#45;&gt;Node5 -->
<g id="edge5" class="edge"><title>Node4&#45;&gt;Node5</title>
<path fill="none" stroke="midnightblue" d="M546.311,-34.5467C554.412,-35.5494 563.091,-36.6237 571.882,-37.7118"/>
<polygon fill="midnightblue" stroke="midnightblue" points="571.476,-41.1882 581.831,-38.9432 572.336,-34.2412 571.476,-41.1882"/>
</g>
<!-- Node6 -->
<g id="node6" class="node"><title>Node6</title>
<g id="a_node6"><a xlink:href="../../d3/d5e/classParseStore.html#ae7b3d82d22174c1a1165a592d6c1700c" target="_top" xlink:title="ParseStore::filename">
<polygon fill="white" stroke="black" points="599,-0.5 599,-19.5 713,-19.5 713,-0.5 599,-0.5"/>
<text text-anchor="middle" x="656" y="-7.5" font-family="Helvetica,sans-Serif" font-size="10.00">ParseStore::filename</text>
</a>
</g>
</g>
<!-- Node4&#45;&gt;Node6 -->
<g id="edge6" class="edge"><title>Node4&#45;&gt;Node6</title>
<path fill="none" stroke="midnightblue" d="M546.311,-23.4533C559.556,-21.8139 574.345,-19.9833 588.644,-18.2135"/>
<polygon fill="midnightblue" stroke="midnightblue" points="589.446,-21.641 598.94,-16.939 588.586,-14.694 589.446,-21.641"/>
</g>
</g>
</svg>
