<?xml version="1.0" encoding="UTF-8" standalone="no"?>
<!DOCTYPE svg PUBLIC "-//W3C//DTD SVG 1.1//EN"
 "http://www.w3.org/Graphics/SVG/1.1/DTD/svg11.dtd">
<!-- Generated by graphviz version 2.38.0 (20140413.2041)
 -->
<!-- Title: CParser::using_statement Pages: 1 -->
<svg width="653pt" height="127pt"
 viewBox="0.00 0.00 653.00 126.50" xmlns="http://www.w3.org/2000/svg" xmlns:xlink="http://www.w3.org/1999/xlink">
<g id="graph0" class="graph" transform="scale(1 1) rotate(0) translate(4 122.5)">
<title>CParser::using_statement</title>
<polygon fill="white" stroke="none" points="-4,4 -4,-122.5 649,-122.5 649,4 -4,4"/>
<!-- Node1 -->
<g id="node1" class="node"><title>Node1</title>
<polygon fill="#bfbfbf" stroke="black" points="0,-55 0,-74 137,-74 137,-55 0,-55"/>
<text text-anchor="middle" x="68.5" y="-62" font-family="Helvetica,sans-Serif" font-size="10.00">CParser::using_statement</text>
</g>
<!-- Node2 -->
<g id="node2" class="node"><title>Node2</title>
<g id="a_node2"><a xlink:href="../../d0/df6/classCParser.html#a2b78ab2005bef5c43ee2d4689210eab1" target="_top" xlink:title="CParser::link_item">
<polygon fill="white" stroke="black" points="173,-55 173,-74 274,-74 274,-55 173,-55"/>
<text text-anchor="middle" x="223.5" y="-62" font-family="Helvetica,sans-Serif" font-size="10.00">CParser::link_item</text>
</a>
</g>
</g>
<!-- Node1&#45;&gt;Node2 -->
<g id="edge1" class="edge"><title>Node1&#45;&gt;Node2</title>
<path fill="none" stroke="midnightblue" d="M147.229,-64.5C155.912,-64.5 164.573,-64.5 172.766,-64.5"/>
<polygon fill="midnightblue" stroke="midnightblue" points="147.053,-61.0001 137.053,-64.5 147.053,-68.0001 147.053,-61.0001"/>
</g>
<!-- Node3 -->
<g id="node3" class="node"><title>Node3</title>
<g id="a_node3"><a xlink:href="../../d0/df6/classCParser.html#a4f02da23566af37123efb3768769c09b" target="_top" xlink:title="CParser::start">
<polygon fill="white" stroke="black" points="334.5,-99 334.5,-118 415.5,-118 415.5,-99 334.5,-99"/>
<text text-anchor="middle" x="375" y="-106" font-family="Helvetica,sans-Serif" font-size="10.00">CParser::start</text>
</a>
</g>
</g>
<!-- Node2&#45;&gt;Node3 -->
<g id="edge2" class="edge"><title>Node2&#45;&gt;Node3</title>
<path fill="none" stroke="midnightblue" d="M266.75,-76.9347C290.504,-83.926 319.696,-92.5177 341.624,-98.9713"/>
<polygon fill="midnightblue" stroke="midnightblue" points="267.521,-73.5132 256.939,-74.0473 265.544,-80.2284 267.521,-73.5132"/>
</g>
<!-- Node6 -->
<g id="node6" class="node"><title>Node6</title>
<g id="a_node6"><a xlink:href="../../d0/df6/classCParser.html#a86906e492ff9c606fb3537078f46f93e" target="_top" xlink:title="CParser::extern_linkage\l_block">
<polygon fill="white" stroke="black" points="310,-49.5 310,-79.5 440,-79.5 440,-49.5 310,-49.5"/>
<text text-anchor="start" x="318" y="-67.5" font-family="Helvetica,sans-Serif" font-size="10.00">CParser::extern_linkage</text>
<text text-anchor="middle" x="375" y="-56.5" font-family="Helvetica,sans-Serif" font-size="10.00">_block</text>
</a>
</g>
</g>
<!-- Node2&#45;&gt;Node6 -->
<g id="edge5" class="edge"><title>Node2&#45;&gt;Node6</title>
<path fill="none" stroke="midnightblue" d="M284.341,-57.8708C292.718,-57.7334 301.355,-57.7132 309.809,-57.8102"/>
<polygon fill="midnightblue" stroke="midnightblue" points="284.2,-54.373 274.281,-58.0965 284.357,-61.3712 284.2,-54.373"/>
</g>
<!-- Node7 -->
<g id="node7" class="node"><title>Node7</title>
<g id="a_node7"><a xlink:href="../../d0/df6/classCParser.html#a4fad913a0694a5376ad76669d8943122" target="_top" xlink:title="CParser::namespace\l_block">
<polygon fill="white" stroke="black" points="317.5,-0.5 317.5,-30.5 432.5,-30.5 432.5,-0.5 317.5,-0.5"/>
<text text-anchor="start" x="325.5" y="-18.5" font-family="Helvetica,sans-Serif" font-size="10.00">CParser::namespace</text>
<text text-anchor="middle" x="375" y="-7.5" font-family="Helvetica,sans-Serif" font-size="10.00">_block</text>
</a>
</g>
</g>
<!-- Node2&#45;&gt;Node7 -->
<g id="edge7" class="edge"><title>Node2&#45;&gt;Node7</title>
<path fill="none" stroke="midnightblue" d="M249.947,-50.9359C268.406,-43.5201 294.105,-34.6478 317.327,-27.5036"/>
<polygon fill="midnightblue" stroke="midnightblue" points="248.375,-47.7995 240.499,-54.8858 251.075,-54.2579 248.375,-47.7995"/>
</g>
<!-- Node4 -->
<g id="node4" class="node"><title>Node4</title>
<g id="a_node4"><a xlink:href="../../db/d4a/classMain.html#a803470658c644fa9512140f9d8398dd5" target="_top" xlink:title="Main::ParseFiles">
<polygon fill="white" stroke="black" points="476,-99 476,-118 570,-118 570,-99 476,-99"/>
<text text-anchor="middle" x="523" y="-106" font-family="Helvetica,sans-Serif" font-size="10.00">Main::ParseFiles</text>
</a>
</g>
</g>
<!-- Node3&#45;&gt;Node4 -->
<g id="edge3" class="edge"><title>Node3&#45;&gt;Node4</title>
<path fill="none" stroke="midnightblue" d="M425.893,-108.5C442.125,-108.5 460.056,-108.5 475.99,-108.5"/>
<polygon fill="midnightblue" stroke="midnightblue" points="425.51,-105 415.51,-108.5 425.51,-112 425.51,-105"/>
</g>
<!-- Node5 -->
<g id="node5" class="node"><title>Node5</title>
<g id="a_node5"><a xlink:href="../../d6/d93/ccccmain_8cc.html#a3c04138a5bfe5d72780bb7e82a18e627" target="_top" xlink:title="main">
<polygon fill="white" stroke="black" points="606,-99 606,-118 645,-118 645,-99 606,-99"/>
<text text-anchor="middle" x="625.5" y="-106" font-family="Helvetica,sans-Serif" font-size="10.00">main</text>
</a>
</g>
</g>
<!-- Node4&#45;&gt;Node5 -->
<g id="edge4" class="edge"><title>Node4&#45;&gt;Node5</title>
<path fill="none" stroke="midnightblue" d="M580.179,-108.5C589.395,-108.5 598.342,-108.5 605.755,-108.5"/>
<polygon fill="midnightblue" stroke="midnightblue" points="580.132,-105 570.132,-108.5 580.132,-112 580.132,-105"/>
</g>
<!-- Node6&#45;&gt;Node2 -->
<g id="edge6" class="edge"><title>Node6&#45;&gt;Node2</title>
<path fill="none" stroke="midnightblue" d="M299.717,-71.2499C291.094,-71.2542 282.462,-71.1388 274.281,-70.9035"/>
<polygon fill="midnightblue" stroke="midnightblue" points="299.83,-74.7494 309.809,-71.1898 299.788,-67.7495 299.83,-74.7494"/>
</g>
<!-- Node7&#45;&gt;Node2 -->
<g id="edge8" class="edge"><title>Node7&#45;&gt;Node2</title>
<path fill="none" stroke="midnightblue" d="M335.334,-34.1691C316.326,-41.2603 293.222,-48.9563 273.038,-54.9579"/>
<polygon fill="midnightblue" stroke="midnightblue" points="336.771,-37.3668 344.863,-30.5281 334.272,-30.8278 336.771,-37.3668"/>
</g>
</g>
</svg>
