<?xml version="1.0" encoding="UTF-8" standalone="no"?>
<!DOCTYPE svg PUBLIC "-//W3C//DTD SVG 1.1//EN"
 "http://www.w3.org/Graphics/SVG/1.1/DTD/svg11.dtd">
<!-- Generated by graphviz version 2.38.0 (20140413.2041)
 -->
<!-- Title: CParser::class_declaration_or_definition Pages: 1 -->
<svg width="970pt" height="204pt"
 viewBox="0.00 0.00 970.00 204.00" xmlns="http://www.w3.org/2000/svg" xmlns:xlink="http://www.w3.org/1999/xlink">
<g id="graph0" class="graph" transform="scale(1 1) rotate(0) translate(4 200)">
<title>CParser::class_declaration_or_definition</title>
<polygon fill="white" stroke="none" points="-4,4 -4,-200 966,-200 966,4 -4,4"/>
<!-- Node1 -->
<g id="node1" class="node"><title>Node1</title>
<polygon fill="#bfbfbf" stroke="black" points="0,-29 0,-59 143,-59 143,-29 0,-29"/>
<text text-anchor="start" x="8" y="-47" font-family="Helvetica,sans-Serif" font-size="10.00">CParser::class_declaration</text>
<text text-anchor="middle" x="71.5" y="-36" font-family="Helvetica,sans-Serif" font-size="10.00">_or_definition</text>
</g>
<!-- Node2 -->
<g id="node2" class="node"><title>Node2</title>
<g id="a_node2"><a xlink:href="../../d0/df6/classCParser.html#ab3ab57ace628c2476dd8dfe5a96f9a15" target="_top" xlink:title="CParser::definition\l_or_declaration">
<polygon fill="white" stroke="black" points="198,-78 198,-108 301,-108 301,-78 198,-78"/>
<text text-anchor="start" x="206" y="-96" font-family="Helvetica,sans-Serif" font-size="10.00">CParser::definition</text>
<text text-anchor="middle" x="249.5" y="-85" font-family="Helvetica,sans-Serif" font-size="10.00">_or_declaration</text>
</a>
</g>
</g>
<!-- Node1&#45;&gt;Node2 -->
<g id="edge1" class="edge"><title>Node1&#45;&gt;Node2</title>
<path fill="none" stroke="midnightblue" d="M136.474,-61.811C156.639,-67.4252 178.627,-73.5468 197.741,-78.8683"/>
<polygon fill="midnightblue" stroke="midnightblue" points="137.314,-58.4118 126.742,-59.1014 135.437,-65.1554 137.314,-58.4118"/>
</g>
<!-- Node13 -->
<g id="node13" class="node"><title>Node13</title>
<g id="a_node13"><a xlink:href="../../d0/df6/classCParser.html#a12561a45dab96760d7ab45896681dd33" target="_top" xlink:title="CParser::class_or_method\l_declaration_or_definition">
<polygon fill="white" stroke="black" points="179,-29 179,-59 320,-59 320,-29 179,-29"/>
<text text-anchor="start" x="187" y="-47" font-family="Helvetica,sans-Serif" font-size="10.00">CParser::class_or_method</text>
<text text-anchor="middle" x="249.5" y="-36" font-family="Helvetica,sans-Serif" font-size="10.00">_declaration_or_definition</text>
</a>
</g>
</g>
<!-- Node1&#45;&gt;Node13 -->
<g id="edge15" class="edge"><title>Node1&#45;&gt;Node13</title>
<path fill="none" stroke="midnightblue" d="M153.08,-44C161.659,-44 170.333,-44 178.772,-44"/>
<polygon fill="midnightblue" stroke="midnightblue" points="153.072,-40.5001 143.072,-44 153.072,-47.5001 153.072,-40.5001"/>
</g>
<!-- Node3 -->
<g id="node3" class="node"><title>Node3</title>
<g id="a_node3"><a xlink:href="../../d0/df6/classCParser.html#a2b78ab2005bef5c43ee2d4689210eab1" target="_top" xlink:title="CParser::link_item">
<polygon fill="white" stroke="black" points="375.5,-107.5 375.5,-126.5 476.5,-126.5 476.5,-107.5 375.5,-107.5"/>
<text text-anchor="middle" x="426" y="-114.5" font-family="Helvetica,sans-Serif" font-size="10.00">CParser::link_item</text>
</a>
</g>
</g>
<!-- Node2&#45;&gt;Node3 -->
<g id="edge2" class="edge"><title>Node2&#45;&gt;Node3</title>
<path fill="none" stroke="midnightblue" d="M311.514,-101.392C332.444,-104.27 355.595,-107.454 375.498,-110.192"/>
<polygon fill="midnightblue" stroke="midnightblue" points="311.825,-97.9016 301.442,-100.006 310.872,-104.836 311.825,-97.9016"/>
</g>
<!-- Node9 -->
<g id="node9" class="node"><title>Node9</title>
<g id="a_node9"><a xlink:href="../../d0/df6/classCParser.html#a85eb09132fa5a588749cea062f0d11ea" target="_top" xlink:title="CParser::class_block_item">
<polygon fill="white" stroke="black" points="356,-51.5 356,-70.5 496,-70.5 496,-51.5 356,-51.5"/>
<text text-anchor="middle" x="426" y="-58.5" font-family="Helvetica,sans-Serif" font-size="10.00">CParser::class_block_item</text>
</a>
</g>
</g>
<!-- Node2&#45;&gt;Node9 -->
<g id="edge10" class="edge"><title>Node2&#45;&gt;Node9</title>
<path fill="none" stroke="midnightblue" d="M311.435,-81.8256C331.546,-78.1376 353.715,-74.0723 373.087,-70.5198"/>
<polygon fill="midnightblue" stroke="midnightblue" points="310.646,-78.4118 301.442,-83.6583 311.909,-85.297 310.646,-78.4118"/>
</g>
<!-- Node4 -->
<g id="node4" class="node"><title>Node4</title>
<g id="a_node4"><a xlink:href="../../d0/df6/classCParser.html#a4f02da23566af37123efb3768769c09b" target="_top" xlink:title="CParser::start">
<polygon fill="white" stroke="black" points="556.5,-176.5 556.5,-195.5 637.5,-195.5 637.5,-176.5 556.5,-176.5"/>
<text text-anchor="middle" x="597" y="-183.5" font-family="Helvetica,sans-Serif" font-size="10.00">CParser::start</text>
</a>
</g>
</g>
<!-- Node3&#45;&gt;Node4 -->
<g id="edge3" class="edge"><title>Node3&#45;&gt;Node4</title>
<path fill="none" stroke="midnightblue" d="M453.765,-131.172C474.687,-141.898 504.702,-156.522 532,-167 540.981,-170.447 550.866,-173.657 560.125,-176.42"/>
<polygon fill="midnightblue" stroke="midnightblue" points="455.324,-128.037 444.834,-126.547 452.105,-134.253 455.324,-128.037"/>
</g>
<!-- Node7 -->
<g id="node7" class="node"><title>Node7</title>
<g id="a_node7"><a xlink:href="../../d0/df6/classCParser.html#a86906e492ff9c606fb3537078f46f93e" target="_top" xlink:title="CParser::extern_linkage\l_block">
<polygon fill="white" stroke="black" points="532,-127 532,-157 662,-157 662,-127 532,-127"/>
<text text-anchor="start" x="540" y="-145" font-family="Helvetica,sans-Serif" font-size="10.00">CParser::extern_linkage</text>
<text text-anchor="middle" x="597" y="-134" font-family="Helvetica,sans-Serif" font-size="10.00">_block</text>
</a>
</g>
</g>
<!-- Node3&#45;&gt;Node7 -->
<g id="edge6" class="edge"><title>Node3&#45;&gt;Node7</title>
<path fill="none" stroke="midnightblue" d="M486.912,-119.373C503.494,-121.465 521.461,-124.137 537.936,-126.963"/>
<polygon fill="midnightblue" stroke="midnightblue" points="487.139,-115.875 476.792,-118.15 486.299,-122.825 487.139,-115.875"/>
</g>
<!-- Node8 -->
<g id="node8" class="node"><title>Node8</title>
<g id="a_node8"><a xlink:href="../../d0/df6/classCParser.html#a4fad913a0694a5376ad76669d8943122" target="_top" xlink:title="CParser::namespace\l_block">
<polygon fill="white" stroke="black" points="539.5,-78 539.5,-108 654.5,-108 654.5,-78 539.5,-78"/>
<text text-anchor="start" x="547.5" y="-96" font-family="Helvetica,sans-Serif" font-size="10.00">CParser::namespace</text>
<text text-anchor="middle" x="597" y="-85" font-family="Helvetica,sans-Serif" font-size="10.00">_block</text>
</a>
</g>
</g>
<!-- Node3&#45;&gt;Node8 -->
<g id="edge8" class="edge"><title>Node3&#45;&gt;Node8</title>
<path fill="none" stroke="midnightblue" d="M466.68,-105.542C488.375,-101.468 515.617,-97.4042 539.497,-94.6148"/>
<polygon fill="midnightblue" stroke="midnightblue" points="465.965,-102.115 456.825,-107.473 467.311,-108.985 465.965,-102.115"/>
</g>
<!-- Node5 -->
<g id="node5" class="node"><title>Node5</title>
<g id="a_node5"><a xlink:href="../../db/d4a/classMain.html#a803470658c644fa9512140f9d8398dd5" target="_top" xlink:title="Main::ParseFiles">
<polygon fill="white" stroke="black" points="708,-176.5 708,-195.5 802,-195.5 802,-176.5 708,-176.5"/>
<text text-anchor="middle" x="755" y="-183.5" font-family="Helvetica,sans-Serif" font-size="10.00">Main::ParseFiles</text>
</a>
</g>
</g>
<!-- Node4&#45;&gt;Node5 -->
<g id="edge4" class="edge"><title>Node4&#45;&gt;Node5</title>
<path fill="none" stroke="midnightblue" d="M647.869,-186C667.138,-186 689.051,-186 707.942,-186"/>
<polygon fill="midnightblue" stroke="midnightblue" points="647.769,-182.5 637.769,-186 647.769,-189.5 647.769,-182.5"/>
</g>
<!-- Node6 -->
<g id="node6" class="node"><title>Node6</title>
<g id="a_node6"><a xlink:href="../../d6/d93/ccccmain_8cc.html#a3c04138a5bfe5d72780bb7e82a18e627" target="_top" xlink:title="main">
<polygon fill="white" stroke="black" points="885.5,-176.5 885.5,-195.5 924.5,-195.5 924.5,-176.5 885.5,-176.5"/>
<text text-anchor="middle" x="905" y="-183.5" font-family="Helvetica,sans-Serif" font-size="10.00">main</text>
</a>
</g>
</g>
<!-- Node5&#45;&gt;Node6 -->
<g id="edge5" class="edge"><title>Node5&#45;&gt;Node6</title>
<path fill="none" stroke="midnightblue" d="M812.15,-186C838.09,-186 867.142,-186 885.494,-186"/>
<polygon fill="midnightblue" stroke="midnightblue" points="812.017,-182.5 802.017,-186 812.017,-189.5 812.017,-182.5"/>
</g>
<!-- Node7&#45;&gt;Node3 -->
<g id="edge7" class="edge"><title>Node7&#45;&gt;Node3</title>
<path fill="none" stroke="midnightblue" d="M522.065,-137.766C498.729,-134.523 474.302,-130.422 456.052,-126.54"/>
<polygon fill="midnightblue" stroke="midnightblue" points="521.6,-141.235 531.978,-139.1 522.534,-134.297 521.6,-141.235"/>
</g>
<!-- Node8&#45;&gt;Node3 -->
<g id="edge9" class="edge"><title>Node8&#45;&gt;Node3</title>
<path fill="none" stroke="midnightblue" d="M529.292,-109.089C511.795,-111.842 493.232,-114.345 476.792,-116.145"/>
<polygon fill="midnightblue" stroke="midnightblue" points="530.136,-112.498 539.446,-107.442 529.015,-105.588 530.136,-112.498"/>
</g>
<!-- Node10 -->
<g id="node10" class="node"><title>Node10</title>
<g id="a_node10"><a xlink:href="../../d0/df6/classCParser.html#a4b9f00c05d44a13b3c18b28b52f5be9e" target="_top" xlink:title="CParser::class_block\l_item_list">
<polygon fill="white" stroke="black" points="540,-29 540,-59 654,-59 654,-29 540,-29"/>
<text text-anchor="start" x="548" y="-47" font-family="Helvetica,sans-Serif" font-size="10.00">CParser::class_block</text>
<text text-anchor="middle" x="597" y="-36" font-family="Helvetica,sans-Serif" font-size="10.00">_item_list</text>
</a>
</g>
</g>
<!-- Node9&#45;&gt;Node10 -->
<g id="edge11" class="edge"><title>Node9&#45;&gt;Node10</title>
<path fill="none" stroke="midnightblue" d="M506.497,-53.0033C517.741,-51.8722 529.104,-50.7292 539.785,-49.6548"/>
<polygon fill="midnightblue" stroke="midnightblue" points="505.826,-49.553 496.226,-54.0364 506.527,-56.5179 505.826,-49.553"/>
</g>
<!-- Node11 -->
<g id="node11" class="node"><title>Node11</title>
<g id="a_node11"><a xlink:href="../../d0/df6/classCParser.html#a06c7cac9034f27ad6d998b49a7b574c8" target="_top" xlink:title="CParser::class_block">
<polygon fill="white" stroke="black" points="698,-31.5 698,-50.5 812,-50.5 812,-31.5 698,-31.5"/>
<text text-anchor="middle" x="755" y="-38.5" font-family="Helvetica,sans-Serif" font-size="10.00">CParser::class_block</text>
</a>
</g>
</g>
<!-- Node10&#45;&gt;Node11 -->
<g id="edge12" class="edge"><title>Node10&#45;&gt;Node11</title>
<path fill="none" stroke="midnightblue" d="M664.404,-42.723C675.512,-42.5094 686.941,-42.2896 697.763,-42.0815"/>
<polygon fill="midnightblue" stroke="midnightblue" points="664.25,-39.2252 654.32,-42.9169 664.385,-46.2239 664.25,-39.2252"/>
</g>
<!-- Node12 -->
<g id="node12" class="node"><title>Node12</title>
<g id="a_node12"><a xlink:href="../../d0/df6/classCParser.html#a40fba8426e7ac46e9926515ee81e97f3" target="_top" xlink:title="CParser::class_suffix">
<polygon fill="white" stroke="black" points="848,-11.5 848,-30.5 962,-30.5 962,-11.5 848,-11.5"/>
<text text-anchor="middle" x="905" y="-18.5" font-family="Helvetica,sans-Serif" font-size="10.00">CParser::class_suffix</text>
</a>
</g>
</g>
<!-- Node11&#45;&gt;Node12 -->
<g id="edge13" class="edge"><title>Node11&#45;&gt;Node12</title>
<path fill="none" stroke="midnightblue" d="M822.558,-32.0057C830.984,-30.8671 839.539,-29.7109 847.782,-28.597"/>
<polygon fill="midnightblue" stroke="midnightblue" points="821.816,-28.5741 812.375,-33.3818 822.753,-35.511 821.816,-28.5741"/>
</g>
<!-- Node12&#45;&gt;Node1 -->
<g id="edge14" class="edge"><title>Node12&#45;&gt;Node1</title>
<path fill="none" stroke="midnightblue" d="M837.938,-13.8421C776.024,-7.757 680.851,-0 598,-0 425,-0 425,-0 425,-0 315.341,-0 287.364,-2.19816 179,-19 162.766,-21.5171 145.343,-25.1875 129.389,-28.9443"/>
<polygon fill="midnightblue" stroke="midnightblue" points="837.663,-17.332 847.961,-14.8412 838.358,-10.3665 837.663,-17.332"/>
</g>
</g>
</svg>
