<?xml version="1.0" encoding="UTF-8" standalone="no"?>
<!DOCTYPE svg PUBLIC "-//W3C//DTD SVG 1.1//EN"
 "http://www.w3.org/Graphics/SVG/1.1/DTD/svg11.dtd">
<!-- Generated by graphviz version 2.38.0 (20140413.2041)
 -->
<!-- Title: CParser::scoped_member_name Pages: 1 -->
<svg width="2738pt" height="313pt"
 viewBox="0.00 0.00 2738.00 313.00" xmlns="http://www.w3.org/2000/svg" xmlns:xlink="http://www.w3.org/1999/xlink">
<g id="graph0" class="graph" transform="scale(1 1) rotate(0) translate(4 309)">
<title>CParser::scoped_member_name</title>
<polygon fill="white" stroke="none" points="-4,4 -4,-309 2734,-309 2734,4 -4,4"/>
<!-- Node1 -->
<g id="node1" class="node"><title>Node1</title>
<polygon fill="#bfbfbf" stroke="black" points="0,-214.5 0,-233.5 170,-233.5 170,-214.5 0,-214.5"/>
<text text-anchor="middle" x="85" y="-221.5" font-family="Helvetica,sans-Serif" font-size="10.00">CParser::scoped_member_name</text>
</g>
<!-- Node2 -->
<g id="node2" class="node"><title>Node2</title>
<g id="a_node2"><a xlink:href="../../d0/df6/classCParser.html#ab3ab57ace628c2476dd8dfe5a96f9a15" target="_top" xlink:title="CParser::definition\l_or_declaration">
<polygon fill="white" stroke="black" points="1629,-114 1629,-144 1732,-144 1732,-114 1629,-114"/>
<text text-anchor="start" x="1637" y="-132" font-family="Helvetica,sans-Serif" font-size="10.00">CParser::definition</text>
<text text-anchor="middle" x="1680.5" y="-121" font-family="Helvetica,sans-Serif" font-size="10.00">_or_declaration</text>
</a>
</g>
</g>
<!-- Node1&#45;&gt;Node2 -->
<g id="edge1" class="edge"><title>Node1&#45;&gt;Node2</title>
<path fill="none" stroke="midnightblue" d="M149.78,-212.84C219.488,-201.629 334.579,-186 434.5,-186 434.5,-186 434.5,-186 620,-186 841.133,-186 896.367,-179 1117.5,-179 1117.5,-179 1117.5,-179 1303,-179 1420.54,-179 1556.93,-154.759 1628.93,-140.035"/>
<polygon fill="midnightblue" stroke="midnightblue" points="149.139,-209.398 139.831,-214.46 150.264,-216.307 149.139,-209.398"/>
</g>
<!-- Node14 -->
<g id="node14" class="node"><title>Node14</title>
<g id="a_node14"><a xlink:href="../../d0/df6/classCParser.html#a12561a45dab96760d7ab45896681dd33" target="_top" xlink:title="CParser::class_or_method\l_declaration_or_definition">
<polygon fill="white" stroke="black" points="2589,-48 2589,-78 2730,-78 2730,-48 2589,-48"/>
<text text-anchor="start" x="2597" y="-66" font-family="Helvetica,sans-Serif" font-size="10.00">CParser::class_or_method</text>
<text text-anchor="middle" x="2659.5" y="-55" font-family="Helvetica,sans-Serif" font-size="10.00">_declaration_or_definition</text>
</a>
</g>
</g>
<!-- Node1&#45;&gt;Node14 -->
<g id="edge21" class="edge"><title>Node1&#45;&gt;Node14</title>
<path fill="none" stroke="midnightblue" d="M119.625,-237.23C181.109,-260.194 316.23,-305 434.5,-305 434.5,-305 434.5,-305 2318,-305 2475.38,-305 2610.61,-131.118 2648.16,-78.1382"/>
<polygon fill="midnightblue" stroke="midnightblue" points="120.649,-233.875 110.057,-233.61 118.171,-240.422 120.649,-233.875"/>
</g>
<!-- Node15 -->
<g id="node15" class="node"><title>Node15</title>
<g id="a_node15"><a xlink:href="../../d0/df6/classCParser.html#af34b4007ea5a1cf060e1454a02482b33" target="_top" xlink:title="CParser::using_statement">
<polygon fill="white" stroke="black" points="367,-256.5 367,-275.5 504,-275.5 504,-256.5 367,-256.5"/>
<text text-anchor="middle" x="435.5" y="-263.5" font-family="Helvetica,sans-Serif" font-size="10.00">CParser::using_statement</text>
</a>
</g>
</g>
<!-- Node1&#45;&gt;Node15 -->
<g id="edge17" class="edge"><title>Node1&#45;&gt;Node15</title>
<path fill="none" stroke="midnightblue" d="M175.256,-234.757C234.952,-241.951 312.275,-251.27 366.889,-257.852"/>
<polygon fill="midnightblue" stroke="midnightblue" points="175.427,-231.252 165.08,-233.53 174.589,-238.202 175.427,-231.252"/>
</g>
<!-- Node16 -->
<g id="node16" class="node"><title>Node16</title>
<g id="a_node16"><a xlink:href="../../d0/df6/classCParser.html#a3d966b62b57b9a881dc1bb9c9351b42f" target="_top" xlink:title="CParser::explicit_template\l_instantiation">
<polygon fill="white" stroke="black" points="881,-208 881,-238 1020,-238 1020,-208 881,-208"/>
<text text-anchor="start" x="889" y="-226" font-family="Helvetica,sans-Serif" font-size="10.00">CParser::explicit_template</text>
<text text-anchor="middle" x="950.5" y="-215" font-family="Helvetica,sans-Serif" font-size="10.00">_instantiation</text>
</a>
</g>
</g>
<!-- Node1&#45;&gt;Node16 -->
<g id="edge19" class="edge"><title>Node1&#45;&gt;Node16</title>
<path fill="none" stroke="midnightblue" d="M180.289,-224C250.406,-224 348.431,-224 434.5,-224 434.5,-224 434.5,-224 620,-224 710.098,-224 814.053,-223.621 880.712,-223.33"/>
<polygon fill="midnightblue" stroke="midnightblue" points="180.151,-220.5 170.151,-224 180.151,-227.5 180.151,-220.5"/>
</g>
<!-- Node17 -->
<g id="node17" class="node"><title>Node17</title>
<g id="a_node17"><a xlink:href="../../d0/df6/classCParser.html#a5e83377507b06b136005686f47f13fcb" target="_top" xlink:title="CParser::item_specifier">
<polygon fill="white" stroke="black" points="206,-129.5 206,-148.5 331,-148.5 331,-129.5 206,-129.5"/>
<text text-anchor="middle" x="268.5" y="-136.5" font-family="Helvetica,sans-Serif" font-size="10.00">CParser::item_specifier</text>
</a>
</g>
</g>
<!-- Node1&#45;&gt;Node17 -->
<g id="edge22" class="edge"><title>Node1&#45;&gt;Node17</title>
<path fill="none" stroke="midnightblue" d="M115.753,-210.066C152.791,-192.72 215.07,-163.554 247.107,-148.55"/>
<polygon fill="midnightblue" stroke="midnightblue" points="114.039,-207.004 106.468,-214.415 117.008,-213.343 114.039,-207.004"/>
</g>
<!-- Node3 -->
<g id="node3" class="node"><title>Node3</title>
<g id="a_node3"><a xlink:href="../../d0/df6/classCParser.html#a2b78ab2005bef5c43ee2d4689210eab1" target="_top" xlink:title="CParser::link_item">
<polygon fill="white" stroke="black" points="1787.5,-207.5 1787.5,-226.5 1888.5,-226.5 1888.5,-207.5 1787.5,-207.5"/>
<text text-anchor="middle" x="1838" y="-214.5" font-family="Helvetica,sans-Serif" font-size="10.00">CParser::link_item</text>
</a>
</g>
</g>
<!-- Node2&#45;&gt;Node3 -->
<g id="edge2" class="edge"><title>Node2&#45;&gt;Node3</title>
<path fill="none" stroke="midnightblue" d="M1716.95,-149.059C1749.27,-167.351 1795.61,-193.577 1820.19,-207.489"/>
<polygon fill="midnightblue" stroke="midnightblue" points="1718.66,-146.007 1708.23,-144.128 1715.21,-152.099 1718.66,-146.007"/>
</g>
<!-- Node9 -->
<g id="node9" class="node"><title>Node9</title>
<g id="a_node9"><a xlink:href="../../d0/df6/classCParser.html#a85eb09132fa5a588749cea062f0d11ea" target="_top" xlink:title="CParser::class_block_item">
<polygon fill="white" stroke="black" points="1768,-78.5 1768,-97.5 1908,-97.5 1908,-78.5 1768,-78.5"/>
<text text-anchor="middle" x="1838" y="-85.5" font-family="Helvetica,sans-Serif" font-size="10.00">CParser::class_block_item</text>
</a>
</g>
</g>
<!-- Node2&#45;&gt;Node9 -->
<g id="edge10" class="edge"><title>Node2&#45;&gt;Node9</title>
<path fill="none" stroke="midnightblue" d="M1742.28,-112.975C1762.05,-107.762 1783.36,-102.143 1800.75,-97.5577"/>
<polygon fill="midnightblue" stroke="midnightblue" points="1741.19,-109.641 1732.42,-115.575 1742.98,-116.41 1741.19,-109.641"/>
</g>
<!-- Node4 -->
<g id="node4" class="node"><title>Node4</title>
<g id="a_node4"><a xlink:href="../../d0/df6/classCParser.html#a4f02da23566af37123efb3768769c09b" target="_top" xlink:title="CParser::start">
<polygon fill="white" stroke="black" points="1968.5,-207.5 1968.5,-226.5 2049.5,-226.5 2049.5,-207.5 1968.5,-207.5"/>
<text text-anchor="middle" x="2009" y="-214.5" font-family="Helvetica,sans-Serif" font-size="10.00">CParser::start</text>
</a>
</g>
</g>
<!-- Node3&#45;&gt;Node4 -->
<g id="edge3" class="edge"><title>Node3&#45;&gt;Node4</title>
<path fill="none" stroke="midnightblue" d="M1898.85,-217C1921.95,-217 1947.75,-217 1968.46,-217"/>
<polygon fill="midnightblue" stroke="midnightblue" points="1898.79,-213.5 1888.79,-217 1898.79,-220.5 1898.79,-213.5"/>
</g>
<!-- Node7 -->
<g id="node7" class="node"><title>Node7</title>
<g id="a_node7"><a xlink:href="../../d0/df6/classCParser.html#a86906e492ff9c606fb3537078f46f93e" target="_top" xlink:title="CParser::extern_linkage\l_block">
<polygon fill="white" stroke="black" points="1944,-158 1944,-188 2074,-188 2074,-158 1944,-158"/>
<text text-anchor="start" x="1952" y="-176" font-family="Helvetica,sans-Serif" font-size="10.00">CParser::extern_linkage</text>
<text text-anchor="middle" x="2009" y="-165" font-family="Helvetica,sans-Serif" font-size="10.00">_block</text>
</a>
</g>
</g>
<!-- Node3&#45;&gt;Node7 -->
<g id="edge6" class="edge"><title>Node3&#45;&gt;Node7</title>
<path fill="none" stroke="midnightblue" d="M1867.91,-204.24C1888.73,-197.463 1917.65,-189.487 1943.81,-183.139"/>
<polygon fill="midnightblue" stroke="midnightblue" points="1866.74,-200.941 1858.39,-207.459 1868.98,-207.573 1866.74,-200.941"/>
</g>
<!-- Node8 -->
<g id="node8" class="node"><title>Node8</title>
<g id="a_node8"><a xlink:href="../../d0/df6/classCParser.html#a4fad913a0694a5376ad76669d8943122" target="_top" xlink:title="CParser::namespace\l_block">
<polygon fill="white" stroke="black" points="1951.5,-246 1951.5,-276 2066.5,-276 2066.5,-246 1951.5,-246"/>
<text text-anchor="start" x="1959.5" y="-264" font-family="Helvetica,sans-Serif" font-size="10.00">CParser::namespace</text>
<text text-anchor="middle" x="2009" y="-253" font-family="Helvetica,sans-Serif" font-size="10.00">_block</text>
</a>
</g>
</g>
<!-- Node3&#45;&gt;Node8 -->
<g id="edge8" class="edge"><title>Node3&#45;&gt;Node8</title>
<path fill="none" stroke="midnightblue" d="M1898.7,-226.06C1923.17,-231.891 1950.67,-239.331 1971.97,-245.972"/>
<polygon fill="midnightblue" stroke="midnightblue" points="1899.33,-222.61 1888.79,-223.747 1897.74,-229.427 1899.33,-222.61"/>
</g>
<!-- Node5 -->
<g id="node5" class="node"><title>Node5</title>
<g id="a_node5"><a xlink:href="../../db/d4a/classMain.html#a803470658c644fa9512140f9d8398dd5" target="_top" xlink:title="Main::ParseFiles">
<polygon fill="white" stroke="black" points="2120,-207.5 2120,-226.5 2214,-226.5 2214,-207.5 2120,-207.5"/>
<text text-anchor="middle" x="2167" y="-214.5" font-family="Helvetica,sans-Serif" font-size="10.00">Main::ParseFiles</text>
</a>
</g>
</g>
<!-- Node4&#45;&gt;Node5 -->
<g id="edge4" class="edge"><title>Node4&#45;&gt;Node5</title>
<path fill="none" stroke="midnightblue" d="M2059.87,-217C2079.14,-217 2101.05,-217 2119.94,-217"/>
<polygon fill="midnightblue" stroke="midnightblue" points="2059.77,-213.5 2049.77,-217 2059.77,-220.5 2059.77,-213.5"/>
</g>
<!-- Node6 -->
<g id="node6" class="node"><title>Node6</title>
<g id="a_node6"><a xlink:href="../../d6/d93/ccccmain_8cc.html#a3c04138a5bfe5d72780bb7e82a18e627" target="_top" xlink:title="main">
<polygon fill="white" stroke="black" points="2297.5,-207.5 2297.5,-226.5 2336.5,-226.5 2336.5,-207.5 2297.5,-207.5"/>
<text text-anchor="middle" x="2317" y="-214.5" font-family="Helvetica,sans-Serif" font-size="10.00">main</text>
</a>
</g>
</g>
<!-- Node5&#45;&gt;Node6 -->
<g id="edge5" class="edge"><title>Node5&#45;&gt;Node6</title>
<path fill="none" stroke="midnightblue" d="M2224.15,-217C2250.09,-217 2279.14,-217 2297.49,-217"/>
<polygon fill="midnightblue" stroke="midnightblue" points="2224.02,-213.5 2214.02,-217 2224.02,-220.5 2224.02,-213.5"/>
</g>
<!-- Node7&#45;&gt;Node3 -->
<g id="edge7" class="edge"><title>Node7&#45;&gt;Node3</title>
<path fill="none" stroke="midnightblue" d="M1962.22,-190.994C1939.51,-197.757 1912.03,-204.958 1888.79,-210.253"/>
<polygon fill="midnightblue" stroke="midnightblue" points="1963.42,-194.289 1971.97,-188.028 1961.38,-187.592 1963.42,-194.289"/>
</g>
<!-- Node8&#45;&gt;Node3 -->
<g id="edge9" class="edge"><title>Node8&#45;&gt;Node3</title>
<path fill="none" stroke="midnightblue" d="M1941.36,-250.265C1911.55,-242.964 1878.64,-233.687 1858.39,-226.541"/>
<polygon fill="midnightblue" stroke="midnightblue" points="1940.79,-253.726 1951.33,-252.659 1942.42,-246.92 1940.79,-253.726"/>
</g>
<!-- Node10 -->
<g id="node10" class="node"><title>Node10</title>
<g id="a_node10"><a xlink:href="../../d0/df6/classCParser.html#a4b9f00c05d44a13b3c18b28b52f5be9e" target="_top" xlink:title="CParser::class_block\l_item_list">
<polygon fill="white" stroke="black" points="1952,-70 1952,-100 2066,-100 2066,-70 1952,-70"/>
<text text-anchor="start" x="1960" y="-88" font-family="Helvetica,sans-Serif" font-size="10.00">CParser::class_block</text>
<text text-anchor="middle" x="2009" y="-77" font-family="Helvetica,sans-Serif" font-size="10.00">_item_list</text>
</a>
</g>
</g>
<!-- Node9&#45;&gt;Node10 -->
<g id="edge11" class="edge"><title>Node9&#45;&gt;Node10</title>
<path fill="none" stroke="midnightblue" d="M1918.5,-86.5888C1929.74,-86.3892 1941.1,-86.1875 1951.79,-85.9979"/>
<polygon fill="midnightblue" stroke="midnightblue" points="1918.16,-83.0941 1908.23,-86.7711 1918.29,-90.093 1918.16,-83.0941"/>
</g>
<!-- Node11 -->
<g id="node11" class="node"><title>Node11</title>
<g id="a_node11"><a xlink:href="../../d0/df6/classCParser.html#a06c7cac9034f27ad6d998b49a7b574c8" target="_top" xlink:title="CParser::class_block">
<polygon fill="white" stroke="black" points="2110,-75.5 2110,-94.5 2224,-94.5 2224,-75.5 2110,-75.5"/>
<text text-anchor="middle" x="2167" y="-82.5" font-family="Helvetica,sans-Serif" font-size="10.00">CParser::class_block</text>
</a>
</g>
</g>
<!-- Node10&#45;&gt;Node11 -->
<g id="edge12" class="edge"><title>Node10&#45;&gt;Node11</title>
<path fill="none" stroke="midnightblue" d="M2076.4,-85C2087.51,-85 2098.94,-85 2109.76,-85"/>
<polygon fill="midnightblue" stroke="midnightblue" points="2076.32,-81.5001 2066.32,-85 2076.32,-88.5001 2076.32,-81.5001"/>
</g>
<!-- Node12 -->
<g id="node12" class="node"><title>Node12</title>
<g id="a_node12"><a xlink:href="../../d0/df6/classCParser.html#a40fba8426e7ac46e9926515ee81e97f3" target="_top" xlink:title="CParser::class_suffix">
<polygon fill="white" stroke="black" points="2260,-75.5 2260,-94.5 2374,-94.5 2374,-75.5 2260,-75.5"/>
<text text-anchor="middle" x="2317" y="-82.5" font-family="Helvetica,sans-Serif" font-size="10.00">CParser::class_suffix</text>
</a>
</g>
</g>
<!-- Node11&#45;&gt;Node12 -->
<g id="edge13" class="edge"><title>Node11&#45;&gt;Node12</title>
<path fill="none" stroke="midnightblue" d="M2234.56,-85C2242.98,-85 2251.54,-85 2259.78,-85"/>
<polygon fill="midnightblue" stroke="midnightblue" points="2234.37,-81.5001 2224.37,-85 2234.37,-88.5001 2234.37,-81.5001"/>
</g>
<!-- Node13 -->
<g id="node13" class="node"><title>Node13</title>
<g id="a_node13"><a xlink:href="../../d0/df6/classCParser.html#a1ed5fcfb2e97e3551fceabe81989a667" target="_top" xlink:title="CParser::class_declaration\l_or_definition">
<polygon fill="white" stroke="black" points="2410,-70 2410,-100 2553,-100 2553,-70 2410,-70"/>
<text text-anchor="start" x="2418" y="-88" font-family="Helvetica,sans-Serif" font-size="10.00">CParser::class_declaration</text>
<text text-anchor="middle" x="2481.5" y="-77" font-family="Helvetica,sans-Serif" font-size="10.00">_or_definition</text>
</a>
</g>
</g>
<!-- Node12&#45;&gt;Node13 -->
<g id="edge14" class="edge"><title>Node12&#45;&gt;Node13</title>
<path fill="none" stroke="midnightblue" d="M2384.47,-85C2392.86,-85 2401.46,-85 2409.91,-85"/>
<polygon fill="midnightblue" stroke="midnightblue" points="2384.38,-81.5001 2374.38,-85 2384.38,-88.5001 2384.38,-81.5001"/>
</g>
<!-- Node13&#45;&gt;Node2 -->
<g id="edge15" class="edge"><title>Node13&#45;&gt;Node2</title>
<path fill="none" stroke="midnightblue" d="M2403.36,-101.985C2340.37,-114.373 2248.87,-129 2168,-129 2008,-129 2008,-129 2008,-129 1910.36,-129 1796.3,-129 1732.12,-129"/>
<polygon fill="midnightblue" stroke="midnightblue" points="2404.1,-105.408 2413.22,-100.019 2402.73,-98.5428 2404.1,-105.408"/>
</g>
<!-- Node13&#45;&gt;Node14 -->
<g id="edge16" class="edge"><title>Node13&#45;&gt;Node14</title>
<path fill="none" stroke="midnightblue" d="M2563.08,-74.9275C2571.66,-73.8551 2580.33,-72.7709 2588.77,-71.716"/>
<polygon fill="midnightblue" stroke="midnightblue" points="2562.56,-71.4651 2553.07,-76.1785 2563.43,-78.4111 2562.56,-71.4651"/>
</g>
<!-- Node15&#45;&gt;Node3 -->
<g id="edge18" class="edge"><title>Node15&#45;&gt;Node3</title>
<path fill="none" stroke="midnightblue" d="M514.558,-266.349C585.888,-266.637 694.286,-267 788.5,-267 788.5,-267 788.5,-267 1509,-267 1615.28,-267 1738.73,-241.029 1799.4,-226.522"/>
<polygon fill="midnightblue" stroke="midnightblue" points="514.323,-262.848 504.309,-266.307 514.294,-269.848 514.323,-262.848"/>
</g>
<!-- Node16&#45;&gt;Node2 -->
<g id="edge20" class="edge"><title>Node16&#45;&gt;Node2</title>
<path fill="none" stroke="midnightblue" d="M1030.15,-233.628C1153.99,-247.248 1400.16,-261.621 1593,-193 1621.69,-182.792 1648.91,-159.637 1664.91,-144.161"/>
<polygon fill="midnightblue" stroke="midnightblue" points="1030.33,-230.126 1020,-232.483 1029.55,-237.082 1030.33,-230.126"/>
</g>
<!-- Node18 -->
<g id="node18" class="node"><title>Node18</title>
<g id="a_node18"><a xlink:href="../../d0/df6/classCParser.html#a9104801570f44810a98b9f3a5a76c06c" target="_top" xlink:title="CParser::instance_item">
<polygon fill="white" stroke="black" points="373,-120.5 373,-139.5 498,-139.5 498,-120.5 373,-120.5"/>
<text text-anchor="middle" x="435.5" y="-127.5" font-family="Helvetica,sans-Serif" font-size="10.00">CParser::instance_item</text>
</a>
</g>
</g>
<!-- Node17&#45;&gt;Node18 -->
<g id="edge23" class="edge"><title>Node17&#45;&gt;Node18</title>
<path fill="none" stroke="midnightblue" d="M341.683,-135.063C352.055,-134.497 362.648,-133.919 372.792,-133.366"/>
<polygon fill="midnightblue" stroke="midnightblue" points="341.204,-131.584 331.409,-135.623 341.585,-138.573 341.204,-131.584"/>
</g>
<!-- Node19 -->
<g id="node19" class="node"><title>Node19</title>
<g id="a_node19"><a xlink:href="../../d0/df6/classCParser.html#a6331346ed010ab6c734d29daeb5d896f" target="_top" xlink:title="CParser::instance_declaration">
<polygon fill="white" stroke="black" points="540,-120.5 540,-139.5 698,-139.5 698,-120.5 540,-120.5"/>
<text text-anchor="middle" x="619" y="-127.5" font-family="Helvetica,sans-Serif" font-size="10.00">CParser::instance_declaration</text>
</a>
</g>
</g>
<!-- Node18&#45;&gt;Node19 -->
<g id="edge24" class="edge"><title>Node18&#45;&gt;Node19</title>
<path fill="none" stroke="midnightblue" d="M508.376,-130C518.685,-130 529.334,-130 539.759,-130"/>
<polygon fill="midnightblue" stroke="midnightblue" points="508.201,-126.5 498.201,-130 508.201,-133.5 508.201,-126.5"/>
</g>
<!-- Node21 -->
<g id="node21" class="node"><title>Node21</title>
<g id="a_node21"><a xlink:href="../../d0/df6/classCParser.html#a70d42f7013f81c71092f771ff9232941" target="_top" xlink:title="CParser::ctor_init_item">
<polygon fill="white" stroke="black" points="557.5,-57.5 557.5,-76.5 680.5,-76.5 680.5,-57.5 557.5,-57.5"/>
<text text-anchor="middle" x="619" y="-64.5" font-family="Helvetica,sans-Serif" font-size="10.00">CParser::ctor_init_item</text>
</a>
</g>
</g>
<!-- Node18&#45;&gt;Node21 -->
<g id="edge27" class="edge"><title>Node18&#45;&gt;Node21</title>
<path fill="none" stroke="midnightblue" d="M473.829,-117.043C508.508,-105.005 559.35,-87.358 590.473,-76.555"/>
<polygon fill="midnightblue" stroke="midnightblue" points="472.365,-113.846 464.066,-120.432 474.661,-120.459 472.365,-113.846"/>
</g>
<!-- Node19&#45;&gt;Node2 -->
<g id="edge25" class="edge"><title>Node19&#45;&gt;Node2</title>
<path fill="none" stroke="midnightblue" d="M702.623,-119.46C713.168,-118.444 723.827,-117.578 734,-117 783.254,-114.201 795.668,-116.645 845,-117 1142.02,-119.135 1498.47,-125.546 1628.7,-128.015"/>
<polygon fill="midnightblue" stroke="midnightblue" points="702.165,-115.989 692.568,-120.476 702.869,-122.953 702.165,-115.989"/>
</g>
<!-- Node20 -->
<g id="node20" class="node"><title>Node20</title>
<g id="a_node20"><a xlink:href="../../d0/df6/classCParser.html#a4e7cf3c3b19f9c664f345a10116c2c2c" target="_top" xlink:title="CParser::knr_param\l_decl_list">
<polygon fill="white" stroke="black" points="734,-127 734,-157 845,-157 845,-127 734,-127"/>
<text text-anchor="start" x="742" y="-145" font-family="Helvetica,sans-Serif" font-size="10.00">CParser::knr_param</text>
<text text-anchor="middle" x="789.5" y="-134" font-family="Helvetica,sans-Serif" font-size="10.00">_decl_list</text>
</a>
</g>
</g>
<!-- Node19&#45;&gt;Node20 -->
<g id="edge26" class="edge"><title>Node19&#45;&gt;Node20</title>
<path fill="none" stroke="midnightblue" d="M708.499,-136.303C717.156,-136.919 725.753,-137.531 733.924,-138.113"/>
<polygon fill="midnightblue" stroke="midnightblue" points="708.554,-132.798 698.331,-135.578 708.057,-139.78 708.554,-132.798"/>
</g>
<!-- Node22 -->
<g id="node22" class="node"><title>Node22</title>
<g id="a_node22"><a xlink:href="../../d0/df6/classCParser.html#a617e49ab4458d5b4adf577a6a0bc05cd" target="_top" xlink:title="CParser::ctor_init\l_item_list">
<polygon fill="white" stroke="black" points="740.5,-35 740.5,-65 838.5,-65 838.5,-35 740.5,-35"/>
<text text-anchor="start" x="748.5" y="-53" font-family="Helvetica,sans-Serif" font-size="10.00">CParser::ctor_init</text>
<text text-anchor="middle" x="789.5" y="-42" font-family="Helvetica,sans-Serif" font-size="10.00">_item_list</text>
</a>
</g>
</g>
<!-- Node21&#45;&gt;Node22 -->
<g id="edge28" class="edge"><title>Node21&#45;&gt;Node22</title>
<path fill="none" stroke="midnightblue" d="M691.081,-59.8286C707.727,-58.1493 725.075,-56.399 740.44,-54.8488"/>
<polygon fill="midnightblue" stroke="midnightblue" points="690.43,-56.3764 680.832,-60.8626 691.133,-63.341 690.43,-56.3764"/>
</g>
<!-- Node23 -->
<g id="node23" class="node"><title>Node23</title>
<g id="a_node23"><a xlink:href="../../d0/df6/classCParser.html#ab6c0eabf2b00874bf8f70b576d96ce52" target="_top" xlink:title="CParser::ctor_init_list">
<polygon fill="white" stroke="black" points="892.5,-38.5 892.5,-57.5 1008.5,-57.5 1008.5,-38.5 892.5,-38.5"/>
<text text-anchor="middle" x="950.5" y="-45.5" font-family="Helvetica,sans-Serif" font-size="10.00">CParser::ctor_init_list</text>
</a>
</g>
</g>
<!-- Node22&#45;&gt;Node23 -->
<g id="edge29" class="edge"><title>Node22&#45;&gt;Node23</title>
<path fill="none" stroke="midnightblue" d="M848.774,-49.267C862.972,-49.0884 878.144,-48.8976 892.291,-48.7196"/>
<polygon fill="midnightblue" stroke="midnightblue" points="848.592,-45.7689 838.637,-49.3945 848.68,-52.7684 848.592,-45.7689"/>
</g>
<!-- Node24 -->
<g id="node24" class="node"><title>Node24</title>
<g id="a_node24"><a xlink:href="../../d0/df6/classCParser.html#ad7a6fd3a8b7daa3c26191f4512236a59" target="_top" xlink:title="CParser::method_suffix">
<polygon fill="white" stroke="black" points="1056,-37.5 1056,-56.5 1181,-56.5 1181,-37.5 1056,-37.5"/>
<text text-anchor="middle" x="1118.5" y="-44.5" font-family="Helvetica,sans-Serif" font-size="10.00">CParser::method_suffix</text>
</a>
</g>
</g>
<!-- Node23&#45;&gt;Node24 -->
<g id="edge30" class="edge"><title>Node23&#45;&gt;Node24</title>
<path fill="none" stroke="midnightblue" d="M1018.76,-47.5948C1030.98,-47.5212 1043.67,-47.4447 1055.73,-47.3721"/>
<polygon fill="midnightblue" stroke="midnightblue" points="1018.61,-44.0956 1008.63,-47.6559 1018.65,-51.0955 1018.61,-44.0956"/>
</g>
<!-- Node25 -->
<g id="node25" class="node"><title>Node25</title>
<g id="a_node25"><a xlink:href="../../d0/df6/classCParser.html#a0dd2a579512bf1a17aaeac5fdec860a7" target="_top" xlink:title="CParser::method_declaration\l_or_definition_with_implicit_type">
<polygon fill="white" stroke="black" points="1217,-31 1217,-61 1387,-61 1387,-31 1217,-31"/>
<text text-anchor="start" x="1225" y="-49" font-family="Helvetica,sans-Serif" font-size="10.00">CParser::method_declaration</text>
<text text-anchor="middle" x="1302" y="-38" font-family="Helvetica,sans-Serif" font-size="10.00">_or_definition_with_implicit_type</text>
</a>
</g>
</g>
<!-- Node24&#45;&gt;Node25 -->
<g id="edge31" class="edge"><title>Node24&#45;&gt;Node25</title>
<path fill="none" stroke="midnightblue" d="M1191.34,-46.6042C1199.75,-46.5578 1208.4,-46.5102 1216.97,-46.463"/>
<polygon fill="midnightblue" stroke="midnightblue" points="1191.18,-43.1049 1181.2,-46.6601 1191.22,-50.1048 1191.18,-43.1049"/>
</g>
<!-- Node25&#45;&gt;Node2 -->
<g id="edge32" class="edge"><title>Node25&#45;&gt;Node2</title>
<path fill="none" stroke="midnightblue" d="M1380.99,-63.192C1455.42,-79.6018 1565.38,-103.843 1628.99,-117.866"/>
<polygon fill="midnightblue" stroke="midnightblue" points="1381.7,-59.7656 1371.18,-61.0307 1380.19,-66.6015 1381.7,-59.7656"/>
</g>
<!-- Node25&#45;&gt;Node14 -->
<g id="edge36" class="edge"><title>Node25&#45;&gt;Node14</title>
<path fill="none" stroke="midnightblue" d="M1372.05,-28.6395C1388.65,-24.9733 1406.38,-21.4711 1423,-19 1536.07,-2.18567 1565.19,-0 1679.5,-0 1679.5,-0 1679.5,-0 2318,-0 2423.06,-0 2543.35,-29.3559 2609.12,-47.99"/>
<polygon fill="midnightblue" stroke="midnightblue" points="1370.86,-25.3188 1361.88,-30.9356 1372.4,-32.1468 1370.86,-25.3188"/>
</g>
<!-- Node26 -->
<g id="node26" class="node"><title>Node26</title>
<g id="a_node26"><a xlink:href="../../d0/df6/classCParser.html#af0c9d35d4c997c6f34cf4a26563b513c" target="_top" xlink:title="CParser::method_declaration\l_or_definition_with_explicit_type">
<polygon fill="white" stroke="black" points="1423,-29 1423,-59 1593,-59 1593,-29 1423,-29"/>
<text text-anchor="start" x="1431" y="-47" font-family="Helvetica,sans-Serif" font-size="10.00">CParser::method_declaration</text>
<text text-anchor="middle" x="1508" y="-36" font-family="Helvetica,sans-Serif" font-size="10.00">_or_definition_with_explicit_type</text>
</a>
</g>
</g>
<!-- Node25&#45;&gt;Node26 -->
<g id="edge33" class="edge"><title>Node25&#45;&gt;Node26</title>
<path fill="none" stroke="midnightblue" d="M1397.4,-45.0745C1405.85,-44.9917 1414.36,-44.9082 1422.71,-44.8264"/>
<polygon fill="midnightblue" stroke="midnightblue" points="1397.12,-41.577 1387.15,-45.175 1397.19,-48.5767 1397.12,-41.577"/>
</g>
<!-- Node26&#45;&gt;Node2 -->
<g id="edge34" class="edge"><title>Node26&#45;&gt;Node2</title>
<path fill="none" stroke="midnightblue" d="M1566.26,-62.5047C1575.34,-65.9944 1584.53,-69.861 1593,-74 1616.5,-85.4891 1641.53,-101.919 1658.59,-113.827"/>
<polygon fill="midnightblue" stroke="midnightblue" points="1567.45,-59.2139 1556.86,-59.0088 1565.01,-65.7749 1567.45,-59.2139"/>
</g>
<!-- Node26&#45;&gt;Node14 -->
<g id="edge35" class="edge"><title>Node26&#45;&gt;Node14</title>
<path fill="none" stroke="midnightblue" d="M1603.57,-42.6774C1669.1,-41.8732 1758.35,-41 1837,-41 1837,-41 1837,-41 2318,-41 2411.89,-41 2520.04,-49.4334 2588.81,-55.8572"/>
<polygon fill="midnightblue" stroke="midnightblue" points="1603.22,-39.1814 1593.26,-42.8057 1603.31,-46.1808 1603.22,-39.1814"/>
</g>
</g>
</svg>
