<?xml version="1.0" encoding="UTF-8" standalone="no"?>
<!DOCTYPE svg PUBLIC "-//W3C//DTD SVG 1.1//EN"
 "http://www.w3.org/Graphics/SVG/1.1/DTD/svg11.dtd">
<!-- Generated by graphviz version 2.38.0 (20140413.2041)
 -->
<!-- Title: CParser::balanced Pages: 1 -->
<!--zoomable 462 -->
<svg id="main" version="1.1" xmlns="http://www.w3.org/2000/svg" xmlns:xlink="http://www.w3.org/1999/xlink" xml:space="preserve" onload="init(evt)">
<style type="text/css"><![CDATA[
.edge:hover path { stroke: red; }
.edge:hover polygon { stroke: red; fill: red; }
]]></style>
<script type="text/javascript"><![CDATA[
var edges = document.getElementsByTagName('g');
if (edges && edges.length) {
  for (var i=0;i<edges.length;i++) {
    if (edges[i].id.substr(0,4)=='edge') {
      edges[i].setAttribute('class','edge');
    }
  }
}
]]></script>
        <defs>
                <circle id="rim" cx="0" cy="0" r="7"/>
                <circle id="rim2" cx="0" cy="0" r="3.5"/>
                <g id="zoomPlus">
                        <use xlink:href="#rim" fill="#404040">
                                <set attributeName="fill" to="#808080" begin="zoomplus.mouseover" end="zoomplus.mouseout"/>
                        </use>
                        <path d="M-4,0h8M0,-4v8" fill="none" stroke="white" stroke-width="1.5" pointer-events="none"/>
                </g>
                <g id="zoomMin">
                        <use xlink:href="#rim" fill="#404040">
                                <set attributeName="fill" to="#808080" begin="zoomminus.mouseover" end="zoomminus.mouseout"/>
                        </use>
                        <path d="M-4,0h8" fill="none" stroke="white" stroke-width="1.5" pointer-events="none"/>
                </g>
                <g id="dirArrow">
                        <path fill="none" stroke="white" stroke-width="1.5" d="M0,-3.0v7 M-2.5,-0.5L0,-3.0L2.5,-0.5"/>
                </g>
               <g id="resetDef">
                       <use xlink:href="#rim2" fill="#404040">
                               <set attributeName="fill" to="#808080" begin="reset.mouseover" end="reset.mouseout"/>
                       </use>
               </g>
        </defs>

<script type="text/javascript">
var viewWidth = 978;
var viewHeight = 462;
var sectionId = 'dynsection-14';
</script>
<script xlink:href="../../svgpan.js"/>
<svg id="graph" class="graph">
<g id="viewport">
<title>CParser::balanced</title>
<polygon fill="white" stroke="none" points="-4,4 -4,-457.79 974,-457.79 974,4 -4,4"/>
<!-- Node1 -->
<g id="node1" class="node"><title>Node1</title>
<polygon fill="#bfbfbf" stroke="black" points="0,-240 0,-259 103,-259 103,-240 0,-240"/>
<text text-anchor="middle" x="51.5" y="-247" font-family="Helvetica,sans-Serif" font-size="10.00">CParser::balanced</text>
</g>
<!-- Node2 -->
<g id="node2" class="node"><title>Node2</title>
<g id="a_node2"><a xlink:href="../../d0/df6/classCParser.html#a52e049b9361b6e9c7a2c4f6266d98916" target="_top" xlink:title="CParser::scoped">
<polygon fill="white" stroke="black" points="139,-278 139,-297 234,-297 234,-278 139,-278"/>
<text text-anchor="middle" x="186.5" y="-285" font-family="Helvetica,sans-Serif" font-size="10.00">CParser::scoped</text>
</a>
</g>
</g>
<!-- Node1&#45;&gt;Node2 -->
<g id="edge1" class="edge"><title>Node1&#45;&gt;Node2</title>
<path fill="none" stroke="midnightblue" d="M86.0615,-259.089C103.073,-263.949 123.932,-269.909 142.145,-275.113"/>
<polygon fill="midnightblue" stroke="midnightblue" points="141.372,-278.532 151.949,-277.914 143.296,-271.801 141.372,-278.532"/>
</g>
<!-- Node4 -->
<g id="node4" class="node"><title>Node4</title>
<g id="a_node4"><a xlink:href="../../d0/df6/classCParser.html#a5e1630bd24884bb1cbc5680926dce957" target="_top" xlink:title="CParser::syn">
<polygon fill="white" stroke="black" points="582,-221 582,-240 659,-240 659,-221 582,-221"/>
<text text-anchor="middle" x="620.5" y="-228" font-family="Helvetica,sans-Serif" font-size="10.00">CParser::syn</text>
</a>
</g>
</g>
<!-- Node1&#45;&gt;Node4 -->
<g id="edge28" class="edge"><title>Node1&#45;&gt;Node4</title>
<path fill="none" stroke="midnightblue" d="M62.4443,-259.051C116.113,-309.43 375.096,-537.633 546,-420.5 603.211,-381.289 615.901,-290.659 618.708,-250.397"/>
<polygon fill="midnightblue" stroke="midnightblue" points="622.211,-250.431 619.275,-240.251 615.222,-250.041 622.211,-250.431"/>
</g>
<!-- Node11 -->
<g id="node11" class="node"><title>Node11</title>
<g id="a_node11"><a xlink:href="../../d0/df6/classCParser.html#a35e24b97e6c8566e503521071040413f" target="_top" xlink:title="CParser::block">
<polygon fill="white" stroke="black" points="144.5,-126 144.5,-145 228.5,-145 228.5,-126 144.5,-126"/>
<text text-anchor="middle" x="186.5" y="-133" font-family="Helvetica,sans-Serif" font-size="10.00">CParser::block</text>
</a>
</g>
</g>
<!-- Node1&#45;&gt;Node11 -->
<g id="edge14" class="edge"><title>Node1&#45;&gt;Node11</title>
<path fill="none" stroke="midnightblue" d="M63.8395,-239.78C86.6112,-220.262 138.123,-176.109 166.264,-151.988"/>
<polygon fill="midnightblue" stroke="midnightblue" points="168.874,-154.36 174.189,-145.195 164.319,-149.046 168.874,-154.36"/>
</g>
<!-- Node3 -->
<g id="node3" class="node"><title>Node3</title>
<g id="a_node3"><a xlink:href="../../d0/df6/classCParser.html#a2406cf660d9f7e6c3be87b61b2ffba4b" target="_top" xlink:title="CParser::keyword">
<polygon fill="white" stroke="black" points="435,-240 435,-259 535,-259 535,-240 435,-240"/>
<text text-anchor="middle" x="485" y="-247" font-family="Helvetica,sans-Serif" font-size="10.00">CParser::keyword</text>
</a>
</g>
</g>
<!-- Node2&#45;&gt;Node3 -->
<g id="edge2" class="edge"><title>Node2&#45;&gt;Node3</title>
<path fill="none" stroke="midnightblue" d="M234.113,-279.118C245.81,-277.145 258.348,-275.141 270,-273.5 322.095,-266.165 381.579,-259.642 424.588,-255.255"/>
<polygon fill="midnightblue" stroke="midnightblue" points="425.005,-258.731 434.602,-254.241 424.3,-251.766 425.005,-258.731"/>
</g>
<!-- Node2&#45;&gt;Node4 -->
<g id="edge13" class="edge"><title>Node2&#45;&gt;Node4</title>
<path fill="none" stroke="midnightblue" d="M234.035,-291.19C303.366,-295.321 437.278,-298.012 546,-268.5 563.91,-263.639 582.461,-254.007 596.446,-245.657"/>
<polygon fill="midnightblue" stroke="midnightblue" points="598.673,-248.395 605.334,-240.156 594.988,-242.443 598.673,-248.395"/>
</g>
<!-- Node8 -->
<g id="node8" class="node"><title>Node8</title>
<g id="a_node8"><a xlink:href="../../d0/df6/classCParser.html#a177b7d8d53b6d7c2c89bbea896b3d154" target="_top" xlink:title="CParser::op">
<polygon fill="white" stroke="black" points="449,-392 449,-411 521,-411 521,-392 449,-392"/>
<text text-anchor="middle" x="485" y="-399" font-family="Helvetica,sans-Serif" font-size="10.00">CParser::op</text>
</a>
</g>
</g>
<!-- Node2&#45;&gt;Node8 -->
<g id="edge7" class="edge"><title>Node2&#45;&gt;Node8</title>
<path fill="none" stroke="midnightblue" d="M198.744,-297.173C213.943,-309.784 242.339,-331.732 270,-344.5 325.38,-370.063 394.304,-385.833 438.718,-394.13"/>
<polygon fill="midnightblue" stroke="midnightblue" points="438.167,-397.587 448.632,-395.934 439.421,-390.701 438.167,-397.587"/>
</g>
<!-- Node9 -->
<g id="node9" class="node"><title>Node9</title>
<g id="a_node9"><a xlink:href="../../d0/df6/classCParser.html#a6125d39bebbef0edc81fe5f030e76759" target="_top" xlink:title="CParser::literal">
<polygon fill="white" stroke="black" points="286,-316 286,-335 372,-335 372,-316 286,-316"/>
<text text-anchor="middle" x="329" y="-323" font-family="Helvetica,sans-Serif" font-size="10.00">CParser::literal</text>
</a>
</g>
</g>
<!-- Node2&#45;&gt;Node9 -->
<g id="edge9" class="edge"><title>Node2&#45;&gt;Node9</title>
<path fill="none" stroke="midnightblue" d="M222.954,-297.089C241.091,-301.994 263.368,-308.02 282.733,-313.257"/>
<polygon fill="midnightblue" stroke="midnightblue" points="281.99,-316.682 292.557,-315.914 283.818,-309.925 281.99,-316.682"/>
</g>
<!-- Node3&#45;&gt;Node4 -->
<g id="edge3" class="edge"><title>Node3&#45;&gt;Node4</title>
<path fill="none" stroke="midnightblue" d="M535.331,-242.479C547.165,-240.795 559.785,-238.999 571.555,-237.324"/>
<polygon fill="midnightblue" stroke="midnightblue" points="572.232,-240.763 581.639,-235.888 571.246,-233.832 572.232,-240.763"/>
</g>
<!-- Node5 -->
<g id="node5" class="node"><title>Node5</title>
<g id="a_node5"><a xlink:href="../../da/d6a/classParseUtility.html#aabfa4c56607539ef14be2e2a7260006b" target="_top" xlink:title="ParseUtility::syn">
<polygon fill="white" stroke="black" points="695,-221 695,-240 786,-240 786,-221 695,-221"/>
<text text-anchor="middle" x="740.5" y="-228" font-family="Helvetica,sans-Serif" font-size="10.00">ParseUtility::syn</text>
</a>
</g>
</g>
<!-- Node4&#45;&gt;Node5 -->
<g id="edge4" class="edge"><title>Node4&#45;&gt;Node5</title>
<path fill="none" stroke="midnightblue" d="M659.16,-230.5C667.305,-230.5 676.076,-230.5 684.726,-230.5"/>
<polygon fill="midnightblue" stroke="midnightblue" points="684.779,-234 694.779,-230.5 684.779,-227 684.779,-234"/>
</g>
<!-- Node6 -->
<g id="node6" class="node"><title>Node6</title>
<g id="a_node6"><a xlink:href="../../d3/d5e/classParseStore.html#ab21a4aeadb4cc4938b58cbefbb8634e8" target="_top" xlink:title="ParseStore::currentInstance">
<polygon fill="white" stroke="black" points="822,-240 822,-259 970,-259 970,-240 822,-240"/>
<text text-anchor="middle" x="896" y="-247" font-family="Helvetica,sans-Serif" font-size="10.00">ParseStore::currentInstance</text>
</a>
</g>
</g>
<!-- Node5&#45;&gt;Node6 -->
<g id="edge5" class="edge"><title>Node5&#45;&gt;Node6</title>
<path fill="none" stroke="midnightblue" d="M786.311,-236.047C794.412,-237.049 803.091,-238.124 811.882,-239.212"/>
<polygon fill="midnightblue" stroke="midnightblue" points="811.476,-242.688 821.831,-240.443 812.336,-235.741 811.476,-242.688"/>
</g>
<!-- Node7 -->
<g id="node7" class="node"><title>Node7</title>
<g id="a_node7"><a xlink:href="../../d3/d5e/classParseStore.html#ae7b3d82d22174c1a1165a592d6c1700c" target="_top" xlink:title="ParseStore::filename">
<polygon fill="white" stroke="black" points="839,-202 839,-221 953,-221 953,-202 839,-202"/>
<text text-anchor="middle" x="896" y="-209" font-family="Helvetica,sans-Serif" font-size="10.00">ParseStore::filename</text>
</a>
</g>
</g>
<!-- Node5&#45;&gt;Node7 -->
<g id="edge6" class="edge"><title>Node5&#45;&gt;Node7</title>
<path fill="none" stroke="midnightblue" d="M786.311,-224.953C799.556,-223.314 814.345,-221.483 828.644,-219.713"/>
<polygon fill="midnightblue" stroke="midnightblue" points="829.446,-223.141 838.94,-218.439 828.586,-216.194 829.446,-223.141"/>
</g>
<!-- Node8&#45;&gt;Node4 -->
<g id="edge8" class="edge"><title>Node8&#45;&gt;Node4</title>
<path fill="none" stroke="midnightblue" d="M521.155,-392.324C530.01,-388.772 538.982,-383.957 546,-377.5 584.71,-341.882 605.784,-281.327 614.548,-250.225"/>
<polygon fill="midnightblue" stroke="midnightblue" points="618.027,-250.764 617.23,-240.199 611.264,-248.955 618.027,-250.764"/>
</g>
<!-- Node9&#45;&gt;Node4 -->
<g id="edge12" class="edge"><title>Node9&#45;&gt;Node4</title>
<path fill="none" stroke="midnightblue" d="M352.171,-335.081C393.236,-351.254 482.703,-379.003 546,-344.5 582.89,-324.391 604.061,-276.938 613.505,-250.024"/>
<polygon fill="midnightblue" stroke="midnightblue" points="616.938,-250.787 616.751,-240.194 610.291,-248.592 616.938,-250.787"/>
</g>
<!-- Node10 -->
<g id="node10" class="node"><title>Node10</title>
<g id="a_node10"><a xlink:href="../../d0/df6/classCParser.html#a37ac23e2bafc84982f17db1ace720958" target="_top" xlink:title="CParser::string_literal">
<polygon fill="white" stroke="black" points="426,-316 426,-335 544,-335 544,-316 426,-316"/>
<text text-anchor="middle" x="485" y="-323" font-family="Helvetica,sans-Serif" font-size="10.00">CParser::string_literal</text>
</a>
</g>
</g>
<!-- Node9&#45;&gt;Node10 -->
<g id="edge10" class="edge"><title>Node9&#45;&gt;Node10</title>
<path fill="none" stroke="midnightblue" d="M372.081,-325.5C385.54,-325.5 400.804,-325.5 415.635,-325.5"/>
<polygon fill="midnightblue" stroke="midnightblue" points="415.807,-329 425.807,-325.5 415.807,-322 415.807,-329"/>
</g>
<!-- Node10&#45;&gt;Node4 -->
<g id="edge11" class="edge"><title>Node10&#45;&gt;Node4</title>
<path fill="none" stroke="midnightblue" d="M516.419,-315.95C526.259,-312.189 536.958,-307.351 546,-301.5 568.874,-286.699 590.753,-264.108 604.6,-248.397"/>
<polygon fill="midnightblue" stroke="midnightblue" points="607.552,-250.333 611.422,-240.471 602.246,-245.767 607.552,-250.333"/>
</g>
<!-- Node11&#45;&gt;Node4 -->
<g id="edge27" class="edge"><title>Node11&#45;&gt;Node4</title>
<path fill="none" stroke="midnightblue" d="M218.86,-125.985C284.561,-107.995 439.385,-75.9441 546,-136.5 576.617,-153.89 598.978,-189.625 610.55,-211.679"/>
<polygon fill="midnightblue" stroke="midnightblue" points="607.482,-213.369 615.098,-220.734 613.737,-210.227 607.482,-213.369"/>
</g>
<!-- Node12 -->
<g id="node12" class="node"><title>Node12</title>
<g id="a_node12"><a xlink:href="../../d0/df6/classCParser.html#a0a168a887a9f004b6635cd3fb47f565e" target="_top" xlink:title="CParser::brace_block">
<polygon fill="white" stroke="black" points="271,-50 271,-69 387,-69 387,-50 271,-50"/>
<text text-anchor="middle" x="329" y="-57" font-family="Helvetica,sans-Serif" font-size="10.00">CParser::brace_block</text>
</a>
</g>
</g>
<!-- Node11&#45;&gt;Node12 -->
<g id="edge15" class="edge"><title>Node11&#45;&gt;Node12</title>
<path fill="none" stroke="midnightblue" d="M201.088,-125.923C217.101,-114.879 244.736,-96.5683 270,-83.5 277.214,-79.7684 285.144,-76.1753 292.761,-72.9564"/>
<polygon fill="midnightblue" stroke="midnightblue" points="294.242,-76.1318 302.164,-69.097 291.584,-69.656 294.242,-76.1318"/>
</g>
<!-- Node14 -->
<g id="node14" class="node"><title>Node14</title>
<g id="a_node14"><a xlink:href="../../d0/df6/classCParser.html#ac73c93a601c6e7123e0ebbd7be03b60d" target="_top" xlink:title="CParser::brack_block">
<polygon fill="white" stroke="black" points="271,-164 271,-183 387,-183 387,-164 271,-164"/>
<text text-anchor="middle" x="329" y="-171" font-family="Helvetica,sans-Serif" font-size="10.00">CParser::brack_block</text>
</a>
</g>
</g>
<!-- Node11&#45;&gt;Node14 -->
<g id="edge19" class="edge"><title>Node11&#45;&gt;Node14</title>
<path fill="none" stroke="midnightblue" d="M222.954,-145.089C241.091,-149.994 263.368,-156.02 282.733,-161.257"/>
<polygon fill="midnightblue" stroke="midnightblue" points="281.99,-164.682 292.557,-163.914 283.818,-157.925 281.99,-164.682"/>
</g>
<!-- Node16 -->
<g id="node16" class="node"><title>Node16</title>
<g id="a_node16"><a xlink:href="../../d0/df6/classCParser.html#a51affc383cd0859af5d84b628c8a2f5c" target="_top" xlink:title="CParser::paren_block">
<polygon fill="white" stroke="black" points="270,-126 270,-145 388,-145 388,-126 270,-126"/>
<text text-anchor="middle" x="329" y="-133" font-family="Helvetica,sans-Serif" font-size="10.00">CParser::paren_block</text>
</a>
</g>
</g>
<!-- Node11&#45;&gt;Node16 -->
<g id="edge24" class="edge"><title>Node11&#45;&gt;Node16</title>
<path fill="none" stroke="midnightblue" d="M228.516,-135.5C238.337,-135.5 249.086,-135.5 259.772,-135.5"/>
<polygon fill="midnightblue" stroke="midnightblue" points="259.966,-139 269.966,-135.5 259.966,-132 259.966,-139"/>
</g>
<!-- Node12&#45;&gt;Node4 -->
<g id="edge18" class="edge"><title>Node12&#45;&gt;Node4</title>
<path fill="none" stroke="midnightblue" d="M387.021,-51.7537C433.838,-48.471 499.73,-51.2367 546,-83.5 589.757,-114.011 608.803,-178.359 615.894,-210.848"/>
<polygon fill="midnightblue" stroke="midnightblue" points="612.514,-211.794 617.924,-220.904 619.375,-210.409 612.514,-211.794"/>
</g>
<!-- Node13 -->
<g id="node13" class="node"><title>Node13</title>
<g id="a_node13"><a xlink:href="../../d0/df6/classCParser.html#ad3478bb95eecaaa4fb98396fb1b48d82" target="_top" xlink:title="CParser::skip_until\l_matching_rbrace">
<polygon fill="white" stroke="black" points="433,-0.5 433,-30.5 537,-30.5 537,-0.5 433,-0.5"/>
<text text-anchor="start" x="441" y="-18.5" font-family="Helvetica,sans-Serif" font-size="10.00">CParser::skip_until</text>
<text text-anchor="middle" x="485" y="-7.5" font-family="Helvetica,sans-Serif" font-size="10.00">_matching_rbrace</text>
</a>
</g>
</g>
<!-- Node12&#45;&gt;Node13 -->
<g id="edge16" class="edge"><title>Node12&#45;&gt;Node13</title>
<path fill="none" stroke="midnightblue" d="M363.416,-49.9527C380.825,-44.9786 402.666,-38.7383 422.96,-32.94"/>
<polygon fill="midnightblue" stroke="midnightblue" points="424.118,-36.2492 432.772,-30.1366 422.195,-29.5185 424.118,-36.2492"/>
</g>
<!-- Node13&#45;&gt;Node4 -->
<g id="edge17" class="edge"><title>Node13&#45;&gt;Node4</title>
<path fill="none" stroke="midnightblue" d="M526.574,-30.6605C533.702,-34.6721 540.566,-39.5802 546,-45.5 590.902,-94.4139 609.805,-174.107 616.442,-210.831"/>
<polygon fill="midnightblue" stroke="midnightblue" points="613.004,-211.491 618.124,-220.767 619.906,-210.323 613.004,-211.491"/>
</g>
<!-- Node14&#45;&gt;Node4 -->
<g id="edge23" class="edge"><title>Node14&#45;&gt;Node4</title>
<path fill="none" stroke="midnightblue" d="M387.044,-172.538C431.244,-173.212 493.578,-177.287 546,-192.5 563.71,-197.64 582.141,-207.18 596.116,-215.416"/>
<polygon fill="midnightblue" stroke="midnightblue" points="594.655,-218.624 605.016,-220.838 598.298,-212.646 594.655,-218.624"/>
</g>
<!-- Node15 -->
<g id="node15" class="node"><title>Node15</title>
<g id="a_node15"><a xlink:href="../../d0/df6/classCParser.html#a967d50b91351cf003898543b6d7af7a7" target="_top" xlink:title="CParser::balanced_list">
<polygon fill="white" stroke="black" points="424,-202 424,-221 546,-221 546,-202 424,-202"/>
<text text-anchor="middle" x="485" y="-209" font-family="Helvetica,sans-Serif" font-size="10.00">CParser::balanced_list</text>
</a>
</g>
</g>
<!-- Node14&#45;&gt;Node15 -->
<g id="edge20" class="edge"><title>Node14&#45;&gt;Node15</title>
<path fill="none" stroke="midnightblue" d="M368.861,-183.089C389.091,-188.081 414.021,-194.232 435.504,-199.533"/>
<polygon fill="midnightblue" stroke="midnightblue" points="434.871,-202.982 445.419,-201.98 436.548,-196.186 434.871,-202.982"/>
</g>
<!-- Node15&#45;&gt;Node1 -->
<g id="edge21" class="edge"><title>Node15&#45;&gt;Node1</title>
<path fill="none" stroke="midnightblue" d="M423.749,-216.806C341.758,-224.027 195.844,-236.876 113.477,-244.13"/>
<polygon fill="midnightblue" stroke="midnightblue" points="112.922,-240.665 103.267,-245.029 113.536,-247.638 112.922,-240.665"/>
</g>
<!-- Node15&#45;&gt;Node4 -->
<g id="edge22" class="edge"><title>Node15&#45;&gt;Node4</title>
<path fill="none" stroke="midnightblue" d="M546.111,-220.055C554.77,-221.288 563.581,-222.541 571.951,-223.733"/>
<polygon fill="midnightblue" stroke="midnightblue" points="571.509,-227.205 581.902,-225.149 572.495,-220.275 571.509,-227.205"/>
</g>
<!-- Node16&#45;&gt;Node4 -->
<g id="edge26" class="edge"><title>Node16&#45;&gt;Node4</title>
<path fill="none" stroke="midnightblue" d="M388.276,-136.791C433.138,-139.679 495.762,-147.907 546,-170.5 568.605,-180.666 590.029,-199.61 603.851,-213.501"/>
<polygon fill="midnightblue" stroke="midnightblue" points="601.605,-216.214 611.062,-220.991 606.648,-211.36 601.605,-216.214"/>
</g>
<!-- Node16&#45;&gt;Node15 -->
<g id="edge25" class="edge"><title>Node16&#45;&gt;Node15</title>
<path fill="none" stroke="midnightblue" d="M363.299,-145.023C371.509,-147.747 380.185,-150.952 388,-154.5 414.391,-166.482 442.705,-183.914 461.692,-196.341"/>
<polygon fill="midnightblue" stroke="midnightblue" points="459.945,-199.383 470.214,-201.993 463.815,-193.549 459.945,-199.383"/>
</g>
</g>
</svg>
        <g id="navigator" transform="translate(0 0)" fill="#404254">
                <rect fill="#f2f5e9" fill-opacity="0.5" stroke="#606060" stroke-width=".5" x="0" y="0" width="60" height="60"/>
                <use id="zoomplus" xlink:href="#zoomPlus" x="17" y="9" onmousedown="handleZoom(evt,'in')"/>
                <use id="zoomminus" xlink:href="#zoomMin" x="42" y="9" onmousedown="handleZoom(evt,'out')"/>
                <use id="reset" xlink:href="#resetDef" x="30" y="36" onmousedown="handleReset()"/>
                <g id="arrowUp" xlink:href="#dirArrow" transform="translate(30 24)" onmousedown="handlePan(0,-1)">
                  <use xlink:href="#rim" fill="#404040">
                        <set attributeName="fill" to="#808080" begin="arrowUp.mouseover" end="arrowUp.mouseout"/>
                  </use>
                  <path fill="none" stroke="white" stroke-width="1.5" d="M0,-3.0v7 M-2.5,-0.5L0,-3.0L2.5,-0.5"/>
                </g>
                <g id="arrowRight" xlink:href="#dirArrow" transform="rotate(90) translate(36 -43)" onmousedown="handlePan(1,0)">
                  <use xlink:href="#rim" fill="#404040">
                        <set attributeName="fill" to="#808080" begin="arrowRight.mouseover" end="arrowRight.mouseout"/>
                  </use>
                  <path fill="none" stroke="white" stroke-width="1.5" d="M0,-3.0v7 M-2.5,-0.5L0,-3.0L2.5,-0.5"/>
                </g>
                <g id="arrowDown" xlink:href="#dirArrow" transform="rotate(180) translate(-30 -48)" onmousedown="handlePan(0,1)">
                  <use xlink:href="#rim" fill="#404040">
                        <set attributeName="fill" to="#808080" begin="arrowDown.mouseover" end="arrowDown.mouseout"/>
                  </use>
                  <path fill="none" stroke="white" stroke-width="1.5" d="M0,-3.0v7 M-2.5,-0.5L0,-3.0L2.5,-0.5"/>
                </g>
                <g id="arrowLeft" xlink:href="#dirArrow" transform="rotate(270) translate(-36 17)" onmousedown="handlePan(-1,0)">
                  <use xlink:href="#rim" fill="#404040">
                        <set attributeName="fill" to="#808080" begin="arrowLeft.mouseover" end="arrowLeft.mouseout"/>
                  </use>
                  <path fill="none" stroke="white" stroke-width="1.5" d="M0,-3.0v7 M-2.5,-0.5L0,-3.0L2.5,-0.5"/>
                </g>
        </g>
        <svg viewBox="0 0 15 15" width="100%" height="30px" preserveAspectRatio="xMaxYMin meet">
         <g id="arrow_out" transform="scale(0.3 0.3)">
          <a xlink:href="classCParser_a424ec587e8167b682804c23c4804d895_cgraph_org.svg" target="_base">
           <rect id="button" ry="5" rx="5" y="6" x="6" height="38" width="38"
                fill="#f2f5e9" fill-opacity="0.5" stroke="#606060" stroke-width="1.0"/>
           <path id="arrow"
             d="M 11.500037,31.436501 C 11.940474,20.09759 22.043105,11.32322 32.158766,21.979434 L 37.068811,17.246167 C 37.068811,17.246167 37.088388,32 37.088388,32 L 22.160133,31.978069 C 22.160133,31.978069 26.997745,27.140456 26.997745,27.140456 C 18.528582,18.264221 13.291696,25.230495 11.500037,31.436501 z"
             style="fill:#404040;"/>
          </a>
         </g>
        </svg>
</svg>
