<?xml version="1.0" encoding="UTF-8" standalone="no"?>
<!DOCTYPE svg PUBLIC "-//W3C//DTD SVG 1.1//EN"
 "http://www.w3.org/Graphics/SVG/1.1/DTD/svg11.dtd">
<!-- Generated by graphviz version 2.38.0 (20140413.2041)
 -->
<!-- Title: CParser::inheritance_item_list Pages: 1 -->
<svg width="2391pt" height="1140pt"
 viewBox="0.00 0.00 2391.00 1140.39" xmlns="http://www.w3.org/2000/svg" xmlns:xlink="http://www.w3.org/1999/xlink">
<g id="graph0" class="graph" transform="scale(1 1) rotate(0) translate(4 1136.39)">
<title>CParser::inheritance_item_list</title>
<polygon fill="white" stroke="none" points="-4,4 -4,-1136.39 2387,-1136.39 2387,4 -4,4"/>
<!-- Node1 -->
<g id="node1" class="node"><title>Node1</title>
<polygon fill="#bfbfbf" stroke="black" points="0,-1077.5 0,-1107.5 113,-1107.5 113,-1077.5 0,-1077.5"/>
<text text-anchor="start" x="8" y="-1095.5" font-family="Helvetica,sans-Serif" font-size="10.00">CParser::inheritance</text>
<text text-anchor="middle" x="56.5" y="-1084.5" font-family="Helvetica,sans-Serif" font-size="10.00">_item_list</text>
</g>
<!-- Node2 -->
<g id="node2" class="node"><title>Node2</title>
<g id="a_node2"><a xlink:href="../../d0/df6/classCParser.html#a3fce2125a1d6753cea421ea08a7c7eea" target="_top" xlink:title="CParser::inheritance_item">
<polygon fill="white" stroke="black" points="149,-1026 149,-1045 287,-1045 287,-1026 149,-1026"/>
<text text-anchor="middle" x="218" y="-1033" font-family="Helvetica,sans-Serif" font-size="10.00">CParser::inheritance_item</text>
</a>
</g>
</g>
<!-- Node1&#45;&gt;Node2 -->
<g id="edge1" class="edge"><title>Node1&#45;&gt;Node2</title>
<path fill="none" stroke="midnightblue" d="M99.8243,-1077.37C124.97,-1068.39 156.535,-1057.11 180.567,-1048.52"/>
<polygon fill="midnightblue" stroke="midnightblue" points="181.796,-1051.8 190.035,-1045.14 179.44,-1045.21 181.796,-1051.8"/>
</g>
<!-- Node6 -->
<g id="node6" class="node"><title>Node6</title>
<g id="a_node6"><a xlink:href="../../d0/df6/classCParser.html#a5e1630bd24884bb1cbc5680926dce957" target="_top" xlink:title="CParser::syn">
<polygon fill="white" stroke="black" points="1995,-671 1995,-690 2072,-690 2072,-671 1995,-671"/>
<text text-anchor="middle" x="2033.5" y="-678" font-family="Helvetica,sans-Serif" font-size="10.00">CParser::syn</text>
</a>
</g>
</g>
<!-- Node1&#45;&gt;Node6 -->
<g id="edge69" class="edge"><title>Node1&#45;&gt;Node6</title>
<path fill="none" stroke="midnightblue" d="M113.025,-1103.11C178.416,-1114.65 290.436,-1131.5 387.5,-1131.5 387.5,-1131.5 387.5,-1131.5 1712,-1131.5 1826.1,-1131.5 1881.84,-1145.56 1959,-1061.5 2008.52,-1007.55 2026.94,-770.471 2031.37,-700.197"/>
<polygon fill="midnightblue" stroke="midnightblue" points="2034.87,-700.265 2031.98,-690.072 2027.88,-699.842 2034.87,-700.265"/>
</g>
<!-- Node3 -->
<g id="node3" class="node"><title>Node3</title>
<g id="a_node3"><a xlink:href="../../d0/df6/classCParser.html#ac692e92b2387b4f8738401bdaff2013e" target="_top" xlink:title="CParser::inheritance\l_access_key">
<polygon fill="white" stroke="black" points="1296,-1001.5 1296,-1031.5 1409,-1031.5 1409,-1001.5 1296,-1001.5"/>
<text text-anchor="start" x="1304" y="-1019.5" font-family="Helvetica,sans-Serif" font-size="10.00">CParser::inheritance</text>
<text text-anchor="middle" x="1352.5" y="-1008.5" font-family="Helvetica,sans-Serif" font-size="10.00">_access_key</text>
</a>
</g>
</g>
<!-- Node2&#45;&gt;Node3 -->
<g id="edge2" class="edge"><title>Node2&#45;&gt;Node3</title>
<path fill="none" stroke="midnightblue" d="M287.294,-1029.46C356.188,-1023.9 465.641,-1016.5 560.5,-1016.5 560.5,-1016.5 560.5,-1016.5 941,-1016.5 1062.65,-1016.5 1204.58,-1016.5 1285.66,-1016.5"/>
<polygon fill="midnightblue" stroke="midnightblue" points="1285.73,-1020 1295.73,-1016.5 1285.73,-1013 1285.73,-1020"/>
</g>
<!-- Node2&#45;&gt;Node6 -->
<g id="edge68" class="edge"><title>Node2&#45;&gt;Node6</title>
<path fill="none" stroke="midnightblue" d="M287.324,-1037.71C482.506,-1043.82 1059.35,-1060.5 1538.5,-1060.5 1538.5,-1060.5 1538.5,-1060.5 1712,-1060.5 1822.94,-1060.5 1878.02,-1100.32 1959,-1024.5 2006.94,-979.612 2026.21,-767.322 2031.14,-700.612"/>
<polygon fill="midnightblue" stroke="midnightblue" points="2034.66,-700.461 2031.88,-690.238 2027.68,-699.965 2034.66,-700.461"/>
</g>
<!-- Node10 -->
<g id="node10" class="node"><title>Node10</title>
<g id="a_node10"><a xlink:href="../../d0/df6/classCParser.html#a03c75fc2be131ba2c0a21fd9687b49ca" target="_top" xlink:title="CParser::type_name">
<polygon fill="white" stroke="black" points="332,-842 332,-861 445,-861 445,-842 332,-842"/>
<text text-anchor="middle" x="388.5" y="-849" font-family="Helvetica,sans-Serif" font-size="10.00">CParser::type_name</text>
</a>
</g>
</g>
<!-- Node2&#45;&gt;Node10 -->
<g id="edge10" class="edge"><title>Node2&#45;&gt;Node10</title>
<path fill="none" stroke="midnightblue" d="M227.822,-1025.87C254.892,-996.306 337.036,-906.607 371.748,-868.701"/>
<polygon fill="midnightblue" stroke="midnightblue" points="374.593,-870.777 378.765,-861.038 369.43,-866.049 374.593,-870.777"/>
</g>
<!-- Node32 -->
<g id="node32" class="node"><title>Node32</title>
<g id="a_node32"><a xlink:href="../../d3/d5e/classParseStore.html#aa8ae64513f8e2a44885a25d7b78a73e9" target="_top" xlink:title="ParseStore::record\l_userel_extent">
<polygon fill="white" stroke="black" points="336,-121.5 336,-151.5 441,-151.5 441,-121.5 336,-121.5"/>
<text text-anchor="start" x="344" y="-139.5" font-family="Helvetica,sans-Serif" font-size="10.00">ParseStore::record</text>
<text text-anchor="middle" x="388.5" y="-128.5" font-family="Helvetica,sans-Serif" font-size="10.00">_userel_extent</text>
</a>
</g>
</g>
<!-- Node2&#45;&gt;Node32 -->
<g id="edge56" class="edge"><title>Node2&#45;&gt;Node32</title>
<path fill="none" stroke="midnightblue" d="M220.835,-1025.71C237.156,-938.634 357.437,-296.895 382.809,-161.526"/>
<polygon fill="midnightblue" stroke="midnightblue" points="386.256,-162.137 384.658,-151.664 379.375,-160.848 386.256,-162.137"/>
</g>
<!-- Node41 -->
<g id="node41" class="node"><title>Node41</title>
<g id="a_node41"><a xlink:href="../../d3/d5e/classParseStore.html#a0915da8493f5b1f137c9c0112318bd89" target="_top" xlink:title="ParseStore::get_visibility">
<polygon fill="white" stroke="black" points="323,-1084 323,-1103 454,-1103 454,-1084 323,-1084"/>
<text text-anchor="middle" x="388.5" y="-1091" font-family="Helvetica,sans-Serif" font-size="10.00">ParseStore::get_visibility</text>
</a>
</g>
</g>
<!-- Node2&#45;&gt;Node41 -->
<g id="edge67" class="edge"><title>Node2&#45;&gt;Node41</title>
<path fill="none" stroke="midnightblue" d="M246.824,-1045.08C274.996,-1054.77 318.745,-1069.83 349.972,-1080.58"/>
<polygon fill="midnightblue" stroke="midnightblue" points="349.04,-1083.96 359.634,-1083.91 351.318,-1077.34 349.04,-1083.96"/>
</g>
<!-- Node4 -->
<g id="node4" class="node"><title>Node4</title>
<g id="a_node4"><a xlink:href="../../d0/df6/classCParser.html#a987f3febe53080d16c0643fc707ed3d8" target="_top" xlink:title="CParser::access_key">
<polygon fill="white" stroke="black" points="1481.5,-975 1481.5,-994 1597.5,-994 1597.5,-975 1481.5,-975"/>
<text text-anchor="middle" x="1539.5" y="-982" font-family="Helvetica,sans-Serif" font-size="10.00">CParser::access_key</text>
</a>
</g>
</g>
<!-- Node3&#45;&gt;Node4 -->
<g id="edge3" class="edge"><title>Node3&#45;&gt;Node4</title>
<path fill="none" stroke="midnightblue" d="M1409.01,-1006.9C1429.22,-1003.4 1452.26,-999.418 1473.24,-995.789"/>
<polygon fill="midnightblue" stroke="midnightblue" points="1474.09,-999.192 1483.35,-994.039 1472.9,-992.295 1474.09,-999.192"/>
</g>
<!-- Node3&#45;&gt;Node6 -->
<g id="edge9" class="edge"><title>Node3&#45;&gt;Node6</title>
<path fill="none" stroke="midnightblue" d="M1409.24,-1022.4C1543.17,-1035.29 1878.03,-1059.55 1959,-989.5 2003.46,-951.034 2024.85,-762.274 2030.75,-700.273"/>
<polygon fill="midnightblue" stroke="midnightblue" points="2034.25,-700.515 2031.68,-690.236 2027.28,-699.873 2034.25,-700.515"/>
</g>
<!-- Node5 -->
<g id="node5" class="node"><title>Node5</title>
<g id="a_node5"><a xlink:href="../../d3/d5e/classParseStore.html#a238b27bbf877e69812ecc620fbc18d5f" target="_top" xlink:title="ParseStore::set_flag">
<polygon fill="white" stroke="black" points="1655,-785 1655,-804 1767,-804 1767,-785 1655,-785"/>
<text text-anchor="middle" x="1711" y="-792" font-family="Helvetica,sans-Serif" font-size="10.00">ParseStore::set_flag</text>
</a>
</g>
</g>
<!-- Node4&#45;&gt;Node5 -->
<g id="edge4" class="edge"><title>Node4&#45;&gt;Node5</title>
<path fill="none" stroke="midnightblue" d="M1549.14,-974.817C1576.11,-944.586 1659.03,-851.635 1694.09,-812.337"/>
<polygon fill="midnightblue" stroke="midnightblue" points="1697.13,-814.184 1701.18,-804.392 1691.91,-809.524 1697.13,-814.184"/>
</g>
<!-- Node4&#45;&gt;Node6 -->
<g id="edge5" class="edge"><title>Node4&#45;&gt;Node6</title>
<path fill="none" stroke="midnightblue" d="M1597.74,-989.03C1699.28,-995.808 1905.3,-1003.5 1959,-959.5 1999.86,-926.017 2023.29,-758.29 2030.27,-700.279"/>
<polygon fill="midnightblue" stroke="midnightblue" points="2033.76,-700.55 2031.45,-690.212 2026.81,-699.737 2033.76,-700.55"/>
</g>
<!-- Node7 -->
<g id="node7" class="node"><title>Node7</title>
<g id="a_node7"><a xlink:href="../../da/d6a/classParseUtility.html#aabfa4c56607539ef14be2e2a7260006b" target="_top" xlink:title="ParseUtility::syn">
<polygon fill="white" stroke="black" points="2108,-671 2108,-690 2199,-690 2199,-671 2108,-671"/>
<text text-anchor="middle" x="2153.5" y="-678" font-family="Helvetica,sans-Serif" font-size="10.00">ParseUtility::syn</text>
</a>
</g>
</g>
<!-- Node6&#45;&gt;Node7 -->
<g id="edge6" class="edge"><title>Node6&#45;&gt;Node7</title>
<path fill="none" stroke="midnightblue" d="M2072.16,-680.5C2080.3,-680.5 2089.08,-680.5 2097.73,-680.5"/>
<polygon fill="midnightblue" stroke="midnightblue" points="2097.78,-684 2107.78,-680.5 2097.78,-677 2097.78,-684"/>
</g>
<!-- Node8 -->
<g id="node8" class="node"><title>Node8</title>
<g id="a_node8"><a xlink:href="../../d3/d5e/classParseStore.html#ab21a4aeadb4cc4938b58cbefbb8634e8" target="_top" xlink:title="ParseStore::currentInstance">
<polygon fill="white" stroke="black" points="2235,-690 2235,-709 2383,-709 2383,-690 2235,-690"/>
<text text-anchor="middle" x="2309" y="-697" font-family="Helvetica,sans-Serif" font-size="10.00">ParseStore::currentInstance</text>
</a>
</g>
</g>
<!-- Node7&#45;&gt;Node8 -->
<g id="edge7" class="edge"><title>Node7&#45;&gt;Node8</title>
<path fill="none" stroke="midnightblue" d="M2199.31,-686.047C2207.41,-687.049 2216.09,-688.124 2224.88,-689.212"/>
<polygon fill="midnightblue" stroke="midnightblue" points="2224.48,-692.688 2234.83,-690.443 2225.34,-685.741 2224.48,-692.688"/>
</g>
<!-- Node9 -->
<g id="node9" class="node"><title>Node9</title>
<g id="a_node9"><a xlink:href="../../d3/d5e/classParseStore.html#ae7b3d82d22174c1a1165a592d6c1700c" target="_top" xlink:title="ParseStore::filename">
<polygon fill="white" stroke="black" points="2252,-652 2252,-671 2366,-671 2366,-652 2252,-652"/>
<text text-anchor="middle" x="2309" y="-659" font-family="Helvetica,sans-Serif" font-size="10.00">ParseStore::filename</text>
</a>
</g>
</g>
<!-- Node7&#45;&gt;Node9 -->
<g id="edge8" class="edge"><title>Node7&#45;&gt;Node9</title>
<path fill="none" stroke="midnightblue" d="M2199.31,-674.953C2212.56,-673.314 2227.35,-671.483 2241.64,-669.713"/>
<polygon fill="midnightblue" stroke="midnightblue" points="2242.45,-673.141 2251.94,-668.439 2241.59,-666.194 2242.45,-673.141"/>
</g>
<!-- Node10&#45;&gt;Node6 -->
<g id="edge55" class="edge"><title>Node10&#45;&gt;Node6</title>
<path fill="none" stroke="midnightblue" d="M390.077,-841.794C394.132,-776.497 420.267,-401.264 490,-315.5 565.812,-222.26 619.828,-212.5 740,-212.5 740,-212.5 740,-212.5 1712,-212.5 1821.98,-212.5 1877.44,-153.724 1959,-227.5 2024.33,-286.592 2031.64,-581.582 2032.42,-660.859"/>
<polygon fill="midnightblue" stroke="midnightblue" points="2028.92,-660.963 2032.49,-670.937 2035.92,-660.912 2028.92,-660.963"/>
</g>
<!-- Node11 -->
<g id="node11" class="node"><title>Node11</title>
<g id="a_node11"><a xlink:href="../../d0/df6/classCParser.html#a10a7b42902ca78cb3c11c04eb3b55d96" target="_top" xlink:title="CParser::builtin_type">
<polygon fill="white" stroke="black" points="1654.5,-937 1654.5,-956 1767.5,-956 1767.5,-937 1654.5,-937"/>
<text text-anchor="middle" x="1711" y="-944" font-family="Helvetica,sans-Serif" font-size="10.00">CParser::builtin_type</text>
</a>
</g>
</g>
<!-- Node10&#45;&gt;Node11 -->
<g id="edge11" class="edge"><title>Node10&#45;&gt;Node11</title>
<path fill="none" stroke="midnightblue" d="M409.912,-861.132C463.028,-885.284 610.44,-946.5 740,-946.5 740,-946.5 740,-946.5 1353.5,-946.5 1454.96,-946.5 1572.67,-946.5 1644.21,-946.5"/>
<polygon fill="midnightblue" stroke="midnightblue" points="1644.42,-950 1654.42,-946.5 1644.42,-943 1644.42,-950"/>
</g>
<!-- Node13 -->
<g id="node13" class="node"><title>Node13</title>
<g id="a_node13"><a xlink:href="../../d0/df6/classCParser.html#ab3ce487b55d4cee3cdcb791d4f7c33b0" target="_top" xlink:title="CParser::user_type">
<polygon fill="white" stroke="black" points="508,-842 508,-861 615,-861 615,-842 508,-842"/>
<text text-anchor="middle" x="561.5" y="-849" font-family="Helvetica,sans-Serif" font-size="10.00">CParser::user_type</text>
</a>
</g>
</g>
<!-- Node10&#45;&gt;Node13 -->
<g id="edge15" class="edge"><title>Node10&#45;&gt;Node13</title>
<path fill="none" stroke="midnightblue" d="M445.019,-851.5C461.894,-851.5 480.553,-851.5 497.863,-851.5"/>
<polygon fill="midnightblue" stroke="midnightblue" points="497.875,-855 507.875,-851.5 497.875,-848 497.875,-855"/>
</g>
<!-- Node11&#45;&gt;Node6 -->
<g id="edge14" class="edge"><title>Node11&#45;&gt;Node6</title>
<path fill="none" stroke="midnightblue" d="M1752.03,-956.023C1805.44,-966.198 1900.1,-975.048 1959,-927.5 1995.16,-898.307 2021.04,-753.821 2029.51,-700.4"/>
<polygon fill="midnightblue" stroke="midnightblue" points="2033.01,-700.611 2031.09,-690.193 2026.1,-699.54 2033.01,-700.611"/>
</g>
<!-- Node12 -->
<g id="node12" class="node"><title>Node12</title>
<g id="a_node12"><a xlink:href="../../d0/df6/classCParser.html#a2892a3b78b33e67d6b648ed24668fed0" target="_top" xlink:title="CParser::type_keyword">
<polygon fill="white" stroke="black" points="1819,-899 1819,-918 1945,-918 1945,-899 1819,-899"/>
<text text-anchor="middle" x="1882" y="-906" font-family="Helvetica,sans-Serif" font-size="10.00">CParser::type_keyword</text>
</a>
</g>
</g>
<!-- Node11&#45;&gt;Node12 -->
<g id="edge12" class="edge"><title>Node11&#45;&gt;Node12</title>
<path fill="none" stroke="midnightblue" d="M1754.65,-936.911C1777.15,-931.851 1804.95,-925.6 1828.74,-920.251"/>
<polygon fill="midnightblue" stroke="midnightblue" points="1829.67,-923.629 1838.66,-918.02 1828.14,-916.799 1829.67,-923.629"/>
</g>
<!-- Node12&#45;&gt;Node6 -->
<g id="edge13" class="edge"><title>Node12&#45;&gt;Node6</title>
<path fill="none" stroke="midnightblue" d="M1935.57,-898.919C1944.17,-895.487 1952.41,-890.827 1959,-884.5 2012.23,-833.351 2027.04,-740.858 2031.05,-700.377"/>
<polygon fill="midnightblue" stroke="midnightblue" points="2034.56,-700.472 2031.94,-690.207 2027.59,-699.866 2034.56,-700.472"/>
</g>
<!-- Node13&#45;&gt;Node6 -->
<g id="edge54" class="edge"><title>Node13&#45;&gt;Node6</title>
<path fill="none" stroke="midnightblue" d="M615.147,-855.835C687.904,-861.443 823.321,-870.5 939,-870.5 939,-870.5 939,-870.5 1712,-870.5 1823.35,-870.5 1869.63,-894.923 1959,-828.5 2002.05,-796.506 2021.42,-732.308 2028.74,-700.007"/>
<polygon fill="midnightblue" stroke="midnightblue" points="2032.21,-700.524 2030.84,-690.017 2025.36,-699.081 2032.21,-700.524"/>
</g>
<!-- Node14 -->
<g id="node14" class="node"><title>Node14</title>
<g id="a_node14"><a xlink:href="../../d0/df6/classCParser.html#a631e11d228a64f7cd7eaa437a58d2bca" target="_top" xlink:title="CParser::class_key">
<polygon fill="white" stroke="black" points="1486,-823 1486,-842 1593,-842 1593,-823 1486,-823"/>
<text text-anchor="middle" x="1539.5" y="-830" font-family="Helvetica,sans-Serif" font-size="10.00">CParser::class_key</text>
</a>
</g>
</g>
<!-- Node13&#45;&gt;Node14 -->
<g id="edge16" class="edge"><title>Node13&#45;&gt;Node14</title>
<path fill="none" stroke="midnightblue" d="M615.147,-847.165C687.904,-841.557 823.321,-832.5 939,-832.5 939,-832.5 939,-832.5 1156,-832.5 1268.58,-832.5 1399.79,-832.5 1475.59,-832.5"/>
<polygon fill="midnightblue" stroke="midnightblue" points="1475.91,-836 1485.91,-832.5 1475.91,-829 1475.91,-836"/>
</g>
<!-- Node15 -->
<g id="node15" class="node"><title>Node15</title>
<g id="a_node15"><a xlink:href="../../d0/df6/classCParser.html#ac121563570276b8286f8351a4f69e56e" target="_top" xlink:title="CParser::scoped_identifier">
<polygon fill="white" stroke="black" points="670.5,-709 670.5,-728 811.5,-728 811.5,-709 670.5,-709"/>
<text text-anchor="middle" x="741" y="-716" font-family="Helvetica,sans-Serif" font-size="10.00">CParser::scoped_identifier</text>
</a>
</g>
</g>
<!-- Node13&#45;&gt;Node15 -->
<g id="edge19" class="edge"><title>Node13&#45;&gt;Node15</title>
<path fill="none" stroke="midnightblue" d="M575.265,-841.935C605.438,-819.327 681.411,-762.4 718.694,-734.464"/>
<polygon fill="midnightblue" stroke="midnightblue" points="720.967,-737.135 726.871,-728.337 716.77,-731.533 720.967,-737.135"/>
</g>
<!-- Node30 -->
<g id="node30" class="node"><title>Node30</title>
<g id="a_node30"><a xlink:href="../../da/d6a/classParseUtility.html#a128c7755b687730e50a5c063261f6c78" target="_top" xlink:title="ParseUtility::scopeCombine">
<polygon fill="white" stroke="black" points="669,-899 669,-918 813,-918 813,-899 669,-899"/>
<text text-anchor="middle" x="741" y="-906" font-family="Helvetica,sans-Serif" font-size="10.00">ParseUtility::scopeCombine</text>
</a>
</g>
</g>
<!-- Node13&#45;&gt;Node30 -->
<g id="edge52" class="edge"><title>Node13&#45;&gt;Node30</title>
<path fill="none" stroke="midnightblue" d="M592.21,-861.041C621.903,-870.576 667.734,-885.294 700.483,-895.81"/>
<polygon fill="midnightblue" stroke="midnightblue" points="699.602,-899.203 710.194,-898.928 701.743,-892.538 699.602,-899.203"/>
</g>
<!-- Node14&#45;&gt;Node5 -->
<g id="edge17" class="edge"><title>Node14&#45;&gt;Node5</title>
<path fill="none" stroke="midnightblue" d="M1583.27,-822.911C1605.84,-817.851 1633.72,-811.6 1657.58,-806.251"/>
<polygon fill="midnightblue" stroke="midnightblue" points="1658.54,-809.623 1667.54,-804.02 1657.01,-802.792 1658.54,-809.623"/>
</g>
<!-- Node14&#45;&gt;Node6 -->
<g id="edge18" class="edge"><title>Node14&#45;&gt;Node6</title>
<path fill="none" stroke="midnightblue" d="M1593,-840.621C1677.07,-850.816 1844.08,-859.282 1959,-788.5 1992.96,-767.582 2014.95,-724.431 2025.39,-699.469"/>
<polygon fill="midnightblue" stroke="midnightblue" points="2028.71,-700.588 2029.15,-690.003 2022.21,-698 2028.71,-700.588"/>
</g>
<!-- Node15&#45;&gt;Node6 -->
<g id="edge51" class="edge"><title>Node15&#45;&gt;Node6</title>
<path fill="none" stroke="midnightblue" d="M750.321,-708.725C808.511,-641.519 1163.2,-250.5 1538.5,-250.5 1538.5,-250.5 1538.5,-250.5 1712,-250.5 1822.1,-250.5 1877.35,-195.642 1959,-269.5 2017.81,-322.694 2029.78,-585.179 2032.02,-660.351"/>
<polygon fill="midnightblue" stroke="midnightblue" points="2028.53,-660.845 2032.3,-670.747 2035.53,-660.656 2028.53,-660.845"/>
</g>
<!-- Node16 -->
<g id="node16" class="node"><title>Node16</title>
<g id="a_node16"><a xlink:href="../../d0/df6/classCParser.html#a8b303b41d0199334a5987bb471063729" target="_top" xlink:title="CParser::explicit_scope_spec">
<polygon fill="white" stroke="black" points="1462,-747 1462,-766 1617,-766 1617,-747 1462,-747"/>
<text text-anchor="middle" x="1539.5" y="-754" font-family="Helvetica,sans-Serif" font-size="10.00">CParser::explicit_scope_spec</text>
</a>
</g>
</g>
<!-- Node15&#45;&gt;Node16 -->
<g id="edge20" class="edge"><title>Node15&#45;&gt;Node16</title>
<path fill="none" stroke="midnightblue" d="M811.718,-722.942C877.515,-727.048 978.936,-733.152 1067,-737.5 1201.21,-744.127 1357,-750.062 1451.62,-753.471"/>
<polygon fill="midnightblue" stroke="midnightblue" points="1451.59,-756.972 1461.71,-753.833 1451.85,-749.977 1451.59,-756.972"/>
</g>
<!-- Node19 -->
<g id="node19" class="node"><title>Node19</title>
<g id="a_node19"><a xlink:href="../../d0/df6/classCParser.html#aea0a3166305befe762f047b6e4a6f90f" target="_top" xlink:title="CParser::unscoped_member_name">
<polygon fill="white" stroke="black" points="849,-671 849,-690 1031,-690 1031,-671 849,-671"/>
<text text-anchor="middle" x="940" y="-678" font-family="Helvetica,sans-Serif" font-size="10.00">CParser::unscoped_member_name</text>
</a>
</g>
</g>
<!-- Node15&#45;&gt;Node19 -->
<g id="edge28" class="edge"><title>Node15&#45;&gt;Node19</title>
<path fill="none" stroke="midnightblue" d="M791.457,-708.96C818.154,-703.81 851.304,-697.416 879.415,-691.994"/>
<polygon fill="midnightblue" stroke="midnightblue" points="880.366,-695.375 889.523,-690.044 879.041,-688.501 880.366,-695.375"/>
</g>
<!-- Node16&#45;&gt;Node5 -->
<g id="edge26" class="edge"><title>Node16&#45;&gt;Node5</title>
<path fill="none" stroke="midnightblue" d="M1583.27,-766.089C1605.84,-771.149 1633.72,-777.4 1657.58,-782.749"/>
<polygon fill="midnightblue" stroke="midnightblue" points="1657.01,-786.208 1667.54,-784.98 1658.54,-779.377 1657.01,-786.208"/>
</g>
<!-- Node16&#45;&gt;Node6 -->
<g id="edge27" class="edge"><title>Node16&#45;&gt;Node6</title>
<path fill="none" stroke="midnightblue" d="M1617.24,-762.851C1729.65,-771.585 1929.07,-784.698 1959,-770.5 1989.98,-755.803 2012.22,-720.948 2023.67,-699.182"/>
<polygon fill="midnightblue" stroke="midnightblue" points="2026.81,-700.729 2028.17,-690.221 2020.56,-697.59 2026.81,-700.729"/>
</g>
<!-- Node17 -->
<g id="node17" class="node"><title>Node17</title>
<g id="a_node17"><a xlink:href="../../d0/df6/classCParser.html#a729069b96fa400ec2fd9a34d4016fcdb" target="_top" xlink:title="CParser::angle_block">
<polygon fill="white" stroke="black" points="1653,-671 1653,-690 1769,-690 1769,-671 1653,-671"/>
<text text-anchor="middle" x="1711" y="-678" font-family="Helvetica,sans-Serif" font-size="10.00">CParser::angle_block</text>
</a>
</g>
</g>
<!-- Node16&#45;&gt;Node17 -->
<g id="edge21" class="edge"><title>Node16&#45;&gt;Node17</title>
<path fill="none" stroke="midnightblue" d="M1561.97,-746.875C1591.64,-733.569 1645.37,-709.48 1679.28,-694.272"/>
<polygon fill="midnightblue" stroke="midnightblue" points="1681.01,-697.332 1688.71,-690.047 1678.15,-690.945 1681.01,-697.332"/>
</g>
<!-- Node17&#45;&gt;Node6 -->
<g id="edge25" class="edge"><title>Node17&#45;&gt;Node6</title>
<path fill="none" stroke="midnightblue" d="M1769.3,-680.5C1830.66,-680.5 1926.94,-680.5 1984.47,-680.5"/>
<polygon fill="midnightblue" stroke="midnightblue" points="1984.75,-684 1994.75,-680.5 1984.75,-677 1984.75,-684"/>
</g>
<!-- Node18 -->
<g id="node18" class="node"><title>Node18</title>
<g id="a_node18"><a xlink:href="../../d0/df6/classCParser.html#aa127d8f0df3a28071ce4fe43684632ef" target="_top" xlink:title="CParser::angle_balanced_list">
<polygon fill="white" stroke="black" points="1805,-709 1805,-728 1959,-728 1959,-709 1805,-709"/>
<text text-anchor="middle" x="1882" y="-716" font-family="Helvetica,sans-Serif" font-size="10.00">CParser::angle_balanced_list</text>
</a>
</g>
</g>
<!-- Node17&#45;&gt;Node18 -->
<g id="edge22" class="edge"><title>Node17&#45;&gt;Node18</title>
<path fill="none" stroke="midnightblue" d="M1769.22,-686.938C1796.12,-692.329 1827.16,-699.657 1849.69,-706.078"/>
<polygon fill="midnightblue" stroke="midnightblue" points="1848.82,-709.47 1859.4,-708.954 1850.81,-702.758 1848.82,-709.47"/>
</g>
<!-- Node18&#45;&gt;Node6 -->
<g id="edge24" class="edge"><title>Node18&#45;&gt;Node6</title>
<path fill="none" stroke="midnightblue" d="M1920.73,-708.911C1940.28,-703.942 1964.35,-697.823 1985.14,-692.539"/>
<polygon fill="midnightblue" stroke="midnightblue" points="1986.22,-695.876 1995.05,-690.02 1984.49,-689.091 1986.22,-695.876"/>
</g>
<!-- Node18&#45;&gt;Node17 -->
<g id="edge23" class="edge"><title>Node18&#45;&gt;Node17</title>
<path fill="none" stroke="midnightblue" d="M1808.81,-708.953C1785.92,-704.046 1761.8,-698.19 1743.36,-692.938"/>
<polygon fill="midnightblue" stroke="midnightblue" points="1744.33,-689.574 1733.75,-690.092 1742.34,-696.287 1744.33,-689.574"/>
</g>
<!-- Node19&#45;&gt;Node6 -->
<g id="edge50" class="edge"><title>Node19&#45;&gt;Node6</title>
<path fill="none" stroke="midnightblue" d="M948.736,-670.899C966.944,-648.953 1014.91,-594.836 1067,-566.5 1181.97,-503.956 1220.62,-490.5 1351.5,-490.5 1351.5,-490.5 1351.5,-490.5 1712,-490.5 1822.38,-490.5 1869.62,-451.72 1959,-516.5 2007.1,-551.362 2024.31,-625.082 2029.97,-660.577"/>
<polygon fill="midnightblue" stroke="midnightblue" points="2026.53,-661.264 2031.43,-670.661 2033.46,-660.263 2026.53,-661.264"/>
</g>
<!-- Node19&#45;&gt;Node17 -->
<g id="edge29" class="edge"><title>Node19&#45;&gt;Node17</title>
<path fill="none" stroke="midnightblue" d="M1031.1,-680.5C1187.03,-680.5 1503.81,-680.5 1642.46,-680.5"/>
<polygon fill="midnightblue" stroke="midnightblue" points="1642.52,-684 1652.52,-680.5 1642.52,-677 1642.52,-684"/>
</g>
<!-- Node20 -->
<g id="node20" class="node"><title>Node20</title>
<g id="a_node20"><a xlink:href="../../d0/df6/classCParser.html#ac5cba09faa6ccf6314b75950f0d8e40e" target="_top" xlink:title="CParser::dtor_member_name">
<polygon fill="white" stroke="black" points="1077.5,-709 1077.5,-728 1232.5,-728 1232.5,-709 1077.5,-709"/>
<text text-anchor="middle" x="1155" y="-716" font-family="Helvetica,sans-Serif" font-size="10.00">CParser::dtor_member_name</text>
</a>
</g>
</g>
<!-- Node19&#45;&gt;Node20 -->
<g id="edge30" class="edge"><title>Node19&#45;&gt;Node20</title>
<path fill="none" stroke="midnightblue" d="M994.474,-690.04C1023.59,-695.235 1059.81,-701.696 1090.37,-707.149"/>
<polygon fill="midnightblue" stroke="midnightblue" points="1090.04,-710.645 1100.5,-708.956 1091.27,-703.754 1090.04,-710.645"/>
</g>
<!-- Node21 -->
<g id="node21" class="node"><title>Node21</title>
<g id="a_node21"><a xlink:href="../../d0/df6/classCParser.html#ac99dcea42e50abf304d0a7bb001b1829" target="_top" xlink:title="CParser::operator_member_name">
<polygon fill="white" stroke="black" points="1067,-576 1067,-595 1243,-595 1243,-576 1067,-576"/>
<text text-anchor="middle" x="1155" y="-583" font-family="Helvetica,sans-Serif" font-size="10.00">CParser::operator_member_name</text>
</a>
</g>
</g>
<!-- Node19&#45;&gt;Node21 -->
<g id="edge32" class="edge"><title>Node19&#45;&gt;Node21</title>
<path fill="none" stroke="midnightblue" d="M962.596,-670.868C1000.65,-653.896 1079.74,-618.622 1123.4,-599.149"/>
<polygon fill="midnightblue" stroke="midnightblue" points="1124.96,-602.286 1132.66,-595.016 1122.11,-595.893 1124.96,-602.286"/>
</g>
<!-- Node20&#45;&gt;Node6 -->
<g id="edge31" class="edge"><title>Node20&#45;&gt;Node6</title>
<path fill="none" stroke="midnightblue" d="M1232.91,-721.48C1354.4,-726.023 1598.18,-734.473 1805,-737.5 1873.44,-738.502 1894.24,-759.667 1959,-737.5 1981.99,-729.631 2003.34,-711.32 2017.05,-697.561"/>
<polygon fill="midnightblue" stroke="midnightblue" points="2019.8,-699.745 2024.18,-690.099 2014.74,-694.907 2019.8,-699.745"/>
</g>
<!-- Node21&#45;&gt;Node6 -->
<g id="edge49" class="edge"><title>Node21&#45;&gt;Node6</title>
<path fill="none" stroke="midnightblue" d="M1194.27,-575.959C1262.81,-559.733 1411.27,-528.5 1538.5,-528.5 1538.5,-528.5 1538.5,-528.5 1712,-528.5 1822.53,-528.5 1866.21,-497.433 1959,-557.5 1996.61,-581.846 2017.68,-632.81 2026.87,-660.893"/>
<polygon fill="midnightblue" stroke="midnightblue" points="2023.61,-662.227 2029.91,-670.75 2030.3,-660.163 2023.61,-662.227"/>
</g>
<!-- Node22 -->
<g id="node22" class="node"><title>Node22</title>
<g id="a_node22"><a xlink:href="../../d0/df6/classCParser.html#a4bf5a797adb8a33705182662a6a8f45b" target="_top" xlink:title="CParser::operator_identifier">
<polygon fill="white" stroke="black" points="1279,-576 1279,-595 1426,-595 1426,-576 1279,-576"/>
<text text-anchor="middle" x="1352.5" y="-583" font-family="Helvetica,sans-Serif" font-size="10.00">CParser::operator_identifier</text>
</a>
</g>
</g>
<!-- Node21&#45;&gt;Node22 -->
<g id="edge33" class="edge"><title>Node21&#45;&gt;Node22</title>
<path fill="none" stroke="midnightblue" d="M1243.17,-585.5C1251.64,-585.5 1260.22,-585.5 1268.64,-585.5"/>
<polygon fill="midnightblue" stroke="midnightblue" points="1268.83,-589 1278.83,-585.5 1268.83,-582 1268.83,-589"/>
</g>
<!-- Node22&#45;&gt;Node6 -->
<g id="edge48" class="edge"><title>Node22&#45;&gt;Node6</title>
<path fill="none" stroke="midnightblue" d="M1399.32,-595.023C1418.62,-598.864 1441.35,-603.166 1462,-606.5 1654.88,-637.644 1886.11,-664.401 1984.45,-675.29"/>
<polygon fill="midnightblue" stroke="midnightblue" points="1984.34,-678.799 1994.67,-676.417 1985.11,-671.841 1984.34,-678.799"/>
</g>
<!-- Node23 -->
<g id="node23" class="node"><title>Node23</title>
<g id="a_node23"><a xlink:href="../../d0/df6/classCParser.html#a177b7d8d53b6d7c2c89bbea896b3d154" target="_top" xlink:title="CParser::op">
<polygon fill="white" stroke="black" points="1846,-595 1846,-614 1918,-614 1918,-595 1846,-595"/>
<text text-anchor="middle" x="1882" y="-602" font-family="Helvetica,sans-Serif" font-size="10.00">CParser::op</text>
</a>
</g>
</g>
<!-- Node22&#45;&gt;Node23 -->
<g id="edge34" class="edge"><title>Node22&#45;&gt;Node23</title>
<path fill="none" stroke="midnightblue" d="M1426.02,-588.112C1536.69,-592.098 1744.5,-599.583 1835.91,-602.876"/>
<polygon fill="midnightblue" stroke="midnightblue" points="1835.82,-606.375 1845.94,-603.237 1836.08,-599.38 1835.82,-606.375"/>
</g>
<!-- Node24 -->
<g id="node24" class="node"><title>Node24</title>
<g id="a_node24"><a xlink:href="../../d0/df6/classCParser.html#ab214b7a662d6c62ddf8d51f0116865cf" target="_top" xlink:title="CParser::new_or_delete">
<polygon fill="white" stroke="black" points="1474,-557 1474,-576 1605,-576 1605,-557 1474,-557"/>
<text text-anchor="middle" x="1539.5" y="-564" font-family="Helvetica,sans-Serif" font-size="10.00">CParser::new_or_delete</text>
</a>
</g>
</g>
<!-- Node22&#45;&gt;Node24 -->
<g id="edge36" class="edge"><title>Node22&#45;&gt;Node24</title>
<path fill="none" stroke="midnightblue" d="M1426.09,-578.045C1438.42,-576.778 1451.26,-575.46 1463.65,-574.187"/>
<polygon fill="midnightblue" stroke="midnightblue" points="1464.35,-577.634 1473.94,-573.131 1463.63,-570.671 1464.35,-577.634"/>
</g>
<!-- Node25 -->
<g id="node25" class="node"><title>Node25</title>
<g id="a_node25"><a xlink:href="../../d0/df6/classCParser.html#a5426875088dc6d2b5deaef3b61c55135" target="_top" xlink:title="CParser::type">
<polygon fill="white" stroke="black" points="1499.5,-389 1499.5,-408 1579.5,-408 1579.5,-389 1499.5,-389"/>
<text text-anchor="middle" x="1539.5" y="-396" font-family="Helvetica,sans-Serif" font-size="10.00">CParser::type</text>
</a>
</g>
</g>
<!-- Node22&#45;&gt;Node25 -->
<g id="edge38" class="edge"><title>Node22&#45;&gt;Node25</title>
<path fill="none" stroke="midnightblue" d="M1362.93,-575.97C1392.49,-546.091 1483.63,-453.963 1521.61,-415.571"/>
<polygon fill="midnightblue" stroke="midnightblue" points="1524.32,-417.806 1528.87,-408.235 1519.35,-412.883 1524.32,-417.806"/>
</g>
<!-- Node23&#45;&gt;Node6 -->
<g id="edge35" class="edge"><title>Node23&#45;&gt;Node6</title>
<path fill="none" stroke="midnightblue" d="M1918.31,-613.18C1931.44,-617.04 1946.23,-622.163 1959,-628.5 1978.71,-638.285 1998.97,-653.034 2013.21,-664.328"/>
<polygon fill="midnightblue" stroke="midnightblue" points="2011.27,-667.261 2021.25,-670.838 2015.68,-661.823 2011.27,-667.261"/>
</g>
<!-- Node24&#45;&gt;Node6 -->
<g id="edge37" class="edge"><title>Node24&#45;&gt;Node6</title>
<path fill="none" stroke="midnightblue" d="M1605.03,-562.939C1706.81,-558.394 1899.21,-554.461 1959,-585.5 1990.62,-601.914 2012.77,-638.727 2024.01,-661.404"/>
<polygon fill="midnightblue" stroke="midnightblue" points="2020.96,-663.155 2028.4,-670.704 2027.29,-660.167 2020.96,-663.155"/>
</g>
<!-- Node25&#45;&gt;Node6 -->
<g id="edge47" class="edge"><title>Node25&#45;&gt;Node6</title>
<path fill="none" stroke="midnightblue" d="M1579.83,-405.298C1682.59,-423.131 1951.72,-470.306 1959,-476.5 2015.63,-524.644 2028.63,-619.869 2031.61,-660.916"/>
<polygon fill="midnightblue" stroke="midnightblue" points="2028.12,-661.201 2032.21,-670.973 2035.11,-660.781 2028.12,-661.201"/>
</g>
<!-- Node25&#45;&gt;Node10 -->
<g id="edge42" class="edge"><title>Node25&#45;&gt;Node10</title>
<path fill="none" stroke="midnightblue" d="M1519.55,-388.931C1464.75,-362.168 1300.76,-288.5 1156,-288.5 740,-288.5 740,-288.5 740,-288.5 478.36,-288.5 405.041,-732.115 391.87,-831.782"/>
<polygon fill="midnightblue" stroke="midnightblue" points="388.395,-831.367 390.608,-841.728 395.339,-832.248 388.395,-831.367"/>
</g>
<!-- Node26 -->
<g id="node26" class="node"><title>Node26</title>
<g id="a_node26"><a xlink:href="../../d0/df6/classCParser.html#aeb64a7eb39e1e247d6b06c833355fd1d" target="_top" xlink:title="CParser::cv_qualifier">
<polygon fill="white" stroke="black" points="1654.5,-389 1654.5,-408 1767.5,-408 1767.5,-389 1654.5,-389"/>
<text text-anchor="middle" x="1711" y="-396" font-family="Helvetica,sans-Serif" font-size="10.00">CParser::cv_qualifier</text>
</a>
</g>
</g>
<!-- Node25&#45;&gt;Node26 -->
<g id="edge39" class="edge"><title>Node25&#45;&gt;Node26</title>
<path fill="none" stroke="midnightblue" d="M1579.81,-398.5C1598.89,-398.5 1622.34,-398.5 1644.05,-398.5"/>
<polygon fill="midnightblue" stroke="midnightblue" points="1644.21,-402 1654.21,-398.5 1644.21,-395 1644.21,-402"/>
</g>
<!-- Node28 -->
<g id="node28" class="node"><title>Node28</title>
<g id="a_node28"><a xlink:href="../../d0/df6/classCParser.html#acec16523a6abcc5dcaa503fdfec12d5e" target="_top" xlink:title="CParser::indirection\l_modifiers">
<polygon fill="white" stroke="black" points="1656.5,-323.5 1656.5,-353.5 1765.5,-353.5 1765.5,-323.5 1656.5,-323.5"/>
<text text-anchor="start" x="1664.5" y="-341.5" font-family="Helvetica,sans-Serif" font-size="10.00">CParser::indirection</text>
<text text-anchor="middle" x="1711" y="-330.5" font-family="Helvetica,sans-Serif" font-size="10.00">_modifiers</text>
</a>
</g>
</g>
<!-- Node25&#45;&gt;Node28 -->
<g id="edge43" class="edge"><title>Node25&#45;&gt;Node28</title>
<path fill="none" stroke="midnightblue" d="M1567.36,-388.993C1591.62,-380.406 1628,-367.527 1657.95,-356.926"/>
<polygon fill="midnightblue" stroke="midnightblue" points="1659.16,-360.209 1667.42,-353.573 1656.82,-353.61 1659.16,-360.209"/>
</g>
<!-- Node26&#45;&gt;Node6 -->
<g id="edge41" class="edge"><title>Node26&#45;&gt;Node6</title>
<path fill="none" stroke="midnightblue" d="M1737.25,-388.963C1785.85,-372.397 1893.4,-344.674 1959,-395.5 2001.7,-428.582 2024,-601.382 2030.47,-660.58"/>
<polygon fill="midnightblue" stroke="midnightblue" points="2027.02,-661.254 2031.56,-670.83 2033.99,-660.517 2027.02,-661.254"/>
</g>
<!-- Node27 -->
<g id="node27" class="node"><title>Node27</title>
<g id="a_node27"><a xlink:href="../../d0/df6/classCParser.html#a2912da073892123622f3c380820f7a12" target="_top" xlink:title="CParser::typeCombine">
<polygon fill="white" stroke="black" points="1821,-405 1821,-424 1943,-424 1943,-405 1821,-405"/>
<text text-anchor="middle" x="1882" y="-412" font-family="Helvetica,sans-Serif" font-size="10.00">CParser::typeCombine</text>
</a>
</g>
</g>
<!-- Node26&#45;&gt;Node27 -->
<g id="edge40" class="edge"><title>Node26&#45;&gt;Node27</title>
<path fill="none" stroke="midnightblue" d="M1767.81,-403.783C1781.5,-405.08 1796.33,-406.484 1810.61,-407.836"/>
<polygon fill="midnightblue" stroke="midnightblue" points="1810.61,-411.351 1820.89,-408.809 1811.27,-404.382 1810.61,-411.351"/>
</g>
<!-- Node28&#45;&gt;Node6 -->
<g id="edge46" class="edge"><title>Node28&#45;&gt;Node6</title>
<path fill="none" stroke="midnightblue" d="M1765.72,-327.286C1821.04,-319.098 1906.38,-316.322 1959,-362.5 2004.51,-402.434 2025.26,-597.289 2030.87,-660.593"/>
<polygon fill="midnightblue" stroke="midnightblue" points="2027.41,-661.15 2031.75,-670.815 2034.38,-660.553 2027.41,-661.15"/>
</g>
<!-- Node29 -->
<g id="node29" class="node"><title>Node29</title>
<g id="a_node29"><a xlink:href="../../d0/df6/classCParser.html#a80be2f0d41b613906058b6df76ce7815" target="_top" xlink:title="CParser::indirection\l_modifier">
<polygon fill="white" stroke="black" points="1827.5,-279.5 1827.5,-309.5 1936.5,-309.5 1936.5,-279.5 1827.5,-279.5"/>
<text text-anchor="start" x="1835.5" y="-297.5" font-family="Helvetica,sans-Serif" font-size="10.00">CParser::indirection</text>
<text text-anchor="middle" x="1882" y="-286.5" font-family="Helvetica,sans-Serif" font-size="10.00">_modifier</text>
</a>
</g>
</g>
<!-- Node28&#45;&gt;Node29 -->
<g id="edge44" class="edge"><title>Node28&#45;&gt;Node29</title>
<path fill="none" stroke="midnightblue" d="M1765.94,-324.457C1782.33,-320.189 1800.5,-315.46 1817.46,-311.043"/>
<polygon fill="midnightblue" stroke="midnightblue" points="1818.49,-314.392 1827.29,-308.485 1816.73,-307.617 1818.49,-314.392"/>
</g>
<!-- Node29&#45;&gt;Node6 -->
<g id="edge45" class="edge"><title>Node29&#45;&gt;Node6</title>
<path fill="none" stroke="midnightblue" d="M1936.88,-307.895C1945.25,-312.036 1953.07,-317.443 1959,-324.5 2002.87,-376.665 2025.04,-594.251 2030.89,-660.966"/>
<polygon fill="midnightblue" stroke="midnightblue" points="2027.41,-661.303 2031.74,-670.969 2034.38,-660.707 2027.41,-661.303"/>
</g>
<!-- Node31 -->
<g id="node31" class="node"><title>Node31</title>
<g id="a_node31"><a xlink:href="../../d4/d6e/classCCCC__Project.html#ac0565e746210778bc6f165130464041b" target="_top" xlink:title="CCCC_Project::name">
<polygon fill="white" stroke="black" points="882,-899 882,-918 998,-918 998,-899 882,-899"/>
<text text-anchor="middle" x="940" y="-906" font-family="Helvetica,sans-Serif" font-size="10.00">CCCC_Project::name</text>
</a>
</g>
</g>
<!-- Node30&#45;&gt;Node31 -->
<g id="edge53" class="edge"><title>Node30&#45;&gt;Node31</title>
<path fill="none" stroke="midnightblue" d="M813.122,-908.5C832.273,-908.5 852.924,-908.5 871.851,-908.5"/>
<polygon fill="midnightblue" stroke="midnightblue" points="871.871,-912 881.871,-908.5 871.871,-905 871.871,-912"/>
</g>
<!-- Node33 -->
<g id="node33" class="node"><title>Node33</title>
<g id="a_node33"><a xlink:href="../../db/d6a/classCCCC__Item.html#a87231c9aa43ece932511d1143b64367e" target="_top" xlink:title="CCCC_Item::Insert">
<polygon fill="white" stroke="black" points="689,-105 689,-124 793,-124 793,-105 689,-105"/>
<text text-anchor="middle" x="741" y="-112" font-family="Helvetica,sans-Serif" font-size="10.00">CCCC_Item::Insert</text>
</a>
</g>
</g>
<!-- Node32&#45;&gt;Node33 -->
<g id="edge57" class="edge"><title>Node32&#45;&gt;Node33</title>
<path fill="none" stroke="midnightblue" d="M441.217,-133.254C504.521,-129.28 611.579,-122.561 678.886,-118.336"/>
<polygon fill="midnightblue" stroke="midnightblue" points="679.165,-121.825 688.926,-117.706 678.726,-114.839 679.165,-121.825"/>
</g>
<!-- Node34 -->
<g id="node34" class="node"><title>Node34</title>
<g id="a_node34"><a xlink:href="../../d3/d5e/classParseStore.html#a058a15dda767cb8cf60dc578ec8ffb38" target="_top" xlink:title="ParseStore::flags">
<polygon fill="white" stroke="black" points="513,-165 513,-184 610,-184 610,-165 513,-165"/>
<text text-anchor="middle" x="561.5" y="-172" font-family="Helvetica,sans-Serif" font-size="10.00">ParseStore::flags</text>
</a>
</g>
</g>
<!-- Node32&#45;&gt;Node34 -->
<g id="edge58" class="edge"><title>Node32&#45;&gt;Node34</title>
<path fill="none" stroke="midnightblue" d="M441.27,-148.004C462.315,-152.681 486.608,-158.08 507.752,-162.778"/>
<polygon fill="midnightblue" stroke="midnightblue" points="507.015,-166.2 517.536,-164.952 508.533,-159.366 507.015,-166.2"/>
</g>
<!-- Node35 -->
<g id="node35" class="node"><title>Node35</title>
<g id="a_node35"><a xlink:href="../../d3/d5e/classParseStore.html#ab07edec82aea81e439fa34d2f557b36f" target="_top" xlink:title="ParseStore::insert\l_extent">
<polygon fill="white" stroke="black" points="511,-77.5 511,-107.5 612,-107.5 612,-77.5 511,-77.5"/>
<text text-anchor="start" x="519" y="-95.5" font-family="Helvetica,sans-Serif" font-size="10.00">ParseStore::insert</text>
<text text-anchor="middle" x="561.5" y="-84.5" font-family="Helvetica,sans-Serif" font-size="10.00">_extent</text>
</a>
</g>
</g>
<!-- Node32&#45;&gt;Node35 -->
<g id="edge59" class="edge"><title>Node32&#45;&gt;Node35</title>
<path fill="none" stroke="midnightblue" d="M441.27,-123.179C460.191,-118.311 481.736,-112.767 501.259,-107.743"/>
<polygon fill="midnightblue" stroke="midnightblue" points="502.146,-111.129 510.958,-105.248 500.401,-104.35 502.146,-111.129"/>
</g>
<!-- Node36 -->
<g id="node36" class="node"><title>Node36</title>
<g id="a_node36"><a xlink:href="../../d4/d6e/classCCCC__Project.html#adae36526071c67957535938bf6401d9f" target="_top" xlink:title="CCCC_Project::add_userel">
<polygon fill="white" stroke="black" points="490,-39 490,-58 633,-58 633,-39 490,-39"/>
<text text-anchor="middle" x="561.5" y="-46" font-family="Helvetica,sans-Serif" font-size="10.00">CCCC_Project::add_userel</text>
</a>
</g>
</g>
<!-- Node32&#45;&gt;Node36 -->
<g id="edge61" class="edge"><title>Node32&#45;&gt;Node36</title>
<path fill="none" stroke="midnightblue" d="M407.608,-121.235C426.894,-105.684 458.87,-81.8693 490,-67.5 495.235,-65.0836 500.835,-62.9261 506.506,-61.0117"/>
<polygon fill="midnightblue" stroke="midnightblue" points="507.567,-64.347 516.063,-58.0167 505.474,-57.6673 507.567,-64.347"/>
</g>
<!-- Node35&#45;&gt;Node33 -->
<g id="edge60" class="edge"><title>Node35&#45;&gt;Node33</title>
<path fill="none" stroke="midnightblue" d="M612.416,-98.6868C633.041,-101.243 657.152,-104.232 678.826,-106.918"/>
<polygon fill="midnightblue" stroke="midnightblue" points="678.563,-110.412 688.917,-108.169 679.424,-103.465 678.563,-110.412"/>
</g>
<!-- Node37 -->
<g id="node37" class="node"><title>Node37</title>
<g id="a_node37"><a xlink:href="../../d8/dcf/classCCCC__Table.html#a8e08fe4f6edb07f1fbf2813c66bb3606" target="_top" xlink:title="CCCC_Table::find_or\l_insert">
<polygon fill="white" stroke="black" points="882,-0.5 882,-30.5 998,-30.5 998,-0.5 882,-0.5"/>
<text text-anchor="start" x="890" y="-18.5" font-family="Helvetica,sans-Serif" font-size="10.00">CCCC_Table::find_or</text>
<text text-anchor="middle" x="940" y="-7.5" font-family="Helvetica,sans-Serif" font-size="10.00">_insert</text>
</a>
</g>
</g>
<!-- Node36&#45;&gt;Node37 -->
<g id="edge62" class="edge"><title>Node36&#45;&gt;Node37</title>
<path fill="none" stroke="midnightblue" d="M630.036,-38.9967C642.954,-37.3561 656.383,-35.7721 669,-34.5 737.849,-27.5586 816.831,-22.3161 871.506,-19.1148"/>
<polygon fill="midnightblue" stroke="midnightblue" points="871.984,-22.5931 881.765,-18.5214 871.58,-15.6048 871.984,-22.5931"/>
</g>
<!-- Node38 -->
<g id="node38" class="node"><title>Node38</title>
<g id="a_node38"><a xlink:href="../../d2/d65/classCCCC__UseRelationship.html#aea65f893850f8e1903c3e53ac04170f6" target="_top" xlink:title="CCCC_UseRelationship\l::add_extent">
<polygon fill="white" stroke="black" points="676,-44.5 676,-74.5 806,-74.5 806,-44.5 676,-44.5"/>
<text text-anchor="start" x="684" y="-62.5" font-family="Helvetica,sans-Serif" font-size="10.00">CCCC_UseRelationship</text>
<text text-anchor="middle" x="741" y="-51.5" font-family="Helvetica,sans-Serif" font-size="10.00">::add_extent</text>
</a>
</g>
</g>
<!-- Node36&#45;&gt;Node38 -->
<g id="edge63" class="edge"><title>Node36&#45;&gt;Node38</title>
<path fill="none" stroke="midnightblue" d="M633.163,-52.8791C643.859,-53.542 654.922,-54.2275 665.693,-54.895"/>
<polygon fill="midnightblue" stroke="midnightblue" points="665.711,-58.4028 675.909,-55.5281 666.144,-51.4162 665.711,-58.4028"/>
</g>
<!-- Node38&#45;&gt;Node37 -->
<g id="edge64" class="edge"><title>Node38&#45;&gt;Node37</title>
<path fill="none" stroke="midnightblue" d="M806.233,-45.1536C827.267,-40.4557 850.682,-35.2258 871.921,-30.4821"/>
<polygon fill="midnightblue" stroke="midnightblue" points="872.833,-33.8647 881.83,-28.269 871.307,-27.033 872.833,-33.8647"/>
</g>
<!-- Node39 -->
<g id="node39" class="node"><title>Node39</title>
<g id="a_node39"><a xlink:href="../../df/d99/classCCCC__Extent.html#a82a7a03bd389c67ba2f5dc7787e89739" target="_top" xlink:title="CCCC_Extent::get_visibility">
<polygon fill="white" stroke="black" points="868.5,-50 868.5,-69 1011.5,-69 1011.5,-50 868.5,-50"/>
<text text-anchor="middle" x="940" y="-57" font-family="Helvetica,sans-Serif" font-size="10.00">CCCC_Extent::get_visibility</text>
</a>
</g>
</g>
<!-- Node38&#45;&gt;Node39 -->
<g id="edge65" class="edge"><title>Node38&#45;&gt;Node39</title>
<path fill="none" stroke="midnightblue" d="M806.233,-59.5C822.846,-59.5 840.945,-59.5 858.284,-59.5"/>
<polygon fill="midnightblue" stroke="midnightblue" points="858.388,-63.0001 868.388,-59.5 858.388,-56.0001 858.388,-63.0001"/>
</g>
<!-- Node40 -->
<g id="node40" class="node"><title>Node40</title>
<g id="a_node40"><a xlink:href="../../df/d99/classCCCC__Extent.html#abe27f2b34d0542894c6339274e8d1834" target="_top" xlink:title="CCCC_Extent::get_usetype">
<polygon fill="white" stroke="black" points="867.5,-88 867.5,-107 1012.5,-107 1012.5,-88 867.5,-88"/>
<text text-anchor="middle" x="940" y="-95" font-family="Helvetica,sans-Serif" font-size="10.00">CCCC_Extent::get_usetype</text>
</a>
</g>
</g>
<!-- Node38&#45;&gt;Node40 -->
<g id="edge66" class="edge"><title>Node38&#45;&gt;Node40</title>
<path fill="none" stroke="midnightblue" d="M806.233,-71.89C829.804,-76.4369 856.367,-81.5607 879.505,-86.0238"/>
<polygon fill="midnightblue" stroke="midnightblue" points="879.05,-89.5004 889.531,-87.9578 880.375,-82.6271 879.05,-89.5004"/>
</g>
</g>
</svg>
