<?xml version="1.0" encoding="UTF-8" standalone="no"?>
<!DOCTYPE svg PUBLIC "-//W3C//DTD SVG 1.1//EN"
 "http://www.w3.org/Graphics/SVG/1.1/DTD/svg11.dtd">
<!-- Generated by graphviz version 2.38.0 (20140413.2041)
 -->
<!-- Title: CParser::linkage_qualifier Pages: 1 -->
<svg width="831pt" height="127pt"
 viewBox="0.00 0.00 831.00 126.50" xmlns="http://www.w3.org/2000/svg" xmlns:xlink="http://www.w3.org/1999/xlink">
<g id="graph0" class="graph" transform="scale(1 1) rotate(0) translate(4 122.5)">
<title>CParser::linkage_qualifier</title>
<polygon fill="white" stroke="none" points="-4,4 -4,-122.5 827,-122.5 827,4 -4,4"/>
<!-- Node1 -->
<g id="node1" class="node"><title>Node1</title>
<polygon fill="#bfbfbf" stroke="black" points="0,-55 0,-74 137,-74 137,-55 0,-55"/>
<text text-anchor="middle" x="68.5" y="-62" font-family="Helvetica,sans-Serif" font-size="10.00">CParser::linkage_qualifier</text>
</g>
<!-- Node2 -->
<g id="node2" class="node"><title>Node2</title>
<g id="a_node2"><a xlink:href="../../d0/df6/classCParser.html#aea038edd6854c9eae9331d9a1ab8a082" target="_top" xlink:title="CParser::linkage_qualifiers">
<polygon fill="white" stroke="black" points="173,-55 173,-74 315,-74 315,-55 173,-55"/>
<text text-anchor="middle" x="244" y="-62" font-family="Helvetica,sans-Serif" font-size="10.00">CParser::linkage_qualifiers</text>
</a>
</g>
</g>
<!-- Node1&#45;&gt;Node2 -->
<g id="edge1" class="edge"><title>Node1&#45;&gt;Node2</title>
<path fill="none" stroke="midnightblue" d="M147.326,-64.5C155.794,-64.5 164.376,-64.5 172.745,-64.5"/>
<polygon fill="midnightblue" stroke="midnightblue" points="147.076,-61.0001 137.076,-64.5 147.076,-68.0001 147.076,-61.0001"/>
</g>
<!-- Node3 -->
<g id="node3" class="node"><title>Node3</title>
<g id="a_node3"><a xlink:href="../../d0/df6/classCParser.html#a2b78ab2005bef5c43ee2d4689210eab1" target="_top" xlink:title="CParser::link_item">
<polygon fill="white" stroke="black" points="351,-55 351,-74 452,-74 452,-55 351,-55"/>
<text text-anchor="middle" x="401.5" y="-62" font-family="Helvetica,sans-Serif" font-size="10.00">CParser::link_item</text>
</a>
</g>
</g>
<!-- Node2&#45;&gt;Node3 -->
<g id="edge2" class="edge"><title>Node2&#45;&gt;Node3</title>
<path fill="none" stroke="midnightblue" d="M325.253,-64.5C333.978,-64.5 342.662,-64.5 350.863,-64.5"/>
<polygon fill="midnightblue" stroke="midnightblue" points="325.017,-61.0001 315.017,-64.5 325.017,-68.0001 325.017,-61.0001"/>
</g>
<!-- Node4 -->
<g id="node4" class="node"><title>Node4</title>
<g id="a_node4"><a xlink:href="../../d0/df6/classCParser.html#a4f02da23566af37123efb3768769c09b" target="_top" xlink:title="CParser::start">
<polygon fill="white" stroke="black" points="512.5,-99 512.5,-118 593.5,-118 593.5,-99 512.5,-99"/>
<text text-anchor="middle" x="553" y="-106" font-family="Helvetica,sans-Serif" font-size="10.00">CParser::start</text>
</a>
</g>
</g>
<!-- Node3&#45;&gt;Node4 -->
<g id="edge3" class="edge"><title>Node3&#45;&gt;Node4</title>
<path fill="none" stroke="midnightblue" d="M444.75,-76.9347C468.504,-83.926 497.696,-92.5177 519.624,-98.9713"/>
<polygon fill="midnightblue" stroke="midnightblue" points="445.521,-73.5132 434.939,-74.0473 443.544,-80.2284 445.521,-73.5132"/>
</g>
<!-- Node7 -->
<g id="node7" class="node"><title>Node7</title>
<g id="a_node7"><a xlink:href="../../d0/df6/classCParser.html#a86906e492ff9c606fb3537078f46f93e" target="_top" xlink:title="CParser::extern_linkage\l_block">
<polygon fill="white" stroke="black" points="488,-49.5 488,-79.5 618,-79.5 618,-49.5 488,-49.5"/>
<text text-anchor="start" x="496" y="-67.5" font-family="Helvetica,sans-Serif" font-size="10.00">CParser::extern_linkage</text>
<text text-anchor="middle" x="553" y="-56.5" font-family="Helvetica,sans-Serif" font-size="10.00">_block</text>
</a>
</g>
</g>
<!-- Node3&#45;&gt;Node7 -->
<g id="edge6" class="edge"><title>Node3&#45;&gt;Node7</title>
<path fill="none" stroke="midnightblue" d="M462.341,-57.8708C470.718,-57.7334 479.355,-57.7132 487.809,-57.8102"/>
<polygon fill="midnightblue" stroke="midnightblue" points="462.2,-54.373 452.281,-58.0965 462.357,-61.3712 462.2,-54.373"/>
</g>
<!-- Node8 -->
<g id="node8" class="node"><title>Node8</title>
<g id="a_node8"><a xlink:href="../../d0/df6/classCParser.html#a4fad913a0694a5376ad76669d8943122" target="_top" xlink:title="CParser::namespace\l_block">
<polygon fill="white" stroke="black" points="495.5,-0.5 495.5,-30.5 610.5,-30.5 610.5,-0.5 495.5,-0.5"/>
<text text-anchor="start" x="503.5" y="-18.5" font-family="Helvetica,sans-Serif" font-size="10.00">CParser::namespace</text>
<text text-anchor="middle" x="553" y="-7.5" font-family="Helvetica,sans-Serif" font-size="10.00">_block</text>
</a>
</g>
</g>
<!-- Node3&#45;&gt;Node8 -->
<g id="edge8" class="edge"><title>Node3&#45;&gt;Node8</title>
<path fill="none" stroke="midnightblue" d="M427.947,-50.9359C446.406,-43.5201 472.105,-34.6478 495.327,-27.5036"/>
<polygon fill="midnightblue" stroke="midnightblue" points="426.375,-47.7995 418.499,-54.8858 429.075,-54.2579 426.375,-47.7995"/>
</g>
<!-- Node5 -->
<g id="node5" class="node"><title>Node5</title>
<g id="a_node5"><a xlink:href="../../db/d4a/classMain.html#a803470658c644fa9512140f9d8398dd5" target="_top" xlink:title="Main::ParseFiles">
<polygon fill="white" stroke="black" points="654,-99 654,-118 748,-118 748,-99 654,-99"/>
<text text-anchor="middle" x="701" y="-106" font-family="Helvetica,sans-Serif" font-size="10.00">Main::ParseFiles</text>
</a>
</g>
</g>
<!-- Node4&#45;&gt;Node5 -->
<g id="edge4" class="edge"><title>Node4&#45;&gt;Node5</title>
<path fill="none" stroke="midnightblue" d="M603.893,-108.5C620.125,-108.5 638.056,-108.5 653.99,-108.5"/>
<polygon fill="midnightblue" stroke="midnightblue" points="603.51,-105 593.51,-108.5 603.51,-112 603.51,-105"/>
</g>
<!-- Node6 -->
<g id="node6" class="node"><title>Node6</title>
<g id="a_node6"><a xlink:href="../../d6/d93/ccccmain_8cc.html#a3c04138a5bfe5d72780bb7e82a18e627" target="_top" xlink:title="main">
<polygon fill="white" stroke="black" points="784,-99 784,-118 823,-118 823,-99 784,-99"/>
<text text-anchor="middle" x="803.5" y="-106" font-family="Helvetica,sans-Serif" font-size="10.00">main</text>
</a>
</g>
</g>
<!-- Node5&#45;&gt;Node6 -->
<g id="edge5" class="edge"><title>Node5&#45;&gt;Node6</title>
<path fill="none" stroke="midnightblue" d="M758.179,-108.5C767.395,-108.5 776.342,-108.5 783.755,-108.5"/>
<polygon fill="midnightblue" stroke="midnightblue" points="758.132,-105 748.132,-108.5 758.132,-112 758.132,-105"/>
</g>
<!-- Node7&#45;&gt;Node3 -->
<g id="edge7" class="edge"><title>Node7&#45;&gt;Node3</title>
<path fill="none" stroke="midnightblue" d="M477.717,-71.2499C469.094,-71.2542 460.462,-71.1388 452.281,-70.9035"/>
<polygon fill="midnightblue" stroke="midnightblue" points="477.83,-74.7494 487.809,-71.1898 477.788,-67.7495 477.83,-74.7494"/>
</g>
<!-- Node8&#45;&gt;Node3 -->
<g id="edge9" class="edge"><title>Node8&#45;&gt;Node3</title>
<path fill="none" stroke="midnightblue" d="M513.334,-34.1691C494.326,-41.2603 471.222,-48.9563 451.038,-54.9579"/>
<polygon fill="midnightblue" stroke="midnightblue" points="514.771,-37.3668 522.863,-30.5281 512.272,-30.8278 514.771,-37.3668"/>
</g>
</g>
</svg>
