<?xml version="1.0" encoding="UTF-8" standalone="no"?>
<!DOCTYPE svg PUBLIC "-//W3C//DTD SVG 1.1//EN"
 "http://www.w3.org/Graphics/SVG/1.1/DTD/svg11.dtd">
<!-- Generated by graphviz version 2.38.0 (20140413.2041)
 -->
<!-- Title: CParser::param_spec Pages: 1 -->
<svg width="2455pt" height="271pt"
 viewBox="0.00 0.00 2455.00 271.00" xmlns="http://www.w3.org/2000/svg" xmlns:xlink="http://www.w3.org/1999/xlink">
<g id="graph0" class="graph" transform="scale(1 1) rotate(0) translate(4 267)">
<title>CParser::param_spec</title>
<polygon fill="white" stroke="none" points="-4,4 -4,-267 2451,-267 2451,4 -4,4"/>
<!-- Node1 -->
<g id="node1" class="node"><title>Node1</title>
<polygon fill="#bfbfbf" stroke="black" points="0,-144.5 0,-163.5 119,-163.5 119,-144.5 0,-144.5"/>
<text text-anchor="middle" x="59.5" y="-151.5" font-family="Helvetica,sans-Serif" font-size="10.00">CParser::param_spec</text>
</g>
<!-- Node2 -->
<g id="node2" class="node"><title>Node2</title>
<g id="a_node2"><a xlink:href="../../d0/df6/classCParser.html#afe2b338c3a7a63e56c81f6b0ec17debd" target="_top" xlink:title="CParser::param_item">
<polygon fill="white" stroke="black" points="155,-144.5 155,-163.5 271,-163.5 271,-144.5 155,-144.5"/>
<text text-anchor="middle" x="213" y="-151.5" font-family="Helvetica,sans-Serif" font-size="10.00">CParser::param_item</text>
</a>
</g>
</g>
<!-- Node1&#45;&gt;Node2 -->
<g id="edge1" class="edge"><title>Node1&#45;&gt;Node2</title>
<path fill="none" stroke="midnightblue" d="M129.298,-154C137.75,-154 146.319,-154 154.579,-154"/>
<polygon fill="midnightblue" stroke="midnightblue" points="129.074,-150.5 119.074,-154 129.074,-157.5 129.074,-150.5"/>
</g>
<!-- Node3 -->
<g id="node3" class="node"><title>Node3</title>
<g id="a_node3"><a xlink:href="../../d0/df6/classCParser.html#ab9745428cd9f00cf216add3af0dbb2cc" target="_top" xlink:title="CParser::param_list\l_items">
<polygon fill="white" stroke="black" points="463,-139 463,-169 572,-169 572,-139 463,-139"/>
<text text-anchor="start" x="471" y="-157" font-family="Helvetica,sans-Serif" font-size="10.00">CParser::param_list</text>
<text text-anchor="middle" x="517.5" y="-146" font-family="Helvetica,sans-Serif" font-size="10.00">_items</text>
</a>
</g>
</g>
<!-- Node2&#45;&gt;Node3 -->
<g id="edge2" class="edge"><title>Node2&#45;&gt;Node3</title>
<path fill="none" stroke="midnightblue" d="M281.176,-155.616C289.864,-155.775 298.643,-155.91 307,-156 360.33,-156.573 373.67,-156.596 427,-156 438.5,-155.872 450.831,-155.65 462.55,-155.4"/>
<polygon fill="midnightblue" stroke="midnightblue" points="281.115,-152.115 271.049,-155.421 280.98,-159.113 281.115,-152.115"/>
</g>
<!-- Node21 -->
<g id="node21" class="node"><title>Node21</title>
<g id="a_node21"><a xlink:href="../../d0/df6/classCParser.html#ac2385c4ec53b01f101e04378849f4919" target="_top" xlink:title="CParser::more_param\l_items">
<polygon fill="white" stroke="black" points="307,-117 307,-147 427,-147 427,-117 307,-117"/>
<text text-anchor="start" x="315" y="-135" font-family="Helvetica,sans-Serif" font-size="10.00">CParser::more_param</text>
<text text-anchor="middle" x="367" y="-124" font-family="Helvetica,sans-Serif" font-size="10.00">_items</text>
</a>
</g>
</g>
<!-- Node2&#45;&gt;Node21 -->
<g id="edge26" class="edge"><title>Node2&#45;&gt;Node21</title>
<path fill="none" stroke="midnightblue" d="M281.037,-144.297C289.643,-143.052 298.405,-141.783 306.873,-140.558"/>
<polygon fill="midnightblue" stroke="midnightblue" points="280.427,-140.849 271.032,-145.745 281.43,-147.777 280.427,-140.849"/>
</g>
<!-- Node4 -->
<g id="node4" class="node"><title>Node4</title>
<g id="a_node4"><a xlink:href="../../d0/df6/classCParser.html#afbe8666c28623fadda88dce63f2d0dd7" target="_top" xlink:title="CParser::param_list">
<polygon fill="white" stroke="black" points="608,-144.5 608,-163.5 717,-163.5 717,-144.5 608,-144.5"/>
<text text-anchor="middle" x="662.5" y="-151.5" font-family="Helvetica,sans-Serif" font-size="10.00">CParser::param_list</text>
</a>
</g>
</g>
<!-- Node3&#45;&gt;Node4 -->
<g id="edge3" class="edge"><title>Node3&#45;&gt;Node4</title>
<path fill="none" stroke="midnightblue" d="M582.324,-154C590.745,-154 599.31,-154 607.545,-154"/>
<polygon fill="midnightblue" stroke="midnightblue" points="582.155,-150.5 572.155,-154 582.155,-157.5 582.155,-150.5"/>
</g>
<!-- Node5 -->
<g id="node5" class="node"><title>Node5</title>
<g id="a_node5"><a xlink:href="../../d0/df6/classCParser.html#ab263641e50f3b30b3ac343dd3a5f7e61" target="_top" xlink:title="CParser::method_signature">
<polygon fill="white" stroke="black" points="753,-144.5 753,-163.5 898,-163.5 898,-144.5 753,-144.5"/>
<text text-anchor="middle" x="825.5" y="-151.5" font-family="Helvetica,sans-Serif" font-size="10.00">CParser::method_signature</text>
</a>
</g>
</g>
<!-- Node4&#45;&gt;Node5 -->
<g id="edge4" class="edge"><title>Node4&#45;&gt;Node5</title>
<path fill="none" stroke="midnightblue" d="M727.205,-154C735.606,-154 744.263,-154 752.786,-154"/>
<polygon fill="midnightblue" stroke="midnightblue" points="727.111,-150.5 717.111,-154 727.111,-157.5 727.111,-150.5"/>
</g>
<!-- Node6 -->
<g id="node6" class="node"><title>Node6</title>
<g id="a_node6"><a xlink:href="../../d0/df6/classCParser.html#a0dd2a579512bf1a17aaeac5fdec860a7" target="_top" xlink:title="CParser::method_declaration\l_or_definition_with_implicit_type">
<polygon fill="white" stroke="black" points="934,-139 934,-169 1104,-169 1104,-139 934,-139"/>
<text text-anchor="start" x="942" y="-157" font-family="Helvetica,sans-Serif" font-size="10.00">CParser::method_declaration</text>
<text text-anchor="middle" x="1019" y="-146" font-family="Helvetica,sans-Serif" font-size="10.00">_or_definition_with_implicit_type</text>
</a>
</g>
</g>
<!-- Node5&#45;&gt;Node6 -->
<g id="edge5" class="edge"><title>Node5&#45;&gt;Node6</title>
<path fill="none" stroke="midnightblue" d="M908.324,-154C916.798,-154 925.421,-154 933.919,-154"/>
<polygon fill="midnightblue" stroke="midnightblue" points="908.08,-150.5 898.08,-154 908.08,-157.5 908.08,-150.5"/>
</g>
<!-- Node7 -->
<g id="node7" class="node"><title>Node7</title>
<g id="a_node7"><a xlink:href="../../d0/df6/classCParser.html#ab3ab57ace628c2476dd8dfe5a96f9a15" target="_top" xlink:title="CParser::definition\l_or_declaration">
<polygon fill="white" stroke="black" points="1346,-117 1346,-147 1449,-147 1449,-117 1346,-117"/>
<text text-anchor="start" x="1354" y="-135" font-family="Helvetica,sans-Serif" font-size="10.00">CParser::definition</text>
<text text-anchor="middle" x="1397.5" y="-124" font-family="Helvetica,sans-Serif" font-size="10.00">_or_declaration</text>
</a>
</g>
</g>
<!-- Node6&#45;&gt;Node7 -->
<g id="edge6" class="edge"><title>Node6&#45;&gt;Node7</title>
<path fill="none" stroke="midnightblue" d="M1114.21,-148.495C1187.67,-144.203 1286.83,-138.408 1345.97,-134.953"/>
<polygon fill="midnightblue" stroke="midnightblue" points="1113.8,-145.013 1104.03,-149.09 1114.21,-152.001 1113.8,-145.013"/>
</g>
<!-- Node19 -->
<g id="node19" class="node"><title>Node19</title>
<g id="a_node19"><a xlink:href="../../d0/df6/classCParser.html#a12561a45dab96760d7ab45896681dd33" target="_top" xlink:title="CParser::class_or_method\l_declaration_or_definition">
<polygon fill="white" stroke="black" points="2306,-120 2306,-150 2447,-150 2447,-120 2306,-120"/>
<text text-anchor="start" x="2314" y="-138" font-family="Helvetica,sans-Serif" font-size="10.00">CParser::class_or_method</text>
<text text-anchor="middle" x="2376.5" y="-127" font-family="Helvetica,sans-Serif" font-size="10.00">_declaration_or_definition</text>
</a>
</g>
</g>
<!-- Node6&#45;&gt;Node19 -->
<g id="edge25" class="edge"><title>Node6&#45;&gt;Node19</title>
<path fill="none" stroke="midnightblue" d="M1059.78,-173.581C1127.29,-204.956 1269.38,-263 1396.5,-263 1396.5,-263 1396.5,-263 2035,-263 2161.94,-263 2299.45,-184.092 2352.68,-150.186"/>
<polygon fill="midnightblue" stroke="midnightblue" points="1060.91,-170.245 1050.37,-169.156 1057.93,-176.579 1060.91,-170.245"/>
</g>
<!-- Node20 -->
<g id="node20" class="node"><title>Node20</title>
<g id="a_node20"><a xlink:href="../../d0/df6/classCParser.html#af0c9d35d4c997c6f34cf4a26563b513c" target="_top" xlink:title="CParser::method_declaration\l_or_definition_with_explicit_type">
<polygon fill="white" stroke="black" points="1140,-95 1140,-125 1310,-125 1310,-95 1140,-95"/>
<text text-anchor="start" x="1148" y="-113" font-family="Helvetica,sans-Serif" font-size="10.00">CParser::method_declaration</text>
<text text-anchor="middle" x="1225" y="-102" font-family="Helvetica,sans-Serif" font-size="10.00">_or_definition_with_explicit_type</text>
</a>
</g>
</g>
<!-- Node6&#45;&gt;Node20 -->
<g id="edge22" class="edge"><title>Node6&#45;&gt;Node20</title>
<path fill="none" stroke="midnightblue" d="M1099.56,-136.84C1117.64,-132.941 1136.7,-128.829 1154.33,-125.026"/>
<polygon fill="midnightblue" stroke="midnightblue" points="1098.67,-133.451 1089.63,-138.981 1100.15,-140.294 1098.67,-133.451"/>
</g>
<!-- Node8 -->
<g id="node8" class="node"><title>Node8</title>
<g id="a_node8"><a xlink:href="../../d0/df6/classCParser.html#a2b78ab2005bef5c43ee2d4689210eab1" target="_top" xlink:title="CParser::link_item">
<polygon fill="white" stroke="black" points="1504.5,-122.5 1504.5,-141.5 1605.5,-141.5 1605.5,-122.5 1504.5,-122.5"/>
<text text-anchor="middle" x="1555" y="-129.5" font-family="Helvetica,sans-Serif" font-size="10.00">CParser::link_item</text>
</a>
</g>
</g>
<!-- Node7&#45;&gt;Node8 -->
<g id="edge7" class="edge"><title>Node7&#45;&gt;Node8</title>
<path fill="none" stroke="midnightblue" d="M1459.52,-132C1474.36,-132 1490.05,-132 1504.29,-132"/>
<polygon fill="midnightblue" stroke="midnightblue" points="1459.42,-128.5 1449.42,-132 1459.42,-135.5 1459.42,-128.5"/>
</g>
<!-- Node14 -->
<g id="node14" class="node"><title>Node14</title>
<g id="a_node14"><a xlink:href="../../d0/df6/classCParser.html#a85eb09132fa5a588749cea062f0d11ea" target="_top" xlink:title="CParser::class_block_item">
<polygon fill="white" stroke="black" points="1485,-59.5 1485,-78.5 1625,-78.5 1625,-59.5 1485,-59.5"/>
<text text-anchor="middle" x="1555" y="-66.5" font-family="Helvetica,sans-Serif" font-size="10.00">CParser::class_block_item</text>
</a>
</g>
</g>
<!-- Node7&#45;&gt;Node14 -->
<g id="edge15" class="edge"><title>Node7&#45;&gt;Node14</title>
<path fill="none" stroke="midnightblue" d="M1445.34,-113.023C1473.3,-101.697 1507.62,-87.7899 1530.12,-78.6761"/>
<polygon fill="midnightblue" stroke="midnightblue" points="1443.7,-109.911 1435.75,-116.91 1446.33,-116.399 1443.7,-109.911"/>
</g>
<!-- Node9 -->
<g id="node9" class="node"><title>Node9</title>
<g id="a_node9"><a xlink:href="../../d0/df6/classCParser.html#a4f02da23566af37123efb3768769c09b" target="_top" xlink:title="CParser::start">
<polygon fill="white" stroke="black" points="1685.5,-78.5 1685.5,-97.5 1766.5,-97.5 1766.5,-78.5 1685.5,-78.5"/>
<text text-anchor="middle" x="1726" y="-85.5" font-family="Helvetica,sans-Serif" font-size="10.00">CParser::start</text>
</a>
</g>
</g>
<!-- Node8&#45;&gt;Node9 -->
<g id="edge8" class="edge"><title>Node8&#45;&gt;Node9</title>
<path fill="none" stroke="midnightblue" d="M1602.69,-119.845C1629.73,-112.805 1663.28,-104.069 1688.4,-97.5287"/>
<polygon fill="midnightblue" stroke="midnightblue" points="1601.47,-116.546 1592.67,-122.453 1603.23,-123.32 1601.47,-116.546"/>
</g>
<!-- Node12 -->
<g id="node12" class="node"><title>Node12</title>
<g id="a_node12"><a xlink:href="../../d0/df6/classCParser.html#a86906e492ff9c606fb3537078f46f93e" target="_top" xlink:title="CParser::extern_linkage\l_block">
<polygon fill="white" stroke="black" points="1661,-166 1661,-196 1791,-196 1791,-166 1661,-166"/>
<text text-anchor="start" x="1669" y="-184" font-family="Helvetica,sans-Serif" font-size="10.00">CParser::extern_linkage</text>
<text text-anchor="middle" x="1726" y="-173" font-family="Helvetica,sans-Serif" font-size="10.00">_block</text>
</a>
</g>
</g>
<!-- Node8&#45;&gt;Node12 -->
<g id="edge11" class="edge"><title>Node8&#45;&gt;Node12</title>
<path fill="none" stroke="midnightblue" d="M1615.47,-142.762C1641.21,-149.653 1670.35,-158.438 1692.1,-165.986"/>
<polygon fill="midnightblue" stroke="midnightblue" points="1616.35,-139.376 1605.79,-140.221 1614.57,-146.147 1616.35,-139.376"/>
</g>
<!-- Node13 -->
<g id="node13" class="node"><title>Node13</title>
<g id="a_node13"><a xlink:href="../../d0/df6/classCParser.html#a4fad913a0694a5376ad76669d8943122" target="_top" xlink:title="CParser::namespace\l_block">
<polygon fill="white" stroke="black" points="1668.5,-117 1668.5,-147 1783.5,-147 1783.5,-117 1668.5,-117"/>
<text text-anchor="start" x="1676.5" y="-135" font-family="Helvetica,sans-Serif" font-size="10.00">CParser::namespace</text>
<text text-anchor="middle" x="1726" y="-124" font-family="Helvetica,sans-Serif" font-size="10.00">_block</text>
</a>
</g>
</g>
<!-- Node8&#45;&gt;Node13 -->
<g id="edge13" class="edge"><title>Node8&#45;&gt;Node13</title>
<path fill="none" stroke="midnightblue" d="M1616.17,-125.505C1633.19,-125.139 1651.65,-125.167 1668.45,-125.589"/>
<polygon fill="midnightblue" stroke="midnightblue" points="1615.69,-122.017 1605.79,-125.784 1615.88,-129.014 1615.69,-122.017"/>
</g>
<!-- Node10 -->
<g id="node10" class="node"><title>Node10</title>
<g id="a_node10"><a xlink:href="../../db/d4a/classMain.html#a803470658c644fa9512140f9d8398dd5" target="_top" xlink:title="Main::ParseFiles">
<polygon fill="white" stroke="black" points="1837,-78.5 1837,-97.5 1931,-97.5 1931,-78.5 1837,-78.5"/>
<text text-anchor="middle" x="1884" y="-85.5" font-family="Helvetica,sans-Serif" font-size="10.00">Main::ParseFiles</text>
</a>
</g>
</g>
<!-- Node9&#45;&gt;Node10 -->
<g id="edge9" class="edge"><title>Node9&#45;&gt;Node10</title>
<path fill="none" stroke="midnightblue" d="M1776.87,-88C1796.14,-88 1818.05,-88 1836.94,-88"/>
<polygon fill="midnightblue" stroke="midnightblue" points="1776.77,-84.5001 1766.77,-88 1776.77,-91.5001 1776.77,-84.5001"/>
</g>
<!-- Node11 -->
<g id="node11" class="node"><title>Node11</title>
<g id="a_node11"><a xlink:href="../../d6/d93/ccccmain_8cc.html#a3c04138a5bfe5d72780bb7e82a18e627" target="_top" xlink:title="main">
<polygon fill="white" stroke="black" points="2014.5,-78.5 2014.5,-97.5 2053.5,-97.5 2053.5,-78.5 2014.5,-78.5"/>
<text text-anchor="middle" x="2034" y="-85.5" font-family="Helvetica,sans-Serif" font-size="10.00">main</text>
</a>
</g>
</g>
<!-- Node10&#45;&gt;Node11 -->
<g id="edge10" class="edge"><title>Node10&#45;&gt;Node11</title>
<path fill="none" stroke="midnightblue" d="M1941.15,-88C1967.09,-88 1996.14,-88 2014.49,-88"/>
<polygon fill="midnightblue" stroke="midnightblue" points="1941.02,-84.5001 1931.02,-88 1941.02,-91.5001 1941.02,-84.5001"/>
</g>
<!-- Node12&#45;&gt;Node8 -->
<g id="edge12" class="edge"><title>Node12&#45;&gt;Node8</title>
<path fill="none" stroke="midnightblue" d="M1650.98,-166.243C1622.59,-158.263 1592.6,-148.789 1574.09,-141.614"/>
<polygon fill="midnightblue" stroke="midnightblue" points="1650.36,-169.703 1660.94,-168.996 1652.23,-162.957 1650.36,-169.703"/>
</g>
<!-- Node13&#45;&gt;Node8 -->
<g id="edge14" class="edge"><title>Node13&#45;&gt;Node8</title>
<path fill="none" stroke="midnightblue" d="M1658.29,-138.615C1640.8,-138.884 1622.23,-138.751 1605.79,-138.216"/>
<polygon fill="midnightblue" stroke="midnightblue" points="1658.52,-142.111 1668.45,-138.411 1658.38,-135.113 1658.52,-142.111"/>
</g>
<!-- Node15 -->
<g id="node15" class="node"><title>Node15</title>
<g id="a_node15"><a xlink:href="../../d0/df6/classCParser.html#a4b9f00c05d44a13b3c18b28b52f5be9e" target="_top" xlink:title="CParser::class_block\l_item_list">
<polygon fill="white" stroke="black" points="1669,-29 1669,-59 1783,-59 1783,-29 1669,-29"/>
<text text-anchor="start" x="1677" y="-47" font-family="Helvetica,sans-Serif" font-size="10.00">CParser::class_block</text>
<text text-anchor="middle" x="1726" y="-36" font-family="Helvetica,sans-Serif" font-size="10.00">_item_list</text>
</a>
</g>
</g>
<!-- Node14&#45;&gt;Node15 -->
<g id="edge16" class="edge"><title>Node14&#45;&gt;Node15</title>
<path fill="none" stroke="midnightblue" d="M1630.58,-57.9674C1643.42,-56.0683 1656.57,-54.1233 1668.82,-52.3112"/>
<polygon fill="midnightblue" stroke="midnightblue" points="1629.75,-54.5515 1620.37,-59.4773 1630.78,-61.4761 1629.75,-54.5515"/>
</g>
<!-- Node16 -->
<g id="node16" class="node"><title>Node16</title>
<g id="a_node16"><a xlink:href="../../d0/df6/classCParser.html#a06c7cac9034f27ad6d998b49a7b574c8" target="_top" xlink:title="CParser::class_block">
<polygon fill="white" stroke="black" points="1827,-35.5 1827,-54.5 1941,-54.5 1941,-35.5 1827,-35.5"/>
<text text-anchor="middle" x="1884" y="-42.5" font-family="Helvetica,sans-Serif" font-size="10.00">CParser::class_block</text>
</a>
</g>
</g>
<!-- Node15&#45;&gt;Node16 -->
<g id="edge17" class="edge"><title>Node15&#45;&gt;Node16</title>
<path fill="none" stroke="midnightblue" d="M1793.4,-44.4257C1804.51,-44.4969 1815.94,-44.5701 1826.76,-44.6395"/>
<polygon fill="midnightblue" stroke="midnightblue" points="1793.34,-40.9253 1783.32,-44.361 1793.3,-47.9252 1793.34,-40.9253"/>
</g>
<!-- Node17 -->
<g id="node17" class="node"><title>Node17</title>
<g id="a_node17"><a xlink:href="../../d0/df6/classCParser.html#a40fba8426e7ac46e9926515ee81e97f3" target="_top" xlink:title="CParser::class_suffix">
<polygon fill="white" stroke="black" points="1977,-38.5 1977,-57.5 2091,-57.5 2091,-38.5 1977,-38.5"/>
<text text-anchor="middle" x="2034" y="-45.5" font-family="Helvetica,sans-Serif" font-size="10.00">CParser::class_suffix</text>
</a>
</g>
</g>
<!-- Node16&#45;&gt;Node17 -->
<g id="edge18" class="edge"><title>Node16&#45;&gt;Node17</title>
<path fill="none" stroke="midnightblue" d="M1951.56,-46.3491C1959.98,-46.5199 1968.54,-46.6934 1976.78,-46.8604"/>
<polygon fill="midnightblue" stroke="midnightblue" points="1951.44,-42.8462 1941.37,-46.1427 1951.3,-49.8448 1951.44,-42.8462"/>
</g>
<!-- Node18 -->
<g id="node18" class="node"><title>Node18</title>
<g id="a_node18"><a xlink:href="../../d0/df6/classCParser.html#a1ed5fcfb2e97e3551fceabe81989a667" target="_top" xlink:title="CParser::class_declaration\l_or_definition">
<polygon fill="white" stroke="black" points="2127,-120 2127,-150 2270,-150 2270,-120 2127,-120"/>
<text text-anchor="start" x="2135" y="-138" font-family="Helvetica,sans-Serif" font-size="10.00">CParser::class_declaration</text>
<text text-anchor="middle" x="2198.5" y="-127" font-family="Helvetica,sans-Serif" font-size="10.00">_or_definition</text>
</a>
</g>
</g>
<!-- Node17&#45;&gt;Node18 -->
<g id="edge19" class="edge"><title>Node17&#45;&gt;Node18</title>
<path fill="none" stroke="midnightblue" d="M2073.07,-61.1248C2079.15,-63.549 2085.31,-66.205 2091,-69 2121.65,-84.0627 2154.76,-105.474 2175.79,-119.781"/>
<polygon fill="midnightblue" stroke="midnightblue" points="2074.25,-57.8271 2063.66,-57.5192 2071.74,-64.3642 2074.25,-57.8271"/>
</g>
<!-- Node18&#45;&gt;Node7 -->
<g id="edge20" class="edge"><title>Node18&#45;&gt;Node7</title>
<path fill="none" stroke="midnightblue" d="M2157.62,-154.304C2099.22,-180.749 1986.35,-225 1885,-225 1725,-225 1725,-225 1725,-225 1612.72,-225 1486.75,-173.502 1429.63,-147.149"/>
<polygon fill="midnightblue" stroke="midnightblue" points="2159.23,-157.417 2166.85,-150.064 2156.3,-151.056 2159.23,-157.417"/>
</g>
<!-- Node18&#45;&gt;Node19 -->
<g id="edge21" class="edge"><title>Node18&#45;&gt;Node19</title>
<path fill="none" stroke="midnightblue" d="M2280.08,-135C2288.66,-135 2297.33,-135 2305.77,-135"/>
<polygon fill="midnightblue" stroke="midnightblue" points="2280.07,-131.5 2270.07,-135 2280.07,-138.5 2280.07,-131.5"/>
</g>
<!-- Node20&#45;&gt;Node7 -->
<g id="edge23" class="edge"><title>Node20&#45;&gt;Node7</title>
<path fill="none" stroke="midnightblue" d="M1320.43,-122.184C1329.07,-123.299 1337.58,-124.397 1345.6,-125.433"/>
<polygon fill="midnightblue" stroke="midnightblue" points="1320.62,-118.68 1310.25,-120.871 1319.72,-125.622 1320.62,-118.68"/>
</g>
<!-- Node20&#45;&gt;Node19 -->
<g id="edge24" class="edge"><title>Node20&#45;&gt;Node19</title>
<path fill="none" stroke="midnightblue" d="M1260.61,-90.0908C1319.07,-58.3943 1441.97,-0 1554,-0 1554,-0 1554,-0 2035,-0 2163.77,-0 2301.88,-84.4703 2353.97,-119.776"/>
<polygon fill="midnightblue" stroke="midnightblue" points="1258.87,-87.0526 1251.79,-94.9356 1262.24,-93.1875 1258.87,-87.0526"/>
</g>
<!-- Node21&#45;&gt;Node3 -->
<g id="edge27" class="edge"><title>Node21&#45;&gt;Node3</title>
<path fill="none" stroke="midnightblue" d="M437.18,-142.249C445.811,-143.528 454.534,-144.82 462.88,-146.056"/>
<polygon fill="midnightblue" stroke="midnightblue" points="437.523,-138.762 427.118,-140.758 436.497,-145.686 437.523,-138.762"/>
</g>
</g>
</svg>
