<?xml version="1.0" encoding="UTF-8" standalone="no"?>
<!DOCTYPE svg PUBLIC "-//W3C//DTD SVG 1.1//EN"
 "http://www.w3.org/Graphics/SVG/1.1/DTD/svg11.dtd">
<!-- Generated by graphviz version 2.38.0 (20140413.2041)
 -->
<!-- Title: CParser::simple_type_alias Pages: 1 -->
<svg width="548pt" height="66pt"
 viewBox="0.00 0.00 548.00 66.00" xmlns="http://www.w3.org/2000/svg" xmlns:xlink="http://www.w3.org/1999/xlink">
<g id="graph0" class="graph" transform="scale(1 1) rotate(0) translate(4 62)">
<title>CParser::simple_type_alias</title>
<polygon fill="white" stroke="none" points="-4,4 -4,-62 544,-62 544,4 -4,4"/>
<!-- Node1 -->
<g id="node1" class="node"><title>Node1</title>
<polygon fill="#bfbfbf" stroke="black" points="0,-14 0,-44 116,-44 116,-14 0,-14"/>
<text text-anchor="start" x="8" y="-32" font-family="Helvetica,sans-Serif" font-size="10.00">CParser::simple_type</text>
<text text-anchor="middle" x="58" y="-21" font-family="Helvetica,sans-Serif" font-size="10.00">_alias</text>
</g>
<!-- Node2 -->
<g id="node2" class="node"><title>Node2</title>
<g id="a_node2"><a xlink:href="../../d0/df6/classCParser.html#a5e1630bd24884bb1cbc5680926dce957" target="_top" xlink:title="CParser::syn">
<polygon fill="white" stroke="black" points="152,-19.5 152,-38.5 229,-38.5 229,-19.5 152,-19.5"/>
<text text-anchor="middle" x="190.5" y="-26.5" font-family="Helvetica,sans-Serif" font-size="10.00">CParser::syn</text>
</a>
</g>
</g>
<!-- Node1&#45;&gt;Node2 -->
<g id="edge1" class="edge"><title>Node1&#45;&gt;Node2</title>
<path fill="none" stroke="midnightblue" d="M116.239,-29C124.714,-29 133.372,-29 141.629,-29"/>
<polygon fill="midnightblue" stroke="midnightblue" points="141.831,-32.5001 151.831,-29 141.831,-25.5001 141.831,-32.5001"/>
</g>
<!-- Node3 -->
<g id="node3" class="node"><title>Node3</title>
<g id="a_node3"><a xlink:href="../../da/d6a/classParseUtility.html#aabfa4c56607539ef14be2e2a7260006b" target="_top" xlink:title="ParseUtility::syn">
<polygon fill="white" stroke="black" points="265,-19.5 265,-38.5 356,-38.5 356,-19.5 265,-19.5"/>
<text text-anchor="middle" x="310.5" y="-26.5" font-family="Helvetica,sans-Serif" font-size="10.00">ParseUtility::syn</text>
</a>
</g>
</g>
<!-- Node2&#45;&gt;Node3 -->
<g id="edge2" class="edge"><title>Node2&#45;&gt;Node3</title>
<path fill="none" stroke="midnightblue" d="M229.16,-29C237.305,-29 246.076,-29 254.726,-29"/>
<polygon fill="midnightblue" stroke="midnightblue" points="254.779,-32.5001 264.779,-29 254.779,-25.5001 254.779,-32.5001"/>
</g>
<!-- Node4 -->
<g id="node4" class="node"><title>Node4</title>
<g id="a_node4"><a xlink:href="../../d3/d5e/classParseStore.html#ab21a4aeadb4cc4938b58cbefbb8634e8" target="_top" xlink:title="ParseStore::currentInstance">
<polygon fill="white" stroke="black" points="392,-38.5 392,-57.5 540,-57.5 540,-38.5 392,-38.5"/>
<text text-anchor="middle" x="466" y="-45.5" font-family="Helvetica,sans-Serif" font-size="10.00">ParseStore::currentInstance</text>
</a>
</g>
</g>
<!-- Node3&#45;&gt;Node4 -->
<g id="edge3" class="edge"><title>Node3&#45;&gt;Node4</title>
<path fill="none" stroke="midnightblue" d="M356.311,-34.5467C364.412,-35.5494 373.091,-36.6237 381.882,-37.7118"/>
<polygon fill="midnightblue" stroke="midnightblue" points="381.476,-41.1882 391.831,-38.9432 382.336,-34.2412 381.476,-41.1882"/>
</g>
<!-- Node5 -->
<g id="node5" class="node"><title>Node5</title>
<g id="a_node5"><a xlink:href="../../d3/d5e/classParseStore.html#ae7b3d82d22174c1a1165a592d6c1700c" target="_top" xlink:title="ParseStore::filename">
<polygon fill="white" stroke="black" points="409,-0.5 409,-19.5 523,-19.5 523,-0.5 409,-0.5"/>
<text text-anchor="middle" x="466" y="-7.5" font-family="Helvetica,sans-Serif" font-size="10.00">ParseStore::filename</text>
</a>
</g>
</g>
<!-- Node3&#45;&gt;Node5 -->
<g id="edge4" class="edge"><title>Node3&#45;&gt;Node5</title>
<path fill="none" stroke="midnightblue" d="M356.311,-23.4533C369.556,-21.8139 384.345,-19.9833 398.644,-18.2135"/>
<polygon fill="midnightblue" stroke="midnightblue" points="399.446,-21.641 408.94,-16.939 398.586,-14.694 399.446,-21.641"/>
</g>
</g>
</svg>
