<?xml version="1.0" encoding="UTF-8" standalone="no"?>
<!DOCTYPE svg PUBLIC "-//W3C//DTD SVG 1.1//EN"
 "http://www.w3.org/Graphics/SVG/1.1/DTD/svg11.dtd">
<!-- Generated by graphviz version 2.38.0 (20140413.2041)
 -->
<!-- Title: CParser::inheritance_item_list Pages: 1 -->
<svg width="1361pt" height="204pt"
 viewBox="0.00 0.00 1361.00 204.00" xmlns="http://www.w3.org/2000/svg" xmlns:xlink="http://www.w3.org/1999/xlink">
<g id="graph0" class="graph" transform="scale(1 1) rotate(0) translate(4 200)">
<title>CParser::inheritance_item_list</title>
<polygon fill="white" stroke="none" points="-4,4 -4,-200 1357,-200 1357,4 -4,4"/>
<!-- Node1 -->
<g id="node1" class="node"><title>Node1</title>
<polygon fill="#bfbfbf" stroke="black" points="0,-7 0,-37 113,-37 113,-7 0,-7"/>
<text text-anchor="start" x="8" y="-25" font-family="Helvetica,sans-Serif" font-size="10.00">CParser::inheritance</text>
<text text-anchor="middle" x="56.5" y="-14" font-family="Helvetica,sans-Serif" font-size="10.00">_item_list</text>
</g>
<!-- Node2 -->
<g id="node2" class="node"><title>Node2</title>
<g id="a_node2"><a xlink:href="../../d0/df6/classCParser.html#a304bbe29d48bf8d9415ad5d6280dcdf6" target="_top" xlink:title="CParser::inheritance_list">
<polygon fill="white" stroke="black" points="149,-12.5 149,-31.5 280,-31.5 280,-12.5 149,-12.5"/>
<text text-anchor="middle" x="214.5" y="-19.5" font-family="Helvetica,sans-Serif" font-size="10.00">CParser::inheritance_list</text>
</a>
</g>
</g>
<!-- Node1&#45;&gt;Node2 -->
<g id="edge1" class="edge"><title>Node1&#45;&gt;Node2</title>
<path fill="none" stroke="midnightblue" d="M123.536,-22C131.963,-22 140.58,-22 148.983,-22"/>
<polygon fill="midnightblue" stroke="midnightblue" points="123.379,-18.5001 113.379,-22 123.379,-25.5001 123.379,-18.5001"/>
</g>
<!-- Node3 -->
<g id="node3" class="node"><title>Node3</title>
<g id="a_node3"><a xlink:href="../../d0/df6/classCParser.html#a40fba8426e7ac46e9926515ee81e97f3" target="_top" xlink:title="CParser::class_suffix">
<polygon fill="white" stroke="black" points="316,-12.5 316,-31.5 430,-31.5 430,-12.5 316,-12.5"/>
<text text-anchor="middle" x="373" y="-19.5" font-family="Helvetica,sans-Serif" font-size="10.00">CParser::class_suffix</text>
</a>
</g>
</g>
<!-- Node2&#45;&gt;Node3 -->
<g id="edge2" class="edge"><title>Node2&#45;&gt;Node3</title>
<path fill="none" stroke="midnightblue" d="M290.081,-22C298.663,-22 307.304,-22 315.59,-22"/>
<polygon fill="midnightblue" stroke="midnightblue" points="290.058,-18.5001 280.058,-22 290.058,-25.5001 290.058,-18.5001"/>
</g>
<!-- Node4 -->
<g id="node4" class="node"><title>Node4</title>
<g id="a_node4"><a xlink:href="../../d0/df6/classCParser.html#a1ed5fcfb2e97e3551fceabe81989a667" target="_top" xlink:title="CParser::class_declaration\l_or_definition">
<polygon fill="white" stroke="black" points="466,-29 466,-59 609,-59 609,-29 466,-29"/>
<text text-anchor="start" x="474" y="-47" font-family="Helvetica,sans-Serif" font-size="10.00">CParser::class_declaration</text>
<text text-anchor="middle" x="537.5" y="-36" font-family="Helvetica,sans-Serif" font-size="10.00">_or_definition</text>
</a>
</g>
</g>
<!-- Node3&#45;&gt;Node4 -->
<g id="edge3" class="edge"><title>Node3&#45;&gt;Node4</title>
<path fill="none" stroke="midnightblue" d="M440.473,-30.9994C448.858,-32.1346 457.46,-33.2992 465.905,-34.4426"/>
<polygon fill="midnightblue" stroke="midnightblue" points="440.758,-27.5061 430.379,-29.6328 439.819,-34.4428 440.758,-27.5061"/>
</g>
<!-- Node5 -->
<g id="node5" class="node"><title>Node5</title>
<g id="a_node5"><a xlink:href="../../d0/df6/classCParser.html#ab3ab57ace628c2476dd8dfe5a96f9a15" target="_top" xlink:title="CParser::definition\l_or_declaration">
<polygon fill="white" stroke="black" points="664,-78 664,-108 767,-108 767,-78 664,-78"/>
<text text-anchor="start" x="672" y="-96" font-family="Helvetica,sans-Serif" font-size="10.00">CParser::definition</text>
<text text-anchor="middle" x="715.5" y="-85" font-family="Helvetica,sans-Serif" font-size="10.00">_or_declaration</text>
</a>
</g>
</g>
<!-- Node4&#45;&gt;Node5 -->
<g id="edge4" class="edge"><title>Node4&#45;&gt;Node5</title>
<path fill="none" stroke="midnightblue" d="M602.474,-61.811C622.639,-67.4252 644.627,-73.5468 663.741,-78.8683"/>
<polygon fill="midnightblue" stroke="midnightblue" points="603.314,-58.4118 592.742,-59.1014 601.437,-65.1554 603.314,-58.4118"/>
</g>
<!-- Node15 -->
<g id="node15" class="node"><title>Node15</title>
<g id="a_node15"><a xlink:href="../../d0/df6/classCParser.html#a12561a45dab96760d7ab45896681dd33" target="_top" xlink:title="CParser::class_or_method\l_declaration_or_definition">
<polygon fill="white" stroke="black" points="645,-29 645,-59 786,-59 786,-29 645,-29"/>
<text text-anchor="start" x="653" y="-47" font-family="Helvetica,sans-Serif" font-size="10.00">CParser::class_or_method</text>
<text text-anchor="middle" x="715.5" y="-36" font-family="Helvetica,sans-Serif" font-size="10.00">_declaration_or_definition</text>
</a>
</g>
</g>
<!-- Node4&#45;&gt;Node15 -->
<g id="edge17" class="edge"><title>Node4&#45;&gt;Node15</title>
<path fill="none" stroke="midnightblue" d="M619.08,-44C627.659,-44 636.333,-44 644.772,-44"/>
<polygon fill="midnightblue" stroke="midnightblue" points="619.072,-40.5001 609.072,-44 619.072,-47.5001 619.072,-40.5001"/>
</g>
<!-- Node6 -->
<g id="node6" class="node"><title>Node6</title>
<g id="a_node6"><a xlink:href="../../d0/df6/classCParser.html#a2b78ab2005bef5c43ee2d4689210eab1" target="_top" xlink:title="CParser::link_item">
<polygon fill="white" stroke="black" points="841.5,-83.5 841.5,-102.5 942.5,-102.5 942.5,-83.5 841.5,-83.5"/>
<text text-anchor="middle" x="892" y="-90.5" font-family="Helvetica,sans-Serif" font-size="10.00">CParser::link_item</text>
</a>
</g>
</g>
<!-- Node5&#45;&gt;Node6 -->
<g id="edge5" class="edge"><title>Node5&#45;&gt;Node6</title>
<path fill="none" stroke="midnightblue" d="M777.514,-93C798.444,-93 821.595,-93 841.498,-93"/>
<polygon fill="midnightblue" stroke="midnightblue" points="777.442,-89.5001 767.442,-93 777.442,-96.5001 777.442,-89.5001"/>
</g>
<!-- Node12 -->
<g id="node12" class="node"><title>Node12</title>
<g id="a_node12"><a xlink:href="../../d0/df6/classCParser.html#a85eb09132fa5a588749cea062f0d11ea" target="_top" xlink:title="CParser::class_block_item">
<polygon fill="white" stroke="black" points="822,-39.5 822,-58.5 962,-58.5 962,-39.5 822,-39.5"/>
<text text-anchor="middle" x="892" y="-46.5" font-family="Helvetica,sans-Serif" font-size="10.00">CParser::class_block_item</text>
</a>
</g>
</g>
<!-- Node5&#45;&gt;Node12 -->
<g id="edge13" class="edge"><title>Node5&#45;&gt;Node12</title>
<path fill="none" stroke="midnightblue" d="M777.315,-77.6656C802.598,-71.2904 831.152,-64.0906 853.318,-58.5014"/>
<polygon fill="midnightblue" stroke="midnightblue" points="776.282,-74.3163 767.442,-80.1551 777.994,-81.1038 776.282,-74.3163"/>
</g>
<!-- Node7 -->
<g id="node7" class="node"><title>Node7</title>
<g id="a_node7"><a xlink:href="../../d0/df6/classCParser.html#a4f02da23566af37123efb3768769c09b" target="_top" xlink:title="CParser::start">
<polygon fill="white" stroke="black" points="1022.5,-176.5 1022.5,-195.5 1103.5,-195.5 1103.5,-176.5 1022.5,-176.5"/>
<text text-anchor="middle" x="1063" y="-183.5" font-family="Helvetica,sans-Serif" font-size="10.00">CParser::start</text>
</a>
</g>
</g>
<!-- Node6&#45;&gt;Node7 -->
<g id="edge6" class="edge"><title>Node6&#45;&gt;Node7</title>
<path fill="none" stroke="midnightblue" d="M911.645,-109.002C931.767,-125.56 965.338,-151.172 998,-167 1005.61,-170.69 1014.09,-173.82 1022.32,-176.41"/>
<polygon fill="midnightblue" stroke="midnightblue" points="913.803,-106.244 903.886,-102.515 909.312,-111.615 913.803,-106.244"/>
</g>
<!-- Node10 -->
<g id="node10" class="node"><title>Node10</title>
<g id="a_node10"><a xlink:href="../../d0/df6/classCParser.html#a86906e492ff9c606fb3537078f46f93e" target="_top" xlink:title="CParser::extern_linkage\l_block">
<polygon fill="white" stroke="black" points="998,-127 998,-157 1128,-157 1128,-127 998,-127"/>
<text text-anchor="start" x="1006" y="-145" font-family="Helvetica,sans-Serif" font-size="10.00">CParser::extern_linkage</text>
<text text-anchor="middle" x="1063" y="-134" font-family="Helvetica,sans-Serif" font-size="10.00">_block</text>
</a>
</g>
</g>
<!-- Node6&#45;&gt;Node10 -->
<g id="edge9" class="edge"><title>Node6&#45;&gt;Node10</title>
<path fill="none" stroke="midnightblue" d="M952.467,-103.762C978.205,-110.653 1007.35,-119.438 1029.1,-126.986"/>
<polygon fill="midnightblue" stroke="midnightblue" points="953.353,-100.376 942.792,-101.221 951.574,-107.147 953.353,-100.376"/>
</g>
<!-- Node11 -->
<g id="node11" class="node"><title>Node11</title>
<g id="a_node11"><a xlink:href="../../d0/df6/classCParser.html#a4fad913a0694a5376ad76669d8943122" target="_top" xlink:title="CParser::namespace\l_block">
<polygon fill="white" stroke="black" points="1005.5,-78 1005.5,-108 1120.5,-108 1120.5,-78 1005.5,-78"/>
<text text-anchor="start" x="1013.5" y="-96" font-family="Helvetica,sans-Serif" font-size="10.00">CParser::namespace</text>
<text text-anchor="middle" x="1063" y="-85" font-family="Helvetica,sans-Serif" font-size="10.00">_block</text>
</a>
</g>
</g>
<!-- Node6&#45;&gt;Node11 -->
<g id="edge11" class="edge"><title>Node6&#45;&gt;Node11</title>
<path fill="none" stroke="midnightblue" d="M953.174,-86.505C970.192,-86.1389 988.649,-86.167 1005.45,-86.5894"/>
<polygon fill="midnightblue" stroke="midnightblue" points="952.694,-83.0166 942.792,-86.7839 952.882,-90.014 952.694,-83.0166"/>
</g>
<!-- Node8 -->
<g id="node8" class="node"><title>Node8</title>
<g id="a_node8"><a xlink:href="../../db/d4a/classMain.html#a803470658c644fa9512140f9d8398dd5" target="_top" xlink:title="Main::ParseFiles">
<polygon fill="white" stroke="black" points="1174,-176.5 1174,-195.5 1268,-195.5 1268,-176.5 1174,-176.5"/>
<text text-anchor="middle" x="1221" y="-183.5" font-family="Helvetica,sans-Serif" font-size="10.00">Main::ParseFiles</text>
</a>
</g>
</g>
<!-- Node7&#45;&gt;Node8 -->
<g id="edge7" class="edge"><title>Node7&#45;&gt;Node8</title>
<path fill="none" stroke="midnightblue" d="M1113.87,-186C1133.14,-186 1155.05,-186 1173.94,-186"/>
<polygon fill="midnightblue" stroke="midnightblue" points="1113.77,-182.5 1103.77,-186 1113.77,-189.5 1113.77,-182.5"/>
</g>
<!-- Node9 -->
<g id="node9" class="node"><title>Node9</title>
<g id="a_node9"><a xlink:href="../../d6/d93/ccccmain_8cc.html#a3c04138a5bfe5d72780bb7e82a18e627" target="_top" xlink:title="main">
<polygon fill="white" stroke="black" points="1314,-176.5 1314,-195.5 1353,-195.5 1353,-176.5 1314,-176.5"/>
<text text-anchor="middle" x="1333.5" y="-183.5" font-family="Helvetica,sans-Serif" font-size="10.00">main</text>
</a>
</g>
</g>
<!-- Node8&#45;&gt;Node9 -->
<g id="edge8" class="edge"><title>Node8&#45;&gt;Node9</title>
<path fill="none" stroke="midnightblue" d="M1278.49,-186C1291.33,-186 1304.09,-186 1313.97,-186"/>
<polygon fill="midnightblue" stroke="midnightblue" points="1278.22,-182.5 1268.22,-186 1278.22,-189.5 1278.22,-182.5"/>
</g>
<!-- Node10&#45;&gt;Node6 -->
<g id="edge10" class="edge"><title>Node10&#45;&gt;Node6</title>
<path fill="none" stroke="midnightblue" d="M987.981,-127.243C959.59,-119.263 929.595,-109.789 911.086,-102.614"/>
<polygon fill="midnightblue" stroke="midnightblue" points="987.364,-130.703 997.935,-129.996 989.23,-123.957 987.364,-130.703"/>
</g>
<!-- Node11&#45;&gt;Node6 -->
<g id="edge12" class="edge"><title>Node11&#45;&gt;Node6</title>
<path fill="none" stroke="midnightblue" d="M995.292,-99.6152C977.795,-99.8839 959.232,-99.7509 942.792,-99.2161"/>
<polygon fill="midnightblue" stroke="midnightblue" points="995.519,-103.111 1005.45,-99.4106 995.378,-96.1129 995.519,-103.111"/>
</g>
<!-- Node13 -->
<g id="node13" class="node"><title>Node13</title>
<g id="a_node13"><a xlink:href="../../d0/df6/classCParser.html#a4b9f00c05d44a13b3c18b28b52f5be9e" target="_top" xlink:title="CParser::class_block\l_item_list">
<polygon fill="white" stroke="black" points="1006,-29 1006,-59 1120,-59 1120,-29 1006,-29"/>
<text text-anchor="start" x="1014" y="-47" font-family="Helvetica,sans-Serif" font-size="10.00">CParser::class_block</text>
<text text-anchor="middle" x="1063" y="-36" font-family="Helvetica,sans-Serif" font-size="10.00">_item_list</text>
</a>
</g>
</g>
<!-- Node12&#45;&gt;Node13 -->
<g id="edge14" class="edge"><title>Node12&#45;&gt;Node13</title>
<path fill="none" stroke="midnightblue" d="M972.497,-46.648C983.741,-46.3154 995.104,-45.9792 1005.79,-45.6632"/>
<polygon fill="midnightblue" stroke="midnightblue" points="972.118,-43.1576 962.226,-46.9519 972.326,-50.1545 972.118,-43.1576"/>
</g>
<!-- Node14 -->
<g id="node14" class="node"><title>Node14</title>
<g id="a_node14"><a xlink:href="../../d0/df6/classCParser.html#a06c7cac9034f27ad6d998b49a7b574c8" target="_top" xlink:title="CParser::class_block">
<polygon fill="white" stroke="black" points="1164,-12.5 1164,-31.5 1278,-31.5 1278,-12.5 1164,-12.5"/>
<text text-anchor="middle" x="1221" y="-19.5" font-family="Helvetica,sans-Serif" font-size="10.00">CParser::class_block</text>
</a>
</g>
</g>
<!-- Node13&#45;&gt;Node14 -->
<g id="edge15" class="edge"><title>Node13&#45;&gt;Node14</title>
<path fill="none" stroke="midnightblue" d="M1130.4,-34.6353C1141.51,-33.0688 1152.94,-31.457 1163.76,-29.9308"/>
<polygon fill="midnightblue" stroke="midnightblue" points="1129.73,-31.1953 1120.32,-36.0575 1130.71,-38.1267 1129.73,-31.1953"/>
</g>
<!-- Node14&#45;&gt;Node3 -->
<g id="edge16" class="edge"><title>Node14&#45;&gt;Node3</title>
<path fill="none" stroke="midnightblue" d="M1153.69,-14.9173C1087.69,-8.48604 983.466,-0 893,-0 714.5,-0 714.5,-0 714.5,-0 614.24,-0 497.719,-9.61613 430.262,-16.1333"/>
<polygon fill="midnightblue" stroke="midnightblue" points="1153.65,-18.4303 1163.95,-15.9302 1154.34,-11.4642 1153.65,-18.4303"/>
</g>
</g>
</svg>
