<?xml version="1.0" encoding="UTF-8" standalone="no"?>
<!DOCTYPE svg PUBLIC "-//W3C//DTD SVG 1.1//EN"
 "http://www.w3.org/Graphics/SVG/1.1/DTD/svg11.dtd">
<!-- Generated by graphviz version 2.38.0 (20140413.2041)
 -->
<!-- Title: CParser::opt_initializer Pages: 1 -->
<svg width="2494pt" height="271pt"
 viewBox="0.00 0.00 2494.00 271.00" xmlns="http://www.w3.org/2000/svg" xmlns:xlink="http://www.w3.org/1999/xlink">
<g id="graph0" class="graph" transform="scale(1 1) rotate(0) translate(4 267)">
<title>CParser::opt_initializer</title>
<polygon fill="white" stroke="none" points="-4,4 -4,-267 2490,-267 2490,4 -4,4"/>
<!-- Node1 -->
<g id="node1" class="node"><title>Node1</title>
<polygon fill="#bfbfbf" stroke="black" points="0,-148.5 0,-167.5 122,-167.5 122,-148.5 0,-148.5"/>
<text text-anchor="middle" x="61" y="-155.5" font-family="Helvetica,sans-Serif" font-size="10.00">CParser::opt_initializer</text>
</g>
<!-- Node2 -->
<g id="node2" class="node"><title>Node2</title>
<g id="a_node2"><a xlink:href="../../d0/df6/classCParser.html#a9104801570f44810a98b9f3a5a76c06c" target="_top" xlink:title="CParser::instance_item">
<polygon fill="white" stroke="black" points="158,-148.5 158,-167.5 283,-167.5 283,-148.5 158,-148.5"/>
<text text-anchor="middle" x="220.5" y="-155.5" font-family="Helvetica,sans-Serif" font-size="10.00">CParser::instance_item</text>
</a>
</g>
</g>
<!-- Node1&#45;&gt;Node2 -->
<g id="edge1" class="edge"><title>Node1&#45;&gt;Node2</title>
<path fill="none" stroke="midnightblue" d="M132.639,-158C141.07,-158 149.626,-158 157.916,-158"/>
<polygon fill="midnightblue" stroke="midnightblue" points="132.443,-154.5 122.443,-158 132.443,-161.5 132.443,-154.5"/>
</g>
<!-- Node3 -->
<g id="node3" class="node"><title>Node3</title>
<g id="a_node3"><a xlink:href="../../d0/df6/classCParser.html#a6331346ed010ab6c734d29daeb5d896f" target="_top" xlink:title="CParser::instance_declaration">
<polygon fill="white" stroke="black" points="319,-127.5 319,-146.5 477,-146.5 477,-127.5 319,-127.5"/>
<text text-anchor="middle" x="398" y="-134.5" font-family="Helvetica,sans-Serif" font-size="10.00">CParser::instance_declaration</text>
</a>
</g>
</g>
<!-- Node2&#45;&gt;Node3 -->
<g id="edge2" class="edge"><title>Node2&#45;&gt;Node3</title>
<path fill="none" stroke="midnightblue" d="M293.442,-149.391C301.794,-148.392 310.343,-147.369 318.773,-146.36"/>
<polygon fill="midnightblue" stroke="midnightblue" points="292.888,-145.933 283.375,-150.596 293.72,-152.883 292.888,-145.933"/>
</g>
<!-- Node18 -->
<g id="node18" class="node"><title>Node18</title>
<g id="a_node18"><a xlink:href="../../d0/df6/classCParser.html#a70d42f7013f81c71092f771ff9232941" target="_top" xlink:title="CParser::ctor_init_item">
<polygon fill="white" stroke="black" points="336.5,-170.5 336.5,-189.5 459.5,-189.5 459.5,-170.5 336.5,-170.5"/>
<text text-anchor="middle" x="398" y="-177.5" font-family="Helvetica,sans-Serif" font-size="10.00">CParser::ctor_init_item</text>
</a>
</g>
</g>
<!-- Node2&#45;&gt;Node18 -->
<g id="edge20" class="edge"><title>Node2&#45;&gt;Node18</title>
<path fill="none" stroke="midnightblue" d="M293.58,-167.036C307.763,-168.814 322.51,-170.662 336.275,-172.388"/>
<polygon fill="midnightblue" stroke="midnightblue" points="293.732,-163.527 283.375,-165.756 292.862,-170.473 293.732,-163.527"/>
</g>
<!-- Node4 -->
<g id="node4" class="node"><title>Node4</title>
<g id="a_node4"><a xlink:href="../../d0/df6/classCParser.html#ab3ab57ace628c2476dd8dfe5a96f9a15" target="_top" xlink:title="CParser::definition\l_or_declaration">
<polygon fill="white" stroke="black" points="1385,-122 1385,-152 1488,-152 1488,-122 1385,-122"/>
<text text-anchor="start" x="1393" y="-140" font-family="Helvetica,sans-Serif" font-size="10.00">CParser::definition</text>
<text text-anchor="middle" x="1436.5" y="-129" font-family="Helvetica,sans-Serif" font-size="10.00">_or_declaration</text>
</a>
</g>
</g>
<!-- Node3&#45;&gt;Node4 -->
<g id="edge3" class="edge"><title>Node3&#45;&gt;Node4</title>
<path fill="none" stroke="midnightblue" d="M487.113,-137C550.943,-137 639.31,-137 717,-137 717,-137 717,-137 1059,-137 1175.68,-137 1312.69,-137 1384.95,-137"/>
<polygon fill="midnightblue" stroke="midnightblue" points="487.085,-133.5 477.085,-137 487.085,-140.5 487.085,-133.5"/>
</g>
<!-- Node17 -->
<g id="node17" class="node"><title>Node17</title>
<g id="a_node17"><a xlink:href="../../d0/df6/classCParser.html#a4e7cf3c3b19f9c664f345a10116c2c2c" target="_top" xlink:title="CParser::knr_param\l_decl_list">
<polygon fill="white" stroke="black" points="513,-78 513,-108 624,-108 624,-78 513,-78"/>
<text text-anchor="start" x="521" y="-96" font-family="Helvetica,sans-Serif" font-size="10.00">CParser::knr_param</text>
<text text-anchor="middle" x="568.5" y="-85" font-family="Helvetica,sans-Serif" font-size="10.00">_decl_list</text>
</a>
</g>
</g>
<!-- Node3&#45;&gt;Node17 -->
<g id="edge19" class="edge"><title>Node3&#45;&gt;Node17</title>
<path fill="none" stroke="midnightblue" d="M445.449,-124.871C466.289,-119.429 491.021,-112.971 512.755,-107.296"/>
<polygon fill="midnightblue" stroke="midnightblue" points="444.353,-121.54 435.562,-127.453 446.122,-128.312 444.353,-121.54"/>
</g>
<!-- Node5 -->
<g id="node5" class="node"><title>Node5</title>
<g id="a_node5"><a xlink:href="../../d0/df6/classCParser.html#a2b78ab2005bef5c43ee2d4689210eab1" target="_top" xlink:title="CParser::link_item">
<polygon fill="white" stroke="black" points="1543.5,-127.5 1543.5,-146.5 1644.5,-146.5 1644.5,-127.5 1543.5,-127.5"/>
<text text-anchor="middle" x="1594" y="-134.5" font-family="Helvetica,sans-Serif" font-size="10.00">CParser::link_item</text>
</a>
</g>
</g>
<!-- Node4&#45;&gt;Node5 -->
<g id="edge4" class="edge"><title>Node4&#45;&gt;Node5</title>
<path fill="none" stroke="midnightblue" d="M1498.52,-137C1513.36,-137 1529.05,-137 1543.29,-137"/>
<polygon fill="midnightblue" stroke="midnightblue" points="1498.42,-133.5 1488.42,-137 1498.42,-140.5 1498.42,-133.5"/>
</g>
<!-- Node11 -->
<g id="node11" class="node"><title>Node11</title>
<g id="a_node11"><a xlink:href="../../d0/df6/classCParser.html#a85eb09132fa5a588749cea062f0d11ea" target="_top" xlink:title="CParser::class_block_item">
<polygon fill="white" stroke="black" points="1524,-61.5 1524,-80.5 1664,-80.5 1664,-61.5 1524,-61.5"/>
<text text-anchor="middle" x="1594" y="-68.5" font-family="Helvetica,sans-Serif" font-size="10.00">CParser::class_block_item</text>
</a>
</g>
</g>
<!-- Node4&#45;&gt;Node11 -->
<g id="edge12" class="edge"><title>Node4&#45;&gt;Node11</title>
<path fill="none" stroke="midnightblue" d="M1482.64,-117.841C1511.46,-105.609 1547.58,-90.2783 1570.48,-80.5578"/>
<polygon fill="midnightblue" stroke="midnightblue" points="1481.01,-114.729 1473.17,-121.858 1483.75,-121.173 1481.01,-114.729"/>
</g>
<!-- Node6 -->
<g id="node6" class="node"><title>Node6</title>
<g id="a_node6"><a xlink:href="../../d0/df6/classCParser.html#a4f02da23566af37123efb3768769c09b" target="_top" xlink:title="CParser::start">
<polygon fill="white" stroke="black" points="1724.5,-127.5 1724.5,-146.5 1805.5,-146.5 1805.5,-127.5 1724.5,-127.5"/>
<text text-anchor="middle" x="1765" y="-134.5" font-family="Helvetica,sans-Serif" font-size="10.00">CParser::start</text>
</a>
</g>
</g>
<!-- Node5&#45;&gt;Node6 -->
<g id="edge5" class="edge"><title>Node5&#45;&gt;Node6</title>
<path fill="none" stroke="midnightblue" d="M1654.85,-137C1677.95,-137 1703.75,-137 1724.46,-137"/>
<polygon fill="midnightblue" stroke="midnightblue" points="1654.79,-133.5 1644.79,-137 1654.79,-140.5 1654.79,-133.5"/>
</g>
<!-- Node9 -->
<g id="node9" class="node"><title>Node9</title>
<g id="a_node9"><a xlink:href="../../d0/df6/classCParser.html#a86906e492ff9c606fb3537078f46f93e" target="_top" xlink:title="CParser::extern_linkage\l_block">
<polygon fill="white" stroke="black" points="1700,-78 1700,-108 1830,-108 1830,-78 1700,-78"/>
<text text-anchor="start" x="1708" y="-96" font-family="Helvetica,sans-Serif" font-size="10.00">CParser::extern_linkage</text>
<text text-anchor="middle" x="1765" y="-85" font-family="Helvetica,sans-Serif" font-size="10.00">_block</text>
</a>
</g>
</g>
<!-- Node5&#45;&gt;Node9 -->
<g id="edge8" class="edge"><title>Node5&#45;&gt;Node9</title>
<path fill="none" stroke="midnightblue" d="M1623.91,-124.24C1644.73,-117.463 1673.65,-109.487 1699.81,-103.139"/>
<polygon fill="midnightblue" stroke="midnightblue" points="1622.74,-120.941 1614.39,-127.459 1624.98,-127.573 1622.74,-120.941"/>
</g>
<!-- Node10 -->
<g id="node10" class="node"><title>Node10</title>
<g id="a_node10"><a xlink:href="../../d0/df6/classCParser.html#a4fad913a0694a5376ad76669d8943122" target="_top" xlink:title="CParser::namespace\l_block">
<polygon fill="white" stroke="black" points="1707.5,-166 1707.5,-196 1822.5,-196 1822.5,-166 1707.5,-166"/>
<text text-anchor="start" x="1715.5" y="-184" font-family="Helvetica,sans-Serif" font-size="10.00">CParser::namespace</text>
<text text-anchor="middle" x="1765" y="-173" font-family="Helvetica,sans-Serif" font-size="10.00">_block</text>
</a>
</g>
</g>
<!-- Node5&#45;&gt;Node10 -->
<g id="edge10" class="edge"><title>Node5&#45;&gt;Node10</title>
<path fill="none" stroke="midnightblue" d="M1654.7,-146.06C1679.17,-151.891 1706.67,-159.331 1727.97,-165.972"/>
<polygon fill="midnightblue" stroke="midnightblue" points="1655.33,-142.61 1644.79,-143.747 1653.74,-149.427 1655.33,-142.61"/>
</g>
<!-- Node7 -->
<g id="node7" class="node"><title>Node7</title>
<g id="a_node7"><a xlink:href="../../db/d4a/classMain.html#a803470658c644fa9512140f9d8398dd5" target="_top" xlink:title="Main::ParseFiles">
<polygon fill="white" stroke="black" points="1876,-127.5 1876,-146.5 1970,-146.5 1970,-127.5 1876,-127.5"/>
<text text-anchor="middle" x="1923" y="-134.5" font-family="Helvetica,sans-Serif" font-size="10.00">Main::ParseFiles</text>
</a>
</g>
</g>
<!-- Node6&#45;&gt;Node7 -->
<g id="edge6" class="edge"><title>Node6&#45;&gt;Node7</title>
<path fill="none" stroke="midnightblue" d="M1815.87,-137C1835.14,-137 1857.05,-137 1875.94,-137"/>
<polygon fill="midnightblue" stroke="midnightblue" points="1815.77,-133.5 1805.77,-137 1815.77,-140.5 1815.77,-133.5"/>
</g>
<!-- Node8 -->
<g id="node8" class="node"><title>Node8</title>
<g id="a_node8"><a xlink:href="../../d6/d93/ccccmain_8cc.html#a3c04138a5bfe5d72780bb7e82a18e627" target="_top" xlink:title="main">
<polygon fill="white" stroke="black" points="2053.5,-127.5 2053.5,-146.5 2092.5,-146.5 2092.5,-127.5 2053.5,-127.5"/>
<text text-anchor="middle" x="2073" y="-134.5" font-family="Helvetica,sans-Serif" font-size="10.00">main</text>
</a>
</g>
</g>
<!-- Node7&#45;&gt;Node8 -->
<g id="edge7" class="edge"><title>Node7&#45;&gt;Node8</title>
<path fill="none" stroke="midnightblue" d="M1980.15,-137C2006.09,-137 2035.14,-137 2053.49,-137"/>
<polygon fill="midnightblue" stroke="midnightblue" points="1980.02,-133.5 1970.02,-137 1980.02,-140.5 1980.02,-133.5"/>
</g>
<!-- Node9&#45;&gt;Node5 -->
<g id="edge9" class="edge"><title>Node9&#45;&gt;Node5</title>
<path fill="none" stroke="midnightblue" d="M1718.22,-110.994C1695.51,-117.757 1668.03,-124.958 1644.79,-130.253"/>
<polygon fill="midnightblue" stroke="midnightblue" points="1719.42,-114.289 1727.97,-108.028 1717.38,-107.592 1719.42,-114.289"/>
</g>
<!-- Node10&#45;&gt;Node5 -->
<g id="edge11" class="edge"><title>Node10&#45;&gt;Node5</title>
<path fill="none" stroke="midnightblue" d="M1697.36,-170.265C1667.55,-162.964 1634.64,-153.687 1614.39,-146.541"/>
<polygon fill="midnightblue" stroke="midnightblue" points="1696.79,-173.726 1707.33,-172.659 1698.42,-166.92 1696.79,-173.726"/>
</g>
<!-- Node12 -->
<g id="node12" class="node"><title>Node12</title>
<g id="a_node12"><a xlink:href="../../d0/df6/classCParser.html#a4b9f00c05d44a13b3c18b28b52f5be9e" target="_top" xlink:title="CParser::class_block\l_item_list">
<polygon fill="white" stroke="black" points="1708,-29 1708,-59 1822,-59 1822,-29 1708,-29"/>
<text text-anchor="start" x="1716" y="-47" font-family="Helvetica,sans-Serif" font-size="10.00">CParser::class_block</text>
<text text-anchor="middle" x="1765" y="-36" font-family="Helvetica,sans-Serif" font-size="10.00">_item_list</text>
</a>
</g>
</g>
<!-- Node11&#45;&gt;Node12 -->
<g id="edge13" class="edge"><title>Node11&#45;&gt;Node12</title>
<path fill="none" stroke="midnightblue" d="M1664.87,-59.8377C1679.17,-57.5534 1694.04,-55.177 1707.79,-52.9809"/>
<polygon fill="midnightblue" stroke="midnightblue" points="1663.91,-56.4469 1654.58,-61.4808 1665.01,-63.3593 1663.91,-56.4469"/>
</g>
<!-- Node13 -->
<g id="node13" class="node"><title>Node13</title>
<g id="a_node13"><a xlink:href="../../d0/df6/classCParser.html#a06c7cac9034f27ad6d998b49a7b574c8" target="_top" xlink:title="CParser::class_block">
<polygon fill="white" stroke="black" points="1866,-34.5 1866,-53.5 1980,-53.5 1980,-34.5 1866,-34.5"/>
<text text-anchor="middle" x="1923" y="-41.5" font-family="Helvetica,sans-Serif" font-size="10.00">CParser::class_block</text>
</a>
</g>
</g>
<!-- Node12&#45;&gt;Node13 -->
<g id="edge14" class="edge"><title>Node12&#45;&gt;Node13</title>
<path fill="none" stroke="midnightblue" d="M1832.4,-44C1843.51,-44 1854.94,-44 1865.76,-44"/>
<polygon fill="midnightblue" stroke="midnightblue" points="1832.32,-40.5001 1822.32,-44 1832.32,-47.5001 1832.32,-40.5001"/>
</g>
<!-- Node14 -->
<g id="node14" class="node"><title>Node14</title>
<g id="a_node14"><a xlink:href="../../d0/df6/classCParser.html#a40fba8426e7ac46e9926515ee81e97f3" target="_top" xlink:title="CParser::class_suffix">
<polygon fill="white" stroke="black" points="2016,-34.5 2016,-53.5 2130,-53.5 2130,-34.5 2016,-34.5"/>
<text text-anchor="middle" x="2073" y="-41.5" font-family="Helvetica,sans-Serif" font-size="10.00">CParser::class_suffix</text>
</a>
</g>
</g>
<!-- Node13&#45;&gt;Node14 -->
<g id="edge15" class="edge"><title>Node13&#45;&gt;Node14</title>
<path fill="none" stroke="midnightblue" d="M1990.56,-44C1998.98,-44 2007.54,-44 2015.78,-44"/>
<polygon fill="midnightblue" stroke="midnightblue" points="1990.37,-40.5001 1980.37,-44 1990.37,-47.5001 1990.37,-40.5001"/>
</g>
<!-- Node15 -->
<g id="node15" class="node"><title>Node15</title>
<g id="a_node15"><a xlink:href="../../d0/df6/classCParser.html#a1ed5fcfb2e97e3551fceabe81989a667" target="_top" xlink:title="CParser::class_declaration\l_or_definition">
<polygon fill="white" stroke="black" points="2166,-29 2166,-59 2309,-59 2309,-29 2166,-29"/>
<text text-anchor="start" x="2174" y="-47" font-family="Helvetica,sans-Serif" font-size="10.00">CParser::class_declaration</text>
<text text-anchor="middle" x="2237.5" y="-36" font-family="Helvetica,sans-Serif" font-size="10.00">_or_definition</text>
</a>
</g>
</g>
<!-- Node14&#45;&gt;Node15 -->
<g id="edge16" class="edge"><title>Node14&#45;&gt;Node15</title>
<path fill="none" stroke="midnightblue" d="M2140.47,-44C2148.86,-44 2157.46,-44 2165.91,-44"/>
<polygon fill="midnightblue" stroke="midnightblue" points="2140.38,-40.5001 2130.38,-44 2140.38,-47.5001 2140.38,-40.5001"/>
</g>
<!-- Node15&#45;&gt;Node4 -->
<g id="edge17" class="edge"><title>Node15&#45;&gt;Node4</title>
<path fill="none" stroke="midnightblue" d="M2159.36,-27.0145C2096.37,-14.6274 2004.87,-0 1924,-0 1764,-0 1764,-0 1764,-0 1654.86,-7.10543e-15 1620.04,-0.153266 1524,-52 1491.76,-69.403 1463.39,-102.417 1448.52,-121.781"/>
<polygon fill="midnightblue" stroke="midnightblue" points="2158.73,-30.4572 2169.22,-28.9808 2160.1,-23.5924 2158.73,-30.4572"/>
</g>
<!-- Node16 -->
<g id="node16" class="node"><title>Node16</title>
<g id="a_node16"><a xlink:href="../../d0/df6/classCParser.html#a12561a45dab96760d7ab45896681dd33" target="_top" xlink:title="CParser::class_or_method\l_declaration_or_definition">
<polygon fill="white" stroke="black" points="2345,-210 2345,-240 2486,-240 2486,-210 2345,-210"/>
<text text-anchor="start" x="2353" y="-228" font-family="Helvetica,sans-Serif" font-size="10.00">CParser::class_or_method</text>
<text text-anchor="middle" x="2415.5" y="-217" font-family="Helvetica,sans-Serif" font-size="10.00">_declaration_or_definition</text>
</a>
</g>
</g>
<!-- Node15&#45;&gt;Node16 -->
<g id="edge18" class="edge"><title>Node15&#45;&gt;Node16</title>
<path fill="none" stroke="midnightblue" d="M2260.4,-66.5199C2296.77,-103.929 2368.71,-177.913 2399.72,-209.795"/>
<polygon fill="midnightblue" stroke="midnightblue" points="2262.68,-63.8501 2253.2,-59.1206 2257.67,-68.73 2262.68,-63.8501"/>
</g>
<!-- Node19 -->
<g id="node19" class="node"><title>Node19</title>
<g id="a_node19"><a xlink:href="../../d0/df6/classCParser.html#a617e49ab4458d5b4adf577a6a0bc05cd" target="_top" xlink:title="CParser::ctor_init\l_item_list">
<polygon fill="white" stroke="black" points="519.5,-171 519.5,-201 617.5,-201 617.5,-171 519.5,-171"/>
<text text-anchor="start" x="527.5" y="-189" font-family="Helvetica,sans-Serif" font-size="10.00">CParser::ctor_init</text>
<text text-anchor="middle" x="568.5" y="-178" font-family="Helvetica,sans-Serif" font-size="10.00">_item_list</text>
</a>
</g>
</g>
<!-- Node18&#45;&gt;Node19 -->
<g id="edge21" class="edge"><title>Node18&#45;&gt;Node19</title>
<path fill="none" stroke="midnightblue" d="M470.081,-182.531C486.727,-183.124 504.075,-183.742 519.44,-184.289"/>
<polygon fill="midnightblue" stroke="midnightblue" points="469.951,-179.024 459.832,-182.166 469.701,-186.02 469.951,-179.024"/>
</g>
<!-- Node20 -->
<g id="node20" class="node"><title>Node20</title>
<g id="a_node20"><a xlink:href="../../d0/df6/classCParser.html#ab6c0eabf2b00874bf8f70b576d96ce52" target="_top" xlink:title="CParser::ctor_init_list">
<polygon fill="white" stroke="black" points="660,-178.5 660,-197.5 776,-197.5 776,-178.5 660,-178.5"/>
<text text-anchor="middle" x="718" y="-185.5" font-family="Helvetica,sans-Serif" font-size="10.00">CParser::ctor_init_list</text>
</a>
</g>
</g>
<!-- Node19&#45;&gt;Node20 -->
<g id="edge22" class="edge"><title>Node19&#45;&gt;Node20</title>
<path fill="none" stroke="midnightblue" d="M628.087,-186.794C638.552,-186.936 649.443,-187.084 659.867,-187.225"/>
<polygon fill="midnightblue" stroke="midnightblue" points="627.844,-183.291 617.797,-186.655 627.749,-190.29 627.844,-183.291"/>
</g>
<!-- Node21 -->
<g id="node21" class="node"><title>Node21</title>
<g id="a_node21"><a xlink:href="../../d0/df6/classCParser.html#ad7a6fd3a8b7daa3c26191f4512236a59" target="_top" xlink:title="CParser::method_suffix">
<polygon fill="white" stroke="black" points="812,-197.5 812,-216.5 937,-216.5 937,-197.5 812,-197.5"/>
<text text-anchor="middle" x="874.5" y="-204.5" font-family="Helvetica,sans-Serif" font-size="10.00">CParser::method_suffix</text>
</a>
</g>
</g>
<!-- Node20&#45;&gt;Node21 -->
<g id="edge23" class="edge"><title>Node20&#45;&gt;Node21</title>
<path fill="none" stroke="midnightblue" d="M786.086,-196.25C794.689,-197.308 803.464,-198.387 811.973,-199.434"/>
<polygon fill="midnightblue" stroke="midnightblue" points="786.444,-192.768 776.091,-195.021 785.589,-199.715 786.444,-192.768"/>
</g>
<!-- Node22 -->
<g id="node22" class="node"><title>Node22</title>
<g id="a_node22"><a xlink:href="../../d0/df6/classCParser.html#a0dd2a579512bf1a17aaeac5fdec860a7" target="_top" xlink:title="CParser::method_declaration\l_or_definition_with_implicit_type">
<polygon fill="white" stroke="black" points="973,-201 973,-231 1143,-231 1143,-201 973,-201"/>
<text text-anchor="start" x="981" y="-219" font-family="Helvetica,sans-Serif" font-size="10.00">CParser::method_declaration</text>
<text text-anchor="middle" x="1058" y="-208" font-family="Helvetica,sans-Serif" font-size="10.00">_or_definition_with_implicit_type</text>
</a>
</g>
</g>
<!-- Node21&#45;&gt;Node22 -->
<g id="edge24" class="edge"><title>Node21&#45;&gt;Node22</title>
<path fill="none" stroke="midnightblue" d="M947.336,-210.562C955.755,-210.98 964.401,-211.408 972.966,-211.833"/>
<polygon fill="midnightblue" stroke="midnightblue" points="947.362,-207.059 937.201,-210.06 947.015,-214.051 947.362,-207.059"/>
</g>
<!-- Node22&#45;&gt;Node4 -->
<g id="edge25" class="edge"><title>Node22&#45;&gt;Node4</title>
<path fill="none" stroke="midnightblue" d="M1140.5,-198.899C1214.79,-183.31 1322.22,-160.77 1384.85,-147.627"/>
<polygon fill="midnightblue" stroke="midnightblue" points="1139.77,-195.476 1130.7,-200.955 1141.21,-202.327 1139.77,-195.476"/>
</g>
<!-- Node22&#45;&gt;Node16 -->
<g id="edge29" class="edge"><title>Node22&#45;&gt;Node16</title>
<path fill="none" stroke="midnightblue" d="M1125.44,-233.44C1142.77,-237.455 1161.5,-241.327 1179,-244 1292,-261.262 1321.19,-263 1435.5,-263 1435.5,-263 1435.5,-263 2074,-263 2168.28,-263 2276.34,-248.433 2344.98,-237.338"/>
<polygon fill="midnightblue" stroke="midnightblue" points="1125.96,-229.966 1115.42,-231.068 1124.34,-236.777 1125.96,-229.966"/>
</g>
<!-- Node23 -->
<g id="node23" class="node"><title>Node23</title>
<g id="a_node23"><a xlink:href="../../d0/df6/classCParser.html#af0c9d35d4c997c6f34cf4a26563b513c" target="_top" xlink:title="CParser::method_declaration\l_or_definition_with_explicit_type">
<polygon fill="white" stroke="black" points="1179,-204 1179,-234 1349,-234 1349,-204 1179,-204"/>
<text text-anchor="start" x="1187" y="-222" font-family="Helvetica,sans-Serif" font-size="10.00">CParser::method_declaration</text>
<text text-anchor="middle" x="1264" y="-211" font-family="Helvetica,sans-Serif" font-size="10.00">_or_definition_with_explicit_type</text>
</a>
</g>
</g>
<!-- Node22&#45;&gt;Node23 -->
<g id="edge26" class="edge"><title>Node22&#45;&gt;Node23</title>
<path fill="none" stroke="midnightblue" d="M1153.4,-217.388C1161.85,-217.512 1170.36,-217.638 1178.71,-217.76"/>
<polygon fill="midnightblue" stroke="midnightblue" points="1153.2,-213.885 1143.15,-217.238 1153.1,-220.884 1153.2,-213.885"/>
</g>
<!-- Node23&#45;&gt;Node4 -->
<g id="edge27" class="edge"><title>Node23&#45;&gt;Node4</title>
<path fill="none" stroke="midnightblue" d="M1321.83,-200.436C1331.04,-196.936 1340.38,-193.082 1349,-189 1371.65,-178.279 1395.98,-163.31 1413.06,-152.184"/>
<polygon fill="midnightblue" stroke="midnightblue" points="1320.49,-197.202 1312.32,-203.95 1322.91,-203.769 1320.49,-197.202"/>
</g>
<!-- Node23&#45;&gt;Node16 -->
<g id="edge28" class="edge"><title>Node23&#45;&gt;Node16</title>
<path fill="none" stroke="midnightblue" d="M1359.57,-221.645C1425.09,-223.254 1514.34,-225 1593,-225 1593,-225 1593,-225 2074,-225 2167.7,-225 2275.9,-225 2344.72,-225"/>
<polygon fill="midnightblue" stroke="midnightblue" points="1359.34,-218.139 1349.26,-221.389 1359.17,-225.137 1359.34,-218.139"/>
</g>
</g>
</svg>
