<?xml version="1.0" encoding="UTF-8" standalone="no"?>
<!DOCTYPE svg PUBLIC "-//W3C//DTD SVG 1.1//EN"
 "http://www.w3.org/Graphics/SVG/1.1/DTD/svg11.dtd">
<!-- Generated by graphviz version 2.38.0 (20140413.2041)
 -->
<!-- Title: CParser::class_block Pages: 1 -->
<svg width="1175pt" height="176pt"
 viewBox="0.00 0.00 1175.00 175.50" xmlns="http://www.w3.org/2000/svg" xmlns:xlink="http://www.w3.org/1999/xlink">
<g id="graph0" class="graph" transform="scale(1 1) rotate(0) translate(4 171.5)">
<title>CParser::class_block</title>
<polygon fill="white" stroke="none" points="-4,4 -4,-171.5 1171,-171.5 1171,4 -4,4"/>
<!-- Node1 -->
<g id="node1" class="node"><title>Node1</title>
<polygon fill="#bfbfbf" stroke="black" points="0,-26 0,-45 114,-45 114,-26 0,-26"/>
<text text-anchor="middle" x="57" y="-33" font-family="Helvetica,sans-Serif" font-size="10.00">CParser::class_block</text>
</g>
<!-- Node2 -->
<g id="node2" class="node"><title>Node2</title>
<g id="a_node2"><a xlink:href="../../d0/df6/classCParser.html#a40fba8426e7ac46e9926515ee81e97f3" target="_top" xlink:title="CParser::class_suffix">
<polygon fill="white" stroke="black" points="150,-47 150,-66 264,-66 264,-47 150,-47"/>
<text text-anchor="middle" x="207" y="-54" font-family="Helvetica,sans-Serif" font-size="10.00">CParser::class_suffix</text>
</a>
</g>
</g>
<!-- Node1&#45;&gt;Node2 -->
<g id="edge1" class="edge"><title>Node1&#45;&gt;Node2</title>
<path fill="none" stroke="midnightblue" d="M124.28,-44.9046C132.796,-46.1129 141.449,-47.3407 149.782,-48.5231"/>
<polygon fill="midnightblue" stroke="midnightblue" points="124.767,-41.4387 114.375,-43.4991 123.784,-48.3693 124.767,-41.4387"/>
</g>
<!-- Node3 -->
<g id="node3" class="node"><title>Node3</title>
<g id="a_node3"><a xlink:href="../../d0/df6/classCParser.html#a1ed5fcfb2e97e3551fceabe81989a667" target="_top" xlink:title="CParser::class_declaration\l_or_definition">
<polygon fill="white" stroke="black" points="300,-44.5 300,-74.5 443,-74.5 443,-44.5 300,-44.5"/>
<text text-anchor="start" x="308" y="-62.5" font-family="Helvetica,sans-Serif" font-size="10.00">CParser::class_declaration</text>
<text text-anchor="middle" x="371.5" y="-51.5" font-family="Helvetica,sans-Serif" font-size="10.00">_or_definition</text>
</a>
</g>
</g>
<!-- Node2&#45;&gt;Node3 -->
<g id="edge2" class="edge"><title>Node2&#45;&gt;Node3</title>
<path fill="none" stroke="midnightblue" d="M274.473,-57.7272C282.858,-57.882 291.46,-58.0408 299.905,-58.1967"/>
<polygon fill="midnightblue" stroke="midnightblue" points="274.441,-54.2261 264.379,-57.5408 274.312,-61.2249 274.441,-54.2261"/>
</g>
<!-- Node4 -->
<g id="node4" class="node"><title>Node4</title>
<g id="a_node4"><a xlink:href="../../d0/df6/classCParser.html#ab3ab57ace628c2476dd8dfe5a96f9a15" target="_top" xlink:title="CParser::definition\l_or_declaration">
<polygon fill="white" stroke="black" points="498,-93.5 498,-123.5 601,-123.5 601,-93.5 498,-93.5"/>
<text text-anchor="start" x="506" y="-111.5" font-family="Helvetica,sans-Serif" font-size="10.00">CParser::definition</text>
<text text-anchor="middle" x="549.5" y="-100.5" font-family="Helvetica,sans-Serif" font-size="10.00">_or_declaration</text>
</a>
</g>
</g>
<!-- Node3&#45;&gt;Node4 -->
<g id="edge3" class="edge"><title>Node3&#45;&gt;Node4</title>
<path fill="none" stroke="midnightblue" d="M436.474,-77.311C456.639,-82.9252 478.627,-89.0468 497.741,-94.3683"/>
<polygon fill="midnightblue" stroke="midnightblue" points="437.314,-73.9118 426.742,-74.6014 435.437,-80.6554 437.314,-73.9118"/>
</g>
<!-- Node13 -->
<g id="node13" class="node"><title>Node13</title>
<g id="a_node13"><a xlink:href="../../d0/df6/classCParser.html#a12561a45dab96760d7ab45896681dd33" target="_top" xlink:title="CParser::class_or_method\l_declaration_or_definition">
<polygon fill="white" stroke="black" points="479,-44.5 479,-74.5 620,-74.5 620,-44.5 479,-44.5"/>
<text text-anchor="start" x="487" y="-62.5" font-family="Helvetica,sans-Serif" font-size="10.00">CParser::class_or_method</text>
<text text-anchor="middle" x="549.5" y="-51.5" font-family="Helvetica,sans-Serif" font-size="10.00">_declaration_or_definition</text>
</a>
</g>
</g>
<!-- Node3&#45;&gt;Node13 -->
<g id="edge15" class="edge"><title>Node3&#45;&gt;Node13</title>
<path fill="none" stroke="midnightblue" d="M453.08,-59.5C461.659,-59.5 470.333,-59.5 478.772,-59.5"/>
<polygon fill="midnightblue" stroke="midnightblue" points="453.072,-56.0001 443.072,-59.5 453.072,-63.0001 453.072,-56.0001"/>
</g>
<!-- Node5 -->
<g id="node5" class="node"><title>Node5</title>
<g id="a_node5"><a xlink:href="../../d0/df6/classCParser.html#a2b78ab2005bef5c43ee2d4689210eab1" target="_top" xlink:title="CParser::link_item">
<polygon fill="white" stroke="black" points="675.5,-101 675.5,-120 776.5,-120 776.5,-101 675.5,-101"/>
<text text-anchor="middle" x="726" y="-108" font-family="Helvetica,sans-Serif" font-size="10.00">CParser::link_item</text>
</a>
</g>
</g>
<!-- Node4&#45;&gt;Node5 -->
<g id="edge4" class="edge"><title>Node4&#45;&gt;Node5</title>
<path fill="none" stroke="midnightblue" d="M611.514,-109.199C632.444,-109.439 655.595,-109.705 675.498,-109.933"/>
<polygon fill="midnightblue" stroke="midnightblue" points="611.481,-105.699 601.442,-109.084 611.401,-112.698 611.481,-105.699"/>
</g>
<!-- Node11 -->
<g id="node11" class="node"><title>Node11</title>
<g id="a_node11"><a xlink:href="../../d0/df6/classCParser.html#a85eb09132fa5a588749cea062f0d11ea" target="_top" xlink:title="CParser::class_block_item">
<polygon fill="white" stroke="black" points="656,-55 656,-74 796,-74 796,-55 656,-55"/>
<text text-anchor="middle" x="726" y="-62" font-family="Helvetica,sans-Serif" font-size="10.00">CParser::class_block_item</text>
</a>
</g>
</g>
<!-- Node4&#45;&gt;Node11 -->
<g id="edge12" class="edge"><title>Node4&#45;&gt;Node11</title>
<path fill="none" stroke="midnightblue" d="M611.315,-93.1656C636.598,-86.7904 665.152,-79.5906 687.318,-74.0014"/>
<polygon fill="midnightblue" stroke="midnightblue" points="610.282,-89.8163 601.442,-95.6551 611.994,-96.6038 610.282,-89.8163"/>
</g>
<!-- Node6 -->
<g id="node6" class="node"><title>Node6</title>
<g id="a_node6"><a xlink:href="../../d0/df6/classCParser.html#a4f02da23566af37123efb3768769c09b" target="_top" xlink:title="CParser::start">
<polygon fill="white" stroke="black" points="856.5,-148 856.5,-167 937.5,-167 937.5,-148 856.5,-148"/>
<text text-anchor="middle" x="897" y="-155" font-family="Helvetica,sans-Serif" font-size="10.00">CParser::start</text>
</a>
</g>
</g>
<!-- Node5&#45;&gt;Node6 -->
<g id="edge5" class="edge"><title>Node5&#45;&gt;Node6</title>
<path fill="none" stroke="midnightblue" d="M770.838,-122.692C799.111,-130.555 835.358,-140.635 861.562,-147.922"/>
<polygon fill="midnightblue" stroke="midnightblue" points="771.772,-119.319 761.2,-120.011 769.896,-126.063 771.772,-119.319"/>
</g>
<!-- Node9 -->
<g id="node9" class="node"><title>Node9</title>
<g id="a_node9"><a xlink:href="../../d0/df6/classCParser.html#a86906e492ff9c606fb3537078f46f93e" target="_top" xlink:title="CParser::extern_linkage\l_block">
<polygon fill="white" stroke="black" points="832,-98.5 832,-128.5 962,-128.5 962,-98.5 832,-98.5"/>
<text text-anchor="start" x="840" y="-116.5" font-family="Helvetica,sans-Serif" font-size="10.00">CParser::extern_linkage</text>
<text text-anchor="middle" x="897" y="-105.5" font-family="Helvetica,sans-Serif" font-size="10.00">_block</text>
</a>
</g>
</g>
<!-- Node5&#45;&gt;Node9 -->
<g id="edge8" class="edge"><title>Node5&#45;&gt;Node9</title>
<path fill="none" stroke="midnightblue" d="M787.129,-105.073C801.616,-105.018 817.149,-105.267 831.815,-105.787"/>
<polygon fill="midnightblue" stroke="midnightblue" points="786.759,-101.576 776.792,-105.168 786.823,-108.576 786.759,-101.576"/>
</g>
<!-- Node10 -->
<g id="node10" class="node"><title>Node10</title>
<g id="a_node10"><a xlink:href="../../d0/df6/classCParser.html#a4fad913a0694a5376ad76669d8943122" target="_top" xlink:title="CParser::namespace\l_block">
<polygon fill="white" stroke="black" points="839.5,-49.5 839.5,-79.5 954.5,-79.5 954.5,-49.5 839.5,-49.5"/>
<text text-anchor="start" x="847.5" y="-67.5" font-family="Helvetica,sans-Serif" font-size="10.00">CParser::namespace</text>
<text text-anchor="middle" x="897" y="-56.5" font-family="Helvetica,sans-Serif" font-size="10.00">_block</text>
</a>
</g>
</g>
<!-- Node5&#45;&gt;Node10 -->
<g id="edge10" class="edge"><title>Node5&#45;&gt;Node10</title>
<path fill="none" stroke="midnightblue" d="M755.473,-97.546C778.31,-89.8202 811.085,-80.4953 839.239,-73.534"/>
<polygon fill="midnightblue" stroke="midnightblue" points="754.006,-94.3515 745.732,-100.969 756.327,-100.956 754.006,-94.3515"/>
</g>
<!-- Node7 -->
<g id="node7" class="node"><title>Node7</title>
<g id="a_node7"><a xlink:href="../../db/d4a/classMain.html#a803470658c644fa9512140f9d8398dd5" target="_top" xlink:title="Main::ParseFiles">
<polygon fill="white" stroke="black" points="998,-148 998,-167 1092,-167 1092,-148 998,-148"/>
<text text-anchor="middle" x="1045" y="-155" font-family="Helvetica,sans-Serif" font-size="10.00">Main::ParseFiles</text>
</a>
</g>
</g>
<!-- Node6&#45;&gt;Node7 -->
<g id="edge6" class="edge"><title>Node6&#45;&gt;Node7</title>
<path fill="none" stroke="midnightblue" d="M947.893,-157.5C964.125,-157.5 982.056,-157.5 997.99,-157.5"/>
<polygon fill="midnightblue" stroke="midnightblue" points="947.51,-154 937.51,-157.5 947.51,-161 947.51,-154"/>
</g>
<!-- Node8 -->
<g id="node8" class="node"><title>Node8</title>
<g id="a_node8"><a xlink:href="../../d6/d93/ccccmain_8cc.html#a3c04138a5bfe5d72780bb7e82a18e627" target="_top" xlink:title="main">
<polygon fill="white" stroke="black" points="1128,-148 1128,-167 1167,-167 1167,-148 1128,-148"/>
<text text-anchor="middle" x="1147.5" y="-155" font-family="Helvetica,sans-Serif" font-size="10.00">main</text>
</a>
</g>
</g>
<!-- Node7&#45;&gt;Node8 -->
<g id="edge7" class="edge"><title>Node7&#45;&gt;Node8</title>
<path fill="none" stroke="midnightblue" d="M1102.18,-157.5C1111.4,-157.5 1120.34,-157.5 1127.76,-157.5"/>
<polygon fill="midnightblue" stroke="midnightblue" points="1102.13,-154 1092.13,-157.5 1102.13,-161 1102.13,-154"/>
</g>
<!-- Node9&#45;&gt;Node5 -->
<g id="edge9" class="edge"><title>Node9&#45;&gt;Node5</title>
<path fill="none" stroke="midnightblue" d="M821.446,-118.885C806.335,-118.744 790.794,-118.304 776.792,-117.6"/>
<polygon fill="midnightblue" stroke="midnightblue" points="821.798,-122.386 831.815,-118.934 821.831,-115.387 821.798,-122.386"/>
</g>
<!-- Node10&#45;&gt;Node5 -->
<g id="edge11" class="edge"><title>Node10&#45;&gt;Node5</title>
<path fill="none" stroke="midnightblue" d="M851.462,-82.6513C828.513,-89.7925 800.455,-97.4922 776.792,-103.163"/>
<polygon fill="midnightblue" stroke="midnightblue" points="852.816,-85.8935 861.284,-79.526 850.693,-79.223 852.816,-85.8935"/>
</g>
<!-- Node12 -->
<g id="node12" class="node"><title>Node12</title>
<g id="a_node12"><a xlink:href="../../d0/df6/classCParser.html#a4b9f00c05d44a13b3c18b28b52f5be9e" target="_top" xlink:title="CParser::class_block\l_item_list">
<polygon fill="white" stroke="black" points="840,-0.5 840,-30.5 954,-30.5 954,-0.5 840,-0.5"/>
<text text-anchor="start" x="848" y="-18.5" font-family="Helvetica,sans-Serif" font-size="10.00">CParser::class_block</text>
<text text-anchor="middle" x="897" y="-7.5" font-family="Helvetica,sans-Serif" font-size="10.00">_item_list</text>
</a>
</g>
</g>
<!-- Node11&#45;&gt;Node12 -->
<g id="edge13" class="edge"><title>Node11&#45;&gt;Node12</title>
<path fill="none" stroke="midnightblue" d="M769.649,-52.1343C792.277,-45.5735 820.261,-37.4597 844.138,-30.537"/>
<polygon fill="midnightblue" stroke="midnightblue" points="768.616,-48.7896 759.986,-54.936 770.565,-55.5127 768.616,-48.7896"/>
</g>
<!-- Node12&#45;&gt;Node1 -->
<g id="edge14" class="edge"><title>Node12&#45;&gt;Node1</title>
<path fill="none" stroke="midnightblue" d="M829.378,-15.5C759.799,-15.5 647.491,-15.5 550.5,-15.5 370.5,-15.5 370.5,-15.5 370.5,-15.5 280.663,-15.5 176.594,-23.8336 114.101,-29.742"/>
<polygon fill="midnightblue" stroke="midnightblue" points="829.747,-19.0001 839.747,-15.5 829.747,-12.0001 829.747,-19.0001"/>
</g>
</g>
</svg>
