<?xml version="1.0" encoding="UTF-8" standalone="no"?>
<!DOCTYPE svg PUBLIC "-//W3C//DTD SVG 1.1//EN"
 "http://www.w3.org/Graphics/SVG/1.1/DTD/svg11.dtd">
<!-- Generated by graphviz version 2.38.0 (20140413.2041)
 -->
<!-- Title: CParser::operator_identifier Pages: 1 -->
<!--zoomable 733 -->
<svg id="main" version="1.1" xmlns="http://www.w3.org/2000/svg" xmlns:xlink="http://www.w3.org/1999/xlink" xml:space="preserve" onload="init(evt)">
<style type="text/css"><![CDATA[
.edge:hover path { stroke: red; }
.edge:hover polygon { stroke: red; fill: red; }
]]></style>
<script type="text/javascript"><![CDATA[
var edges = document.getElementsByTagName('g');
if (edges && edges.length) {
  for (var i=0;i<edges.length;i++) {
    if (edges[i].id.substr(0,4)=='edge') {
      edges[i].setAttribute('class','edge');
    }
  }
}
]]></script>
        <defs>
                <circle id="rim" cx="0" cy="0" r="7"/>
                <circle id="rim2" cx="0" cy="0" r="3.5"/>
                <g id="zoomPlus">
                        <use xlink:href="#rim" fill="#404040">
                                <set attributeName="fill" to="#808080" begin="zoomplus.mouseover" end="zoomplus.mouseout"/>
                        </use>
                        <path d="M-4,0h8M0,-4v8" fill="none" stroke="white" stroke-width="1.5" pointer-events="none"/>
                </g>
                <g id="zoomMin">
                        <use xlink:href="#rim" fill="#404040">
                                <set attributeName="fill" to="#808080" begin="zoomminus.mouseover" end="zoomminus.mouseout"/>
                        </use>
                        <path d="M-4,0h8" fill="none" stroke="white" stroke-width="1.5" pointer-events="none"/>
                </g>
                <g id="dirArrow">
                        <path fill="none" stroke="white" stroke-width="1.5" d="M0,-3.0v7 M-2.5,-0.5L0,-3.0L2.5,-0.5"/>
                </g>
               <g id="resetDef">
                       <use xlink:href="#rim2" fill="#404040">
                               <set attributeName="fill" to="#808080" begin="reset.mouseover" end="reset.mouseout"/>
                       </use>
               </g>
        </defs>

<script type="text/javascript">
var viewWidth = 1854;
var viewHeight = 733;
var sectionId = 'dynsection-141';
</script>
<script xlink:href="../../svgpan.js"/>
<svg id="graph" class="graph">
<g id="viewport">
<title>CParser::operator_identifier</title>
<polygon fill="white" stroke="none" points="-4,4 -4,-729.432 1850,-729.432 1850,4 -4,4"/>
<!-- Node1 -->
<g id="node1" class="node"><title>Node1</title>
<polygon fill="#bfbfbf" stroke="black" points="0,-620 0,-639 147,-639 147,-620 0,-620"/>
<text text-anchor="middle" x="73.5" y="-627" font-family="Helvetica,sans-Serif" font-size="10.00">CParser::operator_identifier</text>
</g>
<!-- Node2 -->
<g id="node2" class="node"><title>Node2</title>
<g id="a_node2"><a xlink:href="../../d0/df6/classCParser.html#a177b7d8d53b6d7c2c89bbea896b3d154" target="_top" xlink:title="CParser::op">
<polygon fill="white" stroke="black" points="370.5,-696 370.5,-715 442.5,-715 442.5,-696 370.5,-696"/>
<text text-anchor="middle" x="406.5" y="-703" font-family="Helvetica,sans-Serif" font-size="10.00">CParser::op</text>
</a>
</g>
</g>
<!-- Node1&#45;&gt;Node2 -->
<g id="edge1" class="edge"><title>Node1&#45;&gt;Node2</title>
<path fill="none" stroke="midnightblue" d="M90.0046,-639.026C110.48,-651.106 148.041,-671.554 183,-681.5 242.631,-698.465 314.371,-703.606 359.956,-705.071"/>
<polygon fill="midnightblue" stroke="midnightblue" points="360.022,-708.574 370.115,-705.35 360.215,-701.577 360.022,-708.574"/>
</g>
<!-- Node3 -->
<g id="node3" class="node"><title>Node3</title>
<g id="a_node3"><a xlink:href="../../d0/df6/classCParser.html#a5e1630bd24884bb1cbc5680926dce957" target="_top" xlink:title="CParser::syn">
<polygon fill="white" stroke="black" points="1458,-354 1458,-373 1535,-373 1535,-354 1458,-354"/>
<text text-anchor="middle" x="1496.5" y="-361" font-family="Helvetica,sans-Serif" font-size="10.00">CParser::syn</text>
</a>
</g>
</g>
<!-- Node1&#45;&gt;Node3 -->
<g id="edge48" class="edge"><title>Node1&#45;&gt;Node3</title>
<path fill="none" stroke="midnightblue" d="M123.511,-639.027C142.088,-642.389 163.467,-645.961 183,-648.5 281.421,-661.294 306.251,-667.5 405.5,-667.5 405.5,-667.5 405.5,-667.5 1144,-667.5 1268.65,-667.5 1328.06,-712.43 1422,-630.5 1460.05,-597.313 1485.14,-438.862 1492.92,-383.026"/>
<polygon fill="midnightblue" stroke="midnightblue" points="1496.4,-383.402 1494.28,-373.021 1489.47,-382.458 1496.4,-383.402"/>
</g>
<!-- Node7 -->
<g id="node7" class="node"><title>Node7</title>
<g id="a_node7"><a xlink:href="../../d0/df6/classCParser.html#ab214b7a662d6c62ddf8d51f0116865cf" target="_top" xlink:title="CParser::new_or_delete">
<polygon fill="white" stroke="black" points="183,-620 183,-639 314,-639 314,-620 183,-620"/>
<text text-anchor="middle" x="248.5" y="-627" font-family="Helvetica,sans-Serif" font-size="10.00">CParser::new_or_delete</text>
</a>
</g>
</g>
<!-- Node1&#45;&gt;Node7 -->
<g id="edge6" class="edge"><title>Node1&#45;&gt;Node7</title>
<path fill="none" stroke="midnightblue" d="M147.116,-629.5C155.53,-629.5 164.125,-629.5 172.569,-629.5"/>
<polygon fill="midnightblue" stroke="midnightblue" points="172.774,-633 182.774,-629.5 172.774,-626 172.774,-633"/>
</g>
<!-- Node8 -->
<g id="node8" class="node"><title>Node8</title>
<g id="a_node8"><a xlink:href="../../d0/df6/classCParser.html#a5426875088dc6d2b5deaef3b61c55135" target="_top" xlink:title="CParser::type">
<polygon fill="white" stroke="black" points="208.5,-525 208.5,-544 288.5,-544 288.5,-525 208.5,-525"/>
<text text-anchor="middle" x="248.5" y="-532" font-family="Helvetica,sans-Serif" font-size="10.00">CParser::type</text>
</a>
</g>
</g>
<!-- Node1&#45;&gt;Node8 -->
<g id="edge8" class="edge"><title>Node1&#45;&gt;Node8</title>
<path fill="none" stroke="midnightblue" d="M92.0402,-619.868C122.557,-603.11 185.569,-568.508 221.291,-548.892"/>
<polygon fill="midnightblue" stroke="midnightblue" points="223.09,-551.897 230.171,-544.016 219.721,-545.762 223.09,-551.897"/>
</g>
<!-- Node2&#45;&gt;Node3 -->
<g id="edge2" class="edge"><title>Node2&#45;&gt;Node3</title>
<path fill="none" stroke="midnightblue" d="M442.595,-705.5C501.554,-705.5 624.227,-705.5 728,-705.5 728,-705.5 728,-705.5 1144,-705.5 1268.02,-705.5 1328.35,-762.796 1422,-681.5 1467.72,-641.811 1488.33,-446.792 1493.89,-383.427"/>
<polygon fill="midnightblue" stroke="midnightblue" points="1497.4,-383.454 1494.75,-373.195 1490.42,-382.864 1497.4,-383.454"/>
</g>
<!-- Node4 -->
<g id="node4" class="node"><title>Node4</title>
<g id="a_node4"><a xlink:href="../../da/d6a/classParseUtility.html#aabfa4c56607539ef14be2e2a7260006b" target="_top" xlink:title="ParseUtility::syn">
<polygon fill="white" stroke="black" points="1571,-354 1571,-373 1662,-373 1662,-354 1571,-354"/>
<text text-anchor="middle" x="1616.5" y="-361" font-family="Helvetica,sans-Serif" font-size="10.00">ParseUtility::syn</text>
</a>
</g>
</g>
<!-- Node3&#45;&gt;Node4 -->
<g id="edge3" class="edge"><title>Node3&#45;&gt;Node4</title>
<path fill="none" stroke="midnightblue" d="M1535.16,-363.5C1543.3,-363.5 1552.08,-363.5 1560.73,-363.5"/>
<polygon fill="midnightblue" stroke="midnightblue" points="1560.78,-367 1570.78,-363.5 1560.78,-360 1560.78,-367"/>
</g>
<!-- Node5 -->
<g id="node5" class="node"><title>Node5</title>
<g id="a_node5"><a xlink:href="../../d3/d5e/classParseStore.html#ab21a4aeadb4cc4938b58cbefbb8634e8" target="_top" xlink:title="ParseStore::currentInstance">
<polygon fill="white" stroke="black" points="1698,-373 1698,-392 1846,-392 1846,-373 1698,-373"/>
<text text-anchor="middle" x="1772" y="-380" font-family="Helvetica,sans-Serif" font-size="10.00">ParseStore::currentInstance</text>
</a>
</g>
</g>
<!-- Node4&#45;&gt;Node5 -->
<g id="edge4" class="edge"><title>Node4&#45;&gt;Node5</title>
<path fill="none" stroke="midnightblue" d="M1662.31,-369.047C1670.41,-370.049 1679.09,-371.124 1687.88,-372.212"/>
<polygon fill="midnightblue" stroke="midnightblue" points="1687.48,-375.688 1697.83,-373.443 1688.34,-368.741 1687.48,-375.688"/>
</g>
<!-- Node6 -->
<g id="node6" class="node"><title>Node6</title>
<g id="a_node6"><a xlink:href="../../d3/d5e/classParseStore.html#ae7b3d82d22174c1a1165a592d6c1700c" target="_top" xlink:title="ParseStore::filename">
<polygon fill="white" stroke="black" points="1715,-335 1715,-354 1829,-354 1829,-335 1715,-335"/>
<text text-anchor="middle" x="1772" y="-342" font-family="Helvetica,sans-Serif" font-size="10.00">ParseStore::filename</text>
</a>
</g>
</g>
<!-- Node4&#45;&gt;Node6 -->
<g id="edge5" class="edge"><title>Node4&#45;&gt;Node6</title>
<path fill="none" stroke="midnightblue" d="M1662.31,-357.953C1675.56,-356.314 1690.35,-354.483 1704.64,-352.713"/>
<polygon fill="midnightblue" stroke="midnightblue" points="1705.45,-356.141 1714.94,-351.439 1704.59,-349.194 1705.45,-356.141"/>
</g>
<!-- Node7&#45;&gt;Node3 -->
<g id="edge7" class="edge"><title>Node7&#45;&gt;Node3</title>
<path fill="none" stroke="midnightblue" d="M314.113,-629.5C376.726,-629.5 474.371,-629.5 559,-629.5 559,-629.5 559,-629.5 1144,-629.5 1268.7,-629.5 1326.41,-671.588 1422,-591.5 1485.93,-537.936 1494.8,-428.376 1495.65,-383.422"/>
<polygon fill="midnightblue" stroke="midnightblue" points="1499.15,-383.254 1495.72,-373.231 1492.15,-383.207 1499.15,-383.254"/>
</g>
<!-- Node8&#45;&gt;Node3 -->
<g id="edge47" class="edge"><title>Node8&#45;&gt;Node3</title>
<path fill="none" stroke="midnightblue" d="M280.344,-544.041C335.62,-560.267 455.464,-591.5 559,-591.5 559,-591.5 559,-591.5 1144,-591.5 1268.7,-591.5 1324.16,-630.819 1422,-553.5 1476.05,-510.788 1490.4,-423.085 1494.17,-383.576"/>
<polygon fill="midnightblue" stroke="midnightblue" points="1497.68,-383.627 1495.01,-373.375 1490.7,-383.056 1497.68,-383.627"/>
</g>
<!-- Node9 -->
<g id="node9" class="node"><title>Node9</title>
<g id="a_node9"><a xlink:href="../../d0/df6/classCParser.html#aeb64a7eb39e1e247d6b06c833355fd1d" target="_top" xlink:title="CParser::cv_qualifier">
<polygon fill="white" stroke="black" points="350,-525 350,-544 463,-544 463,-525 350,-525"/>
<text text-anchor="middle" x="406.5" y="-532" font-family="Helvetica,sans-Serif" font-size="10.00">CParser::cv_qualifier</text>
</a>
</g>
</g>
<!-- Node8&#45;&gt;Node9 -->
<g id="edge9" class="edge"><title>Node8&#45;&gt;Node9</title>
<path fill="none" stroke="midnightblue" d="M288.865,-534.5C304.333,-534.5 322.513,-534.5 339.856,-534.5"/>
<polygon fill="midnightblue" stroke="midnightblue" points="339.944,-538 349.944,-534.5 339.944,-531 339.944,-538"/>
</g>
<!-- Node11 -->
<g id="node11" class="node"><title>Node11</title>
<g id="a_node11"><a xlink:href="../../d0/df6/classCParser.html#a03c75fc2be131ba2c0a21fd9687b49ca" target="_top" xlink:title="CParser::type_name">
<polygon fill="white" stroke="black" points="350,-449 350,-468 463,-468 463,-449 350,-449"/>
<text text-anchor="middle" x="406.5" y="-456" font-family="Helvetica,sans-Serif" font-size="10.00">CParser::type_name</text>
</a>
</g>
</g>
<!-- Node8&#45;&gt;Node11 -->
<g id="edge12" class="edge"><title>Node8&#45;&gt;Node11</title>
<path fill="none" stroke="midnightblue" d="M269.258,-524.875C296.452,-511.626 345.59,-487.687 376.827,-472.469"/>
<polygon fill="midnightblue" stroke="midnightblue" points="378.446,-475.574 385.903,-468.047 375.38,-469.281 378.446,-475.574"/>
</g>
<!-- Node26 -->
<g id="node26" class="node"><title>Node26</title>
<g id="a_node26"><a xlink:href="../../d0/df6/classCParser.html#acec16523a6abcc5dcaa503fdfec12d5e" target="_top" xlink:title="CParser::indirection\l_modifiers">
<polygon fill="white" stroke="black" points="1088.5,-38.5 1088.5,-68.5 1197.5,-68.5 1197.5,-38.5 1088.5,-38.5"/>
<text text-anchor="start" x="1096.5" y="-56.5" font-family="Helvetica,sans-Serif" font-size="10.00">CParser::indirection</text>
<text text-anchor="middle" x="1143" y="-45.5" font-family="Helvetica,sans-Serif" font-size="10.00">_modifiers</text>
</a>
</g>
</g>
<!-- Node8&#45;&gt;Node26 -->
<g id="edge43" class="edge"><title>Node8&#45;&gt;Node26</title>
<path fill="none" stroke="midnightblue" d="M251.788,-524.637C266.676,-463.194 355.611,-135.5 559,-135.5 559,-135.5 559,-135.5 730,-135.5 797.072,-135.5 980.448,-93.1695 1078.38,-69.3364"/>
<polygon fill="midnightblue" stroke="midnightblue" points="1079.27,-72.7209 1088.16,-66.9488 1077.61,-65.9206 1079.27,-72.7209"/>
</g>
<!-- Node9&#45;&gt;Node3 -->
<g id="edge11" class="edge"><title>Node9&#45;&gt;Node3</title>
<path fill="none" stroke="midnightblue" d="M463.025,-539.793C526.887,-545.415 634.914,-553.5 728,-553.5 728,-553.5 728,-553.5 1144,-553.5 1268.65,-553.5 1321.11,-589.696 1422,-516.5 1467,-483.85 1485.59,-416.222 1492.26,-382.907"/>
<polygon fill="midnightblue" stroke="midnightblue" points="1495.71,-383.494 1494.09,-373.025 1488.83,-382.223 1495.71,-383.494"/>
</g>
<!-- Node10 -->
<g id="node10" class="node"><title>Node10</title>
<g id="a_node10"><a xlink:href="../../d0/df6/classCParser.html#a2912da073892123622f3c380820f7a12" target="_top" xlink:title="CParser::typeCombine">
<polygon fill="white" stroke="black" points="499,-506 499,-525 621,-525 621,-506 499,-506"/>
<text text-anchor="middle" x="560" y="-513" font-family="Helvetica,sans-Serif" font-size="10.00">CParser::typeCombine</text>
</a>
</g>
</g>
<!-- Node9&#45;&gt;Node10 -->
<g id="edge10" class="edge"><title>Node9&#45;&gt;Node10</title>
<path fill="none" stroke="midnightblue" d="M463.053,-527.533C471.429,-526.482 480.161,-525.387 488.796,-524.304"/>
<polygon fill="midnightblue" stroke="midnightblue" points="489.375,-527.759 498.861,-523.042 488.504,-520.814 489.375,-527.759"/>
</g>
<!-- Node11&#45;&gt;Node3 -->
<g id="edge42" class="edge"><title>Node11&#45;&gt;Node3</title>
<path fill="none" stroke="midnightblue" d="M463.204,-467.145C650.699,-495.139 1256.38,-576.276 1422,-483.5 1460.39,-461.997 1481.14,-411.361 1490.07,-383.223"/>
<polygon fill="midnightblue" stroke="midnightblue" points="1493.52,-383.91 1493.02,-373.327 1486.81,-381.913 1493.52,-383.91"/>
</g>
<!-- Node12 -->
<g id="node12" class="node"><title>Node12</title>
<g id="a_node12"><a xlink:href="../../d0/df6/classCParser.html#a10a7b42902ca78cb3c11c04eb3b55d96" target="_top" xlink:title="CParser::builtin_type">
<polygon fill="white" stroke="black" points="1086.5,-430 1086.5,-449 1199.5,-449 1199.5,-430 1086.5,-430"/>
<text text-anchor="middle" x="1143" y="-437" font-family="Helvetica,sans-Serif" font-size="10.00">CParser::builtin_type</text>
</a>
</g>
</g>
<!-- Node11&#45;&gt;Node12 -->
<g id="edge13" class="edge"><title>Node11&#45;&gt;Node12</title>
<path fill="none" stroke="midnightblue" d="M463.008,-457.064C596.034,-453.623 932.596,-444.917 1075.83,-441.212"/>
<polygon fill="midnightblue" stroke="midnightblue" points="1076.31,-444.701 1086.21,-440.943 1076.13,-437.703 1076.31,-444.701"/>
</g>
<!-- Node14 -->
<g id="node14" class="node"><title>Node14</title>
<g id="a_node14"><a xlink:href="../../d0/df6/classCParser.html#ab3ce487b55d4cee3cdcb791d4f7c33b0" target="_top" xlink:title="CParser::user_type">
<polygon fill="white" stroke="black" points="506.5,-335 506.5,-354 613.5,-354 613.5,-335 506.5,-335"/>
<text text-anchor="middle" x="560" y="-342" font-family="Helvetica,sans-Serif" font-size="10.00">CParser::user_type</text>
</a>
</g>
</g>
<!-- Node11&#45;&gt;Node14 -->
<g id="edge17" class="edge"><title>Node11&#45;&gt;Node14</title>
<path fill="none" stroke="midnightblue" d="M420.156,-448.977C446.158,-429.411 505.828,-384.511 537.82,-360.437"/>
<polygon fill="midnightblue" stroke="midnightblue" points="540.173,-363.047 546.059,-354.238 535.964,-357.454 540.173,-363.047"/>
</g>
<!-- Node12&#45;&gt;Node3 -->
<g id="edge16" class="edge"><title>Node12&#45;&gt;Node3</title>
<path fill="none" stroke="midnightblue" d="M1168.63,-449.025C1219.14,-466.941 1336.88,-500.267 1422,-458.5 1454.14,-442.728 1476.23,-405.376 1487.3,-382.488"/>
<polygon fill="midnightblue" stroke="midnightblue" points="1490.61,-383.667 1491.6,-373.119 1484.24,-380.745 1490.61,-383.667"/>
</g>
<!-- Node13 -->
<g id="node13" class="node"><title>Node13</title>
<g id="a_node13"><a xlink:href="../../d0/df6/classCParser.html#a2892a3b78b33e67d6b648ed24668fed0" target="_top" xlink:title="CParser::type_keyword">
<polygon fill="white" stroke="black" points="1281.5,-430 1281.5,-449 1407.5,-449 1407.5,-430 1281.5,-430"/>
<text text-anchor="middle" x="1344.5" y="-437" font-family="Helvetica,sans-Serif" font-size="10.00">CParser::type_keyword</text>
</a>
</g>
</g>
<!-- Node12&#45;&gt;Node13 -->
<g id="edge14" class="edge"><title>Node12&#45;&gt;Node13</title>
<path fill="none" stroke="midnightblue" d="M1199.57,-439.5C1221.67,-439.5 1247.39,-439.5 1270.92,-439.5"/>
<polygon fill="midnightblue" stroke="midnightblue" points="1271.21,-443 1281.21,-439.5 1271.21,-436 1271.21,-443"/>
</g>
<!-- Node13&#45;&gt;Node3 -->
<g id="edge15" class="edge"><title>Node13&#45;&gt;Node3</title>
<path fill="none" stroke="midnightblue" d="M1384.15,-429.926C1396.56,-426.187 1410.15,-421.369 1422,-415.5 1441.72,-405.733 1461.98,-390.983 1476.22,-379.683"/>
<polygon fill="midnightblue" stroke="midnightblue" points="1478.69,-382.187 1484.25,-373.169 1474.28,-376.751 1478.69,-382.187"/>
</g>
<!-- Node14&#45;&gt;Node3 -->
<g id="edge41" class="edge"><title>Node14&#45;&gt;Node3</title>
<path fill="none" stroke="midnightblue" d="M597.591,-354.041C663.14,-370.267 805.137,-401.5 927,-401.5 927,-401.5 927,-401.5 1144,-401.5 1253.32,-401.5 1380.67,-383.106 1448.04,-371.913"/>
<polygon fill="midnightblue" stroke="midnightblue" points="1448.65,-375.36 1457.93,-370.25 1447.49,-368.457 1448.65,-375.36"/>
</g>
<!-- Node15 -->
<g id="node15" class="node"><title>Node15</title>
<g id="a_node15"><a xlink:href="../../d0/df6/classCParser.html#a631e11d228a64f7cd7eaa437a58d2bca" target="_top" xlink:title="CParser::class_key">
<polygon fill="white" stroke="black" points="874.5,-335 874.5,-354 981.5,-354 981.5,-335 874.5,-335"/>
<text text-anchor="middle" x="928" y="-342" font-family="Helvetica,sans-Serif" font-size="10.00">CParser::class_key</text>
</a>
</g>
</g>
<!-- Node14&#45;&gt;Node15 -->
<g id="edge18" class="edge"><title>Node14&#45;&gt;Node15</title>
<path fill="none" stroke="midnightblue" d="M613.829,-344.5C680.151,-344.5 793.767,-344.5 864.387,-344.5"/>
<polygon fill="midnightblue" stroke="midnightblue" points="864.484,-348 874.484,-344.5 864.484,-341 864.484,-348"/>
</g>
<!-- Node17 -->
<g id="node17" class="node"><title>Node17</title>
<g id="a_node17"><a xlink:href="../../d0/df6/classCParser.html#ac121563570276b8286f8351a4f69e56e" target="_top" xlink:title="CParser::scoped_identifier">
<polygon fill="white" stroke="black" points="658.5,-259 658.5,-278 799.5,-278 799.5,-259 658.5,-259"/>
<text text-anchor="middle" x="729" y="-266" font-family="Helvetica,sans-Serif" font-size="10.00">CParser::scoped_identifier</text>
</a>
</g>
</g>
<!-- Node14&#45;&gt;Node17 -->
<g id="edge21" class="edge"><title>Node14&#45;&gt;Node17</title>
<path fill="none" stroke="midnightblue" d="M582.151,-334.875C611.388,-321.569 664.319,-297.48 697.737,-282.272"/>
<polygon fill="midnightblue" stroke="midnightblue" points="699.369,-285.375 707.021,-278.047 696.469,-279.004 699.369,-285.375"/>
</g>
<!-- Node24 -->
<g id="node24" class="node"><title>Node24</title>
<g id="a_node24"><a xlink:href="../../da/d6a/classParseUtility.html#a128c7755b687730e50a5c063261f6c78" target="_top" xlink:title="ParseUtility::scopeCombine">
<polygon fill="white" stroke="black" points="657,-192 657,-211 801,-211 801,-192 657,-192"/>
<text text-anchor="middle" x="729" y="-199" font-family="Helvetica,sans-Serif" font-size="10.00">ParseUtility::scopeCombine</text>
</a>
</g>
</g>
<!-- Node14&#45;&gt;Node24 -->
<g id="edge39" class="edge"><title>Node14&#45;&gt;Node24</title>
<path fill="none" stroke="midnightblue" d="M569.729,-334.732C585.982,-316.812 622.383,-277.915 657,-249.5 671.717,-237.419 689.462,-225.422 703.53,-216.444"/>
<polygon fill="midnightblue" stroke="midnightblue" points="705.572,-219.295 712.175,-211.009 701.847,-213.368 705.572,-219.295"/>
</g>
<!-- Node15&#45;&gt;Node3 -->
<g id="edge20" class="edge"><title>Node15&#45;&gt;Node3</title>
<path fill="none" stroke="midnightblue" d="M981.533,-346.262C1091.17,-349.939 1342.84,-358.38 1447.98,-361.906"/>
<polygon fill="midnightblue" stroke="midnightblue" points="1447.88,-365.405 1457.99,-362.242 1448.11,-358.409 1447.88,-365.405"/>
</g>
<!-- Node16 -->
<g id="node16" class="node"><title>Node16</title>
<g id="a_node16"><a xlink:href="../../d3/d5e/classParseStore.html#a238b27bbf877e69812ecc620fbc18d5f" target="_top" xlink:title="ParseStore::set_flag">
<polygon fill="white" stroke="black" points="1087,-316 1087,-335 1199,-335 1199,-316 1087,-316"/>
<text text-anchor="middle" x="1143" y="-323" font-family="Helvetica,sans-Serif" font-size="10.00">ParseStore::set_flag</text>
</a>
</g>
</g>
<!-- Node15&#45;&gt;Node16 -->
<g id="edge19" class="edge"><title>Node15&#45;&gt;Node16</title>
<path fill="none" stroke="midnightblue" d="M981.652,-339.803C1010.43,-337.236 1046.32,-334.034 1076.85,-331.311"/>
<polygon fill="midnightblue" stroke="midnightblue" points="1077.33,-334.782 1086.98,-330.408 1076.71,-327.81 1077.33,-334.782"/>
</g>
<!-- Node17&#45;&gt;Node3 -->
<g id="edge38" class="edge"><title>Node17&#45;&gt;Node3</title>
<path fill="none" stroke="midnightblue" d="M799.621,-270.778C896.684,-274.635 1077.99,-284.316 1231,-306.5 1308.14,-317.684 1396.41,-338.318 1448.97,-351.452"/>
<polygon fill="midnightblue" stroke="midnightblue" points="1448.44,-354.928 1458.99,-353.974 1450.15,-348.139 1448.44,-354.928"/>
</g>
<!-- Node18 -->
<g id="node18" class="node"><title>Node18</title>
<g id="a_node18"><a xlink:href="../../d0/df6/classCParser.html#a8b303b41d0199334a5987bb471063729" target="_top" xlink:title="CParser::explicit_scope_spec">
<polygon fill="white" stroke="black" points="850.5,-240 850.5,-259 1005.5,-259 1005.5,-240 850.5,-240"/>
<text text-anchor="middle" x="928" y="-247" font-family="Helvetica,sans-Serif" font-size="10.00">CParser::explicit_scope_spec</text>
</a>
</g>
</g>
<!-- Node17&#45;&gt;Node18 -->
<g id="edge22" class="edge"><title>Node17&#45;&gt;Node18</title>
<path fill="none" stroke="midnightblue" d="M799.732,-261.775C812.786,-260.516 826.579,-259.185 840.078,-257.883"/>
<polygon fill="midnightblue" stroke="midnightblue" points="840.708,-261.339 850.326,-256.895 840.036,-254.371 840.708,-261.339"/>
</g>
<!-- Node21 -->
<g id="node21" class="node"><title>Node21</title>
<g id="a_node21"><a xlink:href="../../d0/df6/classCParser.html#aea0a3166305befe762f047b6e4a6f90f" target="_top" xlink:title="CParser::unscoped_member_name">
<polygon fill="white" stroke="black" points="837,-202 837,-221 1019,-221 1019,-202 837,-202"/>
<text text-anchor="middle" x="928" y="-209" font-family="Helvetica,sans-Serif" font-size="10.00">CParser::unscoped_member_name</text>
</a>
</g>
</g>
<!-- Node17&#45;&gt;Node21 -->
<g id="edge30" class="edge"><title>Node17&#45;&gt;Node21</title>
<path fill="none" stroke="midnightblue" d="M753.927,-258.968C775.42,-250.656 807.969,-238.68 837,-230.5 846.241,-227.896 856.104,-225.468 865.789,-223.275"/>
<polygon fill="midnightblue" stroke="midnightblue" points="866.767,-226.644 875.783,-221.079 865.265,-219.807 866.767,-226.644"/>
</g>
<!-- Node18&#45;&gt;Node3 -->
<g id="edge29" class="edge"><title>Node18&#45;&gt;Node3</title>
<path fill="none" stroke="midnightblue" d="M1005.6,-253.105C1066.81,-256.583 1154.68,-262.912 1231,-273.5 1316.73,-285.393 1342.49,-277.312 1422,-311.5 1442.45,-320.294 1462.9,-335.4 1477.02,-347.072"/>
<polygon fill="midnightblue" stroke="midnightblue" points="1475.05,-349.992 1484.93,-353.808 1479.58,-344.661 1475.05,-349.992"/>
</g>
<!-- Node18&#45;&gt;Node16 -->
<g id="edge28" class="edge"><title>Node18&#45;&gt;Node16</title>
<path fill="none" stroke="midnightblue" d="M955.977,-259.125C993.907,-272.659 1063.11,-297.35 1105.57,-312.503"/>
<polygon fill="midnightblue" stroke="midnightblue" points="1104.65,-315.889 1115.24,-315.953 1107,-309.296 1104.65,-315.889"/>
</g>
<!-- Node19 -->
<g id="node19" class="node"><title>Node19</title>
<g id="a_node19"><a xlink:href="../../d0/df6/classCParser.html#a729069b96fa400ec2fd9a34d4016fcdb" target="_top" xlink:title="CParser::angle_block">
<polygon fill="white" stroke="black" points="1085,-202 1085,-221 1201,-221 1201,-202 1085,-202"/>
<text text-anchor="middle" x="1143" y="-209" font-family="Helvetica,sans-Serif" font-size="10.00">CParser::angle_block</text>
</a>
</g>
</g>
<!-- Node18&#45;&gt;Node19 -->
<g id="edge23" class="edge"><title>Node18&#45;&gt;Node19</title>
<path fill="none" stroke="midnightblue" d="M982.474,-239.96C1011.59,-234.765 1047.81,-228.304 1078.37,-222.851"/>
<polygon fill="midnightblue" stroke="midnightblue" points="1079.27,-226.246 1088.5,-221.044 1078.04,-219.355 1079.27,-226.246"/>
</g>
<!-- Node19&#45;&gt;Node3 -->
<g id="edge27" class="edge"><title>Node19&#45;&gt;Node3</title>
<path fill="none" stroke="midnightblue" d="M1201.24,-219.744C1271.44,-230.625 1385.59,-251.044 1422,-273.5 1450.76,-291.237 1473.34,-324.285 1485.53,-345.02"/>
<polygon fill="midnightblue" stroke="midnightblue" points="1482.54,-346.856 1490.52,-353.836 1488.64,-343.409 1482.54,-346.856"/>
</g>
<!-- Node20 -->
<g id="node20" class="node"><title>Node20</title>
<g id="a_node20"><a xlink:href="../../d0/df6/classCParser.html#aa127d8f0df3a28071ce4fe43684632ef" target="_top" xlink:title="CParser::angle_balanced_list">
<polygon fill="white" stroke="black" points="1267.5,-202 1267.5,-221 1421.5,-221 1421.5,-202 1267.5,-202"/>
<text text-anchor="middle" x="1344.5" y="-209" font-family="Helvetica,sans-Serif" font-size="10.00">CParser::angle_balanced_list</text>
</a>
</g>
</g>
<!-- Node19&#45;&gt;Node20 -->
<g id="edge24" class="edge"><title>Node19&#45;&gt;Node20</title>
<path fill="none" stroke="midnightblue" d="M1201.17,-205.329C1218.64,-204.824 1238.25,-204.649 1257.21,-204.805"/>
<polygon fill="midnightblue" stroke="midnightblue" points="1257.31,-208.306 1267.35,-204.921 1257.39,-201.307 1257.31,-208.306"/>
</g>
<!-- Node20&#45;&gt;Node3 -->
<g id="edge26" class="edge"><title>Node20&#45;&gt;Node3</title>
<path fill="none" stroke="midnightblue" d="M1394.74,-221.003C1404.45,-224.45 1414.08,-229.136 1422,-235.5 1457.98,-264.403 1479.71,-315.987 1489.44,-344.036"/>
<polygon fill="midnightblue" stroke="midnightblue" points="1486.22,-345.457 1492.68,-353.854 1492.87,-343.261 1486.22,-345.457"/>
</g>
<!-- Node20&#45;&gt;Node19 -->
<g id="edge25" class="edge"><title>Node20&#45;&gt;Node19</title>
<path fill="none" stroke="midnightblue" d="M1267.35,-218.079C1248.89,-218.351 1229.3,-218.298 1211.28,-217.922"/>
<polygon fill="midnightblue" stroke="midnightblue" points="1211.25,-214.42 1201.17,-217.671 1211.08,-221.418 1211.25,-214.42"/>
</g>
<!-- Node21&#45;&gt;Node3 -->
<g id="edge37" class="edge"><title>Node21&#45;&gt;Node3</title>
<path fill="none" stroke="midnightblue" d="M981.697,-201.978C1093.7,-182.918 1351,-145.74 1422,-192.5 1474.09,-226.81 1489.42,-306.602 1493.8,-343.779"/>
<polygon fill="midnightblue" stroke="midnightblue" points="1490.33,-344.263 1494.84,-353.852 1497.3,-343.545 1490.33,-344.263"/>
</g>
<!-- Node21&#45;&gt;Node19 -->
<g id="edge31" class="edge"><title>Node21&#45;&gt;Node19</title>
<path fill="none" stroke="midnightblue" d="M1019.02,-211.5C1037.63,-211.5 1056.92,-211.5 1074.55,-211.5"/>
<polygon fill="midnightblue" stroke="midnightblue" points="1074.72,-215 1084.72,-211.5 1074.72,-208 1074.72,-215"/>
</g>
<!-- Node22 -->
<g id="node22" class="node"><title>Node22</title>
<g id="a_node22"><a xlink:href="../../d0/df6/classCParser.html#ac5cba09faa6ccf6314b75950f0d8e40e" target="_top" xlink:title="CParser::dtor_member_name">
<polygon fill="white" stroke="black" points="1267,-126 1267,-145 1422,-145 1422,-126 1267,-126"/>
<text text-anchor="middle" x="1344.5" y="-133" font-family="Helvetica,sans-Serif" font-size="10.00">CParser::dtor_member_name</text>
</a>
</g>
</g>
<!-- Node21&#45;&gt;Node22 -->
<g id="edge32" class="edge"><title>Node21&#45;&gt;Node22</title>
<path fill="none" stroke="midnightblue" d="M994.826,-201.908C1003.21,-199.453 1011.47,-196.371 1019,-192.5 1038.3,-182.573 1035.12,-168.201 1055,-159.5 1118.55,-131.693 1197.43,-126.893 1256.64,-128.375"/>
<polygon fill="midnightblue" stroke="midnightblue" points="1256.61,-131.876 1266.71,-128.692 1256.83,-124.879 1256.61,-131.876"/>
</g>
<!-- Node23 -->
<g id="node23" class="node"><title>Node23</title>
<g id="a_node23"><a xlink:href="../../d0/df6/classCParser.html#ac99dcea42e50abf304d0a7bb001b1829" target="_top" xlink:title="CParser::operator_member_name">
<polygon fill="white" stroke="black" points="1055,-88 1055,-107 1231,-107 1231,-88 1055,-88"/>
<text text-anchor="middle" x="1143" y="-95" font-family="Helvetica,sans-Serif" font-size="10.00">CParser::operator_member_name</text>
</a>
</g>
</g>
<!-- Node21&#45;&gt;Node23 -->
<g id="edge34" class="edge"><title>Node21&#45;&gt;Node23</title>
<path fill="none" stroke="midnightblue" d="M1002.72,-201.864C1008.54,-199.371 1014.06,-196.293 1019,-192.5 1047.06,-170.954 1027.61,-143.894 1055,-121.5 1060.22,-117.236 1066.13,-113.727 1072.37,-110.84"/>
<polygon fill="midnightblue" stroke="midnightblue" points="1073.76,-114.055 1081.69,-107.039 1071.11,-107.573 1073.76,-114.055"/>
</g>
<!-- Node22&#45;&gt;Node3 -->
<g id="edge33" class="edge"><title>Node22&#45;&gt;Node3</title>
<path fill="none" stroke="midnightblue" d="M1398.41,-145.029C1407.07,-148.466 1415.37,-153.141 1422,-159.5 1475.28,-210.599 1490.06,-303.119 1494.06,-343.615"/>
<polygon fill="midnightblue" stroke="midnightblue" points="1490.59,-344.128 1494.94,-353.789 1497.57,-343.525 1490.59,-344.128"/>
</g>
<!-- Node23&#45;&gt;Node1 -->
<g id="edge35" class="edge"><title>Node23&#45;&gt;Node1</title>
<path fill="none" stroke="midnightblue" d="M1054.79,-97.5C971.402,-97.5 842.12,-97.5 730,-97.5 405.5,-97.5 405.5,-97.5 405.5,-97.5 159.333,-97.5 89.7284,-513.223 76.8916,-609.681"/>
<polygon fill="midnightblue" stroke="midnightblue" points="73.3929,-609.45 75.5995,-619.812 80.3366,-610.335 73.3929,-609.45"/>
</g>
<!-- Node23&#45;&gt;Node3 -->
<g id="edge36" class="edge"><title>Node23&#45;&gt;Node3</title>
<path fill="none" stroke="midnightblue" d="M1181.11,-87.9652C1239.29,-75.3999 1352.5,-60.8828 1422,-116.5 1458.29,-145.539 1484.08,-290.121 1492.52,-343.584"/>
<polygon fill="midnightblue" stroke="midnightblue" points="1489.11,-344.448 1494.09,-353.799 1496.03,-343.383 1489.11,-344.448"/>
</g>
<!-- Node25 -->
<g id="node25" class="node"><title>Node25</title>
<g id="a_node25"><a xlink:href="../../d4/d6e/classCCCC__Project.html#ac0565e746210778bc6f165130464041b" target="_top" xlink:title="CCCC_Project::name">
<polygon fill="white" stroke="black" points="870,-164 870,-183 986,-183 986,-164 870,-164"/>
<text text-anchor="middle" x="928" y="-171" font-family="Helvetica,sans-Serif" font-size="10.00">CCCC_Project::name</text>
</a>
</g>
</g>
<!-- Node24&#45;&gt;Node25 -->
<g id="edge40" class="edge"><title>Node24&#45;&gt;Node25</title>
<path fill="none" stroke="midnightblue" d="M796.97,-191.981C817.2,-189.106 839.413,-185.949 859.666,-183.07"/>
<polygon fill="midnightblue" stroke="midnightblue" points="860.337,-186.51 869.744,-181.638 859.351,-179.58 860.337,-186.51"/>
</g>
<!-- Node26&#45;&gt;Node3 -->
<g id="edge46" class="edge"><title>Node26&#45;&gt;Node3</title>
<path fill="none" stroke="midnightblue" d="M1197.7,-50.183C1268.84,-46.969 1389.17,-46.004 1422,-73.5 1464.18,-108.824 1486.88,-284.277 1493.46,-343.748"/>
<polygon fill="midnightblue" stroke="midnightblue" points="1489.98,-344.163 1494.53,-353.733 1496.94,-343.416 1489.98,-344.163"/>
</g>
<!-- Node27 -->
<g id="node27" class="node"><title>Node27</title>
<g id="a_node27"><a xlink:href="../../d0/df6/classCParser.html#a80be2f0d41b613906058b6df76ce7815" target="_top" xlink:title="CParser::indirection\l_modifier">
<polygon fill="white" stroke="black" points="1290,-0.5 1290,-30.5 1399,-30.5 1399,-0.5 1290,-0.5"/>
<text text-anchor="start" x="1298" y="-18.5" font-family="Helvetica,sans-Serif" font-size="10.00">CParser::indirection</text>
<text text-anchor="middle" x="1344.5" y="-7.5" font-family="Helvetica,sans-Serif" font-size="10.00">_modifier</text>
</a>
</g>
</g>
<!-- Node26&#45;&gt;Node27 -->
<g id="edge44" class="edge"><title>Node26&#45;&gt;Node27</title>
<path fill="none" stroke="midnightblue" d="M1197.72,-43.2667C1223,-38.4521 1253.33,-32.6756 1279.76,-27.6412"/>
<polygon fill="midnightblue" stroke="midnightblue" points="1280.51,-31.061 1289.68,-25.7516 1279.2,-24.1846 1280.51,-31.061"/>
</g>
<!-- Node27&#45;&gt;Node3 -->
<g id="edge45" class="edge"><title>Node27&#45;&gt;Node3</title>
<path fill="none" stroke="midnightblue" d="M1399.2,-28.7678C1407.78,-32.9262 1415.85,-38.3725 1422,-45.5 1461.47,-91.2309 1486.18,-281.397 1493.34,-343.665"/>
<polygon fill="midnightblue" stroke="midnightblue" points="1489.87,-344.193 1494.47,-353.74 1496.83,-343.412 1489.87,-344.193"/>
</g>
</g>
</svg>
        <g id="navigator" transform="translate(0 0)" fill="#404254">
                <rect fill="#f2f5e9" fill-opacity="0.5" stroke="#606060" stroke-width=".5" x="0" y="0" width="60" height="60"/>
                <use id="zoomplus" xlink:href="#zoomPlus" x="17" y="9" onmousedown="handleZoom(evt,'in')"/>
                <use id="zoomminus" xlink:href="#zoomMin" x="42" y="9" onmousedown="handleZoom(evt,'out')"/>
                <use id="reset" xlink:href="#resetDef" x="30" y="36" onmousedown="handleReset()"/>
                <g id="arrowUp" xlink:href="#dirArrow" transform="translate(30 24)" onmousedown="handlePan(0,-1)">
                  <use xlink:href="#rim" fill="#404040">
                        <set attributeName="fill" to="#808080" begin="arrowUp.mouseover" end="arrowUp.mouseout"/>
                  </use>
                  <path fill="none" stroke="white" stroke-width="1.5" d="M0,-3.0v7 M-2.5,-0.5L0,-3.0L2.5,-0.5"/>
                </g>
                <g id="arrowRight" xlink:href="#dirArrow" transform="rotate(90) translate(36 -43)" onmousedown="handlePan(1,0)">
                  <use xlink:href="#rim" fill="#404040">
                        <set attributeName="fill" to="#808080" begin="arrowRight.mouseover" end="arrowRight.mouseout"/>
                  </use>
                  <path fill="none" stroke="white" stroke-width="1.5" d="M0,-3.0v7 M-2.5,-0.5L0,-3.0L2.5,-0.5"/>
                </g>
                <g id="arrowDown" xlink:href="#dirArrow" transform="rotate(180) translate(-30 -48)" onmousedown="handlePan(0,1)">
                  <use xlink:href="#rim" fill="#404040">
                        <set attributeName="fill" to="#808080" begin="arrowDown.mouseover" end="arrowDown.mouseout"/>
                  </use>
                  <path fill="none" stroke="white" stroke-width="1.5" d="M0,-3.0v7 M-2.5,-0.5L0,-3.0L2.5,-0.5"/>
                </g>
                <g id="arrowLeft" xlink:href="#dirArrow" transform="rotate(270) translate(-36 17)" onmousedown="handlePan(-1,0)">
                  <use xlink:href="#rim" fill="#404040">
                        <set attributeName="fill" to="#808080" begin="arrowLeft.mouseover" end="arrowLeft.mouseout"/>
                  </use>
                  <path fill="none" stroke="white" stroke-width="1.5" d="M0,-3.0v7 M-2.5,-0.5L0,-3.0L2.5,-0.5"/>
                </g>
        </g>
        <svg viewBox="0 0 15 15" width="100%" height="30px" preserveAspectRatio="xMaxYMin meet">
         <g id="arrow_out" transform="scale(0.3 0.3)">
          <a xlink:href="classCParser_a4bf5a797adb8a33705182662a6a8f45b_cgraph_org.svg" target="_base">
           <rect id="button" ry="5" rx="5" y="6" x="6" height="38" width="38"
                fill="#f2f5e9" fill-opacity="0.5" stroke="#606060" stroke-width="1.0"/>
           <path id="arrow"
             d="M 11.500037,31.436501 C 11.940474,20.09759 22.043105,11.32322 32.158766,21.979434 L 37.068811,17.246167 C 37.068811,17.246167 37.088388,32 37.088388,32 L 22.160133,31.978069 C 22.160133,31.978069 26.997745,27.140456 26.997745,27.140456 C 18.528582,18.264221 13.291696,25.230495 11.500037,31.436501 z"
             style="fill:#404040;"/>
          </a>
         </g>
        </svg>
</svg>
