<?xml version="1.0" encoding="UTF-8" standalone="no"?>
<!DOCTYPE svg PUBLIC "-//W3C//DTD SVG 1.1//EN"
 "http://www.w3.org/Graphics/SVG/1.1/DTD/svg11.dtd">
<!-- Generated by graphviz version 2.38.0 (20140413.2041)
 -->
<!-- Title: CParser::cv_qualifier Pages: 1 -->
<svg width="590pt" height="85pt"
 viewBox="0.00 0.00 590.00 85.00" xmlns="http://www.w3.org/2000/svg" xmlns:xlink="http://www.w3.org/1999/xlink">
<g id="graph0" class="graph" transform="scale(1 1) rotate(0) translate(4 81)">
<title>CParser::cv_qualifier</title>
<polygon fill="white" stroke="none" points="-4,4 -4,-81 586,-81 586,4 -4,4"/>
<!-- Node1 -->
<g id="node1" class="node"><title>Node1</title>
<polygon fill="#bfbfbf" stroke="black" points="0,-38.5 0,-57.5 113,-57.5 113,-38.5 0,-38.5"/>
<text text-anchor="middle" x="56.5" y="-45.5" font-family="Helvetica,sans-Serif" font-size="10.00">CParser::cv_qualifier</text>
</g>
<!-- Node2 -->
<g id="node2" class="node"><title>Node2</title>
<g id="a_node2"><a xlink:href="../../d0/df6/classCParser.html#a2912da073892123622f3c380820f7a12" target="_top" xlink:title="CParser::typeCombine">
<polygon fill="white" stroke="black" points="149,-57.5 149,-76.5 271,-76.5 271,-57.5 149,-57.5"/>
<text text-anchor="middle" x="210" y="-64.5" font-family="Helvetica,sans-Serif" font-size="10.00">CParser::typeCombine</text>
</a>
</g>
</g>
<!-- Node1&#45;&gt;Node2 -->
<g id="edge1" class="edge"><title>Node1&#45;&gt;Node2</title>
<path fill="none" stroke="midnightblue" d="M113.053,-54.967C121.429,-56.0175 130.161,-57.1126 138.796,-58.1955"/>
<polygon fill="midnightblue" stroke="midnightblue" points="138.504,-61.6862 148.861,-59.4579 139.375,-54.7406 138.504,-61.6862"/>
</g>
<!-- Node3 -->
<g id="node3" class="node"><title>Node3</title>
<g id="a_node3"><a xlink:href="../../d0/df6/classCParser.html#a5e1630bd24884bb1cbc5680926dce957" target="_top" xlink:title="CParser::syn">
<polygon fill="white" stroke="black" points="171.5,-19.5 171.5,-38.5 248.5,-38.5 248.5,-19.5 171.5,-19.5"/>
<text text-anchor="middle" x="210" y="-26.5" font-family="Helvetica,sans-Serif" font-size="10.00">CParser::syn</text>
</a>
</g>
</g>
<!-- Node1&#45;&gt;Node3 -->
<g id="edge2" class="edge"><title>Node1&#45;&gt;Node3</title>
<path fill="none" stroke="midnightblue" d="M113.053,-41.033C128.834,-39.0538 145.877,-36.9164 161.159,-34.9999"/>
<polygon fill="midnightblue" stroke="midnightblue" points="161.933,-38.4303 171.42,-33.713 161.062,-31.4847 161.933,-38.4303"/>
</g>
<!-- Node4 -->
<g id="node4" class="node"><title>Node4</title>
<g id="a_node4"><a xlink:href="../../da/d6a/classParseUtility.html#aabfa4c56607539ef14be2e2a7260006b" target="_top" xlink:title="ParseUtility::syn">
<polygon fill="white" stroke="black" points="307,-19.5 307,-38.5 398,-38.5 398,-19.5 307,-19.5"/>
<text text-anchor="middle" x="352.5" y="-26.5" font-family="Helvetica,sans-Serif" font-size="10.00">ParseUtility::syn</text>
</a>
</g>
</g>
<!-- Node3&#45;&gt;Node4 -->
<g id="edge3" class="edge"><title>Node3&#45;&gt;Node4</title>
<path fill="none" stroke="midnightblue" d="M248.651,-29C263.321,-29 280.427,-29 296.429,-29"/>
<polygon fill="midnightblue" stroke="midnightblue" points="296.749,-32.5001 306.749,-29 296.749,-25.5001 296.749,-32.5001"/>
</g>
<!-- Node5 -->
<g id="node5" class="node"><title>Node5</title>
<g id="a_node5"><a xlink:href="../../d3/d5e/classParseStore.html#ab21a4aeadb4cc4938b58cbefbb8634e8" target="_top" xlink:title="ParseStore::currentInstance">
<polygon fill="white" stroke="black" points="434,-38.5 434,-57.5 582,-57.5 582,-38.5 434,-38.5"/>
<text text-anchor="middle" x="508" y="-45.5" font-family="Helvetica,sans-Serif" font-size="10.00">ParseStore::currentInstance</text>
</a>
</g>
</g>
<!-- Node4&#45;&gt;Node5 -->
<g id="edge4" class="edge"><title>Node4&#45;&gt;Node5</title>
<path fill="none" stroke="midnightblue" d="M398.311,-34.5467C406.412,-35.5494 415.091,-36.6237 423.882,-37.7118"/>
<polygon fill="midnightblue" stroke="midnightblue" points="423.476,-41.1882 433.831,-38.9432 424.336,-34.2412 423.476,-41.1882"/>
</g>
<!-- Node6 -->
<g id="node6" class="node"><title>Node6</title>
<g id="a_node6"><a xlink:href="../../d3/d5e/classParseStore.html#ae7b3d82d22174c1a1165a592d6c1700c" target="_top" xlink:title="ParseStore::filename">
<polygon fill="white" stroke="black" points="451,-0.5 451,-19.5 565,-19.5 565,-0.5 451,-0.5"/>
<text text-anchor="middle" x="508" y="-7.5" font-family="Helvetica,sans-Serif" font-size="10.00">ParseStore::filename</text>
</a>
</g>
</g>
<!-- Node4&#45;&gt;Node6 -->
<g id="edge5" class="edge"><title>Node4&#45;&gt;Node6</title>
<path fill="none" stroke="midnightblue" d="M398.311,-23.4533C411.556,-21.8139 426.345,-19.9833 440.644,-18.2135"/>
<polygon fill="midnightblue" stroke="midnightblue" points="441.446,-21.641 450.94,-16.939 440.586,-14.694 441.446,-21.641"/>
</g>
</g>
</svg>
