<?xml version="1.0" encoding="UTF-8" standalone="no"?>
<!DOCTYPE svg PUBLIC "-//W3C//DTD SVG 1.1//EN"
 "http://www.w3.org/Graphics/SVG/1.1/DTD/svg11.dtd">
<!-- Generated by graphviz version 2.38.0 (20140413.2041)
 -->
<!-- Title: CParser::init_value Pages: 1 -->
<!--zoomable 522 -->
<svg id="main" version="1.1" xmlns="http://www.w3.org/2000/svg" xmlns:xlink="http://www.w3.org/1999/xlink" xml:space="preserve" onload="init(evt)">
<style type="text/css"><![CDATA[
.edge:hover path { stroke: red; }
.edge:hover polygon { stroke: red; fill: red; }
]]></style>
<script type="text/javascript"><![CDATA[
var edges = document.getElementsByTagName('g');
if (edges && edges.length) {
  for (var i=0;i<edges.length;i++) {
    if (edges[i].id.substr(0,4)=='edge') {
      edges[i].setAttribute('class','edge');
    }
  }
}
]]></script>
        <defs>
                <circle id="rim" cx="0" cy="0" r="7"/>
                <circle id="rim2" cx="0" cy="0" r="3.5"/>
                <g id="zoomPlus">
                        <use xlink:href="#rim" fill="#404040">
                                <set attributeName="fill" to="#808080" begin="zoomplus.mouseover" end="zoomplus.mouseout"/>
                        </use>
                        <path d="M-4,0h8M0,-4v8" fill="none" stroke="white" stroke-width="1.5" pointer-events="none"/>
                </g>
                <g id="zoomMin">
                        <use xlink:href="#rim" fill="#404040">
                                <set attributeName="fill" to="#808080" begin="zoomminus.mouseover" end="zoomminus.mouseout"/>
                        </use>
                        <path d="M-4,0h8" fill="none" stroke="white" stroke-width="1.5" pointer-events="none"/>
                </g>
                <g id="dirArrow">
                        <path fill="none" stroke="white" stroke-width="1.5" d="M0,-3.0v7 M-2.5,-0.5L0,-3.0L2.5,-0.5"/>
                </g>
               <g id="resetDef">
                       <use xlink:href="#rim2" fill="#404040">
                               <set attributeName="fill" to="#808080" begin="reset.mouseover" end="reset.mouseout"/>
                       </use>
               </g>
        </defs>

<script type="text/javascript">
var viewWidth = 1430;
var viewHeight = 522;
var sectionId = 'dynsection-100';
</script>
<script xlink:href="../../svgpan.js"/>
<svg id="graph" class="graph">
<g id="viewport">
<title>CParser::init_value</title>
<polygon fill="white" stroke="none" points="-4,4 -4,-518.198 1426,-518.198 1426,4 -4,4"/>
<!-- Node1 -->
<g id="node1" class="node"><title>Node1</title>
<polygon fill="#bfbfbf" stroke="black" points="0,-301.5 0,-320.5 104,-320.5 104,-301.5 0,-301.5"/>
<text text-anchor="middle" x="52" y="-308.5" font-family="Helvetica,sans-Serif" font-size="10.00">CParser::init_value</text>
</g>
<!-- Node2 -->
<g id="node2" class="node"><title>Node2</title>
<g id="a_node2"><a xlink:href="../../d0/df6/classCParser.html#af54caee0e45703b090b9734347de7911" target="_top" xlink:title="CParser::constant">
<polygon fill="white" stroke="black" points="591,-382.5 591,-401.5 692,-401.5 692,-382.5 591,-382.5"/>
<text text-anchor="middle" x="641.5" y="-389.5" font-family="Helvetica,sans-Serif" font-size="10.00">CParser::constant</text>
</a>
</g>
</g>
<!-- Node1&#45;&gt;Node2 -->
<g id="edge1" class="edge"><title>Node1&#45;&gt;Node2</title>
<path fill="none" stroke="midnightblue" d="M104.109,-318.047C212.506,-332.991 464.98,-367.801 580.665,-383.75"/>
<polygon fill="midnightblue" stroke="midnightblue" points="580.374,-387.243 590.758,-385.142 581.33,-380.309 580.374,-387.243"/>
</g>
<!-- Node5 -->
<g id="node5" class="node"><title>Node5</title>
<g id="a_node5"><a xlink:href="../../d0/df6/classCParser.html#a5e1630bd24884bb1cbc5680926dce957" target="_top" xlink:title="CParser::syn">
<polygon fill="white" stroke="black" points="1034,-249.5 1034,-268.5 1111,-268.5 1111,-249.5 1034,-249.5"/>
<text text-anchor="middle" x="1072.5" y="-256.5" font-family="Helvetica,sans-Serif" font-size="10.00">CParser::syn</text>
</a>
</g>
</g>
<!-- Node1&#45;&gt;Node5 -->
<g id="edge34" class="edge"><title>Node1&#45;&gt;Node5</title>
<path fill="none" stroke="midnightblue" d="M60.4122,-320.67C91.4895,-360.017 216.084,-506 354,-506 354,-506 354,-506 787,-506 881.659,-506 925.06,-537.334 998,-477 1059.31,-426.289 1069.71,-322.503 1071.3,-278.944"/>
<polygon fill="midnightblue" stroke="midnightblue" points="1074.81,-278.873 1071.55,-268.791 1067.81,-278.702 1074.81,-278.873"/>
</g>
<!-- Node9 -->
<g id="node9" class="node"><title>Node9</title>
<g id="a_node9"><a xlink:href="../../d0/df6/classCParser.html#a0a168a887a9f004b6635cd3fb47f565e" target="_top" xlink:title="CParser::brace_block">
<polygon fill="white" stroke="black" points="728,-208.5 728,-227.5 844,-227.5 844,-208.5 728,-208.5"/>
<text text-anchor="middle" x="786" y="-215.5" font-family="Helvetica,sans-Serif" font-size="10.00">CParser::brace_block</text>
</a>
</g>
</g>
<!-- Node1&#45;&gt;Node9 -->
<g id="edge10" class="edge"><title>Node1&#45;&gt;Node9</title>
<path fill="none" stroke="midnightblue" d="M98.1484,-301.46C156.818,-289.914 262.576,-272 354,-272 354,-272 354,-272 504.5,-272 591.855,-272 691.799,-246.434 745.649,-230.484"/>
<polygon fill="midnightblue" stroke="midnightblue" points="746.903,-233.762 755.471,-227.53 744.886,-227.059 746.903,-233.762"/>
</g>
<!-- Node11 -->
<g id="node11" class="node"><title>Node11</title>
<g id="a_node11"><a xlink:href="../../d0/df6/classCParser.html#a51affc383cd0859af5d84b628c8a2f5c" target="_top" xlink:title="CParser::paren_block">
<polygon fill="white" stroke="black" points="140,-190.5 140,-209.5 258,-209.5 258,-190.5 140,-190.5"/>
<text text-anchor="middle" x="199" y="-197.5" font-family="Helvetica,sans-Serif" font-size="10.00">CParser::paren_block</text>
</a>
</g>
</g>
<!-- Node1&#45;&gt;Node11 -->
<g id="edge14" class="edge"><title>Node1&#45;&gt;Node11</title>
<path fill="none" stroke="midnightblue" d="M65.6141,-301.344C90.5732,-282.237 146.482,-239.438 177.053,-216.035"/>
<polygon fill="midnightblue" stroke="midnightblue" points="179.499,-218.571 185.312,-209.713 175.244,-213.012 179.499,-218.571"/>
</g>
<!-- Node3 -->
<g id="node3" class="node"><title>Node3</title>
<g id="a_node3"><a xlink:href="../../d0/df6/classCParser.html#a6125d39bebbef0edc81fe5f030e76759" target="_top" xlink:title="CParser::literal">
<polygon fill="white" stroke="black" points="743,-382.5 743,-401.5 829,-401.5 829,-382.5 743,-382.5"/>
<text text-anchor="middle" x="786" y="-389.5" font-family="Helvetica,sans-Serif" font-size="10.00">CParser::literal</text>
</a>
</g>
</g>
<!-- Node2&#45;&gt;Node3 -->
<g id="edge2" class="edge"><title>Node2&#45;&gt;Node3</title>
<path fill="none" stroke="midnightblue" d="M692.34,-392C705.386,-392 719.487,-392 732.659,-392"/>
<polygon fill="midnightblue" stroke="midnightblue" points="732.986,-395.5 742.986,-392 732.986,-388.5 732.986,-395.5"/>
</g>
<!-- Node2&#45;&gt;Node5 -->
<g id="edge9" class="edge"><title>Node2&#45;&gt;Node5</title>
<path fill="none" stroke="midnightblue" d="M658.035,-401.546C710.929,-432.704 886.889,-525.152 998,-449 1055.21,-409.789 1067.9,-319.159 1070.71,-278.897"/>
<polygon fill="midnightblue" stroke="midnightblue" points="1074.21,-278.931 1071.27,-268.751 1067.22,-278.541 1074.21,-278.931"/>
</g>
<!-- Node4 -->
<g id="node4" class="node"><title>Node4</title>
<g id="a_node4"><a xlink:href="../../d0/df6/classCParser.html#a37ac23e2bafc84982f17db1ace720958" target="_top" xlink:title="CParser::string_literal">
<polygon fill="white" stroke="black" points="880,-420.5 880,-439.5 998,-439.5 998,-420.5 880,-420.5"/>
<text text-anchor="middle" x="939" y="-427.5" font-family="Helvetica,sans-Serif" font-size="10.00">CParser::string_literal</text>
</a>
</g>
</g>
<!-- Node3&#45;&gt;Node4 -->
<g id="edge3" class="edge"><title>Node3&#45;&gt;Node4</title>
<path fill="none" stroke="midnightblue" d="M825.104,-401.589C844.94,-406.581 869.384,-412.732 890.448,-418.033"/>
<polygon fill="midnightblue" stroke="midnightblue" points="889.618,-421.434 900.17,-420.48 891.327,-414.645 889.618,-421.434"/>
</g>
<!-- Node3&#45;&gt;Node5 -->
<g id="edge8" class="edge"><title>Node3&#45;&gt;Node5</title>
<path fill="none" stroke="midnightblue" d="M829.168,-398.497C874.309,-403.235 946.387,-404.217 998,-373 1033.77,-351.363 1055.28,-304.908 1065.1,-278.464"/>
<polygon fill="midnightblue" stroke="midnightblue" points="1068.49,-279.386 1068.5,-268.791 1061.88,-277.064 1068.49,-279.386"/>
</g>
<!-- Node4&#45;&gt;Node5 -->
<g id="edge4" class="edge"><title>Node4&#45;&gt;Node5</title>
<path fill="none" stroke="midnightblue" d="M974.594,-420.377C982.956,-416.853 991.38,-412.164 998,-406 1036.5,-370.153 1057.67,-309.699 1066.5,-278.671"/>
<polygon fill="midnightblue" stroke="midnightblue" points="1069.97,-279.238 1069.2,-268.671 1063.21,-277.41 1069.97,-279.238"/>
</g>
<!-- Node6 -->
<g id="node6" class="node"><title>Node6</title>
<g id="a_node6"><a xlink:href="../../da/d6a/classParseUtility.html#aabfa4c56607539ef14be2e2a7260006b" target="_top" xlink:title="ParseUtility::syn">
<polygon fill="white" stroke="black" points="1147,-249.5 1147,-268.5 1238,-268.5 1238,-249.5 1147,-249.5"/>
<text text-anchor="middle" x="1192.5" y="-256.5" font-family="Helvetica,sans-Serif" font-size="10.00">ParseUtility::syn</text>
</a>
</g>
</g>
<!-- Node5&#45;&gt;Node6 -->
<g id="edge5" class="edge"><title>Node5&#45;&gt;Node6</title>
<path fill="none" stroke="midnightblue" d="M1111.16,-259C1119.3,-259 1128.08,-259 1136.73,-259"/>
<polygon fill="midnightblue" stroke="midnightblue" points="1136.78,-262.5 1146.78,-259 1136.78,-255.5 1136.78,-262.5"/>
</g>
<!-- Node7 -->
<g id="node7" class="node"><title>Node7</title>
<g id="a_node7"><a xlink:href="../../d3/d5e/classParseStore.html#ab21a4aeadb4cc4938b58cbefbb8634e8" target="_top" xlink:title="ParseStore::currentInstance">
<polygon fill="white" stroke="black" points="1274,-268.5 1274,-287.5 1422,-287.5 1422,-268.5 1274,-268.5"/>
<text text-anchor="middle" x="1348" y="-275.5" font-family="Helvetica,sans-Serif" font-size="10.00">ParseStore::currentInstance</text>
</a>
</g>
</g>
<!-- Node6&#45;&gt;Node7 -->
<g id="edge6" class="edge"><title>Node6&#45;&gt;Node7</title>
<path fill="none" stroke="midnightblue" d="M1238.31,-264.547C1246.41,-265.549 1255.09,-266.624 1263.88,-267.712"/>
<polygon fill="midnightblue" stroke="midnightblue" points="1263.48,-271.188 1273.83,-268.943 1264.34,-264.241 1263.48,-271.188"/>
</g>
<!-- Node8 -->
<g id="node8" class="node"><title>Node8</title>
<g id="a_node8"><a xlink:href="../../d3/d5e/classParseStore.html#ae7b3d82d22174c1a1165a592d6c1700c" target="_top" xlink:title="ParseStore::filename">
<polygon fill="white" stroke="black" points="1291,-230.5 1291,-249.5 1405,-249.5 1405,-230.5 1291,-230.5"/>
<text text-anchor="middle" x="1348" y="-237.5" font-family="Helvetica,sans-Serif" font-size="10.00">ParseStore::filename</text>
</a>
</g>
</g>
<!-- Node6&#45;&gt;Node8 -->
<g id="edge7" class="edge"><title>Node6&#45;&gt;Node8</title>
<path fill="none" stroke="midnightblue" d="M1238.31,-253.453C1251.56,-251.814 1266.35,-249.983 1280.64,-248.213"/>
<polygon fill="midnightblue" stroke="midnightblue" points="1281.45,-251.641 1290.94,-246.939 1280.59,-244.694 1281.45,-251.641"/>
</g>
<!-- Node9&#45;&gt;Node5 -->
<g id="edge13" class="edge"><title>Node9&#45;&gt;Node5</title>
<path fill="none" stroke="midnightblue" d="M844.231,-226.248C896.948,-233.845 974.273,-244.988 1023.75,-252.118"/>
<polygon fill="midnightblue" stroke="midnightblue" points="1023.47,-255.614 1033.87,-253.576 1024.47,-248.686 1023.47,-255.614"/>
</g>
<!-- Node10 -->
<g id="node10" class="node"><title>Node10</title>
<g id="a_node10"><a xlink:href="../../d0/df6/classCParser.html#ad3478bb95eecaaa4fb98396fb1b48d82" target="_top" xlink:title="CParser::skip_until\l_matching_rbrace">
<polygon fill="white" stroke="black" points="887,-181 887,-211 991,-211 991,-181 887,-181"/>
<text text-anchor="start" x="895" y="-199" font-family="Helvetica,sans-Serif" font-size="10.00">CParser::skip_until</text>
<text text-anchor="middle" x="939" y="-188" font-family="Helvetica,sans-Serif" font-size="10.00">_matching_rbrace</text>
</a>
</g>
</g>
<!-- Node9&#45;&gt;Node10 -->
<g id="edge11" class="edge"><title>Node9&#45;&gt;Node10</title>
<path fill="none" stroke="midnightblue" d="M844.087,-209.683C854.719,-208.134 865.871,-206.509 876.626,-204.942"/>
<polygon fill="midnightblue" stroke="midnightblue" points="877.395,-208.367 886.786,-203.462 876.386,-201.44 877.395,-208.367"/>
</g>
<!-- Node10&#45;&gt;Node5 -->
<g id="edge12" class="edge"><title>Node10&#45;&gt;Node5</title>
<path fill="none" stroke="midnightblue" d="M971.498,-211.09C992.978,-221.381 1021.23,-234.914 1042.22,-244.972"/>
<polygon fill="midnightblue" stroke="midnightblue" points="1040.77,-248.16 1051.3,-249.324 1043.8,-241.847 1040.77,-248.16"/>
</g>
<!-- Node11&#45;&gt;Node5 -->
<g id="edge33" class="edge"><title>Node11&#45;&gt;Node5</title>
<path fill="none" stroke="midnightblue" d="M207.194,-190.354C237.89,-150.403 362.733,-0 502.5,-0 502.5,-0 502.5,-0 787,-0 890.399,-0 925.126,-24.647 998,-98 1038.66,-138.93 1059.22,-206.436 1067.29,-239.511"/>
<polygon fill="midnightblue" stroke="midnightblue" points="1063.89,-240.365 1069.55,-249.319 1070.71,-238.788 1063.89,-240.365"/>
</g>
<!-- Node12 -->
<g id="node12" class="node"><title>Node12</title>
<g id="a_node12"><a xlink:href="../../d0/df6/classCParser.html#a967d50b91351cf003898543b6d7af7a7" target="_top" xlink:title="CParser::balanced_list">
<polygon fill="white" stroke="black" points="294,-161.5 294,-180.5 416,-180.5 416,-161.5 294,-161.5"/>
<text text-anchor="middle" x="355" y="-168.5" font-family="Helvetica,sans-Serif" font-size="10.00">CParser::balanced_list</text>
</a>
</g>
</g>
<!-- Node11&#45;&gt;Node12 -->
<g id="edge15" class="edge"><title>Node11&#45;&gt;Node12</title>
<path fill="none" stroke="midnightblue" d="M250.852,-190.424C264.459,-187.862 279.301,-185.067 293.378,-182.416"/>
<polygon fill="midnightblue" stroke="midnightblue" points="294.284,-185.807 303.464,-180.517 292.989,-178.928 294.284,-185.807"/>
</g>
<!-- Node12&#45;&gt;Node5 -->
<g id="edge32" class="edge"><title>Node12&#45;&gt;Node5</title>
<path fill="none" stroke="midnightblue" d="M372.352,-161.368C414.954,-137.216 533.489,-76 640.5,-76 640.5,-76 640.5,-76 787,-76 881.434,-76 921.509,-45.6202 998,-101 1044.23,-134.474 1062.24,-204.428 1068.52,-238.908"/>
<polygon fill="midnightblue" stroke="midnightblue" points="1065.12,-239.848 1070.22,-249.138 1072.03,-238.699 1065.12,-239.848"/>
</g>
<!-- Node13 -->
<g id="node13" class="node"><title>Node13</title>
<g id="a_node13"><a xlink:href="../../d0/df6/classCParser.html#a424ec587e8167b682804c23c4804d895" target="_top" xlink:title="CParser::balanced">
<polygon fill="white" stroke="black" points="452,-180.5 452,-199.5 555,-199.5 555,-180.5 452,-180.5"/>
<text text-anchor="middle" x="503.5" y="-187.5" font-family="Helvetica,sans-Serif" font-size="10.00">CParser::balanced</text>
</a>
</g>
</g>
<!-- Node12&#45;&gt;Node13 -->
<g id="edge16" class="edge"><title>Node12&#45;&gt;Node13</title>
<path fill="none" stroke="midnightblue" d="M416.01,-178.783C424.437,-179.876 433.105,-181 441.549,-182.095"/>
<polygon fill="midnightblue" stroke="midnightblue" points="441.339,-185.597 451.706,-183.412 442.239,-178.655 441.339,-185.597"/>
</g>
<!-- Node13&#45;&gt;Node5 -->
<g id="edge31" class="edge"><title>Node13&#45;&gt;Node5</title>
<path fill="none" stroke="midnightblue" d="M524.176,-180.376C594.423,-147.514 837.222,-46.9024 998,-142 1035,-163.886 1056.22,-212.467 1065.62,-239.642"/>
<polygon fill="midnightblue" stroke="midnightblue" points="1062.31,-240.8 1068.74,-249.22 1068.97,-238.627 1062.31,-240.8"/>
</g>
<!-- Node14 -->
<g id="node14" class="node"><title>Node14</title>
<g id="a_node14"><a xlink:href="../../d0/df6/classCParser.html#a52e049b9361b6e9c7a2c4f6266d98916" target="_top" xlink:title="CParser::scoped">
<polygon fill="white" stroke="black" points="594,-306.5 594,-325.5 689,-325.5 689,-306.5 594,-306.5"/>
<text text-anchor="middle" x="641.5" y="-313.5" font-family="Helvetica,sans-Serif" font-size="10.00">CParser::scoped</text>
</a>
</g>
</g>
<!-- Node13&#45;&gt;Node14 -->
<g id="edge17" class="edge"><title>Node13&#45;&gt;Node14</title>
<path fill="none" stroke="midnightblue" d="M515.172,-199.887C538.41,-221.417 593.805,-272.738 622.531,-299.353"/>
<polygon fill="midnightblue" stroke="midnightblue" points="620.164,-301.93 629.878,-306.159 624.921,-296.795 620.164,-301.93"/>
</g>
<!-- Node17 -->
<g id="node17" class="node"><title>Node17</title>
<g id="a_node17"><a xlink:href="../../d0/df6/classCParser.html#a35e24b97e6c8566e503521071040413f" target="_top" xlink:title="CParser::block">
<polygon fill="white" stroke="black" points="599.5,-180.5 599.5,-199.5 683.5,-199.5 683.5,-180.5 599.5,-180.5"/>
<text text-anchor="middle" x="641.5" y="-187.5" font-family="Helvetica,sans-Serif" font-size="10.00">CParser::block</text>
</a>
</g>
</g>
<!-- Node13&#45;&gt;Node17 -->
<g id="edge24" class="edge"><title>Node13&#45;&gt;Node17</title>
<path fill="none" stroke="midnightblue" d="M555.141,-190C566.243,-190 578.006,-190 589.136,-190"/>
<polygon fill="midnightblue" stroke="midnightblue" points="589.142,-193.5 599.142,-190 589.142,-186.5 589.142,-193.5"/>
</g>
<!-- Node14&#45;&gt;Node3 -->
<g id="edge22" class="edge"><title>Node14&#45;&gt;Node3</title>
<path fill="none" stroke="midnightblue" d="M656.65,-325.501C673.31,-336.474 702.01,-354.717 728,-368 735.193,-371.676 743.081,-375.265 750.635,-378.499"/>
<polygon fill="midnightblue" stroke="midnightblue" points="749.37,-381.764 759.946,-382.387 752.067,-375.304 749.37,-381.764"/>
</g>
<!-- Node14&#45;&gt;Node5 -->
<g id="edge23" class="edge"><title>Node14&#45;&gt;Node5</title>
<path fill="none" stroke="midnightblue" d="M689.219,-319.666C758.134,-323.705 890.49,-326.208 998,-297 1015.91,-292.135 1034.46,-282.503 1048.44,-274.154"/>
<polygon fill="midnightblue" stroke="midnightblue" points="1050.67,-276.892 1057.33,-268.653 1046.99,-270.94 1050.67,-276.892"/>
</g>
<!-- Node15 -->
<g id="node15" class="node"><title>Node15</title>
<g id="a_node15"><a xlink:href="../../d0/df6/classCParser.html#a2406cf660d9f7e6c3be87b61b2ffba4b" target="_top" xlink:title="CParser::keyword">
<polygon fill="white" stroke="black" points="889,-268.5 889,-287.5 989,-287.5 989,-268.5 889,-268.5"/>
<text text-anchor="middle" x="939" y="-275.5" font-family="Helvetica,sans-Serif" font-size="10.00">CParser::keyword</text>
</a>
</g>
</g>
<!-- Node14&#45;&gt;Node15 -->
<g id="edge18" class="edge"><title>Node14&#45;&gt;Node15</title>
<path fill="none" stroke="midnightblue" d="M689.031,-307.96C701.656,-305.894 715.336,-303.759 728,-302 778.703,-294.956 836.504,-288.462 878.612,-284.011"/>
<polygon fill="midnightblue" stroke="midnightblue" points="879.115,-287.477 888.695,-282.952 878.384,-280.516 879.115,-287.477"/>
</g>
<!-- Node16 -->
<g id="node16" class="node"><title>Node16</title>
<g id="a_node16"><a xlink:href="../../d0/df6/classCParser.html#a177b7d8d53b6d7c2c89bbea896b3d154" target="_top" xlink:title="CParser::op">
<polygon fill="white" stroke="black" points="903,-344.5 903,-363.5 975,-363.5 975,-344.5 903,-344.5"/>
<text text-anchor="middle" x="939" y="-351.5" font-family="Helvetica,sans-Serif" font-size="10.00">CParser::op</text>
</a>
</g>
</g>
<!-- Node14&#45;&gt;Node16 -->
<g id="edge20" class="edge"><title>Node14&#45;&gt;Node16</title>
<path fill="none" stroke="midnightblue" d="M689.031,-324.04C701.656,-326.106 715.336,-328.241 728,-330 784.579,-337.861 849.997,-345.036 892.584,-349.452"/>
<polygon fill="midnightblue" stroke="midnightblue" points="892.329,-352.944 902.635,-350.487 893.047,-345.981 892.329,-352.944"/>
</g>
<!-- Node15&#45;&gt;Node5 -->
<g id="edge19" class="edge"><title>Node15&#45;&gt;Node5</title>
<path fill="none" stroke="midnightblue" d="M989.34,-270.871C1000.61,-269.243 1012.57,-267.515 1023.77,-265.896"/>
<polygon fill="midnightblue" stroke="midnightblue" points="1024.41,-269.341 1033.8,-264.446 1023.41,-262.412 1024.41,-269.341"/>
</g>
<!-- Node16&#45;&gt;Node5 -->
<g id="edge21" class="edge"><title>Node16&#45;&gt;Node5</title>
<path fill="none" stroke="midnightblue" d="M969.098,-344.432C978.691,-340.644 989.159,-335.795 998,-330 1020.79,-315.064 1042.68,-292.5 1056.56,-276.833"/>
<polygon fill="midnightblue" stroke="midnightblue" points="1059.5,-278.783 1063.4,-268.931 1054.21,-274.202 1059.5,-278.783"/>
</g>
<!-- Node17&#45;&gt;Node5 -->
<g id="edge30" class="edge"><title>Node17&#45;&gt;Node5</title>
<path fill="none" stroke="midnightblue" d="M652.506,-180.372C667.482,-166.705 697.266,-142.306 728,-133 842.915,-98.2066 894.658,-80.8744 998,-142 1035,-163.886 1056.22,-212.467 1065.62,-239.642"/>
<polygon fill="midnightblue" stroke="midnightblue" points="1062.31,-240.8 1068.74,-249.22 1068.97,-238.627 1062.31,-240.8"/>
</g>
<!-- Node17&#45;&gt;Node9 -->
<g id="edge25" class="edge"><title>Node17&#45;&gt;Node9</title>
<path fill="none" stroke="midnightblue" d="M683.717,-198.099C697.141,-200.736 712.306,-203.716 726.736,-206.552"/>
<polygon fill="midnightblue" stroke="midnightblue" points="726.09,-209.992 736.577,-208.485 727.44,-203.123 726.09,-209.992"/>
</g>
<!-- Node17&#45;&gt;Node11 -->
<g id="edge29" class="edge"><title>Node17&#45;&gt;Node11</title>
<path fill="none" stroke="midnightblue" d="M605.845,-199.508C590.41,-203.273 571.929,-207.142 555,-209 455.847,-219.884 340.227,-213.416 268.559,-207.181"/>
<polygon fill="midnightblue" stroke="midnightblue" points="268.583,-203.669 258.311,-206.265 267.96,-210.642 268.583,-203.669"/>
</g>
<!-- Node18 -->
<g id="node18" class="node"><title>Node18</title>
<g id="a_node18"><a xlink:href="../../d0/df6/classCParser.html#ac73c93a601c6e7123e0ebbd7be03b60d" target="_top" xlink:title="CParser::brack_block">
<polygon fill="white" stroke="black" points="728,-142.5 728,-161.5 844,-161.5 844,-142.5 728,-142.5"/>
<text text-anchor="middle" x="786" y="-149.5" font-family="Helvetica,sans-Serif" font-size="10.00">CParser::brack_block</text>
</a>
</g>
</g>
<!-- Node17&#45;&gt;Node18 -->
<g id="edge26" class="edge"><title>Node17&#45;&gt;Node18</title>
<path fill="none" stroke="midnightblue" d="M678.459,-180.411C696.939,-175.483 719.656,-169.425 739.359,-164.171"/>
<polygon fill="midnightblue" stroke="midnightblue" points="740.292,-167.544 749.053,-161.586 738.489,-160.781 740.292,-167.544"/>
</g>
<!-- Node18&#45;&gt;Node5 -->
<g id="edge28" class="edge"><title>Node18&#45;&gt;Node5</title>
<path fill="none" stroke="midnightblue" d="M844.043,-145.712C888.489,-143.413 950.428,-146.09 998,-171 1027.69,-186.544 1050.11,-219.697 1061.99,-240.579"/>
<polygon fill="midnightblue" stroke="midnightblue" points="1058.97,-242.351 1066.83,-249.459 1065.12,-239.003 1058.97,-242.351"/>
</g>
<!-- Node18&#45;&gt;Node12 -->
<g id="edge27" class="edge"><title>Node18&#45;&gt;Node12</title>
<path fill="none" stroke="midnightblue" d="M727.701,-154.538C649.783,-157.989 510.498,-164.157 426.337,-167.885"/>
<polygon fill="midnightblue" stroke="midnightblue" points="425.938,-164.399 416.102,-168.338 426.247,-171.392 425.938,-164.399"/>
</g>
</g>
</svg>
        <g id="navigator" transform="translate(0 0)" fill="#404254">
                <rect fill="#f2f5e9" fill-opacity="0.5" stroke="#606060" stroke-width=".5" x="0" y="0" width="60" height="60"/>
                <use id="zoomplus" xlink:href="#zoomPlus" x="17" y="9" onmousedown="handleZoom(evt,'in')"/>
                <use id="zoomminus" xlink:href="#zoomMin" x="42" y="9" onmousedown="handleZoom(evt,'out')"/>
                <use id="reset" xlink:href="#resetDef" x="30" y="36" onmousedown="handleReset()"/>
                <g id="arrowUp" xlink:href="#dirArrow" transform="translate(30 24)" onmousedown="handlePan(0,-1)">
                  <use xlink:href="#rim" fill="#404040">
                        <set attributeName="fill" to="#808080" begin="arrowUp.mouseover" end="arrowUp.mouseout"/>
                  </use>
                  <path fill="none" stroke="white" stroke-width="1.5" d="M0,-3.0v7 M-2.5,-0.5L0,-3.0L2.5,-0.5"/>
                </g>
                <g id="arrowRight" xlink:href="#dirArrow" transform="rotate(90) translate(36 -43)" onmousedown="handlePan(1,0)">
                  <use xlink:href="#rim" fill="#404040">
                        <set attributeName="fill" to="#808080" begin="arrowRight.mouseover" end="arrowRight.mouseout"/>
                  </use>
                  <path fill="none" stroke="white" stroke-width="1.5" d="M0,-3.0v7 M-2.5,-0.5L0,-3.0L2.5,-0.5"/>
                </g>
                <g id="arrowDown" xlink:href="#dirArrow" transform="rotate(180) translate(-30 -48)" onmousedown="handlePan(0,1)">
                  <use xlink:href="#rim" fill="#404040">
                        <set attributeName="fill" to="#808080" begin="arrowDown.mouseover" end="arrowDown.mouseout"/>
                  </use>
                  <path fill="none" stroke="white" stroke-width="1.5" d="M0,-3.0v7 M-2.5,-0.5L0,-3.0L2.5,-0.5"/>
                </g>
                <g id="arrowLeft" xlink:href="#dirArrow" transform="rotate(270) translate(-36 17)" onmousedown="handlePan(-1,0)">
                  <use xlink:href="#rim" fill="#404040">
                        <set attributeName="fill" to="#808080" begin="arrowLeft.mouseover" end="arrowLeft.mouseout"/>
                  </use>
                  <path fill="none" stroke="white" stroke-width="1.5" d="M0,-3.0v7 M-2.5,-0.5L0,-3.0L2.5,-0.5"/>
                </g>
        </g>
        <svg viewBox="0 0 15 15" width="100%" height="30px" preserveAspectRatio="xMaxYMin meet">
         <g id="arrow_out" transform="scale(0.3 0.3)">
          <a xlink:href="classCParser_a8715e75c1e5fe112f10ccf0986cc2c7d_cgraph_org.svg" target="_base">
           <rect id="button" ry="5" rx="5" y="6" x="6" height="38" width="38"
                fill="#f2f5e9" fill-opacity="0.5" stroke="#606060" stroke-width="1.0"/>
           <path id="arrow"
             d="M 11.500037,31.436501 C 11.940474,20.09759 22.043105,11.32322 32.158766,21.979434 L 37.068811,17.246167 C 37.068811,17.246167 37.088388,32 37.088388,32 L 22.160133,31.978069 C 22.160133,31.978069 26.997745,27.140456 26.997745,27.140456 C 18.528582,18.264221 13.291696,25.230495 11.500037,31.436501 z"
             style="fill:#404040;"/>
          </a>
         </g>
        </svg>
</svg>
