<?xml version="1.0" encoding="UTF-8" standalone="no"?>
<!DOCTYPE svg PUBLIC "-//W3C//DTD SVG 1.1//EN"
 "http://www.w3.org/Graphics/SVG/1.1/DTD/svg11.dtd">
<!-- Generated by graphviz version 2.38.0 (20140413.2041)
 -->
<!-- Title: CParser::inheritance_item Pages: 1 -->
<svg width="2242pt" height="895pt"
 viewBox="0.00 0.00 2242.00 894.74" xmlns="http://www.w3.org/2000/svg" xmlns:xlink="http://www.w3.org/1999/xlink">
<g id="graph0" class="graph" transform="scale(1 1) rotate(0) translate(4 890.741)">
<title>CParser::inheritance_item</title>
<polygon fill="white" stroke="none" points="-4,4 -4,-890.741 2238,-890.741 2238,4 -4,4"/>
<!-- Node1 -->
<g id="node1" class="node"><title>Node1</title>
<polygon fill="#bfbfbf" stroke="black" points="0,-677 0,-696 138,-696 138,-677 0,-677"/>
<text text-anchor="middle" x="69" y="-684" font-family="Helvetica,sans-Serif" font-size="10.00">CParser::inheritance_item</text>
</g>
<!-- Node2 -->
<g id="node2" class="node"><title>Node2</title>
<g id="a_node2"><a xlink:href="../../d0/df6/classCParser.html#ac692e92b2387b4f8738401bdaff2013e" target="_top" xlink:title="CParser::inheritance\l_access_key">
<polygon fill="white" stroke="black" points="1147,-791.5 1147,-821.5 1260,-821.5 1260,-791.5 1147,-791.5"/>
<text text-anchor="start" x="1155" y="-809.5" font-family="Helvetica,sans-Serif" font-size="10.00">CParser::inheritance</text>
<text text-anchor="middle" x="1203.5" y="-798.5" font-family="Helvetica,sans-Serif" font-size="10.00">_access_key</text>
</a>
</g>
</g>
<!-- Node1&#45;&gt;Node2 -->
<g id="edge1" class="edge"><title>Node1&#45;&gt;Node2</title>
<path fill="none" stroke="midnightblue" d="M85.6884,-696.075C133.017,-724.018 279.264,-803.5 411.5,-803.5 411.5,-803.5 411.5,-803.5 792,-803.5 913.656,-803.5 1055.59,-804.834 1136.66,-805.723"/>
<polygon fill="midnightblue" stroke="midnightblue" points="1136.69,-809.223 1146.73,-805.834 1136.77,-802.224 1136.69,-809.223"/>
</g>
<!-- Node5 -->
<g id="node5" class="node"><title>Node5</title>
<g id="a_node5"><a xlink:href="../../d0/df6/classCParser.html#a5e1630bd24884bb1cbc5680926dce957" target="_top" xlink:title="CParser::syn">
<polygon fill="white" stroke="black" points="1846,-468 1846,-487 1923,-487 1923,-468 1846,-468"/>
<text text-anchor="middle" x="1884.5" y="-475" font-family="Helvetica,sans-Serif" font-size="10.00">CParser::syn</text>
</a>
</g>
</g>
<!-- Node1&#45;&gt;Node5 -->
<g id="edge67" class="edge"><title>Node1&#45;&gt;Node5</title>
<path fill="none" stroke="midnightblue" d="M78.5626,-696.247C95.2956,-714.801 134.191,-755.568 174,-780.5 270.49,-840.932 297.647,-876.5 411.5,-876.5 411.5,-876.5 411.5,-876.5 1563,-876.5 1674,-876.5 1729.51,-915.939 1810,-839.5 1860.33,-791.701 1878.1,-565.889 1882.38,-497.303"/>
<polygon fill="midnightblue" stroke="midnightblue" points="1885.89,-497.234 1883,-487.044 1878.91,-496.817 1885.89,-497.234"/>
</g>
<!-- Node9 -->
<g id="node9" class="node"><title>Node9</title>
<g id="a_node9"><a xlink:href="../../d0/df6/classCParser.html#a03c75fc2be131ba2c0a21fd9687b49ca" target="_top" xlink:title="CParser::type_name">
<polygon fill="white" stroke="black" points="183,-677 183,-696 296,-696 296,-677 183,-677"/>
<text text-anchor="middle" x="239.5" y="-684" font-family="Helvetica,sans-Serif" font-size="10.00">CParser::type_name</text>
</a>
</g>
</g>
<!-- Node1&#45;&gt;Node9 -->
<g id="edge9" class="edge"><title>Node1&#45;&gt;Node9</title>
<path fill="none" stroke="midnightblue" d="M138.05,-686.5C149.448,-686.5 161.258,-686.5 172.602,-686.5"/>
<polygon fill="midnightblue" stroke="midnightblue" points="172.863,-690 182.863,-686.5 172.863,-683 172.863,-690"/>
</g>
<!-- Node31 -->
<g id="node31" class="node"><title>Node31</title>
<g id="a_node31"><a xlink:href="../../d3/d5e/classParseStore.html#aa8ae64513f8e2a44885a25d7b78a73e9" target="_top" xlink:title="ParseStore::record\l_userel_extent">
<polygon fill="white" stroke="black" points="187,-101.5 187,-131.5 292,-131.5 292,-101.5 187,-101.5"/>
<text text-anchor="start" x="195" y="-119.5" font-family="Helvetica,sans-Serif" font-size="10.00">ParseStore::record</text>
<text text-anchor="middle" x="239.5" y="-108.5" font-family="Helvetica,sans-Serif" font-size="10.00">_userel_extent</text>
</a>
</g>
</g>
<!-- Node1&#45;&gt;Node31 -->
<g id="edge55" class="edge"><title>Node1&#45;&gt;Node31</title>
<path fill="none" stroke="midnightblue" d="M72.9246,-676.607C92.2362,-611.28 201.552,-241.488 231.124,-141.451"/>
<polygon fill="midnightblue" stroke="midnightblue" points="234.553,-142.2 234.031,-131.618 227.84,-140.215 234.553,-142.2"/>
</g>
<!-- Node40 -->
<g id="node40" class="node"><title>Node40</title>
<g id="a_node40"><a xlink:href="../../d3/d5e/classParseStore.html#a0915da8493f5b1f137c9c0112318bd89" target="_top" xlink:title="ParseStore::get_visibility">
<polygon fill="white" stroke="black" points="174,-63 174,-82 305,-82 305,-63 174,-63"/>
<text text-anchor="middle" x="239.5" y="-70" font-family="Helvetica,sans-Serif" font-size="10.00">ParseStore::get_visibility</text>
</a>
</g>
</g>
<!-- Node1&#45;&gt;Node40 -->
<g id="edge66" class="edge"><title>Node1&#45;&gt;Node40</title>
<path fill="none" stroke="midnightblue" d="M70.345,-676.556C72.983,-606.163 92.1265,-183.23 174,-91.5 175.176,-90.1827 176.438,-88.9548 177.772,-87.8103"/>
<polygon fill="midnightblue" stroke="midnightblue" points="179.813,-90.6545 186.098,-82.1252 175.866,-84.8735 179.813,-90.6545"/>
</g>
<!-- Node3 -->
<g id="node3" class="node"><title>Node3</title>
<g id="a_node3"><a xlink:href="../../d0/df6/classCParser.html#a987f3febe53080d16c0643fc707ed3d8" target="_top" xlink:title="CParser::access_key">
<polygon fill="white" stroke="black" points="1332.5,-791 1332.5,-810 1448.5,-810 1448.5,-791 1332.5,-791"/>
<text text-anchor="middle" x="1390.5" y="-798" font-family="Helvetica,sans-Serif" font-size="10.00">CParser::access_key</text>
</a>
</g>
</g>
<!-- Node2&#45;&gt;Node3 -->
<g id="edge2" class="edge"><title>Node2&#45;&gt;Node3</title>
<path fill="none" stroke="midnightblue" d="M1260.01,-804.7C1279.58,-804.065 1301.8,-803.344 1322.24,-802.681"/>
<polygon fill="midnightblue" stroke="midnightblue" points="1322.55,-806.173 1332.43,-802.351 1322.32,-799.177 1322.55,-806.173"/>
</g>
<!-- Node2&#45;&gt;Node5 -->
<g id="edge8" class="edge"><title>Node2&#45;&gt;Node5</title>
<path fill="none" stroke="midnightblue" d="M1260.31,-815.4C1394.41,-835.432 1729.59,-877.038 1810,-806.5 1857.21,-765.083 1876.92,-561.885 1882.06,-497.268"/>
<polygon fill="midnightblue" stroke="midnightblue" points="1885.56,-497.43 1882.83,-487.193 1878.58,-496.896 1885.56,-497.43"/>
</g>
<!-- Node4 -->
<g id="node4" class="node"><title>Node4</title>
<g id="a_node4"><a xlink:href="../../d3/d5e/classParseStore.html#a238b27bbf877e69812ecc620fbc18d5f" target="_top" xlink:title="ParseStore::set_flag">
<polygon fill="white" stroke="black" points="1506,-639 1506,-658 1618,-658 1618,-639 1506,-639"/>
<text text-anchor="middle" x="1562" y="-646" font-family="Helvetica,sans-Serif" font-size="10.00">ParseStore::set_flag</text>
</a>
</g>
</g>
<!-- Node3&#45;&gt;Node4 -->
<g id="edge3" class="edge"><title>Node3&#45;&gt;Node4</title>
<path fill="none" stroke="midnightblue" d="M1402.1,-790.992C1430.28,-765.721 1507.3,-696.653 1542.73,-664.884"/>
<polygon fill="midnightblue" stroke="midnightblue" points="1545.29,-667.287 1550.4,-658.005 1540.62,-662.075 1545.29,-667.287"/>
</g>
<!-- Node3&#45;&gt;Node5 -->
<g id="edge4" class="edge"><title>Node3&#45;&gt;Node5</title>
<path fill="none" stroke="midnightblue" d="M1448.8,-805.265C1550.44,-812.443 1756.62,-820.87 1810,-776.5 1853.64,-740.225 1875.45,-558.456 1881.62,-497.479"/>
<polygon fill="midnightblue" stroke="midnightblue" points="1885.13,-497.559 1882.62,-487.265 1878.16,-496.876 1885.13,-497.559"/>
</g>
<!-- Node6 -->
<g id="node6" class="node"><title>Node6</title>
<g id="a_node6"><a xlink:href="../../da/d6a/classParseUtility.html#aabfa4c56607539ef14be2e2a7260006b" target="_top" xlink:title="ParseUtility::syn">
<polygon fill="white" stroke="black" points="1959,-468 1959,-487 2050,-487 2050,-468 1959,-468"/>
<text text-anchor="middle" x="2004.5" y="-475" font-family="Helvetica,sans-Serif" font-size="10.00">ParseUtility::syn</text>
</a>
</g>
</g>
<!-- Node5&#45;&gt;Node6 -->
<g id="edge5" class="edge"><title>Node5&#45;&gt;Node6</title>
<path fill="none" stroke="midnightblue" d="M1923.16,-477.5C1931.3,-477.5 1940.08,-477.5 1948.73,-477.5"/>
<polygon fill="midnightblue" stroke="midnightblue" points="1948.78,-481 1958.78,-477.5 1948.78,-474 1948.78,-481"/>
</g>
<!-- Node7 -->
<g id="node7" class="node"><title>Node7</title>
<g id="a_node7"><a xlink:href="../../d3/d5e/classParseStore.html#ab21a4aeadb4cc4938b58cbefbb8634e8" target="_top" xlink:title="ParseStore::currentInstance">
<polygon fill="white" stroke="black" points="2086,-487 2086,-506 2234,-506 2234,-487 2086,-487"/>
<text text-anchor="middle" x="2160" y="-494" font-family="Helvetica,sans-Serif" font-size="10.00">ParseStore::currentInstance</text>
</a>
</g>
</g>
<!-- Node6&#45;&gt;Node7 -->
<g id="edge6" class="edge"><title>Node6&#45;&gt;Node7</title>
<path fill="none" stroke="midnightblue" d="M2050.31,-483.047C2058.41,-484.049 2067.09,-485.124 2075.88,-486.212"/>
<polygon fill="midnightblue" stroke="midnightblue" points="2075.48,-489.688 2085.83,-487.443 2076.34,-482.741 2075.48,-489.688"/>
</g>
<!-- Node8 -->
<g id="node8" class="node"><title>Node8</title>
<g id="a_node8"><a xlink:href="../../d3/d5e/classParseStore.html#ae7b3d82d22174c1a1165a592d6c1700c" target="_top" xlink:title="ParseStore::filename">
<polygon fill="white" stroke="black" points="2103,-449 2103,-468 2217,-468 2217,-449 2103,-449"/>
<text text-anchor="middle" x="2160" y="-456" font-family="Helvetica,sans-Serif" font-size="10.00">ParseStore::filename</text>
</a>
</g>
</g>
<!-- Node6&#45;&gt;Node8 -->
<g id="edge7" class="edge"><title>Node6&#45;&gt;Node8</title>
<path fill="none" stroke="midnightblue" d="M2050.31,-471.953C2063.56,-470.314 2078.35,-468.483 2092.64,-466.713"/>
<polygon fill="midnightblue" stroke="midnightblue" points="2093.45,-470.141 2102.94,-465.439 2092.59,-463.194 2093.45,-470.141"/>
</g>
<!-- Node9&#45;&gt;Node5 -->
<g id="edge54" class="edge"><title>Node9&#45;&gt;Node5</title>
<path fill="none" stroke="midnightblue" d="M262.026,-696.157C282.088,-704.789 313.031,-717.174 341,-724.5 449.72,-752.976 478.613,-762.5 591,-762.5 591,-762.5 591,-762.5 1563,-762.5 1618.05,-762.5 1767.51,-778.499 1810,-743.5 1848.84,-711.513 1873.42,-552.966 1881,-497.057"/>
<polygon fill="midnightblue" stroke="midnightblue" points="1884.48,-497.41 1882.32,-487.038 1877.54,-496.494 1884.48,-497.41"/>
</g>
<!-- Node10 -->
<g id="node10" class="node"><title>Node10</title>
<g id="a_node10"><a xlink:href="../../d0/df6/classCParser.html#a10a7b42902ca78cb3c11c04eb3b55d96" target="_top" xlink:title="CParser::builtin_type">
<polygon fill="white" stroke="black" points="1505.5,-715 1505.5,-734 1618.5,-734 1618.5,-715 1505.5,-715"/>
<text text-anchor="middle" x="1562" y="-722" font-family="Helvetica,sans-Serif" font-size="10.00">CParser::builtin_type</text>
</a>
</g>
</g>
<!-- Node9&#45;&gt;Node10 -->
<g id="edge10" class="edge"><title>Node9&#45;&gt;Node10</title>
<path fill="none" stroke="midnightblue" d="M294.642,-696.04C363.336,-707.296 485.57,-724.5 591,-724.5 591,-724.5 591,-724.5 1204.5,-724.5 1305.96,-724.5 1423.67,-724.5 1495.21,-724.5"/>
<polygon fill="midnightblue" stroke="midnightblue" points="1495.42,-728 1505.42,-724.5 1495.42,-721 1495.42,-728"/>
</g>
<!-- Node12 -->
<g id="node12" class="node"><title>Node12</title>
<g id="a_node12"><a xlink:href="../../d0/df6/classCParser.html#ab3ce487b55d4cee3cdcb791d4f7c33b0" target="_top" xlink:title="CParser::user_type">
<polygon fill="white" stroke="black" points="359,-639 359,-658 466,-658 466,-639 359,-639"/>
<text text-anchor="middle" x="412.5" y="-646" font-family="Helvetica,sans-Serif" font-size="10.00">CParser::user_type</text>
</a>
</g>
</g>
<!-- Node9&#45;&gt;Node12 -->
<g id="edge14" class="edge"><title>Node9&#45;&gt;Node12</title>
<path fill="none" stroke="midnightblue" d="M283.651,-676.911C306.419,-671.851 334.548,-665.6 358.619,-660.251"/>
<polygon fill="midnightblue" stroke="midnightblue" points="359.657,-663.606 368.66,-658.02 358.139,-656.773 359.657,-663.606"/>
</g>
<!-- Node10&#45;&gt;Node5 -->
<g id="edge13" class="edge"><title>Node10&#45;&gt;Node5</title>
<path fill="none" stroke="midnightblue" d="M1610.58,-714.99C1678.03,-701.146 1794.97,-675.663 1810,-662.5 1860.19,-618.548 1876.48,-535.695 1881.46,-497.595"/>
<polygon fill="midnightblue" stroke="midnightblue" points="1884.97,-497.64 1882.66,-487.3 1878.02,-496.825 1884.97,-497.64"/>
</g>
<!-- Node11 -->
<g id="node11" class="node"><title>Node11</title>
<g id="a_node11"><a xlink:href="../../d0/df6/classCParser.html#a2892a3b78b33e67d6b648ed24668fed0" target="_top" xlink:title="CParser::type_keyword">
<polygon fill="white" stroke="black" points="1670,-715 1670,-734 1796,-734 1796,-715 1670,-715"/>
<text text-anchor="middle" x="1733" y="-722" font-family="Helvetica,sans-Serif" font-size="10.00">CParser::type_keyword</text>
</a>
</g>
</g>
<!-- Node10&#45;&gt;Node11 -->
<g id="edge11" class="edge"><title>Node10&#45;&gt;Node11</title>
<path fill="none" stroke="midnightblue" d="M1618.81,-724.5C1631.83,-724.5 1645.89,-724.5 1659.52,-724.5"/>
<polygon fill="midnightblue" stroke="midnightblue" points="1659.83,-728 1669.83,-724.5 1659.83,-721 1659.83,-728"/>
</g>
<!-- Node11&#45;&gt;Node5 -->
<g id="edge12" class="edge"><title>Node11&#45;&gt;Node5</title>
<path fill="none" stroke="midnightblue" d="M1787.1,-714.91C1795.55,-711.477 1803.6,-706.82 1810,-700.5 1867.78,-643.442 1880.14,-540.16 1882.78,-497.136"/>
<polygon fill="midnightblue" stroke="midnightblue" points="1886.28,-497.284 1883.28,-487.122 1879.29,-496.935 1886.28,-497.284"/>
</g>
<!-- Node12&#45;&gt;Node5 -->
<g id="edge53" class="edge"><title>Node12&#45;&gt;Node5</title>
<path fill="none" stroke="midnightblue" d="M466.02,-639.83C538.631,-628.614 673.881,-610.5 790,-610.5 790,-610.5 790,-610.5 1563,-610.5 1673.34,-610.5 1715.19,-641.95 1810,-585.5 1844.27,-565.093 1866.15,-521.751 1876.48,-496.619"/>
<polygon fill="midnightblue" stroke="midnightblue" points="1879.83,-497.672 1880.2,-487.084 1873.31,-495.125 1879.83,-497.672"/>
</g>
<!-- Node13 -->
<g id="node13" class="node"><title>Node13</title>
<g id="a_node13"><a xlink:href="../../d0/df6/classCParser.html#a631e11d228a64f7cd7eaa437a58d2bca" target="_top" xlink:title="CParser::class_key">
<polygon fill="white" stroke="black" points="1337,-639 1337,-658 1444,-658 1444,-639 1337,-639"/>
<text text-anchor="middle" x="1390.5" y="-646" font-family="Helvetica,sans-Serif" font-size="10.00">CParser::class_key</text>
</a>
</g>
</g>
<!-- Node12&#45;&gt;Node13 -->
<g id="edge15" class="edge"><title>Node12&#45;&gt;Node13</title>
<path fill="none" stroke="midnightblue" d="M466.189,-648.5C538.995,-648.5 674.468,-648.5 790,-648.5 790,-648.5 790,-648.5 1007,-648.5 1119.58,-648.5 1250.79,-648.5 1326.59,-648.5"/>
<polygon fill="midnightblue" stroke="midnightblue" points="1326.91,-652 1336.91,-648.5 1326.91,-645 1326.91,-652"/>
</g>
<!-- Node14 -->
<g id="node14" class="node"><title>Node14</title>
<g id="a_node14"><a xlink:href="../../d0/df6/classCParser.html#ac121563570276b8286f8351a4f69e56e" target="_top" xlink:title="CParser::scoped_identifier">
<polygon fill="white" stroke="black" points="521.5,-506 521.5,-525 662.5,-525 662.5,-506 521.5,-506"/>
<text text-anchor="middle" x="592" y="-513" font-family="Helvetica,sans-Serif" font-size="10.00">CParser::scoped_identifier</text>
</a>
</g>
</g>
<!-- Node12&#45;&gt;Node14 -->
<g id="edge18" class="edge"><title>Node12&#45;&gt;Node14</title>
<path fill="none" stroke="midnightblue" d="M426.265,-638.935C456.438,-616.327 532.411,-559.4 569.694,-531.464"/>
<polygon fill="midnightblue" stroke="midnightblue" points="571.967,-534.135 577.871,-525.337 567.77,-528.533 571.967,-534.135"/>
</g>
<!-- Node29 -->
<g id="node29" class="node"><title>Node29</title>
<g id="a_node29"><a xlink:href="../../da/d6a/classParseUtility.html#a128c7755b687730e50a5c063261f6c78" target="_top" xlink:title="ParseUtility::scopeCombine">
<polygon fill="white" stroke="black" points="520,-677 520,-696 664,-696 664,-677 520,-677"/>
<text text-anchor="middle" x="592" y="-684" font-family="Helvetica,sans-Serif" font-size="10.00">ParseUtility::scopeCombine</text>
</a>
</g>
</g>
<!-- Node12&#45;&gt;Node29 -->
<g id="edge51" class="edge"><title>Node12&#45;&gt;Node29</title>
<path fill="none" stroke="midnightblue" d="M458.291,-658.089C482.03,-663.171 511.384,-669.455 536.444,-674.82"/>
<polygon fill="midnightblue" stroke="midnightblue" points="536.02,-678.309 546.531,-676.98 537.486,-671.464 536.02,-678.309"/>
</g>
<!-- Node13&#45;&gt;Node4 -->
<g id="edge16" class="edge"><title>Node13&#45;&gt;Node4</title>
<path fill="none" stroke="midnightblue" d="M1444.2,-648.5C1460.46,-648.5 1478.56,-648.5 1495.57,-648.5"/>
<polygon fill="midnightblue" stroke="midnightblue" points="1495.99,-652 1505.99,-648.5 1495.99,-645 1495.99,-652"/>
</g>
<!-- Node13&#45;&gt;Node5 -->
<g id="edge17" class="edge"><title>Node13&#45;&gt;Node5</title>
<path fill="none" stroke="midnightblue" d="M1437.26,-658.012C1457.6,-661.778 1481.89,-665.646 1504,-667.5 1555.38,-671.808 1568.76,-673.225 1620,-667.5 1641.51,-665.096 1792.97,-637.854 1810,-624.5 1851.78,-591.747 1871.66,-528.952 1879.4,-497.086"/>
<polygon fill="midnightblue" stroke="midnightblue" points="1882.84,-497.731 1881.64,-487.204 1876.01,-496.179 1882.84,-497.731"/>
</g>
<!-- Node14&#45;&gt;Node5 -->
<g id="edge50" class="edge"><title>Node14&#45;&gt;Node5</title>
<path fill="none" stroke="midnightblue" d="M605.676,-505.815C647.976,-473.841 788.909,-370.069 918,-306.5 1228.68,-153.51 1311.23,-89.0954 1656,-56.5 1724.14,-50.0578 1757.61,-12.4605 1810,-56.5 1872.4,-108.948 1881.83,-381.496 1883.25,-457.691"/>
<polygon fill="midnightblue" stroke="midnightblue" points="1879.75,-457.874 1883.41,-467.817 1886.75,-457.762 1879.75,-457.874"/>
</g>
<!-- Node15 -->
<g id="node15" class="node"><title>Node15</title>
<g id="a_node15"><a xlink:href="../../d0/df6/classCParser.html#a8b303b41d0199334a5987bb471063729" target="_top" xlink:title="CParser::explicit_scope_spec">
<polygon fill="white" stroke="black" points="1313,-563 1313,-582 1468,-582 1468,-563 1313,-563"/>
<text text-anchor="middle" x="1390.5" y="-570" font-family="Helvetica,sans-Serif" font-size="10.00">CParser::explicit_scope_spec</text>
</a>
</g>
</g>
<!-- Node14&#45;&gt;Node15 -->
<g id="edge19" class="edge"><title>Node14&#45;&gt;Node15</title>
<path fill="none" stroke="midnightblue" d="M662.638,-520.484C808.033,-530.888 1143.54,-554.898 1302.69,-566.288"/>
<polygon fill="midnightblue" stroke="midnightblue" points="1302.69,-569.797 1312.92,-567.02 1303.19,-562.815 1302.69,-569.797"/>
</g>
<!-- Node18 -->
<g id="node18" class="node"><title>Node18</title>
<g id="a_node18"><a xlink:href="../../d0/df6/classCParser.html#aea0a3166305befe762f047b6e4a6f90f" target="_top" xlink:title="CParser::unscoped_member_name">
<polygon fill="white" stroke="black" points="700,-449 700,-468 882,-468 882,-449 700,-449"/>
<text text-anchor="middle" x="791" y="-456" font-family="Helvetica,sans-Serif" font-size="10.00">CParser::unscoped_member_name</text>
</a>
</g>
</g>
<!-- Node14&#45;&gt;Node18 -->
<g id="edge27" class="edge"><title>Node14&#45;&gt;Node18</title>
<path fill="none" stroke="midnightblue" d="M625.973,-505.959C659.213,-496.342 710.674,-481.452 747.078,-470.919"/>
<polygon fill="midnightblue" stroke="midnightblue" points="748.286,-474.213 756.919,-468.072 746.34,-467.489 748.286,-474.213"/>
</g>
<!-- Node15&#45;&gt;Node4 -->
<g id="edge25" class="edge"><title>Node15&#45;&gt;Node4</title>
<path fill="none" stroke="midnightblue" d="M1412.97,-582.125C1442.64,-595.431 1496.37,-619.52 1530.28,-634.728"/>
<polygon fill="midnightblue" stroke="midnightblue" points="1529.15,-638.055 1539.71,-638.953 1532.01,-631.668 1529.15,-638.055"/>
</g>
<!-- Node15&#45;&gt;Node5 -->
<g id="edge26" class="edge"><title>Node15&#45;&gt;Node5</title>
<path fill="none" stroke="midnightblue" d="M1444.25,-582.046C1526.51,-594.382 1688.51,-608.301 1810,-553.5 1837.2,-541.233 1859.49,-513.906 1872.14,-495.587"/>
<polygon fill="midnightblue" stroke="midnightblue" points="1875.1,-497.46 1877.7,-487.19 1869.26,-493.593 1875.1,-497.46"/>
</g>
<!-- Node16 -->
<g id="node16" class="node"><title>Node16</title>
<g id="a_node16"><a xlink:href="../../d0/df6/classCParser.html#a729069b96fa400ec2fd9a34d4016fcdb" target="_top" xlink:title="CParser::angle_block">
<polygon fill="white" stroke="black" points="1504,-525 1504,-544 1620,-544 1620,-525 1504,-525"/>
<text text-anchor="middle" x="1562" y="-532" font-family="Helvetica,sans-Serif" font-size="10.00">CParser::angle_block</text>
</a>
</g>
</g>
<!-- Node15&#45;&gt;Node16 -->
<g id="edge20" class="edge"><title>Node15&#45;&gt;Node16</title>
<path fill="none" stroke="midnightblue" d="M1434.27,-562.911C1456.84,-557.851 1484.72,-551.6 1508.58,-546.251"/>
<polygon fill="midnightblue" stroke="midnightblue" points="1509.54,-549.623 1518.54,-544.02 1508.01,-542.792 1509.54,-549.623"/>
</g>
<!-- Node16&#45;&gt;Node5 -->
<g id="edge24" class="edge"><title>Node16&#45;&gt;Node5</title>
<path fill="none" stroke="midnightblue" d="M1607.87,-524.992C1623.13,-521.851 1640.28,-518.417 1656,-515.5 1718.04,-503.985 1789.91,-492.247 1835.99,-484.925"/>
<polygon fill="midnightblue" stroke="midnightblue" points="1836.66,-488.363 1845.99,-483.341 1835.56,-481.449 1836.66,-488.363"/>
</g>
<!-- Node17 -->
<g id="node17" class="node"><title>Node17</title>
<g id="a_node17"><a xlink:href="../../d0/df6/classCParser.html#aa127d8f0df3a28071ce4fe43684632ef" target="_top" xlink:title="CParser::angle_balanced_list">
<polygon fill="white" stroke="black" points="1656,-525 1656,-544 1810,-544 1810,-525 1656,-525"/>
<text text-anchor="middle" x="1733" y="-532" font-family="Helvetica,sans-Serif" font-size="10.00">CParser::angle_balanced_list</text>
</a>
</g>
</g>
<!-- Node16&#45;&gt;Node17 -->
<g id="edge21" class="edge"><title>Node16&#45;&gt;Node17</title>
<path fill="none" stroke="midnightblue" d="M1620.22,-528.073C1628.47,-527.871 1637.12,-527.764 1645.8,-527.751"/>
<polygon fill="midnightblue" stroke="midnightblue" points="1645.96,-531.252 1655.97,-527.78 1645.98,-524.252 1645.96,-531.252"/>
</g>
<!-- Node17&#45;&gt;Node5 -->
<g id="edge23" class="edge"><title>Node17&#45;&gt;Node5</title>
<path fill="none" stroke="midnightblue" d="M1767.21,-524.929C1780.62,-520.827 1796.16,-515.77 1810,-510.5 1824.94,-504.811 1841.18,-497.626 1854.59,-491.414"/>
<polygon fill="midnightblue" stroke="midnightblue" points="1856.23,-494.512 1863.8,-487.098 1853.26,-488.174 1856.23,-494.512"/>
</g>
<!-- Node17&#45;&gt;Node16 -->
<g id="edge22" class="edge"><title>Node17&#45;&gt;Node16</title>
<path fill="none" stroke="midnightblue" d="M1655.97,-541.22C1647.42,-541.281 1638.77,-541.249 1630.35,-541.125"/>
<polygon fill="midnightblue" stroke="midnightblue" points="1630.28,-537.623 1620.22,-540.927 1630.15,-544.622 1630.28,-537.623"/>
</g>
<!-- Node18&#45;&gt;Node5 -->
<g id="edge49" class="edge"><title>Node18&#45;&gt;Node5</title>
<path fill="none" stroke="midnightblue" d="M882.091,-458.5C965.261,-458.5 1092.21,-458.5 1202.5,-458.5 1202.5,-458.5 1202.5,-458.5 1563,-458.5 1659.89,-458.5 1772.97,-467.26 1835.58,-472.883"/>
<polygon fill="midnightblue" stroke="midnightblue" points="1835.28,-476.371 1845.55,-473.792 1835.91,-469.399 1835.28,-476.371"/>
</g>
<!-- Node18&#45;&gt;Node16 -->
<g id="edge28" class="edge"><title>Node18&#45;&gt;Node16</title>
<path fill="none" stroke="midnightblue" d="M876.024,-468.008C890.038,-469.544 904.427,-471.092 918,-472.5 1127.8,-494.269 1376.38,-517.515 1493.53,-528.319"/>
<polygon fill="midnightblue" stroke="midnightblue" points="1493.49,-531.831 1503.77,-529.263 1494.13,-524.86 1493.49,-531.831"/>
</g>
<!-- Node19 -->
<g id="node19" class="node"><title>Node19</title>
<g id="a_node19"><a xlink:href="../../d0/df6/classCParser.html#ac5cba09faa6ccf6314b75950f0d8e40e" target="_top" xlink:title="CParser::dtor_member_name">
<polygon fill="white" stroke="black" points="928.5,-411 928.5,-430 1083.5,-430 1083.5,-411 928.5,-411"/>
<text text-anchor="middle" x="1006" y="-418" font-family="Helvetica,sans-Serif" font-size="10.00">CParser::dtor_member_name</text>
</a>
</g>
</g>
<!-- Node18&#45;&gt;Node19 -->
<g id="edge29" class="edge"><title>Node18&#45;&gt;Node19</title>
<path fill="none" stroke="midnightblue" d="M845.474,-448.96C874.592,-443.765 910.811,-437.304 941.374,-431.851"/>
<polygon fill="midnightblue" stroke="midnightblue" points="942.274,-435.246 951.504,-430.044 941.045,-428.355 942.274,-435.246"/>
</g>
<!-- Node20 -->
<g id="node20" class="node"><title>Node20</title>
<g id="a_node20"><a xlink:href="../../d0/df6/classCParser.html#ac99dcea42e50abf304d0a7bb001b1829" target="_top" xlink:title="CParser::operator_member_name">
<polygon fill="white" stroke="black" points="918,-316 918,-335 1094,-335 1094,-316 918,-316"/>
<text text-anchor="middle" x="1006" y="-323" font-family="Helvetica,sans-Serif" font-size="10.00">CParser::operator_member_name</text>
</a>
</g>
</g>
<!-- Node18&#45;&gt;Node20 -->
<g id="edge31" class="edge"><title>Node18&#45;&gt;Node20</title>
<path fill="none" stroke="midnightblue" d="M807.318,-448.935C843.92,-426.081 936.687,-368.155 980.879,-340.561"/>
<polygon fill="midnightblue" stroke="midnightblue" points="982.906,-343.422 989.534,-335.157 979.198,-337.485 982.906,-343.422"/>
</g>
<!-- Node19&#45;&gt;Node5 -->
<g id="edge30" class="edge"><title>Node19&#45;&gt;Node5</title>
<path fill="none" stroke="midnightblue" d="M1083.56,-420.5C1160.78,-420.5 1283.42,-420.5 1389.5,-420.5 1389.5,-420.5 1389.5,-420.5 1563,-420.5 1673.29,-420.5 1703.4,-416.206 1810,-444.5 1826.32,-448.831 1843.59,-456.414 1857.28,-463.22"/>
<polygon fill="midnightblue" stroke="midnightblue" points="1856.07,-466.529 1866.56,-467.98 1859.26,-460.301 1856.07,-466.529"/>
</g>
<!-- Node20&#45;&gt;Node5 -->
<g id="edge48" class="edge"><title>Node20&#45;&gt;Node5</title>
<path fill="none" stroke="midnightblue" d="M1045.27,-315.959C1113.81,-299.733 1262.27,-268.5 1389.5,-268.5 1389.5,-268.5 1389.5,-268.5 1563,-268.5 1673.1,-268.5 1721.64,-221.816 1810,-287.5 1865.54,-328.789 1879.12,-417.971 1882.43,-457.704"/>
<polygon fill="midnightblue" stroke="midnightblue" points="1878.96,-458.198 1883.14,-467.931 1885.94,-457.712 1878.96,-458.198"/>
</g>
<!-- Node21 -->
<g id="node21" class="node"><title>Node21</title>
<g id="a_node21"><a xlink:href="../../d0/df6/classCParser.html#a4bf5a797adb8a33705182662a6a8f45b" target="_top" xlink:title="CParser::operator_identifier">
<polygon fill="white" stroke="black" points="1130,-316 1130,-335 1277,-335 1277,-316 1130,-316"/>
<text text-anchor="middle" x="1203.5" y="-323" font-family="Helvetica,sans-Serif" font-size="10.00">CParser::operator_identifier</text>
</a>
</g>
</g>
<!-- Node20&#45;&gt;Node21 -->
<g id="edge32" class="edge"><title>Node20&#45;&gt;Node21</title>
<path fill="none" stroke="midnightblue" d="M1094.17,-325.5C1102.64,-325.5 1111.22,-325.5 1119.64,-325.5"/>
<polygon fill="midnightblue" stroke="midnightblue" points="1119.83,-329 1129.83,-325.5 1119.83,-322 1119.83,-329"/>
</g>
<!-- Node21&#45;&gt;Node5 -->
<g id="edge47" class="edge"><title>Node21&#45;&gt;Node5</title>
<path fill="none" stroke="midnightblue" d="M1277.11,-329.452C1435.46,-338.183 1798.62,-358.865 1810,-365.5 1845.67,-386.303 1867.21,-432.119 1877.07,-458.249"/>
<polygon fill="midnightblue" stroke="midnightblue" points="1873.83,-459.571 1880.49,-467.812 1880.42,-457.217 1873.83,-459.571"/>
</g>
<!-- Node22 -->
<g id="node22" class="node"><title>Node22</title>
<g id="a_node22"><a xlink:href="../../d0/df6/classCParser.html#a177b7d8d53b6d7c2c89bbea896b3d154" target="_top" xlink:title="CParser::op">
<polygon fill="white" stroke="black" points="1697,-297 1697,-316 1769,-316 1769,-297 1697,-297"/>
<text text-anchor="middle" x="1733" y="-304" font-family="Helvetica,sans-Serif" font-size="10.00">CParser::op</text>
</a>
</g>
</g>
<!-- Node21&#45;&gt;Node22 -->
<g id="edge33" class="edge"><title>Node21&#45;&gt;Node22</title>
<path fill="none" stroke="midnightblue" d="M1277.02,-322.888C1387.69,-318.902 1595.5,-311.417 1686.91,-308.124"/>
<polygon fill="midnightblue" stroke="midnightblue" points="1687.08,-311.62 1696.94,-307.763 1686.82,-304.625 1687.08,-311.62"/>
</g>
<!-- Node23 -->
<g id="node23" class="node"><title>Node23</title>
<g id="a_node23"><a xlink:href="../../d0/df6/classCParser.html#ab214b7a662d6c62ddf8d51f0116865cf" target="_top" xlink:title="CParser::new_or_delete">
<polygon fill="white" stroke="black" points="1325,-373 1325,-392 1456,-392 1456,-373 1325,-373"/>
<text text-anchor="middle" x="1390.5" y="-380" font-family="Helvetica,sans-Serif" font-size="10.00">CParser::new_or_delete</text>
</a>
</g>
</g>
<!-- Node21&#45;&gt;Node23 -->
<g id="edge35" class="edge"><title>Node21&#45;&gt;Node23</title>
<path fill="none" stroke="midnightblue" d="M1235.46,-335.041C1266.55,-344.617 1314.59,-359.421 1348.75,-369.946"/>
<polygon fill="midnightblue" stroke="midnightblue" points="1347.85,-373.329 1358.43,-372.928 1349.91,-366.639 1347.85,-373.329"/>
</g>
<!-- Node24 -->
<g id="node24" class="node"><title>Node24</title>
<g id="a_node24"><a xlink:href="../../d0/df6/classCParser.html#a5426875088dc6d2b5deaef3b61c55135" target="_top" xlink:title="CParser::type">
<polygon fill="white" stroke="black" points="1350.5,-164 1350.5,-183 1430.5,-183 1430.5,-164 1350.5,-164"/>
<text text-anchor="middle" x="1390.5" y="-171" font-family="Helvetica,sans-Serif" font-size="10.00">CParser::type</text>
</a>
</g>
</g>
<!-- Node21&#45;&gt;Node24 -->
<g id="edge37" class="edge"><title>Node21&#45;&gt;Node24</title>
<path fill="none" stroke="midnightblue" d="M1216.07,-315.992C1246.96,-290.614 1331.6,-221.069 1370.05,-189.484"/>
<polygon fill="midnightblue" stroke="midnightblue" points="1372.43,-192.057 1377.93,-183.005 1367.98,-186.649 1372.43,-192.057"/>
</g>
<!-- Node22&#45;&gt;Node5 -->
<g id="edge34" class="edge"><title>Node22&#45;&gt;Node5</title>
<path fill="none" stroke="midnightblue" d="M1769.05,-311.467C1783.05,-314.905 1798.53,-320.709 1810,-330.5 1850.21,-364.814 1870.71,-426.443 1878.97,-457.886"/>
<polygon fill="midnightblue" stroke="midnightblue" points="1875.68,-459.132 1881.48,-467.998 1882.47,-457.449 1875.68,-459.132"/>
</g>
<!-- Node23&#45;&gt;Node5 -->
<g id="edge36" class="edge"><title>Node23&#45;&gt;Node5</title>
<path fill="none" stroke="midnightblue" d="M1454.55,-372.974C1539.3,-363.026 1692.84,-355.201 1810,-406.5 1836.02,-417.892 1858.24,-442.802 1871.24,-459.868"/>
<polygon fill="midnightblue" stroke="midnightblue" points="1868.43,-461.963 1877.16,-467.964 1874.08,-457.828 1868.43,-461.963"/>
</g>
<!-- Node24&#45;&gt;Node5 -->
<g id="edge46" class="edge"><title>Node24&#45;&gt;Node5</title>
<path fill="none" stroke="midnightblue" d="M1430.78,-167.358C1523.43,-153.786 1752.15,-125.903 1810,-171.5 1855.75,-207.56 1876.28,-395.841 1881.86,-457.749"/>
<polygon fill="midnightblue" stroke="midnightblue" points="1878.38,-458.113 1882.73,-467.772 1885.35,-457.507 1878.38,-458.113"/>
</g>
<!-- Node24&#45;&gt;Node9 -->
<g id="edge41" class="edge"><title>Node24&#45;&gt;Node9</title>
<path fill="none" stroke="midnightblue" d="M1350.4,-173.5C1281.18,-173.5 1132.51,-173.5 1007,-173.5 591,-173.5 591,-173.5 591,-173.5 347.418,-173.5 260.838,-572.675 243.809,-666.792"/>
<polygon fill="midnightblue" stroke="midnightblue" points="240.35,-666.256 242.072,-676.71 247.245,-667.464 240.35,-666.256"/>
</g>
<!-- Node25 -->
<g id="node25" class="node"><title>Node25</title>
<g id="a_node25"><a xlink:href="../../d0/df6/classCParser.html#aeb64a7eb39e1e247d6b06c833355fd1d" target="_top" xlink:title="CParser::cv_qualifier">
<polygon fill="white" stroke="black" points="1505.5,-183 1505.5,-202 1618.5,-202 1618.5,-183 1505.5,-183"/>
<text text-anchor="middle" x="1562" y="-190" font-family="Helvetica,sans-Serif" font-size="10.00">CParser::cv_qualifier</text>
</a>
</g>
</g>
<!-- Node24&#45;&gt;Node25 -->
<g id="edge38" class="edge"><title>Node24&#45;&gt;Node25</title>
<path fill="none" stroke="midnightblue" d="M1430.81,-177.907C1449.89,-180.046 1473.34,-182.673 1495.05,-185.107"/>
<polygon fill="midnightblue" stroke="midnightblue" points="1494.88,-188.61 1505.21,-186.246 1495.66,-181.654 1494.88,-188.61"/>
</g>
<!-- Node27 -->
<g id="node27" class="node"><title>Node27</title>
<g id="a_node27"><a xlink:href="../../d0/df6/classCParser.html#acec16523a6abcc5dcaa503fdfec12d5e" target="_top" xlink:title="CParser::indirection\l_modifiers">
<polygon fill="white" stroke="black" points="1507.5,-95.5 1507.5,-125.5 1616.5,-125.5 1616.5,-95.5 1507.5,-95.5"/>
<text text-anchor="start" x="1515.5" y="-113.5" font-family="Helvetica,sans-Serif" font-size="10.00">CParser::indirection</text>
<text text-anchor="middle" x="1562" y="-102.5" font-family="Helvetica,sans-Serif" font-size="10.00">_modifiers</text>
</a>
</g>
</g>
<!-- Node24&#45;&gt;Node27 -->
<g id="edge42" class="edge"><title>Node24&#45;&gt;Node27</title>
<path fill="none" stroke="midnightblue" d="M1417.24,-163.932C1441.98,-154.738 1480.03,-140.595 1510.77,-129.17"/>
<polygon fill="midnightblue" stroke="midnightblue" points="1512.31,-132.33 1520.47,-125.565 1509.87,-125.768 1512.31,-132.33"/>
</g>
<!-- Node25&#45;&gt;Node5 -->
<g id="edge40" class="edge"><title>Node25&#45;&gt;Node5</title>
<path fill="none" stroke="midnightblue" d="M1602.26,-182.985C1655.66,-172.547 1751.24,-163.103 1810,-211.5 1848.84,-243.487 1873.42,-402.034 1881,-457.943"/>
<polygon fill="midnightblue" stroke="midnightblue" points="1877.54,-458.506 1882.32,-467.962 1884.48,-457.59 1877.54,-458.506"/>
</g>
<!-- Node26 -->
<g id="node26" class="node"><title>Node26</title>
<g id="a_node26"><a xlink:href="../../d0/df6/classCParser.html#a2912da073892123622f3c380820f7a12" target="_top" xlink:title="CParser::typeCombine">
<polygon fill="white" stroke="black" points="1672,-221 1672,-240 1794,-240 1794,-221 1672,-221"/>
<text text-anchor="middle" x="1733" y="-228" font-family="Helvetica,sans-Serif" font-size="10.00">CParser::typeCombine</text>
</a>
</g>
</g>
<!-- Node25&#45;&gt;Node26 -->
<g id="edge39" class="edge"><title>Node25&#45;&gt;Node26</title>
<path fill="none" stroke="midnightblue" d="M1605.65,-202.089C1628.15,-207.149 1655.95,-213.4 1679.74,-218.749"/>
<polygon fill="midnightblue" stroke="midnightblue" points="1679.14,-222.201 1689.66,-220.98 1680.67,-215.371 1679.14,-222.201"/>
</g>
<!-- Node27&#45;&gt;Node5 -->
<g id="edge45" class="edge"><title>Node27&#45;&gt;Node5</title>
<path fill="none" stroke="midnightblue" d="M1592.42,-95.3805C1643.11,-71.6926 1747.48,-33.6137 1810,-85.5 1868.16,-133.771 1880.58,-384.808 1882.97,-457.66"/>
<polygon fill="midnightblue" stroke="midnightblue" points="1879.48,-457.874 1883.28,-467.765 1886.47,-457.664 1879.48,-457.874"/>
</g>
<!-- Node28 -->
<g id="node28" class="node"><title>Node28</title>
<g id="a_node28"><a xlink:href="../../d0/df6/classCParser.html#a80be2f0d41b613906058b6df76ce7815" target="_top" xlink:title="CParser::indirection\l_modifier">
<polygon fill="white" stroke="black" points="1678.5,-95.5 1678.5,-125.5 1787.5,-125.5 1787.5,-95.5 1678.5,-95.5"/>
<text text-anchor="start" x="1686.5" y="-113.5" font-family="Helvetica,sans-Serif" font-size="10.00">CParser::indirection</text>
<text text-anchor="middle" x="1733" y="-102.5" font-family="Helvetica,sans-Serif" font-size="10.00">_modifier</text>
</a>
</g>
</g>
<!-- Node27&#45;&gt;Node28 -->
<g id="edge43" class="edge"><title>Node27&#45;&gt;Node28</title>
<path fill="none" stroke="midnightblue" d="M1616.94,-110.5C1633.18,-110.5 1651.16,-110.5 1667.98,-110.5"/>
<polygon fill="midnightblue" stroke="midnightblue" points="1668.29,-114 1678.29,-110.5 1668.29,-107 1668.29,-114"/>
</g>
<!-- Node28&#45;&gt;Node5 -->
<g id="edge44" class="edge"><title>Node28&#45;&gt;Node5</title>
<path fill="none" stroke="midnightblue" d="M1787.81,-123.951C1796.19,-128.085 1804.03,-133.476 1810,-140.5 1851.63,-189.449 1875.12,-393.173 1881.62,-457.763"/>
<polygon fill="midnightblue" stroke="midnightblue" points="1878.15,-458.219 1882.61,-467.829 1885.12,-457.535 1878.15,-458.219"/>
</g>
<!-- Node30 -->
<g id="node30" class="node"><title>Node30</title>
<g id="a_node30"><a xlink:href="../../d4/d6e/classCCCC__Project.html#ac0565e746210778bc6f165130464041b" target="_top" xlink:title="CCCC_Project::name">
<polygon fill="white" stroke="black" points="733,-677 733,-696 849,-696 849,-677 733,-677"/>
<text text-anchor="middle" x="791" y="-684" font-family="Helvetica,sans-Serif" font-size="10.00">CCCC_Project::name</text>
</a>
</g>
</g>
<!-- Node29&#45;&gt;Node30 -->
<g id="edge52" class="edge"><title>Node29&#45;&gt;Node30</title>
<path fill="none" stroke="midnightblue" d="M664.122,-686.5C683.273,-686.5 703.924,-686.5 722.851,-686.5"/>
<polygon fill="midnightblue" stroke="midnightblue" points="722.871,-690 732.871,-686.5 722.871,-683 722.871,-690"/>
</g>
<!-- Node32 -->
<g id="node32" class="node"><title>Node32</title>
<g id="a_node32"><a xlink:href="../../db/d6a/classCCCC__Item.html#a87231c9aa43ece932511d1143b64367e" target="_top" xlink:title="CCCC_Item::Insert">
<polygon fill="white" stroke="black" points="540,-12 540,-31 644,-31 644,-12 540,-12"/>
<text text-anchor="middle" x="592" y="-19" font-family="Helvetica,sans-Serif" font-size="10.00">CCCC_Item::Insert</text>
</a>
</g>
</g>
<!-- Node31&#45;&gt;Node32 -->
<g id="edge56" class="edge"><title>Node31&#45;&gt;Node32</title>
<path fill="none" stroke="midnightblue" d="M279.582,-101.429C305.068,-91.6527 334.727,-80.3913 341,-78.5 404.533,-59.345 478.84,-43.1714 529.833,-33.0016"/>
<polygon fill="midnightblue" stroke="midnightblue" points="530.58,-36.4219 539.711,-31.0486 529.222,-29.5548 530.58,-36.4219"/>
</g>
<!-- Node33 -->
<g id="node33" class="node"><title>Node33</title>
<g id="a_node33"><a xlink:href="../../d3/d5e/classParseStore.html#a058a15dda767cb8cf60dc578ec8ffb38" target="_top" xlink:title="ParseStore::flags">
<polygon fill="white" stroke="black" points="364,-126 364,-145 461,-145 461,-126 364,-126"/>
<text text-anchor="middle" x="412.5" y="-133" font-family="Helvetica,sans-Serif" font-size="10.00">ParseStore::flags</text>
</a>
</g>
</g>
<!-- Node31&#45;&gt;Node33 -->
<g id="edge57" class="edge"><title>Node31&#45;&gt;Node33</title>
<path fill="none" stroke="midnightblue" d="M292.27,-122.252C311.69,-124.41 333.876,-126.875 353.801,-129.089"/>
<polygon fill="midnightblue" stroke="midnightblue" points="353.662,-132.595 363.988,-130.221 354.435,-125.638 353.662,-132.595"/>
</g>
<!-- Node34 -->
<g id="node34" class="node"><title>Node34</title>
<g id="a_node34"><a xlink:href="../../d3/d5e/classParseStore.html#ab07edec82aea81e439fa34d2f557b36f" target="_top" xlink:title="ParseStore::insert\l_extent">
<polygon fill="white" stroke="black" points="362,-0.5 362,-30.5 463,-30.5 463,-0.5 362,-0.5"/>
<text text-anchor="start" x="370" y="-18.5" font-family="Helvetica,sans-Serif" font-size="10.00">ParseStore::insert</text>
<text text-anchor="middle" x="412.5" y="-7.5" font-family="Helvetica,sans-Serif" font-size="10.00">_extent</text>
</a>
</g>
</g>
<!-- Node31&#45;&gt;Node34 -->
<g id="edge58" class="edge"><title>Node31&#45;&gt;Node34</title>
<path fill="none" stroke="midnightblue" d="M288.208,-101.425C294.128,-98.5859 299.888,-95.2923 305,-91.5 325.85,-76.0325 320.404,-61.3048 341,-45.5 346.055,-41.6206 351.688,-38.1425 357.504,-35.0515"/>
<polygon fill="midnightblue" stroke="midnightblue" points="359.309,-38.0642 366.738,-30.5106 356.22,-31.7826 359.309,-38.0642"/>
</g>
<!-- Node35 -->
<g id="node35" class="node"><title>Node35</title>
<g id="a_node35"><a xlink:href="../../d4/d6e/classCCCC__Project.html#adae36526071c67957535938bf6401d9f" target="_top" xlink:title="CCCC_Project::add_userel">
<polygon fill="white" stroke="black" points="341,-88 341,-107 484,-107 484,-88 341,-88"/>
<text text-anchor="middle" x="412.5" y="-95" font-family="Helvetica,sans-Serif" font-size="10.00">CCCC_Project::add_userel</text>
</a>
</g>
</g>
<!-- Node31&#45;&gt;Node35 -->
<g id="edge60" class="edge"><title>Node31&#45;&gt;Node35</title>
<path fill="none" stroke="midnightblue" d="M292.27,-110.748C304.49,-109.39 317.804,-107.911 330.962,-106.449"/>
<polygon fill="midnightblue" stroke="midnightblue" points="331.42,-109.919 340.972,-105.336 330.647,-102.962 331.42,-109.919"/>
</g>
<!-- Node34&#45;&gt;Node32 -->
<g id="edge59" class="edge"><title>Node34&#45;&gt;Node32</title>
<path fill="none" stroke="midnightblue" d="M463.416,-17.1873C484.041,-17.8845 508.152,-18.6995 529.826,-19.4322"/>
<polygon fill="midnightblue" stroke="midnightblue" points="529.805,-22.9333 539.917,-19.7733 530.041,-15.9373 529.805,-22.9333"/>
</g>
<!-- Node36 -->
<g id="node36" class="node"><title>Node36</title>
<g id="a_node36"><a xlink:href="../../d8/dcf/classCCCC__Table.html#a8e08fe4f6edb07f1fbf2813c66bb3606" target="_top" xlink:title="CCCC_Table::find_or\l_insert">
<polygon fill="white" stroke="black" points="733,-107.5 733,-137.5 849,-137.5 849,-107.5 733,-107.5"/>
<text text-anchor="start" x="741" y="-125.5" font-family="Helvetica,sans-Serif" font-size="10.00">CCCC_Table::find_or</text>
<text text-anchor="middle" x="791" y="-114.5" font-family="Helvetica,sans-Serif" font-size="10.00">_insert</text>
</a>
</g>
</g>
<!-- Node35&#45;&gt;Node36 -->
<g id="edge61" class="edge"><title>Node35&#45;&gt;Node36</title>
<path fill="none" stroke="midnightblue" d="M484.317,-102.202C552.698,-106.743 655.501,-113.569 722.678,-118.03"/>
<polygon fill="midnightblue" stroke="midnightblue" points="722.523,-121.527 732.733,-118.697 722.987,-114.542 722.523,-121.527"/>
</g>
<!-- Node37 -->
<g id="node37" class="node"><title>Node37</title>
<g id="a_node37"><a xlink:href="../../d2/d65/classCCCC__UseRelationship.html#aea65f893850f8e1903c3e53ac04170f6" target="_top" xlink:title="CCCC_UseRelationship\l::add_extent">
<polygon fill="white" stroke="black" points="527,-63.5 527,-93.5 657,-93.5 657,-63.5 527,-63.5"/>
<text text-anchor="start" x="535" y="-81.5" font-family="Helvetica,sans-Serif" font-size="10.00">CCCC_UseRelationship</text>
<text text-anchor="middle" x="592" y="-70.5" font-family="Helvetica,sans-Serif" font-size="10.00">::add_extent</text>
</a>
</g>
</g>
<!-- Node35&#45;&gt;Node37 -->
<g id="edge62" class="edge"><title>Node35&#45;&gt;Node37</title>
<path fill="none" stroke="midnightblue" d="M484.163,-89.9361C494.859,-88.7911 505.922,-87.607 516.693,-86.454"/>
<polygon fill="midnightblue" stroke="midnightblue" points="517.338,-89.905 526.909,-85.3605 516.593,-82.9448 517.338,-89.905"/>
</g>
<!-- Node37&#45;&gt;Node36 -->
<g id="edge63" class="edge"><title>Node37&#45;&gt;Node36</title>
<path fill="none" stroke="midnightblue" d="M657.233,-92.8464C678.267,-97.5443 701.682,-102.774 722.921,-107.518"/>
<polygon fill="midnightblue" stroke="midnightblue" points="722.307,-110.967 732.83,-109.731 723.833,-104.135 722.307,-110.967"/>
</g>
<!-- Node38 -->
<g id="node38" class="node"><title>Node38</title>
<g id="a_node38"><a xlink:href="../../df/d99/classCCCC__Extent.html#a82a7a03bd389c67ba2f5dc7787e89739" target="_top" xlink:title="CCCC_Extent::get_visibility">
<polygon fill="white" stroke="black" points="719.5,-69 719.5,-88 862.5,-88 862.5,-69 719.5,-69"/>
<text text-anchor="middle" x="791" y="-76" font-family="Helvetica,sans-Serif" font-size="10.00">CCCC_Extent::get_visibility</text>
</a>
</g>
</g>
<!-- Node37&#45;&gt;Node38 -->
<g id="edge64" class="edge"><title>Node37&#45;&gt;Node38</title>
<path fill="none" stroke="midnightblue" d="M657.233,-78.5C673.846,-78.5 691.945,-78.5 709.284,-78.5"/>
<polygon fill="midnightblue" stroke="midnightblue" points="709.388,-82.0001 719.388,-78.5 709.388,-75.0001 709.388,-82.0001"/>
</g>
<!-- Node39 -->
<g id="node39" class="node"><title>Node39</title>
<g id="a_node39"><a xlink:href="../../df/d99/classCCCC__Extent.html#abe27f2b34d0542894c6339274e8d1834" target="_top" xlink:title="CCCC_Extent::get_usetype">
<polygon fill="white" stroke="black" points="718.5,-31 718.5,-50 863.5,-50 863.5,-31 718.5,-31"/>
<text text-anchor="middle" x="791" y="-38" font-family="Helvetica,sans-Serif" font-size="10.00">CCCC_Extent::get_usetype</text>
</a>
</g>
</g>
<!-- Node37&#45;&gt;Node39 -->
<g id="edge65" class="edge"><title>Node37&#45;&gt;Node39</title>
<path fill="none" stroke="midnightblue" d="M657.233,-66.11C680.804,-61.5631 707.367,-56.4393 730.505,-51.9762"/>
<polygon fill="midnightblue" stroke="midnightblue" points="731.375,-55.3729 740.531,-50.0422 730.05,-48.4996 731.375,-55.3729"/>
</g>
</g>
</svg>
