<?xml version="1.0" encoding="UTF-8" standalone="no"?>
<!DOCTYPE svg PUBLIC "-//W3C//DTD SVG 1.1//EN"
 "http://www.w3.org/Graphics/SVG/1.1/DTD/svg11.dtd">
<!-- Generated by graphviz version 2.38.0 (20140413.2041)
 -->
<!-- Title: CParser::class_suffix Pages: 1 -->
<svg width="1045pt" height="204pt"
 viewBox="0.00 0.00 1045.00 204.00" xmlns="http://www.w3.org/2000/svg" xmlns:xlink="http://www.w3.org/1999/xlink">
<g id="graph0" class="graph" transform="scale(1 1) rotate(0) translate(4 200)">
<title>CParser::class_suffix</title>
<polygon fill="white" stroke="none" points="-4,4 -4,-200 1041,-200 1041,4 -4,4"/>
<!-- Node1 -->
<g id="node1" class="node"><title>Node1</title>
<polygon fill="#bfbfbf" stroke="black" points="0,-12.5 0,-31.5 114,-31.5 114,-12.5 0,-12.5"/>
<text text-anchor="middle" x="57" y="-19.5" font-family="Helvetica,sans-Serif" font-size="10.00">CParser::class_suffix</text>
</g>
<!-- Node2 -->
<g id="node2" class="node"><title>Node2</title>
<g id="a_node2"><a xlink:href="../../d0/df6/classCParser.html#a1ed5fcfb2e97e3551fceabe81989a667" target="_top" xlink:title="CParser::class_declaration\l_or_definition">
<polygon fill="white" stroke="black" points="150,-29 150,-59 293,-59 293,-29 150,-29"/>
<text text-anchor="start" x="158" y="-47" font-family="Helvetica,sans-Serif" font-size="10.00">CParser::class_declaration</text>
<text text-anchor="middle" x="221.5" y="-36" font-family="Helvetica,sans-Serif" font-size="10.00">_or_definition</text>
</a>
</g>
</g>
<!-- Node1&#45;&gt;Node2 -->
<g id="edge1" class="edge"><title>Node1&#45;&gt;Node2</title>
<path fill="none" stroke="midnightblue" d="M124.473,-30.9994C132.858,-32.1346 141.46,-33.2992 149.905,-34.4426"/>
<polygon fill="midnightblue" stroke="midnightblue" points="124.758,-27.5061 114.379,-29.6328 123.819,-34.4428 124.758,-27.5061"/>
</g>
<!-- Node3 -->
<g id="node3" class="node"><title>Node3</title>
<g id="a_node3"><a xlink:href="../../d0/df6/classCParser.html#ab3ab57ace628c2476dd8dfe5a96f9a15" target="_top" xlink:title="CParser::definition\l_or_declaration">
<polygon fill="white" stroke="black" points="348,-78 348,-108 451,-108 451,-78 348,-78"/>
<text text-anchor="start" x="356" y="-96" font-family="Helvetica,sans-Serif" font-size="10.00">CParser::definition</text>
<text text-anchor="middle" x="399.5" y="-85" font-family="Helvetica,sans-Serif" font-size="10.00">_or_declaration</text>
</a>
</g>
</g>
<!-- Node2&#45;&gt;Node3 -->
<g id="edge2" class="edge"><title>Node2&#45;&gt;Node3</title>
<path fill="none" stroke="midnightblue" d="M286.474,-61.811C306.639,-67.4252 328.627,-73.5468 347.741,-78.8683"/>
<polygon fill="midnightblue" stroke="midnightblue" points="287.314,-58.4118 276.742,-59.1014 285.437,-65.1554 287.314,-58.4118"/>
</g>
<!-- Node13 -->
<g id="node13" class="node"><title>Node13</title>
<g id="a_node13"><a xlink:href="../../d0/df6/classCParser.html#a12561a45dab96760d7ab45896681dd33" target="_top" xlink:title="CParser::class_or_method\l_declaration_or_definition">
<polygon fill="white" stroke="black" points="329,-29 329,-59 470,-59 470,-29 329,-29"/>
<text text-anchor="start" x="337" y="-47" font-family="Helvetica,sans-Serif" font-size="10.00">CParser::class_or_method</text>
<text text-anchor="middle" x="399.5" y="-36" font-family="Helvetica,sans-Serif" font-size="10.00">_declaration_or_definition</text>
</a>
</g>
</g>
<!-- Node2&#45;&gt;Node13 -->
<g id="edge15" class="edge"><title>Node2&#45;&gt;Node13</title>
<path fill="none" stroke="midnightblue" d="M303.08,-44C311.659,-44 320.333,-44 328.772,-44"/>
<polygon fill="midnightblue" stroke="midnightblue" points="303.072,-40.5001 293.072,-44 303.072,-47.5001 303.072,-40.5001"/>
</g>
<!-- Node4 -->
<g id="node4" class="node"><title>Node4</title>
<g id="a_node4"><a xlink:href="../../d0/df6/classCParser.html#a2b78ab2005bef5c43ee2d4689210eab1" target="_top" xlink:title="CParser::link_item">
<polygon fill="white" stroke="black" points="525.5,-83.5 525.5,-102.5 626.5,-102.5 626.5,-83.5 525.5,-83.5"/>
<text text-anchor="middle" x="576" y="-90.5" font-family="Helvetica,sans-Serif" font-size="10.00">CParser::link_item</text>
</a>
</g>
</g>
<!-- Node3&#45;&gt;Node4 -->
<g id="edge3" class="edge"><title>Node3&#45;&gt;Node4</title>
<path fill="none" stroke="midnightblue" d="M461.514,-93C482.444,-93 505.595,-93 525.498,-93"/>
<polygon fill="midnightblue" stroke="midnightblue" points="461.442,-89.5001 451.442,-93 461.442,-96.5001 461.442,-89.5001"/>
</g>
<!-- Node10 -->
<g id="node10" class="node"><title>Node10</title>
<g id="a_node10"><a xlink:href="../../d0/df6/classCParser.html#a85eb09132fa5a588749cea062f0d11ea" target="_top" xlink:title="CParser::class_block_item">
<polygon fill="white" stroke="black" points="506,-39.5 506,-58.5 646,-58.5 646,-39.5 506,-39.5"/>
<text text-anchor="middle" x="576" y="-46.5" font-family="Helvetica,sans-Serif" font-size="10.00">CParser::class_block_item</text>
</a>
</g>
</g>
<!-- Node3&#45;&gt;Node10 -->
<g id="edge11" class="edge"><title>Node3&#45;&gt;Node10</title>
<path fill="none" stroke="midnightblue" d="M461.315,-77.6656C486.598,-71.2904 515.152,-64.0906 537.318,-58.5014"/>
<polygon fill="midnightblue" stroke="midnightblue" points="460.282,-74.3163 451.442,-80.1551 461.994,-81.1038 460.282,-74.3163"/>
</g>
<!-- Node5 -->
<g id="node5" class="node"><title>Node5</title>
<g id="a_node5"><a xlink:href="../../d0/df6/classCParser.html#a4f02da23566af37123efb3768769c09b" target="_top" xlink:title="CParser::start">
<polygon fill="white" stroke="black" points="706.5,-176.5 706.5,-195.5 787.5,-195.5 787.5,-176.5 706.5,-176.5"/>
<text text-anchor="middle" x="747" y="-183.5" font-family="Helvetica,sans-Serif" font-size="10.00">CParser::start</text>
</a>
</g>
</g>
<!-- Node4&#45;&gt;Node5 -->
<g id="edge4" class="edge"><title>Node4&#45;&gt;Node5</title>
<path fill="none" stroke="midnightblue" d="M595.645,-109.002C615.767,-125.56 649.338,-151.172 682,-167 689.614,-170.69 698.09,-173.82 706.317,-176.41"/>
<polygon fill="midnightblue" stroke="midnightblue" points="597.803,-106.244 587.886,-102.515 593.312,-111.615 597.803,-106.244"/>
</g>
<!-- Node8 -->
<g id="node8" class="node"><title>Node8</title>
<g id="a_node8"><a xlink:href="../../d0/df6/classCParser.html#a86906e492ff9c606fb3537078f46f93e" target="_top" xlink:title="CParser::extern_linkage\l_block">
<polygon fill="white" stroke="black" points="682,-127 682,-157 812,-157 812,-127 682,-127"/>
<text text-anchor="start" x="690" y="-145" font-family="Helvetica,sans-Serif" font-size="10.00">CParser::extern_linkage</text>
<text text-anchor="middle" x="747" y="-134" font-family="Helvetica,sans-Serif" font-size="10.00">_block</text>
</a>
</g>
</g>
<!-- Node4&#45;&gt;Node8 -->
<g id="edge7" class="edge"><title>Node4&#45;&gt;Node8</title>
<path fill="none" stroke="midnightblue" d="M636.467,-103.762C662.205,-110.653 691.35,-119.438 713.102,-126.986"/>
<polygon fill="midnightblue" stroke="midnightblue" points="637.353,-100.376 626.792,-101.221 635.574,-107.147 637.353,-100.376"/>
</g>
<!-- Node9 -->
<g id="node9" class="node"><title>Node9</title>
<g id="a_node9"><a xlink:href="../../d0/df6/classCParser.html#a4fad913a0694a5376ad76669d8943122" target="_top" xlink:title="CParser::namespace\l_block">
<polygon fill="white" stroke="black" points="689.5,-78 689.5,-108 804.5,-108 804.5,-78 689.5,-78"/>
<text text-anchor="start" x="697.5" y="-96" font-family="Helvetica,sans-Serif" font-size="10.00">CParser::namespace</text>
<text text-anchor="middle" x="747" y="-85" font-family="Helvetica,sans-Serif" font-size="10.00">_block</text>
</a>
</g>
</g>
<!-- Node4&#45;&gt;Node9 -->
<g id="edge9" class="edge"><title>Node4&#45;&gt;Node9</title>
<path fill="none" stroke="midnightblue" d="M637.174,-86.505C654.192,-86.1389 672.649,-86.167 689.446,-86.5894"/>
<polygon fill="midnightblue" stroke="midnightblue" points="636.694,-83.0166 626.792,-86.7839 636.882,-90.014 636.694,-83.0166"/>
</g>
<!-- Node6 -->
<g id="node6" class="node"><title>Node6</title>
<g id="a_node6"><a xlink:href="../../db/d4a/classMain.html#a803470658c644fa9512140f9d8398dd5" target="_top" xlink:title="Main::ParseFiles">
<polygon fill="white" stroke="black" points="858,-176.5 858,-195.5 952,-195.5 952,-176.5 858,-176.5"/>
<text text-anchor="middle" x="905" y="-183.5" font-family="Helvetica,sans-Serif" font-size="10.00">Main::ParseFiles</text>
</a>
</g>
</g>
<!-- Node5&#45;&gt;Node6 -->
<g id="edge5" class="edge"><title>Node5&#45;&gt;Node6</title>
<path fill="none" stroke="midnightblue" d="M797.869,-186C817.138,-186 839.051,-186 857.942,-186"/>
<polygon fill="midnightblue" stroke="midnightblue" points="797.769,-182.5 787.769,-186 797.769,-189.5 797.769,-182.5"/>
</g>
<!-- Node7 -->
<g id="node7" class="node"><title>Node7</title>
<g id="a_node7"><a xlink:href="../../d6/d93/ccccmain_8cc.html#a3c04138a5bfe5d72780bb7e82a18e627" target="_top" xlink:title="main">
<polygon fill="white" stroke="black" points="998,-176.5 998,-195.5 1037,-195.5 1037,-176.5 998,-176.5"/>
<text text-anchor="middle" x="1017.5" y="-183.5" font-family="Helvetica,sans-Serif" font-size="10.00">main</text>
</a>
</g>
</g>
<!-- Node6&#45;&gt;Node7 -->
<g id="edge6" class="edge"><title>Node6&#45;&gt;Node7</title>
<path fill="none" stroke="midnightblue" d="M962.488,-186C975.332,-186 988.087,-186 997.974,-186"/>
<polygon fill="midnightblue" stroke="midnightblue" points="962.222,-182.5 952.222,-186 962.222,-189.5 962.222,-182.5"/>
</g>
<!-- Node8&#45;&gt;Node4 -->
<g id="edge8" class="edge"><title>Node8&#45;&gt;Node4</title>
<path fill="none" stroke="midnightblue" d="M671.981,-127.243C643.59,-119.263 613.595,-109.789 595.086,-102.614"/>
<polygon fill="midnightblue" stroke="midnightblue" points="671.364,-130.703 681.935,-129.996 673.23,-123.957 671.364,-130.703"/>
</g>
<!-- Node9&#45;&gt;Node4 -->
<g id="edge10" class="edge"><title>Node9&#45;&gt;Node4</title>
<path fill="none" stroke="midnightblue" d="M679.292,-99.6152C661.795,-99.8839 643.232,-99.7509 626.792,-99.2161"/>
<polygon fill="midnightblue" stroke="midnightblue" points="679.519,-103.111 689.446,-99.4106 679.378,-96.1129 679.519,-103.111"/>
</g>
<!-- Node11 -->
<g id="node11" class="node"><title>Node11</title>
<g id="a_node11"><a xlink:href="../../d0/df6/classCParser.html#a4b9f00c05d44a13b3c18b28b52f5be9e" target="_top" xlink:title="CParser::class_block\l_item_list">
<polygon fill="white" stroke="black" points="690,-29 690,-59 804,-59 804,-29 690,-29"/>
<text text-anchor="start" x="698" y="-47" font-family="Helvetica,sans-Serif" font-size="10.00">CParser::class_block</text>
<text text-anchor="middle" x="747" y="-36" font-family="Helvetica,sans-Serif" font-size="10.00">_item_list</text>
</a>
</g>
</g>
<!-- Node10&#45;&gt;Node11 -->
<g id="edge12" class="edge"><title>Node10&#45;&gt;Node11</title>
<path fill="none" stroke="midnightblue" d="M656.497,-46.648C667.741,-46.3154 679.104,-45.9792 689.785,-45.6632"/>
<polygon fill="midnightblue" stroke="midnightblue" points="656.118,-43.1576 646.226,-46.9519 656.326,-50.1545 656.118,-43.1576"/>
</g>
<!-- Node12 -->
<g id="node12" class="node"><title>Node12</title>
<g id="a_node12"><a xlink:href="../../d0/df6/classCParser.html#a06c7cac9034f27ad6d998b49a7b574c8" target="_top" xlink:title="CParser::class_block">
<polygon fill="white" stroke="black" points="848,-12.5 848,-31.5 962,-31.5 962,-12.5 848,-12.5"/>
<text text-anchor="middle" x="905" y="-19.5" font-family="Helvetica,sans-Serif" font-size="10.00">CParser::class_block</text>
</a>
</g>
</g>
<!-- Node11&#45;&gt;Node12 -->
<g id="edge13" class="edge"><title>Node11&#45;&gt;Node12</title>
<path fill="none" stroke="midnightblue" d="M814.404,-34.6353C825.512,-33.0688 836.941,-31.457 847.763,-29.9308"/>
<polygon fill="midnightblue" stroke="midnightblue" points="813.733,-31.1953 804.32,-36.0575 814.71,-38.1267 813.733,-31.1953"/>
</g>
<!-- Node12&#45;&gt;Node1 -->
<g id="edge14" class="edge"><title>Node12&#45;&gt;Node1</title>
<path fill="none" stroke="midnightblue" d="M837.694,-14.9173C771.694,-8.48604 667.466,-0 577,-0 398.5,-0 398.5,-0 398.5,-0 298.24,-0 181.719,-9.61613 114.262,-16.1333"/>
<polygon fill="midnightblue" stroke="midnightblue" points="837.655,-18.4303 847.95,-15.9302 838.343,-11.4642 837.655,-18.4303"/>
</g>
</g>
</svg>
