<?xml version="1.0" encoding="UTF-8" standalone="no"?>
<!DOCTYPE svg PUBLIC "-//W3C//DTD SVG 1.1//EN"
 "http://www.w3.org/Graphics/SVG/1.1/DTD/svg11.dtd">
<!-- Generated by graphviz version 2.38.0 (20140413.2041)
 -->
<!-- Title: CParser::block Pages: 1 -->
<svg width="1404pt" height="455pt"
 viewBox="0.00 0.00 1404.00 454.88" xmlns="http://www.w3.org/2000/svg" xmlns:xlink="http://www.w3.org/1999/xlink">
<g id="graph0" class="graph" transform="scale(1 1) rotate(0) translate(4 450.879)">
<title>CParser::block</title>
<polygon fill="white" stroke="none" points="-4,4 -4,-450.879 1400,-450.879 1400,4 -4,4"/>
<!-- Node1 -->
<g id="node1" class="node"><title>Node1</title>
<polygon fill="#bfbfbf" stroke="black" points="0,-286.838 0,-305.838 84,-305.838 84,-286.838 0,-286.838"/>
<text text-anchor="middle" x="42" y="-293.838" font-family="Helvetica,sans-Serif" font-size="10.00">CParser::block</text>
</g>
<!-- Node2 -->
<g id="node2" class="node"><title>Node2</title>
<g id="a_node2"><a xlink:href="../../d0/df6/classCParser.html#a0a168a887a9f004b6635cd3fb47f565e" target="_top" xlink:title="CParser::brace_block">
<polygon fill="white" stroke="black" points="702,-349.838 702,-368.838 818,-368.838 818,-349.838 702,-349.838"/>
<text text-anchor="middle" x="760" y="-356.838" font-family="Helvetica,sans-Serif" font-size="10.00">CParser::brace_block</text>
</a>
</g>
</g>
<!-- Node1&#45;&gt;Node2 -->
<g id="edge1" class="edge"><title>Node1&#45;&gt;Node2</title>
<path fill="none" stroke="midnightblue" d="M70.2976,-305.845C121.387,-322.764 235.218,-356.338 334,-356.338 334,-356.338 334,-356.338 484.5,-356.338 555.277,-356.338 636.313,-357.348 691.887,-358.196"/>
<polygon fill="midnightblue" stroke="midnightblue" points="691.907,-361.696 701.96,-358.352 692.015,-354.697 691.907,-361.696"/>
</g>
<!-- Node4 -->
<g id="node4" class="node"><title>Node4</title>
<g id="a_node4"><a xlink:href="../../d0/df6/classCParser.html#a5e1630bd24884bb1cbc5680926dce957" target="_top" xlink:title="CParser::syn">
<polygon fill="white" stroke="black" points="1008,-210.838 1008,-229.838 1085,-229.838 1085,-210.838 1008,-210.838"/>
<text text-anchor="middle" x="1046.5" y="-217.838" font-family="Helvetica,sans-Serif" font-size="10.00">CParser::syn</text>
</a>
</g>
</g>
<!-- Node1&#45;&gt;Node4 -->
<g id="edge28" class="edge"><title>Node1&#45;&gt;Node4</title>
<path fill="none" stroke="midnightblue" d="M53.1635,-305.852C88.7325,-338.111 212.078,-441.338 334,-441.338 334,-441.338 334,-441.338 761,-441.338 856.059,-441.338 898.05,-466.068 972,-406.338 1024.38,-364.027 1039.58,-279.076 1043.87,-240.373"/>
<polygon fill="midnightblue" stroke="midnightblue" points="1047.4,-240.236 1044.88,-229.945 1040.43,-239.561 1047.4,-240.236"/>
</g>
<!-- Node8 -->
<g id="node8" class="node"><title>Node8</title>
<g id="a_node8"><a xlink:href="../../d0/df6/classCParser.html#ac73c93a601c6e7123e0ebbd7be03b60d" target="_top" xlink:title="CParser::brack_block">
<polygon fill="white" stroke="black" points="121,-286.838 121,-305.838 237,-305.838 237,-286.838 121,-286.838"/>
<text text-anchor="middle" x="179" y="-293.838" font-family="Helvetica,sans-Serif" font-size="10.00">CParser::brack_block</text>
</a>
</g>
</g>
<!-- Node1&#45;&gt;Node8 -->
<g id="edge8" class="edge"><title>Node1&#45;&gt;Node8</title>
<path fill="none" stroke="midnightblue" d="M84.238,-296.338C92.5761,-296.338 101.548,-296.338 110.519,-296.338"/>
<polygon fill="midnightblue" stroke="midnightblue" points="110.613,-299.838 120.613,-296.338 110.613,-292.838 110.613,-299.838"/>
</g>
<!-- Node16 -->
<g id="node16" class="node"><title>Node16</title>
<g id="a_node16"><a xlink:href="../../d0/df6/classCParser.html#a51affc383cd0859af5d84b628c8a2f5c" target="_top" xlink:title="CParser::paren_block">
<polygon fill="white" stroke="black" points="120,-191.838 120,-210.838 238,-210.838 238,-191.838 120,-191.838"/>
<text text-anchor="middle" x="179" y="-198.838" font-family="Helvetica,sans-Serif" font-size="10.00">CParser::paren_block</text>
</a>
</g>
</g>
<!-- Node1&#45;&gt;Node16 -->
<g id="edge25" class="edge"><title>Node1&#45;&gt;Node16</title>
<path fill="none" stroke="midnightblue" d="M51.5917,-286.437C64.9596,-271.526 92.1131,-243.158 120,-225.338 126.187,-221.385 133.135,-217.85 140.014,-214.787"/>
<polygon fill="midnightblue" stroke="midnightblue" points="141.404,-218 149.275,-210.908 138.699,-211.543 141.404,-218"/>
</g>
<!-- Node3 -->
<g id="node3" class="node"><title>Node3</title>
<g id="a_node3"><a xlink:href="../../d0/df6/classCParser.html#ad3478bb95eecaaa4fb98396fb1b48d82" target="_top" xlink:title="CParser::skip_until\l_matching_rbrace">
<polygon fill="white" stroke="black" points="861,-344.338 861,-374.338 965,-374.338 965,-344.338 861,-344.338"/>
<text text-anchor="start" x="869" y="-362.338" font-family="Helvetica,sans-Serif" font-size="10.00">CParser::skip_until</text>
<text text-anchor="middle" x="913" y="-351.338" font-family="Helvetica,sans-Serif" font-size="10.00">_matching_rbrace</text>
</a>
</g>
</g>
<!-- Node2&#45;&gt;Node3 -->
<g id="edge2" class="edge"><title>Node2&#45;&gt;Node3</title>
<path fill="none" stroke="midnightblue" d="M818.087,-359.338C828.719,-359.338 839.871,-359.338 850.626,-359.338"/>
<polygon fill="midnightblue" stroke="midnightblue" points="850.786,-362.838 860.786,-359.338 850.786,-355.838 850.786,-362.838"/>
</g>
<!-- Node2&#45;&gt;Node4 -->
<g id="edge7" class="edge"><title>Node2&#45;&gt;Node4</title>
<path fill="none" stroke="midnightblue" d="M779.44,-368.862C818.468,-387.559 910.851,-423.942 972,-384.338 1022.1,-351.892 1038.37,-276.361 1043.39,-240.254"/>
<polygon fill="midnightblue" stroke="midnightblue" points="1046.9,-240.374 1044.65,-230.02 1039.95,-239.516 1046.9,-240.374"/>
</g>
<!-- Node3&#45;&gt;Node4 -->
<g id="edge3" class="edge"><title>Node3&#45;&gt;Node4</title>
<path fill="none" stroke="midnightblue" d="M950.155,-344.198C957.839,-340.039 965.565,-335.067 972,-329.338 1001.4,-303.162 1024.55,-262.78 1036.52,-239.216"/>
<polygon fill="midnightblue" stroke="midnightblue" points="1039.8,-240.477 1041.09,-229.961 1033.53,-237.38 1039.8,-240.477"/>
</g>
<!-- Node5 -->
<g id="node5" class="node"><title>Node5</title>
<g id="a_node5"><a xlink:href="../../da/d6a/classParseUtility.html#aabfa4c56607539ef14be2e2a7260006b" target="_top" xlink:title="ParseUtility::syn">
<polygon fill="white" stroke="black" points="1121,-210.838 1121,-229.838 1212,-229.838 1212,-210.838 1121,-210.838"/>
<text text-anchor="middle" x="1166.5" y="-217.838" font-family="Helvetica,sans-Serif" font-size="10.00">ParseUtility::syn</text>
</a>
</g>
</g>
<!-- Node4&#45;&gt;Node5 -->
<g id="edge4" class="edge"><title>Node4&#45;&gt;Node5</title>
<path fill="none" stroke="midnightblue" d="M1085.16,-220.338C1093.3,-220.338 1102.08,-220.338 1110.73,-220.338"/>
<polygon fill="midnightblue" stroke="midnightblue" points="1110.78,-223.838 1120.78,-220.338 1110.78,-216.838 1110.78,-223.838"/>
</g>
<!-- Node6 -->
<g id="node6" class="node"><title>Node6</title>
<g id="a_node6"><a xlink:href="../../d3/d5e/classParseStore.html#ab21a4aeadb4cc4938b58cbefbb8634e8" target="_top" xlink:title="ParseStore::currentInstance">
<polygon fill="white" stroke="black" points="1248,-229.838 1248,-248.838 1396,-248.838 1396,-229.838 1248,-229.838"/>
<text text-anchor="middle" x="1322" y="-236.838" font-family="Helvetica,sans-Serif" font-size="10.00">ParseStore::currentInstance</text>
</a>
</g>
</g>
<!-- Node5&#45;&gt;Node6 -->
<g id="edge5" class="edge"><title>Node5&#45;&gt;Node6</title>
<path fill="none" stroke="midnightblue" d="M1212.31,-225.885C1220.41,-226.888 1229.09,-227.962 1237.88,-229.05"/>
<polygon fill="midnightblue" stroke="midnightblue" points="1237.48,-232.526 1247.83,-230.281 1238.34,-225.579 1237.48,-232.526"/>
</g>
<!-- Node7 -->
<g id="node7" class="node"><title>Node7</title>
<g id="a_node7"><a xlink:href="../../d3/d5e/classParseStore.html#ae7b3d82d22174c1a1165a592d6c1700c" target="_top" xlink:title="ParseStore::filename">
<polygon fill="white" stroke="black" points="1265,-191.838 1265,-210.838 1379,-210.838 1379,-191.838 1265,-191.838"/>
<text text-anchor="middle" x="1322" y="-198.838" font-family="Helvetica,sans-Serif" font-size="10.00">ParseStore::filename</text>
</a>
</g>
</g>
<!-- Node5&#45;&gt;Node7 -->
<g id="edge6" class="edge"><title>Node5&#45;&gt;Node7</title>
<path fill="none" stroke="midnightblue" d="M1212.31,-214.791C1225.56,-213.152 1240.35,-211.321 1254.64,-209.552"/>
<polygon fill="midnightblue" stroke="midnightblue" points="1255.45,-212.979 1264.94,-208.277 1254.59,-206.032 1255.45,-212.979"/>
</g>
<!-- Node8&#45;&gt;Node4 -->
<g id="edge24" class="edge"><title>Node8&#45;&gt;Node4</title>
<path fill="none" stroke="midnightblue" d="M237.081,-302.065C297.849,-307.659 396.86,-315.338 482.5,-315.338 482.5,-315.338 482.5,-315.338 761,-315.338 856.795,-315.338 883.996,-309.18 972,-271.338 992.087,-262.701 1012.31,-248.14 1026.44,-236.783"/>
<polygon fill="midnightblue" stroke="midnightblue" points="1028.92,-239.275 1034.4,-230.207 1024.46,-233.879 1028.92,-239.275"/>
</g>
<!-- Node9 -->
<g id="node9" class="node"><title>Node9</title>
<g id="a_node9"><a xlink:href="../../d0/df6/classCParser.html#a967d50b91351cf003898543b6d7af7a7" target="_top" xlink:title="CParser::balanced_list">
<polygon fill="white" stroke="black" points="274,-267.838 274,-286.838 396,-286.838 396,-267.838 274,-267.838"/>
<text text-anchor="middle" x="335" y="-274.838" font-family="Helvetica,sans-Serif" font-size="10.00">CParser::balanced_list</text>
</a>
</g>
</g>
<!-- Node8&#45;&gt;Node9 -->
<g id="edge9" class="edge"><title>Node8&#45;&gt;Node9</title>
<path fill="none" stroke="midnightblue" d="M237.344,-289.263C245.98,-288.198 254.97,-287.089 263.839,-285.994"/>
<polygon fill="midnightblue" stroke="midnightblue" points="264.278,-289.467 273.774,-284.769 263.42,-282.52 264.278,-289.467"/>
</g>
<!-- Node9&#45;&gt;Node4 -->
<g id="edge23" class="edge"><title>Node9&#45;&gt;Node4</title>
<path fill="none" stroke="midnightblue" d="M396.13,-277.338C453.125,-277.338 541.138,-277.338 617.5,-277.338 617.5,-277.338 617.5,-277.338 761,-277.338 850.679,-277.338 953.215,-249.773 1007.36,-232.981"/>
<polygon fill="midnightblue" stroke="midnightblue" points="1008.72,-236.221 1017.21,-229.879 1006.62,-229.545 1008.72,-236.221"/>
</g>
<!-- Node10 -->
<g id="node10" class="node"><title>Node10</title>
<g id="a_node10"><a xlink:href="../../d0/df6/classCParser.html#a424ec587e8167b682804c23c4804d895" target="_top" xlink:title="CParser::balanced">
<polygon fill="white" stroke="black" points="432,-191.838 432,-210.838 535,-210.838 535,-191.838 432,-191.838"/>
<text text-anchor="middle" x="483.5" y="-198.838" font-family="Helvetica,sans-Serif" font-size="10.00">CParser::balanced</text>
</a>
</g>
</g>
<!-- Node9&#45;&gt;Node10 -->
<g id="edge10" class="edge"><title>Node9&#45;&gt;Node10</title>
<path fill="none" stroke="midnightblue" d="M362.39,-267.837C373.002,-263.746 385.248,-258.677 396,-253.338 418.246,-242.292 442.377,-227.535 459.485,-216.564"/>
<polygon fill="midnightblue" stroke="midnightblue" points="461.724,-219.284 468.21,-210.906 457.915,-213.411 461.724,-219.284"/>
</g>
<!-- Node10&#45;&gt;Node1 -->
<g id="edge21" class="edge"><title>Node10&#45;&gt;Node1</title>
<path fill="none" stroke="midnightblue" d="M434.3,-210.881C364.735,-224.781 232.218,-251.738 120,-277.338 110.435,-279.52 100.23,-281.959 90.4819,-284.344"/>
<polygon fill="midnightblue" stroke="midnightblue" points="89.4065,-281.004 80.5346,-286.795 91.0816,-287.8 89.4065,-281.004"/>
</g>
<!-- Node10&#45;&gt;Node4 -->
<g id="edge22" class="edge"><title>Node10&#45;&gt;Node4</title>
<path fill="none" stroke="midnightblue" d="M495.196,-191.587C525.078,-165.109 613.1,-92.2589 702,-68.3382 817.917,-37.1477 871.168,-10.2037 972,-75.3382 1016.32,-103.969 1035.11,-168.116 1042.02,-200.634"/>
<polygon fill="midnightblue" stroke="midnightblue" points="1038.63,-201.565 1043.99,-210.707 1045.5,-200.221 1038.63,-201.565"/>
</g>
<!-- Node11 -->
<g id="node11" class="node"><title>Node11</title>
<g id="a_node11"><a xlink:href="../../d0/df6/classCParser.html#a52e049b9361b6e9c7a2c4f6266d98916" target="_top" xlink:title="CParser::scoped">
<polygon fill="white" stroke="black" points="571,-153.838 571,-172.838 666,-172.838 666,-153.838 571,-153.838"/>
<text text-anchor="middle" x="618.5" y="-160.838" font-family="Helvetica,sans-Serif" font-size="10.00">CParser::scoped</text>
</a>
</g>
</g>
<!-- Node10&#45;&gt;Node11 -->
<g id="edge11" class="edge"><title>Node10&#45;&gt;Node11</title>
<path fill="none" stroke="midnightblue" d="M518.062,-191.749C535.073,-186.889 555.932,-180.929 574.145,-175.725"/>
<polygon fill="midnightblue" stroke="midnightblue" points="575.296,-179.037 583.949,-172.924 573.372,-172.306 575.296,-179.037"/>
</g>
<!-- Node11&#45;&gt;Node4 -->
<g id="edge20" class="edge"><title>Node11&#45;&gt;Node4</title>
<path fill="none" stroke="midnightblue" d="M666.11,-159.714C734.524,-155.758 865.549,-153.392 972,-182.338 989.907,-187.208 1008.46,-196.84 1022.44,-205.187"/>
<polygon fill="midnightblue" stroke="midnightblue" points="1020.99,-208.401 1031.33,-210.687 1024.67,-202.449 1020.99,-208.401"/>
</g>
<!-- Node12 -->
<g id="node12" class="node"><title>Node12</title>
<g id="a_node12"><a xlink:href="../../d0/df6/classCParser.html#a2406cf660d9f7e6c3be87b61b2ffba4b" target="_top" xlink:title="CParser::keyword">
<polygon fill="white" stroke="black" points="863,-115.838 863,-134.838 963,-134.838 963,-115.838 863,-115.838"/>
<text text-anchor="middle" x="913" y="-122.838" font-family="Helvetica,sans-Serif" font-size="10.00">CParser::keyword</text>
</a>
</g>
</g>
<!-- Node11&#45;&gt;Node12 -->
<g id="edge12" class="edge"><title>Node11&#45;&gt;Node12</title>
<path fill="none" stroke="midnightblue" d="M666.115,-154.973C677.812,-153 690.349,-150.991 702,-149.338 752.682,-142.147 810.485,-135.667 852.599,-131.258"/>
<polygon fill="midnightblue" stroke="midnightblue" points="853.099,-134.725 862.684,-130.21 852.376,-127.762 853.099,-134.725"/>
</g>
<!-- Node13 -->
<g id="node13" class="node"><title>Node13</title>
<g id="a_node13"><a xlink:href="../../d0/df6/classCParser.html#a177b7d8d53b6d7c2c89bbea896b3d154" target="_top" xlink:title="CParser::op">
<polygon fill="white" stroke="black" points="724,-77.8382 724,-96.8382 796,-96.8382 796,-77.8382 724,-77.8382"/>
<text text-anchor="middle" x="760" y="-84.8382" font-family="Helvetica,sans-Serif" font-size="10.00">CParser::op</text>
</a>
</g>
</g>
<!-- Node11&#45;&gt;Node13 -->
<g id="edge14" class="edge"><title>Node11&#45;&gt;Node13</title>
<path fill="none" stroke="midnightblue" d="M633.102,-153.789C649.129,-142.771 676.777,-124.484 702,-111.338 709.164,-107.605 717.04,-103.993 724.591,-100.753"/>
<polygon fill="midnightblue" stroke="midnightblue" points="726.022,-103.949 733.903,-96.8683 723.327,-97.4883 726.022,-103.949"/>
</g>
<!-- Node14 -->
<g id="node14" class="node"><title>Node14</title>
<g id="a_node14"><a xlink:href="../../d0/df6/classCParser.html#a6125d39bebbef0edc81fe5f030e76759" target="_top" xlink:title="CParser::literal">
<polygon fill="white" stroke="black" points="717,-191.838 717,-210.838 803,-210.838 803,-191.838 717,-191.838"/>
<text text-anchor="middle" x="760" y="-198.838" font-family="Helvetica,sans-Serif" font-size="10.00">CParser::literal</text>
</a>
</g>
</g>
<!-- Node11&#45;&gt;Node14 -->
<g id="edge16" class="edge"><title>Node11&#45;&gt;Node14</title>
<path fill="none" stroke="midnightblue" d="M654.702,-172.927C672.71,-177.833 694.828,-183.858 714.056,-189.095"/>
<polygon fill="midnightblue" stroke="midnightblue" points="713.241,-192.501 723.81,-191.752 715.081,-185.747 713.241,-192.501"/>
</g>
<!-- Node12&#45;&gt;Node4 -->
<g id="edge13" class="edge"><title>Node12&#45;&gt;Node4</title>
<path fill="none" stroke="midnightblue" d="M943.098,-134.906C952.691,-138.694 963.159,-143.543 972,-149.338 994.786,-164.274 1016.68,-186.839 1030.56,-202.506"/>
<polygon fill="midnightblue" stroke="midnightblue" points="1028.21,-205.136 1037.4,-210.408 1033.5,-200.555 1028.21,-205.136"/>
</g>
<!-- Node13&#45;&gt;Node4 -->
<g id="edge15" class="edge"><title>Node13&#45;&gt;Node4</title>
<path fill="none" stroke="midnightblue" d="M796.373,-81.6038C840.782,-76.2913 917.712,-73.5027 972,-106.338 1007.77,-127.975 1029.28,-174.43 1039.1,-200.874"/>
<polygon fill="midnightblue" stroke="midnightblue" points="1035.88,-202.274 1042.5,-210.547 1042.49,-199.952 1035.88,-202.274"/>
</g>
<!-- Node14&#45;&gt;Node4 -->
<g id="edge19" class="edge"><title>Node14&#45;&gt;Node4</title>
<path fill="none" stroke="midnightblue" d="M798.743,-210.848C815.541,-214.613 835.637,-218.482 854,-220.338 902.679,-225.26 958.674,-224.523 997.488,-223.007"/>
<polygon fill="midnightblue" stroke="midnightblue" points="998.117,-226.483 1007.96,-222.563 997.82,-219.49 998.117,-226.483"/>
</g>
<!-- Node15 -->
<g id="node15" class="node"><title>Node15</title>
<g id="a_node15"><a xlink:href="../../d0/df6/classCParser.html#a37ac23e2bafc84982f17db1ace720958" target="_top" xlink:title="CParser::string_literal">
<polygon fill="white" stroke="black" points="854,-191.838 854,-210.838 972,-210.838 972,-191.838 854,-191.838"/>
<text text-anchor="middle" x="913" y="-198.838" font-family="Helvetica,sans-Serif" font-size="10.00">CParser::string_literal</text>
</a>
</g>
</g>
<!-- Node14&#45;&gt;Node15 -->
<g id="edge17" class="edge"><title>Node14&#45;&gt;Node15</title>
<path fill="none" stroke="midnightblue" d="M803.062,-201.338C815.702,-201.338 829.908,-201.338 843.784,-201.338"/>
<polygon fill="midnightblue" stroke="midnightblue" points="843.802,-204.838 853.802,-201.338 843.802,-197.838 843.802,-204.838"/>
</g>
<!-- Node15&#45;&gt;Node4 -->
<g id="edge18" class="edge"><title>Node15&#45;&gt;Node4</title>
<path fill="none" stroke="midnightblue" d="M972.061,-209.727C980.67,-210.971 989.457,-212.241 997.821,-213.449"/>
<polygon fill="midnightblue" stroke="midnightblue" points="997.376,-216.921 1007.77,-214.887 998.377,-209.993 997.376,-216.921"/>
</g>
<!-- Node16&#45;&gt;Node4 -->
<g id="edge27" class="edge"><title>Node16&#45;&gt;Node4</title>
<path fill="none" stroke="midnightblue" d="M187.731,-191.655C219.584,-152.937 345.442,-11.3382 482.5,-11.3382 482.5,-11.3382 482.5,-11.3382 761,-11.3382 855.241,-11.3382 896.9,24.5943 972,-32.3382 1026.39,-73.5736 1040.57,-160.89 1044.23,-200.297"/>
<polygon fill="midnightblue" stroke="midnightblue" points="1040.76,-200.784 1045.04,-210.476 1047.74,-200.231 1040.76,-200.784"/>
</g>
<!-- Node16&#45;&gt;Node9 -->
<g id="edge26" class="edge"><title>Node16&#45;&gt;Node9</title>
<path fill="none" stroke="midnightblue" d="M199.504,-210.964C226.234,-224.155 274.44,-247.945 305.295,-263.172"/>
<polygon fill="midnightblue" stroke="midnightblue" points="304.138,-266.504 314.654,-267.791 307.236,-260.227 304.138,-266.504"/>
</g>
</g>
</svg>
