<?xml version="1.0" encoding="UTF-8" standalone="no"?>
<!DOCTYPE svg PUBLIC "-//W3C//DTD SVG 1.1//EN"
 "http://www.w3.org/Graphics/SVG/1.1/DTD/svg11.dtd">
<!-- Generated by graphviz version 2.38.0 (20140413.2041)
 -->
<!-- Title: CParser::user_type Pages: 1 -->
<svg width="2046pt" height="759pt"
 viewBox="0.00 0.00 2046.00 759.25" xmlns="http://www.w3.org/2000/svg" xmlns:xlink="http://www.w3.org/1999/xlink">
<g id="graph0" class="graph" transform="scale(1 1) rotate(0) translate(4 755.254)">
<title>CParser::user_type</title>
<polygon fill="white" stroke="none" points="-4,4 -4,-755.254 2042,-755.254 2042,4 -4,4"/>
<!-- Node1 -->
<g id="node1" class="node"><title>Node1</title>
<polygon fill="#bfbfbf" stroke="black" points="0,-582.5 0,-601.5 107,-601.5 107,-582.5 0,-582.5"/>
<text text-anchor="middle" x="53.5" y="-589.5" font-family="Helvetica,sans-Serif" font-size="10.00">CParser::user_type</text>
</g>
<!-- Node2 -->
<g id="node2" class="node"><title>Node2</title>
<g id="a_node2"><a xlink:href="../../d0/df6/classCParser.html#a631e11d228a64f7cd7eaa437a58d2bca" target="_top" xlink:title="CParser::class_key">
<polygon fill="white" stroke="black" points="1135,-658.5 1135,-677.5 1242,-677.5 1242,-658.5 1135,-658.5"/>
<text text-anchor="middle" x="1188.5" y="-665.5" font-family="Helvetica,sans-Serif" font-size="10.00">CParser::class_key</text>
</a>
</g>
</g>
<!-- Node1&#45;&gt;Node2 -->
<g id="edge1" class="edge"><title>Node1&#45;&gt;Node2</title>
<path fill="none" stroke="midnightblue" d="M90.329,-601.541C154.516,-617.767 293.575,-649 413,-649 413,-649 413,-649 831.5,-649 934.294,-649 1053.55,-656.997 1124.64,-662.615"/>
<polygon fill="midnightblue" stroke="midnightblue" points="1124.52,-666.116 1134.77,-663.425 1125.08,-659.139 1124.52,-666.116"/>
</g>
<!-- Node4 -->
<g id="node4" class="node"><title>Node4</title>
<g id="a_node4"><a xlink:href="../../d0/df6/classCParser.html#a5e1630bd24884bb1cbc5680926dce957" target="_top" xlink:title="CParser::syn">
<polygon fill="white" stroke="black" points="1650,-392.5 1650,-411.5 1727,-411.5 1727,-392.5 1650,-392.5"/>
<text text-anchor="middle" x="1688.5" y="-399.5" font-family="Helvetica,sans-Serif" font-size="10.00">CParser::syn</text>
</a>
</g>
</g>
<!-- Node1&#45;&gt;Node4 -->
<g id="edge48" class="edge"><title>Node1&#45;&gt;Node4</title>
<path fill="none" stroke="midnightblue" d="M66.7118,-601.508C110.713,-634.785 266.302,-744 413,-744 413,-744 413,-744 1364,-744 1476.9,-744 1531.64,-776.214 1614,-699 1655.14,-660.433 1678.6,-481.55 1685.4,-421.624"/>
<polygon fill="midnightblue" stroke="midnightblue" points="1688.89,-421.913 1686.51,-411.589 1681.94,-421.144 1688.89,-421.913"/>
</g>
<!-- Node8 -->
<g id="node8" class="node"><title>Node8</title>
<g id="a_node8"><a xlink:href="../../d0/df6/classCParser.html#ac121563570276b8286f8351a4f69e56e" target="_top" xlink:title="CParser::scoped_identifier">
<polygon fill="white" stroke="black" points="144.5,-487.5 144.5,-506.5 285.5,-506.5 285.5,-487.5 144.5,-487.5"/>
<text text-anchor="middle" x="215" y="-494.5" font-family="Helvetica,sans-Serif" font-size="10.00">CParser::scoped_identifier</text>
</a>
</g>
</g>
<!-- Node1&#45;&gt;Node8 -->
<g id="edge7" class="edge"><title>Node1&#45;&gt;Node8</title>
<path fill="none" stroke="midnightblue" d="M70.6715,-582.368C98.6149,-565.725 156.11,-531.48 189.158,-511.796"/>
<polygon fill="midnightblue" stroke="midnightblue" points="190.985,-514.782 197.786,-506.657 187.403,-508.768 190.985,-514.782"/>
</g>
<!-- Node26 -->
<g id="node26" class="node"><title>Node26</title>
<g id="a_node26"><a xlink:href="../../da/d6a/classParseUtility.html#a128c7755b687730e50a5c063261f6c78" target="_top" xlink:title="ParseUtility::scopeCombine">
<polygon fill="white" stroke="black" points="143,-196.5 143,-215.5 287,-215.5 287,-196.5 143,-196.5"/>
<text text-anchor="middle" x="215" y="-203.5" font-family="Helvetica,sans-Serif" font-size="10.00">ParseUtility::scopeCombine</text>
</a>
</g>
</g>
<!-- Node1&#45;&gt;Node26 -->
<g id="edge46" class="edge"><title>Node1&#45;&gt;Node26</title>
<path fill="none" stroke="midnightblue" d="M58.4427,-582.458C79.3867,-531.773 177.72,-293.799 206.233,-224.796"/>
<polygon fill="midnightblue" stroke="midnightblue" points="209.468,-226.132 210.052,-215.554 202.999,-223.459 209.468,-226.132"/>
</g>
<!-- Node3 -->
<g id="node3" class="node"><title>Node3</title>
<g id="a_node3"><a xlink:href="../../d3/d5e/classParseStore.html#a238b27bbf877e69812ecc620fbc18d5f" target="_top" xlink:title="ParseStore::set_flag">
<polygon fill="white" stroke="black" points="1307,-658.5 1307,-677.5 1419,-677.5 1419,-658.5 1307,-658.5"/>
<text text-anchor="middle" x="1363" y="-665.5" font-family="Helvetica,sans-Serif" font-size="10.00">ParseStore::set_flag</text>
</a>
</g>
</g>
<!-- Node2&#45;&gt;Node3 -->
<g id="edge2" class="edge"><title>Node2&#45;&gt;Node3</title>
<path fill="none" stroke="midnightblue" d="M1242.19,-668C1259.42,-668 1278.76,-668 1296.79,-668"/>
<polygon fill="midnightblue" stroke="midnightblue" points="1296.94,-671.5 1306.94,-668 1296.94,-664.5 1296.94,-671.5"/>
</g>
<!-- Node2&#45;&gt;Node4 -->
<g id="edge3" class="edge"><title>Node2&#45;&gt;Node4</title>
<path fill="none" stroke="midnightblue" d="M1216.31,-677.535C1290.23,-701.941 1499.12,-757.865 1614,-656 1683.96,-593.968 1689.12,-469.866 1688.31,-421.724"/>
<polygon fill="midnightblue" stroke="midnightblue" points="1691.81,-421.58 1688.03,-411.681 1684.81,-421.775 1691.81,-421.58"/>
</g>
<!-- Node5 -->
<g id="node5" class="node"><title>Node5</title>
<g id="a_node5"><a xlink:href="../../da/d6a/classParseUtility.html#aabfa4c56607539ef14be2e2a7260006b" target="_top" xlink:title="ParseUtility::syn">
<polygon fill="white" stroke="black" points="1763,-392.5 1763,-411.5 1854,-411.5 1854,-392.5 1763,-392.5"/>
<text text-anchor="middle" x="1808.5" y="-399.5" font-family="Helvetica,sans-Serif" font-size="10.00">ParseUtility::syn</text>
</a>
</g>
</g>
<!-- Node4&#45;&gt;Node5 -->
<g id="edge4" class="edge"><title>Node4&#45;&gt;Node5</title>
<path fill="none" stroke="midnightblue" d="M1727.16,-402C1735.3,-402 1744.08,-402 1752.73,-402"/>
<polygon fill="midnightblue" stroke="midnightblue" points="1752.78,-405.5 1762.78,-402 1752.78,-398.5 1752.78,-405.5"/>
</g>
<!-- Node6 -->
<g id="node6" class="node"><title>Node6</title>
<g id="a_node6"><a xlink:href="../../d3/d5e/classParseStore.html#ab21a4aeadb4cc4938b58cbefbb8634e8" target="_top" xlink:title="ParseStore::currentInstance">
<polygon fill="white" stroke="black" points="1890,-411.5 1890,-430.5 2038,-430.5 2038,-411.5 1890,-411.5"/>
<text text-anchor="middle" x="1964" y="-418.5" font-family="Helvetica,sans-Serif" font-size="10.00">ParseStore::currentInstance</text>
</a>
</g>
</g>
<!-- Node5&#45;&gt;Node6 -->
<g id="edge5" class="edge"><title>Node5&#45;&gt;Node6</title>
<path fill="none" stroke="midnightblue" d="M1854.31,-407.547C1862.41,-408.549 1871.09,-409.624 1879.88,-410.712"/>
<polygon fill="midnightblue" stroke="midnightblue" points="1879.48,-414.188 1889.83,-411.943 1880.34,-407.241 1879.48,-414.188"/>
</g>
<!-- Node7 -->
<g id="node7" class="node"><title>Node7</title>
<g id="a_node7"><a xlink:href="../../d3/d5e/classParseStore.html#ae7b3d82d22174c1a1165a592d6c1700c" target="_top" xlink:title="ParseStore::filename">
<polygon fill="white" stroke="black" points="1907,-373.5 1907,-392.5 2021,-392.5 2021,-373.5 1907,-373.5"/>
<text text-anchor="middle" x="1964" y="-380.5" font-family="Helvetica,sans-Serif" font-size="10.00">ParseStore::filename</text>
</a>
</g>
</g>
<!-- Node5&#45;&gt;Node7 -->
<g id="edge6" class="edge"><title>Node5&#45;&gt;Node7</title>
<path fill="none" stroke="midnightblue" d="M1854.31,-396.453C1867.56,-394.814 1882.35,-392.983 1896.64,-391.213"/>
<polygon fill="midnightblue" stroke="midnightblue" points="1897.45,-394.641 1906.94,-389.939 1896.59,-387.694 1897.45,-394.641"/>
</g>
<!-- Node8&#45;&gt;Node4 -->
<g id="edge45" class="edge"><title>Node8&#45;&gt;Node4</title>
<path fill="none" stroke="midnightblue" d="M219.264,-487.204C241.816,-421.543 380.968,-48 628,-48 628,-48 628,-48 1364,-48 1475.43,-48 1529.88,6.08463 1614,-67 1662.34,-108.998 1681.33,-316.901 1686.17,-382.283"/>
<polygon fill="midnightblue" stroke="midnightblue" points="1682.69,-382.725 1686.89,-392.452 1689.68,-382.229 1682.69,-382.725"/>
</g>
<!-- Node9 -->
<g id="node9" class="node"><title>Node9</title>
<g id="a_node9"><a xlink:href="../../d0/df6/classCParser.html#a8b303b41d0199334a5987bb471063729" target="_top" xlink:title="CParser::explicit_scope_spec">
<polygon fill="white" stroke="black" points="1111,-601.5 1111,-620.5 1266,-620.5 1266,-601.5 1111,-601.5"/>
<text text-anchor="middle" x="1188.5" y="-608.5" font-family="Helvetica,sans-Serif" font-size="10.00">CParser::explicit_scope_spec</text>
</a>
</g>
</g>
<!-- Node8&#45;&gt;Node9 -->
<g id="edge8" class="edge"><title>Node8&#45;&gt;Node9</title>
<path fill="none" stroke="midnightblue" d="M257.259,-506.541C331.155,-522.767 491.164,-554 628,-554 628,-554 628,-554 831.5,-554 944.322,-554 1074.75,-582.257 1142.07,-598.981"/>
<polygon fill="midnightblue" stroke="midnightblue" points="1141.37,-602.415 1151.93,-601.459 1143.08,-595.626 1141.37,-602.415"/>
</g>
<!-- Node12 -->
<g id="node12" class="node"><title>Node12</title>
<g id="a_node12"><a xlink:href="../../d0/df6/classCParser.html#aea0a3166305befe762f047b6e4a6f90f" target="_top" xlink:title="CParser::unscoped_member_name">
<polygon fill="white" stroke="black" points="323,-329.5 323,-348.5 505,-348.5 505,-329.5 323,-329.5"/>
<text text-anchor="middle" x="414" y="-336.5" font-family="Helvetica,sans-Serif" font-size="10.00">CParser::unscoped_member_name</text>
</a>
</g>
</g>
<!-- Node8&#45;&gt;Node12 -->
<g id="edge16" class="edge"><title>Node8&#45;&gt;Node12</title>
<path fill="none" stroke="midnightblue" d="M228.027,-487.354C260.939,-460.958 352.724,-387.343 393.291,-354.807"/>
<polygon fill="midnightblue" stroke="midnightblue" points="395.52,-357.507 401.131,-348.52 391.14,-352.046 395.52,-357.507"/>
</g>
<!-- Node9&#45;&gt;Node3 -->
<g id="edge14" class="edge"><title>Node9&#45;&gt;Node3</title>
<path fill="none" stroke="midnightblue" d="M1218.37,-620.541C1247.11,-630.035 1291.39,-644.667 1323.18,-655.174"/>
<polygon fill="midnightblue" stroke="midnightblue" points="1322.44,-658.614 1333.03,-658.428 1324.64,-651.968 1322.44,-658.614"/>
</g>
<!-- Node9&#45;&gt;Node4 -->
<g id="edge15" class="edge"><title>Node9&#45;&gt;Node4</title>
<path fill="none" stroke="midnightblue" d="M1237.39,-620.521C1335.56,-638.894 1555.28,-673.821 1614,-631 1682.11,-581.328 1688.51,-467.577 1688.17,-421.71"/>
<polygon fill="midnightblue" stroke="midnightblue" points="1691.66,-421.521 1687.97,-411.592 1684.66,-421.658 1691.66,-421.521"/>
</g>
<!-- Node10 -->
<g id="node10" class="node"><title>Node10</title>
<g id="a_node10"><a xlink:href="../../d0/df6/classCParser.html#a729069b96fa400ec2fd9a34d4016fcdb" target="_top" xlink:title="CParser::angle_block">
<polygon fill="white" stroke="black" points="1305,-582.5 1305,-601.5 1421,-601.5 1421,-582.5 1305,-582.5"/>
<text text-anchor="middle" x="1363" y="-589.5" font-family="Helvetica,sans-Serif" font-size="10.00">CParser::angle_block</text>
</a>
</g>
</g>
<!-- Node9&#45;&gt;Node10 -->
<g id="edge9" class="edge"><title>Node9&#45;&gt;Node10</title>
<path fill="none" stroke="midnightblue" d="M1266.17,-602.556C1275.75,-601.5 1285.49,-600.427 1294.91,-599.39"/>
<polygon fill="midnightblue" stroke="midnightblue" points="1295.43,-602.854 1304.98,-598.28 1294.66,-595.896 1295.43,-602.854"/>
</g>
<!-- Node10&#45;&gt;Node4 -->
<g id="edge13" class="edge"><title>Node10&#45;&gt;Node4</title>
<path fill="none" stroke="midnightblue" d="M1406.23,-601.531C1468.65,-614.581 1581.63,-633.928 1614,-611 1676.52,-566.712 1686.25,-464.803 1687.48,-421.76"/>
<polygon fill="midnightblue" stroke="midnightblue" points="1690.98,-421.769 1687.64,-411.715 1683.99,-421.658 1690.98,-421.769"/>
</g>
<!-- Node11 -->
<g id="node11" class="node"><title>Node11</title>
<g id="a_node11"><a xlink:href="../../d0/df6/classCParser.html#aa127d8f0df3a28071ce4fe43684632ef" target="_top" xlink:title="CParser::angle_balanced_list">
<polygon fill="white" stroke="black" points="1460,-582.5 1460,-601.5 1614,-601.5 1614,-582.5 1460,-582.5"/>
<text text-anchor="middle" x="1537" y="-589.5" font-family="Helvetica,sans-Serif" font-size="10.00">CParser::angle_balanced_list</text>
</a>
</g>
</g>
<!-- Node10&#45;&gt;Node11 -->
<g id="edge10" class="edge"><title>Node10&#45;&gt;Node11</title>
<path fill="none" stroke="midnightblue" d="M1421.27,-585.596C1430.41,-585.368 1440.04,-585.253 1449.67,-585.25"/>
<polygon fill="midnightblue" stroke="midnightblue" points="1449.68,-588.75 1459.69,-585.288 1449.71,-581.75 1449.68,-588.75"/>
</g>
<!-- Node11&#45;&gt;Node4 -->
<g id="edge12" class="edge"><title>Node11&#45;&gt;Node4</title>
<path fill="none" stroke="midnightblue" d="M1598.66,-582.469C1604.21,-579.984 1609.44,-576.878 1614,-573 1660.86,-533.135 1678.67,-457.982 1684.73,-422.081"/>
<polygon fill="midnightblue" stroke="midnightblue" points="1688.23,-422.316 1686.3,-411.898 1681.31,-421.246 1688.23,-422.316"/>
</g>
<!-- Node11&#45;&gt;Node10 -->
<g id="edge11" class="edge"><title>Node11&#45;&gt;Node10</title>
<path fill="none" stroke="midnightblue" d="M1459.69,-598.712C1450.32,-598.786 1440.78,-598.752 1431.55,-598.61"/>
<polygon fill="midnightblue" stroke="midnightblue" points="1431.34,-595.105 1421.27,-598.404 1431.2,-602.104 1431.34,-595.105"/>
</g>
<!-- Node12&#45;&gt;Node4 -->
<g id="edge44" class="edge"><title>Node12&#45;&gt;Node4</title>
<path fill="none" stroke="midnightblue" d="M424.585,-329.484C467.56,-287.875 648.317,-124 829.5,-124 829.5,-124 829.5,-124 1364,-124 1419.68,-124 1570.78,-105.896 1614,-141 1652.29,-172.096 1677.14,-327.181 1684.9,-382.421"/>
<polygon fill="midnightblue" stroke="midnightblue" points="1681.44,-382.91 1686.26,-392.343 1688.37,-381.961 1681.44,-382.91"/>
</g>
<!-- Node12&#45;&gt;Node10 -->
<g id="edge17" class="edge"><title>Node12&#45;&gt;Node10</title>
<path fill="none" stroke="midnightblue" d="M427.073,-348.516C474.965,-385.281 657.354,-516 829.5,-516 829.5,-516 829.5,-516 1010.5,-516 1128.44,-516 1263.7,-557.378 1326.52,-579.071"/>
<polygon fill="midnightblue" stroke="midnightblue" points="1325.37,-582.377 1335.96,-582.375 1327.68,-575.769 1325.37,-582.377"/>
</g>
<!-- Node13 -->
<g id="node13" class="node"><title>Node13</title>
<g id="a_node13"><a xlink:href="../../d0/df6/classCParser.html#ac5cba09faa6ccf6314b75950f0d8e40e" target="_top" xlink:title="CParser::dtor_member_name">
<polygon fill="white" stroke="black" points="753,-76.5 753,-95.5 908,-95.5 908,-76.5 753,-76.5"/>
<text text-anchor="middle" x="830.5" y="-83.5" font-family="Helvetica,sans-Serif" font-size="10.00">CParser::dtor_member_name</text>
</a>
</g>
</g>
<!-- Node12&#45;&gt;Node13 -->
<g id="edge18" class="edge"><title>Node12&#45;&gt;Node13</title>
<path fill="none" stroke="midnightblue" d="M416.91,-329.421C424.689,-293.22 457.625,-164.077 541,-110 608.704,-66.0871 704.969,-67.8171 767.335,-75.2102"/>
<polygon fill="midnightblue" stroke="midnightblue" points="767.064,-78.7037 777.425,-76.4906 767.945,-71.7594 767.064,-78.7037"/>
</g>
<!-- Node14 -->
<g id="node14" class="node"><title>Node14</title>
<g id="a_node14"><a xlink:href="../../d0/df6/classCParser.html#ac99dcea42e50abf304d0a7bb001b1829" target="_top" xlink:title="CParser::operator_member_name">
<polygon fill="white" stroke="black" points="541,-329.5 541,-348.5 717,-348.5 717,-329.5 541,-329.5"/>
<text text-anchor="middle" x="629" y="-336.5" font-family="Helvetica,sans-Serif" font-size="10.00">CParser::operator_member_name</text>
</a>
</g>
</g>
<!-- Node12&#45;&gt;Node14 -->
<g id="edge20" class="edge"><title>Node12&#45;&gt;Node14</title>
<path fill="none" stroke="midnightblue" d="M505.022,-339C513.417,-339 521.952,-339 530.412,-339"/>
<polygon fill="midnightblue" stroke="midnightblue" points="530.678,-342.5 540.678,-339 530.678,-335.5 530.678,-342.5"/>
</g>
<!-- Node13&#45;&gt;Node4 -->
<g id="edge19" class="edge"><title>Node13&#45;&gt;Node4</title>
<path fill="none" stroke="midnightblue" d="M908.236,-86C980.334,-86 1091.24,-86 1187.5,-86 1187.5,-86 1187.5,-86 1364,-86 1475.62,-86 1529.35,-37.2447 1614,-110 1656,-146.096 1678.82,-322.458 1685.45,-382.183"/>
<polygon fill="midnightblue" stroke="midnightblue" points="1682.01,-382.928 1686.55,-392.496 1688.96,-382.179 1682.01,-382.928"/>
</g>
<!-- Node14&#45;&gt;Node4 -->
<g id="edge43" class="edge"><title>Node14&#45;&gt;Node4</title>
<path fill="none" stroke="midnightblue" d="M650.413,-348.502C706.358,-373.644 867.377,-440 1008.5,-440 1008.5,-440 1008.5,-440 1364,-440 1462.56,-440 1576.87,-422.385 1639.8,-411.141"/>
<polygon fill="midnightblue" stroke="midnightblue" points="1640.6,-414.553 1649.82,-409.327 1639.35,-407.665 1640.6,-414.553"/>
</g>
<!-- Node15 -->
<g id="node15" class="node"><title>Node15</title>
<g id="a_node15"><a xlink:href="../../d0/df6/classCParser.html#a4bf5a797adb8a33705182662a6a8f45b" target="_top" xlink:title="CParser::operator_identifier">
<polygon fill="white" stroke="black" points="757,-228.5 757,-247.5 904,-247.5 904,-228.5 757,-228.5"/>
<text text-anchor="middle" x="830.5" y="-235.5" font-family="Helvetica,sans-Serif" font-size="10.00">CParser::operator_identifier</text>
</a>
</g>
</g>
<!-- Node14&#45;&gt;Node15 -->
<g id="edge21" class="edge"><title>Node14&#45;&gt;Node15</title>
<path fill="none" stroke="midnightblue" d="M648.768,-329.498C684.044,-311.639 760.39,-272.988 801.665,-252.092"/>
<polygon fill="midnightblue" stroke="midnightblue" points="803.295,-255.19 810.636,-247.55 800.133,-248.944 803.295,-255.19"/>
</g>
<!-- Node15&#45;&gt;Node4 -->
<g id="edge42" class="edge"><title>Node15&#45;&gt;Node4</title>
<path fill="none" stroke="midnightblue" d="M904.114,-238C976.056,-238 1089.38,-238 1187.5,-238 1187.5,-238 1187.5,-238 1364,-238 1475.67,-238 1521.34,-200.685 1614,-263 1655.76,-291.084 1675.49,-350.807 1683.26,-382.034"/>
<polygon fill="midnightblue" stroke="midnightblue" points="1679.94,-383.186 1685.61,-392.138 1686.76,-381.606 1679.94,-383.186"/>
</g>
<!-- Node16 -->
<g id="node16" class="node"><title>Node16</title>
<g id="a_node16"><a xlink:href="../../d0/df6/classCParser.html#a177b7d8d53b6d7c2c89bbea896b3d154" target="_top" xlink:title="CParser::op">
<polygon fill="white" stroke="black" points="973.5,-190.5 973.5,-209.5 1045.5,-209.5 1045.5,-190.5 973.5,-190.5"/>
<text text-anchor="middle" x="1009.5" y="-197.5" font-family="Helvetica,sans-Serif" font-size="10.00">CParser::op</text>
</a>
</g>
</g>
<!-- Node15&#45;&gt;Node16 -->
<g id="edge22" class="edge"><title>Node15&#45;&gt;Node16</title>
<path fill="none" stroke="midnightblue" d="M876.165,-228.411C902.863,-222.679 936.682,-215.419 963.448,-209.672"/>
<polygon fill="midnightblue" stroke="midnightblue" points="964.29,-213.071 973.332,-207.55 962.82,-206.227 964.29,-213.071"/>
</g>
<!-- Node17 -->
<g id="node17" class="node"><title>Node17</title>
<g id="a_node17"><a xlink:href="../../d0/df6/classCParser.html#ab214b7a662d6c62ddf8d51f0116865cf" target="_top" xlink:title="CParser::new_or_delete">
<polygon fill="white" stroke="black" points="944,-152.5 944,-171.5 1075,-171.5 1075,-152.5 944,-152.5"/>
<text text-anchor="middle" x="1009.5" y="-159.5" font-family="Helvetica,sans-Serif" font-size="10.00">CParser::new_or_delete</text>
</a>
</g>
</g>
<!-- Node15&#45;&gt;Node17 -->
<g id="edge24" class="edge"><title>Node15&#45;&gt;Node17</title>
<path fill="none" stroke="midnightblue" d="M848.206,-228.315C869.793,-216.089 908.792,-194.97 944,-181 949.839,-178.683 956.073,-176.501 962.279,-174.499"/>
<polygon fill="midnightblue" stroke="midnightblue" points="963.427,-177.808 971.945,-171.508 961.357,-171.12 963.427,-177.808"/>
</g>
<!-- Node18 -->
<g id="node18" class="node"><title>Node18</title>
<g id="a_node18"><a xlink:href="../../d0/df6/classCParser.html#a5426875088dc6d2b5deaef3b61c55135" target="_top" xlink:title="CParser::type">
<polygon fill="white" stroke="black" points="969.5,-335.5 969.5,-354.5 1049.5,-354.5 1049.5,-335.5 969.5,-335.5"/>
<text text-anchor="middle" x="1009.5" y="-342.5" font-family="Helvetica,sans-Serif" font-size="10.00">CParser::type</text>
</a>
</g>
</g>
<!-- Node15&#45;&gt;Node18 -->
<g id="edge26" class="edge"><title>Node15&#45;&gt;Node18</title>
<path fill="none" stroke="midnightblue" d="M847.52,-247.684C878.586,-266.464 947.191,-307.938 984.01,-330.195"/>
<polygon fill="midnightblue" stroke="midnightblue" points="982.275,-333.237 992.644,-335.415 985.897,-327.246 982.275,-333.237"/>
</g>
<!-- Node16&#45;&gt;Node4 -->
<g id="edge23" class="edge"><title>Node16&#45;&gt;Node4</title>
<path fill="none" stroke="midnightblue" d="M1045.67,-196.612C1160.41,-186.279 1521.79,-159.624 1614,-224 1666.92,-260.944 1681.82,-343.378 1685.95,-381.695"/>
<polygon fill="midnightblue" stroke="midnightblue" points="1682.51,-382.439 1686.92,-392.071 1689.48,-381.79 1682.51,-382.439"/>
</g>
<!-- Node17&#45;&gt;Node4 -->
<g id="edge25" class="edge"><title>Node17&#45;&gt;Node4</title>
<path fill="none" stroke="midnightblue" d="M1075.02,-155.335C1212.89,-142.482 1530.49,-120.709 1614,-183 1678.47,-231.088 1687.04,-338.228 1687.72,-382.391"/>
<polygon fill="midnightblue" stroke="midnightblue" points="1684.22,-382.423 1687.75,-392.412 1691.22,-382.401 1684.22,-382.423"/>
</g>
<!-- Node18&#45;&gt;Node4 -->
<g id="edge41" class="edge"><title>Node18&#45;&gt;Node4</title>
<path fill="none" stroke="midnightblue" d="M1049.95,-353.575C1068.41,-357.3 1090.75,-361.398 1111,-364 1306.1,-389.061 1540.59,-398.026 1639.63,-400.849"/>
<polygon fill="midnightblue" stroke="midnightblue" points="1639.82,-404.355 1649.91,-401.133 1640.01,-397.358 1639.82,-404.355"/>
</g>
<!-- Node19 -->
<g id="node19" class="node"><title>Node19</title>
<g id="a_node19"><a xlink:href="../../d0/df6/classCParser.html#aeb64a7eb39e1e247d6b06c833355fd1d" target="_top" xlink:title="CParser::cv_qualifier">
<polygon fill="white" stroke="black" points="1132,-335.5 1132,-354.5 1245,-354.5 1245,-335.5 1132,-335.5"/>
<text text-anchor="middle" x="1188.5" y="-342.5" font-family="Helvetica,sans-Serif" font-size="10.00">CParser::cv_qualifier</text>
</a>
</g>
</g>
<!-- Node18&#45;&gt;Node19 -->
<g id="edge27" class="edge"><title>Node18&#45;&gt;Node19</title>
<path fill="none" stroke="midnightblue" d="M1049.78,-345C1070.9,-345 1097.51,-345 1121.69,-345"/>
<polygon fill="midnightblue" stroke="midnightblue" points="1121.88,-348.5 1131.88,-345 1121.88,-341.5 1121.88,-348.5"/>
</g>
<!-- Node21 -->
<g id="node21" class="node"><title>Node21</title>
<g id="a_node21"><a xlink:href="../../d0/df6/classCParser.html#a03c75fc2be131ba2c0a21fd9687b49ca" target="_top" xlink:title="CParser::type_name">
<polygon fill="white" stroke="black" points="1132,-468.5 1132,-487.5 1245,-487.5 1245,-468.5 1132,-468.5"/>
<text text-anchor="middle" x="1188.5" y="-475.5" font-family="Helvetica,sans-Serif" font-size="10.00">CParser::type_name</text>
</a>
</g>
</g>
<!-- Node18&#45;&gt;Node21 -->
<g id="edge30" class="edge"><title>Node18&#45;&gt;Node21</title>
<path fill="none" stroke="midnightblue" d="M1023.23,-354.565C1053.32,-377.173 1129.08,-434.1 1166.25,-462.036"/>
<polygon fill="midnightblue" stroke="midnightblue" points="1164.31,-464.954 1174.41,-468.163 1168.52,-459.357 1164.31,-464.954"/>
</g>
<!-- Node24 -->
<g id="node24" class="node"><title>Node24</title>
<g id="a_node24"><a xlink:href="../../d0/df6/classCParser.html#acec16523a6abcc5dcaa503fdfec12d5e" target="_top" xlink:title="CParser::indirection\l_modifiers">
<polygon fill="white" stroke="black" points="1308.5,-267 1308.5,-297 1417.5,-297 1417.5,-267 1308.5,-267"/>
<text text-anchor="start" x="1316.5" y="-285" font-family="Helvetica,sans-Serif" font-size="10.00">CParser::indirection</text>
<text text-anchor="middle" x="1363" y="-274" font-family="Helvetica,sans-Serif" font-size="10.00">_modifiers</text>
</a>
</g>
</g>
<!-- Node18&#45;&gt;Node24 -->
<g id="edge37" class="edge"><title>Node18&#45;&gt;Node24</title>
<path fill="none" stroke="midnightblue" d="M1049.61,-337.48C1068.2,-333.939 1090.74,-329.692 1111,-326 1174.52,-314.428 1247.19,-301.75 1297.94,-292.988"/>
<polygon fill="midnightblue" stroke="midnightblue" points="1298.84,-296.383 1308.1,-291.234 1297.65,-289.485 1298.84,-296.383"/>
</g>
<!-- Node19&#45;&gt;Node4 -->
<g id="edge29" class="edge"><title>Node19&#45;&gt;Node4</title>
<path fill="none" stroke="midnightblue" d="M1245.32,-349.092C1326.66,-355.41 1482.42,-368.842 1614,-388 1622.41,-389.224 1631.32,-390.737 1639.92,-392.31"/>
<polygon fill="midnightblue" stroke="midnightblue" points="1639.36,-395.766 1649.84,-394.172 1640.65,-388.887 1639.36,-395.766"/>
</g>
<!-- Node20 -->
<g id="node20" class="node"><title>Node20</title>
<g id="a_node20"><a xlink:href="../../d0/df6/classCParser.html#a2912da073892123622f3c380820f7a12" target="_top" xlink:title="CParser::typeCombine">
<polygon fill="white" stroke="black" points="1302,-316.5 1302,-335.5 1424,-335.5 1424,-316.5 1302,-316.5"/>
<text text-anchor="middle" x="1363" y="-323.5" font-family="Helvetica,sans-Serif" font-size="10.00">CParser::typeCombine</text>
</a>
</g>
</g>
<!-- Node19&#45;&gt;Node20 -->
<g id="edge28" class="edge"><title>Node19&#45;&gt;Node20</title>
<path fill="none" stroke="midnightblue" d="M1245.03,-338.884C1259.9,-337.246 1276.16,-335.455 1291.71,-333.742"/>
<polygon fill="midnightblue" stroke="midnightblue" points="1292.25,-337.204 1301.8,-332.63 1291.48,-330.246 1292.25,-337.204"/>
</g>
<!-- Node21&#45;&gt;Node1 -->
<g id="edge35" class="edge"><title>Node21&#45;&gt;Node1</title>
<path fill="none" stroke="midnightblue" d="M1170.71,-487.523C1120.76,-514.922 968.108,-592 831.5,-592 413,-592 413,-592 413,-592 309.335,-592 188.808,-592 117.242,-592"/>
<polygon fill="midnightblue" stroke="midnightblue" points="117.046,-588.5 107.046,-592 117.046,-595.5 117.046,-588.5"/>
</g>
<!-- Node21&#45;&gt;Node4 -->
<g id="edge36" class="edge"><title>Node21&#45;&gt;Node4</title>
<path fill="none" stroke="midnightblue" d="M1245.32,-484.404C1328.33,-491.834 1488.04,-498.004 1614,-454 1635.26,-446.572 1655.88,-431.031 1669.83,-418.864"/>
<polygon fill="midnightblue" stroke="midnightblue" points="1672.54,-421.132 1677.61,-411.827 1667.85,-415.941 1672.54,-421.132"/>
</g>
<!-- Node22 -->
<g id="node22" class="node"><title>Node22</title>
<g id="a_node22"><a xlink:href="../../d0/df6/classCParser.html#a10a7b42902ca78cb3c11c04eb3b55d96" target="_top" xlink:title="CParser::builtin_type">
<polygon fill="white" stroke="black" points="1306.5,-506.5 1306.5,-525.5 1419.5,-525.5 1419.5,-506.5 1306.5,-506.5"/>
<text text-anchor="middle" x="1363" y="-513.5" font-family="Helvetica,sans-Serif" font-size="10.00">CParser::builtin_type</text>
</a>
</g>
</g>
<!-- Node21&#45;&gt;Node22 -->
<g id="edge31" class="edge"><title>Node21&#45;&gt;Node22</title>
<path fill="none" stroke="midnightblue" d="M1233.03,-487.589C1256.1,-492.671 1284.63,-498.955 1308.98,-504.32"/>
<polygon fill="midnightblue" stroke="midnightblue" points="1308.27,-507.747 1318.78,-506.48 1309.77,-500.911 1308.27,-507.747"/>
</g>
<!-- Node22&#45;&gt;Node4 -->
<g id="edge34" class="edge"><title>Node22&#45;&gt;Node4</title>
<path fill="none" stroke="midnightblue" d="M1419.65,-522.452C1472.76,-525.994 1553.43,-524.371 1614,-492 1643.95,-475.992 1666.29,-442.121 1678.08,-420.8"/>
<polygon fill="midnightblue" stroke="midnightblue" points="1681.3,-422.212 1682.88,-411.736 1675.11,-418.939 1681.3,-422.212"/>
</g>
<!-- Node23 -->
<g id="node23" class="node"><title>Node23</title>
<g id="a_node23"><a xlink:href="../../d0/df6/classCParser.html#a2892a3b78b33e67d6b648ed24668fed0" target="_top" xlink:title="CParser::type_keyword">
<polygon fill="white" stroke="black" points="1474,-544.5 1474,-563.5 1600,-563.5 1600,-544.5 1474,-544.5"/>
<text text-anchor="middle" x="1537" y="-551.5" font-family="Helvetica,sans-Serif" font-size="10.00">CParser::type_keyword</text>
</a>
</g>
</g>
<!-- Node22&#45;&gt;Node23 -->
<g id="edge32" class="edge"><title>Node22&#45;&gt;Node23</title>
<path fill="none" stroke="midnightblue" d="M1407.4,-525.589C1430.41,-530.671 1458.85,-536.955 1483.13,-542.32"/>
<polygon fill="midnightblue" stroke="midnightblue" points="1482.39,-545.74 1492.91,-544.48 1483.9,-538.905 1482.39,-545.74"/>
</g>
<!-- Node23&#45;&gt;Node4 -->
<g id="edge33" class="edge"><title>Node23&#45;&gt;Node4</title>
<path fill="none" stroke="midnightblue" d="M1586.92,-544.451C1596.57,-541.006 1606.13,-536.333 1614,-530 1649.95,-501.064 1671.69,-449.493 1681.43,-421.455"/>
<polygon fill="midnightblue" stroke="midnightblue" points="1684.86,-422.234 1684.67,-411.641 1678.21,-420.036 1684.86,-422.234"/>
</g>
<!-- Node24&#45;&gt;Node4 -->
<g id="edge40" class="edge"><title>Node24&#45;&gt;Node4</title>
<path fill="none" stroke="midnightblue" d="M1417.5,-271.781C1470.84,-264.442 1553.33,-261.027 1614,-295 1648.58,-314.365 1670.34,-357.624 1680.57,-382.807"/>
<polygon fill="midnightblue" stroke="midnightblue" points="1677.39,-384.296 1684.25,-392.37 1683.93,-381.78 1677.39,-384.296"/>
</g>
<!-- Node25 -->
<g id="node25" class="node"><title>Node25</title>
<g id="a_node25"><a xlink:href="../../d0/df6/classCParser.html#a80be2f0d41b613906058b6df76ce7815" target="_top" xlink:title="CParser::indirection\l_modifier">
<polygon fill="white" stroke="black" points="1482.5,-305 1482.5,-335 1591.5,-335 1591.5,-305 1482.5,-305"/>
<text text-anchor="start" x="1490.5" y="-323" font-family="Helvetica,sans-Serif" font-size="10.00">CParser::indirection</text>
<text text-anchor="middle" x="1537" y="-312" font-family="Helvetica,sans-Serif" font-size="10.00">_modifier</text>
</a>
</g>
</g>
<!-- Node24&#45;&gt;Node25 -->
<g id="edge38" class="edge"><title>Node24&#45;&gt;Node25</title>
<path fill="none" stroke="midnightblue" d="M1417.95,-293.919C1435.24,-297.739 1454.55,-302.005 1472.46,-305.961"/>
<polygon fill="midnightblue" stroke="midnightblue" points="1471.72,-309.383 1482.24,-308.123 1473.23,-302.548 1471.72,-309.383"/>
</g>
<!-- Node25&#45;&gt;Node4 -->
<g id="edge39" class="edge"><title>Node25&#45;&gt;Node4</title>
<path fill="none" stroke="midnightblue" d="M1581.42,-335.068C1592.29,-339.399 1603.77,-344.466 1614,-350 1633.13,-360.347 1653.17,-374.805 1667.49,-385.851"/>
<polygon fill="midnightblue" stroke="midnightblue" points="1665.58,-388.799 1675.6,-392.22 1669.9,-383.292 1665.58,-388.799"/>
</g>
<!-- Node27 -->
<g id="node27" class="node"><title>Node27</title>
<g id="a_node27"><a xlink:href="../../d4/d6e/classCCCC__Project.html#ac0565e746210778bc6f165130464041b" target="_top" xlink:title="CCCC_Project::name">
<polygon fill="white" stroke="black" points="356,-0.5 356,-19.5 472,-19.5 472,-0.5 356,-0.5"/>
<text text-anchor="middle" x="414" y="-7.5" font-family="Helvetica,sans-Serif" font-size="10.00">CCCC_Project::name</text>
</a>
</g>
</g>
<!-- Node26&#45;&gt;Node27 -->
<g id="edge47" class="edge"><title>Node26&#45;&gt;Node27</title>
<path fill="none" stroke="midnightblue" d="M219.086,-196.436C229.025,-167.209 263.086,-78.3714 323,-34 329.987,-28.8255 338.009,-24.766 346.323,-21.5812"/>
<polygon fill="midnightblue" stroke="midnightblue" points="347.464,-24.8903 355.794,-18.3444 345.2,-18.2664 347.464,-24.8903"/>
</g>
</g>
</svg>
