<?xml version="1.0" encoding="UTF-8" standalone="no"?>
<!DOCTYPE svg PUBLIC "-//W3C//DTD SVG 1.1//EN"
 "http://www.w3.org/Graphics/SVG/1.1/DTD/svg11.dtd">
<!-- Generated by graphviz version 2.38.0 (20140413.2041)
 -->
<!-- Title: CParser::block Pages: 1 -->
<svg width="3436pt" height="302pt"
 viewBox="0.00 0.00 3436.00 301.50" xmlns="http://www.w3.org/2000/svg" xmlns:xlink="http://www.w3.org/1999/xlink">
<g id="graph0" class="graph" transform="scale(1 1) rotate(0) translate(4 297.5)">
<title>CParser::block</title>
<polygon fill="white" stroke="none" points="-4,4 -4,-297.5 3432,-297.5 3432,4 -4,4"/>
<!-- Node1 -->
<g id="node1" class="node"><title>Node1</title>
<polygon fill="#bfbfbf" stroke="black" points="0,-141 0,-160 84,-160 84,-141 0,-141"/>
<text text-anchor="middle" x="42" y="-148" font-family="Helvetica,sans-Serif" font-size="10.00">CParser::block</text>
</g>
<!-- Node2 -->
<g id="node2" class="node"><title>Node2</title>
<g id="a_node2"><a xlink:href="../../d0/df6/classCParser.html#a424ec587e8167b682804c23c4804d895" target="_top" xlink:title="CParser::balanced">
<polygon fill="white" stroke="black" points="120,-141 120,-160 223,-160 223,-141 120,-141"/>
<text text-anchor="middle" x="171.5" y="-148" font-family="Helvetica,sans-Serif" font-size="10.00">CParser::balanced</text>
</a>
</g>
</g>
<!-- Node1&#45;&gt;Node2 -->
<g id="edge1" class="edge"><title>Node1&#45;&gt;Node2</title>
<path fill="none" stroke="midnightblue" d="M94.1272,-150.5C102.553,-150.5 111.285,-150.5 119.702,-150.5"/>
<polygon fill="midnightblue" stroke="midnightblue" points="94.0437,-147 84.0436,-150.5 94.0436,-154 94.0437,-147"/>
</g>
<!-- Node3 -->
<g id="node3" class="node"><title>Node3</title>
<g id="a_node3"><a xlink:href="../../d0/df6/classCParser.html#a967d50b91351cf003898543b6d7af7a7" target="_top" xlink:title="CParser::balanced_list">
<polygon fill="white" stroke="black" points="259,-141 259,-160 381,-160 381,-141 259,-141"/>
<text text-anchor="middle" x="320" y="-148" font-family="Helvetica,sans-Serif" font-size="10.00">CParser::balanced_list</text>
</a>
</g>
</g>
<!-- Node2&#45;&gt;Node3 -->
<g id="edge2" class="edge"><title>Node2&#45;&gt;Node3</title>
<path fill="none" stroke="midnightblue" d="M233.462,-150.5C241.887,-150.5 250.535,-150.5 258.943,-150.5"/>
<polygon fill="midnightblue" stroke="midnightblue" points="233.327,-147 223.327,-150.5 233.327,-154 233.327,-147"/>
</g>
<!-- Node4 -->
<g id="node4" class="node"><title>Node4</title>
<g id="a_node4"><a xlink:href="../../d0/df6/classCParser.html#a51affc383cd0859af5d84b628c8a2f5c" target="_top" xlink:title="CParser::paren_block">
<polygon fill="white" stroke="black" points="417,-179 417,-198 535,-198 535,-179 417,-179"/>
<text text-anchor="middle" x="476" y="-186" font-family="Helvetica,sans-Serif" font-size="10.00">CParser::paren_block</text>
</a>
</g>
</g>
<!-- Node3&#45;&gt;Node4 -->
<g id="edge3" class="edge"><title>Node3&#45;&gt;Node4</title>
<path fill="none" stroke="midnightblue" d="M369.794,-162.54C391.308,-167.849 416.232,-173.999 436.419,-178.98"/>
<polygon fill="midnightblue" stroke="midnightblue" points="370.408,-159.087 359.861,-160.089 368.731,-165.883 370.408,-159.087"/>
</g>
<!-- Node37 -->
<g id="node37" class="node"><title>Node37</title>
<g id="a_node37"><a xlink:href="../../d0/df6/classCParser.html#ac73c93a601c6e7123e0ebbd7be03b60d" target="_top" xlink:title="CParser::brack_block">
<polygon fill="white" stroke="black" points="418,-103 418,-122 534,-122 534,-103 418,-103"/>
<text text-anchor="middle" x="476" y="-110" font-family="Helvetica,sans-Serif" font-size="10.00">CParser::brack_block</text>
</a>
</g>
</g>
<!-- Node3&#45;&gt;Node37 -->
<g id="edge47" class="edge"><title>Node3&#45;&gt;Node37</title>
<path fill="none" stroke="midnightblue" d="M369.794,-138.46C391.308,-133.151 416.232,-127.001 436.419,-122.02"/>
<polygon fill="midnightblue" stroke="midnightblue" points="368.731,-135.117 359.861,-140.911 370.408,-141.913 368.731,-135.117"/>
</g>
<!-- Node4&#45;&gt;Node1 -->
<g id="edge46" class="edge"><title>Node4&#45;&gt;Node1</title>
<path fill="none" stroke="midnightblue" d="M406.603,-188.648C334.833,-187.916 218.917,-184.217 120,-169.5 105.291,-167.312 89.2888,-163.588 75.7019,-160.014"/>
<polygon fill="midnightblue" stroke="midnightblue" points="406.835,-192.15 416.865,-188.736 406.895,-185.15 406.835,-192.15"/>
</g>
<!-- Node5 -->
<g id="node5" class="node"><title>Node5</title>
<g id="a_node5"><a xlink:href="../../d0/df6/classCParser.html#afbe8666c28623fadda88dce63f2d0dd7" target="_top" xlink:title="CParser::param_list">
<polygon fill="white" stroke="black" points="579.5,-274 579.5,-293 688.5,-293 688.5,-274 579.5,-274"/>
<text text-anchor="middle" x="634" y="-281" font-family="Helvetica,sans-Serif" font-size="10.00">CParser::param_list</text>
</a>
</g>
</g>
<!-- Node4&#45;&gt;Node5 -->
<g id="edge4" class="edge"><title>Node4&#45;&gt;Node5</title>
<path fill="none" stroke="midnightblue" d="M493.518,-205.208C511.252,-222.293 540.951,-248.525 571,-264.5 578.058,-268.252 585.97,-271.385 593.719,-273.952"/>
<polygon fill="midnightblue" stroke="midnightblue" points="495.84,-202.583 486.253,-198.072 490.935,-207.577 495.84,-202.583"/>
</g>
<!-- Node22 -->
<g id="node22" class="node"><title>Node22</title>
<g id="a_node22"><a xlink:href="../../d0/df6/classCParser.html#a74aee17394e57d00d5cf1cb233f2dd42" target="_top" xlink:title="CParser::fptr_type\l_alias">
<polygon fill="white" stroke="black" points="744.5,-119.5 744.5,-149.5 846.5,-149.5 846.5,-119.5 744.5,-119.5"/>
<text text-anchor="start" x="752.5" y="-137.5" font-family="Helvetica,sans-Serif" font-size="10.00">CParser::fptr_type</text>
<text text-anchor="middle" x="795.5" y="-126.5" font-family="Helvetica,sans-Serif" font-size="10.00">_alias</text>
</a>
</g>
</g>
<!-- Node4&#45;&gt;Node22 -->
<g id="edge27" class="edge"><title>Node4&#45;&gt;Node22</title>
<path fill="none" stroke="midnightblue" d="M543.14,-177.251C603.01,-167.068 689.904,-152.289 744.257,-143.045"/>
<polygon fill="midnightblue" stroke="midnightblue" points="542.303,-173.843 533.032,-178.97 543.477,-180.744 542.303,-173.843"/>
</g>
<!-- Node25 -->
<g id="node25" class="node"><title>Node25</title>
<g id="a_node25"><a xlink:href="../../d0/df6/classCParser.html#a5e83377507b06b136005686f47f13fcb" target="_top" xlink:title="CParser::item_specifier">
<polygon fill="white" stroke="black" points="733,-171 733,-190 858,-190 858,-171 733,-171"/>
<text text-anchor="middle" x="795.5" y="-178" font-family="Helvetica,sans-Serif" font-size="10.00">CParser::item_specifier</text>
</a>
</g>
</g>
<!-- Node4&#45;&gt;Node25 -->
<g id="edge31" class="edge"><title>Node4&#45;&gt;Node25</title>
<path fill="none" stroke="midnightblue" d="M545.365,-186.777C601.067,-185.374 679.034,-183.409 732.842,-182.054"/>
<polygon fill="midnightblue" stroke="midnightblue" points="545.143,-183.282 535.234,-187.033 545.319,-190.28 545.143,-183.282"/>
</g>
<!-- Node33 -->
<g id="node33" class="node"><title>Node33</title>
<g id="a_node33"><a xlink:href="../../d0/df6/classCParser.html#aa600547e6bdaf5e45d02c89a19c7fa4b" target="_top" xlink:title="CParser::init_expr_item">
<polygon fill="white" stroke="black" points="571,-236 571,-255 697,-255 697,-236 571,-236"/>
<text text-anchor="middle" x="634" y="-243" font-family="Helvetica,sans-Serif" font-size="10.00">CParser::init_expr_item</text>
</a>
</g>
</g>
<!-- Node4&#45;&gt;Node33 -->
<g id="edge41" class="edge"><title>Node4&#45;&gt;Node33</title>
<path fill="none" stroke="midnightblue" d="M508.688,-202.11C526.792,-209.683 550.003,-219.054 571,-226.5 580.337,-229.811 590.581,-233.091 600.006,-235.97"/>
<polygon fill="midnightblue" stroke="midnightblue" points="509.777,-198.77 499.202,-198.111 507.058,-205.221 509.777,-198.77"/>
</g>
<!-- Node36 -->
<g id="node36" class="node"><title>Node36</title>
<g id="a_node36"><a xlink:href="../../d0/df6/classCParser.html#a8715e75c1e5fe112f10ccf0986cc2c7d" target="_top" xlink:title="CParser::init_value">
<polygon fill="white" stroke="black" points="582,-198 582,-217 686,-217 686,-198 582,-198"/>
<text text-anchor="middle" x="634" y="-205" font-family="Helvetica,sans-Serif" font-size="10.00">CParser::init_value</text>
</a>
</g>
</g>
<!-- Node4&#45;&gt;Node36 -->
<g id="edge45" class="edge"><title>Node4&#45;&gt;Node36</title>
<path fill="none" stroke="midnightblue" d="M545.282,-196.816C557.54,-198.309 570.123,-199.842 581.795,-201.263"/>
<polygon fill="midnightblue" stroke="midnightblue" points="545.438,-193.31 535.089,-195.575 544.592,-200.258 545.438,-193.31"/>
</g>
<!-- Node6 -->
<g id="node6" class="node"><title>Node6</title>
<g id="a_node6"><a xlink:href="../../d0/df6/classCParser.html#ab263641e50f3b30b3ac343dd3a5f7e61" target="_top" xlink:title="CParser::method_signature">
<polygon fill="white" stroke="black" points="1052,-274 1052,-293 1197,-293 1197,-274 1052,-274"/>
<text text-anchor="middle" x="1124.5" y="-281" font-family="Helvetica,sans-Serif" font-size="10.00">CParser::method_signature</text>
</a>
</g>
</g>
<!-- Node5&#45;&gt;Node6 -->
<g id="edge5" class="edge"><title>Node5&#45;&gt;Node6</title>
<path fill="none" stroke="midnightblue" d="M698.866,-283.5C789.999,-283.5 956.825,-283.5 1051.99,-283.5"/>
<polygon fill="midnightblue" stroke="midnightblue" points="698.675,-280 688.675,-283.5 698.675,-287 698.675,-280"/>
</g>
<!-- Node7 -->
<g id="node7" class="node"><title>Node7</title>
<g id="a_node7"><a xlink:href="../../d0/df6/classCParser.html#a0dd2a579512bf1a17aaeac5fdec860a7" target="_top" xlink:title="CParser::method_declaration\l_or_definition_with_implicit_type">
<polygon fill="white" stroke="black" points="1915,-224.5 1915,-254.5 2085,-254.5 2085,-224.5 1915,-224.5"/>
<text text-anchor="start" x="1923" y="-242.5" font-family="Helvetica,sans-Serif" font-size="10.00">CParser::method_declaration</text>
<text text-anchor="middle" x="2000" y="-231.5" font-family="Helvetica,sans-Serif" font-size="10.00">_or_definition_with_implicit_type</text>
</a>
</g>
</g>
<!-- Node6&#45;&gt;Node7 -->
<g id="edge6" class="edge"><title>Node6&#45;&gt;Node7</title>
<path fill="none" stroke="midnightblue" d="M1207.48,-283.5C1279.63,-283.5 1387.54,-283.5 1481.5,-283.5 1481.5,-283.5 1481.5,-283.5 1647,-283.5 1742.77,-283.5 1852.07,-267.266 1923.12,-254.519"/>
<polygon fill="midnightblue" stroke="midnightblue" points="1207.1,-280 1197.1,-283.5 1207.1,-287 1207.1,-280"/>
</g>
<!-- Node8 -->
<g id="node8" class="node"><title>Node8</title>
<g id="a_node8"><a xlink:href="../../d0/df6/classCParser.html#ab3ab57ace628c2476dd8dfe5a96f9a15" target="_top" xlink:title="CParser::definition\l_or_declaration">
<polygon fill="white" stroke="black" points="2327,-131.5 2327,-161.5 2430,-161.5 2430,-131.5 2327,-131.5"/>
<text text-anchor="start" x="2335" y="-149.5" font-family="Helvetica,sans-Serif" font-size="10.00">CParser::definition</text>
<text text-anchor="middle" x="2378.5" y="-138.5" font-family="Helvetica,sans-Serif" font-size="10.00">_or_declaration</text>
</a>
</g>
</g>
<!-- Node7&#45;&gt;Node8 -->
<g id="edge7" class="edge"><title>Node7&#45;&gt;Node8</title>
<path fill="none" stroke="midnightblue" d="M2058.17,-221.425C2077.98,-215.408 2100.38,-208.875 2121,-203.5 2191.85,-185.027 2274.68,-167.312 2326.62,-156.666"/>
<polygon fill="midnightblue" stroke="midnightblue" points="2056.91,-218.149 2048.37,-224.422 2058.96,-224.843 2056.91,-218.149"/>
</g>
<!-- Node20 -->
<g id="node20" class="node"><title>Node20</title>
<g id="a_node20"><a xlink:href="../../d0/df6/classCParser.html#a12561a45dab96760d7ab45896681dd33" target="_top" xlink:title="CParser::class_or_method\l_declaration_or_definition">
<polygon fill="white" stroke="black" points="3287,-219.5 3287,-249.5 3428,-249.5 3428,-219.5 3287,-219.5"/>
<text text-anchor="start" x="3295" y="-237.5" font-family="Helvetica,sans-Serif" font-size="10.00">CParser::class_or_method</text>
<text text-anchor="middle" x="3357.5" y="-226.5" font-family="Helvetica,sans-Serif" font-size="10.00">_declaration_or_definition</text>
</a>
</g>
</g>
<!-- Node7&#45;&gt;Node20 -->
<g id="edge26" class="edge"><title>Node7&#45;&gt;Node20</title>
<path fill="none" stroke="midnightblue" d="M2095.33,-252.371C2171.36,-261.633 2281.11,-272.5 2377.5,-272.5 2377.5,-272.5 2377.5,-272.5 3016,-272.5 3110.28,-272.5 3218.34,-257.933 3286.98,-246.838"/>
<polygon fill="midnightblue" stroke="midnightblue" points="2095.65,-248.884 2085.3,-251.135 2094.8,-255.832 2095.65,-248.884"/>
</g>
<!-- Node21 -->
<g id="node21" class="node"><title>Node21</title>
<g id="a_node21"><a xlink:href="../../d0/df6/classCParser.html#af0c9d35d4c997c6f34cf4a26563b513c" target="_top" xlink:title="CParser::method_declaration\l_or_definition_with_explicit_type">
<polygon fill="white" stroke="black" points="2121,-213.5 2121,-243.5 2291,-243.5 2291,-213.5 2121,-213.5"/>
<text text-anchor="start" x="2129" y="-231.5" font-family="Helvetica,sans-Serif" font-size="10.00">CParser::method_declaration</text>
<text text-anchor="middle" x="2206" y="-220.5" font-family="Helvetica,sans-Serif" font-size="10.00">_or_definition_with_explicit_type</text>
</a>
</g>
</g>
<!-- Node7&#45;&gt;Node21 -->
<g id="edge23" class="edge"><title>Node7&#45;&gt;Node21</title>
<path fill="none" stroke="midnightblue" d="M2095.4,-234.41C2103.85,-233.954 2112.36,-233.495 2120.71,-233.045"/>
<polygon fill="midnightblue" stroke="midnightblue" points="2094.95,-230.929 2085.15,-234.962 2095.33,-237.919 2094.95,-230.929"/>
</g>
<!-- Node9 -->
<g id="node9" class="node"><title>Node9</title>
<g id="a_node9"><a xlink:href="../../d0/df6/classCParser.html#a2b78ab2005bef5c43ee2d4689210eab1" target="_top" xlink:title="CParser::link_item">
<polygon fill="white" stroke="black" points="2485.5,-55 2485.5,-74 2586.5,-74 2586.5,-55 2485.5,-55"/>
<text text-anchor="middle" x="2536" y="-62" font-family="Helvetica,sans-Serif" font-size="10.00">CParser::link_item</text>
</a>
</g>
</g>
<!-- Node8&#45;&gt;Node9 -->
<g id="edge8" class="edge"><title>Node8&#45;&gt;Node9</title>
<path fill="none" stroke="midnightblue" d="M2417,-126.727C2448.61,-110.054 2492.5,-86.9119 2516.86,-74.0644"/>
<polygon fill="midnightblue" stroke="midnightblue" points="2415.23,-123.699 2408.02,-131.46 2418.5,-129.891 2415.23,-123.699"/>
</g>
<!-- Node15 -->
<g id="node15" class="node"><title>Node15</title>
<g id="a_node15"><a xlink:href="../../d0/df6/classCParser.html#a85eb09132fa5a588749cea062f0d11ea" target="_top" xlink:title="CParser::class_block_item">
<polygon fill="white" stroke="black" points="2466,-178 2466,-197 2606,-197 2606,-178 2466,-178"/>
<text text-anchor="middle" x="2536" y="-185" font-family="Helvetica,sans-Serif" font-size="10.00">CParser::class_block_item</text>
</a>
</g>
</g>
<!-- Node8&#45;&gt;Node15 -->
<g id="edge16" class="edge"><title>Node8&#45;&gt;Node15</title>
<path fill="none" stroke="midnightblue" d="M2440.28,-162.525C2460.05,-167.738 2481.36,-173.357 2498.75,-177.942"/>
<polygon fill="midnightblue" stroke="midnightblue" points="2440.98,-159.09 2430.42,-159.925 2439.19,-165.859 2440.98,-159.09"/>
</g>
<!-- Node10 -->
<g id="node10" class="node"><title>Node10</title>
<g id="a_node10"><a xlink:href="../../d0/df6/classCParser.html#a4f02da23566af37123efb3768769c09b" target="_top" xlink:title="CParser::start">
<polygon fill="white" stroke="black" points="2666.5,-99 2666.5,-118 2747.5,-118 2747.5,-99 2666.5,-99"/>
<text text-anchor="middle" x="2707" y="-106" font-family="Helvetica,sans-Serif" font-size="10.00">CParser::start</text>
</a>
</g>
</g>
<!-- Node9&#45;&gt;Node10 -->
<g id="edge9" class="edge"><title>Node9&#45;&gt;Node10</title>
<path fill="none" stroke="midnightblue" d="M2583.69,-76.6547C2610.73,-83.6955 2644.28,-92.4312 2669.4,-98.9713"/>
<polygon fill="midnightblue" stroke="midnightblue" points="2584.23,-73.1799 2573.67,-74.0473 2582.47,-79.9541 2584.23,-73.1799"/>
</g>
<!-- Node13 -->
<g id="node13" class="node"><title>Node13</title>
<g id="a_node13"><a xlink:href="../../d0/df6/classCParser.html#a86906e492ff9c606fb3537078f46f93e" target="_top" xlink:title="CParser::extern_linkage\l_block">
<polygon fill="white" stroke="black" points="2642,-49.5 2642,-79.5 2772,-79.5 2772,-49.5 2642,-49.5"/>
<text text-anchor="start" x="2650" y="-67.5" font-family="Helvetica,sans-Serif" font-size="10.00">CParser::extern_linkage</text>
<text text-anchor="middle" x="2707" y="-56.5" font-family="Helvetica,sans-Serif" font-size="10.00">_block</text>
</a>
</g>
</g>
<!-- Node9&#45;&gt;Node13 -->
<g id="edge12" class="edge"><title>Node9&#45;&gt;Node13</title>
<path fill="none" stroke="midnightblue" d="M2597.13,-58.006C2611.62,-57.6936 2627.15,-57.6671 2641.81,-57.9265"/>
<polygon fill="midnightblue" stroke="midnightblue" points="2596.69,-54.5163 2586.79,-58.2839 2596.88,-61.5138 2596.69,-54.5163"/>
</g>
<!-- Node14 -->
<g id="node14" class="node"><title>Node14</title>
<g id="a_node14"><a xlink:href="../../d0/df6/classCParser.html#a4fad913a0694a5376ad76669d8943122" target="_top" xlink:title="CParser::namespace\l_block">
<polygon fill="white" stroke="black" points="2649.5,-0.5 2649.5,-30.5 2764.5,-30.5 2764.5,-0.5 2649.5,-0.5"/>
<text text-anchor="start" x="2657.5" y="-18.5" font-family="Helvetica,sans-Serif" font-size="10.00">CParser::namespace</text>
<text text-anchor="middle" x="2707" y="-7.5" font-family="Helvetica,sans-Serif" font-size="10.00">_block</text>
</a>
</g>
</g>
<!-- Node9&#45;&gt;Node14 -->
<g id="edge14" class="edge"><title>Node9&#45;&gt;Node14</title>
<path fill="none" stroke="midnightblue" d="M2564.5,-51.3893C2587.35,-43.2023 2620.61,-33.13 2649.15,-25.5645"/>
<polygon fill="midnightblue" stroke="midnightblue" points="2563.24,-48.1219 2555.09,-54.8858 2565.68,-54.6836 2563.24,-48.1219"/>
</g>
<!-- Node11 -->
<g id="node11" class="node"><title>Node11</title>
<g id="a_node11"><a xlink:href="../../db/d4a/classMain.html#a803470658c644fa9512140f9d8398dd5" target="_top" xlink:title="Main::ParseFiles">
<polygon fill="white" stroke="black" points="2818,-99 2818,-118 2912,-118 2912,-99 2818,-99"/>
<text text-anchor="middle" x="2865" y="-106" font-family="Helvetica,sans-Serif" font-size="10.00">Main::ParseFiles</text>
</a>
</g>
</g>
<!-- Node10&#45;&gt;Node11 -->
<g id="edge10" class="edge"><title>Node10&#45;&gt;Node11</title>
<path fill="none" stroke="midnightblue" d="M2757.87,-108.5C2777.14,-108.5 2799.05,-108.5 2817.94,-108.5"/>
<polygon fill="midnightblue" stroke="midnightblue" points="2757.77,-105 2747.77,-108.5 2757.77,-112 2757.77,-105"/>
</g>
<!-- Node12 -->
<g id="node12" class="node"><title>Node12</title>
<g id="a_node12"><a xlink:href="../../d6/d93/ccccmain_8cc.html#a3c04138a5bfe5d72780bb7e82a18e627" target="_top" xlink:title="main">
<polygon fill="white" stroke="black" points="2995.5,-99 2995.5,-118 3034.5,-118 3034.5,-99 2995.5,-99"/>
<text text-anchor="middle" x="3015" y="-106" font-family="Helvetica,sans-Serif" font-size="10.00">main</text>
</a>
</g>
</g>
<!-- Node11&#45;&gt;Node12 -->
<g id="edge11" class="edge"><title>Node11&#45;&gt;Node12</title>
<path fill="none" stroke="midnightblue" d="M2922.15,-108.5C2948.09,-108.5 2977.14,-108.5 2995.49,-108.5"/>
<polygon fill="midnightblue" stroke="midnightblue" points="2922.02,-105 2912.02,-108.5 2922.02,-112 2922.02,-105"/>
</g>
<!-- Node13&#45;&gt;Node9 -->
<g id="edge13" class="edge"><title>Node13&#45;&gt;Node9</title>
<path fill="none" stroke="midnightblue" d="M2631.45,-71.2083C2616.34,-71.3356 2600.79,-71.1715 2586.79,-70.7161"/>
<polygon fill="midnightblue" stroke="midnightblue" points="2631.86,-74.7033 2641.81,-71.0735 2631.77,-67.7039 2631.86,-74.7033"/>
</g>
<!-- Node14&#45;&gt;Node9 -->
<g id="edge15" class="edge"><title>Node14&#45;&gt;Node9</title>
<path fill="none" stroke="midnightblue" d="M2663.49,-33.7714C2640.18,-41.5019 2611.16,-50.0075 2586.79,-56.2795"/>
<polygon fill="midnightblue" stroke="midnightblue" points="2664.75,-37.0392 2673.1,-30.5145 2662.51,-30.4096 2664.75,-37.0392"/>
</g>
<!-- Node16 -->
<g id="node16" class="node"><title>Node16</title>
<g id="a_node16"><a xlink:href="../../d0/df6/classCParser.html#a4b9f00c05d44a13b3c18b28b52f5be9e" target="_top" xlink:title="CParser::class_block\l_item_list">
<polygon fill="white" stroke="black" points="2650,-175.5 2650,-205.5 2764,-205.5 2764,-175.5 2650,-175.5"/>
<text text-anchor="start" x="2658" y="-193.5" font-family="Helvetica,sans-Serif" font-size="10.00">CParser::class_block</text>
<text text-anchor="middle" x="2707" y="-182.5" font-family="Helvetica,sans-Serif" font-size="10.00">_item_list</text>
</a>
</g>
</g>
<!-- Node15&#45;&gt;Node16 -->
<g id="edge17" class="edge"><title>Node15&#45;&gt;Node16</title>
<path fill="none" stroke="midnightblue" d="M2616.5,-188.911C2627.74,-189.111 2639.1,-189.312 2649.79,-189.502"/>
<polygon fill="midnightblue" stroke="midnightblue" points="2616.29,-185.407 2606.23,-188.729 2616.16,-192.406 2616.29,-185.407"/>
</g>
<!-- Node17 -->
<g id="node17" class="node"><title>Node17</title>
<g id="a_node17"><a xlink:href="../../d0/df6/classCParser.html#a06c7cac9034f27ad6d998b49a7b574c8" target="_top" xlink:title="CParser::class_block">
<polygon fill="white" stroke="black" points="2808,-181 2808,-200 2922,-200 2922,-181 2808,-181"/>
<text text-anchor="middle" x="2865" y="-188" font-family="Helvetica,sans-Serif" font-size="10.00">CParser::class_block</text>
</a>
</g>
</g>
<!-- Node16&#45;&gt;Node17 -->
<g id="edge18" class="edge"><title>Node16&#45;&gt;Node17</title>
<path fill="none" stroke="midnightblue" d="M2774.4,-190.5C2785.51,-190.5 2796.94,-190.5 2807.76,-190.5"/>
<polygon fill="midnightblue" stroke="midnightblue" points="2774.32,-187 2764.32,-190.5 2774.32,-194 2774.32,-187"/>
</g>
<!-- Node18 -->
<g id="node18" class="node"><title>Node18</title>
<g id="a_node18"><a xlink:href="../../d0/df6/classCParser.html#a40fba8426e7ac46e9926515ee81e97f3" target="_top" xlink:title="CParser::class_suffix">
<polygon fill="white" stroke="black" points="2958,-181 2958,-200 3072,-200 3072,-181 2958,-181"/>
<text text-anchor="middle" x="3015" y="-188" font-family="Helvetica,sans-Serif" font-size="10.00">CParser::class_suffix</text>
</a>
</g>
</g>
<!-- Node17&#45;&gt;Node18 -->
<g id="edge19" class="edge"><title>Node17&#45;&gt;Node18</title>
<path fill="none" stroke="midnightblue" d="M2932.56,-190.5C2940.98,-190.5 2949.54,-190.5 2957.78,-190.5"/>
<polygon fill="midnightblue" stroke="midnightblue" points="2932.37,-187 2922.37,-190.5 2932.37,-194 2932.37,-187"/>
</g>
<!-- Node19 -->
<g id="node19" class="node"><title>Node19</title>
<g id="a_node19"><a xlink:href="../../d0/df6/classCParser.html#a1ed5fcfb2e97e3551fceabe81989a667" target="_top" xlink:title="CParser::class_declaration\l_or_definition">
<polygon fill="white" stroke="black" points="3108,-175.5 3108,-205.5 3251,-205.5 3251,-175.5 3108,-175.5"/>
<text text-anchor="start" x="3116" y="-193.5" font-family="Helvetica,sans-Serif" font-size="10.00">CParser::class_declaration</text>
<text text-anchor="middle" x="3179.5" y="-182.5" font-family="Helvetica,sans-Serif" font-size="10.00">_or_definition</text>
</a>
</g>
</g>
<!-- Node18&#45;&gt;Node19 -->
<g id="edge20" class="edge"><title>Node18&#45;&gt;Node19</title>
<path fill="none" stroke="midnightblue" d="M3082.47,-190.5C3090.86,-190.5 3099.46,-190.5 3107.91,-190.5"/>
<polygon fill="midnightblue" stroke="midnightblue" points="3082.38,-187 3072.38,-190.5 3082.38,-194 3082.38,-187"/>
</g>
<!-- Node19&#45;&gt;Node8 -->
<g id="edge21" class="edge"><title>Node19&#45;&gt;Node8</title>
<path fill="none" stroke="midnightblue" d="M3101.36,-173.515C3038.37,-161.127 2946.87,-146.5 2866,-146.5 2706,-146.5 2706,-146.5 2706,-146.5 2608.36,-146.5 2494.3,-146.5 2430.12,-146.5"/>
<polygon fill="midnightblue" stroke="midnightblue" points="3100.73,-176.957 3111.22,-175.481 3102.1,-170.092 3100.73,-176.957"/>
</g>
<!-- Node19&#45;&gt;Node20 -->
<g id="edge22" class="edge"><title>Node19&#45;&gt;Node20</title>
<path fill="none" stroke="midnightblue" d="M3250.44,-207.985C3265.65,-211.787 3281.61,-215.777 3296.4,-219.474"/>
<polygon fill="midnightblue" stroke="midnightblue" points="3251.13,-204.549 3240.58,-205.519 3249.43,-211.34 3251.13,-204.549"/>
</g>
<!-- Node21&#45;&gt;Node8 -->
<g id="edge24" class="edge"><title>Node21&#45;&gt;Node8</title>
<path fill="none" stroke="midnightblue" d="M2263.83,-209.936C2273.04,-206.436 2282.38,-202.582 2291,-198.5 2313.65,-187.779 2337.98,-172.81 2355.06,-161.684"/>
<polygon fill="midnightblue" stroke="midnightblue" points="2262.49,-206.702 2254.32,-213.45 2264.91,-213.269 2262.49,-206.702"/>
</g>
<!-- Node21&#45;&gt;Node20 -->
<g id="edge25" class="edge"><title>Node21&#45;&gt;Node20</title>
<path fill="none" stroke="midnightblue" d="M2301.57,-231.145C2367.09,-232.754 2456.34,-234.5 2535,-234.5 2535,-234.5 2535,-234.5 3016,-234.5 3109.7,-234.5 3217.9,-234.5 3286.72,-234.5"/>
<polygon fill="midnightblue" stroke="midnightblue" points="2301.34,-227.639 2291.26,-230.889 2301.17,-234.637 2301.34,-227.639"/>
</g>
<!-- Node23 -->
<g id="node23" class="node"><title>Node23</title>
<g id="a_node23"><a xlink:href="../../d0/df6/classCParser.html#a7042164da94c48da4e577a2bf0af04c4" target="_top" xlink:title="CParser::fptr_typedef\l_definition">
<polygon fill="white" stroke="black" points="896.5,-119.5 896.5,-149.5 1013.5,-149.5 1013.5,-119.5 896.5,-119.5"/>
<text text-anchor="start" x="904.5" y="-137.5" font-family="Helvetica,sans-Serif" font-size="10.00">CParser::fptr_typedef</text>
<text text-anchor="middle" x="955" y="-126.5" font-family="Helvetica,sans-Serif" font-size="10.00">_definition</text>
</a>
</g>
</g>
<!-- Node22&#45;&gt;Node23 -->
<g id="edge28" class="edge"><title>Node22&#45;&gt;Node23</title>
<path fill="none" stroke="midnightblue" d="M856.943,-134.5C869.853,-134.5 883.457,-134.5 896.262,-134.5"/>
<polygon fill="midnightblue" stroke="midnightblue" points="856.767,-131 846.767,-134.5 856.767,-138 856.767,-131"/>
</g>
<!-- Node24 -->
<g id="node24" class="node"><title>Node24</title>
<g id="a_node24"><a xlink:href="../../d0/df6/classCParser.html#a8c598aa662fff7e10be2ee78e078935a" target="_top" xlink:title="CParser::typedef_definition">
<polygon fill="white" stroke="black" points="1574,-99 1574,-118 1718,-118 1718,-99 1574,-99"/>
<text text-anchor="middle" x="1646" y="-106" font-family="Helvetica,sans-Serif" font-size="10.00">CParser::typedef_definition</text>
</a>
</g>
</g>
<!-- Node23&#45;&gt;Node24 -->
<g id="edge29" class="edge"><title>Node23&#45;&gt;Node24</title>
<path fill="none" stroke="midnightblue" d="M1023.84,-131.94C1154.65,-127.004 1440.58,-116.214 1573.91,-111.183"/>
<polygon fill="midnightblue" stroke="midnightblue" points="1023.42,-128.453 1013.56,-132.328 1023.68,-135.448 1023.42,-128.453"/>
</g>
<!-- Node24&#45;&gt;Node8 -->
<g id="edge30" class="edge"><title>Node24&#45;&gt;Node8</title>
<path fill="none" stroke="midnightblue" d="M1728.23,-108.325C1850.58,-108.785 2089.31,-112.496 2291,-132.5 2302.66,-133.656 2315.13,-135.383 2326.87,-137.233"/>
<polygon fill="midnightblue" stroke="midnightblue" points="1728.2,-104.825 1718.19,-108.294 1728.18,-111.825 1728.2,-104.825"/>
</g>
<!-- Node26 -->
<g id="node26" class="node"><title>Node26</title>
<g id="a_node26"><a xlink:href="../../d0/df6/classCParser.html#a9104801570f44810a98b9f3a5a76c06c" target="_top" xlink:title="CParser::instance_item">
<polygon fill="white" stroke="black" points="1062,-178 1062,-197 1187,-197 1187,-178 1062,-178"/>
<text text-anchor="middle" x="1124.5" y="-185" font-family="Helvetica,sans-Serif" font-size="10.00">CParser::instance_item</text>
</a>
</g>
</g>
<!-- Node25&#45;&gt;Node26 -->
<g id="edge32" class="edge"><title>Node25&#45;&gt;Node26</title>
<path fill="none" stroke="midnightblue" d="M868.192,-182.035C926.167,-183.276 1006.93,-185.005 1061.99,-186.183"/>
<polygon fill="midnightblue" stroke="midnightblue" points="868.079,-178.532 858.006,-181.817 867.929,-185.53 868.079,-178.532"/>
</g>
<!-- Node27 -->
<g id="node27" class="node"><title>Node27</title>
<g id="a_node27"><a xlink:href="../../d0/df6/classCParser.html#a6331346ed010ab6c734d29daeb5d896f" target="_top" xlink:title="CParser::instance_declaration">
<polygon fill="white" stroke="black" points="1233,-178 1233,-197 1391,-197 1391,-178 1233,-178"/>
<text text-anchor="middle" x="1312" y="-185" font-family="Helvetica,sans-Serif" font-size="10.00">CParser::instance_declaration</text>
</a>
</g>
</g>
<!-- Node26&#45;&gt;Node27 -->
<g id="edge33" class="edge"><title>Node26&#45;&gt;Node27</title>
<path fill="none" stroke="midnightblue" d="M1197.14,-187.5C1208.82,-187.5 1220.97,-187.5 1232.81,-187.5"/>
<polygon fill="midnightblue" stroke="midnightblue" points="1197.01,-184 1187.01,-187.5 1197.01,-191 1197.01,-184"/>
</g>
<!-- Node29 -->
<g id="node29" class="node"><title>Node29</title>
<g id="a_node29"><a xlink:href="../../d0/df6/classCParser.html#a70d42f7013f81c71092f771ff9232941" target="_top" xlink:title="CParser::ctor_init_item">
<polygon fill="white" stroke="black" points="1250.5,-225 1250.5,-244 1373.5,-244 1373.5,-225 1250.5,-225"/>
<text text-anchor="middle" x="1312" y="-232" font-family="Helvetica,sans-Serif" font-size="10.00">CParser::ctor_init_item</text>
</a>
</g>
</g>
<!-- Node26&#45;&gt;Node29 -->
<g id="edge36" class="edge"><title>Node26&#45;&gt;Node29</title>
<path fill="none" stroke="midnightblue" d="M1172.81,-199.486C1203.96,-207.378 1244.19,-217.571 1273.2,-224.922"/>
<polygon fill="midnightblue" stroke="midnightblue" points="1173.59,-196.075 1163.04,-197.011 1171.87,-202.86 1173.59,-196.075"/>
</g>
<!-- Node27&#45;&gt;Node8 -->
<g id="edge34" class="edge"><title>Node27&#45;&gt;Node8</title>
<path fill="none" stroke="midnightblue" d="M1366.64,-175.961C1385.63,-172.19 1407.2,-168.266 1427,-165.5 1523.32,-152.045 1547.74,-146.5 1645,-146.5 1645,-146.5 1645,-146.5 2001,-146.5 2117.68,-146.5 2254.69,-146.5 2326.95,-146.5"/>
<polygon fill="midnightblue" stroke="midnightblue" points="1365.78,-172.563 1356.67,-177.971 1367.17,-179.425 1365.78,-172.563"/>
</g>
<!-- Node28 -->
<g id="node28" class="node"><title>Node28</title>
<g id="a_node28"><a xlink:href="../../d0/df6/classCParser.html#a4e7cf3c3b19f9c664f345a10116c2c2c" target="_top" xlink:title="CParser::knr_param\l_decl_list">
<polygon fill="white" stroke="black" points="1427,-175.5 1427,-205.5 1538,-205.5 1538,-175.5 1427,-175.5"/>
<text text-anchor="start" x="1435" y="-193.5" font-family="Helvetica,sans-Serif" font-size="10.00">CParser::knr_param</text>
<text text-anchor="middle" x="1482.5" y="-182.5" font-family="Helvetica,sans-Serif" font-size="10.00">_decl_list</text>
</a>
</g>
</g>
<!-- Node27&#45;&gt;Node28 -->
<g id="edge35" class="edge"><title>Node27&#45;&gt;Node28</title>
<path fill="none" stroke="midnightblue" d="M1401.5,-189.076C1410.16,-189.23 1418.75,-189.383 1426.92,-189.528"/>
<polygon fill="midnightblue" stroke="midnightblue" points="1401.39,-185.573 1391.33,-188.895 1401.27,-192.572 1401.39,-185.573"/>
</g>
<!-- Node30 -->
<g id="node30" class="node"><title>Node30</title>
<g id="a_node30"><a xlink:href="../../d0/df6/classCParser.html#a617e49ab4458d5b4adf577a6a0bc05cd" target="_top" xlink:title="CParser::ctor_init\l_item_list">
<polygon fill="white" stroke="black" points="1433.5,-224.5 1433.5,-254.5 1531.5,-254.5 1531.5,-224.5 1433.5,-224.5"/>
<text text-anchor="start" x="1441.5" y="-242.5" font-family="Helvetica,sans-Serif" font-size="10.00">CParser::ctor_init</text>
<text text-anchor="middle" x="1482.5" y="-231.5" font-family="Helvetica,sans-Serif" font-size="10.00">_item_list</text>
</a>
</g>
</g>
<!-- Node29&#45;&gt;Node30 -->
<g id="edge37" class="edge"><title>Node29&#45;&gt;Node30</title>
<path fill="none" stroke="midnightblue" d="M1384.08,-236.609C1400.73,-237.103 1418.07,-237.618 1433.44,-238.074"/>
<polygon fill="midnightblue" stroke="midnightblue" points="1383.93,-233.103 1373.83,-236.305 1383.72,-240.1 1383.93,-233.103"/>
</g>
<!-- Node31 -->
<g id="node31" class="node"><title>Node31</title>
<g id="a_node31"><a xlink:href="../../d0/df6/classCParser.html#ab6c0eabf2b00874bf8f70b576d96ce52" target="_top" xlink:title="CParser::ctor_init_list">
<polygon fill="white" stroke="black" points="1588,-230 1588,-249 1704,-249 1704,-230 1588,-230"/>
<text text-anchor="middle" x="1646" y="-237" font-family="Helvetica,sans-Serif" font-size="10.00">CParser::ctor_init_list</text>
</a>
</g>
</g>
<!-- Node30&#45;&gt;Node31 -->
<g id="edge38" class="edge"><title>Node30&#45;&gt;Node31</title>
<path fill="none" stroke="midnightblue" d="M1541.69,-239.5C1556.69,-239.5 1572.82,-239.5 1587.76,-239.5"/>
<polygon fill="midnightblue" stroke="midnightblue" points="1541.52,-236 1531.52,-239.5 1541.52,-243 1541.52,-236"/>
</g>
<!-- Node32 -->
<g id="node32" class="node"><title>Node32</title>
<g id="a_node32"><a xlink:href="../../d0/df6/classCParser.html#ad7a6fd3a8b7daa3c26191f4512236a59" target="_top" xlink:title="CParser::method_suffix">
<polygon fill="white" stroke="black" points="1754,-230 1754,-249 1879,-249 1879,-230 1754,-230"/>
<text text-anchor="middle" x="1816.5" y="-237" font-family="Helvetica,sans-Serif" font-size="10.00">CParser::method_suffix</text>
</a>
</g>
</g>
<!-- Node31&#45;&gt;Node32 -->
<g id="edge39" class="edge"><title>Node31&#45;&gt;Node32</title>
<path fill="none" stroke="midnightblue" d="M1714.37,-239.5C1727.42,-239.5 1741.04,-239.5 1753.89,-239.5"/>
<polygon fill="midnightblue" stroke="midnightblue" points="1714.05,-236 1704.05,-239.5 1714.05,-243 1714.05,-236"/>
</g>
<!-- Node32&#45;&gt;Node7 -->
<g id="edge40" class="edge"><title>Node32&#45;&gt;Node7</title>
<path fill="none" stroke="midnightblue" d="M1889.34,-239.5C1897.75,-239.5 1906.4,-239.5 1914.97,-239.5"/>
<polygon fill="midnightblue" stroke="midnightblue" points="1889.2,-236 1879.2,-239.5 1889.2,-243 1889.2,-236"/>
</g>
<!-- Node34 -->
<g id="node34" class="node"><title>Node34</title>
<g id="a_node34"><a xlink:href="../../d0/df6/classCParser.html#a545c65918de48a33554b6fa86bf7bee4" target="_top" xlink:title="CParser::init_expr">
<polygon fill="white" stroke="black" points="745,-222 745,-241 846,-241 846,-222 745,-222"/>
<text text-anchor="middle" x="795.5" y="-229" font-family="Helvetica,sans-Serif" font-size="10.00">CParser::init_expr</text>
</a>
</g>
</g>
<!-- Node33&#45;&gt;Node34 -->
<g id="edge42" class="edge"><title>Node33&#45;&gt;Node34</title>
<path fill="none" stroke="midnightblue" d="M707.248,-239.159C719.971,-238.042 732.952,-236.902 744.879,-235.855"/>
<polygon fill="midnightblue" stroke="midnightblue" points="706.779,-235.686 697.124,-240.047 707.391,-242.659 706.779,-235.686"/>
</g>
<!-- Node35 -->
<g id="node35" class="node"><title>Node35</title>
<g id="a_node35"><a xlink:href="../../d0/df6/classCParser.html#aa7fd7f7807fc630d9020e84dbb3445e0" target="_top" xlink:title="CParser::opt_initializer">
<polygon fill="white" stroke="black" points="894,-218 894,-237 1016,-237 1016,-218 894,-218"/>
<text text-anchor="middle" x="955" y="-225" font-family="Helvetica,sans-Serif" font-size="10.00">CParser::opt_initializer</text>
</a>
</g>
</g>
<!-- Node34&#45;&gt;Node35 -->
<g id="edge43" class="edge"><title>Node34&#45;&gt;Node35</title>
<path fill="none" stroke="midnightblue" d="M856.418,-229.978C868.635,-229.668 881.496,-229.341 893.726,-229.031"/>
<polygon fill="midnightblue" stroke="midnightblue" points="856.242,-226.482 846.334,-230.234 856.42,-233.479 856.242,-226.482"/>
</g>
<!-- Node35&#45;&gt;Node26 -->
<g id="edge44" class="edge"><title>Node35&#45;&gt;Node26</title>
<path fill="none" stroke="midnightblue" d="M1006.08,-215.54C1030.9,-209.613 1060.46,-202.555 1083.71,-197.003"/>
<polygon fill="midnightblue" stroke="midnightblue" points="1005.03,-212.192 996.12,-217.919 1006.66,-219 1005.03,-212.192"/>
</g>
<!-- Node37&#45;&gt;Node1 -->
<g id="edge48" class="edge"><title>Node37&#45;&gt;Node1</title>
<path fill="none" stroke="midnightblue" d="M407.55,-112.342C335.856,-113.052 219.354,-116.718 120,-131.5 105.291,-133.688 89.2888,-137.412 75.7019,-140.986"/>
<polygon fill="midnightblue" stroke="midnightblue" points="407.825,-115.84 417.796,-112.258 407.767,-108.841 407.825,-115.84"/>
</g>
<!-- Node38 -->
<g id="node38" class="node"><title>Node38</title>
<g id="a_node38"><a xlink:href="../../d0/df6/classCParser.html#a42ff2d36ecac90dd1cf7ac0a3a5862f1" target="_top" xlink:title="CParser::brack_list">
<polygon fill="white" stroke="black" points="903,-81 903,-100 1007,-100 1007,-81 903,-81"/>
<text text-anchor="middle" x="955" y="-88" font-family="Helvetica,sans-Serif" font-size="10.00">CParser::brack_list</text>
</a>
</g>
</g>
<!-- Node37&#45;&gt;Node38 -->
<g id="edge49" class="edge"><title>Node37&#45;&gt;Node38</title>
<path fill="none" stroke="midnightblue" d="M544.279,-109.397C640.681,-104.951 816.016,-96.864 902.685,-92.8667"/>
<polygon fill="midnightblue" stroke="midnightblue" points="543.892,-105.911 534.064,-109.868 544.214,-112.904 543.892,-105.911"/>
</g>
<!-- Node38&#45;&gt;Node26 -->
<g id="edge50" class="edge"><title>Node38&#45;&gt;Node26</title>
<path fill="none" stroke="midnightblue" d="M1002.29,-103.489C1007.01,-105.305 1011.66,-107.309 1016,-109.5 1054.5,-128.92 1094.11,-161.588 1112.67,-177.788"/>
<polygon fill="midnightblue" stroke="midnightblue" points="1003.19,-100.094 992.595,-100.028 1000.84,-106.686 1003.19,-100.094"/>
</g>
</g>
</svg>
