<?xml version="1.0" encoding="UTF-8" standalone="no"?>
<!DOCTYPE svg PUBLIC "-//W3C//DTD SVG 1.1//EN"
 "http://www.w3.org/Graphics/SVG/1.1/DTD/svg11.dtd">
<!-- Generated by graphviz version 2.38.0 (20140413.2041)
 -->
<!-- Title: CParser::nested_token_list Pages: 1 -->
<svg width="736pt" height="66pt"
 viewBox="0.00 0.00 736.00 66.00" xmlns="http://www.w3.org/2000/svg" xmlns:xlink="http://www.w3.org/1999/xlink">
<g id="graph0" class="graph" transform="scale(1 1) rotate(0) translate(4 62)">
<title>CParser::nested_token_list</title>
<polygon fill="white" stroke="none" points="-4,4 -4,-62 732,-62 732,4 -4,4"/>
<!-- Node1 -->
<g id="node1" class="node"><title>Node1</title>
<polygon fill="#bfbfbf" stroke="black" points="0,-19.5 0,-38.5 143,-38.5 143,-19.5 0,-19.5"/>
<text text-anchor="middle" x="71.5" y="-26.5" font-family="Helvetica,sans-Serif" font-size="10.00">CParser::nested_token_list</text>
</g>
<!-- Node2 -->
<g id="node2" class="node"><title>Node2</title>
<g id="a_node2"><a xlink:href="../../d0/df6/classCParser.html#abb9b68ec4298f4b66e066d3074353aea" target="_top" xlink:title="CParser::nested_token">
<polygon fill="white" stroke="black" points="179,-38.5 179,-57.5 304,-57.5 304,-38.5 179,-38.5"/>
<text text-anchor="middle" x="241.5" y="-45.5" font-family="Helvetica,sans-Serif" font-size="10.00">CParser::nested_token</text>
</a>
</g>
</g>
<!-- Node1&#45;&gt;Node2 -->
<g id="edge1" class="edge"><title>Node1&#45;&gt;Node2</title>
<path fill="none" stroke="midnightblue" d="M143.26,-37.0026C151.676,-37.9544 160.273,-38.9267 168.703,-39.88"/>
<polygon fill="midnightblue" stroke="midnightblue" points="168.548,-43.3848 178.878,-41.0309 169.335,-36.4292 168.548,-43.3848"/>
</g>
<!-- Node3 -->
<g id="node3" class="node"><title>Node3</title>
<g id="a_node3"><a xlink:href="../../d0/df6/classCParser.html#a5e1630bd24884bb1cbc5680926dce957" target="_top" xlink:title="CParser::syn">
<polygon fill="white" stroke="black" points="340,-19.5 340,-38.5 417,-38.5 417,-19.5 340,-19.5"/>
<text text-anchor="middle" x="378.5" y="-26.5" font-family="Helvetica,sans-Serif" font-size="10.00">CParser::syn</text>
</a>
</g>
</g>
<!-- Node1&#45;&gt;Node3 -->
<g id="edge6" class="edge"><title>Node1&#45;&gt;Node3</title>
<path fill="none" stroke="midnightblue" d="M143.24,-29C200.413,-29 279.354,-29 329.416,-29"/>
<polygon fill="midnightblue" stroke="midnightblue" points="329.642,-32.5001 339.642,-29 329.642,-25.5001 329.642,-32.5001"/>
</g>
<!-- Node2&#45;&gt;Node3 -->
<g id="edge2" class="edge"><title>Node2&#45;&gt;Node3</title>
<path fill="none" stroke="midnightblue" d="M304.074,-39.334C312.775,-38.1094 321.609,-36.8661 329.991,-35.6865"/>
<polygon fill="midnightblue" stroke="midnightblue" points="330.536,-39.1443 339.951,-34.2847 329.561,-32.2126 330.536,-39.1443"/>
</g>
<!-- Node4 -->
<g id="node4" class="node"><title>Node4</title>
<g id="a_node4"><a xlink:href="../../da/d6a/classParseUtility.html#aabfa4c56607539ef14be2e2a7260006b" target="_top" xlink:title="ParseUtility::syn">
<polygon fill="white" stroke="black" points="453,-19.5 453,-38.5 544,-38.5 544,-19.5 453,-19.5"/>
<text text-anchor="middle" x="498.5" y="-26.5" font-family="Helvetica,sans-Serif" font-size="10.00">ParseUtility::syn</text>
</a>
</g>
</g>
<!-- Node3&#45;&gt;Node4 -->
<g id="edge3" class="edge"><title>Node3&#45;&gt;Node4</title>
<path fill="none" stroke="midnightblue" d="M417.16,-29C425.305,-29 434.076,-29 442.726,-29"/>
<polygon fill="midnightblue" stroke="midnightblue" points="442.779,-32.5001 452.779,-29 442.779,-25.5001 442.779,-32.5001"/>
</g>
<!-- Node5 -->
<g id="node5" class="node"><title>Node5</title>
<g id="a_node5"><a xlink:href="../../d3/d5e/classParseStore.html#ab21a4aeadb4cc4938b58cbefbb8634e8" target="_top" xlink:title="ParseStore::currentInstance">
<polygon fill="white" stroke="black" points="580,-38.5 580,-57.5 728,-57.5 728,-38.5 580,-38.5"/>
<text text-anchor="middle" x="654" y="-45.5" font-family="Helvetica,sans-Serif" font-size="10.00">ParseStore::currentInstance</text>
</a>
</g>
</g>
<!-- Node4&#45;&gt;Node5 -->
<g id="edge4" class="edge"><title>Node4&#45;&gt;Node5</title>
<path fill="none" stroke="midnightblue" d="M544.311,-34.5467C552.412,-35.5494 561.091,-36.6237 569.882,-37.7118"/>
<polygon fill="midnightblue" stroke="midnightblue" points="569.476,-41.1882 579.831,-38.9432 570.336,-34.2412 569.476,-41.1882"/>
</g>
<!-- Node6 -->
<g id="node6" class="node"><title>Node6</title>
<g id="a_node6"><a xlink:href="../../d3/d5e/classParseStore.html#ae7b3d82d22174c1a1165a592d6c1700c" target="_top" xlink:title="ParseStore::filename">
<polygon fill="white" stroke="black" points="597,-0.5 597,-19.5 711,-19.5 711,-0.5 597,-0.5"/>
<text text-anchor="middle" x="654" y="-7.5" font-family="Helvetica,sans-Serif" font-size="10.00">ParseStore::filename</text>
</a>
</g>
</g>
<!-- Node4&#45;&gt;Node6 -->
<g id="edge5" class="edge"><title>Node4&#45;&gt;Node6</title>
<path fill="none" stroke="midnightblue" d="M544.311,-23.4533C557.556,-21.8139 572.345,-19.9833 586.644,-18.2135"/>
<polygon fill="midnightblue" stroke="midnightblue" points="587.446,-21.641 596.94,-16.939 586.586,-14.694 587.446,-21.641"/>
</g>
</g>
</svg>
