<?xml version="1.0" encoding="UTF-8" standalone="no"?>
<!DOCTYPE svg PUBLIC "-//W3C//DTD SVG 1.1//EN"
 "http://www.w3.org/Graphics/SVG/1.1/DTD/svg11.dtd">
<!-- Generated by graphviz version 2.38.0 (20140413.2041)
 -->
<!-- Title: CParser::paren_block Pages: 1 -->
<svg width="1284pt" height="440pt"
 viewBox="0.00 0.00 1284.00 439.99" xmlns="http://www.w3.org/2000/svg" xmlns:xlink="http://www.w3.org/1999/xlink">
<g id="graph0" class="graph" transform="scale(1 1) rotate(0) translate(4 435.993)">
<title>CParser::paren_block</title>
<polygon fill="white" stroke="none" points="-4,4 -4,-435.993 1280,-435.993 1280,4 -4,4"/>
<!-- Node1 -->
<g id="node1" class="node"><title>Node1</title>
<polygon fill="#bfbfbf" stroke="black" points="0,-248.87 0,-267.87 118,-267.87 118,-248.87 0,-248.87"/>
<text text-anchor="middle" x="59" y="-255.87" font-family="Helvetica,sans-Serif" font-size="10.00">CParser::paren_block</text>
</g>
<!-- Node2 -->
<g id="node2" class="node"><title>Node2</title>
<g id="a_node2"><a xlink:href="../../d0/df6/classCParser.html#a967d50b91351cf003898543b6d7af7a7" target="_top" xlink:title="CParser::balanced_list">
<polygon fill="white" stroke="black" points="154,-248.87 154,-267.87 276,-267.87 276,-248.87 154,-248.87"/>
<text text-anchor="middle" x="215" y="-255.87" font-family="Helvetica,sans-Serif" font-size="10.00">CParser::balanced_list</text>
</a>
</g>
</g>
<!-- Node1&#45;&gt;Node2 -->
<g id="edge1" class="edge"><title>Node1&#45;&gt;Node2</title>
<path fill="none" stroke="midnightblue" d="M118.221,-258.37C126.608,-258.37 135.312,-258.37 143.9,-258.37"/>
<polygon fill="midnightblue" stroke="midnightblue" points="143.903,-261.87 153.903,-258.37 143.903,-254.87 143.903,-261.87"/>
</g>
<!-- Node6 -->
<g id="node6" class="node"><title>Node6</title>
<g id="a_node6"><a xlink:href="../../d0/df6/classCParser.html#a5e1630bd24884bb1cbc5680926dce957" target="_top" xlink:title="CParser::syn">
<polygon fill="white" stroke="black" points="888,-210.87 888,-229.87 965,-229.87 965,-210.87 888,-210.87"/>
<text text-anchor="middle" x="926.5" y="-217.87" font-family="Helvetica,sans-Serif" font-size="10.00">CParser::syn</text>
</a>
</g>
</g>
<!-- Node1&#45;&gt;Node6 -->
<g id="edge28" class="edge"><title>Node1&#45;&gt;Node6</title>
<path fill="none" stroke="midnightblue" d="M68.8509,-268.054C102.932,-304.228 230.383,-429.37 362.5,-429.37 362.5,-429.37 362.5,-429.37 641,-429.37 736.705,-429.37 777.432,-446.363 852,-386.37 898.755,-348.754 916.619,-275.27 922.705,-240.077"/>
<polygon fill="midnightblue" stroke="midnightblue" points="926.179,-240.515 924.288,-230.09 919.265,-239.419 926.179,-240.515"/>
</g>
<!-- Node3 -->
<g id="node3" class="node"><title>Node3</title>
<g id="a_node3"><a xlink:href="../../d0/df6/classCParser.html#a424ec587e8167b682804c23c4804d895" target="_top" xlink:title="CParser::balanced">
<polygon fill="white" stroke="black" points="312,-248.87 312,-267.87 415,-267.87 415,-248.87 312,-248.87"/>
<text text-anchor="middle" x="363.5" y="-255.87" font-family="Helvetica,sans-Serif" font-size="10.00">CParser::balanced</text>
</a>
</g>
</g>
<!-- Node2&#45;&gt;Node3 -->
<g id="edge2" class="edge"><title>Node2&#45;&gt;Node3</title>
<path fill="none" stroke="midnightblue" d="M276.01,-258.37C284.437,-258.37 293.105,-258.37 301.549,-258.37"/>
<polygon fill="midnightblue" stroke="midnightblue" points="301.706,-261.87 311.706,-258.37 301.706,-254.87 301.706,-261.87"/>
</g>
<!-- Node2&#45;&gt;Node6 -->
<g id="edge27" class="edge"><title>Node2&#45;&gt;Node6</title>
<path fill="none" stroke="midnightblue" d="M226.904,-267.935C262.836,-298.431 381.829,-391.37 497.5,-391.37 497.5,-391.37 497.5,-391.37 641,-391.37 736.448,-391.37 774.507,-407.094 852,-351.37 890.487,-323.695 911.376,-269.272 920.253,-240.041"/>
<polygon fill="midnightblue" stroke="midnightblue" points="923.689,-240.757 923.079,-230.18 916.959,-238.829 923.689,-240.757"/>
</g>
<!-- Node4 -->
<g id="node4" class="node"><title>Node4</title>
<g id="a_node4"><a xlink:href="../../d0/df6/classCParser.html#a52e049b9361b6e9c7a2c4f6266d98916" target="_top" xlink:title="CParser::scoped">
<polygon fill="white" stroke="black" points="451,-248.87 451,-267.87 546,-267.87 546,-248.87 451,-248.87"/>
<text text-anchor="middle" x="498.5" y="-255.87" font-family="Helvetica,sans-Serif" font-size="10.00">CParser::scoped</text>
</a>
</g>
</g>
<!-- Node3&#45;&gt;Node4 -->
<g id="edge3" class="edge"><title>Node3&#45;&gt;Node4</title>
<path fill="none" stroke="midnightblue" d="M415.161,-258.37C423.511,-258.37 432.215,-258.37 440.704,-258.37"/>
<polygon fill="midnightblue" stroke="midnightblue" points="440.913,-261.87 450.913,-258.37 440.913,-254.87 440.913,-261.87"/>
</g>
<!-- Node3&#45;&gt;Node6 -->
<g id="edge26" class="edge"><title>Node3&#45;&gt;Node6</title>
<path fill="none" stroke="midnightblue" d="M383.038,-267.93C450.351,-301.221 686.585,-405.573 852,-321.37 885.67,-304.231 907.553,-263.643 918.098,-239.459"/>
<polygon fill="midnightblue" stroke="midnightblue" points="921.452,-240.509 922.036,-229.93 914.982,-237.835 921.452,-240.509"/>
</g>
<!-- Node13 -->
<g id="node13" class="node"><title>Node13</title>
<g id="a_node13"><a xlink:href="../../d0/df6/classCParser.html#a35e24b97e6c8566e503521071040413f" target="_top" xlink:title="CParser::block">
<polygon fill="white" stroke="black" points="456.5,-115.87 456.5,-134.87 540.5,-134.87 540.5,-115.87 456.5,-115.87"/>
<text text-anchor="middle" x="498.5" y="-122.87" font-family="Helvetica,sans-Serif" font-size="10.00">CParser::block</text>
</a>
</g>
</g>
<!-- Node3&#45;&gt;Node13 -->
<g id="edge16" class="edge"><title>Node3&#45;&gt;Node13</title>
<path fill="none" stroke="midnightblue" d="M374.065,-248.805C396.387,-226.483 452.164,-170.706 480.461,-142.409"/>
<polygon fill="midnightblue" stroke="midnightblue" points="483.067,-144.753 487.663,-135.207 478.117,-139.804 483.067,-144.753"/>
</g>
<!-- Node5 -->
<g id="node5" class="node"><title>Node5</title>
<g id="a_node5"><a xlink:href="../../d0/df6/classCParser.html#a2406cf660d9f7e6c3be87b61b2ffba4b" target="_top" xlink:title="CParser::keyword">
<polygon fill="white" stroke="black" points="743,-267.87 743,-286.87 843,-286.87 843,-267.87 743,-267.87"/>
<text text-anchor="middle" x="793" y="-274.87" font-family="Helvetica,sans-Serif" font-size="10.00">CParser::keyword</text>
</a>
</g>
</g>
<!-- Node4&#45;&gt;Node5 -->
<g id="edge4" class="edge"><title>Node4&#45;&gt;Node5</title>
<path fill="none" stroke="midnightblue" d="M546.171,-261.402C596.629,-264.679 677.203,-269.913 732.252,-273.489"/>
<polygon fill="midnightblue" stroke="midnightblue" points="732.357,-277.003 742.563,-274.159 732.811,-270.018 732.357,-277.003"/>
</g>
<!-- Node4&#45;&gt;Node6 -->
<g id="edge15" class="edge"><title>Node4&#45;&gt;Node6</title>
<path fill="none" stroke="midnightblue" d="M521.645,-267.988C578.911,-291.366 735.547,-345.751 852,-296.37 879.612,-284.662 901.919,-256.939 914.444,-238.414"/>
<polygon fill="midnightblue" stroke="midnightblue" points="917.438,-240.23 919.933,-229.934 911.561,-236.427 917.438,-240.23"/>
</g>
<!-- Node10 -->
<g id="node10" class="node"><title>Node10</title>
<g id="a_node10"><a xlink:href="../../d0/df6/classCParser.html#a177b7d8d53b6d7c2c89bbea896b3d154" target="_top" xlink:title="CParser::op">
<polygon fill="white" stroke="black" points="757,-229.87 757,-248.87 829,-248.87 829,-229.87 757,-229.87"/>
<text text-anchor="middle" x="793" y="-236.87" font-family="Helvetica,sans-Serif" font-size="10.00">CParser::op</text>
</a>
</g>
</g>
<!-- Node4&#45;&gt;Node10 -->
<g id="edge9" class="edge"><title>Node4&#45;&gt;Node10</title>
<path fill="none" stroke="midnightblue" d="M546.171,-255.338C601.326,-251.756 692.465,-245.836 746.918,-242.299"/>
<polygon fill="midnightblue" stroke="midnightblue" points="747.218,-245.787 756.97,-241.646 746.764,-238.801 747.218,-245.787"/>
</g>
<!-- Node11 -->
<g id="node11" class="node"><title>Node11</title>
<g id="a_node11"><a xlink:href="../../d0/df6/classCParser.html#a6125d39bebbef0edc81fe5f030e76759" target="_top" xlink:title="CParser::literal">
<polygon fill="white" stroke="black" points="597,-191.87 597,-210.87 683,-210.87 683,-191.87 597,-191.87"/>
<text text-anchor="middle" x="640" y="-198.87" font-family="Helvetica,sans-Serif" font-size="10.00">CParser::literal</text>
</a>
</g>
</g>
<!-- Node4&#45;&gt;Node11 -->
<g id="edge11" class="edge"><title>Node4&#45;&gt;Node11</title>
<path fill="none" stroke="midnightblue" d="M522.849,-248.83C545.683,-239.5 580.659,-225.209 606.265,-214.746"/>
<polygon fill="midnightblue" stroke="midnightblue" points="607.641,-217.964 615.575,-210.942 604.994,-211.484 607.641,-217.964"/>
</g>
<!-- Node5&#45;&gt;Node6 -->
<g id="edge5" class="edge"><title>Node5&#45;&gt;Node6</title>
<path fill="none" stroke="midnightblue" d="M826.247,-267.824C834.725,-265.039 843.791,-261.81 852,-258.37 868.362,-251.513 886.043,-242.428 899.962,-234.861"/>
<polygon fill="midnightblue" stroke="midnightblue" points="901.87,-237.805 908.935,-229.91 898.489,-231.676 901.87,-237.805"/>
</g>
<!-- Node7 -->
<g id="node7" class="node"><title>Node7</title>
<g id="a_node7"><a xlink:href="../../da/d6a/classParseUtility.html#aabfa4c56607539ef14be2e2a7260006b" target="_top" xlink:title="ParseUtility::syn">
<polygon fill="white" stroke="black" points="1001,-210.87 1001,-229.87 1092,-229.87 1092,-210.87 1001,-210.87"/>
<text text-anchor="middle" x="1046.5" y="-217.87" font-family="Helvetica,sans-Serif" font-size="10.00">ParseUtility::syn</text>
</a>
</g>
</g>
<!-- Node6&#45;&gt;Node7 -->
<g id="edge6" class="edge"><title>Node6&#45;&gt;Node7</title>
<path fill="none" stroke="midnightblue" d="M965.16,-220.37C973.305,-220.37 982.076,-220.37 990.726,-220.37"/>
<polygon fill="midnightblue" stroke="midnightblue" points="990.779,-223.87 1000.78,-220.37 990.779,-216.87 990.779,-223.87"/>
</g>
<!-- Node8 -->
<g id="node8" class="node"><title>Node8</title>
<g id="a_node8"><a xlink:href="../../d3/d5e/classParseStore.html#ab21a4aeadb4cc4938b58cbefbb8634e8" target="_top" xlink:title="ParseStore::currentInstance">
<polygon fill="white" stroke="black" points="1128,-229.87 1128,-248.87 1276,-248.87 1276,-229.87 1128,-229.87"/>
<text text-anchor="middle" x="1202" y="-236.87" font-family="Helvetica,sans-Serif" font-size="10.00">ParseStore::currentInstance</text>
</a>
</g>
</g>
<!-- Node7&#45;&gt;Node8 -->
<g id="edge7" class="edge"><title>Node7&#45;&gt;Node8</title>
<path fill="none" stroke="midnightblue" d="M1092.31,-225.917C1100.41,-226.92 1109.09,-227.994 1117.88,-229.082"/>
<polygon fill="midnightblue" stroke="midnightblue" points="1117.48,-232.558 1127.83,-230.313 1118.34,-225.611 1117.48,-232.558"/>
</g>
<!-- Node9 -->
<g id="node9" class="node"><title>Node9</title>
<g id="a_node9"><a xlink:href="../../d3/d5e/classParseStore.html#ae7b3d82d22174c1a1165a592d6c1700c" target="_top" xlink:title="ParseStore::filename">
<polygon fill="white" stroke="black" points="1145,-191.87 1145,-210.87 1259,-210.87 1259,-191.87 1145,-191.87"/>
<text text-anchor="middle" x="1202" y="-198.87" font-family="Helvetica,sans-Serif" font-size="10.00">ParseStore::filename</text>
</a>
</g>
</g>
<!-- Node7&#45;&gt;Node9 -->
<g id="edge8" class="edge"><title>Node7&#45;&gt;Node9</title>
<path fill="none" stroke="midnightblue" d="M1092.31,-214.823C1105.56,-213.184 1120.35,-211.353 1134.64,-209.584"/>
<polygon fill="midnightblue" stroke="midnightblue" points="1135.45,-213.011 1144.94,-208.309 1134.59,-206.064 1135.45,-213.011"/>
</g>
<!-- Node10&#45;&gt;Node6 -->
<g id="edge10" class="edge"><title>Node10&#45;&gt;Node6</title>
<path fill="none" stroke="midnightblue" d="M829.24,-234.278C844.093,-232.132 861.615,-229.601 877.611,-227.289"/>
<polygon fill="midnightblue" stroke="midnightblue" points="878.462,-230.703 887.859,-225.809 877.461,-223.775 878.462,-230.703"/>
</g>
<!-- Node11&#45;&gt;Node6 -->
<g id="edge14" class="edge"><title>Node11&#45;&gt;Node6</title>
<path fill="none" stroke="midnightblue" d="M683.285,-204.194C735.345,-207.671 823.525,-213.56 877.908,-217.192"/>
<polygon fill="midnightblue" stroke="midnightblue" points="877.772,-220.69 887.983,-217.865 878.239,-213.706 877.772,-220.69"/>
</g>
<!-- Node12 -->
<g id="node12" class="node"><title>Node12</title>
<g id="a_node12"><a xlink:href="../../d0/df6/classCParser.html#a37ac23e2bafc84982f17db1ace720958" target="_top" xlink:title="CParser::string_literal">
<polygon fill="white" stroke="black" points="734,-153.87 734,-172.87 852,-172.87 852,-153.87 734,-153.87"/>
<text text-anchor="middle" x="793" y="-160.87" font-family="Helvetica,sans-Serif" font-size="10.00">CParser::string_literal</text>
</a>
</g>
</g>
<!-- Node11&#45;&gt;Node12 -->
<g id="edge12" class="edge"><title>Node11&#45;&gt;Node12</title>
<path fill="none" stroke="midnightblue" d="M679.104,-191.781C698.94,-186.789 723.384,-180.638 744.448,-175.337"/>
<polygon fill="midnightblue" stroke="midnightblue" points="745.327,-178.725 754.17,-172.89 743.618,-171.937 745.327,-178.725"/>
</g>
<!-- Node12&#45;&gt;Node6 -->
<g id="edge13" class="edge"><title>Node12&#45;&gt;Node6</title>
<path fill="none" stroke="midnightblue" d="M817.49,-172.905C828.067,-177.246 840.693,-182.494 852,-187.37 866.366,-193.566 882.21,-200.647 895.497,-206.657"/>
<polygon fill="midnightblue" stroke="midnightblue" points="894.11,-209.872 904.663,-210.817 897.003,-203.497 894.11,-209.872"/>
</g>
<!-- Node13&#45;&gt;Node1 -->
<g id="edge24" class="edge"><title>Node13&#45;&gt;Node1</title>
<path fill="none" stroke="midnightblue" d="M466.028,-134.938C388.466,-158.517 188.144,-219.414 101.239,-245.834"/>
<polygon fill="midnightblue" stroke="midnightblue" points="100.014,-242.548 91.4639,-248.805 102.05,-249.245 100.014,-242.548"/>
</g>
<!-- Node13&#45;&gt;Node6 -->
<g id="edge25" class="edge"><title>Node13&#45;&gt;Node6</title>
<path fill="none" stroke="midnightblue" d="M540.616,-118.282C608.826,-108.497 748.149,-96.995 852,-144.37 879.144,-156.753 901.449,-184.049 914.117,-202.329"/>
<polygon fill="midnightblue" stroke="midnightblue" points="911.237,-204.319 919.69,-210.707 917.066,-200.442 911.237,-204.319"/>
</g>
<!-- Node14 -->
<g id="node14" class="node"><title>Node14</title>
<g id="a_node14"><a xlink:href="../../d0/df6/classCParser.html#a0a168a887a9f004b6635cd3fb47f565e" target="_top" xlink:title="CParser::brace_block">
<polygon fill="white" stroke="black" points="582,-77.8701 582,-96.8701 698,-96.8701 698,-77.8701 582,-77.8701"/>
<text text-anchor="middle" x="640" y="-84.8701" font-family="Helvetica,sans-Serif" font-size="10.00">CParser::brace_block</text>
</a>
</g>
</g>
<!-- Node13&#45;&gt;Node14 -->
<g id="edge17" class="edge"><title>Node13&#45;&gt;Node14</title>
<path fill="none" stroke="midnightblue" d="M534.702,-115.781C552.71,-110.876 574.828,-104.851 594.056,-99.613"/>
<polygon fill="midnightblue" stroke="midnightblue" points="595.081,-102.961 603.81,-96.956 593.241,-96.2074 595.081,-102.961"/>
</g>
<!-- Node16 -->
<g id="node16" class="node"><title>Node16</title>
<g id="a_node16"><a xlink:href="../../d0/df6/classCParser.html#ac73c93a601c6e7123e0ebbd7be03b60d" target="_top" xlink:title="CParser::brack_block">
<polygon fill="white" stroke="black" points="582,-39.8701 582,-58.8701 698,-58.8701 698,-39.8701 582,-39.8701"/>
<text text-anchor="middle" x="640" y="-46.8701" font-family="Helvetica,sans-Serif" font-size="10.00">CParser::brack_block</text>
</a>
</g>
</g>
<!-- Node13&#45;&gt;Node16 -->
<g id="edge21" class="edge"><title>Node13&#45;&gt;Node16</title>
<path fill="none" stroke="midnightblue" d="M511.13,-115.738C526.526,-103.373 554.9,-81.9041 582,-68.3701 586.322,-66.2117 590.946,-64.2124 595.62,-62.3853"/>
<polygon fill="midnightblue" stroke="midnightblue" points="597.017,-65.6014 605.207,-58.881 594.614,-59.0269 597.017,-65.6014"/>
</g>
<!-- Node14&#45;&gt;Node6 -->
<g id="edge20" class="edge"><title>Node14&#45;&gt;Node6</title>
<path fill="none" stroke="midnightblue" d="M698.442,-81.4081C743.398,-79.5413 805.824,-83.3515 852,-111.37 886.318,-132.194 908.173,-175.851 918.492,-201.14"/>
<polygon fill="midnightblue" stroke="midnightblue" points="915.333,-202.675 922.211,-210.734 921.86,-200.145 915.333,-202.675"/>
</g>
<!-- Node15 -->
<g id="node15" class="node"><title>Node15</title>
<g id="a_node15"><a xlink:href="../../d0/df6/classCParser.html#ad3478bb95eecaaa4fb98396fb1b48d82" target="_top" xlink:title="CParser::skip_until\l_matching_rbrace">
<polygon fill="white" stroke="black" points="741,-28.3701 741,-58.3701 845,-58.3701 845,-28.3701 741,-28.3701"/>
<text text-anchor="start" x="749" y="-46.3701" font-family="Helvetica,sans-Serif" font-size="10.00">CParser::skip_until</text>
<text text-anchor="middle" x="793" y="-35.3701" font-family="Helvetica,sans-Serif" font-size="10.00">_matching_rbrace</text>
</a>
</g>
</g>
<!-- Node14&#45;&gt;Node15 -->
<g id="edge18" class="edge"><title>Node14&#45;&gt;Node15</title>
<path fill="none" stroke="midnightblue" d="M673.765,-77.8228C690.534,-72.9362 711.498,-66.8275 731.098,-61.1164"/>
<polygon fill="midnightblue" stroke="midnightblue" points="732.267,-64.4215 740.888,-58.2636 730.308,-57.701 732.267,-64.4215"/>
</g>
<!-- Node15&#45;&gt;Node6 -->
<g id="edge19" class="edge"><title>Node15&#45;&gt;Node6</title>
<path fill="none" stroke="midnightblue" d="M831.632,-58.4109C838.975,-62.5073 846.188,-67.4783 852,-73.3701 888.762,-110.639 910.583,-169.991 919.996,-200.631"/>
<polygon fill="midnightblue" stroke="midnightblue" points="916.727,-201.921 922.908,-210.527 923.443,-199.945 916.727,-201.921"/>
</g>
<!-- Node16&#45;&gt;Node2 -->
<g id="edge22" class="edge"><title>Node16&#45;&gt;Node2</title>
<path fill="none" stroke="midnightblue" d="M595.56,-58.8727C556.624,-68.2383 498.494,-84.3434 451,-106.37 365.762,-145.902 275.209,-212.44 236.006,-242.629"/>
<polygon fill="midnightblue" stroke="midnightblue" points="233.773,-239.932 228.017,-248.827 238.064,-245.463 233.773,-239.932"/>
</g>
<!-- Node16&#45;&gt;Node6 -->
<g id="edge23" class="edge"><title>Node16&#45;&gt;Node6</title>
<path fill="none" stroke="midnightblue" d="M657.592,-39.781C695.731,-19.1378 791.04,24.3187 852,-18.3701 912.483,-60.7252 923.379,-158.275 925.208,-200.399"/>
<polygon fill="midnightblue" stroke="midnightblue" points="921.713,-200.613 925.514,-210.503 928.709,-200.402 921.713,-200.613"/>
</g>
</g>
</svg>
