<?xml version="1.0" encoding="UTF-8" standalone="no"?>
<!DOCTYPE svg PUBLIC "-//W3C//DTD SVG 1.1//EN"
 "http://www.w3.org/Graphics/SVG/1.1/DTD/svg11.dtd">
<!-- Generated by graphviz version 2.38.0 (20140413.2041)
 -->
<!-- Title: CParser::simple_typedef_definition Pages: 1 -->
<svg width="1456pt" height="204pt"
 viewBox="0.00 0.00 1456.00 204.00" xmlns="http://www.w3.org/2000/svg" xmlns:xlink="http://www.w3.org/1999/xlink">
<g id="graph0" class="graph" transform="scale(1 1) rotate(0) translate(4 200)">
<title>CParser::simple_typedef_definition</title>
<polygon fill="white" stroke="none" points="-4,4 -4,-200 1452,-200 1452,4 -4,4"/>
<!-- Node1 -->
<g id="node1" class="node"><title>Node1</title>
<polygon fill="#bfbfbf" stroke="black" points="0,-29 0,-59 131,-59 131,-29 0,-29"/>
<text text-anchor="start" x="8" y="-47" font-family="Helvetica,sans-Serif" font-size="10.00">CParser::simple_typedef</text>
<text text-anchor="middle" x="65.5" y="-36" font-family="Helvetica,sans-Serif" font-size="10.00">_definition</text>
</g>
<!-- Node2 -->
<g id="node2" class="node"><title>Node2</title>
<g id="a_node2"><a xlink:href="../../d0/df6/classCParser.html#a8c598aa662fff7e10be2ee78e078935a" target="_top" xlink:title="CParser::typedef_definition">
<polygon fill="white" stroke="black" points="167,-34.5 167,-53.5 311,-53.5 311,-34.5 167,-34.5"/>
<text text-anchor="middle" x="239" y="-41.5" font-family="Helvetica,sans-Serif" font-size="10.00">CParser::typedef_definition</text>
</a>
</g>
</g>
<!-- Node1&#45;&gt;Node2 -->
<g id="edge1" class="edge"><title>Node1&#45;&gt;Node2</title>
<path fill="none" stroke="midnightblue" d="M141.486,-44C149.881,-44 158.416,-44 166.762,-44"/>
<polygon fill="midnightblue" stroke="midnightblue" points="141.337,-40.5001 131.337,-44 141.337,-47.5001 141.337,-40.5001"/>
</g>
<!-- Node3 -->
<g id="node3" class="node"><title>Node3</title>
<g id="a_node3"><a xlink:href="../../d0/df6/classCParser.html#ab3ab57ace628c2476dd8dfe5a96f9a15" target="_top" xlink:title="CParser::definition\l_or_declaration">
<polygon fill="white" stroke="black" points="347,-29 347,-59 450,-59 450,-29 347,-29"/>
<text text-anchor="start" x="355" y="-47" font-family="Helvetica,sans-Serif" font-size="10.00">CParser::definition</text>
<text text-anchor="middle" x="398.5" y="-36" font-family="Helvetica,sans-Serif" font-size="10.00">_or_declaration</text>
</a>
</g>
</g>
<!-- Node2&#45;&gt;Node3 -->
<g id="edge2" class="edge"><title>Node2&#45;&gt;Node3</title>
<path fill="none" stroke="midnightblue" d="M321.432,-44C330.003,-44 338.53,-44 346.609,-44"/>
<polygon fill="midnightblue" stroke="midnightblue" points="321.377,-40.5001 311.377,-44 321.377,-47.5001 321.377,-40.5001"/>
</g>
<!-- Node4 -->
<g id="node4" class="node"><title>Node4</title>
<g id="a_node4"><a xlink:href="../../d0/df6/classCParser.html#a2b78ab2005bef5c43ee2d4689210eab1" target="_top" xlink:title="CParser::link_item">
<polygon fill="white" stroke="black" points="505.5,-107.5 505.5,-126.5 606.5,-126.5 606.5,-107.5 505.5,-107.5"/>
<text text-anchor="middle" x="556" y="-114.5" font-family="Helvetica,sans-Serif" font-size="10.00">CParser::link_item</text>
</a>
</g>
</g>
<!-- Node3&#45;&gt;Node4 -->
<g id="edge3" class="edge"><title>Node3&#45;&gt;Node4</title>
<path fill="none" stroke="midnightblue" d="M440.79,-63.3838C471.097,-77.6116 510.959,-96.3248 534.686,-107.464"/>
<polygon fill="midnightblue" stroke="midnightblue" points="442.259,-60.207 431.72,-59.1256 439.284,-66.5435 442.259,-60.207"/>
</g>
<!-- Node10 -->
<g id="node10" class="node"><title>Node10</title>
<g id="a_node10"><a xlink:href="../../d0/df6/classCParser.html#a85eb09132fa5a588749cea062f0d11ea" target="_top" xlink:title="CParser::class_block_item">
<polygon fill="white" stroke="black" points="486,-34.5 486,-53.5 626,-53.5 626,-34.5 486,-34.5"/>
<text text-anchor="middle" x="556" y="-41.5" font-family="Helvetica,sans-Serif" font-size="10.00">CParser::class_block_item</text>
</a>
</g>
</g>
<!-- Node3&#45;&gt;Node10 -->
<g id="edge11" class="edge"><title>Node3&#45;&gt;Node10</title>
<path fill="none" stroke="midnightblue" d="M460.438,-44C468.787,-44 477.408,-44 485.89,-44"/>
<polygon fill="midnightblue" stroke="midnightblue" points="460.417,-40.5001 450.417,-44 460.416,-47.5001 460.417,-40.5001"/>
</g>
<!-- Node5 -->
<g id="node5" class="node"><title>Node5</title>
<g id="a_node5"><a xlink:href="../../d0/df6/classCParser.html#a4f02da23566af37123efb3768769c09b" target="_top" xlink:title="CParser::start">
<polygon fill="white" stroke="black" points="686.5,-176.5 686.5,-195.5 767.5,-195.5 767.5,-176.5 686.5,-176.5"/>
<text text-anchor="middle" x="727" y="-183.5" font-family="Helvetica,sans-Serif" font-size="10.00">CParser::start</text>
</a>
</g>
</g>
<!-- Node4&#45;&gt;Node5 -->
<g id="edge4" class="edge"><title>Node4&#45;&gt;Node5</title>
<path fill="none" stroke="midnightblue" d="M583.765,-131.172C604.687,-141.898 634.702,-156.522 662,-167 670.981,-170.447 680.866,-173.657 690.125,-176.42"/>
<polygon fill="midnightblue" stroke="midnightblue" points="585.324,-128.037 574.834,-126.547 582.105,-134.253 585.324,-128.037"/>
</g>
<!-- Node8 -->
<g id="node8" class="node"><title>Node8</title>
<g id="a_node8"><a xlink:href="../../d0/df6/classCParser.html#a86906e492ff9c606fb3537078f46f93e" target="_top" xlink:title="CParser::extern_linkage\l_block">
<polygon fill="white" stroke="black" points="662,-127 662,-157 792,-157 792,-127 662,-127"/>
<text text-anchor="start" x="670" y="-145" font-family="Helvetica,sans-Serif" font-size="10.00">CParser::extern_linkage</text>
<text text-anchor="middle" x="727" y="-134" font-family="Helvetica,sans-Serif" font-size="10.00">_block</text>
</a>
</g>
</g>
<!-- Node4&#45;&gt;Node8 -->
<g id="edge7" class="edge"><title>Node4&#45;&gt;Node8</title>
<path fill="none" stroke="midnightblue" d="M616.912,-119.373C633.494,-121.465 651.461,-124.137 667.936,-126.963"/>
<polygon fill="midnightblue" stroke="midnightblue" points="617.139,-115.875 606.792,-118.15 616.299,-122.825 617.139,-115.875"/>
</g>
<!-- Node9 -->
<g id="node9" class="node"><title>Node9</title>
<g id="a_node9"><a xlink:href="../../d0/df6/classCParser.html#a4fad913a0694a5376ad76669d8943122" target="_top" xlink:title="CParser::namespace\l_block">
<polygon fill="white" stroke="black" points="669.5,-78 669.5,-108 784.5,-108 784.5,-78 669.5,-78"/>
<text text-anchor="start" x="677.5" y="-96" font-family="Helvetica,sans-Serif" font-size="10.00">CParser::namespace</text>
<text text-anchor="middle" x="727" y="-85" font-family="Helvetica,sans-Serif" font-size="10.00">_block</text>
</a>
</g>
</g>
<!-- Node4&#45;&gt;Node9 -->
<g id="edge9" class="edge"><title>Node4&#45;&gt;Node9</title>
<path fill="none" stroke="midnightblue" d="M596.68,-105.542C618.375,-101.468 645.617,-97.4042 669.497,-94.6148"/>
<polygon fill="midnightblue" stroke="midnightblue" points="595.965,-102.115 586.825,-107.473 597.311,-108.985 595.965,-102.115"/>
</g>
<!-- Node6 -->
<g id="node6" class="node"><title>Node6</title>
<g id="a_node6"><a xlink:href="../../db/d4a/classMain.html#a803470658c644fa9512140f9d8398dd5" target="_top" xlink:title="Main::ParseFiles">
<polygon fill="white" stroke="black" points="838,-176.5 838,-195.5 932,-195.5 932,-176.5 838,-176.5"/>
<text text-anchor="middle" x="885" y="-183.5" font-family="Helvetica,sans-Serif" font-size="10.00">Main::ParseFiles</text>
</a>
</g>
</g>
<!-- Node5&#45;&gt;Node6 -->
<g id="edge5" class="edge"><title>Node5&#45;&gt;Node6</title>
<path fill="none" stroke="midnightblue" d="M777.869,-186C797.138,-186 819.051,-186 837.942,-186"/>
<polygon fill="midnightblue" stroke="midnightblue" points="777.769,-182.5 767.769,-186 777.769,-189.5 777.769,-182.5"/>
</g>
<!-- Node7 -->
<g id="node7" class="node"><title>Node7</title>
<g id="a_node7"><a xlink:href="../../d6/d93/ccccmain_8cc.html#a3c04138a5bfe5d72780bb7e82a18e627" target="_top" xlink:title="main">
<polygon fill="white" stroke="black" points="1015.5,-176.5 1015.5,-195.5 1054.5,-195.5 1054.5,-176.5 1015.5,-176.5"/>
<text text-anchor="middle" x="1035" y="-183.5" font-family="Helvetica,sans-Serif" font-size="10.00">main</text>
</a>
</g>
</g>
<!-- Node6&#45;&gt;Node7 -->
<g id="edge6" class="edge"><title>Node6&#45;&gt;Node7</title>
<path fill="none" stroke="midnightblue" d="M942.15,-186C968.09,-186 997.142,-186 1015.49,-186"/>
<polygon fill="midnightblue" stroke="midnightblue" points="942.017,-182.5 932.017,-186 942.017,-189.5 942.017,-182.5"/>
</g>
<!-- Node8&#45;&gt;Node4 -->
<g id="edge8" class="edge"><title>Node8&#45;&gt;Node4</title>
<path fill="none" stroke="midnightblue" d="M652.065,-137.766C628.729,-134.523 604.302,-130.422 586.052,-126.54"/>
<polygon fill="midnightblue" stroke="midnightblue" points="651.6,-141.235 661.978,-139.1 652.534,-134.297 651.6,-141.235"/>
</g>
<!-- Node9&#45;&gt;Node4 -->
<g id="edge10" class="edge"><title>Node9&#45;&gt;Node4</title>
<path fill="none" stroke="midnightblue" d="M659.292,-109.089C641.795,-111.842 623.232,-114.345 606.792,-116.145"/>
<polygon fill="midnightblue" stroke="midnightblue" points="660.136,-112.498 669.446,-107.442 659.015,-105.588 660.136,-112.498"/>
</g>
<!-- Node11 -->
<g id="node11" class="node"><title>Node11</title>
<g id="a_node11"><a xlink:href="../../d0/df6/classCParser.html#a4b9f00c05d44a13b3c18b28b52f5be9e" target="_top" xlink:title="CParser::class_block\l_item_list">
<polygon fill="white" stroke="black" points="670,-29 670,-59 784,-59 784,-29 670,-29"/>
<text text-anchor="start" x="678" y="-47" font-family="Helvetica,sans-Serif" font-size="10.00">CParser::class_block</text>
<text text-anchor="middle" x="727" y="-36" font-family="Helvetica,sans-Serif" font-size="10.00">_item_list</text>
</a>
</g>
</g>
<!-- Node10&#45;&gt;Node11 -->
<g id="edge12" class="edge"><title>Node10&#45;&gt;Node11</title>
<path fill="none" stroke="midnightblue" d="M636.497,-44C647.741,-44 659.104,-44 669.785,-44"/>
<polygon fill="midnightblue" stroke="midnightblue" points="636.226,-40.5001 626.226,-44 636.226,-47.5001 636.226,-40.5001"/>
</g>
<!-- Node12 -->
<g id="node12" class="node"><title>Node12</title>
<g id="a_node12"><a xlink:href="../../d0/df6/classCParser.html#a06c7cac9034f27ad6d998b49a7b574c8" target="_top" xlink:title="CParser::class_block">
<polygon fill="white" stroke="black" points="828,-31.5 828,-50.5 942,-50.5 942,-31.5 828,-31.5"/>
<text text-anchor="middle" x="885" y="-38.5" font-family="Helvetica,sans-Serif" font-size="10.00">CParser::class_block</text>
</a>
</g>
</g>
<!-- Node11&#45;&gt;Node12 -->
<g id="edge13" class="edge"><title>Node11&#45;&gt;Node12</title>
<path fill="none" stroke="midnightblue" d="M794.404,-42.723C805.512,-42.5094 816.941,-42.2896 827.763,-42.0815"/>
<polygon fill="midnightblue" stroke="midnightblue" points="794.25,-39.2252 784.32,-42.9169 794.385,-46.2239 794.25,-39.2252"/>
</g>
<!-- Node13 -->
<g id="node13" class="node"><title>Node13</title>
<g id="a_node13"><a xlink:href="../../d0/df6/classCParser.html#a40fba8426e7ac46e9926515ee81e97f3" target="_top" xlink:title="CParser::class_suffix">
<polygon fill="white" stroke="black" points="978,-29.5 978,-48.5 1092,-48.5 1092,-29.5 978,-29.5"/>
<text text-anchor="middle" x="1035" y="-36.5" font-family="Helvetica,sans-Serif" font-size="10.00">CParser::class_suffix</text>
</a>
</g>
</g>
<!-- Node12&#45;&gt;Node13 -->
<g id="edge14" class="edge"><title>Node12&#45;&gt;Node13</title>
<path fill="none" stroke="midnightblue" d="M952.558,-40.1006C960.984,-39.9867 969.539,-39.8711 977.782,-39.7597"/>
<polygon fill="midnightblue" stroke="midnightblue" points="952.326,-36.6033 942.375,-40.2382 952.421,-43.6026 952.326,-36.6033"/>
</g>
<!-- Node14 -->
<g id="node14" class="node"><title>Node14</title>
<g id="a_node14"><a xlink:href="../../d0/df6/classCParser.html#a1ed5fcfb2e97e3551fceabe81989a667" target="_top" xlink:title="CParser::class_declaration\l_or_definition">
<polygon fill="white" stroke="black" points="1128,-4 1128,-34 1271,-34 1271,-4 1128,-4"/>
<text text-anchor="start" x="1136" y="-22" font-family="Helvetica,sans-Serif" font-size="10.00">CParser::class_declaration</text>
<text text-anchor="middle" x="1199.5" y="-11" font-family="Helvetica,sans-Serif" font-size="10.00">_or_definition</text>
</a>
</g>
</g>
<!-- Node13&#45;&gt;Node14 -->
<g id="edge15" class="edge"><title>Node13&#45;&gt;Node14</title>
<path fill="none" stroke="midnightblue" d="M1102.47,-30.8187C1110.86,-29.7867 1119.46,-28.728 1127.91,-27.6886"/>
<polygon fill="midnightblue" stroke="midnightblue" points="1101.88,-27.3657 1092.38,-32.0611 1102.73,-34.3133 1101.88,-27.3657"/>
</g>
<!-- Node14&#45;&gt;Node3 -->
<g id="edge16" class="edge"><title>Node14&#45;&gt;Node3</title>
<path fill="none" stroke="midnightblue" d="M1117.56,-11.374C1054.52,-6.08976 964.776,-0 886,-0 726,-0 726,-0 726,-0 618.756,-0 591.874,-7.91348 486,-25 474.312,-26.8862 461.83,-29.3567 450.088,-31.8893"/>
<polygon fill="midnightblue" stroke="midnightblue" points="1117.57,-14.8876 1127.83,-12.2478 1118.16,-7.91282 1117.57,-14.8876"/>
</g>
<!-- Node15 -->
<g id="node15" class="node"><title>Node15</title>
<g id="a_node15"><a xlink:href="../../d0/df6/classCParser.html#a12561a45dab96760d7ab45896681dd33" target="_top" xlink:title="CParser::class_or_method\l_declaration_or_definition">
<polygon fill="white" stroke="black" points="1307,-4 1307,-34 1448,-34 1448,-4 1307,-4"/>
<text text-anchor="start" x="1315" y="-22" font-family="Helvetica,sans-Serif" font-size="10.00">CParser::class_or_method</text>
<text text-anchor="middle" x="1377.5" y="-11" font-family="Helvetica,sans-Serif" font-size="10.00">_declaration_or_definition</text>
</a>
</g>
</g>
<!-- Node14&#45;&gt;Node15 -->
<g id="edge17" class="edge"><title>Node14&#45;&gt;Node15</title>
<path fill="none" stroke="midnightblue" d="M1281.08,-19C1289.66,-19 1298.33,-19 1306.77,-19"/>
<polygon fill="midnightblue" stroke="midnightblue" points="1281.07,-15.5001 1271.07,-19 1281.07,-22.5001 1281.07,-15.5001"/>
</g>
</g>
</svg>
