<?xml version="1.0" encoding="UTF-8" standalone="no"?>
<!DOCTYPE svg PUBLIC "-//W3C//DTD SVG 1.1//EN"
 "http://www.w3.org/Graphics/SVG/1.1/DTD/svg11.dtd">
<!-- Generated by graphviz version 2.38.0 (20140413.2041)
 -->
<!-- Title: CParser::struct_typedef_definition Pages: 1 -->
<svg width="869pt" height="306pt"
 viewBox="0.00 0.00 869.00 306.00" xmlns="http://www.w3.org/2000/svg" xmlns:xlink="http://www.w3.org/1999/xlink">
<g id="graph0" class="graph" transform="scale(1 1) rotate(0) translate(4 302)">
<title>CParser::struct_typedef_definition</title>
<polygon fill="white" stroke="none" points="-4,4 -4,-302 865,-302 865,4 -4,4"/>
<!-- Node1 -->
<g id="node1" class="node"><title>Node1</title>
<polygon fill="#bfbfbf" stroke="black" points="0,-159 0,-189 127,-189 127,-159 0,-159"/>
<text text-anchor="start" x="8" y="-177" font-family="Helvetica,sans-Serif" font-size="10.00">CParser::struct_typedef</text>
<text text-anchor="middle" x="63.5" y="-166" font-family="Helvetica,sans-Serif" font-size="10.00">_definition</text>
</g>
<!-- Node2 -->
<g id="node2" class="node"><title>Node2</title>
<g id="a_node2"><a xlink:href="../../d0/df6/classCParser.html#a631e11d228a64f7cd7eaa437a58d2bca" target="_top" xlink:title="CParser::class_key">
<polygon fill="white" stroke="black" points="167.5,-240.5 167.5,-259.5 274.5,-259.5 274.5,-240.5 167.5,-240.5"/>
<text text-anchor="middle" x="221" y="-247.5" font-family="Helvetica,sans-Serif" font-size="10.00">CParser::class_key</text>
</a>
</g>
</g>
<!-- Node1&#45;&gt;Node2 -->
<g id="edge1" class="edge"><title>Node1&#45;&gt;Node2</title>
<path fill="none" stroke="midnightblue" d="M91.7723,-189.22C111.366,-199.951 138.531,-214.417 163,-226 170.589,-229.593 178.861,-233.23 186.69,-236.55"/>
<polygon fill="midnightblue" stroke="midnightblue" points="185.368,-239.79 195.945,-240.416 188.067,-233.332 185.368,-239.79"/>
</g>
<!-- Node4 -->
<g id="node4" class="node"><title>Node4</title>
<g id="a_node4"><a xlink:href="../../d0/df6/classCParser.html#a5e1630bd24884bb1cbc5680926dce957" target="_top" xlink:title="CParser::syn">
<polygon fill="white" stroke="black" points="473,-126.5 473,-145.5 550,-145.5 550,-126.5 473,-126.5"/>
<text text-anchor="middle" x="511.5" y="-133.5" font-family="Helvetica,sans-Serif" font-size="10.00">CParser::syn</text>
</a>
</g>
</g>
<!-- Node1&#45;&gt;Node4 -->
<g id="edge17" class="edge"><title>Node1&#45;&gt;Node4</title>
<path fill="none" stroke="midnightblue" d="M118.675,-189.068C192.774,-206.958 328.869,-230.015 437,-193 459.988,-185.131 481.345,-166.82 495.046,-153.061"/>
<polygon fill="midnightblue" stroke="midnightblue" points="497.801,-155.245 502.184,-145.599 492.742,-150.407 497.801,-155.245"/>
</g>
<!-- Node8 -->
<g id="node8" class="node"><title>Node8</title>
<g id="a_node8"><a xlink:href="../../d0/df6/classCParser.html#ab6b623a01c3a2da8399fc528caefe3b9" target="_top" xlink:title="CParser::identifier_opt">
<polygon fill="white" stroke="black" points="315,-164.5 315,-183.5 437,-183.5 437,-164.5 315,-164.5"/>
<text text-anchor="middle" x="376" y="-171.5" font-family="Helvetica,sans-Serif" font-size="10.00">CParser::identifier_opt</text>
</a>
</g>
</g>
<!-- Node1&#45;&gt;Node8 -->
<g id="edge7" class="edge"><title>Node1&#45;&gt;Node8</title>
<path fill="none" stroke="midnightblue" d="M127.334,-174C178.775,-174 251.5,-174 304.837,-174"/>
<polygon fill="midnightblue" stroke="midnightblue" points="304.897,-177.5 314.897,-174 304.897,-170.5 304.897,-177.5"/>
</g>
<!-- Node9 -->
<g id="node9" class="node"><title>Node9</title>
<g id="a_node9"><a xlink:href="../../d0/df6/classCParser.html#a0a168a887a9f004b6635cd3fb47f565e" target="_top" xlink:title="CParser::brace_block">
<polygon fill="white" stroke="black" points="163,-126.5 163,-145.5 279,-145.5 279,-126.5 163,-126.5"/>
<text text-anchor="middle" x="221" y="-133.5" font-family="Helvetica,sans-Serif" font-size="10.00">CParser::brace_block</text>
</a>
</g>
</g>
<!-- Node1&#45;&gt;Node9 -->
<g id="edge9" class="edge"><title>Node1&#45;&gt;Node9</title>
<path fill="none" stroke="midnightblue" d="M125.958,-158.981C140.85,-155.342 156.577,-151.499 170.818,-148.019"/>
<polygon fill="midnightblue" stroke="midnightblue" points="172.009,-151.331 180.893,-145.557 170.348,-144.531 172.009,-151.331"/>
</g>
<!-- Node11 -->
<g id="node11" class="node"><title>Node11</title>
<g id="a_node11"><a xlink:href="../../d0/df6/classCParser.html#a9e422a033f6086c057955ccd560e2bd0" target="_top" xlink:title="CParser::tag_list_opt">
<polygon fill="white" stroke="black" points="163.5,-38.5 163.5,-57.5 278.5,-57.5 278.5,-38.5 163.5,-38.5"/>
<text text-anchor="middle" x="221" y="-45.5" font-family="Helvetica,sans-Serif" font-size="10.00">CParser::tag_list_opt</text>
</a>
</g>
</g>
<!-- Node1&#45;&gt;Node11 -->
<g id="edge13" class="edge"><title>Node1&#45;&gt;Node11</title>
<path fill="none" stroke="midnightblue" d="M83.2569,-158.801C112.812,-134.853 169.957,-88.549 200.167,-64.0704"/>
<polygon fill="midnightblue" stroke="midnightblue" points="202.707,-66.5169 208.273,-57.5019 198.3,-61.0782 202.707,-66.5169"/>
</g>
<!-- Node3 -->
<g id="node3" class="node"><title>Node3</title>
<g id="a_node3"><a xlink:href="../../d3/d5e/classParseStore.html#a238b27bbf877e69812ecc620fbc18d5f" target="_top" xlink:title="ParseStore::set_flag">
<polygon fill="white" stroke="black" points="320,-278.5 320,-297.5 432,-297.5 432,-278.5 320,-278.5"/>
<text text-anchor="middle" x="376" y="-285.5" font-family="Helvetica,sans-Serif" font-size="10.00">ParseStore::set_flag</text>
</a>
</g>
</g>
<!-- Node2&#45;&gt;Node3 -->
<g id="edge2" class="edge"><title>Node2&#45;&gt;Node3</title>
<path fill="none" stroke="midnightblue" d="M260.608,-259.589C280.707,-264.581 305.475,-270.732 326.819,-276.033"/>
<polygon fill="midnightblue" stroke="midnightblue" points="326.12,-279.466 336.669,-278.48 327.808,-272.673 326.12,-279.466"/>
</g>
<!-- Node2&#45;&gt;Node4 -->
<g id="edge3" class="edge"><title>Node2&#45;&gt;Node4</title>
<path fill="none" stroke="midnightblue" d="M274.795,-254.851C320.466,-256.641 386.861,-253.298 437,-226 466.826,-209.761 489.208,-175.962 501.039,-154.719"/>
<polygon fill="midnightblue" stroke="midnightblue" points="504.237,-156.161 505.854,-145.691 498.06,-152.867 504.237,-156.161"/>
</g>
<!-- Node5 -->
<g id="node5" class="node"><title>Node5</title>
<g id="a_node5"><a xlink:href="../../da/d6a/classParseUtility.html#aabfa4c56607539ef14be2e2a7260006b" target="_top" xlink:title="ParseUtility::syn">
<polygon fill="white" stroke="black" points="586,-126.5 586,-145.5 677,-145.5 677,-126.5 586,-126.5"/>
<text text-anchor="middle" x="631.5" y="-133.5" font-family="Helvetica,sans-Serif" font-size="10.00">ParseUtility::syn</text>
</a>
</g>
</g>
<!-- Node4&#45;&gt;Node5 -->
<g id="edge4" class="edge"><title>Node4&#45;&gt;Node5</title>
<path fill="none" stroke="midnightblue" d="M550.16,-136C558.305,-136 567.076,-136 575.726,-136"/>
<polygon fill="midnightblue" stroke="midnightblue" points="575.779,-139.5 585.779,-136 575.779,-132.5 575.779,-139.5"/>
</g>
<!-- Node6 -->
<g id="node6" class="node"><title>Node6</title>
<g id="a_node6"><a xlink:href="../../d3/d5e/classParseStore.html#ab21a4aeadb4cc4938b58cbefbb8634e8" target="_top" xlink:title="ParseStore::currentInstance">
<polygon fill="white" stroke="black" points="713,-145.5 713,-164.5 861,-164.5 861,-145.5 713,-145.5"/>
<text text-anchor="middle" x="787" y="-152.5" font-family="Helvetica,sans-Serif" font-size="10.00">ParseStore::currentInstance</text>
</a>
</g>
</g>
<!-- Node5&#45;&gt;Node6 -->
<g id="edge5" class="edge"><title>Node5&#45;&gt;Node6</title>
<path fill="none" stroke="midnightblue" d="M677.311,-141.547C685.412,-142.549 694.091,-143.624 702.882,-144.712"/>
<polygon fill="midnightblue" stroke="midnightblue" points="702.476,-148.188 712.831,-145.943 703.336,-141.241 702.476,-148.188"/>
</g>
<!-- Node7 -->
<g id="node7" class="node"><title>Node7</title>
<g id="a_node7"><a xlink:href="../../d3/d5e/classParseStore.html#ae7b3d82d22174c1a1165a592d6c1700c" target="_top" xlink:title="ParseStore::filename">
<polygon fill="white" stroke="black" points="730,-107.5 730,-126.5 844,-126.5 844,-107.5 730,-107.5"/>
<text text-anchor="middle" x="787" y="-114.5" font-family="Helvetica,sans-Serif" font-size="10.00">ParseStore::filename</text>
</a>
</g>
</g>
<!-- Node5&#45;&gt;Node7 -->
<g id="edge6" class="edge"><title>Node5&#45;&gt;Node7</title>
<path fill="none" stroke="midnightblue" d="M677.311,-130.453C690.556,-128.814 705.345,-126.983 719.644,-125.213"/>
<polygon fill="midnightblue" stroke="midnightblue" points="720.446,-128.641 729.94,-123.939 719.586,-121.694 720.446,-128.641"/>
</g>
<!-- Node8&#45;&gt;Node4 -->
<g id="edge8" class="edge"><title>Node8&#45;&gt;Node4</title>
<path fill="none" stroke="midnightblue" d="M410.688,-164.411C427.763,-159.551 448.7,-153.591 466.982,-148.387"/>
<polygon fill="midnightblue" stroke="midnightblue" points="468.163,-151.69 476.823,-145.586 466.247,-144.957 468.163,-151.69"/>
</g>
<!-- Node9&#45;&gt;Node4 -->
<g id="edge12" class="edge"><title>Node9&#45;&gt;Node4</title>
<path fill="none" stroke="midnightblue" d="M279.343,-136C333.038,-136 412.347,-136 462.706,-136"/>
<polygon fill="midnightblue" stroke="midnightblue" points="462.993,-139.5 472.993,-136 462.993,-132.5 462.993,-139.5"/>
</g>
<!-- Node10 -->
<g id="node10" class="node"><title>Node10</title>
<g id="a_node10"><a xlink:href="../../d0/df6/classCParser.html#ad3478bb95eecaaa4fb98396fb1b48d82" target="_top" xlink:title="CParser::skip_until\l_matching_rbrace">
<polygon fill="white" stroke="black" points="324,-77 324,-107 428,-107 428,-77 324,-77"/>
<text text-anchor="start" x="332" y="-95" font-family="Helvetica,sans-Serif" font-size="10.00">CParser::skip_until</text>
<text text-anchor="middle" x="376" y="-84" font-family="Helvetica,sans-Serif" font-size="10.00">_matching_rbrace</text>
</a>
</g>
</g>
<!-- Node9&#45;&gt;Node10 -->
<g id="edge10" class="edge"><title>Node9&#45;&gt;Node10</title>
<path fill="none" stroke="midnightblue" d="M255.199,-126.453C272.419,-121.5 294.005,-115.293 314.092,-109.516"/>
<polygon fill="midnightblue" stroke="midnightblue" points="315.164,-112.85 323.807,-106.722 313.229,-106.122 315.164,-112.85"/>
</g>
<!-- Node10&#45;&gt;Node4 -->
<g id="edge11" class="edge"><title>Node10&#45;&gt;Node4</title>
<path fill="none" stroke="midnightblue" d="M422.57,-107.019C438.556,-112.288 456.35,-118.153 471.727,-123.221"/>
<polygon fill="midnightblue" stroke="midnightblue" points="470.846,-126.616 481.439,-126.422 473.037,-119.967 470.846,-126.616"/>
</g>
<!-- Node11&#45;&gt;Node4 -->
<g id="edge16" class="edge"><title>Node11&#45;&gt;Node4</title>
<path fill="none" stroke="midnightblue" d="M278.857,-43.1414C323.728,-41.5862 386.897,-44.566 437,-67 462.069,-78.2249 484.024,-101.618 497.262,-118.042"/>
<polygon fill="midnightblue" stroke="midnightblue" points="494.791,-120.568 503.683,-126.328 500.324,-116.28 494.791,-120.568"/>
</g>
<!-- Node12 -->
<g id="node12" class="node"><title>Node12</title>
<g id="a_node12"><a xlink:href="../../d0/df6/classCParser.html#a805ddaf693baf2bf8cb3940632d153f2" target="_top" xlink:title="CParser::tag">
<polygon fill="white" stroke="black" points="338.5,-0.5 338.5,-19.5 413.5,-19.5 413.5,-0.5 338.5,-0.5"/>
<text text-anchor="middle" x="376" y="-7.5" font-family="Helvetica,sans-Serif" font-size="10.00">CParser::tag</text>
</a>
</g>
</g>
<!-- Node11&#45;&gt;Node12 -->
<g id="edge14" class="edge"><title>Node11&#45;&gt;Node12</title>
<path fill="none" stroke="midnightblue" d="M260.608,-38.411C281.166,-33.3052 306.608,-26.9863 328.274,-21.6052"/>
<polygon fill="midnightblue" stroke="midnightblue" points="329.388,-24.9349 338.249,-19.1276 327.7,-18.1413 329.388,-24.9349"/>
</g>
<!-- Node12&#45;&gt;Node4 -->
<g id="edge15" class="edge"><title>Node12&#45;&gt;Node4</title>
<path fill="none" stroke="midnightblue" d="M410.555,-19.5866C419.701,-23.184 429.221,-27.92 437,-34 466.378,-56.9634 489.278,-94.7019 501.263,-117.27"/>
<polygon fill="midnightblue" stroke="midnightblue" points="498.303,-119.168 505.986,-126.463 504.53,-115.969 498.303,-119.168"/>
</g>
</g>
</svg>
