<?xml version="1.0" encoding="UTF-8" standalone="no"?>
<!DOCTYPE svg PUBLIC "-//W3C//DTD SVG 1.1//EN"
 "http://www.w3.org/Graphics/SVG/1.1/DTD/svg11.dtd">
<!-- Generated by graphviz version 2.38.0 (20140413.2041)
 -->
<!-- Title: CParser::identifier_or_brace_block_or_both Pages: 1 -->
<svg width="1004pt" height="137pt"
 viewBox="0.00 0.00 1004.00 137.00" xmlns="http://www.w3.org/2000/svg" xmlns:xlink="http://www.w3.org/1999/xlink">
<g id="graph0" class="graph" transform="scale(1 1) rotate(0) translate(4 133)">
<title>CParser::identifier_or_brace_block_or_both</title>
<polygon fill="white" stroke="none" points="-4,4 -4,-133 1000,-133 1000,4 -4,4"/>
<!-- Node1 -->
<g id="node1" class="node"><title>Node1</title>
<polygon fill="#bfbfbf" stroke="black" points="0,-0.5 0,-30.5 137,-30.5 137,-0.5 0,-0.5"/>
<text text-anchor="start" x="8" y="-18.5" font-family="Helvetica,sans-Serif" font-size="10.00">CParser::identifier</text>
<text text-anchor="middle" x="68.5" y="-7.5" font-family="Helvetica,sans-Serif" font-size="10.00">_or_brace_block_or_both</text>
</g>
<!-- Node2 -->
<g id="node2" class="node"><title>Node2</title>
<g id="a_node2"><a xlink:href="../../d0/df6/classCParser.html#a3edb6c5bd0ab36d2409273973bbd2620" target="_top" xlink:title="CParser::opt_brace\l_block">
<polygon fill="white" stroke="black" points="173,-22.5 173,-52.5 280,-52.5 280,-22.5 173,-22.5"/>
<text text-anchor="start" x="181" y="-40.5" font-family="Helvetica,sans-Serif" font-size="10.00">CParser::opt_brace</text>
<text text-anchor="middle" x="226.5" y="-29.5" font-family="Helvetica,sans-Serif" font-size="10.00">_block</text>
</a>
</g>
</g>
<!-- Node1&#45;&gt;Node2 -->
<g id="edge1" class="edge"><title>Node1&#45;&gt;Node2</title>
<path fill="none" stroke="midnightblue" d="M137.017,-25.0216C145.564,-26.2269 154.282,-27.4564 162.751,-28.6507"/>
<polygon fill="midnightblue" stroke="midnightblue" points="162.538,-32.1553 172.928,-30.0861 163.515,-25.2238 162.538,-32.1553"/>
</g>
<!-- Node5 -->
<g id="node5" class="node"><title>Node5</title>
<g id="a_node5"><a xlink:href="../../d0/df6/classCParser.html#a5e1630bd24884bb1cbc5680926dce957" target="_top" xlink:title="CParser::syn">
<polygon fill="white" stroke="black" points="608,-41 608,-60 685,-60 685,-41 608,-41"/>
<text text-anchor="middle" x="646.5" y="-48" font-family="Helvetica,sans-Serif" font-size="10.00">CParser::syn</text>
</a>
</g>
</g>
<!-- Node1&#45;&gt;Node5 -->
<g id="edge10" class="edge"><title>Node1&#45;&gt;Node5</title>
<path fill="none" stroke="midnightblue" d="M137.138,-13.2574C149.085,-12.9418 161.407,-12.668 173,-12.5 220.551,-11.811 232.503,-10.1472 280,-12.5 410.257,-18.9523 442.378,-27.1291 572,-41.5 580.266,-42.4165 589.049,-43.4445 597.558,-44.4692"/>
<polygon fill="midnightblue" stroke="midnightblue" points="597.4,-47.9757 607.75,-45.7097 598.246,-41.027 597.4,-47.9757"/>
</g>
<!-- Node3 -->
<g id="node3" class="node"><title>Node3</title>
<g id="a_node3"><a xlink:href="../../d0/df6/classCParser.html#a0a168a887a9f004b6635cd3fb47f565e" target="_top" xlink:title="CParser::brace_block">
<polygon fill="white" stroke="black" points="316,-60 316,-79 432,-79 432,-60 316,-60"/>
<text text-anchor="middle" x="374" y="-67" font-family="Helvetica,sans-Serif" font-size="10.00">CParser::brace_block</text>
</a>
</g>
</g>
<!-- Node2&#45;&gt;Node3 -->
<g id="edge2" class="edge"><title>Node2&#45;&gt;Node3</title>
<path fill="none" stroke="midnightblue" d="M280.029,-49.0527C292.875,-51.878 306.634,-54.9041 319.524,-57.739"/>
<polygon fill="midnightblue" stroke="midnightblue" points="319.122,-61.2342 329.641,-59.9639 320.626,-54.3976 319.122,-61.2342"/>
</g>
<!-- Node2&#45;&gt;Node5 -->
<g id="edge9" class="edge"><title>Node2&#45;&gt;Node5</title>
<path fill="none" stroke="midnightblue" d="M280.017,-39.1333C361.962,-41.6818 519.005,-46.5659 597.855,-49.0182"/>
<polygon fill="midnightblue" stroke="midnightblue" points="597.885,-52.5207 607.989,-49.3334 598.102,-45.5241 597.885,-52.5207"/>
</g>
<!-- Node4 -->
<g id="node4" class="node"><title>Node4</title>
<g id="a_node4"><a xlink:href="../../d0/df6/classCParser.html#ad3478bb95eecaaa4fb98396fb1b48d82" target="_top" xlink:title="CParser::skip_until\l_matching_rbrace">
<polygon fill="white" stroke="black" points="468,-98.5 468,-128.5 572,-128.5 572,-98.5 468,-98.5"/>
<text text-anchor="start" x="476" y="-116.5" font-family="Helvetica,sans-Serif" font-size="10.00">CParser::skip_until</text>
<text text-anchor="middle" x="520" y="-105.5" font-family="Helvetica,sans-Serif" font-size="10.00">_matching_rbrace</text>
</a>
</g>
</g>
<!-- Node3&#45;&gt;Node4 -->
<g id="edge3" class="edge"><title>Node3&#45;&gt;Node4</title>
<path fill="none" stroke="midnightblue" d="M406.246,-79.0473C421.952,-83.8464 441.516,-89.8243 459.916,-95.4466"/>
<polygon fill="midnightblue" stroke="midnightblue" points="459.109,-98.8596 469.695,-98.4346 461.154,-92.1651 459.109,-98.8596"/>
</g>
<!-- Node3&#45;&gt;Node5 -->
<g id="edge8" class="edge"><title>Node3&#45;&gt;Node5</title>
<path fill="none" stroke="midnightblue" d="M432.036,-65.4938C481.175,-62.0422 551.302,-57.1165 597.587,-53.8655"/>
<polygon fill="midnightblue" stroke="midnightblue" points="597.929,-57.3501 607.66,-53.1579 597.439,-50.3673 597.929,-57.3501"/>
</g>
<!-- Node4&#45;&gt;Node5 -->
<g id="edge4" class="edge"><title>Node4&#45;&gt;Node5</title>
<path fill="none" stroke="midnightblue" d="M550.821,-98.4099C570.975,-88.2116 597.421,-74.8294 617.238,-64.801"/>
<polygon fill="midnightblue" stroke="midnightblue" points="619.036,-67.8142 626.378,-60.1761 615.875,-61.5683 619.036,-67.8142"/>
</g>
<!-- Node6 -->
<g id="node6" class="node"><title>Node6</title>
<g id="a_node6"><a xlink:href="../../da/d6a/classParseUtility.html#aabfa4c56607539ef14be2e2a7260006b" target="_top" xlink:title="ParseUtility::syn">
<polygon fill="white" stroke="black" points="721,-41 721,-60 812,-60 812,-41 721,-41"/>
<text text-anchor="middle" x="766.5" y="-48" font-family="Helvetica,sans-Serif" font-size="10.00">ParseUtility::syn</text>
</a>
</g>
</g>
<!-- Node5&#45;&gt;Node6 -->
<g id="edge5" class="edge"><title>Node5&#45;&gt;Node6</title>
<path fill="none" stroke="midnightblue" d="M685.16,-50.5C693.305,-50.5 702.076,-50.5 710.726,-50.5"/>
<polygon fill="midnightblue" stroke="midnightblue" points="710.779,-54.0001 720.779,-50.5 710.779,-47.0001 710.779,-54.0001"/>
</g>
<!-- Node7 -->
<g id="node7" class="node"><title>Node7</title>
<g id="a_node7"><a xlink:href="../../d3/d5e/classParseStore.html#ab21a4aeadb4cc4938b58cbefbb8634e8" target="_top" xlink:title="ParseStore::currentInstance">
<polygon fill="white" stroke="black" points="848,-60 848,-79 996,-79 996,-60 848,-60"/>
<text text-anchor="middle" x="922" y="-67" font-family="Helvetica,sans-Serif" font-size="10.00">ParseStore::currentInstance</text>
</a>
</g>
</g>
<!-- Node6&#45;&gt;Node7 -->
<g id="edge6" class="edge"><title>Node6&#45;&gt;Node7</title>
<path fill="none" stroke="midnightblue" d="M812.311,-56.0467C820.412,-57.0494 829.091,-58.1237 837.882,-59.2118"/>
<polygon fill="midnightblue" stroke="midnightblue" points="837.476,-62.6882 847.831,-60.4432 838.336,-55.7412 837.476,-62.6882"/>
</g>
<!-- Node8 -->
<g id="node8" class="node"><title>Node8</title>
<g id="a_node8"><a xlink:href="../../d3/d5e/classParseStore.html#ae7b3d82d22174c1a1165a592d6c1700c" target="_top" xlink:title="ParseStore::filename">
<polygon fill="white" stroke="black" points="865,-22 865,-41 979,-41 979,-22 865,-22"/>
<text text-anchor="middle" x="922" y="-29" font-family="Helvetica,sans-Serif" font-size="10.00">ParseStore::filename</text>
</a>
</g>
</g>
<!-- Node6&#45;&gt;Node8 -->
<g id="edge7" class="edge"><title>Node6&#45;&gt;Node8</title>
<path fill="none" stroke="midnightblue" d="M812.311,-44.9533C825.556,-43.3139 840.345,-41.4833 854.644,-39.7135"/>
<polygon fill="midnightblue" stroke="midnightblue" points="855.446,-43.141 864.94,-38.439 854.586,-36.194 855.446,-43.141"/>
</g>
</g>
</svg>
