<?xml version="1.0" encoding="UTF-8" standalone="no"?>
<!DOCTYPE svg PUBLIC "-//W3C//DTD SVG 1.1//EN"
 "http://www.w3.org/Graphics/SVG/1.1/DTD/svg11.dtd">
<!-- Generated by graphviz version 2.38.0 (20140413.2041)
 -->
<!-- Title: CParser::explicit_template_instantiation Pages: 1 -->
<svg width="1284pt" height="204pt"
 viewBox="0.00 0.00 1284.00 204.00" xmlns="http://www.w3.org/2000/svg" xmlns:xlink="http://www.w3.org/1999/xlink">
<g id="graph0" class="graph" transform="scale(1 1) rotate(0) translate(4 200)">
<title>CParser::explicit_template_instantiation</title>
<polygon fill="white" stroke="none" points="-4,4 -4,-200 1280,-200 1280,4 -4,4"/>
<!-- Node1 -->
<g id="node1" class="node"><title>Node1</title>
<polygon fill="#bfbfbf" stroke="black" points="0,-29 0,-59 139,-59 139,-29 0,-29"/>
<text text-anchor="start" x="8" y="-47" font-family="Helvetica,sans-Serif" font-size="10.00">CParser::explicit_template</text>
<text text-anchor="middle" x="69.5" y="-36" font-family="Helvetica,sans-Serif" font-size="10.00">_instantiation</text>
</g>
<!-- Node2 -->
<g id="node2" class="node"><title>Node2</title>
<g id="a_node2"><a xlink:href="../../d0/df6/classCParser.html#ab3ab57ace628c2476dd8dfe5a96f9a15" target="_top" xlink:title="CParser::definition\l_or_declaration">
<polygon fill="white" stroke="black" points="175,-29 175,-59 278,-59 278,-29 175,-29"/>
<text text-anchor="start" x="183" y="-47" font-family="Helvetica,sans-Serif" font-size="10.00">CParser::definition</text>
<text text-anchor="middle" x="226.5" y="-36" font-family="Helvetica,sans-Serif" font-size="10.00">_or_declaration</text>
</a>
</g>
</g>
<!-- Node1&#45;&gt;Node2 -->
<g id="edge1" class="edge"><title>Node1&#45;&gt;Node2</title>
<path fill="none" stroke="midnightblue" d="M149.524,-44C158.171,-44 166.793,-44 174.958,-44"/>
<polygon fill="midnightblue" stroke="midnightblue" points="149.388,-40.5001 139.388,-44 149.388,-47.5001 149.388,-40.5001"/>
</g>
<!-- Node3 -->
<g id="node3" class="node"><title>Node3</title>
<g id="a_node3"><a xlink:href="../../d0/df6/classCParser.html#a2b78ab2005bef5c43ee2d4689210eab1" target="_top" xlink:title="CParser::link_item">
<polygon fill="white" stroke="black" points="333.5,-107.5 333.5,-126.5 434.5,-126.5 434.5,-107.5 333.5,-107.5"/>
<text text-anchor="middle" x="384" y="-114.5" font-family="Helvetica,sans-Serif" font-size="10.00">CParser::link_item</text>
</a>
</g>
</g>
<!-- Node2&#45;&gt;Node3 -->
<g id="edge2" class="edge"><title>Node2&#45;&gt;Node3</title>
<path fill="none" stroke="midnightblue" d="M268.79,-63.3838C299.097,-77.6116 338.959,-96.3248 362.686,-107.464"/>
<polygon fill="midnightblue" stroke="midnightblue" points="270.259,-60.207 259.72,-59.1256 267.284,-66.5435 270.259,-60.207"/>
</g>
<!-- Node9 -->
<g id="node9" class="node"><title>Node9</title>
<g id="a_node9"><a xlink:href="../../d0/df6/classCParser.html#a85eb09132fa5a588749cea062f0d11ea" target="_top" xlink:title="CParser::class_block_item">
<polygon fill="white" stroke="black" points="314,-34.5 314,-53.5 454,-53.5 454,-34.5 314,-34.5"/>
<text text-anchor="middle" x="384" y="-41.5" font-family="Helvetica,sans-Serif" font-size="10.00">CParser::class_block_item</text>
</a>
</g>
</g>
<!-- Node2&#45;&gt;Node9 -->
<g id="edge10" class="edge"><title>Node2&#45;&gt;Node9</title>
<path fill="none" stroke="midnightblue" d="M288.438,-44C296.787,-44 305.408,-44 313.89,-44"/>
<polygon fill="midnightblue" stroke="midnightblue" points="288.417,-40.5001 278.417,-44 288.416,-47.5001 288.417,-40.5001"/>
</g>
<!-- Node4 -->
<g id="node4" class="node"><title>Node4</title>
<g id="a_node4"><a xlink:href="../../d0/df6/classCParser.html#a4f02da23566af37123efb3768769c09b" target="_top" xlink:title="CParser::start">
<polygon fill="white" stroke="black" points="514.5,-176.5 514.5,-195.5 595.5,-195.5 595.5,-176.5 514.5,-176.5"/>
<text text-anchor="middle" x="555" y="-183.5" font-family="Helvetica,sans-Serif" font-size="10.00">CParser::start</text>
</a>
</g>
</g>
<!-- Node3&#45;&gt;Node4 -->
<g id="edge3" class="edge"><title>Node3&#45;&gt;Node4</title>
<path fill="none" stroke="midnightblue" d="M411.765,-131.172C432.687,-141.898 462.702,-156.522 490,-167 498.981,-170.447 508.866,-173.657 518.125,-176.42"/>
<polygon fill="midnightblue" stroke="midnightblue" points="413.324,-128.037 402.834,-126.547 410.105,-134.253 413.324,-128.037"/>
</g>
<!-- Node7 -->
<g id="node7" class="node"><title>Node7</title>
<g id="a_node7"><a xlink:href="../../d0/df6/classCParser.html#a86906e492ff9c606fb3537078f46f93e" target="_top" xlink:title="CParser::extern_linkage\l_block">
<polygon fill="white" stroke="black" points="490,-127 490,-157 620,-157 620,-127 490,-127"/>
<text text-anchor="start" x="498" y="-145" font-family="Helvetica,sans-Serif" font-size="10.00">CParser::extern_linkage</text>
<text text-anchor="middle" x="555" y="-134" font-family="Helvetica,sans-Serif" font-size="10.00">_block</text>
</a>
</g>
</g>
<!-- Node3&#45;&gt;Node7 -->
<g id="edge6" class="edge"><title>Node3&#45;&gt;Node7</title>
<path fill="none" stroke="midnightblue" d="M444.912,-119.373C461.494,-121.465 479.461,-124.137 495.936,-126.963"/>
<polygon fill="midnightblue" stroke="midnightblue" points="445.139,-115.875 434.792,-118.15 444.299,-122.825 445.139,-115.875"/>
</g>
<!-- Node8 -->
<g id="node8" class="node"><title>Node8</title>
<g id="a_node8"><a xlink:href="../../d0/df6/classCParser.html#a4fad913a0694a5376ad76669d8943122" target="_top" xlink:title="CParser::namespace\l_block">
<polygon fill="white" stroke="black" points="497.5,-78 497.5,-108 612.5,-108 612.5,-78 497.5,-78"/>
<text text-anchor="start" x="505.5" y="-96" font-family="Helvetica,sans-Serif" font-size="10.00">CParser::namespace</text>
<text text-anchor="middle" x="555" y="-85" font-family="Helvetica,sans-Serif" font-size="10.00">_block</text>
</a>
</g>
</g>
<!-- Node3&#45;&gt;Node8 -->
<g id="edge8" class="edge"><title>Node3&#45;&gt;Node8</title>
<path fill="none" stroke="midnightblue" d="M424.68,-105.542C446.375,-101.468 473.617,-97.4042 497.497,-94.6148"/>
<polygon fill="midnightblue" stroke="midnightblue" points="423.965,-102.115 414.825,-107.473 425.311,-108.985 423.965,-102.115"/>
</g>
<!-- Node5 -->
<g id="node5" class="node"><title>Node5</title>
<g id="a_node5"><a xlink:href="../../db/d4a/classMain.html#a803470658c644fa9512140f9d8398dd5" target="_top" xlink:title="Main::ParseFiles">
<polygon fill="white" stroke="black" points="666,-176.5 666,-195.5 760,-195.5 760,-176.5 666,-176.5"/>
<text text-anchor="middle" x="713" y="-183.5" font-family="Helvetica,sans-Serif" font-size="10.00">Main::ParseFiles</text>
</a>
</g>
</g>
<!-- Node4&#45;&gt;Node5 -->
<g id="edge4" class="edge"><title>Node4&#45;&gt;Node5</title>
<path fill="none" stroke="midnightblue" d="M605.869,-186C625.138,-186 647.051,-186 665.942,-186"/>
<polygon fill="midnightblue" stroke="midnightblue" points="605.769,-182.5 595.769,-186 605.769,-189.5 605.769,-182.5"/>
</g>
<!-- Node6 -->
<g id="node6" class="node"><title>Node6</title>
<g id="a_node6"><a xlink:href="../../d6/d93/ccccmain_8cc.html#a3c04138a5bfe5d72780bb7e82a18e627" target="_top" xlink:title="main">
<polygon fill="white" stroke="black" points="843.5,-176.5 843.5,-195.5 882.5,-195.5 882.5,-176.5 843.5,-176.5"/>
<text text-anchor="middle" x="863" y="-183.5" font-family="Helvetica,sans-Serif" font-size="10.00">main</text>
</a>
</g>
</g>
<!-- Node5&#45;&gt;Node6 -->
<g id="edge5" class="edge"><title>Node5&#45;&gt;Node6</title>
<path fill="none" stroke="midnightblue" d="M770.15,-186C796.09,-186 825.142,-186 843.494,-186"/>
<polygon fill="midnightblue" stroke="midnightblue" points="770.017,-182.5 760.017,-186 770.017,-189.5 770.017,-182.5"/>
</g>
<!-- Node7&#45;&gt;Node3 -->
<g id="edge7" class="edge"><title>Node7&#45;&gt;Node3</title>
<path fill="none" stroke="midnightblue" d="M480.065,-137.766C456.729,-134.523 432.302,-130.422 414.052,-126.54"/>
<polygon fill="midnightblue" stroke="midnightblue" points="479.6,-141.235 489.978,-139.1 480.534,-134.297 479.6,-141.235"/>
</g>
<!-- Node8&#45;&gt;Node3 -->
<g id="edge9" class="edge"><title>Node8&#45;&gt;Node3</title>
<path fill="none" stroke="midnightblue" d="M487.292,-109.089C469.795,-111.842 451.232,-114.345 434.792,-116.145"/>
<polygon fill="midnightblue" stroke="midnightblue" points="488.136,-112.498 497.446,-107.442 487.015,-105.588 488.136,-112.498"/>
</g>
<!-- Node10 -->
<g id="node10" class="node"><title>Node10</title>
<g id="a_node10"><a xlink:href="../../d0/df6/classCParser.html#a4b9f00c05d44a13b3c18b28b52f5be9e" target="_top" xlink:title="CParser::class_block\l_item_list">
<polygon fill="white" stroke="black" points="498,-29 498,-59 612,-59 612,-29 498,-29"/>
<text text-anchor="start" x="506" y="-47" font-family="Helvetica,sans-Serif" font-size="10.00">CParser::class_block</text>
<text text-anchor="middle" x="555" y="-36" font-family="Helvetica,sans-Serif" font-size="10.00">_item_list</text>
</a>
</g>
</g>
<!-- Node9&#45;&gt;Node10 -->
<g id="edge11" class="edge"><title>Node9&#45;&gt;Node10</title>
<path fill="none" stroke="midnightblue" d="M464.497,-44C475.741,-44 487.104,-44 497.785,-44"/>
<polygon fill="midnightblue" stroke="midnightblue" points="464.226,-40.5001 454.226,-44 464.226,-47.5001 464.226,-40.5001"/>
</g>
<!-- Node11 -->
<g id="node11" class="node"><title>Node11</title>
<g id="a_node11"><a xlink:href="../../d0/df6/classCParser.html#a06c7cac9034f27ad6d998b49a7b574c8" target="_top" xlink:title="CParser::class_block">
<polygon fill="white" stroke="black" points="656,-31.5 656,-50.5 770,-50.5 770,-31.5 656,-31.5"/>
<text text-anchor="middle" x="713" y="-38.5" font-family="Helvetica,sans-Serif" font-size="10.00">CParser::class_block</text>
</a>
</g>
</g>
<!-- Node10&#45;&gt;Node11 -->
<g id="edge12" class="edge"><title>Node10&#45;&gt;Node11</title>
<path fill="none" stroke="midnightblue" d="M622.404,-42.723C633.512,-42.5094 644.941,-42.2896 655.763,-42.0815"/>
<polygon fill="midnightblue" stroke="midnightblue" points="622.25,-39.2252 612.32,-42.9169 622.385,-46.2239 622.25,-39.2252"/>
</g>
<!-- Node12 -->
<g id="node12" class="node"><title>Node12</title>
<g id="a_node12"><a xlink:href="../../d0/df6/classCParser.html#a40fba8426e7ac46e9926515ee81e97f3" target="_top" xlink:title="CParser::class_suffix">
<polygon fill="white" stroke="black" points="806,-29.5 806,-48.5 920,-48.5 920,-29.5 806,-29.5"/>
<text text-anchor="middle" x="863" y="-36.5" font-family="Helvetica,sans-Serif" font-size="10.00">CParser::class_suffix</text>
</a>
</g>
</g>
<!-- Node11&#45;&gt;Node12 -->
<g id="edge13" class="edge"><title>Node11&#45;&gt;Node12</title>
<path fill="none" stroke="midnightblue" d="M780.558,-40.1006C788.984,-39.9867 797.539,-39.8711 805.782,-39.7597"/>
<polygon fill="midnightblue" stroke="midnightblue" points="780.326,-36.6033 770.375,-40.2382 780.421,-43.6026 780.326,-36.6033"/>
</g>
<!-- Node13 -->
<g id="node13" class="node"><title>Node13</title>
<g id="a_node13"><a xlink:href="../../d0/df6/classCParser.html#a1ed5fcfb2e97e3551fceabe81989a667" target="_top" xlink:title="CParser::class_declaration\l_or_definition">
<polygon fill="white" stroke="black" points="956,-4 956,-34 1099,-34 1099,-4 956,-4"/>
<text text-anchor="start" x="964" y="-22" font-family="Helvetica,sans-Serif" font-size="10.00">CParser::class_declaration</text>
<text text-anchor="middle" x="1027.5" y="-11" font-family="Helvetica,sans-Serif" font-size="10.00">_or_definition</text>
</a>
</g>
</g>
<!-- Node12&#45;&gt;Node13 -->
<g id="edge14" class="edge"><title>Node12&#45;&gt;Node13</title>
<path fill="none" stroke="midnightblue" d="M930.473,-30.8187C938.858,-29.7867 947.46,-28.728 955.905,-27.6886"/>
<polygon fill="midnightblue" stroke="midnightblue" points="929.876,-27.3657 920.379,-32.0611 930.731,-34.3133 929.876,-27.3657"/>
</g>
<!-- Node13&#45;&gt;Node2 -->
<g id="edge15" class="edge"><title>Node13&#45;&gt;Node2</title>
<path fill="none" stroke="midnightblue" d="M945.557,-11.374C882.516,-6.08976 792.776,-0 714,-0 554,-0 554,-0 554,-0 446.756,-0 419.874,-7.91348 314,-25 302.312,-26.8862 289.83,-29.3567 278.088,-31.8893"/>
<polygon fill="midnightblue" stroke="midnightblue" points="945.57,-14.8876 955.831,-12.2478 946.163,-7.91282 945.57,-14.8876"/>
</g>
<!-- Node14 -->
<g id="node14" class="node"><title>Node14</title>
<g id="a_node14"><a xlink:href="../../d0/df6/classCParser.html#a12561a45dab96760d7ab45896681dd33" target="_top" xlink:title="CParser::class_or_method\l_declaration_or_definition">
<polygon fill="white" stroke="black" points="1135,-4 1135,-34 1276,-34 1276,-4 1135,-4"/>
<text text-anchor="start" x="1143" y="-22" font-family="Helvetica,sans-Serif" font-size="10.00">CParser::class_or_method</text>
<text text-anchor="middle" x="1205.5" y="-11" font-family="Helvetica,sans-Serif" font-size="10.00">_declaration_or_definition</text>
</a>
</g>
</g>
<!-- Node13&#45;&gt;Node14 -->
<g id="edge16" class="edge"><title>Node13&#45;&gt;Node14</title>
<path fill="none" stroke="midnightblue" d="M1109.08,-19C1117.66,-19 1126.33,-19 1134.77,-19"/>
<polygon fill="midnightblue" stroke="midnightblue" points="1109.07,-15.5001 1099.07,-19 1109.07,-22.5001 1109.07,-15.5001"/>
</g>
</g>
</svg>
