<?xml version="1.0" encoding="UTF-8" standalone="no"?>
<!DOCTYPE svg PUBLIC "-//W3C//DTD SVG 1.1//EN"
 "http://www.w3.org/Graphics/SVG/1.1/DTD/svg11.dtd">
<!-- Generated by graphviz version 2.38.0 (20140413.2041)
 -->
<!-- Title: CParser::keyword Pages: 1 -->
<!--zoomable 286 -->
<svg id="main" version="1.1" xmlns="http://www.w3.org/2000/svg" xmlns:xlink="http://www.w3.org/1999/xlink" xml:space="preserve" onload="init(evt)">
<style type="text/css"><![CDATA[
.edge:hover path { stroke: red; }
.edge:hover polygon { stroke: red; fill: red; }
]]></style>
<script type="text/javascript"><![CDATA[
var edges = document.getElementsByTagName('g');
if (edges && edges.length) {
  for (var i=0;i<edges.length;i++) {
    if (edges[i].id.substr(0,4)=='edge') {
      edges[i].setAttribute('class','edge');
    }
  }
}
]]></script>
        <defs>
                <circle id="rim" cx="0" cy="0" r="7"/>
                <circle id="rim2" cx="0" cy="0" r="3.5"/>
                <g id="zoomPlus">
                        <use xlink:href="#rim" fill="#404040">
                                <set attributeName="fill" to="#808080" begin="zoomplus.mouseover" end="zoomplus.mouseout"/>
                        </use>
                        <path d="M-4,0h8M0,-4v8" fill="none" stroke="white" stroke-width="1.5" pointer-events="none"/>
                </g>
                <g id="zoomMin">
                        <use xlink:href="#rim" fill="#404040">
                                <set attributeName="fill" to="#808080" begin="zoomminus.mouseover" end="zoomminus.mouseout"/>
                        </use>
                        <path d="M-4,0h8" fill="none" stroke="white" stroke-width="1.5" pointer-events="none"/>
                </g>
                <g id="dirArrow">
                        <path fill="none" stroke="white" stroke-width="1.5" d="M0,-3.0v7 M-2.5,-0.5L0,-3.0L2.5,-0.5"/>
                </g>
               <g id="resetDef">
                       <use xlink:href="#rim2" fill="#404040">
                               <set attributeName="fill" to="#808080" begin="reset.mouseover" end="reset.mouseout"/>
                       </use>
               </g>
        </defs>

<script type="text/javascript">
var viewWidth = 3583;
var viewHeight = 286;
var sectionId = 'dynsection-108';
</script>
<script xlink:href="../../svgpan.js"/>
<svg id="graph" class="graph">
<g id="viewport">
<title>CParser::keyword</title>
<polygon fill="white" stroke="none" points="-4,4 -4,-282.317 3579,-282.317 3579,4 -4,4"/>
<!-- Node1 -->
<g id="node1" class="node"><title>Node1</title>
<polygon fill="#bfbfbf" stroke="black" points="0,-29.8172 0,-48.8172 100,-48.8172 100,-29.8172 0,-29.8172"/>
<text text-anchor="middle" x="50" y="-36.8172" font-family="Helvetica,sans-Serif" font-size="10.00">CParser::keyword</text>
</g>
<!-- Node2 -->
<g id="node2" class="node"><title>Node2</title>
<g id="a_node2"><a xlink:href="../../d0/df6/classCParser.html#a52e049b9361b6e9c7a2c4f6266d98916" target="_top" xlink:title="CParser::scoped">
<polygon fill="white" stroke="black" points="136,-29.8172 136,-48.8172 231,-48.8172 231,-29.8172 136,-29.8172"/>
<text text-anchor="middle" x="183.5" y="-36.8172" font-family="Helvetica,sans-Serif" font-size="10.00">CParser::scoped</text>
</a>
</g>
</g>
<!-- Node1&#45;&gt;Node2 -->
<g id="edge1" class="edge"><title>Node1&#45;&gt;Node2</title>
<path fill="none" stroke="midnightblue" d="M110.598,-39.3172C119.095,-39.3172 127.73,-39.3172 135.93,-39.3172"/>
<polygon fill="midnightblue" stroke="midnightblue" points="110.34,-35.8173 100.34,-39.3172 110.34,-42.8173 110.34,-35.8173"/>
</g>
<!-- Node3 -->
<g id="node3" class="node"><title>Node3</title>
<g id="a_node3"><a xlink:href="../../d0/df6/classCParser.html#a424ec587e8167b682804c23c4804d895" target="_top" xlink:title="CParser::balanced">
<polygon fill="white" stroke="black" points="267,-29.8172 267,-48.8172 370,-48.8172 370,-29.8172 267,-29.8172"/>
<text text-anchor="middle" x="318.5" y="-36.8172" font-family="Helvetica,sans-Serif" font-size="10.00">CParser::balanced</text>
</a>
</g>
</g>
<!-- Node2&#45;&gt;Node3 -->
<g id="edge2" class="edge"><title>Node2&#45;&gt;Node3</title>
<path fill="none" stroke="midnightblue" d="M241.204,-39.3172C249.676,-39.3172 258.364,-39.3172 266.703,-39.3172"/>
<polygon fill="midnightblue" stroke="midnightblue" points="241.017,-35.8173 231.017,-39.3172 241.017,-42.8173 241.017,-35.8173"/>
</g>
<!-- Node4 -->
<g id="node4" class="node"><title>Node4</title>
<g id="a_node4"><a xlink:href="../../d0/df6/classCParser.html#a967d50b91351cf003898543b6d7af7a7" target="_top" xlink:title="CParser::balanced_list">
<polygon fill="white" stroke="black" points="406,-48.8172 406,-67.8172 528,-67.8172 528,-48.8172 406,-48.8172"/>
<text text-anchor="middle" x="467" y="-55.8172" font-family="Helvetica,sans-Serif" font-size="10.00">CParser::balanced_list</text>
</a>
</g>
</g>
<!-- Node3&#45;&gt;Node4 -->
<g id="edge3" class="edge"><title>Node3&#45;&gt;Node4</title>
<path fill="none" stroke="midnightblue" d="M380.462,-47.2236C388.887,-48.3162 397.535,-49.4378 405.943,-50.5283"/>
<polygon fill="midnightblue" stroke="midnightblue" points="380.695,-43.7245 370.327,-45.9092 379.794,-50.6663 380.695,-43.7245"/>
</g>
<!-- Node5 -->
<g id="node5" class="node"><title>Node5</title>
<g id="a_node5"><a xlink:href="../../d0/df6/classCParser.html#a51affc383cd0859af5d84b628c8a2f5c" target="_top" xlink:title="CParser::paren_block">
<polygon fill="white" stroke="black" points="564,-105.817 564,-124.817 682,-124.817 682,-105.817 564,-105.817"/>
<text text-anchor="middle" x="623" y="-112.817" font-family="Helvetica,sans-Serif" font-size="10.00">CParser::paren_block</text>
</a>
</g>
</g>
<!-- Node4&#45;&gt;Node5 -->
<g id="edge4" class="edge"><title>Node4&#45;&gt;Node5</title>
<path fill="none" stroke="midnightblue" d="M503.3,-71.3827C531.607,-81.86 570.68,-96.3223 596.14,-105.746"/>
<polygon fill="midnightblue" stroke="midnightblue" points="504.369,-68.0466 493.776,-67.8577 501.939,-74.6113 504.369,-68.0466"/>
</g>
<!-- Node39 -->
<g id="node39" class="node"><title>Node39</title>
<g id="a_node39"><a xlink:href="../../d0/df6/classCParser.html#ac73c93a601c6e7123e0ebbd7be03b60d" target="_top" xlink:title="CParser::brack_block">
<polygon fill="white" stroke="black" points="565,-48.8172 565,-67.8172 681,-67.8172 681,-48.8172 565,-48.8172"/>
<text text-anchor="middle" x="623" y="-55.8172" font-family="Helvetica,sans-Serif" font-size="10.00">CParser::brack_block</text>
</a>
</g>
</g>
<!-- Node4&#45;&gt;Node39 -->
<g id="edge49" class="edge"><title>Node4&#45;&gt;Node39</title>
<path fill="none" stroke="midnightblue" d="M538.625,-58.3172C547.382,-58.3172 556.249,-58.3172 564.771,-58.3172"/>
<polygon fill="midnightblue" stroke="midnightblue" points="538.423,-54.8173 528.423,-58.3172 538.423,-61.8173 538.423,-54.8173"/>
</g>
<!-- Node6 -->
<g id="node6" class="node"><title>Node6</title>
<g id="a_node6"><a xlink:href="../../d0/df6/classCParser.html#afbe8666c28623fadda88dce63f2d0dd7" target="_top" xlink:title="CParser::param_list">
<polygon fill="white" stroke="black" points="726.5,-222.817 726.5,-241.817 835.5,-241.817 835.5,-222.817 726.5,-222.817"/>
<text text-anchor="middle" x="781" y="-229.817" font-family="Helvetica,sans-Serif" font-size="10.00">CParser::param_list</text>
</a>
</g>
</g>
<!-- Node5&#45;&gt;Node6 -->
<g id="edge5" class="edge"><title>Node5&#45;&gt;Node6</title>
<path fill="none" stroke="midnightblue" d="M638.484,-132.455C655.793,-152.1 686.401,-184.288 718,-205.317 728.556,-212.342 741.24,-218.245 752.378,-222.723"/>
<polygon fill="midnightblue" stroke="midnightblue" points="641.109,-130.14 631.916,-124.873 635.818,-134.724 641.109,-130.14"/>
</g>
<!-- Node23 -->
<g id="node23" class="node"><title>Node23</title>
<g id="a_node23"><a xlink:href="../../d0/df6/classCParser.html#a74aee17394e57d00d5cf1cb233f2dd42" target="_top" xlink:title="CParser::fptr_type\l_alias">
<polygon fill="white" stroke="black" points="891.5,-56.3172 891.5,-86.3172 993.5,-86.3172 993.5,-56.3172 891.5,-56.3172"/>
<text text-anchor="start" x="899.5" y="-74.3172" font-family="Helvetica,sans-Serif" font-size="10.00">CParser::fptr_type</text>
<text text-anchor="middle" x="942.5" y="-63.3172" font-family="Helvetica,sans-Serif" font-size="10.00">_alias</text>
</a>
</g>
</g>
<!-- Node5&#45;&gt;Node23 -->
<g id="edge28" class="edge"><title>Node5&#45;&gt;Node23</title>
<path fill="none" stroke="midnightblue" d="M676.906,-103.774C690.274,-101.092 704.63,-98.412 718,-96.3172 777.21,-87.0401 845.77,-79.9 891.179,-75.6696"/>
<polygon fill="midnightblue" stroke="midnightblue" points="676.006,-100.386 666.909,-105.816 677.407,-107.244 676.006,-100.386"/>
</g>
<!-- Node26 -->
<g id="node26" class="node"><title>Node26</title>
<g id="a_node26"><a xlink:href="../../d0/df6/classCParser.html#a5e83377507b06b136005686f47f13fcb" target="_top" xlink:title="CParser::item_specifier">
<polygon fill="white" stroke="black" points="880,-181.817 880,-200.817 1005,-200.817 1005,-181.817 880,-181.817"/>
<text text-anchor="middle" x="942.5" y="-188.817" font-family="Helvetica,sans-Serif" font-size="10.00">CParser::item_specifier</text>
</a>
</g>
</g>
<!-- Node5&#45;&gt;Node26 -->
<g id="edge32" class="edge"><title>Node5&#45;&gt;Node26</title>
<path fill="none" stroke="midnightblue" d="M643.933,-131.189C662.094,-144.686 690.241,-163.274 718,-172.317 770.763,-189.507 834.037,-193.447 879.772,-193.562"/>
<polygon fill="midnightblue" stroke="midnightblue" points="645.94,-128.318 635.866,-125.037 641.695,-133.884 645.94,-128.318"/>
</g>
<!-- Node34 -->
<g id="node34" class="node"><title>Node34</title>
<g id="a_node34"><a xlink:href="../../d0/df6/classCParser.html#aa600547e6bdaf5e45d02c89a19c7fa4b" target="_top" xlink:title="CParser::init_expr_item">
<polygon fill="white" stroke="black" points="718,-143.817 718,-162.817 844,-162.817 844,-143.817 718,-143.817"/>
<text text-anchor="middle" x="781" y="-150.817" font-family="Helvetica,sans-Serif" font-size="10.00">CParser::init_expr_item</text>
</a>
</g>
</g>
<!-- Node5&#45;&gt;Node34 -->
<g id="edge42" class="edge"><title>Node5&#45;&gt;Node34</title>
<path fill="none" stroke="midnightblue" d="M673.132,-127.285C694.993,-132.61 720.376,-138.793 740.918,-143.797"/>
<polygon fill="midnightblue" stroke="midnightblue" points="673.91,-123.872 663.365,-124.906 672.253,-130.674 673.91,-123.872"/>
</g>
<!-- Node37 -->
<g id="node37" class="node"><title>Node37</title>
<g id="a_node37"><a xlink:href="../../d0/df6/classCParser.html#a8715e75c1e5fe112f10ccf0986cc2c7d" target="_top" xlink:title="CParser::init_value">
<polygon fill="white" stroke="black" points="729,-105.817 729,-124.817 833,-124.817 833,-105.817 729,-105.817"/>
<text text-anchor="middle" x="781" y="-112.817" font-family="Helvetica,sans-Serif" font-size="10.00">CParser::init_value</text>
</a>
</g>
</g>
<!-- Node5&#45;&gt;Node37 -->
<g id="edge46" class="edge"><title>Node5&#45;&gt;Node37</title>
<path fill="none" stroke="midnightblue" d="M692.282,-115.317C704.54,-115.317 717.123,-115.317 728.795,-115.317"/>
<polygon fill="midnightblue" stroke="midnightblue" points="692.089,-111.817 682.089,-115.317 692.089,-118.817 692.089,-111.817"/>
</g>
<!-- Node38 -->
<g id="node38" class="node"><title>Node38</title>
<g id="a_node38"><a xlink:href="../../d0/df6/classCParser.html#a35e24b97e6c8566e503521071040413f" target="_top" xlink:title="CParser::block">
<polygon fill="white" stroke="black" points="739,-29.8172 739,-48.8172 823,-48.8172 823,-29.8172 739,-29.8172"/>
<text text-anchor="middle" x="781" y="-36.8172" font-family="Helvetica,sans-Serif" font-size="10.00">CParser::block</text>
</a>
</g>
</g>
<!-- Node5&#45;&gt;Node38 -->
<g id="edge47" class="edge"><title>Node5&#45;&gt;Node38</title>
<path fill="none" stroke="midnightblue" d="M648.373,-100.633C667.074,-89.6636 693.719,-74.6687 718,-63.3172 729.188,-58.0869 741.855,-53.036 752.81,-48.9283"/>
<polygon fill="midnightblue" stroke="midnightblue" points="646.447,-97.7063 639.624,-105.812 650.013,-103.73 646.447,-97.7063"/>
</g>
<!-- Node7 -->
<g id="node7" class="node"><title>Node7</title>
<g id="a_node7"><a xlink:href="../../d0/df6/classCParser.html#ab263641e50f3b30b3ac343dd3a5f7e61" target="_top" xlink:title="CParser::method_signature">
<polygon fill="white" stroke="black" points="1199,-228.817 1199,-247.817 1344,-247.817 1344,-228.817 1199,-228.817"/>
<text text-anchor="middle" x="1271.5" y="-235.817" font-family="Helvetica,sans-Serif" font-size="10.00">CParser::method_signature</text>
</a>
</g>
</g>
<!-- Node6&#45;&gt;Node7 -->
<g id="edge6" class="edge"><title>Node6&#45;&gt;Node7</title>
<path fill="none" stroke="midnightblue" d="M845.866,-233.102C936.999,-234.221 1103.82,-236.27 1198.99,-237.439"/>
<polygon fill="midnightblue" stroke="midnightblue" points="845.718,-229.6 835.675,-232.976 845.632,-236.599 845.718,-229.6"/>
</g>
<!-- Node8 -->
<g id="node8" class="node"><title>Node8</title>
<g id="a_node8"><a xlink:href="../../d0/df6/classCParser.html#a0dd2a579512bf1a17aaeac5fdec860a7" target="_top" xlink:title="CParser::method_declaration\l_or_definition_with_implicit_type">
<polygon fill="white" stroke="black" points="2062,-219.317 2062,-249.317 2232,-249.317 2232,-219.317 2062,-219.317"/>
<text text-anchor="start" x="2070" y="-237.317" font-family="Helvetica,sans-Serif" font-size="10.00">CParser::method_declaration</text>
<text text-anchor="middle" x="2147" y="-226.317" font-family="Helvetica,sans-Serif" font-size="10.00">_or_definition_with_implicit_type</text>
</a>
</g>
</g>
<!-- Node7&#45;&gt;Node8 -->
<g id="edge7" class="edge"><title>Node7&#45;&gt;Node8</title>
<path fill="none" stroke="midnightblue" d="M1354.48,-239.039C1426.63,-239.612 1534.54,-240.317 1628.5,-240.317 1628.5,-240.317 1628.5,-240.317 1794,-240.317 1885.53,-240.317 1990.42,-238.264 2061.73,-236.56"/>
<polygon fill="midnightblue" stroke="midnightblue" points="1354.12,-235.536 1344.1,-238.956 1354.07,-242.536 1354.12,-235.536"/>
</g>
<!-- Node9 -->
<g id="node9" class="node"><title>Node9</title>
<g id="a_node9"><a xlink:href="../../d0/df6/classCParser.html#ab3ab57ace628c2476dd8dfe5a96f9a15" target="_top" xlink:title="CParser::definition\l_or_declaration">
<polygon fill="white" stroke="black" points="2474,-137.317 2474,-167.317 2577,-167.317 2577,-137.317 2474,-137.317"/>
<text text-anchor="start" x="2482" y="-155.317" font-family="Helvetica,sans-Serif" font-size="10.00">CParser::definition</text>
<text text-anchor="middle" x="2525.5" y="-144.317" font-family="Helvetica,sans-Serif" font-size="10.00">_or_declaration</text>
</a>
</g>
</g>
<!-- Node8&#45;&gt;Node9 -->
<g id="edge8" class="edge"><title>Node8&#45;&gt;Node9</title>
<path fill="none" stroke="midnightblue" d="M2226.86,-217.142C2301.27,-200.936 2410.59,-177.127 2473.96,-163.326"/>
<polygon fill="midnightblue" stroke="midnightblue" points="2226.08,-213.729 2217.06,-219.277 2227.57,-220.569 2226.08,-213.729"/>
</g>
<!-- Node21 -->
<g id="node21" class="node"><title>Node21</title>
<g id="a_node21"><a xlink:href="../../d0/df6/classCParser.html#a12561a45dab96760d7ab45896681dd33" target="_top" xlink:title="CParser::class_or_method\l_declaration_or_definition">
<polygon fill="white" stroke="black" points="3434,-225.317 3434,-255.317 3575,-255.317 3575,-225.317 3434,-225.317"/>
<text text-anchor="start" x="3442" y="-243.317" font-family="Helvetica,sans-Serif" font-size="10.00">CParser::class_or_method</text>
<text text-anchor="middle" x="3504.5" y="-232.317" font-family="Helvetica,sans-Serif" font-size="10.00">_declaration_or_definition</text>
</a>
</g>
</g>
<!-- Node8&#45;&gt;Node21 -->
<g id="edge27" class="edge"><title>Node8&#45;&gt;Node21</title>
<path fill="none" stroke="midnightblue" d="M2222.71,-251.464C2237.65,-254.445 2253.27,-257.247 2268,-259.317 2381.2,-275.231 2410.19,-278.317 2524.5,-278.317 2524.5,-278.317 2524.5,-278.317 3163,-278.317 3257.28,-278.317 3365.34,-263.75 3433.98,-252.655"/>
<polygon fill="midnightblue" stroke="midnightblue" points="2222.99,-247.95 2212.5,-249.378 2221.59,-254.808 2222.99,-247.95"/>
</g>
<!-- Node22 -->
<g id="node22" class="node"><title>Node22</title>
<g id="a_node22"><a xlink:href="../../d0/df6/classCParser.html#af0c9d35d4c997c6f34cf4a26563b513c" target="_top" xlink:title="CParser::method_declaration\l_or_definition_with_explicit_type">
<polygon fill="white" stroke="black" points="2268,-219.317 2268,-249.317 2438,-249.317 2438,-219.317 2268,-219.317"/>
<text text-anchor="start" x="2276" y="-237.317" font-family="Helvetica,sans-Serif" font-size="10.00">CParser::method_declaration</text>
<text text-anchor="middle" x="2353" y="-226.317" font-family="Helvetica,sans-Serif" font-size="10.00">_or_definition_with_explicit_type</text>
</a>
</g>
</g>
<!-- Node8&#45;&gt;Node22 -->
<g id="edge24" class="edge"><title>Node8&#45;&gt;Node22</title>
<path fill="none" stroke="midnightblue" d="M2242.4,-234.317C2250.85,-234.317 2259.36,-234.317 2267.71,-234.317"/>
<polygon fill="midnightblue" stroke="midnightblue" points="2242.15,-230.817 2232.15,-234.317 2242.15,-237.817 2242.15,-230.817"/>
</g>
<!-- Node10 -->
<g id="node10" class="node"><title>Node10</title>
<g id="a_node10"><a xlink:href="../../d0/df6/classCParser.html#a2b78ab2005bef5c43ee2d4689210eab1" target="_top" xlink:title="CParser::link_item">
<polygon fill="white" stroke="black" points="2632.5,-145.817 2632.5,-164.817 2733.5,-164.817 2733.5,-145.817 2632.5,-145.817"/>
<text text-anchor="middle" x="2683" y="-152.817" font-family="Helvetica,sans-Serif" font-size="10.00">CParser::link_item</text>
</a>
</g>
</g>
<!-- Node9&#45;&gt;Node10 -->
<g id="edge9" class="edge"><title>Node9&#45;&gt;Node10</title>
<path fill="none" stroke="midnightblue" d="M2587.52,-153.495C2602.36,-153.781 2618.05,-154.084 2632.29,-154.358"/>
<polygon fill="midnightblue" stroke="midnightblue" points="2587.48,-149.993 2577.42,-153.3 2587.35,-156.992 2587.48,-149.993"/>
</g>
<!-- Node16 -->
<g id="node16" class="node"><title>Node16</title>
<g id="a_node16"><a xlink:href="../../d0/df6/classCParser.html#a85eb09132fa5a588749cea062f0d11ea" target="_top" xlink:title="CParser::class_block_item">
<polygon fill="white" stroke="black" points="2613,-78.8172 2613,-97.8172 2753,-97.8172 2753,-78.8172 2613,-78.8172"/>
<text text-anchor="middle" x="2683" y="-85.8172" font-family="Helvetica,sans-Serif" font-size="10.00">CParser::class_block_item</text>
</a>
</g>
</g>
<!-- Node9&#45;&gt;Node16 -->
<g id="edge17" class="edge"><title>Node9&#45;&gt;Node16</title>
<path fill="none" stroke="midnightblue" d="M2572.3,-133.465C2600.73,-121.767 2636.04,-107.232 2658.8,-97.8668"/>
<polygon fill="midnightblue" stroke="midnightblue" points="2570.87,-130.269 2562.96,-137.312 2573.54,-136.743 2570.87,-130.269"/>
</g>
<!-- Node11 -->
<g id="node11" class="node"><title>Node11</title>
<g id="a_node11"><a xlink:href="../../d0/df6/classCParser.html#a4f02da23566af37123efb3768769c09b" target="_top" xlink:title="CParser::start">
<polygon fill="white" stroke="black" points="2813.5,-192.817 2813.5,-211.817 2894.5,-211.817 2894.5,-192.817 2813.5,-192.817"/>
<text text-anchor="middle" x="2854" y="-199.817" font-family="Helvetica,sans-Serif" font-size="10.00">CParser::start</text>
</a>
</g>
</g>
<!-- Node10&#45;&gt;Node11 -->
<g id="edge10" class="edge"><title>Node10&#45;&gt;Node11</title>
<path fill="none" stroke="midnightblue" d="M2727.84,-167.509C2756.11,-175.372 2792.36,-185.452 2818.56,-192.74"/>
<polygon fill="midnightblue" stroke="midnightblue" points="2728.77,-164.136 2718.2,-164.828 2726.9,-170.88 2728.77,-164.136"/>
</g>
<!-- Node14 -->
<g id="node14" class="node"><title>Node14</title>
<g id="a_node14"><a xlink:href="../../d0/df6/classCParser.html#a86906e492ff9c606fb3537078f46f93e" target="_top" xlink:title="CParser::extern_linkage\l_block">
<polygon fill="white" stroke="black" points="2789,-143.317 2789,-173.317 2919,-173.317 2919,-143.317 2789,-143.317"/>
<text text-anchor="start" x="2797" y="-161.317" font-family="Helvetica,sans-Serif" font-size="10.00">CParser::extern_linkage</text>
<text text-anchor="middle" x="2854" y="-150.317" font-family="Helvetica,sans-Serif" font-size="10.00">_block</text>
</a>
</g>
</g>
<!-- Node10&#45;&gt;Node14 -->
<g id="edge13" class="edge"><title>Node10&#45;&gt;Node14</title>
<path fill="none" stroke="midnightblue" d="M2744.13,-149.891C2758.62,-149.835 2774.15,-150.085 2788.81,-150.604"/>
<polygon fill="midnightblue" stroke="midnightblue" points="2743.76,-146.394 2733.79,-149.985 2743.82,-153.393 2743.76,-146.394"/>
</g>
<!-- Node15 -->
<g id="node15" class="node"><title>Node15</title>
<g id="a_node15"><a xlink:href="../../d0/df6/classCParser.html#a4fad913a0694a5376ad76669d8943122" target="_top" xlink:title="CParser::namespace\l_block">
<polygon fill="white" stroke="black" points="2796.5,-94.3172 2796.5,-124.317 2911.5,-124.317 2911.5,-94.3172 2796.5,-94.3172"/>
<text text-anchor="start" x="2804.5" y="-112.317" font-family="Helvetica,sans-Serif" font-size="10.00">CParser::namespace</text>
<text text-anchor="middle" x="2854" y="-101.317" font-family="Helvetica,sans-Serif" font-size="10.00">_block</text>
</a>
</g>
</g>
<!-- Node10&#45;&gt;Node15 -->
<g id="edge15" class="edge"><title>Node10&#45;&gt;Node15</title>
<path fill="none" stroke="midnightblue" d="M2712.47,-142.363C2735.31,-134.637 2768.08,-125.312 2796.24,-118.351"/>
<polygon fill="midnightblue" stroke="midnightblue" points="2711.01,-139.169 2702.73,-145.786 2713.33,-145.773 2711.01,-139.169"/>
</g>
<!-- Node12 -->
<g id="node12" class="node"><title>Node12</title>
<g id="a_node12"><a xlink:href="../../db/d4a/classMain.html#a803470658c644fa9512140f9d8398dd5" target="_top" xlink:title="Main::ParseFiles">
<polygon fill="white" stroke="black" points="2965,-192.817 2965,-211.817 3059,-211.817 3059,-192.817 2965,-192.817"/>
<text text-anchor="middle" x="3012" y="-199.817" font-family="Helvetica,sans-Serif" font-size="10.00">Main::ParseFiles</text>
</a>
</g>
</g>
<!-- Node11&#45;&gt;Node12 -->
<g id="edge11" class="edge"><title>Node11&#45;&gt;Node12</title>
<path fill="none" stroke="midnightblue" d="M2904.87,-202.317C2924.14,-202.317 2946.05,-202.317 2964.94,-202.317"/>
<polygon fill="midnightblue" stroke="midnightblue" points="2904.77,-198.817 2894.77,-202.317 2904.77,-205.817 2904.77,-198.817"/>
</g>
<!-- Node13 -->
<g id="node13" class="node"><title>Node13</title>
<g id="a_node13"><a xlink:href="../../d6/d93/ccccmain_8cc.html#a3c04138a5bfe5d72780bb7e82a18e627" target="_top" xlink:title="main">
<polygon fill="white" stroke="black" points="3142.5,-192.817 3142.5,-211.817 3181.5,-211.817 3181.5,-192.817 3142.5,-192.817"/>
<text text-anchor="middle" x="3162" y="-199.817" font-family="Helvetica,sans-Serif" font-size="10.00">main</text>
</a>
</g>
</g>
<!-- Node12&#45;&gt;Node13 -->
<g id="edge12" class="edge"><title>Node12&#45;&gt;Node13</title>
<path fill="none" stroke="midnightblue" d="M3069.15,-202.317C3095.09,-202.317 3124.14,-202.317 3142.49,-202.317"/>
<polygon fill="midnightblue" stroke="midnightblue" points="3069.02,-198.817 3059.02,-202.317 3069.02,-205.817 3069.02,-198.817"/>
</g>
<!-- Node14&#45;&gt;Node10 -->
<g id="edge14" class="edge"><title>Node14&#45;&gt;Node10</title>
<path fill="none" stroke="midnightblue" d="M2778.45,-163.702C2763.34,-163.561 2747.79,-163.121 2733.79,-162.417"/>
<polygon fill="midnightblue" stroke="midnightblue" points="2778.8,-167.204 2788.81,-163.751 2778.83,-160.204 2778.8,-167.204"/>
</g>
<!-- Node15&#45;&gt;Node10 -->
<g id="edge16" class="edge"><title>Node15&#45;&gt;Node10</title>
<path fill="none" stroke="midnightblue" d="M2808.46,-127.468C2785.51,-134.61 2757.45,-142.309 2733.79,-147.981"/>
<polygon fill="midnightblue" stroke="midnightblue" points="2809.82,-130.711 2818.28,-124.343 2807.69,-124.04 2809.82,-130.711"/>
</g>
<!-- Node17 -->
<g id="node17" class="node"><title>Node17</title>
<g id="a_node17"><a xlink:href="../../d0/df6/classCParser.html#a4b9f00c05d44a13b3c18b28b52f5be9e" target="_top" xlink:title="CParser::class_block\l_item_list">
<polygon fill="white" stroke="black" points="2797,-45.3172 2797,-75.3172 2911,-75.3172 2911,-45.3172 2797,-45.3172"/>
<text text-anchor="start" x="2805" y="-63.3172" font-family="Helvetica,sans-Serif" font-size="10.00">CParser::class_block</text>
<text text-anchor="middle" x="2854" y="-52.3172" font-family="Helvetica,sans-Serif" font-size="10.00">_item_list</text>
</a>
</g>
</g>
<!-- Node16&#45;&gt;Node17 -->
<g id="edge18" class="edge"><title>Node16&#45;&gt;Node17</title>
<path fill="none" stroke="midnightblue" d="M2751.85,-77.0751C2766.74,-74.6088 2782.34,-72.0236 2796.72,-69.6423"/>
<polygon fill="midnightblue" stroke="midnightblue" points="2750.98,-73.672 2741.69,-78.7595 2752.13,-80.5778 2750.98,-73.672"/>
</g>
<!-- Node18 -->
<g id="node18" class="node"><title>Node18</title>
<g id="a_node18"><a xlink:href="../../d0/df6/classCParser.html#a06c7cac9034f27ad6d998b49a7b574c8" target="_top" xlink:title="CParser::class_block">
<polygon fill="white" stroke="black" points="2955,-50.8172 2955,-69.8172 3069,-69.8172 3069,-50.8172 2955,-50.8172"/>
<text text-anchor="middle" x="3012" y="-57.8172" font-family="Helvetica,sans-Serif" font-size="10.00">CParser::class_block</text>
</a>
</g>
</g>
<!-- Node17&#45;&gt;Node18 -->
<g id="edge19" class="edge"><title>Node17&#45;&gt;Node18</title>
<path fill="none" stroke="midnightblue" d="M2921.4,-60.3172C2932.51,-60.3172 2943.94,-60.3172 2954.76,-60.3172"/>
<polygon fill="midnightblue" stroke="midnightblue" points="2921.32,-56.8173 2911.32,-60.3172 2921.32,-63.8173 2921.32,-56.8173"/>
</g>
<!-- Node19 -->
<g id="node19" class="node"><title>Node19</title>
<g id="a_node19"><a xlink:href="../../d0/df6/classCParser.html#a40fba8426e7ac46e9926515ee81e97f3" target="_top" xlink:title="CParser::class_suffix">
<polygon fill="white" stroke="black" points="3105,-50.8172 3105,-69.8172 3219,-69.8172 3219,-50.8172 3105,-50.8172"/>
<text text-anchor="middle" x="3162" y="-57.8172" font-family="Helvetica,sans-Serif" font-size="10.00">CParser::class_suffix</text>
</a>
</g>
</g>
<!-- Node18&#45;&gt;Node19 -->
<g id="edge20" class="edge"><title>Node18&#45;&gt;Node19</title>
<path fill="none" stroke="midnightblue" d="M3079.56,-60.3172C3087.98,-60.3172 3096.54,-60.3172 3104.78,-60.3172"/>
<polygon fill="midnightblue" stroke="midnightblue" points="3079.37,-56.8173 3069.37,-60.3172 3079.37,-63.8173 3079.37,-56.8173"/>
</g>
<!-- Node20 -->
<g id="node20" class="node"><title>Node20</title>
<g id="a_node20"><a xlink:href="../../d0/df6/classCParser.html#a1ed5fcfb2e97e3551fceabe81989a667" target="_top" xlink:title="CParser::class_declaration\l_or_definition">
<polygon fill="white" stroke="black" points="3255,-45.3172 3255,-75.3172 3398,-75.3172 3398,-45.3172 3255,-45.3172"/>
<text text-anchor="start" x="3263" y="-63.3172" font-family="Helvetica,sans-Serif" font-size="10.00">CParser::class_declaration</text>
<text text-anchor="middle" x="3326.5" y="-52.3172" font-family="Helvetica,sans-Serif" font-size="10.00">_or_definition</text>
</a>
</g>
</g>
<!-- Node19&#45;&gt;Node20 -->
<g id="edge21" class="edge"><title>Node19&#45;&gt;Node20</title>
<path fill="none" stroke="midnightblue" d="M3229.47,-60.3172C3237.86,-60.3172 3246.46,-60.3172 3254.91,-60.3172"/>
<polygon fill="midnightblue" stroke="midnightblue" points="3229.38,-56.8173 3219.38,-60.3172 3229.38,-63.8173 3229.38,-56.8173"/>
</g>
<!-- Node20&#45;&gt;Node9 -->
<g id="edge22" class="edge"><title>Node20&#45;&gt;Node9</title>
<path fill="none" stroke="midnightblue" d="M3248.36,-43.3317C3185.37,-30.9446 3093.87,-16.3172 3013,-16.3172 2853,-16.3172 2853,-16.3172 2853,-16.3172 2743.76,-16.3172 2709.33,-17.8066 2613,-69.3172 2581.25,-86.2957 2552.91,-118.231 2537.87,-137.155"/>
<polygon fill="midnightblue" stroke="midnightblue" points="3247.73,-46.7744 3258.22,-45.298 3249.1,-39.9096 3247.73,-46.7744"/>
</g>
<!-- Node20&#45;&gt;Node21 -->
<g id="edge23" class="edge"><title>Node20&#45;&gt;Node21</title>
<path fill="none" stroke="midnightblue" d="M3349.4,-82.7127C3385.77,-119.915 3457.71,-193.49 3488.72,-225.196"/>
<polygon fill="midnightblue" stroke="midnightblue" points="3351.7,-80.0575 3342.2,-75.3543 3346.69,-84.9513 3351.7,-80.0575"/>
</g>
<!-- Node22&#45;&gt;Node9 -->
<g id="edge25" class="edge"><title>Node22&#45;&gt;Node9</title>
<path fill="none" stroke="midnightblue" d="M2410.83,-215.754C2420.04,-212.253 2429.38,-208.399 2438,-204.317 2460.65,-193.596 2484.98,-178.627 2502.06,-167.501"/>
<polygon fill="midnightblue" stroke="midnightblue" points="2409.49,-212.519 2401.32,-219.268 2411.91,-219.086 2409.49,-212.519"/>
</g>
<!-- Node22&#45;&gt;Node21 -->
<g id="edge26" class="edge"><title>Node22&#45;&gt;Node21</title>
<path fill="none" stroke="midnightblue" d="M2448.57,-236.962C2514.09,-238.571 2603.34,-240.317 2682,-240.317 2682,-240.317 2682,-240.317 3163,-240.317 3256.7,-240.317 3364.9,-240.317 3433.72,-240.317"/>
<polygon fill="midnightblue" stroke="midnightblue" points="2448.34,-233.456 2438.26,-236.706 2448.17,-240.454 2448.34,-233.456"/>
</g>
<!-- Node24 -->
<g id="node24" class="node"><title>Node24</title>
<g id="a_node24"><a xlink:href="../../d0/df6/classCParser.html#a7042164da94c48da4e577a2bf0af04c4" target="_top" xlink:title="CParser::fptr_typedef\l_definition">
<polygon fill="white" stroke="black" points="1043.5,-50.3172 1043.5,-80.3172 1160.5,-80.3172 1160.5,-50.3172 1043.5,-50.3172"/>
<text text-anchor="start" x="1051.5" y="-68.3172" font-family="Helvetica,sans-Serif" font-size="10.00">CParser::fptr_typedef</text>
<text text-anchor="middle" x="1102" y="-57.3172" font-family="Helvetica,sans-Serif" font-size="10.00">_definition</text>
</a>
</g>
</g>
<!-- Node23&#45;&gt;Node24 -->
<g id="edge29" class="edge"><title>Node23&#45;&gt;Node24</title>
<path fill="none" stroke="midnightblue" d="M1003.94,-69.0146C1016.85,-68.5228 1030.46,-68.0046 1043.26,-67.5168"/>
<polygon fill="midnightblue" stroke="midnightblue" points="1003.63,-65.524 993.767,-69.4023 1003.89,-72.519 1003.63,-65.524"/>
</g>
<!-- Node25 -->
<g id="node25" class="node"><title>Node25</title>
<g id="a_node25"><a xlink:href="../../d0/df6/classCParser.html#a8c598aa662fff7e10be2ee78e078935a" target="_top" xlink:title="CParser::typedef_definition">
<polygon fill="white" stroke="black" points="1721,-79.8172 1721,-98.8172 1865,-98.8172 1865,-79.8172 1721,-79.8172"/>
<text text-anchor="middle" x="1793" y="-86.8172" font-family="Helvetica,sans-Serif" font-size="10.00">CParser::typedef_definition</text>
</a>
</g>
</g>
<!-- Node24&#45;&gt;Node25 -->
<g id="edge30" class="edge"><title>Node24&#45;&gt;Node25</title>
<path fill="none" stroke="midnightblue" d="M1171.01,-66.8671C1279.66,-69.468 1499.11,-75.2319 1685,-83.3172 1696.62,-83.8225 1708.94,-84.4387 1720.93,-85.0815"/>
<polygon fill="midnightblue" stroke="midnightblue" points="1170.92,-63.3642 1160.84,-66.6253 1170.76,-70.3623 1170.92,-63.3642"/>
</g>
<!-- Node25&#45;&gt;Node9 -->
<g id="edge31" class="edge"><title>Node25&#45;&gt;Node9</title>
<path fill="none" stroke="midnightblue" d="M1875.22,-93.2906C1997.57,-99.7738 2236.29,-114.363 2438,-138.317 2449.63,-139.699 2462.09,-141.516 2473.83,-143.381"/>
<polygon fill="midnightblue" stroke="midnightblue" points="1875.36,-89.7927 1865.19,-92.763 1874.99,-96.7831 1875.36,-89.7927"/>
</g>
<!-- Node27 -->
<g id="node27" class="node"><title>Node27</title>
<g id="a_node27"><a xlink:href="../../d0/df6/classCParser.html#a9104801570f44810a98b9f3a5a76c06c" target="_top" xlink:title="CParser::instance_item">
<polygon fill="white" stroke="black" points="1209,-143.817 1209,-162.817 1334,-162.817 1334,-143.817 1209,-143.817"/>
<text text-anchor="middle" x="1271.5" y="-150.817" font-family="Helvetica,sans-Serif" font-size="10.00">CParser::instance_item</text>
</a>
</g>
</g>
<!-- Node26&#45;&gt;Node27 -->
<g id="edge33" class="edge"><title>Node26&#45;&gt;Node27</title>
<path fill="none" stroke="midnightblue" d="M1015.24,-186.719C1058.2,-183.564 1113.85,-178.775 1163,-172.317 1182.35,-169.774 1203.54,-166.202 1221.94,-162.84"/>
<polygon fill="midnightblue" stroke="midnightblue" points="1014.88,-183.236 1005.16,-187.446 1015.38,-190.217 1014.88,-183.236"/>
</g>
<!-- Node28 -->
<g id="node28" class="node"><title>Node28</title>
<g id="a_node28"><a xlink:href="../../d0/df6/classCParser.html#a6331346ed010ab6c734d29daeb5d896f" target="_top" xlink:title="CParser::instance_declaration">
<polygon fill="white" stroke="black" points="1380,-142.817 1380,-161.817 1538,-161.817 1538,-142.817 1380,-142.817"/>
<text text-anchor="middle" x="1459" y="-149.817" font-family="Helvetica,sans-Serif" font-size="10.00">CParser::instance_declaration</text>
</a>
</g>
</g>
<!-- Node27&#45;&gt;Node28 -->
<g id="edge34" class="edge"><title>Node27&#45;&gt;Node28</title>
<path fill="none" stroke="midnightblue" d="M1344.14,-152.931C1355.82,-152.868 1367.97,-152.803 1379.81,-152.739"/>
<polygon fill="midnightblue" stroke="midnightblue" points="1343.99,-149.432 1334.01,-152.986 1344.03,-156.432 1343.99,-149.432"/>
</g>
<!-- Node30 -->
<g id="node30" class="node"><title>Node30</title>
<g id="a_node30"><a xlink:href="../../d0/df6/classCParser.html#a70d42f7013f81c71092f771ff9232941" target="_top" xlink:title="CParser::ctor_init_item">
<polygon fill="white" stroke="black" points="1397.5,-183.817 1397.5,-202.817 1520.5,-202.817 1520.5,-183.817 1397.5,-183.817"/>
<text text-anchor="middle" x="1459" y="-190.817" font-family="Helvetica,sans-Serif" font-size="10.00">CParser::ctor_init_item</text>
</a>
</g>
</g>
<!-- Node27&#45;&gt;Node30 -->
<g id="edge37" class="edge"><title>Node27&#45;&gt;Node30</title>
<path fill="none" stroke="midnightblue" d="M1326.87,-165.04C1354.58,-171.016 1387.84,-178.188 1413.93,-183.814"/>
<polygon fill="midnightblue" stroke="midnightblue" points="1327.44,-161.585 1316.93,-162.898 1325.97,-168.428 1327.44,-161.585"/>
</g>
<!-- Node28&#45;&gt;Node9 -->
<g id="edge35" class="edge"><title>Node28&#45;&gt;Node9</title>
<path fill="none" stroke="midnightblue" d="M1548.23,-152.317C1615.13,-152.317 1709.35,-152.317 1792,-152.317 1792,-152.317 1792,-152.317 2148,-152.317 2264.68,-152.317 2401.69,-152.317 2473.95,-152.317"/>
<polygon fill="midnightblue" stroke="midnightblue" points="1548.15,-148.817 1538.15,-152.317 1548.15,-155.817 1548.15,-148.817"/>
</g>
<!-- Node29 -->
<g id="node29" class="node"><title>Node29</title>
<g id="a_node29"><a xlink:href="../../d0/df6/classCParser.html#a4e7cf3c3b19f9c664f345a10116c2c2c" target="_top" xlink:title="CParser::knr_param\l_decl_list">
<polygon fill="white" stroke="black" points="1574,-93.3172 1574,-123.317 1685,-123.317 1685,-93.3172 1574,-93.3172"/>
<text text-anchor="start" x="1582" y="-111.317" font-family="Helvetica,sans-Serif" font-size="10.00">CParser::knr_param</text>
<text text-anchor="middle" x="1629.5" y="-100.317" font-family="Helvetica,sans-Serif" font-size="10.00">_decl_list</text>
</a>
</g>
</g>
<!-- Node28&#45;&gt;Node29 -->
<g id="edge36" class="edge"><title>Node28&#45;&gt;Node29</title>
<path fill="none" stroke="midnightblue" d="M1506.45,-140.188C1527.29,-134.746 1552.02,-128.288 1573.75,-122.613"/>
<polygon fill="midnightblue" stroke="midnightblue" points="1505.35,-136.857 1496.56,-142.77 1507.12,-143.63 1505.35,-136.857"/>
</g>
<!-- Node31 -->
<g id="node31" class="node"><title>Node31</title>
<g id="a_node31"><a xlink:href="../../d0/df6/classCParser.html#a617e49ab4458d5b4adf577a6a0bc05cd" target="_top" xlink:title="CParser::ctor_init\l_item_list">
<polygon fill="white" stroke="black" points="1580.5,-181.317 1580.5,-211.317 1678.5,-211.317 1678.5,-181.317 1580.5,-181.317"/>
<text text-anchor="start" x="1588.5" y="-199.317" font-family="Helvetica,sans-Serif" font-size="10.00">CParser::ctor_init</text>
<text text-anchor="middle" x="1629.5" y="-188.317" font-family="Helvetica,sans-Serif" font-size="10.00">_item_list</text>
</a>
</g>
</g>
<!-- Node30&#45;&gt;Node31 -->
<g id="edge38" class="edge"><title>Node30&#45;&gt;Node31</title>
<path fill="none" stroke="midnightblue" d="M1531.08,-194.583C1547.73,-194.879 1565.07,-195.188 1580.44,-195.462"/>
<polygon fill="midnightblue" stroke="midnightblue" points="1530.89,-191.079 1520.83,-194.4 1530.77,-198.078 1530.89,-191.079"/>
</g>
<!-- Node32 -->
<g id="node32" class="node"><title>Node32</title>
<g id="a_node32"><a xlink:href="../../d0/df6/classCParser.html#ab6c0eabf2b00874bf8f70b576d96ce52" target="_top" xlink:title="CParser::ctor_init_list">
<polygon fill="white" stroke="black" points="1735,-187.817 1735,-206.817 1851,-206.817 1851,-187.817 1735,-187.817"/>
<text text-anchor="middle" x="1793" y="-194.817" font-family="Helvetica,sans-Serif" font-size="10.00">CParser::ctor_init_list</text>
</a>
</g>
</g>
<!-- Node31&#45;&gt;Node32 -->
<g id="edge39" class="edge"><title>Node31&#45;&gt;Node32</title>
<path fill="none" stroke="midnightblue" d="M1688.69,-196.678C1703.69,-196.77 1719.82,-196.87 1734.76,-196.963"/>
<polygon fill="midnightblue" stroke="midnightblue" points="1688.54,-193.177 1678.52,-196.615 1688.5,-200.176 1688.54,-193.177"/>
</g>
<!-- Node33 -->
<g id="node33" class="node"><title>Node33</title>
<g id="a_node33"><a xlink:href="../../d0/df6/classCParser.html#ad7a6fd3a8b7daa3c26191f4512236a59" target="_top" xlink:title="CParser::method_suffix">
<polygon fill="white" stroke="black" points="1901,-189.817 1901,-208.817 2026,-208.817 2026,-189.817 1901,-189.817"/>
<text text-anchor="middle" x="1963.5" y="-196.817" font-family="Helvetica,sans-Serif" font-size="10.00">CParser::method_suffix</text>
</a>
</g>
</g>
<!-- Node32&#45;&gt;Node33 -->
<g id="edge40" class="edge"><title>Node32&#45;&gt;Node33</title>
<path fill="none" stroke="midnightblue" d="M1861.37,-198.117C1874.42,-198.272 1888.04,-198.433 1900.89,-198.586"/>
<polygon fill="midnightblue" stroke="midnightblue" points="1861.09,-194.613 1851.05,-197.994 1861,-201.613 1861.09,-194.613"/>
</g>
<!-- Node33&#45;&gt;Node8 -->
<g id="edge41" class="edge"><title>Node33&#45;&gt;Node8</title>
<path fill="none" stroke="midnightblue" d="M2024.12,-210.814C2038.2,-213.529 2053.41,-216.462 2068.16,-219.306"/>
<polygon fill="midnightblue" stroke="midnightblue" points="2024.58,-207.338 2014.1,-208.881 2023.25,-214.211 2024.58,-207.338"/>
</g>
<!-- Node35 -->
<g id="node35" class="node"><title>Node35</title>
<g id="a_node35"><a xlink:href="../../d0/df6/classCParser.html#a545c65918de48a33554b6fa86bf7bee4" target="_top" xlink:title="CParser::init_expr">
<polygon fill="white" stroke="black" points="892,-143.817 892,-162.817 993,-162.817 993,-143.817 892,-143.817"/>
<text text-anchor="middle" x="942.5" y="-150.817" font-family="Helvetica,sans-Serif" font-size="10.00">CParser::init_expr</text>
</a>
</g>
</g>
<!-- Node34&#45;&gt;Node35 -->
<g id="edge43" class="edge"><title>Node34&#45;&gt;Node35</title>
<path fill="none" stroke="midnightblue" d="M854.248,-153.317C866.971,-153.317 879.952,-153.317 891.879,-153.317"/>
<polygon fill="midnightblue" stroke="midnightblue" points="854.124,-149.817 844.124,-153.317 854.124,-156.817 854.124,-149.817"/>
</g>
<!-- Node36 -->
<g id="node36" class="node"><title>Node36</title>
<g id="a_node36"><a xlink:href="../../d0/df6/classCParser.html#aa7fd7f7807fc630d9020e84dbb3445e0" target="_top" xlink:title="CParser::opt_initializer">
<polygon fill="white" stroke="black" points="1041,-143.817 1041,-162.817 1163,-162.817 1163,-143.817 1041,-143.817"/>
<text text-anchor="middle" x="1102" y="-150.817" font-family="Helvetica,sans-Serif" font-size="10.00">CParser::opt_initializer</text>
</a>
</g>
</g>
<!-- Node35&#45;&gt;Node36 -->
<g id="edge44" class="edge"><title>Node35&#45;&gt;Node36</title>
<path fill="none" stroke="midnightblue" d="M1003.42,-153.317C1015.64,-153.317 1028.5,-153.317 1040.73,-153.317"/>
<polygon fill="midnightblue" stroke="midnightblue" points="1003.33,-149.817 993.334,-153.317 1003.33,-156.817 1003.33,-149.817"/>
</g>
<!-- Node36&#45;&gt;Node27 -->
<g id="edge45" class="edge"><title>Node36&#45;&gt;Node27</title>
<path fill="none" stroke="midnightblue" d="M1173.67,-153.317C1185.41,-153.317 1197.5,-153.317 1208.99,-153.317"/>
<polygon fill="midnightblue" stroke="midnightblue" points="1173.47,-149.817 1163.47,-153.317 1173.47,-156.817 1173.47,-149.817"/>
</g>
<!-- Node38&#45;&gt;Node3 -->
<g id="edge48" class="edge"><title>Node38&#45;&gt;Node3</title>
<path fill="none" stroke="midnightblue" d="M728.637,-39.3172C639.779,-39.3172 458.424,-39.3172 370.099,-39.3172"/>
<polygon fill="midnightblue" stroke="midnightblue" points="728.745,-42.8173 738.745,-39.3172 728.745,-35.8173 728.745,-42.8173"/>
</g>
<!-- Node39&#45;&gt;Node38 -->
<g id="edge50" class="edge"><title>Node39&#45;&gt;Node38</title>
<path fill="none" stroke="midnightblue" d="M691.201,-50.1325C707.432,-48.1557 724.299,-46.1013 738.917,-44.3209"/>
<polygon fill="midnightblue" stroke="midnightblue" points="690.706,-46.6668 681.203,-51.3502 691.553,-53.6154 690.706,-46.6668"/>
</g>
<!-- Node40 -->
<g id="node40" class="node"><title>Node40</title>
<g id="a_node40"><a xlink:href="../../d0/df6/classCParser.html#a42ff2d36ecac90dd1cf7ac0a3a5862f1" target="_top" xlink:title="CParser::brack_list">
<polygon fill="white" stroke="black" points="1050,-102.817 1050,-121.817 1154,-121.817 1154,-102.817 1050,-102.817"/>
<text text-anchor="middle" x="1102" y="-109.817" font-family="Helvetica,sans-Serif" font-size="10.00">CParser::brack_list</text>
</a>
</g>
</g>
<!-- Node39&#45;&gt;Node40 -->
<g id="edge51" class="edge"><title>Node39&#45;&gt;Node40</title>
<path fill="none" stroke="midnightblue" d="M650.918,-44.2002C669.266,-35.399 694.419,-24.9033 718,-20.3172 843.722,4.13358 893.657,16.9819 1005,-46.3172 1026.67,-58.6355 1020.71,-74.8369 1041,-89.3172 1048.81,-94.891 1058.14,-99.3155 1067.09,-102.734"/>
<polygon fill="midnightblue" stroke="midnightblue" points="649.15,-41.1702 641.734,-48.7372 652.25,-47.4462 649.15,-41.1702"/>
</g>
<!-- Node40&#45;&gt;Node27 -->
<g id="edge52" class="edge"><title>Node40&#45;&gt;Node27</title>
<path fill="none" stroke="midnightblue" d="M1151.66,-124.229C1177.08,-130.45 1207.75,-137.958 1231.57,-143.789"/>
<polygon fill="midnightblue" stroke="midnightblue" points="1152.39,-120.805 1141.85,-121.826 1150.73,-127.604 1152.39,-120.805"/>
</g>
</g>
</svg>
        <g id="navigator" transform="translate(0 0)" fill="#404254">
                <rect fill="#f2f5e9" fill-opacity="0.5" stroke="#606060" stroke-width=".5" x="0" y="0" width="60" height="60"/>
                <use id="zoomplus" xlink:href="#zoomPlus" x="17" y="9" onmousedown="handleZoom(evt,'in')"/>
                <use id="zoomminus" xlink:href="#zoomMin" x="42" y="9" onmousedown="handleZoom(evt,'out')"/>
                <use id="reset" xlink:href="#resetDef" x="30" y="36" onmousedown="handleReset()"/>
                <g id="arrowUp" xlink:href="#dirArrow" transform="translate(30 24)" onmousedown="handlePan(0,-1)">
                  <use xlink:href="#rim" fill="#404040">
                        <set attributeName="fill" to="#808080" begin="arrowUp.mouseover" end="arrowUp.mouseout"/>
                  </use>
                  <path fill="none" stroke="white" stroke-width="1.5" d="M0,-3.0v7 M-2.5,-0.5L0,-3.0L2.5,-0.5"/>
                </g>
                <g id="arrowRight" xlink:href="#dirArrow" transform="rotate(90) translate(36 -43)" onmousedown="handlePan(1,0)">
                  <use xlink:href="#rim" fill="#404040">
                        <set attributeName="fill" to="#808080" begin="arrowRight.mouseover" end="arrowRight.mouseout"/>
                  </use>
                  <path fill="none" stroke="white" stroke-width="1.5" d="M0,-3.0v7 M-2.5,-0.5L0,-3.0L2.5,-0.5"/>
                </g>
                <g id="arrowDown" xlink:href="#dirArrow" transform="rotate(180) translate(-30 -48)" onmousedown="handlePan(0,1)">
                  <use xlink:href="#rim" fill="#404040">
                        <set attributeName="fill" to="#808080" begin="arrowDown.mouseover" end="arrowDown.mouseout"/>
                  </use>
                  <path fill="none" stroke="white" stroke-width="1.5" d="M0,-3.0v7 M-2.5,-0.5L0,-3.0L2.5,-0.5"/>
                </g>
                <g id="arrowLeft" xlink:href="#dirArrow" transform="rotate(270) translate(-36 17)" onmousedown="handlePan(-1,0)">
                  <use xlink:href="#rim" fill="#404040">
                        <set attributeName="fill" to="#808080" begin="arrowLeft.mouseover" end="arrowLeft.mouseout"/>
                  </use>
                  <path fill="none" stroke="white" stroke-width="1.5" d="M0,-3.0v7 M-2.5,-0.5L0,-3.0L2.5,-0.5"/>
                </g>
        </g>
        <svg viewBox="0 0 15 15" width="100%" height="30px" preserveAspectRatio="xMaxYMin meet">
         <g id="arrow_out" transform="scale(0.3 0.3)">
          <a xlink:href="classCParser_a2406cf660d9f7e6c3be87b61b2ffba4b_icgraph_org.svg" target="_base">
           <rect id="button" ry="5" rx="5" y="6" x="6" height="38" width="38"
                fill="#f2f5e9" fill-opacity="0.5" stroke="#606060" stroke-width="1.0"/>
           <path id="arrow"
             d="M 11.500037,31.436501 C 11.940474,20.09759 22.043105,11.32322 32.158766,21.979434 L 37.068811,17.246167 C 37.068811,17.246167 37.088388,32 37.088388,32 L 22.160133,31.978069 C 22.160133,31.978069 26.997745,27.140456 26.997745,27.140456 C 18.528582,18.264221 13.291696,25.230495 11.500037,31.436501 z"
             style="fill:#404040;"/>
          </a>
         </g>
        </svg>
</svg>
