<?xml version="1.0" encoding="UTF-8" standalone="no"?>
<!DOCTYPE svg PUBLIC "-//W3C//DTD SVG 1.1//EN"
 "http://www.w3.org/Graphics/SVG/1.1/DTD/svg11.dtd">
<!-- Generated by graphviz version 2.38.0 (20140413.2041)
 -->
<!-- Title: CParser::linkage_qualifiers Pages: 1 -->
<svg width="658pt" height="127pt"
 viewBox="0.00 0.00 658.00 126.50" xmlns="http://www.w3.org/2000/svg" xmlns:xlink="http://www.w3.org/1999/xlink">
<g id="graph0" class="graph" transform="scale(1 1) rotate(0) translate(4 122.5)">
<title>CParser::linkage_qualifiers</title>
<polygon fill="white" stroke="none" points="-4,4 -4,-122.5 654,-122.5 654,4 -4,4"/>
<!-- Node1 -->
<g id="node1" class="node"><title>Node1</title>
<polygon fill="#bfbfbf" stroke="black" points="0,-55 0,-74 142,-74 142,-55 0,-55"/>
<text text-anchor="middle" x="71" y="-62" font-family="Helvetica,sans-Serif" font-size="10.00">CParser::linkage_qualifiers</text>
</g>
<!-- Node2 -->
<g id="node2" class="node"><title>Node2</title>
<g id="a_node2"><a xlink:href="../../d0/df6/classCParser.html#a2b78ab2005bef5c43ee2d4689210eab1" target="_top" xlink:title="CParser::link_item">
<polygon fill="white" stroke="black" points="178,-55 178,-74 279,-74 279,-55 178,-55"/>
<text text-anchor="middle" x="228.5" y="-62" font-family="Helvetica,sans-Serif" font-size="10.00">CParser::link_item</text>
</a>
</g>
</g>
<!-- Node1&#45;&gt;Node2 -->
<g id="edge1" class="edge"><title>Node1&#45;&gt;Node2</title>
<path fill="none" stroke="midnightblue" d="M152.253,-64.5C160.978,-64.5 169.662,-64.5 177.863,-64.5"/>
<polygon fill="midnightblue" stroke="midnightblue" points="152.017,-61.0001 142.017,-64.5 152.017,-68.0001 152.017,-61.0001"/>
</g>
<!-- Node3 -->
<g id="node3" class="node"><title>Node3</title>
<g id="a_node3"><a xlink:href="../../d0/df6/classCParser.html#a4f02da23566af37123efb3768769c09b" target="_top" xlink:title="CParser::start">
<polygon fill="white" stroke="black" points="339.5,-99 339.5,-118 420.5,-118 420.5,-99 339.5,-99"/>
<text text-anchor="middle" x="380" y="-106" font-family="Helvetica,sans-Serif" font-size="10.00">CParser::start</text>
</a>
</g>
</g>
<!-- Node2&#45;&gt;Node3 -->
<g id="edge2" class="edge"><title>Node2&#45;&gt;Node3</title>
<path fill="none" stroke="midnightblue" d="M271.75,-76.9347C295.504,-83.926 324.696,-92.5177 346.624,-98.9713"/>
<polygon fill="midnightblue" stroke="midnightblue" points="272.521,-73.5132 261.939,-74.0473 270.544,-80.2284 272.521,-73.5132"/>
</g>
<!-- Node6 -->
<g id="node6" class="node"><title>Node6</title>
<g id="a_node6"><a xlink:href="../../d0/df6/classCParser.html#a86906e492ff9c606fb3537078f46f93e" target="_top" xlink:title="CParser::extern_linkage\l_block">
<polygon fill="white" stroke="black" points="315,-49.5 315,-79.5 445,-79.5 445,-49.5 315,-49.5"/>
<text text-anchor="start" x="323" y="-67.5" font-family="Helvetica,sans-Serif" font-size="10.00">CParser::extern_linkage</text>
<text text-anchor="middle" x="380" y="-56.5" font-family="Helvetica,sans-Serif" font-size="10.00">_block</text>
</a>
</g>
</g>
<!-- Node2&#45;&gt;Node6 -->
<g id="edge5" class="edge"><title>Node2&#45;&gt;Node6</title>
<path fill="none" stroke="midnightblue" d="M289.341,-57.8708C297.718,-57.7334 306.355,-57.7132 314.809,-57.8102"/>
<polygon fill="midnightblue" stroke="midnightblue" points="289.2,-54.373 279.281,-58.0965 289.357,-61.3712 289.2,-54.373"/>
</g>
<!-- Node7 -->
<g id="node7" class="node"><title>Node7</title>
<g id="a_node7"><a xlink:href="../../d0/df6/classCParser.html#a4fad913a0694a5376ad76669d8943122" target="_top" xlink:title="CParser::namespace\l_block">
<polygon fill="white" stroke="black" points="322.5,-0.5 322.5,-30.5 437.5,-30.5 437.5,-0.5 322.5,-0.5"/>
<text text-anchor="start" x="330.5" y="-18.5" font-family="Helvetica,sans-Serif" font-size="10.00">CParser::namespace</text>
<text text-anchor="middle" x="380" y="-7.5" font-family="Helvetica,sans-Serif" font-size="10.00">_block</text>
</a>
</g>
</g>
<!-- Node2&#45;&gt;Node7 -->
<g id="edge7" class="edge"><title>Node2&#45;&gt;Node7</title>
<path fill="none" stroke="midnightblue" d="M254.947,-50.9359C273.406,-43.5201 299.105,-34.6478 322.327,-27.5036"/>
<polygon fill="midnightblue" stroke="midnightblue" points="253.375,-47.7995 245.499,-54.8858 256.075,-54.2579 253.375,-47.7995"/>
</g>
<!-- Node4 -->
<g id="node4" class="node"><title>Node4</title>
<g id="a_node4"><a xlink:href="../../db/d4a/classMain.html#a803470658c644fa9512140f9d8398dd5" target="_top" xlink:title="Main::ParseFiles">
<polygon fill="white" stroke="black" points="481,-99 481,-118 575,-118 575,-99 481,-99"/>
<text text-anchor="middle" x="528" y="-106" font-family="Helvetica,sans-Serif" font-size="10.00">Main::ParseFiles</text>
</a>
</g>
</g>
<!-- Node3&#45;&gt;Node4 -->
<g id="edge3" class="edge"><title>Node3&#45;&gt;Node4</title>
<path fill="none" stroke="midnightblue" d="M430.893,-108.5C447.125,-108.5 465.056,-108.5 480.99,-108.5"/>
<polygon fill="midnightblue" stroke="midnightblue" points="430.51,-105 420.51,-108.5 430.51,-112 430.51,-105"/>
</g>
<!-- Node5 -->
<g id="node5" class="node"><title>Node5</title>
<g id="a_node5"><a xlink:href="../../d6/d93/ccccmain_8cc.html#a3c04138a5bfe5d72780bb7e82a18e627" target="_top" xlink:title="main">
<polygon fill="white" stroke="black" points="611,-99 611,-118 650,-118 650,-99 611,-99"/>
<text text-anchor="middle" x="630.5" y="-106" font-family="Helvetica,sans-Serif" font-size="10.00">main</text>
</a>
</g>
</g>
<!-- Node4&#45;&gt;Node5 -->
<g id="edge4" class="edge"><title>Node4&#45;&gt;Node5</title>
<path fill="none" stroke="midnightblue" d="M585.179,-108.5C594.395,-108.5 603.342,-108.5 610.755,-108.5"/>
<polygon fill="midnightblue" stroke="midnightblue" points="585.132,-105 575.132,-108.5 585.132,-112 585.132,-105"/>
</g>
<!-- Node6&#45;&gt;Node2 -->
<g id="edge6" class="edge"><title>Node6&#45;&gt;Node2</title>
<path fill="none" stroke="midnightblue" d="M304.717,-71.2499C296.094,-71.2542 287.462,-71.1388 279.281,-70.9035"/>
<polygon fill="midnightblue" stroke="midnightblue" points="304.83,-74.7494 314.809,-71.1898 304.788,-67.7495 304.83,-74.7494"/>
</g>
<!-- Node7&#45;&gt;Node2 -->
<g id="edge8" class="edge"><title>Node7&#45;&gt;Node2</title>
<path fill="none" stroke="midnightblue" d="M340.334,-34.1691C321.326,-41.2603 298.222,-48.9563 278.038,-54.9579"/>
<polygon fill="midnightblue" stroke="midnightblue" points="341.771,-37.3668 349.863,-30.5281 339.272,-30.8278 341.771,-37.3668"/>
</g>
</g>
</svg>
