<?xml version="1.0" encoding="UTF-8" standalone="no"?>
<!DOCTYPE svg PUBLIC "-//W3C//DTD SVG 1.1//EN"
 "http://www.w3.org/Graphics/SVG/1.1/DTD/svg11.dtd">
<!-- Generated by graphviz version 2.38.0 (20140413.2041)
 -->
<!-- Title: CParser::inheritance_item Pages: 1 -->
<svg width="1535pt" height="204pt"
 viewBox="0.00 0.00 1535.00 204.00" xmlns="http://www.w3.org/2000/svg" xmlns:xlink="http://www.w3.org/1999/xlink">
<g id="graph0" class="graph" transform="scale(1 1) rotate(0) translate(4 200)">
<title>CParser::inheritance_item</title>
<polygon fill="white" stroke="none" points="-4,4 -4,-200 1531,-200 1531,4 -4,4"/>
<!-- Node1 -->
<g id="node1" class="node"><title>Node1</title>
<polygon fill="#bfbfbf" stroke="black" points="0,-12.5 0,-31.5 138,-31.5 138,-12.5 0,-12.5"/>
<text text-anchor="middle" x="69" y="-19.5" font-family="Helvetica,sans-Serif" font-size="10.00">CParser::inheritance_item</text>
</g>
<!-- Node2 -->
<g id="node2" class="node"><title>Node2</title>
<g id="a_node2"><a xlink:href="../../d0/df6/classCParser.html#a5fc18448dadd6cb275480e1fa34e436b" target="_top" xlink:title="CParser::inheritance\l_item_list">
<polygon fill="white" stroke="black" points="174,-7 174,-37 287,-37 287,-7 174,-7"/>
<text text-anchor="start" x="182" y="-25" font-family="Helvetica,sans-Serif" font-size="10.00">CParser::inheritance</text>
<text text-anchor="middle" x="230.5" y="-14" font-family="Helvetica,sans-Serif" font-size="10.00">_item_list</text>
</a>
</g>
</g>
<!-- Node1&#45;&gt;Node2 -->
<g id="edge1" class="edge"><title>Node1&#45;&gt;Node2</title>
<path fill="none" stroke="midnightblue" d="M148.166,-22C156.767,-22 165.392,-22 173.641,-22"/>
<polygon fill="midnightblue" stroke="midnightblue" points="148.105,-18.5001 138.105,-22 148.105,-25.5001 148.105,-18.5001"/>
</g>
<!-- Node3 -->
<g id="node3" class="node"><title>Node3</title>
<g id="a_node3"><a xlink:href="../../d0/df6/classCParser.html#a304bbe29d48bf8d9415ad5d6280dcdf6" target="_top" xlink:title="CParser::inheritance_list">
<polygon fill="white" stroke="black" points="323,-12.5 323,-31.5 454,-31.5 454,-12.5 323,-12.5"/>
<text text-anchor="middle" x="388.5" y="-19.5" font-family="Helvetica,sans-Serif" font-size="10.00">CParser::inheritance_list</text>
</a>
</g>
</g>
<!-- Node2&#45;&gt;Node3 -->
<g id="edge2" class="edge"><title>Node2&#45;&gt;Node3</title>
<path fill="none" stroke="midnightblue" d="M297.536,-22C305.963,-22 314.58,-22 322.983,-22"/>
<polygon fill="midnightblue" stroke="midnightblue" points="297.379,-18.5001 287.379,-22 297.379,-25.5001 297.379,-18.5001"/>
</g>
<!-- Node4 -->
<g id="node4" class="node"><title>Node4</title>
<g id="a_node4"><a xlink:href="../../d0/df6/classCParser.html#a40fba8426e7ac46e9926515ee81e97f3" target="_top" xlink:title="CParser::class_suffix">
<polygon fill="white" stroke="black" points="490,-12.5 490,-31.5 604,-31.5 604,-12.5 490,-12.5"/>
<text text-anchor="middle" x="547" y="-19.5" font-family="Helvetica,sans-Serif" font-size="10.00">CParser::class_suffix</text>
</a>
</g>
</g>
<!-- Node3&#45;&gt;Node4 -->
<g id="edge3" class="edge"><title>Node3&#45;&gt;Node4</title>
<path fill="none" stroke="midnightblue" d="M464.081,-22C472.663,-22 481.304,-22 489.59,-22"/>
<polygon fill="midnightblue" stroke="midnightblue" points="464.058,-18.5001 454.058,-22 464.058,-25.5001 464.058,-18.5001"/>
</g>
<!-- Node5 -->
<g id="node5" class="node"><title>Node5</title>
<g id="a_node5"><a xlink:href="../../d0/df6/classCParser.html#a1ed5fcfb2e97e3551fceabe81989a667" target="_top" xlink:title="CParser::class_declaration\l_or_definition">
<polygon fill="white" stroke="black" points="640,-29 640,-59 783,-59 783,-29 640,-29"/>
<text text-anchor="start" x="648" y="-47" font-family="Helvetica,sans-Serif" font-size="10.00">CParser::class_declaration</text>
<text text-anchor="middle" x="711.5" y="-36" font-family="Helvetica,sans-Serif" font-size="10.00">_or_definition</text>
</a>
</g>
</g>
<!-- Node4&#45;&gt;Node5 -->
<g id="edge4" class="edge"><title>Node4&#45;&gt;Node5</title>
<path fill="none" stroke="midnightblue" d="M614.473,-30.9994C622.858,-32.1346 631.46,-33.2992 639.905,-34.4426"/>
<polygon fill="midnightblue" stroke="midnightblue" points="614.758,-27.5061 604.379,-29.6328 613.819,-34.4428 614.758,-27.5061"/>
</g>
<!-- Node6 -->
<g id="node6" class="node"><title>Node6</title>
<g id="a_node6"><a xlink:href="../../d0/df6/classCParser.html#ab3ab57ace628c2476dd8dfe5a96f9a15" target="_top" xlink:title="CParser::definition\l_or_declaration">
<polygon fill="white" stroke="black" points="838,-78 838,-108 941,-108 941,-78 838,-78"/>
<text text-anchor="start" x="846" y="-96" font-family="Helvetica,sans-Serif" font-size="10.00">CParser::definition</text>
<text text-anchor="middle" x="889.5" y="-85" font-family="Helvetica,sans-Serif" font-size="10.00">_or_declaration</text>
</a>
</g>
</g>
<!-- Node5&#45;&gt;Node6 -->
<g id="edge5" class="edge"><title>Node5&#45;&gt;Node6</title>
<path fill="none" stroke="midnightblue" d="M776.474,-61.811C796.639,-67.4252 818.627,-73.5468 837.741,-78.8683"/>
<polygon fill="midnightblue" stroke="midnightblue" points="777.314,-58.4118 766.742,-59.1014 775.437,-65.1554 777.314,-58.4118"/>
</g>
<!-- Node16 -->
<g id="node16" class="node"><title>Node16</title>
<g id="a_node16"><a xlink:href="../../d0/df6/classCParser.html#a12561a45dab96760d7ab45896681dd33" target="_top" xlink:title="CParser::class_or_method\l_declaration_or_definition">
<polygon fill="white" stroke="black" points="819,-29 819,-59 960,-59 960,-29 819,-29"/>
<text text-anchor="start" x="827" y="-47" font-family="Helvetica,sans-Serif" font-size="10.00">CParser::class_or_method</text>
<text text-anchor="middle" x="889.5" y="-36" font-family="Helvetica,sans-Serif" font-size="10.00">_declaration_or_definition</text>
</a>
</g>
</g>
<!-- Node5&#45;&gt;Node16 -->
<g id="edge18" class="edge"><title>Node5&#45;&gt;Node16</title>
<path fill="none" stroke="midnightblue" d="M793.08,-44C801.659,-44 810.333,-44 818.772,-44"/>
<polygon fill="midnightblue" stroke="midnightblue" points="793.072,-40.5001 783.072,-44 793.072,-47.5001 793.072,-40.5001"/>
</g>
<!-- Node7 -->
<g id="node7" class="node"><title>Node7</title>
<g id="a_node7"><a xlink:href="../../d0/df6/classCParser.html#a2b78ab2005bef5c43ee2d4689210eab1" target="_top" xlink:title="CParser::link_item">
<polygon fill="white" stroke="black" points="1015.5,-83.5 1015.5,-102.5 1116.5,-102.5 1116.5,-83.5 1015.5,-83.5"/>
<text text-anchor="middle" x="1066" y="-90.5" font-family="Helvetica,sans-Serif" font-size="10.00">CParser::link_item</text>
</a>
</g>
</g>
<!-- Node6&#45;&gt;Node7 -->
<g id="edge6" class="edge"><title>Node6&#45;&gt;Node7</title>
<path fill="none" stroke="midnightblue" d="M951.514,-93C972.444,-93 995.595,-93 1015.5,-93"/>
<polygon fill="midnightblue" stroke="midnightblue" points="951.442,-89.5001 941.442,-93 951.442,-96.5001 951.442,-89.5001"/>
</g>
<!-- Node13 -->
<g id="node13" class="node"><title>Node13</title>
<g id="a_node13"><a xlink:href="../../d0/df6/classCParser.html#a85eb09132fa5a588749cea062f0d11ea" target="_top" xlink:title="CParser::class_block_item">
<polygon fill="white" stroke="black" points="996,-39.5 996,-58.5 1136,-58.5 1136,-39.5 996,-39.5"/>
<text text-anchor="middle" x="1066" y="-46.5" font-family="Helvetica,sans-Serif" font-size="10.00">CParser::class_block_item</text>
</a>
</g>
</g>
<!-- Node6&#45;&gt;Node13 -->
<g id="edge14" class="edge"><title>Node6&#45;&gt;Node13</title>
<path fill="none" stroke="midnightblue" d="M951.315,-77.6656C976.598,-71.2904 1005.15,-64.0906 1027.32,-58.5014"/>
<polygon fill="midnightblue" stroke="midnightblue" points="950.282,-74.3163 941.442,-80.1551 951.994,-81.1038 950.282,-74.3163"/>
</g>
<!-- Node8 -->
<g id="node8" class="node"><title>Node8</title>
<g id="a_node8"><a xlink:href="../../d0/df6/classCParser.html#a4f02da23566af37123efb3768769c09b" target="_top" xlink:title="CParser::start">
<polygon fill="white" stroke="black" points="1196.5,-176.5 1196.5,-195.5 1277.5,-195.5 1277.5,-176.5 1196.5,-176.5"/>
<text text-anchor="middle" x="1237" y="-183.5" font-family="Helvetica,sans-Serif" font-size="10.00">CParser::start</text>
</a>
</g>
</g>
<!-- Node7&#45;&gt;Node8 -->
<g id="edge7" class="edge"><title>Node7&#45;&gt;Node8</title>
<path fill="none" stroke="midnightblue" d="M1085.64,-109.002C1105.77,-125.56 1139.34,-151.172 1172,-167 1179.61,-170.69 1188.09,-173.82 1196.32,-176.41"/>
<polygon fill="midnightblue" stroke="midnightblue" points="1087.8,-106.244 1077.89,-102.515 1083.31,-111.615 1087.8,-106.244"/>
</g>
<!-- Node11 -->
<g id="node11" class="node"><title>Node11</title>
<g id="a_node11"><a xlink:href="../../d0/df6/classCParser.html#a86906e492ff9c606fb3537078f46f93e" target="_top" xlink:title="CParser::extern_linkage\l_block">
<polygon fill="white" stroke="black" points="1172,-127 1172,-157 1302,-157 1302,-127 1172,-127"/>
<text text-anchor="start" x="1180" y="-145" font-family="Helvetica,sans-Serif" font-size="10.00">CParser::extern_linkage</text>
<text text-anchor="middle" x="1237" y="-134" font-family="Helvetica,sans-Serif" font-size="10.00">_block</text>
</a>
</g>
</g>
<!-- Node7&#45;&gt;Node11 -->
<g id="edge10" class="edge"><title>Node7&#45;&gt;Node11</title>
<path fill="none" stroke="midnightblue" d="M1126.47,-103.762C1152.21,-110.653 1181.35,-119.438 1203.1,-126.986"/>
<polygon fill="midnightblue" stroke="midnightblue" points="1127.35,-100.376 1116.79,-101.221 1125.57,-107.147 1127.35,-100.376"/>
</g>
<!-- Node12 -->
<g id="node12" class="node"><title>Node12</title>
<g id="a_node12"><a xlink:href="../../d0/df6/classCParser.html#a4fad913a0694a5376ad76669d8943122" target="_top" xlink:title="CParser::namespace\l_block">
<polygon fill="white" stroke="black" points="1179.5,-78 1179.5,-108 1294.5,-108 1294.5,-78 1179.5,-78"/>
<text text-anchor="start" x="1187.5" y="-96" font-family="Helvetica,sans-Serif" font-size="10.00">CParser::namespace</text>
<text text-anchor="middle" x="1237" y="-85" font-family="Helvetica,sans-Serif" font-size="10.00">_block</text>
</a>
</g>
</g>
<!-- Node7&#45;&gt;Node12 -->
<g id="edge12" class="edge"><title>Node7&#45;&gt;Node12</title>
<path fill="none" stroke="midnightblue" d="M1127.17,-86.505C1144.19,-86.1389 1162.65,-86.167 1179.45,-86.5894"/>
<polygon fill="midnightblue" stroke="midnightblue" points="1126.69,-83.0166 1116.79,-86.7839 1126.88,-90.014 1126.69,-83.0166"/>
</g>
<!-- Node9 -->
<g id="node9" class="node"><title>Node9</title>
<g id="a_node9"><a xlink:href="../../db/d4a/classMain.html#a803470658c644fa9512140f9d8398dd5" target="_top" xlink:title="Main::ParseFiles">
<polygon fill="white" stroke="black" points="1348,-176.5 1348,-195.5 1442,-195.5 1442,-176.5 1348,-176.5"/>
<text text-anchor="middle" x="1395" y="-183.5" font-family="Helvetica,sans-Serif" font-size="10.00">Main::ParseFiles</text>
</a>
</g>
</g>
<!-- Node8&#45;&gt;Node9 -->
<g id="edge8" class="edge"><title>Node8&#45;&gt;Node9</title>
<path fill="none" stroke="midnightblue" d="M1287.87,-186C1307.14,-186 1329.05,-186 1347.94,-186"/>
<polygon fill="midnightblue" stroke="midnightblue" points="1287.77,-182.5 1277.77,-186 1287.77,-189.5 1287.77,-182.5"/>
</g>
<!-- Node10 -->
<g id="node10" class="node"><title>Node10</title>
<g id="a_node10"><a xlink:href="../../d6/d93/ccccmain_8cc.html#a3c04138a5bfe5d72780bb7e82a18e627" target="_top" xlink:title="main">
<polygon fill="white" stroke="black" points="1488,-176.5 1488,-195.5 1527,-195.5 1527,-176.5 1488,-176.5"/>
<text text-anchor="middle" x="1507.5" y="-183.5" font-family="Helvetica,sans-Serif" font-size="10.00">main</text>
</a>
</g>
</g>
<!-- Node9&#45;&gt;Node10 -->
<g id="edge9" class="edge"><title>Node9&#45;&gt;Node10</title>
<path fill="none" stroke="midnightblue" d="M1452.49,-186C1465.33,-186 1478.09,-186 1487.97,-186"/>
<polygon fill="midnightblue" stroke="midnightblue" points="1452.22,-182.5 1442.22,-186 1452.22,-189.5 1452.22,-182.5"/>
</g>
<!-- Node11&#45;&gt;Node7 -->
<g id="edge11" class="edge"><title>Node11&#45;&gt;Node7</title>
<path fill="none" stroke="midnightblue" d="M1161.98,-127.243C1133.59,-119.263 1103.6,-109.789 1085.09,-102.614"/>
<polygon fill="midnightblue" stroke="midnightblue" points="1161.36,-130.703 1171.94,-129.996 1163.23,-123.957 1161.36,-130.703"/>
</g>
<!-- Node12&#45;&gt;Node7 -->
<g id="edge13" class="edge"><title>Node12&#45;&gt;Node7</title>
<path fill="none" stroke="midnightblue" d="M1169.29,-99.6152C1151.8,-99.8839 1133.23,-99.7509 1116.79,-99.2161"/>
<polygon fill="midnightblue" stroke="midnightblue" points="1169.52,-103.111 1179.45,-99.4106 1169.38,-96.1129 1169.52,-103.111"/>
</g>
<!-- Node14 -->
<g id="node14" class="node"><title>Node14</title>
<g id="a_node14"><a xlink:href="../../d0/df6/classCParser.html#a4b9f00c05d44a13b3c18b28b52f5be9e" target="_top" xlink:title="CParser::class_block\l_item_list">
<polygon fill="white" stroke="black" points="1180,-29 1180,-59 1294,-59 1294,-29 1180,-29"/>
<text text-anchor="start" x="1188" y="-47" font-family="Helvetica,sans-Serif" font-size="10.00">CParser::class_block</text>
<text text-anchor="middle" x="1237" y="-36" font-family="Helvetica,sans-Serif" font-size="10.00">_item_list</text>
</a>
</g>
</g>
<!-- Node13&#45;&gt;Node14 -->
<g id="edge15" class="edge"><title>Node13&#45;&gt;Node14</title>
<path fill="none" stroke="midnightblue" d="M1146.5,-46.648C1157.74,-46.3154 1169.1,-45.9792 1179.79,-45.6632"/>
<polygon fill="midnightblue" stroke="midnightblue" points="1146.12,-43.1576 1136.23,-46.9519 1146.33,-50.1545 1146.12,-43.1576"/>
</g>
<!-- Node15 -->
<g id="node15" class="node"><title>Node15</title>
<g id="a_node15"><a xlink:href="../../d0/df6/classCParser.html#a06c7cac9034f27ad6d998b49a7b574c8" target="_top" xlink:title="CParser::class_block">
<polygon fill="white" stroke="black" points="1338,-12.5 1338,-31.5 1452,-31.5 1452,-12.5 1338,-12.5"/>
<text text-anchor="middle" x="1395" y="-19.5" font-family="Helvetica,sans-Serif" font-size="10.00">CParser::class_block</text>
</a>
</g>
</g>
<!-- Node14&#45;&gt;Node15 -->
<g id="edge16" class="edge"><title>Node14&#45;&gt;Node15</title>
<path fill="none" stroke="midnightblue" d="M1304.4,-34.6353C1315.51,-33.0688 1326.94,-31.457 1337.76,-29.9308"/>
<polygon fill="midnightblue" stroke="midnightblue" points="1303.73,-31.1953 1294.32,-36.0575 1304.71,-38.1267 1303.73,-31.1953"/>
</g>
<!-- Node15&#45;&gt;Node4 -->
<g id="edge17" class="edge"><title>Node15&#45;&gt;Node4</title>
<path fill="none" stroke="midnightblue" d="M1327.69,-14.9173C1261.69,-8.48604 1157.47,-0 1067,-0 888.5,-0 888.5,-0 888.5,-0 788.24,-0 671.719,-9.61613 604.262,-16.1333"/>
<polygon fill="midnightblue" stroke="midnightblue" points="1327.65,-18.4303 1337.95,-15.9302 1328.34,-11.4642 1327.65,-18.4303"/>
</g>
</g>
</svg>
