<?xml version="1.0" encoding="UTF-8" standalone="no"?>
<!DOCTYPE svg PUBLIC "-//W3C//DTD SVG 1.1//EN"
 "http://www.w3.org/Graphics/SVG/1.1/DTD/svg11.dtd">
<!-- Generated by graphviz version 2.38.0 (20140413.2041)
 -->
<!-- Title: CParser::cast_keyword Pages: 1 -->
<svg width="2954pt" height="271pt"
 viewBox="0.00 0.00 2954.00 271.00" xmlns="http://www.w3.org/2000/svg" xmlns:xlink="http://www.w3.org/1999/xlink">
<g id="graph0" class="graph" transform="scale(1 1) rotate(0) translate(4 267)">
<title>CParser::cast_keyword</title>
<polygon fill="white" stroke="none" points="-4,4 -4,-267 2950,-267 2950,4 -4,4"/>
<!-- Node1 -->
<g id="node1" class="node"><title>Node1</title>
<polygon fill="#bfbfbf" stroke="black" points="0,-148.5 0,-167.5 125,-167.5 125,-148.5 0,-148.5"/>
<text text-anchor="middle" x="62.5" y="-155.5" font-family="Helvetica,sans-Serif" font-size="10.00">CParser::cast_keyword</text>
</g>
<!-- Node2 -->
<g id="node2" class="node"><title>Node2</title>
<g id="a_node2"><a xlink:href="../../d0/df6/classCParser.html#aa600547e6bdaf5e45d02c89a19c7fa4b" target="_top" xlink:title="CParser::init_expr_item">
<polygon fill="white" stroke="black" points="161,-148.5 161,-167.5 287,-167.5 287,-148.5 161,-148.5"/>
<text text-anchor="middle" x="224" y="-155.5" font-family="Helvetica,sans-Serif" font-size="10.00">CParser::init_expr_item</text>
</a>
</g>
</g>
<!-- Node1&#45;&gt;Node2 -->
<g id="edge1" class="edge"><title>Node1&#45;&gt;Node2</title>
<path fill="none" stroke="midnightblue" d="M135.185,-158C143.789,-158 152.52,-158 160.971,-158"/>
<polygon fill="midnightblue" stroke="midnightblue" points="135.167,-154.5 125.167,-158 135.167,-161.5 135.167,-154.5"/>
</g>
<!-- Node3 -->
<g id="node3" class="node"><title>Node3</title>
<g id="a_node3"><a xlink:href="../../d0/df6/classCParser.html#a545c65918de48a33554b6fa86bf7bee4" target="_top" xlink:title="CParser::init_expr">
<polygon fill="white" stroke="black" points="323,-148.5 323,-167.5 424,-167.5 424,-148.5 323,-148.5"/>
<text text-anchor="middle" x="373.5" y="-155.5" font-family="Helvetica,sans-Serif" font-size="10.00">CParser::init_expr</text>
</a>
</g>
</g>
<!-- Node2&#45;&gt;Node3 -->
<g id="edge2" class="edge"><title>Node2&#45;&gt;Node3</title>
<path fill="none" stroke="midnightblue" d="M297.294,-158C305.99,-158 314.714,-158 322.981,-158"/>
<polygon fill="midnightblue" stroke="midnightblue" points="297.126,-154.5 287.126,-158 297.126,-161.5 297.126,-154.5"/>
</g>
<!-- Node4 -->
<g id="node4" class="node"><title>Node4</title>
<g id="a_node4"><a xlink:href="../../d0/df6/classCParser.html#aa7fd7f7807fc630d9020e84dbb3445e0" target="_top" xlink:title="CParser::opt_initializer">
<polygon fill="white" stroke="black" points="460,-148.5 460,-167.5 582,-167.5 582,-148.5 460,-148.5"/>
<text text-anchor="middle" x="521" y="-155.5" font-family="Helvetica,sans-Serif" font-size="10.00">CParser::opt_initializer</text>
</a>
</g>
</g>
<!-- Node3&#45;&gt;Node4 -->
<g id="edge3" class="edge"><title>Node3&#45;&gt;Node4</title>
<path fill="none" stroke="midnightblue" d="M434.345,-158C442.814,-158 451.524,-158 459.996,-158"/>
<polygon fill="midnightblue" stroke="midnightblue" points="434.166,-154.5 424.166,-158 434.166,-161.5 434.166,-154.5"/>
</g>
<!-- Node5 -->
<g id="node5" class="node"><title>Node5</title>
<g id="a_node5"><a xlink:href="../../d0/df6/classCParser.html#a9104801570f44810a98b9f3a5a76c06c" target="_top" xlink:title="CParser::instance_item">
<polygon fill="white" stroke="black" points="618,-148.5 618,-167.5 743,-167.5 743,-148.5 618,-148.5"/>
<text text-anchor="middle" x="680.5" y="-155.5" font-family="Helvetica,sans-Serif" font-size="10.00">CParser::instance_item</text>
</a>
</g>
</g>
<!-- Node4&#45;&gt;Node5 -->
<g id="edge4" class="edge"><title>Node4&#45;&gt;Node5</title>
<path fill="none" stroke="midnightblue" d="M592.639,-158C601.07,-158 609.626,-158 617.916,-158"/>
<polygon fill="midnightblue" stroke="midnightblue" points="592.443,-154.5 582.443,-158 592.443,-161.5 592.443,-154.5"/>
</g>
<!-- Node6 -->
<g id="node6" class="node"><title>Node6</title>
<g id="a_node6"><a xlink:href="../../d0/df6/classCParser.html#a6331346ed010ab6c734d29daeb5d896f" target="_top" xlink:title="CParser::instance_declaration">
<polygon fill="white" stroke="black" points="779,-127.5 779,-146.5 937,-146.5 937,-127.5 779,-127.5"/>
<text text-anchor="middle" x="858" y="-134.5" font-family="Helvetica,sans-Serif" font-size="10.00">CParser::instance_declaration</text>
</a>
</g>
</g>
<!-- Node5&#45;&gt;Node6 -->
<g id="edge5" class="edge"><title>Node5&#45;&gt;Node6</title>
<path fill="none" stroke="midnightblue" d="M753.442,-149.391C761.794,-148.392 770.343,-147.369 778.773,-146.36"/>
<polygon fill="midnightblue" stroke="midnightblue" points="752.888,-145.933 743.375,-150.596 753.72,-152.883 752.888,-145.933"/>
</g>
<!-- Node21 -->
<g id="node21" class="node"><title>Node21</title>
<g id="a_node21"><a xlink:href="../../d0/df6/classCParser.html#a70d42f7013f81c71092f771ff9232941" target="_top" xlink:title="CParser::ctor_init_item">
<polygon fill="white" stroke="black" points="796.5,-170.5 796.5,-189.5 919.5,-189.5 919.5,-170.5 796.5,-170.5"/>
<text text-anchor="middle" x="858" y="-177.5" font-family="Helvetica,sans-Serif" font-size="10.00">CParser::ctor_init_item</text>
</a>
</g>
</g>
<!-- Node5&#45;&gt;Node21 -->
<g id="edge23" class="edge"><title>Node5&#45;&gt;Node21</title>
<path fill="none" stroke="midnightblue" d="M753.58,-167.036C767.763,-168.814 782.51,-170.662 796.275,-172.388"/>
<polygon fill="midnightblue" stroke="midnightblue" points="753.732,-163.527 743.375,-165.756 752.862,-170.473 753.732,-163.527"/>
</g>
<!-- Node7 -->
<g id="node7" class="node"><title>Node7</title>
<g id="a_node7"><a xlink:href="../../d0/df6/classCParser.html#ab3ab57ace628c2476dd8dfe5a96f9a15" target="_top" xlink:title="CParser::definition\l_or_declaration">
<polygon fill="white" stroke="black" points="1845,-122 1845,-152 1948,-152 1948,-122 1845,-122"/>
<text text-anchor="start" x="1853" y="-140" font-family="Helvetica,sans-Serif" font-size="10.00">CParser::definition</text>
<text text-anchor="middle" x="1896.5" y="-129" font-family="Helvetica,sans-Serif" font-size="10.00">_or_declaration</text>
</a>
</g>
</g>
<!-- Node6&#45;&gt;Node7 -->
<g id="edge6" class="edge"><title>Node6&#45;&gt;Node7</title>
<path fill="none" stroke="midnightblue" d="M947.113,-137C1010.94,-137 1099.31,-137 1177,-137 1177,-137 1177,-137 1519,-137 1635.68,-137 1772.69,-137 1844.95,-137"/>
<polygon fill="midnightblue" stroke="midnightblue" points="947.085,-133.5 937.085,-137 947.085,-140.5 947.085,-133.5"/>
</g>
<!-- Node20 -->
<g id="node20" class="node"><title>Node20</title>
<g id="a_node20"><a xlink:href="../../d0/df6/classCParser.html#a4e7cf3c3b19f9c664f345a10116c2c2c" target="_top" xlink:title="CParser::knr_param\l_decl_list">
<polygon fill="white" stroke="black" points="973,-78 973,-108 1084,-108 1084,-78 973,-78"/>
<text text-anchor="start" x="981" y="-96" font-family="Helvetica,sans-Serif" font-size="10.00">CParser::knr_param</text>
<text text-anchor="middle" x="1028.5" y="-85" font-family="Helvetica,sans-Serif" font-size="10.00">_decl_list</text>
</a>
</g>
</g>
<!-- Node6&#45;&gt;Node20 -->
<g id="edge22" class="edge"><title>Node6&#45;&gt;Node20</title>
<path fill="none" stroke="midnightblue" d="M905.449,-124.871C926.289,-119.429 951.021,-112.971 972.755,-107.296"/>
<polygon fill="midnightblue" stroke="midnightblue" points="904.353,-121.54 895.562,-127.453 906.122,-128.312 904.353,-121.54"/>
</g>
<!-- Node8 -->
<g id="node8" class="node"><title>Node8</title>
<g id="a_node8"><a xlink:href="../../d0/df6/classCParser.html#a2b78ab2005bef5c43ee2d4689210eab1" target="_top" xlink:title="CParser::link_item">
<polygon fill="white" stroke="black" points="2003.5,-127.5 2003.5,-146.5 2104.5,-146.5 2104.5,-127.5 2003.5,-127.5"/>
<text text-anchor="middle" x="2054" y="-134.5" font-family="Helvetica,sans-Serif" font-size="10.00">CParser::link_item</text>
</a>
</g>
</g>
<!-- Node7&#45;&gt;Node8 -->
<g id="edge7" class="edge"><title>Node7&#45;&gt;Node8</title>
<path fill="none" stroke="midnightblue" d="M1958.52,-137C1973.36,-137 1989.05,-137 2003.29,-137"/>
<polygon fill="midnightblue" stroke="midnightblue" points="1958.42,-133.5 1948.42,-137 1958.42,-140.5 1958.42,-133.5"/>
</g>
<!-- Node14 -->
<g id="node14" class="node"><title>Node14</title>
<g id="a_node14"><a xlink:href="../../d0/df6/classCParser.html#a85eb09132fa5a588749cea062f0d11ea" target="_top" xlink:title="CParser::class_block_item">
<polygon fill="white" stroke="black" points="1984,-61.5 1984,-80.5 2124,-80.5 2124,-61.5 1984,-61.5"/>
<text text-anchor="middle" x="2054" y="-68.5" font-family="Helvetica,sans-Serif" font-size="10.00">CParser::class_block_item</text>
</a>
</g>
</g>
<!-- Node7&#45;&gt;Node14 -->
<g id="edge15" class="edge"><title>Node7&#45;&gt;Node14</title>
<path fill="none" stroke="midnightblue" d="M1942.64,-117.841C1971.46,-105.609 2007.58,-90.2783 2030.48,-80.5578"/>
<polygon fill="midnightblue" stroke="midnightblue" points="1941.01,-114.729 1933.17,-121.858 1943.75,-121.173 1941.01,-114.729"/>
</g>
<!-- Node9 -->
<g id="node9" class="node"><title>Node9</title>
<g id="a_node9"><a xlink:href="../../d0/df6/classCParser.html#a4f02da23566af37123efb3768769c09b" target="_top" xlink:title="CParser::start">
<polygon fill="white" stroke="black" points="2184.5,-127.5 2184.5,-146.5 2265.5,-146.5 2265.5,-127.5 2184.5,-127.5"/>
<text text-anchor="middle" x="2225" y="-134.5" font-family="Helvetica,sans-Serif" font-size="10.00">CParser::start</text>
</a>
</g>
</g>
<!-- Node8&#45;&gt;Node9 -->
<g id="edge8" class="edge"><title>Node8&#45;&gt;Node9</title>
<path fill="none" stroke="midnightblue" d="M2114.85,-137C2137.95,-137 2163.75,-137 2184.46,-137"/>
<polygon fill="midnightblue" stroke="midnightblue" points="2114.79,-133.5 2104.79,-137 2114.79,-140.5 2114.79,-133.5"/>
</g>
<!-- Node12 -->
<g id="node12" class="node"><title>Node12</title>
<g id="a_node12"><a xlink:href="../../d0/df6/classCParser.html#a86906e492ff9c606fb3537078f46f93e" target="_top" xlink:title="CParser::extern_linkage\l_block">
<polygon fill="white" stroke="black" points="2160,-78 2160,-108 2290,-108 2290,-78 2160,-78"/>
<text text-anchor="start" x="2168" y="-96" font-family="Helvetica,sans-Serif" font-size="10.00">CParser::extern_linkage</text>
<text text-anchor="middle" x="2225" y="-85" font-family="Helvetica,sans-Serif" font-size="10.00">_block</text>
</a>
</g>
</g>
<!-- Node8&#45;&gt;Node12 -->
<g id="edge11" class="edge"><title>Node8&#45;&gt;Node12</title>
<path fill="none" stroke="midnightblue" d="M2083.91,-124.24C2104.73,-117.463 2133.65,-109.487 2159.81,-103.139"/>
<polygon fill="midnightblue" stroke="midnightblue" points="2082.74,-120.941 2074.39,-127.459 2084.98,-127.573 2082.74,-120.941"/>
</g>
<!-- Node13 -->
<g id="node13" class="node"><title>Node13</title>
<g id="a_node13"><a xlink:href="../../d0/df6/classCParser.html#a4fad913a0694a5376ad76669d8943122" target="_top" xlink:title="CParser::namespace\l_block">
<polygon fill="white" stroke="black" points="2167.5,-166 2167.5,-196 2282.5,-196 2282.5,-166 2167.5,-166"/>
<text text-anchor="start" x="2175.5" y="-184" font-family="Helvetica,sans-Serif" font-size="10.00">CParser::namespace</text>
<text text-anchor="middle" x="2225" y="-173" font-family="Helvetica,sans-Serif" font-size="10.00">_block</text>
</a>
</g>
</g>
<!-- Node8&#45;&gt;Node13 -->
<g id="edge13" class="edge"><title>Node8&#45;&gt;Node13</title>
<path fill="none" stroke="midnightblue" d="M2114.7,-146.06C2139.17,-151.891 2166.67,-159.331 2187.97,-165.972"/>
<polygon fill="midnightblue" stroke="midnightblue" points="2115.33,-142.61 2104.79,-143.747 2113.74,-149.427 2115.33,-142.61"/>
</g>
<!-- Node10 -->
<g id="node10" class="node"><title>Node10</title>
<g id="a_node10"><a xlink:href="../../db/d4a/classMain.html#a803470658c644fa9512140f9d8398dd5" target="_top" xlink:title="Main::ParseFiles">
<polygon fill="white" stroke="black" points="2336,-127.5 2336,-146.5 2430,-146.5 2430,-127.5 2336,-127.5"/>
<text text-anchor="middle" x="2383" y="-134.5" font-family="Helvetica,sans-Serif" font-size="10.00">Main::ParseFiles</text>
</a>
</g>
</g>
<!-- Node9&#45;&gt;Node10 -->
<g id="edge9" class="edge"><title>Node9&#45;&gt;Node10</title>
<path fill="none" stroke="midnightblue" d="M2275.87,-137C2295.14,-137 2317.05,-137 2335.94,-137"/>
<polygon fill="midnightblue" stroke="midnightblue" points="2275.77,-133.5 2265.77,-137 2275.77,-140.5 2275.77,-133.5"/>
</g>
<!-- Node11 -->
<g id="node11" class="node"><title>Node11</title>
<g id="a_node11"><a xlink:href="../../d6/d93/ccccmain_8cc.html#a3c04138a5bfe5d72780bb7e82a18e627" target="_top" xlink:title="main">
<polygon fill="white" stroke="black" points="2513.5,-127.5 2513.5,-146.5 2552.5,-146.5 2552.5,-127.5 2513.5,-127.5"/>
<text text-anchor="middle" x="2533" y="-134.5" font-family="Helvetica,sans-Serif" font-size="10.00">main</text>
</a>
</g>
</g>
<!-- Node10&#45;&gt;Node11 -->
<g id="edge10" class="edge"><title>Node10&#45;&gt;Node11</title>
<path fill="none" stroke="midnightblue" d="M2440.15,-137C2466.09,-137 2495.14,-137 2513.49,-137"/>
<polygon fill="midnightblue" stroke="midnightblue" points="2440.02,-133.5 2430.02,-137 2440.02,-140.5 2440.02,-133.5"/>
</g>
<!-- Node12&#45;&gt;Node8 -->
<g id="edge12" class="edge"><title>Node12&#45;&gt;Node8</title>
<path fill="none" stroke="midnightblue" d="M2178.22,-110.994C2155.51,-117.757 2128.03,-124.958 2104.79,-130.253"/>
<polygon fill="midnightblue" stroke="midnightblue" points="2179.42,-114.289 2187.97,-108.028 2177.38,-107.592 2179.42,-114.289"/>
</g>
<!-- Node13&#45;&gt;Node8 -->
<g id="edge14" class="edge"><title>Node13&#45;&gt;Node8</title>
<path fill="none" stroke="midnightblue" d="M2157.36,-170.265C2127.55,-162.964 2094.64,-153.687 2074.39,-146.541"/>
<polygon fill="midnightblue" stroke="midnightblue" points="2156.79,-173.726 2167.33,-172.659 2158.42,-166.92 2156.79,-173.726"/>
</g>
<!-- Node15 -->
<g id="node15" class="node"><title>Node15</title>
<g id="a_node15"><a xlink:href="../../d0/df6/classCParser.html#a4b9f00c05d44a13b3c18b28b52f5be9e" target="_top" xlink:title="CParser::class_block\l_item_list">
<polygon fill="white" stroke="black" points="2168,-29 2168,-59 2282,-59 2282,-29 2168,-29"/>
<text text-anchor="start" x="2176" y="-47" font-family="Helvetica,sans-Serif" font-size="10.00">CParser::class_block</text>
<text text-anchor="middle" x="2225" y="-36" font-family="Helvetica,sans-Serif" font-size="10.00">_item_list</text>
</a>
</g>
</g>
<!-- Node14&#45;&gt;Node15 -->
<g id="edge16" class="edge"><title>Node14&#45;&gt;Node15</title>
<path fill="none" stroke="midnightblue" d="M2124.87,-59.8377C2139.17,-57.5534 2154.04,-55.177 2167.79,-52.9809"/>
<polygon fill="midnightblue" stroke="midnightblue" points="2123.91,-56.4469 2114.58,-61.4808 2125.01,-63.3593 2123.91,-56.4469"/>
</g>
<!-- Node16 -->
<g id="node16" class="node"><title>Node16</title>
<g id="a_node16"><a xlink:href="../../d0/df6/classCParser.html#a06c7cac9034f27ad6d998b49a7b574c8" target="_top" xlink:title="CParser::class_block">
<polygon fill="white" stroke="black" points="2326,-34.5 2326,-53.5 2440,-53.5 2440,-34.5 2326,-34.5"/>
<text text-anchor="middle" x="2383" y="-41.5" font-family="Helvetica,sans-Serif" font-size="10.00">CParser::class_block</text>
</a>
</g>
</g>
<!-- Node15&#45;&gt;Node16 -->
<g id="edge17" class="edge"><title>Node15&#45;&gt;Node16</title>
<path fill="none" stroke="midnightblue" d="M2292.4,-44C2303.51,-44 2314.94,-44 2325.76,-44"/>
<polygon fill="midnightblue" stroke="midnightblue" points="2292.32,-40.5001 2282.32,-44 2292.32,-47.5001 2292.32,-40.5001"/>
</g>
<!-- Node17 -->
<g id="node17" class="node"><title>Node17</title>
<g id="a_node17"><a xlink:href="../../d0/df6/classCParser.html#a40fba8426e7ac46e9926515ee81e97f3" target="_top" xlink:title="CParser::class_suffix">
<polygon fill="white" stroke="black" points="2476,-34.5 2476,-53.5 2590,-53.5 2590,-34.5 2476,-34.5"/>
<text text-anchor="middle" x="2533" y="-41.5" font-family="Helvetica,sans-Serif" font-size="10.00">CParser::class_suffix</text>
</a>
</g>
</g>
<!-- Node16&#45;&gt;Node17 -->
<g id="edge18" class="edge"><title>Node16&#45;&gt;Node17</title>
<path fill="none" stroke="midnightblue" d="M2450.56,-44C2458.98,-44 2467.54,-44 2475.78,-44"/>
<polygon fill="midnightblue" stroke="midnightblue" points="2450.37,-40.5001 2440.37,-44 2450.37,-47.5001 2450.37,-40.5001"/>
</g>
<!-- Node18 -->
<g id="node18" class="node"><title>Node18</title>
<g id="a_node18"><a xlink:href="../../d0/df6/classCParser.html#a1ed5fcfb2e97e3551fceabe81989a667" target="_top" xlink:title="CParser::class_declaration\l_or_definition">
<polygon fill="white" stroke="black" points="2626,-29 2626,-59 2769,-59 2769,-29 2626,-29"/>
<text text-anchor="start" x="2634" y="-47" font-family="Helvetica,sans-Serif" font-size="10.00">CParser::class_declaration</text>
<text text-anchor="middle" x="2697.5" y="-36" font-family="Helvetica,sans-Serif" font-size="10.00">_or_definition</text>
</a>
</g>
</g>
<!-- Node17&#45;&gt;Node18 -->
<g id="edge19" class="edge"><title>Node17&#45;&gt;Node18</title>
<path fill="none" stroke="midnightblue" d="M2600.47,-44C2608.86,-44 2617.46,-44 2625.91,-44"/>
<polygon fill="midnightblue" stroke="midnightblue" points="2600.38,-40.5001 2590.38,-44 2600.38,-47.5001 2600.38,-40.5001"/>
</g>
<!-- Node18&#45;&gt;Node7 -->
<g id="edge20" class="edge"><title>Node18&#45;&gt;Node7</title>
<path fill="none" stroke="midnightblue" d="M2619.36,-27.0145C2556.37,-14.6274 2464.87,-0 2384,-0 2224,-0 2224,-0 2224,-0 2114.86,-7.10543e-15 2080.04,-0.153266 1984,-52 1951.76,-69.403 1923.39,-102.417 1908.52,-121.781"/>
<polygon fill="midnightblue" stroke="midnightblue" points="2618.73,-30.4572 2629.22,-28.9808 2620.1,-23.5924 2618.73,-30.4572"/>
</g>
<!-- Node19 -->
<g id="node19" class="node"><title>Node19</title>
<g id="a_node19"><a xlink:href="../../d0/df6/classCParser.html#a12561a45dab96760d7ab45896681dd33" target="_top" xlink:title="CParser::class_or_method\l_declaration_or_definition">
<polygon fill="white" stroke="black" points="2805,-210 2805,-240 2946,-240 2946,-210 2805,-210"/>
<text text-anchor="start" x="2813" y="-228" font-family="Helvetica,sans-Serif" font-size="10.00">CParser::class_or_method</text>
<text text-anchor="middle" x="2875.5" y="-217" font-family="Helvetica,sans-Serif" font-size="10.00">_declaration_or_definition</text>
</a>
</g>
</g>
<!-- Node18&#45;&gt;Node19 -->
<g id="edge21" class="edge"><title>Node18&#45;&gt;Node19</title>
<path fill="none" stroke="midnightblue" d="M2720.4,-66.5199C2756.77,-103.929 2828.71,-177.913 2859.72,-209.795"/>
<polygon fill="midnightblue" stroke="midnightblue" points="2722.68,-63.8501 2713.2,-59.1206 2717.67,-68.73 2722.68,-63.8501"/>
</g>
<!-- Node22 -->
<g id="node22" class="node"><title>Node22</title>
<g id="a_node22"><a xlink:href="../../d0/df6/classCParser.html#a617e49ab4458d5b4adf577a6a0bc05cd" target="_top" xlink:title="CParser::ctor_init\l_item_list">
<polygon fill="white" stroke="black" points="979.5,-171 979.5,-201 1077.5,-201 1077.5,-171 979.5,-171"/>
<text text-anchor="start" x="987.5" y="-189" font-family="Helvetica,sans-Serif" font-size="10.00">CParser::ctor_init</text>
<text text-anchor="middle" x="1028.5" y="-178" font-family="Helvetica,sans-Serif" font-size="10.00">_item_list</text>
</a>
</g>
</g>
<!-- Node21&#45;&gt;Node22 -->
<g id="edge24" class="edge"><title>Node21&#45;&gt;Node22</title>
<path fill="none" stroke="midnightblue" d="M930.081,-182.531C946.727,-183.124 964.075,-183.742 979.44,-184.289"/>
<polygon fill="midnightblue" stroke="midnightblue" points="929.951,-179.024 919.832,-182.166 929.701,-186.02 929.951,-179.024"/>
</g>
<!-- Node23 -->
<g id="node23" class="node"><title>Node23</title>
<g id="a_node23"><a xlink:href="../../d0/df6/classCParser.html#ab6c0eabf2b00874bf8f70b576d96ce52" target="_top" xlink:title="CParser::ctor_init_list">
<polygon fill="white" stroke="black" points="1120,-178.5 1120,-197.5 1236,-197.5 1236,-178.5 1120,-178.5"/>
<text text-anchor="middle" x="1178" y="-185.5" font-family="Helvetica,sans-Serif" font-size="10.00">CParser::ctor_init_list</text>
</a>
</g>
</g>
<!-- Node22&#45;&gt;Node23 -->
<g id="edge25" class="edge"><title>Node22&#45;&gt;Node23</title>
<path fill="none" stroke="midnightblue" d="M1088.09,-186.794C1098.55,-186.936 1109.44,-187.084 1119.87,-187.225"/>
<polygon fill="midnightblue" stroke="midnightblue" points="1087.84,-183.291 1077.8,-186.655 1087.75,-190.29 1087.84,-183.291"/>
</g>
<!-- Node24 -->
<g id="node24" class="node"><title>Node24</title>
<g id="a_node24"><a xlink:href="../../d0/df6/classCParser.html#ad7a6fd3a8b7daa3c26191f4512236a59" target="_top" xlink:title="CParser::method_suffix">
<polygon fill="white" stroke="black" points="1272,-197.5 1272,-216.5 1397,-216.5 1397,-197.5 1272,-197.5"/>
<text text-anchor="middle" x="1334.5" y="-204.5" font-family="Helvetica,sans-Serif" font-size="10.00">CParser::method_suffix</text>
</a>
</g>
</g>
<!-- Node23&#45;&gt;Node24 -->
<g id="edge26" class="edge"><title>Node23&#45;&gt;Node24</title>
<path fill="none" stroke="midnightblue" d="M1246.09,-196.25C1254.69,-197.308 1263.46,-198.387 1271.97,-199.434"/>
<polygon fill="midnightblue" stroke="midnightblue" points="1246.44,-192.768 1236.09,-195.021 1245.59,-199.715 1246.44,-192.768"/>
</g>
<!-- Node25 -->
<g id="node25" class="node"><title>Node25</title>
<g id="a_node25"><a xlink:href="../../d0/df6/classCParser.html#a0dd2a579512bf1a17aaeac5fdec860a7" target="_top" xlink:title="CParser::method_declaration\l_or_definition_with_implicit_type">
<polygon fill="white" stroke="black" points="1433,-201 1433,-231 1603,-231 1603,-201 1433,-201"/>
<text text-anchor="start" x="1441" y="-219" font-family="Helvetica,sans-Serif" font-size="10.00">CParser::method_declaration</text>
<text text-anchor="middle" x="1518" y="-208" font-family="Helvetica,sans-Serif" font-size="10.00">_or_definition_with_implicit_type</text>
</a>
</g>
</g>
<!-- Node24&#45;&gt;Node25 -->
<g id="edge27" class="edge"><title>Node24&#45;&gt;Node25</title>
<path fill="none" stroke="midnightblue" d="M1407.34,-210.562C1415.75,-210.98 1424.4,-211.408 1432.97,-211.833"/>
<polygon fill="midnightblue" stroke="midnightblue" points="1407.36,-207.059 1397.2,-210.06 1407.02,-214.051 1407.36,-207.059"/>
</g>
<!-- Node25&#45;&gt;Node7 -->
<g id="edge28" class="edge"><title>Node25&#45;&gt;Node7</title>
<path fill="none" stroke="midnightblue" d="M1600.5,-198.899C1674.79,-183.31 1782.22,-160.77 1844.85,-147.627"/>
<polygon fill="midnightblue" stroke="midnightblue" points="1599.77,-195.476 1590.7,-200.955 1601.21,-202.327 1599.77,-195.476"/>
</g>
<!-- Node25&#45;&gt;Node19 -->
<g id="edge32" class="edge"><title>Node25&#45;&gt;Node19</title>
<path fill="none" stroke="midnightblue" d="M1585.44,-233.44C1602.77,-237.455 1621.5,-241.327 1639,-244 1752,-261.262 1781.19,-263 1895.5,-263 1895.5,-263 1895.5,-263 2534,-263 2628.28,-263 2736.34,-248.433 2804.98,-237.338"/>
<polygon fill="midnightblue" stroke="midnightblue" points="1585.96,-229.966 1575.42,-231.068 1584.34,-236.777 1585.96,-229.966"/>
</g>
<!-- Node26 -->
<g id="node26" class="node"><title>Node26</title>
<g id="a_node26"><a xlink:href="../../d0/df6/classCParser.html#af0c9d35d4c997c6f34cf4a26563b513c" target="_top" xlink:title="CParser::method_declaration\l_or_definition_with_explicit_type">
<polygon fill="white" stroke="black" points="1639,-204 1639,-234 1809,-234 1809,-204 1639,-204"/>
<text text-anchor="start" x="1647" y="-222" font-family="Helvetica,sans-Serif" font-size="10.00">CParser::method_declaration</text>
<text text-anchor="middle" x="1724" y="-211" font-family="Helvetica,sans-Serif" font-size="10.00">_or_definition_with_explicit_type</text>
</a>
</g>
</g>
<!-- Node25&#45;&gt;Node26 -->
<g id="edge29" class="edge"><title>Node25&#45;&gt;Node26</title>
<path fill="none" stroke="midnightblue" d="M1613.4,-217.388C1621.85,-217.512 1630.36,-217.638 1638.71,-217.76"/>
<polygon fill="midnightblue" stroke="midnightblue" points="1613.2,-213.885 1603.15,-217.238 1613.1,-220.884 1613.2,-213.885"/>
</g>
<!-- Node26&#45;&gt;Node7 -->
<g id="edge30" class="edge"><title>Node26&#45;&gt;Node7</title>
<path fill="none" stroke="midnightblue" d="M1781.83,-200.436C1791.04,-196.936 1800.38,-193.082 1809,-189 1831.65,-178.279 1855.98,-163.31 1873.06,-152.184"/>
<polygon fill="midnightblue" stroke="midnightblue" points="1780.49,-197.202 1772.32,-203.95 1782.91,-203.769 1780.49,-197.202"/>
</g>
<!-- Node26&#45;&gt;Node19 -->
<g id="edge31" class="edge"><title>Node26&#45;&gt;Node19</title>
<path fill="none" stroke="midnightblue" d="M1819.57,-221.645C1885.09,-223.254 1974.34,-225 2053,-225 2053,-225 2053,-225 2534,-225 2627.7,-225 2735.9,-225 2804.72,-225"/>
<polygon fill="midnightblue" stroke="midnightblue" points="1819.34,-218.139 1809.26,-221.389 1819.17,-225.137 1819.34,-218.139"/>
</g>
</g>
</svg>
