<?xml version="1.0" encoding="UTF-8" standalone="no"?>
<!DOCTYPE svg PUBLIC "-//W3C//DTD SVG 1.1//EN"
 "http://www.w3.org/Graphics/SVG/1.1/DTD/svg11.dtd">
<!-- Generated by graphviz version 2.38.0 (20140413.2041)
 -->
<!-- Title: CParser::definition_or_declaration Pages: 1 -->
<svg width="1109pt" height="204pt"
 viewBox="0.00 0.00 1109.00 204.00" xmlns="http://www.w3.org/2000/svg" xmlns:xlink="http://www.w3.org/1999/xlink">
<g id="graph0" class="graph" transform="scale(1 1) rotate(0) translate(4 200)">
<title>CParser::definition_or_declaration</title>
<polygon fill="white" stroke="none" points="-4,4 -4,-200 1105,-200 1105,4 -4,4"/>
<!-- Node1 -->
<g id="node1" class="node"><title>Node1</title>
<polygon fill="#bfbfbf" stroke="black" points="0,-29 0,-59 103,-59 103,-29 0,-29"/>
<text text-anchor="start" x="8" y="-47" font-family="Helvetica,sans-Serif" font-size="10.00">CParser::definition</text>
<text text-anchor="middle" x="51.5" y="-36" font-family="Helvetica,sans-Serif" font-size="10.00">_or_declaration</text>
</g>
<!-- Node2 -->
<g id="node2" class="node"><title>Node2</title>
<g id="a_node2"><a xlink:href="../../d0/df6/classCParser.html#a2b78ab2005bef5c43ee2d4689210eab1" target="_top" xlink:title="CParser::link_item">
<polygon fill="white" stroke="black" points="158.5,-107.5 158.5,-126.5 259.5,-126.5 259.5,-107.5 158.5,-107.5"/>
<text text-anchor="middle" x="209" y="-114.5" font-family="Helvetica,sans-Serif" font-size="10.00">CParser::link_item</text>
</a>
</g>
</g>
<!-- Node1&#45;&gt;Node2 -->
<g id="edge1" class="edge"><title>Node1&#45;&gt;Node2</title>
<path fill="none" stroke="midnightblue" d="M93.7902,-63.3838C124.097,-77.6116 163.959,-96.3248 187.686,-107.464"/>
<polygon fill="midnightblue" stroke="midnightblue" points="95.2592,-60.207 84.7197,-59.1256 92.2845,-66.5435 95.2592,-60.207"/>
</g>
<!-- Node8 -->
<g id="node8" class="node"><title>Node8</title>
<g id="a_node8"><a xlink:href="../../d0/df6/classCParser.html#a85eb09132fa5a588749cea062f0d11ea" target="_top" xlink:title="CParser::class_block_item">
<polygon fill="white" stroke="black" points="139,-34.5 139,-53.5 279,-53.5 279,-34.5 139,-34.5"/>
<text text-anchor="middle" x="209" y="-41.5" font-family="Helvetica,sans-Serif" font-size="10.00">CParser::class_block_item</text>
</a>
</g>
</g>
<!-- Node1&#45;&gt;Node8 -->
<g id="edge9" class="edge"><title>Node1&#45;&gt;Node8</title>
<path fill="none" stroke="midnightblue" d="M113.438,-44C121.787,-44 130.408,-44 138.89,-44"/>
<polygon fill="midnightblue" stroke="midnightblue" points="113.417,-40.5001 103.417,-44 113.416,-47.5001 113.417,-40.5001"/>
</g>
<!-- Node3 -->
<g id="node3" class="node"><title>Node3</title>
<g id="a_node3"><a xlink:href="../../d0/df6/classCParser.html#a4f02da23566af37123efb3768769c09b" target="_top" xlink:title="CParser::start">
<polygon fill="white" stroke="black" points="339.5,-176.5 339.5,-195.5 420.5,-195.5 420.5,-176.5 339.5,-176.5"/>
<text text-anchor="middle" x="380" y="-183.5" font-family="Helvetica,sans-Serif" font-size="10.00">CParser::start</text>
</a>
</g>
</g>
<!-- Node2&#45;&gt;Node3 -->
<g id="edge2" class="edge"><title>Node2&#45;&gt;Node3</title>
<path fill="none" stroke="midnightblue" d="M236.765,-131.172C257.687,-141.898 287.702,-156.522 315,-167 323.981,-170.447 333.866,-173.657 343.125,-176.42"/>
<polygon fill="midnightblue" stroke="midnightblue" points="238.324,-128.037 227.834,-126.547 235.105,-134.253 238.324,-128.037"/>
</g>
<!-- Node6 -->
<g id="node6" class="node"><title>Node6</title>
<g id="a_node6"><a xlink:href="../../d0/df6/classCParser.html#a86906e492ff9c606fb3537078f46f93e" target="_top" xlink:title="CParser::extern_linkage\l_block">
<polygon fill="white" stroke="black" points="315,-127 315,-157 445,-157 445,-127 315,-127"/>
<text text-anchor="start" x="323" y="-145" font-family="Helvetica,sans-Serif" font-size="10.00">CParser::extern_linkage</text>
<text text-anchor="middle" x="380" y="-134" font-family="Helvetica,sans-Serif" font-size="10.00">_block</text>
</a>
</g>
</g>
<!-- Node2&#45;&gt;Node6 -->
<g id="edge5" class="edge"><title>Node2&#45;&gt;Node6</title>
<path fill="none" stroke="midnightblue" d="M269.912,-119.373C286.494,-121.465 304.461,-124.137 320.936,-126.963"/>
<polygon fill="midnightblue" stroke="midnightblue" points="270.139,-115.875 259.792,-118.15 269.299,-122.825 270.139,-115.875"/>
</g>
<!-- Node7 -->
<g id="node7" class="node"><title>Node7</title>
<g id="a_node7"><a xlink:href="../../d0/df6/classCParser.html#a4fad913a0694a5376ad76669d8943122" target="_top" xlink:title="CParser::namespace\l_block">
<polygon fill="white" stroke="black" points="322.5,-78 322.5,-108 437.5,-108 437.5,-78 322.5,-78"/>
<text text-anchor="start" x="330.5" y="-96" font-family="Helvetica,sans-Serif" font-size="10.00">CParser::namespace</text>
<text text-anchor="middle" x="380" y="-85" font-family="Helvetica,sans-Serif" font-size="10.00">_block</text>
</a>
</g>
</g>
<!-- Node2&#45;&gt;Node7 -->
<g id="edge7" class="edge"><title>Node2&#45;&gt;Node7</title>
<path fill="none" stroke="midnightblue" d="M249.68,-105.542C271.375,-101.468 298.617,-97.4042 322.497,-94.6148"/>
<polygon fill="midnightblue" stroke="midnightblue" points="248.965,-102.115 239.825,-107.473 250.311,-108.985 248.965,-102.115"/>
</g>
<!-- Node4 -->
<g id="node4" class="node"><title>Node4</title>
<g id="a_node4"><a xlink:href="../../db/d4a/classMain.html#a803470658c644fa9512140f9d8398dd5" target="_top" xlink:title="Main::ParseFiles">
<polygon fill="white" stroke="black" points="491,-176.5 491,-195.5 585,-195.5 585,-176.5 491,-176.5"/>
<text text-anchor="middle" x="538" y="-183.5" font-family="Helvetica,sans-Serif" font-size="10.00">Main::ParseFiles</text>
</a>
</g>
</g>
<!-- Node3&#45;&gt;Node4 -->
<g id="edge3" class="edge"><title>Node3&#45;&gt;Node4</title>
<path fill="none" stroke="midnightblue" d="M430.869,-186C450.138,-186 472.051,-186 490.942,-186"/>
<polygon fill="midnightblue" stroke="midnightblue" points="430.769,-182.5 420.769,-186 430.769,-189.5 430.769,-182.5"/>
</g>
<!-- Node5 -->
<g id="node5" class="node"><title>Node5</title>
<g id="a_node5"><a xlink:href="../../d6/d93/ccccmain_8cc.html#a3c04138a5bfe5d72780bb7e82a18e627" target="_top" xlink:title="main">
<polygon fill="white" stroke="black" points="668.5,-176.5 668.5,-195.5 707.5,-195.5 707.5,-176.5 668.5,-176.5"/>
<text text-anchor="middle" x="688" y="-183.5" font-family="Helvetica,sans-Serif" font-size="10.00">main</text>
</a>
</g>
</g>
<!-- Node4&#45;&gt;Node5 -->
<g id="edge4" class="edge"><title>Node4&#45;&gt;Node5</title>
<path fill="none" stroke="midnightblue" d="M595.15,-186C621.09,-186 650.142,-186 668.494,-186"/>
<polygon fill="midnightblue" stroke="midnightblue" points="595.017,-182.5 585.017,-186 595.017,-189.5 595.017,-182.5"/>
</g>
<!-- Node6&#45;&gt;Node2 -->
<g id="edge6" class="edge"><title>Node6&#45;&gt;Node2</title>
<path fill="none" stroke="midnightblue" d="M305.065,-137.766C281.729,-134.523 257.302,-130.422 239.052,-126.54"/>
<polygon fill="midnightblue" stroke="midnightblue" points="304.6,-141.235 314.978,-139.1 305.534,-134.297 304.6,-141.235"/>
</g>
<!-- Node7&#45;&gt;Node2 -->
<g id="edge8" class="edge"><title>Node7&#45;&gt;Node2</title>
<path fill="none" stroke="midnightblue" d="M312.292,-109.089C294.795,-111.842 276.232,-114.345 259.792,-116.145"/>
<polygon fill="midnightblue" stroke="midnightblue" points="313.136,-112.498 322.446,-107.442 312.015,-105.588 313.136,-112.498"/>
</g>
<!-- Node9 -->
<g id="node9" class="node"><title>Node9</title>
<g id="a_node9"><a xlink:href="../../d0/df6/classCParser.html#a4b9f00c05d44a13b3c18b28b52f5be9e" target="_top" xlink:title="CParser::class_block\l_item_list">
<polygon fill="white" stroke="black" points="323,-29 323,-59 437,-59 437,-29 323,-29"/>
<text text-anchor="start" x="331" y="-47" font-family="Helvetica,sans-Serif" font-size="10.00">CParser::class_block</text>
<text text-anchor="middle" x="380" y="-36" font-family="Helvetica,sans-Serif" font-size="10.00">_item_list</text>
</a>
</g>
</g>
<!-- Node8&#45;&gt;Node9 -->
<g id="edge10" class="edge"><title>Node8&#45;&gt;Node9</title>
<path fill="none" stroke="midnightblue" d="M289.497,-44C300.741,-44 312.104,-44 322.785,-44"/>
<polygon fill="midnightblue" stroke="midnightblue" points="289.226,-40.5001 279.226,-44 289.226,-47.5001 289.226,-40.5001"/>
</g>
<!-- Node10 -->
<g id="node10" class="node"><title>Node10</title>
<g id="a_node10"><a xlink:href="../../d0/df6/classCParser.html#a06c7cac9034f27ad6d998b49a7b574c8" target="_top" xlink:title="CParser::class_block">
<polygon fill="white" stroke="black" points="481,-31.5 481,-50.5 595,-50.5 595,-31.5 481,-31.5"/>
<text text-anchor="middle" x="538" y="-38.5" font-family="Helvetica,sans-Serif" font-size="10.00">CParser::class_block</text>
</a>
</g>
</g>
<!-- Node9&#45;&gt;Node10 -->
<g id="edge11" class="edge"><title>Node9&#45;&gt;Node10</title>
<path fill="none" stroke="midnightblue" d="M447.404,-42.723C458.512,-42.5094 469.941,-42.2896 480.763,-42.0815"/>
<polygon fill="midnightblue" stroke="midnightblue" points="447.25,-39.2252 437.32,-42.9169 447.385,-46.2239 447.25,-39.2252"/>
</g>
<!-- Node11 -->
<g id="node11" class="node"><title>Node11</title>
<g id="a_node11"><a xlink:href="../../d0/df6/classCParser.html#a40fba8426e7ac46e9926515ee81e97f3" target="_top" xlink:title="CParser::class_suffix">
<polygon fill="white" stroke="black" points="631,-29.5 631,-48.5 745,-48.5 745,-29.5 631,-29.5"/>
<text text-anchor="middle" x="688" y="-36.5" font-family="Helvetica,sans-Serif" font-size="10.00">CParser::class_suffix</text>
</a>
</g>
</g>
<!-- Node10&#45;&gt;Node11 -->
<g id="edge12" class="edge"><title>Node10&#45;&gt;Node11</title>
<path fill="none" stroke="midnightblue" d="M605.558,-40.1006C613.984,-39.9867 622.539,-39.8711 630.782,-39.7597"/>
<polygon fill="midnightblue" stroke="midnightblue" points="605.326,-36.6033 595.375,-40.2382 605.421,-43.6026 605.326,-36.6033"/>
</g>
<!-- Node12 -->
<g id="node12" class="node"><title>Node12</title>
<g id="a_node12"><a xlink:href="../../d0/df6/classCParser.html#a1ed5fcfb2e97e3551fceabe81989a667" target="_top" xlink:title="CParser::class_declaration\l_or_definition">
<polygon fill="white" stroke="black" points="781,-4 781,-34 924,-34 924,-4 781,-4"/>
<text text-anchor="start" x="789" y="-22" font-family="Helvetica,sans-Serif" font-size="10.00">CParser::class_declaration</text>
<text text-anchor="middle" x="852.5" y="-11" font-family="Helvetica,sans-Serif" font-size="10.00">_or_definition</text>
</a>
</g>
</g>
<!-- Node11&#45;&gt;Node12 -->
<g id="edge13" class="edge"><title>Node11&#45;&gt;Node12</title>
<path fill="none" stroke="midnightblue" d="M755.473,-30.8187C763.858,-29.7867 772.46,-28.728 780.905,-27.6886"/>
<polygon fill="midnightblue" stroke="midnightblue" points="754.876,-27.3657 745.379,-32.0611 755.731,-34.3133 754.876,-27.3657"/>
</g>
<!-- Node12&#45;&gt;Node1 -->
<g id="edge14" class="edge"><title>Node12&#45;&gt;Node1</title>
<path fill="none" stroke="midnightblue" d="M770.557,-11.374C707.516,-6.08976 617.776,-0 539,-0 379,-0 379,-0 379,-0 271.756,-0 244.874,-7.91348 139,-25 127.312,-26.8862 114.83,-29.3567 103.088,-31.8893"/>
<polygon fill="midnightblue" stroke="midnightblue" points="770.57,-14.8876 780.831,-12.2478 771.163,-7.91282 770.57,-14.8876"/>
</g>
<!-- Node13 -->
<g id="node13" class="node"><title>Node13</title>
<g id="a_node13"><a xlink:href="../../d0/df6/classCParser.html#a12561a45dab96760d7ab45896681dd33" target="_top" xlink:title="CParser::class_or_method\l_declaration_or_definition">
<polygon fill="white" stroke="black" points="960,-4 960,-34 1101,-34 1101,-4 960,-4"/>
<text text-anchor="start" x="968" y="-22" font-family="Helvetica,sans-Serif" font-size="10.00">CParser::class_or_method</text>
<text text-anchor="middle" x="1030.5" y="-11" font-family="Helvetica,sans-Serif" font-size="10.00">_declaration_or_definition</text>
</a>
</g>
</g>
<!-- Node12&#45;&gt;Node13 -->
<g id="edge15" class="edge"><title>Node12&#45;&gt;Node13</title>
<path fill="none" stroke="midnightblue" d="M934.08,-19C942.659,-19 951.333,-19 959.772,-19"/>
<polygon fill="midnightblue" stroke="midnightblue" points="934.072,-15.5001 924.072,-19 934.072,-22.5001 934.072,-15.5001"/>
</g>
</g>
</svg>
