<?xml version="1.0" encoding="UTF-8" standalone="no"?>
<!DOCTYPE svg PUBLIC "-//W3C//DTD SVG 1.1//EN"
 "http://www.w3.org/Graphics/SVG/1.1/DTD/svg11.dtd">
<!-- Generated by graphviz version 2.38.0 (20140413.2041)
 -->
<!-- Title: CParser::method_declaration_or_definition_with_implicit_type Pages: 1 -->
<svg width="1521pt" height="271pt"
 viewBox="0.00 0.00 1521.00 271.00" xmlns="http://www.w3.org/2000/svg" xmlns:xlink="http://www.w3.org/1999/xlink">
<g id="graph0" class="graph" transform="scale(1 1) rotate(0) translate(4 267)">
<title>CParser::method_declaration_or_definition_with_implicit_type</title>
<polygon fill="white" stroke="none" points="-4,4 -4,-267 1517,-267 1517,4 -4,4"/>
<!-- Node1 -->
<g id="node1" class="node"><title>Node1</title>
<polygon fill="#bfbfbf" stroke="black" points="0,-139 0,-169 170,-169 170,-139 0,-139"/>
<text text-anchor="start" x="8" y="-157" font-family="Helvetica,sans-Serif" font-size="10.00">CParser::method_declaration</text>
<text text-anchor="middle" x="85" y="-146" font-family="Helvetica,sans-Serif" font-size="10.00">_or_definition_with_implicit_type</text>
</g>
<!-- Node2 -->
<g id="node2" class="node"><title>Node2</title>
<g id="a_node2"><a xlink:href="../../d0/df6/classCParser.html#ab3ab57ace628c2476dd8dfe5a96f9a15" target="_top" xlink:title="CParser::definition\l_or_declaration">
<polygon fill="white" stroke="black" points="412,-117 412,-147 515,-147 515,-117 412,-117"/>
<text text-anchor="start" x="420" y="-135" font-family="Helvetica,sans-Serif" font-size="10.00">CParser::definition</text>
<text text-anchor="middle" x="463.5" y="-124" font-family="Helvetica,sans-Serif" font-size="10.00">_or_declaration</text>
</a>
</g>
</g>
<!-- Node1&#45;&gt;Node2 -->
<g id="edge1" class="edge"><title>Node1&#45;&gt;Node2</title>
<path fill="none" stroke="midnightblue" d="M180.213,-148.495C253.67,-144.203 352.833,-138.408 411.966,-134.953"/>
<polygon fill="midnightblue" stroke="midnightblue" points="179.804,-145.013 170.025,-149.09 180.213,-152.001 179.804,-145.013"/>
</g>
<!-- Node14 -->
<g id="node14" class="node"><title>Node14</title>
<g id="a_node14"><a xlink:href="../../d0/df6/classCParser.html#a12561a45dab96760d7ab45896681dd33" target="_top" xlink:title="CParser::class_or_method\l_declaration_or_definition">
<polygon fill="white" stroke="black" points="1372,-120 1372,-150 1513,-150 1513,-120 1372,-120"/>
<text text-anchor="start" x="1380" y="-138" font-family="Helvetica,sans-Serif" font-size="10.00">CParser::class_or_method</text>
<text text-anchor="middle" x="1442.5" y="-127" font-family="Helvetica,sans-Serif" font-size="10.00">_declaration_or_definition</text>
</a>
</g>
</g>
<!-- Node1&#45;&gt;Node14 -->
<g id="edge20" class="edge"><title>Node1&#45;&gt;Node14</title>
<path fill="none" stroke="midnightblue" d="M125.78,-173.581C193.294,-204.956 335.376,-263 462.5,-263 462.5,-263 462.5,-263 1101,-263 1227.94,-263 1365.45,-184.092 1418.68,-150.186"/>
<polygon fill="midnightblue" stroke="midnightblue" points="126.91,-170.245 116.371,-169.156 123.931,-176.579 126.91,-170.245"/>
</g>
<!-- Node15 -->
<g id="node15" class="node"><title>Node15</title>
<g id="a_node15"><a xlink:href="../../d0/df6/classCParser.html#af0c9d35d4c997c6f34cf4a26563b513c" target="_top" xlink:title="CParser::method_declaration\l_or_definition_with_explicit_type">
<polygon fill="white" stroke="black" points="206,-95 206,-125 376,-125 376,-95 206,-95"/>
<text text-anchor="start" x="214" y="-113" font-family="Helvetica,sans-Serif" font-size="10.00">CParser::method_declaration</text>
<text text-anchor="middle" x="291" y="-102" font-family="Helvetica,sans-Serif" font-size="10.00">_or_definition_with_explicit_type</text>
</a>
</g>
</g>
<!-- Node1&#45;&gt;Node15 -->
<g id="edge17" class="edge"><title>Node1&#45;&gt;Node15</title>
<path fill="none" stroke="midnightblue" d="M165.56,-136.84C183.637,-132.941 202.704,-128.829 220.333,-125.026"/>
<polygon fill="midnightblue" stroke="midnightblue" points="164.672,-133.451 155.635,-138.981 166.148,-140.294 164.672,-133.451"/>
</g>
<!-- Node3 -->
<g id="node3" class="node"><title>Node3</title>
<g id="a_node3"><a xlink:href="../../d0/df6/classCParser.html#a2b78ab2005bef5c43ee2d4689210eab1" target="_top" xlink:title="CParser::link_item">
<polygon fill="white" stroke="black" points="570.5,-122.5 570.5,-141.5 671.5,-141.5 671.5,-122.5 570.5,-122.5"/>
<text text-anchor="middle" x="621" y="-129.5" font-family="Helvetica,sans-Serif" font-size="10.00">CParser::link_item</text>
</a>
</g>
</g>
<!-- Node2&#45;&gt;Node3 -->
<g id="edge2" class="edge"><title>Node2&#45;&gt;Node3</title>
<path fill="none" stroke="midnightblue" d="M525.524,-132C540.362,-132 556.053,-132 570.294,-132"/>
<polygon fill="midnightblue" stroke="midnightblue" points="525.417,-128.5 515.417,-132 525.416,-135.5 525.417,-128.5"/>
</g>
<!-- Node9 -->
<g id="node9" class="node"><title>Node9</title>
<g id="a_node9"><a xlink:href="../../d0/df6/classCParser.html#a85eb09132fa5a588749cea062f0d11ea" target="_top" xlink:title="CParser::class_block_item">
<polygon fill="white" stroke="black" points="551,-59.5 551,-78.5 691,-78.5 691,-59.5 551,-59.5"/>
<text text-anchor="middle" x="621" y="-66.5" font-family="Helvetica,sans-Serif" font-size="10.00">CParser::class_block_item</text>
</a>
</g>
</g>
<!-- Node2&#45;&gt;Node9 -->
<g id="edge10" class="edge"><title>Node2&#45;&gt;Node9</title>
<path fill="none" stroke="midnightblue" d="M511.339,-113.023C539.296,-101.697 573.622,-87.7899 596.117,-78.6761"/>
<polygon fill="midnightblue" stroke="midnightblue" points="509.7,-109.911 501.746,-116.91 512.329,-116.399 509.7,-109.911"/>
</g>
<!-- Node4 -->
<g id="node4" class="node"><title>Node4</title>
<g id="a_node4"><a xlink:href="../../d0/df6/classCParser.html#a4f02da23566af37123efb3768769c09b" target="_top" xlink:title="CParser::start">
<polygon fill="white" stroke="black" points="751.5,-78.5 751.5,-97.5 832.5,-97.5 832.5,-78.5 751.5,-78.5"/>
<text text-anchor="middle" x="792" y="-85.5" font-family="Helvetica,sans-Serif" font-size="10.00">CParser::start</text>
</a>
</g>
</g>
<!-- Node3&#45;&gt;Node4 -->
<g id="edge3" class="edge"><title>Node3&#45;&gt;Node4</title>
<path fill="none" stroke="midnightblue" d="M668.685,-119.845C695.728,-112.805 729.281,-104.069 754.401,-97.5287"/>
<polygon fill="midnightblue" stroke="midnightblue" points="667.466,-116.546 658.67,-122.453 669.23,-123.32 667.466,-116.546"/>
</g>
<!-- Node7 -->
<g id="node7" class="node"><title>Node7</title>
<g id="a_node7"><a xlink:href="../../d0/df6/classCParser.html#a86906e492ff9c606fb3537078f46f93e" target="_top" xlink:title="CParser::extern_linkage\l_block">
<polygon fill="white" stroke="black" points="727,-166 727,-196 857,-196 857,-166 727,-166"/>
<text text-anchor="start" x="735" y="-184" font-family="Helvetica,sans-Serif" font-size="10.00">CParser::extern_linkage</text>
<text text-anchor="middle" x="792" y="-173" font-family="Helvetica,sans-Serif" font-size="10.00">_block</text>
</a>
</g>
</g>
<!-- Node3&#45;&gt;Node7 -->
<g id="edge6" class="edge"><title>Node3&#45;&gt;Node7</title>
<path fill="none" stroke="midnightblue" d="M681.467,-142.762C707.205,-149.653 736.35,-158.438 758.102,-165.986"/>
<polygon fill="midnightblue" stroke="midnightblue" points="682.353,-139.376 671.792,-140.221 680.574,-146.147 682.353,-139.376"/>
</g>
<!-- Node8 -->
<g id="node8" class="node"><title>Node8</title>
<g id="a_node8"><a xlink:href="../../d0/df6/classCParser.html#a4fad913a0694a5376ad76669d8943122" target="_top" xlink:title="CParser::namespace\l_block">
<polygon fill="white" stroke="black" points="734.5,-117 734.5,-147 849.5,-147 849.5,-117 734.5,-117"/>
<text text-anchor="start" x="742.5" y="-135" font-family="Helvetica,sans-Serif" font-size="10.00">CParser::namespace</text>
<text text-anchor="middle" x="792" y="-124" font-family="Helvetica,sans-Serif" font-size="10.00">_block</text>
</a>
</g>
</g>
<!-- Node3&#45;&gt;Node8 -->
<g id="edge8" class="edge"><title>Node3&#45;&gt;Node8</title>
<path fill="none" stroke="midnightblue" d="M682.174,-125.505C699.192,-125.139 717.649,-125.167 734.446,-125.589"/>
<polygon fill="midnightblue" stroke="midnightblue" points="681.694,-122.017 671.792,-125.784 681.882,-129.014 681.694,-122.017"/>
</g>
<!-- Node5 -->
<g id="node5" class="node"><title>Node5</title>
<g id="a_node5"><a xlink:href="../../db/d4a/classMain.html#a803470658c644fa9512140f9d8398dd5" target="_top" xlink:title="Main::ParseFiles">
<polygon fill="white" stroke="black" points="903,-78.5 903,-97.5 997,-97.5 997,-78.5 903,-78.5"/>
<text text-anchor="middle" x="950" y="-85.5" font-family="Helvetica,sans-Serif" font-size="10.00">Main::ParseFiles</text>
</a>
</g>
</g>
<!-- Node4&#45;&gt;Node5 -->
<g id="edge4" class="edge"><title>Node4&#45;&gt;Node5</title>
<path fill="none" stroke="midnightblue" d="M842.869,-88C862.138,-88 884.051,-88 902.942,-88"/>
<polygon fill="midnightblue" stroke="midnightblue" points="842.769,-84.5001 832.769,-88 842.769,-91.5001 842.769,-84.5001"/>
</g>
<!-- Node6 -->
<g id="node6" class="node"><title>Node6</title>
<g id="a_node6"><a xlink:href="../../d6/d93/ccccmain_8cc.html#a3c04138a5bfe5d72780bb7e82a18e627" target="_top" xlink:title="main">
<polygon fill="white" stroke="black" points="1080.5,-78.5 1080.5,-97.5 1119.5,-97.5 1119.5,-78.5 1080.5,-78.5"/>
<text text-anchor="middle" x="1100" y="-85.5" font-family="Helvetica,sans-Serif" font-size="10.00">main</text>
</a>
</g>
</g>
<!-- Node5&#45;&gt;Node6 -->
<g id="edge5" class="edge"><title>Node5&#45;&gt;Node6</title>
<path fill="none" stroke="midnightblue" d="M1007.15,-88C1033.09,-88 1062.14,-88 1080.49,-88"/>
<polygon fill="midnightblue" stroke="midnightblue" points="1007.02,-84.5001 997.017,-88 1007.02,-91.5001 1007.02,-84.5001"/>
</g>
<!-- Node7&#45;&gt;Node3 -->
<g id="edge7" class="edge"><title>Node7&#45;&gt;Node3</title>
<path fill="none" stroke="midnightblue" d="M716.981,-166.243C688.59,-158.263 658.595,-148.789 640.086,-141.614"/>
<polygon fill="midnightblue" stroke="midnightblue" points="716.364,-169.703 726.935,-168.996 718.23,-162.957 716.364,-169.703"/>
</g>
<!-- Node8&#45;&gt;Node3 -->
<g id="edge9" class="edge"><title>Node8&#45;&gt;Node3</title>
<path fill="none" stroke="midnightblue" d="M724.292,-138.615C706.795,-138.884 688.232,-138.751 671.792,-138.216"/>
<polygon fill="midnightblue" stroke="midnightblue" points="724.519,-142.111 734.446,-138.411 724.378,-135.113 724.519,-142.111"/>
</g>
<!-- Node10 -->
<g id="node10" class="node"><title>Node10</title>
<g id="a_node10"><a xlink:href="../../d0/df6/classCParser.html#a4b9f00c05d44a13b3c18b28b52f5be9e" target="_top" xlink:title="CParser::class_block\l_item_list">
<polygon fill="white" stroke="black" points="735,-29 735,-59 849,-59 849,-29 735,-29"/>
<text text-anchor="start" x="743" y="-47" font-family="Helvetica,sans-Serif" font-size="10.00">CParser::class_block</text>
<text text-anchor="middle" x="792" y="-36" font-family="Helvetica,sans-Serif" font-size="10.00">_item_list</text>
</a>
</g>
</g>
<!-- Node9&#45;&gt;Node10 -->
<g id="edge11" class="edge"><title>Node9&#45;&gt;Node10</title>
<path fill="none" stroke="midnightblue" d="M696.58,-57.9674C709.418,-56.0683 722.566,-54.1233 734.816,-52.3112"/>
<polygon fill="midnightblue" stroke="midnightblue" points="695.754,-54.5515 686.374,-59.4773 696.778,-61.4761 695.754,-54.5515"/>
</g>
<!-- Node11 -->
<g id="node11" class="node"><title>Node11</title>
<g id="a_node11"><a xlink:href="../../d0/df6/classCParser.html#a06c7cac9034f27ad6d998b49a7b574c8" target="_top" xlink:title="CParser::class_block">
<polygon fill="white" stroke="black" points="893,-35.5 893,-54.5 1007,-54.5 1007,-35.5 893,-35.5"/>
<text text-anchor="middle" x="950" y="-42.5" font-family="Helvetica,sans-Serif" font-size="10.00">CParser::class_block</text>
</a>
</g>
</g>
<!-- Node10&#45;&gt;Node11 -->
<g id="edge12" class="edge"><title>Node10&#45;&gt;Node11</title>
<path fill="none" stroke="midnightblue" d="M859.404,-44.4257C870.512,-44.4969 881.941,-44.5701 892.763,-44.6395"/>
<polygon fill="midnightblue" stroke="midnightblue" points="859.342,-40.9253 849.32,-44.361 859.297,-47.9252 859.342,-40.9253"/>
</g>
<!-- Node12 -->
<g id="node12" class="node"><title>Node12</title>
<g id="a_node12"><a xlink:href="../../d0/df6/classCParser.html#a40fba8426e7ac46e9926515ee81e97f3" target="_top" xlink:title="CParser::class_suffix">
<polygon fill="white" stroke="black" points="1043,-38.5 1043,-57.5 1157,-57.5 1157,-38.5 1043,-38.5"/>
<text text-anchor="middle" x="1100" y="-45.5" font-family="Helvetica,sans-Serif" font-size="10.00">CParser::class_suffix</text>
</a>
</g>
</g>
<!-- Node11&#45;&gt;Node12 -->
<g id="edge13" class="edge"><title>Node11&#45;&gt;Node12</title>
<path fill="none" stroke="midnightblue" d="M1017.56,-46.3491C1025.98,-46.5199 1034.54,-46.6934 1042.78,-46.8604"/>
<polygon fill="midnightblue" stroke="midnightblue" points="1017.44,-42.8462 1007.37,-46.1427 1017.3,-49.8448 1017.44,-42.8462"/>
</g>
<!-- Node13 -->
<g id="node13" class="node"><title>Node13</title>
<g id="a_node13"><a xlink:href="../../d0/df6/classCParser.html#a1ed5fcfb2e97e3551fceabe81989a667" target="_top" xlink:title="CParser::class_declaration\l_or_definition">
<polygon fill="white" stroke="black" points="1193,-120 1193,-150 1336,-150 1336,-120 1193,-120"/>
<text text-anchor="start" x="1201" y="-138" font-family="Helvetica,sans-Serif" font-size="10.00">CParser::class_declaration</text>
<text text-anchor="middle" x="1264.5" y="-127" font-family="Helvetica,sans-Serif" font-size="10.00">_or_definition</text>
</a>
</g>
</g>
<!-- Node12&#45;&gt;Node13 -->
<g id="edge14" class="edge"><title>Node12&#45;&gt;Node13</title>
<path fill="none" stroke="midnightblue" d="M1139.07,-61.1248C1145.15,-63.549 1151.31,-66.205 1157,-69 1187.65,-84.0627 1220.76,-105.474 1241.79,-119.781"/>
<polygon fill="midnightblue" stroke="midnightblue" points="1140.25,-57.8271 1129.66,-57.5192 1137.74,-64.3642 1140.25,-57.8271"/>
</g>
<!-- Node13&#45;&gt;Node2 -->
<g id="edge15" class="edge"><title>Node13&#45;&gt;Node2</title>
<path fill="none" stroke="midnightblue" d="M1223.62,-154.304C1165.22,-180.749 1052.35,-225 951,-225 791,-225 791,-225 791,-225 678.722,-225 552.747,-173.502 495.634,-147.149"/>
<polygon fill="midnightblue" stroke="midnightblue" points="1225.23,-157.417 1232.85,-150.064 1222.3,-151.056 1225.23,-157.417"/>
</g>
<!-- Node13&#45;&gt;Node14 -->
<g id="edge16" class="edge"><title>Node13&#45;&gt;Node14</title>
<path fill="none" stroke="midnightblue" d="M1346.08,-135C1354.66,-135 1363.33,-135 1371.77,-135"/>
<polygon fill="midnightblue" stroke="midnightblue" points="1346.07,-131.5 1336.07,-135 1346.07,-138.5 1346.07,-131.5"/>
</g>
<!-- Node15&#45;&gt;Node2 -->
<g id="edge18" class="edge"><title>Node15&#45;&gt;Node2</title>
<path fill="none" stroke="midnightblue" d="M386.429,-122.184C395.068,-123.299 403.58,-124.397 411.604,-125.433"/>
<polygon fill="midnightblue" stroke="midnightblue" points="386.617,-118.68 376.251,-120.871 385.721,-125.622 386.617,-118.68"/>
</g>
<!-- Node15&#45;&gt;Node14 -->
<g id="edge19" class="edge"><title>Node15&#45;&gt;Node14</title>
<path fill="none" stroke="midnightblue" d="M326.61,-90.0908C385.07,-58.3943 507.973,-0 620,-0 620,-0 620,-0 1101,-0 1229.77,-0 1367.88,-84.4703 1419.97,-119.776"/>
<polygon fill="midnightblue" stroke="midnightblue" points="324.872,-87.0526 317.793,-94.9356 328.242,-93.1875 324.872,-87.0526"/>
</g>
</g>
</svg>
