<?xml version="1.0" encoding="UTF-8" standalone="no"?>
<!DOCTYPE svg PUBLIC "-//W3C//DTD SVG 1.1//EN"
 "http://www.w3.org/Graphics/SVG/1.1/DTD/svg11.dtd">
<!-- Generated by graphviz version 2.38.0 (20140413.2041)
 -->
<!-- Title: CParser::explicit_scope_spec Pages: 1 -->
<svg width="929pt" height="142pt"
 viewBox="0.00 0.00 929.00 142.00" xmlns="http://www.w3.org/2000/svg" xmlns:xlink="http://www.w3.org/1999/xlink">
<g id="graph0" class="graph" transform="scale(1 1) rotate(0) translate(4 138)">
<title>CParser::explicit_scope_spec</title>
<polygon fill="white" stroke="none" points="-4,4 -4,-138 925,-138 925,4 -4,4"/>
<!-- Node1 -->
<g id="node1" class="node"><title>Node1</title>
<polygon fill="#bfbfbf" stroke="black" points="0,-38.5 0,-57.5 155,-57.5 155,-38.5 0,-38.5"/>
<text text-anchor="middle" x="77.5" y="-45.5" font-family="Helvetica,sans-Serif" font-size="10.00">CParser::explicit_scope_spec</text>
</g>
<!-- Node2 -->
<g id="node2" class="node"><title>Node2</title>
<g id="a_node2"><a xlink:href="../../d0/df6/classCParser.html#a729069b96fa400ec2fd9a34d4016fcdb" target="_top" xlink:title="CParser::angle_block">
<polygon fill="white" stroke="black" points="191,-95.5 191,-114.5 307,-114.5 307,-95.5 191,-95.5"/>
<text text-anchor="middle" x="249" y="-102.5" font-family="Helvetica,sans-Serif" font-size="10.00">CParser::angle_block</text>
</a>
</g>
</g>
<!-- Node1&#45;&gt;Node2 -->
<g id="edge1" class="edge"><title>Node1&#45;&gt;Node2</title>
<path fill="none" stroke="midnightblue" d="M106.87,-57.5405C135.104,-67.0349 178.614,-81.6668 209.859,-92.1737"/>
<polygon fill="midnightblue" stroke="midnightblue" points="208.943,-95.5583 219.537,-95.4284 211.174,-88.9234 208.943,-95.5583"/>
</g>
<!-- Node4 -->
<g id="node4" class="node"><title>Node4</title>
<g id="a_node4"><a xlink:href="../../d0/df6/classCParser.html#a5e1630bd24884bb1cbc5680926dce957" target="_top" xlink:title="CParser::syn">
<polygon fill="white" stroke="black" points="533,-76.5 533,-95.5 610,-95.5 610,-76.5 533,-76.5"/>
<text text-anchor="middle" x="571.5" y="-83.5" font-family="Helvetica,sans-Serif" font-size="10.00">CParser::syn</text>
</a>
</g>
</g>
<!-- Node1&#45;&gt;Node4 -->
<g id="edge10" class="edge"><title>Node1&#45;&gt;Node4</title>
<path fill="none" stroke="midnightblue" d="M155.105,-53.9166C257.907,-61.8566 437.431,-75.7223 522.792,-82.3152"/>
<polygon fill="midnightblue" stroke="midnightblue" points="522.729,-85.8207 532.969,-83.1013 523.268,-78.8415 522.729,-85.8207"/>
</g>
<!-- Node8 -->
<g id="node8" class="node"><title>Node8</title>
<g id="a_node8"><a xlink:href="../../d3/d5e/classParseStore.html#a238b27bbf877e69812ecc620fbc18d5f" target="_top" xlink:title="ParseStore::set_flag">
<polygon fill="white" stroke="black" points="193,-0.5 193,-19.5 305,-19.5 305,-0.5 193,-0.5"/>
<text text-anchor="middle" x="249" y="-7.5" font-family="Helvetica,sans-Serif" font-size="10.00">ParseStore::set_flag</text>
</a>
</g>
</g>
<!-- Node1&#45;&gt;Node8 -->
<g id="edge9" class="edge"><title>Node1&#45;&gt;Node8</title>
<path fill="none" stroke="midnightblue" d="M121.272,-38.411C143.841,-33.3513 171.723,-27.1004 195.583,-21.7512"/>
<polygon fill="midnightblue" stroke="midnightblue" points="196.543,-25.1229 205.536,-19.5201 195.012,-18.2925 196.543,-25.1229"/>
</g>
<!-- Node3 -->
<g id="node3" class="node"><title>Node3</title>
<g id="a_node3"><a xlink:href="../../d0/df6/classCParser.html#aa127d8f0df3a28071ce4fe43684632ef" target="_top" xlink:title="CParser::angle_balanced_list">
<polygon fill="white" stroke="black" points="343,-114.5 343,-133.5 497,-133.5 497,-114.5 343,-114.5"/>
<text text-anchor="middle" x="420" y="-121.5" font-family="Helvetica,sans-Serif" font-size="10.00">CParser::angle_balanced_list</text>
</a>
</g>
</g>
<!-- Node2&#45;&gt;Node3 -->
<g id="edge2" class="edge"><title>Node2&#45;&gt;Node3</title>
<path fill="none" stroke="midnightblue" d="M307.216,-105.006C329.006,-106.922 353.508,-109.804 374.007,-112.895"/>
<polygon fill="midnightblue" stroke="midnightblue" points="373.598,-116.374 384.022,-114.477 374.69,-109.46 373.598,-116.374"/>
</g>
<!-- Node2&#45;&gt;Node4 -->
<g id="edge8" class="edge"><title>Node2&#45;&gt;Node4</title>
<path fill="none" stroke="midnightblue" d="M307.299,-101.603C368.659,-97.9656 464.942,-92.2577 522.473,-88.8471"/>
<polygon fill="midnightblue" stroke="midnightblue" points="522.972,-92.3238 532.748,-88.238 522.558,-85.3361 522.972,-92.3238"/>
</g>
<!-- Node3&#45;&gt;Node2 -->
<g id="edge3" class="edge"><title>Node3&#45;&gt;Node2</title>
<path fill="none" stroke="midnightblue" d="M342.916,-122.166C326.65,-120.453 309.964,-118.357 295.301,-116.151"/>
<polygon fill="midnightblue" stroke="midnightblue" points="295.44,-112.63 285.017,-114.53 294.35,-119.544 295.44,-112.63"/>
</g>
<!-- Node3&#45;&gt;Node4 -->
<g id="edge4" class="edge"><title>Node3&#45;&gt;Node4</title>
<path fill="none" stroke="midnightblue" d="M458.725,-114.411C478.276,-109.442 502.347,-103.323 523.137,-98.0387"/>
<polygon fill="midnightblue" stroke="midnightblue" points="524.217,-101.376 533.046,-95.5201 522.492,-94.5915 524.217,-101.376"/>
</g>
<!-- Node5 -->
<g id="node5" class="node"><title>Node5</title>
<g id="a_node5"><a xlink:href="../../da/d6a/classParseUtility.html#aabfa4c56607539ef14be2e2a7260006b" target="_top" xlink:title="ParseUtility::syn">
<polygon fill="white" stroke="black" points="646,-76.5 646,-95.5 737,-95.5 737,-76.5 646,-76.5"/>
<text text-anchor="middle" x="691.5" y="-83.5" font-family="Helvetica,sans-Serif" font-size="10.00">ParseUtility::syn</text>
</a>
</g>
</g>
<!-- Node4&#45;&gt;Node5 -->
<g id="edge5" class="edge"><title>Node4&#45;&gt;Node5</title>
<path fill="none" stroke="midnightblue" d="M610.16,-86C618.305,-86 627.076,-86 635.726,-86"/>
<polygon fill="midnightblue" stroke="midnightblue" points="635.779,-89.5001 645.779,-86 635.779,-82.5001 635.779,-89.5001"/>
</g>
<!-- Node6 -->
<g id="node6" class="node"><title>Node6</title>
<g id="a_node6"><a xlink:href="../../d3/d5e/classParseStore.html#ab21a4aeadb4cc4938b58cbefbb8634e8" target="_top" xlink:title="ParseStore::currentInstance">
<polygon fill="white" stroke="black" points="773,-95.5 773,-114.5 921,-114.5 921,-95.5 773,-95.5"/>
<text text-anchor="middle" x="847" y="-102.5" font-family="Helvetica,sans-Serif" font-size="10.00">ParseStore::currentInstance</text>
</a>
</g>
</g>
<!-- Node5&#45;&gt;Node6 -->
<g id="edge6" class="edge"><title>Node5&#45;&gt;Node6</title>
<path fill="none" stroke="midnightblue" d="M737.311,-91.5467C745.412,-92.5494 754.091,-93.6237 762.882,-94.7118"/>
<polygon fill="midnightblue" stroke="midnightblue" points="762.476,-98.1882 772.831,-95.9432 763.336,-91.2412 762.476,-98.1882"/>
</g>
<!-- Node7 -->
<g id="node7" class="node"><title>Node7</title>
<g id="a_node7"><a xlink:href="../../d3/d5e/classParseStore.html#ae7b3d82d22174c1a1165a592d6c1700c" target="_top" xlink:title="ParseStore::filename">
<polygon fill="white" stroke="black" points="790,-57.5 790,-76.5 904,-76.5 904,-57.5 790,-57.5"/>
<text text-anchor="middle" x="847" y="-64.5" font-family="Helvetica,sans-Serif" font-size="10.00">ParseStore::filename</text>
</a>
</g>
</g>
<!-- Node5&#45;&gt;Node7 -->
<g id="edge7" class="edge"><title>Node5&#45;&gt;Node7</title>
<path fill="none" stroke="midnightblue" d="M737.311,-80.4533C750.556,-78.8139 765.345,-76.9833 779.644,-75.2135"/>
<polygon fill="midnightblue" stroke="midnightblue" points="780.446,-78.641 789.94,-73.939 779.586,-71.694 780.446,-78.641"/>
</g>
</g>
</svg>
