<?xml version="1.0" encoding="UTF-8" standalone="no"?>
<!DOCTYPE svg PUBLIC "-//W3C//DTD SVG 1.1//EN"
 "http://www.w3.org/Graphics/SVG/1.1/DTD/svg11.dtd">
<!-- Generated by graphviz version 2.38.0 (20140413.2041)
 -->
<!-- Title: CParser::class_prefix Pages: 1 -->
<!--zoomable 867 -->
<svg id="main" version="1.1" xmlns="http://www.w3.org/2000/svg" xmlns:xlink="http://www.w3.org/1999/xlink" xml:space="preserve" onload="init(evt)">
<style type="text/css"><![CDATA[
.edge:hover path { stroke: red; }
.edge:hover polygon { stroke: red; fill: red; }
]]></style>
<script type="text/javascript"><![CDATA[
var edges = document.getElementsByTagName('g');
if (edges && edges.length) {
  for (var i=0;i<edges.length;i++) {
    if (edges[i].id.substr(0,4)=='edge') {
      edges[i].setAttribute('class','edge');
    }
  }
}
]]></script>
        <defs>
                <circle id="rim" cx="0" cy="0" r="7"/>
                <circle id="rim2" cx="0" cy="0" r="3.5"/>
                <g id="zoomPlus">
                        <use xlink:href="#rim" fill="#404040">
                                <set attributeName="fill" to="#808080" begin="zoomplus.mouseover" end="zoomplus.mouseout"/>
                        </use>
                        <path d="M-4,0h8M0,-4v8" fill="none" stroke="white" stroke-width="1.5" pointer-events="none"/>
                </g>
                <g id="zoomMin">
                        <use xlink:href="#rim" fill="#404040">
                                <set attributeName="fill" to="#808080" begin="zoomminus.mouseover" end="zoomminus.mouseout"/>
                        </use>
                        <path d="M-4,0h8" fill="none" stroke="white" stroke-width="1.5" pointer-events="none"/>
                </g>
                <g id="dirArrow">
                        <path fill="none" stroke="white" stroke-width="1.5" d="M0,-3.0v7 M-2.5,-0.5L0,-3.0L2.5,-0.5"/>
                </g>
               <g id="resetDef">
                       <use xlink:href="#rim2" fill="#404040">
                               <set attributeName="fill" to="#808080" begin="reset.mouseover" end="reset.mouseout"/>
                       </use>
               </g>
        </defs>

<script type="text/javascript">
var viewWidth = 2091;
var viewHeight = 867;
var sectionId = 'dynsection-45';
</script>
<script xlink:href="../../svgpan.js"/>
<svg id="graph" class="graph">
<g id="viewport">
<title>CParser::class_prefix</title>
<polygon fill="white" stroke="none" points="-4,4 -4,-862.722 2087,-862.722 2087,4 -4,4"/>
<!-- Node1 -->
<g id="node1" class="node"><title>Node1</title>
<polygon fill="#bfbfbf" stroke="black" points="0,-142.5 0,-161.5 116,-161.5 116,-142.5 0,-142.5"/>
<text text-anchor="middle" x="58" y="-149.5" font-family="Helvetica,sans-Serif" font-size="10.00">CParser::class_prefix</text>
</g>
<!-- Node2 -->
<g id="node2" class="node"><title>Node2</title>
<g id="a_node2"><a xlink:href="../../d0/df6/classCParser.html#a631e11d228a64f7cd7eaa437a58d2bca" target="_top" xlink:title="CParser::class_key">
<polygon fill="white" stroke="black" points="1489.5,-66.5 1489.5,-85.5 1596.5,-85.5 1596.5,-66.5 1489.5,-66.5"/>
<text text-anchor="middle" x="1543" y="-73.5" font-family="Helvetica,sans-Serif" font-size="10.00">CParser::class_key</text>
</a>
</g>
</g>
<!-- Node1&#45;&gt;Node2 -->
<g id="edge1" class="edge"><title>Node1&#45;&gt;Node2</title>
<path fill="none" stroke="midnightblue" d="M71.2694,-142.492C115.477,-109.215 271.781,-0 419,-0 419,-0 419,-0 1195.5,-0 1311.59,-0 1444.59,-41.2082 1506.65,-62.9372"/>
<polygon fill="midnightblue" stroke="midnightblue" points="1505.75,-66.3299 1516.34,-66.3745 1508.09,-59.7326 1505.75,-66.3299"/>
</g>
<!-- Node4 -->
<g id="node4" class="node"><title>Node4</title>
<g id="a_node4"><a xlink:href="../../d0/df6/classCParser.html#a5e1630bd24884bb1cbc5680926dce957" target="_top" xlink:title="CParser::syn">
<polygon fill="white" stroke="black" points="1675.5,-477.5 1675.5,-496.5 1752.5,-496.5 1752.5,-477.5 1675.5,-477.5"/>
<text text-anchor="middle" x="1714" y="-484.5" font-family="Helvetica,sans-Serif" font-size="10.00">CParser::syn</text>
</a>
</g>
</g>
<!-- Node1&#45;&gt;Node4 -->
<g id="edge52" class="edge"><title>Node1&#45;&gt;Node4</title>
<path fill="none" stroke="midnightblue" d="M59.2775,-161.574C62.2454,-245.17 94.8841,-848 419,-848 419,-848 419,-848 1370,-848 1482.13,-848 1535.29,-887.47 1620,-814 1667.85,-772.503 1700.83,-570.765 1710.25,-506.622"/>
<polygon fill="midnightblue" stroke="midnightblue" points="1713.72,-507.017 1711.68,-496.621 1706.8,-506.02 1713.72,-507.017"/>
</g>
<!-- Node8 -->
<g id="node8" class="node"><title>Node8</title>
<g id="a_node8"><a xlink:href="../../d0/df6/classCParser.html#ac121563570276b8286f8351a4f69e56e" target="_top" xlink:title="CParser::scoped_identifier">
<polygon fill="white" stroke="black" points="152,-180.5 152,-199.5 293,-199.5 293,-180.5 152,-180.5"/>
<text text-anchor="middle" x="222.5" y="-187.5" font-family="Helvetica,sans-Serif" font-size="10.00">CParser::scoped_identifier</text>
</a>
</g>
</g>
<!-- Node1&#45;&gt;Node8 -->
<g id="edge7" class="edge"><title>Node1&#45;&gt;Node8</title>
<path fill="none" stroke="midnightblue" d="M100.006,-161.589C121.546,-166.626 148.135,-172.844 170.941,-178.177"/>
<polygon fill="midnightblue" stroke="midnightblue" points="170.255,-181.611 180.789,-180.48 171.849,-174.795 170.255,-181.611"/>
</g>
<!-- Node10 -->
<g id="node10" class="node"><title>Node10</title>
<g id="a_node10"><a xlink:href="../../d0/df6/classCParser.html#a729069b96fa400ec2fd9a34d4016fcdb" target="_top" xlink:title="CParser::angle_block">
<polygon fill="white" stroke="black" points="1311,-180.5 1311,-199.5 1427,-199.5 1427,-180.5 1311,-180.5"/>
<text text-anchor="middle" x="1369" y="-187.5" font-family="Helvetica,sans-Serif" font-size="10.00">CParser::angle_block</text>
</a>
</g>
</g>
<!-- Node1&#45;&gt;Node10 -->
<g id="edge51" class="edge"><title>Node1&#45;&gt;Node10</title>
<path fill="none" stroke="midnightblue" d="M114.62,-142.46C185.187,-131.204 310.746,-114 419,-114 419,-114 419,-114 636,-114 919.8,-114 991.072,-130.727 1272,-171 1285.94,-172.998 1300.92,-175.694 1314.8,-178.427"/>
<polygon fill="midnightblue" stroke="midnightblue" points="1314.19,-181.874 1324.68,-180.413 1315.56,-175.011 1314.19,-181.874"/>
</g>
<!-- Node3 -->
<g id="node3" class="node"><title>Node3</title>
<g id="a_node3"><a xlink:href="../../d3/d5e/classParseStore.html#a238b27bbf877e69812ecc620fbc18d5f" target="_top" xlink:title="ParseStore::set_flag">
<polygon fill="white" stroke="black" points="1658,-47.5 1658,-66.5 1770,-66.5 1770,-47.5 1658,-47.5"/>
<text text-anchor="middle" x="1714" y="-54.5" font-family="Helvetica,sans-Serif" font-size="10.00">ParseStore::set_flag</text>
</a>
</g>
</g>
<!-- Node2&#45;&gt;Node3 -->
<g id="edge2" class="edge"><title>Node2&#45;&gt;Node3</title>
<path fill="none" stroke="midnightblue" d="M1596.55,-70.0924C1612.67,-68.2792 1630.62,-66.2611 1647.51,-64.3631"/>
<polygon fill="midnightblue" stroke="midnightblue" points="1648.31,-67.7951 1657.85,-63.1997 1647.53,-60.839 1648.31,-67.7951"/>
</g>
<!-- Node2&#45;&gt;Node4 -->
<g id="edge3" class="edge"><title>Node2&#45;&gt;Node4</title>
<path fill="none" stroke="midnightblue" d="M1596.64,-81.1776C1605.34,-84.1274 1613.6,-88.5179 1620,-95 1673.55,-149.201 1703.31,-395.072 1710.99,-467.11"/>
<polygon fill="midnightblue" stroke="midnightblue" points="1707.55,-467.878 1712.07,-477.462 1714.51,-467.153 1707.55,-467.878"/>
</g>
<!-- Node5 -->
<g id="node5" class="node"><title>Node5</title>
<g id="a_node5"><a xlink:href="../../da/d6a/classParseUtility.html#aabfa4c56607539ef14be2e2a7260006b" target="_top" xlink:title="ParseUtility::syn">
<polygon fill="white" stroke="black" points="1808,-477.5 1808,-496.5 1899,-496.5 1899,-477.5 1808,-477.5"/>
<text text-anchor="middle" x="1853.5" y="-484.5" font-family="Helvetica,sans-Serif" font-size="10.00">ParseUtility::syn</text>
</a>
</g>
</g>
<!-- Node4&#45;&gt;Node5 -->
<g id="edge4" class="edge"><title>Node4&#45;&gt;Node5</title>
<path fill="none" stroke="midnightblue" d="M1752.57,-487C1766.4,-487 1782.36,-487 1797.41,-487"/>
<polygon fill="midnightblue" stroke="midnightblue" points="1797.64,-490.5 1807.64,-487 1797.64,-483.5 1797.64,-490.5"/>
</g>
<!-- Node6 -->
<g id="node6" class="node"><title>Node6</title>
<g id="a_node6"><a xlink:href="../../d3/d5e/classParseStore.html#ab21a4aeadb4cc4938b58cbefbb8634e8" target="_top" xlink:title="ParseStore::currentInstance">
<polygon fill="white" stroke="black" points="1935,-496.5 1935,-515.5 2083,-515.5 2083,-496.5 1935,-496.5"/>
<text text-anchor="middle" x="2009" y="-503.5" font-family="Helvetica,sans-Serif" font-size="10.00">ParseStore::currentInstance</text>
</a>
</g>
</g>
<!-- Node5&#45;&gt;Node6 -->
<g id="edge5" class="edge"><title>Node5&#45;&gt;Node6</title>
<path fill="none" stroke="midnightblue" d="M1899.31,-492.547C1907.41,-493.549 1916.09,-494.624 1924.88,-495.712"/>
<polygon fill="midnightblue" stroke="midnightblue" points="1924.48,-499.188 1934.83,-496.943 1925.34,-492.241 1924.48,-499.188"/>
</g>
<!-- Node7 -->
<g id="node7" class="node"><title>Node7</title>
<g id="a_node7"><a xlink:href="../../d3/d5e/classParseStore.html#ae7b3d82d22174c1a1165a592d6c1700c" target="_top" xlink:title="ParseStore::filename">
<polygon fill="white" stroke="black" points="1952,-458.5 1952,-477.5 2066,-477.5 2066,-458.5 1952,-458.5"/>
<text text-anchor="middle" x="2009" y="-465.5" font-family="Helvetica,sans-Serif" font-size="10.00">ParseStore::filename</text>
</a>
</g>
</g>
<!-- Node5&#45;&gt;Node7 -->
<g id="edge6" class="edge"><title>Node5&#45;&gt;Node7</title>
<path fill="none" stroke="midnightblue" d="M1899.31,-481.453C1912.56,-479.814 1927.35,-477.983 1941.64,-476.213"/>
<polygon fill="midnightblue" stroke="midnightblue" points="1942.45,-479.641 1951.94,-474.939 1941.59,-472.694 1942.45,-479.641"/>
</g>
<!-- Node8&#45;&gt;Node4 -->
<g id="edge50" class="edge"><title>Node8&#45;&gt;Node4</title>
<path fill="none" stroke="midnightblue" d="M224.392,-199.591C230.278,-261.025 265.26,-599.212 329,-677 422.729,-791.387 486.117,-810 634,-810 634,-810 634,-810 1370,-810 1482.02,-810 1533.92,-849.682 1620,-778 1704.49,-707.646 1713.13,-560.431 1713.36,-506.956"/>
<polygon fill="midnightblue" stroke="midnightblue" points="1716.86,-506.745 1713.3,-496.766 1709.86,-506.786 1716.86,-506.745"/>
</g>
<!-- Node9 -->
<g id="node9" class="node"><title>Node9</title>
<g id="a_node9"><a xlink:href="../../d0/df6/classCParser.html#a8b303b41d0199334a5987bb471063729" target="_top" xlink:title="CParser::explicit_scope_spec">
<polygon fill="white" stroke="black" points="1117,-180.5 1117,-199.5 1272,-199.5 1272,-180.5 1117,-180.5"/>
<text text-anchor="middle" x="1194.5" y="-187.5" font-family="Helvetica,sans-Serif" font-size="10.00">CParser::explicit_scope_spec</text>
</a>
</g>
</g>
<!-- Node8&#45;&gt;Node9 -->
<g id="edge8" class="edge"><title>Node8&#45;&gt;Node9</title>
<path fill="none" stroke="midnightblue" d="M293.228,-190C374.899,-190 514.271,-190 634,-190 634,-190 634,-190 837.5,-190 929.25,-190 1034.3,-190 1106.37,-190"/>
<polygon fill="midnightblue" stroke="midnightblue" points="1106.76,-193.5 1116.76,-190 1106.76,-186.5 1106.76,-193.5"/>
</g>
<!-- Node12 -->
<g id="node12" class="node"><title>Node12</title>
<g id="a_node12"><a xlink:href="../../d0/df6/classCParser.html#aea0a3166305befe762f047b6e4a6f90f" target="_top" xlink:title="CParser::unscoped_member_name">
<polygon fill="white" stroke="black" points="329,-648.5 329,-667.5 511,-667.5 511,-648.5 329,-648.5"/>
<text text-anchor="middle" x="420" y="-655.5" font-family="Helvetica,sans-Serif" font-size="10.00">CParser::unscoped_member_name</text>
</a>
</g>
</g>
<!-- Node8&#45;&gt;Node12 -->
<g id="edge16" class="edge"><title>Node8&#45;&gt;Node12</title>
<path fill="none" stroke="midnightblue" d="M227.583,-199.775C251.933,-258.064 378.034,-559.932 411.07,-639.016"/>
<polygon fill="midnightblue" stroke="midnightblue" points="407.855,-640.401 414.939,-648.279 414.314,-637.703 407.855,-640.401"/>
</g>
<!-- Node9&#45;&gt;Node3 -->
<g id="edge14" class="edge"><title>Node9&#45;&gt;Node3</title>
<path fill="none" stroke="midnightblue" d="M1204.04,-180.224C1221.53,-160.85 1263.53,-117.515 1308,-95 1417.17,-39.7296 1564.1,-41.8698 1647.66,-49.0248"/>
<polygon fill="midnightblue" stroke="midnightblue" points="1647.5,-52.5247 1657.77,-49.9424 1648.13,-45.5533 1647.5,-52.5247"/>
</g>
<!-- Node9&#45;&gt;Node4 -->
<g id="edge15" class="edge"><title>Node9&#45;&gt;Node4</title>
<path fill="none" stroke="midnightblue" d="M1198.31,-199.54C1211.07,-242.231 1264.8,-415.113 1308,-449 1362.36,-491.64 1570.22,-491.298 1665.17,-488.768"/>
<polygon fill="midnightblue" stroke="midnightblue" points="1665.47,-492.261 1675.36,-488.477 1665.27,-485.264 1665.47,-492.261"/>
</g>
<!-- Node9&#45;&gt;Node10 -->
<g id="edge9" class="edge"><title>Node9&#45;&gt;Node10</title>
<path fill="none" stroke="midnightblue" d="M1272.17,-190C1281.75,-190 1291.49,-190 1300.91,-190"/>
<polygon fill="midnightblue" stroke="midnightblue" points="1300.98,-193.5 1310.98,-190 1300.98,-186.5 1300.98,-193.5"/>
</g>
<!-- Node10&#45;&gt;Node4 -->
<g id="edge13" class="edge"><title>Node10&#45;&gt;Node4</title>
<path fill="none" stroke="midnightblue" d="M1418.44,-199.531C1486.76,-213.343 1604.81,-238.717 1620,-252 1686.38,-310.047 1705.85,-421.782 1711.16,-467.138"/>
<polygon fill="midnightblue" stroke="midnightblue" points="1707.69,-467.59 1712.22,-477.166 1714.65,-466.852 1707.69,-467.59"/>
</g>
<!-- Node11 -->
<g id="node11" class="node"><title>Node11</title>
<g id="a_node11"><a xlink:href="../../d0/df6/classCParser.html#aa127d8f0df3a28071ce4fe43684632ef" target="_top" xlink:title="CParser::angle_balanced_list">
<polygon fill="white" stroke="black" points="1466,-180.5 1466,-199.5 1620,-199.5 1620,-180.5 1466,-180.5"/>
<text text-anchor="middle" x="1543" y="-187.5" font-family="Helvetica,sans-Serif" font-size="10.00">CParser::angle_balanced_list</text>
</a>
</g>
</g>
<!-- Node10&#45;&gt;Node11 -->
<g id="edge10" class="edge"><title>Node10&#45;&gt;Node11</title>
<path fill="none" stroke="midnightblue" d="M1427.27,-183.596C1436.41,-183.368 1446.04,-183.253 1455.67,-183.25"/>
<polygon fill="midnightblue" stroke="midnightblue" points="1455.68,-186.75 1465.69,-183.288 1455.71,-179.75 1455.68,-186.75"/>
</g>
<!-- Node11&#45;&gt;Node4 -->
<g id="edge12" class="edge"><title>Node11&#45;&gt;Node4</title>
<path fill="none" stroke="midnightblue" d="M1597.05,-199.644C1605.5,-203.07 1613.57,-207.712 1620,-214 1693.4,-285.772 1708.88,-417.692 1712.14,-467.378"/>
<polygon fill="midnightblue" stroke="midnightblue" points="1708.65,-467.635 1712.7,-477.425 1715.64,-467.246 1708.65,-467.635"/>
</g>
<!-- Node11&#45;&gt;Node10 -->
<g id="edge11" class="edge"><title>Node11&#45;&gt;Node10</title>
<path fill="none" stroke="midnightblue" d="M1465.69,-196.712C1456.32,-196.786 1446.78,-196.752 1437.55,-196.61"/>
<polygon fill="midnightblue" stroke="midnightblue" points="1437.34,-193.105 1427.27,-196.404 1437.2,-200.104 1437.34,-193.105"/>
</g>
<!-- Node12&#45;&gt;Node4 -->
<g id="edge49" class="edge"><title>Node12&#45;&gt;Node4</title>
<path fill="none" stroke="midnightblue" d="M440.183,-667.656C464.498,-679.557 507.954,-699.709 547,-712 671.923,-751.324 704.534,-772 835.5,-772 835.5,-772 835.5,-772 1370,-772 1481.86,-772 1532.25,-812.366 1620,-743 1695.73,-683.14 1709.82,-555.968 1712.42,-506.895"/>
<polygon fill="midnightblue" stroke="midnightblue" points="1715.93,-506.811 1712.85,-496.673 1708.93,-506.517 1715.93,-506.811"/>
</g>
<!-- Node12&#45;&gt;Node10 -->
<g id="edge17" class="edge"><title>Node12&#45;&gt;Node10</title>
<path fill="none" stroke="midnightblue" d="M424.586,-648.211C448.723,-584.205 593.903,-228 835.5,-228 835.5,-228 835.5,-228 1016.5,-228 1130.37,-228 1159.16,-224.304 1272,-209 1286.22,-207.071 1301.52,-204.345 1315.62,-201.559"/>
<polygon fill="midnightblue" stroke="midnightblue" points="1316.55,-204.944 1325.65,-199.53 1315.16,-198.083 1316.55,-204.944"/>
</g>
<!-- Node13 -->
<g id="node13" class="node"><title>Node13</title>
<g id="a_node13"><a xlink:href="../../d0/df6/classCParser.html#ac5cba09faa6ccf6314b75950f0d8e40e" target="_top" xlink:title="CParser::dtor_member_name">
<polygon fill="white" stroke="black" points="759,-724.5 759,-743.5 914,-743.5 914,-724.5 759,-724.5"/>
<text text-anchor="middle" x="836.5" y="-731.5" font-family="Helvetica,sans-Serif" font-size="10.00">CParser::dtor_member_name</text>
</a>
</g>
</g>
<!-- Node12&#45;&gt;Node13 -->
<g id="edge18" class="edge"><title>Node12&#45;&gt;Node13</title>
<path fill="none" stroke="midnightblue" d="M473.077,-667.548C549.576,-681.575 692.073,-707.702 773.743,-722.677"/>
<polygon fill="midnightblue" stroke="midnightblue" points="773.169,-726.13 783.636,-724.491 774.431,-719.244 773.169,-726.13"/>
</g>
<!-- Node14 -->
<g id="node14" class="node"><title>Node14</title>
<g id="a_node14"><a xlink:href="../../d0/df6/classCParser.html#ac99dcea42e50abf304d0a7bb001b1829" target="_top" xlink:title="CParser::operator_member_name">
<polygon fill="white" stroke="black" points="547,-648.5 547,-667.5 723,-667.5 723,-648.5 547,-648.5"/>
<text text-anchor="middle" x="635" y="-655.5" font-family="Helvetica,sans-Serif" font-size="10.00">CParser::operator_member_name</text>
</a>
</g>
</g>
<!-- Node12&#45;&gt;Node14 -->
<g id="edge20" class="edge"><title>Node12&#45;&gt;Node14</title>
<path fill="none" stroke="midnightblue" d="M511.022,-658C519.417,-658 527.952,-658 536.412,-658"/>
<polygon fill="midnightblue" stroke="midnightblue" points="536.678,-661.5 546.678,-658 536.678,-654.5 536.678,-661.5"/>
</g>
<!-- Node13&#45;&gt;Node4 -->
<g id="edge19" class="edge"><title>Node13&#45;&gt;Node4</title>
<path fill="none" stroke="midnightblue" d="M914.236,-734C986.334,-734 1097.24,-734 1193.5,-734 1193.5,-734 1193.5,-734 1370,-734 1481.62,-734 1530.18,-776.274 1620,-710 1687.69,-660.054 1706.4,-551.512 1711.33,-506.829"/>
<polygon fill="midnightblue" stroke="midnightblue" points="1714.83,-506.988 1712.32,-496.693 1707.86,-506.302 1714.83,-506.988"/>
</g>
<!-- Node14&#45;&gt;Node4 -->
<g id="edge48" class="edge"><title>Node14&#45;&gt;Node4</title>
<path fill="none" stroke="midnightblue" d="M694.498,-667.54C768.711,-678.796 900.742,-696 1014.5,-696 1014.5,-696 1014.5,-696 1370,-696 1483.77,-696 1527.54,-707.292 1620,-641 1667.66,-606.827 1695.44,-539.932 1706.86,-506.703"/>
<polygon fill="midnightblue" stroke="midnightblue" points="1710.31,-507.413 1710.11,-496.82 1703.66,-505.226 1710.31,-507.413"/>
</g>
<!-- Node15 -->
<g id="node15" class="node"><title>Node15</title>
<g id="a_node15"><a xlink:href="../../d0/df6/classCParser.html#a4bf5a797adb8a33705182662a6a8f45b" target="_top" xlink:title="CParser::operator_identifier">
<polygon fill="white" stroke="black" points="763,-610.5 763,-629.5 910,-629.5 910,-610.5 763,-610.5"/>
<text text-anchor="middle" x="836.5" y="-617.5" font-family="Helvetica,sans-Serif" font-size="10.00">CParser::operator_identifier</text>
</a>
</g>
</g>
<!-- Node14&#45;&gt;Node15 -->
<g id="edge21" class="edge"><title>Node14&#45;&gt;Node15</title>
<path fill="none" stroke="midnightblue" d="M686.085,-648.46C713.239,-643.288 746.986,-636.86 775.533,-631.422"/>
<polygon fill="midnightblue" stroke="midnightblue" points="776.226,-634.853 785.395,-629.544 774.916,-627.977 776.226,-634.853"/>
</g>
<!-- Node15&#45;&gt;Node4 -->
<g id="edge47" class="edge"><title>Node15&#45;&gt;Node4</title>
<path fill="none" stroke="midnightblue" d="M841.413,-610.163C864.865,-552.989 992.594,-266 1193.5,-266 1193.5,-266 1193.5,-266 1370,-266 1482.13,-266 1528.88,-234.643 1620,-300 1677.51,-341.25 1701.39,-428.31 1709.49,-467.342"/>
<polygon fill="midnightblue" stroke="midnightblue" points="1706.06,-468.055 1711.4,-477.203 1712.93,-466.719 1706.06,-468.055"/>
</g>
<!-- Node16 -->
<g id="node16" class="node"><title>Node16</title>
<g id="a_node16"><a xlink:href="../../d0/df6/classCParser.html#a177b7d8d53b6d7c2c89bbea896b3d154" target="_top" xlink:title="CParser::op">
<polygon fill="white" stroke="black" points="979.5,-648.5 979.5,-667.5 1051.5,-667.5 1051.5,-648.5 979.5,-648.5"/>
<text text-anchor="middle" x="1015.5" y="-655.5" font-family="Helvetica,sans-Serif" font-size="10.00">CParser::op</text>
</a>
</g>
</g>
<!-- Node15&#45;&gt;Node16 -->
<g id="edge22" class="edge"><title>Node15&#45;&gt;Node16</title>
<path fill="none" stroke="midnightblue" d="M882.165,-629.589C908.863,-635.321 942.682,-642.581 969.448,-648.328"/>
<polygon fill="midnightblue" stroke="midnightblue" points="968.82,-651.773 979.332,-650.45 970.29,-644.929 968.82,-651.773"/>
</g>
<!-- Node17 -->
<g id="node17" class="node"><title>Node17</title>
<g id="a_node17"><a xlink:href="../../d0/df6/classCParser.html#ab214b7a662d6c62ddf8d51f0116865cf" target="_top" xlink:title="CParser::new_or_delete">
<polygon fill="white" stroke="black" points="950,-610.5 950,-629.5 1081,-629.5 1081,-610.5 950,-610.5"/>
<text text-anchor="middle" x="1015.5" y="-617.5" font-family="Helvetica,sans-Serif" font-size="10.00">CParser::new_or_delete</text>
</a>
</g>
</g>
<!-- Node15&#45;&gt;Node17 -->
<g id="edge24" class="edge"><title>Node15&#45;&gt;Node17</title>
<path fill="none" stroke="midnightblue" d="M910.003,-620C919.782,-620 929.829,-620 939.648,-620"/>
<polygon fill="midnightblue" stroke="midnightblue" points="939.775,-623.5 949.775,-620 939.775,-616.5 939.775,-623.5"/>
</g>
<!-- Node18 -->
<g id="node18" class="node"><title>Node18</title>
<g id="a_node18"><a xlink:href="../../d0/df6/classCParser.html#a5426875088dc6d2b5deaef3b61c55135" target="_top" xlink:title="CParser::type">
<polygon fill="white" stroke="black" points="975.5,-515.5 975.5,-534.5 1055.5,-534.5 1055.5,-515.5 975.5,-515.5"/>
<text text-anchor="middle" x="1015.5" y="-522.5" font-family="Helvetica,sans-Serif" font-size="10.00">CParser::type</text>
</a>
</g>
</g>
<!-- Node15&#45;&gt;Node18 -->
<g id="edge26" class="edge"><title>Node15&#45;&gt;Node18</title>
<path fill="none" stroke="midnightblue" d="M855.446,-610.368C886.668,-593.61 951.137,-559.008 987.685,-539.392"/>
<polygon fill="midnightblue" stroke="midnightblue" points="989.614,-542.329 996.77,-534.516 986.304,-536.161 989.614,-542.329"/>
</g>
<!-- Node16&#45;&gt;Node4 -->
<g id="edge23" class="edge"><title>Node16&#45;&gt;Node4</title>
<path fill="none" stroke="midnightblue" d="M1051.74,-659.046C1165.91,-661.826 1523.79,-665.57 1620,-607 1660.53,-582.33 1690.04,-533.024 1703.99,-505.924"/>
<polygon fill="midnightblue" stroke="midnightblue" points="1707.25,-507.236 1708.57,-496.723 1700.98,-504.119 1707.25,-507.236"/>
</g>
<!-- Node17&#45;&gt;Node4 -->
<g id="edge25" class="edge"><title>Node17&#45;&gt;Node4</title>
<path fill="none" stroke="midnightblue" d="M1081.36,-627.631C1195.49,-638.296 1437.42,-648.411 1620,-570 1653.43,-555.643 1683.06,-524.346 1699.47,-504.551"/>
<polygon fill="midnightblue" stroke="midnightblue" points="1702.31,-506.598 1705.85,-496.611 1696.85,-502.212 1702.31,-506.598"/>
</g>
<!-- Node18&#45;&gt;Node4 -->
<g id="edge46" class="edge"><title>Node18&#45;&gt;Node4</title>
<path fill="none" stroke="midnightblue" d="M1055.71,-534.339C1153.48,-555.884 1414.99,-602.749 1620,-542 1647.26,-533.922 1674.84,-516.128 1692.81,-502.955"/>
<polygon fill="midnightblue" stroke="midnightblue" points="1695.4,-505.383 1701.28,-496.564 1691.19,-499.796 1695.4,-505.383"/>
</g>
<!-- Node19 -->
<g id="node19" class="node"><title>Node19</title>
<g id="a_node19"><a xlink:href="../../d0/df6/classCParser.html#aeb64a7eb39e1e247d6b06c833355fd1d" target="_top" xlink:title="CParser::cv_qualifier">
<polygon fill="white" stroke="black" points="1138,-515.5 1138,-534.5 1251,-534.5 1251,-515.5 1138,-515.5"/>
<text text-anchor="middle" x="1194.5" y="-522.5" font-family="Helvetica,sans-Serif" font-size="10.00">CParser::cv_qualifier</text>
</a>
</g>
</g>
<!-- Node18&#45;&gt;Node19 -->
<g id="edge27" class="edge"><title>Node18&#45;&gt;Node19</title>
<path fill="none" stroke="midnightblue" d="M1055.78,-525C1076.9,-525 1103.51,-525 1127.69,-525"/>
<polygon fill="midnightblue" stroke="midnightblue" points="1127.88,-528.5 1137.88,-525 1127.88,-521.5 1127.88,-528.5"/>
</g>
<!-- Node21 -->
<g id="node21" class="node"><title>Node21</title>
<g id="a_node21"><a xlink:href="../../d0/df6/classCParser.html#a03c75fc2be131ba2c0a21fd9687b49ca" target="_top" xlink:title="CParser::type_name">
<polygon fill="white" stroke="black" points="1138,-409.5 1138,-428.5 1251,-428.5 1251,-409.5 1138,-409.5"/>
<text text-anchor="middle" x="1194.5" y="-416.5" font-family="Helvetica,sans-Serif" font-size="10.00">CParser::type_name</text>
</a>
</g>
</g>
<!-- Node18&#45;&gt;Node21 -->
<g id="edge30" class="edge"><title>Node18&#45;&gt;Node21</title>
<path fill="none" stroke="midnightblue" d="M1032.52,-515.406C1063.51,-496.849 1131.84,-455.923 1168.73,-433.834"/>
<polygon fill="midnightblue" stroke="midnightblue" points="1170.61,-436.789 1177.39,-428.648 1167.01,-430.784 1170.61,-436.789"/>
</g>
<!-- Node27 -->
<g id="node27" class="node"><title>Node27</title>
<g id="a_node27"><a xlink:href="../../d0/df6/classCParser.html#acec16523a6abcc5dcaa503fdfec12d5e" target="_top" xlink:title="CParser::indirection\l_modifiers">
<polygon fill="white" stroke="black" points="1314.5,-333 1314.5,-363 1423.5,-363 1423.5,-333 1314.5,-333"/>
<text text-anchor="start" x="1322.5" y="-351" font-family="Helvetica,sans-Serif" font-size="10.00">CParser::indirection</text>
<text text-anchor="middle" x="1369" y="-340" font-family="Helvetica,sans-Serif" font-size="10.00">_modifiers</text>
</a>
</g>
</g>
<!-- Node18&#45;&gt;Node27 -->
<g id="edge42" class="edge"><title>Node18&#45;&gt;Node27</title>
<path fill="none" stroke="midnightblue" d="M1021.26,-515.292C1033.5,-491.418 1068.54,-429.641 1117,-400 1174.06,-365.096 1250.65,-353.253 1304.16,-349.424"/>
<polygon fill="midnightblue" stroke="midnightblue" points="1304.45,-352.912 1314.21,-348.779 1304,-345.927 1304.45,-352.912"/>
</g>
<!-- Node19&#45;&gt;Node4 -->
<g id="edge29" class="edge"><title>Node19&#45;&gt;Node4</title>
<path fill="none" stroke="midnightblue" d="M1251.04,-530.345C1332.69,-536.856 1489.57,-544.227 1620,-520 1641.6,-515.988 1664.9,-507.713 1682.77,-500.454"/>
<polygon fill="midnightblue" stroke="midnightblue" points="1684.22,-503.643 1692.1,-496.559 1681.52,-497.183 1684.22,-503.643"/>
</g>
<!-- Node20 -->
<g id="node20" class="node"><title>Node20</title>
<g id="a_node20"><a xlink:href="../../d0/df6/classCParser.html#a2912da073892123622f3c380820f7a12" target="_top" xlink:title="CParser::typeCombine">
<polygon fill="white" stroke="black" points="1308,-496.5 1308,-515.5 1430,-515.5 1430,-496.5 1308,-496.5"/>
<text text-anchor="middle" x="1369" y="-503.5" font-family="Helvetica,sans-Serif" font-size="10.00">CParser::typeCombine</text>
</a>
</g>
</g>
<!-- Node19&#45;&gt;Node20 -->
<g id="edge28" class="edge"><title>Node19&#45;&gt;Node20</title>
<path fill="none" stroke="midnightblue" d="M1251.03,-518.884C1265.9,-517.246 1282.16,-515.455 1297.71,-513.742"/>
<polygon fill="midnightblue" stroke="midnightblue" points="1298.25,-517.204 1307.8,-512.63 1297.48,-510.246 1298.25,-517.204"/>
</g>
<!-- Node21&#45;&gt;Node4 -->
<g id="edge41" class="edge"><title>Node21&#45;&gt;Node4</title>
<path fill="none" stroke="midnightblue" d="M1233.85,-409.499C1310.08,-392.479 1484.96,-362.841 1620,-411 1652.53,-422.601 1681.9,-451.005 1698.58,-469.612"/>
<polygon fill="midnightblue" stroke="midnightblue" points="1696.12,-472.117 1705.31,-477.377 1701.4,-467.53 1696.12,-472.117"/>
</g>
<!-- Node22 -->
<g id="node22" class="node"><title>Node22</title>
<g id="a_node22"><a xlink:href="../../d0/df6/classCParser.html#a10a7b42902ca78cb3c11c04eb3b55d96" target="_top" xlink:title="CParser::builtin_type">
<polygon fill="white" stroke="black" points="1312.5,-420.5 1312.5,-439.5 1425.5,-439.5 1425.5,-420.5 1312.5,-420.5"/>
<text text-anchor="middle" x="1369" y="-427.5" font-family="Helvetica,sans-Serif" font-size="10.00">CParser::builtin_type</text>
</a>
</g>
</g>
<!-- Node21&#45;&gt;Node22 -->
<g id="edge31" class="edge"><title>Node21&#45;&gt;Node22</title>
<path fill="none" stroke="midnightblue" d="M1251.03,-422.541C1267.26,-423.576 1285.16,-424.718 1301.97,-425.79"/>
<polygon fill="midnightblue" stroke="midnightblue" points="1302.08,-429.303 1312.28,-426.447 1302.52,-422.317 1302.08,-429.303"/>
</g>
<!-- Node24 -->
<g id="node24" class="node"><title>Node24</title>
<g id="a_node24"><a xlink:href="../../d0/df6/classCParser.html#ab3ce487b55d4cee3cdcb791d4f7c33b0" target="_top" xlink:title="CParser::user_type">
<polygon fill="white" stroke="black" points="1315.5,-104.5 1315.5,-123.5 1422.5,-123.5 1422.5,-104.5 1315.5,-104.5"/>
<text text-anchor="middle" x="1369" y="-111.5" font-family="Helvetica,sans-Serif" font-size="10.00">CParser::user_type</text>
</a>
</g>
</g>
<!-- Node21&#45;&gt;Node24 -->
<g id="edge35" class="edge"><title>Node21&#45;&gt;Node24</title>
<path fill="none" stroke="midnightblue" d="M1198.4,-409.307C1209.04,-374.663 1248.52,-254.591 1308,-171 1318.96,-155.591 1334.52,-140.959 1347.04,-130.378"/>
<polygon fill="midnightblue" stroke="midnightblue" points="1349.62,-132.789 1355.13,-123.741 1345.18,-127.377 1349.62,-132.789"/>
</g>
<!-- Node22&#45;&gt;Node4 -->
<g id="edge34" class="edge"><title>Node22&#45;&gt;Node4</title>
<path fill="none" stroke="midnightblue" d="M1416.31,-439.581C1432.05,-442.728 1449.77,-446.147 1466,-449 1535.02,-461.133 1615.26,-473.082 1665.1,-480.25"/>
<polygon fill="midnightblue" stroke="midnightblue" points="1664.86,-483.751 1675.26,-481.705 1665.85,-476.822 1664.86,-483.751"/>
</g>
<!-- Node23 -->
<g id="node23" class="node"><title>Node23</title>
<g id="a_node23"><a xlink:href="../../d0/df6/classCParser.html#a2892a3b78b33e67d6b648ed24668fed0" target="_top" xlink:title="CParser::type_keyword">
<polygon fill="white" stroke="black" points="1480,-420.5 1480,-439.5 1606,-439.5 1606,-420.5 1480,-420.5"/>
<text text-anchor="middle" x="1543" y="-427.5" font-family="Helvetica,sans-Serif" font-size="10.00">CParser::type_keyword</text>
</a>
</g>
</g>
<!-- Node22&#45;&gt;Node23 -->
<g id="edge32" class="edge"><title>Node22&#45;&gt;Node23</title>
<path fill="none" stroke="midnightblue" d="M1425.84,-430C1439.87,-430 1455.12,-430 1469.82,-430"/>
<polygon fill="midnightblue" stroke="midnightblue" points="1469.89,-433.5 1479.89,-430 1469.89,-426.5 1469.89,-433.5"/>
</g>
<!-- Node23&#45;&gt;Node4 -->
<g id="edge33" class="edge"><title>Node23&#45;&gt;Node4</title>
<path fill="none" stroke="midnightblue" d="M1575.14,-439.563C1588.92,-443.865 1605.31,-449.075 1620,-454 1638.87,-460.327 1659.77,-467.709 1676.97,-473.885"/>
<polygon fill="midnightblue" stroke="midnightblue" points="1676.03,-477.266 1686.63,-477.364 1678.41,-470.681 1676.03,-477.266"/>
</g>
<!-- Node24&#45;&gt;Node2 -->
<g id="edge36" class="edge"><title>Node24&#45;&gt;Node2</title>
<path fill="none" stroke="midnightblue" d="M1413.4,-104.411C1436.41,-99.3287 1464.85,-93.0446 1489.13,-87.6797"/>
<polygon fill="midnightblue" stroke="midnightblue" points="1489.9,-91.095 1498.91,-85.5201 1488.39,-84.2598 1489.9,-91.095"/>
</g>
<!-- Node24&#45;&gt;Node4 -->
<g id="edge40" class="edge"><title>Node24&#45;&gt;Node4</title>
<path fill="none" stroke="midnightblue" d="M1417.29,-123.501C1487.68,-137.824 1612.57,-164.017 1620,-171 1706.95,-252.719 1713.94,-411.156 1713.56,-466.961"/>
<polygon fill="midnightblue" stroke="midnightblue" points="1710.05,-467.19 1713.39,-477.246 1717.05,-467.305 1710.05,-467.19"/>
</g>
<!-- Node24&#45;&gt;Node8 -->
<g id="edge37" class="edge"><title>Node24&#45;&gt;Node8</title>
<path fill="none" stroke="midnightblue" d="M1315.44,-117.49C1132.59,-129.632 523.448,-170.082 303.545,-184.685"/>
<polygon fill="midnightblue" stroke="midnightblue" points="303.117,-181.205 293.371,-185.36 303.581,-188.19 303.117,-181.205"/>
</g>
<!-- Node25 -->
<g id="node25" class="node"><title>Node25</title>
<g id="a_node25"><a xlink:href="../../da/d6a/classParseUtility.html#a128c7755b687730e50a5c063261f6c78" target="_top" xlink:title="ParseUtility::scopeCombine">
<polygon fill="white" stroke="black" points="1471,-104.5 1471,-123.5 1615,-123.5 1615,-104.5 1471,-104.5"/>
<text text-anchor="middle" x="1543" y="-111.5" font-family="Helvetica,sans-Serif" font-size="10.00">ParseUtility::scopeCombine</text>
</a>
</g>
</g>
<!-- Node24&#45;&gt;Node25 -->
<g id="edge38" class="edge"><title>Node24&#45;&gt;Node25</title>
<path fill="none" stroke="midnightblue" d="M1422.54,-114C1434.55,-114 1447.58,-114 1460.48,-114"/>
<polygon fill="midnightblue" stroke="midnightblue" points="1460.78,-117.5 1470.78,-114 1460.78,-110.5 1460.78,-117.5"/>
</g>
<!-- Node26 -->
<g id="node26" class="node"><title>Node26</title>
<g id="a_node26"><a xlink:href="../../d4/d6e/classCCCC__Project.html#ac0565e746210778bc6f165130464041b" target="_top" xlink:title="CCCC_Project::name">
<polygon fill="white" stroke="black" points="1656,-104.5 1656,-123.5 1772,-123.5 1772,-104.5 1656,-104.5"/>
<text text-anchor="middle" x="1714" y="-111.5" font-family="Helvetica,sans-Serif" font-size="10.00">CCCC_Project::name</text>
</a>
</g>
</g>
<!-- Node25&#45;&gt;Node26 -->
<g id="edge39" class="edge"><title>Node25&#45;&gt;Node26</title>
<path fill="none" stroke="midnightblue" d="M1615.18,-114C1625.22,-114 1635.52,-114 1645.5,-114"/>
<polygon fill="midnightblue" stroke="midnightblue" points="1645.74,-117.5 1655.74,-114 1645.74,-110.5 1645.74,-117.5"/>
</g>
<!-- Node27&#45;&gt;Node4 -->
<g id="edge45" class="edge"><title>Node27&#45;&gt;Node4</title>
<path fill="none" stroke="midnightblue" d="M1403.4,-332.924C1453.98,-312.534 1551.4,-283.041 1620,-323 1674.34,-354.653 1699.5,-431.166 1708.67,-467.377"/>
<polygon fill="midnightblue" stroke="midnightblue" points="1705.29,-468.311 1711.02,-477.227 1712.1,-466.688 1705.29,-468.311"/>
</g>
<!-- Node28 -->
<g id="node28" class="node"><title>Node28</title>
<g id="a_node28"><a xlink:href="../../d0/df6/classCParser.html#a80be2f0d41b613906058b6df76ce7815" target="_top" xlink:title="CParser::indirection\l_modifier">
<polygon fill="white" stroke="black" points="1488.5,-333 1488.5,-363 1597.5,-363 1597.5,-333 1488.5,-333"/>
<text text-anchor="start" x="1496.5" y="-351" font-family="Helvetica,sans-Serif" font-size="10.00">CParser::indirection</text>
<text text-anchor="middle" x="1543" y="-340" font-family="Helvetica,sans-Serif" font-size="10.00">_modifier</text>
</a>
</g>
</g>
<!-- Node27&#45;&gt;Node28 -->
<g id="edge43" class="edge"><title>Node27&#45;&gt;Node28</title>
<path fill="none" stroke="midnightblue" d="M1423.95,-348C1441.08,-348 1460.19,-348 1477.96,-348"/>
<polygon fill="midnightblue" stroke="midnightblue" points="1478.24,-351.5 1488.24,-348 1478.24,-344.5 1478.24,-351.5"/>
</g>
<!-- Node28&#45;&gt;Node4 -->
<g id="edge44" class="edge"><title>Node28&#45;&gt;Node4</title>
<path fill="none" stroke="midnightblue" d="M1592.47,-363.016C1602.04,-367.094 1611.69,-372.064 1620,-378 1655.56,-403.399 1686.11,-445.27 1701.78,-469.044"/>
<polygon fill="midnightblue" stroke="midnightblue" points="1698.85,-470.963 1707.21,-477.474 1704.74,-467.172 1698.85,-470.963"/>
</g>
</g>
</svg>
        <g id="navigator" transform="translate(0 0)" fill="#404254">
                <rect fill="#f2f5e9" fill-opacity="0.5" stroke="#606060" stroke-width=".5" x="0" y="0" width="60" height="60"/>
                <use id="zoomplus" xlink:href="#zoomPlus" x="17" y="9" onmousedown="handleZoom(evt,'in')"/>
                <use id="zoomminus" xlink:href="#zoomMin" x="42" y="9" onmousedown="handleZoom(evt,'out')"/>
                <use id="reset" xlink:href="#resetDef" x="30" y="36" onmousedown="handleReset()"/>
                <g id="arrowUp" xlink:href="#dirArrow" transform="translate(30 24)" onmousedown="handlePan(0,-1)">
                  <use xlink:href="#rim" fill="#404040">
                        <set attributeName="fill" to="#808080" begin="arrowUp.mouseover" end="arrowUp.mouseout"/>
                  </use>
                  <path fill="none" stroke="white" stroke-width="1.5" d="M0,-3.0v7 M-2.5,-0.5L0,-3.0L2.5,-0.5"/>
                </g>
                <g id="arrowRight" xlink:href="#dirArrow" transform="rotate(90) translate(36 -43)" onmousedown="handlePan(1,0)">
                  <use xlink:href="#rim" fill="#404040">
                        <set attributeName="fill" to="#808080" begin="arrowRight.mouseover" end="arrowRight.mouseout"/>
                  </use>
                  <path fill="none" stroke="white" stroke-width="1.5" d="M0,-3.0v7 M-2.5,-0.5L0,-3.0L2.5,-0.5"/>
                </g>
                <g id="arrowDown" xlink:href="#dirArrow" transform="rotate(180) translate(-30 -48)" onmousedown="handlePan(0,1)">
                  <use xlink:href="#rim" fill="#404040">
                        <set attributeName="fill" to="#808080" begin="arrowDown.mouseover" end="arrowDown.mouseout"/>
                  </use>
                  <path fill="none" stroke="white" stroke-width="1.5" d="M0,-3.0v7 M-2.5,-0.5L0,-3.0L2.5,-0.5"/>
                </g>
                <g id="arrowLeft" xlink:href="#dirArrow" transform="rotate(270) translate(-36 17)" onmousedown="handlePan(-1,0)">
                  <use xlink:href="#rim" fill="#404040">
                        <set attributeName="fill" to="#808080" begin="arrowLeft.mouseover" end="arrowLeft.mouseout"/>
                  </use>
                  <path fill="none" stroke="white" stroke-width="1.5" d="M0,-3.0v7 M-2.5,-0.5L0,-3.0L2.5,-0.5"/>
                </g>
        </g>
        <svg viewBox="0 0 15 15" width="100%" height="30px" preserveAspectRatio="xMaxYMin meet">
         <g id="arrow_out" transform="scale(0.3 0.3)">
          <a xlink:href="classCParser_a54e3367626ab89ed0c73775b5a76816e_cgraph_org.svg" target="_base">
           <rect id="button" ry="5" rx="5" y="6" x="6" height="38" width="38"
                fill="#f2f5e9" fill-opacity="0.5" stroke="#606060" stroke-width="1.0"/>
           <path id="arrow"
             d="M 11.500037,31.436501 C 11.940474,20.09759 22.043105,11.32322 32.158766,21.979434 L 37.068811,17.246167 C 37.068811,17.246167 37.088388,32 37.088388,32 L 22.160133,31.978069 C 22.160133,31.978069 26.997745,27.140456 26.997745,27.140456 C 18.528582,18.264221 13.291696,25.230495 11.500037,31.436501 z"
             style="fill:#404040;"/>
          </a>
         </g>
        </svg>
</svg>
