<?xml version="1.0" encoding="UTF-8" standalone="no"?>
<!DOCTYPE svg PUBLIC "-//W3C//DTD SVG 1.1//EN"
 "http://www.w3.org/Graphics/SVG/1.1/DTD/svg11.dtd">
<!-- Generated by graphviz version 2.38.0 (20140413.2041)
 -->
<!-- Title: JLexer::act123 Pages: 1 -->
<svg width="554pt" height="104pt"
 viewBox="0.00 0.00 554.00 104.00" xmlns="http://www.w3.org/2000/svg" xmlns:xlink="http://www.w3.org/1999/xlink">
<g id="graph0" class="graph" transform="scale(1 1) rotate(0) translate(4 100)">
<title>JLexer::act123</title>
<polygon fill="white" stroke="none" points="-4,4 -4,-100 550,-100 550,4 -4,4"/>
<!-- Node1 -->
<g id="node1" class="node"><title>Node1</title>
<polygon fill="#bfbfbf" stroke="black" points="0,-38.5 0,-57.5 86,-57.5 86,-38.5 0,-38.5"/>
<text text-anchor="middle" x="43" y="-45.5" font-family="Helvetica,sans-Serif" font-size="10.00">JLexer::act123</text>
</g>
<!-- Node2 -->
<g id="node2" class="node"><title>Node2</title>
<g id="a_node2"><a xlink:href="../../d8/d0b/JLexer_8cpp.html#a44bf86dbdeb42f4ee27685ea8e0ce360" target="_top" xlink:title="endOfCommentLine">
<polygon fill="white" stroke="black" points="122,-38.5 122,-57.5 233,-57.5 233,-38.5 122,-38.5"/>
<text text-anchor="middle" x="177.5" y="-45.5" font-family="Helvetica,sans-Serif" font-size="10.00">endOfCommentLine</text>
</a>
</g>
</g>
<!-- Node1&#45;&gt;Node2 -->
<g id="edge1" class="edge"><title>Node1&#45;&gt;Node2</title>
<path fill="none" stroke="midnightblue" d="M86.2881,-48C94.3446,-48 102.947,-48 111.522,-48"/>
<polygon fill="midnightblue" stroke="midnightblue" points="111.54,-51.5001 121.54,-48 111.54,-44.5001 111.54,-51.5001"/>
</g>
<!-- Node3 -->
<g id="node3" class="node"><title>Node3</title>
<g id="a_node3"><a xlink:href="../../d8/d0b/JLexer_8cpp.html#acf97acbf9c6e628252fdf410a7934d93" target="_top" xlink:title="IncrementCount">
<polygon fill="white" stroke="black" points="269,-57.5 269,-76.5 361,-76.5 361,-57.5 269,-57.5"/>
<text text-anchor="middle" x="315" y="-64.5" font-family="Helvetica,sans-Serif" font-size="10.00">IncrementCount</text>
</a>
</g>
</g>
<!-- Node2&#45;&gt;Node3 -->
<g id="edge2" class="edge"><title>Node2&#45;&gt;Node3</title>
<path fill="none" stroke="midnightblue" d="M233.222,-55.6733C241.577,-56.8448 250.207,-58.0548 258.577,-59.2285"/>
<polygon fill="midnightblue" stroke="midnightblue" points="258.232,-62.7143 268.621,-60.6369 259.204,-55.7821 258.232,-62.7143"/>
</g>
<!-- Node6 -->
<g id="node6" class="node"><title>Node6</title>
<g id="a_node6"><a xlink:href="../../d8/d0b/JLexer_8cpp.html#af4cc501d449d5ef673ee6c023aa27bbf" target="_top" xlink:title="endOfLine">
<polygon fill="white" stroke="black" points="282,-19.5 282,-38.5 348,-38.5 348,-19.5 282,-19.5"/>
<text text-anchor="middle" x="315" y="-26.5" font-family="Helvetica,sans-Serif" font-size="10.00">endOfLine</text>
</a>
</g>
</g>
<!-- Node2&#45;&gt;Node6 -->
<g id="edge5" class="edge"><title>Node2&#45;&gt;Node6</title>
<path fill="none" stroke="midnightblue" d="M233.222,-40.3267C246.076,-38.5244 259.58,-36.6308 271.788,-34.919"/>
<polygon fill="midnightblue" stroke="midnightblue" points="272.278,-38.3847 281.695,-33.5298 271.306,-31.4525 272.278,-38.3847"/>
</g>
<!-- Node4 -->
<g id="node4" class="node"><title>Node4</title>
<g id="a_node4"><a xlink:href="../../d3/d5e/classParseStore.html#ab21a4aeadb4cc4938b58cbefbb8634e8" target="_top" xlink:title="ParseStore::currentInstance">
<polygon fill="white" stroke="black" points="397.5,-38.5 397.5,-57.5 545.5,-57.5 545.5,-38.5 397.5,-38.5"/>
<text text-anchor="middle" x="471.5" y="-45.5" font-family="Helvetica,sans-Serif" font-size="10.00">ParseStore::currentInstance</text>
</a>
</g>
</g>
<!-- Node3&#45;&gt;Node4 -->
<g id="edge3" class="edge"><title>Node3&#45;&gt;Node4</title>
<path fill="none" stroke="midnightblue" d="M361.103,-61.4533C369.386,-60.4347 378.27,-59.3422 387.262,-58.2363"/>
<polygon fill="midnightblue" stroke="midnightblue" points="387.937,-61.6798 397.435,-56.9853 387.083,-54.7322 387.937,-61.6798"/>
</g>
<!-- Node5 -->
<g id="node5" class="node"><title>Node5</title>
<g id="a_node5"><a xlink:href="../../d3/d5e/classParseStore.html#abbc0857a7efa036b5335b71be05cb0f6" target="_top" xlink:title="ParseStore::IncrementCount">
<polygon fill="white" stroke="black" points="397,-76.5 397,-95.5 546,-95.5 546,-76.5 397,-76.5"/>
<text text-anchor="middle" x="471.5" y="-83.5" font-family="Helvetica,sans-Serif" font-size="10.00">ParseStore::IncrementCount</text>
</a>
</g>
</g>
<!-- Node3&#45;&gt;Node5 -->
<g id="edge4" class="edge"><title>Node3&#45;&gt;Node5</title>
<path fill="none" stroke="midnightblue" d="M361.103,-72.5467C369.257,-73.5494 377.992,-74.6237 386.841,-75.7118"/>
<polygon fill="midnightblue" stroke="midnightblue" points="386.502,-79.1964 396.854,-76.9432 387.356,-72.2487 386.502,-79.1964"/>
</g>
<!-- Node6&#45;&gt;Node4 -->
<g id="edge6" class="edge"><title>Node6&#45;&gt;Node4</title>
<path fill="none" stroke="midnightblue" d="M348.012,-32.9368C359.606,-34.3625 373.298,-36.0463 387.252,-37.7624"/>
<polygon fill="midnightblue" stroke="midnightblue" points="387.081,-41.2676 397.433,-39.0145 387.935,-34.32 387.081,-41.2676"/>
</g>
<!-- Node7 -->
<g id="node7" class="node"><title>Node7</title>
<g id="a_node7"><a xlink:href="../../d3/d5e/classParseStore.html#a22c3448583c3e1e867ec332c7888367b" target="_top" xlink:title="ParseStore::endOfLine">
<polygon fill="white" stroke="black" points="409.5,-0.5 409.5,-19.5 533.5,-19.5 533.5,-0.5 409.5,-0.5"/>
<text text-anchor="middle" x="471.5" y="-7.5" font-family="Helvetica,sans-Serif" font-size="10.00">ParseStore::endOfLine</text>
</a>
</g>
</g>
<!-- Node6&#45;&gt;Node7 -->
<g id="edge7" class="edge"><title>Node6&#45;&gt;Node7</title>
<path fill="none" stroke="midnightblue" d="M348.012,-25.0632C363.002,-23.2198 381.501,-20.9449 399.539,-18.7266"/>
<polygon fill="midnightblue" stroke="midnightblue" points="399.99,-22.1976 409.488,-17.5031 399.135,-15.25 399.99,-22.1976"/>
</g>
</g>
</svg>
