<?xml version="1.0" encoding="UTF-8" standalone="no"?>
<!DOCTYPE svg PUBLIC "-//W3C//DTD SVG 1.1//EN"
 "http://www.w3.org/Graphics/SVG/1.1/DTD/svg11.dtd">
<!-- Generated by graphviz version 2.38.0 (20140413.2041)
 -->
<!-- Title: JLexer::act106 Pages: 1 -->
<svg width="407pt" height="66pt"
 viewBox="0.00 0.00 407.00 66.00" xmlns="http://www.w3.org/2000/svg" xmlns:xlink="http://www.w3.org/1999/xlink">
<g id="graph0" class="graph" transform="scale(1 1) rotate(0) translate(4 62)">
<title>JLexer::act106</title>
<polygon fill="white" stroke="none" points="-4,4 -4,-62 403,-62 403,4 -4,4"/>
<!-- Node1 -->
<g id="node1" class="node"><title>Node1</title>
<polygon fill="#bfbfbf" stroke="black" points="0,-19.5 0,-38.5 86,-38.5 86,-19.5 0,-19.5"/>
<text text-anchor="middle" x="43" y="-26.5" font-family="Helvetica,sans-Serif" font-size="10.00">JLexer::act106</text>
</g>
<!-- Node2 -->
<g id="node2" class="node"><title>Node2</title>
<g id="a_node2"><a xlink:href="../../d8/d0b/JLexer_8cpp.html#acf97acbf9c6e628252fdf410a7934d93" target="_top" xlink:title="IncrementCount">
<polygon fill="white" stroke="black" points="122,-19.5 122,-38.5 214,-38.5 214,-19.5 122,-19.5"/>
<text text-anchor="middle" x="168" y="-26.5" font-family="Helvetica,sans-Serif" font-size="10.00">IncrementCount</text>
</a>
</g>
</g>
<!-- Node1&#45;&gt;Node2 -->
<g id="edge1" class="edge"><title>Node1&#45;&gt;Node2</title>
<path fill="none" stroke="midnightblue" d="M86.3296,-29C94.4319,-29 103.027,-29 111.471,-29"/>
<polygon fill="midnightblue" stroke="midnightblue" points="111.652,-32.5001 121.652,-29 111.652,-25.5001 111.652,-32.5001"/>
</g>
<!-- Node3 -->
<g id="node3" class="node"><title>Node3</title>
<g id="a_node3"><a xlink:href="../../d3/d5e/classParseStore.html#ab21a4aeadb4cc4938b58cbefbb8634e8" target="_top" xlink:title="ParseStore::currentInstance">
<polygon fill="white" stroke="black" points="250.5,-38.5 250.5,-57.5 398.5,-57.5 398.5,-38.5 250.5,-38.5"/>
<text text-anchor="middle" x="324.5" y="-45.5" font-family="Helvetica,sans-Serif" font-size="10.00">ParseStore::currentInstance</text>
</a>
</g>
</g>
<!-- Node2&#45;&gt;Node3 -->
<g id="edge2" class="edge"><title>Node2&#45;&gt;Node3</title>
<path fill="none" stroke="midnightblue" d="M214.103,-34.5467C222.386,-35.5653 231.27,-36.6578 240.262,-37.7637"/>
<polygon fill="midnightblue" stroke="midnightblue" points="240.083,-41.2678 250.435,-39.0147 240.937,-34.3202 240.083,-41.2678"/>
</g>
<!-- Node4 -->
<g id="node4" class="node"><title>Node4</title>
<g id="a_node4"><a xlink:href="../../d3/d5e/classParseStore.html#abbc0857a7efa036b5335b71be05cb0f6" target="_top" xlink:title="ParseStore::IncrementCount">
<polygon fill="white" stroke="black" points="250,-0.5 250,-19.5 399,-19.5 399,-0.5 250,-0.5"/>
<text text-anchor="middle" x="324.5" y="-7.5" font-family="Helvetica,sans-Serif" font-size="10.00">ParseStore::IncrementCount</text>
</a>
</g>
</g>
<!-- Node2&#45;&gt;Node4 -->
<g id="edge3" class="edge"><title>Node2&#45;&gt;Node4</title>
<path fill="none" stroke="midnightblue" d="M214.103,-23.4533C222.257,-22.4506 230.992,-21.3763 239.841,-20.2882"/>
<polygon fill="midnightblue" stroke="midnightblue" points="240.356,-23.7513 249.854,-19.0568 239.502,-16.8036 240.356,-23.7513"/>
</g>
</g>
</svg>
