<?xml version="1.0" encoding="UTF-8" standalone="no"?>
<!DOCTYPE svg PUBLIC "-//W3C//DTD SVG 1.1//EN"
 "http://www.w3.org/Graphics/SVG/1.1/DTD/svg11.dtd">
<!-- Generated by graphviz version 2.38.0 (20140413.2041)
 -->
<!-- Title: cccc_db.h Pages: 1 -->
<!--zoomable 476 -->
<svg id="main" version="1.1" xmlns="http://www.w3.org/2000/svg" xmlns:xlink="http://www.w3.org/1999/xlink" xml:space="preserve" onload="init(evt)">
<style type="text/css"><![CDATA[
.edge:hover path { stroke: red; }
.edge:hover polygon { stroke: red; fill: red; }
]]></style>
<script type="text/javascript"><![CDATA[
var edges = document.getElementsByTagName('g');
if (edges && edges.length) {
  for (var i=0;i<edges.length;i++) {
    if (edges[i].id.substr(0,4)=='edge') {
      edges[i].setAttribute('class','edge');
    }
  }
}
]]></script>
        <defs>
                <circle id="rim" cx="0" cy="0" r="7"/>
                <circle id="rim2" cx="0" cy="0" r="3.5"/>
                <g id="zoomPlus">
                        <use xlink:href="#rim" fill="#404040">
                                <set attributeName="fill" to="#808080" begin="zoomplus.mouseover" end="zoomplus.mouseout"/>
                        </use>
                        <path d="M-4,0h8M0,-4v8" fill="none" stroke="white" stroke-width="1.5" pointer-events="none"/>
                </g>
                <g id="zoomMin">
                        <use xlink:href="#rim" fill="#404040">
                                <set attributeName="fill" to="#808080" begin="zoomminus.mouseover" end="zoomminus.mouseout"/>
                        </use>
                        <path d="M-4,0h8" fill="none" stroke="white" stroke-width="1.5" pointer-events="none"/>
                </g>
                <g id="dirArrow">
                        <path fill="none" stroke="white" stroke-width="1.5" d="M0,-3.0v7 M-2.5,-0.5L0,-3.0L2.5,-0.5"/>
                </g>
               <g id="resetDef">
                       <use xlink:href="#rim2" fill="#404040">
                               <set attributeName="fill" to="#808080" begin="reset.mouseover" end="reset.mouseout"/>
                       </use>
               </g>
        </defs>

<script type="text/javascript">
var viewWidth = 824;
var viewHeight = 476;
var sectionId = 'dynsection-0';
</script>
<script xlink:href="../../svgpan.js"/>
<svg id="graph" class="graph">
<g id="viewport">
<title>cccc_db.h</title>
<polygon fill="white" stroke="none" points="-4,4 -4,-472 820,-472 820,4 -4,4"/>
<!-- Node1 -->
<g id="node1" class="node"><title>Node1</title>
<polygon fill="#bfbfbf" stroke="black" points="264,-448.5 264,-467.5 327,-467.5 327,-448.5 264,-448.5"/>
<text text-anchor="middle" x="295.5" y="-455.5" font-family="Helvetica,sans-Serif" font-size="10.00">cccc_db.h</text>
</g>
<!-- Node2 -->
<g id="node2" class="node"><title>Node2</title>
<g id="a_node2"><a xlink:href="../../d0/d84/cccc_8h.html" target="_top" xlink:title="cccc.h">
<polygon fill="white" stroke="black" points="345.5,-112.5 345.5,-131.5 391.5,-131.5 391.5,-112.5 345.5,-112.5"/>
<text text-anchor="middle" x="368.5" y="-119.5" font-family="Helvetica,sans-Serif" font-size="10.00">cccc.h</text>
</a>
</g>
</g>
<!-- Node1&#45;&gt;Node2 -->
<g id="edge1" class="edge"><title>Node1&#45;&gt;Node2</title>
<path fill="none" stroke="midnightblue" d="M263.769,-451.673C213.826,-441.272 122.5,-413.201 122.5,-347 122.5,-347 122.5,-347 122.5,-289 122.5,-222.764 155.271,-206.032 209.5,-168 247.602,-141.278 301.26,-130.353 335.46,-125.934"/>
<polygon fill="midnightblue" stroke="midnightblue" points="335.889,-129.408 345.41,-124.762 335.069,-122.456 335.889,-129.408"/>
</g>
<!-- Node16 -->
<g id="node16" class="node"><title>Node16</title>
<g id="a_node16"><a xlink:href="../../d3/d11/cccc__ext_8h.html" target="_top" xlink:title="cccc_ext.h">
<polygon fill="white" stroke="black" points="150.5,-280.5 150.5,-299.5 216.5,-299.5 216.5,-280.5 150.5,-280.5"/>
<text text-anchor="middle" x="183.5" y="-287.5" font-family="Helvetica,sans-Serif" font-size="10.00">cccc_ext.h</text>
</a>
</g>
</g>
<!-- Node1&#45;&gt;Node16 -->
<g id="edge16" class="edge"><title>Node1&#45;&gt;Node16</title>
<path fill="none" stroke="midnightblue" d="M263.711,-452.453C239.381,-447.16 207.246,-435.865 190.5,-412 169.023,-381.391 173.989,-334.973 179.037,-309.443"/>
<polygon fill="midnightblue" stroke="midnightblue" points="182.472,-310.118 181.197,-299.6 175.635,-308.617 182.472,-310.118"/>
</g>
<!-- Node20 -->
<g id="node20" class="node"><title>Node20</title>
<g id="a_node20"><a xlink:href="../../df/de9/cccc__rec_8h.html" target="_top" xlink:title="cccc_rec.h">
<polygon fill="white" stroke="black" points="292,-336.5 292,-355.5 359,-355.5 359,-336.5 292,-336.5"/>
<text text-anchor="middle" x="325.5" y="-343.5" font-family="Helvetica,sans-Serif" font-size="10.00">cccc_rec.h</text>
</a>
</g>
</g>
<!-- Node1&#45;&gt;Node20 -->
<g id="edge24" class="edge"><title>Node1&#45;&gt;Node20</title>
<path fill="none" stroke="midnightblue" d="M297.854,-448.368C302.717,-430.537 313.965,-389.295 320.517,-365.272"/>
<polygon fill="midnightblue" stroke="midnightblue" points="323.902,-366.16 323.157,-355.591 317.149,-364.318 323.902,-366.16"/>
</g>
<!-- Node24 -->
<g id="node24" class="node"><title>Node24</title>
<g id="a_node24"><a xlink:href="../../d1/da4/cccc__prj_8h.html" target="_top" xlink:title="cccc_prj.h">
<polygon fill="white" stroke="black" points="323.5,-392.5 323.5,-411.5 387.5,-411.5 387.5,-392.5 323.5,-392.5"/>
<text text-anchor="middle" x="355.5" y="-399.5" font-family="Helvetica,sans-Serif" font-size="10.00">cccc_prj.h</text>
</a>
</g>
</g>
<!-- Node1&#45;&gt;Node24 -->
<g id="edge36" class="edge"><title>Node1&#45;&gt;Node24</title>
<path fill="none" stroke="midnightblue" d="M305.14,-448.324C314.01,-440.341 327.375,-428.313 338.108,-418.653"/>
<polygon fill="midnightblue" stroke="midnightblue" points="340.593,-421.125 345.685,-411.834 335.91,-415.922 340.593,-421.125"/>
</g>
<!-- Node25 -->
<g id="node25" class="node"><title>Node25</title>
<g id="a_node25"><a xlink:href="../../df/d69/cccc__mod_8h.html" target="_top" xlink:title="cccc_mod.h">
<polygon fill="white" stroke="black" points="497.5,-392.5 497.5,-411.5 569.5,-411.5 569.5,-392.5 497.5,-392.5"/>
<text text-anchor="middle" x="533.5" y="-399.5" font-family="Helvetica,sans-Serif" font-size="10.00">cccc_mod.h</text>
</a>
</g>
</g>
<!-- Node1&#45;&gt;Node25 -->
<g id="edge38" class="edge"><title>Node1&#45;&gt;Node25</title>
<path fill="none" stroke="midnightblue" d="M327.105,-449.829C368.218,-440.501 440.349,-424.135 487.522,-413.432"/>
<polygon fill="midnightblue" stroke="midnightblue" points="488.504,-416.798 497.481,-411.172 486.955,-409.972 488.504,-416.798"/>
</g>
<!-- Node26 -->
<g id="node26" class="node"><title>Node26</title>
<g id="a_node26"><a xlink:href="../../dc/da1/cccc__mem_8h.html" target="_top" xlink:title="cccc_mem.h">
<polygon fill="white" stroke="black" points="405.5,-392.5 405.5,-411.5 479.5,-411.5 479.5,-392.5 405.5,-392.5"/>
<text text-anchor="middle" x="442.5" y="-399.5" font-family="Helvetica,sans-Serif" font-size="10.00">cccc_mem.h</text>
</a>
</g>
</g>
<!-- Node1&#45;&gt;Node26 -->
<g id="edge41" class="edge"><title>Node1&#45;&gt;Node26</title>
<path fill="none" stroke="midnightblue" d="M318.793,-448.444C343.307,-439.438 382.096,-425.189 409.7,-415.049"/>
<polygon fill="midnightblue" stroke="midnightblue" points="411.137,-418.25 419.316,-411.516 408.723,-411.679 411.137,-418.25"/>
</g>
<!-- Node27 -->
<g id="node27" class="node"><title>Node27</title>
<g id="a_node27"><a xlink:href="../../d4/d96/cccc__use_8h.html" target="_top" xlink:title="cccc_use.h">
<polygon fill="white" stroke="black" points="199.5,-392.5 199.5,-411.5 267.5,-411.5 267.5,-392.5 199.5,-392.5"/>
<text text-anchor="middle" x="233.5" y="-399.5" font-family="Helvetica,sans-Serif" font-size="10.00">cccc_use.h</text>
</a>
</g>
</g>
<!-- Node1&#45;&gt;Node27 -->
<g id="edge43" class="edge"><title>Node1&#45;&gt;Node27</title>
<path fill="none" stroke="midnightblue" d="M285.539,-448.324C276.373,-440.341 262.563,-428.313 251.472,-418.653"/>
<polygon fill="midnightblue" stroke="midnightblue" points="253.482,-415.762 243.643,-411.834 248.885,-421.041 253.482,-415.762"/>
</g>
<!-- Node3 -->
<g id="node3" class="node"><title>Node3</title>
<polygon fill="white" stroke="#bfbfbf" points="136,-56.5 136,-75.5 187,-75.5 187,-56.5 136,-56.5"/>
<text text-anchor="middle" x="161.5" y="-63.5" font-family="Helvetica,sans-Serif" font-size="10.00">cassert</text>
</g>
<!-- Node2&#45;&gt;Node3 -->
<g id="edge2" class="edge"><title>Node2&#45;&gt;Node3</title>
<path fill="none" stroke="midnightblue" d="M345.266,-114.99C313.803,-106.845 255.64,-91.7613 196.924,-76.3663"/>
<polygon fill="midnightblue" stroke="midnightblue" points="197.678,-72.9457 187.117,-73.7935 195.901,-79.7166 197.678,-72.9457"/>
</g>
<!-- Node4 -->
<g id="node4" class="node"><title>Node4</title>
<polygon fill="white" stroke="#bfbfbf" points="413,-56.5 413,-75.5 458,-75.5 458,-56.5 413,-56.5"/>
<text text-anchor="middle" x="435.5" y="-63.5" font-family="Helvetica,sans-Serif" font-size="10.00">cmath</text>
</g>
<!-- Node2&#45;&gt;Node4 -->
<g id="edge3" class="edge"><title>Node2&#45;&gt;Node4</title>
<path fill="none" stroke="midnightblue" d="M379.265,-112.324C389.266,-104.263 404.387,-92.0765 416.43,-82.3695"/>
<polygon fill="midnightblue" stroke="midnightblue" points="418.95,-84.8343 424.539,-75.8339 414.557,-79.3841 418.95,-84.8343"/>
</g>
<!-- Node5 -->
<g id="node5" class="node"><title>Node5</title>
<polygon fill="white" stroke="#bfbfbf" points="476.5,-56.5 476.5,-75.5 520.5,-75.5 520.5,-56.5 476.5,-56.5"/>
<text text-anchor="middle" x="498.5" y="-63.5" font-family="Helvetica,sans-Serif" font-size="10.00">cstdio</text>
</g>
<!-- Node2&#45;&gt;Node5 -->
<g id="edge4" class="edge"><title>Node2&#45;&gt;Node5</title>
<path fill="none" stroke="midnightblue" d="M389.099,-112.444C410.493,-103.557 444.181,-89.5632 468.524,-79.4514"/>
<polygon fill="midnightblue" stroke="midnightblue" points="470.105,-82.5848 477.997,-75.5164 467.42,-76.1203 470.105,-82.5848"/>
</g>
<!-- Node6 -->
<g id="node6" class="node"><title>Node6</title>
<polygon fill="white" stroke="#bfbfbf" points="538.5,-56.5 538.5,-75.5 586.5,-75.5 586.5,-56.5 538.5,-56.5"/>
<text text-anchor="middle" x="562.5" y="-63.5" font-family="Helvetica,sans-Serif" font-size="10.00">cstring</text>
</g>
<!-- Node2&#45;&gt;Node6 -->
<g id="edge5" class="edge"><title>Node2&#45;&gt;Node6</title>
<path fill="none" stroke="midnightblue" d="M391.516,-114.593C425.494,-105.136 489.29,-87.378 528.619,-76.4308"/>
<polygon fill="midnightblue" stroke="midnightblue" points="529.602,-79.7902 538.298,-73.7368 527.725,-73.0466 529.602,-79.7902"/>
</g>
<!-- Node7 -->
<g id="node7" class="node"><title>Node7</title>
<polygon fill="white" stroke="#bfbfbf" points="604.5,-56.5 604.5,-75.5 650.5,-75.5 650.5,-56.5 604.5,-56.5"/>
<text text-anchor="middle" x="627.5" y="-63.5" font-family="Helvetica,sans-Serif" font-size="10.00">cstdlib</text>
</g>
<!-- Node2&#45;&gt;Node7 -->
<g id="edge6" class="edge"><title>Node2&#45;&gt;Node7</title>
<path fill="none" stroke="midnightblue" d="M391.506,-117.056C431.041,-110.146 514.591,-94.97 594.731,-76.0337"/>
<polygon fill="midnightblue" stroke="midnightblue" points="595.57,-79.4319 604.484,-73.7061 593.945,-72.6231 595.57,-79.4319"/>
</g>
<!-- Node8 -->
<g id="node8" class="node"><title>Node8</title>
<polygon fill="white" stroke="#bfbfbf" points="205,-56.5 205,-75.5 252,-75.5 252,-56.5 205,-56.5"/>
<text text-anchor="middle" x="228.5" y="-63.5" font-family="Helvetica,sans-Serif" font-size="10.00">cctype</text>
</g>
<!-- Node2&#45;&gt;Node8 -->
<g id="edge7" class="edge"><title>Node2&#45;&gt;Node8</title>
<path fill="none" stroke="midnightblue" d="M346.317,-112.444C323.072,-103.478 286.351,-89.314 260.085,-79.1827"/>
<polygon fill="midnightblue" stroke="midnightblue" points="261.169,-75.8497 250.58,-75.5164 258.65,-82.3807 261.169,-75.8497"/>
</g>
<!-- Node9 -->
<g id="node9" class="node"><title>Node9</title>
<polygon fill="white" stroke="#bfbfbf" points="0,-56.5 0,-75.5 43,-75.5 43,-56.5 0,-56.5"/>
<text text-anchor="middle" x="21.5" y="-63.5" font-family="Helvetica,sans-Serif" font-size="10.00">string</text>
</g>
<!-- Node2&#45;&gt;Node9 -->
<g id="edge8" class="edge"><title>Node2&#45;&gt;Node9</title>
<path fill="none" stroke="midnightblue" d="M345.217,-118.906C293.98,-114.043 167.519,-100.641 53.0082,-76.0591"/>
<polygon fill="midnightblue" stroke="midnightblue" points="53.5446,-72.5938 43.0283,-73.8811 52.0521,-79.4329 53.5446,-72.5938"/>
</g>
<!-- Node10 -->
<g id="node10" class="node"><title>Node10</title>
<polygon fill="white" stroke="#bfbfbf" points="61,-56.5 61,-75.5 118,-75.5 118,-56.5 61,-56.5"/>
<text text-anchor="middle" x="89.5" y="-63.5" font-family="Helvetica,sans-Serif" font-size="10.00">iostream</text>
</g>
<!-- Node2&#45;&gt;Node10 -->
<g id="edge9" class="edge"><title>Node2&#45;&gt;Node10</title>
<path fill="none" stroke="midnightblue" d="M345.393,-117.137C303.839,-110.098 213.549,-94.3822 128.013,-76.2403"/>
<polygon fill="midnightblue" stroke="midnightblue" points="128.658,-72.7993 118.148,-74.1323 127.196,-79.6448 128.658,-72.7993"/>
</g>
<!-- Node11 -->
<g id="node11" class="node"><title>Node11</title>
<polygon fill="white" stroke="#bfbfbf" points="270.5,-56.5 270.5,-75.5 324.5,-75.5 324.5,-56.5 270.5,-56.5"/>
<text text-anchor="middle" x="297.5" y="-63.5" font-family="Helvetica,sans-Serif" font-size="10.00">sstream</text>
</g>
<!-- Node2&#45;&gt;Node11 -->
<g id="edge10" class="edge"><title>Node2&#45;&gt;Node11</title>
<path fill="none" stroke="midnightblue" d="M357.093,-112.324C346.391,-104.185 330.159,-91.8395 317.337,-82.0874"/>
<polygon fill="midnightblue" stroke="midnightblue" points="319.193,-79.1018 309.115,-75.8339 314.956,-84.6734 319.193,-79.1018"/>
</g>
<!-- Node12 -->
<g id="node12" class="node"><title>Node12</title>
<polygon fill="white" stroke="#bfbfbf" points="342.5,-56.5 342.5,-75.5 394.5,-75.5 394.5,-56.5 342.5,-56.5"/>
<text text-anchor="middle" x="368.5" y="-63.5" font-family="Helvetica,sans-Serif" font-size="10.00">fstream</text>
</g>
<!-- Node2&#45;&gt;Node12 -->
<g id="edge11" class="edge"><title>Node2&#45;&gt;Node12</title>
<path fill="none" stroke="midnightblue" d="M368.5,-112.083C368.5,-105.006 368.5,-94.8611 368.5,-85.9865"/>
<polygon fill="midnightblue" stroke="midnightblue" points="372,-85.751 368.5,-75.7511 365,-85.7511 372,-85.751"/>
</g>
<!-- Node13 -->
<g id="node13" class="node"><title>Node13</title>
<g id="a_node13"><a xlink:href="../../d1/d7d/cccc__tok_8h.html" target="_top" xlink:title="cccc_tok.h">
<polygon fill="white" stroke="black" points="668.5,-56.5 668.5,-75.5 734.5,-75.5 734.5,-56.5 668.5,-56.5"/>
<text text-anchor="middle" x="701.5" y="-63.5" font-family="Helvetica,sans-Serif" font-size="10.00">cccc_tok.h</text>
</a>
</g>
</g>
<!-- Node2&#45;&gt;Node13 -->
<g id="edge12" class="edge"><title>Node2&#45;&gt;Node13</title>
<path fill="none" stroke="midnightblue" d="M391.801,-117.136C440.351,-109.951 554.727,-93.6514 650.5,-76 653.092,-75.5223 655.769,-75.0049 658.481,-74.468"/>
<polygon fill="midnightblue" stroke="midnightblue" points="659.261,-77.8812 668.372,-72.4735 657.878,-71.0193 659.261,-77.8812"/>
</g>
<!-- Node15 -->
<g id="node15" class="node"><title>Node15</title>
<polygon fill="white" stroke="#bfbfbf" points="753,-56.5 753,-75.5 816,-75.5 816,-56.5 753,-56.5"/>
<text text-anchor="middle" x="784.5" y="-63.5" font-family="Helvetica,sans-Serif" font-size="10.00">AParser.h</text>
</g>
<!-- Node2&#45;&gt;Node15 -->
<g id="edge15" class="edge"><title>Node2&#45;&gt;Node15</title>
<path fill="none" stroke="midnightblue" d="M391.871,-118.988C449.622,-113.847 603.832,-99.103 742.797,-75.962"/>
<polygon fill="midnightblue" stroke="midnightblue" points="743.495,-79.3938 752.775,-74.2814 742.333,-72.4911 743.495,-79.3938"/>
</g>
<!-- Node13&#45;&gt;Node2 -->
<g id="edge13" class="edge"><title>Node13&#45;&gt;Node2</title>
<path fill="none" stroke="midnightblue" d="M671.166,-75.5005C670.27,-75.671 669.38,-75.8378 668.5,-76 572.386,-93.7142 457.536,-110.067 401.788,-117.213"/>
<polygon fill="midnightblue" stroke="midnightblue" points="401.25,-113.753 391.767,-118.478 402.126,-120.698 401.25,-113.753"/>
</g>
<!-- Node14 -->
<g id="node14" class="node"><title>Node14</title>
<polygon fill="white" stroke="#bfbfbf" points="670.5,-0.5 670.5,-19.5 732.5,-19.5 732.5,-0.5 670.5,-0.5"/>
<text text-anchor="middle" x="701.5" y="-7.5" font-family="Helvetica,sans-Serif" font-size="10.00">AToken.h</text>
</g>
<!-- Node13&#45;&gt;Node14 -->
<g id="edge14" class="edge"><title>Node13&#45;&gt;Node14</title>
<path fill="none" stroke="midnightblue" d="M701.5,-56.083C701.5,-49.0059 701.5,-38.8611 701.5,-29.9865"/>
<polygon fill="midnightblue" stroke="midnightblue" points="705,-29.751 701.5,-19.7511 698,-29.7511 705,-29.751"/>
</g>
<!-- Node16&#45;&gt;Node9 -->
<g id="edge17" class="edge"><title>Node16&#45;&gt;Node9</title>
<path fill="none" stroke="midnightblue" d="M150.322,-285.941C121.781,-281.504 81.6537,-270.631 58.5,-244 18.8979,-198.45 17.911,-121.481 19.8742,-85.98"/>
<polygon fill="midnightblue" stroke="midnightblue" points="23.3915,-85.8563 20.6016,-75.6354 16.4087,-85.3653 23.3915,-85.8563"/>
</g>
<!-- Node17 -->
<g id="node17" class="node"><title>Node17</title>
<g id="a_node17"><a xlink:href="../../d7/d8f/cccc__utl_8h.html" target="_top" xlink:title="cccc_utl.h">
<polygon fill="white" stroke="black" points="341.5,-224.5 341.5,-243.5 403.5,-243.5 403.5,-224.5 341.5,-224.5"/>
<text text-anchor="middle" x="372.5" y="-231.5" font-family="Helvetica,sans-Serif" font-size="10.00">cccc_utl.h</text>
</a>
</g>
</g>
<!-- Node16&#45;&gt;Node17 -->
<g id="edge18" class="edge"><title>Node16&#45;&gt;Node17</title>
<path fill="none" stroke="midnightblue" d="M213.448,-280.444C245.658,-271.241 297.034,-256.562 332.642,-246.388"/>
<polygon fill="midnightblue" stroke="midnightblue" points="334.039,-249.629 342.692,-243.516 332.116,-242.898 334.039,-249.629"/>
</g>
<!-- Node17&#45;&gt;Node2 -->
<g id="edge19" class="edge"><title>Node17&#45;&gt;Node2</title>
<path fill="none" stroke="midnightblue" d="M372.186,-224.368C371.541,-206.617 370.052,-165.666 369.176,-141.597"/>
<polygon fill="midnightblue" stroke="midnightblue" points="372.674,-141.458 368.812,-131.591 365.678,-141.712 372.674,-141.458"/>
</g>
<!-- Node17&#45;&gt;Node13 -->
<g id="edge22" class="edge"><title>Node17&#45;&gt;Node13</title>
<path fill="none" stroke="midnightblue" d="M394.079,-224.348C411.001,-216.734 434.318,-204.318 450.5,-188 477.827,-160.443 462.244,-135.005 493.5,-112 493.92,-111.691 597.214,-89.4333 658.061,-76.341"/>
<polygon fill="midnightblue" stroke="midnightblue" points="659.127,-79.6919 668.167,-74.1668 657.655,-72.8484 659.127,-79.6919"/>
</g>
<!-- Node17&#45;&gt;Node15 -->
<g id="edge23" class="edge"><title>Node17&#45;&gt;Node15</title>
<path fill="none" stroke="midnightblue" d="M393.783,-224.425C461.732,-197.047 673.673,-111.654 753.589,-79.4545"/>
<polygon fill="midnightblue" stroke="midnightblue" points="755.129,-82.6073 763.097,-75.6237 752.513,-76.1145 755.129,-82.6073"/>
</g>
<!-- Node18 -->
<g id="node18" class="node"><title>Node18</title>
<polygon fill="white" stroke="#bfbfbf" points="302,-168.5 302,-187.5 339,-187.5 339,-168.5 302,-168.5"/>
<text text-anchor="middle" x="320.5" y="-175.5" font-family="Helvetica,sans-Serif" font-size="10.00">map</text>
</g>
<!-- Node17&#45;&gt;Node18 -->
<g id="edge20" class="edge"><title>Node17&#45;&gt;Node18</title>
<path fill="none" stroke="midnightblue" d="M363.913,-224.083C356.341,-216.22 345.122,-204.569 335.986,-195.081"/>
<polygon fill="midnightblue" stroke="midnightblue" points="338.385,-192.527 328.927,-187.751 333.342,-197.382 338.385,-192.527"/>
</g>
<!-- Node19 -->
<g id="node19" class="node"><title>Node19</title>
<polygon fill="white" stroke="#bfbfbf" points="395.5,-168.5 395.5,-187.5 441.5,-187.5 441.5,-168.5 395.5,-168.5"/>
<text text-anchor="middle" x="418.5" y="-175.5" font-family="Helvetica,sans-Serif" font-size="10.00">vector</text>
</g>
<!-- Node17&#45;&gt;Node19 -->
<g id="edge21" class="edge"><title>Node17&#45;&gt;Node19</title>
<path fill="none" stroke="midnightblue" d="M380.096,-224.083C386.727,-216.298 396.521,-204.801 404.558,-195.367"/>
<polygon fill="midnightblue" stroke="midnightblue" points="407.225,-197.633 411.045,-187.751 401.896,-193.094 407.225,-197.633"/>
</g>
<!-- Node20&#45;&gt;Node16 -->
<g id="edge34" class="edge"><title>Node20&#45;&gt;Node16</title>
<path fill="none" stroke="midnightblue" d="M303,-336.444C279.423,-327.478 242.178,-313.314 215.536,-303.183"/>
<polygon fill="midnightblue" stroke="midnightblue" points="216.486,-299.8 205.895,-299.516 213.998,-306.342 216.486,-299.8"/>
</g>
<!-- Node20&#45;&gt;Node17 -->
<g id="edge35" class="edge"><title>Node20&#45;&gt;Node17</title>
<path fill="none" stroke="midnightblue" d="M329.188,-336.368C336.841,-318.456 354.587,-276.923 364.831,-252.948"/>
<polygon fill="midnightblue" stroke="midnightblue" points="368.118,-254.162 368.829,-243.591 361.681,-251.412 368.118,-254.162"/>
</g>
<!-- Node21 -->
<g id="node21" class="node"><title>Node21</title>
<g id="a_node21"><a xlink:href="../../df/dd4/cccc__tbl_8h.html" target="_top" xlink:title="cccc_tbl.h">
<polygon fill="white" stroke="black" points="234.5,-280.5 234.5,-299.5 296.5,-299.5 296.5,-280.5 234.5,-280.5"/>
<text text-anchor="middle" x="265.5" y="-287.5" font-family="Helvetica,sans-Serif" font-size="10.00">cccc_tbl.h</text>
</a>
</g>
</g>
<!-- Node20&#45;&gt;Node21 -->
<g id="edge25" class="edge"><title>Node20&#45;&gt;Node21</title>
<path fill="none" stroke="midnightblue" d="M315.86,-336.324C306.99,-328.341 293.625,-316.313 282.892,-306.653"/>
<polygon fill="midnightblue" stroke="midnightblue" points="285.09,-303.922 275.315,-299.834 280.407,-309.125 285.09,-303.922"/>
</g>
<!-- Node21&#45;&gt;Node9 -->
<g id="edge27" class="edge"><title>Node21&#45;&gt;Node9</title>
<path fill="none" stroke="midnightblue" d="M247.774,-280.488C231.551,-272.281 207.286,-258.935 188.5,-244 124.113,-192.813 61.0687,-117.107 34.5667,-83.7835"/>
<polygon fill="midnightblue" stroke="midnightblue" points="37.0283,-81.2524 28.09,-75.564 31.53,-85.5848 37.0283,-81.2524"/>
</g>
<!-- Node21&#45;&gt;Node10 -->
<g id="edge26" class="edge"><title>Node21&#45;&gt;Node10</title>
<path fill="none" stroke="midnightblue" d="M252.321,-280.37C240.109,-271.983 221.867,-258.429 208.5,-244 160.153,-191.812 117.349,-118.265 98.9988,-84.812"/>
<polygon fill="midnightblue" stroke="midnightblue" points="101.95,-82.9116 94.1099,-75.7853 95.7948,-86.2454 101.95,-82.9116"/>
</g>
<!-- Node21&#45;&gt;Node18 -->
<g id="edge28" class="edge"><title>Node21&#45;&gt;Node18</title>
<path fill="none" stroke="midnightblue" d="M271.518,-280.285C277.511,-271.397 286.765,-257.091 293.5,-244 301.44,-228.567 308.88,-210.251 313.932,-197.001"/>
<polygon fill="midnightblue" stroke="midnightblue" points="317.218,-198.206 317.434,-187.613 310.659,-195.759 317.218,-198.206"/>
</g>
<!-- Node22 -->
<g id="node22" class="node"><title>Node22</title>
<g id="a_node22"><a xlink:href="../../d1/d17/cccc__tbl_8cc.html" target="_top" xlink:title="cccc_tbl.cc">
<polygon fill="white" stroke="black" points="218,-224.5 218,-243.5 285,-243.5 285,-224.5 218,-224.5"/>
<text text-anchor="middle" x="251.5" y="-231.5" font-family="Helvetica,sans-Serif" font-size="10.00">cccc_tbl.cc</text>
</a>
</g>
</g>
<!-- Node21&#45;&gt;Node22 -->
<g id="edge29" class="edge"><title>Node21&#45;&gt;Node22</title>
<path fill="none" stroke="midnightblue" d="M258.022,-280.083C254.657,-272.927 251.558,-262.635 249.888,-253.691"/>
<polygon fill="midnightblue" stroke="midnightblue" points="253.359,-253.236 248.638,-243.751 246.414,-254.11 253.359,-253.236"/>
</g>
<!-- Node22&#45;&gt;Node3 -->
<g id="edge33" class="edge"><title>Node22&#45;&gt;Node3</title>
<path fill="none" stroke="midnightblue" d="M241.362,-224.213C232.062,-215.715 218.416,-202.087 209.5,-188 188.328,-154.549 173.656,-110.223 166.502,-85.566"/>
<polygon fill="midnightblue" stroke="midnightblue" points="169.815,-84.4168 163.747,-75.7313 163.074,-86.3047 169.815,-84.4168"/>
</g>
<!-- Node22&#45;&gt;Node21 -->
<g id="edge32" class="edge"><title>Node22&#45;&gt;Node21</title>
<path fill="none" stroke="midnightblue" d="M258.9,-243.751C262.269,-250.858 265.38,-261.136 267.073,-270.101"/>
<polygon fill="midnightblue" stroke="midnightblue" points="263.609,-270.61 268.355,-280.083 270.552,-269.719 263.609,-270.61"/>
</g>
<!-- Node23 -->
<g id="node23" class="node"><title>Node23</title>
<g id="a_node23"><a xlink:href="../../dd/d1e/cccc__itm_8h.html" target="_top" xlink:title="cccc_itm.h">
<polygon fill="white" stroke="black" points="219,-168.5 219,-187.5 284,-187.5 284,-168.5 219,-168.5"/>
<text text-anchor="middle" x="251.5" y="-175.5" font-family="Helvetica,sans-Serif" font-size="10.00">cccc_itm.h</text>
</a>
</g>
</g>
<!-- Node22&#45;&gt;Node23 -->
<g id="edge30" class="edge"><title>Node22&#45;&gt;Node23</title>
<path fill="none" stroke="midnightblue" d="M251.5,-224.083C251.5,-217.006 251.5,-206.861 251.5,-197.986"/>
<polygon fill="midnightblue" stroke="midnightblue" points="255,-197.751 251.5,-187.751 248,-197.751 255,-197.751"/>
</g>
<!-- Node23&#45;&gt;Node2 -->
<g id="edge31" class="edge"><title>Node23&#45;&gt;Node2</title>
<path fill="none" stroke="midnightblue" d="M270.039,-168.444C289.123,-159.636 319.075,-145.812 340.936,-135.722"/>
<polygon fill="midnightblue" stroke="midnightblue" points="342.435,-138.885 350.048,-131.516 339.501,-132.529 342.435,-138.885"/>
</g>
<!-- Node24&#45;&gt;Node20 -->
<g id="edge37" class="edge"><title>Node24&#45;&gt;Node20</title>
<path fill="none" stroke="midnightblue" d="M350.546,-392.083C346.396,-384.613 340.347,-373.724 335.233,-364.52"/>
<polygon fill="midnightblue" stroke="midnightblue" points="338.278,-362.793 330.362,-355.751 332.159,-366.192 338.278,-362.793"/>
</g>
<!-- Node25&#45;&gt;Node2 -->
<g id="edge39" class="edge"><title>Node25&#45;&gt;Node2</title>
<path fill="none" stroke="midnightblue" d="M535.069,-392.477C538.322,-374.038 545.5,-329.037 545.5,-291 545.5,-291 545.5,-291 545.5,-233 545.5,-165.981 452.827,-138.357 401.594,-128.206"/>
<polygon fill="midnightblue" stroke="midnightblue" points="402.112,-124.742 391.64,-126.349 400.829,-131.623 402.112,-124.742"/>
</g>
<!-- Node25&#45;&gt;Node20 -->
<g id="edge40" class="edge"><title>Node25&#45;&gt;Node20</title>
<path fill="none" stroke="midnightblue" d="M500.542,-392.444C464.713,-383.142 407.337,-368.246 368.109,-358.062"/>
<polygon fill="midnightblue" stroke="midnightblue" points="368.863,-354.642 358.304,-355.516 367.104,-361.417 368.863,-354.642"/>
</g>
<!-- Node26&#45;&gt;Node20 -->
<g id="edge42" class="edge"><title>Node26&#45;&gt;Node20</title>
<path fill="none" stroke="midnightblue" d="M423.961,-392.444C404.877,-383.636 374.925,-369.812 353.064,-359.722"/>
<polygon fill="midnightblue" stroke="midnightblue" points="354.499,-356.529 343.952,-355.516 351.565,-362.885 354.499,-356.529"/>
</g>
<!-- Node27&#45;&gt;Node20 -->
<g id="edge44" class="edge"><title>Node27&#45;&gt;Node20</title>
<path fill="none" stroke="midnightblue" d="M248.281,-392.324C262.767,-383.822 285.073,-370.729 301.993,-360.797"/>
<polygon fill="midnightblue" stroke="midnightblue" points="303.903,-363.735 310.755,-355.655 300.359,-357.698 303.903,-363.735"/>
</g>
</g>
</svg>
        <g id="navigator" transform="translate(0 0)" fill="#404254">
                <rect fill="#f2f5e9" fill-opacity="0.5" stroke="#606060" stroke-width=".5" x="0" y="0" width="60" height="60"/>
                <use id="zoomplus" xlink:href="#zoomPlus" x="17" y="9" onmousedown="handleZoom(evt,'in')"/>
                <use id="zoomminus" xlink:href="#zoomMin" x="42" y="9" onmousedown="handleZoom(evt,'out')"/>
                <use id="reset" xlink:href="#resetDef" x="30" y="36" onmousedown="handleReset()"/>
                <g id="arrowUp" xlink:href="#dirArrow" transform="translate(30 24)" onmousedown="handlePan(0,-1)">
                  <use xlink:href="#rim" fill="#404040">
                        <set attributeName="fill" to="#808080" begin="arrowUp.mouseover" end="arrowUp.mouseout"/>
                  </use>
                  <path fill="none" stroke="white" stroke-width="1.5" d="M0,-3.0v7 M-2.5,-0.5L0,-3.0L2.5,-0.5"/>
                </g>
                <g id="arrowRight" xlink:href="#dirArrow" transform="rotate(90) translate(36 -43)" onmousedown="handlePan(1,0)">
                  <use xlink:href="#rim" fill="#404040">
                        <set attributeName="fill" to="#808080" begin="arrowRight.mouseover" end="arrowRight.mouseout"/>
                  </use>
                  <path fill="none" stroke="white" stroke-width="1.5" d="M0,-3.0v7 M-2.5,-0.5L0,-3.0L2.5,-0.5"/>
                </g>
                <g id="arrowDown" xlink:href="#dirArrow" transform="rotate(180) translate(-30 -48)" onmousedown="handlePan(0,1)">
                  <use xlink:href="#rim" fill="#404040">
                        <set attributeName="fill" to="#808080" begin="arrowDown.mouseover" end="arrowDown.mouseout"/>
                  </use>
                  <path fill="none" stroke="white" stroke-width="1.5" d="M0,-3.0v7 M-2.5,-0.5L0,-3.0L2.5,-0.5"/>
                </g>
                <g id="arrowLeft" xlink:href="#dirArrow" transform="rotate(270) translate(-36 17)" onmousedown="handlePan(-1,0)">
                  <use xlink:href="#rim" fill="#404040">
                        <set attributeName="fill" to="#808080" begin="arrowLeft.mouseover" end="arrowLeft.mouseout"/>
                  </use>
                  <path fill="none" stroke="white" stroke-width="1.5" d="M0,-3.0v7 M-2.5,-0.5L0,-3.0L2.5,-0.5"/>
                </g>
        </g>
        <svg viewBox="0 0 15 15" width="100%" height="30px" preserveAspectRatio="xMaxYMin meet">
         <g id="arrow_out" transform="scale(0.3 0.3)">
          <a xlink:href="cccc__db_8h__incl_org.svg" target="_base">
           <rect id="button" ry="5" rx="5" y="6" x="6" height="38" width="38"
                fill="#f2f5e9" fill-opacity="0.5" stroke="#606060" stroke-width="1.0"/>
           <path id="arrow"
             d="M 11.500037,31.436501 C 11.940474,20.09759 22.043105,11.32322 32.158766,21.979434 L 37.068811,17.246167 C 37.068811,17.246167 37.088388,32 37.088388,32 L 22.160133,31.978069 C 22.160133,31.978069 26.997745,27.140456 26.997745,27.140456 C 18.528582,18.264221 13.291696,25.230495 11.500037,31.436501 z"
             style="fill:#404040;"/>
          </a>
         </g>
        </svg>
</svg>
