<?xml version="1.0" encoding="UTF-8" standalone="no"?>
<!DOCTYPE svg PUBLIC "-//W3C//DTD SVG 1.1//EN"
 "http://www.w3.org/Graphics/SVG/1.1/DTD/svg11.dtd">
<!-- Generated by graphviz version 2.38.0 (20140413.2041)
 -->
<!-- Title: ParseStore::get_visibility Pages: 1 -->
<!--zoomable 309 -->
<svg id="main" version="1.1" xmlns="http://www.w3.org/2000/svg" xmlns:xlink="http://www.w3.org/1999/xlink" xml:space="preserve" onload="init(evt)">
<style type="text/css"><![CDATA[
.edge:hover path { stroke: red; }
.edge:hover polygon { stroke: red; fill: red; }
]]></style>
<script type="text/javascript"><![CDATA[
var edges = document.getElementsByTagName('g');
if (edges && edges.length) {
  for (var i=0;i<edges.length;i++) {
    if (edges[i].id.substr(0,4)=='edge') {
      edges[i].setAttribute('class','edge');
    }
  }
}
]]></script>
        <defs>
                <circle id="rim" cx="0" cy="0" r="7"/>
                <circle id="rim2" cx="0" cy="0" r="3.5"/>
                <g id="zoomPlus">
                        <use xlink:href="#rim" fill="#404040">
                                <set attributeName="fill" to="#808080" begin="zoomplus.mouseover" end="zoomplus.mouseout"/>
                        </use>
                        <path d="M-4,0h8M0,-4v8" fill="none" stroke="white" stroke-width="1.5" pointer-events="none"/>
                </g>
                <g id="zoomMin">
                        <use xlink:href="#rim" fill="#404040">
                                <set attributeName="fill" to="#808080" begin="zoomminus.mouseover" end="zoomminus.mouseout"/>
                        </use>
                        <path d="M-4,0h8" fill="none" stroke="white" stroke-width="1.5" pointer-events="none"/>
                </g>
                <g id="dirArrow">
                        <path fill="none" stroke="white" stroke-width="1.5" d="M0,-3.0v7 M-2.5,-0.5L0,-3.0L2.5,-0.5"/>
                </g>
               <g id="resetDef">
                       <use xlink:href="#rim2" fill="#404040">
                               <set attributeName="fill" to="#808080" begin="reset.mouseover" end="reset.mouseout"/>
                       </use>
               </g>
        </defs>

<script type="text/javascript">
var viewWidth = 2705;
var viewHeight = 309;
var sectionId = 'dynsection-6';
</script>
<script xlink:href="../../svgpan.js"/>
<svg id="graph" class="graph">
<g id="viewport">
<title>ParseStore::get_visibility</title>
<polygon fill="white" stroke="none" points="-4,4 -4,-305 2701,-305 2701,4 -4,4"/>
<!-- Node1 -->
<g id="node1" class="node"><title>Node1</title>
<polygon fill="#bfbfbf" stroke="black" points="0,-121.5 0,-140.5 131,-140.5 131,-121.5 0,-121.5"/>
<text text-anchor="middle" x="65.5" y="-128.5" font-family="Helvetica,sans-Serif" font-size="10.00">ParseStore::get_visibility</text>
</g>
<!-- Node2 -->
<g id="node2" class="node"><title>Node2</title>
<g id="a_node2"><a xlink:href="../../d0/df6/classCParser.html#a6331346ed010ab6c734d29daeb5d896f" target="_top" xlink:title="CParser::instance_declaration">
<polygon fill="white" stroke="black" points="167,-142.5 167,-161.5 325,-161.5 325,-142.5 167,-142.5"/>
<text text-anchor="middle" x="246" y="-149.5" font-family="Helvetica,sans-Serif" font-size="10.00">CParser::instance_declaration</text>
</a>
</g>
</g>
<!-- Node1&#45;&gt;Node2 -->
<g id="edge1" class="edge"><title>Node1&#45;&gt;Node2</title>
<path fill="none" stroke="midnightblue" d="M141.36,-139.807C149.783,-140.798 158.381,-141.809 166.843,-142.805"/>
<polygon fill="midnightblue" stroke="midnightblue" points="141.535,-136.304 131.195,-138.611 140.718,-143.256 141.535,-136.304"/>
</g>
<!-- Node17 -->
<g id="node17" class="node"><title>Node17</title>
<g id="a_node17"><a xlink:href="../../d0/df6/classCParser.html#a0dd2a579512bf1a17aaeac5fdec860a7" target="_top" xlink:title="CParser::method_declaration\l_or_definition_with_implicit_type">
<polygon fill="white" stroke="black" points="1184,-74 1184,-104 1354,-104 1354,-74 1184,-74"/>
<text text-anchor="start" x="1192" y="-92" font-family="Helvetica,sans-Serif" font-size="10.00">CParser::method_declaration</text>
<text text-anchor="middle" x="1269" y="-81" font-family="Helvetica,sans-Serif" font-size="10.00">_or_definition_with_implicit_type</text>
</a>
</g>
</g>
<!-- Node1&#45;&gt;Node17 -->
<g id="edge19" class="edge"><title>Node1&#45;&gt;Node17</title>
<path fill="none" stroke="midnightblue" d="M95.6888,-117.105C115.378,-108.38 142.196,-97.7285 167,-92 280.857,-65.7045 312.146,-70 429,-70 429,-70 429,-70 913.5,-70 1006.1,-70 1112.12,-76.5449 1183.91,-81.9521"/>
<polygon fill="midnightblue" stroke="midnightblue" points="94.0283,-114.015 86.3638,-121.33 96.917,-120.391 94.0283,-114.015"/>
</g>
<!-- Node19 -->
<g id="node19" class="node"><title>Node19</title>
<g id="a_node19"><a xlink:href="../../d0/df6/classCParser.html#a95df41979cfa46504c628004a1bc9e79" target="_top" xlink:title="CParser::param_type">
<polygon fill="white" stroke="black" points="188,-101.5 188,-120.5 304,-120.5 304,-101.5 188,-101.5"/>
<text text-anchor="middle" x="246" y="-108.5" font-family="Helvetica,sans-Serif" font-size="10.00">CParser::param_type</text>
</a>
</g>
</g>
<!-- Node1&#45;&gt;Node19 -->
<g id="edge25" class="edge"><title>Node1&#45;&gt;Node19</title>
<path fill="none" stroke="midnightblue" d="M141.327,-122.616C156.908,-120.87 173.092,-119.057 187.911,-117.397"/>
<polygon fill="midnightblue" stroke="midnightblue" points="140.743,-119.159 131.195,-123.751 141.523,-126.116 140.743,-119.159"/>
</g>
<!-- Node25 -->
<g id="node25" class="node"><title>Node25</title>
<g id="a_node25"><a xlink:href="../../d0/df6/classCParser.html#a3fce2125a1d6753cea421ea08a7c7eea" target="_top" xlink:title="CParser::inheritance_item">
<polygon fill="white" stroke="black" points="361,-227.5 361,-246.5 499,-246.5 499,-227.5 361,-227.5"/>
<text text-anchor="middle" x="430" y="-234.5" font-family="Helvetica,sans-Serif" font-size="10.00">CParser::inheritance_item</text>
</a>
</g>
</g>
<!-- Node1&#45;&gt;Node25 -->
<g id="edge33" class="edge"><title>Node1&#45;&gt;Node25</title>
<path fill="none" stroke="midnightblue" d="M97.528,-144.582C117.196,-152.882 143.307,-163.338 167,-171 241.757,-195.176 330.851,-215.971 383.517,-227.458"/>
<polygon fill="midnightblue" stroke="midnightblue" points="98.7251,-141.287 88.1536,-140.583 95.9787,-147.726 98.7251,-141.287"/>
</g>
<!-- Node3 -->
<g id="node3" class="node"><title>Node3</title>
<g id="a_node3"><a xlink:href="../../d0/df6/classCParser.html#ab3ab57ace628c2476dd8dfe5a96f9a15" target="_top" xlink:title="CParser::definition\l_or_declaration">
<polygon fill="white" stroke="black" points="1596,-153 1596,-183 1699,-183 1699,-153 1596,-153"/>
<text text-anchor="start" x="1604" y="-171" font-family="Helvetica,sans-Serif" font-size="10.00">CParser::definition</text>
<text text-anchor="middle" x="1647.5" y="-160" font-family="Helvetica,sans-Serif" font-size="10.00">_or_declaration</text>
</a>
</g>
</g>
<!-- Node2&#45;&gt;Node3 -->
<g id="edge2" class="edge"><title>Node2&#45;&gt;Node3</title>
<path fill="none" stroke="midnightblue" d="M308.643,-163.528C314.182,-164.662 319.698,-165.828 325,-167 341.104,-170.559 344.732,-173.286 361,-176 463.52,-193.103 490.064,-196 594,-196 594,-196 594,-196 1270,-196 1386.83,-196 1523.5,-182.425 1595.74,-174.179"/>
<polygon fill="midnightblue" stroke="midnightblue" points="309.183,-160.066 298.689,-161.525 307.802,-166.929 309.183,-160.066"/>
</g>
<!-- Node16 -->
<g id="node16" class="node"><title>Node16</title>
<g id="a_node16"><a xlink:href="../../d0/df6/classCParser.html#a4e7cf3c3b19f9c664f345a10116c2c2c" target="_top" xlink:title="CParser::knr_param\l_decl_list">
<polygon fill="white" stroke="black" points="374.5,-137 374.5,-167 485.5,-167 485.5,-137 374.5,-137"/>
<text text-anchor="start" x="382.5" y="-155" font-family="Helvetica,sans-Serif" font-size="10.00">CParser::knr_param</text>
<text text-anchor="middle" x="430" y="-144" font-family="Helvetica,sans-Serif" font-size="10.00">_decl_list</text>
</a>
</g>
</g>
<!-- Node2&#45;&gt;Node16 -->
<g id="edge18" class="edge"><title>Node2&#45;&gt;Node16</title>
<path fill="none" stroke="midnightblue" d="M335.391,-152C348.708,-152 362.1,-152 374.425,-152"/>
<polygon fill="midnightblue" stroke="midnightblue" points="335.241,-148.5 325.241,-152 335.241,-155.5 335.241,-148.5"/>
</g>
<!-- Node4 -->
<g id="node4" class="node"><title>Node4</title>
<g id="a_node4"><a xlink:href="../../d0/df6/classCParser.html#a2b78ab2005bef5c43ee2d4689210eab1" target="_top" xlink:title="CParser::link_item">
<polygon fill="white" stroke="black" points="1754.5,-135.5 1754.5,-154.5 1855.5,-154.5 1855.5,-135.5 1754.5,-135.5"/>
<text text-anchor="middle" x="1805" y="-142.5" font-family="Helvetica,sans-Serif" font-size="10.00">CParser::link_item</text>
</a>
</g>
</g>
<!-- Node3&#45;&gt;Node4 -->
<g id="edge3" class="edge"><title>Node3&#45;&gt;Node4</title>
<path fill="none" stroke="midnightblue" d="M1709.52,-158.974C1724.36,-156.779 1740.05,-154.458 1754.29,-152.352"/>
<polygon fill="midnightblue" stroke="midnightblue" points="1708.8,-155.543 1699.42,-160.469 1709.82,-162.468 1708.8,-155.543"/>
</g>
<!-- Node10 -->
<g id="node10" class="node"><title>Node10</title>
<g id="a_node10"><a xlink:href="../../d0/df6/classCParser.html#a85eb09132fa5a588749cea062f0d11ea" target="_top" xlink:title="CParser::class_block_item">
<polygon fill="white" stroke="black" points="1735,-244.5 1735,-263.5 1875,-263.5 1875,-244.5 1735,-244.5"/>
<text text-anchor="middle" x="1805" y="-251.5" font-family="Helvetica,sans-Serif" font-size="10.00">CParser::class_block_item</text>
</a>
</g>
</g>
<!-- Node3&#45;&gt;Node10 -->
<g id="edge11" class="edge"><title>Node3&#45;&gt;Node10</title>
<path fill="none" stroke="midnightblue" d="M1676.09,-189.187C1692.6,-201.251 1714.33,-216.086 1735,-227 1747.85,-233.787 1762.8,-239.843 1775.5,-244.491"/>
<polygon fill="midnightblue" stroke="midnightblue" points="1678.09,-186.308 1667.97,-183.166 1673.92,-191.932 1678.09,-186.308"/>
</g>
<!-- Node5 -->
<g id="node5" class="node"><title>Node5</title>
<g id="a_node5"><a xlink:href="../../d0/df6/classCParser.html#a4f02da23566af37123efb3768769c09b" target="_top" xlink:title="CParser::start">
<polygon fill="white" stroke="black" points="1935.5,-66.5 1935.5,-85.5 2016.5,-85.5 2016.5,-66.5 1935.5,-66.5"/>
<text text-anchor="middle" x="1976" y="-73.5" font-family="Helvetica,sans-Serif" font-size="10.00">CParser::start</text>
</a>
</g>
</g>
<!-- Node4&#45;&gt;Node5 -->
<g id="edge4" class="edge"><title>Node4&#45;&gt;Node5</title>
<path fill="none" stroke="midnightblue" d="M1832.76,-130.828C1853.69,-120.102 1883.7,-105.478 1911,-95 1919.98,-91.5526 1929.87,-88.3434 1939.12,-85.5803"/>
<polygon fill="midnightblue" stroke="midnightblue" points="1831.1,-127.747 1823.83,-135.453 1834.32,-133.963 1831.1,-127.747"/>
</g>
<!-- Node8 -->
<g id="node8" class="node"><title>Node8</title>
<g id="a_node8"><a xlink:href="../../d0/df6/classCParser.html#a86906e492ff9c606fb3537078f46f93e" target="_top" xlink:title="CParser::extern_linkage\l_block">
<polygon fill="white" stroke="black" points="1911,-154 1911,-184 2041,-184 2041,-154 1911,-154"/>
<text text-anchor="start" x="1919" y="-172" font-family="Helvetica,sans-Serif" font-size="10.00">CParser::extern_linkage</text>
<text text-anchor="middle" x="1976" y="-161" font-family="Helvetica,sans-Serif" font-size="10.00">_block</text>
</a>
</g>
</g>
<!-- Node4&#45;&gt;Node8 -->
<g id="edge7" class="edge"><title>Node4&#45;&gt;Node8</title>
<path fill="none" stroke="midnightblue" d="M1866,-147.029C1881.84,-148.936 1898.95,-151.364 1914.81,-153.956"/>
<polygon fill="midnightblue" stroke="midnightblue" points="1866.13,-143.521 1855.79,-145.855 1865.33,-150.475 1866.13,-143.521"/>
</g>
<!-- Node9 -->
<g id="node9" class="node"><title>Node9</title>
<g id="a_node9"><a xlink:href="../../d0/df6/classCParser.html#a4fad913a0694a5376ad76669d8943122" target="_top" xlink:title="CParser::namespace\l_block">
<polygon fill="white" stroke="black" points="1918.5,-105 1918.5,-135 2033.5,-135 2033.5,-105 1918.5,-105"/>
<text text-anchor="start" x="1926.5" y="-123" font-family="Helvetica,sans-Serif" font-size="10.00">CParser::namespace</text>
<text text-anchor="middle" x="1976" y="-112" font-family="Helvetica,sans-Serif" font-size="10.00">_block</text>
</a>
</g>
</g>
<!-- Node4&#45;&gt;Node9 -->
<g id="edge9" class="edge"><title>Node4&#45;&gt;Node9</title>
<path fill="none" stroke="midnightblue" d="M1844.93,-133.454C1866.7,-129.212 1894.22,-124.932 1918.35,-121.968"/>
<polygon fill="midnightblue" stroke="midnightblue" points="1844.15,-130.039 1835.05,-135.46 1845.55,-136.898 1844.15,-130.039"/>
</g>
<!-- Node6 -->
<g id="node6" class="node"><title>Node6</title>
<g id="a_node6"><a xlink:href="../../db/d4a/classMain.html#a803470658c644fa9512140f9d8398dd5" target="_top" xlink:title="Main::ParseFiles">
<polygon fill="white" stroke="black" points="2087,-66.5 2087,-85.5 2181,-85.5 2181,-66.5 2087,-66.5"/>
<text text-anchor="middle" x="2134" y="-73.5" font-family="Helvetica,sans-Serif" font-size="10.00">Main::ParseFiles</text>
</a>
</g>
</g>
<!-- Node5&#45;&gt;Node6 -->
<g id="edge5" class="edge"><title>Node5&#45;&gt;Node6</title>
<path fill="none" stroke="midnightblue" d="M2026.87,-76C2046.14,-76 2068.05,-76 2086.94,-76"/>
<polygon fill="midnightblue" stroke="midnightblue" points="2026.77,-72.5001 2016.77,-76 2026.77,-79.5001 2026.77,-72.5001"/>
</g>
<!-- Node7 -->
<g id="node7" class="node"><title>Node7</title>
<g id="a_node7"><a xlink:href="../../d6/d93/ccccmain_8cc.html#a3c04138a5bfe5d72780bb7e82a18e627" target="_top" xlink:title="main">
<polygon fill="white" stroke="black" points="2264.5,-66.5 2264.5,-85.5 2303.5,-85.5 2303.5,-66.5 2264.5,-66.5"/>
<text text-anchor="middle" x="2284" y="-73.5" font-family="Helvetica,sans-Serif" font-size="10.00">main</text>
</a>
</g>
</g>
<!-- Node6&#45;&gt;Node7 -->
<g id="edge6" class="edge"><title>Node6&#45;&gt;Node7</title>
<path fill="none" stroke="midnightblue" d="M2191.15,-76C2217.09,-76 2246.14,-76 2264.49,-76"/>
<polygon fill="midnightblue" stroke="midnightblue" points="2191.02,-72.5001 2181.02,-76 2191.02,-79.5001 2191.02,-72.5001"/>
</g>
<!-- Node8&#45;&gt;Node4 -->
<g id="edge8" class="edge"><title>Node8&#45;&gt;Node4</title>
<path fill="none" stroke="midnightblue" d="M1900.74,-165.16C1877.83,-162.105 1853.9,-158.236 1835.82,-154.527"/>
<polygon fill="midnightblue" stroke="midnightblue" points="1900.45,-168.652 1910.82,-166.459 1901.35,-161.709 1900.45,-168.652"/>
</g>
<!-- Node9&#45;&gt;Node4 -->
<g id="edge10" class="edge"><title>Node9&#45;&gt;Node4</title>
<path fill="none" stroke="midnightblue" d="M1908.29,-136.483C1890.8,-139.34 1872.23,-141.953 1855.79,-143.85"/>
<polygon fill="midnightblue" stroke="midnightblue" points="1909.16,-139.886 1918.45,-134.776 1908,-132.983 1909.16,-139.886"/>
</g>
<!-- Node11 -->
<g id="node11" class="node"><title>Node11</title>
<g id="a_node11"><a xlink:href="../../d0/df6/classCParser.html#a4b9f00c05d44a13b3c18b28b52f5be9e" target="_top" xlink:title="CParser::class_block\l_item_list">
<polygon fill="white" stroke="black" points="1919,-242 1919,-272 2033,-272 2033,-242 1919,-242"/>
<text text-anchor="start" x="1927" y="-260" font-family="Helvetica,sans-Serif" font-size="10.00">CParser::class_block</text>
<text text-anchor="middle" x="1976" y="-249" font-family="Helvetica,sans-Serif" font-size="10.00">_item_list</text>
</a>
</g>
</g>
<!-- Node10&#45;&gt;Node11 -->
<g id="edge12" class="edge"><title>Node10&#45;&gt;Node11</title>
<path fill="none" stroke="midnightblue" d="M1885.5,-255.411C1896.74,-255.611 1908.1,-255.812 1918.79,-256.002"/>
<polygon fill="midnightblue" stroke="midnightblue" points="1885.29,-251.907 1875.23,-255.229 1885.16,-258.906 1885.29,-251.907"/>
</g>
<!-- Node12 -->
<g id="node12" class="node"><title>Node12</title>
<g id="a_node12"><a xlink:href="../../d0/df6/classCParser.html#a06c7cac9034f27ad6d998b49a7b574c8" target="_top" xlink:title="CParser::class_block">
<polygon fill="white" stroke="black" points="2077,-247.5 2077,-266.5 2191,-266.5 2191,-247.5 2077,-247.5"/>
<text text-anchor="middle" x="2134" y="-254.5" font-family="Helvetica,sans-Serif" font-size="10.00">CParser::class_block</text>
</a>
</g>
</g>
<!-- Node11&#45;&gt;Node12 -->
<g id="edge13" class="edge"><title>Node11&#45;&gt;Node12</title>
<path fill="none" stroke="midnightblue" d="M2043.4,-257C2054.51,-257 2065.94,-257 2076.76,-257"/>
<polygon fill="midnightblue" stroke="midnightblue" points="2043.32,-253.5 2033.32,-257 2043.32,-260.5 2043.32,-253.5"/>
</g>
<!-- Node13 -->
<g id="node13" class="node"><title>Node13</title>
<g id="a_node13"><a xlink:href="../../d0/df6/classCParser.html#a40fba8426e7ac46e9926515ee81e97f3" target="_top" xlink:title="CParser::class_suffix">
<polygon fill="white" stroke="black" points="2227,-247.5 2227,-266.5 2341,-266.5 2341,-247.5 2227,-247.5"/>
<text text-anchor="middle" x="2284" y="-254.5" font-family="Helvetica,sans-Serif" font-size="10.00">CParser::class_suffix</text>
</a>
</g>
</g>
<!-- Node12&#45;&gt;Node13 -->
<g id="edge14" class="edge"><title>Node12&#45;&gt;Node13</title>
<path fill="none" stroke="midnightblue" d="M2201.56,-257C2209.98,-257 2218.54,-257 2226.78,-257"/>
<polygon fill="midnightblue" stroke="midnightblue" points="2201.37,-253.5 2191.37,-257 2201.37,-260.5 2201.37,-253.5"/>
</g>
<!-- Node14 -->
<g id="node14" class="node"><title>Node14</title>
<g id="a_node14"><a xlink:href="../../d0/df6/classCParser.html#a1ed5fcfb2e97e3551fceabe81989a667" target="_top" xlink:title="CParser::class_declaration\l_or_definition">
<polygon fill="white" stroke="black" points="2377,-198 2377,-228 2520,-228 2520,-198 2377,-198"/>
<text text-anchor="start" x="2385" y="-216" font-family="Helvetica,sans-Serif" font-size="10.00">CParser::class_declaration</text>
<text text-anchor="middle" x="2448.5" y="-205" font-family="Helvetica,sans-Serif" font-size="10.00">_or_definition</text>
</a>
</g>
</g>
<!-- Node13&#45;&gt;Node14 -->
<g id="edge15" class="edge"><title>Node13&#45;&gt;Node14</title>
<path fill="none" stroke="midnightblue" d="M2329.94,-244.831C2349.1,-239.643 2371.66,-233.535 2391.86,-228.065"/>
<polygon fill="midnightblue" stroke="midnightblue" points="2329,-241.461 2320.26,-247.453 2330.83,-248.217 2329,-241.461"/>
</g>
<!-- Node14&#45;&gt;Node3 -->
<g id="edge16" class="edge"><title>Node14&#45;&gt;Node3</title>
<path fill="none" stroke="midnightblue" d="M2366.47,-213C2303.39,-213 2213.63,-213 2135,-213 1975,-213 1975,-213 1975,-213 1876.58,-213 1763.03,-192.686 1699.1,-179.355"/>
<polygon fill="midnightblue" stroke="midnightblue" points="2366.76,-216.5 2376.76,-213 2366.76,-209.5 2366.76,-216.5"/>
</g>
<!-- Node15 -->
<g id="node15" class="node"><title>Node15</title>
<g id="a_node15"><a xlink:href="../../d0/df6/classCParser.html#a12561a45dab96760d7ab45896681dd33" target="_top" xlink:title="CParser::class_or_method\l_declaration_or_definition">
<polygon fill="white" stroke="black" points="2556,-23 2556,-53 2697,-53 2697,-23 2556,-23"/>
<text text-anchor="start" x="2564" y="-41" font-family="Helvetica,sans-Serif" font-size="10.00">CParser::class_or_method</text>
<text text-anchor="middle" x="2626.5" y="-30" font-family="Helvetica,sans-Serif" font-size="10.00">_declaration_or_definition</text>
</a>
</g>
</g>
<!-- Node14&#45;&gt;Node15 -->
<g id="edge17" class="edge"><title>Node14&#45;&gt;Node15</title>
<path fill="none" stroke="midnightblue" d="M2472.03,-190.593C2508.46,-154.371 2579.33,-83.9041 2610.35,-53.0642"/>
<polygon fill="midnightblue" stroke="midnightblue" points="2469.43,-188.243 2464.81,-197.776 2474.37,-193.207 2469.43,-188.243"/>
</g>
<!-- Node17&#45;&gt;Node3 -->
<g id="edge20" class="edge"><title>Node17&#45;&gt;Node3</title>
<path fill="none" stroke="midnightblue" d="M1351.5,-106.101C1425.79,-121.69 1533.22,-144.23 1595.85,-157.373"/>
<polygon fill="midnightblue" stroke="midnightblue" points="1352.21,-102.673 1341.7,-104.045 1350.77,-109.524 1352.21,-102.673"/>
</g>
<!-- Node17&#45;&gt;Node15 -->
<g id="edge24" class="edge"><title>Node17&#45;&gt;Node15</title>
<path fill="none" stroke="midnightblue" d="M1317.28,-70.3469C1387.8,-44.2498 1525.26,-0 1646.5,-0 1646.5,-0 1646.5,-0 2285,-0 2379.28,-0 2487.34,-14.5667 2555.98,-25.6625"/>
<polygon fill="midnightblue" stroke="midnightblue" points="1315.92,-67.1187 1307.78,-73.9024 1318.37,-73.6745 1315.92,-67.1187"/>
</g>
<!-- Node18 -->
<g id="node18" class="node"><title>Node18</title>
<g id="a_node18"><a xlink:href="../../d0/df6/classCParser.html#af0c9d35d4c997c6f34cf4a26563b513c" target="_top" xlink:title="CParser::method_declaration\l_or_definition_with_explicit_type">
<polygon fill="white" stroke="black" points="1390,-74 1390,-104 1560,-104 1560,-74 1390,-74"/>
<text text-anchor="start" x="1398" y="-92" font-family="Helvetica,sans-Serif" font-size="10.00">CParser::method_declaration</text>
<text text-anchor="middle" x="1475" y="-81" font-family="Helvetica,sans-Serif" font-size="10.00">_or_definition_with_explicit_type</text>
</a>
</g>
</g>
<!-- Node17&#45;&gt;Node18 -->
<g id="edge21" class="edge"><title>Node17&#45;&gt;Node18</title>
<path fill="none" stroke="midnightblue" d="M1364.4,-89C1372.85,-89 1381.36,-89 1389.71,-89"/>
<polygon fill="midnightblue" stroke="midnightblue" points="1364.15,-85.5001 1354.15,-89 1364.15,-92.5001 1364.15,-85.5001"/>
</g>
<!-- Node18&#45;&gt;Node3 -->
<g id="edge22" class="edge"><title>Node18&#45;&gt;Node3</title>
<path fill="none" stroke="midnightblue" d="M1517.72,-108.331C1547.33,-122.052 1586.52,-140.21 1613.86,-152.876"/>
<polygon fill="midnightblue" stroke="midnightblue" points="1519.02,-105.074 1508.47,-104.045 1516.07,-111.425 1519.02,-105.074"/>
</g>
<!-- Node18&#45;&gt;Node15 -->
<g id="edge23" class="edge"><title>Node18&#45;&gt;Node15</title>
<path fill="none" stroke="midnightblue" d="M1545.9,-71.7315C1611.98,-56.9363 1714.1,-38 1804,-38 1804,-38 1804,-38 2285,-38 2378.7,-38 2486.9,-38 2555.72,-38"/>
<polygon fill="midnightblue" stroke="midnightblue" points="1545,-68.3481 1536.02,-73.9742 1546.54,-75.1746 1545,-68.3481"/>
</g>
<!-- Node20 -->
<g id="node20" class="node"><title>Node20</title>
<g id="a_node20"><a xlink:href="../../d0/df6/classCParser.html#afe2b338c3a7a63e56c81f6b0ec17debd" target="_top" xlink:title="CParser::param_item">
<polygon fill="white" stroke="black" points="372,-98.5 372,-117.5 488,-117.5 488,-98.5 372,-98.5"/>
<text text-anchor="middle" x="430" y="-105.5" font-family="Helvetica,sans-Serif" font-size="10.00">CParser::param_item</text>
</a>
</g>
</g>
<!-- Node19&#45;&gt;Node20 -->
<g id="edge26" class="edge"><title>Node19&#45;&gt;Node20</title>
<path fill="none" stroke="midnightblue" d="M314.135,-109.893C333.077,-109.581 353.503,-109.244 371.803,-108.943"/>
<polygon fill="midnightblue" stroke="midnightblue" points="314.028,-106.395 304.087,-110.059 314.143,-113.394 314.028,-106.395"/>
</g>
<!-- Node21 -->
<g id="node21" class="node"><title>Node21</title>
<g id="a_node21"><a xlink:href="../../d0/df6/classCParser.html#ab9745428cd9f00cf216add3af0dbb2cc" target="_top" xlink:title="CParser::param_list\l_items">
<polygon fill="white" stroke="black" points="702,-99 702,-129 811,-129 811,-99 702,-99"/>
<text text-anchor="start" x="710" y="-117" font-family="Helvetica,sans-Serif" font-size="10.00">CParser::param_list</text>
<text text-anchor="middle" x="756.5" y="-106" font-family="Helvetica,sans-Serif" font-size="10.00">_items</text>
</a>
</g>
</g>
<!-- Node20&#45;&gt;Node21 -->
<g id="edge27" class="edge"><title>Node20&#45;&gt;Node21</title>
<path fill="none" stroke="midnightblue" d="M498.456,-109.247C558.785,-110.363 646.044,-111.976 701.768,-113.007"/>
<polygon fill="midnightblue" stroke="midnightblue" points="498.33,-105.744 488.267,-109.059 498.201,-112.743 498.33,-105.744"/>
</g>
<!-- Node24 -->
<g id="node24" class="node"><title>Node24</title>
<g id="a_node24"><a xlink:href="../../d0/df6/classCParser.html#ac2385c4ec53b01f101e04378849f4919" target="_top" xlink:title="CParser::more_param\l_items">
<polygon fill="white" stroke="black" points="535,-137 535,-167 655,-167 655,-137 535,-137"/>
<text text-anchor="start" x="543" y="-155" font-family="Helvetica,sans-Serif" font-size="10.00">CParser::more_param</text>
<text text-anchor="middle" x="595" y="-144" font-family="Helvetica,sans-Serif" font-size="10.00">_items</text>
</a>
</g>
</g>
<!-- Node20&#45;&gt;Node24 -->
<g id="edge31" class="edge"><title>Node20&#45;&gt;Node24</title>
<path fill="none" stroke="midnightblue" d="M476.08,-120.169C495.301,-125.357 517.926,-131.465 538.19,-136.935"/>
<polygon fill="midnightblue" stroke="midnightblue" points="476.935,-116.774 466.369,-117.547 475.111,-123.533 476.935,-116.774"/>
</g>
<!-- Node22 -->
<g id="node22" class="node"><title>Node22</title>
<g id="a_node22"><a xlink:href="../../d0/df6/classCParser.html#afbe8666c28623fadda88dce63f2d0dd7" target="_top" xlink:title="CParser::param_list">
<polygon fill="white" stroke="black" points="858,-101.5 858,-120.5 967,-120.5 967,-101.5 858,-101.5"/>
<text text-anchor="middle" x="912.5" y="-108.5" font-family="Helvetica,sans-Serif" font-size="10.00">CParser::param_list</text>
</a>
</g>
</g>
<!-- Node21&#45;&gt;Node22 -->
<g id="edge28" class="edge"><title>Node21&#45;&gt;Node22</title>
<path fill="none" stroke="midnightblue" d="M821.426,-112.755C833.565,-112.518 846.151,-112.273 857.929,-112.044"/>
<polygon fill="midnightblue" stroke="midnightblue" points="821.292,-109.257 811.362,-112.951 821.428,-116.255 821.292,-109.257"/>
</g>
<!-- Node23 -->
<g id="node23" class="node"><title>Node23</title>
<g id="a_node23"><a xlink:href="../../d0/df6/classCParser.html#ab263641e50f3b30b3ac343dd3a5f7e61" target="_top" xlink:title="CParser::method_signature">
<polygon fill="white" stroke="black" points="1003,-99.5 1003,-118.5 1148,-118.5 1148,-99.5 1003,-99.5"/>
<text text-anchor="middle" x="1075.5" y="-106.5" font-family="Helvetica,sans-Serif" font-size="10.00">CParser::method_signature</text>
</a>
</g>
</g>
<!-- Node22&#45;&gt;Node23 -->
<g id="edge29" class="edge"><title>Node22&#45;&gt;Node23</title>
<path fill="none" stroke="midnightblue" d="M977.205,-110.209C985.606,-110.104 994.263,-109.997 1002.79,-109.891"/>
<polygon fill="midnightblue" stroke="midnightblue" points="977.066,-106.71 967.111,-110.334 977.153,-113.709 977.066,-106.71"/>
</g>
<!-- Node23&#45;&gt;Node17 -->
<g id="edge30" class="edge"><title>Node23&#45;&gt;Node17</title>
<path fill="none" stroke="midnightblue" d="M1158.04,-100.484C1166.61,-99.5892 1175.33,-98.6786 1183.92,-97.7813"/>
<polygon fill="midnightblue" stroke="midnightblue" points="1157.66,-97.0044 1148.08,-101.524 1158.39,-103.967 1157.66,-97.0044"/>
</g>
<!-- Node24&#45;&gt;Node21 -->
<g id="edge32" class="edge"><title>Node24&#45;&gt;Node21</title>
<path fill="none" stroke="midnightblue" d="M665.151,-135.525C677.44,-132.597 690.071,-129.588 701.848,-126.782"/>
<polygon fill="midnightblue" stroke="midnightblue" points="664.308,-132.128 655.392,-137.85 665.931,-138.937 664.308,-132.128"/>
</g>
<!-- Node26 -->
<g id="node26" class="node"><title>Node26</title>
<g id="a_node26"><a xlink:href="../../d0/df6/classCParser.html#a5fc18448dadd6cb275480e1fa34e436b" target="_top" xlink:title="CParser::inheritance\l_item_list">
<polygon fill="white" stroke="black" points="538.5,-250 538.5,-280 651.5,-280 651.5,-250 538.5,-250"/>
<text text-anchor="start" x="546.5" y="-268" font-family="Helvetica,sans-Serif" font-size="10.00">CParser::inheritance</text>
<text text-anchor="middle" x="595" y="-257" font-family="Helvetica,sans-Serif" font-size="10.00">_item_list</text>
</a>
</g>
</g>
<!-- Node25&#45;&gt;Node26 -->
<g id="edge34" class="edge"><title>Node25&#45;&gt;Node26</title>
<path fill="none" stroke="midnightblue" d="M496.581,-248.265C510.422,-250.643 524.901,-253.13 538.335,-255.438"/>
<polygon fill="midnightblue" stroke="midnightblue" points="497.088,-244.801 486.639,-246.558 495.903,-251.7 497.088,-244.801"/>
</g>
<!-- Node27 -->
<g id="node27" class="node"><title>Node27</title>
<g id="a_node27"><a xlink:href="../../d0/df6/classCParser.html#a304bbe29d48bf8d9415ad5d6280dcdf6" target="_top" xlink:title="CParser::inheritance_list">
<polygon fill="white" stroke="black" points="691,-267.5 691,-286.5 822,-286.5 822,-267.5 691,-267.5"/>
<text text-anchor="middle" x="756.5" y="-274.5" font-family="Helvetica,sans-Serif" font-size="10.00">CParser::inheritance_list</text>
</a>
</g>
</g>
<!-- Node26&#45;&gt;Node27 -->
<g id="edge35" class="edge"><title>Node26&#45;&gt;Node27</title>
<path fill="none" stroke="midnightblue" d="M661.966,-269.963C671.471,-270.678 681.245,-271.413 690.726,-272.127"/>
<polygon fill="midnightblue" stroke="midnightblue" points="662.02,-266.457 651.785,-269.197 661.495,-273.437 662.02,-266.457"/>
</g>
<!-- Node27&#45;&gt;Node13 -->
<g id="edge36" class="edge"><title>Node27&#45;&gt;Node13</title>
<path fill="none" stroke="midnightblue" d="M832.076,-285.843C896.239,-292.684 991.332,-301 1074.5,-301 1074.5,-301 1074.5,-301 1977,-301 2073.07,-301 2184.4,-279.488 2242.68,-266.547"/>
<polygon fill="midnightblue" stroke="midnightblue" points="832.369,-282.354 822.05,-284.759 831.616,-289.314 832.369,-282.354"/>
</g>
</g>
</svg>
        <g id="navigator" transform="translate(0 0)" fill="#404254">
                <rect fill="#f2f5e9" fill-opacity="0.5" stroke="#606060" stroke-width=".5" x="0" y="0" width="60" height="60"/>
                <use id="zoomplus" xlink:href="#zoomPlus" x="17" y="9" onmousedown="handleZoom(evt,'in')"/>
                <use id="zoomminus" xlink:href="#zoomMin" x="42" y="9" onmousedown="handleZoom(evt,'out')"/>
                <use id="reset" xlink:href="#resetDef" x="30" y="36" onmousedown="handleReset()"/>
                <g id="arrowUp" xlink:href="#dirArrow" transform="translate(30 24)" onmousedown="handlePan(0,-1)">
                  <use xlink:href="#rim" fill="#404040">
                        <set attributeName="fill" to="#808080" begin="arrowUp.mouseover" end="arrowUp.mouseout"/>
                  </use>
                  <path fill="none" stroke="white" stroke-width="1.5" d="M0,-3.0v7 M-2.5,-0.5L0,-3.0L2.5,-0.5"/>
                </g>
                <g id="arrowRight" xlink:href="#dirArrow" transform="rotate(90) translate(36 -43)" onmousedown="handlePan(1,0)">
                  <use xlink:href="#rim" fill="#404040">
                        <set attributeName="fill" to="#808080" begin="arrowRight.mouseover" end="arrowRight.mouseout"/>
                  </use>
                  <path fill="none" stroke="white" stroke-width="1.5" d="M0,-3.0v7 M-2.5,-0.5L0,-3.0L2.5,-0.5"/>
                </g>
                <g id="arrowDown" xlink:href="#dirArrow" transform="rotate(180) translate(-30 -48)" onmousedown="handlePan(0,1)">
                  <use xlink:href="#rim" fill="#404040">
                        <set attributeName="fill" to="#808080" begin="arrowDown.mouseover" end="arrowDown.mouseout"/>
                  </use>
                  <path fill="none" stroke="white" stroke-width="1.5" d="M0,-3.0v7 M-2.5,-0.5L0,-3.0L2.5,-0.5"/>
                </g>
                <g id="arrowLeft" xlink:href="#dirArrow" transform="rotate(270) translate(-36 17)" onmousedown="handlePan(-1,0)">
                  <use xlink:href="#rim" fill="#404040">
                        <set attributeName="fill" to="#808080" begin="arrowLeft.mouseover" end="arrowLeft.mouseout"/>
                  </use>
                  <path fill="none" stroke="white" stroke-width="1.5" d="M0,-3.0v7 M-2.5,-0.5L0,-3.0L2.5,-0.5"/>
                </g>
        </g>
        <svg viewBox="0 0 15 15" width="100%" height="30px" preserveAspectRatio="xMaxYMin meet">
         <g id="arrow_out" transform="scale(0.3 0.3)">
          <a xlink:href="classParseStore_a0915da8493f5b1f137c9c0112318bd89_icgraph_org.svg" target="_base">
           <rect id="button" ry="5" rx="5" y="6" x="6" height="38" width="38"
                fill="#f2f5e9" fill-opacity="0.5" stroke="#606060" stroke-width="1.0"/>
           <path id="arrow"
             d="M 11.500037,31.436501 C 11.940474,20.09759 22.043105,11.32322 32.158766,21.979434 L 37.068811,17.246167 C 37.068811,17.246167 37.088388,32 37.088388,32 L 22.160133,31.978069 C 22.160133,31.978069 26.997745,27.140456 26.997745,27.140456 C 18.528582,18.264221 13.291696,25.230495 11.500037,31.436501 z"
             style="fill:#404040;"/>
          </a>
         </g>
        </svg>
</svg>
