<?xml version="1.0" encoding="UTF-8" standalone="no"?>
<!DOCTYPE svg PUBLIC "-//W3C//DTD SVG 1.1//EN"
 "http://www.w3.org/Graphics/SVG/1.1/DTD/svg11.dtd">
<!-- Generated by graphviz version 2.38.0 (20140413.2041)
 -->
<!-- Title: ParseStore::record_other_extent Pages: 1 -->
<svg width="453pt" height="127pt"
 viewBox="0.00 0.00 453.00 127.00" xmlns="http://www.w3.org/2000/svg" xmlns:xlink="http://www.w3.org/1999/xlink">
<g id="graph0" class="graph" transform="scale(1 1) rotate(0) translate(4 123)">
<title>ParseStore::record_other_extent</title>
<polygon fill="white" stroke="none" points="-4,4 -4,-123 449,-123 449,4 -4,4"/>
<!-- Node1 -->
<g id="node1" class="node"><title>Node1</title>
<polygon fill="#bfbfbf" stroke="black" points="0,-44.5 0,-74.5 105,-74.5 105,-44.5 0,-44.5"/>
<text text-anchor="start" x="8" y="-62.5" font-family="Helvetica,sans-Serif" font-size="10.00">ParseStore::record</text>
<text text-anchor="middle" x="52.5" y="-51.5" font-family="Helvetica,sans-Serif" font-size="10.00">_other_extent</text>
</g>
<!-- Node2 -->
<g id="node2" class="node"><title>Node2</title>
<g id="a_node2"><a xlink:href="../../d3/d5e/classParseStore.html#ab07edec82aea81e439fa34d2f557b36f" target="_top" xlink:title="ParseStore::insert\l_extent">
<polygon fill="white" stroke="black" points="166.5,-88.5 166.5,-118.5 267.5,-118.5 267.5,-88.5 166.5,-88.5"/>
<text text-anchor="start" x="174.5" y="-106.5" font-family="Helvetica,sans-Serif" font-size="10.00">ParseStore::insert</text>
<text text-anchor="middle" x="217" y="-95.5" font-family="Helvetica,sans-Serif" font-size="10.00">_extent</text>
</a>
</g>
</g>
<!-- Node1&#45;&gt;Node2 -->
<g id="edge1" class="edge"><title>Node1&#45;&gt;Node2</title>
<path fill="none" stroke="midnightblue" d="M105.363,-73.5428C121.668,-77.9579 139.799,-82.8671 156.586,-87.4125"/>
<polygon fill="midnightblue" stroke="midnightblue" points="155.724,-90.805 166.291,-90.0403 157.553,-84.0483 155.724,-90.805"/>
</g>
<!-- Node4 -->
<g id="node4" class="node"><title>Node4</title>
<g id="a_node4"><a xlink:href="../../d3/d5e/classParseStore.html#a058a15dda767cb8cf60dc578ec8ffb38" target="_top" xlink:title="ParseStore::flags">
<polygon fill="white" stroke="black" points="168.5,-50 168.5,-69 265.5,-69 265.5,-50 168.5,-50"/>
<text text-anchor="middle" x="217" y="-57" font-family="Helvetica,sans-Serif" font-size="10.00">ParseStore::flags</text>
</a>
</g>
</g>
<!-- Node1&#45;&gt;Node4 -->
<g id="edge3" class="edge"><title>Node1&#45;&gt;Node4</title>
<path fill="none" stroke="midnightblue" d="M105.363,-59.5C122.131,-59.5 140.83,-59.5 158.013,-59.5"/>
<polygon fill="midnightblue" stroke="midnightblue" points="158.485,-63.0001 168.485,-59.5 158.485,-56.0001 158.485,-63.0001"/>
</g>
<!-- Node5 -->
<g id="node5" class="node"><title>Node5</title>
<g id="a_node5"><a xlink:href="../../d4/d6e/classCCCC__Project.html#aade40cc33ef07a1f2ef2f091986eecdc" target="_top" xlink:title="CCCC_Project::add_rejected\l_extent">
<polygon fill="white" stroke="black" points="141,-0.5 141,-30.5 293,-30.5 293,-0.5 141,-0.5"/>
<text text-anchor="start" x="149" y="-18.5" font-family="Helvetica,sans-Serif" font-size="10.00">CCCC_Project::add_rejected</text>
<text text-anchor="middle" x="217" y="-7.5" font-family="Helvetica,sans-Serif" font-size="10.00">_extent</text>
</a>
</g>
</g>
<!-- Node1&#45;&gt;Node5 -->
<g id="edge4" class="edge"><title>Node1&#45;&gt;Node5</title>
<path fill="none" stroke="midnightblue" d="M105.363,-45.4572C119.763,-41.5579 135.588,-37.2732 150.653,-33.1941"/>
<polygon fill="midnightblue" stroke="midnightblue" points="151.683,-36.5413 160.42,-30.5493 149.853,-29.7846 151.683,-36.5413"/>
</g>
<!-- Node3 -->
<g id="node3" class="node"><title>Node3</title>
<g id="a_node3"><a xlink:href="../../db/d6a/classCCCC__Item.html#a87231c9aa43ece932511d1143b64367e" target="_top" xlink:title="CCCC_Item::Insert">
<polygon fill="white" stroke="black" points="335,-94 335,-113 439,-113 439,-94 335,-94"/>
<text text-anchor="middle" x="387" y="-101" font-family="Helvetica,sans-Serif" font-size="10.00">CCCC_Item::Insert</text>
</a>
</g>
</g>
<!-- Node2&#45;&gt;Node3 -->
<g id="edge2" class="edge"><title>Node2&#45;&gt;Node3</title>
<path fill="none" stroke="midnightblue" d="M267.951,-103.5C285.742,-103.5 305.985,-103.5 324.623,-103.5"/>
<polygon fill="midnightblue" stroke="midnightblue" points="324.787,-107 334.787,-103.5 324.787,-100 324.787,-107"/>
</g>
<!-- Node6 -->
<g id="node6" class="node"><title>Node6</title>
<g id="a_node6"><a xlink:href="../../d8/dcf/classCCCC__Table.html#a8e08fe4f6edb07f1fbf2813c66bb3606" target="_top" xlink:title="CCCC_Table::find_or\l_insert">
<polygon fill="white" stroke="black" points="329,-0.5 329,-30.5 445,-30.5 445,-0.5 329,-0.5"/>
<text text-anchor="start" x="337" y="-18.5" font-family="Helvetica,sans-Serif" font-size="10.00">CCCC_Table::find_or</text>
<text text-anchor="middle" x="387" y="-7.5" font-family="Helvetica,sans-Serif" font-size="10.00">_insert</text>
</a>
</g>
</g>
<!-- Node5&#45;&gt;Node6 -->
<g id="edge5" class="edge"><title>Node5&#45;&gt;Node6</title>
<path fill="none" stroke="midnightblue" d="M293.155,-15.5C301.664,-15.5 310.296,-15.5 318.696,-15.5"/>
<polygon fill="midnightblue" stroke="midnightblue" points="318.802,-19.0001 328.802,-15.5 318.802,-12.0001 318.802,-19.0001"/>
</g>
</g>
</svg>
