<?xml version="1.0" encoding="UTF-8" standalone="no"?>
<!DOCTYPE svg PUBLIC "-//W3C//DTD SVG 1.1//EN"
 "http://www.w3.org/Graphics/SVG/1.1/DTD/svg11.dtd">
<!-- Generated by graphviz version 2.38.0 (20140413.2041)
 -->
<!-- Title: ParseStore::record_userel_extent Pages: 1 -->
<!--zoomable 193 -->
<svg id="main" version="1.1" xmlns="http://www.w3.org/2000/svg" xmlns:xlink="http://www.w3.org/1999/xlink" xml:space="preserve" onload="init(evt)">
<style type="text/css"><![CDATA[
.edge:hover path { stroke: red; }
.edge:hover polygon { stroke: red; fill: red; }
]]></style>
<script type="text/javascript"><![CDATA[
var edges = document.getElementsByTagName('g');
if (edges && edges.length) {
  for (var i=0;i<edges.length;i++) {
    if (edges[i].id.substr(0,4)=='edge') {
      edges[i].setAttribute('class','edge');
    }
  }
}
]]></script>
        <defs>
                <circle id="rim" cx="0" cy="0" r="7"/>
                <circle id="rim2" cx="0" cy="0" r="3.5"/>
                <g id="zoomPlus">
                        <use xlink:href="#rim" fill="#404040">
                                <set attributeName="fill" to="#808080" begin="zoomplus.mouseover" end="zoomplus.mouseout"/>
                        </use>
                        <path d="M-4,0h8M0,-4v8" fill="none" stroke="white" stroke-width="1.5" pointer-events="none"/>
                </g>
                <g id="zoomMin">
                        <use xlink:href="#rim" fill="#404040">
                                <set attributeName="fill" to="#808080" begin="zoomminus.mouseover" end="zoomminus.mouseout"/>
                        </use>
                        <path d="M-4,0h8" fill="none" stroke="white" stroke-width="1.5" pointer-events="none"/>
                </g>
                <g id="dirArrow">
                        <path fill="none" stroke="white" stroke-width="1.5" d="M0,-3.0v7 M-2.5,-0.5L0,-3.0L2.5,-0.5"/>
                </g>
               <g id="resetDef">
                       <use xlink:href="#rim2" fill="#404040">
                               <set attributeName="fill" to="#808080" begin="reset.mouseover" end="reset.mouseout"/>
                       </use>
               </g>
        </defs>

<script type="text/javascript">
var viewWidth = 639;
var viewHeight = 193;
var sectionId = 'dynsection-9';
</script>
<script xlink:href="../../svgpan.js"/>
<svg id="graph" class="graph">
<g id="viewport">
<title>ParseStore::record_userel_extent</title>
<polygon fill="white" stroke="none" points="-4,4 -4,-189.47 635,-189.47 635,4 -4,4"/>
<!-- Node1 -->
<g id="node1" class="node"><title>Node1</title>
<polygon fill="#bfbfbf" stroke="black" points="0,-121 0,-151 105,-151 105,-121 0,-121"/>
<text text-anchor="start" x="8" y="-139" font-family="Helvetica,sans-Serif" font-size="10.00">ParseStore::record</text>
<text text-anchor="middle" x="52.5" y="-128" font-family="Helvetica,sans-Serif" font-size="10.00">_userel_extent</text>
</g>
<!-- Node2 -->
<g id="node2" class="node"><title>Node2</title>
<g id="a_node2"><a xlink:href="../../db/d6a/classCCCC__Item.html#a87231c9aa43ece932511d1143b64367e" target="_top" xlink:title="CCCC_Item::Insert">
<polygon fill="white" stroke="black" points="333,-142.5 333,-161.5 437,-161.5 437,-142.5 333,-142.5"/>
<text text-anchor="middle" x="385" y="-149.5" font-family="Helvetica,sans-Serif" font-size="10.00">CCCC_Item::Insert</text>
</a>
</g>
</g>
<!-- Node1&#45;&gt;Node2 -->
<g id="edge1" class="edge"><title>Node1&#45;&gt;Node2</title>
<path fill="none" stroke="midnightblue" d="M78.101,-151.103C95.0844,-160.614 118.566,-172.005 141,-177 203.036,-190.814 220.921,-184.765 284,-177 304.081,-174.528 325.93,-169.363 344.069,-164.366"/>
<polygon fill="midnightblue" stroke="midnightblue" points="345.064,-167.722 353.729,-161.625 343.153,-160.988 345.064,-167.722"/>
</g>
<!-- Node3 -->
<g id="node3" class="node"><title>Node3</title>
<g id="a_node3"><a xlink:href="../../d3/d5e/classParseStore.html#a058a15dda767cb8cf60dc578ec8ffb38" target="_top" xlink:title="ParseStore::flags">
<polygon fill="white" stroke="black" points="164,-148.5 164,-167.5 261,-167.5 261,-148.5 164,-148.5"/>
<text text-anchor="middle" x="212.5" y="-155.5" font-family="Helvetica,sans-Serif" font-size="10.00">ParseStore::flags</text>
</a>
</g>
</g>
<!-- Node1&#45;&gt;Node3 -->
<g id="edge2" class="edge"><title>Node1&#45;&gt;Node3</title>
<path fill="none" stroke="midnightblue" d="M105.235,-143.204C120.739,-145.362 137.839,-147.743 153.707,-149.953"/>
<polygon fill="midnightblue" stroke="midnightblue" points="153.54,-153.463 163.927,-151.376 154.506,-146.53 153.54,-153.463"/>
</g>
<!-- Node4 -->
<g id="node4" class="node"><title>Node4</title>
<g id="a_node4"><a xlink:href="../../d3/d5e/classParseStore.html#ab07edec82aea81e439fa34d2f557b36f" target="_top" xlink:title="ParseStore::insert\l_extent">
<polygon fill="white" stroke="black" points="162,-99 162,-129 263,-129 263,-99 162,-99"/>
<text text-anchor="start" x="170" y="-117" font-family="Helvetica,sans-Serif" font-size="10.00">ParseStore::insert</text>
<text text-anchor="middle" x="212.5" y="-106" font-family="Helvetica,sans-Serif" font-size="10.00">_extent</text>
</a>
</g>
</g>
<!-- Node1&#45;&gt;Node4 -->
<g id="edge3" class="edge"><title>Node1&#45;&gt;Node4</title>
<path fill="none" stroke="midnightblue" d="M105.235,-128.796C120.148,-126.72 136.539,-124.438 151.889,-122.3"/>
<polygon fill="midnightblue" stroke="midnightblue" points="152.377,-125.766 161.799,-120.92 151.412,-118.833 152.377,-125.766"/>
</g>
<!-- Node5 -->
<g id="node5" class="node"><title>Node5</title>
<g id="a_node5"><a xlink:href="../../d4/d6e/classCCCC__Project.html#adae36526071c67957535938bf6401d9f" target="_top" xlink:title="CCCC_Project::add_userel">
<polygon fill="white" stroke="black" points="141,-60.5 141,-79.5 284,-79.5 284,-60.5 141,-60.5"/>
<text text-anchor="middle" x="212.5" y="-67.5" font-family="Helvetica,sans-Serif" font-size="10.00">CCCC_Project::add_userel</text>
</a>
</g>
</g>
<!-- Node1&#45;&gt;Node5 -->
<g id="edge5" class="edge"><title>Node1&#45;&gt;Node5</title>
<path fill="none" stroke="midnightblue" d="M78.8668,-120.863C95.986,-111.103 119.326,-98.6622 141,-90 147.823,-87.2733 155.155,-84.759 162.419,-82.5001"/>
<polygon fill="midnightblue" stroke="midnightblue" points="163.642,-85.7879 172.229,-79.582 161.646,-79.0784 163.642,-85.7879"/>
</g>
<!-- Node4&#45;&gt;Node2 -->
<g id="edge4" class="edge"><title>Node4&#45;&gt;Node2</title>
<path fill="none" stroke="midnightblue" d="M263.274,-125.093C284.572,-129.84 309.466,-135.388 331.097,-140.209"/>
<polygon fill="midnightblue" stroke="midnightblue" points="330.58,-143.68 341.102,-142.439 332.103,-136.848 330.58,-143.68"/>
</g>
<!-- Node6 -->
<g id="node6" class="node"><title>Node6</title>
<g id="a_node6"><a xlink:href="../../d8/dcf/classCCCC__Table.html#a8e08fe4f6edb07f1fbf2813c66bb3606" target="_top" xlink:title="CCCC_Table::find_or\l_insert">
<polygon fill="white" stroke="black" points="500.5,-77 500.5,-107 616.5,-107 616.5,-77 500.5,-77"/>
<text text-anchor="start" x="508.5" y="-95" font-family="Helvetica,sans-Serif" font-size="10.00">CCCC_Table::find_or</text>
<text text-anchor="middle" x="558.5" y="-84" font-family="Helvetica,sans-Serif" font-size="10.00">_insert</text>
</a>
</g>
</g>
<!-- Node5&#45;&gt;Node6 -->
<g id="edge6" class="edge"><title>Node5&#45;&gt;Node6</title>
<path fill="none" stroke="midnightblue" d="M284.36,-74.5317C344.786,-78.3962 431.042,-83.9126 490.372,-87.7069"/>
<polygon fill="midnightblue" stroke="midnightblue" points="490.185,-91.2021 500.389,-88.3475 490.632,-84.2163 490.185,-91.2021"/>
</g>
<!-- Node7 -->
<g id="node7" class="node"><title>Node7</title>
<g id="a_node7"><a xlink:href="../../d2/d65/classCCCC__UseRelationship.html#aea65f893850f8e1903c3e53ac04170f6" target="_top" xlink:title="CCCC_UseRelationship\l::add_extent">
<polygon fill="white" stroke="black" points="320,-33 320,-63 450,-63 450,-33 320,-33"/>
<text text-anchor="start" x="328" y="-51" font-family="Helvetica,sans-Serif" font-size="10.00">CCCC_UseRelationship</text>
<text text-anchor="middle" x="385" y="-40" font-family="Helvetica,sans-Serif" font-size="10.00">::add_extent</text>
</a>
</g>
</g>
<!-- Node5&#45;&gt;Node7 -->
<g id="edge7" class="edge"><title>Node5&#45;&gt;Node7</title>
<path fill="none" stroke="midnightblue" d="M284.326,-60.8611C292.809,-59.7665 301.489,-58.6466 310.015,-57.5464"/>
<polygon fill="midnightblue" stroke="midnightblue" points="310.463,-61.0177 319.933,-56.2667 309.567,-54.0753 310.463,-61.0177"/>
</g>
<!-- Node7&#45;&gt;Node6 -->
<g id="edge8" class="edge"><title>Node7&#45;&gt;Node6</title>
<path fill="none" stroke="midnightblue" d="M444.541,-63.0192C459.346,-66.8177 475.359,-70.926 490.545,-74.822"/>
<polygon fill="midnightblue" stroke="midnightblue" points="489.828,-78.2513 500.384,-77.3462 491.567,-71.4709 489.828,-78.2513"/>
</g>
<!-- Node8 -->
<g id="node8" class="node"><title>Node8</title>
<g id="a_node8"><a xlink:href="../../df/d99/classCCCC__Extent.html#a82a7a03bd389c67ba2f5dc7787e89739" target="_top" xlink:title="CCCC_Extent::get_visibility">
<polygon fill="white" stroke="black" points="487,-38.5 487,-57.5 630,-57.5 630,-38.5 487,-38.5"/>
<text text-anchor="middle" x="558.5" y="-45.5" font-family="Helvetica,sans-Serif" font-size="10.00">CCCC_Extent::get_visibility</text>
</a>
</g>
</g>
<!-- Node7&#45;&gt;Node8 -->
<g id="edge9" class="edge"><title>Node7&#45;&gt;Node8</title>
<path fill="none" stroke="midnightblue" d="M450.348,-48C458.888,-48 467.729,-48 476.505,-48"/>
<polygon fill="midnightblue" stroke="midnightblue" points="476.753,-51.5001 486.753,-48 476.753,-44.5001 476.753,-51.5001"/>
</g>
<!-- Node9 -->
<g id="node9" class="node"><title>Node9</title>
<g id="a_node9"><a xlink:href="../../df/d99/classCCCC__Extent.html#abe27f2b34d0542894c6339274e8d1834" target="_top" xlink:title="CCCC_Extent::get_usetype">
<polygon fill="white" stroke="black" points="486,-0.5 486,-19.5 631,-19.5 631,-0.5 486,-0.5"/>
<text text-anchor="middle" x="558.5" y="-7.5" font-family="Helvetica,sans-Serif" font-size="10.00">CCCC_Extent::get_usetype</text>
</a>
</g>
</g>
<!-- Node7&#45;&gt;Node9 -->
<g id="edge10" class="edge"><title>Node7&#45;&gt;Node9</title>
<path fill="none" stroke="midnightblue" d="M450.348,-33.7421C468.225,-29.781 487.428,-25.5262 504.57,-21.728"/>
<polygon fill="midnightblue" stroke="midnightblue" points="505.393,-25.1306 514.399,-19.5501 503.878,-18.2963 505.393,-25.1306"/>
</g>
</g>
</svg>
        <g id="navigator" transform="translate(0 0)" fill="#404254">
                <rect fill="#f2f5e9" fill-opacity="0.5" stroke="#606060" stroke-width=".5" x="0" y="0" width="60" height="60"/>
                <use id="zoomplus" xlink:href="#zoomPlus" x="17" y="9" onmousedown="handleZoom(evt,'in')"/>
                <use id="zoomminus" xlink:href="#zoomMin" x="42" y="9" onmousedown="handleZoom(evt,'out')"/>
                <use id="reset" xlink:href="#resetDef" x="30" y="36" onmousedown="handleReset()"/>
                <g id="arrowUp" xlink:href="#dirArrow" transform="translate(30 24)" onmousedown="handlePan(0,-1)">
                  <use xlink:href="#rim" fill="#404040">
                        <set attributeName="fill" to="#808080" begin="arrowUp.mouseover" end="arrowUp.mouseout"/>
                  </use>
                  <path fill="none" stroke="white" stroke-width="1.5" d="M0,-3.0v7 M-2.5,-0.5L0,-3.0L2.5,-0.5"/>
                </g>
                <g id="arrowRight" xlink:href="#dirArrow" transform="rotate(90) translate(36 -43)" onmousedown="handlePan(1,0)">
                  <use xlink:href="#rim" fill="#404040">
                        <set attributeName="fill" to="#808080" begin="arrowRight.mouseover" end="arrowRight.mouseout"/>
                  </use>
                  <path fill="none" stroke="white" stroke-width="1.5" d="M0,-3.0v7 M-2.5,-0.5L0,-3.0L2.5,-0.5"/>
                </g>
                <g id="arrowDown" xlink:href="#dirArrow" transform="rotate(180) translate(-30 -48)" onmousedown="handlePan(0,1)">
                  <use xlink:href="#rim" fill="#404040">
                        <set attributeName="fill" to="#808080" begin="arrowDown.mouseover" end="arrowDown.mouseout"/>
                  </use>
                  <path fill="none" stroke="white" stroke-width="1.5" d="M0,-3.0v7 M-2.5,-0.5L0,-3.0L2.5,-0.5"/>
                </g>
                <g id="arrowLeft" xlink:href="#dirArrow" transform="rotate(270) translate(-36 17)" onmousedown="handlePan(-1,0)">
                  <use xlink:href="#rim" fill="#404040">
                        <set attributeName="fill" to="#808080" begin="arrowLeft.mouseover" end="arrowLeft.mouseout"/>
                  </use>
                  <path fill="none" stroke="white" stroke-width="1.5" d="M0,-3.0v7 M-2.5,-0.5L0,-3.0L2.5,-0.5"/>
                </g>
        </g>
        <svg viewBox="0 0 15 15" width="100%" height="30px" preserveAspectRatio="xMaxYMin meet">
         <g id="arrow_out" transform="scale(0.3 0.3)">
          <a xlink:href="classParseStore_aa8ae64513f8e2a44885a25d7b78a73e9_cgraph_org.svg" target="_base">
           <rect id="button" ry="5" rx="5" y="6" x="6" height="38" width="38"
                fill="#f2f5e9" fill-opacity="0.5" stroke="#606060" stroke-width="1.0"/>
           <path id="arrow"
             d="M 11.500037,31.436501 C 11.940474,20.09759 22.043105,11.32322 32.158766,21.979434 L 37.068811,17.246167 C 37.068811,17.246167 37.088388,32 37.088388,32 L 22.160133,31.978069 C 22.160133,31.978069 26.997745,27.140456 26.997745,27.140456 C 18.528582,18.264221 13.291696,25.230495 11.500037,31.436501 z"
             style="fill:#404040;"/>
          </a>
         </g>
        </svg>
</svg>
