<?xml version="1.0" encoding="UTF-8" standalone="no"?>
<!DOCTYPE svg PUBLIC "-//W3C//DTD SVG 1.1//EN"
 "http://www.w3.org/Graphics/SVG/1.1/DTD/svg11.dtd">
<!-- Generated by graphviz version 2.38.0 (20140413.2041)
 -->
<!-- Title: ParseStore::IncrementCount Pages: 1 -->
<svg width="409pt" height="446pt"
 viewBox="0.00 0.00 409.00 446.00" xmlns="http://www.w3.org/2000/svg" xmlns:xlink="http://www.w3.org/1999/xlink">
<g id="graph0" class="graph" transform="scale(1 1) rotate(0) translate(4 442)">
<title>ParseStore::IncrementCount</title>
<polygon fill="white" stroke="none" points="-4,4 -4,-442 405,-442 405,4 -4,4"/>
<!-- Node1 -->
<g id="node1" class="node"><title>Node1</title>
<polygon fill="#bfbfbf" stroke="black" points="0,-209.5 0,-228.5 149,-228.5 149,-209.5 0,-209.5"/>
<text text-anchor="middle" x="74.5" y="-216.5" font-family="Helvetica,sans-Serif" font-size="10.00">ParseStore::IncrementCount</text>
</g>
<!-- Node2 -->
<g id="node2" class="node"><title>Node2</title>
<g id="a_node2"><a xlink:href="../../d4/d56/CLexer_8cpp.html#acf97acbf9c6e628252fdf410a7934d93" target="_top" xlink:title="IncrementCount">
<polygon fill="white" stroke="black" points="185,-209.5 185,-228.5 277,-228.5 277,-209.5 185,-209.5"/>
<text text-anchor="middle" x="231" y="-216.5" font-family="Helvetica,sans-Serif" font-size="10.00">IncrementCount</text>
</a>
</g>
</g>
<!-- Node1&#45;&gt;Node2 -->
<g id="edge1" class="edge"><title>Node1&#45;&gt;Node2</title>
<path fill="none" stroke="midnightblue" d="M159.362,-219C168.056,-219 176.638,-219 184.663,-219"/>
<polygon fill="midnightblue" stroke="midnightblue" points="159.13,-215.5 149.13,-219 159.13,-222.5 159.13,-215.5"/>
</g>
<!-- Node3 -->
<g id="node3" class="node"><title>Node3</title>
<g id="a_node3"><a xlink:href="../../dd/d32/classCLexer.html#aad88986939864fabff2d7252fec27345" target="_top" xlink:title="CLexer::act21">
<polygon fill="white" stroke="black" points="316,-418.5 316,-437.5 398,-437.5 398,-418.5 316,-418.5"/>
<text text-anchor="middle" x="357" y="-425.5" font-family="Helvetica,sans-Serif" font-size="10.00">CLexer::act21</text>
</a>
</g>
</g>
<!-- Node2&#45;&gt;Node3 -->
<g id="edge2" class="edge"><title>Node2&#45;&gt;Node3</title>
<path fill="none" stroke="midnightblue" d="M235.466,-238.889C243.027,-276.739 264.376,-359.736 313,-409 316.784,-412.834 321.475,-415.954 326.354,-418.473"/>
<polygon fill="midnightblue" stroke="midnightblue" points="238.834,-237.861 233.547,-228.68 231.954,-239.154 238.834,-237.861"/>
</g>
<!-- Node4 -->
<g id="node4" class="node"><title>Node4</title>
<g id="a_node4"><a xlink:href="../../dd/d32/classCLexer.html#a2b86af4e1bc87b992d2c537f22de8f01" target="_top" xlink:title="CLexer::act36">
<polygon fill="white" stroke="black" points="316,-380.5 316,-399.5 398,-399.5 398,-380.5 316,-380.5"/>
<text text-anchor="middle" x="357" y="-387.5" font-family="Helvetica,sans-Serif" font-size="10.00">CLexer::act36</text>
</a>
</g>
</g>
<!-- Node2&#45;&gt;Node4 -->
<g id="edge3" class="edge"><title>Node2&#45;&gt;Node4</title>
<path fill="none" stroke="midnightblue" d="M237.707,-238.356C247.941,-270.016 272.239,-333.132 313,-371 317.066,-374.777 322.006,-377.889 327.068,-380.421"/>
<polygon fill="midnightblue" stroke="midnightblue" points="240.974,-237.077 234.669,-228.563 234.289,-239.151 240.974,-237.077"/>
</g>
<!-- Node5 -->
<g id="node5" class="node"><title>Node5</title>
<g id="a_node5"><a xlink:href="../../dd/d32/classCLexer.html#afed92d1e574fedf13670f97d38a3a227" target="_top" xlink:title="CLexer::act39">
<polygon fill="white" stroke="black" points="316,-342.5 316,-361.5 398,-361.5 398,-342.5 316,-342.5"/>
<text text-anchor="middle" x="357" y="-349.5" font-family="Helvetica,sans-Serif" font-size="10.00">CLexer::act39</text>
</a>
</g>
</g>
<!-- Node2&#45;&gt;Node5 -->
<g id="edge4" class="edge"><title>Node2&#45;&gt;Node5</title>
<path fill="none" stroke="midnightblue" d="M241.137,-237.617C254.089,-262.339 279.937,-306.014 313,-333 317.552,-336.716 322.945,-339.844 328.346,-342.422"/>
<polygon fill="midnightblue" stroke="midnightblue" points="244.188,-235.895 236.532,-228.571 237.949,-239.071 244.188,-235.895"/>
</g>
<!-- Node6 -->
<g id="node6" class="node"><title>Node6</title>
<g id="a_node6"><a xlink:href="../../dd/d32/classCLexer.html#a71b9463590c03f09c058655fc9d74808" target="_top" xlink:title="CLexer::act49">
<polygon fill="white" stroke="black" points="316,-304.5 316,-323.5 398,-323.5 398,-304.5 316,-304.5"/>
<text text-anchor="middle" x="357" y="-311.5" font-family="Helvetica,sans-Serif" font-size="10.00">CLexer::act49</text>
</a>
</g>
</g>
<!-- Node2&#45;&gt;Node6 -->
<g id="edge5" class="edge"><title>Node2&#45;&gt;Node6</title>
<path fill="none" stroke="midnightblue" d="M247.317,-236.451C262.656,-253.133 287.575,-278.167 313,-295 318.308,-298.514 324.373,-301.651 330.242,-304.314"/>
<polygon fill="midnightblue" stroke="midnightblue" points="249.895,-234.084 240.597,-229.005 244.699,-238.774 249.895,-234.084"/>
</g>
<!-- Node7 -->
<g id="node7" class="node"><title>Node7</title>
<g id="a_node7"><a xlink:href="../../dd/d32/classCLexer.html#a956d715ad7080369c53ef802dd53de08" target="_top" xlink:title="CLexer::act55">
<polygon fill="white" stroke="black" points="316,-266.5 316,-285.5 398,-285.5 398,-266.5 316,-266.5"/>
<text text-anchor="middle" x="357" y="-273.5" font-family="Helvetica,sans-Serif" font-size="10.00">CLexer::act55</text>
</a>
</g>
</g>
<!-- Node2&#45;&gt;Node7 -->
<g id="edge6" class="edge"><title>Node2&#45;&gt;Node7</title>
<path fill="none" stroke="midnightblue" d="M261.706,-233.132C276.994,-240.356 295.954,-249.237 313,-257 319.833,-260.112 327.309,-263.441 334.082,-266.429"/>
<polygon fill="midnightblue" stroke="midnightblue" points="262.783,-229.77 252.247,-228.654 259.787,-236.096 262.783,-229.77"/>
</g>
<!-- Node8 -->
<g id="node8" class="node"><title>Node8</title>
<g id="a_node8"><a xlink:href="../../dd/d32/classCLexer.html#a955b65f353b8dae07ed95d70c609c6f8" target="_top" xlink:title="CLexer::act66">
<polygon fill="white" stroke="black" points="316,-228.5 316,-247.5 398,-247.5 398,-228.5 316,-228.5"/>
<text text-anchor="middle" x="357" y="-235.5" font-family="Helvetica,sans-Serif" font-size="10.00">CLexer::act66</text>
</a>
</g>
</g>
<!-- Node2&#45;&gt;Node8 -->
<g id="edge7" class="edge"><title>Node2&#45;&gt;Node8</title>
<path fill="none" stroke="midnightblue" d="M287.027,-227.431C296.652,-228.906 306.505,-230.416 315.64,-231.816"/>
<polygon fill="midnightblue" stroke="midnightblue" points="287.532,-223.968 277.118,-225.913 286.472,-230.887 287.532,-223.968"/>
</g>
<!-- Node9 -->
<g id="node9" class="node"><title>Node9</title>
<g id="a_node9"><a xlink:href="../../dd/d32/classCLexer.html#a2986d584937e47371854b8c834cbb5f9" target="_top" xlink:title="CLexer::act96">
<polygon fill="white" stroke="black" points="316,-190.5 316,-209.5 398,-209.5 398,-190.5 316,-190.5"/>
<text text-anchor="middle" x="357" y="-197.5" font-family="Helvetica,sans-Serif" font-size="10.00">CLexer::act96</text>
</a>
</g>
</g>
<!-- Node2&#45;&gt;Node9 -->
<g id="edge8" class="edge"><title>Node2&#45;&gt;Node9</title>
<path fill="none" stroke="midnightblue" d="M287.027,-210.569C296.652,-209.094 306.505,-207.584 315.64,-206.184"/>
<polygon fill="midnightblue" stroke="midnightblue" points="286.472,-207.113 277.118,-212.087 287.532,-214.032 286.472,-207.113"/>
</g>
<!-- Node10 -->
<g id="node10" class="node"><title>Node10</title>
<g id="a_node10"><a xlink:href="../../dd/d32/classCLexer.html#a566b1c373e26a1484e037572f3bfc9d2" target="_top" xlink:title="CLexer::act97">
<polygon fill="white" stroke="black" points="316,-152.5 316,-171.5 398,-171.5 398,-152.5 316,-152.5"/>
<text text-anchor="middle" x="357" y="-159.5" font-family="Helvetica,sans-Serif" font-size="10.00">CLexer::act97</text>
</a>
</g>
</g>
<!-- Node2&#45;&gt;Node10 -->
<g id="edge9" class="edge"><title>Node2&#45;&gt;Node10</title>
<path fill="none" stroke="midnightblue" d="M261.706,-204.868C276.994,-197.644 295.954,-188.763 313,-181 319.833,-177.888 327.309,-174.559 334.082,-171.571"/>
<polygon fill="midnightblue" stroke="midnightblue" points="259.787,-201.904 252.247,-209.346 262.783,-208.23 259.787,-201.904"/>
</g>
<!-- Node11 -->
<g id="node11" class="node"><title>Node11</title>
<g id="a_node11"><a xlink:href="../../dd/d32/classCLexer.html#a115a0a5bf51c5531adb01b8f33fd8b4d" target="_top" xlink:title="CLexer::act99">
<polygon fill="white" stroke="black" points="316,-114.5 316,-133.5 398,-133.5 398,-114.5 316,-114.5"/>
<text text-anchor="middle" x="357" y="-121.5" font-family="Helvetica,sans-Serif" font-size="10.00">CLexer::act99</text>
</a>
</g>
</g>
<!-- Node2&#45;&gt;Node11 -->
<g id="edge10" class="edge"><title>Node2&#45;&gt;Node11</title>
<path fill="none" stroke="midnightblue" d="M247.317,-201.549C262.656,-184.867 287.575,-159.833 313,-143 318.308,-139.486 324.373,-136.349 330.242,-133.686"/>
<polygon fill="midnightblue" stroke="midnightblue" points="244.699,-199.226 240.597,-208.995 249.895,-203.916 244.699,-199.226"/>
</g>
<!-- Node12 -->
<g id="node12" class="node"><title>Node12</title>
<g id="a_node12"><a xlink:href="../../dd/d32/classCLexer.html#a3e53384b670ab171a2ae7b06186fd37c" target="_top" xlink:title="CLexer::act150">
<polygon fill="white" stroke="black" points="313,-76.5 313,-95.5 401,-95.5 401,-76.5 313,-76.5"/>
<text text-anchor="middle" x="357" y="-83.5" font-family="Helvetica,sans-Serif" font-size="10.00">CLexer::act150</text>
</a>
</g>
</g>
<!-- Node2&#45;&gt;Node12 -->
<g id="edge11" class="edge"><title>Node2&#45;&gt;Node12</title>
<path fill="none" stroke="midnightblue" d="M241.137,-200.383C254.089,-175.661 279.937,-131.986 313,-105 317.552,-101.284 322.945,-98.1557 328.346,-95.5779"/>
<polygon fill="midnightblue" stroke="midnightblue" points="237.949,-198.929 236.532,-209.429 244.188,-202.105 237.949,-198.929"/>
</g>
<!-- Node13 -->
<g id="node13" class="node"><title>Node13</title>
<g id="a_node13"><a xlink:href="../../dd/d32/classCLexer.html#a093e5988ba7d2c9111ce5aeab42ea542" target="_top" xlink:title="CLexer::act153">
<polygon fill="white" stroke="black" points="313,-38.5 313,-57.5 401,-57.5 401,-38.5 313,-38.5"/>
<text text-anchor="middle" x="357" y="-45.5" font-family="Helvetica,sans-Serif" font-size="10.00">CLexer::act153</text>
</a>
</g>
</g>
<!-- Node2&#45;&gt;Node13 -->
<g id="edge12" class="edge"><title>Node2&#45;&gt;Node13</title>
<path fill="none" stroke="midnightblue" d="M237.707,-199.644C247.941,-167.984 272.239,-104.868 313,-67 317.066,-63.2226 322.006,-60.1114 327.068,-57.5789"/>
<polygon fill="midnightblue" stroke="midnightblue" points="234.289,-198.849 234.669,-209.437 240.974,-200.923 234.289,-198.849"/>
</g>
<!-- Node14 -->
<g id="node14" class="node"><title>Node14</title>
<g id="a_node14"><a xlink:href="../../dd/d32/classCLexer.html#ae979f3035aa96fa2dbf9ad01da684991" target="_top" xlink:title="CLexer::act154">
<polygon fill="white" stroke="black" points="313,-0.5 313,-19.5 401,-19.5 401,-0.5 313,-0.5"/>
<text text-anchor="middle" x="357" y="-7.5" font-family="Helvetica,sans-Serif" font-size="10.00">CLexer::act154</text>
</a>
</g>
</g>
<!-- Node2&#45;&gt;Node14 -->
<g id="edge13" class="edge"><title>Node2&#45;&gt;Node14</title>
<path fill="none" stroke="midnightblue" d="M235.466,-199.111C243.027,-161.261 264.376,-78.2637 313,-29 316.784,-25.1662 321.475,-22.0464 326.354,-19.5272"/>
<polygon fill="midnightblue" stroke="midnightblue" points="231.954,-198.846 233.547,-209.32 238.834,-200.139 231.954,-198.846"/>
</g>
</g>
</svg>
