<?xml version="1.0" encoding="UTF-8" standalone="no"?>
<!DOCTYPE svg PUBLIC "-//W3C//DTD SVG 1.1//EN"
 "http://www.w3.org/Graphics/SVG/1.1/DTD/svg11.dtd">
<!-- Generated by graphviz version 2.38.0 (20140413.2041)
 -->
<!-- Title: ParseStore::record_module_extent Pages: 1 -->
<svg width="628pt" height="217pt"
 viewBox="0.00 0.00 628.00 217.00" xmlns="http://www.w3.org/2000/svg" xmlns:xlink="http://www.w3.org/1999/xlink">
<g id="graph0" class="graph" transform="scale(1 1) rotate(0) translate(4 213)">
<title>ParseStore::record_module_extent</title>
<polygon fill="white" stroke="none" points="-4,4 -4,-213 624,-213 624,4 -4,4"/>
<!-- Node1 -->
<g id="node1" class="node"><title>Node1</title>
<polygon fill="#bfbfbf" stroke="black" points="0,-121 0,-151 105,-151 105,-121 0,-121"/>
<text text-anchor="start" x="8" y="-139" font-family="Helvetica,sans-Serif" font-size="10.00">ParseStore::record</text>
<text text-anchor="middle" x="52.5" y="-128" font-family="Helvetica,sans-Serif" font-size="10.00">_module_extent</text>
</g>
<!-- Node2 -->
<g id="node2" class="node"><title>Node2</title>
<g id="a_node2"><a xlink:href="../../db/d6a/classCCCC__Item.html#a87231c9aa43ece932511d1143b64367e" target="_top" xlink:title="CCCC_Item::Insert">
<polygon fill="white" stroke="black" points="347.5,-189.5 347.5,-208.5 451.5,-208.5 451.5,-189.5 347.5,-189.5"/>
<text text-anchor="middle" x="399.5" y="-196.5" font-family="Helvetica,sans-Serif" font-size="10.00">CCCC_Item::Insert</text>
</a>
</g>
</g>
<!-- Node1&#45;&gt;Node2 -->
<g id="edge1" class="edge"><title>Node1&#45;&gt;Node2</title>
<path fill="none" stroke="midnightblue" d="M75.3766,-151.211C92.4185,-162.177 117.119,-176.198 141,-183 206.02,-201.52 283.883,-203.763 336.841,-202.485"/>
<polygon fill="midnightblue" stroke="midnightblue" points="337.196,-205.977 347.09,-202.187 336.992,-198.98 337.196,-205.977"/>
</g>
<!-- Node3 -->
<g id="node3" class="node"><title>Node3</title>
<g id="a_node3"><a xlink:href="../../d3/d5e/classParseStore.html#ab07edec82aea81e439fa34d2f557b36f" target="_top" xlink:title="ParseStore::insert\l_extent">
<polygon fill="white" stroke="black" points="164.5,-143 164.5,-173 265.5,-173 265.5,-143 164.5,-143"/>
<text text-anchor="start" x="172.5" y="-161" font-family="Helvetica,sans-Serif" font-size="10.00">ParseStore::insert</text>
<text text-anchor="middle" x="215" y="-150" font-family="Helvetica,sans-Serif" font-size="10.00">_extent</text>
</a>
</g>
</g>
<!-- Node1&#45;&gt;Node3 -->
<g id="edge2" class="edge"><title>Node1&#45;&gt;Node3</title>
<path fill="none" stroke="midnightblue" d="M105.167,-143.082C120.727,-145.215 137.937,-147.574 153.991,-149.775"/>
<polygon fill="midnightblue" stroke="midnightblue" points="153.962,-153.303 164.345,-151.194 154.913,-146.368 153.962,-153.303"/>
</g>
<!-- Node4 -->
<g id="node4" class="node"><title>Node4</title>
<g id="a_node4"><a xlink:href="../../d3/d5e/classParseStore.html#a058a15dda767cb8cf60dc578ec8ffb38" target="_top" xlink:title="ParseStore::flags">
<polygon fill="white" stroke="black" points="166.5,-104.5 166.5,-123.5 263.5,-123.5 263.5,-104.5 166.5,-104.5"/>
<text text-anchor="middle" x="215" y="-111.5" font-family="Helvetica,sans-Serif" font-size="10.00">ParseStore::flags</text>
</a>
</g>
</g>
<!-- Node1&#45;&gt;Node4 -->
<g id="edge4" class="edge"><title>Node1&#45;&gt;Node4</title>
<path fill="none" stroke="midnightblue" d="M105.167,-128.918C121.407,-126.692 139.444,-124.22 156.087,-121.938"/>
<polygon fill="midnightblue" stroke="midnightblue" points="156.81,-125.372 166.242,-120.546 155.859,-118.437 156.81,-125.372"/>
</g>
<!-- Node5 -->
<g id="node5" class="node"><title>Node5</title>
<g id="a_node5"><a xlink:href="../../d4/d6e/classCCCC__Project.html#a7a8c419dc807c57a9618da29d08d59ae" target="_top" xlink:title="CCCC_Project::add_module">
<polygon fill="white" stroke="black" points="141,-66.5 141,-85.5 289,-85.5 289,-66.5 141,-66.5"/>
<text text-anchor="middle" x="215" y="-73.5" font-family="Helvetica,sans-Serif" font-size="10.00">CCCC_Project::add_module</text>
</a>
</g>
</g>
<!-- Node1&#45;&gt;Node5 -->
<g id="edge5" class="edge"><title>Node1&#45;&gt;Node5</title>
<path fill="none" stroke="midnightblue" d="M82.1017,-120.968C98.9273,-112.541 120.802,-102.291 141,-95 147.775,-92.5545 155.008,-90.2828 162.19,-88.2232"/>
<polygon fill="midnightblue" stroke="midnightblue" points="163.192,-91.5778 171.904,-85.5495 161.334,-84.8287 163.192,-91.5778"/>
</g>
<!-- Node3&#45;&gt;Node2 -->
<g id="edge3" class="edge"><title>Node3&#45;&gt;Node2</title>
<path fill="none" stroke="midnightblue" d="M265.869,-169.203C290.838,-174.813 321.052,-181.601 346.332,-187.28"/>
<polygon fill="midnightblue" stroke="midnightblue" points="345.591,-190.701 356.115,-189.478 347.125,-183.871 345.591,-190.701"/>
</g>
<!-- Node6 -->
<g id="node6" class="node"><title>Node6</title>
<g id="a_node6"><a xlink:href="../../db/d6a/classCCCC__Item.html#aa8e1c13780b4a9191d00b85641cdde1d" target="_top" xlink:title="CCCC_Item::Extract">
<polygon fill="white" stroke="black" points="510,-107.5 510,-126.5 620,-126.5 620,-107.5 510,-107.5"/>
<text text-anchor="middle" x="565" y="-114.5" font-family="Helvetica,sans-Serif" font-size="10.00">CCCC_Item::Extract</text>
</a>
</g>
</g>
<!-- Node5&#45;&gt;Node6 -->
<g id="edge6" class="edge"><title>Node5&#45;&gt;Node6</title>
<path fill="none" stroke="midnightblue" d="M261.088,-85.5177C270.484,-88.1126 280.201,-91.2632 289,-95 306.259,-102.329 306.95,-111.921 325,-117 382.426,-133.158 450.733,-131.167 499.586,-126.316"/>
<polygon fill="midnightblue" stroke="midnightblue" points="500.129,-129.778 509.704,-125.243 499.391,-122.817 500.129,-129.778"/>
</g>
<!-- Node7 -->
<g id="node7" class="node"><title>Node7</title>
<g id="a_node7"><a xlink:href="../../df/d99/classCCCC__Extent.html#abaf126bf784cc83e12eb98434674c4df" target="_top" xlink:title="CCCC_Extent::GetFromItem">
<polygon fill="white" stroke="black" points="325,-88.5 325,-107.5 474,-107.5 474,-88.5 325,-88.5"/>
<text text-anchor="middle" x="399.5" y="-95.5" font-family="Helvetica,sans-Serif" font-size="10.00">CCCC_Extent::GetFromItem</text>
</a>
</g>
</g>
<!-- Node5&#45;&gt;Node7 -->
<g id="edge7" class="edge"><title>Node5&#45;&gt;Node7</title>
<path fill="none" stroke="midnightblue" d="M289.178,-84.8215C297.589,-85.8353 306.213,-86.8749 314.748,-87.9039"/>
<polygon fill="midnightblue" stroke="midnightblue" points="314.363,-91.3827 324.71,-89.1048 315.201,-84.433 314.363,-91.3827"/>
</g>
<!-- Node8 -->
<g id="node8" class="node"><title>Node8</title>
<g id="a_node8"><a xlink:href="../../d8/dcf/classCCCC__Table.html#a8e08fe4f6edb07f1fbf2813c66bb3606" target="_top" xlink:title="CCCC_Table::find_or\l_insert">
<polygon fill="white" stroke="black" points="341.5,-39 341.5,-69 457.5,-69 457.5,-39 341.5,-39"/>
<text text-anchor="start" x="349.5" y="-57" font-family="Helvetica,sans-Serif" font-size="10.00">CCCC_Table::find_or</text>
<text text-anchor="middle" x="399.5" y="-46" font-family="Helvetica,sans-Serif" font-size="10.00">_insert</text>
</a>
</g>
</g>
<!-- Node5&#45;&gt;Node8 -->
<g id="edge9" class="edge"><title>Node5&#45;&gt;Node8</title>
<path fill="none" stroke="midnightblue" d="M289.178,-67.1785C303.007,-65.5115 317.413,-63.7749 331.056,-62.1303"/>
<polygon fill="midnightblue" stroke="midnightblue" points="331.808,-65.565 341.317,-60.8933 330.97,-58.6153 331.808,-65.565"/>
</g>
<!-- Node9 -->
<g id="node9" class="node"><title>Node9</title>
<g id="a_node9"><a xlink:href="../../d8/d19/cccc__db_8cc.html#aebb1189ff251d7961146af7ce6b31f3e" target="_top" xlink:title="Resolve_Fields">
<polygon fill="white" stroke="black" points="355,-0.5 355,-19.5 444,-19.5 444,-0.5 355,-0.5"/>
<text text-anchor="middle" x="399.5" y="-7.5" font-family="Helvetica,sans-Serif" font-size="10.00">Resolve_Fields</text>
</a>
</g>
</g>
<!-- Node5&#45;&gt;Node9 -->
<g id="edge10" class="edge"><title>Node5&#45;&gt;Node9</title>
<path fill="none" stroke="midnightblue" d="M235.726,-66.3963C257.286,-56.1611 293.027,-39.9528 325,-29 332.109,-26.5647 339.697,-24.2717 347.199,-22.1784"/>
<polygon fill="midnightblue" stroke="midnightblue" points="348.218,-25.5287 356.962,-19.5465 346.396,-18.7699 348.218,-25.5287"/>
</g>
<!-- Node7&#45;&gt;Node6 -->
<g id="edge8" class="edge"><title>Node7&#45;&gt;Node6</title>
<path fill="none" stroke="midnightblue" d="M474.119,-106.555C482.676,-107.549 491.352,-108.558 499.769,-109.536"/>
<polygon fill="midnightblue" stroke="midnightblue" points="499.544,-113.033 509.881,-110.711 500.352,-106.08 499.544,-113.033"/>
</g>
</g>
</svg>
