<?xml version="1.0" encoding="UTF-8" standalone="no"?>
<!DOCTYPE svg PUBLIC "-//W3C//DTD SVG 1.1//EN"
 "http://www.w3.org/Graphics/SVG/1.1/DTD/svg11.dtd">
<!-- Generated by graphviz version 2.38.0 (20140413.2041)
 -->
<!-- Title: ParseStore::record_function_extent Pages: 1 -->
<svg width="813pt" height="182pt"
 viewBox="0.00 0.00 813.00 181.99" xmlns="http://www.w3.org/2000/svg" xmlns:xlink="http://www.w3.org/1999/xlink">
<g id="graph0" class="graph" transform="scale(1 1) rotate(0) translate(4 177.99)">
<title>ParseStore::record_function_extent</title>
<polygon fill="white" stroke="none" points="-4,4 -4,-177.99 809,-177.99 809,4 -4,4"/>
<!-- Node1 -->
<g id="node1" class="node"><title>Node1</title>
<polygon fill="#bfbfbf" stroke="black" points="0,-108 0,-138 105,-138 105,-108 0,-108"/>
<text text-anchor="start" x="8" y="-126" font-family="Helvetica,sans-Serif" font-size="10.00">ParseStore::record</text>
<text text-anchor="middle" x="52.5" y="-115" font-family="Helvetica,sans-Serif" font-size="10.00">_function_extent</text>
</g>
<!-- Node2 -->
<g id="node2" class="node"><title>Node2</title>
<g id="a_node2"><a xlink:href="../../db/d6a/classCCCC__Item.html#a87231c9aa43ece932511d1143b64367e" target="_top" xlink:title="CCCC_Item::Insert">
<polygon fill="white" stroke="black" points="349.5,-149.5 349.5,-168.5 453.5,-168.5 453.5,-149.5 349.5,-149.5"/>
<text text-anchor="middle" x="401.5" y="-156.5" font-family="Helvetica,sans-Serif" font-size="10.00">CCCC_Item::Insert</text>
</a>
</g>
</g>
<!-- Node1&#45;&gt;Node2 -->
<g id="edge1" class="edge"><title>Node1&#45;&gt;Node2</title>
<path fill="none" stroke="midnightblue" d="M78.101,-138.103C95.0844,-147.614 118.566,-159.005 141,-164 207.526,-178.813 286.026,-174.377 339.129,-168.266"/>
<polygon fill="midnightblue" stroke="midnightblue" points="339.561,-171.74 349.07,-167.069 338.723,-164.79 339.561,-171.74"/>
</g>
<!-- Node3 -->
<g id="node3" class="node"><title>Node3</title>
<g id="a_node3"><a xlink:href="../../d3/d5e/classParseStore.html#a058a15dda767cb8cf60dc578ec8ffb38" target="_top" xlink:title="ParseStore::flags">
<polygon fill="white" stroke="black" points="168.5,-135.5 168.5,-154.5 265.5,-154.5 265.5,-135.5 168.5,-135.5"/>
<text text-anchor="middle" x="217" y="-142.5" font-family="Helvetica,sans-Serif" font-size="10.00">ParseStore::flags</text>
</a>
</g>
</g>
<!-- Node1&#45;&gt;Node3 -->
<g id="edge2" class="edge"><title>Node1&#45;&gt;Node3</title>
<path fill="none" stroke="midnightblue" d="M105.363,-130.021C122.29,-132.313 141.183,-134.871 158.498,-137.215"/>
<polygon fill="midnightblue" stroke="midnightblue" points="158.105,-140.694 168.485,-138.567 159.045,-133.757 158.105,-140.694"/>
</g>
<!-- Node4 -->
<g id="node4" class="node"><title>Node4</title>
<g id="a_node4"><a xlink:href="../../d3/d5e/classParseStore.html#ab07edec82aea81e439fa34d2f557b36f" target="_top" xlink:title="ParseStore::insert\l_extent">
<polygon fill="white" stroke="black" points="166.5,-86 166.5,-116 267.5,-116 267.5,-86 166.5,-86"/>
<text text-anchor="start" x="174.5" y="-104" font-family="Helvetica,sans-Serif" font-size="10.00">ParseStore::insert</text>
<text text-anchor="middle" x="217" y="-93" font-family="Helvetica,sans-Serif" font-size="10.00">_extent</text>
</a>
</g>
</g>
<!-- Node1&#45;&gt;Node4 -->
<g id="edge3" class="edge"><title>Node1&#45;&gt;Node4</title>
<path fill="none" stroke="midnightblue" d="M105.363,-115.979C121.516,-113.792 139.46,-111.362 156.115,-109.108"/>
<polygon fill="midnightblue" stroke="midnightblue" points="156.851,-112.54 166.291,-107.73 155.912,-105.603 156.851,-112.54"/>
</g>
<!-- Node5 -->
<g id="node5" class="node"><title>Node5</title>
<g id="a_node5"><a xlink:href="../../d4/d6e/classCCCC__Project.html#ad3ab04f1b49b6ca6a9f8574a73ab4fdb" target="_top" xlink:title="CCCC_Project::add_member">
<polygon fill="white" stroke="black" points="141,-47.5 141,-66.5 293,-66.5 293,-47.5 141,-47.5"/>
<text text-anchor="middle" x="217" y="-54.5" font-family="Helvetica,sans-Serif" font-size="10.00">CCCC_Project::add_member</text>
</a>
</g>
</g>
<!-- Node1&#45;&gt;Node5 -->
<g id="edge5" class="edge"><title>Node1&#45;&gt;Node5</title>
<path fill="none" stroke="midnightblue" d="M77.6238,-107.96C94.7814,-97.7895 118.658,-84.679 141,-76 147.309,-73.5491 154.041,-71.327 160.783,-69.3384"/>
<polygon fill="midnightblue" stroke="midnightblue" points="161.932,-72.6518 170.623,-66.5927 160.05,-65.9094 161.932,-72.6518"/>
</g>
<!-- Node4&#45;&gt;Node2 -->
<g id="edge4" class="edge"><title>Node4&#45;&gt;Node2</title>
<path fill="none" stroke="midnightblue" d="M265.473,-116.087C295.009,-125.474 332.563,-137.409 360.565,-146.308"/>
<polygon fill="midnightblue" stroke="midnightblue" points="359.826,-149.746 370.417,-149.439 361.946,-143.075 359.826,-149.746"/>
</g>
<!-- Node6 -->
<g id="node6" class="node"><title>Node6</title>
<g id="a_node6"><a xlink:href="../../db/d6a/classCCCC__Item.html#aa8e1c13780b4a9191d00b85641cdde1d" target="_top" xlink:title="CCCC_Item::Extract">
<polygon fill="white" stroke="black" points="695,-44.5 695,-63.5 805,-63.5 805,-44.5 695,-44.5"/>
<text text-anchor="middle" x="750" y="-51.5" font-family="Helvetica,sans-Serif" font-size="10.00">CCCC_Item::Extract</text>
</a>
</g>
</g>
<!-- Node5&#45;&gt;Node6 -->
<g id="edge6" class="edge"><title>Node5&#45;&gt;Node6</title>
<path fill="none" stroke="midnightblue" d="M277.838,-66.547C362.908,-78.602 523.531,-95.7524 659,-78 676.23,-75.7421 694.854,-71.1508 710.664,-66.583"/>
<polygon fill="midnightblue" stroke="midnightblue" points="712.028,-69.8285 720.605,-63.6095 710.022,-63.1221 712.028,-69.8285"/>
</g>
<!-- Node7 -->
<g id="node7" class="node"><title>Node7</title>
<g id="a_node7"><a xlink:href="../../d8/dcf/classCCCC__Table.html#a8e08fe4f6edb07f1fbf2813c66bb3606" target="_top" xlink:title="CCCC_Table::find_or\l_insert">
<polygon fill="white" stroke="black" points="526.5,-39 526.5,-69 642.5,-69 642.5,-39 526.5,-39"/>
<text text-anchor="start" x="534.5" y="-57" font-family="Helvetica,sans-Serif" font-size="10.00">CCCC_Table::find_or</text>
<text text-anchor="middle" x="584.5" y="-46" font-family="Helvetica,sans-Serif" font-size="10.00">_insert</text>
</a>
</g>
</g>
<!-- Node5&#45;&gt;Node7 -->
<g id="edge7" class="edge"><title>Node5&#45;&gt;Node7</title>
<path fill="none" stroke="midnightblue" d="M293.289,-56.382C358.812,-55.8442 452.92,-55.0718 516.029,-54.5538"/>
<polygon fill="midnightblue" stroke="midnightblue" points="516.3,-58.0518 526.271,-54.4697 516.242,-51.052 516.3,-58.0518"/>
</g>
<!-- Node8 -->
<g id="node8" class="node"><title>Node8</title>
<g id="a_node8"><a xlink:href="../../d6/d85/classCCCC__Record.html#ad74adbd61670b67ceb4c5688aedad440" target="_top" xlink:title="CCCC_Record::add_extent">
<polygon fill="white" stroke="black" points="329,-9.5 329,-28.5 474,-28.5 474,-9.5 329,-9.5"/>
<text text-anchor="middle" x="401.5" y="-16.5" font-family="Helvetica,sans-Serif" font-size="10.00">CCCC_Record::add_extent</text>
</a>
</g>
</g>
<!-- Node5&#45;&gt;Node8 -->
<g id="edge8" class="edge"><title>Node5&#45;&gt;Node8</title>
<path fill="none" stroke="midnightblue" d="M264.052,-47.411C288.569,-42.3061 318.91,-35.9887 344.75,-30.6082"/>
<polygon fill="midnightblue" stroke="midnightblue" points="345.702,-33.9851 354.779,-28.5201 344.275,-27.1321 345.702,-33.9851"/>
</g>
<!-- Node8&#45;&gt;Node7 -->
<g id="edge11" class="edge"><title>Node8&#45;&gt;Node7</title>
<path fill="none" stroke="midnightblue" d="M451.959,-28.5639C471.838,-32.4079 495.069,-36.9001 516.43,-41.0306"/>
<polygon fill="midnightblue" stroke="midnightblue" points="515.934,-44.4995 526.417,-42.9618 517.263,-37.6269 515.934,-44.4995"/>
</g>
<!-- Node9 -->
<g id="node9" class="node"><title>Node9</title>
<g id="a_node9"><a xlink:href="../../df/d99/classCCCC__Extent.html#abaf126bf784cc83e12eb98434674c4df" target="_top" xlink:title="CCCC_Extent::GetFromItem">
<polygon fill="white" stroke="black" points="510,-0.5 510,-19.5 659,-19.5 659,-0.5 510,-0.5"/>
<text text-anchor="middle" x="584.5" y="-7.5" font-family="Helvetica,sans-Serif" font-size="10.00">CCCC_Extent::GetFromItem</text>
</a>
</g>
</g>
<!-- Node8&#45;&gt;Node9 -->
<g id="edge9" class="edge"><title>Node8&#45;&gt;Node9</title>
<path fill="none" stroke="midnightblue" d="M474.036,-15.443C482.488,-15.0227 491.17,-14.591 499.771,-14.1633"/>
<polygon fill="midnightblue" stroke="midnightblue" points="499.997,-17.6565 509.811,-13.6641 499.65,-10.6651 499.997,-17.6565"/>
</g>
<!-- Node9&#45;&gt;Node6 -->
<g id="edge10" class="edge"><title>Node9&#45;&gt;Node6</title>
<path fill="none" stroke="midnightblue" d="M622.925,-19.536C634.502,-22.5228 647.288,-25.8599 659,-29 674.145,-33.0605 690.688,-37.62 705.412,-41.7223"/>
<polygon fill="midnightblue" stroke="midnightblue" points="704.703,-45.1582 715.276,-44.4776 706.587,-38.4163 704.703,-45.1582"/>
</g>
</g>
</svg>
