<?xml version="1.0" encoding="UTF-8" standalone="no"?>
<!DOCTYPE svg PUBLIC "-//W3C//DTD SVG 1.1//EN"
 "http://www.w3.org/Graphics/SVG/1.1/DTD/svg11.dtd">
<!-- Generated by graphviz version 2.38.0 (20140413.2041)
 -->
<!-- Title: add_dialect_keyword Pages: 1 -->
<svg width="465pt" height="39pt"
 viewBox="0.00 0.00 465.00 39.00" xmlns="http://www.w3.org/2000/svg" xmlns:xlink="http://www.w3.org/1999/xlink">
<g id="graph0" class="graph" transform="scale(1 1) rotate(0) translate(4 35)">
<title>add_dialect_keyword</title>
<polygon fill="white" stroke="none" points="-4,4 -4,-35 461,-35 461,4 -4,4"/>
<!-- Node1 -->
<g id="node1" class="node"><title>Node1</title>
<polygon fill="#bfbfbf" stroke="black" points="0,-6 0,-25 117,-25 117,-6 0,-6"/>
<text text-anchor="middle" x="58.5" y="-13" font-family="Helvetica,sans-Serif" font-size="10.00">add_dialect_keyword</text>
</g>
<!-- Node2 -->
<g id="node2" class="node"><title>Node2</title>
<g id="a_node2"><a xlink:href="../../d4/d7f/classCCCC__Options.html#ace084425ddde7d4c19657d7e13677ffc" target="_top" xlink:title="CCCC_Options::Add_Option">
<polygon fill="white" stroke="black" points="153,-6 153,-25 303,-25 303,-6 153,-6"/>
<text text-anchor="middle" x="228" y="-13" font-family="Helvetica,sans-Serif" font-size="10.00">CCCC_Options::Add_Option</text>
</a>
</g>
</g>
<!-- Node1&#45;&gt;Node2 -->
<g id="edge1" class="edge"><title>Node1&#45;&gt;Node2</title>
<path fill="none" stroke="midnightblue" d="M127.316,-15.5C135.766,-15.5 144.441,-15.5 152.98,-15.5"/>
<polygon fill="midnightblue" stroke="midnightblue" points="127.144,-12.0001 117.144,-15.5 127.144,-19.0001 127.144,-12.0001"/>
</g>
<!-- Node3 -->
<g id="node3" class="node"><title>Node3</title>
<g id="a_node3"><a xlink:href="../../d4/d7f/classCCCC__Options.html#a917f10c7fa4711c83b5745be9bce8a7e" target="_top" xlink:title="CCCC_Options::Load\l_Options">
<polygon fill="white" stroke="black" points="339,-0.5 339,-30.5 457,-30.5 457,-0.5 339,-0.5"/>
<text text-anchor="start" x="347" y="-18.5" font-family="Helvetica,sans-Serif" font-size="10.00">CCCC_Options::Load</text>
<text text-anchor="middle" x="398" y="-7.5" font-family="Helvetica,sans-Serif" font-size="10.00">_Options</text>
</a>
</g>
</g>
<!-- Node2&#45;&gt;Node3 -->
<g id="edge2" class="edge"><title>Node2&#45;&gt;Node3</title>
<path fill="none" stroke="midnightblue" d="M313.305,-15.5C321.95,-15.5 330.59,-15.5 338.86,-15.5"/>
<polygon fill="midnightblue" stroke="midnightblue" points="313.176,-12.0001 303.176,-15.5 313.176,-19.0001 313.176,-12.0001"/>
</g>
</g>
</svg>
