<?xml version="1.0" encoding="UTF-8" standalone="no"?>
<!DOCTYPE svg PUBLIC "-//W3C//DTD SVG 1.1//EN"
 "http://www.w3.org/Graphics/SVG/1.1/DTD/svg11.dtd">
<!-- Generated by graphviz version 2.38.0 (20140413.2041)
 -->
<!-- Title: ParseStore Pages: 1 -->
<svg width="645pt" height="167pt"
 viewBox="0.00 0.00 645.00 166.50" xmlns="http://www.w3.org/2000/svg" xmlns:xlink="http://www.w3.org/1999/xlink">
<g id="graph0" class="graph" transform="scale(1 1) rotate(0) translate(4 162.5)">
<title>ParseStore</title>
<polygon fill="white" stroke="none" points="-4,4 -4,-162.5 641,-162.5 641,4 -4,4"/>
<!-- Node1 -->
<g id="node1" class="node"><title>Node1</title>
<polygon fill="#bfbfbf" stroke="black" points="555,-76 555,-95 625,-95 625,-76 555,-76"/>
<text text-anchor="middle" x="590" y="-83" font-family="Helvetica,sans-Serif" font-size="10.00">ParseStore</text>
</g>
<!-- Node1&#45;&gt;Node1 -->
<g id="edge1" class="edge"><title>Node1&#45;&gt;Node1</title>
<path fill="none" stroke="#9a32cd" stroke-dasharray="5,2" d="M572.223,-104.9C573.41,-109.815 579.336,-113.5 590,-113.5 607.062,-113.5 611.995,-104.065 604.796,-95.2571"/>
<polygon fill="#9a32cd" stroke="#9a32cd" points="575.594,-105.845 575.204,-95.2571 568.907,-103.778 575.594,-105.845"/>
<text text-anchor="middle" x="590" y="-116.5" font-family="Helvetica,sans-Serif" font-size="10.00"> theCurrentInstance</text>
</g>
<!-- Node2 -->
<g id="node2" class="node"><title>Node2</title>
<polygon fill="white" stroke="#bfbfbf" points="310,-136 310,-155 414,-155 414,-136 310,-136"/>
<text text-anchor="middle" x="362" y="-143" font-family="Helvetica,sans-Serif" font-size="10.00">std::vector&lt; char &gt;</text>
</g>
<!-- Node2&#45;&gt;Node1 -->
<g id="edge2" class="edge"><title>Node2&#45;&gt;Node1</title>
<path fill="none" stroke="#9a32cd" stroke-dasharray="5,2" d="M424.552,-138.944C458.401,-134.164 500.759,-126.234 537,-113.5 550.156,-108.877 564.01,-101.264 574.106,-95.1419"/>
<polygon fill="#9a32cd" stroke="#9a32cd" points="423.776,-135.517 414.336,-140.328 424.716,-142.453 423.776,-135.517"/>
<text text-anchor="middle" x="494" y="-136.5" font-family="Helvetica,sans-Serif" font-size="10.00"> flag</text>
</g>
<!-- Node3 -->
<g id="node3" class="node"><title>Node3</title>
<polygon fill="white" stroke="#bfbfbf" points="141,-139 141,-158 179,-158 179,-139 141,-139"/>
<text text-anchor="middle" x="160" y="-146" font-family="Helvetica,sans-Serif" font-size="10.00">char</text>
</g>
<!-- Node3&#45;&gt;Node2 -->
<g id="edge3" class="edge"><title>Node3&#45;&gt;Node2</title>
<path fill="none" stroke="#9a32cd" stroke-dasharray="5,2" d="M189.279,-148.076C220.527,-147.607 271.495,-146.843 309.803,-146.268"/>
<polygon fill="#9a32cd" stroke="#9a32cd" points="189.048,-144.579 179.101,-148.228 189.153,-151.578 189.048,-144.579"/>
<text text-anchor="middle" x="250" y="-149.5" font-family="Helvetica,sans-Serif" font-size="10.00"> elements</text>
</g>
<!-- Node4 -->
<g id="node4" class="node"><title>Node4</title>
<g id="a_node4"><a xlink:title="STL class. ">
<polygon fill="white" stroke="#bfbfbf" points="331,-97 331,-116 393,-116 393,-97 331,-97"/>
<text text-anchor="middle" x="362" y="-104" font-family="Helvetica,sans-Serif" font-size="10.00">std::string</text>
</a>
</g>
</g>
<!-- Node4&#45;&gt;Node1 -->
<g id="edge4" class="edge"><title>Node4&#45;&gt;Node1</title>
<path fill="none" stroke="#9a32cd" stroke-dasharray="5,2" d="M403.149,-102.769C446.285,-98.7611 514.11,-92.4588 554.797,-88.6781"/>
<polygon fill="#9a32cd" stroke="#9a32cd" points="402.644,-99.3011 393.011,-103.711 403.292,-106.271 402.644,-99.3011"/>
<text text-anchor="middle" x="494" y="-101.5" font-family="Helvetica,sans-Serif" font-size="10.00"> theFilename</text>
</g>
<!-- Node5 -->
<g id="node5" class="node"><title>Node5</title>
<g id="a_node5"><a xlink:title="STL class. ">
<polygon fill="white" stroke="#bfbfbf" points="111,-89.5 111,-119.5 209,-119.5 209,-89.5 111,-89.5"/>
<text text-anchor="start" x="119" y="-107.5" font-family="Helvetica,sans-Serif" font-size="10.00">std::basic_string&lt;</text>
<text text-anchor="middle" x="160" y="-96.5" font-family="Helvetica,sans-Serif" font-size="10.00"> char &gt;</text>
</a>
</g>
</g>
<!-- Node5&#45;&gt;Node4 -->
<g id="edge5" class="edge"><title>Node5&#45;&gt;Node4</title>
<path fill="none" stroke="midnightblue" d="M219.217,-105.082C255.806,-105.448 301.494,-105.905 330.953,-106.2"/>
<polygon fill="midnightblue" stroke="midnightblue" points="219.194,-101.582 209.159,-104.982 219.124,-108.582 219.194,-101.582"/>
</g>
<!-- Node6 -->
<g id="node6" class="node"><title>Node6</title>
<polygon fill="white" stroke="#bfbfbf" points="113,-38 113,-57 207,-57 207,-38 113,-38"/>
<text text-anchor="middle" x="160" y="-45" font-family="Helvetica,sans-Serif" font-size="10.00">std::vector&lt; int &gt;</text>
</g>
<!-- Node6&#45;&gt;Node1 -->
<g id="edge6" class="edge"><title>Node6&#45;&gt;Node1</title>
<path fill="none" stroke="#9a32cd" stroke-dasharray="5,2" d="M217.243,-52.4935C307.342,-60.493 481.358,-75.943 554.884,-82.471"/>
<polygon fill="#9a32cd" stroke="#9a32cd" points="217.481,-49.0009 207.21,-51.6028 216.861,-55.9735 217.481,-49.0009"/>
<text text-anchor="middle" x="362" y="-75.5" font-family="Helvetica,sans-Serif" font-size="10.00"> pendingLexicalCounts</text>
</g>
<!-- Node8 -->
<g id="node8" class="node"><title>Node8</title>
<polygon fill="white" stroke="#bfbfbf" points="291,-0.5 291,-30.5 433,-30.5 433,-0.5 291,-0.5"/>
<text text-anchor="start" x="299" y="-18.5" font-family="Helvetica,sans-Serif" font-size="10.00">std::map&lt; int, LexicalCount</text>
<text text-anchor="middle" x="362" y="-7.5" font-family="Helvetica,sans-Serif" font-size="10.00">Array &gt;</text>
</g>
<!-- Node6&#45;&gt;Node8 -->
<g id="edge10" class="edge"><title>Node6&#45;&gt;Node8</title>
<path fill="none" stroke="#9a32cd" stroke-dasharray="5,2" d="M217.02,-38.5368C239.901,-34.8759 266.618,-30.6012 290.781,-26.735"/>
<polygon fill="#9a32cd" stroke="#9a32cd" points="216.457,-35.0823 207.135,-40.1184 217.563,-41.9944 216.457,-35.0823"/>
<text text-anchor="middle" x="250" y="-39.5" font-family="Helvetica,sans-Serif" font-size="10.00"> elements</text>
</g>
<!-- Node7 -->
<g id="node7" class="node"><title>Node7</title>
<polygon fill="white" stroke="#bfbfbf" points="0,-17 0,-36 29,-36 29,-17 0,-17"/>
<text text-anchor="middle" x="14.5" y="-24" font-family="Helvetica,sans-Serif" font-size="10.00">int</text>
</g>
<!-- Node7&#45;&gt;Node6 -->
<g id="edge7" class="edge"><title>Node7&#45;&gt;Node6</title>
<path fill="none" stroke="#9a32cd" stroke-dasharray="5,2" d="M39.0595,-29.9477C59.0428,-32.8721 88.3007,-37.1538 112.916,-40.756"/>
<polygon fill="#9a32cd" stroke="#9a32cd" points="39.4016,-26.4606 29.0001,-28.4756 38.3879,-33.3868 39.4016,-26.4606"/>
<text text-anchor="middle" x="70" y="-41.5" font-family="Helvetica,sans-Serif" font-size="10.00"> elements</text>
</g>
<!-- Node7&#45;&gt;Node8 -->
<g id="edge9" class="edge"><title>Node7&#45;&gt;Node8</title>
<path fill="none" stroke="#9a32cd" stroke-dasharray="5,2" d="M39.0803,-23.7086C58.3835,-21.5607 86.4163,-18.7544 111,-17.5 171.687,-14.4034 240.766,-14.0956 290.908,-14.4524"/>
<polygon fill="#9a32cd" stroke="#9a32cd" points="38.6127,-20.2391 29.0739,-24.8502 39.4063,-27.194 38.6127,-20.2391"/>
<text text-anchor="middle" x="160" y="-20.5" font-family="Helvetica,sans-Serif" font-size="10.00"> keys</text>
</g>
<!-- Node8&#45;&gt;Node1 -->
<g id="edge8" class="edge"><title>Node8&#45;&gt;Node1</title>
<path fill="none" stroke="#9a32cd" stroke-dasharray="5,2" d="M443.322,-18.944C473.705,-22.5362 507.941,-29.4379 537,-42.5 554.523,-50.3767 570.935,-65.8086 580.469,-75.883"/>
<polygon fill="#9a32cd" stroke="#9a32cd" points="443.497,-15.4427 433.179,-17.8485 442.746,-22.4022 443.497,-15.4427"/>
<text text-anchor="middle" x="494" y="-45.5" font-family="Helvetica,sans-Serif" font-size="10.00"> lineLexicalCounts</text>
</g>
</g>
</svg>
