<?xml version="1.0" encoding="UTF-8" standalone="no"?>
<!DOCTYPE svg PUBLIC "-//W3C//DTD SVG 1.1//EN"
 "http://www.w3.org/Graphics/SVG/1.1/DTD/svg11.dtd">
<!-- Generated by graphviz version 2.38.0 (20140413.2041)
 -->
<!-- Title: CCCC_Module::is_trivial Pages: 1 -->
<!--zoomable 590 -->
<svg id="main" version="1.1" xmlns="http://www.w3.org/2000/svg" xmlns:xlink="http://www.w3.org/1999/xlink" xml:space="preserve" onload="init(evt)">
<style type="text/css"><![CDATA[
.edge:hover path { stroke: red; }
.edge:hover polygon { stroke: red; fill: red; }
]]></style>
<script type="text/javascript"><![CDATA[
var edges = document.getElementsByTagName('g');
if (edges && edges.length) {
  for (var i=0;i<edges.length;i++) {
    if (edges[i].id.substr(0,4)=='edge') {
      edges[i].setAttribute('class','edge');
    }
  }
}
]]></script>
        <defs>
                <circle id="rim" cx="0" cy="0" r="7"/>
                <circle id="rim2" cx="0" cy="0" r="3.5"/>
                <g id="zoomPlus">
                        <use xlink:href="#rim" fill="#404040">
                                <set attributeName="fill" to="#808080" begin="zoomplus.mouseover" end="zoomplus.mouseout"/>
                        </use>
                        <path d="M-4,0h8M0,-4v8" fill="none" stroke="white" stroke-width="1.5" pointer-events="none"/>
                </g>
                <g id="zoomMin">
                        <use xlink:href="#rim" fill="#404040">
                                <set attributeName="fill" to="#808080" begin="zoomminus.mouseover" end="zoomminus.mouseout"/>
                        </use>
                        <path d="M-4,0h8" fill="none" stroke="white" stroke-width="1.5" pointer-events="none"/>
                </g>
                <g id="dirArrow">
                        <path fill="none" stroke="white" stroke-width="1.5" d="M0,-3.0v7 M-2.5,-0.5L0,-3.0L2.5,-0.5"/>
                </g>
               <g id="resetDef">
                       <use xlink:href="#rim2" fill="#404040">
                               <set attributeName="fill" to="#808080" begin="reset.mouseover" end="reset.mouseout"/>
                       </use>
               </g>
        </defs>

<script type="text/javascript">
var viewWidth = 735;
var viewHeight = 590;
var sectionId = 'dynsection-7';
</script>
<script xlink:href="../../svgpan.js"/>
<svg id="graph" class="graph">
<g id="viewport">
<title>CCCC_Module::is_trivial</title>
<polygon fill="white" stroke="none" points="-4,4 -4,-586 731,-586 731,4 -4,4"/>
<!-- Node1 -->
<g id="node1" class="node"><title>Node1</title>
<polygon fill="#bfbfbf" stroke="black" points="0,-244 0,-263 130,-263 130,-244 0,-244"/>
<text text-anchor="middle" x="65" y="-251" font-family="Helvetica,sans-Serif" font-size="10.00">CCCC_Module::is_trivial</text>
</g>
<!-- Node2 -->
<g id="node2" class="node"><title>Node2</title>
<g id="a_node2"><a xlink:href="../../d2/d92/classCCCC__Html__Stream.html#a81d206c53e52cd62d445beb809c3d215" target="_top" xlink:title="CCCC_Html_Stream::OO\l_Design">
<polygon fill="white" stroke="black" points="381.5,-551.5 381.5,-581.5 515.5,-581.5 515.5,-551.5 381.5,-551.5"/>
<text text-anchor="start" x="389.5" y="-569.5" font-family="Helvetica,sans-Serif" font-size="10.00">CCCC_Html_Stream::OO</text>
<text text-anchor="middle" x="448.5" y="-558.5" font-family="Helvetica,sans-Serif" font-size="10.00">_Design</text>
</a>
</g>
</g>
<!-- Node1&#45;&gt;Node2 -->
<g id="edge1" class="edge"><title>Node1&#45;&gt;Node2</title>
<path fill="none" stroke="midnightblue" d="M69.0432,-273.448C76.8291,-317.573 101.598,-424.079 166,-481.5 226.11,-535.094 319.029,-554.914 381.498,-562.232"/>
<polygon fill="midnightblue" stroke="midnightblue" points="72.4687,-272.71 67.3811,-263.416 65.5629,-273.854 72.4687,-272.71"/>
</g>
<!-- Node3 -->
<g id="node3" class="node"><title>Node3</title>
<g id="a_node3"><a xlink:href="../../d2/d92/classCCCC__Html__Stream.html#a872d57e3b8d177d0fcc532237b53e6fe" target="_top" xlink:title="CCCC_Html_Stream::Procedural\l_Summary">
<polygon fill="white" stroke="black" points="364,-502.5 364,-532.5 533,-532.5 533,-502.5 364,-502.5"/>
<text text-anchor="start" x="372" y="-520.5" font-family="Helvetica,sans-Serif" font-size="10.00">CCCC_Html_Stream::Procedural</text>
<text text-anchor="middle" x="448.5" y="-509.5" font-family="Helvetica,sans-Serif" font-size="10.00">_Summary</text>
</a>
</g>
</g>
<!-- Node1&#45;&gt;Node3 -->
<g id="edge2" class="edge"><title>Node1&#45;&gt;Node3</title>
<path fill="none" stroke="midnightblue" d="M71.3766,-273.078C82.5891,-310.212 112.02,-391.042 166,-434.5 222.556,-480.031 303.371,-500.591 363.915,-509.871"/>
<polygon fill="midnightblue" stroke="midnightblue" points="74.6156,-271.679 68.4747,-263.046 67.8913,-273.624 74.6156,-271.679"/>
</g>
<!-- Node4 -->
<g id="node4" class="node"><title>Node4</title>
<g id="a_node4"><a xlink:href="../../d2/d92/classCCCC__Html__Stream.html#a0dbb99417ffc369edc76114cc2455ee2" target="_top" xlink:title="CCCC_Html_Stream::Structural\l_Summary">
<polygon fill="white" stroke="black" points="367.5,-453.5 367.5,-483.5 529.5,-483.5 529.5,-453.5 367.5,-453.5"/>
<text text-anchor="start" x="375.5" y="-471.5" font-family="Helvetica,sans-Serif" font-size="10.00">CCCC_Html_Stream::Structural</text>
<text text-anchor="middle" x="448.5" y="-460.5" font-family="Helvetica,sans-Serif" font-size="10.00">_Summary</text>
</a>
</g>
</g>
<!-- Node1&#45;&gt;Node4 -->
<g id="edge3" class="edge"><title>Node1&#45;&gt;Node4</title>
<path fill="none" stroke="midnightblue" d="M74.692,-272.31C89.2986,-301.816 121.587,-358.776 166,-389.5 226.008,-431.012 307.383,-450.814 367.209,-460.197"/>
<polygon fill="midnightblue" stroke="midnightblue" points="77.7562,-270.606 70.272,-263.107 71.4461,-273.636 77.7562,-270.606"/>
</g>
<!-- Node5 -->
<g id="node5" class="node"><title>Node5</title>
<g id="a_node5"><a xlink:href="../../d2/d92/classCCCC__Html__Stream.html#a0abac1d610545f3aac5c469074e98ee8" target="_top" xlink:title="CCCC_Html_Stream::Structural\l_Detail">
<polygon fill="white" stroke="black" points="166,-137.5 166,-167.5 328,-167.5 328,-137.5 166,-137.5"/>
<text text-anchor="start" x="174" y="-155.5" font-family="Helvetica,sans-Serif" font-size="10.00">CCCC_Html_Stream::Structural</text>
<text text-anchor="middle" x="247" y="-144.5" font-family="Helvetica,sans-Serif" font-size="10.00">_Detail</text>
</a>
</g>
</g>
<!-- Node1&#45;&gt;Node5 -->
<g id="edge4" class="edge"><title>Node1&#45;&gt;Node5</title>
<path fill="none" stroke="midnightblue" d="M85.1621,-237.602C104.603,-222.041 136.022,-198.416 166,-182.5 176.481,-176.935 188.224,-171.919 199.416,-167.651"/>
<polygon fill="midnightblue" stroke="midnightblue" points="82.9229,-234.912 77.3616,-243.93 87.3327,-240.348 82.9229,-234.912"/>
</g>
<!-- Node6 -->
<g id="node6" class="node"><title>Node6</title>
<g id="a_node6"><a xlink:href="../../d2/d92/classCCCC__Html__Stream.html#abc48ef802e86d097b606dda746f1dc39" target="_top" xlink:title="CCCC_Html_Stream::Separate\l_Modules">
<polygon fill="white" stroke="black" points="166.5,-88.5 166.5,-118.5 327.5,-118.5 327.5,-88.5 166.5,-88.5"/>
<text text-anchor="start" x="174.5" y="-106.5" font-family="Helvetica,sans-Serif" font-size="10.00">CCCC_Html_Stream::Separate</text>
<text text-anchor="middle" x="247" y="-95.5" font-family="Helvetica,sans-Serif" font-size="10.00">_Modules</text>
</a>
</g>
</g>
<!-- Node1&#45;&gt;Node6 -->
<g id="edge5" class="edge"><title>Node1&#45;&gt;Node6</title>
<path fill="none" stroke="midnightblue" d="M75.7698,-235.009C91.2461,-207.494 124,-155.97 166,-127.5 171.041,-124.083 176.582,-121.141 182.322,-118.61"/>
<polygon fill="midnightblue" stroke="midnightblue" points="72.5949,-233.52 70.8645,-243.973 78.7355,-236.88 72.5949,-233.52"/>
</g>
<!-- Node7 -->
<g id="node7" class="node"><title>Node7</title>
<g id="a_node7"><a xlink:href="../../d6/d9f/classCCCC__Module.html#ad1f26ab257c41657302b5c7b0253b034" target="_top" xlink:title="CCCC_Module::get_count">
<polygon fill="white" stroke="black" points="178,-361 178,-380 316,-380 316,-361 178,-361"/>
<text text-anchor="middle" x="247" y="-368" font-family="Helvetica,sans-Serif" font-size="10.00">CCCC_Module::get_count</text>
</a>
</g>
</g>
<!-- Node1&#45;&gt;Node7 -->
<g id="edge6" class="edge"><title>Node1&#45;&gt;Node7</title>
<path fill="none" stroke="midnightblue" d="M84.6883,-269.654C104.203,-286.09 136.081,-311.746 166,-330.5 184.815,-342.294 207.572,-353.393 223.997,-360.893"/>
<polygon fill="midnightblue" stroke="midnightblue" points="86.7683,-266.828 76.8835,-263.015 82.2328,-272.16 86.7683,-266.828"/>
</g>
<!-- Node9 -->
<g id="node9" class="node"><title>Node9</title>
<g id="a_node9"><a xlink:href="../../db/d8c/classCCCC__Xml__Stream.html#a261ad7db353c63e8f2ecc43dd120c35b" target="_top" xlink:title="CCCC_Xml_Stream::OO\l_Design">
<polygon fill="white" stroke="black" points="383,-306.5 383,-336.5 514,-336.5 514,-306.5 383,-306.5"/>
<text text-anchor="start" x="391" y="-324.5" font-family="Helvetica,sans-Serif" font-size="10.00">CCCC_Xml_Stream::OO</text>
<text text-anchor="middle" x="448.5" y="-313.5" font-family="Helvetica,sans-Serif" font-size="10.00">_Design</text>
</a>
</g>
</g>
<!-- Node1&#45;&gt;Node9 -->
<g id="edge18" class="edge"><title>Node1&#45;&gt;Node9</title>
<path fill="none" stroke="midnightblue" d="M117.248,-265.338C132.863,-268.793 150.103,-272.455 166,-275.5 240.047,-289.684 325.585,-303.267 382.756,-311.947"/>
<polygon fill="midnightblue" stroke="midnightblue" points="117.773,-261.869 107.251,-263.106 116.248,-268.701 117.773,-261.869"/>
</g>
<!-- Node10 -->
<g id="node10" class="node"><title>Node10</title>
<g id="a_node10"><a xlink:href="../../db/d8c/classCCCC__Xml__Stream.html#af8659ea64595d693d4b3a78f2620b379" target="_top" xlink:title="CCCC_Xml_Stream::Procedural\l_Summary">
<polygon fill="white" stroke="black" points="366,-257.5 366,-287.5 531,-287.5 531,-257.5 366,-257.5"/>
<text text-anchor="start" x="374" y="-275.5" font-family="Helvetica,sans-Serif" font-size="10.00">CCCC_Xml_Stream::Procedural</text>
<text text-anchor="middle" x="448.5" y="-264.5" font-family="Helvetica,sans-Serif" font-size="10.00">_Summary</text>
</a>
</g>
</g>
<!-- Node1&#45;&gt;Node10 -->
<g id="edge19" class="edge"><title>Node1&#45;&gt;Node10</title>
<path fill="none" stroke="midnightblue" d="M140.434,-257.207C205.278,-260.436 299.128,-265.111 365.98,-268.44"/>
<polygon fill="midnightblue" stroke="midnightblue" points="140.447,-253.703 130.285,-256.702 140.098,-260.695 140.447,-253.703"/>
</g>
<!-- Node11 -->
<g id="node11" class="node"><title>Node11</title>
<g id="a_node11"><a xlink:href="../../db/d8c/classCCCC__Xml__Stream.html#a8e9d1d8c0d2645f1af6df568e58cd175" target="_top" xlink:title="CCCC_Xml_Stream::Structural\l_Summary">
<polygon fill="white" stroke="black" points="369.5,-208.5 369.5,-238.5 527.5,-238.5 527.5,-208.5 369.5,-208.5"/>
<text text-anchor="start" x="377.5" y="-226.5" font-family="Helvetica,sans-Serif" font-size="10.00">CCCC_Xml_Stream::Structural</text>
<text text-anchor="middle" x="448.5" y="-215.5" font-family="Helvetica,sans-Serif" font-size="10.00">_Summary</text>
</a>
</g>
</g>
<!-- Node1&#45;&gt;Node11 -->
<g id="edge20" class="edge"><title>Node1&#45;&gt;Node11</title>
<path fill="none" stroke="midnightblue" d="M140.605,-247.633C206.561,-242.447 302.431,-234.908 369.414,-229.64"/>
<polygon fill="midnightblue" stroke="midnightblue" points="139.98,-244.172 130.285,-248.445 140.529,-251.15 139.98,-244.172"/>
</g>
<!-- Node13 -->
<g id="node13" class="node"><title>Node13</title>
<g id="a_node13"><a xlink:href="../../db/d8c/classCCCC__Xml__Stream.html#a221dc496f3d46314b700c1a3bb6e5e5c" target="_top" xlink:title="CCCC_Xml_Stream::Separate\l_Modules">
<polygon fill="white" stroke="black" points="569,-259.5 569,-289.5 727,-289.5 727,-259.5 569,-259.5"/>
<text text-anchor="start" x="577" y="-277.5" font-family="Helvetica,sans-Serif" font-size="10.00">CCCC_Xml_Stream::Separate</text>
<text text-anchor="middle" x="648" y="-266.5" font-family="Helvetica,sans-Serif" font-size="10.00">_Modules</text>
</a>
</g>
</g>
<!-- Node1&#45;&gt;Node13 -->
<g id="edge22" class="edge"><title>Node1&#45;&gt;Node13</title>
<path fill="none" stroke="midnightblue" d="M100.229,-240.366C178.571,-212.269 376.238,-152.558 533,-199.5 572.036,-211.189 610.078,-241.027 630.841,-259.35"/>
<polygon fill="midnightblue" stroke="midnightblue" points="98.6082,-237.232 90.4133,-243.947 101.007,-243.808 98.6082,-237.232"/>
</g>
<!-- Node14 -->
<g id="node14" class="node"><title>Node14</title>
<g id="a_node14"><a xlink:href="../../d4/d6e/classCCCC__Project.html#a9e618e858690b526180d7af22b0d48df" target="_top" xlink:title="CCCC_Project::reindex">
<polygon fill="white" stroke="black" points="184.5,-50 184.5,-69 309.5,-69 309.5,-50 184.5,-50"/>
<text text-anchor="middle" x="247" y="-57" font-family="Helvetica,sans-Serif" font-size="10.00">CCCC_Project::reindex</text>
</a>
</g>
</g>
<!-- Node1&#45;&gt;Node14 -->
<g id="edge16" class="edge"><title>Node1&#45;&gt;Node14</title>
<path fill="none" stroke="midnightblue" d="M71.5169,-233.775C82.8157,-197.166 112.173,-118.779 166,-78.5 171.486,-74.3947 177.727,-71.1609 184.248,-68.6161"/>
<polygon fill="midnightblue" stroke="midnightblue" points="68.0595,-233.125 68.583,-243.707 74.7727,-235.108 68.0595,-233.125"/>
</g>
<!-- Node16 -->
<g id="node16" class="node"><title>Node16</title>
<g id="a_node16"><a xlink:href="../../db/d8c/classCCCC__Xml__Stream.html#abfc8789cda35a84224b19b6cb1371dc7" target="_top" xlink:title="CCCC_Xml_Stream::Structural\l_Detail">
<polygon fill="white" stroke="black" points="168,-0.5 168,-30.5 326,-30.5 326,-0.5 168,-0.5"/>
<text text-anchor="start" x="176" y="-18.5" font-family="Helvetica,sans-Serif" font-size="10.00">CCCC_Xml_Stream::Structural</text>
<text text-anchor="middle" x="247" y="-7.5" font-family="Helvetica,sans-Serif" font-size="10.00">_Detail</text>
</a>
</g>
</g>
<!-- Node1&#45;&gt;Node16 -->
<g id="edge21" class="edge"><title>Node1&#45;&gt;Node16</title>
<path fill="none" stroke="midnightblue" d="M69.7063,-233.753C78.5987,-191.873 105.092,-93.6375 166,-40.5 170.386,-36.6736 175.354,-33.4325 180.616,-30.6874"/>
<polygon fill="midnightblue" stroke="midnightblue" points="66.2316,-233.279 67.6913,-243.773 73.0942,-234.66 66.2316,-233.279"/>
</g>
<!-- Node7&#45;&gt;Node2 -->
<g id="edge7" class="edge"><title>Node7&#45;&gt;Node2</title>
<path fill="none" stroke="midnightblue" d="M255.608,-389.68C270.735,-425.317 308.031,-501.807 364,-542.5 369.246,-546.314 375.085,-549.524 381.171,-552.225"/>
<polygon fill="midnightblue" stroke="midnightblue" points="258.673,-387.931 251.629,-380.017 252.2,-390.597 258.673,-387.931"/>
</g>
<!-- Node7&#45;&gt;Node3 -->
<g id="edge8" class="edge"><title>Node7&#45;&gt;Node3</title>
<path fill="none" stroke="midnightblue" d="M260.167,-388.604C279.174,-415.488 318.484,-465.764 364,-493.5 369.667,-496.954 375.853,-499.929 382.212,-502.488"/>
<polygon fill="midnightblue" stroke="midnightblue" points="262.883,-386.378 254.314,-380.146 257.127,-390.361 262.883,-386.378"/>
</g>
<!-- Node7&#45;&gt;Node4 -->
<g id="edge9" class="edge"><title>Node7&#45;&gt;Node4</title>
<path fill="none" stroke="midnightblue" d="M270.176,-385.732C298.193,-404.784 345.04,-435.945 364,-444.5 371.287,-447.788 379.135,-450.743 387.001,-453.362"/>
<polygon fill="midnightblue" stroke="midnightblue" points="272.033,-382.762 261.8,-380.016 268.087,-388.544 272.033,-382.762"/>
</g>
<!-- Node8 -->
<g id="node8" class="node"><title>Node8</title>
<g id="a_node8"><a xlink:href="../../d2/d92/classCCCC__Html__Stream.html#a4ad244ddfbe8c7929b2dbdce4197bbc6" target="_top" xlink:title="CCCC_Html_Stream::Module\l_Summary">
<polygon fill="white" stroke="black" points="372.5,-404.5 372.5,-434.5 524.5,-434.5 524.5,-404.5 372.5,-404.5"/>
<text text-anchor="start" x="380.5" y="-422.5" font-family="Helvetica,sans-Serif" font-size="10.00">CCCC_Html_Stream::Module</text>
<text text-anchor="middle" x="448.5" y="-411.5" font-family="Helvetica,sans-Serif" font-size="10.00">_Summary</text>
</a>
</g>
</g>
<!-- Node7&#45;&gt;Node8 -->
<g id="edge10" class="edge"><title>Node7&#45;&gt;Node8</title>
<path fill="none" stroke="midnightblue" d="M296.915,-382.514C323.871,-389.135 357.587,-397.416 386.278,-404.463"/>
<polygon fill="midnightblue" stroke="midnightblue" points="297.485,-379.05 286.939,-380.064 295.816,-385.848 297.485,-379.05"/>
</g>
<!-- Node7&#45;&gt;Node9 -->
<g id="edge11" class="edge"><title>Node7&#45;&gt;Node9</title>
<path fill="none" stroke="midnightblue" d="M296.915,-358.486C323.871,-351.865 357.587,-343.584 386.278,-336.537"/>
<polygon fill="midnightblue" stroke="midnightblue" points="295.816,-355.152 286.939,-360.936 297.485,-361.95 295.816,-355.152"/>
</g>
<!-- Node7&#45;&gt;Node10 -->
<g id="edge12" class="edge"><title>Node7&#45;&gt;Node10</title>
<path fill="none" stroke="midnightblue" d="M268.69,-355.043C291.167,-338.847 328.616,-313.57 364,-297.5 372.129,-293.808 380.946,-290.49 389.703,-287.57"/>
<polygon fill="midnightblue" stroke="midnightblue" points="266.583,-352.247 260.57,-360.97 270.71,-357.901 266.583,-352.247"/>
</g>
<!-- Node7&#45;&gt;Node11 -->
<g id="edge13" class="edge"><title>Node7&#45;&gt;Node11</title>
<path fill="none" stroke="midnightblue" d="M260.241,-352.61C279.343,-326.031 318.775,-276.274 364,-248.5 370.189,-244.699 376.993,-241.444 383.964,-238.665"/>
<polygon fill="midnightblue" stroke="midnightblue" points="257.25,-350.778 254.356,-360.97 262.974,-354.808 257.25,-350.778"/>
</g>
<!-- Node12 -->
<g id="node12" class="node"><title>Node12</title>
<g id="a_node12"><a xlink:href="../../db/d8c/classCCCC__Xml__Stream.html#a86b2358b95c828fd96da2ba14ca458d0" target="_top" xlink:title="CCCC_Xml_Stream::Module\l_Summary">
<polygon fill="white" stroke="black" points="374,-355.5 374,-385.5 523,-385.5 523,-355.5 374,-355.5"/>
<text text-anchor="start" x="382" y="-373.5" font-family="Helvetica,sans-Serif" font-size="10.00">CCCC_Xml_Stream::Module</text>
<text text-anchor="middle" x="448.5" y="-362.5" font-family="Helvetica,sans-Serif" font-size="10.00">_Summary</text>
</a>
</g>
</g>
<!-- Node7&#45;&gt;Node12 -->
<g id="edge14" class="edge"><title>Node7&#45;&gt;Node12</title>
<path fill="none" stroke="midnightblue" d="M326.28,-370.5C341.963,-370.5 358.39,-370.5 373.908,-370.5"/>
<polygon fill="midnightblue" stroke="midnightblue" points="326.099,-367 316.099,-370.5 326.099,-374 326.099,-367"/>
</g>
<!-- Node12&#45;&gt;Node13 -->
<g id="edge15" class="edge"><title>Node12&#45;&gt;Node13</title>
<path fill="none" stroke="midnightblue" d="M519.269,-352.078C523.97,-350.339 528.587,-348.479 533,-346.5 568.028,-330.79 604.962,-305.66 626.985,-289.626"/>
<polygon fill="midnightblue" stroke="midnightblue" points="517.825,-348.875 509.54,-355.479 520.135,-355.483 517.825,-348.875"/>
</g>
<!-- Node15 -->
<g id="node15" class="node"><title>Node15</title>
<g id="a_node15"><a xlink:href="../../d6/d93/ccccmain_8cc.html#a3c04138a5bfe5d72780bb7e82a18e627" target="_top" xlink:title="main">
<polygon fill="white" stroke="black" points="429,-50 429,-69 468,-69 468,-50 429,-50"/>
<text text-anchor="middle" x="448.5" y="-57" font-family="Helvetica,sans-Serif" font-size="10.00">main</text>
</a>
</g>
</g>
<!-- Node14&#45;&gt;Node15 -->
<g id="edge17" class="edge"><title>Node14&#45;&gt;Node15</title>
<path fill="none" stroke="midnightblue" d="M320.023,-59.5C358.934,-59.5 403.959,-59.5 428.731,-59.5"/>
<polygon fill="midnightblue" stroke="midnightblue" points="319.757,-56.0001 309.757,-59.5 319.757,-63.0001 319.757,-56.0001"/>
</g>
</g>
</svg>
        <g id="navigator" transform="translate(0 0)" fill="#404254">
                <rect fill="#f2f5e9" fill-opacity="0.5" stroke="#606060" stroke-width=".5" x="0" y="0" width="60" height="60"/>
                <use id="zoomplus" xlink:href="#zoomPlus" x="17" y="9" onmousedown="handleZoom(evt,'in')"/>
                <use id="zoomminus" xlink:href="#zoomMin" x="42" y="9" onmousedown="handleZoom(evt,'out')"/>
                <use id="reset" xlink:href="#resetDef" x="30" y="36" onmousedown="handleReset()"/>
                <g id="arrowUp" xlink:href="#dirArrow" transform="translate(30 24)" onmousedown="handlePan(0,-1)">
                  <use xlink:href="#rim" fill="#404040">
                        <set attributeName="fill" to="#808080" begin="arrowUp.mouseover" end="arrowUp.mouseout"/>
                  </use>
                  <path fill="none" stroke="white" stroke-width="1.5" d="M0,-3.0v7 M-2.5,-0.5L0,-3.0L2.5,-0.5"/>
                </g>
                <g id="arrowRight" xlink:href="#dirArrow" transform="rotate(90) translate(36 -43)" onmousedown="handlePan(1,0)">
                  <use xlink:href="#rim" fill="#404040">
                        <set attributeName="fill" to="#808080" begin="arrowRight.mouseover" end="arrowRight.mouseout"/>
                  </use>
                  <path fill="none" stroke="white" stroke-width="1.5" d="M0,-3.0v7 M-2.5,-0.5L0,-3.0L2.5,-0.5"/>
                </g>
                <g id="arrowDown" xlink:href="#dirArrow" transform="rotate(180) translate(-30 -48)" onmousedown="handlePan(0,1)">
                  <use xlink:href="#rim" fill="#404040">
                        <set attributeName="fill" to="#808080" begin="arrowDown.mouseover" end="arrowDown.mouseout"/>
                  </use>
                  <path fill="none" stroke="white" stroke-width="1.5" d="M0,-3.0v7 M-2.5,-0.5L0,-3.0L2.5,-0.5"/>
                </g>
                <g id="arrowLeft" xlink:href="#dirArrow" transform="rotate(270) translate(-36 17)" onmousedown="handlePan(-1,0)">
                  <use xlink:href="#rim" fill="#404040">
                        <set attributeName="fill" to="#808080" begin="arrowLeft.mouseover" end="arrowLeft.mouseout"/>
                  </use>
                  <path fill="none" stroke="white" stroke-width="1.5" d="M0,-3.0v7 M-2.5,-0.5L0,-3.0L2.5,-0.5"/>
                </g>
        </g>
        <svg viewBox="0 0 15 15" width="100%" height="30px" preserveAspectRatio="xMaxYMin meet">
         <g id="arrow_out" transform="scale(0.3 0.3)">
          <a xlink:href="classCCCC__Module_a2e35b964b59e60393b2af32dd537f505_icgraph_org.svg" target="_base">
           <rect id="button" ry="5" rx="5" y="6" x="6" height="38" width="38"
                fill="#f2f5e9" fill-opacity="0.5" stroke="#606060" stroke-width="1.0"/>
           <path id="arrow"
             d="M 11.500037,31.436501 C 11.940474,20.09759 22.043105,11.32322 32.158766,21.979434 L 37.068811,17.246167 C 37.068811,17.246167 37.088388,32 37.088388,32 L 22.160133,31.978069 C 22.160133,31.978069 26.997745,27.140456 26.997745,27.140456 C 18.528582,18.264221 13.291696,25.230495 11.500037,31.436501 z"
             style="fill:#404040;"/>
          </a>
         </g>
        </svg>
</svg>
