<?xml version="1.0" encoding="UTF-8" standalone="no"?>
<!DOCTYPE svg PUBLIC "-//W3C//DTD SVG 1.1//EN"
 "http://www.w3.org/Graphics/SVG/1.1/DTD/svg11.dtd">
<!-- Generated by graphviz version 2.38.0 (20140413.2041)
 -->
<!-- Title: CCCC_Module::FromFile Pages: 1 -->
<svg width="479pt" height="230pt"
 viewBox="0.00 0.00 479.00 230.00" xmlns="http://www.w3.org/2000/svg" xmlns:xlink="http://www.w3.org/1999/xlink">
<g id="graph0" class="graph" transform="scale(1 1) rotate(0) translate(4 226)">
<title>CCCC_Module::FromFile</title>
<polygon fill="white" stroke="none" points="-4,4 -4,-226 475,-226 475,4 -4,4"/>
<!-- Node1 -->
<g id="node1" class="node"><title>Node1</title>
<polygon fill="#bfbfbf" stroke="black" points="0,-98.5 0,-117.5 132,-117.5 132,-98.5 0,-98.5"/>
<text text-anchor="middle" x="66" y="-105.5" font-family="Helvetica,sans-Serif" font-size="10.00">CCCC_Module::FromFile</text>
</g>
<!-- Node2 -->
<g id="node2" class="node"><title>Node2</title>
<g id="a_node2"><a xlink:href="../../db/d6a/classCCCC__Item.html#a032272ebee4fc350bcac563774493725" target="_top" xlink:title="CCCC_Item::FromFile">
<polygon fill="white" stroke="black" points="183.5,-202.5 183.5,-221.5 301.5,-221.5 301.5,-202.5 183.5,-202.5"/>
<text text-anchor="middle" x="242.5" y="-209.5" font-family="Helvetica,sans-Serif" font-size="10.00">CCCC_Item::FromFile</text>
</a>
</g>
</g>
<!-- Node1&#45;&gt;Node2 -->
<g id="edge1" class="edge"><title>Node1&#45;&gt;Node2</title>
<path fill="none" stroke="midnightblue" d="M76.7504,-117.724C93.8469,-134.287 130.949,-168.106 168,-188 176.077,-192.337 185.076,-196.068 193.93,-199.208"/>
<polygon fill="midnightblue" stroke="midnightblue" points="192.836,-202.532 203.429,-202.383 195.055,-195.893 192.836,-202.532"/>
</g>
<!-- Node3 -->
<g id="node3" class="node"><title>Node3</title>
<g id="a_node3"><a xlink:href="../../db/d6a/classCCCC__Item.html#aa8e1c13780b4a9191d00b85641cdde1d" target="_top" xlink:title="CCCC_Item::Extract">
<polygon fill="white" stroke="black" points="357,-101.5 357,-120.5 467,-120.5 467,-101.5 357,-101.5"/>
<text text-anchor="middle" x="412" y="-108.5" font-family="Helvetica,sans-Serif" font-size="10.00">CCCC_Item::Extract</text>
</a>
</g>
</g>
<!-- Node1&#45;&gt;Node3 -->
<g id="edge2" class="edge"><title>Node1&#45;&gt;Node3</title>
<path fill="none" stroke="midnightblue" d="M81.9957,-117.539C101.092,-129.067 135.52,-147.813 168,-155 232.658,-169.308 252.358,-169.38 317,-155 342.313,-149.369 368.872,-136.164 387.277,-125.68"/>
<polygon fill="midnightblue" stroke="midnightblue" points="389.254,-128.578 396.109,-120.5 385.712,-122.54 389.254,-128.578"/>
</g>
<!-- Node4 -->
<g id="node4" class="node"><title>Node4</title>
<g id="a_node4"><a xlink:href="../../d8/dcf/classCCCC__Table.html#a8e08fe4f6edb07f1fbf2813c66bb3606" target="_top" xlink:title="CCCC_Table::find_or\l_insert">
<polygon fill="white" stroke="black" points="184.5,-115 184.5,-145 300.5,-145 300.5,-115 184.5,-115"/>
<text text-anchor="start" x="192.5" y="-133" font-family="Helvetica,sans-Serif" font-size="10.00">CCCC_Table::find_or</text>
<text text-anchor="middle" x="242.5" y="-122" font-family="Helvetica,sans-Serif" font-size="10.00">_insert</text>
</a>
</g>
</g>
<!-- Node1&#45;&gt;Node4 -->
<g id="edge3" class="edge"><title>Node1&#45;&gt;Node4</title>
<path fill="none" stroke="midnightblue" d="M132.474,-116.255C146.037,-117.965 160.351,-119.769 173.986,-121.488"/>
<polygon fill="midnightblue" stroke="midnightblue" points="173.897,-125.005 184.256,-122.783 174.773,-118.06 173.897,-125.005"/>
</g>
<!-- Node5 -->
<g id="node5" class="node"><title>Node5</title>
<g id="a_node5"><a xlink:href="../../d8/d19/cccc__db_8cc.html#a927bd440a1aaf7c7b9a1e83354aace57" target="_top" xlink:title="PeekAtNextLinePrefix">
<polygon fill="white" stroke="black" points="183,-76.5 183,-95.5 302,-95.5 302,-76.5 183,-76.5"/>
<text text-anchor="middle" x="242.5" y="-83.5" font-family="Helvetica,sans-Serif" font-size="10.00">PeekAtNextLinePrefix</text>
</a>
</g>
</g>
<!-- Node1&#45;&gt;Node5 -->
<g id="edge4" class="edge"><title>Node1&#45;&gt;Node5</title>
<path fill="none" stroke="midnightblue" d="M132.474,-99.7454C145.652,-98.084 159.538,-96.3333 172.822,-94.6585"/>
<polygon fill="midnightblue" stroke="midnightblue" points="173.358,-98.1188 182.841,-93.3954 172.482,-91.1738 173.358,-98.1188"/>
</g>
<!-- Node6 -->
<g id="node6" class="node"><title>Node6</title>
<g id="a_node6"><a xlink:href="../../df/d99/classCCCC__Extent.html#abaf126bf784cc83e12eb98434674c4df" target="_top" xlink:title="CCCC_Extent::GetFromItem">
<polygon fill="white" stroke="black" points="168,-38.5 168,-57.5 317,-57.5 317,-38.5 168,-38.5"/>
<text text-anchor="middle" x="242.5" y="-45.5" font-family="Helvetica,sans-Serif" font-size="10.00">CCCC_Extent::GetFromItem</text>
</a>
</g>
</g>
<!-- Node1&#45;&gt;Node6 -->
<g id="edge5" class="edge"><title>Node1&#45;&gt;Node6</title>
<path fill="none" stroke="midnightblue" d="M88.3629,-98.3613C108.596,-89.4645 139.97,-76.2668 168,-67 175.222,-64.6125 182.923,-62.3358 190.52,-60.2413"/>
<polygon fill="midnightblue" stroke="midnightblue" points="191.642,-63.5642 200.398,-57.599 189.834,-56.802 191.642,-63.5642"/>
</g>
<!-- Node7 -->
<g id="node7" class="node"><title>Node7</title>
<g id="a_node7"><a xlink:href="../../d6/d85/classCCCC__Record.html#a81bf0541981287180a41e3d801e7a084" target="_top" xlink:title="CCCC_Record::key">
<polygon fill="white" stroke="black" points="188.5,-0.5 188.5,-19.5 296.5,-19.5 296.5,-0.5 188.5,-0.5"/>
<text text-anchor="middle" x="242.5" y="-7.5" font-family="Helvetica,sans-Serif" font-size="10.00">CCCC_Record::key</text>
</a>
</g>
</g>
<!-- Node1&#45;&gt;Node7 -->
<g id="edge7" class="edge"><title>Node1&#45;&gt;Node7</title>
<path fill="none" stroke="midnightblue" d="M76.3799,-98.4244C93.1991,-81.8047 130.269,-47.6174 168,-29 172.875,-26.5943 178.088,-24.4706 183.403,-22.6004"/>
<polygon fill="midnightblue" stroke="midnightblue" points="184.582,-25.8978 193.028,-19.5018 182.437,-19.2346 184.582,-25.8978"/>
</g>
<!-- Node6&#45;&gt;Node3 -->
<g id="edge6" class="edge"><title>Node6&#45;&gt;Node3</title>
<path fill="none" stroke="midnightblue" d="M285.885,-57.5316C296.181,-60.2362 307.079,-63.4303 317,-67 340.245,-75.3636 365.553,-87.3889 384.047,-96.7549"/>
<polygon fill="midnightblue" stroke="midnightblue" points="382.556,-99.9234 393.05,-101.377 385.753,-93.6961 382.556,-99.9234"/>
</g>
<!-- Node8 -->
<g id="node8" class="node"><title>Node8</title>
<g id="a_node8"><a xlink:href="../../d6/d85/classCCCC__Record.html#a03c15972bea5df4e34930fa4c34e34bd" target="_top" xlink:title="CCCC_Record::name">
<polygon fill="white" stroke="black" points="353,-0.5 353,-19.5 471,-19.5 471,-0.5 353,-0.5"/>
<text text-anchor="middle" x="412" y="-7.5" font-family="Helvetica,sans-Serif" font-size="10.00">CCCC_Record::name</text>
</a>
</g>
</g>
<!-- Node7&#45;&gt;Node8 -->
<g id="edge8" class="edge"><title>Node7&#45;&gt;Node8</title>
<path fill="none" stroke="midnightblue" d="M296.959,-10C311.428,-10 327.291,-10 342.464,-10"/>
<polygon fill="midnightblue" stroke="midnightblue" points="342.834,-13.5001 352.833,-10 342.833,-6.5001 342.834,-13.5001"/>
</g>
</g>
</svg>
