<?xml version="1.0" encoding="UTF-8" standalone="no"?>
<!DOCTYPE svg PUBLIC "-//W3C//DTD SVG 1.1//EN"
 "http://www.w3.org/Graphics/SVG/1.1/DTD/svg11.dtd">
<!-- Generated by graphviz version 2.38.0 (20140413.2041)
 -->
<!-- Title: CCCC_Module::name Pages: 1 -->
<!--zoomable 607 -->
<svg id="main" version="1.1" xmlns="http://www.w3.org/2000/svg" xmlns:xlink="http://www.w3.org/1999/xlink" xml:space="preserve" onload="init(evt)">
<style type="text/css"><![CDATA[
.edge:hover path { stroke: red; }
.edge:hover polygon { stroke: red; fill: red; }
]]></style>
<script type="text/javascript"><![CDATA[
var edges = document.getElementsByTagName('g');
if (edges && edges.length) {
  for (var i=0;i<edges.length;i++) {
    if (edges[i].id.substr(0,4)=='edge') {
      edges[i].setAttribute('class','edge');
    }
  }
}
]]></script>
        <defs>
                <circle id="rim" cx="0" cy="0" r="7"/>
                <circle id="rim2" cx="0" cy="0" r="3.5"/>
                <g id="zoomPlus">
                        <use xlink:href="#rim" fill="#404040">
                                <set attributeName="fill" to="#808080" begin="zoomplus.mouseover" end="zoomplus.mouseout"/>
                        </use>
                        <path d="M-4,0h8M0,-4v8" fill="none" stroke="white" stroke-width="1.5" pointer-events="none"/>
                </g>
                <g id="zoomMin">
                        <use xlink:href="#rim" fill="#404040">
                                <set attributeName="fill" to="#808080" begin="zoomminus.mouseover" end="zoomminus.mouseout"/>
                        </use>
                        <path d="M-4,0h8" fill="none" stroke="white" stroke-width="1.5" pointer-events="none"/>
                </g>
                <g id="dirArrow">
                        <path fill="none" stroke="white" stroke-width="1.5" d="M0,-3.0v7 M-2.5,-0.5L0,-3.0L2.5,-0.5"/>
                </g>
               <g id="resetDef">
                       <use xlink:href="#rim2" fill="#404040">
                               <set attributeName="fill" to="#808080" begin="reset.mouseover" end="reset.mouseout"/>
                       </use>
               </g>
        </defs>

<script type="text/javascript">
var viewWidth = 536;
var viewHeight = 607;
var sectionId = 'dynsection-8';
</script>
<script xlink:href="../../svgpan.js"/>
<svg id="graph" class="graph">
<g id="viewport">
<title>CCCC_Module::name</title>
<polygon fill="white" stroke="none" points="-4,4 -4,-603 532,-603 532,4 -4,4"/>
<!-- Node1 -->
<g id="node1" class="node"><title>Node1</title>
<polygon fill="#bfbfbf" stroke="black" points="5.68434e-14,-285 5.68434e-14,-304 118,-304 118,-285 5.68434e-14,-285"/>
<text text-anchor="middle" x="59" y="-292" font-family="Helvetica,sans-Serif" font-size="10.00">CCCC_Module::name</text>
</g>
<!-- Node2 -->
<g id="node2" class="node"><title>Node2</title>
<g id="a_node2"><a xlink:href="../../d2/d92/classCCCC__Html__Stream.html#a81d206c53e52cd62d445beb809c3d215" target="_top" xlink:title="CCCC_Html_Stream::OO\l_Design">
<polygon fill="white" stroke="black" points="171.5,-568.5 171.5,-598.5 305.5,-598.5 305.5,-568.5 171.5,-568.5"/>
<text text-anchor="start" x="179.5" y="-586.5" font-family="Helvetica,sans-Serif" font-size="10.00">CCCC_Html_Stream::OO</text>
<text text-anchor="middle" x="238.5" y="-575.5" font-family="Helvetica,sans-Serif" font-size="10.00">_Design</text>
</a>
</g>
</g>
<!-- Node1&#45;&gt;Node2 -->
<g id="edge1" class="edge"><title>Node1&#45;&gt;Node2</title>
<path fill="none" stroke="midnightblue" d="M61.0744,-314.316C64.8215,-363.332 81.4214,-491.218 154,-559.5 159.053,-564.254 164.987,-568.075 171.321,-571.144"/>
<polygon fill="midnightblue" stroke="midnightblue" points="64.5524,-313.866 60.3988,-304.119 57.5677,-314.329 64.5524,-313.866"/>
</g>
<!-- Node3 -->
<g id="node3" class="node"><title>Node3</title>
<g id="a_node3"><a xlink:href="../../d2/d92/classCCCC__Html__Stream.html#a872d57e3b8d177d0fcc532237b53e6fe" target="_top" xlink:title="CCCC_Html_Stream::Procedural\l_Summary">
<polygon fill="white" stroke="black" points="154,-519.5 154,-549.5 323,-549.5 323,-519.5 154,-519.5"/>
<text text-anchor="start" x="162" y="-537.5" font-family="Helvetica,sans-Serif" font-size="10.00">CCCC_Html_Stream::Procedural</text>
<text text-anchor="middle" x="238.5" y="-526.5" font-family="Helvetica,sans-Serif" font-size="10.00">_Summary</text>
</a>
</g>
</g>
<!-- Node1&#45;&gt;Node3 -->
<g id="edge2" class="edge"><title>Node1&#45;&gt;Node3</title>
<path fill="none" stroke="midnightblue" d="M62.8841,-314.334C70.1206,-356.806 93.0407,-457.023 154,-510.5 157.855,-513.882 162.159,-516.789 166.725,-519.287"/>
<polygon fill="midnightblue" stroke="midnightblue" points="66.3323,-313.731 61.3038,-304.406 59.4193,-314.831 66.3323,-313.731"/>
</g>
<!-- Node4 -->
<g id="node4" class="node"><title>Node4</title>
<g id="a_node4"><a xlink:href="../../d2/d92/classCCCC__Html__Stream.html#a0dbb99417ffc369edc76114cc2455ee2" target="_top" xlink:title="CCCC_Html_Stream::Structural\l_Summary">
<polygon fill="white" stroke="black" points="157.5,-470.5 157.5,-500.5 319.5,-500.5 319.5,-470.5 157.5,-470.5"/>
<text text-anchor="start" x="165.5" y="-488.5" font-family="Helvetica,sans-Serif" font-size="10.00">CCCC_Html_Stream::Structural</text>
<text text-anchor="middle" x="238.5" y="-477.5" font-family="Helvetica,sans-Serif" font-size="10.00">_Summary</text>
</a>
</g>
</g>
<!-- Node1&#45;&gt;Node4 -->
<g id="edge3" class="edge"><title>Node1&#45;&gt;Node4</title>
<path fill="none" stroke="midnightblue" d="M65.5659,-314.041C76.5371,-348.991 104.31,-422.213 154,-461.5 158.378,-464.961 163.235,-467.923 168.34,-470.458"/>
<polygon fill="midnightblue" stroke="midnightblue" points="68.8176,-312.7 62.5877,-304.13 62.1137,-314.715 68.8176,-312.7"/>
</g>
<!-- Node5 -->
<g id="node5" class="node"><title>Node5</title>
<g id="a_node5"><a xlink:href="../../d2/d92/classCCCC__Html__Stream.html#ab815f564805ca3e3fe9cabb5c2df79fa" target="_top" xlink:title="CCCC_Html_Stream::Put\l_Structural_Details_Cell">
<polygon fill="white" stroke="black" points="172,-421.5 172,-451.5 305,-451.5 305,-421.5 172,-421.5"/>
<text text-anchor="start" x="180" y="-439.5" font-family="Helvetica,sans-Serif" font-size="10.00">CCCC_Html_Stream::Put</text>
<text text-anchor="middle" x="238.5" y="-428.5" font-family="Helvetica,sans-Serif" font-size="10.00">_Structural_Details_Cell</text>
</a>
</g>
</g>
<!-- Node1&#45;&gt;Node5 -->
<g id="edge4" class="edge"><title>Node1&#45;&gt;Node5</title>
<path fill="none" stroke="midnightblue" d="M69.7873,-312.984C84.5522,-339.079 114.991,-386.438 154,-412.5 159.518,-416.187 165.607,-419.315 171.906,-421.969"/>
<polygon fill="midnightblue" stroke="midnightblue" points="72.7951,-311.19 64.9108,-304.113 66.6608,-314.562 72.7951,-311.19"/>
</g>
<!-- Node7 -->
<g id="node7" class="node"><title>Node7</title>
<g id="a_node7"><a xlink:href="../../d2/d92/classCCCC__Html__Stream.html#a0abac1d610545f3aac5c469074e98ee8" target="_top" xlink:title="CCCC_Html_Stream::Structural\l_Detail">
<polygon fill="white" stroke="black" points="157.5,-372.5 157.5,-402.5 319.5,-402.5 319.5,-372.5 157.5,-372.5"/>
<text text-anchor="start" x="165.5" y="-390.5" font-family="Helvetica,sans-Serif" font-size="10.00">CCCC_Html_Stream::Structural</text>
<text text-anchor="middle" x="238.5" y="-379.5" font-family="Helvetica,sans-Serif" font-size="10.00">_Detail</text>
</a>
</g>
</g>
<!-- Node1&#45;&gt;Node7 -->
<g id="edge6" class="edge"><title>Node1&#45;&gt;Node7</title>
<path fill="none" stroke="midnightblue" d="M78.4097,-311.111C96.4829,-326.634 125.424,-349.465 154,-363.5 160.769,-366.825 168.08,-369.766 175.461,-372.348"/>
<polygon fill="midnightblue" stroke="midnightblue" points="80.2884,-308.104 70.4597,-304.148 75.6764,-313.37 80.2884,-308.104"/>
</g>
<!-- Node8 -->
<g id="node8" class="node"><title>Node8</title>
<g id="a_node8"><a xlink:href="../../d2/d92/classCCCC__Html__Stream.html#afe9cd530333567a8e6bfb38c6b586e81" target="_top" xlink:title="CCCC_Html_Stream::Procedural\l_Detail">
<polygon fill="white" stroke="black" points="154,-323.5 154,-353.5 323,-353.5 323,-323.5 154,-323.5"/>
<text text-anchor="start" x="162" y="-341.5" font-family="Helvetica,sans-Serif" font-size="10.00">CCCC_Html_Stream::Procedural</text>
<text text-anchor="middle" x="238.5" y="-330.5" font-family="Helvetica,sans-Serif" font-size="10.00">_Detail</text>
</a>
</g>
</g>
<!-- Node1&#45;&gt;Node8 -->
<g id="edge7" class="edge"><title>Node1&#45;&gt;Node8</title>
<path fill="none" stroke="midnightblue" d="M108.228,-306.455C129.343,-311.689 154.355,-317.889 176.725,-323.435"/>
<polygon fill="midnightblue" stroke="midnightblue" points="109.063,-303.056 98.5149,-304.047 107.379,-309.851 109.063,-303.056"/>
</g>
<!-- Node9 -->
<g id="node9" class="node"><title>Node9</title>
<g id="a_node9"><a xlink:href="../../dc/d1e/classCCCC__Member.html#a417a7371a85169fd6502b403baeaca92" target="_top" xlink:title="CCCC_Member::name">
<polygon fill="white" stroke="black" points="177.5,-285 177.5,-304 299.5,-304 299.5,-285 177.5,-285"/>
<text text-anchor="middle" x="238.5" y="-292" font-family="Helvetica,sans-Serif" font-size="10.00">CCCC_Member::name</text>
</a>
</g>
</g>
<!-- Node1&#45;&gt;Node9 -->
<g id="edge8" class="edge"><title>Node1&#45;&gt;Node9</title>
<path fill="none" stroke="midnightblue" d="M128.55,-294.5C144.663,-294.5 161.714,-294.5 177.422,-294.5"/>
<polygon fill="midnightblue" stroke="midnightblue" points="128.12,-291 118.12,-294.5 128.12,-298 128.12,-291"/>
</g>
<!-- Node12 -->
<g id="node12" class="node"><title>Node12</title>
<g id="a_node12"><a xlink:href="../../db/d8c/classCCCC__Xml__Stream.html#a261ad7db353c63e8f2ecc43dd120c35b" target="_top" xlink:title="CCCC_Xml_Stream::OO\l_Design">
<polygon fill="white" stroke="black" points="173,-235.5 173,-265.5 304,-265.5 304,-235.5 173,-235.5"/>
<text text-anchor="start" x="181" y="-253.5" font-family="Helvetica,sans-Serif" font-size="10.00">CCCC_Xml_Stream::OO</text>
<text text-anchor="middle" x="238.5" y="-242.5" font-family="Helvetica,sans-Serif" font-size="10.00">_Design</text>
</a>
</g>
</g>
<!-- Node1&#45;&gt;Node12 -->
<g id="edge11" class="edge"><title>Node1&#45;&gt;Node12</title>
<path fill="none" stroke="midnightblue" d="M108.228,-282.545C129.343,-277.311 154.355,-271.111 176.725,-265.565"/>
<polygon fill="midnightblue" stroke="midnightblue" points="107.379,-279.149 98.5149,-284.953 109.063,-285.944 107.379,-279.149"/>
</g>
<!-- Node13 -->
<g id="node13" class="node"><title>Node13</title>
<g id="a_node13"><a xlink:href="../../db/d8c/classCCCC__Xml__Stream.html#af8659ea64595d693d4b3a78f2620b379" target="_top" xlink:title="CCCC_Xml_Stream::Procedural\l_Summary">
<polygon fill="white" stroke="black" points="156,-186.5 156,-216.5 321,-216.5 321,-186.5 156,-186.5"/>
<text text-anchor="start" x="164" y="-204.5" font-family="Helvetica,sans-Serif" font-size="10.00">CCCC_Xml_Stream::Procedural</text>
<text text-anchor="middle" x="238.5" y="-193.5" font-family="Helvetica,sans-Serif" font-size="10.00">_Summary</text>
</a>
</g>
</g>
<!-- Node1&#45;&gt;Node13 -->
<g id="edge12" class="edge"><title>Node1&#45;&gt;Node13</title>
<path fill="none" stroke="midnightblue" d="M78.785,-277.964C96.9329,-262.734 125.752,-240.446 154,-226.5 161.599,-222.749 169.868,-219.442 178.152,-216.566"/>
<polygon fill="midnightblue" stroke="midnightblue" points="76.1084,-275.648 70.7826,-284.807 80.6575,-280.968 76.1084,-275.648"/>
</g>
<!-- Node14 -->
<g id="node14" class="node"><title>Node14</title>
<g id="a_node14"><a xlink:href="../../db/d8c/classCCCC__Xml__Stream.html#a8e9d1d8c0d2645f1af6df568e58cd175" target="_top" xlink:title="CCCC_Xml_Stream::Structural\l_Summary">
<polygon fill="white" stroke="black" points="159.5,-137.5 159.5,-167.5 317.5,-167.5 317.5,-137.5 159.5,-137.5"/>
<text text-anchor="start" x="167.5" y="-155.5" font-family="Helvetica,sans-Serif" font-size="10.00">CCCC_Xml_Stream::Structural</text>
<text text-anchor="middle" x="238.5" y="-144.5" font-family="Helvetica,sans-Serif" font-size="10.00">_Summary</text>
</a>
</g>
</g>
<!-- Node1&#45;&gt;Node14 -->
<g id="edge13" class="edge"><title>Node1&#45;&gt;Node14</title>
<path fill="none" stroke="midnightblue" d="M69.7873,-276.016C84.5522,-249.921 114.991,-202.562 154,-176.5 159.142,-173.064 164.779,-170.114 170.62,-167.581"/>
<polygon fill="midnightblue" stroke="midnightblue" points="66.6608,-274.438 64.9108,-284.887 72.7951,-277.81 66.6608,-274.438"/>
</g>
<!-- Node15 -->
<g id="node15" class="node"><title>Node15</title>
<g id="a_node15"><a xlink:href="../../db/d8c/classCCCC__Xml__Stream.html#a1941d2f23e62a715ef8d12ce239ea48f" target="_top" xlink:title="CCCC_Xml_Stream::Put\l_Structural_Details_Node">
<polygon fill="white" stroke="black" points="170,-88.5 170,-118.5 307,-118.5 307,-88.5 170,-88.5"/>
<text text-anchor="start" x="178" y="-106.5" font-family="Helvetica,sans-Serif" font-size="10.00">CCCC_Xml_Stream::Put</text>
<text text-anchor="middle" x="238.5" y="-95.5" font-family="Helvetica,sans-Serif" font-size="10.00">_Structural_Details_Node</text>
</a>
</g>
</g>
<!-- Node1&#45;&gt;Node15 -->
<g id="edge14" class="edge"><title>Node1&#45;&gt;Node15</title>
<path fill="none" stroke="midnightblue" d="M65.5659,-274.959C76.5371,-240.009 104.31,-166.787 154,-127.5 158.733,-123.758 164.025,-120.6 169.587,-117.934"/>
<polygon fill="midnightblue" stroke="midnightblue" points="62.1137,-274.285 62.5877,-284.87 68.8176,-276.3 62.1137,-274.285"/>
</g>
<!-- Node16 -->
<g id="node16" class="node"><title>Node16</title>
<g id="a_node16"><a xlink:href="../../db/d8c/classCCCC__Xml__Stream.html#ad14905d5ffea2505b11396520c9cd14e" target="_top" xlink:title="CCCC_Xml_Stream::Structural\l_Detail">
<polygon fill="white" stroke="black" points="364.5,-66.5 364.5,-96.5 522.5,-96.5 522.5,-66.5 364.5,-66.5"/>
<text text-anchor="start" x="372.5" y="-84.5" font-family="Helvetica,sans-Serif" font-size="10.00">CCCC_Xml_Stream::Structural</text>
<text text-anchor="middle" x="443.5" y="-73.5" font-family="Helvetica,sans-Serif" font-size="10.00">_Detail</text>
</a>
</g>
</g>
<!-- Node1&#45;&gt;Node16 -->
<g id="edge17" class="edge"><title>Node1&#45;&gt;Node16</title>
<path fill="none" stroke="midnightblue" d="M61.6653,-274.812C66.5952,-230.531 85.4039,-123.458 154,-78.5 227.418,-30.3813 335.518,-49.5498 396.409,-66.43"/>
<polygon fill="midnightblue" stroke="midnightblue" points="58.1722,-274.569 60.6696,-284.866 65.1382,-275.259 58.1722,-274.569"/>
</g>
<!-- Node17 -->
<g id="node17" class="node"><title>Node17</title>
<g id="a_node17"><a xlink:href="../../db/d8c/classCCCC__Xml__Stream.html#ac1909e96b08f6199ea7c8aaa7478977d" target="_top" xlink:title="CCCC_Xml_Stream::Procedural\l_Detail">
<polygon fill="white" stroke="black" points="156,-0.5 156,-30.5 321,-30.5 321,-0.5 156,-0.5"/>
<text text-anchor="start" x="164" y="-18.5" font-family="Helvetica,sans-Serif" font-size="10.00">CCCC_Xml_Stream::Procedural</text>
<text text-anchor="middle" x="238.5" y="-7.5" font-family="Helvetica,sans-Serif" font-size="10.00">_Detail</text>
</a>
</g>
</g>
<!-- Node1&#45;&gt;Node17 -->
<g id="edge16" class="edge"><title>Node1&#45;&gt;Node17</title>
<path fill="none" stroke="midnightblue" d="M61.8767,-274.895C67.3443,-228.521 87.3676,-111.071 154,-45.5 160.258,-39.3415 167.869,-34.4382 175.92,-30.5365"/>
<polygon fill="midnightblue" stroke="midnightblue" points="58.3959,-274.53 60.8032,-284.847 65.3555,-275.28 58.3959,-274.53"/>
</g>
<!-- Node6 -->
<g id="node6" class="node"><title>Node6</title>
<g id="a_node6"><a xlink:href="../../d2/d92/classCCCC__Html__Stream.html#af0091534327b225ee300640d7a5e0220" target="_top" xlink:title="CCCC_Html_Stream::Structural\l_Detail">
<polygon fill="white" stroke="black" points="362.5,-421.5 362.5,-451.5 524.5,-451.5 524.5,-421.5 362.5,-421.5"/>
<text text-anchor="start" x="370.5" y="-439.5" font-family="Helvetica,sans-Serif" font-size="10.00">CCCC_Html_Stream::Structural</text>
<text text-anchor="middle" x="443.5" y="-428.5" font-family="Helvetica,sans-Serif" font-size="10.00">_Detail</text>
</a>
</g>
</g>
<!-- Node5&#45;&gt;Node6 -->
<g id="edge5" class="edge"><title>Node5&#45;&gt;Node6</title>
<path fill="none" stroke="midnightblue" d="M315.526,-436.5C330.76,-436.5 346.812,-436.5 362.186,-436.5"/>
<polygon fill="midnightblue" stroke="midnightblue" points="315.128,-433 305.128,-436.5 315.128,-440 315.128,-433"/>
</g>
<!-- Node10 -->
<g id="node10" class="node"><title>Node10</title>
<g id="a_node10"><a xlink:href="../../d2/d92/classCCCC__Html__Stream.html#a53accb88e6190e384cf10d3572bfc33b" target="_top" xlink:title="CCCC_Html_Stream::Procedural\l_Detail">
<polygon fill="white" stroke="black" points="359,-303.5 359,-333.5 528,-333.5 528,-303.5 359,-303.5"/>
<text text-anchor="start" x="367" y="-321.5" font-family="Helvetica,sans-Serif" font-size="10.00">CCCC_Html_Stream::Procedural</text>
<text text-anchor="middle" x="443.5" y="-310.5" font-family="Helvetica,sans-Serif" font-size="10.00">_Detail</text>
</a>
</g>
</g>
<!-- Node9&#45;&gt;Node10 -->
<g id="edge9" class="edge"><title>Node9&#45;&gt;Node10</title>
<path fill="none" stroke="midnightblue" d="M309.802,-302.812C325.626,-304.682 342.571,-306.686 358.88,-308.614"/>
<polygon fill="midnightblue" stroke="midnightblue" points="309.925,-299.302 299.583,-301.603 309.103,-306.253 309.925,-299.302"/>
</g>
<!-- Node11 -->
<g id="node11" class="node"><title>Node11</title>
<g id="a_node11"><a xlink:href="../../db/d8c/classCCCC__Xml__Stream.html#ad70e63452c8fb298b0627f20b40def10" target="_top" xlink:title="CCCC_Xml_Stream::Procedural\l_Detail">
<polygon fill="white" stroke="black" points="361,-254.5 361,-284.5 526,-284.5 526,-254.5 361,-254.5"/>
<text text-anchor="start" x="369" y="-272.5" font-family="Helvetica,sans-Serif" font-size="10.00">CCCC_Xml_Stream::Procedural</text>
<text text-anchor="middle" x="443.5" y="-261.5" font-family="Helvetica,sans-Serif" font-size="10.00">_Detail</text>
</a>
</g>
</g>
<!-- Node9&#45;&gt;Node11 -->
<g id="edge10" class="edge"><title>Node9&#45;&gt;Node11</title>
<path fill="none" stroke="midnightblue" d="M309.662,-285.859C326.133,-283.831 343.824,-281.652 360.753,-279.567"/>
<polygon fill="midnightblue" stroke="midnightblue" points="309.08,-282.405 299.583,-287.101 309.936,-289.352 309.08,-282.405"/>
</g>
<!-- Node15&#45;&gt;Node16 -->
<g id="edge15" class="edge"><title>Node15&#45;&gt;Node16</title>
<path fill="none" stroke="midnightblue" d="M317.127,-95.0872C332.588,-93.4116 348.832,-91.6512 364.312,-89.9736"/>
<polygon fill="midnightblue" stroke="midnightblue" points="316.661,-91.6172 307.096,-96.1743 317.415,-98.5764 316.661,-91.6172"/>
</g>
</g>
</svg>
        <g id="navigator" transform="translate(0 0)" fill="#404254">
                <rect fill="#f2f5e9" fill-opacity="0.5" stroke="#606060" stroke-width=".5" x="0" y="0" width="60" height="60"/>
                <use id="zoomplus" xlink:href="#zoomPlus" x="17" y="9" onmousedown="handleZoom(evt,'in')"/>
                <use id="zoomminus" xlink:href="#zoomMin" x="42" y="9" onmousedown="handleZoom(evt,'out')"/>
                <use id="reset" xlink:href="#resetDef" x="30" y="36" onmousedown="handleReset()"/>
                <g id="arrowUp" xlink:href="#dirArrow" transform="translate(30 24)" onmousedown="handlePan(0,-1)">
                  <use xlink:href="#rim" fill="#404040">
                        <set attributeName="fill" to="#808080" begin="arrowUp.mouseover" end="arrowUp.mouseout"/>
                  </use>
                  <path fill="none" stroke="white" stroke-width="1.5" d="M0,-3.0v7 M-2.5,-0.5L0,-3.0L2.5,-0.5"/>
                </g>
                <g id="arrowRight" xlink:href="#dirArrow" transform="rotate(90) translate(36 -43)" onmousedown="handlePan(1,0)">
                  <use xlink:href="#rim" fill="#404040">
                        <set attributeName="fill" to="#808080" begin="arrowRight.mouseover" end="arrowRight.mouseout"/>
                  </use>
                  <path fill="none" stroke="white" stroke-width="1.5" d="M0,-3.0v7 M-2.5,-0.5L0,-3.0L2.5,-0.5"/>
                </g>
                <g id="arrowDown" xlink:href="#dirArrow" transform="rotate(180) translate(-30 -48)" onmousedown="handlePan(0,1)">
                  <use xlink:href="#rim" fill="#404040">
                        <set attributeName="fill" to="#808080" begin="arrowDown.mouseover" end="arrowDown.mouseout"/>
                  </use>
                  <path fill="none" stroke="white" stroke-width="1.5" d="M0,-3.0v7 M-2.5,-0.5L0,-3.0L2.5,-0.5"/>
                </g>
                <g id="arrowLeft" xlink:href="#dirArrow" transform="rotate(270) translate(-36 17)" onmousedown="handlePan(-1,0)">
                  <use xlink:href="#rim" fill="#404040">
                        <set attributeName="fill" to="#808080" begin="arrowLeft.mouseover" end="arrowLeft.mouseout"/>
                  </use>
                  <path fill="none" stroke="white" stroke-width="1.5" d="M0,-3.0v7 M-2.5,-0.5L0,-3.0L2.5,-0.5"/>
                </g>
        </g>
        <svg viewBox="0 0 15 15" width="100%" height="30px" preserveAspectRatio="xMaxYMin meet">
         <g id="arrow_out" transform="scale(0.3 0.3)">
          <a xlink:href="classCCCC__Module_adea7213358d5e1f9119c70cbbb99f287_icgraph_org.svg" target="_base">
           <rect id="button" ry="5" rx="5" y="6" x="6" height="38" width="38"
                fill="#f2f5e9" fill-opacity="0.5" stroke="#606060" stroke-width="1.0"/>
           <path id="arrow"
             d="M 11.500037,31.436501 C 11.940474,20.09759 22.043105,11.32322 32.158766,21.979434 L 37.068811,17.246167 C 37.068811,17.246167 37.088388,32 37.088388,32 L 22.160133,31.978069 C 22.160133,31.978069 26.997745,27.140456 26.997745,27.140456 C 18.528582,18.264221 13.291696,25.230495 11.500037,31.436501 z"
             style="fill:#404040;"/>
          </a>
         </g>
        </svg>
</svg>
