<?xml version="1.0" encoding="UTF-8" standalone="no"?>
<!DOCTYPE svg PUBLIC "-//W3C//DTD SVG 1.1//EN"
 "http://www.w3.org/Graphics/SVG/1.1/DTD/svg11.dtd">
<!-- Generated by graphviz version 2.38.0 (20140413.2041)
 -->
<!-- Title: CCCC_Module::ToFile Pages: 1 -->
<svg width="444pt" height="162pt"
 viewBox="0.00 0.00 444.00 162.13" xmlns="http://www.w3.org/2000/svg" xmlns:xlink="http://www.w3.org/1999/xlink">
<g id="graph0" class="graph" transform="scale(1 1) rotate(0) translate(4 158.132)">
<title>CCCC_Module::ToFile</title>
<polygon fill="white" stroke="none" points="-4,4 -4,-158.132 440,-158.132 440,4 -4,4"/>
<!-- Node1 -->
<g id="node1" class="node"><title>Node1</title>
<polygon fill="#bfbfbf" stroke="black" points="0,-76.5 0,-95.5 121,-95.5 121,-76.5 0,-76.5"/>
<text text-anchor="middle" x="60.5" y="-83.5" font-family="Helvetica,sans-Serif" font-size="10.00">CCCC_Module::ToFile</text>
</g>
<!-- Node2 -->
<g id="node2" class="node"><title>Node2</title>
<g id="a_node2"><a xlink:href="../../db/d6a/classCCCC__Item.html#a87231c9aa43ece932511d1143b64367e" target="_top" xlink:title="CCCC_Item::Insert">
<polygon fill="white" stroke="black" points="332,-95.5 332,-114.5 436,-114.5 436,-95.5 332,-95.5"/>
<text text-anchor="middle" x="384" y="-102.5" font-family="Helvetica,sans-Serif" font-size="10.00">CCCC_Item::Insert</text>
</a>
</g>
</g>
<!-- Node1&#45;&gt;Node2 -->
<g id="edge1" class="edge"><title>Node1&#45;&gt;Node2</title>
<path fill="none" stroke="midnightblue" d="M72.8942,-95.6455C89.8927,-109.335 123.495,-133.761 157,-143 216.555,-159.422 235.527,-155.631 296,-143 317.714,-138.465 340.643,-128.195 357.507,-119.474"/>
<polygon fill="midnightblue" stroke="midnightblue" points="359.51,-122.373 366.681,-114.574 356.211,-116.199 359.51,-122.373"/>
</g>
<!-- Node3 -->
<g id="node3" class="node"><title>Node3</title>
<g id="a_node3"><a xlink:href="../../db/d6a/classCCCC__Item.html#a5a3ccfe13d6c77b27cf93182f8cafb58" target="_top" xlink:title="CCCC_Item::ToFile">
<polygon fill="white" stroke="black" points="173,-114.5 173,-133.5 280,-133.5 280,-114.5 173,-114.5"/>
<text text-anchor="middle" x="226.5" y="-121.5" font-family="Helvetica,sans-Serif" font-size="10.00">CCCC_Item::ToFile</text>
</a>
</g>
</g>
<!-- Node1&#45;&gt;Node3 -->
<g id="edge2" class="edge"><title>Node1&#45;&gt;Node3</title>
<path fill="none" stroke="midnightblue" d="M102.884,-95.589C124.623,-100.626 151.457,-106.844 174.475,-112.177"/>
<polygon fill="midnightblue" stroke="midnightblue" points="173.881,-115.632 184.413,-114.48 175.462,-108.813 173.881,-115.632"/>
</g>
<!-- Node4 -->
<g id="node4" class="node"><title>Node4</title>
<g id="a_node4"><a xlink:href="../../d8/dcf/classCCCC__Table.html#a0d099c7bc984323270cc8c63d5ff8379" target="_top" xlink:title="CCCC_Table::first_item">
<polygon fill="white" stroke="black" points="163.5,-76.5 163.5,-95.5 289.5,-95.5 289.5,-76.5 163.5,-76.5"/>
<text text-anchor="middle" x="226.5" y="-83.5" font-family="Helvetica,sans-Serif" font-size="10.00">CCCC_Table::first_item</text>
</a>
</g>
</g>
<!-- Node1&#45;&gt;Node4 -->
<g id="edge3" class="edge"><title>Node1&#45;&gt;Node4</title>
<path fill="none" stroke="midnightblue" d="M121.172,-86C131.582,-86 142.513,-86 153.219,-86"/>
<polygon fill="midnightblue" stroke="midnightblue" points="153.391,-89.5001 163.391,-86 153.391,-82.5001 153.391,-89.5001"/>
</g>
<!-- Node5 -->
<g id="node5" class="node"><title>Node5</title>
<g id="a_node5"><a xlink:href="../../df/d99/classCCCC__Extent.html#a6fed4380d820bfad0a27934a62cf15be" target="_top" xlink:title="CCCC_Extent::AddToItem">
<polygon fill="white" stroke="black" points="157,-38.5 157,-57.5 296,-57.5 296,-38.5 157,-38.5"/>
<text text-anchor="middle" x="226.5" y="-45.5" font-family="Helvetica,sans-Serif" font-size="10.00">CCCC_Extent::AddToItem</text>
</a>
</g>
</g>
<!-- Node1&#45;&gt;Node5 -->
<g id="edge4" class="edge"><title>Node1&#45;&gt;Node5</title>
<path fill="none" stroke="midnightblue" d="M102.884,-76.411C124.623,-71.3739 151.457,-65.1562 174.475,-59.8229"/>
<polygon fill="midnightblue" stroke="midnightblue" points="175.462,-63.1871 184.413,-57.5201 173.881,-56.3677 175.462,-63.1871"/>
</g>
<!-- Node6 -->
<g id="node6" class="node"><title>Node6</title>
<g id="a_node6"><a xlink:href="../../d8/dcf/classCCCC__Table.html#a080274070f7d48b68bd8d3291818d76f" target="_top" xlink:title="CCCC_Table::next_item">
<polygon fill="white" stroke="black" points="162,-0.5 162,-19.5 291,-19.5 291,-0.5 162,-0.5"/>
<text text-anchor="middle" x="226.5" y="-7.5" font-family="Helvetica,sans-Serif" font-size="10.00">CCCC_Table::next_item</text>
</a>
</g>
</g>
<!-- Node1&#45;&gt;Node6 -->
<g id="edge6" class="edge"><title>Node1&#45;&gt;Node6</title>
<path fill="none" stroke="midnightblue" d="M74.8021,-76.4843C92.7144,-64.0483 125.935,-42.2933 157,-29 162.451,-26.6672 168.27,-24.5408 174.125,-22.6255"/>
<polygon fill="midnightblue" stroke="midnightblue" points="175.426,-25.8872 183.955,-19.6022 173.368,-19.1965 175.426,-25.8872"/>
</g>
<!-- Node5&#45;&gt;Node2 -->
<g id="edge5" class="edge"><title>Node5&#45;&gt;Node2</title>
<path fill="none" stroke="midnightblue" d="M265.485,-57.5079C275.498,-60.2932 286.231,-63.5312 296,-67 315.735,-74.0075 337.312,-83.4202 354.041,-91.1242"/>
<polygon fill="midnightblue" stroke="midnightblue" points="352.738,-94.3781 363.28,-95.4316 355.696,-88.0338 352.738,-94.3781"/>
</g>
</g>
</svg>
