<?xml version="1.0" encoding="UTF-8" standalone="no"?>
<!DOCTYPE svg PUBLIC "-//W3C//DTD SVG 1.1//EN"
 "http://www.w3.org/Graphics/SVG/1.1/DTD/svg11.dtd">
<!-- Generated by graphviz version 2.38.0 (20140413.2041)
 -->
<!-- Title: CCCC_UseRelationship::add_extent Pages: 1 -->
<svg width="458pt" height="39pt"
 viewBox="0.00 0.00 458.00 39.00" xmlns="http://www.w3.org/2000/svg" xmlns:xlink="http://www.w3.org/1999/xlink">
<g id="graph0" class="graph" transform="scale(1 1) rotate(0) translate(4 35)">
<title>CCCC_UseRelationship::add_extent</title>
<polygon fill="white" stroke="none" points="-4,4 -4,-35 454,-35 454,4 -4,4"/>
<!-- Node1 -->
<g id="node1" class="node"><title>Node1</title>
<polygon fill="#bfbfbf" stroke="black" points="0,-0.5 0,-30.5 130,-30.5 130,-0.5 0,-0.5"/>
<text text-anchor="start" x="8" y="-18.5" font-family="Helvetica,sans-Serif" font-size="10.00">CCCC_UseRelationship</text>
<text text-anchor="middle" x="65" y="-7.5" font-family="Helvetica,sans-Serif" font-size="10.00">::add_extent</text>
</g>
<!-- Node2 -->
<g id="node2" class="node"><title>Node2</title>
<g id="a_node2"><a xlink:href="../../d4/d6e/classCCCC__Project.html#adae36526071c67957535938bf6401d9f" target="_top" xlink:title="CCCC_Project::add_userel">
<polygon fill="white" stroke="black" points="166,-6 166,-25 309,-25 309,-6 166,-6"/>
<text text-anchor="middle" x="237.5" y="-13" font-family="Helvetica,sans-Serif" font-size="10.00">CCCC_Project::add_userel</text>
</a>
</g>
</g>
<!-- Node1&#45;&gt;Node2 -->
<g id="edge1" class="edge"><title>Node1&#45;&gt;Node2</title>
<path fill="none" stroke="midnightblue" d="M140.632,-15.5C149.048,-15.5 157.604,-15.5 165.965,-15.5"/>
<polygon fill="midnightblue" stroke="midnightblue" points="140.459,-12.0001 130.459,-15.5 140.459,-19.0001 140.459,-12.0001"/>
</g>
<!-- Node3 -->
<g id="node3" class="node"><title>Node3</title>
<g id="a_node3"><a xlink:href="../../d3/d5e/classParseStore.html#aa8ae64513f8e2a44885a25d7b78a73e9" target="_top" xlink:title="ParseStore::record\l_userel_extent">
<polygon fill="white" stroke="black" points="345,-0.5 345,-30.5 450,-30.5 450,-0.5 345,-0.5"/>
<text text-anchor="start" x="353" y="-18.5" font-family="Helvetica,sans-Serif" font-size="10.00">ParseStore::record</text>
<text text-anchor="middle" x="397.5" y="-7.5" font-family="Helvetica,sans-Serif" font-size="10.00">_userel_extent</text>
</a>
</g>
</g>
<!-- Node2&#45;&gt;Node3 -->
<g id="edge2" class="edge"><title>Node2&#45;&gt;Node3</title>
<path fill="none" stroke="midnightblue" d="M319.34,-15.5C328.003,-15.5 336.636,-15.5 344.823,-15.5"/>
<polygon fill="midnightblue" stroke="midnightblue" points="319.182,-12.0001 309.182,-15.5 319.182,-19.0001 319.182,-12.0001"/>
</g>
</g>
</svg>
