<?xml version="1.0" encoding="UTF-8" standalone="no"?>
<!DOCTYPE svg PUBLIC "-//W3C//DTD SVG 1.1//EN"
 "http://www.w3.org/Graphics/SVG/1.1/DTD/svg11.dtd">
<!-- Generated by graphviz version 2.38.0 (20140413.2041)
 -->
<!-- Title: ANTLRToken Pages: 1 -->
<svg width="327pt" height="106pt"
 viewBox="0.00 0.00 326.50 106.00" xmlns="http://www.w3.org/2000/svg" xmlns:xlink="http://www.w3.org/1999/xlink">
<g id="graph0" class="graph" transform="scale(1 1) rotate(0) translate(4 102)">
<title>ANTLRToken</title>
<polygon fill="white" stroke="none" points="-4,4 -4,-102 322.5,-102 322.5,4 -4,4"/>
<!-- Node1 -->
<g id="node1" class="node"><title>Node1</title>
<polygon fill="#bfbfbf" stroke="black" points="115,-0.5 115,-19.5 196,-19.5 196,-0.5 115,-0.5"/>
<text text-anchor="middle" x="155.5" y="-7.5" font-family="Helvetica,sans-Serif" font-size="10.00">ANTLRToken</text>
</g>
<!-- Node2 -->
<g id="node2" class="node"><title>Node2</title>
<g id="a_node2"><a xlink:href="../../d8/d1d/classANTLRCommonToken.html" target="_top" xlink:title="ANTLRCommonToken">
<polygon fill="white" stroke="black" points="0,-78.5 0,-97.5 123,-97.5 123,-78.5 0,-78.5"/>
<text text-anchor="middle" x="61.5" y="-85.5" font-family="Helvetica,sans-Serif" font-size="10.00">ANTLRCommonToken</text>
</a>
</g>
</g>
<!-- Node2&#45;&gt;Node1 -->
<g id="edge1" class="edge"><title>Node2&#45;&gt;Node1</title>
<path fill="none" stroke="midnightblue" d="M80.1264,-71.9404C99.4899,-56.2848 129.122,-32.3271 144.843,-19.6165"/>
<polygon fill="midnightblue" stroke="midnightblue" points="77.8588,-69.2729 72.283,-78.2818 82.2599,-74.7163 77.8588,-69.2729"/>
</g>
<!-- Node3 -->
<g id="node3" class="node"><title>Node3</title>
<polygon fill="white" stroke="#bfbfbf" points="141,-78.5 141,-97.5 170,-97.5 170,-78.5 141,-78.5"/>
<text text-anchor="middle" x="155.5" y="-85.5" font-family="Helvetica,sans-Serif" font-size="10.00">int</text>
</g>
<!-- Node3&#45;&gt;Node1 -->
<g id="edge2" class="edge"><title>Node3&#45;&gt;Node1</title>
<path fill="none" stroke="#9a32cd" stroke-dasharray="5,2" d="M155.5,-68.2239C155.5,-52.6974 155.5,-31.3582 155.5,-19.6165"/>
<polygon fill="#9a32cd" stroke="#9a32cd" points="152,-68.2818 155.5,-78.2818 159,-68.2819 152,-68.2818"/>
<text text-anchor="middle" x="191.5" y="-52" font-family="Helvetica,sans-Serif" font-size="10.00"> bCodeLine</text>
<text text-anchor="middle" x="191.5" y="-41" font-family="Helvetica,sans-Serif" font-size="10.00">CurrentNesting</text>
</g>
<!-- Node4 -->
<g id="node4" class="node"><title>Node4</title>
<polygon fill="white" stroke="#bfbfbf" points="222.5,-78.5 222.5,-97.5 278.5,-97.5 278.5,-78.5 222.5,-78.5"/>
<text text-anchor="middle" x="250.5" y="-85.5" font-family="Helvetica,sans-Serif" font-size="10.00">static int</text>
</g>
<!-- Node4&#45;&gt;Node1 -->
<g id="edge3" class="edge"><title>Node4&#45;&gt;Node1</title>
<path fill="none" stroke="#9a32cd" stroke-dasharray="5,2" d="M246.014,-68.5297C242.691,-58.3336 237.198,-46.1275 228.5,-38 219.417,-29.5122 207.434,-23.638 195.809,-19.595"/>
<polygon fill="#9a32cd" stroke="#9a32cd" points="242.65,-69.4979 248.734,-78.1723 249.388,-67.5977 242.65,-69.4979"/>
<text text-anchor="middle" x="280.5" y="-52" font-family="Helvetica,sans-Serif" font-size="10.00"> numAllocated</text>
<text text-anchor="middle" x="280.5" y="-41" font-family="Helvetica,sans-Serif" font-size="10.00">RunningNesting</text>
</g>
</g>
</svg>
