<?xml version="1.0" encoding="UTF-8" standalone="no"?>
<!DOCTYPE svg PUBLIC "-//W3C//DTD SVG 1.1//EN"
 "http://www.w3.org/Graphics/SVG/1.1/DTD/svg11.dtd">
<!-- Generated by graphviz version 2.38.0 (20140413.2041)
 -->
<!-- Title: ParseUtility::tracein Pages: 1 -->
<svg width="243pt" height="66pt"
 viewBox="0.00 0.00 243.00 66.00" xmlns="http://www.w3.org/2000/svg" xmlns:xlink="http://www.w3.org/1999/xlink">
<g id="graph0" class="graph" transform="scale(1 1) rotate(0) translate(4 62)">
<title>ParseUtility::tracein</title>
<polygon fill="white" stroke="none" points="-4,4 -4,-62 239,-62 239,4 -4,4"/>
<!-- Node1 -->
<g id="node1" class="node"><title>Node1</title>
<polygon fill="#bfbfbf" stroke="black" points="0,-19.5 0,-38.5 107,-38.5 107,-19.5 0,-19.5"/>
<text text-anchor="middle" x="53.5" y="-26.5" font-family="Helvetica,sans-Serif" font-size="10.00">ParseUtility::tracein</text>
</g>
<!-- Node2 -->
<g id="node2" class="node"><title>Node2</title>
<g id="a_node2"><a xlink:href="../../d0/df6/classCParser.html#a15ffd456e5dd1595e02f9d15324ed25e" target="_top" xlink:title="CParser::tracein">
<polygon fill="white" stroke="black" points="143,-38.5 143,-57.5 235,-57.5 235,-38.5 143,-38.5"/>
<text text-anchor="middle" x="189" y="-45.5" font-family="Helvetica,sans-Serif" font-size="10.00">CParser::tracein</text>
</a>
</g>
</g>
<!-- Node1&#45;&gt;Node2 -->
<g id="edge1" class="edge"><title>Node1&#45;&gt;Node2</title>
<path fill="none" stroke="midnightblue" d="M117.335,-37.9428C125.979,-39.1731 134.711,-40.4158 142.948,-41.5882"/>
<polygon fill="midnightblue" stroke="midnightblue" points="117.656,-34.4533 107.263,-36.5093 116.67,-41.3835 117.656,-34.4533"/>
</g>
<!-- Node3 -->
<g id="node3" class="node"><title>Node3</title>
<g id="a_node3"><a xlink:href="../../d6/d6b/classJParser.html#a32f2f9a7806875b21b8d98cd29d36238" target="_top" xlink:title="JParser::tracein">
<polygon fill="white" stroke="black" points="144,-0.5 144,-19.5 234,-19.5 234,-0.5 144,-0.5"/>
<text text-anchor="middle" x="189" y="-7.5" font-family="Helvetica,sans-Serif" font-size="10.00">JParser::tracein</text>
</a>
</g>
</g>
<!-- Node1&#45;&gt;Node3 -->
<g id="edge2" class="edge"><title>Node1&#45;&gt;Node3</title>
<path fill="none" stroke="midnightblue" d="M117.297,-20.0626C126.25,-18.7884 135.299,-17.5005 143.796,-16.2913"/>
<polygon fill="midnightblue" stroke="midnightblue" points="116.67,-16.6165 107.263,-21.4907 117.656,-23.5467 116.67,-16.6165"/>
</g>
</g>
</svg>
