<?xml version="1.0" encoding="UTF-8" standalone="no"?>
<!DOCTYPE svg PUBLIC "-//W3C//DTD SVG 1.1//EN"
 "http://www.w3.org/Graphics/SVG/1.1/DTD/svg11.dtd">
<!-- Generated by graphviz version 2.38.0 (20140413.2041)
 -->
<!-- Title: ParseUtility::lookahead_text Pages: 1 -->
<svg width="1292pt" height="204pt"
 viewBox="0.00 0.00 1292.00 204.00" xmlns="http://www.w3.org/2000/svg" xmlns:xlink="http://www.w3.org/1999/xlink">
<g id="graph0" class="graph" transform="scale(1 1) rotate(0) translate(4 200)">
<title>ParseUtility::lookahead_text</title>
<polygon fill="white" stroke="none" points="-4,4 -4,-200 1288,-200 1288,4 -4,4"/>
<!-- Node1 -->
<g id="node1" class="node"><title>Node1</title>
<polygon fill="#bfbfbf" stroke="black" points="0,-34.5 0,-53.5 147,-53.5 147,-34.5 0,-34.5"/>
<text text-anchor="middle" x="73.5" y="-41.5" font-family="Helvetica,sans-Serif" font-size="10.00">ParseUtility::lookahead_text</text>
</g>
<!-- Node2 -->
<g id="node2" class="node"><title>Node2</title>
<g id="a_node2"><a xlink:href="../../d0/df6/classCParser.html#ab3ab57ace628c2476dd8dfe5a96f9a15" target="_top" xlink:title="CParser::definition\l_or_declaration">
<polygon fill="white" stroke="black" points="183,-29 183,-59 286,-59 286,-29 183,-29"/>
<text text-anchor="start" x="191" y="-47" font-family="Helvetica,sans-Serif" font-size="10.00">CParser::definition</text>
<text text-anchor="middle" x="234.5" y="-36" font-family="Helvetica,sans-Serif" font-size="10.00">_or_declaration</text>
</a>
</g>
</g>
<!-- Node1&#45;&gt;Node2 -->
<g id="edge1" class="edge"><title>Node1&#45;&gt;Node2</title>
<path fill="none" stroke="midnightblue" d="M157.275,-44C166.011,-44 174.694,-44 182.901,-44"/>
<polygon fill="midnightblue" stroke="midnightblue" points="157.021,-40.5001 147.021,-44 157.021,-47.5001 157.021,-40.5001"/>
</g>
<!-- Node3 -->
<g id="node3" class="node"><title>Node3</title>
<g id="a_node3"><a xlink:href="../../d0/df6/classCParser.html#a2b78ab2005bef5c43ee2d4689210eab1" target="_top" xlink:title="CParser::link_item">
<polygon fill="white" stroke="black" points="341.5,-107.5 341.5,-126.5 442.5,-126.5 442.5,-107.5 341.5,-107.5"/>
<text text-anchor="middle" x="392" y="-114.5" font-family="Helvetica,sans-Serif" font-size="10.00">CParser::link_item</text>
</a>
</g>
</g>
<!-- Node2&#45;&gt;Node3 -->
<g id="edge2" class="edge"><title>Node2&#45;&gt;Node3</title>
<path fill="none" stroke="midnightblue" d="M276.79,-63.3838C307.097,-77.6116 346.959,-96.3248 370.686,-107.464"/>
<polygon fill="midnightblue" stroke="midnightblue" points="278.259,-60.207 267.72,-59.1256 275.284,-66.5435 278.259,-60.207"/>
</g>
<!-- Node9 -->
<g id="node9" class="node"><title>Node9</title>
<g id="a_node9"><a xlink:href="../../d0/df6/classCParser.html#a85eb09132fa5a588749cea062f0d11ea" target="_top" xlink:title="CParser::class_block_item">
<polygon fill="white" stroke="black" points="322,-34.5 322,-53.5 462,-53.5 462,-34.5 322,-34.5"/>
<text text-anchor="middle" x="392" y="-41.5" font-family="Helvetica,sans-Serif" font-size="10.00">CParser::class_block_item</text>
</a>
</g>
</g>
<!-- Node2&#45;&gt;Node9 -->
<g id="edge10" class="edge"><title>Node2&#45;&gt;Node9</title>
<path fill="none" stroke="midnightblue" d="M296.438,-44C304.787,-44 313.408,-44 321.89,-44"/>
<polygon fill="midnightblue" stroke="midnightblue" points="296.417,-40.5001 286.417,-44 296.416,-47.5001 296.417,-40.5001"/>
</g>
<!-- Node4 -->
<g id="node4" class="node"><title>Node4</title>
<g id="a_node4"><a xlink:href="../../d0/df6/classCParser.html#a4f02da23566af37123efb3768769c09b" target="_top" xlink:title="CParser::start">
<polygon fill="white" stroke="black" points="522.5,-176.5 522.5,-195.5 603.5,-195.5 603.5,-176.5 522.5,-176.5"/>
<text text-anchor="middle" x="563" y="-183.5" font-family="Helvetica,sans-Serif" font-size="10.00">CParser::start</text>
</a>
</g>
</g>
<!-- Node3&#45;&gt;Node4 -->
<g id="edge3" class="edge"><title>Node3&#45;&gt;Node4</title>
<path fill="none" stroke="midnightblue" d="M419.765,-131.172C440.687,-141.898 470.702,-156.522 498,-167 506.981,-170.447 516.866,-173.657 526.125,-176.42"/>
<polygon fill="midnightblue" stroke="midnightblue" points="421.324,-128.037 410.834,-126.547 418.105,-134.253 421.324,-128.037"/>
</g>
<!-- Node7 -->
<g id="node7" class="node"><title>Node7</title>
<g id="a_node7"><a xlink:href="../../d0/df6/classCParser.html#a86906e492ff9c606fb3537078f46f93e" target="_top" xlink:title="CParser::extern_linkage\l_block">
<polygon fill="white" stroke="black" points="498,-127 498,-157 628,-157 628,-127 498,-127"/>
<text text-anchor="start" x="506" y="-145" font-family="Helvetica,sans-Serif" font-size="10.00">CParser::extern_linkage</text>
<text text-anchor="middle" x="563" y="-134" font-family="Helvetica,sans-Serif" font-size="10.00">_block</text>
</a>
</g>
</g>
<!-- Node3&#45;&gt;Node7 -->
<g id="edge6" class="edge"><title>Node3&#45;&gt;Node7</title>
<path fill="none" stroke="midnightblue" d="M452.912,-119.373C469.494,-121.465 487.461,-124.137 503.936,-126.963"/>
<polygon fill="midnightblue" stroke="midnightblue" points="453.139,-115.875 442.792,-118.15 452.299,-122.825 453.139,-115.875"/>
</g>
<!-- Node8 -->
<g id="node8" class="node"><title>Node8</title>
<g id="a_node8"><a xlink:href="../../d0/df6/classCParser.html#a4fad913a0694a5376ad76669d8943122" target="_top" xlink:title="CParser::namespace\l_block">
<polygon fill="white" stroke="black" points="505.5,-78 505.5,-108 620.5,-108 620.5,-78 505.5,-78"/>
<text text-anchor="start" x="513.5" y="-96" font-family="Helvetica,sans-Serif" font-size="10.00">CParser::namespace</text>
<text text-anchor="middle" x="563" y="-85" font-family="Helvetica,sans-Serif" font-size="10.00">_block</text>
</a>
</g>
</g>
<!-- Node3&#45;&gt;Node8 -->
<g id="edge8" class="edge"><title>Node3&#45;&gt;Node8</title>
<path fill="none" stroke="midnightblue" d="M432.68,-105.542C454.375,-101.468 481.617,-97.4042 505.497,-94.6148"/>
<polygon fill="midnightblue" stroke="midnightblue" points="431.965,-102.115 422.825,-107.473 433.311,-108.985 431.965,-102.115"/>
</g>
<!-- Node5 -->
<g id="node5" class="node"><title>Node5</title>
<g id="a_node5"><a xlink:href="../../db/d4a/classMain.html#a803470658c644fa9512140f9d8398dd5" target="_top" xlink:title="Main::ParseFiles">
<polygon fill="white" stroke="black" points="674,-176.5 674,-195.5 768,-195.5 768,-176.5 674,-176.5"/>
<text text-anchor="middle" x="721" y="-183.5" font-family="Helvetica,sans-Serif" font-size="10.00">Main::ParseFiles</text>
</a>
</g>
</g>
<!-- Node4&#45;&gt;Node5 -->
<g id="edge4" class="edge"><title>Node4&#45;&gt;Node5</title>
<path fill="none" stroke="midnightblue" d="M613.869,-186C633.138,-186 655.051,-186 673.942,-186"/>
<polygon fill="midnightblue" stroke="midnightblue" points="613.769,-182.5 603.769,-186 613.769,-189.5 613.769,-182.5"/>
</g>
<!-- Node6 -->
<g id="node6" class="node"><title>Node6</title>
<g id="a_node6"><a xlink:href="../../d6/d93/ccccmain_8cc.html#a3c04138a5bfe5d72780bb7e82a18e627" target="_top" xlink:title="main">
<polygon fill="white" stroke="black" points="851.5,-176.5 851.5,-195.5 890.5,-195.5 890.5,-176.5 851.5,-176.5"/>
<text text-anchor="middle" x="871" y="-183.5" font-family="Helvetica,sans-Serif" font-size="10.00">main</text>
</a>
</g>
</g>
<!-- Node5&#45;&gt;Node6 -->
<g id="edge5" class="edge"><title>Node5&#45;&gt;Node6</title>
<path fill="none" stroke="midnightblue" d="M778.15,-186C804.09,-186 833.142,-186 851.494,-186"/>
<polygon fill="midnightblue" stroke="midnightblue" points="778.017,-182.5 768.017,-186 778.017,-189.5 778.017,-182.5"/>
</g>
<!-- Node7&#45;&gt;Node3 -->
<g id="edge7" class="edge"><title>Node7&#45;&gt;Node3</title>
<path fill="none" stroke="midnightblue" d="M488.065,-137.766C464.729,-134.523 440.302,-130.422 422.052,-126.54"/>
<polygon fill="midnightblue" stroke="midnightblue" points="487.6,-141.235 497.978,-139.1 488.534,-134.297 487.6,-141.235"/>
</g>
<!-- Node8&#45;&gt;Node3 -->
<g id="edge9" class="edge"><title>Node8&#45;&gt;Node3</title>
<path fill="none" stroke="midnightblue" d="M495.292,-109.089C477.795,-111.842 459.232,-114.345 442.792,-116.145"/>
<polygon fill="midnightblue" stroke="midnightblue" points="496.136,-112.498 505.446,-107.442 495.015,-105.588 496.136,-112.498"/>
</g>
<!-- Node10 -->
<g id="node10" class="node"><title>Node10</title>
<g id="a_node10"><a xlink:href="../../d0/df6/classCParser.html#a4b9f00c05d44a13b3c18b28b52f5be9e" target="_top" xlink:title="CParser::class_block\l_item_list">
<polygon fill="white" stroke="black" points="506,-29 506,-59 620,-59 620,-29 506,-29"/>
<text text-anchor="start" x="514" y="-47" font-family="Helvetica,sans-Serif" font-size="10.00">CParser::class_block</text>
<text text-anchor="middle" x="563" y="-36" font-family="Helvetica,sans-Serif" font-size="10.00">_item_list</text>
</a>
</g>
</g>
<!-- Node9&#45;&gt;Node10 -->
<g id="edge11" class="edge"><title>Node9&#45;&gt;Node10</title>
<path fill="none" stroke="midnightblue" d="M472.497,-44C483.741,-44 495.104,-44 505.785,-44"/>
<polygon fill="midnightblue" stroke="midnightblue" points="472.226,-40.5001 462.226,-44 472.226,-47.5001 472.226,-40.5001"/>
</g>
<!-- Node11 -->
<g id="node11" class="node"><title>Node11</title>
<g id="a_node11"><a xlink:href="../../d0/df6/classCParser.html#a06c7cac9034f27ad6d998b49a7b574c8" target="_top" xlink:title="CParser::class_block">
<polygon fill="white" stroke="black" points="664,-31.5 664,-50.5 778,-50.5 778,-31.5 664,-31.5"/>
<text text-anchor="middle" x="721" y="-38.5" font-family="Helvetica,sans-Serif" font-size="10.00">CParser::class_block</text>
</a>
</g>
</g>
<!-- Node10&#45;&gt;Node11 -->
<g id="edge12" class="edge"><title>Node10&#45;&gt;Node11</title>
<path fill="none" stroke="midnightblue" d="M630.404,-42.723C641.512,-42.5094 652.941,-42.2896 663.763,-42.0815"/>
<polygon fill="midnightblue" stroke="midnightblue" points="630.25,-39.2252 620.32,-42.9169 630.385,-46.2239 630.25,-39.2252"/>
</g>
<!-- Node12 -->
<g id="node12" class="node"><title>Node12</title>
<g id="a_node12"><a xlink:href="../../d0/df6/classCParser.html#a40fba8426e7ac46e9926515ee81e97f3" target="_top" xlink:title="CParser::class_suffix">
<polygon fill="white" stroke="black" points="814,-29.5 814,-48.5 928,-48.5 928,-29.5 814,-29.5"/>
<text text-anchor="middle" x="871" y="-36.5" font-family="Helvetica,sans-Serif" font-size="10.00">CParser::class_suffix</text>
</a>
</g>
</g>
<!-- Node11&#45;&gt;Node12 -->
<g id="edge13" class="edge"><title>Node11&#45;&gt;Node12</title>
<path fill="none" stroke="midnightblue" d="M788.558,-40.1006C796.984,-39.9867 805.539,-39.8711 813.782,-39.7597"/>
<polygon fill="midnightblue" stroke="midnightblue" points="788.326,-36.6033 778.375,-40.2382 788.421,-43.6026 788.326,-36.6033"/>
</g>
<!-- Node13 -->
<g id="node13" class="node"><title>Node13</title>
<g id="a_node13"><a xlink:href="../../d0/df6/classCParser.html#a1ed5fcfb2e97e3551fceabe81989a667" target="_top" xlink:title="CParser::class_declaration\l_or_definition">
<polygon fill="white" stroke="black" points="964,-4 964,-34 1107,-34 1107,-4 964,-4"/>
<text text-anchor="start" x="972" y="-22" font-family="Helvetica,sans-Serif" font-size="10.00">CParser::class_declaration</text>
<text text-anchor="middle" x="1035.5" y="-11" font-family="Helvetica,sans-Serif" font-size="10.00">_or_definition</text>
</a>
</g>
</g>
<!-- Node12&#45;&gt;Node13 -->
<g id="edge14" class="edge"><title>Node12&#45;&gt;Node13</title>
<path fill="none" stroke="midnightblue" d="M938.473,-30.8187C946.858,-29.7867 955.46,-28.728 963.905,-27.6886"/>
<polygon fill="midnightblue" stroke="midnightblue" points="937.876,-27.3657 928.379,-32.0611 938.731,-34.3133 937.876,-27.3657"/>
</g>
<!-- Node13&#45;&gt;Node2 -->
<g id="edge15" class="edge"><title>Node13&#45;&gt;Node2</title>
<path fill="none" stroke="midnightblue" d="M953.557,-11.374C890.516,-6.08976 800.776,-0 722,-0 562,-0 562,-0 562,-0 454.756,-0 427.874,-7.91348 322,-25 310.312,-26.8862 297.83,-29.3567 286.088,-31.8893"/>
<polygon fill="midnightblue" stroke="midnightblue" points="953.57,-14.8876 963.831,-12.2478 954.163,-7.91282 953.57,-14.8876"/>
</g>
<!-- Node14 -->
<g id="node14" class="node"><title>Node14</title>
<g id="a_node14"><a xlink:href="../../d0/df6/classCParser.html#a12561a45dab96760d7ab45896681dd33" target="_top" xlink:title="CParser::class_or_method\l_declaration_or_definition">
<polygon fill="white" stroke="black" points="1143,-4 1143,-34 1284,-34 1284,-4 1143,-4"/>
<text text-anchor="start" x="1151" y="-22" font-family="Helvetica,sans-Serif" font-size="10.00">CParser::class_or_method</text>
<text text-anchor="middle" x="1213.5" y="-11" font-family="Helvetica,sans-Serif" font-size="10.00">_declaration_or_definition</text>
</a>
</g>
</g>
<!-- Node13&#45;&gt;Node14 -->
<g id="edge16" class="edge"><title>Node13&#45;&gt;Node14</title>
<path fill="none" stroke="midnightblue" d="M1117.08,-19C1125.66,-19 1134.33,-19 1142.77,-19"/>
<polygon fill="midnightblue" stroke="midnightblue" points="1117.07,-15.5001 1107.07,-19 1117.07,-22.5001 1117.07,-15.5001"/>
</g>
</g>
</svg>
