<?xml version="1.0" encoding="UTF-8" standalone="no"?>
<!DOCTYPE svg PUBLIC "-//W3C//DTD SVG 1.1//EN"
 "http://www.w3.org/Graphics/SVG/1.1/DTD/svg11.dtd">
<!-- Generated by graphviz version 2.38.0 (20140413.2041)
 -->
<!-- Title: cccc_prj.h Pages: 1 -->
<svg width="979pt" height="308pt"
 viewBox="0.00 0.00 978.56 308.00" xmlns="http://www.w3.org/2000/svg" xmlns:xlink="http://www.w3.org/1999/xlink">
<g id="graph0" class="graph" transform="scale(1 1) rotate(0) translate(4 304)">
<title>cccc_prj.h</title>
<polygon fill="white" stroke="none" points="-4,4 -4,-304 974.564,-304 974.564,4 -4,4"/>
<!-- Node1 -->
<g id="node1" class="node"><title>Node1</title>
<polygon fill="#bfbfbf" stroke="black" points="605.564,-280.5 605.564,-299.5 669.564,-299.5 669.564,-280.5 605.564,-280.5"/>
<text text-anchor="middle" x="637.564" y="-287.5" font-family="Helvetica,sans-Serif" font-size="10.00">cccc_prj.h</text>
</g>
<!-- Node2 -->
<g id="node2" class="node"><title>Node2</title>
<g id="a_node2"><a xlink:href="../../d7/d44/cccc__db_8h.html" target="_top" xlink:title="cccc_db.h">
<polygon fill="white" stroke="black" points="472.064,-224.5 472.064,-243.5 535.064,-243.5 535.064,-224.5 472.064,-224.5"/>
<text text-anchor="middle" x="503.564" y="-231.5" font-family="Helvetica,sans-Serif" font-size="10.00">cccc_db.h</text>
</a>
</g>
</g>
<!-- Node1&#45;&gt;Node2 -->
<g id="edge1" class="edge"><title>Node1&#45;&gt;Node2</title>
<path fill="none" stroke="midnightblue" d="M606.887,-276.638C581.741,-266.504 546.81,-252.427 524.697,-243.516"/>
<polygon fill="midnightblue" stroke="midnightblue" points="605.748,-279.952 616.331,-280.444 608.364,-273.459 605.748,-279.952"/>
</g>
<!-- Node16 -->
<g id="node16" class="node"><title>Node16</title>
<g id="a_node16"><a xlink:href="../../d7/d4b/cccc__prj_8cc.html" target="_top" xlink:title="cccc_prj.cc">
<polygon fill="white" stroke="black" points="902.564,-168.5 902.564,-187.5 970.564,-187.5 970.564,-168.5 902.564,-168.5"/>
<text text-anchor="middle" x="936.564" y="-175.5" font-family="Helvetica,sans-Serif" font-size="10.00">cccc_prj.cc</text>
</a>
</g>
</g>
<!-- Node1&#45;&gt;Node16 -->
<g id="edge27" class="edge"><title>Node1&#45;&gt;Node16</title>
<path fill="none" stroke="midnightblue" d="M670.55,-276.865C731.503,-254.44 860.369,-207.032 913.211,-187.591"/>
<polygon fill="midnightblue" stroke="midnightblue" points="669.203,-273.631 661.026,-280.368 671.62,-280.2 669.203,-273.631"/>
</g>
<!-- Node3 -->
<g id="node3" class="node"><title>Node3</title>
<g id="a_node3"><a xlink:href="../../d8/d19/cccc__db_8cc.html" target="_top" xlink:title="cccc_db.cc">
<polygon fill="white" stroke="black" points="688.564,-168.5 688.564,-187.5 756.564,-187.5 756.564,-168.5 688.564,-168.5"/>
<text text-anchor="middle" x="722.564" y="-175.5" font-family="Helvetica,sans-Serif" font-size="10.00">cccc_db.cc</text>
</a>
</g>
</g>
<!-- Node2&#45;&gt;Node3 -->
<g id="edge2" class="edge"><title>Node2&#45;&gt;Node3</title>
<path fill="none" stroke="midnightblue" d="M545.224,-222.728C586.785,-212.48 649.862,-196.927 688.518,-187.395"/>
<polygon fill="midnightblue" stroke="midnightblue" points="544.28,-219.356 535.409,-225.148 545.956,-226.152 544.28,-219.356"/>
</g>
<!-- Node4 -->
<g id="node4" class="node"><title>Node4</title>
<g id="a_node4"><a xlink:href="../../d6/dd5/cccc__ext_8cc.html" target="_top" xlink:title="cccc_ext.cc">
<polygon fill="white" stroke="black" points="775.064,-168.5 775.064,-187.5 846.064,-187.5 846.064,-168.5 775.064,-168.5"/>
<text text-anchor="middle" x="810.564" y="-175.5" font-family="Helvetica,sans-Serif" font-size="10.00">cccc_ext.cc</text>
</a>
</g>
</g>
<!-- Node2&#45;&gt;Node4 -->
<g id="edge3" class="edge"><title>Node2&#45;&gt;Node4</title>
<path fill="none" stroke="midnightblue" d="M545.187,-226.211C596.921,-217.69 687.879,-202.437 765.564,-188 768.541,-187.447 771.625,-186.86 774.72,-186.261"/>
<polygon fill="midnightblue" stroke="midnightblue" points="544.371,-222.798 535.071,-227.874 545.506,-229.706 544.371,-222.798"/>
</g>
<!-- Node5 -->
<g id="node5" class="node"><title>Node5</title>
<g id="a_node5"><a xlink:href="../../d9/db9/cccc__htm_8h.html" target="_top" xlink:title="cccc_htm.h">
<polygon fill="white" stroke="black" points="113.064,-112.5 113.064,-131.5 182.064,-131.5 182.064,-112.5 113.064,-112.5"/>
<text text-anchor="middle" x="147.564" y="-119.5" font-family="Helvetica,sans-Serif" font-size="10.00">cccc_htm.h</text>
</a>
</g>
</g>
<!-- Node2&#45;&gt;Node5 -->
<g id="edge4" class="edge"><title>Node2&#45;&gt;Node5</title>
<path fill="none" stroke="midnightblue" d="M461.777,-230.971C369.743,-226.074 155.986,-212.193 134.564,-188 120.527,-172.147 133.384,-145.503 141.726,-131.771"/>
<polygon fill="midnightblue" stroke="midnightblue" points="461.688,-234.471 471.857,-231.497 462.053,-227.481 461.688,-234.471"/>
</g>
<!-- Node7 -->
<g id="node7" class="node"><title>Node7</title>
<g id="a_node7"><a xlink:href="../../d1/d81/cccc__tpl_8cc.html" target="_top" xlink:title="cccc_tpl.cc">
<polygon fill="white" stroke="black" points="12.5641,-56.5 12.5641,-75.5 80.5641,-75.5 80.5641,-56.5 12.5641,-56.5"/>
<text text-anchor="middle" x="46.5641" y="-63.5" font-family="Helvetica,sans-Serif" font-size="10.00">cccc_tpl.cc</text>
</a>
</g>
</g>
<!-- Node2&#45;&gt;Node7 -->
<g id="edge22" class="edge"><title>Node2&#45;&gt;Node7</title>
<path fill="none" stroke="midnightblue" d="M461.589,-231.973C375.376,-229.233 181.661,-219.641 124.564,-188 79.0931,-162.802 56.0203,-98.6718 48.9666,-75.5089"/>
<polygon fill="midnightblue" stroke="midnightblue" points="461.697,-235.478 471.798,-232.282 461.908,-228.481 461.697,-235.478"/>
</g>
<!-- Node8 -->
<g id="node8" class="node"><title>Node8</title>
<g id="a_node8"><a xlink:href="../../d9/d64/cccc__xml_8h.html" target="_top" xlink:title="cccc_xml.h">
<polygon fill="white" stroke="black" points="331.564,-56.5 331.564,-75.5 399.564,-75.5 399.564,-56.5 331.564,-56.5"/>
<text text-anchor="middle" x="365.564" y="-63.5" font-family="Helvetica,sans-Serif" font-size="10.00">cccc_xml.h</text>
</a>
</g>
</g>
<!-- Node2&#45;&gt;Node8 -->
<g id="edge25" class="edge"><title>Node2&#45;&gt;Node8</title>
<path fill="none" stroke="midnightblue" d="M545.451,-230.687C634.134,-225.362 834.406,-210.908 854.564,-188 860.436,-181.327 860.178,-174.892 854.564,-168 796.736,-97.0077 501.364,-74.4047 399.866,-68.6718"/>
<polygon fill="midnightblue" stroke="midnightblue" points="544.986,-227.208 535.209,-231.291 545.398,-234.196 544.986,-227.208"/>
</g>
<!-- Node10 -->
<g id="node10" class="node"><title>Node10</title>
<g id="a_node10"><a xlink:href="../../d6/d93/ccccmain_8cc.html" target="_top" xlink:title="ccccmain.cc">
<polygon fill="white" stroke="black" points="183.064,-0.5 183.064,-19.5 256.064,-19.5 256.064,-0.5 183.064,-0.5"/>
<text text-anchor="middle" x="219.564" y="-7.5" font-family="Helvetica,sans-Serif" font-size="10.00">ccccmain.cc</text>
</a>
</g>
</g>
<!-- Node2&#45;&gt;Node10 -->
<g id="edge26" class="edge"><title>Node2&#45;&gt;Node10</title>
<path fill="none" stroke="midnightblue" d="M461.884,-232.265C371.355,-230.052 159.887,-221.36 97.5641,-188 40.2697,-157.331 25.794,-137.066 3.56412,-76 0.523482,-67.6473 -2.0438,-62.8966 3.56412,-56 25.7368,-28.732 127.103,-17.4343 182.739,-13.2223"/>
<polygon fill="midnightblue" stroke="midnightblue" points="461.973,-235.768 472.051,-232.499 462.134,-228.77 461.973,-235.768"/>
</g>
<!-- Node11 -->
<g id="node11" class="node"><title>Node11</title>
<g id="a_node11"><a xlink:href="../../d4/df8/cccc__met_8h.html" target="_top" xlink:title="cccc_met.h">
<polygon fill="white" stroke="black" points="144.064,-168.5 144.064,-187.5 213.064,-187.5 213.064,-168.5 144.064,-168.5"/>
<text text-anchor="middle" x="178.564" y="-175.5" font-family="Helvetica,sans-Serif" font-size="10.00">cccc_met.h</text>
</a>
</g>
</g>
<!-- Node2&#45;&gt;Node11 -->
<g id="edge11" class="edge"><title>Node2&#45;&gt;Node11</title>
<path fill="none" stroke="midnightblue" d="M461.668,-226.958C406.497,-218.854 306.531,-203.662 221.564,-188 218.864,-187.502 216.073,-186.967 213.27,-186.413"/>
<polygon fill="midnightblue" stroke="midnightblue" points="461.359,-230.45 471.761,-228.434 462.373,-223.523 461.359,-230.45"/>
</g>
<!-- Node14 -->
<g id="node14" class="node"><title>Node14</title>
<g id="a_node14"><a xlink:href="../../d0/d4a/cccc__mem_8cc.html" target="_top" xlink:title="cccc_mem.cc">
<polygon fill="white" stroke="black" points="231.064,-168.5 231.064,-187.5 310.064,-187.5 310.064,-168.5 231.064,-168.5"/>
<text text-anchor="middle" x="270.564" y="-175.5" font-family="Helvetica,sans-Serif" font-size="10.00">cccc_mem.cc</text>
</a>
</g>
</g>
<!-- Node2&#45;&gt;Node14 -->
<g id="edge18" class="edge"><title>Node2&#45;&gt;Node14</title>
<path fill="none" stroke="midnightblue" d="M461.865,-223.336C417.952,-213.158 349.471,-197.287 307.46,-187.551"/>
<polygon fill="midnightblue" stroke="midnightblue" points="461.123,-226.757 471.655,-225.605 462.703,-219.937 461.123,-226.757"/>
</g>
<!-- Node15 -->
<g id="node15" class="node"><title>Node15</title>
<g id="a_node15"><a xlink:href="../../de/d79/cccc__mod_8cc.html" target="_top" xlink:title="cccc_mod.cc">
<polygon fill="white" stroke="black" points="328.064,-168.5 328.064,-187.5 405.064,-187.5 405.064,-168.5 328.064,-168.5"/>
<text text-anchor="middle" x="366.564" y="-175.5" font-family="Helvetica,sans-Serif" font-size="10.00">cccc_mod.cc</text>
</a>
</g>
</g>
<!-- Node2&#45;&gt;Node15 -->
<g id="edge19" class="edge"><title>Node2&#45;&gt;Node15</title>
<path fill="none" stroke="midnightblue" d="M472.541,-220.772C446.807,-210.629 410.878,-196.467 388.171,-187.516"/>
<polygon fill="midnightblue" stroke="midnightblue" points="471.269,-224.033 481.856,-224.444 473.836,-217.52 471.269,-224.033"/>
</g>
<!-- Node2&#45;&gt;Node16 -->
<g id="edge20" class="edge"><title>Node2&#45;&gt;Node16</title>
<path fill="none" stroke="midnightblue" d="M545.387,-229.066C616.218,-222.19 764.214,-206.902 888.564,-188 893.091,-187.312 897.843,-186.514 902.525,-185.682"/>
<polygon fill="midnightblue" stroke="midnightblue" points="544.721,-225.614 535.103,-230.058 545.393,-232.582 544.721,-225.614"/>
</g>
<!-- Node17 -->
<g id="node17" class="node"><title>Node17</title>
<g id="a_node17"><a xlink:href="../../df/d79/cccc__rec_8cc.html" target="_top" xlink:title="cccc_rec.cc">
<polygon fill="white" stroke="black" points="423.064,-168.5 423.064,-187.5 494.064,-187.5 494.064,-168.5 423.064,-168.5"/>
<text text-anchor="middle" x="458.564" y="-175.5" font-family="Helvetica,sans-Serif" font-size="10.00">cccc_rec.cc</text>
</a>
</g>
</g>
<!-- Node2&#45;&gt;Node17 -->
<g id="edge21" class="edge"><title>Node2&#45;&gt;Node17</title>
<path fill="none" stroke="midnightblue" d="M489.517,-216.144C481.677,-206.736 472.235,-195.405 465.857,-187.751"/>
<polygon fill="midnightblue" stroke="midnightblue" points="487.043,-218.641 496.133,-224.083 492.42,-214.16 487.043,-218.641"/>
</g>
<!-- Node18 -->
<g id="node18" class="node"><title>Node18</title>
<g id="a_node18"><a xlink:href="../../de/d05/cccc__use_8cc.html" target="_top" xlink:title="cccc_use.cc">
<polygon fill="white" stroke="black" points="512.064,-168.5 512.064,-187.5 585.064,-187.5 585.064,-168.5 512.064,-168.5"/>
<text text-anchor="middle" x="548.564" y="-175.5" font-family="Helvetica,sans-Serif" font-size="10.00">cccc_use.cc</text>
</a>
</g>
</g>
<!-- Node2&#45;&gt;Node18 -->
<g id="edge23" class="edge"><title>Node2&#45;&gt;Node18</title>
<path fill="none" stroke="midnightblue" d="M517.611,-216.144C525.451,-206.736 534.894,-195.405 541.272,-187.751"/>
<polygon fill="midnightblue" stroke="midnightblue" points="514.708,-214.16 510.995,-224.083 520.086,-218.641 514.708,-214.16"/>
</g>
<!-- Node19 -->
<g id="node19" class="node"><title>Node19</title>
<g id="a_node19"><a xlink:href="../../dc/d0b/cccc__utl_8cc.html" target="_top" xlink:title="cccc_utl.cc">
<polygon fill="white" stroke="black" points="603.064,-168.5 603.064,-187.5 670.064,-187.5 670.064,-168.5 603.064,-168.5"/>
<text text-anchor="middle" x="636.564" y="-175.5" font-family="Helvetica,sans-Serif" font-size="10.00">cccc_utl.cc</text>
</a>
</g>
</g>
<!-- Node2&#45;&gt;Node19 -->
<g id="edge24" class="edge"><title>Node2&#45;&gt;Node19</title>
<path fill="none" stroke="midnightblue" d="M534.012,-220.638C558.971,-210.504 593.641,-196.427 615.588,-187.516"/>
<polygon fill="midnightblue" stroke="midnightblue" points="532.587,-217.439 524.638,-224.444 535.22,-223.924 532.587,-217.439"/>
</g>
<!-- Node6 -->
<g id="node6" class="node"><title>Node6</title>
<g id="a_node6"><a xlink:href="../../d5/dcb/cccc__htm_8cc.html" target="_top" xlink:title="cccc_htm.cc">
<polygon fill="white" stroke="black" points="98.5641,-56.5 98.5641,-75.5 172.564,-75.5 172.564,-56.5 98.5641,-56.5"/>
<text text-anchor="middle" x="135.564" y="-63.5" font-family="Helvetica,sans-Serif" font-size="10.00">cccc_htm.cc</text>
</a>
</g>
</g>
<!-- Node5&#45;&gt;Node6 -->
<g id="edge5" class="edge"><title>Node5&#45;&gt;Node6</title>
<path fill="none" stroke="midnightblue" d="M143.364,-102.101C141.372,-93.1357 139.088,-82.8579 137.509,-75.7511"/>
<polygon fill="midnightblue" stroke="midnightblue" points="139.997,-103.08 145.583,-112.083 146.83,-101.562 139.997,-103.08"/>
</g>
<!-- Node5&#45;&gt;Node7 -->
<g id="edge6" class="edge"><title>Node5&#45;&gt;Node7</title>
<path fill="none" stroke="midnightblue" d="M122.482,-107.59C103.807,-97.6052 78.8601,-84.2672 62.7512,-75.6545"/>
<polygon fill="midnightblue" stroke="midnightblue" points="120.868,-110.696 131.337,-112.324 124.168,-104.522 120.868,-110.696"/>
</g>
<!-- Node5&#45;&gt;Node8 -->
<g id="edge7" class="edge"><title>Node5&#45;&gt;Node8</title>
<path fill="none" stroke="midnightblue" d="M191.906,-110.016C233.216,-99.7834 293.932,-84.7437 331.542,-75.4275"/>
<polygon fill="midnightblue" stroke="midnightblue" points="190.972,-106.642 182.107,-112.444 192.655,-113.436 190.972,-106.642"/>
</g>
<!-- Node5&#45;&gt;Node10 -->
<g id="edge10" class="edge"><title>Node5&#45;&gt;Node10</title>
<path fill="none" stroke="midnightblue" d="M161.047,-104.143C167.496,-95.838 175.182,-85.5727 181.564,-76 194.616,-56.4232 208.101,-32.2412 214.956,-19.6086"/>
<polygon fill="midnightblue" stroke="midnightblue" points="158.092,-102.239 154.655,-112.261 163.592,-106.569 158.092,-102.239"/>
</g>
<!-- Node9 -->
<g id="node9" class="node"><title>Node9</title>
<g id="a_node9"><a xlink:href="../../db/d75/cccc__xml_8cc.html" target="_top" xlink:title="cccc_xml.cc">
<polygon fill="white" stroke="black" points="329.564,-0.5 329.564,-19.5 401.564,-19.5 401.564,-0.5 329.564,-0.5"/>
<text text-anchor="middle" x="365.564" y="-7.5" font-family="Helvetica,sans-Serif" font-size="10.00">cccc_xml.cc</text>
</a>
</g>
</g>
<!-- Node8&#45;&gt;Node9 -->
<g id="edge8" class="edge"><title>Node8&#45;&gt;Node9</title>
<path fill="none" stroke="midnightblue" d="M365.564,-45.8045C365.564,-36.9102 365.564,-26.7798 365.564,-19.7511"/>
<polygon fill="midnightblue" stroke="midnightblue" points="362.064,-46.083 365.564,-56.083 369.064,-46.083 362.064,-46.083"/>
</g>
<!-- Node8&#45;&gt;Node10 -->
<g id="edge9" class="edge"><title>Node8&#45;&gt;Node10</title>
<path fill="none" stroke="midnightblue" d="M332.865,-52.9058C305.416,-42.7536 266.896,-28.5063 242.59,-19.5164"/>
<polygon fill="midnightblue" stroke="midnightblue" points="331.837,-56.2572 342.43,-56.4435 334.265,-49.6919 331.837,-56.2572"/>
</g>
<!-- Node11&#45;&gt;Node5 -->
<g id="edge12" class="edge"><title>Node11&#45;&gt;Node5</title>
<path fill="none" stroke="midnightblue" d="M168.388,-159.275C163.09,-150.045 156.847,-139.17 152.588,-131.751"/>
<polygon fill="midnightblue" stroke="midnightblue" points="165.431,-161.153 173.445,-168.083 171.502,-157.668 165.431,-161.153"/>
</g>
<!-- Node11&#45;&gt;Node7 -->
<g id="edge15" class="edge"><title>Node11&#45;&gt;Node7</title>
<path fill="none" stroke="midnightblue" d="M151.664,-163.522C136.745,-155.412 118.289,-144.294 103.564,-132 82.5949,-114.493 62.6317,-89.0258 52.8425,-75.7653"/>
<polygon fill="midnightblue" stroke="midnightblue" points="150.406,-166.816 160.882,-168.399 153.679,-160.629 150.406,-166.816"/>
</g>
<!-- Node11&#45;&gt;Node8 -->
<g id="edge16" class="edge"><title>Node11&#45;&gt;Node8</title>
<path fill="none" stroke="midnightblue" d="M223.476,-167.958C278.105,-160.136 385.01,-162.881 410.564,-132 426.402,-112.861 397.349,-88.2925 378.966,-75.5398"/>
<polygon fill="midnightblue" stroke="midnightblue" points="222.566,-164.562 213.287,-169.676 223.73,-171.464 222.566,-164.562"/>
</g>
<!-- Node11&#45;&gt;Node10 -->
<g id="edge17" class="edge"><title>Node11&#45;&gt;Node10</title>
<path fill="none" stroke="midnightblue" d="M183.611,-158.5C185.796,-150.381 188.354,-140.73 190.564,-132 201.219,-89.9078 213.02,-39.3206 217.599,-19.5268"/>
<polygon fill="midnightblue" stroke="midnightblue" points="180.168,-157.823 180.93,-168.39 186.924,-159.654 180.168,-157.823"/>
</g>
<!-- Node12 -->
<g id="node12" class="node"><title>Node12</title>
<g id="a_node12"><a xlink:href="../../df/df6/cccc__met_8cc.html" target="_top" xlink:title="cccc_met.cc">
<polygon fill="white" stroke="black" points="238.564,-112.5 238.564,-131.5 312.564,-131.5 312.564,-112.5 238.564,-112.5"/>
<text text-anchor="middle" x="275.564" y="-119.5" font-family="Helvetica,sans-Serif" font-size="10.00">cccc_met.cc</text>
</a>
</g>
</g>
<!-- Node11&#45;&gt;Node12 -->
<g id="edge13" class="edge"><title>Node11&#45;&gt;Node12</title>
<path fill="none" stroke="midnightblue" d="M202.899,-163.453C220.807,-153.483 244.618,-140.228 260.018,-131.655"/>
<polygon fill="midnightblue" stroke="midnightblue" points="201.184,-160.402 194.149,-168.324 204.589,-166.518 201.184,-160.402"/>
</g>
<!-- Node13 -->
<g id="node13" class="node"><title>Node13</title>
<g id="a_node13"><a xlink:href="../../d5/d39/cccc__opt_8cc.html" target="_top" xlink:title="cccc_opt.cc">
<polygon fill="white" stroke="black" points="331.064,-112.5 331.064,-131.5 402.064,-131.5 402.064,-112.5 331.064,-112.5"/>
<text text-anchor="middle" x="366.564" y="-119.5" font-family="Helvetica,sans-Serif" font-size="10.00">cccc_opt.cc</text>
</a>
</g>
</g>
<!-- Node11&#45;&gt;Node13 -->
<g id="edge14" class="edge"><title>Node11&#45;&gt;Node13</title>
<path fill="none" stroke="midnightblue" d="M218.365,-165.568C253.83,-155.381 304.93,-140.703 336.914,-131.516"/>
<polygon fill="midnightblue" stroke="midnightblue" points="216.998,-162.319 208.353,-168.444 218.931,-169.047 216.998,-162.319"/>
</g>
</g>
</svg>
