<?xml version="1.0" encoding="UTF-8" standalone="no"?>
<!DOCTYPE svg PUBLIC "-//W3C//DTD SVG 1.1//EN"
 "http://www.w3.org/Graphics/SVG/1.1/DTD/svg11.dtd">
<!-- Generated by graphviz version 2.38.0 (20140413.2041)
 -->
<!-- Title: PeekAtNextLinePrefix Pages: 1 -->
<svg width="615pt" height="154pt"
 viewBox="0.00 0.00 615.00 153.50" xmlns="http://www.w3.org/2000/svg" xmlns:xlink="http://www.w3.org/1999/xlink">
<g id="graph0" class="graph" transform="scale(1 1) rotate(0) translate(4 149.5)">
<title>PeekAtNextLinePrefix</title>
<polygon fill="white" stroke="none" points="-4,4 -4,-149.5 611,-149.5 611,4 -4,4"/>
<!-- Node1 -->
<g id="node1" class="node"><title>Node1</title>
<polygon fill="#bfbfbf" stroke="black" points="0,-69 0,-88 119,-88 119,-69 0,-69"/>
<text text-anchor="middle" x="59.5" y="-76" font-family="Helvetica,sans-Serif" font-size="10.00">PeekAtNextLinePrefix</text>
</g>
<!-- Node2 -->
<g id="node2" class="node"><title>Node2</title>
<g id="a_node2"><a xlink:href="../../dc/d1e/classCCCC__Member.html#a5b4510004fda956c909278337ae19236" target="_top" xlink:title="CCCC_Member::FromFile">
<polygon fill="white" stroke="black" points="155,-126 155,-145 291,-145 291,-126 155,-126"/>
<text text-anchor="middle" x="223" y="-133" font-family="Helvetica,sans-Serif" font-size="10.00">CCCC_Member::FromFile</text>
</a>
</g>
</g>
<!-- Node1&#45;&gt;Node2 -->
<g id="edge1" class="edge"><title>Node1&#45;&gt;Node2</title>
<path fill="none" stroke="midnightblue" d="M97.1306,-91.4285C126.846,-101.916 168.065,-116.464 194.88,-125.928"/>
<polygon fill="midnightblue" stroke="midnightblue" points="98.1263,-88.0683 87.5315,-88.0405 95.7965,-94.6693 98.1263,-88.0683"/>
</g>
<!-- Node3 -->
<g id="node3" class="node"><title>Node3</title>
<g id="a_node3"><a xlink:href="../../d4/d6e/classCCCC__Project.html#a189af779423cacf2ee6cbb9f738392cc" target="_top" xlink:title="CCCC_Project::FromFile">
<polygon fill="white" stroke="black" points="327,-69 327,-88 458,-88 458,-69 327,-69"/>
<text text-anchor="middle" x="392.5" y="-76" font-family="Helvetica,sans-Serif" font-size="10.00">CCCC_Project::FromFile</text>
</a>
</g>
</g>
<!-- Node1&#45;&gt;Node3 -->
<g id="edge6" class="edge"><title>Node1&#45;&gt;Node3</title>
<path fill="none" stroke="midnightblue" d="M129.476,-78.5C187.522,-78.5 269.92,-78.5 326.743,-78.5"/>
<polygon fill="midnightblue" stroke="midnightblue" points="129.295,-75.0001 119.295,-78.5 129.295,-82.0001 129.295,-75.0001"/>
</g>
<!-- Node5 -->
<g id="node5" class="node"><title>Node5</title>
<g id="a_node5"><a xlink:href="../../d6/d9f/classCCCC__Module.html#aa7d31814771b76de1477cc6c830000ec" target="_top" xlink:title="CCCC_Module::FromFile">
<polygon fill="white" stroke="black" points="157,-50 157,-69 289,-69 289,-50 157,-50"/>
<text text-anchor="middle" x="223" y="-57" font-family="Helvetica,sans-Serif" font-size="10.00">CCCC_Module::FromFile</text>
</a>
</g>
</g>
<!-- Node1&#45;&gt;Node5 -->
<g id="edge4" class="edge"><title>Node1&#45;&gt;Node5</title>
<path fill="none" stroke="midnightblue" d="M129.387,-70.3957C138.453,-69.329 147.724,-68.2384 156.727,-67.1791"/>
<polygon fill="midnightblue" stroke="midnightblue" points="128.785,-66.9423 119.262,-71.5868 129.603,-73.8943 128.785,-66.9423"/>
</g>
<!-- Node6 -->
<g id="node6" class="node"><title>Node6</title>
<g id="a_node6"><a xlink:href="../../d2/d65/classCCCC__UseRelationship.html#aa1b47ba57ddfff5db36294ab4d4631d5" target="_top" xlink:title="CCCC_UseRelationship\l::FromFile">
<polygon fill="white" stroke="black" points="158,-0.5 158,-30.5 288,-30.5 288,-0.5 158,-0.5"/>
<text text-anchor="start" x="166" y="-18.5" font-family="Helvetica,sans-Serif" font-size="10.00">CCCC_UseRelationship</text>
<text text-anchor="middle" x="223" y="-7.5" font-family="Helvetica,sans-Serif" font-size="10.00">::FromFile</text>
</a>
</g>
</g>
<!-- Node1&#45;&gt;Node6 -->
<g id="edge7" class="edge"><title>Node1&#45;&gt;Node6</title>
<path fill="none" stroke="midnightblue" d="M93.023,-65.187C111.209,-57.8017 134.315,-48.5165 155,-40.5 163.451,-37.2249 172.53,-33.7847 181.192,-30.54"/>
<polygon fill="midnightblue" stroke="midnightblue" points="91.6795,-61.9549 83.7366,-68.9664 94.3183,-68.4385 91.6795,-61.9549"/>
</g>
<!-- Node2&#45;&gt;Node3 -->
<g id="edge2" class="edge"><title>Node2&#45;&gt;Node3</title>
<path fill="none" stroke="midnightblue" d="M261.59,-122.708C292.439,-112.21 335.44,-97.5772 363.373,-88.0716"/>
<polygon fill="midnightblue" stroke="midnightblue" points="260.375,-119.424 252.036,-125.959 262.63,-126.051 260.375,-119.424"/>
</g>
<!-- Node4 -->
<g id="node4" class="node"><title>Node4</title>
<g id="a_node4"><a xlink:href="../../db/d4a/classMain.html#a13105815f91cc705481ca62c1e3ff562" target="_top" xlink:title="Main::LoadDatabase">
<polygon fill="white" stroke="black" points="494,-69 494,-88 607,-88 607,-69 494,-69"/>
<text text-anchor="middle" x="550.5" y="-76" font-family="Helvetica,sans-Serif" font-size="10.00">Main::LoadDatabase</text>
</a>
</g>
</g>
<!-- Node3&#45;&gt;Node4 -->
<g id="edge3" class="edge"><title>Node3&#45;&gt;Node4</title>
<path fill="none" stroke="midnightblue" d="M468.542,-78.5C476.977,-78.5 485.458,-78.5 493.59,-78.5"/>
<polygon fill="midnightblue" stroke="midnightblue" points="468.303,-75.0001 458.303,-78.5 468.303,-82.0001 468.303,-75.0001"/>
</g>
<!-- Node5&#45;&gt;Node3 -->
<g id="edge5" class="edge"><title>Node5&#45;&gt;Node3</title>
<path fill="none" stroke="midnightblue" d="M299.22,-68.0324C308.489,-69.0838 317.899,-70.1512 326.989,-71.1823"/>
<polygon fill="midnightblue" stroke="midnightblue" points="299.57,-64.5498 289.239,-66.9003 298.781,-71.5052 299.57,-64.5498"/>
</g>
<!-- Node6&#45;&gt;Node3 -->
<g id="edge8" class="edge"><title>Node6&#45;&gt;Node3</title>
<path fill="none" stroke="midnightblue" d="M273.984,-34.1234C279.724,-36.27 285.49,-38.4304 291,-40.5 316.67,-50.142 345.997,-61.2404 366.317,-68.9434"/>
<polygon fill="midnightblue" stroke="midnightblue" points="274.993,-30.7642 264.4,-30.5424 272.543,-37.3213 274.993,-30.7642"/>
</g>
</g>
</svg>
