<?xml version="1.0" encoding="UTF-8" standalone="no"?>
<!DOCTYPE svg PUBLIC "-//W3C//DTD SVG 1.1//EN"
 "http://www.w3.org/Graphics/SVG/1.1/DTD/svg11.dtd">
<!-- Generated by graphviz version 2.38.0 (20140413.2041)
 -->
<!-- Title: Resolve_Fields Pages: 1 -->
<svg width="437pt" height="108pt"
 viewBox="0.00 0.00 437.00 108.00" xmlns="http://www.w3.org/2000/svg" xmlns:xlink="http://www.w3.org/1999/xlink">
<g id="graph0" class="graph" transform="scale(1 1) rotate(0) translate(4 104)">
<title>Resolve_Fields</title>
<polygon fill="white" stroke="none" points="-4,4 -4,-104 433,-104 433,4 -4,4"/>
<!-- Node1 -->
<g id="node1" class="node"><title>Node1</title>
<polygon fill="#bfbfbf" stroke="black" points="0,-28 0,-47 89,-47 89,-28 0,-28"/>
<text text-anchor="middle" x="44.5" y="-35" font-family="Helvetica,sans-Serif" font-size="10.00">Resolve_Fields</text>
</g>
<!-- Node2 -->
<g id="node2" class="node"><title>Node2</title>
<g id="a_node2"><a xlink:href="../../d4/d6e/classCCCC__Project.html#a7a8c419dc807c57a9618da29d08d59ae" target="_top" xlink:title="CCCC_Project::add_module">
<polygon fill="white" stroke="black" points="125,-50 125,-69 273,-69 273,-50 125,-50"/>
<text text-anchor="middle" x="199" y="-57" font-family="Helvetica,sans-Serif" font-size="10.00">CCCC_Project::add_module</text>
</a>
</g>
</g>
<!-- Node1&#45;&gt;Node2 -->
<g id="edge1" class="edge"><title>Node1&#45;&gt;Node2</title>
<path fill="none" stroke="midnightblue" d="M99.1794,-45.2439C109.826,-46.7798 121.117,-48.4088 132.116,-49.9954"/>
<polygon fill="midnightblue" stroke="midnightblue" points="99.5977,-41.7681 89.2004,-43.8043 98.5981,-48.6964 99.5977,-41.7681"/>
</g>
<!-- Node5 -->
<g id="node5" class="node"><title>Node5</title>
<g id="a_node5"><a xlink:href="../../d6/d85/classCCCC__Record.html#abd8599732b2e3178e3a797697860953b" target="_top" xlink:title="CCCC_Record::merge\l_flags">
<polygon fill="white" stroke="black" points="138,-0.5 138,-30.5 260,-30.5 260,-0.5 138,-0.5"/>
<text text-anchor="start" x="146" y="-18.5" font-family="Helvetica,sans-Serif" font-size="10.00">CCCC_Record::merge</text>
<text text-anchor="middle" x="199" y="-7.5" font-family="Helvetica,sans-Serif" font-size="10.00">_flags</text>
</a>
</g>
</g>
<!-- Node1&#45;&gt;Node5 -->
<g id="edge4" class="edge"><title>Node1&#45;&gt;Node5</title>
<path fill="none" stroke="midnightblue" d="M99.4048,-29.7236C111.835,-27.9303 125.135,-26.0117 137.813,-24.1826"/>
<polygon fill="midnightblue" stroke="midnightblue" points="98.5981,-26.3036 89.2004,-31.1957 99.5977,-33.2319 98.5981,-26.3036"/>
</g>
<!-- Node3 -->
<g id="node3" class="node"><title>Node3</title>
<g id="a_node3"><a xlink:href="../../d4/d6e/classCCCC__Project.html#a5deb4638448a99501db6918777ef4c22" target="_top" xlink:title="CCCC_Project::CCCC\l_Project">
<polygon fill="white" stroke="black" points="309,-69.5 309,-99.5 429,-99.5 429,-69.5 309,-69.5"/>
<text text-anchor="start" x="317" y="-87.5" font-family="Helvetica,sans-Serif" font-size="10.00">CCCC_Project::CCCC</text>
<text text-anchor="middle" x="369" y="-76.5" font-family="Helvetica,sans-Serif" font-size="10.00">_Project</text>
</a>
</g>
</g>
<!-- Node2&#45;&gt;Node3 -->
<g id="edge2" class="edge"><title>Node2&#45;&gt;Node3</title>
<path fill="none" stroke="midnightblue" d="M274.126,-70.5306C285.757,-72.2615 297.644,-74.0304 308.879,-75.7023"/>
<polygon fill="midnightblue" stroke="midnightblue" points="274.399,-67.0328 263.993,-69.0227 273.369,-73.9566 274.399,-67.0328"/>
</g>
<!-- Node4 -->
<g id="node4" class="node"><title>Node4</title>
<g id="a_node4"><a xlink:href="../../d3/d5e/classParseStore.html#a0f47461357cdae6de50996da596e552c" target="_top" xlink:title="ParseStore::record\l_module_extent">
<polygon fill="white" stroke="black" points="316.5,-20.5 316.5,-50.5 421.5,-50.5 421.5,-20.5 316.5,-20.5"/>
<text text-anchor="start" x="324.5" y="-38.5" font-family="Helvetica,sans-Serif" font-size="10.00">ParseStore::record</text>
<text text-anchor="middle" x="369" y="-27.5" font-family="Helvetica,sans-Serif" font-size="10.00">_module_extent</text>
</a>
</g>
</g>
<!-- Node2&#45;&gt;Node4 -->
<g id="edge3" class="edge"><title>Node2&#45;&gt;Node4</title>
<path fill="none" stroke="midnightblue" d="M277.009,-48.4988C290.342,-46.5939 303.913,-44.6553 316.363,-42.8767"/>
<polygon fill="midnightblue" stroke="midnightblue" points="276.285,-45.0665 266.881,-49.9456 277.275,-51.9961 276.285,-45.0665"/>
</g>
</g>
</svg>
