<?xml version="1.0" encoding="UTF-8" standalone="no"?>
<!DOCTYPE svg PUBLIC "-//W3C//DTD SVG 1.1//EN"
 "http://www.w3.org/Graphics/SVG/1.1/DTD/svg11.dtd">
<!-- Generated by graphviz version 2.38.0 (20140413.2041)
 -->
<!-- Title: CCCC_Xml_Stream Pages: 1 -->
<svg width="1530pt" height="909pt"
 viewBox="0.00 0.00 1530.00 909.00" xmlns="http://www.w3.org/2000/svg" xmlns:xlink="http://www.w3.org/1999/xlink">
<g id="graph0" class="graph" transform="scale(1 1) rotate(0) translate(4 905)">
<title>CCCC_Xml_Stream</title>
<polygon fill="white" stroke="none" points="-4,4 -4,-905 1526,-905 1526,4 -4,4"/>
<!-- Node1 -->
<g id="node1" class="node"><title>Node1</title>
<polygon fill="#bfbfbf" stroke="black" points="1412,-161.5 1412,-180.5 1522,-180.5 1522,-161.5 1412,-161.5"/>
<text text-anchor="middle" x="1467" y="-168.5" font-family="Helvetica,sans-Serif" font-size="10.00">CCCC_Xml_Stream</text>
</g>
<!-- Node2 -->
<g id="node2" class="node"><title>Node2</title>
<g id="a_node2"><a xlink:href="../../d4/d6e/classCCCC__Project.html" target="_top" xlink:title="CCCC_Project">
<polygon fill="white" stroke="black" points="1220,-452.5 1220,-471.5 1306,-471.5 1306,-452.5 1220,-452.5"/>
<text text-anchor="middle" x="1263" y="-459.5" font-family="Helvetica,sans-Serif" font-size="10.00">CCCC_Project</text>
</a>
</g>
</g>
<!-- Node2&#45;&gt;Node1 -->
<g id="edge1" class="edge"><title>Node2&#45;&gt;Node1</title>
<path fill="none" stroke="#9a32cd" stroke-dasharray="5,2" d="M1276.6,-443.854C1315.06,-388.441 1430.15,-222.649 1459.25,-180.718"/>
<polygon fill="#9a32cd" stroke="#9a32cd" points="1273.55,-442.107 1270.72,-452.318 1279.3,-446.099 1273.55,-442.107"/>
<text text-anchor="middle" x="1359" y="-371" font-family="Helvetica,sans-Serif" font-size="10.00"> prjptr</text>
</g>
<!-- Node3 -->
<g id="node3" class="node"><title>Node3</title>
<g id="a_node3"><a xlink:href="../../d6/d85/classCCCC__Record.html" target="_top" xlink:title="CCCC_Record">
<polygon fill="white" stroke="black" points="1423.5,-451.5 1423.5,-470.5 1510.5,-470.5 1510.5,-451.5 1423.5,-451.5"/>
<text text-anchor="middle" x="1467" y="-458.5" font-family="Helvetica,sans-Serif" font-size="10.00">CCCC_Record</text>
</a>
</g>
</g>
<!-- Node2&#45;&gt;Node3 -->
<g id="edge3" class="edge"><title>Node2&#45;&gt;Node3</title>
<path fill="none" stroke="#9a32cd" stroke-dasharray="5,2" d="M1316.35,-461.741C1349.63,-461.576 1392.15,-461.366 1423.36,-461.211"/>
<polygon fill="#9a32cd" stroke="#9a32cd" points="1316.33,-458.241 1306.35,-461.79 1316.36,-465.241 1316.33,-458.241"/>
<text text-anchor="middle" x="1359" y="-465" font-family="Helvetica,sans-Serif" font-size="10.00"> active_project</text>
</g>
<!-- Node3&#45;&gt;Node2 -->
<g id="edge2" class="edge"><title>Node3&#45;&gt;Node2</title>
<path fill="none" stroke="midnightblue" d="M1413.14,-459.275C1386.42,-458.652 1353.48,-458.263 1324,-459 1318.27,-459.143 1312.23,-459.363 1306.28,-459.621"/>
<polygon fill="midnightblue" stroke="midnightblue" points="1413.35,-462.781 1423.43,-459.533 1413.52,-455.783 1413.35,-462.781"/>
</g>
<!-- Node4 -->
<g id="node4" class="node"><title>Node4</title>
<g id="a_node4"><a xlink:title="STL class. ">
<polygon fill="white" stroke="#bfbfbf" points="212,-136.5 212,-155.5 274,-155.5 274,-136.5 212,-136.5"/>
<text text-anchor="middle" x="243" y="-143.5" font-family="Helvetica,sans-Serif" font-size="10.00">std::string</text>
</a>
</g>
</g>
<!-- Node4&#45;&gt;Node1 -->
<g id="edge46" class="edge"><title>Node4&#45;&gt;Node1</title>
<path fill="none" stroke="#9a32cd" stroke-dasharray="5,2" d="M284.434,-150.085C358.194,-157.173 519.57,-171 656,-171 656,-171 656,-171 1264,-171 1314.15,-171 1371.3,-171 1411.99,-171"/>
<polygon fill="#9a32cd" stroke="#9a32cd" points="284.492,-146.574 274.2,-149.091 283.815,-153.541 284.492,-146.574"/>
<text text-anchor="middle" x="918" y="-185" font-family="Helvetica,sans-Serif" font-size="10.00"> libdir</text>
<text text-anchor="middle" x="918" y="-174" font-family="Helvetica,sans-Serif" font-size="10.00">outdir</text>
</g>
<!-- Node4&#45;&gt;Node3 -->
<g id="edge4" class="edge"><title>Node4&#45;&gt;Node3</title>
<path fill="none" stroke="#9a32cd" stroke-dasharray="5,2" d="M284.421,-142.76C336.027,-138.91 428.091,-133 507,-133 507,-133 507,-133 1264,-133 1417.48,-133 1458.12,-396.608 1464.89,-451.184"/>
<polygon fill="#9a32cd" stroke="#9a32cd" points="284.056,-139.278 274.349,-143.524 284.585,-146.258 284.056,-139.278"/>
<text text-anchor="middle" x="918" y="-136" font-family="Helvetica,sans-Serif" font-size="10.00"> flags</text>
</g>
<!-- Node12 -->
<g id="node12" class="node"><title>Node12</title>
<polygon fill="white" stroke="#bfbfbf" points="989,-529 989,-559 1103,-559 1103,-529 989,-529"/>
<text text-anchor="start" x="997" y="-547" font-family="Helvetica,sans-Serif" font-size="10.00">std::multimap&lt; string,</text>
<text text-anchor="middle" x="1046" y="-536" font-family="Helvetica,sans-Serif" font-size="10.00"> ExtentTableEntry &gt;</text>
</g>
<!-- Node4&#45;&gt;Node12 -->
<g id="edge13" class="edge"><title>Node4&#45;&gt;Node12</title>
<path fill="none" stroke="#9a32cd" stroke-dasharray="5,2" d="M276.082,-132.8C290.48,-127.499 307.832,-121.953 324,-119 394.724,-106.082 918.831,-61.5305 971,-111 993.863,-132.68 982.419,-363.187 989,-394 999.915,-445.106 1025,-502.046 1037.56,-528.69"/>
<polygon fill="#9a32cd" stroke="#9a32cd" points="274.738,-129.566 266.638,-136.395 277.229,-136.108 274.738,-129.566"/>
<text text-anchor="middle" x="657" y="-96" font-family="Helvetica,sans-Serif" font-size="10.00"> keys</text>
</g>
<!-- Node14 -->
<g id="node14" class="node"><title>Node14</title>
<g id="a_node14"><a xlink:href="../../df/d99/classCCCC__Extent.html" target="_top" xlink:title="CCCC_Extent">
<polygon fill="white" stroke="black" points="466.5,-327.5 466.5,-346.5 549.5,-346.5 549.5,-327.5 466.5,-327.5"/>
<text text-anchor="middle" x="508" y="-334.5" font-family="Helvetica,sans-Serif" font-size="10.00">CCCC_Extent</text>
</a>
</g>
</g>
<!-- Node4&#45;&gt;Node14 -->
<g id="edge19" class="edge"><title>Node4&#45;&gt;Node14</title>
<path fill="none" stroke="#9a32cd" stroke-dasharray="5,2" d="M284.216,-157.886C322.785,-169.484 376.402,-186.201 385,-192 441.46,-230.077 486.38,-301.381 501.508,-327.282"/>
<polygon fill="#9a32cd" stroke="#9a32cd" points="284.864,-154.427 274.28,-154.911 282.856,-161.132 284.864,-154.427"/>
<text text-anchor="middle" x="354.5" y="-239" font-family="Helvetica,sans-Serif" font-size="10.00"> count_buffer</text>
<text text-anchor="middle" x="354.5" y="-228" font-family="Helvetica,sans-Serif" font-size="10.00">flags</text>
<text text-anchor="middle" x="354.5" y="-217" font-family="Helvetica,sans-Serif" font-size="10.00">linenumber</text>
<text text-anchor="middle" x="354.5" y="-206" font-family="Helvetica,sans-Serif" font-size="10.00">description</text>
<text text-anchor="middle" x="354.5" y="-195" font-family="Helvetica,sans-Serif" font-size="10.00">filename</text>
</g>
<!-- Node20 -->
<g id="node20" class="node"><title>Node20</title>
<polygon fill="white" stroke="#bfbfbf" points="711,-365 711,-395 837,-395 837,-365 711,-365"/>
<text text-anchor="start" x="719" y="-383" font-family="Helvetica,sans-Serif" font-size="10.00">std::map&lt; string, CCCC</text>
<text text-anchor="middle" x="774" y="-372" font-family="Helvetica,sans-Serif" font-size="10.00">_Item &gt;</text>
</g>
<!-- Node4&#45;&gt;Node20 -->
<g id="edge28" class="edge"><title>Node4&#45;&gt;Node20</title>
<path fill="none" stroke="#9a32cd" stroke-dasharray="5,2" d="M258.904,-128.634C273.625,-112.896 297.701,-90.725 324,-81 398.845,-53.3241 619.129,-25.1654 683,-73 731.68,-109.457 762.936,-308.209 770.954,-364.899"/>
<polygon fill="#9a32cd" stroke="#9a32cd" points="256.197,-126.409 252.096,-136.177 261.394,-131.098 256.197,-126.409"/>
<text text-anchor="middle" x="508" y="-64" font-family="Helvetica,sans-Serif" font-size="10.00"> keys</text>
</g>
<!-- Node21 -->
<g id="node21" class="node"><title>Node21</title>
<g id="a_node21"><a xlink:href="../../db/d6a/classCCCC__Item.html" target="_top" xlink:title="CCCC_Item">
<polygon fill="white" stroke="black" points="471.5,-386.5 471.5,-405.5 544.5,-405.5 544.5,-386.5 471.5,-386.5"/>
<text text-anchor="middle" x="508" y="-393.5" font-family="Helvetica,sans-Serif" font-size="10.00">CCCC_Item</text>
</a>
</g>
</g>
<!-- Node4&#45;&gt;Node21 -->
<g id="edge32" class="edge"><title>Node4&#45;&gt;Node21</title>
<path fill="none" stroke="#9a32cd" stroke-dasharray="5,2" d="M256.534,-164.01C271.483,-184.943 297.762,-220.059 324,-247 348.655,-272.316 365.407,-268.591 385,-298 399.965,-320.462 384.557,-336.293 403,-356 420.845,-375.068 448.79,-385.149 471.221,-390.419"/>
<polygon fill="#9a32cd" stroke="#9a32cd" points="259.306,-161.869 250.678,-155.72 253.589,-165.908 259.306,-161.869"/>
<text text-anchor="middle" x="354.5" y="-301" font-family="Helvetica,sans-Serif" font-size="10.00"> buffer</text>
</g>
<!-- Node5 -->
<g id="node5" class="node"><title>Node5</title>
<g id="a_node5"><a xlink:title="STL class. ">
<polygon fill="white" stroke="#bfbfbf" points="0,-131 0,-161 98,-161 98,-131 0,-131"/>
<text text-anchor="start" x="8" y="-149" font-family="Helvetica,sans-Serif" font-size="10.00">std::basic_string&lt;</text>
<text text-anchor="middle" x="49" y="-138" font-family="Helvetica,sans-Serif" font-size="10.00"> char &gt;</text>
</a>
</g>
</g>
<!-- Node5&#45;&gt;Node4 -->
<g id="edge5" class="edge"><title>Node5&#45;&gt;Node4</title>
<path fill="none" stroke="midnightblue" d="M108.764,-146C142.843,-146 184.329,-146 211.861,-146"/>
<polygon fill="midnightblue" stroke="midnightblue" points="108.45,-142.5 98.4497,-146 108.45,-149.5 108.45,-142.5"/>
</g>
<!-- Node6 -->
<g id="node6" class="node"><title>Node6</title>
<g id="a_node6"><a xlink:href="../../d8/dcf/classCCCC__Table.html" target="_top" xlink:title="CCCC_Table\&lt; CCCC_Extent \&gt;">
<polygon fill="white" stroke="black" points="426.5,-614.5 426.5,-633.5 589.5,-633.5 589.5,-614.5 426.5,-614.5"/>
<text text-anchor="middle" x="508" y="-621.5" font-family="Helvetica,sans-Serif" font-size="10.00">CCCC_Table&lt; CCCC_Extent &gt;</text>
</a>
</g>
</g>
<!-- Node6&#45;&gt;Node2 -->
<g id="edge33" class="edge"><title>Node6&#45;&gt;Node2</title>
<path fill="none" stroke="#9a32cd" stroke-dasharray="5,2" d="M587.195,-634.727C702.62,-647.808 924.239,-662.338 1103,-611 1152.23,-596.861 1164.88,-587.292 1202,-552 1228,-527.287 1248.6,-489.351 1257.39,-471.68"/>
<polygon fill="#9a32cd" stroke="#9a32cd" points="587.375,-631.224 577.038,-633.548 586.568,-638.178 587.375,-631.224"/>
<text text-anchor="middle" x="918" y="-648" font-family="Helvetica,sans-Serif" font-size="10.00"> rejected_extent_table</text>
</g>
<!-- Node6&#45;&gt;Node3 -->
<g id="edge6" class="edge"><title>Node6&#45;&gt;Node3</title>
<path fill="none" stroke="#9a32cd" stroke-dasharray="5,2" d="M575.718,-612.985C628.968,-605.147 705.561,-596 773,-596 773,-596 773,-596 1264,-596 1354.27,-596 1434.77,-501.663 1458.76,-470.709"/>
<polygon fill="#9a32cd" stroke="#9a32cd" points="575.093,-609.539 565.721,-614.481 576.129,-616.462 575.093,-609.539"/>
<text text-anchor="middle" x="1046" y="-599" font-family="Helvetica,sans-Serif" font-size="10.00"> extent_table</text>
</g>
<!-- Node13 -->
<g id="node13" class="node"><title>Node13</title>
<g id="a_node13"><a xlink:href="../../d0/d5f/structCCCC__Project_1_1ExtentTableEntry.html" target="_top" xlink:title="CCCC_Project::ExtentTable\lEntry">
<polygon fill="white" stroke="black" points="701,-529 701,-559 847,-559 847,-529 701,-529"/>
<text text-anchor="start" x="709" y="-547" font-family="Helvetica,sans-Serif" font-size="10.00">CCCC_Project::ExtentTable</text>
<text text-anchor="middle" x="774" y="-536" font-family="Helvetica,sans-Serif" font-size="10.00">Entry</text>
</a>
</g>
</g>
<!-- Node6&#45;&gt;Node13 -->
<g id="edge20" class="edge"><title>Node6&#45;&gt;Node13</title>
<path fill="none" stroke="#9a32cd" stroke-dasharray="5,2" d="M598.76,-611.323C603.782,-608.969 608.578,-606.217 613,-603 626.197,-593.402 617.749,-580.523 631,-571 651.072,-556.575 676.72,-549.253 700.682,-545.704"/>
<polygon fill="#9a32cd" stroke="#9a32cd" points="597.415,-608.092 589.506,-615.142 600.085,-614.562 597.415,-608.092"/>
<text text-anchor="middle" x="657" y="-574" font-family="Helvetica,sans-Serif" font-size="10.00"> table_ptr</text>
</g>
<!-- Node7 -->
<g id="node7" class="node"><title>Node7</title>
<g id="a_node7"><a xlink:title="STL class. ">
<polygon fill="white" stroke="#bfbfbf" points="180,-850 180,-880 306,-880 306,-850 180,-850"/>
<text text-anchor="start" x="188" y="-868" font-family="Helvetica,sans-Serif" font-size="10.00">std::map&lt; string, CCCC</text>
<text text-anchor="middle" x="243" y="-857" font-family="Helvetica,sans-Serif" font-size="10.00">_Extent * &gt;</text>
</a>
</g>
</g>
<!-- Node7&#45;&gt;Node6 -->
<g id="edge7" class="edge"><title>Node7&#45;&gt;Node6</title>
<path fill="none" stroke="midnightblue" d="M316.011,-847.709C339.687,-839.593 365.03,-828.062 385,-812 449.58,-760.058 491.152,-664.403 503.296,-633.734"/>
<polygon fill="midnightblue" stroke="midnightblue" points="314.756,-844.437 306.339,-850.872 316.931,-851.09 314.756,-844.437"/>
</g>
<!-- Node8 -->
<g id="node8" class="node"><title>Node8</title>
<polygon fill="white" stroke="#bfbfbf" points="34.5,-849.5 34.5,-868.5 63.5,-868.5 63.5,-849.5 34.5,-849.5"/>
<text text-anchor="middle" x="49" y="-856.5" font-family="Helvetica,sans-Serif" font-size="10.00">K</text>
</g>
<!-- Node8&#45;&gt;Node7 -->
<g id="edge8" class="edge"><title>Node8&#45;&gt;Node7</title>
<path fill="none" stroke="#9a32cd" stroke-dasharray="5,2" d="M72.7051,-871.773C85.0856,-878.007 100.923,-884.834 116,-888 144.943,-894.078 177.822,-887.633 202.734,-880.036"/>
<polygon fill="#9a32cd" stroke="#9a32cd" points="74.0773,-868.54 63.5978,-866.981 70.8179,-874.735 74.0773,-868.54"/>
<text text-anchor="middle" x="139" y="-893" font-family="Helvetica,sans-Serif" font-size="10.00"> keys</text>
</g>
<!-- Node19 -->
<g id="node19" class="node"><title>Node19</title>
<g id="a_node19"><a xlink:title="STL class. ">
<polygon fill="white" stroke="#bfbfbf" points="180,-801 180,-831 306,-831 306,-801 180,-801"/>
<text text-anchor="start" x="188" y="-819" font-family="Helvetica,sans-Serif" font-size="10.00">std::map&lt; string, CCCC</text>
<text text-anchor="middle" x="243" y="-808" font-family="Helvetica,sans-Serif" font-size="10.00">_Module * &gt;</text>
</a>
</g>
</g>
<!-- Node8&#45;&gt;Node19 -->
<g id="edge23" class="edge"><title>Node8&#45;&gt;Node19</title>
<path fill="none" stroke="#9a32cd" stroke-dasharray="5,2" d="M73.5342,-861.779C96.7179,-863.641 132.802,-864.166 162,-854 171.32,-850.755 171.361,-845.769 180,-841 186.503,-837.41 193.629,-834.053 200.661,-831.036"/>
<polygon fill="#9a32cd" stroke="#9a32cd" points="73.8553,-858.294 63.5686,-860.83 73.192,-865.262 73.8553,-858.294"/>
<text text-anchor="middle" x="139" y="-865" font-family="Helvetica,sans-Serif" font-size="10.00"> keys</text>
</g>
<!-- Node24 -->
<g id="node24" class="node"><title>Node24</title>
<g id="a_node24"><a xlink:title="STL class. ">
<polygon fill="white" stroke="#bfbfbf" points="180,-752 180,-782 306,-782 306,-752 180,-752"/>
<text text-anchor="start" x="188" y="-770" font-family="Helvetica,sans-Serif" font-size="10.00">std::map&lt; string, CCCC</text>
<text text-anchor="middle" x="243" y="-759" font-family="Helvetica,sans-Serif" font-size="10.00">_UseRelationship * &gt;</text>
</a>
</g>
</g>
<!-- Node8&#45;&gt;Node24 -->
<g id="edge36" class="edge"><title>Node8&#45;&gt;Node24</title>
<path fill="none" stroke="#9a32cd" stroke-dasharray="5,2" d="M73.758,-852.701C102.301,-844.8 148.089,-830.959 162,-820 173.621,-810.845 168.603,-801.433 180,-792 184.56,-788.226 189.764,-784.964 195.174,-782.159"/>
<polygon fill="#9a32cd" stroke="#9a32cd" points="72.4956,-849.417 63.7654,-855.42 74.3336,-856.172 72.4956,-849.417"/>
<text text-anchor="middle" x="139" y="-842" font-family="Helvetica,sans-Serif" font-size="10.00"> keys</text>
</g>
<!-- Node26 -->
<g id="node26" class="node"><title>Node26</title>
<g id="a_node26"><a xlink:title="STL class. ">
<polygon fill="white" stroke="#bfbfbf" points="180,-703 180,-733 306,-733 306,-703 180,-703"/>
<text text-anchor="start" x="188" y="-721" font-family="Helvetica,sans-Serif" font-size="10.00">std::map&lt; string, CCCC</text>
<text text-anchor="middle" x="243" y="-710" font-family="Helvetica,sans-Serif" font-size="10.00">_Member * &gt;</text>
</a>
</g>
</g>
<!-- Node8&#45;&gt;Node26 -->
<g id="edge42" class="edge"><title>Node8&#45;&gt;Node26</title>
<path fill="none" stroke="#9a32cd" stroke-dasharray="5,2" d="M68.2392,-842.678C81.027,-831.737 98.8382,-817.47 116,-807 135.186,-795.296 146.363,-802.142 162,-786 176.415,-771.119 165.254,-757.553 180,-743 183.882,-739.168 188.429,-735.901 193.265,-733.12"/>
<polygon fill="#9a32cd" stroke="#9a32cd" points="65.861,-840.108 60.6184,-849.315 70.4582,-845.387 65.861,-840.108"/>
<text text-anchor="middle" x="139" y="-810" font-family="Helvetica,sans-Serif" font-size="10.00"> keys</text>
</g>
<!-- Node9 -->
<g id="node9" class="node"><title>Node9</title>
<polygon fill="white" stroke="#bfbfbf" points="34.5,-713.5 34.5,-732.5 63.5,-732.5 63.5,-713.5 34.5,-713.5"/>
<text text-anchor="middle" x="49" y="-720.5" font-family="Helvetica,sans-Serif" font-size="10.00">T</text>
</g>
<!-- Node9&#45;&gt;Node7 -->
<g id="edge9" class="edge"><title>Node9&#45;&gt;Node7</title>
<path fill="none" stroke="#9a32cd" stroke-dasharray="5,2" d="M72.8708,-733.064C105.401,-747.4 161.219,-772.081 162,-773 182.256,-796.814 159.149,-817.706 180,-841 183.079,-844.44 186.71,-847.391 190.644,-849.922"/>
<polygon fill="#9a32cd" stroke="#9a32cd" points="74.1721,-729.813 63.6096,-728.985 71.3505,-736.219 74.1721,-729.813"/>
<text text-anchor="middle" x="139" y="-776" font-family="Helvetica,sans-Serif" font-size="10.00"> elements</text>
</g>
<!-- Node9&#45;&gt;Node19 -->
<g id="edge24" class="edge"><title>Node9&#45;&gt;Node19</title>
<path fill="none" stroke="#9a32cd" stroke-dasharray="5,2" d="M73.8938,-720.255C98.7367,-718.761 137.369,-720.446 162,-741 180.455,-756.401 163.26,-774.75 180,-792 183.296,-795.396 187.126,-798.32 191.235,-800.836"/>
<polygon fill="#9a32cd" stroke="#9a32cd" points="73.5422,-716.772 63.8609,-721.075 74.1131,-723.748 73.5422,-716.772"/>
<text text-anchor="middle" x="139" y="-744" font-family="Helvetica,sans-Serif" font-size="10.00"> elements</text>
</g>
<!-- Node9&#45;&gt;Node24 -->
<g id="edge37" class="edge"><title>Node9&#45;&gt;Node24</title>
<path fill="none" stroke="#9a32cd" stroke-dasharray="5,2" d="M72.9314,-711.488C96.9227,-701.223 134.807,-690.194 162,-707 177.217,-716.405 166.769,-730.961 180,-743 183.756,-746.418 188.053,-749.37 192.593,-751.915"/>
<polygon fill="#9a32cd" stroke="#9a32cd" points="71.2175,-708.423 63.5717,-715.757 74.1225,-714.792 71.2175,-708.423"/>
<text text-anchor="middle" x="139" y="-710" font-family="Helvetica,sans-Serif" font-size="10.00"> elements</text>
</g>
<!-- Node9&#45;&gt;Node26 -->
<g id="edge43" class="edge"><title>Node9&#45;&gt;Node26</title>
<path fill="none" stroke="#9a32cd" stroke-dasharray="5,2" d="M65.9049,-706.136C78.2719,-694.327 96.5504,-679.535 116,-673 135.38,-666.488 142.223,-667.819 162,-673 173.561,-676.029 199.04,-690.958 218.158,-702.801"/>
<polygon fill="#9a32cd" stroke="#9a32cd" points="63.2837,-703.807 58.6788,-713.349 68.229,-708.761 63.2837,-703.807"/>
<text text-anchor="middle" x="139" y="-676" font-family="Helvetica,sans-Serif" font-size="10.00"> elements</text>
</g>
<!-- Node10 -->
<g id="node10" class="node"><title>Node10</title>
<polygon fill="white" stroke="#bfbfbf" points="218,-651.5 218,-670.5 268,-670.5 268,-651.5 218,-651.5"/>
<text text-anchor="middle" x="243" y="-658.5" font-family="Helvetica,sans-Serif" font-size="10.00">iterator</text>
</g>
<!-- Node10&#45;&gt;Node6 -->
<g id="edge10" class="edge"><title>Node10&#45;&gt;Node6</title>
<path fill="none" stroke="#9a32cd" stroke-dasharray="5,2" d="M270.425,-675.485C289.296,-685.518 313.181,-697.503 324,-700 350.417,-706.096 358.934,-707.455 385,-700 430.825,-686.894 476.183,-651.039 496.261,-633.676"/>
<polygon fill="#9a32cd" stroke="#9a32cd" points="271.843,-672.274 261.377,-670.622 268.529,-678.439 271.843,-672.274"/>
<text text-anchor="middle" x="354.5" y="-708" font-family="Helvetica,sans-Serif" font-size="10.00"> iter_</text>
</g>
<!-- Node18 -->
<g id="node18" class="node"><title>Node18</title>
<g id="a_node18"><a xlink:href="../../d8/dcf/classCCCC__Table.html" target="_top" xlink:title="CCCC_Table\&lt; CCCC_Module \&gt;">
<polygon fill="white" stroke="black" points="424.5,-574.5 424.5,-593.5 591.5,-593.5 591.5,-574.5 424.5,-574.5"/>
<text text-anchor="middle" x="508" y="-581.5" font-family="Helvetica,sans-Serif" font-size="10.00">CCCC_Table&lt; CCCC_Module &gt;</text>
</a>
</g>
</g>
<!-- Node10&#45;&gt;Node18 -->
<g id="edge25" class="edge"><title>Node10&#45;&gt;Node18</title>
<path fill="none" stroke="#9a32cd" stroke-dasharray="5,2" d="M278.067,-673.263C309.065,-682.067 354.507,-688.795 385,-666 407.64,-649.075 382.155,-624.092 403,-605 409.248,-599.277 416.609,-594.933 424.481,-591.656"/>
<polygon fill="#9a32cd" stroke="#9a32cd" points="278.737,-669.808 268.151,-670.237 276.694,-676.503 278.737,-669.808"/>
<text text-anchor="middle" x="354.5" y="-684" font-family="Helvetica,sans-Serif" font-size="10.00"> iter_</text>
</g>
<!-- Node23 -->
<g id="node23" class="node"><title>Node23</title>
<g id="a_node23"><a xlink:href="../../d8/dcf/classCCCC__Table.html" target="_top" xlink:title="CCCC_Table\&lt; CCCC_UseRelationship \&gt;">
<polygon fill="white" stroke="black" points="403,-531.5 403,-550.5 613,-550.5 613,-531.5 403,-531.5"/>
<text text-anchor="middle" x="508" y="-538.5" font-family="Helvetica,sans-Serif" font-size="10.00">CCCC_Table&lt; CCCC_UseRelationship &gt;</text>
</a>
</g>
</g>
<!-- Node10&#45;&gt;Node23 -->
<g id="edge38" class="edge"><title>Node10&#45;&gt;Node23</title>
<path fill="none" stroke="#9a32cd" stroke-dasharray="5,2" d="M278.361,-658.049C315.029,-654.205 369.892,-646.233 385,-632 407.443,-610.857 380.812,-586.411 403,-565 409.4,-558.824 417.057,-554.12 425.274,-550.553"/>
<polygon fill="#9a32cd" stroke="#9a32cd" points="277.695,-654.597 268.09,-659.068 278.387,-661.563 277.695,-654.597"/>
<text text-anchor="middle" x="354.5" y="-654" font-family="Helvetica,sans-Serif" font-size="10.00"> iter_</text>
</g>
<!-- Node25 -->
<g id="node25" class="node"><title>Node25</title>
<g id="a_node25"><a xlink:href="../../d8/dcf/classCCCC__Table.html" target="_top" xlink:title="CCCC_Table\&lt; CCCC_Member \&gt;">
<polygon fill="white" stroke="black" points="422.5,-475.5 422.5,-494.5 593.5,-494.5 593.5,-475.5 422.5,-475.5"/>
<text text-anchor="middle" x="508" y="-482.5" font-family="Helvetica,sans-Serif" font-size="10.00">CCCC_Table&lt; CCCC_Member &gt;</text>
</a>
</g>
</g>
<!-- Node10&#45;&gt;Node25 -->
<g id="edge44" class="edge"><title>Node10&#45;&gt;Node25</title>
<path fill="none" stroke="#9a32cd" stroke-dasharray="5,2" d="M269.45,-646.369C284.935,-637.789 305.275,-627.083 324,-619 350.325,-607.637 365.753,-619.253 385,-598 408.301,-572.27 379.831,-547.849 403,-522 415.024,-508.585 432.239,-500.034 449.213,-494.582"/>
<polygon fill="#9a32cd" stroke="#9a32cd" points="267.503,-643.448 260.494,-651.394 270.928,-649.553 267.503,-643.448"/>
<text text-anchor="middle" x="354.5" y="-622" font-family="Helvetica,sans-Serif" font-size="10.00"> iter_</text>
</g>
<!-- Node11 -->
<g id="node11" class="node"><title>Node11</title>
<polygon fill="white" stroke="#bfbfbf" points="225,-508.5 225,-527.5 261,-527.5 261,-508.5 225,-508.5"/>
<text text-anchor="middle" x="243" y="-515.5" font-family="Helvetica,sans-Serif" font-size="10.00">bool</text>
</g>
<!-- Node11&#45;&gt;Node6 -->
<g id="edge11" class="edge"><title>Node11&#45;&gt;Node6</title>
<path fill="none" stroke="#9a32cd" stroke-dasharray="5,2" d="M267.468,-532.836C283.132,-542.4 304.381,-554.735 324,-564 350.2,-576.373 360.202,-572.014 385,-587 394.161,-592.536 393.423,-598.22 403,-603 412.724,-607.853 423.49,-611.585 434.301,-614.454"/>
<polygon fill="#9a32cd" stroke="#9a32cd" points="269.291,-529.848 258.945,-527.569 265.611,-535.803 269.291,-529.848"/>
<text text-anchor="middle" x="354.5" y="-590" font-family="Helvetica,sans-Serif" font-size="10.00"> sorted</text>
</g>
<!-- Node11&#45;&gt;Node18 -->
<g id="edge26" class="edge"><title>Node11&#45;&gt;Node18</title>
<path fill="none" stroke="#9a32cd" stroke-dasharray="5,2" d="M271.174,-523.664C299.78,-529.878 345.987,-540.628 385,-553 393.182,-555.595 394.797,-557.473 403,-560 421.152,-565.592 441.44,-570.553 459.245,-574.493"/>
<polygon fill="#9a32cd" stroke="#9a32cd" points="271.636,-520.184 261.124,-521.511 270.169,-527.028 271.636,-520.184"/>
<text text-anchor="middle" x="354.5" y="-556" font-family="Helvetica,sans-Serif" font-size="10.00"> sorted</text>
</g>
<!-- Node11&#45;&gt;Node21 -->
<g id="edge31" class="edge"><title>Node11&#45;&gt;Node21</title>
<path fill="none" stroke="#9a32cd" stroke-dasharray="5,2" d="M270.098,-504.601C285.667,-496.696 305.871,-486.589 324,-478 381.575,-450.722 450.349,-420.541 484.89,-405.546"/>
<polygon fill="#9a32cd" stroke="#9a32cd" points="268.384,-501.546 261.063,-509.206 271.562,-507.783 268.384,-501.546"/>
<text text-anchor="middle" x="354.5" y="-481" font-family="Helvetica,sans-Serif" font-size="10.00"> good</text>
</g>
<!-- Node11&#45;&gt;Node23 -->
<g id="edge39" class="edge"><title>Node11&#45;&gt;Node23</title>
<path fill="none" stroke="#9a32cd" stroke-dasharray="5,2" d="M271.425,-516.809C299.888,-515.898 345.664,-515.341 385,-519 411.573,-521.472 441.027,-526.711 464.336,-531.456"/>
<polygon fill="#9a32cd" stroke="#9a32cd" points="271.282,-513.312 261.413,-517.168 271.532,-520.308 271.282,-513.312"/>
<text text-anchor="middle" x="354.5" y="-522" font-family="Helvetica,sans-Serif" font-size="10.00"> sorted</text>
</g>
<!-- Node11&#45;&gt;Node25 -->
<g id="edge45" class="edge"><title>Node11&#45;&gt;Node25</title>
<path fill="none" stroke="#9a32cd" stroke-dasharray="5,2" d="M270.974,-511.409C286.415,-507.853 306.2,-503.659 324,-501 356.015,-496.217 391.411,-492.712 422.474,-490.223"/>
<polygon fill="#9a32cd" stroke="#9a32cd" points="269.988,-508.045 261.056,-513.743 271.592,-514.859 269.988,-508.045"/>
<text text-anchor="middle" x="354.5" y="-504" font-family="Helvetica,sans-Serif" font-size="10.00"> sorted</text>
</g>
<!-- Node12&#45;&gt;Node2 -->
<g id="edge12" class="edge"><title>Node12&#45;&gt;Node2</title>
<path fill="none" stroke="#9a32cd" stroke-dasharray="5,2" d="M1113.26,-538.872C1141.67,-534.757 1174.56,-527.345 1202,-514 1223.32,-503.631 1243.08,-483.722 1253.75,-471.773"/>
<polygon fill="#9a32cd" stroke="#9a32cd" points="1112.47,-535.447 1103.02,-540.244 1113.4,-542.385 1112.47,-535.447"/>
<text text-anchor="middle" x="1161.5" y="-540" font-family="Helvetica,sans-Serif" font-size="10.00"> file_extent_table</text>
</g>
<!-- Node13&#45;&gt;Node12 -->
<g id="edge14" class="edge"><title>Node13&#45;&gt;Node12</title>
<path fill="none" stroke="#9a32cd" stroke-dasharray="5,2" d="M857.061,-544C899.607,-544 950.487,-544 988.571,-544"/>
<polygon fill="#9a32cd" stroke="#9a32cd" points="857,-540.5 847,-544 857,-547.5 857,-540.5"/>
<text text-anchor="middle" x="918" y="-547" font-family="Helvetica,sans-Serif" font-size="10.00"> elements</text>
</g>
<!-- Node14&#45;&gt;Node13 -->
<g id="edge15" class="edge"><title>Node14&#45;&gt;Node13</title>
<path fill="none" stroke="#9a32cd" stroke-dasharray="5,2" d="M559.774,-335.603C597.231,-337.069 647.624,-344.549 683,-371 684.771,-372.324 743.637,-486.794 765.192,-528.781"/>
<polygon fill="#9a32cd" stroke="#9a32cd" points="559.663,-332.099 549.576,-335.339 559.482,-339.097 559.663,-332.099"/>
<text text-anchor="middle" x="657" y="-374" font-family="Helvetica,sans-Serif" font-size="10.00"> extent_ptr</text>
</g>
<!-- Node15 -->
<g id="node15" class="node"><title>Node15</title>
<polygon fill="white" stroke="#bfbfbf" points="213.5,-371.5 213.5,-390.5 272.5,-390.5 272.5,-371.5 213.5,-371.5"/>
<text text-anchor="middle" x="243" y="-378.5" font-family="Helvetica,sans-Serif" font-size="10.00">UseType</text>
</g>
<!-- Node15&#45;&gt;Node14 -->
<g id="edge16" class="edge"><title>Node15&#45;&gt;Node14</title>
<path fill="none" stroke="#9a32cd" stroke-dasharray="5,2" d="M282.598,-375.66C310.971,-371.635 350.441,-365.829 385,-360 412.204,-355.412 442.704,-349.662 466.403,-345.059"/>
<polygon fill="#9a32cd" stroke="#9a32cd" points="282.09,-372.197 272.677,-377.059 283.067,-379.128 282.09,-372.197"/>
<text text-anchor="middle" x="354.5" y="-373" font-family="Helvetica,sans-Serif" font-size="10.00"> ut</text>
</g>
<!-- Node16 -->
<g id="node16" class="node"><title>Node16</title>
<polygon fill="white" stroke="#bfbfbf" points="228.5,-329.5 228.5,-348.5 257.5,-348.5 257.5,-329.5 228.5,-329.5"/>
<text text-anchor="middle" x="243" y="-336.5" font-family="Helvetica,sans-Serif" font-size="10.00">int</text>
</g>
<!-- Node16&#45;&gt;Node14 -->
<g id="edge17" class="edge"><title>Node16&#45;&gt;Node14</title>
<path fill="none" stroke="#9a32cd" stroke-dasharray="5,2" d="M267.628,-338.661C283.556,-338.443 305.041,-338.17 324,-338 372.926,-337.561 429.211,-337.288 466.297,-337.14"/>
<polygon fill="#9a32cd" stroke="#9a32cd" points="267.539,-335.162 257.589,-338.801 267.636,-342.161 267.539,-335.162"/>
<text text-anchor="middle" x="354.5" y="-352" font-family="Helvetica,sans-Serif" font-size="10.00"> nextkey</text>
<text text-anchor="middle" x="354.5" y="-341" font-family="Helvetica,sans-Serif" font-size="10.00">extkey</text>
</g>
<!-- Node17 -->
<g id="node17" class="node"><title>Node17</title>
<polygon fill="white" stroke="#bfbfbf" points="216.5,-291.5 216.5,-310.5 269.5,-310.5 269.5,-291.5 216.5,-291.5"/>
<text text-anchor="middle" x="243" y="-298.5" font-family="Helvetica,sans-Serif" font-size="10.00">Visibility</text>
</g>
<!-- Node17&#45;&gt;Node14 -->
<g id="edge18" class="edge"><title>Node17&#45;&gt;Node14</title>
<path fill="none" stroke="#9a32cd" stroke-dasharray="5,2" d="M279.754,-305.894C328.375,-312.549 415.127,-324.424 466.224,-331.419"/>
<polygon fill="#9a32cd" stroke="#9a32cd" points="280.079,-302.406 269.696,-304.517 279.129,-309.341 280.079,-302.406"/>
<text text-anchor="middle" x="354.5" y="-324" font-family="Helvetica,sans-Serif" font-size="10.00"> v</text>
</g>
<!-- Node18&#45;&gt;Node2 -->
<g id="edge21" class="edge"><title>Node18&#45;&gt;Node2</title>
<path fill="none" stroke="#9a32cd" stroke-dasharray="5,2" d="M581.814,-571.804C592.562,-568.7 603.279,-564.826 613,-560 622.328,-555.37 621.957,-550.164 631,-545 659.687,-528.617 668.762,-527.218 701,-520 919.324,-471.119 979.966,-498.492 1202,-471 1207.75,-470.288 1213.8,-469.467 1219.75,-468.616"/>
<polygon fill="#9a32cd" stroke="#9a32cd" points="580.715,-568.475 571.962,-574.445 582.527,-575.237 580.715,-568.475"/>
<text text-anchor="middle" x="918" y="-495" font-family="Helvetica,sans-Serif" font-size="10.00"> module_table</text>
</g>
<!-- Node19&#45;&gt;Node18 -->
<g id="edge22" class="edge"><title>Node19&#45;&gt;Node18</title>
<path fill="none" stroke="midnightblue" d="M316.042,-815.657C341.374,-811.724 367.788,-802.592 385,-783 437.481,-723.264 349.61,-663.924 403,-605 408.937,-598.448 416.303,-593.615 424.355,-590.086"/>
<polygon fill="midnightblue" stroke="midnightblue" points="315.499,-812.199 306.035,-816.961 316.404,-819.14 315.499,-812.199"/>
</g>
<!-- Node20&#45;&gt;Node2 -->
<g id="edge27" class="edge"><title>Node20&#45;&gt;Node2</title>
<path fill="none" stroke="#9a32cd" stroke-dasharray="5,2" d="M847.229,-370.81C935.053,-362.772 1085.92,-359.218 1202,-410 1223.97,-419.613 1243.8,-440.181 1254.24,-452.371"/>
<polygon fill="#9a32cd" stroke="#9a32cd" points="846.72,-367.343 837.1,-371.783 847.389,-374.311 846.72,-367.343"/>
<text text-anchor="middle" x="1046" y="-382" font-family="Helvetica,sans-Serif" font-size="10.00"> OptionTable</text>
</g>
<!-- Node21&#45;&gt;Node20 -->
<g id="edge29" class="edge"><title>Node21&#45;&gt;Node20</title>
<path fill="none" stroke="#9a32cd" stroke-dasharray="5,2" d="M554.823,-393.223C598.03,-390.604 663.116,-386.66 710.959,-383.76"/>
<polygon fill="#9a32cd" stroke="#9a32cd" points="554.374,-389.744 544.604,-393.842 554.798,-396.731 554.374,-389.744"/>
<text text-anchor="middle" x="657" y="-392" font-family="Helvetica,sans-Serif" font-size="10.00"> elements</text>
</g>
<!-- Node22 -->
<g id="node22" class="node"><title>Node22</title>
<polygon fill="white" stroke="#bfbfbf" points="224,-409.5 224,-428.5 262,-428.5 262,-409.5 224,-409.5"/>
<text text-anchor="middle" x="243" y="-416.5" font-family="Helvetica,sans-Serif" font-size="10.00">char</text>
</g>
<!-- Node22&#45;&gt;Node21 -->
<g id="edge30" class="edge"><title>Node22&#45;&gt;Node21</title>
<path fill="none" stroke="#9a32cd" stroke-dasharray="5,2" d="M272.1,-416.543C320.238,-412.333 418.392,-403.749 471.302,-399.122"/>
<polygon fill="#9a32cd" stroke="#9a32cd" points="271.734,-413.061 262.077,-417.419 272.344,-420.035 271.734,-413.061"/>
<text text-anchor="middle" x="354.5" y="-415" font-family="Helvetica,sans-Serif" font-size="10.00"> delimiter</text>
</g>
<!-- Node23&#45;&gt;Node2 -->
<g id="edge34" class="edge"><title>Node23&#45;&gt;Node2</title>
<path fill="none" stroke="#9a32cd" stroke-dasharray="5,2" d="M558.193,-528.438C576.244,-522.585 596.324,-514.539 613,-504 622.564,-497.956 620.731,-490.749 631,-486 735.849,-437.506 1095.71,-452.591 1219.65,-459.439"/>
<polygon fill="#9a32cd" stroke="#9a32cd" points="556.926,-525.167 548.408,-531.467 558.996,-531.854 556.926,-525.167"/>
<text text-anchor="middle" x="918" y="-457" font-family="Helvetica,sans-Serif" font-size="10.00"> userel_table</text>
</g>
<!-- Node24&#45;&gt;Node23 -->
<g id="edge35" class="edge"><title>Node24&#45;&gt;Node23</title>
<path fill="none" stroke="midnightblue" d="M316.18,-780.65C340.986,-781.157 367.01,-776.356 385,-759 416.159,-728.938 374.508,-597.6 403,-565 408.243,-559.001 414.66,-554.339 421.707,-550.736"/>
<polygon fill="midnightblue" stroke="midnightblue" points="316.178,-777.146 306.02,-780.157 315.839,-784.138 316.178,-777.146"/>
</g>
<!-- Node25&#45;&gt;Node2 -->
<g id="edge40" class="edge"><title>Node25&#45;&gt;Node2</title>
<path fill="none" stroke="#9a32cd" stroke-dasharray="5,2" d="M544.53,-472.026C568.605,-463.784 601.319,-453.639 631,-448 880.319,-400.635 951.29,-408.659 1202,-448 1209.5,-449.177 1217.46,-450.778 1225.04,-452.478"/>
<polygon fill="#9a32cd" stroke="#9a32cd" points="543.068,-468.829 534.776,-475.423 545.371,-475.44 543.068,-468.829"/>
<text text-anchor="middle" x="918" y="-421" font-family="Helvetica,sans-Serif" font-size="10.00"> member_table</text>
</g>
<!-- Node26&#45;&gt;Node25 -->
<g id="edge41" class="edge"><title>Node26&#45;&gt;Node25</title>
<path fill="none" stroke="midnightblue" d="M298.752,-735.157C327.883,-740.642 362.28,-740.749 385,-720 417.625,-690.207 375.918,-556.908 403,-522 413.396,-508.6 429.034,-500.043 445.046,-494.581"/>
<polygon fill="midnightblue" stroke="midnightblue" points="299.205,-731.676 288.695,-733.018 297.748,-738.522 299.205,-731.676"/>
</g>
<!-- Node27 -->
<g id="node27" class="node"><title>Node27</title>
<g id="a_node27"><a xlink:title="STL class. ">
<polygon fill="white" stroke="#bfbfbf" points="1224.5,-79.5 1224.5,-98.5 1301.5,-98.5 1301.5,-79.5 1224.5,-79.5"/>
<text text-anchor="middle" x="1263" y="-86.5" font-family="Helvetica,sans-Serif" font-size="10.00">std::ofstream</text>
</a>
</g>
</g>
<!-- Node27&#45;&gt;Node1 -->
<g id="edge47" class="edge"><title>Node27&#45;&gt;Node1</title>
<path fill="none" stroke="#9a32cd" stroke-dasharray="5,2" d="M1311.88,-89.5233C1337.27,-91.3709 1368.42,-96.2077 1394,-108 1421.45,-120.656 1446.26,-147.159 1458.31,-161.424"/>
<polygon fill="#9a32cd" stroke="#9a32cd" points="1311.93,-86.0202 1301.74,-88.9195 1311.51,-93.0079 1311.93,-86.0202"/>
<text text-anchor="middle" x="1359" y="-111" font-family="Helvetica,sans-Serif" font-size="10.00"> fstr</text>
</g>
<!-- Node28 -->
<g id="node28" class="node"><title>Node28</title>
<g id="a_node28"><a xlink:title="STL class. ">
<polygon fill="white" stroke="#bfbfbf" points="992.5,-56 992.5,-86 1099.5,-86 1099.5,-56 992.5,-56"/>
<text text-anchor="start" x="1000.5" y="-74" font-family="Helvetica,sans-Serif" font-size="10.00">std::basic_ofstream</text>
<text text-anchor="middle" x="1046" y="-63" font-family="Helvetica,sans-Serif" font-size="10.00">&lt; char &gt;</text>
</a>
</g>
</g>
<!-- Node28&#45;&gt;Node27 -->
<g id="edge48" class="edge"><title>Node28&#45;&gt;Node27</title>
<path fill="none" stroke="midnightblue" d="M1109.83,-76.2602C1147,-79.3723 1192.84,-83.2101 1224.44,-85.8554"/>
<polygon fill="midnightblue" stroke="midnightblue" points="1109.85,-72.7499 1099.59,-75.4033 1109.27,-79.7255 1109.85,-72.7499"/>
</g>
<!-- Node29 -->
<g id="node29" class="node"><title>Node29</title>
<g id="a_node29"><a xlink:title="STL class. ">
<polygon fill="white" stroke="#bfbfbf" points="722,-21 722,-51 826,-51 826,-21 722,-21"/>
<text text-anchor="start" x="730" y="-39" font-family="Helvetica,sans-Serif" font-size="10.00">std::basic_ostream</text>
<text text-anchor="middle" x="774" y="-28" font-family="Helvetica,sans-Serif" font-size="10.00">&lt; Char &gt;</text>
</a>
</g>
</g>
<!-- Node29&#45;&gt;Node28 -->
<g id="edge49" class="edge"><title>Node29&#45;&gt;Node28</title>
<path fill="none" stroke="midnightblue" d="M836.161,-43.9283C883.189,-50.0245 947.484,-58.3591 992.263,-64.1638"/>
<polygon fill="midnightblue" stroke="midnightblue" points="836.469,-40.439 826.102,-42.6244 835.569,-47.381 836.469,-40.439"/>
</g>
<!-- Node30 -->
<g id="node30" class="node"><title>Node30</title>
<g id="a_node30"><a xlink:title="STL class. ">
<polygon fill="white" stroke="#bfbfbf" points="448,-0.5 448,-19.5 568,-19.5 568,-0.5 448,-0.5"/>
<text text-anchor="middle" x="508" y="-7.5" font-family="Helvetica,sans-Serif" font-size="10.00">std::basic_ios&lt; Char &gt;</text>
</a>
</g>
</g>
<!-- Node30&#45;&gt;Node29 -->
<g id="edge50" class="edge"><title>Node30&#45;&gt;Node29</title>
<path fill="none" stroke="midnightblue" d="M578.239,-16.819C623.298,-21.2566 681.072,-26.9465 721.961,-30.9735"/>
<polygon fill="midnightblue" stroke="midnightblue" points="578.542,-13.332 568.247,-15.8349 577.856,-20.2983 578.542,-13.332"/>
</g>
<!-- Node31 -->
<g id="node31" class="node"><title>Node31</title>
<g id="a_node31"><a xlink:title="STL class. ">
<polygon fill="white" stroke="#bfbfbf" points="204.5,-0.5 204.5,-19.5 281.5,-19.5 281.5,-0.5 204.5,-0.5"/>
<text text-anchor="middle" x="243" y="-7.5" font-family="Helvetica,sans-Serif" font-size="10.00">std::ios_base</text>
</a>
</g>
</g>
<!-- Node31&#45;&gt;Node30 -->
<g id="edge51" class="edge"><title>Node31&#45;&gt;Node30</title>
<path fill="none" stroke="midnightblue" d="M291.775,-10C335.525,-10 400.443,-10 447.534,-10"/>
<polygon fill="midnightblue" stroke="midnightblue" points="291.682,-6.5001 281.681,-10 291.681,-13.5001 291.682,-6.5001"/>
</g>
</g>
</svg>
