<?xml version="1.0" encoding="UTF-8" standalone="no"?>
<!DOCTYPE svg PUBLIC "-//W3C//DTD SVG 1.1//EN"
 "http://www.w3.org/Graphics/SVG/1.1/DTD/svg11.dtd">
<!-- Generated by graphviz version 2.38.0 (20140413.2041)
 -->
<!-- Title: CCCC_Item::FromFile Pages: 1 -->
<!--zoomable 203 -->
<svg id="main" version="1.1" xmlns="http://www.w3.org/2000/svg" xmlns:xlink="http://www.w3.org/1999/xlink" xml:space="preserve" onload="init(evt)">
<style type="text/css"><![CDATA[
.edge:hover path { stroke: red; }
.edge:hover polygon { stroke: red; fill: red; }
]]></style>
<script type="text/javascript"><![CDATA[
var edges = document.getElementsByTagName('g');
if (edges && edges.length) {
  for (var i=0;i<edges.length;i++) {
    if (edges[i].id.substr(0,4)=='edge') {
      edges[i].setAttribute('class','edge');
    }
  }
}
]]></script>
        <defs>
                <circle id="rim" cx="0" cy="0" r="7"/>
                <circle id="rim2" cx="0" cy="0" r="3.5"/>
                <g id="zoomPlus">
                        <use xlink:href="#rim" fill="#404040">
                                <set attributeName="fill" to="#808080" begin="zoomplus.mouseover" end="zoomplus.mouseout"/>
                        </use>
                        <path d="M-4,0h8M0,-4v8" fill="none" stroke="white" stroke-width="1.5" pointer-events="none"/>
                </g>
                <g id="zoomMin">
                        <use xlink:href="#rim" fill="#404040">
                                <set attributeName="fill" to="#808080" begin="zoomminus.mouseover" end="zoomminus.mouseout"/>
                        </use>
                        <path d="M-4,0h8" fill="none" stroke="white" stroke-width="1.5" pointer-events="none"/>
                </g>
                <g id="dirArrow">
                        <path fill="none" stroke="white" stroke-width="1.5" d="M0,-3.0v7 M-2.5,-0.5L0,-3.0L2.5,-0.5"/>
                </g>
               <g id="resetDef">
                       <use xlink:href="#rim2" fill="#404040">
                               <set attributeName="fill" to="#808080" begin="reset.mouseover" end="reset.mouseout"/>
                       </use>
               </g>
        </defs>

<script type="text/javascript">
var viewWidth = 614;
var viewHeight = 203;
var sectionId = 'dynsection-5';
</script>
<script xlink:href="../../svgpan.js"/>
<svg id="graph" class="graph">
<g id="viewport">
<title>CCCC_Item::FromFile</title>
<polygon fill="white" stroke="none" points="-4,4 -4,-198.5 610,-198.5 610,4 -4,4"/>
<!-- Node1 -->
<g id="node1" class="node"><title>Node1</title>
<polygon fill="#bfbfbf" stroke="black" points="0,-99 0,-118 118,-118 118,-99 0,-99"/>
<text text-anchor="middle" x="59" y="-106" font-family="Helvetica,sans-Serif" font-size="10.00">CCCC_Item::FromFile</text>
</g>
<!-- Node2 -->
<g id="node2" class="node"><title>Node2</title>
<g id="a_node2"><a xlink:href="../../dc/d1e/classCCCC__Member.html#a5b4510004fda956c909278337ae19236" target="_top" xlink:title="CCCC_Member::FromFile">
<polygon fill="white" stroke="black" points="154,-175 154,-194 290,-194 290,-175 154,-175"/>
<text text-anchor="middle" x="222" y="-182" font-family="Helvetica,sans-Serif" font-size="10.00">CCCC_Member::FromFile</text>
</a>
</g>
</g>
<!-- Node1&#45;&gt;Node2 -->
<g id="edge1" class="edge"><title>Node1&#45;&gt;Node2</title>
<path fill="none" stroke="midnightblue" d="M84.2911,-123.362C102.95,-134.424 129.577,-149.457 154,-160.5 165.934,-165.896 179.472,-170.938 191.24,-174.994"/>
<polygon fill="midnightblue" stroke="midnightblue" points="85.9422,-120.271 75.5653,-118.133 82.3442,-126.276 85.9422,-120.271"/>
</g>
<!-- Node3 -->
<g id="node3" class="node"><title>Node3</title>
<g id="a_node3"><a xlink:href="../../d4/d6e/classCCCC__Project.html#a189af779423cacf2ee6cbb9f738392cc" target="_top" xlink:title="CCCC_Project::FromFile">
<polygon fill="white" stroke="black" points="326,-118 326,-137 457,-137 457,-118 326,-118"/>
<text text-anchor="middle" x="391.5" y="-125" font-family="Helvetica,sans-Serif" font-size="10.00">CCCC_Project::FromFile</text>
</a>
</g>
</g>
<!-- Node1&#45;&gt;Node3 -->
<g id="edge7" class="edge"><title>Node1&#45;&gt;Node3</title>
<path fill="none" stroke="midnightblue" d="M108.023,-120.125C122.689,-123.155 138.924,-125.992 154,-127.5 211.912,-133.294 278.201,-132.672 325.834,-130.962"/>
<polygon fill="midnightblue" stroke="midnightblue" points="108.665,-116.683 98.1541,-118.01 107.199,-123.528 108.665,-116.683"/>
</g>
<!-- Node5 -->
<g id="node5" class="node"><title>Node5</title>
<g id="a_node5"><a xlink:href="../../d6/d9f/classCCCC__Module.html#aa7d31814771b76de1477cc6c830000ec" target="_top" xlink:title="CCCC_Module::FromFile">
<polygon fill="white" stroke="black" points="156,-99 156,-118 288,-118 288,-99 156,-99"/>
<text text-anchor="middle" x="222" y="-106" font-family="Helvetica,sans-Serif" font-size="10.00">CCCC_Module::FromFile</text>
</a>
</g>
</g>
<!-- Node1&#45;&gt;Node5 -->
<g id="edge4" class="edge"><title>Node1&#45;&gt;Node5</title>
<path fill="none" stroke="midnightblue" d="M128.316,-108.5C137.446,-108.5 146.79,-108.5 155.863,-108.5"/>
<polygon fill="midnightblue" stroke="midnightblue" points="128.125,-105 118.125,-108.5 128.125,-112 128.125,-105"/>
</g>
<!-- Node6 -->
<g id="node6" class="node"><title>Node6</title>
<g id="a_node6"><a xlink:href="../../d4/d7f/classCCCC__Options.html#a917f10c7fa4711c83b5745be9bce8a7e" target="_top" xlink:title="CCCC_Options::Load\l_Options">
<polygon fill="white" stroke="black" points="163,-49.5 163,-79.5 281,-79.5 281,-49.5 163,-49.5"/>
<text text-anchor="start" x="171" y="-67.5" font-family="Helvetica,sans-Serif" font-size="10.00">CCCC_Options::Load</text>
<text text-anchor="middle" x="222" y="-56.5" font-family="Helvetica,sans-Serif" font-size="10.00">_Options</text>
</a>
</g>
</g>
<!-- Node1&#45;&gt;Node6 -->
<g id="edge6" class="edge"><title>Node1&#45;&gt;Node6</title>
<path fill="none" stroke="midnightblue" d="M104.788,-96.2598C123.717,-91.0866 145.951,-85.0103 165.874,-79.5654"/>
<polygon fill="midnightblue" stroke="midnightblue" points="103.658,-92.9401 94.9346,-98.9527 105.504,-99.6925 103.658,-92.9401"/>
</g>
<!-- Node7 -->
<g id="node7" class="node"><title>Node7</title>
<g id="a_node7"><a xlink:href="../../d2/d65/classCCCC__UseRelationship.html#aa1b47ba57ddfff5db36294ab4d4631d5" target="_top" xlink:title="CCCC_UseRelationship\l::FromFile">
<polygon fill="white" stroke="black" points="157,-0.5 157,-30.5 287,-30.5 287,-0.5 157,-0.5"/>
<text text-anchor="start" x="165" y="-18.5" font-family="Helvetica,sans-Serif" font-size="10.00">CCCC_UseRelationship</text>
<text text-anchor="middle" x="222" y="-7.5" font-family="Helvetica,sans-Serif" font-size="10.00">::FromFile</text>
</a>
</g>
</g>
<!-- Node1&#45;&gt;Node7 -->
<g id="edge8" class="edge"><title>Node1&#45;&gt;Node7</title>
<path fill="none" stroke="midnightblue" d="M79.3044,-92.1388C97.622,-77.2128 126.382,-55.2917 154,-40.5 160.786,-36.8658 168.214,-33.5256 175.577,-30.5501"/>
<polygon fill="midnightblue" stroke="midnightblue" points="76.6756,-89.7711 71.2016,-98.8423 81.1377,-95.1646 76.6756,-89.7711"/>
</g>
<!-- Node2&#45;&gt;Node3 -->
<g id="edge2" class="edge"><title>Node2&#45;&gt;Node3</title>
<path fill="none" stroke="midnightblue" d="M260.59,-171.708C291.439,-161.21 334.44,-146.577 362.373,-137.072"/>
<polygon fill="midnightblue" stroke="midnightblue" points="259.375,-168.424 251.036,-174.959 261.63,-175.051 259.375,-168.424"/>
</g>
<!-- Node4 -->
<g id="node4" class="node"><title>Node4</title>
<g id="a_node4"><a xlink:href="../../db/d4a/classMain.html#a13105815f91cc705481ca62c1e3ff562" target="_top" xlink:title="Main::LoadDatabase">
<polygon fill="white" stroke="black" points="493,-118 493,-137 606,-137 606,-118 493,-118"/>
<text text-anchor="middle" x="549.5" y="-125" font-family="Helvetica,sans-Serif" font-size="10.00">Main::LoadDatabase</text>
</a>
</g>
</g>
<!-- Node3&#45;&gt;Node4 -->
<g id="edge3" class="edge"><title>Node3&#45;&gt;Node4</title>
<path fill="none" stroke="midnightblue" d="M467.542,-127.5C475.977,-127.5 484.458,-127.5 492.59,-127.5"/>
<polygon fill="midnightblue" stroke="midnightblue" points="467.303,-124 457.303,-127.5 467.303,-131 467.303,-124"/>
</g>
<!-- Node5&#45;&gt;Node3 -->
<g id="edge5" class="edge"><title>Node5&#45;&gt;Node3</title>
<path fill="none" stroke="midnightblue" d="M298.22,-117.032C307.489,-118.084 316.899,-119.151 325.989,-120.182"/>
<polygon fill="midnightblue" stroke="midnightblue" points="298.57,-113.55 288.239,-115.9 297.781,-120.505 298.57,-113.55"/>
</g>
<!-- Node7&#45;&gt;Node3 -->
<g id="edge9" class="edge"><title>Node7&#45;&gt;Node3</title>
<path fill="none" stroke="midnightblue" d="M279.37,-34.818C283.037,-36.5963 286.613,-38.4911 290,-40.5 327.911,-62.9851 365.196,-100.347 381.685,-117.871"/>
<polygon fill="midnightblue" stroke="midnightblue" points="280.68,-31.5693 270.126,-30.6395 277.797,-37.9478 280.68,-31.5693"/>
</g>
</g>
</svg>
        <g id="navigator" transform="translate(0 0)" fill="#404254">
                <rect fill="#f2f5e9" fill-opacity="0.5" stroke="#606060" stroke-width=".5" x="0" y="0" width="60" height="60"/>
                <use id="zoomplus" xlink:href="#zoomPlus" x="17" y="9" onmousedown="handleZoom(evt,'in')"/>
                <use id="zoomminus" xlink:href="#zoomMin" x="42" y="9" onmousedown="handleZoom(evt,'out')"/>
                <use id="reset" xlink:href="#resetDef" x="30" y="36" onmousedown="handleReset()"/>
                <g id="arrowUp" xlink:href="#dirArrow" transform="translate(30 24)" onmousedown="handlePan(0,-1)">
                  <use xlink:href="#rim" fill="#404040">
                        <set attributeName="fill" to="#808080" begin="arrowUp.mouseover" end="arrowUp.mouseout"/>
                  </use>
                  <path fill="none" stroke="white" stroke-width="1.5" d="M0,-3.0v7 M-2.5,-0.5L0,-3.0L2.5,-0.5"/>
                </g>
                <g id="arrowRight" xlink:href="#dirArrow" transform="rotate(90) translate(36 -43)" onmousedown="handlePan(1,0)">
                  <use xlink:href="#rim" fill="#404040">
                        <set attributeName="fill" to="#808080" begin="arrowRight.mouseover" end="arrowRight.mouseout"/>
                  </use>
                  <path fill="none" stroke="white" stroke-width="1.5" d="M0,-3.0v7 M-2.5,-0.5L0,-3.0L2.5,-0.5"/>
                </g>
                <g id="arrowDown" xlink:href="#dirArrow" transform="rotate(180) translate(-30 -48)" onmousedown="handlePan(0,1)">
                  <use xlink:href="#rim" fill="#404040">
                        <set attributeName="fill" to="#808080" begin="arrowDown.mouseover" end="arrowDown.mouseout"/>
                  </use>
                  <path fill="none" stroke="white" stroke-width="1.5" d="M0,-3.0v7 M-2.5,-0.5L0,-3.0L2.5,-0.5"/>
                </g>
                <g id="arrowLeft" xlink:href="#dirArrow" transform="rotate(270) translate(-36 17)" onmousedown="handlePan(-1,0)">
                  <use xlink:href="#rim" fill="#404040">
                        <set attributeName="fill" to="#808080" begin="arrowLeft.mouseover" end="arrowLeft.mouseout"/>
                  </use>
                  <path fill="none" stroke="white" stroke-width="1.5" d="M0,-3.0v7 M-2.5,-0.5L0,-3.0L2.5,-0.5"/>
                </g>
        </g>
        <svg viewBox="0 0 15 15" width="100%" height="30px" preserveAspectRatio="xMaxYMin meet">
         <g id="arrow_out" transform="scale(0.3 0.3)">
          <a xlink:href="classCCCC__Item_a032272ebee4fc350bcac563774493725_icgraph_org.svg" target="_base">
           <rect id="button" ry="5" rx="5" y="6" x="6" height="38" width="38"
                fill="#f2f5e9" fill-opacity="0.5" stroke="#606060" stroke-width="1.0"/>
           <path id="arrow"
             d="M 11.500037,31.436501 C 11.940474,20.09759 22.043105,11.32322 32.158766,21.979434 L 37.068811,17.246167 C 37.068811,17.246167 37.088388,32 37.088388,32 L 22.160133,31.978069 C 22.160133,31.978069 26.997745,27.140456 26.997745,27.140456 C 18.528582,18.264221 13.291696,25.230495 11.500037,31.436501 z"
             style="fill:#404040;"/>
          </a>
         </g>
        </svg>
</svg>
