<?xml version="1.0" encoding="UTF-8" standalone="no"?>
<!DOCTYPE svg PUBLIC "-//W3C//DTD SVG 1.1//EN"
 "http://www.w3.org/Graphics/SVG/1.1/DTD/svg11.dtd">
<!-- Generated by graphviz version 2.38.0 (20140413.2041)
 -->
<!-- Title: CCCC_Item::Extract Pages: 1 -->
<svg width="830pt" height="518pt"
 viewBox="0.00 0.00 830.00 517.50" xmlns="http://www.w3.org/2000/svg" xmlns:xlink="http://www.w3.org/1999/xlink">
<g id="graph0" class="graph" transform="scale(1 1) rotate(0) translate(4 513.5)">
<title>CCCC_Item::Extract</title>
<polygon fill="white" stroke="none" points="-4,4 -4,-513.5 826,-513.5 826,4 -4,4"/>
<!-- Node1 -->
<g id="node1" class="node"><title>Node1</title>
<polygon fill="#bfbfbf" stroke="black" points="0,-252 0,-271 110,-271 110,-252 0,-252"/>
<text text-anchor="middle" x="55" y="-259" font-family="Helvetica,sans-Serif" font-size="10.00">CCCC_Item::Extract</text>
</g>
<!-- Node2 -->
<g id="node2" class="node"><title>Node2</title>
<g id="a_node2"><a xlink:href="../../df/d99/classCCCC__Extent.html#a235e8ce3db03f890988b1f978dbfed0d" target="_top" xlink:title="CCCC_Extent::CCCC_Extent">
<polygon fill="white" stroke="black" points="146,-487 146,-506 299,-506 299,-487 146,-487"/>
<text text-anchor="middle" x="222.5" y="-494" font-family="Helvetica,sans-Serif" font-size="10.00">CCCC_Extent::CCCC_Extent</text>
</a>
</g>
</g>
<!-- Node1&#45;&gt;Node2 -->
<g id="edge1" class="edge"><title>Node1&#45;&gt;Node2</title>
<path fill="none" stroke="midnightblue" d="M58.7948,-281.006C65.7514,-322.385 87.6883,-419.502 146,-472.5 152.921,-478.791 161.492,-483.433 170.349,-486.858"/>
<polygon fill="midnightblue" stroke="midnightblue" points="62.2496,-280.444 57.2427,-271.107 55.3341,-281.528 62.2496,-280.444"/>
</g>
<!-- Node3 -->
<g id="node3" class="node"><title>Node3</title>
<g id="a_node3"><a xlink:href="../../df/d99/classCCCC__Extent.html#abaf126bf784cc83e12eb98434674c4df" target="_top" xlink:title="CCCC_Extent::GetFromItem">
<polygon fill="white" stroke="black" points="148,-373 148,-392 297,-392 297,-373 148,-373"/>
<text text-anchor="middle" x="222.5" y="-380" font-family="Helvetica,sans-Serif" font-size="10.00">CCCC_Extent::GetFromItem</text>
</a>
</g>
</g>
<!-- Node1&#45;&gt;Node3 -->
<g id="edge2" class="edge"><title>Node1&#45;&gt;Node3</title>
<path fill="none" stroke="midnightblue" d="M69.1046,-279.232C85.1703,-299.862 114.208,-333.74 146,-354.5 158.057,-362.373 172.633,-368.443 185.751,-372.887"/>
<polygon fill="midnightblue" stroke="midnightblue" points="71.7008,-276.864 62.8576,-271.029 66.1318,-281.105 71.7008,-276.864"/>
</g>
<!-- Node4 -->
<g id="node4" class="node"><title>Node4</title>
<g id="a_node4"><a xlink:href="../../dc/d1e/classCCCC__Member.html#a5b4510004fda956c909278337ae19236" target="_top" xlink:title="CCCC_Member::FromFile">
<polygon fill="white" stroke="black" points="342,-490 342,-509 478,-509 478,-490 342,-490"/>
<text text-anchor="middle" x="410" y="-497" font-family="Helvetica,sans-Serif" font-size="10.00">CCCC_Member::FromFile</text>
</a>
</g>
</g>
<!-- Node1&#45;&gt;Node4 -->
<g id="edge18" class="edge"><title>Node1&#45;&gt;Node4</title>
<path fill="none" stroke="midnightblue" d="M60.5139,-280.797C69.9282,-316.627 95.139,-393.429 146,-433.5 163.01,-446.901 291.434,-475.134 362.327,-489.955"/>
<polygon fill="midnightblue" stroke="midnightblue" points="63.9057,-279.933 58.0884,-271.078 57.1141,-281.628 63.9057,-279.933"/>
</g>
<!-- Node7 -->
<g id="node7" class="node"><title>Node7</title>
<g id="a_node7"><a xlink:href="../../d6/d9f/classCCCC__Module.html#aa7d31814771b76de1477cc6c830000ec" target="_top" xlink:title="CCCC_Module::FromFile">
<polygon fill="white" stroke="black" points="344,-452 344,-471 476,-471 476,-452 344,-452"/>
<text text-anchor="middle" x="410" y="-459" font-family="Helvetica,sans-Serif" font-size="10.00">CCCC_Module::FromFile</text>
</a>
</g>
</g>
<!-- Node1&#45;&gt;Node7 -->
<g id="edge20" class="edge"><title>Node1&#45;&gt;Node7</title>
<path fill="none" stroke="midnightblue" d="M62.7987,-280.664C74.6778,-311.248 102.204,-370.767 146,-401.5 163.251,-413.605 286.266,-438.351 357.786,-451.976"/>
<polygon fill="midnightblue" stroke="midnightblue" points="66.0231,-279.294 59.2484,-271.148 59.4646,-281.74 66.0231,-279.294"/>
</g>
<!-- Node8 -->
<g id="node8" class="node"><title>Node8</title>
<g id="a_node8"><a xlink:href="../../d4/d6e/classCCCC__Project.html#a7a8c419dc807c57a9618da29d08d59ae" target="_top" xlink:title="CCCC_Project::add_module">
<polygon fill="white" stroke="black" points="336,-250 336,-269 484,-269 484,-250 336,-250"/>
<text text-anchor="middle" x="410" y="-257" font-family="Helvetica,sans-Serif" font-size="10.00">CCCC_Project::add_module</text>
</a>
</g>
</g>
<!-- Node1&#45;&gt;Node8 -->
<g id="edge27" class="edge"><title>Node1&#45;&gt;Node8</title>
<path fill="none" stroke="midnightblue" d="M120.623,-261.134C181.436,-260.789 272.395,-260.274 335.846,-259.914"/>
<polygon fill="midnightblue" stroke="midnightblue" points="120.363,-257.635 110.383,-261.192 120.402,-264.635 120.363,-257.635"/>
</g>
<!-- Node12 -->
<g id="node12" class="node"><title>Node12</title>
<g id="a_node12"><a xlink:href="../../d4/d6e/classCCCC__Project.html#ad3ab04f1b49b6ca6a9f8574a73ab4fdb" target="_top" xlink:title="CCCC_Project::add_member">
<polygon fill="white" stroke="black" points="521,-346 521,-365 673,-365 673,-346 521,-346"/>
<text text-anchor="middle" x="597" y="-353" font-family="Helvetica,sans-Serif" font-size="10.00">CCCC_Project::add_member</text>
</a>
</g>
</g>
<!-- Node1&#45;&gt;Node12 -->
<g id="edge28" class="edge"><title>Node1&#45;&gt;Node12</title>
<path fill="none" stroke="midnightblue" d="M120.293,-270.925C128.931,-272.151 137.679,-273.371 146,-274.5 296.496,-294.912 337.057,-283.172 485,-317.5 515.953,-324.682 550.401,-337.222 572.59,-345.923"/>
<polygon fill="midnightblue" stroke="midnightblue" points="120.628,-267.437 110.234,-269.488 119.639,-274.367 120.628,-267.437"/>
</g>
<!-- Node14 -->
<g id="node14" class="node"><title>Node14</title>
<g id="a_node14"><a xlink:href="../../d2/d65/classCCCC__UseRelationship.html#aa1b47ba57ddfff5db36294ab4d4631d5" target="_top" xlink:title="CCCC_UseRelationship\l::FromFile">
<polygon fill="white" stroke="black" points="345,-326.5 345,-356.5 475,-356.5 475,-326.5 345,-326.5"/>
<text text-anchor="start" x="353" y="-344.5" font-family="Helvetica,sans-Serif" font-size="10.00">CCCC_UseRelationship</text>
<text text-anchor="middle" x="410" y="-333.5" font-family="Helvetica,sans-Serif" font-size="10.00">::FromFile</text>
</a>
</g>
</g>
<!-- Node1&#45;&gt;Node14 -->
<g id="edge30" class="edge"><title>Node1&#45;&gt;Node14</title>
<path fill="none" stroke="midnightblue" d="M76.9196,-276.996C94.4331,-289.101 120.577,-305.216 146,-313.5 211.488,-334.839 290.526,-340.784 344.752,-342.049"/>
<polygon fill="midnightblue" stroke="midnightblue" points="78.7789,-274.024 68.5973,-271.094 74.7294,-279.733 78.7789,-274.024"/>
</g>
<!-- Node15 -->
<g id="node15" class="node"><title>Node15</title>
<g id="a_node15"><a xlink:href="../../db/d6a/classCCCC__Item.html#a30519374646f3dd2ae00dd387947770c" target="_top" xlink:title="CCCC_Item::Extract">
<polygon fill="white" stroke="black" points="167.5,-214 167.5,-233 277.5,-233 277.5,-214 167.5,-214"/>
<text text-anchor="middle" x="222.5" y="-221" font-family="Helvetica,sans-Serif" font-size="10.00">CCCC_Item::Extract</text>
</a>
</g>
</g>
<!-- Node1&#45;&gt;Node15 -->
<g id="edge17" class="edge"><title>Node1&#45;&gt;Node15</title>
<path fill="none" stroke="midnightblue" d="M107.811,-249.604C131.073,-244.263 158.147,-238.046 180.038,-233.02"/>
<polygon fill="midnightblue" stroke="midnightblue" points="106.726,-246.262 97.7626,-251.911 108.292,-253.084 106.726,-246.262"/>
</g>
<!-- Node16 -->
<g id="node16" class="node"><title>Node16</title>
<g id="a_node16"><a xlink:href="../../da/d98/classMetric__Treatment.html#a7d2bc670278d83b7950c3ee6e3d31c0f" target="_top" xlink:title="Metric_Treatment::Metric\l_Treatment">
<polygon fill="white" stroke="black" points="155.5,-164.5 155.5,-194.5 289.5,-194.5 289.5,-164.5 155.5,-164.5"/>
<text text-anchor="start" x="163.5" y="-182.5" font-family="Helvetica,sans-Serif" font-size="10.00">Metric_Treatment::Metric</text>
<text text-anchor="middle" x="222.5" y="-171.5" font-family="Helvetica,sans-Serif" font-size="10.00">_Treatment</text>
</a>
</g>
</g>
<!-- Node1&#45;&gt;Node16 -->
<g id="edge19" class="edge"><title>Node1&#45;&gt;Node16</title>
<path fill="none" stroke="midnightblue" d="M77.2676,-245.923C94.984,-233.474 121.231,-216.226 146,-204.5 153.737,-200.837 162.155,-197.482 170.471,-194.5"/>
<polygon fill="midnightblue" stroke="midnightblue" points="74.941,-243.283 68.8337,-251.94 79.0068,-248.981 74.941,-243.283"/>
</g>
<!-- Node17 -->
<g id="node17" class="node"><title>Node17</title>
<g id="a_node17"><a xlink:href="../../d5/d39/cccc__opt_8cc.html#adaf4ab659cf8a851521a34e7b0b44bf5" target="_top" xlink:title="add_file_extension">
<polygon fill="white" stroke="black" points="169.5,-88 169.5,-107 275.5,-107 275.5,-88 169.5,-88"/>
<text text-anchor="middle" x="222.5" y="-95" font-family="Helvetica,sans-Serif" font-size="10.00">add_file_extension</text>
</a>
</g>
</g>
<!-- Node1&#45;&gt;Node17 -->
<g id="edge21" class="edge"><title>Node1&#45;&gt;Node17</title>
<path fill="none" stroke="midnightblue" d="M63.2815,-242.313C75.6806,-212.182 103.729,-153.876 146,-121.5 154.189,-115.228 164.06,-110.57 173.925,-107.121"/>
<polygon fill="midnightblue" stroke="midnightblue" points="59.9889,-241.121 59.5507,-251.706 66.4947,-243.704 59.9889,-241.121"/>
</g>
<!-- Node18 -->
<g id="node18" class="node"><title>Node18</title>
<g id="a_node18"><a xlink:href="../../d4/d7f/classCCCC__Options.html#ace084425ddde7d4c19657d7e13677ffc" target="_top" xlink:title="CCCC_Options::Add_Option">
<polygon fill="white" stroke="black" points="335,-88 335,-107 485,-107 485,-88 335,-88"/>
<text text-anchor="middle" x="410" y="-95" font-family="Helvetica,sans-Serif" font-size="10.00">CCCC_Options::Add_Option</text>
</a>
</g>
</g>
<!-- Node1&#45;&gt;Node18 -->
<g id="edge26" class="edge"><title>Node1&#45;&gt;Node18</title>
<path fill="none" stroke="midnightblue" d="M66.4829,-242.884C81.0715,-218.778 109.827,-177.279 146,-155.5 163.975,-144.677 286.045,-120.516 357.395,-107.043"/>
<polygon fill="midnightblue" stroke="midnightblue" points="63.3169,-241.364 61.2774,-251.761 69.3552,-244.905 63.3169,-241.364"/>
</g>
<!-- Node20 -->
<g id="node20" class="node"><title>Node20</title>
<g id="a_node20"><a xlink:href="../../d5/d39/cccc__opt_8cc.html#a1e1d75f7f5aad4c636db40a37b60c382" target="_top" xlink:title="add_dialect_keyword">
<polygon fill="white" stroke="black" points="164,-50 164,-69 281,-69 281,-50 164,-50"/>
<text text-anchor="middle" x="222.5" y="-57" font-family="Helvetica,sans-Serif" font-size="10.00">add_dialect_keyword</text>
</a>
</g>
</g>
<!-- Node1&#45;&gt;Node20 -->
<g id="edge24" class="edge"><title>Node1&#45;&gt;Node20</title>
<path fill="none" stroke="midnightblue" d="M60.0123,-241.532C68.6898,-203.69 92.864,-121.481 146,-78.5 151.254,-74.2498 157.336,-70.9351 163.722,-68.3525"/>
<polygon fill="midnightblue" stroke="midnightblue" points="56.4935,-241.246 57.8019,-251.759 63.3355,-242.725 56.4935,-241.246"/>
</g>
<!-- Node21 -->
<g id="node21" class="node"><title>Node21</title>
<g id="a_node21"><a xlink:href="../../d2/d65/classCCCC__UseRelationship.html#a9b33cbd118325f922dcb2a882406efff" target="_top" xlink:title="CCCC_UseRelationship\l::CCCC_UseRelationship">
<polygon fill="white" stroke="black" points="155.5,-0.5 155.5,-30.5 289.5,-30.5 289.5,-0.5 155.5,-0.5"/>
<text text-anchor="start" x="163.5" y="-18.5" font-family="Helvetica,sans-Serif" font-size="10.00">CCCC_UseRelationship</text>
<text text-anchor="middle" x="222.5" y="-7.5" font-family="Helvetica,sans-Serif" font-size="10.00">::CCCC_UseRelationship</text>
</a>
</g>
</g>
<!-- Node1&#45;&gt;Node21 -->
<g id="edge29" class="edge"><title>Node1&#45;&gt;Node21</title>
<path fill="none" stroke="midnightblue" d="M58.4241,-242.013C64.7605,-199.323 85.7262,-96.8667 146,-40.5 150.135,-36.6333 154.882,-33.3638 159.939,-30.5996"/>
<polygon fill="midnightblue" stroke="midnightblue" points="54.9526,-241.567 57.0583,-251.951 61.8874,-242.52 54.9526,-241.567"/>
</g>
<!-- Node3&#45;&gt;Node4 -->
<g id="edge3" class="edge"><title>Node3&#45;&gt;Node4</title>
<path fill="none" stroke="midnightblue" d="M243.728,-398.226C259.194,-410.46 280.87,-428.063 299,-444.5 315.763,-459.698 315.345,-469.289 335,-480.5 341.798,-484.377 349.393,-487.477 357.056,-489.951"/>
<polygon fill="midnightblue" stroke="midnightblue" points="245.862,-395.451 235.837,-392.024 241.536,-400.955 245.862,-395.451"/>
</g>
<!-- Node5 -->
<g id="node5" class="node"><title>Node5</title>
<g id="a_node5"><a xlink:href="../../d4/d6e/classCCCC__Project.html#a189af779423cacf2ee6cbb9f738392cc" target="_top" xlink:title="CCCC_Project::FromFile">
<polygon fill="white" stroke="black" points="531.5,-417 531.5,-436 662.5,-436 662.5,-417 531.5,-417"/>
<text text-anchor="middle" x="597" y="-424" font-family="Helvetica,sans-Serif" font-size="10.00">CCCC_Project::FromFile</text>
</a>
</g>
</g>
<!-- Node3&#45;&gt;Node5 -->
<g id="edge11" class="edge"><title>Node3&#45;&gt;Node5</title>
<path fill="none" stroke="midnightblue" d="M275.967,-394.095C294.539,-397.868 315.629,-401.781 335,-404.5 401.647,-413.855 478.467,-419.746 531.422,-423.052"/>
<polygon fill="midnightblue" stroke="midnightblue" points="276.436,-390.618 265.935,-392.021 275.019,-397.473 276.436,-390.618"/>
</g>
<!-- Node3&#45;&gt;Node7 -->
<g id="edge6" class="edge"><title>Node3&#45;&gt;Node7</title>
<path fill="none" stroke="midnightblue" d="M273.679,-395.309C282.381,-398.404 291.148,-402.115 299,-406.5 317.434,-416.796 316.596,-427.151 335,-437.5 345.713,-443.524 358.16,-448.298 369.755,-451.95"/>
<polygon fill="midnightblue" stroke="midnightblue" points="274.528,-391.903 263.934,-392.073 272.322,-398.546 274.528,-391.903"/>
</g>
<!-- Node3&#45;&gt;Node8 -->
<g id="edge8" class="edge"><title>Node3&#45;&gt;Node8</title>
<path fill="none" stroke="midnightblue" d="M246.601,-367.182C285.382,-341.468 362.472,-290.351 394.512,-269.107"/>
<polygon fill="midnightblue" stroke="midnightblue" points="244.456,-364.405 238.056,-372.848 248.324,-370.239 244.456,-364.405"/>
</g>
<!-- Node11 -->
<g id="node11" class="node"><title>Node11</title>
<g id="a_node11"><a xlink:href="../../d6/d85/classCCCC__Record.html#ad74adbd61670b67ceb4c5688aedad440" target="_top" xlink:title="CCCC_Record::add_extent">
<polygon fill="white" stroke="black" points="337.5,-376 337.5,-395 482.5,-395 482.5,-376 337.5,-376"/>
<text text-anchor="middle" x="410" y="-383" font-family="Helvetica,sans-Serif" font-size="10.00">CCCC_Record::add_extent</text>
</a>
</g>
</g>
<!-- Node3&#45;&gt;Node11 -->
<g id="edge12" class="edge"><title>Node3&#45;&gt;Node11</title>
<path fill="none" stroke="midnightblue" d="M307.104,-383.852C317.193,-384.015 327.428,-384.181 337.325,-384.341"/>
<polygon fill="midnightblue" stroke="midnightblue" points="307.136,-380.352 297.081,-383.69 307.023,-387.351 307.136,-380.352"/>
</g>
<!-- Node3&#45;&gt;Node14 -->
<g id="edge15" class="edge"><title>Node3&#45;&gt;Node14</title>
<path fill="none" stroke="midnightblue" d="M276.357,-370.817C297.653,-366.11 322.416,-360.637 344.739,-355.703"/>
<polygon fill="midnightblue" stroke="midnightblue" points="275.533,-367.415 266.524,-372.991 277.043,-374.25 275.533,-367.415"/>
</g>
<!-- Node4&#45;&gt;Node5 -->
<g id="edge4" class="edge"><title>Node4&#45;&gt;Node5</title>
<path fill="none" stroke="midnightblue" d="M463.829,-487.328C471.014,-485.269 478.238,-482.984 485,-480.5 519.599,-467.79 557.813,-447.782 579.166,-436.021"/>
<polygon fill="midnightblue" stroke="midnightblue" points="462.822,-483.975 454.102,-489.993 464.672,-490.726 462.822,-483.975"/>
</g>
<!-- Node6 -->
<g id="node6" class="node"><title>Node6</title>
<g id="a_node6"><a xlink:href="../../db/d4a/classMain.html#a13105815f91cc705481ca62c1e3ff562" target="_top" xlink:title="Main::LoadDatabase">
<polygon fill="white" stroke="black" points="709,-417 709,-436 822,-436 822,-417 709,-417"/>
<text text-anchor="middle" x="765.5" y="-424" font-family="Helvetica,sans-Serif" font-size="10.00">Main::LoadDatabase</text>
</a>
</g>
</g>
<!-- Node5&#45;&gt;Node6 -->
<g id="edge5" class="edge"><title>Node5&#45;&gt;Node6</title>
<path fill="none" stroke="midnightblue" d="M672.898,-426.5C684.952,-426.5 697.242,-426.5 708.743,-426.5"/>
<polygon fill="midnightblue" stroke="midnightblue" points="672.85,-423 662.85,-426.5 672.85,-430 672.85,-423"/>
</g>
<!-- Node7&#45;&gt;Node5 -->
<g id="edge7" class="edge"><title>Node7&#45;&gt;Node5</title>
<path fill="none" stroke="midnightblue" d="M471.584,-450.038C495.507,-445.512 522.676,-440.372 545.509,-436.052"/>
<polygon fill="midnightblue" stroke="midnightblue" points="470.727,-446.638 461.552,-451.936 472.028,-453.516 470.727,-446.638"/>
</g>
<!-- Node9 -->
<g id="node9" class="node"><title>Node9</title>
<g id="a_node9"><a xlink:href="../../d4/d6e/classCCCC__Project.html#a5deb4638448a99501db6918777ef4c22" target="_top" xlink:title="CCCC_Project::CCCC\l_Project">
<polygon fill="white" stroke="black" points="537,-269.5 537,-299.5 657,-299.5 657,-269.5 537,-269.5"/>
<text text-anchor="start" x="545" y="-287.5" font-family="Helvetica,sans-Serif" font-size="10.00">CCCC_Project::CCCC</text>
<text text-anchor="middle" x="597" y="-276.5" font-family="Helvetica,sans-Serif" font-size="10.00">_Project</text>
</a>
</g>
</g>
<!-- Node8&#45;&gt;Node9 -->
<g id="edge9" class="edge"><title>Node8&#45;&gt;Node9</title>
<path fill="none" stroke="midnightblue" d="M491.421,-270.368C506.692,-272.431 522.41,-274.555 536.872,-276.51"/>
<polygon fill="midnightblue" stroke="midnightblue" points="491.847,-266.894 481.468,-269.023 490.909,-273.83 491.847,-266.894"/>
</g>
<!-- Node10 -->
<g id="node10" class="node"><title>Node10</title>
<g id="a_node10"><a xlink:href="../../d3/d5e/classParseStore.html#a0f47461357cdae6de50996da596e552c" target="_top" xlink:title="ParseStore::record\l_module_extent">
<polygon fill="white" stroke="black" points="544.5,-220.5 544.5,-250.5 649.5,-250.5 649.5,-220.5 544.5,-220.5"/>
<text text-anchor="start" x="552.5" y="-238.5" font-family="Helvetica,sans-Serif" font-size="10.00">ParseStore::record</text>
<text text-anchor="middle" x="597" y="-227.5" font-family="Helvetica,sans-Serif" font-size="10.00">_module_extent</text>
</a>
</g>
</g>
<!-- Node8&#45;&gt;Node10 -->
<g id="edge10" class="edge"><title>Node8&#45;&gt;Node10</title>
<path fill="none" stroke="midnightblue" d="M494.145,-248.714C511.293,-246.489 528.873,-244.208 544.498,-242.181"/>
<polygon fill="midnightblue" stroke="midnightblue" points="493.583,-245.257 484.117,-250.015 494.484,-252.199 493.583,-245.257"/>
</g>
<!-- Node11&#45;&gt;Node12 -->
<g id="edge13" class="edge"><title>Node11&#45;&gt;Node12</title>
<path fill="none" stroke="midnightblue" d="M479.831,-374.338C498.747,-371.271 519.079,-367.974 537.364,-365.009"/>
<polygon fill="midnightblue" stroke="midnightblue" points="479.1,-370.911 469.789,-375.967 480.221,-377.821 479.1,-370.911"/>
</g>
<!-- Node13 -->
<g id="node13" class="node"><title>Node13</title>
<g id="a_node13"><a xlink:href="../../d3/d5e/classParseStore.html#a0a3da49bff25f2a157ba65d687b8d4fe" target="_top" xlink:title="ParseStore::record\l_function_extent">
<polygon fill="white" stroke="black" points="713,-340.5 713,-370.5 818,-370.5 818,-340.5 713,-340.5"/>
<text text-anchor="start" x="721" y="-358.5" font-family="Helvetica,sans-Serif" font-size="10.00">ParseStore::record</text>
<text text-anchor="middle" x="765.5" y="-347.5" font-family="Helvetica,sans-Serif" font-size="10.00">_function_extent</text>
</a>
</g>
</g>
<!-- Node12&#45;&gt;Node13 -->
<g id="edge14" class="edge"><title>Node12&#45;&gt;Node13</title>
<path fill="none" stroke="midnightblue" d="M683.734,-355.5C693.603,-355.5 703.425,-355.5 712.646,-355.5"/>
<polygon fill="midnightblue" stroke="midnightblue" points="683.456,-352 673.455,-355.5 683.455,-359 683.456,-352"/>
</g>
<!-- Node14&#45;&gt;Node5 -->
<g id="edge16" class="edge"><title>Node14&#45;&gt;Node5</title>
<path fill="none" stroke="midnightblue" d="M469.276,-360.141C474.638,-362.17 479.949,-364.301 485,-366.5 520.148,-381.805 559.112,-404.223 580.251,-416.877"/>
<polygon fill="midnightblue" stroke="midnightblue" points="470.209,-356.755 459.615,-356.607 467.804,-363.329 470.209,-356.755"/>
</g>
<!-- Node17&#45;&gt;Node18 -->
<g id="edge22" class="edge"><title>Node17&#45;&gt;Node18</title>
<path fill="none" stroke="midnightblue" d="M285.777,-97.5C301.484,-97.5 318.503,-97.5 334.735,-97.5"/>
<polygon fill="midnightblue" stroke="midnightblue" points="285.666,-94.0001 275.666,-97.5 285.666,-101 285.666,-94.0001"/>
</g>
<!-- Node19 -->
<g id="node19" class="node"><title>Node19</title>
<g id="a_node19"><a xlink:href="../../d4/d7f/classCCCC__Options.html#a917f10c7fa4711c83b5745be9bce8a7e" target="_top" xlink:title="CCCC_Options::Load\l_Options">
<polygon fill="white" stroke="black" points="538,-82.5 538,-112.5 656,-112.5 656,-82.5 538,-82.5"/>
<text text-anchor="start" x="546" y="-100.5" font-family="Helvetica,sans-Serif" font-size="10.00">CCCC_Options::Load</text>
<text text-anchor="middle" x="597" y="-89.5" font-family="Helvetica,sans-Serif" font-size="10.00">_Options</text>
</a>
</g>
</g>
<!-- Node18&#45;&gt;Node19 -->
<g id="edge23" class="edge"><title>Node18&#45;&gt;Node19</title>
<path fill="none" stroke="midnightblue" d="M495.514,-97.5C509.794,-97.5 524.33,-97.5 537.747,-97.5"/>
<polygon fill="midnightblue" stroke="midnightblue" points="495.181,-94.0001 485.181,-97.5 495.181,-101 495.181,-94.0001"/>
</g>
<!-- Node20&#45;&gt;Node18 -->
<g id="edge25" class="edge"><title>Node20&#45;&gt;Node18</title>
<path fill="none" stroke="midnightblue" d="M280.173,-71.1095C306.555,-76.514 337.551,-82.8635 362.527,-87.9799"/>
<polygon fill="midnightblue" stroke="midnightblue" points="280.808,-67.6671 270.309,-69.089 279.404,-74.5247 280.808,-67.6671"/>
</g>
</g>
</svg>
