<?xml version="1.0" encoding="UTF-8" standalone="no"?>
<!DOCTYPE svg PUBLIC "-//W3C//DTD SVG 1.1//EN"
 "http://www.w3.org/Graphics/SVG/1.1/DTD/svg11.dtd">
<!-- Generated by graphviz version 2.38.0 (20140413.2041)
 -->
<!-- Title: CCCC_Item::ToFile Pages: 1 -->
<svg width="663pt" height="177pt"
 viewBox="0.00 0.00 663.00 176.89" xmlns="http://www.w3.org/2000/svg" xmlns:xlink="http://www.w3.org/1999/xlink">
<g id="graph0" class="graph" transform="scale(1 1) rotate(0) translate(4 172.888)">
<title>CCCC_Item::ToFile</title>
<polygon fill="white" stroke="none" points="-4,4 -4,-172.888 659,-172.888 659,4 -4,4"/>
<!-- Node1 -->
<g id="node1" class="node"><title>Node1</title>
<polygon fill="#bfbfbf" stroke="black" points="0,-73.3881 0,-92.3881 107,-92.3881 107,-73.3881 0,-73.3881"/>
<text text-anchor="middle" x="53.5" y="-80.3881" font-family="Helvetica,sans-Serif" font-size="10.00">CCCC_Item::ToFile</text>
</g>
<!-- Node2 -->
<g id="node2" class="node"><title>Node2</title>
<g id="a_node2"><a xlink:href="../../dc/d1e/classCCCC__Member.html#a22edd2264d9f7fb3f80fcf7269b624e1" target="_top" xlink:title="CCCC_Member::ToFile">
<polygon fill="white" stroke="black" points="145.5,-149.388 145.5,-168.388 270.5,-168.388 270.5,-149.388 145.5,-149.388"/>
<text text-anchor="middle" x="208" y="-156.388" font-family="Helvetica,sans-Serif" font-size="10.00">CCCC_Member::ToFile</text>
</a>
</g>
</g>
<!-- Node1&#45;&gt;Node2 -->
<g id="edge1" class="edge"><title>Node1&#45;&gt;Node2</title>
<path fill="none" stroke="midnightblue" d="M77.5395,-97.9124C95.0578,-108.966 119.988,-123.914 143,-134.888 154.247,-140.252 167.034,-145.253 178.206,-149.287"/>
<polygon fill="midnightblue" stroke="midnightblue" points="79.4163,-94.9581 69.1036,-92.5289 75.6505,-100.859 79.4163,-94.9581"/>
</g>
<!-- Node3 -->
<g id="node3" class="node"><title>Node3</title>
<g id="a_node3"><a xlink:href="../../d4/d6e/classCCCC__Project.html#ad2b4c25d24f7ed427c79bd9c7bd8a971" target="_top" xlink:title="CCCC_Project::ToFile">
<polygon fill="white" stroke="black" points="309,-73.3881 309,-92.3881 428,-92.3881 428,-73.3881 309,-73.3881"/>
<text text-anchor="middle" x="368.5" y="-80.3881" font-family="Helvetica,sans-Serif" font-size="10.00">CCCC_Project::ToFile</text>
</a>
</g>
</g>
<!-- Node1&#45;&gt;Node3 -->
<g id="edge10" class="edge"><title>Node1&#45;&gt;Node3</title>
<path fill="none" stroke="midnightblue" d="M100.478,-94.6861C114.074,-97.6504 129.053,-100.408 143,-101.888 200.455,-107.986 215.506,-107.611 273,-101.888 291.651,-100.032 312.07,-96.163 329.14,-92.398"/>
<polygon fill="midnightblue" stroke="midnightblue" points="100.917,-91.1969 90.3903,-92.3968 99.3677,-98.0233 100.917,-91.1969"/>
</g>
<!-- Node6 -->
<g id="node6" class="node"><title>Node6</title>
<g id="a_node6"><a xlink:href="../../d6/d9f/classCCCC__Module.html#a6f7f14ae0bef4dec23385b6abf14331f" target="_top" xlink:title="CCCC_Module::ToFile">
<polygon fill="white" stroke="black" points="147.5,-73.3881 147.5,-92.3881 268.5,-92.3881 268.5,-73.3881 147.5,-73.3881"/>
<text text-anchor="middle" x="208" y="-80.3881" font-family="Helvetica,sans-Serif" font-size="10.00">CCCC_Module::ToFile</text>
</a>
</g>
</g>
<!-- Node1&#45;&gt;Node6 -->
<g id="edge5" class="edge"><title>Node1&#45;&gt;Node6</title>
<path fill="none" stroke="midnightblue" d="M117.557,-82.8881C127.429,-82.8881 137.605,-82.8881 147.396,-82.8881"/>
<polygon fill="midnightblue" stroke="midnightblue" points="117.409,-79.3882 107.409,-82.8881 117.409,-86.3882 117.409,-79.3882"/>
</g>
<!-- Node7 -->
<g id="node7" class="node"><title>Node7</title>
<g id="a_node7"><a xlink:href="../../d4/d7f/classCCCC__Options.html#a27c73dee154b41fe008291e9df449b48" target="_top" xlink:title="CCCC_Options::Save\l_Options">
<polygon fill="white" stroke="black" points="309.5,-1.88812 309.5,-31.8881 427.5,-31.8881 427.5,-1.88812 309.5,-1.88812"/>
<text text-anchor="start" x="317.5" y="-19.8881" font-family="Helvetica,sans-Serif" font-size="10.00">CCCC_Options::Save</text>
<text text-anchor="middle" x="368.5" y="-8.88812" font-family="Helvetica,sans-Serif" font-size="10.00">_Options</text>
</a>
</g>
</g>
<!-- Node1&#45;&gt;Node7 -->
<g id="edge7" class="edge"><title>Node1&#45;&gt;Node7</title>
<path fill="none" stroke="midnightblue" d="M69.8519,-65.5535C86.0815,-48.6565 113.392,-24.0664 143,-13.8881 197.003,4.67603 262.719,1.01046 309.056,-5.52175"/>
<polygon fill="midnightblue" stroke="midnightblue" points="67.053,-63.424 62.8132,-73.1336 72.1825,-68.1872 67.053,-63.424"/>
</g>
<!-- Node9 -->
<g id="node9" class="node"><title>Node9</title>
<g id="a_node9"><a xlink:href="../../d2/d65/classCCCC__UseRelationship.html#ad5a6c8660690de211b0a40b52313ae05" target="_top" xlink:title="CCCC_UseRelationship\l::ToFile">
<polygon fill="white" stroke="black" points="143,-23.8881 143,-53.8881 273,-53.8881 273,-23.8881 143,-23.8881"/>
<text text-anchor="start" x="151" y="-41.8881" font-family="Helvetica,sans-Serif" font-size="10.00">CCCC_UseRelationship</text>
<text text-anchor="middle" x="208" y="-30.8881" font-family="Helvetica,sans-Serif" font-size="10.00">::ToFile</text>
</a>
</g>
</g>
<!-- Node1&#45;&gt;Node9 -->
<g id="edge11" class="edge"><title>Node1&#45;&gt;Node9</title>
<path fill="none" stroke="midnightblue" d="M97.6688,-70.4329C115.435,-65.3068 136.174,-59.3232 154.785,-53.9535"/>
<polygon fill="midnightblue" stroke="midnightblue" points="96.228,-67.2057 87.5902,-73.3408 98.1686,-73.9314 96.228,-67.2057"/>
</g>
<!-- Node2&#45;&gt;Node3 -->
<g id="edge2" class="edge"><title>Node2&#45;&gt;Node3</title>
<path fill="none" stroke="midnightblue" d="M246.686,-145.789C255.425,-142.468 264.618,-138.742 273,-134.888 301.584,-121.747 333.349,-103.459 351.81,-92.4391"/>
<polygon fill="midnightblue" stroke="midnightblue" points="245.239,-142.593 237.08,-149.351 247.673,-149.156 245.239,-142.593"/>
</g>
<!-- Node4 -->
<g id="node4" class="node"><title>Node4</title>
<g id="a_node4"><a xlink:href="../../db/d4a/classMain.html#a73e7ee7cdbee235ec767f6d66b595b5e" target="_top" xlink:title="Main::DumpDatabase">
<polygon fill="white" stroke="black" points="464,-66.3881 464,-85.3881 580,-85.3881 580,-66.3881 464,-66.3881"/>
<text text-anchor="middle" x="522" y="-73.3881" font-family="Helvetica,sans-Serif" font-size="10.00">Main::DumpDatabase</text>
</a>
</g>
</g>
<!-- Node3&#45;&gt;Node4 -->
<g id="edge3" class="edge"><title>Node3&#45;&gt;Node4</title>
<path fill="none" stroke="midnightblue" d="M438.298,-79.7093C446.75,-79.3188 455.319,-78.9229 463.579,-78.5412"/>
<polygon fill="midnightblue" stroke="midnightblue" points="437.902,-76.2238 428.074,-80.1817 438.225,-83.2164 437.902,-76.2238"/>
</g>
<!-- Node5 -->
<g id="node5" class="node"><title>Node5</title>
<g id="a_node5"><a xlink:href="../../d6/d93/ccccmain_8cc.html#a3c04138a5bfe5d72780bb7e82a18e627" target="_top" xlink:title="main">
<polygon fill="white" stroke="black" points="616,-43.3881 616,-62.3881 655,-62.3881 655,-43.3881 616,-43.3881"/>
<text text-anchor="middle" x="635.5" y="-50.3881" font-family="Helvetica,sans-Serif" font-size="10.00">main</text>
</a>
</g>
</g>
<!-- Node4&#45;&gt;Node5 -->
<g id="edge4" class="edge"><title>Node4&#45;&gt;Node5</title>
<path fill="none" stroke="midnightblue" d="M579.397,-64.2547C592.63,-61.525 605.815,-58.8053 615.968,-56.7109"/>
<polygon fill="midnightblue" stroke="midnightblue" points="578.404,-60.8857 569.317,-66.3339 579.818,-67.7414 578.404,-60.8857"/>
</g>
<!-- Node6&#45;&gt;Node3 -->
<g id="edge6" class="edge"><title>Node6&#45;&gt;Node3</title>
<path fill="none" stroke="midnightblue" d="M279.147,-82.8881C289.051,-82.8881 299.147,-82.8881 308.806,-82.8881"/>
<polygon fill="midnightblue" stroke="midnightblue" points="278.922,-79.3882 268.922,-82.8881 278.922,-86.3882 278.922,-79.3882"/>
</g>
<!-- Node8 -->
<g id="node8" class="node"><title>Node8</title>
<g id="a_node8"><a xlink:href="../../db/d4a/classMain.html#a5628fe4502c55f833e7279fec307f775" target="_top" xlink:title="Main::HandleArgs">
<polygon fill="white" stroke="black" points="472,-21.3881 472,-40.3881 572,-40.3881 572,-21.3881 472,-21.3881"/>
<text text-anchor="middle" x="522" y="-28.3881" font-family="Helvetica,sans-Serif" font-size="10.00">Main::HandleArgs</text>
</a>
</g>
</g>
<!-- Node7&#45;&gt;Node8 -->
<g id="edge8" class="edge"><title>Node7&#45;&gt;Node8</title>
<path fill="none" stroke="midnightblue" d="M437.623,-23.1833C449.082,-24.2422 460.776,-25.3229 471.642,-26.327"/>
<polygon fill="midnightblue" stroke="midnightblue" points="437.92,-19.696 427.641,-22.2608 437.276,-26.6663 437.92,-19.696"/>
</g>
<!-- Node8&#45;&gt;Node5 -->
<g id="edge9" class="edge"><title>Node8&#45;&gt;Node5</title>
<path fill="none" stroke="midnightblue" d="M581.299,-42.391C593.835,-44.8645 606.198,-47.3039 615.847,-49.2078"/>
<polygon fill="midnightblue" stroke="midnightblue" points="581.745,-38.9117 571.257,-40.4097 580.39,-45.7793 581.745,-38.9117"/>
</g>
<!-- Node9&#45;&gt;Node3 -->
<g id="edge12" class="edge"><title>Node9&#45;&gt;Node3</title>
<path fill="none" stroke="midnightblue" d="M272.749,-56.585C293.33,-62.2982 315.362,-68.4143 332.996,-73.3098"/>
<polygon fill="midnightblue" stroke="midnightblue" points="273.675,-53.2098 263.103,-53.9074 271.803,-59.9548 273.675,-53.2098"/>
</g>
</g>
</svg>
