<?xml version="1.0" encoding="UTF-8" standalone="no"?>
<!DOCTYPE svg PUBLIC "-//W3C//DTD SVG 1.1//EN"
 "http://www.w3.org/Graphics/SVG/1.1/DTD/svg11.dtd">
<!-- Generated by graphviz version 2.38.0 (20140413.2041)
 -->
<!-- Title: pad_string Pages: 1 -->
<svg width="411pt" height="154pt"
 viewBox="0.00 0.00 411.00 153.50" xmlns="http://www.w3.org/2000/svg" xmlns:xlink="http://www.w3.org/1999/xlink">
<g id="graph0" class="graph" transform="scale(1 1) rotate(0) translate(4 149.5)">
<title>pad_string</title>
<polygon fill="white" stroke="none" points="-4,4 -4,-149.5 407,-149.5 407,4 -4,4"/>
<!-- Node1 -->
<g id="node1" class="node"><title>Node1</title>
<polygon fill="#bfbfbf" stroke="black" points="0,-50 0,-69 67,-69 67,-50 0,-50"/>
<text text-anchor="middle" x="33.5" y="-57" font-family="Helvetica,sans-Serif" font-size="10.00">pad_string</text>
</g>
<!-- Node2 -->
<g id="node2" class="node"><title>Node2</title>
<g id="a_node2"><a xlink:href="../../db/d32/classSource__Anchor.html#a3e3ea787709997b47dec6fa0898282d3" target="_top" xlink:title="Source_Anchor::key">
<polygon fill="white" stroke="black" points="105,-88 105,-107 215,-107 215,-88 105,-88"/>
<text text-anchor="middle" x="160" y="-95" font-family="Helvetica,sans-Serif" font-size="10.00">Source_Anchor::key</text>
</a>
</g>
</g>
<!-- Node1&#45;&gt;Node2 -->
<g id="edge1" class="edge"><title>Node1&#45;&gt;Node2</title>
<path fill="none" stroke="midnightblue" d="M75.5696,-72.0353C92.5064,-77.2048 111.818,-83.0991 127.593,-87.9141"/>
<polygon fill="midnightblue" stroke="midnightblue" points="76.5028,-68.6608 65.9166,-69.089 74.4593,-75.3559 76.5028,-68.6608"/>
</g>
<!-- Node5 -->
<g id="node5" class="node"><title>Node5</title>
<g id="a_node5"><a xlink:href="../../db/d32/classSource__Anchor.html#a9e6e144a3800d6268a24de2831d71856" target="_top" xlink:title="Source_Anchor::Emit_NAME">
<polygon fill="white" stroke="black" points="253,-50 253,-69 403,-69 403,-50 253,-50"/>
<text text-anchor="middle" x="328" y="-57" font-family="Helvetica,sans-Serif" font-size="10.00">Source_Anchor::Emit_NAME</text>
</a>
</g>
</g>
<!-- Node1&#45;&gt;Node5 -->
<g id="edge5" class="edge"><title>Node1&#45;&gt;Node5</title>
<path fill="none" stroke="midnightblue" d="M77.4341,-59.5C123.49,-59.5 197.483,-59.5 252.964,-59.5"/>
<polygon fill="midnightblue" stroke="midnightblue" points="77.2021,-56.0001 67.2021,-59.5 77.202,-63.0001 77.2021,-56.0001"/>
</g>
<!-- Node6 -->
<g id="node6" class="node"><title>Node6</title>
<g id="a_node6"><a xlink:href="../../db/d32/classSource__Anchor.html#a43ee584806e54c73ad38613a30f69c35" target="_top" xlink:title="Source_Anchor::Emit\l_SPACE">
<polygon fill="white" stroke="black" points="103,-0.5 103,-30.5 217,-30.5 217,-0.5 103,-0.5"/>
<text text-anchor="start" x="111" y="-18.5" font-family="Helvetica,sans-Serif" font-size="10.00">Source_Anchor::Emit</text>
<text text-anchor="middle" x="160" y="-7.5" font-family="Helvetica,sans-Serif" font-size="10.00">_SPACE</text>
</a>
</g>
</g>
<!-- Node1&#45;&gt;Node6 -->
<g id="edge6" class="edge"><title>Node1&#45;&gt;Node6</title>
<path fill="none" stroke="midnightblue" d="M70.9683,-46.6116C85.1951,-41.5837 101.604,-35.7845 116.372,-30.5654"/>
<polygon fill="midnightblue" stroke="midnightblue" points="69.7769,-43.3204 61.5146,-49.9527 72.1094,-49.9204 69.7769,-43.3204"/>
</g>
<!-- Node3 -->
<g id="node3" class="node"><title>Node3</title>
<g id="a_node3"><a xlink:href="../../d5/dcb/cccc__htm_8cc.html#aa1e2bd823f6f17d0fcfa6ad80cca70f2" target="_top" xlink:title="setup_anchor_data">
<polygon fill="white" stroke="black" points="274,-126 274,-145 382,-145 382,-126 274,-126"/>
<text text-anchor="middle" x="328" y="-133" font-family="Helvetica,sans-Serif" font-size="10.00">setup_anchor_data</text>
</a>
</g>
</g>
<!-- Node2&#45;&gt;Node3 -->
<g id="edge2" class="edge"><title>Node2&#45;&gt;Node3</title>
<path fill="none" stroke="midnightblue" d="M212.653,-109.324C236.056,-114.682 263.357,-120.931 285.412,-125.98"/>
<polygon fill="midnightblue" stroke="midnightblue" points="213.418,-105.909 202.889,-107.089 211.856,-112.732 213.418,-105.909"/>
</g>
<!-- Node4 -->
<g id="node4" class="node"><title>Node4</title>
<g id="a_node4"><a xlink:href="../../db/d32/classSource__Anchor.html#a27285bd5411e11654c1427580d2bcb1e" target="_top" xlink:title="Source_Anchor::Emit_HREF">
<polygon fill="white" stroke="black" points="254,-88 254,-107 402,-107 402,-88 254,-88"/>
<text text-anchor="middle" x="328" y="-95" font-family="Helvetica,sans-Serif" font-size="10.00">Source_Anchor::Emit_HREF</text>
</a>
</g>
</g>
<!-- Node2&#45;&gt;Node4 -->
<g id="edge3" class="edge"><title>Node2&#45;&gt;Node4</title>
<path fill="none" stroke="midnightblue" d="M225.626,-97.5C234.868,-97.5 244.429,-97.5 253.82,-97.5"/>
<polygon fill="midnightblue" stroke="midnightblue" points="225.355,-94.0001 215.355,-97.5 225.355,-101 225.355,-94.0001"/>
</g>
<!-- Node2&#45;&gt;Node5 -->
<g id="edge4" class="edge"><title>Node2&#45;&gt;Node5</title>
<path fill="none" stroke="midnightblue" d="M212.653,-85.6757C236.056,-80.3184 263.357,-74.0689 285.412,-69.0201"/>
<polygon fill="midnightblue" stroke="midnightblue" points="211.856,-82.2677 202.889,-87.911 213.418,-89.0912 211.856,-82.2677"/>
</g>
</g>
</svg>
