<?xml version="1.0" encoding="UTF-8" standalone="no"?>
<!DOCTYPE svg PUBLIC "-//W3C//DTD SVG 1.1//EN"
 "http://www.w3.org/Graphics/SVG/1.1/DTD/svg11.dtd">
<!-- Generated by graphviz version 2.38.0 (20140413.2041)
 -->
<!-- Title: cccc_htm.h Pages: 1 -->
<svg width="319pt" height="140pt"
 viewBox="0.00 0.00 318.50 140.00" xmlns="http://www.w3.org/2000/svg" xmlns:xlink="http://www.w3.org/1999/xlink">
<g id="graph0" class="graph" transform="scale(1 1) rotate(0) translate(4 136)">
<title>cccc_htm.h</title>
<polygon fill="white" stroke="none" points="-4,4 -4,-136 314.5,-136 314.5,4 -4,4"/>
<!-- Node1 -->
<g id="node1" class="node"><title>Node1</title>
<polygon fill="#bfbfbf" stroke="black" points="134.5,-112.5 134.5,-131.5 203.5,-131.5 203.5,-112.5 134.5,-112.5"/>
<text text-anchor="middle" x="169" y="-119.5" font-family="Helvetica,sans-Serif" font-size="10.00">cccc_htm.h</text>
</g>
<!-- Node2 -->
<g id="node2" class="node"><title>Node2</title>
<g id="a_node2"><a xlink:href="../../d5/dcb/cccc__htm_8cc.html" target="_top" xlink:title="cccc_htm.cc">
<polygon fill="white" stroke="black" points="0,-56.5 0,-75.5 74,-75.5 74,-56.5 0,-56.5"/>
<text text-anchor="middle" x="37" y="-63.5" font-family="Helvetica,sans-Serif" font-size="10.00">cccc_htm.cc</text>
</a>
</g>
</g>
<!-- Node1&#45;&gt;Node2 -->
<g id="edge1" class="edge"><title>Node1&#45;&gt;Node2</title>
<path fill="none" stroke="midnightblue" d="M138.781,-108.638C114.01,-98.504 79.6004,-84.4274 57.8179,-75.5164"/>
<polygon fill="midnightblue" stroke="midnightblue" points="137.503,-111.897 148.084,-112.444 140.154,-105.418 137.503,-111.897"/>
</g>
<!-- Node3 -->
<g id="node3" class="node"><title>Node3</title>
<g id="a_node3"><a xlink:href="../../d1/d81/cccc__tpl_8cc.html" target="_top" xlink:title="cccc_tpl.cc">
<polygon fill="white" stroke="black" points="92,-56.5 92,-75.5 160,-75.5 160,-56.5 92,-56.5"/>
<text text-anchor="middle" x="126" y="-63.5" font-family="Helvetica,sans-Serif" font-size="10.00">cccc_tpl.cc</text>
</a>
</g>
</g>
<!-- Node1&#45;&gt;Node3 -->
<g id="edge2" class="edge"><title>Node1&#45;&gt;Node3</title>
<path fill="none" stroke="midnightblue" d="M155.578,-104.144C148.086,-94.7357 139.063,-83.4046 132.968,-75.7511"/>
<polygon fill="midnightblue" stroke="midnightblue" points="152.932,-106.44 161.899,-112.083 158.408,-102.08 152.932,-106.44"/>
</g>
<!-- Node4 -->
<g id="node4" class="node"><title>Node4</title>
<g id="a_node4"><a xlink:href="../../d9/d64/cccc__xml_8h.html" target="_top" xlink:title="cccc_xml.h">
<polygon fill="white" stroke="black" points="178,-56.5 178,-75.5 246,-75.5 246,-56.5 178,-56.5"/>
<text text-anchor="middle" x="212" y="-63.5" font-family="Helvetica,sans-Serif" font-size="10.00">cccc_xml.h</text>
</a>
</g>
</g>
<!-- Node1&#45;&gt;Node4 -->
<g id="edge3" class="edge"><title>Node1&#45;&gt;Node4</title>
<path fill="none" stroke="midnightblue" d="M182.422,-104.144C189.914,-94.7357 198.937,-83.4046 205.032,-75.7511"/>
<polygon fill="midnightblue" stroke="midnightblue" points="179.592,-102.08 176.101,-112.083 185.068,-106.44 179.592,-102.08"/>
</g>
<!-- Node6 -->
<g id="node6" class="node"><title>Node6</title>
<g id="a_node6"><a xlink:href="../../d6/d93/ccccmain_8cc.html" target="_top" xlink:title="ccccmain.cc">
<polygon fill="white" stroke="black" points="237.5,-0.5 237.5,-19.5 310.5,-19.5 310.5,-0.5 237.5,-0.5"/>
<text text-anchor="middle" x="274" y="-7.5" font-family="Helvetica,sans-Serif" font-size="10.00">ccccmain.cc</text>
</a>
</g>
</g>
<!-- Node1&#45;&gt;Node6 -->
<g id="edge6" class="edge"><title>Node1&#45;&gt;Node6</title>
<path fill="none" stroke="midnightblue" d="M207.558,-108.636C224.268,-101.503 242.767,-90.9261 255,-76 268.712,-59.2684 272.529,-33.0094 273.591,-19.5622"/>
<polygon fill="midnightblue" stroke="midnightblue" points="205.984,-105.495 197.986,-112.444 208.572,-111.999 205.984,-105.495"/>
</g>
<!-- Node5 -->
<g id="node5" class="node"><title>Node5</title>
<g id="a_node5"><a xlink:href="../../db/d75/cccc__xml_8cc.html" target="_top" xlink:title="cccc_xml.cc">
<polygon fill="white" stroke="black" points="147,-0.5 147,-19.5 219,-19.5 219,-0.5 147,-0.5"/>
<text text-anchor="middle" x="183" y="-7.5" font-family="Helvetica,sans-Serif" font-size="10.00">cccc_xml.cc</text>
</a>
</g>
</g>
<!-- Node4&#45;&gt;Node5 -->
<g id="edge4" class="edge"><title>Node4&#45;&gt;Node5</title>
<path fill="none" stroke="midnightblue" d="M202.324,-46.9827C197.402,-37.8168 191.642,-27.0922 187.7,-19.7511"/>
<polygon fill="midnightblue" stroke="midnightblue" points="199.396,-48.929 207.211,-56.083 205.563,-45.6171 199.396,-48.929"/>
</g>
<!-- Node4&#45;&gt;Node6 -->
<g id="edge5" class="edge"><title>Node4&#45;&gt;Node6</title>
<path fill="none" stroke="midnightblue" d="M229.754,-49.5372C240.808,-39.9087 254.631,-27.8694 263.857,-19.8339"/>
<polygon fill="midnightblue" stroke="midnightblue" points="227.203,-47.1168 221.961,-56.324 231.801,-52.3954 227.203,-47.1168"/>
</g>
</g>
</svg>
