<?xml version="1.0" encoding="UTF-8" standalone="no"?>
<!DOCTYPE svg PUBLIC "-//W3C//DTD SVG 1.1//EN"
 "http://www.w3.org/Graphics/SVG/1.1/DTD/svg11.dtd">
<!-- Generated by graphviz version 2.38.0 (20140413.2041)
 -->
<!-- Title: cccc_mem.cc Pages: 1 -->
<svg width="826pt" height="532pt"
 viewBox="0.00 0.00 825.50 532.00" xmlns="http://www.w3.org/2000/svg" xmlns:xlink="http://www.w3.org/1999/xlink">
<g id="graph0" class="graph" transform="scale(1 1) rotate(0) translate(4 528)">
<title>cccc_mem.cc</title>
<polygon fill="white" stroke="none" points="-4,4 -4,-528 821.5,-528 821.5,4 -4,4"/>
<!-- Node1 -->
<g id="node1" class="node"><title>Node1</title>
<polygon fill="#bfbfbf" stroke="black" points="320.5,-504.5 320.5,-523.5 399.5,-523.5 399.5,-504.5 320.5,-504.5"/>
<text text-anchor="middle" x="360" y="-511.5" font-family="Helvetica,sans-Serif" font-size="10.00">cccc_mem.cc</text>
</g>
<!-- Node2 -->
<g id="node2" class="node"><title>Node2</title>
<g id="a_node2"><a xlink:href="../../d0/d84/cccc_8h.html" target="_top" xlink:title="cccc.h">
<polygon fill="white" stroke="black" points="363,-112.5 363,-131.5 409,-131.5 409,-112.5 363,-112.5"/>
<text text-anchor="middle" x="386" y="-119.5" font-family="Helvetica,sans-Serif" font-size="10.00">cccc.h</text>
</a>
</g>
</g>
<!-- Node1&#45;&gt;Node2 -->
<g id="edge1" class="edge"><title>Node1&#45;&gt;Node2</title>
<path fill="none" stroke="midnightblue" d="M340.764,-504.415C309.472,-488.986 251,-453.41 251,-403 251,-403 251,-403 251,-233 251,-180.463 313.204,-148.566 353.164,-133.495"/>
<polygon fill="midnightblue" stroke="midnightblue" points="354.572,-136.708 362.793,-130.024 352.198,-130.123 354.572,-136.708"/>
</g>
<!-- Node16 -->
<g id="node16" class="node"><title>Node16</title>
<g id="a_node16"><a xlink:href="../../dd/d1e/cccc__itm_8h.html" target="_top" xlink:title="cccc_itm.h">
<polygon fill="white" stroke="black" points="378.5,-168.5 378.5,-187.5 443.5,-187.5 443.5,-168.5 378.5,-168.5"/>
<text text-anchor="middle" x="411" y="-175.5" font-family="Helvetica,sans-Serif" font-size="10.00">cccc_itm.h</text>
</a>
</g>
</g>
<!-- Node1&#45;&gt;Node16 -->
<g id="edge16" class="edge"><title>Node1&#45;&gt;Node16</title>
<path fill="none" stroke="midnightblue" d="M355.549,-504.424C346.542,-486.244 327,-442.278 327,-403 327,-403 327,-403 327,-289 327,-247.731 364.809,-212.325 389.695,-193.49"/>
<polygon fill="midnightblue" stroke="midnightblue" points="391.849,-196.251 397.875,-187.537 387.73,-190.592 391.849,-196.251"/>
</g>
<!-- Node17 -->
<g id="node17" class="node"><title>Node17</title>
<g id="a_node17"><a xlink:href="../../dc/da1/cccc__mem_8h.html" target="_top" xlink:title="cccc_mem.h">
<polygon fill="white" stroke="black" points="445,-392.5 445,-411.5 519,-411.5 519,-392.5 445,-392.5"/>
<text text-anchor="middle" x="482" y="-399.5" font-family="Helvetica,sans-Serif" font-size="10.00">cccc_mem.h</text>
</a>
</g>
</g>
<!-- Node1&#45;&gt;Node17 -->
<g id="edge18" class="edge"><title>Node1&#45;&gt;Node17</title>
<path fill="none" stroke="midnightblue" d="M369.573,-504.368C390.152,-485.814 438.842,-441.913 464.878,-418.438"/>
<polygon fill="midnightblue" stroke="midnightblue" points="467.388,-420.887 472.471,-411.591 462.701,-415.688 467.388,-420.887"/>
</g>
<!-- Node25 -->
<g id="node25" class="node"><title>Node25</title>
<g id="a_node25"><a xlink:href="../../d7/d44/cccc__db_8h.html" target="_top" xlink:title="cccc_db.h">
<polygon fill="white" stroke="black" points="482.5,-448.5 482.5,-467.5 545.5,-467.5 545.5,-448.5 482.5,-448.5"/>
<text text-anchor="middle" x="514" y="-455.5" font-family="Helvetica,sans-Serif" font-size="10.00">cccc_db.h</text>
</a>
</g>
</g>
<!-- Node1&#45;&gt;Node25 -->
<g id="edge37" class="edge"><title>Node1&#45;&gt;Node25</title>
<path fill="none" stroke="midnightblue" d="M384.402,-504.444C410.197,-495.399 451.077,-481.064 480.018,-470.916"/>
<polygon fill="midnightblue" stroke="midnightblue" points="481.434,-474.128 489.712,-467.516 479.118,-467.523 481.434,-474.128"/>
</g>
<!-- Node3 -->
<g id="node3" class="node"><title>Node3</title>
<polygon fill="white" stroke="#bfbfbf" points="464.5,-56.5 464.5,-75.5 515.5,-75.5 515.5,-56.5 464.5,-56.5"/>
<text text-anchor="middle" x="490" y="-63.5" font-family="Helvetica,sans-Serif" font-size="10.00">cassert</text>
</g>
<!-- Node2&#45;&gt;Node3 -->
<g id="edge2" class="edge"><title>Node2&#45;&gt;Node3</title>
<path fill="none" stroke="midnightblue" d="M402.709,-112.324C419.312,-103.703 445.002,-90.3643 464.22,-80.3855"/>
<polygon fill="midnightblue" stroke="midnightblue" points="466.07,-83.3689 473.332,-75.6545 462.844,-77.1565 466.07,-83.3689"/>
</g>
<!-- Node4 -->
<g id="node4" class="node"><title>Node4</title>
<polygon fill="white" stroke="#bfbfbf" points="338.5,-56.5 338.5,-75.5 383.5,-75.5 383.5,-56.5 338.5,-56.5"/>
<text text-anchor="middle" x="361" y="-63.5" font-family="Helvetica,sans-Serif" font-size="10.00">cmath</text>
</g>
<!-- Node2&#45;&gt;Node4 -->
<g id="edge3" class="edge"><title>Node2&#45;&gt;Node4</title>
<path fill="none" stroke="midnightblue" d="M381.872,-112.083C378.486,-104.77 373.584,-94.1814 369.381,-85.1034"/>
<polygon fill="midnightblue" stroke="midnightblue" points="372.429,-83.3553 365.051,-75.7511 366.077,-86.2962 372.429,-83.3553"/>
</g>
<!-- Node5 -->
<g id="node5" class="node"><title>Node5</title>
<polygon fill="white" stroke="#bfbfbf" points="402,-56.5 402,-75.5 446,-75.5 446,-56.5 402,-56.5"/>
<text text-anchor="middle" x="424" y="-63.5" font-family="Helvetica,sans-Serif" font-size="10.00">cstdio</text>
</g>
<!-- Node2&#45;&gt;Node5 -->
<g id="edge4" class="edge"><title>Node2&#45;&gt;Node5</title>
<path fill="none" stroke="midnightblue" d="M392.275,-112.083C397.642,-104.455 405.518,-93.2645 412.079,-83.9408"/>
<polygon fill="midnightblue" stroke="midnightblue" points="414.949,-85.9434 417.842,-75.7511 409.225,-81.9149 414.949,-85.9434"/>
</g>
<!-- Node6 -->
<g id="node6" class="node"><title>Node6</title>
<polygon fill="white" stroke="#bfbfbf" points="0,-56.5 0,-75.5 48,-75.5 48,-56.5 0,-56.5"/>
<text text-anchor="middle" x="24" y="-63.5" font-family="Helvetica,sans-Serif" font-size="10.00">cstring</text>
</g>
<!-- Node2&#45;&gt;Node6 -->
<g id="edge5" class="edge"><title>Node2&#45;&gt;Node6</title>
<path fill="none" stroke="midnightblue" d="M362.69,-118.866C310.085,-113.828 178.029,-99.9334 58.1435,-75.9948"/>
<polygon fill="midnightblue" stroke="midnightblue" points="58.5595,-72.5081 48.0635,-73.9521 57.1691,-79.3686 58.5595,-72.5081"/>
</g>
<!-- Node7 -->
<g id="node7" class="node"><title>Node7</title>
<polygon fill="white" stroke="#bfbfbf" points="66,-56.5 66,-75.5 112,-75.5 112,-56.5 66,-56.5"/>
<text text-anchor="middle" x="89" y="-63.5" font-family="Helvetica,sans-Serif" font-size="10.00">cstdlib</text>
</g>
<!-- Node2&#45;&gt;Node7 -->
<g id="edge6" class="edge"><title>Node2&#45;&gt;Node7</title>
<path fill="none" stroke="midnightblue" d="M362.799,-117.904C318.099,-111.761 216.794,-96.9703 122.345,-76.1116"/>
<polygon fill="midnightblue" stroke="midnightblue" points="122.869,-72.6424 112.346,-73.8744 121.34,-79.4735 122.869,-72.6424"/>
</g>
<!-- Node8 -->
<g id="node8" class="node"><title>Node8</title>
<polygon fill="white" stroke="#bfbfbf" points="130.5,-56.5 130.5,-75.5 177.5,-75.5 177.5,-56.5 130.5,-56.5"/>
<text text-anchor="middle" x="154" y="-63.5" font-family="Helvetica,sans-Serif" font-size="10.00">cctype</text>
</g>
<!-- Node2&#45;&gt;Node8 -->
<g id="edge7" class="edge"><title>Node2&#45;&gt;Node8</title>
<path fill="none" stroke="midnightblue" d="M362.941,-116.129C327.453,-108.56 257.105,-93.2644 187.564,-76.0543"/>
<polygon fill="midnightblue" stroke="midnightblue" points="188.31,-72.6333 177.76,-73.6138 186.619,-79.4259 188.31,-72.6333"/>
</g>
<!-- Node9 -->
<g id="node9" class="node"><title>Node9</title>
<polygon fill="white" stroke="#bfbfbf" points="774.5,-56.5 774.5,-75.5 817.5,-75.5 817.5,-56.5 774.5,-56.5"/>
<text text-anchor="middle" x="796" y="-63.5" font-family="Helvetica,sans-Serif" font-size="10.00">string</text>
</g>
<!-- Node2&#45;&gt;Node9 -->
<g id="edge8" class="edge"><title>Node2&#45;&gt;Node9</title>
<path fill="none" stroke="midnightblue" d="M409.283,-119.573C467.529,-115.721 624.301,-103.621 764.378,-75.7842"/>
<polygon fill="midnightblue" stroke="midnightblue" points="765.324,-79.1638 774.433,-73.7527 763.938,-72.3025 765.324,-79.1638"/>
</g>
<!-- Node10 -->
<g id="node10" class="node"><title>Node10</title>
<polygon fill="white" stroke="#bfbfbf" points="699.5,-56.5 699.5,-75.5 756.5,-75.5 756.5,-56.5 699.5,-56.5"/>
<text text-anchor="middle" x="728" y="-63.5" font-family="Helvetica,sans-Serif" font-size="10.00">iostream</text>
</g>
<!-- Node2&#45;&gt;Node10 -->
<g id="edge9" class="edge"><title>Node2&#45;&gt;Node10</title>
<path fill="none" stroke="midnightblue" d="M409.379,-118.232C459.007,-112.211 578.706,-96.9082 689.425,-75.9574"/>
<polygon fill="midnightblue" stroke="midnightblue" points="690.258,-79.3615 699.423,-74.0451 688.943,-72.4861 690.258,-79.3615"/>
</g>
<!-- Node11 -->
<g id="node11" class="node"><title>Node11</title>
<polygon fill="white" stroke="#bfbfbf" points="196,-56.5 196,-75.5 250,-75.5 250,-56.5 196,-56.5"/>
<text text-anchor="middle" x="223" y="-63.5" font-family="Helvetica,sans-Serif" font-size="10.00">sstream</text>
</g>
<!-- Node2&#45;&gt;Node11 -->
<g id="edge10" class="edge"><title>Node2&#45;&gt;Node11</title>
<path fill="none" stroke="midnightblue" d="M362.992,-113.378C335.831,-104.38 290.352,-89.3129 258.626,-78.8025"/>
<polygon fill="midnightblue" stroke="midnightblue" points="259.443,-75.3861 248.85,-75.5637 257.242,-82.031 259.443,-75.3861"/>
</g>
<!-- Node12 -->
<g id="node12" class="node"><title>Node12</title>
<polygon fill="white" stroke="#bfbfbf" points="268,-56.5 268,-75.5 320,-75.5 320,-56.5 268,-56.5"/>
<text text-anchor="middle" x="294" y="-63.5" font-family="Helvetica,sans-Serif" font-size="10.00">fstream</text>
</g>
<!-- Node2&#45;&gt;Node12 -->
<g id="edge11" class="edge"><title>Node2&#45;&gt;Node12</title>
<path fill="none" stroke="midnightblue" d="M371.219,-112.324C356.733,-103.822 334.427,-90.7288 317.507,-80.7975"/>
<polygon fill="midnightblue" stroke="midnightblue" points="319.141,-77.6981 308.745,-75.6545 315.597,-83.735 319.141,-77.6981"/>
</g>
<!-- Node13 -->
<g id="node13" class="node"><title>Node13</title>
<g id="a_node13"><a xlink:href="../../d1/d7d/cccc__tok_8h.html" target="_top" xlink:title="cccc_tok.h">
<polygon fill="white" stroke="black" points="534,-56.5 534,-75.5 600,-75.5 600,-56.5 534,-56.5"/>
<text text-anchor="middle" x="567" y="-63.5" font-family="Helvetica,sans-Serif" font-size="10.00">cccc_tok.h</text>
</a>
</g>
</g>
<!-- Node2&#45;&gt;Node13 -->
<g id="edge12" class="edge"><title>Node2&#45;&gt;Node13</title>
<path fill="none" stroke="midnightblue" d="M409.219,-112.562C438.24,-103.29 488.125,-88.3548 524.115,-78.129"/>
<polygon fill="midnightblue" stroke="midnightblue" points="525.194,-81.4613 533.868,-75.3783 523.293,-74.7241 525.194,-81.4613"/>
</g>
<!-- Node15 -->
<g id="node15" class="node"><title>Node15</title>
<polygon fill="white" stroke="#bfbfbf" points="618.5,-56.5 618.5,-75.5 681.5,-75.5 681.5,-56.5 618.5,-56.5"/>
<text text-anchor="middle" x="650" y="-63.5" font-family="Helvetica,sans-Serif" font-size="10.00">AParser.h</text>
</g>
<!-- Node2&#45;&gt;Node15 -->
<g id="edge15" class="edge"><title>Node2&#45;&gt;Node15</title>
<path fill="none" stroke="midnightblue" d="M409.141,-116.465C448.014,-108.817 529.133,-92.7361 608.109,-76.1593"/>
<polygon fill="midnightblue" stroke="midnightblue" points="609.162,-79.5144 618.227,-74.0302 607.721,-72.6644 609.162,-79.5144"/>
</g>
<!-- Node13&#45;&gt;Node2 -->
<g id="edge13" class="edge"><title>Node13&#45;&gt;Node2</title>
<path fill="none" stroke="midnightblue" d="M543.554,-75.5102C511.847,-85.6355 455.529,-102.437 419.425,-112.54"/>
<polygon fill="midnightblue" stroke="midnightblue" points="418.071,-109.283 409.367,-115.323 419.938,-116.029 418.071,-109.283"/>
</g>
<!-- Node14 -->
<g id="node14" class="node"><title>Node14</title>
<polygon fill="white" stroke="#bfbfbf" points="536,-0.5 536,-19.5 598,-19.5 598,-0.5 536,-0.5"/>
<text text-anchor="middle" x="567" y="-7.5" font-family="Helvetica,sans-Serif" font-size="10.00">AToken.h</text>
</g>
<!-- Node13&#45;&gt;Node14 -->
<g id="edge14" class="edge"><title>Node13&#45;&gt;Node14</title>
<path fill="none" stroke="midnightblue" d="M567,-56.083C567,-49.0059 567,-38.8611 567,-29.9865"/>
<polygon fill="midnightblue" stroke="midnightblue" points="570.5,-29.751 567,-19.7511 563.5,-29.7511 570.5,-29.751"/>
</g>
<!-- Node16&#45;&gt;Node2 -->
<g id="edge17" class="edge"><title>Node16&#45;&gt;Node2</title>
<path fill="none" stroke="midnightblue" d="M406.872,-168.083C403.486,-160.77 398.584,-150.181 394.381,-141.103"/>
<polygon fill="midnightblue" stroke="midnightblue" points="397.429,-139.355 390.051,-131.751 391.077,-142.296 397.429,-139.355"/>
</g>
<!-- Node18 -->
<g id="node18" class="node"><title>Node18</title>
<g id="a_node18"><a xlink:href="../../df/de9/cccc__rec_8h.html" target="_top" xlink:title="cccc_rec.h">
<polygon fill="white" stroke="black" points="573.5,-336.5 573.5,-355.5 640.5,-355.5 640.5,-336.5 573.5,-336.5"/>
<text text-anchor="middle" x="607" y="-343.5" font-family="Helvetica,sans-Serif" font-size="10.00">cccc_rec.h</text>
</a>
</g>
</g>
<!-- Node17&#45;&gt;Node18 -->
<g id="edge19" class="edge"><title>Node17&#45;&gt;Node18</title>
<path fill="none" stroke="midnightblue" d="M501.807,-392.444C522.287,-383.596 554.483,-369.687 577.865,-359.586"/>
<polygon fill="midnightblue" stroke="midnightblue" points="579.494,-362.695 587.286,-355.516 576.718,-356.269 579.494,-362.695"/>
</g>
<!-- Node19 -->
<g id="node19" class="node"><title>Node19</title>
<g id="a_node19"><a xlink:href="../../df/dd4/cccc__tbl_8h.html" target="_top" xlink:title="cccc_tbl.h">
<polygon fill="white" stroke="black" points="637,-280.5 637,-299.5 699,-299.5 699,-280.5 637,-280.5"/>
<text text-anchor="middle" x="668" y="-287.5" font-family="Helvetica,sans-Serif" font-size="10.00">cccc_tbl.h</text>
</a>
</g>
</g>
<!-- Node18&#45;&gt;Node19 -->
<g id="edge20" class="edge"><title>Node18&#45;&gt;Node19</title>
<path fill="none" stroke="midnightblue" d="M616.801,-336.324C625.818,-328.341 639.406,-316.313 650.318,-306.653"/>
<polygon fill="midnightblue" stroke="midnightblue" points="652.853,-309.083 658.021,-299.834 648.213,-303.842 652.853,-309.083"/>
</g>
<!-- Node22 -->
<g id="node22" class="node"><title>Node22</title>
<g id="a_node22"><a xlink:href="../../d3/d11/cccc__ext_8h.html" target="_top" xlink:title="cccc_ext.h">
<polygon fill="white" stroke="black" points="719,-280.5 719,-299.5 785,-299.5 785,-280.5 719,-280.5"/>
<text text-anchor="middle" x="752" y="-287.5" font-family="Helvetica,sans-Serif" font-size="10.00">cccc_ext.h</text>
</a>
</g>
</g>
<!-- Node18&#45;&gt;Node22 -->
<g id="edge28" class="edge"><title>Node18&#45;&gt;Node22</title>
<path fill="none" stroke="midnightblue" d="M629.976,-336.444C654.157,-327.438 692.418,-313.189 719.646,-303.049"/>
<polygon fill="midnightblue" stroke="midnightblue" points="720.982,-306.286 729.132,-299.516 718.539,-299.727 720.982,-306.286"/>
</g>
<!-- Node23 -->
<g id="node23" class="node"><title>Node23</title>
<g id="a_node23"><a xlink:href="../../d7/d8f/cccc__utl_8h.html" target="_top" xlink:title="cccc_utl.h">
<polygon fill="white" stroke="black" points="576,-224.5 576,-243.5 638,-243.5 638,-224.5 576,-224.5"/>
<text text-anchor="middle" x="607" y="-231.5" font-family="Helvetica,sans-Serif" font-size="10.00">cccc_utl.h</text>
</a>
</g>
</g>
<!-- Node18&#45;&gt;Node23 -->
<g id="edge36" class="edge"><title>Node18&#45;&gt;Node23</title>
<path fill="none" stroke="midnightblue" d="M607,-336.368C607,-318.617 607,-277.666 607,-253.597"/>
<polygon fill="midnightblue" stroke="midnightblue" points="610.5,-253.591 607,-243.591 603.5,-253.591 610.5,-253.591"/>
</g>
<!-- Node19&#45;&gt;Node9 -->
<g id="edge22" class="edge"><title>Node19&#45;&gt;Node9</title>
<path fill="none" stroke="midnightblue" d="M681.018,-280.329C692.533,-272.11 709.146,-258.84 720,-244 757.604,-192.588 781.323,-119.698 791.002,-85.7501"/>
<polygon fill="midnightblue" stroke="midnightblue" points="794.456,-86.3885 793.746,-75.8175 787.709,-84.5244 794.456,-86.3885"/>
</g>
<!-- Node19&#45;&gt;Node10 -->
<g id="edge21" class="edge"><title>Node19&#45;&gt;Node10</title>
<path fill="none" stroke="midnightblue" d="M674.826,-280.487C687.623,-263.9 714.759,-225.576 724,-188 732.671,-152.745 731.462,-109.977 729.758,-85.8861"/>
<polygon fill="midnightblue" stroke="midnightblue" points="733.226,-85.3561 728.923,-75.6746 726.249,-85.9267 733.226,-85.3561"/>
</g>
<!-- Node20 -->
<g id="node20" class="node"><title>Node20</title>
<polygon fill="white" stroke="#bfbfbf" points="678.5,-168.5 678.5,-187.5 715.5,-187.5 715.5,-168.5 678.5,-168.5"/>
<text text-anchor="middle" x="697" y="-175.5" font-family="Helvetica,sans-Serif" font-size="10.00">map</text>
</g>
<!-- Node19&#45;&gt;Node20 -->
<g id="edge23" class="edge"><title>Node19&#45;&gt;Node20</title>
<path fill="none" stroke="midnightblue" d="M670.276,-280.368C674.977,-262.537 685.849,-221.295 692.183,-197.272"/>
<polygon fill="midnightblue" stroke="midnightblue" points="695.57,-198.153 694.735,-187.591 688.801,-196.369 695.57,-198.153"/>
</g>
<!-- Node21 -->
<g id="node21" class="node"><title>Node21</title>
<g id="a_node21"><a xlink:href="../../d1/d17/cccc__tbl_8cc.html" target="_top" xlink:title="cccc_tbl.cc">
<polygon fill="white" stroke="black" points="487.5,-224.5 487.5,-243.5 554.5,-243.5 554.5,-224.5 487.5,-224.5"/>
<text text-anchor="middle" x="521" y="-231.5" font-family="Helvetica,sans-Serif" font-size="10.00">cccc_tbl.cc</text>
</a>
</g>
</g>
<!-- Node19&#45;&gt;Node21 -->
<g id="edge24" class="edge"><title>Node19&#45;&gt;Node21</title>
<path fill="none" stroke="midnightblue" d="M639.619,-280.444C613.245,-271.478 574.468,-257.314 548.414,-247.183"/>
<polygon fill="midnightblue" stroke="midnightblue" points="549.691,-243.924 539.104,-243.516 547.126,-250.437 549.691,-243.924"/>
</g>
<!-- Node21&#45;&gt;Node3 -->
<g id="edge27" class="edge"><title>Node21&#45;&gt;Node3</title>
<path fill="none" stroke="midnightblue" d="M519.333,-224.075C514.454,-197.945 500.124,-121.211 493.469,-85.577"/>
<polygon fill="midnightblue" stroke="midnightblue" points="496.876,-84.7556 491.6,-75.5681 489.995,-86.0407 496.876,-84.7556"/>
</g>
<!-- Node21&#45;&gt;Node16 -->
<g id="edge25" class="edge"><title>Node21&#45;&gt;Node16</title>
<path fill="none" stroke="midnightblue" d="M503.327,-224.324C485.606,-215.625 458.097,-202.12 437.712,-192.113"/>
<polygon fill="midnightblue" stroke="midnightblue" points="439.149,-188.919 428.63,-187.655 436.064,-195.203 439.149,-188.919"/>
</g>
<!-- Node21&#45;&gt;Node19 -->
<g id="edge26" class="edge"><title>Node21&#45;&gt;Node19</title>
<path fill="none" stroke="midnightblue" d="M549.264,-243.516C575.601,-252.467 614.378,-266.629 640.47,-276.772"/>
<polygon fill="midnightblue" stroke="midnightblue" points="639.209,-280.037 649.796,-280.444 641.773,-273.524 639.209,-280.037"/>
</g>
<!-- Node22&#45;&gt;Node9 -->
<g id="edge29" class="edge"><title>Node22&#45;&gt;Node9</title>
<path fill="none" stroke="midnightblue" d="M764.781,-280.369C775.394,-272.36 789.731,-259.379 796,-244 817.998,-190.037 807.405,-118.893 800.434,-85.6358"/>
<polygon fill="midnightblue" stroke="midnightblue" points="803.776,-84.5389 798.179,-75.5426 796.944,-86.0652 803.776,-84.5389"/>
</g>
<!-- Node22&#45;&gt;Node23 -->
<g id="edge30" class="edge"><title>Node22&#45;&gt;Node23</title>
<path fill="none" stroke="midnightblue" d="M729.024,-280.444C704.843,-271.438 666.582,-257.189 639.354,-247.049"/>
<polygon fill="midnightblue" stroke="midnightblue" points="640.461,-243.727 629.868,-243.516 638.018,-250.286 640.461,-243.727"/>
</g>
<!-- Node23&#45;&gt;Node2 -->
<g id="edge31" class="edge"><title>Node23&#45;&gt;Node2</title>
<path fill="none" stroke="midnightblue" d="M589.659,-224.368C551.089,-205.171 458.009,-158.842 412.267,-136.074"/>
<polygon fill="midnightblue" stroke="midnightblue" points="413.773,-132.914 403.261,-131.591 410.654,-139.181 413.773,-132.914"/>
</g>
<!-- Node23&#45;&gt;Node13 -->
<g id="edge34" class="edge"><title>Node23&#45;&gt;Node13</title>
<path fill="none" stroke="midnightblue" d="M595.734,-224.427C586.034,-216.275 572.721,-203.046 567,-188 553.982,-153.759 558.699,-110.021 563.03,-85.6134"/>
<polygon fill="midnightblue" stroke="midnightblue" points="566.507,-86.071 564.987,-75.5857 559.636,-84.7302 566.507,-86.071"/>
</g>
<!-- Node23&#45;&gt;Node15 -->
<g id="edge35" class="edge"><title>Node23&#45;&gt;Node15</title>
<path fill="none" stroke="midnightblue" d="M612.698,-224.429C618.254,-215.654 626.505,-201.435 631,-188 642.654,-153.167 647.231,-110.252 648.976,-86.0202"/>
<polygon fill="midnightblue" stroke="midnightblue" points="652.488,-85.943 649.624,-75.7427 645.502,-85.5028 652.488,-85.943"/>
</g>
<!-- Node23&#45;&gt;Node20 -->
<g id="edge32" class="edge"><title>Node23&#45;&gt;Node20</title>
<path fill="none" stroke="midnightblue" d="M621.46,-224.324C635.5,-215.9 657.048,-202.971 673.543,-193.074"/>
<polygon fill="midnightblue" stroke="midnightblue" points="675.802,-195.801 682.576,-187.655 672.2,-189.798 675.802,-195.801"/>
</g>
<!-- Node24 -->
<g id="node24" class="node"><title>Node24</title>
<polygon fill="white" stroke="#bfbfbf" points="576,-168.5 576,-187.5 622,-187.5 622,-168.5 576,-168.5"/>
<text text-anchor="middle" x="599" y="-175.5" font-family="Helvetica,sans-Serif" font-size="10.00">vector</text>
</g>
<!-- Node23&#45;&gt;Node24 -->
<g id="edge33" class="edge"><title>Node23&#45;&gt;Node24</title>
<path fill="none" stroke="midnightblue" d="M605.679,-224.083C604.619,-216.927 603.094,-206.635 601.769,-197.691"/>
<polygon fill="midnightblue" stroke="midnightblue" points="605.224,-197.13 600.296,-187.751 598.3,-198.156 605.224,-197.13"/>
</g>
<!-- Node25&#45;&gt;Node2 -->
<g id="edge38" class="edge"><title>Node25&#45;&gt;Node2</title>
<path fill="none" stroke="midnightblue" d="M482.24,-455.716C420.219,-451.33 289,-432.005 289,-347 289,-347 289,-347 289,-233 289,-189.347 332.505,-154.828 361.244,-136.787"/>
<polygon fill="midnightblue" stroke="midnightblue" points="363.226,-139.679 369.982,-131.518 359.611,-133.684 363.226,-139.679"/>
</g>
<!-- Node25&#45;&gt;Node17 -->
<g id="edge46" class="edge"><title>Node25&#45;&gt;Node17</title>
<path fill="none" stroke="midnightblue" d="M508.716,-448.083C504.289,-440.613 497.837,-429.724 492.382,-420.52"/>
<polygon fill="midnightblue" stroke="midnightblue" points="495.295,-418.57 487.186,-411.751 489.273,-422.138 495.295,-418.57"/>
</g>
<!-- Node25&#45;&gt;Node18 -->
<g id="edge40" class="edge"><title>Node25&#45;&gt;Node18</title>
<path fill="none" stroke="midnightblue" d="M520.561,-448.445C530.262,-435.88 549.107,-411.781 566,-392 574.322,-382.255 583.959,-371.647 591.797,-363.178"/>
<polygon fill="midnightblue" stroke="midnightblue" points="594.404,-365.516 598.66,-355.813 589.282,-360.743 594.404,-365.516"/>
</g>
<!-- Node25&#45;&gt;Node22 -->
<g id="edge39" class="edge"><title>Node25&#45;&gt;Node22</title>
<path fill="none" stroke="midnightblue" d="M545.68,-454.897C600.254,-450.589 708.596,-438.816 734,-412 760.083,-384.467 758.536,-336.469 755.214,-309.954"/>
<polygon fill="midnightblue" stroke="midnightblue" points="758.628,-309.113 753.707,-299.73 751.703,-310.134 758.628,-309.113"/>
</g>
<!-- Node26 -->
<g id="node26" class="node"><title>Node26</title>
<g id="a_node26"><a xlink:href="../../d1/da4/cccc__prj_8h.html" target="_top" xlink:title="cccc_prj.h">
<polygon fill="white" stroke="black" points="575,-392.5 575,-411.5 639,-411.5 639,-392.5 575,-392.5"/>
<text text-anchor="middle" x="607" y="-399.5" font-family="Helvetica,sans-Serif" font-size="10.00">cccc_prj.h</text>
</a>
</g>
</g>
<!-- Node25&#45;&gt;Node26 -->
<g id="edge41" class="edge"><title>Node25&#45;&gt;Node26</title>
<path fill="none" stroke="midnightblue" d="M528.942,-448.324C543.585,-439.822 566.134,-426.729 583.238,-416.797"/>
<polygon fill="midnightblue" stroke="midnightblue" points="585.205,-419.703 592.095,-411.655 581.69,-413.649 585.205,-419.703"/>
</g>
<!-- Node27 -->
<g id="node27" class="node"><title>Node27</title>
<g id="a_node27"><a xlink:href="../../df/d69/cccc__mod_8h.html" target="_top" xlink:title="cccc_mod.h">
<polygon fill="white" stroke="black" points="355,-392.5 355,-411.5 427,-411.5 427,-392.5 355,-392.5"/>
<text text-anchor="middle" x="391" y="-399.5" font-family="Helvetica,sans-Serif" font-size="10.00">cccc_mod.h</text>
</a>
</g>
</g>
<!-- Node25&#45;&gt;Node27 -->
<g id="edge43" class="edge"><title>Node25&#45;&gt;Node27</title>
<path fill="none" stroke="midnightblue" d="M494.51,-448.444C474.358,-439.596 442.677,-425.687 419.669,-415.586"/>
<polygon fill="midnightblue" stroke="midnightblue" points="420.962,-412.332 410.399,-411.516 418.148,-418.741 420.962,-412.332"/>
</g>
<!-- Node28 -->
<g id="node28" class="node"><title>Node28</title>
<g id="a_node28"><a xlink:href="../../d4/d96/cccc__use_8h.html" target="_top" xlink:title="cccc_use.h">
<polygon fill="white" stroke="black" points="657,-392.5 657,-411.5 725,-411.5 725,-392.5 657,-392.5"/>
<text text-anchor="middle" x="691" y="-399.5" font-family="Helvetica,sans-Serif" font-size="10.00">cccc_use.h</text>
</a>
</g>
</g>
<!-- Node25&#45;&gt;Node28 -->
<g id="edge47" class="edge"><title>Node25&#45;&gt;Node28</title>
<path fill="none" stroke="midnightblue" d="M542.046,-448.444C572.082,-439.28 619.913,-424.688 653.243,-414.519"/>
<polygon fill="midnightblue" stroke="midnightblue" points="654.542,-417.782 663.085,-411.516 652.499,-411.087 654.542,-417.782"/>
</g>
<!-- Node26&#45;&gt;Node18 -->
<g id="edge42" class="edge"><title>Node26&#45;&gt;Node18</title>
<path fill="none" stroke="midnightblue" d="M607,-392.083C607,-385.006 607,-374.861 607,-365.986"/>
<polygon fill="midnightblue" stroke="midnightblue" points="610.5,-365.751 607,-355.751 603.5,-365.751 610.5,-365.751"/>
</g>
<!-- Node27&#45;&gt;Node2 -->
<g id="edge44" class="edge"><title>Node27&#45;&gt;Node2</title>
<path fill="none" stroke="midnightblue" d="M389.748,-392.097C385.716,-362.912 373.092,-267.451 369,-188 368.543,-179.123 367.403,-176.744 369,-168 370.688,-158.757 374.175,-148.948 377.554,-140.855"/>
<polygon fill="midnightblue" stroke="midnightblue" points="380.763,-142.252 381.634,-131.693 374.369,-139.405 380.763,-142.252"/>
</g>
<!-- Node27&#45;&gt;Node18 -->
<g id="edge45" class="edge"><title>Node27&#45;&gt;Node18</title>
<path fill="none" stroke="midnightblue" d="M425.226,-392.444C462.621,-383.095 522.621,-368.095 563.37,-357.907"/>
<polygon fill="midnightblue" stroke="midnightblue" points="564.437,-361.248 573.29,-355.428 562.74,-354.457 564.437,-361.248"/>
</g>
<!-- Node28&#45;&gt;Node18 -->
<g id="edge48" class="edge"><title>Node28&#45;&gt;Node18</title>
<path fill="none" stroke="midnightblue" d="M677.504,-392.324C664.4,-383.9 644.288,-370.971 628.893,-361.074"/>
<polygon fill="midnightblue" stroke="midnightblue" points="630.767,-358.118 620.463,-355.655 626.982,-364.006 630.767,-358.118"/>
</g>
</g>
</svg>
