<?xml version="1.0" encoding="UTF-8" standalone="no"?>
<!DOCTYPE svg PUBLIC "-//W3C//DTD SVG 1.1//EN"
 "http://www.w3.org/Graphics/SVG/1.1/DTD/svg11.dtd">
<!-- Generated by graphviz version 2.38.0 (20140413.2041)
 -->
<!-- Title: cccc_mod.h Pages: 1 -->
<!--zoomable 308 -->
<svg id="main" version="1.1" xmlns="http://www.w3.org/2000/svg" xmlns:xlink="http://www.w3.org/1999/xlink" xml:space="preserve" onload="init(evt)">
<style type="text/css"><![CDATA[
.edge:hover path { stroke: red; }
.edge:hover polygon { stroke: red; fill: red; }
]]></style>
<script type="text/javascript"><![CDATA[
var edges = document.getElementsByTagName('g');
if (edges && edges.length) {
  for (var i=0;i<edges.length;i++) {
    if (edges[i].id.substr(0,4)=='edge') {
      edges[i].setAttribute('class','edge');
    }
  }
}
]]></script>
        <defs>
                <circle id="rim" cx="0" cy="0" r="7"/>
                <circle id="rim2" cx="0" cy="0" r="3.5"/>
                <g id="zoomPlus">
                        <use xlink:href="#rim" fill="#404040">
                                <set attributeName="fill" to="#808080" begin="zoomplus.mouseover" end="zoomplus.mouseout"/>
                        </use>
                        <path d="M-4,0h8M0,-4v8" fill="none" stroke="white" stroke-width="1.5" pointer-events="none"/>
                </g>
                <g id="zoomMin">
                        <use xlink:href="#rim" fill="#404040">
                                <set attributeName="fill" to="#808080" begin="zoomminus.mouseover" end="zoomminus.mouseout"/>
                        </use>
                        <path d="M-4,0h8" fill="none" stroke="white" stroke-width="1.5" pointer-events="none"/>
                </g>
                <g id="dirArrow">
                        <path fill="none" stroke="white" stroke-width="1.5" d="M0,-3.0v7 M-2.5,-0.5L0,-3.0L2.5,-0.5"/>
                </g>
               <g id="resetDef">
                       <use xlink:href="#rim2" fill="#404040">
                               <set attributeName="fill" to="#808080" begin="reset.mouseover" end="reset.mouseout"/>
                       </use>
               </g>
        </defs>

<script type="text/javascript">
var viewWidth = 980;
var viewHeight = 308;
var sectionId = 'dynsection-1';
</script>
<script xlink:href="../../svgpan.js"/>
<svg id="graph" class="graph">
<g id="viewport">
<title>cccc_mod.h</title>
<polygon fill="white" stroke="none" points="-4,4 -4,-304 976.064,-304 976.064,4 -4,4"/>
<!-- Node1 -->
<g id="node1" class="node"><title>Node1</title>
<polygon fill="#bfbfbf" stroke="black" points="594.564,-280.5 594.564,-299.5 666.564,-299.5 666.564,-280.5 594.564,-280.5"/>
<text text-anchor="middle" x="630.564" y="-287.5" font-family="Helvetica,sans-Serif" font-size="10.00">cccc_mod.h</text>
</g>
<!-- Node2 -->
<g id="node2" class="node"><title>Node2</title>
<g id="a_node2"><a xlink:href="../../d7/d44/cccc__db_8h.html" target="_top" xlink:title="cccc_db.h">
<polygon fill="white" stroke="black" points="464.064,-224.5 464.064,-243.5 527.064,-243.5 527.064,-224.5 464.064,-224.5"/>
<text text-anchor="middle" x="495.564" y="-231.5" font-family="Helvetica,sans-Serif" font-size="10.00">cccc_db.h</text>
</a>
</g>
</g>
<!-- Node1&#45;&gt;Node2 -->
<g id="edge1" class="edge"><title>Node1&#45;&gt;Node2</title>
<path fill="none" stroke="midnightblue" d="M599.658,-276.638C574.324,-266.504 539.133,-252.427 516.855,-243.516"/>
<polygon fill="midnightblue" stroke="midnightblue" points="598.588,-279.979 609.173,-280.444 601.188,-273.48 598.588,-279.979"/>
</g>
<!-- Node15 -->
<g id="node15" class="node"><title>Node15</title>
<g id="a_node15"><a xlink:href="../../de/d79/cccc__mod_8cc.html" target="_top" xlink:title="cccc_mod.cc">
<polygon fill="white" stroke="black" points="895.064,-168.5 895.064,-187.5 972.064,-187.5 972.064,-168.5 895.064,-168.5"/>
<text text-anchor="middle" x="933.564" y="-175.5" font-family="Helvetica,sans-Serif" font-size="10.00">cccc_mod.cc</text>
</a>
</g>
</g>
<!-- Node1&#45;&gt;Node15 -->
<g id="edge27" class="edge"><title>Node1&#45;&gt;Node15</title>
<path fill="none" stroke="midnightblue" d="M663.991,-276.865C725.76,-254.44 856.35,-207.032 909.899,-187.591"/>
<polygon fill="midnightblue" stroke="midnightblue" points="662.545,-273.666 654.34,-280.368 664.934,-280.246 662.545,-273.666"/>
</g>
<!-- Node3 -->
<g id="node3" class="node"><title>Node3</title>
<g id="a_node3"><a xlink:href="../../d8/d19/cccc__db_8cc.html" target="_top" xlink:title="cccc_db.cc">
<polygon fill="white" stroke="black" points="680.564,-168.5 680.564,-187.5 748.564,-187.5 748.564,-168.5 680.564,-168.5"/>
<text text-anchor="middle" x="714.564" y="-175.5" font-family="Helvetica,sans-Serif" font-size="10.00">cccc_db.cc</text>
</a>
</g>
</g>
<!-- Node2&#45;&gt;Node3 -->
<g id="edge2" class="edge"><title>Node2&#45;&gt;Node3</title>
<path fill="none" stroke="midnightblue" d="M537.224,-222.728C578.785,-212.48 641.862,-196.927 680.518,-187.395"/>
<polygon fill="midnightblue" stroke="midnightblue" points="536.28,-219.356 527.409,-225.148 537.956,-226.152 536.28,-219.356"/>
</g>
<!-- Node4 -->
<g id="node4" class="node"><title>Node4</title>
<g id="a_node4"><a xlink:href="../../d6/dd5/cccc__ext_8cc.html" target="_top" xlink:title="cccc_ext.cc">
<polygon fill="white" stroke="black" points="767.064,-168.5 767.064,-187.5 838.064,-187.5 838.064,-168.5 767.064,-168.5"/>
<text text-anchor="middle" x="802.564" y="-175.5" font-family="Helvetica,sans-Serif" font-size="10.00">cccc_ext.cc</text>
</a>
</g>
</g>
<!-- Node2&#45;&gt;Node4 -->
<g id="edge3" class="edge"><title>Node2&#45;&gt;Node4</title>
<path fill="none" stroke="midnightblue" d="M537.187,-226.211C588.921,-217.69 679.879,-202.437 757.564,-188 760.541,-187.447 763.625,-186.86 766.72,-186.261"/>
<polygon fill="midnightblue" stroke="midnightblue" points="536.371,-222.798 527.071,-227.874 537.506,-229.706 536.371,-222.798"/>
</g>
<!-- Node5 -->
<g id="node5" class="node"><title>Node5</title>
<g id="a_node5"><a xlink:href="../../d9/db9/cccc__htm_8h.html" target="_top" xlink:title="cccc_htm.h">
<polygon fill="white" stroke="black" points="113.064,-112.5 113.064,-131.5 182.064,-131.5 182.064,-112.5 113.064,-112.5"/>
<text text-anchor="middle" x="147.564" y="-119.5" font-family="Helvetica,sans-Serif" font-size="10.00">cccc_htm.h</text>
</a>
</g>
</g>
<!-- Node2&#45;&gt;Node5 -->
<g id="edge4" class="edge"><title>Node2&#45;&gt;Node5</title>
<path fill="none" stroke="midnightblue" d="M453.752,-230.849C363.207,-225.765 155.425,-211.623 134.564,-188 120.548,-172.128 133.396,-145.493 141.731,-131.766"/>
<polygon fill="midnightblue" stroke="midnightblue" points="453.76,-234.355 463.937,-231.411 454.145,-227.366 453.76,-234.355"/>
</g>
<!-- Node7 -->
<g id="node7" class="node"><title>Node7</title>
<g id="a_node7"><a xlink:href="../../d1/d81/cccc__tpl_8cc.html" target="_top" xlink:title="cccc_tpl.cc">
<polygon fill="white" stroke="black" points="12.5641,-56.5 12.5641,-75.5 80.5641,-75.5 80.5641,-56.5 12.5641,-56.5"/>
<text text-anchor="middle" x="46.5641" y="-63.5" font-family="Helvetica,sans-Serif" font-size="10.00">cccc_tpl.cc</text>
</a>
</g>
</g>
<!-- Node2&#45;&gt;Node7 -->
<g id="edge22" class="edge"><title>Node2&#45;&gt;Node7</title>
<path fill="none" stroke="midnightblue" d="M453.853,-231.858C369.149,-228.914 180.297,-218.977 124.564,-188 79.1249,-162.744 56.0322,-98.6503 48.9699,-75.5028"/>
<polygon fill="midnightblue" stroke="midnightblue" points="453.78,-235.358 463.891,-232.191 454.013,-228.362 453.78,-235.358"/>
</g>
<!-- Node8 -->
<g id="node8" class="node"><title>Node8</title>
<g id="a_node8"><a xlink:href="../../d9/d64/cccc__xml_8h.html" target="_top" xlink:title="cccc_xml.h">
<polygon fill="white" stroke="black" points="331.564,-56.5 331.564,-75.5 399.564,-75.5 399.564,-56.5 331.564,-56.5"/>
<text text-anchor="middle" x="365.564" y="-63.5" font-family="Helvetica,sans-Serif" font-size="10.00">cccc_xml.h</text>
</a>
</g>
</g>
<!-- Node2&#45;&gt;Node8 -->
<g id="edge25" class="edge"><title>Node2&#45;&gt;Node8</title>
<path fill="none" stroke="midnightblue" d="M537.451,-230.687C626.134,-225.362 826.406,-210.908 846.564,-188 852.436,-181.327 852.167,-174.901 846.564,-168 789.826,-98.1104 499.856,-74.8164 399.667,-68.7867"/>
<polygon fill="midnightblue" stroke="midnightblue" points="536.986,-227.208 527.209,-231.291 537.398,-234.196 536.986,-227.208"/>
</g>
<!-- Node10 -->
<g id="node10" class="node"><title>Node10</title>
<g id="a_node10"><a xlink:href="../../d6/d93/ccccmain_8cc.html" target="_top" xlink:title="ccccmain.cc">
<polygon fill="white" stroke="black" points="183.064,-0.5 183.064,-19.5 256.064,-19.5 256.064,-0.5 183.064,-0.5"/>
<text text-anchor="middle" x="219.564" y="-7.5" font-family="Helvetica,sans-Serif" font-size="10.00">ccccmain.cc</text>
</a>
</g>
</g>
<!-- Node2&#45;&gt;Node10 -->
<g id="edge26" class="edge"><title>Node2&#45;&gt;Node10</title>
<path fill="none" stroke="midnightblue" d="M453.734,-232.154C364.452,-229.729 158.417,-220.659 97.5641,-188 40.3035,-157.268 25.794,-137.066 3.56412,-76 0.523482,-67.6473 -2.0438,-62.8966 3.56412,-56 25.7368,-28.732 127.103,-17.4343 182.739,-13.2223"/>
<polygon fill="midnightblue" stroke="midnightblue" points="453.687,-235.654 463.773,-232.412 453.866,-228.656 453.687,-235.654"/>
</g>
<!-- Node11 -->
<g id="node11" class="node"><title>Node11</title>
<g id="a_node11"><a xlink:href="../../d4/df8/cccc__met_8h.html" target="_top" xlink:title="cccc_met.h">
<polygon fill="white" stroke="black" points="144.064,-168.5 144.064,-187.5 213.064,-187.5 213.064,-168.5 144.064,-168.5"/>
<text text-anchor="middle" x="178.564" y="-175.5" font-family="Helvetica,sans-Serif" font-size="10.00">cccc_met.h</text>
</a>
</g>
</g>
<!-- Node2&#45;&gt;Node11 -->
<g id="edge11" class="edge"><title>Node2&#45;&gt;Node11</title>
<path fill="none" stroke="midnightblue" d="M453.658,-226.698C399.82,-218.469 303.531,-203.301 221.564,-188 218.865,-187.496 216.075,-186.956 213.272,-186.4"/>
<polygon fill="midnightblue" stroke="midnightblue" points="453.429,-230.204 463.843,-228.249 454.484,-223.283 453.429,-230.204"/>
</g>
<!-- Node14 -->
<g id="node14" class="node"><title>Node14</title>
<g id="a_node14"><a xlink:href="../../d0/d4a/cccc__mem_8cc.html" target="_top" xlink:title="cccc_mem.cc">
<polygon fill="white" stroke="black" points="231.064,-168.5 231.064,-187.5 310.064,-187.5 310.064,-168.5 231.064,-168.5"/>
<text text-anchor="middle" x="270.564" y="-175.5" font-family="Helvetica,sans-Serif" font-size="10.00">cccc_mem.cc</text>
</a>
</g>
</g>
<!-- Node2&#45;&gt;Node14 -->
<g id="edge18" class="edge"><title>Node2&#45;&gt;Node14</title>
<path fill="none" stroke="midnightblue" d="M454.065,-223.04C411.638,-212.858 346.428,-197.207 306.246,-187.564"/>
<polygon fill="midnightblue" stroke="midnightblue" points="453.264,-226.447 463.804,-225.378 454.897,-219.64 453.264,-226.447"/>
</g>
<!-- Node2&#45;&gt;Node15 -->
<g id="edge19" class="edge"><title>Node2&#45;&gt;Node15</title>
<path fill="none" stroke="midnightblue" d="M537.353,-228.833C608.133,-221.615 756.057,-205.836 880.564,-188 885.184,-187.338 890.02,-186.592 894.813,-185.819"/>
<polygon fill="midnightblue" stroke="midnightblue" points="536.671,-225.384 527.076,-229.876 537.378,-232.348 536.671,-225.384"/>
</g>
<!-- Node16 -->
<g id="node16" class="node"><title>Node16</title>
<g id="a_node16"><a xlink:href="../../d7/d4b/cccc__prj_8cc.html" target="_top" xlink:title="cccc_prj.cc">
<polygon fill="white" stroke="black" points="328.564,-168.5 328.564,-187.5 396.564,-187.5 396.564,-168.5 328.564,-168.5"/>
<text text-anchor="middle" x="362.564" y="-175.5" font-family="Helvetica,sans-Serif" font-size="10.00">cccc_prj.cc</text>
</a>
</g>
</g>
<!-- Node2&#45;&gt;Node16 -->
<g id="edge20" class="edge"><title>Node2&#45;&gt;Node16</title>
<path fill="none" stroke="midnightblue" d="M465.116,-220.638C440.157,-210.504 405.487,-196.427 383.54,-187.516"/>
<polygon fill="midnightblue" stroke="midnightblue" points="463.908,-223.924 474.49,-224.444 466.541,-217.439 463.908,-223.924"/>
</g>
<!-- Node17 -->
<g id="node17" class="node"><title>Node17</title>
<g id="a_node17"><a xlink:href="../../df/d79/cccc__rec_8cc.html" target="_top" xlink:title="cccc_rec.cc">
<polygon fill="white" stroke="black" points="415.064,-168.5 415.064,-187.5 486.064,-187.5 486.064,-168.5 415.064,-168.5"/>
<text text-anchor="middle" x="450.564" y="-175.5" font-family="Helvetica,sans-Serif" font-size="10.00">cccc_rec.cc</text>
</a>
</g>
</g>
<!-- Node2&#45;&gt;Node17 -->
<g id="edge21" class="edge"><title>Node2&#45;&gt;Node17</title>
<path fill="none" stroke="midnightblue" d="M481.517,-216.144C473.677,-206.736 464.235,-195.405 457.857,-187.751"/>
<polygon fill="midnightblue" stroke="midnightblue" points="479.043,-218.641 488.133,-224.083 484.42,-214.16 479.043,-218.641"/>
</g>
<!-- Node18 -->
<g id="node18" class="node"><title>Node18</title>
<g id="a_node18"><a xlink:href="../../de/d05/cccc__use_8cc.html" target="_top" xlink:title="cccc_use.cc">
<polygon fill="white" stroke="black" points="504.064,-168.5 504.064,-187.5 577.064,-187.5 577.064,-168.5 504.064,-168.5"/>
<text text-anchor="middle" x="540.564" y="-175.5" font-family="Helvetica,sans-Serif" font-size="10.00">cccc_use.cc</text>
</a>
</g>
</g>
<!-- Node2&#45;&gt;Node18 -->
<g id="edge23" class="edge"><title>Node2&#45;&gt;Node18</title>
<path fill="none" stroke="midnightblue" d="M509.611,-216.144C517.451,-206.736 526.894,-195.405 533.272,-187.751"/>
<polygon fill="midnightblue" stroke="midnightblue" points="506.708,-214.16 502.995,-224.083 512.086,-218.641 506.708,-214.16"/>
</g>
<!-- Node19 -->
<g id="node19" class="node"><title>Node19</title>
<g id="a_node19"><a xlink:href="../../dc/d0b/cccc__utl_8cc.html" target="_top" xlink:title="cccc_utl.cc">
<polygon fill="white" stroke="black" points="595.064,-168.5 595.064,-187.5 662.064,-187.5 662.064,-168.5 595.064,-168.5"/>
<text text-anchor="middle" x="628.564" y="-175.5" font-family="Helvetica,sans-Serif" font-size="10.00">cccc_utl.cc</text>
</a>
</g>
</g>
<!-- Node2&#45;&gt;Node19 -->
<g id="edge24" class="edge"><title>Node2&#45;&gt;Node19</title>
<path fill="none" stroke="midnightblue" d="M526.012,-220.638C550.971,-210.504 585.641,-196.427 607.588,-187.516"/>
<polygon fill="midnightblue" stroke="midnightblue" points="524.587,-217.439 516.638,-224.444 527.22,-223.924 524.587,-217.439"/>
</g>
<!-- Node6 -->
<g id="node6" class="node"><title>Node6</title>
<g id="a_node6"><a xlink:href="../../d5/dcb/cccc__htm_8cc.html" target="_top" xlink:title="cccc_htm.cc">
<polygon fill="white" stroke="black" points="98.5641,-56.5 98.5641,-75.5 172.564,-75.5 172.564,-56.5 98.5641,-56.5"/>
<text text-anchor="middle" x="135.564" y="-63.5" font-family="Helvetica,sans-Serif" font-size="10.00">cccc_htm.cc</text>
</a>
</g>
</g>
<!-- Node5&#45;&gt;Node6 -->
<g id="edge5" class="edge"><title>Node5&#45;&gt;Node6</title>
<path fill="none" stroke="midnightblue" d="M143.364,-102.101C141.372,-93.1357 139.088,-82.8579 137.509,-75.7511"/>
<polygon fill="midnightblue" stroke="midnightblue" points="139.997,-103.08 145.583,-112.083 146.83,-101.562 139.997,-103.08"/>
</g>
<!-- Node5&#45;&gt;Node7 -->
<g id="edge6" class="edge"><title>Node5&#45;&gt;Node7</title>
<path fill="none" stroke="midnightblue" d="M122.482,-107.59C103.807,-97.6052 78.8601,-84.2672 62.7512,-75.6545"/>
<polygon fill="midnightblue" stroke="midnightblue" points="120.868,-110.696 131.337,-112.324 124.168,-104.522 120.868,-110.696"/>
</g>
<!-- Node5&#45;&gt;Node8 -->
<g id="edge7" class="edge"><title>Node5&#45;&gt;Node8</title>
<path fill="none" stroke="midnightblue" d="M191.906,-110.016C233.216,-99.7834 293.932,-84.7437 331.542,-75.4275"/>
<polygon fill="midnightblue" stroke="midnightblue" points="190.972,-106.642 182.107,-112.444 192.655,-113.436 190.972,-106.642"/>
</g>
<!-- Node5&#45;&gt;Node10 -->
<g id="edge10" class="edge"><title>Node5&#45;&gt;Node10</title>
<path fill="none" stroke="midnightblue" d="M161.047,-104.143C167.496,-95.838 175.182,-85.5727 181.564,-76 194.616,-56.4232 208.101,-32.2412 214.956,-19.6086"/>
<polygon fill="midnightblue" stroke="midnightblue" points="158.092,-102.239 154.655,-112.261 163.592,-106.569 158.092,-102.239"/>
</g>
<!-- Node9 -->
<g id="node9" class="node"><title>Node9</title>
<g id="a_node9"><a xlink:href="../../db/d75/cccc__xml_8cc.html" target="_top" xlink:title="cccc_xml.cc">
<polygon fill="white" stroke="black" points="329.564,-0.5 329.564,-19.5 401.564,-19.5 401.564,-0.5 329.564,-0.5"/>
<text text-anchor="middle" x="365.564" y="-7.5" font-family="Helvetica,sans-Serif" font-size="10.00">cccc_xml.cc</text>
</a>
</g>
</g>
<!-- Node8&#45;&gt;Node9 -->
<g id="edge8" class="edge"><title>Node8&#45;&gt;Node9</title>
<path fill="none" stroke="midnightblue" d="M365.564,-45.8045C365.564,-36.9102 365.564,-26.7798 365.564,-19.7511"/>
<polygon fill="midnightblue" stroke="midnightblue" points="362.064,-46.083 365.564,-56.083 369.064,-46.083 362.064,-46.083"/>
</g>
<!-- Node8&#45;&gt;Node10 -->
<g id="edge9" class="edge"><title>Node8&#45;&gt;Node10</title>
<path fill="none" stroke="midnightblue" d="M332.865,-52.9058C305.416,-42.7536 266.896,-28.5063 242.59,-19.5164"/>
<polygon fill="midnightblue" stroke="midnightblue" points="331.837,-56.2572 342.43,-56.4435 334.265,-49.6919 331.837,-56.2572"/>
</g>
<!-- Node11&#45;&gt;Node5 -->
<g id="edge12" class="edge"><title>Node11&#45;&gt;Node5</title>
<path fill="none" stroke="midnightblue" d="M168.388,-159.275C163.09,-150.045 156.847,-139.17 152.588,-131.751"/>
<polygon fill="midnightblue" stroke="midnightblue" points="165.431,-161.153 173.445,-168.083 171.502,-157.668 165.431,-161.153"/>
</g>
<!-- Node11&#45;&gt;Node7 -->
<g id="edge15" class="edge"><title>Node11&#45;&gt;Node7</title>
<path fill="none" stroke="midnightblue" d="M151.664,-163.522C136.745,-155.412 118.289,-144.294 103.564,-132 82.5949,-114.493 62.6317,-89.0258 52.8425,-75.7653"/>
<polygon fill="midnightblue" stroke="midnightblue" points="150.406,-166.816 160.882,-168.399 153.679,-160.629 150.406,-166.816"/>
</g>
<!-- Node11&#45;&gt;Node8 -->
<g id="edge16" class="edge"><title>Node11&#45;&gt;Node8</title>
<path fill="none" stroke="midnightblue" d="M223.476,-167.958C278.105,-160.136 385.01,-162.881 410.564,-132 426.402,-112.861 397.349,-88.2925 378.966,-75.5398"/>
<polygon fill="midnightblue" stroke="midnightblue" points="222.566,-164.562 213.287,-169.676 223.73,-171.464 222.566,-164.562"/>
</g>
<!-- Node11&#45;&gt;Node10 -->
<g id="edge17" class="edge"><title>Node11&#45;&gt;Node10</title>
<path fill="none" stroke="midnightblue" d="M183.611,-158.5C185.796,-150.381 188.354,-140.73 190.564,-132 201.219,-89.9078 213.02,-39.3206 217.599,-19.5268"/>
<polygon fill="midnightblue" stroke="midnightblue" points="180.168,-157.823 180.93,-168.39 186.924,-159.654 180.168,-157.823"/>
</g>
<!-- Node12 -->
<g id="node12" class="node"><title>Node12</title>
<g id="a_node12"><a xlink:href="../../df/df6/cccc__met_8cc.html" target="_top" xlink:title="cccc_met.cc">
<polygon fill="white" stroke="black" points="238.564,-112.5 238.564,-131.5 312.564,-131.5 312.564,-112.5 238.564,-112.5"/>
<text text-anchor="middle" x="275.564" y="-119.5" font-family="Helvetica,sans-Serif" font-size="10.00">cccc_met.cc</text>
</a>
</g>
</g>
<!-- Node11&#45;&gt;Node12 -->
<g id="edge13" class="edge"><title>Node11&#45;&gt;Node12</title>
<path fill="none" stroke="midnightblue" d="M202.899,-163.453C220.807,-153.483 244.618,-140.228 260.018,-131.655"/>
<polygon fill="midnightblue" stroke="midnightblue" points="201.184,-160.402 194.149,-168.324 204.589,-166.518 201.184,-160.402"/>
</g>
<!-- Node13 -->
<g id="node13" class="node"><title>Node13</title>
<g id="a_node13"><a xlink:href="../../d5/d39/cccc__opt_8cc.html" target="_top" xlink:title="cccc_opt.cc">
<polygon fill="white" stroke="black" points="331.064,-112.5 331.064,-131.5 402.064,-131.5 402.064,-112.5 331.064,-112.5"/>
<text text-anchor="middle" x="366.564" y="-119.5" font-family="Helvetica,sans-Serif" font-size="10.00">cccc_opt.cc</text>
</a>
</g>
</g>
<!-- Node11&#45;&gt;Node13 -->
<g id="edge14" class="edge"><title>Node11&#45;&gt;Node13</title>
<path fill="none" stroke="midnightblue" d="M218.365,-165.568C253.83,-155.381 304.93,-140.703 336.914,-131.516"/>
<polygon fill="midnightblue" stroke="midnightblue" points="216.998,-162.319 208.353,-168.444 218.931,-169.047 216.998,-162.319"/>
</g>
</g>
</svg>
        <g id="navigator" transform="translate(0 0)" fill="#404254">
                <rect fill="#f2f5e9" fill-opacity="0.5" stroke="#606060" stroke-width=".5" x="0" y="0" width="60" height="60"/>
                <use id="zoomplus" xlink:href="#zoomPlus" x="17" y="9" onmousedown="handleZoom(evt,'in')"/>
                <use id="zoomminus" xlink:href="#zoomMin" x="42" y="9" onmousedown="handleZoom(evt,'out')"/>
                <use id="reset" xlink:href="#resetDef" x="30" y="36" onmousedown="handleReset()"/>
                <g id="arrowUp" xlink:href="#dirArrow" transform="translate(30 24)" onmousedown="handlePan(0,-1)">
                  <use xlink:href="#rim" fill="#404040">
                        <set attributeName="fill" to="#808080" begin="arrowUp.mouseover" end="arrowUp.mouseout"/>
                  </use>
                  <path fill="none" stroke="white" stroke-width="1.5" d="M0,-3.0v7 M-2.5,-0.5L0,-3.0L2.5,-0.5"/>
                </g>
                <g id="arrowRight" xlink:href="#dirArrow" transform="rotate(90) translate(36 -43)" onmousedown="handlePan(1,0)">
                  <use xlink:href="#rim" fill="#404040">
                        <set attributeName="fill" to="#808080" begin="arrowRight.mouseover" end="arrowRight.mouseout"/>
                  </use>
                  <path fill="none" stroke="white" stroke-width="1.5" d="M0,-3.0v7 M-2.5,-0.5L0,-3.0L2.5,-0.5"/>
                </g>
                <g id="arrowDown" xlink:href="#dirArrow" transform="rotate(180) translate(-30 -48)" onmousedown="handlePan(0,1)">
                  <use xlink:href="#rim" fill="#404040">
                        <set attributeName="fill" to="#808080" begin="arrowDown.mouseover" end="arrowDown.mouseout"/>
                  </use>
                  <path fill="none" stroke="white" stroke-width="1.5" d="M0,-3.0v7 M-2.5,-0.5L0,-3.0L2.5,-0.5"/>
                </g>
                <g id="arrowLeft" xlink:href="#dirArrow" transform="rotate(270) translate(-36 17)" onmousedown="handlePan(-1,0)">
                  <use xlink:href="#rim" fill="#404040">
                        <set attributeName="fill" to="#808080" begin="arrowLeft.mouseover" end="arrowLeft.mouseout"/>
                  </use>
                  <path fill="none" stroke="white" stroke-width="1.5" d="M0,-3.0v7 M-2.5,-0.5L0,-3.0L2.5,-0.5"/>
                </g>
        </g>
        <svg viewBox="0 0 15 15" width="100%" height="30px" preserveAspectRatio="xMaxYMin meet">
         <g id="arrow_out" transform="scale(0.3 0.3)">
          <a xlink:href="cccc__mod_8h__dep__incl_org.svg" target="_base">
           <rect id="button" ry="5" rx="5" y="6" x="6" height="38" width="38"
                fill="#f2f5e9" fill-opacity="0.5" stroke="#606060" stroke-width="1.0"/>
           <path id="arrow"
             d="M 11.500037,31.436501 C 11.940474,20.09759 22.043105,11.32322 32.158766,21.979434 L 37.068811,17.246167 C 37.068811,17.246167 37.088388,32 37.088388,32 L 22.160133,31.978069 C 22.160133,31.978069 26.997745,27.140456 26.997745,27.140456 C 18.528582,18.264221 13.291696,25.230495 11.500037,31.436501 z"
             style="fill:#404040;"/>
          </a>
         </g>
        </svg>
</svg>
