<?xml version="1.0" encoding="UTF-8" standalone="no"?>
<!DOCTYPE svg PUBLIC "-//W3C//DTD SVG 1.1//EN"
 "http://www.w3.org/Graphics/SVG/1.1/DTD/svg11.dtd">
<!-- Generated by graphviz version 2.38.0 (20140413.2041)
 -->
<!-- Title: CCCC_Project Pages: 1 -->
<!--zoomable 725 -->
<svg id="main" version="1.1" xmlns="http://www.w3.org/2000/svg" xmlns:xlink="http://www.w3.org/1999/xlink" xml:space="preserve" onload="init(evt)">
<style type="text/css"><![CDATA[
.edge:hover path { stroke: red; }
.edge:hover polygon { stroke: red; fill: red; }
]]></style>
<script type="text/javascript"><![CDATA[
var edges = document.getElementsByTagName('g');
if (edges && edges.length) {
  for (var i=0;i<edges.length;i++) {
    if (edges[i].id.substr(0,4)=='edge') {
      edges[i].setAttribute('class','edge');
    }
  }
}
]]></script>
        <defs>
                <circle id="rim" cx="0" cy="0" r="7"/>
                <circle id="rim2" cx="0" cy="0" r="3.5"/>
                <g id="zoomPlus">
                        <use xlink:href="#rim" fill="#404040">
                                <set attributeName="fill" to="#808080" begin="zoomplus.mouseover" end="zoomplus.mouseout"/>
                        </use>
                        <path d="M-4,0h8M0,-4v8" fill="none" stroke="white" stroke-width="1.5" pointer-events="none"/>
                </g>
                <g id="zoomMin">
                        <use xlink:href="#rim" fill="#404040">
                                <set attributeName="fill" to="#808080" begin="zoomminus.mouseover" end="zoomminus.mouseout"/>
                        </use>
                        <path d="M-4,0h8" fill="none" stroke="white" stroke-width="1.5" pointer-events="none"/>
                </g>
                <g id="dirArrow">
                        <path fill="none" stroke="white" stroke-width="1.5" d="M0,-3.0v7 M-2.5,-0.5L0,-3.0L2.5,-0.5"/>
                </g>
               <g id="resetDef">
                       <use xlink:href="#rim2" fill="#404040">
                               <set attributeName="fill" to="#808080" begin="reset.mouseover" end="reset.mouseout"/>
                       </use>
               </g>
        </defs>

<script type="text/javascript">
var viewWidth = 1507;
var viewHeight = 725;
var sectionId = 'dynsection-1';
</script>
<script xlink:href="../../svgpan.js"/>
<svg id="graph" class="graph">
<g id="viewport">
<title>CCCC_Project</title>
<polygon fill="white" stroke="none" points="-4,4 -4,-720.93 1503,-720.93 1503,4 -4,4"/>
<!-- Node1 -->
<g id="node1" class="node"><title>Node1</title>
<polygon fill="#bfbfbf" stroke="black" points="1220,-295.43 1220,-314.43 1306,-314.43 1306,-295.43 1220,-295.43"/>
<text text-anchor="middle" x="1263" y="-302.43" font-family="Helvetica,sans-Serif" font-size="10.00">CCCC_Project</text>
</g>
<!-- Node2 -->
<g id="node2" class="node"><title>Node2</title>
<g id="a_node2"><a xlink:href="../../d6/d85/classCCCC__Record.html" target="_top" xlink:title="CCCC_Record">
<polygon fill="white" stroke="black" points="1412,-294.43 1412,-313.43 1499,-313.43 1499,-294.43 1412,-294.43"/>
<text text-anchor="middle" x="1455.5" y="-301.43" font-family="Helvetica,sans-Serif" font-size="10.00">CCCC_Record</text>
</a>
</g>
</g>
<!-- Node1&#45;&gt;Node2 -->
<g id="edge2" class="edge"><title>Node1&#45;&gt;Node2</title>
<path fill="none" stroke="#9a32cd" stroke-dasharray="5,2" d="M1316.55,-304.654C1346.49,-304.497 1383.52,-304.302 1411.68,-304.154"/>
<polygon fill="#9a32cd" stroke="#9a32cd" points="1316.26,-301.155 1306.28,-304.708 1316.3,-308.155 1316.26,-301.155"/>
<text text-anchor="middle" x="1359" y="-307.93" font-family="Helvetica,sans-Serif" font-size="10.00"> active_project</text>
</g>
<!-- Node2&#45;&gt;Node1 -->
<g id="edge1" class="edge"><title>Node2&#45;&gt;Node1</title>
<path fill="none" stroke="midnightblue" d="M1401.73,-302.082C1399.12,-302.023 1396.53,-301.971 1394,-301.93 1362.89,-301.416 1355.1,-301.153 1324,-301.93 1318.27,-302.073 1312.23,-302.293 1306.28,-302.55"/>
<polygon fill="midnightblue" stroke="midnightblue" points="1401.78,-305.585 1411.87,-302.343 1401.96,-298.587 1401.78,-305.585"/>
</g>
<!-- Node3 -->
<g id="node3" class="node"><title>Node3</title>
<g id="a_node3"><a xlink:title="STL class. ">
<polygon fill="white" stroke="#bfbfbf" points="212,-611.43 212,-630.43 274,-630.43 274,-611.43 212,-611.43"/>
<text text-anchor="middle" x="243" y="-618.43" font-family="Helvetica,sans-Serif" font-size="10.00">std::string</text>
</a>
</g>
</g>
<!-- Node3&#45;&gt;Node2 -->
<g id="edge3" class="edge"><title>Node3&#45;&gt;Node2</title>
<path fill="none" stroke="#9a32cd" stroke-dasharray="5,2" d="M266.53,-636.005C282.091,-645.803 303.583,-658.156 324,-665.93 401.805,-695.553 423.746,-705.93 507,-705.93 507,-705.93 507,-705.93 1264,-705.93 1443.56,-705.93 1454.1,-374.347 1454.52,-313.47"/>
<polygon fill="#9a32cd" stroke="#9a32cd" points="268.41,-633.052 258.107,-630.585 264.623,-638.939 268.41,-633.052"/>
<text text-anchor="middle" x="918" y="-708.93" font-family="Helvetica,sans-Serif" font-size="10.00"> flags</text>
</g>
<!-- Node11 -->
<g id="node11" class="node"><title>Node11</title>
<polygon fill="white" stroke="#bfbfbf" points="989,-361.93 989,-391.93 1103,-391.93 1103,-361.93 989,-361.93"/>
<text text-anchor="start" x="997" y="-379.93" font-family="Helvetica,sans-Serif" font-size="10.00">std::multimap&lt; string,</text>
<text text-anchor="middle" x="1046" y="-368.93" font-family="Helvetica,sans-Serif" font-size="10.00"> ExtentTableEntry &gt;</text>
</g>
<!-- Node3&#45;&gt;Node11 -->
<g id="edge12" class="edge"><title>Node3&#45;&gt;Node11</title>
<path fill="none" stroke="#9a32cd" stroke-dasharray="5,2" d="M284.281,-608.659C418.287,-567.839 848.878,-436.672 995.538,-391.997"/>
<polygon fill="#9a32cd" stroke="#9a32cd" points="282.968,-605.4 274.422,-611.662 285.008,-612.096 282.968,-605.4"/>
<text text-anchor="middle" x="657" y="-504.93" font-family="Helvetica,sans-Serif" font-size="10.00"> keys</text>
</g>
<!-- Node13 -->
<g id="node13" class="node"><title>Node13</title>
<g id="a_node13"><a xlink:href="../../df/d99/classCCCC__Extent.html" target="_top" xlink:title="CCCC_Extent">
<polygon fill="white" stroke="black" points="466.5,-395.43 466.5,-414.43 549.5,-414.43 549.5,-395.43 466.5,-395.43"/>
<text text-anchor="middle" x="508" y="-402.43" font-family="Helvetica,sans-Serif" font-size="10.00">CCCC_Extent</text>
</a>
</g>
</g>
<!-- Node3&#45;&gt;Node13 -->
<g id="edge18" class="edge"><title>Node3&#45;&gt;Node13</title>
<path fill="none" stroke="#9a32cd" stroke-dasharray="5,2" d="M254.199,-602.433C267.524,-579.829 292.865,-541.78 324,-518.93 347.358,-501.786 359.583,-509.839 385,-495.93 429.505,-471.575 475.878,-432.565 496.282,-414.582"/>
<polygon fill="#9a32cd" stroke="#9a32cd" points="251.023,-600.936 249.094,-611.353 257.099,-604.413 251.023,-600.936"/>
<text text-anchor="middle" x="354.5" y="-565.93" font-family="Helvetica,sans-Serif" font-size="10.00"> count_buffer</text>
<text text-anchor="middle" x="354.5" y="-554.93" font-family="Helvetica,sans-Serif" font-size="10.00">flags</text>
<text text-anchor="middle" x="354.5" y="-543.93" font-family="Helvetica,sans-Serif" font-size="10.00">linenumber</text>
<text text-anchor="middle" x="354.5" y="-532.93" font-family="Helvetica,sans-Serif" font-size="10.00">description</text>
<text text-anchor="middle" x="354.5" y="-521.93" font-family="Helvetica,sans-Serif" font-size="10.00">filename</text>
</g>
<!-- Node19 -->
<g id="node19" class="node"><title>Node19</title>
<polygon fill="white" stroke="#bfbfbf" points="711,-591.93 711,-621.93 837,-621.93 837,-591.93 711,-591.93"/>
<text text-anchor="start" x="719" y="-609.93" font-family="Helvetica,sans-Serif" font-size="10.00">std::map&lt; string, CCCC</text>
<text text-anchor="middle" x="774" y="-598.93" font-family="Helvetica,sans-Serif" font-size="10.00">_Item &gt;</text>
</g>
<!-- Node3&#45;&gt;Node19 -->
<g id="edge27" class="edge"><title>Node3&#45;&gt;Node19</title>
<path fill="none" stroke="#9a32cd" stroke-dasharray="5,2" d="M284.547,-626.383C297.162,-627.839 311.136,-629.208 324,-629.93 421.956,-635.422 540.931,-632.535 683,-619.93 691.963,-619.134 701.397,-618.049 710.647,-616.841"/>
<polygon fill="#9a32cd" stroke="#9a32cd" points="284.67,-622.872 274.323,-625.151 283.833,-629.822 284.67,-622.872"/>
<text text-anchor="middle" x="508" y="-635.93" font-family="Helvetica,sans-Serif" font-size="10.00"> keys</text>
</g>
<!-- Node20 -->
<g id="node20" class="node"><title>Node20</title>
<g id="a_node20"><a xlink:href="../../db/d6a/classCCCC__Item.html" target="_top" xlink:title="CCCC_Item">
<polygon fill="white" stroke="black" points="471.5,-591.43 471.5,-610.43 544.5,-610.43 544.5,-591.43 471.5,-591.43"/>
<text text-anchor="middle" x="508" y="-598.43" font-family="Helvetica,sans-Serif" font-size="10.00">CCCC_Item</text>
</a>
</g>
</g>
<!-- Node3&#45;&gt;Node20 -->
<g id="edge31" class="edge"><title>Node3&#45;&gt;Node20</title>
<path fill="none" stroke="#9a32cd" stroke-dasharray="5,2" d="M284.179,-617.874C335.226,-613.992 422.54,-607.352 471.334,-603.642"/>
<polygon fill="#9a32cd" stroke="#9a32cd" points="283.875,-614.387 274.169,-618.635 284.406,-621.367 283.875,-614.387"/>
<text text-anchor="middle" x="354.5" y="-617.93" font-family="Helvetica,sans-Serif" font-size="10.00"> buffer</text>
</g>
<!-- Node4 -->
<g id="node4" class="node"><title>Node4</title>
<g id="a_node4"><a xlink:title="STL class. ">
<polygon fill="white" stroke="#bfbfbf" points="0,-605.93 0,-635.93 98,-635.93 98,-605.93 0,-605.93"/>
<text text-anchor="start" x="8" y="-623.93" font-family="Helvetica,sans-Serif" font-size="10.00">std::basic_string&lt;</text>
<text text-anchor="middle" x="49" y="-612.93" font-family="Helvetica,sans-Serif" font-size="10.00"> char &gt;</text>
</a>
</g>
</g>
<!-- Node4&#45;&gt;Node3 -->
<g id="edge4" class="edge"><title>Node4&#45;&gt;Node3</title>
<path fill="none" stroke="midnightblue" d="M108.764,-620.93C142.843,-620.93 184.329,-620.93 211.861,-620.93"/>
<polygon fill="midnightblue" stroke="midnightblue" points="108.45,-617.43 98.4497,-620.93 108.45,-624.43 108.45,-617.43"/>
</g>
<!-- Node5 -->
<g id="node5" class="node"><title>Node5</title>
<g id="a_node5"><a xlink:href="../../d8/dcf/classCCCC__Table.html" target="_top" xlink:title="CCCC_Table\&lt; CCCC_Extent \&gt;">
<polygon fill="white" stroke="black" points="426.5,-170.43 426.5,-189.43 589.5,-189.43 589.5,-170.43 426.5,-170.43"/>
<text text-anchor="middle" x="508" y="-177.43" font-family="Helvetica,sans-Serif" font-size="10.00">CCCC_Table&lt; CCCC_Extent &gt;</text>
</a>
</g>
</g>
<!-- Node5&#45;&gt;Node1 -->
<g id="edge32" class="edge"><title>Node5&#45;&gt;Node1</title>
<path fill="none" stroke="#9a32cd" stroke-dasharray="5,2" d="M579.542,-191.097C704.915,-211.043 974.743,-254.409 1202,-293.93 1207.74,-294.928 1213.78,-296.004 1219.73,-297.08"/>
<polygon fill="#9a32cd" stroke="#9a32cd" points="579.741,-187.585 569.315,-189.471 578.642,-194.498 579.741,-187.585"/>
<text text-anchor="middle" x="918" y="-257.93" font-family="Helvetica,sans-Serif" font-size="10.00"> rejected_extent_table</text>
</g>
<!-- Node5&#45;&gt;Node2 -->
<g id="edge5" class="edge"><title>Node5&#45;&gt;Node2</title>
<path fill="none" stroke="#9a32cd" stroke-dasharray="5,2" d="M599.97,-186.147C668.078,-191.122 763.491,-198.769 847,-207.93 1060.34,-231.333 1313.18,-277.167 1411.97,-295.781"/>
<polygon fill="#9a32cd" stroke="#9a32cd" points="599.929,-182.635 589.702,-185.402 599.422,-189.616 599.929,-182.635"/>
<text text-anchor="middle" x="1046" y="-245.93" font-family="Helvetica,sans-Serif" font-size="10.00"> extent_table</text>
</g>
<!-- Node12 -->
<g id="node12" class="node"><title>Node12</title>
<g id="a_node12"><a xlink:href="../../d0/d5f/structCCCC__Project_1_1ExtentTableEntry.html" target="_top" xlink:title="CCCC_Project::ExtentTable\lEntry">
<polygon fill="white" stroke="black" points="701,-361.93 701,-391.93 847,-391.93 847,-361.93 701,-361.93"/>
<text text-anchor="start" x="709" y="-379.93" font-family="Helvetica,sans-Serif" font-size="10.00">CCCC_Project::ExtentTable</text>
<text text-anchor="middle" x="774" y="-368.93" font-family="Helvetica,sans-Serif" font-size="10.00">Entry</text>
</a>
</g>
</g>
<!-- Node5&#45;&gt;Node12 -->
<g id="edge19" class="edge"><title>Node5&#45;&gt;Node12</title>
<path fill="none" stroke="#9a32cd" stroke-dasharray="5,2" d="M535.686,-194.595C557.126,-206.73 587.724,-224.849 613,-242.93 668.108,-282.349 728.08,-335.679 756.406,-361.564"/>
<polygon fill="#9a32cd" stroke="#9a32cd" points="537.25,-191.46 526.816,-189.621 533.826,-197.565 537.25,-191.46"/>
<text text-anchor="middle" x="657" y="-298.93" font-family="Helvetica,sans-Serif" font-size="10.00"> table_ptr</text>
</g>
<!-- Node6 -->
<g id="node6" class="node"><title>Node6</title>
<g id="a_node6"><a xlink:title="STL class. ">
<polygon fill="white" stroke="#bfbfbf" points="180,-91.9296 180,-121.93 306,-121.93 306,-91.9296 180,-91.9296"/>
<text text-anchor="start" x="188" y="-109.93" font-family="Helvetica,sans-Serif" font-size="10.00">std::map&lt; string, CCCC</text>
<text text-anchor="middle" x="243" y="-98.9296" font-family="Helvetica,sans-Serif" font-size="10.00">_Extent * &gt;</text>
</a>
</g>
</g>
<!-- Node6&#45;&gt;Node5 -->
<g id="edge6" class="edge"><title>Node6&#45;&gt;Node5</title>
<path fill="none" stroke="midnightblue" d="M289.839,-86.5468C295.761,-82.611 301.365,-78.0794 306,-72.9296 319.86,-57.5301 306.752,-41.4076 324,-29.9296 346.57,-14.9097 363.05,-14.0174 385,-29.9296 405.824,-45.0254 389.046,-63.3236 403,-84.9296 427.279,-122.523 469.991,-154.915 492.376,-170.331"/>
<polygon fill="midnightblue" stroke="midnightblue" points="287.755,-83.7168 281.013,-91.8893 291.38,-89.7053 287.755,-83.7168"/>
</g>
<!-- Node7 -->
<g id="node7" class="node"><title>Node7</title>
<polygon fill="white" stroke="#bfbfbf" points="34.5,-193.43 34.5,-212.43 63.5,-212.43 63.5,-193.43 34.5,-193.43"/>
<text text-anchor="middle" x="49" y="-200.43" font-family="Helvetica,sans-Serif" font-size="10.00">K</text>
</g>
<!-- Node7&#45;&gt;Node6 -->
<g id="edge7" class="edge"><title>Node7&#45;&gt;Node6</title>
<path fill="none" stroke="#9a32cd" stroke-dasharray="5,2" d="M67.4168,-186.116C80.0642,-174.647 98.0423,-159.804 116,-149.93 137.267,-138.236 162.285,-128.901 184.399,-121.957"/>
<polygon fill="#9a32cd" stroke="#9a32cd" points="64.8685,-183.707 59.9291,-193.08 69.6355,-188.833 64.8685,-183.707"/>
<text text-anchor="middle" x="139" y="-152.93" font-family="Helvetica,sans-Serif" font-size="10.00"> keys</text>
</g>
<!-- Node18 -->
<g id="node18" class="node"><title>Node18</title>
<g id="a_node18"><a xlink:title="STL class. ">
<polygon fill="white" stroke="#bfbfbf" points="180,-33.9296 180,-63.9296 306,-63.9296 306,-33.9296 180,-33.9296"/>
<text text-anchor="start" x="188" y="-51.9296" font-family="Helvetica,sans-Serif" font-size="10.00">std::map&lt; string, CCCC</text>
<text text-anchor="middle" x="243" y="-40.9296" font-family="Helvetica,sans-Serif" font-size="10.00">_Module * &gt;</text>
</a>
</g>
</g>
<!-- Node7&#45;&gt;Node18 -->
<g id="edge22" class="edge"><title>Node7&#45;&gt;Node18</title>
<path fill="none" stroke="#9a32cd" stroke-dasharray="5,2" d="M69.1733,-186.354C78.9333,-177.063 90.3252,-164.779 98,-151.93 110.973,-130.211 98.5563,-116.252 116,-97.9296 132.993,-80.0805 157.243,-68.63 179.939,-61.3321"/>
<polygon fill="#9a32cd" stroke="#9a32cd" points="66.8026,-183.779 61.7982,-193.118 71.5339,-188.938 66.8026,-183.779"/>
<text text-anchor="middle" x="139" y="-100.93" font-family="Helvetica,sans-Serif" font-size="10.00"> keys</text>
</g>
<!-- Node23 -->
<g id="node23" class="node"><title>Node23</title>
<g id="a_node23"><a xlink:title="STL class. ">
<polygon fill="white" stroke="#bfbfbf" points="180,-294.93 180,-324.93 306,-324.93 306,-294.93 180,-294.93"/>
<text text-anchor="start" x="188" y="-312.93" font-family="Helvetica,sans-Serif" font-size="10.00">std::map&lt; string, CCCC</text>
<text text-anchor="middle" x="243" y="-301.93" font-family="Helvetica,sans-Serif" font-size="10.00">_UseRelationship * &gt;</text>
</a>
</g>
</g>
<!-- Node7&#45;&gt;Node23 -->
<g id="edge35" class="edge"><title>Node7&#45;&gt;Node23</title>
<path fill="none" stroke="#9a32cd" stroke-dasharray="5,2" d="M61.7289,-220.971C73.501,-237.655 93.1358,-261.923 116,-275.93 135.224,-287.706 158.538,-295.465 179.86,-300.549"/>
<polygon fill="#9a32cd" stroke="#9a32cd" points="64.5479,-218.892 56.0271,-212.595 58.7614,-222.831 64.5479,-218.892"/>
<text text-anchor="middle" x="139" y="-298.93" font-family="Helvetica,sans-Serif" font-size="10.00"> keys</text>
</g>
<!-- Node25 -->
<g id="node25" class="node"><title>Node25</title>
<g id="a_node25"><a xlink:title="STL class. ">
<polygon fill="white" stroke="#bfbfbf" points="180,-203.93 180,-233.93 306,-233.93 306,-203.93 180,-203.93"/>
<text text-anchor="start" x="188" y="-221.93" font-family="Helvetica,sans-Serif" font-size="10.00">std::map&lt; string, CCCC</text>
<text text-anchor="middle" x="243" y="-210.93" font-family="Helvetica,sans-Serif" font-size="10.00">_Member * &gt;</text>
</a>
</g>
</g>
<!-- Node7&#45;&gt;Node25 -->
<g id="edge41" class="edge"><title>Node7&#45;&gt;Node25</title>
<path fill="none" stroke="#9a32cd" stroke-dasharray="5,2" d="M73.6685,-204.902C100.036,-207.099 143.725,-210.74 179.986,-213.762"/>
<polygon fill="#9a32cd" stroke="#9a32cd" points="73.7572,-201.397 63.5011,-204.055 73.1758,-208.373 73.7572,-201.397"/>
<text text-anchor="middle" x="139" y="-214.93" font-family="Helvetica,sans-Serif" font-size="10.00"> keys</text>
</g>
<!-- Node8 -->
<g id="node8" class="node"><title>Node8</title>
<polygon fill="white" stroke="#bfbfbf" points="34.5,-123.43 34.5,-142.43 63.5,-142.43 63.5,-123.43 34.5,-123.43"/>
<text text-anchor="middle" x="49" y="-130.43" font-family="Helvetica,sans-Serif" font-size="10.00">T</text>
</g>
<!-- Node8&#45;&gt;Node6 -->
<g id="edge8" class="edge"><title>Node8&#45;&gt;Node6</title>
<path fill="none" stroke="#9a32cd" stroke-dasharray="5,2" d="M73.6146,-126.74C86.1314,-123.669 101.813,-120.15 116,-117.93 136.718,-114.686 159.513,-112.332 179.952,-110.655"/>
<polygon fill="#9a32cd" stroke="#9a32cd" points="72.3868,-123.44 63.5469,-129.28 74.0993,-130.228 72.3868,-123.44"/>
<text text-anchor="middle" x="139" y="-120.93" font-family="Helvetica,sans-Serif" font-size="10.00"> elements</text>
</g>
<!-- Node8&#45;&gt;Node18 -->
<g id="edge23" class="edge"><title>Node8&#45;&gt;Node18</title>
<path fill="none" stroke="#9a32cd" stroke-dasharray="5,2" d="M58.7187,-114.006C69.144,-93.9095 88.6759,-63.2457 116,-49.9296 135.468,-40.442 158.722,-38.1429 179.923,-38.8913"/>
<polygon fill="#9a32cd" stroke="#9a32cd" points="55.4931,-112.634 54.2208,-123.152 61.7747,-115.723 55.4931,-112.634"/>
<text text-anchor="middle" x="139" y="-52.9296" font-family="Helvetica,sans-Serif" font-size="10.00"> elements</text>
</g>
<!-- Node8&#45;&gt;Node23 -->
<g id="edge36" class="edge"><title>Node8&#45;&gt;Node23</title>
<path fill="none" stroke="#9a32cd" stroke-dasharray="5,2" d="M68.4194,-149.385C78.1476,-158.789 89.7463,-171.215 98,-183.93 109.281,-201.307 103.21,-210.631 116,-226.93 131.695,-246.93 143.961,-243.016 162,-260.93 171.461,-270.325 169.428,-276.804 180,-284.93 184.877,-288.678 190.392,-291.946 196.072,-294.772"/>
<polygon fill="#9a32cd" stroke="#9a32cd" points="70.8088,-146.828 61.1183,-142.545 66.0227,-151.936 70.8088,-146.828"/>
<text text-anchor="middle" x="139" y="-263.93" font-family="Helvetica,sans-Serif" font-size="10.00"> elements</text>
</g>
<!-- Node8&#45;&gt;Node25 -->
<g id="edge42" class="edge"><title>Node8&#45;&gt;Node25</title>
<path fill="none" stroke="#9a32cd" stroke-dasharray="5,2" d="M72.9869,-143.435C85.6623,-149.214 101.688,-156.496 116,-162.93 147.113,-176.915 182.63,-192.682 208.007,-203.914"/>
<polygon fill="#9a32cd" stroke="#9a32cd" points="74.1871,-140.136 63.6365,-139.168 71.2809,-146.504 74.1871,-140.136"/>
<text text-anchor="middle" x="139" y="-186.93" font-family="Helvetica,sans-Serif" font-size="10.00"> elements</text>
</g>
<!-- Node9 -->
<g id="node9" class="node"><title>Node9</title>
<polygon fill="white" stroke="#bfbfbf" points="218,-141.43 218,-160.43 268,-160.43 268,-141.43 218,-141.43"/>
<text text-anchor="middle" x="243" y="-148.43" font-family="Helvetica,sans-Serif" font-size="10.00">iterator</text>
</g>
<!-- Node9&#45;&gt;Node5 -->
<g id="edge9" class="edge"><title>Node9&#45;&gt;Node5</title>
<path fill="none" stroke="#9a32cd" stroke-dasharray="5,2" d="M278.019,-142.066C287.328,-139.079 297.256,-135.357 306,-130.93 314.804,-126.471 314.61,-120.966 324,-117.93 349.796,-109.588 358.635,-111.615 385,-117.93 427.514,-128.112 471.939,-155.687 493.566,-170.392"/>
<polygon fill="#9a32cd" stroke="#9a32cd" points="276.808,-138.775 268.246,-145.016 278.831,-145.477 276.808,-138.775"/>
<text text-anchor="middle" x="354.5" y="-120.93" font-family="Helvetica,sans-Serif" font-size="10.00"> iter_</text>
</g>
<!-- Node17 -->
<g id="node17" class="node"><title>Node17</title>
<g id="a_node17"><a xlink:href="../../d8/dcf/classCCCC__Table.html" target="_top" xlink:title="CCCC_Table\&lt; CCCC_Module \&gt;">
<polygon fill="white" stroke="black" points="424.5,-56.4296 424.5,-75.4296 591.5,-75.4296 591.5,-56.4296 424.5,-56.4296"/>
<text text-anchor="middle" x="508" y="-63.4296" font-family="Helvetica,sans-Serif" font-size="10.00">CCCC_Table&lt; CCCC_Module &gt;</text>
</a>
</g>
</g>
<!-- Node9&#45;&gt;Node17 -->
<g id="edge24" class="edge"><title>Node9&#45;&gt;Node17</title>
<path fill="none" stroke="#9a32cd" stroke-dasharray="5,2" d="M278.3,-146.528C288.471,-143.625 298.803,-138.832 306,-130.93 330.831,-103.664 295.233,-73.0053 324,-49.9296 371.888,-11.5148 451.231,-39.9192 487.647,-56.374"/>
<polygon fill="#9a32cd" stroke="#9a32cd" points="277.254,-143.178 268.303,-148.846 278.835,-149.997 277.254,-143.178"/>
<text text-anchor="middle" x="354.5" y="-52.9296" font-family="Helvetica,sans-Serif" font-size="10.00"> iter_</text>
</g>
<!-- Node22 -->
<g id="node22" class="node"><title>Node22</title>
<g id="a_node22"><a xlink:href="../../d8/dcf/classCCCC__Table.html" target="_top" xlink:title="CCCC_Table\&lt; CCCC_UseRelationship \&gt;">
<polygon fill="white" stroke="black" points="403,-304.43 403,-323.43 613,-323.43 613,-304.43 403,-304.43"/>
<text text-anchor="middle" x="508" y="-311.43" font-family="Helvetica,sans-Serif" font-size="10.00">CCCC_Table&lt; CCCC_UseRelationship &gt;</text>
</a>
</g>
</g>
<!-- Node9&#45;&gt;Node22 -->
<g id="edge37" class="edge"><title>Node9&#45;&gt;Node22</title>
<path fill="none" stroke="#9a32cd" stroke-dasharray="5,2" d="M266.183,-166.3C278.007,-174.497 292.799,-184.756 306,-193.93 341.133,-218.343 356.231,-217.264 385,-248.93 395.973,-261.007 390.341,-270.633 403,-280.93 416.74,-292.105 434.317,-299.52 451.095,-304.429"/>
<polygon fill="#9a32cd" stroke="#9a32cd" points="268.008,-163.306 257.795,-160.487 264.02,-169.06 268.008,-163.306"/>
<text text-anchor="middle" x="354.5" y="-251.93" font-family="Helvetica,sans-Serif" font-size="10.00"> iter_</text>
</g>
<!-- Node24 -->
<g id="node24" class="node"><title>Node24</title>
<g id="a_node24"><a xlink:href="../../d8/dcf/classCCCC__Table.html" target="_top" xlink:title="CCCC_Table\&lt; CCCC_Member \&gt;">
<polygon fill="white" stroke="black" points="422.5,-252.43 422.5,-271.43 593.5,-271.43 593.5,-252.43 422.5,-252.43"/>
<text text-anchor="middle" x="508" y="-259.43" font-family="Helvetica,sans-Serif" font-size="10.00">CCCC_Table&lt; CCCC_Member &gt;</text>
</a>
</g>
</g>
<!-- Node9&#45;&gt;Node24 -->
<g id="edge43" class="edge"><title>Node9&#45;&gt;Node24</title>
<path fill="none" stroke="#9a32cd" stroke-dasharray="5,2" d="M278.007,-140.441C308.771,-133.159 353.89,-128.215 385,-149.93 404.025,-163.209 388.248,-181.023 403,-198.93 424.073,-224.51 458.415,-242.409 481.824,-252.428"/>
<polygon fill="#9a32cd" stroke="#9a32cd" points="276.982,-137.091 268.165,-142.966 278.721,-143.872 276.982,-137.091"/>
<text text-anchor="middle" x="354.5" y="-152.93" font-family="Helvetica,sans-Serif" font-size="10.00"> iter_</text>
</g>
<!-- Node10 -->
<g id="node10" class="node"><title>Node10</title>
<polygon fill="white" stroke="#bfbfbf" points="225,-256.43 225,-275.43 261,-275.43 261,-256.43 225,-256.43"/>
<text text-anchor="middle" x="243" y="-263.43" font-family="Helvetica,sans-Serif" font-size="10.00">bool</text>
</g>
<!-- Node10&#45;&gt;Node5 -->
<g id="edge10" class="edge"><title>Node10&#45;&gt;Node5</title>
<path fill="none" stroke="#9a32cd" stroke-dasharray="5,2" d="M271.346,-261.408C283.405,-258.129 296.878,-252.513 306,-242.93 324.316,-223.686 302.832,-201.983 324,-185.93 366.931,-153.371 433.237,-161.297 473.144,-170.37"/>
<polygon fill="#9a32cd" stroke="#9a32cd" points="270.219,-258.075 261.258,-263.728 271.789,-264.897 270.219,-258.075"/>
<text text-anchor="middle" x="354.5" y="-188.93" font-family="Helvetica,sans-Serif" font-size="10.00"> sorted</text>
</g>
<!-- Node10&#45;&gt;Node17 -->
<g id="edge25" class="edge"><title>Node10&#45;&gt;Node17</title>
<path fill="none" stroke="#9a32cd" stroke-dasharray="5,2" d="M271.058,-262.403C283.587,-259.341 297.539,-253.62 306,-242.93 346.303,-192.01 279.234,-144.973 324,-97.9296 349.457,-71.1768 388.751,-61.9538 424.411,-59.9313"/>
<polygon fill="#9a32cd" stroke="#9a32cd" points="270.146,-259.016 261.021,-264.401 271.512,-265.882 270.146,-259.016"/>
<text text-anchor="middle" x="354.5" y="-100.93" font-family="Helvetica,sans-Serif" font-size="10.00"> sorted</text>
</g>
<!-- Node10&#45;&gt;Node20 -->
<g id="edge30" class="edge"><title>Node10&#45;&gt;Node20</title>
<path fill="none" stroke="#9a32cd" stroke-dasharray="5,2" d="M271.263,-267.611C283.717,-269.85 297.545,-274.687 306,-284.93 353.805,-342.842 280.967,-391.389 324,-452.93 341.313,-477.689 360.287,-465.55 385,-482.93 433.207,-516.831 480.553,-569.783 498.961,-591.327"/>
<polygon fill="#9a32cd" stroke="#9a32cd" points="271.647,-264.132 261.273,-266.28 270.723,-271.07 271.647,-264.132"/>
<text text-anchor="middle" x="354.5" y="-485.93" font-family="Helvetica,sans-Serif" font-size="10.00"> good</text>
</g>
<!-- Node10&#45;&gt;Node22 -->
<g id="edge38" class="edge"><title>Node10&#45;&gt;Node22</title>
<path fill="none" stroke="#9a32cd" stroke-dasharray="5,2" d="M271.309,-270.914C314.561,-278.808 399.567,-294.322 454.794,-304.401"/>
<polygon fill="#9a32cd" stroke="#9a32cd" points="271.722,-267.431 261.256,-269.079 270.465,-274.318 271.722,-267.431"/>
<text text-anchor="middle" x="354.5" y="-294.93" font-family="Helvetica,sans-Serif" font-size="10.00"> sorted</text>
</g>
<!-- Node10&#45;&gt;Node24 -->
<g id="edge44" class="edge"><title>Node10&#45;&gt;Node24</title>
<path fill="none" stroke="#9a32cd" stroke-dasharray="5,2" d="M271.306,-265.514C306.726,-264.976 370.152,-264.011 422.292,-263.218"/>
<polygon fill="#9a32cd" stroke="#9a32cd" points="271.202,-262.015 261.256,-265.667 271.308,-269.015 271.202,-262.015"/>
<text text-anchor="middle" x="354.5" y="-267.93" font-family="Helvetica,sans-Serif" font-size="10.00"> sorted</text>
</g>
<!-- Node11&#45;&gt;Node1 -->
<g id="edge11" class="edge"><title>Node11&#45;&gt;Node1</title>
<path fill="none" stroke="#9a32cd" stroke-dasharray="5,2" d="M1113.37,-364.164C1141.25,-357.799 1173.71,-349.054 1202,-337.93 1218.15,-331.578 1235.4,-321.737 1247.23,-314.454"/>
<polygon fill="#9a32cd" stroke="#9a32cd" points="1112.32,-360.812 1103.32,-366.402 1113.84,-367.645 1112.32,-360.812"/>
<text text-anchor="middle" x="1161.5" y="-365.93" font-family="Helvetica,sans-Serif" font-size="10.00"> file_extent_table</text>
</g>
<!-- Node12&#45;&gt;Node11 -->
<g id="edge13" class="edge"><title>Node12&#45;&gt;Node11</title>
<path fill="none" stroke="#9a32cd" stroke-dasharray="5,2" d="M857.061,-376.93C899.607,-376.93 950.487,-376.93 988.571,-376.93"/>
<polygon fill="#9a32cd" stroke="#9a32cd" points="857,-373.43 847,-376.93 857,-380.43 857,-373.43"/>
<text text-anchor="middle" x="918" y="-379.93" font-family="Helvetica,sans-Serif" font-size="10.00"> elements</text>
</g>
<!-- Node13&#45;&gt;Node12 -->
<g id="edge14" class="edge"><title>Node13&#45;&gt;Node12</title>
<path fill="none" stroke="#9a32cd" stroke-dasharray="5,2" d="M559.739,-399.548C599.784,-395.301 656.159,-389.322 700.891,-384.578"/>
<polygon fill="#9a32cd" stroke="#9a32cd" points="559.246,-396.081 549.671,-400.616 559.985,-403.042 559.246,-396.081"/>
<text text-anchor="middle" x="657" y="-394.93" font-family="Helvetica,sans-Serif" font-size="10.00"> extent_ptr</text>
</g>
<!-- Node14 -->
<g id="node14" class="node"><title>Node14</title>
<polygon fill="white" stroke="#bfbfbf" points="213.5,-440.43 213.5,-459.43 272.5,-459.43 272.5,-440.43 213.5,-440.43"/>
<text text-anchor="middle" x="243" y="-447.43" font-family="Helvetica,sans-Serif" font-size="10.00">UseType</text>
</g>
<!-- Node14&#45;&gt;Node13 -->
<g id="edge15" class="edge"><title>Node14&#45;&gt;Node13</title>
<path fill="none" stroke="#9a32cd" stroke-dasharray="5,2" d="M282.588,-444.244C310.957,-439.983 350.425,-433.885 385,-427.93 412.188,-423.247 442.688,-417.497 466.391,-412.918"/>
<polygon fill="#9a32cd" stroke="#9a32cd" points="282.041,-440.787 272.669,-445.727 283.076,-447.71 282.041,-440.787"/>
<text text-anchor="middle" x="354.5" y="-440.93" font-family="Helvetica,sans-Serif" font-size="10.00"> ut</text>
</g>
<!-- Node15 -->
<g id="node15" class="node"><title>Node15</title>
<polygon fill="white" stroke="#bfbfbf" points="228.5,-397.43 228.5,-416.43 257.5,-416.43 257.5,-397.43 228.5,-397.43"/>
<text text-anchor="middle" x="243" y="-404.43" font-family="Helvetica,sans-Serif" font-size="10.00">int</text>
</g>
<!-- Node15&#45;&gt;Node13 -->
<g id="edge16" class="edge"><title>Node15&#45;&gt;Node13</title>
<path fill="none" stroke="#9a32cd" stroke-dasharray="5,2" d="M267.628,-406.591C283.556,-406.373 305.041,-406.1 324,-405.93 372.926,-405.49 429.211,-405.218 466.297,-405.07"/>
<polygon fill="#9a32cd" stroke="#9a32cd" points="267.539,-403.091 257.589,-406.731 267.636,-410.091 267.539,-403.091"/>
<text text-anchor="middle" x="354.5" y="-419.93" font-family="Helvetica,sans-Serif" font-size="10.00"> nextkey</text>
<text text-anchor="middle" x="354.5" y="-408.93" font-family="Helvetica,sans-Serif" font-size="10.00">extkey</text>
</g>
<!-- Node16 -->
<g id="node16" class="node"><title>Node16</title>
<polygon fill="white" stroke="#bfbfbf" points="216.5,-359.43 216.5,-378.43 269.5,-378.43 269.5,-359.43 216.5,-359.43"/>
<text text-anchor="middle" x="243" y="-366.43" font-family="Helvetica,sans-Serif" font-size="10.00">Visibility</text>
</g>
<!-- Node16&#45;&gt;Node13 -->
<g id="edge17" class="edge"><title>Node16&#45;&gt;Node13</title>
<path fill="none" stroke="#9a32cd" stroke-dasharray="5,2" d="M279.754,-373.824C328.375,-380.479 415.127,-392.354 466.224,-399.348"/>
<polygon fill="#9a32cd" stroke="#9a32cd" points="280.079,-370.336 269.696,-372.447 279.129,-377.271 280.079,-370.336"/>
<text text-anchor="middle" x="354.5" y="-391.93" font-family="Helvetica,sans-Serif" font-size="10.00"> v</text>
</g>
<!-- Node17&#45;&gt;Node1 -->
<g id="edge20" class="edge"><title>Node17&#45;&gt;Node1</title>
<path fill="none" stroke="#9a32cd" stroke-dasharray="5,2" d="M601.802,-63.3336C723.116,-63.5553 939.386,-76.5603 1103,-155.93 1174.14,-190.438 1235.1,-267.912 1255.08,-295.196"/>
<polygon fill="#9a32cd" stroke="#9a32cd" points="601.796,-59.8335 591.799,-63.344 601.803,-66.8335 601.796,-59.8335"/>
<text text-anchor="middle" x="918" y="-109.93" font-family="Helvetica,sans-Serif" font-size="10.00"> module_table</text>
</g>
<!-- Node18&#45;&gt;Node17 -->
<g id="edge21" class="edge"><title>Node18&#45;&gt;Node17</title>
<path fill="none" stroke="midnightblue" d="M273.036,-28.319C287.598,-19.2279 305.946,-9.5668 324,-4.92958 350.259,1.81515 358.614,1.29928 385,-4.92958 427.176,-14.886 471.396,-41.779 493.185,-56.3067"/>
<polygon fill="midnightblue" stroke="midnightblue" points="270.982,-25.4795 264.494,-33.8559 274.789,-31.3534 270.982,-25.4795"/>
</g>
<!-- Node19&#45;&gt;Node1 -->
<g id="edge26" class="edge"><title>Node19&#45;&gt;Node1</title>
<path fill="none" stroke="#9a32cd" stroke-dasharray="5,2" d="M847.162,-605.426C885.435,-602.313 932.393,-594.705 971,-576.93 1110.45,-512.722 1226.88,-355.326 1255.34,-314.651"/>
<polygon fill="#9a32cd" stroke="#9a32cd" points="846.841,-601.94 837.121,-606.157 847.349,-608.922 846.841,-601.94"/>
<text text-anchor="middle" x="1046" y="-569.93" font-family="Helvetica,sans-Serif" font-size="10.00"> OptionTable</text>
</g>
<!-- Node20&#45;&gt;Node19 -->
<g id="edge28" class="edge"><title>Node20&#45;&gt;Node19</title>
<path fill="none" stroke="#9a32cd" stroke-dasharray="5,2" d="M554.823,-601.971C598.03,-602.953 663.116,-604.432 710.959,-605.52"/>
<polygon fill="#9a32cd" stroke="#9a32cd" points="554.681,-598.467 544.604,-601.739 554.522,-605.465 554.681,-598.467"/>
<text text-anchor="middle" x="657" y="-607.93" font-family="Helvetica,sans-Serif" font-size="10.00"> elements</text>
</g>
<!-- Node21 -->
<g id="node21" class="node"><title>Node21</title>
<polygon fill="white" stroke="#bfbfbf" points="224,-670.43 224,-689.43 262,-689.43 262,-670.43 224,-670.43"/>
<text text-anchor="middle" x="243" y="-677.43" font-family="Helvetica,sans-Serif" font-size="10.00">char</text>
</g>
<!-- Node21&#45;&gt;Node20 -->
<g id="edge29" class="edge"><title>Node21&#45;&gt;Node20</title>
<path fill="none" stroke="#9a32cd" stroke-dasharray="5,2" d="M271.841,-669.29C303.36,-657.481 356.391,-638.328 403,-624.93 425.439,-618.479 450.984,-612.564 471.141,-608.221"/>
<polygon fill="#9a32cd" stroke="#9a32cd" points="270.522,-666.046 262.399,-672.849 272.991,-672.596 270.522,-666.046"/>
<text text-anchor="middle" x="354.5" y="-653.93" font-family="Helvetica,sans-Serif" font-size="10.00"> delimiter</text>
</g>
<!-- Node22&#45;&gt;Node1 -->
<g id="edge33" class="edge"><title>Node22&#45;&gt;Node1</title>
<path fill="none" stroke="#9a32cd" stroke-dasharray="5,2" d="M623.323,-312.563C793.827,-310.525 1106.79,-306.785 1219.85,-305.433"/>
<polygon fill="#9a32cd" stroke="#9a32cd" points="623.263,-309.064 613.306,-312.683 623.347,-316.063 623.263,-309.064"/>
<text text-anchor="middle" x="918" y="-312.93" font-family="Helvetica,sans-Serif" font-size="10.00"> userel_table</text>
</g>
<!-- Node23&#45;&gt;Node22 -->
<g id="edge34" class="edge"><title>Node23&#45;&gt;Node22</title>
<path fill="none" stroke="midnightblue" d="M316.34,-323.165C318.921,-323.454 321.48,-323.711 324,-323.93 356.491,-326.751 392.302,-325.71 423.564,-323.447"/>
<polygon fill="midnightblue" stroke="midnightblue" points="316.672,-319.68 306.315,-321.909 315.802,-326.625 316.672,-319.68"/>
</g>
<!-- Node24&#45;&gt;Node1 -->
<g id="edge39" class="edge"><title>Node24&#45;&gt;Node1</title>
<path fill="none" stroke="#9a32cd" stroke-dasharray="5,2" d="M603.65,-269.964C612.889,-270.666 622.124,-271.334 631,-271.93 689.352,-275.846 1088.34,-296.136 1219.97,-302.804"/>
<polygon fill="#9a32cd" stroke="#9a32cd" points="603.878,-266.472 593.639,-269.193 603.34,-273.451 603.878,-266.472"/>
<text text-anchor="middle" x="918" y="-292.93" font-family="Helvetica,sans-Serif" font-size="10.00"> member_table</text>
</g>
<!-- Node25&#45;&gt;Node24 -->
<g id="edge40" class="edge"><title>Node25&#45;&gt;Node24</title>
<path fill="none" stroke="midnightblue" d="M316.414,-230.769C358.068,-237.58 409.708,-246.023 448.724,-252.401"/>
<polygon fill="midnightblue" stroke="midnightblue" points="316.761,-227.279 306.327,-229.12 315.632,-234.188 316.761,-227.279"/>
</g>
</g>
</svg>
        <g id="navigator" transform="translate(0 0)" fill="#404254">
                <rect fill="#f2f5e9" fill-opacity="0.5" stroke="#606060" stroke-width=".5" x="0" y="0" width="60" height="60"/>
                <use id="zoomplus" xlink:href="#zoomPlus" x="17" y="9" onmousedown="handleZoom(evt,'in')"/>
                <use id="zoomminus" xlink:href="#zoomMin" x="42" y="9" onmousedown="handleZoom(evt,'out')"/>
                <use id="reset" xlink:href="#resetDef" x="30" y="36" onmousedown="handleReset()"/>
                <g id="arrowUp" xlink:href="#dirArrow" transform="translate(30 24)" onmousedown="handlePan(0,-1)">
                  <use xlink:href="#rim" fill="#404040">
                        <set attributeName="fill" to="#808080" begin="arrowUp.mouseover" end="arrowUp.mouseout"/>
                  </use>
                  <path fill="none" stroke="white" stroke-width="1.5" d="M0,-3.0v7 M-2.5,-0.5L0,-3.0L2.5,-0.5"/>
                </g>
                <g id="arrowRight" xlink:href="#dirArrow" transform="rotate(90) translate(36 -43)" onmousedown="handlePan(1,0)">
                  <use xlink:href="#rim" fill="#404040">
                        <set attributeName="fill" to="#808080" begin="arrowRight.mouseover" end="arrowRight.mouseout"/>
                  </use>
                  <path fill="none" stroke="white" stroke-width="1.5" d="M0,-3.0v7 M-2.5,-0.5L0,-3.0L2.5,-0.5"/>
                </g>
                <g id="arrowDown" xlink:href="#dirArrow" transform="rotate(180) translate(-30 -48)" onmousedown="handlePan(0,1)">
                  <use xlink:href="#rim" fill="#404040">
                        <set attributeName="fill" to="#808080" begin="arrowDown.mouseover" end="arrowDown.mouseout"/>
                  </use>
                  <path fill="none" stroke="white" stroke-width="1.5" d="M0,-3.0v7 M-2.5,-0.5L0,-3.0L2.5,-0.5"/>
                </g>
                <g id="arrowLeft" xlink:href="#dirArrow" transform="rotate(270) translate(-36 17)" onmousedown="handlePan(-1,0)">
                  <use xlink:href="#rim" fill="#404040">
                        <set attributeName="fill" to="#808080" begin="arrowLeft.mouseover" end="arrowLeft.mouseout"/>
                  </use>
                  <path fill="none" stroke="white" stroke-width="1.5" d="M0,-3.0v7 M-2.5,-0.5L0,-3.0L2.5,-0.5"/>
                </g>
        </g>
        <svg viewBox="0 0 15 15" width="100%" height="30px" preserveAspectRatio="xMaxYMin meet">
         <g id="arrow_out" transform="scale(0.3 0.3)">
          <a xlink:href="classCCCC__Project__coll__graph_org.svg" target="_base">
           <rect id="button" ry="5" rx="5" y="6" x="6" height="38" width="38"
                fill="#f2f5e9" fill-opacity="0.5" stroke="#606060" stroke-width="1.0"/>
           <path id="arrow"
             d="M 11.500037,31.436501 C 11.940474,20.09759 22.043105,11.32322 32.158766,21.979434 L 37.068811,17.246167 C 37.068811,17.246167 37.088388,32 37.088388,32 L 22.160133,31.978069 C 22.160133,31.978069 26.997745,27.140456 26.997745,27.140456 C 18.528582,18.264221 13.291696,25.230495 11.500037,31.436501 z"
             style="fill:#404040;"/>
          </a>
         </g>
        </svg>
</svg>
