<?xml version="1.0" encoding="UTF-8" standalone="no"?>
<!DOCTYPE svg PUBLIC "-//W3C//DTD SVG 1.1//EN"
 "http://www.w3.org/Graphics/SVG/1.1/DTD/svg11.dtd">
<!-- Generated by graphviz version 2.38.0 (20140413.2041)
 -->
<!-- Title: CCCC_Project::ExtentTableEntry Pages: 1 -->
<svg width="541pt" height="306pt"
 viewBox="0.00 0.00 540.50 306.00" xmlns="http://www.w3.org/2000/svg" xmlns:xlink="http://www.w3.org/1999/xlink">
<g id="graph0" class="graph" transform="scale(1 1) rotate(0) translate(4 302)">
<title>CCCC_Project::ExtentTableEntry</title>
<polygon fill="white" stroke="none" points="-4,4 -4,-302 536.5,-302 536.5,4 -4,4"/>
<!-- Node1 -->
<g id="node1" class="node"><title>Node1</title>
<polygon fill="#bfbfbf" stroke="black" points="219.5,-0.5 219.5,-30.5 365.5,-30.5 365.5,-0.5 219.5,-0.5"/>
<text text-anchor="start" x="227.5" y="-18.5" font-family="Helvetica,sans-Serif" font-size="10.00">CCCC_Project::ExtentTable</text>
<text text-anchor="middle" x="292.5" y="-7.5" font-family="Helvetica,sans-Serif" font-size="10.00">Entry</text>
</g>
<!-- Node2 -->
<g id="node2" class="node"><title>Node2</title>
<g id="a_node2"><a xlink:href="../../df/d99/classCCCC__Extent.html" target="_top" xlink:title="CCCC_Extent">
<polygon fill="white" stroke="black" points="113,-78.5 113,-97.5 196,-97.5 196,-78.5 113,-78.5"/>
<text text-anchor="middle" x="154.5" y="-85.5" font-family="Helvetica,sans-Serif" font-size="10.00">CCCC_Extent</text>
</a>
</g>
</g>
<!-- Node2&#45;&gt;Node1 -->
<g id="edge1" class="edge"><title>Node2&#45;&gt;Node1</title>
<path fill="none" stroke="#9a32cd" stroke-dasharray="5,2" d="M180.078,-73.9329C204.232,-61.5933 240.345,-43.1442 265.084,-30.5059"/>
<polygon fill="#9a32cd" stroke="#9a32cd" points="178.459,-70.8298 171.146,-78.4961 181.644,-77.0634 178.459,-70.8298"/>
<text text-anchor="middle" x="254.5" y="-52" font-family="Helvetica,sans-Serif" font-size="10.00"> extent_ptr</text>
</g>
<!-- Node3 -->
<g id="node3" class="node"><title>Node3</title>
<polygon fill="white" stroke="#bfbfbf" points="0,-195 0,-214 59,-214 59,-195 0,-195"/>
<text text-anchor="middle" x="29.5" y="-202" font-family="Helvetica,sans-Serif" font-size="10.00">UseType</text>
</g>
<!-- Node3&#45;&gt;Node2 -->
<g id="edge2" class="edge"><title>Node3&#45;&gt;Node2</title>
<path fill="none" stroke="#9a32cd" stroke-dasharray="5,2" d="M34.8384,-185.32C41.5167,-165.607 54.7916,-134.492 76.5,-116 86.7542,-107.265 99.9944,-101.305 112.645,-97.2587"/>
<polygon fill="#9a32cd" stroke="#9a32cd" points="31.4726,-184.355 31.7952,-194.945 38.1469,-186.465 31.4726,-184.355"/>
<text text-anchor="middle" x="82.5" y="-141" font-family="Helvetica,sans-Serif" font-size="10.00"> ut</text>
</g>
<!-- Node4 -->
<g id="node4" class="node"><title>Node4</title>
<polygon fill="white" stroke="#bfbfbf" points="77,-195 77,-214 106,-214 106,-195 77,-195"/>
<text text-anchor="middle" x="91.5" y="-202" font-family="Helvetica,sans-Serif" font-size="10.00">int</text>
</g>
<!-- Node4&#45;&gt;Node2 -->
<g id="edge3" class="edge"><title>Node4&#45;&gt;Node2</title>
<path fill="none" stroke="#9a32cd" stroke-dasharray="5,2" d="M91.1271,-184.856C91.6463,-165.878 95.0232,-136.423 109.5,-116 115.19,-107.972 124.088,-101.913 132.475,-97.5892"/>
<polygon fill="#9a32cd" stroke="#9a32cd" points="87.6271,-184.897 91.0943,-194.908 94.627,-184.92 87.6271,-184.897"/>
<text text-anchor="middle" x="129.5" y="-146.5" font-family="Helvetica,sans-Serif" font-size="10.00"> nextkey</text>
<text text-anchor="middle" x="129.5" y="-135.5" font-family="Helvetica,sans-Serif" font-size="10.00">extkey</text>
</g>
<!-- Node5 -->
<g id="node5" class="node"><title>Node5</title>
<polygon fill="white" stroke="#bfbfbf" points="126,-195 126,-214 179,-214 179,-195 126,-195"/>
<text text-anchor="middle" x="152.5" y="-202" font-family="Helvetica,sans-Serif" font-size="10.00">Visibility</text>
</g>
<!-- Node5&#45;&gt;Node2 -->
<g id="edge4" class="edge"><title>Node5&#45;&gt;Node2</title>
<path fill="none" stroke="#9a32cd" stroke-dasharray="5,2" d="M152.826,-184.827C153.264,-159.747 154.025,-116.198 154.348,-97.706"/>
<polygon fill="#9a32cd" stroke="#9a32cd" points="149.326,-184.834 152.65,-194.894 156.325,-184.957 149.326,-184.834"/>
<text text-anchor="middle" x="159" y="-141" font-family="Helvetica,sans-Serif" font-size="10.00"> v</text>
</g>
<!-- Node6 -->
<g id="node6" class="node"><title>Node6</title>
<g id="a_node6"><a xlink:title="STL class. ">
<polygon fill="white" stroke="#bfbfbf" points="197.5,-195 197.5,-214 259.5,-214 259.5,-195 197.5,-195"/>
<text text-anchor="middle" x="228.5" y="-202" font-family="Helvetica,sans-Serif" font-size="10.00">std::string</text>
</a>
</g>
</g>
<!-- Node6&#45;&gt;Node2 -->
<g id="edge5" class="edge"><title>Node6&#45;&gt;Node2</title>
<path fill="none" stroke="#9a32cd" stroke-dasharray="5,2" d="M217.508,-186.493C201.499,-161.722 172.347,-116.614 160.127,-97.706"/>
<polygon fill="#9a32cd" stroke="#9a32cd" points="214.57,-188.395 222.938,-194.894 220.45,-184.595 214.57,-188.395"/>
<text text-anchor="middle" x="238" y="-163" font-family="Helvetica,sans-Serif" font-size="10.00"> count_buffer</text>
<text text-anchor="middle" x="238" y="-152" font-family="Helvetica,sans-Serif" font-size="10.00">flags</text>
<text text-anchor="middle" x="238" y="-141" font-family="Helvetica,sans-Serif" font-size="10.00">linenumber</text>
<text text-anchor="middle" x="238" y="-130" font-family="Helvetica,sans-Serif" font-size="10.00">description</text>
<text text-anchor="middle" x="238" y="-119" font-family="Helvetica,sans-Serif" font-size="10.00">filename</text>
</g>
<!-- Node7 -->
<g id="node7" class="node"><title>Node7</title>
<g id="a_node7"><a xlink:title="STL class. ">
<polygon fill="white" stroke="#bfbfbf" points="179.5,-267.5 179.5,-297.5 277.5,-297.5 277.5,-267.5 179.5,-267.5"/>
<text text-anchor="start" x="187.5" y="-285.5" font-family="Helvetica,sans-Serif" font-size="10.00">std::basic_string&lt;</text>
<text text-anchor="middle" x="228.5" y="-274.5" font-family="Helvetica,sans-Serif" font-size="10.00"> char &gt;</text>
</a>
</g>
</g>
<!-- Node7&#45;&gt;Node6 -->
<g id="edge6" class="edge"><title>Node7&#45;&gt;Node6</title>
<path fill="none" stroke="midnightblue" d="M228.5,-257.165C228.5,-242.396 228.5,-224.448 228.5,-214.064"/>
<polygon fill="midnightblue" stroke="midnightblue" points="225,-257.205 228.5,-267.205 232,-257.205 225,-257.205"/>
</g>
<!-- Node8 -->
<g id="node8" class="node"><title>Node8</title>
<g id="a_node8"><a xlink:href="../../d8/dcf/classCCCC__Table.html" target="_top" xlink:title="CCCC_Table\&lt; CCCC_Extent \&gt;">
<polygon fill="white" stroke="black" points="338,-78.5 338,-97.5 501,-97.5 501,-78.5 338,-78.5"/>
<text text-anchor="middle" x="419.5" y="-85.5" font-family="Helvetica,sans-Serif" font-size="10.00">CCCC_Table&lt; CCCC_Extent &gt;</text>
</a>
</g>
</g>
<!-- Node8&#45;&gt;Node1 -->
<g id="edge7" class="edge"><title>Node8&#45;&gt;Node1</title>
<path fill="none" stroke="#9a32cd" stroke-dasharray="5,2" d="M395.121,-73.4669C372.943,-61.1556 340.335,-43.0541 317.857,-30.5762"/>
<polygon fill="#9a32cd" stroke="#9a32cd" points="393.485,-76.5619 403.927,-78.3553 396.883,-70.4416 393.485,-76.5619"/>
<text text-anchor="middle" x="390" y="-52" font-family="Helvetica,sans-Serif" font-size="10.00"> table_ptr</text>
</g>
<!-- Node9 -->
<g id="node9" class="node"><title>Node9</title>
<g id="a_node9"><a xlink:title="STL class. ">
<polygon fill="white" stroke="#bfbfbf" points="277.5,-189.5 277.5,-219.5 403.5,-219.5 403.5,-189.5 277.5,-189.5"/>
<text text-anchor="start" x="285.5" y="-207.5" font-family="Helvetica,sans-Serif" font-size="10.00">std::map&lt; string, CCCC</text>
<text text-anchor="middle" x="340.5" y="-196.5" font-family="Helvetica,sans-Serif" font-size="10.00">_Extent * &gt;</text>
</a>
</g>
</g>
<!-- Node9&#45;&gt;Node8 -->
<g id="edge8" class="edge"><title>Node9&#45;&gt;Node8</title>
<path fill="none" stroke="midnightblue" d="M355.943,-181.118C373.551,-155.597 401.461,-115.145 413.57,-97.5944"/>
<polygon fill="midnightblue" stroke="midnightblue" points="352.985,-179.241 350.187,-189.46 358.747,-183.217 352.985,-179.241"/>
</g>
<!-- Node10 -->
<g id="node10" class="node"><title>Node10</title>
<polygon fill="white" stroke="#bfbfbf" points="311,-273 311,-292 340,-292 340,-273 311,-273"/>
<text text-anchor="middle" x="325.5" y="-280" font-family="Helvetica,sans-Serif" font-size="10.00">K</text>
</g>
<!-- Node10&#45;&gt;Node9 -->
<g id="edge9" class="edge"><title>Node10&#45;&gt;Node9</title>
<path fill="none" stroke="#9a32cd" stroke-dasharray="5,2" d="M324.371,-262.579C324.315,-254.875 324.769,-245.934 326.5,-238 327.862,-231.758 330.428,-225.223 332.995,-219.665"/>
<polygon fill="#9a32cd" stroke="#9a32cd" points="320.878,-262.848 324.729,-272.718 327.874,-262.601 320.878,-262.848"/>
<text text-anchor="middle" x="339" y="-241" font-family="Helvetica,sans-Serif" font-size="10.00"> keys</text>
</g>
<!-- Node11 -->
<g id="node11" class="node"><title>Node11</title>
<polygon fill="white" stroke="#bfbfbf" points="359,-273 359,-292 388,-292 388,-273 359,-273"/>
<text text-anchor="middle" x="373.5" y="-280" font-family="Helvetica,sans-Serif" font-size="10.00">T</text>
</g>
<!-- Node11&#45;&gt;Node9 -->
<g id="edge10" class="edge"><title>Node11&#45;&gt;Node9</title>
<path fill="none" stroke="#9a32cd" stroke-dasharray="5,2" d="M365.718,-263.579C359.872,-250.114 351.977,-231.931 346.588,-219.52"/>
<polygon fill="#9a32cd" stroke="#9a32cd" points="362.521,-265.003 369.714,-272.782 368.942,-262.215 362.521,-265.003"/>
<text text-anchor="middle" x="382.5" y="-241" font-family="Helvetica,sans-Serif" font-size="10.00"> elements</text>
</g>
<!-- Node12 -->
<g id="node12" class="node"><title>Node12</title>
<polygon fill="white" stroke="#bfbfbf" points="421.5,-195 421.5,-214 471.5,-214 471.5,-195 421.5,-195"/>
<text text-anchor="middle" x="446.5" y="-202" font-family="Helvetica,sans-Serif" font-size="10.00">iterator</text>
</g>
<!-- Node12&#45;&gt;Node8 -->
<g id="edge11" class="edge"><title>Node12&#45;&gt;Node8</title>
<path fill="none" stroke="#9a32cd" stroke-dasharray="5,2" d="M442.097,-184.827C436.183,-159.747 425.913,-116.198 421.553,-97.706"/>
<polygon fill="#9a32cd" stroke="#9a32cd" points="438.769,-185.964 444.471,-194.894 445.582,-184.358 438.769,-185.964"/>
<text text-anchor="middle" x="452" y="-141" font-family="Helvetica,sans-Serif" font-size="10.00"> iter_</text>
</g>
<!-- Node13 -->
<g id="node13" class="node"><title>Node13</title>
<polygon fill="white" stroke="#bfbfbf" points="489.5,-195 489.5,-214 525.5,-214 525.5,-195 489.5,-195"/>
<text text-anchor="middle" x="507.5" y="-202" font-family="Helvetica,sans-Serif" font-size="10.00">bool</text>
</g>
<!-- Node13&#45;&gt;Node8 -->
<g id="edge12" class="edge"><title>Node13&#45;&gt;Node8</title>
<path fill="none" stroke="#9a32cd" stroke-dasharray="5,2" d="M502.978,-184.857C497.529,-165.671 486.751,-135.859 468.5,-116 461.27,-108.133 451.207,-102.042 442.079,-97.6528"/>
<polygon fill="#9a32cd" stroke="#9a32cd" points="499.657,-185.989 505.587,-194.769 506.427,-184.208 499.657,-185.989"/>
<text text-anchor="middle" x="515.5" y="-141" font-family="Helvetica,sans-Serif" font-size="10.00"> sorted</text>
</g>
</g>
</svg>
