<?xml version="1.0" encoding="UTF-8" standalone="no"?>
<!DOCTYPE svg PUBLIC "-//W3C//DTD SVG 1.1//EN"
 "http://www.w3.org/Graphics/SVG/1.1/DTD/svg11.dtd">
<!-- Generated by graphviz version 2.38.0 (20140413.2041)
 -->
<!-- Title: CCCC_Table&lt; T &gt; Pages: 1 -->
<svg width="250pt" height="162pt"
 viewBox="0.00 0.00 250.00 162.00" xmlns="http://www.w3.org/2000/svg" xmlns:xlink="http://www.w3.org/1999/xlink">
<g id="graph0" class="graph" transform="scale(1 1) rotate(0) translate(4 158)">
<title>CCCC_Table&lt; T &gt;</title>
<polygon fill="white" stroke="none" points="-4,4 -4,-158 246,-158 246,4 -4,4"/>
<!-- Node1 -->
<g id="node1" class="node"><title>Node1</title>
<polygon fill="#bfbfbf" stroke="black" points="111,-0.5 111,-19.5 215,-19.5 215,-0.5 111,-0.5"/>
<text text-anchor="middle" x="163" y="-7.5" font-family="Helvetica,sans-Serif" font-size="10.00">CCCC_Table&lt; T &gt;</text>
</g>
<!-- Node2 -->
<g id="node2" class="node"><title>Node2</title>
<g id="a_node2"><a xlink:title="STL class. ">
<polygon fill="white" stroke="#bfbfbf" points="0,-67.5 0,-86.5 120,-86.5 120,-67.5 0,-67.5"/>
<text text-anchor="middle" x="60" y="-74.5" font-family="Helvetica,sans-Serif" font-size="10.00">std::map&lt; string, T * &gt;</text>
</a>
</g>
</g>
<!-- Node2&#45;&gt;Node1 -->
<g id="edge1" class="edge"><title>Node2&#45;&gt;Node1</title>
<path fill="none" stroke="midnightblue" d="M82.5511,-61.7687C102.939,-48.9026 132.292,-30.379 149.329,-19.6273"/>
<polygon fill="midnightblue" stroke="midnightblue" points="80.48,-58.937 73.891,-67.2338 84.2158,-64.8568 80.48,-58.937"/>
</g>
<!-- Node3 -->
<g id="node3" class="node"><title>Node3</title>
<polygon fill="white" stroke="#bfbfbf" points="21.5,-134.5 21.5,-153.5 50.5,-153.5 50.5,-134.5 21.5,-134.5"/>
<text text-anchor="middle" x="36" y="-141.5" font-family="Helvetica,sans-Serif" font-size="10.00">K</text>
</g>
<!-- Node3&#45;&gt;Node2 -->
<g id="edge2" class="edge"><title>Node3&#45;&gt;Node2</title>
<path fill="none" stroke="#9a32cd" stroke-dasharray="5,2" d="M34.027,-124.005C34.0219,-117.774 34.7271,-110.931 37,-105 39.6441,-98.1 44.863,-91.7362 49.662,-86.9219"/>
<polygon fill="#9a32cd" stroke="#9a32cd" points="30.5466,-124.448 34.6178,-134.229 37.535,-124.044 30.5466,-124.448"/>
<text text-anchor="middle" x="49.5" y="-108" font-family="Helvetica,sans-Serif" font-size="10.00"> keys</text>
</g>
<!-- Node4 -->
<g id="node4" class="node"><title>Node4</title>
<polygon fill="white" stroke="#bfbfbf" points="69.5,-134.5 69.5,-153.5 98.5,-153.5 98.5,-134.5 69.5,-134.5"/>
<text text-anchor="middle" x="84" y="-141.5" font-family="Helvetica,sans-Serif" font-size="10.00">T</text>
</g>
<!-- Node4&#45;&gt;Node2 -->
<g id="edge3" class="edge"><title>Node4&#45;&gt;Node2</title>
<path fill="none" stroke="#9a32cd" stroke-dasharray="5,2" d="M77.2763,-124.79C72.6674,-112.308 66.7619,-96.3135 63.1855,-86.6273"/>
<polygon fill="#9a32cd" stroke="#9a32cd" points="74.0161,-126.065 80.7633,-134.234 80.5828,-123.641 74.0161,-126.065"/>
<text text-anchor="middle" x="97" y="-108" font-family="Helvetica,sans-Serif" font-size="10.00"> elements</text>
</g>
<!-- Node5 -->
<g id="node5" class="node"><title>Node5</title>
<polygon fill="white" stroke="#bfbfbf" points="138,-67.5 138,-86.5 188,-86.5 188,-67.5 138,-67.5"/>
<text text-anchor="middle" x="163" y="-74.5" font-family="Helvetica,sans-Serif" font-size="10.00">iterator</text>
</g>
<!-- Node5&#45;&gt;Node1 -->
<g id="edge4" class="edge"><title>Node5&#45;&gt;Node1</title>
<path fill="none" stroke="#9a32cd" stroke-dasharray="5,2" d="M163,-57.037C163,-44.6703 163,-29.1198 163,-19.6273"/>
<polygon fill="#9a32cd" stroke="#9a32cd" points="159.5,-57.2338 163,-67.2338 166.5,-57.2338 159.5,-57.2338"/>
<text text-anchor="middle" x="175.5" y="-41" font-family="Helvetica,sans-Serif" font-size="10.00"> iter_</text>
</g>
<!-- Node6 -->
<g id="node6" class="node"><title>Node6</title>
<polygon fill="white" stroke="#bfbfbf" points="206,-67.5 206,-86.5 242,-86.5 242,-67.5 206,-67.5"/>
<text text-anchor="middle" x="224" y="-74.5" font-family="Helvetica,sans-Serif" font-size="10.00">bool</text>
</g>
<!-- Node6&#45;&gt;Node1 -->
<g id="edge5" class="edge"><title>Node6&#45;&gt;Node1</title>
<path fill="none" stroke="#9a32cd" stroke-dasharray="5,2" d="M210.762,-59.4027C205.154,-52.6069 198.437,-44.7661 192,-38 185.931,-31.6207 178.681,-24.8707 172.948,-19.7155"/>
<polygon fill="#9a32cd" stroke="#9a32cd" points="208.148,-61.7355 217.168,-67.2924 213.582,-57.323 208.148,-61.7355"/>
<text text-anchor="middle" x="218" y="-41" font-family="Helvetica,sans-Serif" font-size="10.00"> sorted</text>
</g>
</g>
</svg>
