<?xml version="1.0" encoding="UTF-8" standalone="no"?>
<!DOCTYPE svg PUBLIC "-//W3C//DTD SVG 1.1//EN"
 "http://www.w3.org/Graphics/SVG/1.1/DTD/svg11.dtd">
<!-- Generated by graphviz version 2.38.0 (20140413.2041)
 -->
<!-- Title: cccc_prj.h Pages: 1 -->
<!--zoomable 420 -->
<svg id="main" version="1.1" xmlns="http://www.w3.org/2000/svg" xmlns:xlink="http://www.w3.org/1999/xlink" xml:space="preserve" onload="init(evt)">
<style type="text/css"><![CDATA[
.edge:hover path { stroke: red; }
.edge:hover polygon { stroke: red; fill: red; }
]]></style>
<script type="text/javascript"><![CDATA[
var edges = document.getElementsByTagName('g');
if (edges && edges.length) {
  for (var i=0;i<edges.length;i++) {
    if (edges[i].id.substr(0,4)=='edge') {
      edges[i].setAttribute('class','edge');
    }
  }
}
]]></script>
        <defs>
                <circle id="rim" cx="0" cy="0" r="7"/>
                <circle id="rim2" cx="0" cy="0" r="3.5"/>
                <g id="zoomPlus">
                        <use xlink:href="#rim" fill="#404040">
                                <set attributeName="fill" to="#808080" begin="zoomplus.mouseover" end="zoomplus.mouseout"/>
                        </use>
                        <path d="M-4,0h8M0,-4v8" fill="none" stroke="white" stroke-width="1.5" pointer-events="none"/>
                </g>
                <g id="zoomMin">
                        <use xlink:href="#rim" fill="#404040">
                                <set attributeName="fill" to="#808080" begin="zoomminus.mouseover" end="zoomminus.mouseout"/>
                        </use>
                        <path d="M-4,0h8" fill="none" stroke="white" stroke-width="1.5" pointer-events="none"/>
                </g>
                <g id="dirArrow">
                        <path fill="none" stroke="white" stroke-width="1.5" d="M0,-3.0v7 M-2.5,-0.5L0,-3.0L2.5,-0.5"/>
                </g>
               <g id="resetDef">
                       <use xlink:href="#rim2" fill="#404040">
                               <set attributeName="fill" to="#808080" begin="reset.mouseover" end="reset.mouseout"/>
                       </use>
               </g>
        </defs>

<script type="text/javascript">
var viewWidth = 836;
var viewHeight = 420;
var sectionId = 'dynsection-0';
</script>
<script xlink:href="../../svgpan.js"/>
<svg id="graph" class="graph">
<g id="viewport">
<title>cccc_prj.h</title>
<polygon fill="white" stroke="none" points="-4,4 -4,-416 831.5,-416 831.5,4 -4,4"/>
<!-- Node1 -->
<g id="node1" class="node"><title>Node1</title>
<polygon fill="#bfbfbf" stroke="black" points="586.5,-392.5 586.5,-411.5 650.5,-411.5 650.5,-392.5 586.5,-392.5"/>
<text text-anchor="middle" x="618.5" y="-399.5" font-family="Helvetica,sans-Serif" font-size="10.00">cccc_prj.h</text>
</g>
<!-- Node2 -->
<g id="node2" class="node"><title>Node2</title>
<g id="a_node2"><a xlink:href="../../df/de9/cccc__rec_8h.html" target="_top" xlink:title="cccc_rec.h">
<polygon fill="white" stroke="black" points="585,-336.5 585,-355.5 652,-355.5 652,-336.5 585,-336.5"/>
<text text-anchor="middle" x="618.5" y="-343.5" font-family="Helvetica,sans-Serif" font-size="10.00">cccc_rec.h</text>
</a>
</g>
</g>
<!-- Node1&#45;&gt;Node2 -->
<g id="edge1" class="edge"><title>Node1&#45;&gt;Node2</title>
<path fill="none" stroke="midnightblue" d="M618.5,-392.083C618.5,-385.006 618.5,-374.861 618.5,-365.986"/>
<polygon fill="midnightblue" stroke="midnightblue" points="622,-365.751 618.5,-355.751 615,-365.751 622,-365.751"/>
</g>
<!-- Node3 -->
<g id="node3" class="node"><title>Node3</title>
<g id="a_node3"><a xlink:href="../../df/dd4/cccc__tbl_8h.html" target="_top" xlink:title="cccc_tbl.h">
<polygon fill="white" stroke="black" points="515.5,-280.5 515.5,-299.5 577.5,-299.5 577.5,-280.5 515.5,-280.5"/>
<text text-anchor="middle" x="546.5" y="-287.5" font-family="Helvetica,sans-Serif" font-size="10.00">cccc_tbl.h</text>
</a>
</g>
</g>
<!-- Node2&#45;&gt;Node3 -->
<g id="edge2" class="edge"><title>Node2&#45;&gt;Node3</title>
<path fill="none" stroke="midnightblue" d="M606.932,-336.324C596.08,-328.185 579.619,-315.839 566.617,-306.087"/>
<polygon fill="midnightblue" stroke="midnightblue" points="568.379,-303.034 558.279,-299.834 564.179,-308.634 568.379,-303.034"/>
</g>
<!-- Node21 -->
<g id="node21" class="node"><title>Node21</title>
<g id="a_node21"><a xlink:href="../../d3/d11/cccc__ext_8h.html" target="_top" xlink:title="cccc_ext.h">
<polygon fill="white" stroke="black" points="761.5,-224.5 761.5,-243.5 827.5,-243.5 827.5,-224.5 761.5,-224.5"/>
<text text-anchor="middle" x="794.5" y="-231.5" font-family="Helvetica,sans-Serif" font-size="10.00">cccc_ext.h</text>
</a>
</g>
</g>
<!-- Node2&#45;&gt;Node21 -->
<g id="edge25" class="edge"><title>Node2&#45;&gt;Node21</title>
<path fill="none" stroke="midnightblue" d="M632.31,-336.368C662.641,-317.412 735.299,-272.001 772.192,-248.942"/>
<polygon fill="midnightblue" stroke="midnightblue" points="774.129,-251.859 780.754,-243.591 770.419,-245.923 774.129,-251.859"/>
</g>
<!-- Node22 -->
<g id="node22" class="node"><title>Node22</title>
<g id="a_node22"><a xlink:href="../../d7/d8f/cccc__utl_8h.html" target="_top" xlink:title="cccc_utl.h">
<polygon fill="white" stroke="black" points="587.5,-168.5 587.5,-187.5 649.5,-187.5 649.5,-168.5 587.5,-168.5"/>
<text text-anchor="middle" x="618.5" y="-175.5" font-family="Helvetica,sans-Serif" font-size="10.00">cccc_utl.h</text>
</a>
</g>
</g>
<!-- Node2&#45;&gt;Node22 -->
<g id="edge33" class="edge"><title>Node2&#45;&gt;Node22</title>
<path fill="none" stroke="midnightblue" d="M618.5,-336.075C618.5,-309.945 618.5,-233.211 618.5,-197.577"/>
<polygon fill="midnightblue" stroke="midnightblue" points="622,-197.568 618.5,-187.568 615,-197.568 622,-197.568"/>
</g>
<!-- Node4 -->
<g id="node4" class="node"><title>Node4</title>
<polygon fill="white" stroke="#bfbfbf" points="0,-56.5 0,-75.5 57,-75.5 57,-56.5 0,-56.5"/>
<text text-anchor="middle" x="28.5" y="-63.5" font-family="Helvetica,sans-Serif" font-size="10.00">iostream</text>
</g>
<!-- Node3&#45;&gt;Node4 -->
<g id="edge3" class="edge"><title>Node3&#45;&gt;Node4</title>
<path fill="none" stroke="midnightblue" d="M526.511,-280.433C446.869,-246.301 151.924,-119.896 57.6641,-79.4989"/>
<polygon fill="midnightblue" stroke="midnightblue" points="58.9994,-76.2633 48.4292,-75.5411 56.242,-82.6974 58.9994,-76.2633"/>
</g>
<!-- Node5 -->
<g id="node5" class="node"><title>Node5</title>
<polygon fill="white" stroke="#bfbfbf" points="773,-56.5 773,-75.5 816,-75.5 816,-56.5 773,-56.5"/>
<text text-anchor="middle" x="794.5" y="-63.5" font-family="Helvetica,sans-Serif" font-size="10.00">string</text>
</g>
<!-- Node3&#45;&gt;Node5 -->
<g id="edge4" class="edge"><title>Node3&#45;&gt;Node5</title>
<path fill="none" stroke="midnightblue" d="M556.222,-280.297C593.647,-246.796 728.725,-125.88 777.108,-82.5688"/>
<polygon fill="midnightblue" stroke="midnightblue" points="779.729,-84.92 784.845,-75.6425 775.06,-79.7044 779.729,-84.92"/>
</g>
<!-- Node6 -->
<g id="node6" class="node"><title>Node6</title>
<polygon fill="white" stroke="#bfbfbf" points="528,-112.5 528,-131.5 565,-131.5 565,-112.5 528,-112.5"/>
<text text-anchor="middle" x="546.5" y="-119.5" font-family="Helvetica,sans-Serif" font-size="10.00">map</text>
</g>
<!-- Node3&#45;&gt;Node6 -->
<g id="edge5" class="edge"><title>Node3&#45;&gt;Node6</title>
<path fill="none" stroke="midnightblue" d="M546.5,-280.075C546.5,-253.945 546.5,-177.211 546.5,-141.577"/>
<polygon fill="midnightblue" stroke="midnightblue" points="550,-141.568 546.5,-131.568 543,-141.568 550,-141.568"/>
</g>
<!-- Node7 -->
<g id="node7" class="node"><title>Node7</title>
<g id="a_node7"><a xlink:href="../../d1/d17/cccc__tbl_8cc.html" target="_top" xlink:title="cccc_tbl.cc">
<polygon fill="white" stroke="black" points="451,-224.5 451,-243.5 518,-243.5 518,-224.5 451,-224.5"/>
<text text-anchor="middle" x="484.5" y="-231.5" font-family="Helvetica,sans-Serif" font-size="10.00">cccc_tbl.cc</text>
</a>
</g>
</g>
<!-- Node3&#45;&gt;Node7 -->
<g id="edge6" class="edge"><title>Node3&#45;&gt;Node7</title>
<path fill="none" stroke="midnightblue" d="M531.424,-280.324C520.637,-272.42 506.639,-260.548 496.58,-250.938"/>
<polygon fill="midnightblue" stroke="midnightblue" points="499.034,-248.442 489.494,-243.834 494.078,-253.386 499.034,-248.442"/>
</g>
<!-- Node7&#45;&gt;Node3 -->
<g id="edge23" class="edge"><title>Node7&#45;&gt;Node3</title>
<path fill="none" stroke="midnightblue" d="M499.679,-243.751C510.429,-251.639 524.335,-263.433 534.357,-273.002"/>
<polygon fill="midnightblue" stroke="midnightblue" points="531.885,-275.48 541.428,-280.083 536.839,-270.534 531.885,-275.48"/>
</g>
<!-- Node8 -->
<g id="node8" class="node"><title>Node8</title>
<g id="a_node8"><a xlink:href="../../dd/d1e/cccc__itm_8h.html" target="_top" xlink:title="cccc_itm.h">
<polygon fill="white" stroke="black" points="452,-168.5 452,-187.5 517,-187.5 517,-168.5 452,-168.5"/>
<text text-anchor="middle" x="484.5" y="-175.5" font-family="Helvetica,sans-Serif" font-size="10.00">cccc_itm.h</text>
</a>
</g>
</g>
<!-- Node7&#45;&gt;Node8 -->
<g id="edge7" class="edge"><title>Node7&#45;&gt;Node8</title>
<path fill="none" stroke="midnightblue" d="M484.5,-224.083C484.5,-217.006 484.5,-206.861 484.5,-197.986"/>
<polygon fill="midnightblue" stroke="midnightblue" points="488,-197.751 484.5,-187.751 481,-197.751 488,-197.751"/>
</g>
<!-- Node10 -->
<g id="node10" class="node"><title>Node10</title>
<polygon fill="white" stroke="#bfbfbf" points="75,-56.5 75,-75.5 126,-75.5 126,-56.5 75,-56.5"/>
<text text-anchor="middle" x="100.5" y="-63.5" font-family="Helvetica,sans-Serif" font-size="10.00">cassert</text>
</g>
<!-- Node7&#45;&gt;Node10 -->
<g id="edge24" class="edge"><title>Node7&#45;&gt;Node10</title>
<path fill="none" stroke="midnightblue" d="M464.663,-224.425C401.462,-197.103 204.599,-112.001 129.767,-79.6519"/>
<polygon fill="midnightblue" stroke="midnightblue" points="131.017,-76.3791 120.449,-75.6237 128.239,-82.8044 131.017,-76.3791"/>
</g>
<!-- Node9 -->
<g id="node9" class="node"><title>Node9</title>
<g id="a_node9"><a xlink:href="../../d0/d84/cccc_8h.html" target="_top" xlink:title="cccc.h">
<polygon fill="white" stroke="black" points="461.5,-112.5 461.5,-131.5 507.5,-131.5 507.5,-112.5 461.5,-112.5"/>
<text text-anchor="middle" x="484.5" y="-119.5" font-family="Helvetica,sans-Serif" font-size="10.00">cccc.h</text>
</a>
</g>
</g>
<!-- Node8&#45;&gt;Node9 -->
<g id="edge8" class="edge"><title>Node8&#45;&gt;Node9</title>
<path fill="none" stroke="midnightblue" d="M484.5,-168.083C484.5,-161.006 484.5,-150.861 484.5,-141.986"/>
<polygon fill="midnightblue" stroke="midnightblue" points="488,-141.751 484.5,-131.751 481,-141.751 488,-141.751"/>
</g>
<!-- Node9&#45;&gt;Node4 -->
<g id="edge16" class="edge"><title>Node9&#45;&gt;Node4</title>
<path fill="none" stroke="midnightblue" d="M461.185,-119.577C398.812,-115.543 222.831,-102.672 67.3174,-76.1206"/>
<polygon fill="midnightblue" stroke="midnightblue" points="67.5556,-72.6099 57.105,-74.3519 66.361,-79.5072 67.5556,-72.6099"/>
</g>
<!-- Node9&#45;&gt;Node5 -->
<g id="edge15" class="edge"><title>Node9&#45;&gt;Node5</title>
<path fill="none" stroke="midnightblue" d="M507.829,-114.454C511.388,-113.563 515.031,-112.712 518.5,-112 623.154,-90.5312 654.154,-98.867 762.857,-75.8465"/>
<polygon fill="midnightblue" stroke="midnightblue" points="763.88,-79.2064 772.916,-73.6748 762.403,-72.3641 763.88,-79.2064"/>
</g>
<!-- Node9&#45;&gt;Node10 -->
<g id="edge9" class="edge"><title>Node9&#45;&gt;Node10</title>
<path fill="none" stroke="midnightblue" d="M461.4,-119.085C406.545,-114.313 264.034,-100.613 136.011,-76.0826"/>
<polygon fill="midnightblue" stroke="midnightblue" points="136.521,-72.6162 126.037,-74.1433 135.185,-79.4876 136.521,-72.6162"/>
</g>
<!-- Node11 -->
<g id="node11" class="node"><title>Node11</title>
<polygon fill="white" stroke="#bfbfbf" points="352,-56.5 352,-75.5 397,-75.5 397,-56.5 352,-56.5"/>
<text text-anchor="middle" x="374.5" y="-63.5" font-family="Helvetica,sans-Serif" font-size="10.00">cmath</text>
</g>
<!-- Node9&#45;&gt;Node11 -->
<g id="edge10" class="edge"><title>Node9&#45;&gt;Node11</title>
<path fill="none" stroke="midnightblue" d="M466.827,-112.324C449.106,-103.625 421.597,-90.1202 401.212,-80.113"/>
<polygon fill="midnightblue" stroke="midnightblue" points="402.649,-76.9195 392.13,-75.6545 399.564,-83.2031 402.649,-76.9195"/>
</g>
<!-- Node12 -->
<g id="node12" class="node"><title>Node12</title>
<polygon fill="white" stroke="#bfbfbf" points="415.5,-56.5 415.5,-75.5 459.5,-75.5 459.5,-56.5 415.5,-56.5"/>
<text text-anchor="middle" x="437.5" y="-63.5" font-family="Helvetica,sans-Serif" font-size="10.00">cstdio</text>
</g>
<!-- Node9&#45;&gt;Node12 -->
<g id="edge11" class="edge"><title>Node9&#45;&gt;Node12</title>
<path fill="none" stroke="midnightblue" d="M476.739,-112.083C469.963,-104.298 459.957,-92.8015 451.745,-83.3665"/>
<polygon fill="midnightblue" stroke="midnightblue" points="454.322,-80.9963 445.117,-75.7511 449.042,-85.592 454.322,-80.9963"/>
</g>
<!-- Node13 -->
<g id="node13" class="node"><title>Node13</title>
<polygon fill="white" stroke="#bfbfbf" points="477.5,-56.5 477.5,-75.5 525.5,-75.5 525.5,-56.5 477.5,-56.5"/>
<text text-anchor="middle" x="501.5" y="-63.5" font-family="Helvetica,sans-Serif" font-size="10.00">cstring</text>
</g>
<!-- Node9&#45;&gt;Node13 -->
<g id="edge12" class="edge"><title>Node9&#45;&gt;Node13</title>
<path fill="none" stroke="midnightblue" d="M487.307,-112.083C489.585,-104.849 492.871,-94.4087 495.708,-85.3968"/>
<polygon fill="midnightblue" stroke="midnightblue" points="499.081,-86.3406 498.745,-75.7511 492.404,-84.2385 499.081,-86.3406"/>
</g>
<!-- Node14 -->
<g id="node14" class="node"><title>Node14</title>
<polygon fill="white" stroke="#bfbfbf" points="543.5,-56.5 543.5,-75.5 589.5,-75.5 589.5,-56.5 543.5,-56.5"/>
<text text-anchor="middle" x="566.5" y="-63.5" font-family="Helvetica,sans-Serif" font-size="10.00">cstdlib</text>
</g>
<!-- Node9&#45;&gt;Node14 -->
<g id="edge13" class="edge"><title>Node9&#45;&gt;Node14</title>
<path fill="none" stroke="midnightblue" d="M497.675,-112.324C510.347,-103.979 529.733,-91.2122 544.706,-81.3524"/>
<polygon fill="midnightblue" stroke="midnightblue" points="546.931,-84.0776 553.358,-75.6545 543.081,-78.2313 546.931,-84.0776"/>
</g>
<!-- Node15 -->
<g id="node15" class="node"><title>Node15</title>
<polygon fill="white" stroke="#bfbfbf" points="144,-56.5 144,-75.5 191,-75.5 191,-56.5 144,-56.5"/>
<text text-anchor="middle" x="167.5" y="-63.5" font-family="Helvetica,sans-Serif" font-size="10.00">cctype</text>
</g>
<!-- Node9&#45;&gt;Node15 -->
<g id="edge14" class="edge"><title>Node9&#45;&gt;Node15</title>
<path fill="none" stroke="midnightblue" d="M461.149,-118.178C413.93,-112.284 303.589,-97.5701 201.108,-75.9178"/>
<polygon fill="midnightblue" stroke="midnightblue" points="201.728,-72.4714 191.217,-73.8008 200.263,-79.3163 201.728,-72.4714"/>
</g>
<!-- Node16 -->
<g id="node16" class="node"><title>Node16</title>
<polygon fill="white" stroke="#bfbfbf" points="209.5,-56.5 209.5,-75.5 263.5,-75.5 263.5,-56.5 209.5,-56.5"/>
<text text-anchor="middle" x="236.5" y="-63.5" font-family="Helvetica,sans-Serif" font-size="10.00">sstream</text>
</g>
<!-- Node9&#45;&gt;Node16 -->
<g id="edge17" class="edge"><title>Node9&#45;&gt;Node16</title>
<path fill="none" stroke="midnightblue" d="M461.226,-116.344C423.818,-108.799 347.777,-93.213 273.581,-76.1872"/>
<polygon fill="midnightblue" stroke="midnightblue" points="274.133,-72.7227 263.602,-73.8859 272.559,-79.5437 274.133,-72.7227"/>
</g>
<!-- Node17 -->
<g id="node17" class="node"><title>Node17</title>
<polygon fill="white" stroke="#bfbfbf" points="281.5,-56.5 281.5,-75.5 333.5,-75.5 333.5,-56.5 281.5,-56.5"/>
<text text-anchor="middle" x="307.5" y="-63.5" font-family="Helvetica,sans-Serif" font-size="10.00">fstream</text>
</g>
<!-- Node9&#45;&gt;Node17 -->
<g id="edge18" class="edge"><title>Node9&#45;&gt;Node17</title>
<path fill="none" stroke="midnightblue" d="M461.36,-113.94C431.339,-104.781 378.646,-88.7055 343.408,-77.955"/>
<polygon fill="midnightblue" stroke="midnightblue" points="344.108,-74.5093 333.522,-74.9389 342.065,-81.2047 344.108,-74.5093"/>
</g>
<!-- Node18 -->
<g id="node18" class="node"><title>Node18</title>
<g id="a_node18"><a xlink:href="../../d1/d7d/cccc__tok_8h.html" target="_top" xlink:title="cccc_tok.h">
<polygon fill="white" stroke="black" points="607.5,-56.5 607.5,-75.5 673.5,-75.5 673.5,-56.5 607.5,-56.5"/>
<text text-anchor="middle" x="640.5" y="-63.5" font-family="Helvetica,sans-Serif" font-size="10.00">cccc_tok.h</text>
</a>
</g>
</g>
<!-- Node9&#45;&gt;Node18 -->
<g id="edge19" class="edge"><title>Node9&#45;&gt;Node18</title>
<path fill="none" stroke="midnightblue" d="M504.13,-112.444C528.487,-103.32 570.201,-88.8133 601.174,-78.6509"/>
<polygon fill="midnightblue" stroke="midnightblue" points="602.389,-81.9363 610.817,-75.5164 600.225,-75.2792 602.389,-81.9363"/>
</g>
<!-- Node20 -->
<g id="node20" class="node"><title>Node20</title>
<polygon fill="white" stroke="#bfbfbf" points="692,-56.5 692,-75.5 755,-75.5 755,-56.5 692,-56.5"/>
<text text-anchor="middle" x="723.5" y="-63.5" font-family="Helvetica,sans-Serif" font-size="10.00">AParser.h</text>
</g>
<!-- Node9&#45;&gt;Node20 -->
<g id="edge22" class="edge"><title>Node9&#45;&gt;Node20</title>
<path fill="none" stroke="midnightblue" d="M507.511,-114.767C511.18,-113.814 514.939,-112.862 518.5,-112 519.504,-111.757 622.13,-89.2389 681.776,-76.1533"/>
<polygon fill="midnightblue" stroke="midnightblue" points="682.65,-79.5447 691.668,-73.983 681.15,-72.7073 682.65,-79.5447"/>
</g>
<!-- Node18&#45;&gt;Node9 -->
<g id="edge20" class="edge"><title>Node18&#45;&gt;Node9</title>
<path fill="none" stroke="midnightblue" d="M620.945,-75.5285C594.816,-85.3186 548.622,-101.332 517.201,-111.509"/>
<polygon fill="midnightblue" stroke="midnightblue" points="516.02,-108.212 507.562,-114.593 518.153,-114.879 516.02,-108.212"/>
</g>
<!-- Node19 -->
<g id="node19" class="node"><title>Node19</title>
<polygon fill="white" stroke="#bfbfbf" points="609.5,-0.5 609.5,-19.5 671.5,-19.5 671.5,-0.5 609.5,-0.5"/>
<text text-anchor="middle" x="640.5" y="-7.5" font-family="Helvetica,sans-Serif" font-size="10.00">AToken.h</text>
</g>
<!-- Node18&#45;&gt;Node19 -->
<g id="edge21" class="edge"><title>Node18&#45;&gt;Node19</title>
<path fill="none" stroke="midnightblue" d="M640.5,-56.083C640.5,-49.0059 640.5,-38.8611 640.5,-29.9865"/>
<polygon fill="midnightblue" stroke="midnightblue" points="644,-29.751 640.5,-19.7511 637,-29.7511 644,-29.751"/>
</g>
<!-- Node21&#45;&gt;Node5 -->
<g id="edge26" class="edge"><title>Node21&#45;&gt;Node5</title>
<path fill="none" stroke="midnightblue" d="M794.5,-224.075C794.5,-197.945 794.5,-121.211 794.5,-85.577"/>
<polygon fill="midnightblue" stroke="midnightblue" points="798,-85.5681 794.5,-75.5681 791,-85.5681 798,-85.5681"/>
</g>
<!-- Node21&#45;&gt;Node22 -->
<g id="edge27" class="edge"><title>Node21&#45;&gt;Node22</title>
<path fill="none" stroke="midnightblue" d="M766.612,-224.444C736.746,-215.28 689.185,-200.688 656.044,-190.519"/>
<polygon fill="midnightblue" stroke="midnightblue" points="656.844,-187.104 646.257,-187.516 654.791,-193.796 656.844,-187.104"/>
</g>
<!-- Node22&#45;&gt;Node6 -->
<g id="edge29" class="edge"><title>Node22&#45;&gt;Node6</title>
<path fill="none" stroke="midnightblue" d="M606.932,-168.324C596.08,-160.185 579.619,-147.839 566.617,-138.087"/>
<polygon fill="midnightblue" stroke="midnightblue" points="568.379,-135.034 558.279,-131.834 564.179,-140.634 568.379,-135.034"/>
</g>
<!-- Node22&#45;&gt;Node9 -->
<g id="edge28" class="edge"><title>Node22&#45;&gt;Node9</title>
<path fill="none" stroke="midnightblue" d="M597.267,-168.444C575.116,-159.517 540.181,-145.439 515.064,-135.317"/>
<polygon fill="midnightblue" stroke="midnightblue" points="516.217,-132.008 505.633,-131.516 513.6,-138.501 516.217,-132.008"/>
</g>
<!-- Node22&#45;&gt;Node18 -->
<g id="edge31" class="edge"><title>Node22&#45;&gt;Node18</title>
<path fill="none" stroke="midnightblue" d="M617.031,-168.437C615.171,-155.862 612.745,-131.751 617.5,-112 619.807,-102.418 624.517,-92.5813 629.078,-84.5579"/>
<polygon fill="midnightblue" stroke="midnightblue" points="632.192,-86.1727 634.395,-75.8095 626.211,-82.537 632.192,-86.1727"/>
</g>
<!-- Node22&#45;&gt;Node20 -->
<g id="edge32" class="edge"><title>Node22&#45;&gt;Node20</title>
<path fill="none" stroke="midnightblue" d="M621.115,-168.092C625.423,-154.645 635.099,-128.937 650.5,-112 662.66,-98.6269 679.705,-87.8172 694.266,-80.1472"/>
<polygon fill="midnightblue" stroke="midnightblue" points="696.031,-83.1775 703.4,-75.565 692.892,-76.9207 696.031,-83.1775"/>
</g>
<!-- Node23 -->
<g id="node23" class="node"><title>Node23</title>
<polygon fill="white" stroke="#bfbfbf" points="659.5,-112.5 659.5,-131.5 705.5,-131.5 705.5,-112.5 659.5,-112.5"/>
<text text-anchor="middle" x="682.5" y="-119.5" font-family="Helvetica,sans-Serif" font-size="10.00">vector</text>
</g>
<!-- Node22&#45;&gt;Node23 -->
<g id="edge30" class="edge"><title>Node22&#45;&gt;Node23</title>
<path fill="none" stroke="midnightblue" d="M628.783,-168.324C638.336,-160.263 652.78,-148.077 664.284,-138.369"/>
<polygon fill="midnightblue" stroke="midnightblue" points="666.644,-140.958 672.03,-131.834 662.13,-135.608 666.644,-140.958"/>
</g>
</g>
</svg>
        <g id="navigator" transform="translate(0 0)" fill="#404254">
                <rect fill="#f2f5e9" fill-opacity="0.5" stroke="#606060" stroke-width=".5" x="0" y="0" width="60" height="60"/>
                <use id="zoomplus" xlink:href="#zoomPlus" x="17" y="9" onmousedown="handleZoom(evt,'in')"/>
                <use id="zoomminus" xlink:href="#zoomMin" x="42" y="9" onmousedown="handleZoom(evt,'out')"/>
                <use id="reset" xlink:href="#resetDef" x="30" y="36" onmousedown="handleReset()"/>
                <g id="arrowUp" xlink:href="#dirArrow" transform="translate(30 24)" onmousedown="handlePan(0,-1)">
                  <use xlink:href="#rim" fill="#404040">
                        <set attributeName="fill" to="#808080" begin="arrowUp.mouseover" end="arrowUp.mouseout"/>
                  </use>
                  <path fill="none" stroke="white" stroke-width="1.5" d="M0,-3.0v7 M-2.5,-0.5L0,-3.0L2.5,-0.5"/>
                </g>
                <g id="arrowRight" xlink:href="#dirArrow" transform="rotate(90) translate(36 -43)" onmousedown="handlePan(1,0)">
                  <use xlink:href="#rim" fill="#404040">
                        <set attributeName="fill" to="#808080" begin="arrowRight.mouseover" end="arrowRight.mouseout"/>
                  </use>
                  <path fill="none" stroke="white" stroke-width="1.5" d="M0,-3.0v7 M-2.5,-0.5L0,-3.0L2.5,-0.5"/>
                </g>
                <g id="arrowDown" xlink:href="#dirArrow" transform="rotate(180) translate(-30 -48)" onmousedown="handlePan(0,1)">
                  <use xlink:href="#rim" fill="#404040">
                        <set attributeName="fill" to="#808080" begin="arrowDown.mouseover" end="arrowDown.mouseout"/>
                  </use>
                  <path fill="none" stroke="white" stroke-width="1.5" d="M0,-3.0v7 M-2.5,-0.5L0,-3.0L2.5,-0.5"/>
                </g>
                <g id="arrowLeft" xlink:href="#dirArrow" transform="rotate(270) translate(-36 17)" onmousedown="handlePan(-1,0)">
                  <use xlink:href="#rim" fill="#404040">
                        <set attributeName="fill" to="#808080" begin="arrowLeft.mouseover" end="arrowLeft.mouseout"/>
                  </use>
                  <path fill="none" stroke="white" stroke-width="1.5" d="M0,-3.0v7 M-2.5,-0.5L0,-3.0L2.5,-0.5"/>
                </g>
        </g>
        <svg viewBox="0 0 15 15" width="100%" height="30px" preserveAspectRatio="xMaxYMin meet">
         <g id="arrow_out" transform="scale(0.3 0.3)">
          <a xlink:href="cccc__prj_8h__incl_org.svg" target="_base">
           <rect id="button" ry="5" rx="5" y="6" x="6" height="38" width="38"
                fill="#f2f5e9" fill-opacity="0.5" stroke="#606060" stroke-width="1.0"/>
           <path id="arrow"
             d="M 11.500037,31.436501 C 11.940474,20.09759 22.043105,11.32322 32.158766,21.979434 L 37.068811,17.246167 C 37.068811,17.246167 37.088388,32 37.088388,32 L 22.160133,31.978069 C 22.160133,31.978069 26.997745,27.140456 26.997745,27.140456 C 18.528582,18.264221 13.291696,25.230495 11.500037,31.436501 z"
             style="fill:#404040;"/>
          </a>
         </g>
        </svg>
</svg>
