<?xml version="1.0" encoding="UTF-8" standalone="no"?>
<!DOCTYPE svg PUBLIC "-//W3C//DTD SVG 1.1//EN"
 "http://www.w3.org/Graphics/SVG/1.1/DTD/svg11.dtd">
<!-- Generated by graphviz version 2.38.0 (20140413.2041)
 -->
<!-- Title: cccc.cpp Pages: 1 -->
<svg width="985pt" height="364pt"
 viewBox="0.00 0.00 985.00 364.00" xmlns="http://www.w3.org/2000/svg" xmlns:xlink="http://www.w3.org/1999/xlink">
<g id="graph0" class="graph" transform="scale(1 1) rotate(0) translate(4 360)">
<title>cccc.cpp</title>
<polygon fill="white" stroke="none" points="-4,4 -4,-360 981,-360 981,4 -4,4"/>
<!-- Node1 -->
<g id="node1" class="node"><title>Node1</title>
<polygon fill="#bfbfbf" stroke="black" points="569,-336.5 569,-355.5 626,-355.5 626,-336.5 569,-336.5"/>
<text text-anchor="middle" x="597.5" y="-343.5" font-family="Helvetica,sans-Serif" font-size="10.00">cccc.cpp</text>
</g>
<!-- Node2 -->
<g id="node2" class="node"><title>Node2</title>
<polygon fill="white" stroke="#bfbfbf" points="229.5,-280.5 229.5,-299.5 293.5,-299.5 293.5,-280.5 229.5,-280.5"/>
<text text-anchor="middle" x="261.5" y="-287.5" font-family="Helvetica,sans-Serif" font-size="10.00">pcctscfg.h</text>
</g>
<!-- Node1&#45;&gt;Node2 -->
<g id="edge1" class="edge"><title>Node1&#45;&gt;Node2</title>
<path fill="none" stroke="midnightblue" d="M568.919,-341.266C517.767,-334.45 406.996,-319.079 303.663,-300.118"/>
<polygon fill="midnightblue" stroke="midnightblue" points="304.159,-296.65 293.689,-298.272 302.885,-303.534 304.159,-296.65"/>
</g>
<!-- Node3 -->
<g id="node3" class="node"><title>Node3</title>
<polygon fill="white" stroke="#bfbfbf" points="311.5,-280.5 311.5,-299.5 389.5,-299.5 389.5,-280.5 311.5,-280.5"/>
<text text-anchor="middle" x="350.5" y="-287.5" font-family="Helvetica,sans-Serif" font-size="10.00">pccts_stdio.h</text>
</g>
<!-- Node1&#45;&gt;Node3 -->
<g id="edge2" class="edge"><title>Node1&#45;&gt;Node3</title>
<path fill="none" stroke="midnightblue" d="M568.683,-338.7C527.251,-329.642 450.29,-312.816 399.737,-301.764"/>
<polygon fill="midnightblue" stroke="midnightblue" points="400.202,-298.283 389.685,-299.567 398.706,-305.122 400.202,-298.283"/>
</g>
<!-- Node4 -->
<g id="node4" class="node"><title>Node4</title>
<g id="a_node4"><a xlink:href="../../d0/dd4/Ctokens_8h.html" target="_top" xlink:title="Ctokens.h">
<polygon fill="white" stroke="black" points="407.5,-280.5 407.5,-299.5 471.5,-299.5 471.5,-280.5 407.5,-280.5"/>
<text text-anchor="middle" x="439.5" y="-287.5" font-family="Helvetica,sans-Serif" font-size="10.00">Ctokens.h</text>
</a>
</g>
</g>
<!-- Node1&#45;&gt;Node4 -->
<g id="edge3" class="edge"><title>Node1&#45;&gt;Node4</title>
<path fill="none" stroke="midnightblue" d="M572.464,-336.444C545.884,-327.359 503.691,-312.939 473.977,-302.783"/>
<polygon fill="midnightblue" stroke="midnightblue" points="475.013,-299.439 464.418,-299.516 472.749,-306.062 475.013,-299.439"/>
</g>
<!-- Node5 -->
<g id="node5" class="node"><title>Node5</title>
<polygon fill="white" stroke="#bfbfbf" points="753,-56.5 753,-75.5 816,-75.5 816,-56.5 753,-56.5"/>
<text text-anchor="middle" x="784.5" y="-63.5" font-family="Helvetica,sans-Serif" font-size="10.00">AParser.h</text>
</g>
<!-- Node1&#45;&gt;Node5 -->
<g id="edge4" class="edge"><title>Node1&#45;&gt;Node5</title>
<path fill="none" stroke="midnightblue" d="M626.309,-341.437C678.764,-333.168 784.5,-307.506 784.5,-235 784.5,-235 784.5,-235 784.5,-177 784.5,-144.948 784.5,-107.643 784.5,-85.7489"/>
<polygon fill="midnightblue" stroke="midnightblue" points="788,-85.5577 784.5,-75.5578 781,-85.5578 788,-85.5577"/>
</g>
<!-- Node6 -->
<g id="node6" class="node"><title>Node6</title>
<g id="a_node6"><a xlink:href="../../d0/d84/cccc_8h.html" target="_top" xlink:title="cccc.h">
<polygon fill="white" stroke="black" points="475.5,-112.5 475.5,-131.5 521.5,-131.5 521.5,-112.5 475.5,-112.5"/>
<text text-anchor="middle" x="498.5" y="-119.5" font-family="Helvetica,sans-Serif" font-size="10.00">cccc.h</text>
</a>
</g>
</g>
<!-- Node1&#45;&gt;Node6 -->
<g id="edge5" class="edge"><title>Node1&#45;&gt;Node6</title>
<path fill="none" stroke="midnightblue" d="M589.319,-336.308C574.164,-319.718 541.702,-281.81 524.5,-244 513.919,-220.743 516.895,-212.975 511.5,-188 508.155,-172.514 504.648,-154.885 502.121,-141.898"/>
<polygon fill="midnightblue" stroke="midnightblue" points="505.513,-141.004 500.181,-131.849 498.64,-142.331 505.513,-141.004"/>
</g>
<!-- Node19 -->
<g id="node19" class="node"><title>Node19</title>
<g id="a_node19"><a xlink:href="../../d7/d8f/cccc__utl_8h.html" target="_top" xlink:title="cccc_utl.h">
<polygon fill="white" stroke="black" points="656.5,-168.5 656.5,-187.5 718.5,-187.5 718.5,-168.5 656.5,-168.5"/>
<text text-anchor="middle" x="687.5" y="-175.5" font-family="Helvetica,sans-Serif" font-size="10.00">cccc_utl.h</text>
</a>
</g>
</g>
<!-- Node1&#45;&gt;Node19 -->
<g id="edge20" class="edge"><title>Node1&#45;&gt;Node19</title>
<path fill="none" stroke="midnightblue" d="M621.14,-336.441C637.426,-329.271 658.111,-317.386 669.5,-300 689.987,-268.726 690.81,-223.246 689.325,-197.887"/>
<polygon fill="midnightblue" stroke="midnightblue" points="692.804,-197.474 688.543,-187.774 685.824,-198.014 692.804,-197.474"/>
</g>
<!-- Node22 -->
<g id="node22" class="node"><title>Node22</title>
<g id="a_node22"><a xlink:href="../../db/ded/cccc__opt_8h.html" target="_top" xlink:title="cccc_opt.h">
<polygon fill="white" stroke="black" points="533,-224.5 533,-243.5 600,-243.5 600,-224.5 533,-224.5"/>
<text text-anchor="middle" x="566.5" y="-231.5" font-family="Helvetica,sans-Serif" font-size="10.00">cccc_opt.h</text>
</a>
</g>
</g>
<!-- Node1&#45;&gt;Node22 -->
<g id="edge26" class="edge"><title>Node1&#45;&gt;Node22</title>
<path fill="none" stroke="midnightblue" d="M595.067,-336.368C590.042,-318.537 578.42,-277.295 571.649,-253.272"/>
<polygon fill="midnightblue" stroke="midnightblue" points="575.003,-252.267 568.921,-243.591 568.265,-254.166 575.003,-252.267"/>
</g>
<!-- Node24 -->
<g id="node24" class="node"><title>Node24</title>
<g id="a_node24"><a xlink:href="../../d3/db6/CParser_8h.html" target="_top" xlink:title="CParser.h">
<polygon fill="white" stroke="black" points="596.5,-280.5 596.5,-299.5 660.5,-299.5 660.5,-280.5 596.5,-280.5"/>
<text text-anchor="middle" x="628.5" y="-287.5" font-family="Helvetica,sans-Serif" font-size="10.00">CParser.h</text>
</a>
</g>
</g>
<!-- Node1&#45;&gt;Node24 -->
<g id="edge30" class="edge"><title>Node1&#45;&gt;Node24</title>
<path fill="none" stroke="midnightblue" d="M602.619,-336.083C606.908,-328.613 613.158,-317.724 618.442,-308.52"/>
<polygon fill="midnightblue" stroke="midnightblue" points="621.533,-310.166 623.476,-299.751 615.462,-306.681 621.533,-310.166"/>
</g>
<!-- Node25 -->
<g id="node25" class="node"><title>Node25</title>
<polygon fill="white" stroke="#bfbfbf" points="813,-280.5 813,-299.5 896,-299.5 896,-280.5 813,-280.5"/>
<text text-anchor="middle" x="854.5" y="-287.5" font-family="Helvetica,sans-Serif" font-size="10.00">DLexerBase.h</text>
</g>
<!-- Node1&#45;&gt;Node25 -->
<g id="edge35" class="edge"><title>Node1&#45;&gt;Node25</title>
<path fill="none" stroke="midnightblue" d="M626.482,-338.91C669.522,-329.867 750.943,-312.759 803.94,-301.624"/>
<polygon fill="midnightblue" stroke="midnightblue" points="804.748,-305.03 813.814,-299.549 803.308,-298.18 804.748,-305.03"/>
</g>
<!-- Node26 -->
<g id="node26" class="node"><title>Node26</title>
<polygon fill="white" stroke="#bfbfbf" points="914,-280.5 914,-299.5 977,-299.5 977,-280.5 914,-280.5"/>
<text text-anchor="middle" x="945.5" y="-287.5" font-family="Helvetica,sans-Serif" font-size="10.00">ATokPtr.h</text>
</g>
<!-- Node1&#45;&gt;Node26 -->
<g id="edge36" class="edge"><title>Node1&#45;&gt;Node26</title>
<path fill="none" stroke="midnightblue" d="M626.07,-341.565C678.952,-335.049 795.853,-319.905 903.606,-300.246"/>
<polygon fill="midnightblue" stroke="midnightblue" points="904.468,-303.646 913.668,-298.392 903.2,-296.762 904.468,-303.646"/>
</g>
<!-- Node6&#45;&gt;Node5 -->
<g id="edge19" class="edge"><title>Node6&#45;&gt;Node5</title>
<path fill="none" stroke="midnightblue" d="M521.519,-117.044C563.419,-109.787 655.156,-93.6278 742.891,-76.0657"/>
<polygon fill="midnightblue" stroke="midnightblue" points="743.625,-79.4883 752.739,-74.0851 742.245,-72.6257 743.625,-79.4883"/>
</g>
<!-- Node7 -->
<g id="node7" class="node"><title>Node7</title>
<polygon fill="white" stroke="#bfbfbf" points="344,-56.5 344,-75.5 395,-75.5 395,-56.5 344,-56.5"/>
<text text-anchor="middle" x="369.5" y="-63.5" font-family="Helvetica,sans-Serif" font-size="10.00">cassert</text>
</g>
<!-- Node6&#45;&gt;Node7 -->
<g id="edge6" class="edge"><title>Node6&#45;&gt;Node7</title>
<path fill="none" stroke="midnightblue" d="M478.06,-112.444C456.83,-103.557 423.401,-89.5632 399.245,-79.4514"/>
<polygon fill="midnightblue" stroke="midnightblue" points="400.421,-76.1493 389.845,-75.5164 397.718,-82.6064 400.421,-76.1493"/>
</g>
<!-- Node8 -->
<g id="node8" class="node"><title>Node8</title>
<polygon fill="white" stroke="#bfbfbf" points="413,-56.5 413,-75.5 458,-75.5 458,-56.5 413,-56.5"/>
<text text-anchor="middle" x="435.5" y="-63.5" font-family="Helvetica,sans-Serif" font-size="10.00">cmath</text>
</g>
<!-- Node6&#45;&gt;Node8 -->
<g id="edge7" class="edge"><title>Node6&#45;&gt;Node8</title>
<path fill="none" stroke="midnightblue" d="M488.378,-112.324C478.974,-104.263 464.756,-92.0765 453.431,-82.3695"/>
<polygon fill="midnightblue" stroke="midnightblue" points="455.677,-79.6844 445.806,-75.8339 451.121,-84.9993 455.677,-79.6844"/>
</g>
<!-- Node9 -->
<g id="node9" class="node"><title>Node9</title>
<polygon fill="white" stroke="#bfbfbf" points="476.5,-56.5 476.5,-75.5 520.5,-75.5 520.5,-56.5 476.5,-56.5"/>
<text text-anchor="middle" x="498.5" y="-63.5" font-family="Helvetica,sans-Serif" font-size="10.00">cstdio</text>
</g>
<!-- Node6&#45;&gt;Node9 -->
<g id="edge8" class="edge"><title>Node6&#45;&gt;Node9</title>
<path fill="none" stroke="midnightblue" d="M498.5,-112.083C498.5,-105.006 498.5,-94.8611 498.5,-85.9865"/>
<polygon fill="midnightblue" stroke="midnightblue" points="502,-85.751 498.5,-75.7511 495,-85.7511 502,-85.751"/>
</g>
<!-- Node10 -->
<g id="node10" class="node"><title>Node10</title>
<polygon fill="white" stroke="#bfbfbf" points="538.5,-56.5 538.5,-75.5 586.5,-75.5 586.5,-56.5 538.5,-56.5"/>
<text text-anchor="middle" x="562.5" y="-63.5" font-family="Helvetica,sans-Serif" font-size="10.00">cstring</text>
</g>
<!-- Node6&#45;&gt;Node10 -->
<g id="edge9" class="edge"><title>Node6&#45;&gt;Node10</title>
<path fill="none" stroke="midnightblue" d="M508.783,-112.324C518.336,-104.263 532.78,-92.0765 544.284,-82.3695"/>
<polygon fill="midnightblue" stroke="midnightblue" points="546.644,-84.9577 552.03,-75.8339 542.13,-79.6076 546.644,-84.9577"/>
</g>
<!-- Node11 -->
<g id="node11" class="node"><title>Node11</title>
<polygon fill="white" stroke="#bfbfbf" points="604.5,-56.5 604.5,-75.5 650.5,-75.5 650.5,-56.5 604.5,-56.5"/>
<text text-anchor="middle" x="627.5" y="-63.5" font-family="Helvetica,sans-Serif" font-size="10.00">cstdlib</text>
</g>
<!-- Node6&#45;&gt;Node11 -->
<g id="edge10" class="edge"><title>Node6&#45;&gt;Node11</title>
<path fill="none" stroke="midnightblue" d="M518.94,-112.444C540.17,-103.557 573.599,-89.5632 597.755,-79.4514"/>
<polygon fill="midnightblue" stroke="midnightblue" points="599.282,-82.6064 607.155,-75.5164 596.579,-76.1493 599.282,-82.6064"/>
</g>
<!-- Node12 -->
<g id="node12" class="node"><title>Node12</title>
<polygon fill="white" stroke="#bfbfbf" points="0,-56.5 0,-75.5 47,-75.5 47,-56.5 0,-56.5"/>
<text text-anchor="middle" x="23.5" y="-63.5" font-family="Helvetica,sans-Serif" font-size="10.00">cctype</text>
</g>
<!-- Node6&#45;&gt;Node12 -->
<g id="edge11" class="edge"><title>Node6&#45;&gt;Node12</title>
<path fill="none" stroke="midnightblue" d="M475.238,-120.055C410.409,-117.125 222.167,-106.593 57.4697,-76.0882"/>
<polygon fill="midnightblue" stroke="midnightblue" points="57.6322,-72.5573 47.1571,-74.1457 56.3364,-79.4363 57.6322,-72.5573"/>
</g>
<!-- Node13 -->
<g id="node13" class="node"><title>Node13</title>
<polygon fill="white" stroke="#bfbfbf" points="65,-56.5 65,-75.5 108,-75.5 108,-56.5 65,-56.5"/>
<text text-anchor="middle" x="86.5" y="-63.5" font-family="Helvetica,sans-Serif" font-size="10.00">string</text>
</g>
<!-- Node6&#45;&gt;Node13 -->
<g id="edge12" class="edge"><title>Node6&#45;&gt;Node13</title>
<path fill="none" stroke="midnightblue" d="M475.456,-119.689C417.07,-116.071 258.54,-104.413 118.094,-76.0172"/>
<polygon fill="midnightblue" stroke="midnightblue" points="118.515,-72.5306 108.015,-73.9437 117.105,-79.387 118.515,-72.5306"/>
</g>
<!-- Node14 -->
<g id="node14" class="node"><title>Node14</title>
<polygon fill="white" stroke="#bfbfbf" points="126,-56.5 126,-75.5 183,-75.5 183,-56.5 126,-56.5"/>
<text text-anchor="middle" x="154.5" y="-63.5" font-family="Helvetica,sans-Serif" font-size="10.00">iostream</text>
</g>
<!-- Node6&#45;&gt;Node14 -->
<g id="edge13" class="edge"><title>Node6&#45;&gt;Node14</title>
<path fill="none" stroke="midnightblue" d="M475.353,-118.291C425.639,-112.325 304.806,-97.0369 193.158,-75.9711"/>
<polygon fill="midnightblue" stroke="midnightblue" points="193.556,-72.4838 183.077,-74.0481 192.244,-79.3599 193.556,-72.4838"/>
</g>
<!-- Node15 -->
<g id="node15" class="node"><title>Node15</title>
<polygon fill="white" stroke="#bfbfbf" points="201.5,-56.5 201.5,-75.5 255.5,-75.5 255.5,-56.5 201.5,-56.5"/>
<text text-anchor="middle" x="228.5" y="-63.5" font-family="Helvetica,sans-Serif" font-size="10.00">sstream</text>
</g>
<!-- Node6&#45;&gt;Node15 -->
<g id="edge14" class="edge"><title>Node6&#45;&gt;Node15</title>
<path fill="none" stroke="midnightblue" d="M475.496,-117.009C435.055,-109.902 348.388,-94.257 265.423,-76.1089"/>
<polygon fill="midnightblue" stroke="midnightblue" points="266.108,-72.6759 255.589,-73.9418 264.602,-79.5119 266.108,-72.6759"/>
</g>
<!-- Node16 -->
<g id="node16" class="node"><title>Node16</title>
<polygon fill="white" stroke="#bfbfbf" points="273.5,-56.5 273.5,-75.5 325.5,-75.5 325.5,-56.5 273.5,-56.5"/>
<text text-anchor="middle" x="299.5" y="-63.5" font-family="Helvetica,sans-Serif" font-size="10.00">fstream</text>
</g>
<!-- Node6&#45;&gt;Node16 -->
<g id="edge15" class="edge"><title>Node6&#45;&gt;Node16</title>
<path fill="none" stroke="midnightblue" d="M475.283,-114.7C440.878,-105.364 376.065,-87.7763 335.48,-76.7634"/>
<polygon fill="midnightblue" stroke="midnightblue" points="336.285,-73.3553 325.717,-74.1142 334.452,-80.111 336.285,-73.3553"/>
</g>
<!-- Node17 -->
<g id="node17" class="node"><title>Node17</title>
<g id="a_node17"><a xlink:href="../../d1/d7d/cccc__tok_8h.html" target="_top" xlink:title="cccc_tok.h">
<polygon fill="white" stroke="black" points="668.5,-56.5 668.5,-75.5 734.5,-75.5 734.5,-56.5 668.5,-56.5"/>
<text text-anchor="middle" x="701.5" y="-63.5" font-family="Helvetica,sans-Serif" font-size="10.00">cccc_tok.h</text>
</a>
</g>
</g>
<!-- Node6&#45;&gt;Node17 -->
<g id="edge16" class="edge"><title>Node6&#45;&gt;Node17</title>
<path fill="none" stroke="midnightblue" d="M521.881,-113.492C555.265,-103.987 616.751,-87.5835 658.452,-77.0186"/>
<polygon fill="midnightblue" stroke="midnightblue" points="659.493,-80.3659 668.336,-74.5315 657.785,-73.5775 659.493,-80.3659"/>
</g>
<!-- Node17&#45;&gt;Node6 -->
<g id="edge17" class="edge"><title>Node17&#45;&gt;Node6</title>
<path fill="none" stroke="midnightblue" d="M674.475,-75.5418C637.46,-85.9994 571.425,-103.544 531.531,-113.501"/>
<polygon fill="midnightblue" stroke="midnightblue" points="530.612,-110.123 521.744,-115.92 532.292,-116.919 530.612,-110.123"/>
</g>
<!-- Node18 -->
<g id="node18" class="node"><title>Node18</title>
<polygon fill="white" stroke="#bfbfbf" points="670.5,-0.5 670.5,-19.5 732.5,-19.5 732.5,-0.5 670.5,-0.5"/>
<text text-anchor="middle" x="701.5" y="-7.5" font-family="Helvetica,sans-Serif" font-size="10.00">AToken.h</text>
</g>
<!-- Node17&#45;&gt;Node18 -->
<g id="edge18" class="edge"><title>Node17&#45;&gt;Node18</title>
<path fill="none" stroke="midnightblue" d="M701.5,-56.083C701.5,-49.0059 701.5,-38.8611 701.5,-29.9865"/>
<polygon fill="midnightblue" stroke="midnightblue" points="705,-29.751 701.5,-19.7511 698,-29.7511 705,-29.751"/>
</g>
<!-- Node19&#45;&gt;Node5 -->
<g id="edge25" class="edge"><title>Node19&#45;&gt;Node5</title>
<path fill="none" stroke="midnightblue" d="M681.506,-168.224C673.258,-154.949 660.697,-129.463 672.5,-112 680.871,-99.6146 714.701,-87.0568 743.011,-78.366"/>
<polygon fill="midnightblue" stroke="midnightblue" points="744.163,-81.6748 752.744,-75.4599 742.161,-74.9674 744.163,-81.6748"/>
</g>
<!-- Node19&#45;&gt;Node6 -->
<g id="edge21" class="edge"><title>Node19&#45;&gt;Node6</title>
<path fill="none" stroke="midnightblue" d="M657.552,-168.444C623.258,-158.645 567.237,-142.639 531.653,-132.472"/>
<polygon fill="midnightblue" stroke="midnightblue" points="532.33,-129.026 521.754,-129.644 530.407,-135.756 532.33,-129.026"/>
</g>
<!-- Node19&#45;&gt;Node17 -->
<g id="edge24" class="edge"><title>Node19&#45;&gt;Node17</title>
<path fill="none" stroke="midnightblue" d="M656.398,-169.402C624.981,-161.022 579.668,-146.76 569.5,-132 564.457,-124.68 564.327,-119.229 569.5,-112 575.054,-104.239 623.842,-88.9668 660.499,-78.3807"/>
<polygon fill="midnightblue" stroke="midnightblue" points="661.818,-81.6438 670.471,-75.5292 659.894,-74.9136 661.818,-81.6438"/>
</g>
<!-- Node20 -->
<g id="node20" class="node"><title>Node20</title>
<polygon fill="white" stroke="#bfbfbf" points="681,-112.5 681,-131.5 718,-131.5 718,-112.5 681,-112.5"/>
<text text-anchor="middle" x="699.5" y="-119.5" font-family="Helvetica,sans-Serif" font-size="10.00">map</text>
</g>
<!-- Node19&#45;&gt;Node20 -->
<g id="edge22" class="edge"><title>Node19&#45;&gt;Node20</title>
<path fill="none" stroke="midnightblue" d="M689.482,-168.083C691.072,-160.927 693.359,-150.635 695.346,-141.691"/>
<polygon fill="midnightblue" stroke="midnightblue" points="698.803,-142.272 697.555,-131.751 691.969,-140.754 698.803,-142.272"/>
</g>
<!-- Node21 -->
<g id="node21" class="node"><title>Node21</title>
<polygon fill="white" stroke="#bfbfbf" points="578.5,-112.5 578.5,-131.5 624.5,-131.5 624.5,-112.5 578.5,-112.5"/>
<text text-anchor="middle" x="601.5" y="-119.5" font-family="Helvetica,sans-Serif" font-size="10.00">vector</text>
</g>
<!-- Node19&#45;&gt;Node21 -->
<g id="edge23" class="edge"><title>Node19&#45;&gt;Node21</title>
<path fill="none" stroke="midnightblue" d="M673.683,-168.324C660.267,-159.9 639.676,-146.971 623.914,-137.074"/>
<polygon fill="midnightblue" stroke="midnightblue" points="625.613,-134.008 615.283,-131.655 621.891,-139.936 625.613,-134.008"/>
</g>
<!-- Node22&#45;&gt;Node6 -->
<g id="edge27" class="edge"><title>Node22&#45;&gt;Node6</title>
<path fill="none" stroke="midnightblue" d="M557.3,-224.391C548.525,-215.809 535.366,-201.934 526.5,-188 517.131,-173.276 509.539,-154.882 504.637,-141.423"/>
<polygon fill="midnightblue" stroke="midnightblue" points="507.896,-140.141 501.299,-131.851 501.287,-142.446 507.896,-140.141"/>
</g>
<!-- Node23 -->
<g id="node23" class="node"><title>Node23</title>
<g id="a_node23"><a xlink:href="../../dd/d1e/cccc__itm_8h.html" target="_top" xlink:title="cccc_itm.h">
<polygon fill="white" stroke="black" points="535,-168.5 535,-187.5 600,-187.5 600,-168.5 535,-168.5"/>
<text text-anchor="middle" x="567.5" y="-175.5" font-family="Helvetica,sans-Serif" font-size="10.00">cccc_itm.h</text>
</a>
</g>
</g>
<!-- Node22&#45;&gt;Node23 -->
<g id="edge28" class="edge"><title>Node22&#45;&gt;Node23</title>
<path fill="none" stroke="midnightblue" d="M566.665,-224.083C566.796,-217.006 566.984,-206.861 567.148,-197.986"/>
<polygon fill="midnightblue" stroke="midnightblue" points="570.652,-197.814 567.338,-187.751 563.653,-197.685 570.652,-197.814"/>
</g>
<!-- Node23&#45;&gt;Node6 -->
<g id="edge29" class="edge"><title>Node23&#45;&gt;Node6</title>
<path fill="none" stroke="midnightblue" d="M556.414,-168.324C546.014,-160.185 530.239,-147.839 517.778,-138.087"/>
<polygon fill="midnightblue" stroke="midnightblue" points="519.82,-135.241 509.788,-131.834 515.506,-140.753 519.82,-135.241"/>
</g>
<!-- Node24&#45;&gt;Node5 -->
<g id="edge31" class="edge"><title>Node24&#45;&gt;Node5</title>
<path fill="none" stroke="midnightblue" d="M638.921,-280.475C658.351,-264.162 700.578,-226.699 727.5,-188 750.834,-154.458 769.021,-109.86 778.111,-85.2515"/>
<polygon fill="midnightblue" stroke="midnightblue" points="781.441,-86.3348 781.537,-75.7404 774.855,-83.9627 781.441,-86.3348"/>
</g>
<!-- Node24&#45;&gt;Node6 -->
<g id="edge32" class="edge"><title>Node24&#45;&gt;Node6</title>
<path fill="none" stroke="midnightblue" d="M629.804,-280.257C632.518,-258.642 636.462,-201.983 609.5,-168 590.53,-144.09 556.824,-132.805 531.516,-127.527"/>
<polygon fill="midnightblue" stroke="midnightblue" points="532.067,-124.07 521.594,-125.671 530.779,-130.95 532.067,-124.07"/>
</g>
<!-- Node24&#45;&gt;Node19 -->
<g id="edge33" class="edge"><title>Node24&#45;&gt;Node19</title>
<path fill="none" stroke="midnightblue" d="M633.13,-280.368C642.78,-262.376 665.214,-220.55 678.046,-196.627"/>
<polygon fill="midnightblue" stroke="midnightblue" points="681.25,-198.058 682.892,-187.591 675.081,-194.749 681.25,-198.058"/>
</g>
<!-- Node24&#45;&gt;Node22 -->
<g id="edge34" class="edge"><title>Node24&#45;&gt;Node22</title>
<path fill="none" stroke="midnightblue" d="M618.539,-280.324C609.373,-272.341 595.563,-260.313 584.472,-250.653"/>
<polygon fill="midnightblue" stroke="midnightblue" points="586.482,-247.762 576.643,-243.834 581.885,-253.041 586.482,-247.762"/>
</g>
</g>
</svg>
