<?xml version="1.0" encoding="UTF-8" standalone="no"?>
<!DOCTYPE svg PUBLIC "-//W3C//DTD SVG 1.1//EN"
 "http://www.w3.org/Graphics/SVG/1.1/DTD/svg11.dtd">
<!-- Generated by graphviz version 2.38.0 (20140413.2041)
 -->
<!-- Title: ccccmain.cc Pages: 1 -->
<svg width="998pt" height="700pt"
 viewBox="0.00 0.00 998.00 700.00" xmlns="http://www.w3.org/2000/svg" xmlns:xlink="http://www.w3.org/1999/xlink">
<g id="graph0" class="graph" transform="scale(1 1) rotate(0) translate(4 696)">
<title>ccccmain.cc</title>
<polygon fill="white" stroke="none" points="-4,4 -4,-696 994,-696 994,4 -4,4"/>
<!-- Node1 -->
<g id="node1" class="node"><title>Node1</title>
<polygon fill="#bfbfbf" stroke="black" points="455.5,-672.5 455.5,-691.5 528.5,-691.5 528.5,-672.5 455.5,-672.5"/>
<text text-anchor="middle" x="492" y="-679.5" font-family="Helvetica,sans-Serif" font-size="10.00">ccccmain.cc</text>
</g>
<!-- Node2 -->
<g id="node2" class="node"><title>Node2</title>
<g id="a_node2"><a xlink:href="../../d0/d84/cccc_8h.html" target="_top" xlink:title="cccc.h">
<polygon fill="white" stroke="black" points="395,-112.5 395,-131.5 441,-131.5 441,-112.5 395,-112.5"/>
<text text-anchor="middle" x="418" y="-119.5" font-family="Helvetica,sans-Serif" font-size="10.00">cccc.h</text>
</a>
</g>
</g>
<!-- Node1&#45;&gt;Node2 -->
<g id="edge1" class="edge"><title>Node1&#45;&gt;Node2</title>
<path fill="none" stroke="midnightblue" d="M491.084,-672.15C488.388,-646.259 480.153,-568.428 472,-504 463.155,-434.098 450,-417.46 450,-347 450,-347 450,-347 450,-233 450,-199.329 436.005,-162.085 426.526,-140.719"/>
<polygon fill="midnightblue" stroke="midnightblue" points="429.682,-139.207 422.316,-131.592 423.326,-142.138 429.682,-139.207"/>
</g>
<!-- Node12 -->
<g id="node12" class="node"><title>Node12</title>
<polygon fill="white" stroke="#bfbfbf" points="55,-56.5 55,-75.5 107,-75.5 107,-56.5 55,-56.5"/>
<text text-anchor="middle" x="81" y="-63.5" font-family="Helvetica,sans-Serif" font-size="10.00">fstream</text>
</g>
<!-- Node1&#45;&gt;Node12 -->
<g id="edge17" class="edge"><title>Node1&#45;&gt;Node12</title>
<path fill="none" stroke="midnightblue" d="M455.277,-679.916C366.232,-676.835 141.139,-666.204 73,-636 33.2848,-618.396 0,-614.442 0,-571 0,-571 0,-571 0,-177 0,-136.445 36.1408,-100.989 60.1405,-81.9149"/>
<polygon fill="midnightblue" stroke="midnightblue" points="62.5209,-84.501 68.3438,-75.6497 58.2721,-78.9379 62.5209,-84.501"/>
</g>
<!-- Node16 -->
<g id="node16" class="node"><title>Node16</title>
<g id="a_node16"><a xlink:href="../../da/d7b/cccc__ver_8h.html" target="_top" xlink:title="cccc_ver.h">
<polygon fill="white" stroke="black" points="596.5,-616.5 596.5,-635.5 663.5,-635.5 663.5,-616.5 596.5,-616.5"/>
<text text-anchor="middle" x="630" y="-623.5" font-family="Helvetica,sans-Serif" font-size="10.00">cccc_ver.h</text>
</a>
</g>
</g>
<!-- Node1&#45;&gt;Node16 -->
<g id="edge16" class="edge"><title>Node1&#45;&gt;Node16</title>
<path fill="none" stroke="midnightblue" d="M513.867,-672.444C536.779,-663.478 572.975,-649.314 598.866,-639.183"/>
<polygon fill="midnightblue" stroke="midnightblue" points="600.199,-642.42 608.236,-635.516 597.648,-635.901 600.199,-642.42"/>
</g>
<!-- Node17 -->
<g id="node17" class="node"><title>Node17</title>
<polygon fill="white" stroke="#bfbfbf" points="681.5,-616.5 681.5,-635.5 710.5,-635.5 710.5,-616.5 681.5,-616.5"/>
<text text-anchor="middle" x="696" y="-623.5" font-family="Helvetica,sans-Serif" font-size="10.00">list</text>
</g>
<!-- Node1&#45;&gt;Node17 -->
<g id="edge18" class="edge"><title>Node1&#45;&gt;Node17</title>
<path fill="none" stroke="midnightblue" d="M528.537,-673.15C563.142,-665.431 616.687,-652.758 671.792,-635.778"/>
<polygon fill="midnightblue" stroke="midnightblue" points="672.866,-639.11 681.368,-632.788 670.78,-632.428 672.866,-639.11"/>
</g>
<!-- Node18 -->
<g id="node18" class="node"><title>Node18</title>
<polygon fill="white" stroke="#bfbfbf" points="729,-616.5 729,-635.5 779,-635.5 779,-616.5 729,-616.5"/>
<text text-anchor="middle" x="754" y="-623.5" font-family="Helvetica,sans-Serif" font-size="10.00">iterator</text>
</g>
<!-- Node1&#45;&gt;Node18 -->
<g id="edge19" class="edge"><title>Node1&#45;&gt;Node18</title>
<path fill="none" stroke="midnightblue" d="M528.697,-674.379C573.691,-666.111 652.206,-651.196 719,-636 719.099,-635.977 719.199,-635.955 719.299,-635.932"/>
<polygon fill="midnightblue" stroke="midnightblue" points="719.894,-639.388 728.806,-633.658 718.266,-632.58 719.894,-639.388"/>
</g>
<!-- Node19 -->
<g id="node19" class="node"><title>Node19</title>
<polygon fill="white" stroke="#bfbfbf" points="797.5,-616.5 797.5,-635.5 858.5,-635.5 858.5,-616.5 797.5,-616.5"/>
<text text-anchor="middle" x="828" y="-623.5" font-family="Helvetica,sans-Serif" font-size="10.00">sys/stat.h</text>
</g>
<!-- Node1&#45;&gt;Node19 -->
<g id="edge20" class="edge"><title>Node1&#45;&gt;Node19</title>
<path fill="none" stroke="midnightblue" d="M528.595,-676.281C582.838,-669.103 687.973,-654.485 787.545,-635.965"/>
<polygon fill="midnightblue" stroke="midnightblue" points="788.288,-639.386 797.471,-634.102 786.997,-632.506 788.288,-639.386"/>
</g>
<!-- Node20 -->
<g id="node20" class="node"><title>Node20</title>
<g id="a_node20"><a xlink:href="../../dd/d1e/cccc__itm_8h.html" target="_top" xlink:title="cccc_itm.h">
<polygon fill="white" stroke="black" points="318.5,-168.5 318.5,-187.5 383.5,-187.5 383.5,-168.5 318.5,-168.5"/>
<text text-anchor="middle" x="351" y="-175.5" font-family="Helvetica,sans-Serif" font-size="10.00">cccc_itm.h</text>
</a>
</g>
</g>
<!-- Node1&#45;&gt;Node20 -->
<g id="edge21" class="edge"><title>Node1&#45;&gt;Node20</title>
<path fill="none" stroke="midnightblue" d="M478.856,-672.395C439.94,-645.762 328,-560.346 328,-459 328,-459 328,-459 328,-289 328,-256.12 337.968,-218.86 344.779,-197.235"/>
<polygon fill="midnightblue" stroke="midnightblue" points="348.112,-198.303 347.898,-187.711 341.46,-196.125 348.112,-198.303"/>
</g>
<!-- Node21 -->
<g id="node21" class="node"><title>Node21</title>
<g id="a_node21"><a xlink:href="../../db/ded/cccc__opt_8h.html" target="_top" xlink:title="cccc_opt.h">
<polygon fill="white" stroke="black" points="194.5,-224.5 194.5,-243.5 261.5,-243.5 261.5,-224.5 194.5,-224.5"/>
<text text-anchor="middle" x="228" y="-231.5" font-family="Helvetica,sans-Serif" font-size="10.00">cccc_opt.h</text>
</a>
</g>
</g>
<!-- Node1&#45;&gt;Node21 -->
<g id="edge23" class="edge"><title>Node1&#45;&gt;Node21</title>
<path fill="none" stroke="midnightblue" d="M455.232,-679.944C347.15,-675.852 38,-656.662 38,-571 38,-571 38,-571 38,-401 38,-319.597 138.129,-268.901 193.011,-247.228"/>
<polygon fill="midnightblue" stroke="midnightblue" points="194.291,-250.485 202.376,-243.637 191.786,-243.949 194.291,-250.485"/>
</g>
<!-- Node22 -->
<g id="node22" class="node"><title>Node22</title>
<g id="a_node22"><a xlink:href="../../d4/df8/cccc__met_8h.html" target="_top" xlink:title="cccc_met.h">
<polygon fill="white" stroke="black" points="394.5,-504.5 394.5,-523.5 463.5,-523.5 463.5,-504.5 394.5,-504.5"/>
<text text-anchor="middle" x="429" y="-511.5" font-family="Helvetica,sans-Serif" font-size="10.00">cccc_met.h</text>
</a>
</g>
</g>
<!-- Node1&#45;&gt;Node22 -->
<g id="edge26" class="edge"><title>Node1&#45;&gt;Node22</title>
<path fill="none" stroke="midnightblue" d="M488.613,-672.075C478.653,-645.832 449.321,-568.545 435.876,-533.117"/>
<polygon fill="midnightblue" stroke="midnightblue" points="439.072,-531.676 432.252,-523.568 432.528,-534.159 439.072,-531.676"/>
</g>
<!-- Node23 -->
<g id="node23" class="node"><title>Node23</title>
<g id="a_node23"><a xlink:href="../../d7/d44/cccc__db_8h.html" target="_top" xlink:title="cccc_db.h">
<polygon fill="white" stroke="black" points="558.5,-448.5 558.5,-467.5 621.5,-467.5 621.5,-448.5 558.5,-448.5"/>
<text text-anchor="middle" x="590" y="-455.5" font-family="Helvetica,sans-Serif" font-size="10.00">cccc_db.h</text>
</a>
</g>
</g>
<!-- Node1&#45;&gt;Node23 -->
<g id="edge59" class="edge"><title>Node1&#45;&gt;Node23</title>
<path fill="none" stroke="midnightblue" d="M506.032,-672.386C517.888,-664.389 534.424,-651.415 544,-636 575.771,-584.854 585.714,-512.354 588.734,-478.204"/>
<polygon fill="midnightblue" stroke="midnightblue" points="592.256,-478.062 589.538,-467.822 585.276,-477.522 592.256,-478.062"/>
</g>
<!-- Node25 -->
<g id="node25" class="node"><title>Node25</title>
<g id="a_node25"><a xlink:href="../../d7/d8f/cccc__utl_8h.html" target="_top" xlink:title="cccc_utl.h">
<polygon fill="white" stroke="black" points="663,-224.5 663,-243.5 725,-243.5 725,-224.5 663,-224.5"/>
<text text-anchor="middle" x="694" y="-231.5" font-family="Helvetica,sans-Serif" font-size="10.00">cccc_utl.h</text>
</a>
</g>
</g>
<!-- Node1&#45;&gt;Node25 -->
<g id="edge60" class="edge"><title>Node1&#45;&gt;Node25</title>
<path fill="none" stroke="midnightblue" d="M495.054,-672.474C498.174,-663.498 502.978,-648.905 506,-636 543.002,-478.009 474.539,-396.974 587,-280 604.562,-261.733 630.687,-250.554 652.725,-243.907"/>
<polygon fill="midnightblue" stroke="midnightblue" points="653.833,-247.232 662.518,-241.163 651.944,-240.491 653.833,-247.232"/>
</g>
<!-- Node35 -->
<g id="node35" class="node"><title>Node35</title>
<g id="a_node35"><a xlink:href="../../d9/db9/cccc__htm_8h.html" target="_top" xlink:title="cccc_htm.h">
<polygon fill="white" stroke="black" points="268.5,-560.5 268.5,-579.5 337.5,-579.5 337.5,-560.5 268.5,-560.5"/>
<text text-anchor="middle" x="303" y="-567.5" font-family="Helvetica,sans-Serif" font-size="10.00">cccc_htm.h</text>
</a>
</g>
</g>
<!-- Node1&#45;&gt;Node35 -->
<g id="edge61" class="edge"><title>Node1&#45;&gt;Node35</title>
<path fill="none" stroke="midnightblue" d="M455.322,-675.537C425.346,-669.667 383.006,-658.038 352,-636 334.592,-623.627 320.661,-603.21 312.168,-588.559"/>
<polygon fill="midnightblue" stroke="midnightblue" points="315.072,-586.577 307.182,-579.506 308.941,-589.954 315.072,-586.577"/>
</g>
<!-- Node37 -->
<g id="node37" class="node"><title>Node37</title>
<g id="a_node37"><a xlink:href="../../d9/d64/cccc__xml_8h.html" target="_top" xlink:title="cccc_xml.h">
<polygon fill="white" stroke="black" points="206,-616.5 206,-635.5 274,-635.5 274,-616.5 206,-616.5"/>
<text text-anchor="middle" x="240" y="-623.5" font-family="Helvetica,sans-Serif" font-size="10.00">cccc_xml.h</text>
</a>
</g>
</g>
<!-- Node1&#45;&gt;Node37 -->
<g id="edge67" class="edge"><title>Node1&#45;&gt;Node37</title>
<path fill="none" stroke="midnightblue" d="M455.357,-673.148C409.988,-663.426 332.773,-646.88 284.175,-636.466"/>
<polygon fill="midnightblue" stroke="midnightblue" points="284.772,-633.015 274.26,-634.342 283.305,-639.859 284.772,-633.015"/>
</g>
<!-- Node3 -->
<g id="node3" class="node"><title>Node3</title>
<polygon fill="white" stroke="#bfbfbf" points="608.5,-56.5 608.5,-75.5 659.5,-75.5 659.5,-56.5 608.5,-56.5"/>
<text text-anchor="middle" x="634" y="-63.5" font-family="Helvetica,sans-Serif" font-size="10.00">cassert</text>
</g>
<!-- Node2&#45;&gt;Node3 -->
<g id="edge2" class="edge"><title>Node2&#45;&gt;Node3</title>
<path fill="none" stroke="midnightblue" d="M441.158,-115.305C473.848,-107.254 535.642,-91.9832 598.328,-76.1544"/>
<polygon fill="midnightblue" stroke="midnightblue" points="599.555,-79.4544 608.392,-73.6102 597.839,-72.6679 599.555,-79.4544"/>
</g>
<!-- Node4 -->
<g id="node4" class="node"><title>Node4</title>
<polygon fill="white" stroke="#bfbfbf" points="268.5,-56.5 268.5,-75.5 313.5,-75.5 313.5,-56.5 268.5,-56.5"/>
<text text-anchor="middle" x="291" y="-63.5" font-family="Helvetica,sans-Serif" font-size="10.00">cmath</text>
</g>
<!-- Node2&#45;&gt;Node4 -->
<g id="edge3" class="edge"><title>Node2&#45;&gt;Node4</title>
<path fill="none" stroke="midnightblue" d="M397.876,-112.444C376.976,-103.557 344.065,-89.5632 320.284,-79.4514"/>
<polygon fill="midnightblue" stroke="midnightblue" points="321.602,-76.2085 311.029,-75.5164 318.862,-82.6504 321.602,-76.2085"/>
</g>
<!-- Node5 -->
<g id="node5" class="node"><title>Node5</title>
<polygon fill="white" stroke="#bfbfbf" points="332,-56.5 332,-75.5 376,-75.5 376,-56.5 332,-56.5"/>
<text text-anchor="middle" x="354" y="-63.5" font-family="Helvetica,sans-Serif" font-size="10.00">cstdio</text>
</g>
<!-- Node2&#45;&gt;Node5 -->
<g id="edge4" class="edge"><title>Node2&#45;&gt;Node5</title>
<path fill="none" stroke="midnightblue" d="M407.717,-112.324C398.164,-104.263 383.72,-92.0765 372.216,-82.3695"/>
<polygon fill="midnightblue" stroke="midnightblue" points="374.37,-79.6076 364.47,-75.8339 369.856,-84.9577 374.37,-79.6076"/>
</g>
<!-- Node6 -->
<g id="node6" class="node"><title>Node6</title>
<polygon fill="white" stroke="#bfbfbf" points="394,-56.5 394,-75.5 442,-75.5 442,-56.5 394,-56.5"/>
<text text-anchor="middle" x="418" y="-63.5" font-family="Helvetica,sans-Serif" font-size="10.00">cstring</text>
</g>
<!-- Node2&#45;&gt;Node6 -->
<g id="edge5" class="edge"><title>Node2&#45;&gt;Node6</title>
<path fill="none" stroke="midnightblue" d="M418,-112.083C418,-105.006 418,-94.8611 418,-85.9865"/>
<polygon fill="midnightblue" stroke="midnightblue" points="421.5,-85.751 418,-75.7511 414.5,-85.7511 421.5,-85.751"/>
</g>
<!-- Node7 -->
<g id="node7" class="node"><title>Node7</title>
<polygon fill="white" stroke="#bfbfbf" points="460,-56.5 460,-75.5 506,-75.5 506,-56.5 460,-56.5"/>
<text text-anchor="middle" x="483" y="-63.5" font-family="Helvetica,sans-Serif" font-size="10.00">cstdlib</text>
</g>
<!-- Node2&#45;&gt;Node7 -->
<g id="edge6" class="edge"><title>Node2&#45;&gt;Node7</title>
<path fill="none" stroke="midnightblue" d="M428.443,-112.324C438.146,-104.263 452.815,-92.0765 464.5,-82.3695"/>
<polygon fill="midnightblue" stroke="midnightblue" points="466.911,-84.9163 472.367,-75.8339 462.438,-79.532 466.911,-84.9163"/>
</g>
<!-- Node8 -->
<g id="node8" class="node"><title>Node8</title>
<polygon fill="white" stroke="#bfbfbf" points="130.5,-56.5 130.5,-75.5 177.5,-75.5 177.5,-56.5 130.5,-56.5"/>
<text text-anchor="middle" x="154" y="-63.5" font-family="Helvetica,sans-Serif" font-size="10.00">cctype</text>
</g>
<!-- Node2&#45;&gt;Node8 -->
<g id="edge7" class="edge"><title>Node2&#45;&gt;Node8</title>
<path fill="none" stroke="midnightblue" d="M394.929,-117.088C354.854,-110.168 269.604,-94.9018 187.707,-76.0199"/>
<polygon fill="midnightblue" stroke="midnightblue" points="188.273,-72.558 177.74,-73.6996 186.686,-79.3758 188.273,-72.558"/>
</g>
<!-- Node9 -->
<g id="node9" class="node"><title>Node9</title>
<polygon fill="white" stroke="#bfbfbf" points="840.5,-56.5 840.5,-75.5 883.5,-75.5 883.5,-56.5 840.5,-56.5"/>
<text text-anchor="middle" x="862" y="-63.5" font-family="Helvetica,sans-Serif" font-size="10.00">string</text>
</g>
<!-- Node2&#45;&gt;Node9 -->
<g id="edge8" class="edge"><title>Node2&#45;&gt;Node9</title>
<path fill="none" stroke="midnightblue" d="M441.364,-119.732C504.396,-116.033 683.023,-103.719 829,-76 829.467,-75.9114 829.937,-75.8195 830.409,-75.7247"/>
<polygon fill="midnightblue" stroke="midnightblue" points="831.505,-79.0635 840.457,-73.3973 829.925,-72.244 831.505,-79.0635"/>
</g>
<!-- Node10 -->
<g id="node10" class="node"><title>Node10</title>
<polygon fill="white" stroke="#bfbfbf" points="763.5,-56.5 763.5,-75.5 820.5,-75.5 820.5,-56.5 763.5,-56.5"/>
<text text-anchor="middle" x="792" y="-63.5" font-family="Helvetica,sans-Serif" font-size="10.00">iostream</text>
</g>
<!-- Node2&#45;&gt;Node10 -->
<g id="edge9" class="edge"><title>Node2&#45;&gt;Node10</title>
<path fill="none" stroke="midnightblue" d="M441.19,-118.582C495.664,-112.749 635.957,-96.831 752,-76 752.455,-75.9183 752.913,-75.8349 753.374,-75.7499"/>
<polygon fill="midnightblue" stroke="midnightblue" points="754.096,-79.1749 763.221,-73.791 752.73,-72.3094 754.096,-79.1749"/>
</g>
<!-- Node11 -->
<g id="node11" class="node"><title>Node11</title>
<polygon fill="white" stroke="#bfbfbf" points="196,-56.5 196,-75.5 250,-75.5 250,-56.5 196,-56.5"/>
<text text-anchor="middle" x="223" y="-63.5" font-family="Helvetica,sans-Serif" font-size="10.00">sstream</text>
</g>
<!-- Node2&#45;&gt;Node11 -->
<g id="edge10" class="edge"><title>Node2&#45;&gt;Node11</title>
<path fill="none" stroke="midnightblue" d="M394.865,-114.593C361.547,-105.367 299.706,-88.2416 259.999,-77.246"/>
<polygon fill="midnightblue" stroke="midnightblue" points="260.738,-73.8189 250.167,-74.5231 258.87,-80.565 260.738,-73.8189"/>
</g>
<!-- Node2&#45;&gt;Node12 -->
<g id="edge11" class="edge"><title>Node2&#45;&gt;Node12</title>
<path fill="none" stroke="midnightblue" d="M394.8,-118.055C344.651,-111.565 222.481,-95.0797 121,-76 119.741,-75.7633 118.461,-75.5153 117.17,-75.2589"/>
<polygon fill="midnightblue" stroke="midnightblue" points="117.7,-71.7941 107.195,-73.1733 116.267,-78.6459 117.7,-71.7941"/>
</g>
<!-- Node13 -->
<g id="node13" class="node"><title>Node13</title>
<g id="a_node13"><a xlink:href="../../d1/d7d/cccc__tok_8h.html" target="_top" xlink:title="cccc_tok.h">
<polygon fill="white" stroke="black" points="524,-56.5 524,-75.5 590,-75.5 590,-56.5 524,-56.5"/>
<text text-anchor="middle" x="557" y="-63.5" font-family="Helvetica,sans-Serif" font-size="10.00">cccc_tok.h</text>
</a>
</g>
</g>
<!-- Node2&#45;&gt;Node13 -->
<g id="edge12" class="edge"><title>Node2&#45;&gt;Node13</title>
<path fill="none" stroke="midnightblue" d="M434.936,-112.444C456.142,-103.438 492.606,-89.1891 520.255,-79.049"/>
<polygon fill="midnightblue" stroke="midnightblue" points="521.79,-82.2155 529.998,-75.5164 519.404,-75.6347 521.79,-82.2155"/>
</g>
<!-- Node15 -->
<g id="node15" class="node"><title>Node15</title>
<polygon fill="white" stroke="#bfbfbf" points="680.5,-56.5 680.5,-75.5 743.5,-75.5 743.5,-56.5 680.5,-56.5"/>
<text text-anchor="middle" x="712" y="-63.5" font-family="Helvetica,sans-Serif" font-size="10.00">AParser.h</text>
</g>
<!-- Node2&#45;&gt;Node15 -->
<g id="edge15" class="edge"><title>Node2&#45;&gt;Node15</title>
<path fill="none" stroke="midnightblue" d="M441.127,-117.026C485.284,-109.395 584.633,-92.0268 668,-76 668.747,-75.8565 669.5,-75.7108 670.259,-75.5634"/>
<polygon fill="midnightblue" stroke="midnightblue" points="671.163,-78.9525 680.294,-73.5787 669.805,-72.0856 671.163,-78.9525"/>
</g>
<!-- Node13&#45;&gt;Node2 -->
<g id="edge13" class="edge"><title>Node13&#45;&gt;Node2</title>
<path fill="none" stroke="midnightblue" d="M539.892,-75.6293C517.68,-85.0555 478.924,-100.164 450.975,-110.328"/>
<polygon fill="midnightblue" stroke="midnightblue" points="449.448,-107.157 441.218,-113.829 451.813,-113.746 449.448,-107.157"/>
</g>
<!-- Node14 -->
<g id="node14" class="node"><title>Node14</title>
<polygon fill="white" stroke="#bfbfbf" points="526,-0.5 526,-19.5 588,-19.5 588,-0.5 526,-0.5"/>
<text text-anchor="middle" x="557" y="-7.5" font-family="Helvetica,sans-Serif" font-size="10.00">AToken.h</text>
</g>
<!-- Node13&#45;&gt;Node14 -->
<g id="edge14" class="edge"><title>Node13&#45;&gt;Node14</title>
<path fill="none" stroke="midnightblue" d="M557,-56.083C557,-49.0059 557,-38.8611 557,-29.9865"/>
<polygon fill="midnightblue" stroke="midnightblue" points="560.5,-29.751 557,-19.7511 553.5,-29.7511 560.5,-29.751"/>
</g>
<!-- Node20&#45;&gt;Node2 -->
<g id="edge22" class="edge"><title>Node20&#45;&gt;Node2</title>
<path fill="none" stroke="midnightblue" d="M361.765,-168.324C371.766,-160.263 386.887,-148.077 398.93,-138.369"/>
<polygon fill="midnightblue" stroke="midnightblue" points="401.45,-140.834 407.039,-131.834 397.057,-135.384 401.45,-140.834"/>
</g>
<!-- Node21&#45;&gt;Node2 -->
<g id="edge24" class="edge"><title>Node21&#45;&gt;Node2</title>
<path fill="none" stroke="midnightblue" d="M232.043,-224.482C239.054,-210.613 254.776,-183.178 276,-168 308.742,-144.586 354.162,-133.008 384.74,-127.53"/>
<polygon fill="midnightblue" stroke="midnightblue" points="385.604,-130.934 394.892,-125.837 384.452,-124.029 385.604,-130.934"/>
</g>
<!-- Node21&#45;&gt;Node20 -->
<g id="edge25" class="edge"><title>Node21&#45;&gt;Node20</title>
<path fill="none" stroke="midnightblue" d="M247.49,-224.444C267.642,-215.596 299.323,-201.687 322.331,-191.586"/>
<polygon fill="midnightblue" stroke="midnightblue" points="323.852,-194.741 331.601,-187.516 321.038,-188.332 323.852,-194.741"/>
</g>
<!-- Node22&#45;&gt;Node9 -->
<g id="edge27" class="edge"><title>Node22&#45;&gt;Node9</title>
<path fill="none" stroke="midnightblue" d="M463.67,-513.613C585.98,-514.858 990,-510.811 990,-403 990,-403 990,-403 990,-177 990,-126.164 931.209,-93.71 893.315,-78.0711"/>
<polygon fill="midnightblue" stroke="midnightblue" points="894.3,-74.6972 883.713,-74.2803 891.729,-81.2081 894.3,-74.6972"/>
</g>
<!-- Node22&#45;&gt;Node20 -->
<g id="edge58" class="edge"><title>Node22&#45;&gt;Node20</title>
<path fill="none" stroke="midnightblue" d="M420.547,-504.438C404.233,-486.962 370,-445.258 370,-403 370,-403 370,-403 370,-289 370,-256.489 361.841,-219.35 356.216,-197.61"/>
<polygon fill="midnightblue" stroke="midnightblue" points="359.541,-196.498 353.562,-187.751 352.782,-198.317 359.541,-196.498"/>
</g>
<!-- Node22&#45;&gt;Node23 -->
<g id="edge28" class="edge"><title>Node22&#45;&gt;Node23</title>
<path fill="none" stroke="midnightblue" d="M454.511,-504.444C481.596,-495.359 524.59,-480.939 554.869,-470.783"/>
<polygon fill="midnightblue" stroke="midnightblue" points="556.24,-474.015 564.608,-467.516 554.014,-467.378 556.24,-474.015"/>
</g>
<!-- Node23&#45;&gt;Node2 -->
<g id="edge29" class="edge"><title>Node23&#45;&gt;Node2</title>
<path fill="none" stroke="midnightblue" d="M567.456,-448.482C519.559,-428.753 412,-375.089 412,-291 412,-291 412,-291 412,-233 412,-200.9 414.579,-163.61 416.355,-141.732"/>
<polygon fill="midnightblue" stroke="midnightblue" points="419.861,-141.808 417.216,-131.549 412.886,-141.219 419.861,-141.808"/>
</g>
<!-- Node24 -->
<g id="node24" class="node"><title>Node24</title>
<g id="a_node24"><a xlink:href="../../d3/d11/cccc__ext_8h.html" target="_top" xlink:title="cccc_ext.h">
<polygon fill="white" stroke="black" points="795,-280.5 795,-299.5 861,-299.5 861,-280.5 795,-280.5"/>
<text text-anchor="middle" x="828" y="-287.5" font-family="Helvetica,sans-Serif" font-size="10.00">cccc_ext.h</text>
</a>
</g>
</g>
<!-- Node23&#45;&gt;Node24 -->
<g id="edge30" class="edge"><title>Node23&#45;&gt;Node24</title>
<path fill="none" stroke="midnightblue" d="M621.513,-455.199C702.422,-450.257 912.576,-435.278 933,-412 967.206,-373.013 895.868,-326.622 854.596,-304.3"/>
<polygon fill="midnightblue" stroke="midnightblue" points="856.041,-301.105 845.563,-299.536 852.776,-307.297 856.041,-301.105"/>
</g>
<!-- Node28 -->
<g id="node28" class="node"><title>Node28</title>
<g id="a_node28"><a xlink:href="../../df/de9/cccc__rec_8h.html" target="_top" xlink:title="cccc_rec.h">
<polygon fill="white" stroke="black" points="689.5,-336.5 689.5,-355.5 756.5,-355.5 756.5,-336.5 689.5,-336.5"/>
<text text-anchor="middle" x="723" y="-343.5" font-family="Helvetica,sans-Serif" font-size="10.00">cccc_rec.h</text>
</a>
</g>
</g>
<!-- Node23&#45;&gt;Node28 -->
<g id="edge38" class="edge"><title>Node23&#45;&gt;Node28</title>
<path fill="none" stroke="midnightblue" d="M621.527,-455.855C652.419,-452.866 698.095,-443.065 721,-412 730.728,-398.807 730.065,-379.671 727.668,-365.577"/>
<polygon fill="midnightblue" stroke="midnightblue" points="731.043,-364.619 725.54,-355.565 724.196,-366.074 731.043,-364.619"/>
</g>
<!-- Node31 -->
<g id="node31" class="node"><title>Node31</title>
<g id="a_node31"><a xlink:href="../../d1/da4/cccc__prj_8h.html" target="_top" xlink:title="cccc_prj.h">
<polygon fill="white" stroke="black" points="768,-392.5 768,-411.5 832,-411.5 832,-392.5 768,-392.5"/>
<text text-anchor="middle" x="800" y="-399.5" font-family="Helvetica,sans-Serif" font-size="10.00">cccc_prj.h</text>
</a>
</g>
</g>
<!-- Node23&#45;&gt;Node31 -->
<g id="edge49" class="edge"><title>Node23&#45;&gt;Node31</title>
<path fill="none" stroke="midnightblue" d="M621.894,-448.799C658.281,-439.442 717.921,-424.106 758.05,-413.787"/>
<polygon fill="midnightblue" stroke="midnightblue" points="758.992,-417.159 767.805,-411.279 757.249,-410.379 758.992,-417.159"/>
</g>
<!-- Node32 -->
<g id="node32" class="node"><title>Node32</title>
<g id="a_node32"><a xlink:href="../../df/d69/cccc__mod_8h.html" target="_top" xlink:title="cccc_mod.h">
<polygon fill="white" stroke="black" points="554,-392.5 554,-411.5 626,-411.5 626,-392.5 554,-392.5"/>
<text text-anchor="middle" x="590" y="-399.5" font-family="Helvetica,sans-Serif" font-size="10.00">cccc_mod.h</text>
</a>
</g>
</g>
<!-- Node23&#45;&gt;Node32 -->
<g id="edge51" class="edge"><title>Node23&#45;&gt;Node32</title>
<path fill="none" stroke="midnightblue" d="M590,-448.083C590,-441.006 590,-430.861 590,-421.986"/>
<polygon fill="midnightblue" stroke="midnightblue" points="593.5,-421.751 590,-411.751 586.5,-421.751 593.5,-421.751"/>
</g>
<!-- Node33 -->
<g id="node33" class="node"><title>Node33</title>
<g id="a_node33"><a xlink:href="../../dc/da1/cccc__mem_8h.html" target="_top" xlink:title="cccc_mem.h">
<polygon fill="white" stroke="black" points="850,-392.5 850,-411.5 924,-411.5 924,-392.5 850,-392.5"/>
<text text-anchor="middle" x="887" y="-399.5" font-family="Helvetica,sans-Serif" font-size="10.00">cccc_mem.h</text>
</a>
</g>
</g>
<!-- Node23&#45;&gt;Node33 -->
<g id="edge54" class="edge"><title>Node23&#45;&gt;Node33</title>
<path fill="none" stroke="midnightblue" d="M621.728,-451.478C667.564,-443.463 755.233,-428 839.822,-412.198"/>
<polygon fill="midnightblue" stroke="midnightblue" points="840.668,-415.601 849.853,-410.32 839.379,-408.721 840.668,-415.601"/>
</g>
<!-- Node34 -->
<g id="node34" class="node"><title>Node34</title>
<g id="a_node34"><a xlink:href="../../d4/d96/cccc__use_8h.html" target="_top" xlink:title="cccc_use.h">
<polygon fill="white" stroke="black" points="644,-392.5 644,-411.5 712,-411.5 712,-392.5 644,-392.5"/>
<text text-anchor="middle" x="678" y="-399.5" font-family="Helvetica,sans-Serif" font-size="10.00">cccc_use.h</text>
</a>
</g>
</g>
<!-- Node23&#45;&gt;Node34 -->
<g id="edge56" class="edge"><title>Node23&#45;&gt;Node34</title>
<path fill="none" stroke="midnightblue" d="M604.139,-448.324C617.866,-439.9 638.936,-426.971 655.064,-417.074"/>
<polygon fill="midnightblue" stroke="midnightblue" points="657.204,-419.868 663.896,-411.655 653.543,-413.902 657.204,-419.868"/>
</g>
<!-- Node24&#45;&gt;Node9 -->
<g id="edge31" class="edge"><title>Node24&#45;&gt;Node9</title>
<path fill="none" stroke="midnightblue" d="M833.445,-280.433C838.711,-271.66 846.407,-257.442 850,-244 864.947,-188.084 864.416,-118.883 863.077,-86.0313"/>
<polygon fill="midnightblue" stroke="midnightblue" points="866.554,-85.4835 862.574,-75.6649 859.562,-85.8227 866.554,-85.4835"/>
</g>
<!-- Node24&#45;&gt;Node25 -->
<g id="edge32" class="edge"><title>Node24&#45;&gt;Node25</title>
<path fill="none" stroke="midnightblue" d="M806.767,-280.444C784.616,-271.517 749.681,-257.439 724.564,-247.317"/>
<polygon fill="midnightblue" stroke="midnightblue" points="725.717,-244.008 715.133,-243.516 723.1,-250.501 725.717,-244.008"/>
</g>
<!-- Node25&#45;&gt;Node2 -->
<g id="edge33" class="edge"><title>Node25&#45;&gt;Node2</title>
<path fill="none" stroke="midnightblue" d="M684.305,-224.481C668.02,-210.61 633.641,-183.172 600,-168 550.716,-145.773 488.766,-133.444 451.334,-127.527"/>
<polygon fill="midnightblue" stroke="midnightblue" points="451.414,-123.999 441.002,-125.959 450.364,-130.92 451.414,-123.999"/>
</g>
<!-- Node25&#45;&gt;Node13 -->
<g id="edge36" class="edge"><title>Node25&#45;&gt;Node13</title>
<path fill="none" stroke="midnightblue" d="M686.634,-224.075C664.603,-197.38 598.979,-117.865 570.47,-83.3218"/>
<polygon fill="midnightblue" stroke="midnightblue" points="573.136,-81.0529 564.071,-75.5681 567.737,-85.5086 573.136,-81.0529"/>
</g>
<!-- Node25&#45;&gt;Node15 -->
<g id="edge37" class="edge"><title>Node25&#45;&gt;Node15</title>
<path fill="none" stroke="midnightblue" d="M708.078,-224.259C719.353,-216.355 734.346,-203.584 741,-188 756.061,-152.729 736.284,-108.184 722.747,-84.1917"/>
<polygon fill="midnightblue" stroke="midnightblue" points="725.721,-82.3449 717.614,-75.5235 719.697,-85.9115 725.721,-82.3449"/>
</g>
<!-- Node26 -->
<g id="node26" class="node"><title>Node26</title>
<polygon fill="white" stroke="#bfbfbf" points="554.5,-168.5 554.5,-187.5 591.5,-187.5 591.5,-168.5 554.5,-168.5"/>
<text text-anchor="middle" x="573" y="-175.5" font-family="Helvetica,sans-Serif" font-size="10.00">map</text>
</g>
<!-- Node25&#45;&gt;Node26 -->
<g id="edge34" class="edge"><title>Node25&#45;&gt;Node26</title>
<path fill="none" stroke="midnightblue" d="M674.827,-224.444C654.975,-215.584 623.75,-201.649 601.109,-191.544"/>
<polygon fill="midnightblue" stroke="midnightblue" points="602.244,-188.218 591.686,-187.339 599.391,-194.611 602.244,-188.218"/>
</g>
<!-- Node27 -->
<g id="node27" class="node"><title>Node27</title>
<polygon fill="white" stroke="#bfbfbf" points="686,-168.5 686,-187.5 732,-187.5 732,-168.5 686,-168.5"/>
<text text-anchor="middle" x="709" y="-175.5" font-family="Helvetica,sans-Serif" font-size="10.00">vector</text>
</g>
<!-- Node25&#45;&gt;Node27 -->
<g id="edge35" class="edge"><title>Node25&#45;&gt;Node27</title>
<path fill="none" stroke="midnightblue" d="M696.477,-224.083C698.486,-216.849 701.386,-206.409 703.89,-197.397"/>
<polygon fill="midnightblue" stroke="midnightblue" points="707.265,-198.323 706.569,-187.751 700.52,-196.449 707.265,-198.323"/>
</g>
<!-- Node28&#45;&gt;Node24 -->
<g id="edge47" class="edge"><title>Node28&#45;&gt;Node24</title>
<path fill="none" stroke="midnightblue" d="M739.87,-336.324C756.709,-327.664 782.807,-314.242 802.238,-304.249"/>
<polygon fill="midnightblue" stroke="midnightblue" points="803.88,-307.341 811.172,-299.655 800.678,-301.116 803.88,-307.341"/>
</g>
<!-- Node28&#45;&gt;Node25 -->
<g id="edge48" class="edge"><title>Node28&#45;&gt;Node25</title>
<path fill="none" stroke="midnightblue" d="M720.724,-336.368C716.023,-318.537 705.151,-277.295 698.817,-253.272"/>
<polygon fill="midnightblue" stroke="midnightblue" points="702.199,-252.369 696.265,-243.591 695.43,-254.153 702.199,-252.369"/>
</g>
<!-- Node29 -->
<g id="node29" class="node"><title>Node29</title>
<g id="a_node29"><a xlink:href="../../df/dd4/cccc__tbl_8h.html" target="_top" xlink:title="cccc_tbl.h">
<polygon fill="white" stroke="black" points="596,-280.5 596,-299.5 658,-299.5 658,-280.5 596,-280.5"/>
<text text-anchor="middle" x="627" y="-287.5" font-family="Helvetica,sans-Serif" font-size="10.00">cccc_tbl.h</text>
</a>
</g>
</g>
<!-- Node28&#45;&gt;Node29 -->
<g id="edge39" class="edge"><title>Node28&#45;&gt;Node29</title>
<path fill="none" stroke="midnightblue" d="M707.576,-336.324C692.46,-327.822 669.185,-314.729 651.529,-304.797"/>
<polygon fill="midnightblue" stroke="midnightblue" points="652.817,-301.507 642.386,-299.655 649.386,-307.608 652.817,-301.507"/>
</g>
<!-- Node29&#45;&gt;Node9 -->
<g id="edge41" class="edge"><title>Node29&#45;&gt;Node9</title>
<path fill="none" stroke="midnightblue" d="M658.082,-284.354C686.215,-278.815 727.492,-267.215 756,-244 809.864,-200.136 842.951,-121.15 855.828,-85.4305"/>
<polygon fill="midnightblue" stroke="midnightblue" points="859.191,-86.4158 859.176,-75.821 852.581,-84.1127 859.191,-86.4158"/>
</g>
<!-- Node29&#45;&gt;Node10 -->
<g id="edge40" class="edge"><title>Node29&#45;&gt;Node10</title>
<path fill="none" stroke="midnightblue" d="M658.211,-282.57C681.694,-276.294 713.268,-264.592 734,-244 778.304,-199.996 788.771,-121.669 791.24,-85.8352"/>
<polygon fill="midnightblue" stroke="midnightblue" points="794.738,-85.969 791.793,-75.7916 787.749,-85.5838 794.738,-85.969"/>
</g>
<!-- Node29&#45;&gt;Node26 -->
<g id="edge42" class="edge"><title>Node29&#45;&gt;Node26</title>
<path fill="none" stroke="midnightblue" d="M622.763,-280.368C613.93,-262.376 593.397,-220.55 581.653,-196.627"/>
<polygon fill="midnightblue" stroke="midnightblue" points="584.766,-195.026 577.218,-187.591 578.483,-198.11 584.766,-195.026"/>
</g>
<!-- Node30 -->
<g id="node30" class="node"><title>Node30</title>
<g id="a_node30"><a xlink:href="../../d1/d17/cccc__tbl_8cc.html" target="_top" xlink:title="cccc_tbl.cc">
<polygon fill="white" stroke="black" points="518.5,-224.5 518.5,-243.5 585.5,-243.5 585.5,-224.5 518.5,-224.5"/>
<text text-anchor="middle" x="552" y="-231.5" font-family="Helvetica,sans-Serif" font-size="10.00">cccc_tbl.cc</text>
</a>
</g>
</g>
<!-- Node29&#45;&gt;Node30 -->
<g id="edge43" class="edge"><title>Node29&#45;&gt;Node30</title>
<path fill="none" stroke="midnightblue" d="M609.835,-280.324C596.894,-272.263 579.62,-260.077 567.187,-250.369"/>
<polygon fill="midnightblue" stroke="midnightblue" points="569.094,-247.41 559.121,-243.834 564.687,-252.849 569.094,-247.41"/>
</g>
<!-- Node30&#45;&gt;Node3 -->
<g id="edge46" class="edge"><title>Node30&#45;&gt;Node3</title>
<path fill="none" stroke="midnightblue" d="M548.607,-224.268C544.174,-211.483 537.781,-187.112 545,-168 558.779,-131.521 592.404,-99.6886 614.151,-81.9424"/>
<polygon fill="midnightblue" stroke="midnightblue" points="616.442,-84.5932 622.11,-75.642 612.097,-79.1049 616.442,-84.5932"/>
</g>
<!-- Node30&#45;&gt;Node20 -->
<g id="edge44" class="edge"><title>Node30&#45;&gt;Node20</title>
<path fill="none" stroke="midnightblue" d="M520.151,-224.444C485.602,-215.162 430.318,-200.309 392.417,-190.127"/>
<polygon fill="midnightblue" stroke="midnightblue" points="393.266,-186.731 382.7,-187.516 391.449,-193.491 393.266,-186.731"/>
</g>
<!-- Node30&#45;&gt;Node29 -->
<g id="edge45" class="edge"><title>Node30&#45;&gt;Node29</title>
<path fill="none" stroke="midnightblue" d="M569.13,-243.655C582.14,-251.756 599.544,-264.038 612.001,-273.778"/>
<polygon fill="midnightblue" stroke="midnightblue" points="610.095,-276.738 620.065,-280.324 614.507,-271.304 610.095,-276.738"/>
</g>
<!-- Node31&#45;&gt;Node28 -->
<g id="edge50" class="edge"><title>Node31&#45;&gt;Node28</title>
<path fill="none" stroke="midnightblue" d="M787.629,-392.324C775.842,-384.058 757.868,-371.453 743.864,-361.632"/>
<polygon fill="midnightblue" stroke="midnightblue" points="745.538,-358.531 735.341,-355.655 741.518,-364.262 745.538,-358.531"/>
</g>
<!-- Node32&#45;&gt;Node2 -->
<g id="edge52" class="edge"><title>Node32&#45;&gt;Node2</title>
<path fill="none" stroke="midnightblue" d="M572.697,-392.455C543.596,-376.722 488,-340.223 488,-291 488,-291 488,-291 488,-233 488,-202.205 480.749,-193.842 464,-168 456.743,-156.803 446.244,-146.258 437.109,-138.195"/>
<polygon fill="midnightblue" stroke="midnightblue" points="439.131,-135.322 429.234,-131.54 434.613,-140.668 439.131,-135.322"/>
</g>
<!-- Node32&#45;&gt;Node28 -->
<g id="edge53" class="edge"><title>Node32&#45;&gt;Node28</title>
<path fill="none" stroke="midnightblue" d="M611.074,-392.444C633.06,-383.517 667.734,-369.439 692.664,-359.317"/>
<polygon fill="midnightblue" stroke="midnightblue" points="694.076,-362.521 702.024,-355.516 691.442,-356.035 694.076,-362.521"/>
</g>
<!-- Node33&#45;&gt;Node28 -->
<g id="edge55" class="edge"><title>Node33&#45;&gt;Node28</title>
<path fill="none" stroke="midnightblue" d="M861.014,-392.444C833.304,-383.32 789.248,-368.813 758.384,-358.651"/>
<polygon fill="midnightblue" stroke="midnightblue" points="759.458,-355.32 748.865,-355.516 757.268,-361.968 759.458,-355.32"/>
</g>
<!-- Node34&#45;&gt;Node28 -->
<g id="edge57" class="edge"><title>Node34&#45;&gt;Node28</title>
<path fill="none" stroke="midnightblue" d="M685.431,-392.083C691.853,-384.377 701.306,-373.033 709.122,-363.653"/>
<polygon fill="midnightblue" stroke="midnightblue" points="711.994,-365.674 715.707,-355.751 706.617,-361.193 711.994,-365.674"/>
</g>
<!-- Node35&#45;&gt;Node2 -->
<g id="edge62" class="edge"><title>Node35&#45;&gt;Node2</title>
<path fill="none" stroke="midnightblue" d="M301.3,-560.483C297.777,-542.056 290,-497.076 290,-459 290,-459 290,-459 290,-233 290,-202.902 288.888,-190.391 309,-168 328.632,-146.144 360.504,-134.651 384.725,-128.77"/>
<polygon fill="midnightblue" stroke="midnightblue" points="385.577,-132.167 394.579,-126.58 384.058,-125.333 385.577,-132.167"/>
</g>
<!-- Node35&#45;&gt;Node12 -->
<g id="edge63" class="edge"><title>Node35&#45;&gt;Node12</title>
<path fill="none" stroke="midnightblue" d="M299.147,-560.287C273.304,-501.849 125.12,-166.768 88.9583,-84.9958"/>
<polygon fill="midnightblue" stroke="midnightblue" points="92.0317,-83.2915 84.7862,-75.5615 85.6297,-86.1227 92.0317,-83.2915"/>
</g>
<!-- Node35&#45;&gt;Node22 -->
<g id="edge66" class="edge"><title>Node35&#45;&gt;Node22</title>
<path fill="none" stroke="midnightblue" d="M322.965,-560.444C343.609,-551.596 376.063,-537.687 399.632,-527.586"/>
<polygon fill="midnightblue" stroke="midnightblue" points="401.316,-530.673 409.128,-523.516 398.558,-524.239 401.316,-530.673"/>
</g>
<!-- Node35&#45;&gt;Node23 -->
<g id="edge65" class="edge"><title>Node35&#45;&gt;Node23</title>
<path fill="none" stroke="midnightblue" d="M311.193,-560.328C325.019,-546.237 354.475,-518.489 385,-504 438.066,-478.812 505.59,-467.502 548.321,-462.58"/>
<polygon fill="midnightblue" stroke="midnightblue" points="548.8,-466.048 558.363,-461.488 548.043,-459.089 548.8,-466.048"/>
</g>
<!-- Node36 -->
<g id="node36" class="node"><title>Node36</title>
<polygon fill="white" stroke="#bfbfbf" points="142,-504.5 142,-523.5 186,-523.5 186,-504.5 142,-504.5"/>
<text text-anchor="middle" x="164" y="-511.5" font-family="Helvetica,sans-Serif" font-size="10.00">time.h</text>
</g>
<!-- Node35&#45;&gt;Node36 -->
<g id="edge64" class="edge"><title>Node35&#45;&gt;Node36</title>
<path fill="none" stroke="midnightblue" d="M280.975,-560.444C257.896,-551.478 221.438,-537.314 195.359,-527.183"/>
<polygon fill="midnightblue" stroke="midnightblue" points="196.511,-523.875 185.922,-523.516 193.976,-530.4 196.511,-523.875"/>
</g>
<!-- Node37&#45;&gt;Node2 -->
<g id="edge68" class="edge"><title>Node37&#45;&gt;Node2</title>
<path fill="none" stroke="midnightblue" d="M215.706,-616.47C179.092,-601.881 114,-568.43 114,-515 114,-515 114,-515 114,-345 114,-245.249 163.543,-214.104 252,-168 294.954,-145.612 350.125,-133.528 384.783,-127.679"/>
<polygon fill="midnightblue" stroke="midnightblue" points="385.528,-131.105 394.844,-126.06 384.415,-124.193 385.528,-131.105"/>
</g>
<!-- Node37&#45;&gt;Node12 -->
<g id="edge69" class="edge"><title>Node37&#45;&gt;Node12</title>
<path fill="none" stroke="midnightblue" d="M205.62,-618.088C157.53,-606.186 76,-576.882 76,-515 76,-515 76,-515 76,-177 76,-144.915 78.1491,-107.62 79.6294,-85.7371"/>
<polygon fill="midnightblue" stroke="midnightblue" points="83.1354,-85.7729 80.3463,-75.5518 76.1527,-85.2813 83.1354,-85.7729"/>
</g>
<!-- Node37&#45;&gt;Node22 -->
<g id="edge72" class="edge"><title>Node37&#45;&gt;Node22</title>
<path fill="none" stroke="midnightblue" d="M265.309,-616.398C287.364,-608.408 319.826,-595.439 346,-580 370.433,-565.589 395.703,-544.803 411.842,-530.643"/>
<polygon fill="midnightblue" stroke="midnightblue" points="414.259,-533.177 419.396,-523.911 409.601,-527.951 414.259,-533.177"/>
</g>
<!-- Node37&#45;&gt;Node23 -->
<g id="edge71" class="edge"><title>Node37&#45;&gt;Node23</title>
<path fill="none" stroke="midnightblue" d="M240.591,-616.111C241.893,-602.688 246.02,-577.011 259,-560 287.806,-522.245 305.699,-521.106 350,-504 416.502,-478.321 499.194,-466.961 548.112,-462.188"/>
<polygon fill="midnightblue" stroke="midnightblue" points="548.681,-465.651 558.314,-461.241 548.034,-458.681 548.681,-465.651"/>
</g>
<!-- Node37&#45;&gt;Node35 -->
<g id="edge73" class="edge"><title>Node37&#45;&gt;Node35</title>
<path fill="none" stroke="midnightblue" d="M250.122,-616.324C259.526,-608.263 273.744,-596.077 285.069,-586.369"/>
<polygon fill="midnightblue" stroke="midnightblue" points="287.379,-588.999 292.694,-579.834 282.823,-583.684 287.379,-588.999"/>
</g>
<!-- Node37&#45;&gt;Node36 -->
<g id="edge70" class="edge"><title>Node37&#45;&gt;Node36</title>
<path fill="none" stroke="midnightblue" d="M234.036,-616.368C221.494,-598.215 192.19,-555.802 175.739,-531.99"/>
<polygon fill="midnightblue" stroke="midnightblue" points="178.5,-529.829 169.936,-523.591 172.741,-533.808 178.5,-529.829"/>
</g>
</g>
</svg>
