<?xml version="1.0" encoding="UTF-8" standalone="no"?>
<!DOCTYPE svg PUBLIC "-//W3C//DTD SVG 1.1//EN"
 "http://www.w3.org/Graphics/SVG/1.1/DTD/svg11.dtd">
<!-- Generated by graphviz version 2.38.0 (20140413.2041)
 -->
<!-- Title: cccc_utl.h Pages: 1 -->
<!--zoomable 476 -->
<svg id="main" version="1.1" xmlns="http://www.w3.org/2000/svg" xmlns:xlink="http://www.w3.org/1999/xlink" xml:space="preserve" onload="init(evt)">
<style type="text/css"><![CDATA[
.edge:hover path { stroke: red; }
.edge:hover polygon { stroke: red; fill: red; }
]]></style>
<script type="text/javascript"><![CDATA[
var edges = document.getElementsByTagName('g');
if (edges && edges.length) {
  for (var i=0;i<edges.length;i++) {
    if (edges[i].id.substr(0,4)=='edge') {
      edges[i].setAttribute('class','edge');
    }
  }
}
]]></script>
        <defs>
                <circle id="rim" cx="0" cy="0" r="7"/>
                <circle id="rim2" cx="0" cy="0" r="3.5"/>
                <g id="zoomPlus">
                        <use xlink:href="#rim" fill="#404040">
                                <set attributeName="fill" to="#808080" begin="zoomplus.mouseover" end="zoomplus.mouseout"/>
                        </use>
                        <path d="M-4,0h8M0,-4v8" fill="none" stroke="white" stroke-width="1.5" pointer-events="none"/>
                </g>
                <g id="zoomMin">
                        <use xlink:href="#rim" fill="#404040">
                                <set attributeName="fill" to="#808080" begin="zoomminus.mouseover" end="zoomminus.mouseout"/>
                        </use>
                        <path d="M-4,0h8" fill="none" stroke="white" stroke-width="1.5" pointer-events="none"/>
                </g>
                <g id="dirArrow">
                        <path fill="none" stroke="white" stroke-width="1.5" d="M0,-3.0v7 M-2.5,-0.5L0,-3.0L2.5,-0.5"/>
                </g>
               <g id="resetDef">
                       <use xlink:href="#rim2" fill="#404040">
                               <set attributeName="fill" to="#808080" begin="reset.mouseover" end="reset.mouseout"/>
                       </use>
               </g>
        </defs>

<script type="text/javascript">
var viewWidth = 1565;
var viewHeight = 476;
var sectionId = 'dynsection-1';
</script>
<script xlink:href="../../svgpan.js"/>
<svg id="graph" class="graph">
<g id="viewport">
<title>cccc_utl.h</title>
<polygon fill="white" stroke="none" points="-4,4 -4,-472 1560.5,-472 1560.5,4 -4,4"/>
<!-- Node1 -->
<g id="node1" class="node"><title>Node1</title>
<polygon fill="#bfbfbf" stroke="black" points="1126.5,-448.5 1126.5,-467.5 1188.5,-467.5 1188.5,-448.5 1126.5,-448.5"/>
<text text-anchor="middle" x="1157.5" y="-455.5" font-family="Helvetica,sans-Serif" font-size="10.00">cccc_utl.h</text>
</g>
<!-- Node2 -->
<g id="node2" class="node"><title>Node2</title>
<g id="a_node2"><a xlink:href="../../db/dd7/cccc_8cpp.html" target="_top" xlink:title="cccc.cpp">
<polygon fill="white" stroke="black" points="0,-336.5 0,-355.5 57,-355.5 57,-336.5 0,-336.5"/>
<text text-anchor="middle" x="28.5" y="-343.5" font-family="Helvetica,sans-Serif" font-size="10.00">cccc.cpp</text>
</a>
</g>
</g>
<!-- Node1&#45;&gt;Node2 -->
<g id="edge1" class="edge"><title>Node1&#45;&gt;Node2</title>
<path fill="none" stroke="midnightblue" d="M1116.21,-456.338C923.254,-453.111 117.766,-438.115 71.5,-412 49.348,-399.496 36.5416,-370.302 31.3011,-355.675"/>
<polygon fill="midnightblue" stroke="midnightblue" points="1116.17,-459.838 1126.23,-456.504 1116.29,-452.839 1116.17,-459.838"/>
</g>
<!-- Node3 -->
<g id="node3" class="node"><title>Node3</title>
<g id="a_node3"><a xlink:href="../../d3/db6/CParser_8h.html" target="_top" xlink:title="CParser.h">
<polygon fill="white" stroke="black" points="80.5,-392.5 80.5,-411.5 144.5,-411.5 144.5,-392.5 80.5,-392.5"/>
<text text-anchor="middle" x="112.5" y="-399.5" font-family="Helvetica,sans-Serif" font-size="10.00">CParser.h</text>
</a>
</g>
</g>
<!-- Node1&#45;&gt;Node3 -->
<g id="edge2" class="edge"><title>Node1&#45;&gt;Node3</title>
<path fill="none" stroke="midnightblue" d="M1116.06,-456.989C979.58,-456.555 531.933,-451.961 164.5,-412 158.033,-411.297 151.154,-410.291 144.588,-409.205"/>
<polygon fill="midnightblue" stroke="midnightblue" points="1116.08,-460.489 1126.08,-457.015 1116.09,-453.489 1116.08,-460.489"/>
</g>
<!-- Node5 -->
<g id="node5" class="node"><title>Node5</title>
<g id="a_node5"><a xlink:href="../../d3/d11/cccc__ext_8h.html" target="_top" xlink:title="cccc_ext.h">
<polygon fill="white" stroke="black" points="693.5,-392.5 693.5,-411.5 759.5,-411.5 759.5,-392.5 693.5,-392.5"/>
<text text-anchor="middle" x="726.5" y="-399.5" font-family="Helvetica,sans-Serif" font-size="10.00">cccc_ext.h</text>
</a>
</g>
</g>
<!-- Node1&#45;&gt;Node5 -->
<g id="edge5" class="edge"><title>Node1&#45;&gt;Node5</title>
<path fill="none" stroke="midnightblue" d="M1116.08,-451.81C1030.89,-441.137 837.527,-416.911 759.785,-407.17"/>
<polygon fill="midnightblue" stroke="midnightblue" points="1115.8,-455.303 1126.16,-453.073 1116.67,-448.357 1115.8,-455.303"/>
</g>
<!-- Node8 -->
<g id="node8" class="node"><title>Node8</title>
<g id="a_node8"><a xlink:href="../../d6/dd5/cccc__ext_8cc.html" target="_top" xlink:title="cccc_ext.cc">
<polygon fill="white" stroke="black" points="207,-168.5 207,-187.5 278,-187.5 278,-168.5 207,-168.5"/>
<text text-anchor="middle" x="242.5" y="-175.5" font-family="Helvetica,sans-Serif" font-size="10.00">cccc_ext.cc</text>
</a>
</g>
</g>
<!-- Node1&#45;&gt;Node8 -->
<g id="edge49" class="edge"><title>Node1&#45;&gt;Node8</title>
<path fill="none" stroke="midnightblue" d="M1116.27,-455.975C947.794,-451.25 320.5,-428.203 320.5,-347 320.5,-347 320.5,-347 320.5,-289 320.5,-244.051 276.625,-204.65 254.688,-187.759"/>
<polygon fill="midnightblue" stroke="midnightblue" points="1116.38,-459.479 1126.47,-456.254 1116.57,-452.482 1116.38,-459.479"/>
</g>
<!-- Node10 -->
<g id="node10" class="node"><title>Node10</title>
<g id="a_node10"><a xlink:href="../../d5/dcb/cccc__htm_8cc.html" target="_top" xlink:title="cccc_htm.cc">
<polygon fill="white" stroke="black" points="1009.5,-56.5 1009.5,-75.5 1083.5,-75.5 1083.5,-56.5 1009.5,-56.5"/>
<text text-anchor="middle" x="1046.5" y="-63.5" font-family="Helvetica,sans-Serif" font-size="10.00">cccc_htm.cc</text>
</a>
</g>
</g>
<!-- Node1&#45;&gt;Node10 -->
<g id="edge50" class="edge"><title>Node1&#45;&gt;Node10</title>
<path fill="none" stroke="midnightblue" d="M1172.29,-440.703C1189.18,-420.343 1214.5,-383.7 1214.5,-347 1214.5,-347 1214.5,-347 1214.5,-177 1214.5,-114.945 1133.28,-86.0045 1083.78,-74.1299"/>
<polygon fill="midnightblue" stroke="midnightblue" points="1169.55,-438.525 1165.67,-448.384 1174.85,-443.096 1169.55,-438.525"/>
</g>
<!-- Node13 -->
<g id="node13" class="node"><title>Node13</title>
<g id="a_node13"><a xlink:href="../../db/d75/cccc__xml_8cc.html" target="_top" xlink:title="cccc_xml.cc">
<polygon fill="white" stroke="black" points="997.5,-0.5 997.5,-19.5 1069.5,-19.5 1069.5,-0.5 997.5,-0.5"/>
<text text-anchor="middle" x="1033.5" y="-7.5" font-family="Helvetica,sans-Serif" font-size="10.00">cccc_xml.cc</text>
</a>
</g>
</g>
<!-- Node1&#45;&gt;Node13 -->
<g id="edge53" class="edge"><title>Node1&#45;&gt;Node13</title>
<path fill="none" stroke="midnightblue" d="M1181.75,-443.085C1209.89,-424.914 1252.5,-390.261 1252.5,-347 1252.5,-347 1252.5,-347 1252.5,-121 1252.5,-40.1598 1131.87,-18.7241 1069.66,-13.0446"/>
<polygon fill="midnightblue" stroke="midnightblue" points="1179.84,-440.149 1173.19,-448.396 1183.53,-446.097 1179.84,-440.149"/>
</g>
<!-- Node14 -->
<g id="node14" class="node"><title>Node14</title>
<g id="a_node14"><a xlink:href="../../d6/d93/ccccmain_8cc.html" target="_top" xlink:title="ccccmain.cc">
<polygon fill="white" stroke="black" points="586,-0.5 586,-19.5 659,-19.5 659,-0.5 586,-0.5"/>
<text text-anchor="middle" x="622.5" y="-7.5" font-family="Helvetica,sans-Serif" font-size="10.00">ccccmain.cc</text>
</a>
</g>
</g>
<!-- Node1&#45;&gt;Node14 -->
<g id="edge54" class="edge"><title>Node1&#45;&gt;Node14</title>
<path fill="none" stroke="midnightblue" d="M1116.11,-456.769C929.864,-455.193 178.5,-442.895 178.5,-347 178.5,-347 178.5,-347 178.5,-121 178.5,-37.3178 479.411,-16.867 585.788,-12.2518"/>
<polygon fill="midnightblue" stroke="midnightblue" points="1116.28,-460.27 1126.31,-456.849 1116.34,-453.27 1116.28,-460.27"/>
</g>
<!-- Node17 -->
<g id="node17" class="node"><title>Node17</title>
<g id="a_node17"><a xlink:href="../../d5/d39/cccc__opt_8cc.html" target="_top" xlink:title="cccc_opt.cc">
<polygon fill="white" stroke="black" points="844,-112.5 844,-131.5 915,-131.5 915,-112.5 844,-112.5"/>
<text text-anchor="middle" x="879.5" y="-119.5" font-family="Helvetica,sans-Serif" font-size="10.00">cccc_opt.cc</text>
</a>
</g>
</g>
<!-- Node1&#45;&gt;Node17 -->
<g id="edge51" class="edge"><title>Node1&#45;&gt;Node17</title>
<path fill="none" stroke="midnightblue" d="M1162.72,-438.39C1168.34,-416.65 1176.5,-379.511 1176.5,-347 1176.5,-347 1176.5,-347 1176.5,-233 1176.5,-202.775 1179.29,-187.855 1156.5,-168 1121.05,-137.116 981.612,-127.223 915.13,-124.223"/>
<polygon fill="midnightblue" stroke="midnightblue" points="1159.28,-437.683 1160.06,-448.249 1166.04,-439.502 1159.28,-437.683"/>
</g>
<!-- Node23 -->
<g id="node23" class="node"><title>Node23</title>
<g id="a_node23"><a xlink:href="../../dc/d0b/cccc__utl_8cc.html" target="_top" xlink:title="cccc_utl.cc">
<polygon fill="white" stroke="black" points="1081,-168.5 1081,-187.5 1148,-187.5 1148,-168.5 1081,-168.5"/>
<text text-anchor="middle" x="1114.5" y="-175.5" font-family="Helvetica,sans-Serif" font-size="10.00">cccc_utl.cc</text>
</a>
</g>
</g>
<!-- Node1&#45;&gt;Node23 -->
<g id="edge52" class="edge"><title>Node1&#45;&gt;Node23</title>
<path fill="none" stroke="midnightblue" d="M1149.24,-439.253C1140.06,-417.86 1126.5,-380.59 1126.5,-347 1126.5,-347 1126.5,-347 1126.5,-289 1126.5,-250.963 1119.32,-205.962 1116.07,-187.523"/>
<polygon fill="midnightblue" stroke="midnightblue" points="1146.05,-440.687 1153.32,-448.393 1152.44,-437.835 1146.05,-440.687"/>
</g>
<!-- Node24 -->
<g id="node24" class="node"><title>Node24</title>
<g id="a_node24"><a xlink:href="../../df/de9/cccc__rec_8h.html" target="_top" xlink:title="cccc_rec.h">
<polygon fill="white" stroke="black" points="769,-336.5 769,-355.5 836,-355.5 836,-336.5 769,-336.5"/>
<text text-anchor="middle" x="802.5" y="-343.5" font-family="Helvetica,sans-Serif" font-size="10.00">cccc_rec.h</text>
</a>
</g>
</g>
<!-- Node1&#45;&gt;Node24 -->
<g id="edge48" class="edge"><title>Node1&#45;&gt;Node24</title>
<path fill="none" stroke="midnightblue" d="M1119.99,-445.378C1048.35,-423.179 893.548,-375.212 830.288,-355.61"/>
<polygon fill="midnightblue" stroke="midnightblue" points="1119.35,-448.843 1129.94,-448.46 1121.42,-442.157 1119.35,-448.843"/>
</g>
<!-- Node29 -->
<g id="node29" class="node"><title>Node29</title>
<g id="a_node29"><a xlink:href="../../d4/d56/CLexer_8cpp.html" target="_top" xlink:title="CLexer.cpp">
<polygon fill="white" stroke="black" points="1281,-392.5 1281,-411.5 1352,-411.5 1352,-392.5 1281,-392.5"/>
<text text-anchor="middle" x="1316.5" y="-399.5" font-family="Helvetica,sans-Serif" font-size="10.00">CLexer.cpp</text>
</a>
</g>
</g>
<!-- Node1&#45;&gt;Node29 -->
<g id="edge55" class="edge"><title>Node1&#45;&gt;Node29</title>
<path fill="none" stroke="midnightblue" d="M1192.33,-445.172C1222.27,-435.004 1264.72,-420.585 1291.42,-411.516"/>
<polygon fill="midnightblue" stroke="midnightblue" points="1191.04,-441.914 1182.69,-448.444 1193.29,-448.542 1191.04,-441.914"/>
</g>
<!-- Node30 -->
<g id="node30" class="node"><title>Node30</title>
<g id="a_node30"><a xlink:href="../../d7/d8c/java_8cpp.html" target="_top" xlink:title="java.cpp">
<polygon fill="white" stroke="black" points="1352.5,-336.5 1352.5,-355.5 1408.5,-355.5 1408.5,-336.5 1352.5,-336.5"/>
<text text-anchor="middle" x="1380.5" y="-343.5" font-family="Helvetica,sans-Serif" font-size="10.00">java.cpp</text>
</a>
</g>
</g>
<!-- Node1&#45;&gt;Node30 -->
<g id="edge56" class="edge"><title>Node1&#45;&gt;Node30</title>
<path fill="none" stroke="midnightblue" d="M1198.78,-452.752C1251.1,-446.56 1337.31,-433.401 1360.5,-412 1376.64,-397.108 1379.88,-369.543 1380.45,-355.582"/>
<polygon fill="midnightblue" stroke="midnightblue" points="1198.33,-449.281 1188.79,-453.898 1199.13,-456.235 1198.33,-449.281"/>
</g>
<!-- Node31 -->
<g id="node31" class="node"><title>Node31</title>
<g id="a_node31"><a xlink:href="../../d3/da8/JParser_8h.html" target="_top" xlink:title="JParser.h">
<polygon fill="white" stroke="black" points="1408.5,-392.5 1408.5,-411.5 1470.5,-411.5 1470.5,-392.5 1408.5,-392.5"/>
<text text-anchor="middle" x="1439.5" y="-399.5" font-family="Helvetica,sans-Serif" font-size="10.00">JParser.h</text>
</a>
</g>
</g>
<!-- Node1&#45;&gt;Node31 -->
<g id="edge57" class="edge"><title>Node1&#45;&gt;Node31</title>
<path fill="none" stroke="midnightblue" d="M1198.43,-449.354C1245.69,-440.496 1325.76,-425.4 1394.5,-412 1398.88,-411.146 1403.5,-410.236 1408.04,-409.333"/>
<polygon fill="midnightblue" stroke="midnightblue" points="1197.76,-445.918 1188.58,-451.2 1199.05,-452.799 1197.76,-445.918"/>
</g>
<!-- Node33 -->
<g id="node33" class="node"><title>Node33</title>
<g id="a_node33"><a xlink:href="../../d8/d0b/JLexer_8cpp.html" target="_top" xlink:title="JLexer.cpp">
<polygon fill="white" stroke="black" points="1488.5,-392.5 1488.5,-411.5 1556.5,-411.5 1556.5,-392.5 1488.5,-392.5"/>
<text text-anchor="middle" x="1522.5" y="-399.5" font-family="Helvetica,sans-Serif" font-size="10.00">JLexer.cpp</text>
</a>
</g>
</g>
<!-- Node1&#45;&gt;Node33 -->
<g id="edge60" class="edge"><title>Node1&#45;&gt;Node33</title>
<path fill="none" stroke="midnightblue" d="M1198.76,-452.139C1260.15,-444.701 1379.1,-429.502 1479.5,-412 1482.36,-411.502 1485.31,-410.954 1488.27,-410.381"/>
<polygon fill="midnightblue" stroke="midnightblue" points="1198.2,-448.68 1188.69,-453.351 1199.04,-455.63 1198.2,-448.68"/>
</g>
<!-- Node3&#45;&gt;Node2 -->
<g id="edge3" class="edge"><title>Node3&#45;&gt;Node2</title>
<path fill="none" stroke="midnightblue" d="M90.5675,-386.901C75.1645,-376.999 55.0542,-364.071 41.9626,-355.655"/>
<polygon fill="midnightblue" stroke="midnightblue" points="88.6995,-389.86 99.0039,-392.324 92.4848,-383.972 88.6995,-389.86"/>
</g>
<!-- Node4 -->
<g id="node4" class="node"><title>Node4</title>
<g id="a_node4"><a xlink:href="../../dc/d37/CParser_8cpp.html" target="_top" xlink:title="CParser.cpp">
<polygon fill="white" stroke="black" points="75,-336.5 75,-355.5 150,-355.5 150,-336.5 75,-336.5"/>
<text text-anchor="middle" x="112.5" y="-343.5" font-family="Helvetica,sans-Serif" font-size="10.00">CParser.cpp</text>
</a>
</g>
</g>
<!-- Node3&#45;&gt;Node4 -->
<g id="edge4" class="edge"><title>Node3&#45;&gt;Node4</title>
<path fill="none" stroke="midnightblue" d="M112.5,-381.805C112.5,-372.91 112.5,-362.78 112.5,-355.751"/>
<polygon fill="midnightblue" stroke="midnightblue" points="109,-382.083 112.5,-392.083 116,-382.083 109,-382.083"/>
</g>
<!-- Node6 -->
<g id="node6" class="node"><title>Node6</title>
<g id="a_node6"><a xlink:href="../../d7/d44/cccc__db_8h.html" target="_top" xlink:title="cccc_db.h">
<polygon fill="white" stroke="black" points="677,-224.5 677,-243.5 740,-243.5 740,-224.5 677,-224.5"/>
<text text-anchor="middle" x="708.5" y="-231.5" font-family="Helvetica,sans-Serif" font-size="10.00">cccc_db.h</text>
</a>
</g>
</g>
<!-- Node5&#45;&gt;Node6 -->
<g id="edge6" class="edge"><title>Node5&#45;&gt;Node6</title>
<path fill="none" stroke="midnightblue" d="M713.432,-384.265C699.402,-365.141 677.985,-332.299 669.5,-300 667.241,-291.403 666.393,-288.328 669.5,-280 675.064,-265.083 688.047,-251.829 697.51,-243.635"/>
<polygon fill="midnightblue" stroke="midnightblue" points="710.82,-386.614 719.637,-392.489 716.407,-382.398 710.82,-386.614"/>
</g>
<!-- Node5&#45;&gt;Node8 -->
<g id="edge47" class="edge"><title>Node5&#45;&gt;Node8</title>
<path fill="none" stroke="midnightblue" d="M698.647,-388.224C609.904,-347.52 335.285,-221.558 261.121,-187.541"/>
<polygon fill="midnightblue" stroke="midnightblue" points="697.275,-391.445 707.823,-392.433 700.193,-385.083 697.275,-391.445"/>
</g>
<!-- Node5&#45;&gt;Node24 -->
<g id="edge32" class="edge"><title>Node5&#45;&gt;Node24</title>
<path fill="none" stroke="midnightblue" d="M747.076,-386.38C760.812,-376.62 778.425,-364.106 790.067,-355.834"/>
<polygon fill="midnightblue" stroke="midnightblue" points="744.835,-383.679 738.711,-392.324 748.89,-389.385 744.835,-383.679"/>
</g>
<!-- Node7 -->
<g id="node7" class="node"><title>Node7</title>
<g id="a_node7"><a xlink:href="../../d8/d19/cccc__db_8cc.html" target="_top" xlink:title="cccc_db.cc">
<polygon fill="white" stroke="black" points="587.5,-168.5 587.5,-187.5 655.5,-187.5 655.5,-168.5 587.5,-168.5"/>
<text text-anchor="middle" x="621.5" y="-175.5" font-family="Helvetica,sans-Serif" font-size="10.00">cccc_db.cc</text>
</a>
</g>
</g>
<!-- Node6&#45;&gt;Node7 -->
<g id="edge7" class="edge"><title>Node6&#45;&gt;Node7</title>
<path fill="none" stroke="midnightblue" d="M685.784,-218.901C669.831,-208.999 649.003,-196.071 635.443,-187.655"/>
<polygon fill="midnightblue" stroke="midnightblue" points="684.18,-222.024 694.522,-224.324 687.871,-216.077 684.18,-222.024"/>
</g>
<!-- Node6&#45;&gt;Node8 -->
<g id="edge8" class="edge"><title>Node6&#45;&gt;Node8</title>
<path fill="none" stroke="midnightblue" d="M666.758,-229.879C590.805,-223.905 425.052,-209.507 286.5,-188 283.88,-187.593 281.18,-187.136 278.468,-186.649"/>
<polygon fill="midnightblue" stroke="midnightblue" points="666.626,-233.379 676.868,-230.666 667.169,-226.401 666.626,-233.379"/>
</g>
<!-- Node9 -->
<g id="node9" class="node"><title>Node9</title>
<g id="a_node9"><a xlink:href="../../d9/db9/cccc__htm_8h.html" target="_top" xlink:title="cccc_htm.h">
<polygon fill="white" stroke="black" points="588,-112.5 588,-131.5 657,-131.5 657,-112.5 588,-112.5"/>
<text text-anchor="middle" x="622.5" y="-119.5" font-family="Helvetica,sans-Serif" font-size="10.00">cccc_htm.h</text>
</a>
</g>
</g>
<!-- Node6&#45;&gt;Node9 -->
<g id="edge9" class="edge"><title>Node6&#45;&gt;Node9</title>
<path fill="none" stroke="midnightblue" d="M666.531,-230.709C636.619,-226.621 598.327,-215.845 578.5,-188 564.272,-168.019 591.805,-144.001 609.407,-131.502"/>
<polygon fill="midnightblue" stroke="midnightblue" points="666.381,-234.215 676.718,-231.894 667.189,-227.262 666.381,-234.215"/>
</g>
<!-- Node11 -->
<g id="node11" class="node"><title>Node11</title>
<g id="a_node11"><a xlink:href="../../d1/d81/cccc__tpl_8cc.html" target="_top" xlink:title="cccc_tpl.cc">
<polygon fill="white" stroke="black" points="525.5,-56.5 525.5,-75.5 593.5,-75.5 593.5,-56.5 525.5,-56.5"/>
<text text-anchor="middle" x="559.5" y="-63.5" font-family="Helvetica,sans-Serif" font-size="10.00">cccc_tpl.cc</text>
</a>
</g>
</g>
<!-- Node6&#45;&gt;Node11 -->
<g id="edge27" class="edge"><title>Node6&#45;&gt;Node11</title>
<path fill="none" stroke="midnightblue" d="M666.782,-230.654C635.73,-226.575 594.836,-215.838 571.5,-188 543.699,-154.836 552.728,-97.1949 557.429,-75.5447"/>
<polygon fill="midnightblue" stroke="midnightblue" points="666.566,-234.152 676.896,-231.798 667.352,-227.196 666.566,-234.152"/>
</g>
<!-- Node12 -->
<g id="node12" class="node"><title>Node12</title>
<g id="a_node12"><a xlink:href="../../d9/d64/cccc__xml_8h.html" target="_top" xlink:title="cccc_xml.h">
<polygon fill="white" stroke="black" points="781.5,-56.5 781.5,-75.5 849.5,-75.5 849.5,-56.5 781.5,-56.5"/>
<text text-anchor="middle" x="815.5" y="-63.5" font-family="Helvetica,sans-Serif" font-size="10.00">cccc_xml.h</text>
</a>
</g>
</g>
<!-- Node6&#45;&gt;Node12 -->
<g id="edge30" class="edge"><title>Node6&#45;&gt;Node12</title>
<path fill="none" stroke="midnightblue" d="M723.969,-217.51C739.52,-202.767 764.811,-180.962 790.5,-168 845.173,-140.413 886.282,-180.631 923.5,-132 946.443,-102.022 889.43,-82.9311 849.797,-73.6666"/>
<polygon fill="midnightblue" stroke="midnightblue" points="721.513,-215.016 716.774,-224.492 726.388,-220.04 721.513,-215.016"/>
</g>
<!-- Node6&#45;&gt;Node14 -->
<g id="edge31" class="edge"><title>Node6&#45;&gt;Node14</title>
<path fill="none" stroke="midnightblue" d="M666.698,-230.765C632.939,-226.816 586.301,-216.2 556.5,-188 518.107,-151.67 525.521,-128.082 516.5,-76 514.983,-67.2415 511.594,-63.4124 516.5,-56 531.838,-32.8264 561.77,-21.5512 585.926,-16.0854"/>
<polygon fill="midnightblue" stroke="midnightblue" points="666.426,-234.255 676.729,-231.789 667.136,-227.292 666.426,-234.255"/>
</g>
<!-- Node15 -->
<g id="node15" class="node"><title>Node15</title>
<g id="a_node15"><a xlink:href="../../d4/df8/cccc__met_8h.html" target="_top" xlink:title="cccc_met.h">
<polygon fill="white" stroke="black" points="674,-168.5 674,-187.5 743,-187.5 743,-168.5 674,-168.5"/>
<text text-anchor="middle" x="708.5" y="-175.5" font-family="Helvetica,sans-Serif" font-size="10.00">cccc_met.h</text>
</a>
</g>
</g>
<!-- Node6&#45;&gt;Node15 -->
<g id="edge16" class="edge"><title>Node6&#45;&gt;Node15</title>
<path fill="none" stroke="midnightblue" d="M708.5,-213.805C708.5,-204.91 708.5,-194.78 708.5,-187.751"/>
<polygon fill="midnightblue" stroke="midnightblue" points="705,-214.083 708.5,-224.083 712,-214.083 705,-214.083"/>
</g>
<!-- Node18 -->
<g id="node18" class="node"><title>Node18</title>
<g id="a_node18"><a xlink:href="../../d0/d4a/cccc__mem_8cc.html" target="_top" xlink:title="cccc_mem.cc">
<polygon fill="white" stroke="black" points="895,-168.5 895,-187.5 974,-187.5 974,-168.5 895,-168.5"/>
<text text-anchor="middle" x="934.5" y="-175.5" font-family="Helvetica,sans-Serif" font-size="10.00">cccc_mem.cc</text>
</a>
</g>
</g>
<!-- Node6&#45;&gt;Node18 -->
<g id="edge23" class="edge"><title>Node6&#45;&gt;Node18</title>
<path fill="none" stroke="midnightblue" d="M750.184,-223.04C792.799,-212.858 858.298,-197.207 898.659,-187.564"/>
<polygon fill="midnightblue" stroke="midnightblue" points="749.314,-219.649 740.401,-225.378 750.941,-226.458 749.314,-219.649"/>
</g>
<!-- Node19 -->
<g id="node19" class="node"><title>Node19</title>
<g id="a_node19"><a xlink:href="../../de/d79/cccc__mod_8cc.html" target="_top" xlink:title="cccc_mod.cc">
<polygon fill="white" stroke="black" points="800,-168.5 800,-187.5 877,-187.5 877,-168.5 800,-168.5"/>
<text text-anchor="middle" x="838.5" y="-175.5" font-family="Helvetica,sans-Serif" font-size="10.00">cccc_mod.cc</text>
</a>
</g>
</g>
<!-- Node6&#45;&gt;Node19 -->
<g id="edge24" class="edge"><title>Node6&#45;&gt;Node19</title>
<path fill="none" stroke="midnightblue" d="M738.585,-220.503C762.957,-210.38 796.64,-196.388 817.997,-187.516"/>
<polygon fill="midnightblue" stroke="midnightblue" points="736.991,-217.375 729.099,-224.444 739.677,-223.84 736.991,-217.375"/>
</g>
<!-- Node20 -->
<g id="node20" class="node"><title>Node20</title>
<g id="a_node20"><a xlink:href="../../d7/d4b/cccc__prj_8cc.html" target="_top" xlink:title="cccc_prj.cc">
<polygon fill="white" stroke="black" points="387.5,-168.5 387.5,-187.5 455.5,-187.5 455.5,-168.5 387.5,-168.5"/>
<text text-anchor="middle" x="421.5" y="-175.5" font-family="Helvetica,sans-Serif" font-size="10.00">cccc_prj.cc</text>
</a>
</g>
</g>
<!-- Node6&#45;&gt;Node20 -->
<g id="edge25" class="edge"><title>Node6&#45;&gt;Node20</title>
<path fill="none" stroke="midnightblue" d="M666.859,-225.165C609.858,-214.44 508.601,-195.388 455.753,-185.445"/>
<polygon fill="midnightblue" stroke="midnightblue" points="666.49,-228.657 676.965,-227.067 667.785,-221.778 666.49,-228.657"/>
</g>
<!-- Node21 -->
<g id="node21" class="node"><title>Node21</title>
<g id="a_node21"><a xlink:href="../../df/d79/cccc__rec_8cc.html" target="_top" xlink:title="cccc_rec.cc">
<polygon fill="white" stroke="black" points="992,-168.5 992,-187.5 1063,-187.5 1063,-168.5 992,-168.5"/>
<text text-anchor="middle" x="1027.5" y="-175.5" font-family="Helvetica,sans-Serif" font-size="10.00">cccc_rec.cc</text>
</a>
</g>
</g>
<!-- Node6&#45;&gt;Node21 -->
<g id="edge26" class="edge"><title>Node6&#45;&gt;Node21</title>
<path fill="none" stroke="midnightblue" d="M750.385,-226.583C804.201,-218.231 900.466,-202.935 982.5,-188 985.479,-187.458 988.564,-186.878 991.66,-186.284"/>
<polygon fill="midnightblue" stroke="midnightblue" points="749.552,-223.17 740.205,-228.158 750.622,-230.087 749.552,-223.17"/>
</g>
<!-- Node22 -->
<g id="node22" class="node"><title>Node22</title>
<g id="a_node22"><a xlink:href="../../de/d05/cccc__use_8cc.html" target="_top" xlink:title="cccc_use.cc">
<polygon fill="white" stroke="black" points="296,-168.5 296,-187.5 369,-187.5 369,-168.5 296,-168.5"/>
<text text-anchor="middle" x="332.5" y="-175.5" font-family="Helvetica,sans-Serif" font-size="10.00">cccc_use.cc</text>
</a>
</g>
</g>
<!-- Node6&#45;&gt;Node22 -->
<g id="edge28" class="edge"><title>Node6&#45;&gt;Node22</title>
<path fill="none" stroke="midnightblue" d="M666.245,-228.03C603.36,-220.454 481.493,-205.083 378.5,-188 375.449,-187.494 372.291,-186.94 369.124,-186.363"/>
<polygon fill="midnightblue" stroke="midnightblue" points="666.206,-231.55 676.552,-229.265 667.039,-224.6 666.206,-231.55"/>
</g>
<!-- Node6&#45;&gt;Node23 -->
<g id="edge29" class="edge"><title>Node6&#45;&gt;Node23</title>
<path fill="none" stroke="midnightblue" d="M750.449,-228.943C818.21,-222.132 955.847,-207.238 1071.5,-188 1074.51,-187.499 1077.63,-186.936 1080.75,-186.34"/>
<polygon fill="midnightblue" stroke="midnightblue" points="749.792,-225.491 740.188,-229.966 750.486,-232.456 749.792,-225.491"/>
</g>
<!-- Node9&#45;&gt;Node10 -->
<g id="edge10" class="edge"><title>Node9&#45;&gt;Node10</title>
<path fill="none" stroke="midnightblue" d="M667.195,-115.308C751.208,-104.608 931.226,-81.6811 1009.21,-71.7494"/>
<polygon fill="midnightblue" stroke="midnightblue" points="666.675,-111.846 657.198,-116.581 667.56,-118.789 666.675,-111.846"/>
</g>
<!-- Node9&#45;&gt;Node11 -->
<g id="edge11" class="edge"><title>Node9&#45;&gt;Node11</title>
<path fill="none" stroke="midnightblue" d="M604.46,-105.537C593.227,-95.9087 579.181,-83.8694 569.806,-75.8339"/>
<polygon fill="midnightblue" stroke="midnightblue" points="602.508,-108.473 612.378,-112.324 607.063,-103.159 602.508,-108.473"/>
</g>
<!-- Node9&#45;&gt;Node12 -->
<g id="edge12" class="edge"><title>Node9&#45;&gt;Node12</title>
<path fill="none" stroke="midnightblue" d="M662.892,-109.699C699.317,-99.507 752.086,-84.7429 785.062,-75.5164"/>
<polygon fill="midnightblue" stroke="midnightblue" points="661.769,-106.378 653.081,-112.444 663.655,-113.12 661.769,-106.378"/>
</g>
<!-- Node9&#45;&gt;Node14 -->
<g id="edge15" class="edge"><title>Node9&#45;&gt;Node14</title>
<path fill="none" stroke="midnightblue" d="M622.5,-102.348C622.5,-78.2538 622.5,-37.3079 622.5,-19.5914"/>
<polygon fill="midnightblue" stroke="midnightblue" points="619,-102.368 622.5,-112.368 626,-102.369 619,-102.368"/>
</g>
<!-- Node12&#45;&gt;Node13 -->
<g id="edge13" class="edge"><title>Node12&#45;&gt;Node13</title>
<path fill="none" stroke="midnightblue" d="M859.313,-54.1471C900.444,-43.9588 961.148,-28.922 998.957,-19.5565"/>
<polygon fill="midnightblue" stroke="midnightblue" points="858.428,-50.7607 849.562,-56.5625 860.111,-57.5554 858.428,-50.7607"/>
</g>
<!-- Node12&#45;&gt;Node14 -->
<g id="edge14" class="edge"><title>Node12&#45;&gt;Node14</title>
<path fill="none" stroke="midnightblue" d="M775.108,-53.6986C738.683,-43.507 685.914,-28.7429 652.938,-19.5164"/>
<polygon fill="midnightblue" stroke="midnightblue" points="774.345,-57.1196 784.919,-56.4435 776.231,-50.3785 774.345,-57.1196"/>
</g>
<!-- Node15&#45;&gt;Node9 -->
<g id="edge17" class="edge"><title>Node15&#45;&gt;Node9</title>
<path fill="none" stroke="midnightblue" d="M686.045,-162.901C670.276,-152.999 649.686,-140.071 636.283,-131.655"/>
<polygon fill="midnightblue" stroke="midnightblue" points="684.352,-165.97 694.683,-168.324 688.075,-160.042 684.352,-165.97"/>
</g>
<!-- Node15&#45;&gt;Node11 -->
<g id="edge20" class="edge"><title>Node15&#45;&gt;Node11</title>
<path fill="none" stroke="midnightblue" d="M664.021,-166.272C631.316,-157.55 590.553,-144.657 578.5,-132 563.582,-116.334 560.293,-89.6089 559.623,-75.8151"/>
<polygon fill="midnightblue" stroke="midnightblue" points="663.312,-169.705 673.872,-168.841 665.078,-162.931 663.312,-169.705"/>
</g>
<!-- Node15&#45;&gt;Node12 -->
<g id="edge21" class="edge"><title>Node15&#45;&gt;Node12</title>
<path fill="none" stroke="midnightblue" d="M748.319,-164.676C765.318,-157.586 784.064,-147.03 796.5,-132 810.291,-115.333 814.073,-89.0457 815.109,-75.5775"/>
<polygon fill="midnightblue" stroke="midnightblue" points="746.63,-161.578 738.574,-168.459 749.163,-168.103 746.63,-161.578"/>
</g>
<!-- Node15&#45;&gt;Node14 -->
<g id="edge22" class="edge"><title>Node15&#45;&gt;Node14</title>
<path fill="none" stroke="midnightblue" d="M699.1,-158.856C680.655,-123.252 640.349,-45.4534 626.939,-19.5681"/>
<polygon fill="midnightblue" stroke="midnightblue" points="696.168,-160.806 703.876,-168.075 702.384,-157.586 696.168,-160.806"/>
</g>
<!-- Node16 -->
<g id="node16" class="node"><title>Node16</title>
<g id="a_node16"><a xlink:href="../../df/df6/cccc__met_8cc.html" target="_top" xlink:title="cccc_met.cc">
<polygon fill="white" stroke="black" points="713.5,-112.5 713.5,-131.5 787.5,-131.5 787.5,-112.5 713.5,-112.5"/>
<text text-anchor="middle" x="750.5" y="-119.5" font-family="Helvetica,sans-Serif" font-size="10.00">cccc_met.cc</text>
</a>
</g>
</g>
<!-- Node15&#45;&gt;Node16 -->
<g id="edge18" class="edge"><title>Node15&#45;&gt;Node16</title>
<path fill="none" stroke="midnightblue" d="M721.61,-160.144C728.928,-150.736 737.741,-139.405 743.694,-131.751"/>
<polygon fill="midnightblue" stroke="midnightblue" points="718.812,-158.041 715.435,-168.083 724.338,-162.338 718.812,-158.041"/>
</g>
<!-- Node15&#45;&gt;Node17 -->
<g id="edge19" class="edge"><title>Node15&#45;&gt;Node17</title>
<path fill="none" stroke="midnightblue" d="M745.536,-165.304C777.757,-155.129 823.689,-140.625 852.531,-131.516"/>
<polygon fill="midnightblue" stroke="midnightblue" points="744.077,-162.095 735.595,-168.444 746.185,-168.77 744.077,-162.095"/>
</g>
<!-- Node24&#45;&gt;Node6 -->
<g id="edge33" class="edge"><title>Node24&#45;&gt;Node6</title>
<path fill="none" stroke="midnightblue" d="M789.991,-328.145C779.923,-314.808 765.237,-295.854 751.5,-280 740.178,-266.933 726.212,-252.622 717.329,-243.726"/>
<polygon fill="midnightblue" stroke="midnightblue" points="787.358,-330.469 796.155,-336.374 792.961,-326.272 787.358,-330.469"/>
</g>
<!-- Node24&#45;&gt;Node21 -->
<g id="edge46" class="edge"><title>Node24&#45;&gt;Node21</title>
<path fill="none" stroke="midnightblue" d="M846.213,-343.435C883.397,-339.95 936.227,-329.637 971.5,-300 1008.01,-269.325 1022.02,-209.668 1026.1,-187.534"/>
<polygon fill="midnightblue" stroke="midnightblue" points="845.854,-339.953 836.168,-344.247 846.418,-346.93 845.854,-339.953"/>
</g>
<!-- Node25 -->
<g id="node25" class="node"><title>Node25</title>
<g id="a_node25"><a xlink:href="../../d1/da4/cccc__prj_8h.html" target="_top" xlink:title="cccc_prj.h">
<polygon fill="white" stroke="black" points="678.5,-280.5 678.5,-299.5 742.5,-299.5 742.5,-280.5 678.5,-280.5"/>
<text text-anchor="middle" x="710.5" y="-287.5" font-family="Helvetica,sans-Serif" font-size="10.00">cccc_prj.h</text>
</a>
</g>
</g>
<!-- Node24&#45;&gt;Node25 -->
<g id="edge34" class="edge"><title>Node24&#45;&gt;Node25</title>
<path fill="none" stroke="midnightblue" d="M778.95,-331.177C762.021,-321.241 739.717,-308.149 725.245,-299.655"/>
<polygon fill="midnightblue" stroke="midnightblue" points="777.323,-334.28 787.719,-336.324 780.866,-328.243 777.323,-334.28"/>
</g>
<!-- Node26 -->
<g id="node26" class="node"><title>Node26</title>
<g id="a_node26"><a xlink:href="../../df/d69/cccc__mod_8h.html" target="_top" xlink:title="cccc_mod.h">
<polygon fill="white" stroke="black" points="798.5,-280.5 798.5,-299.5 870.5,-299.5 870.5,-280.5 798.5,-280.5"/>
<text text-anchor="middle" x="834.5" y="-287.5" font-family="Helvetica,sans-Serif" font-size="10.00">cccc_mod.h</text>
</a>
</g>
</g>
<!-- Node24&#45;&gt;Node26 -->
<g id="edge37" class="edge"><title>Node24&#45;&gt;Node26</title>
<path fill="none" stroke="midnightblue" d="M813.004,-327.275C818.473,-318.045 824.918,-307.17 829.314,-299.751"/>
<polygon fill="midnightblue" stroke="midnightblue" points="809.871,-325.696 807.784,-336.083 815.893,-329.264 809.871,-325.696"/>
</g>
<!-- Node27 -->
<g id="node27" class="node"><title>Node27</title>
<g id="a_node27"><a xlink:href="../../dc/da1/cccc__mem_8h.html" target="_top" xlink:title="cccc_mem.h">
<polygon fill="white" stroke="black" points="888.5,-280.5 888.5,-299.5 962.5,-299.5 962.5,-280.5 888.5,-280.5"/>
<text text-anchor="middle" x="925.5" y="-287.5" font-family="Helvetica,sans-Serif" font-size="10.00">cccc_mem.h</text>
</a>
</g>
</g>
<!-- Node24&#45;&gt;Node27 -->
<g id="edge40" class="edge"><title>Node24&#45;&gt;Node27</title>
<path fill="none" stroke="midnightblue" d="M831.273,-332.368C854.307,-322.255 885.984,-308.349 906.101,-299.516"/>
<polygon fill="midnightblue" stroke="midnightblue" points="829.739,-329.219 821.99,-336.444 832.553,-335.628 829.739,-329.219"/>
</g>
<!-- Node28 -->
<g id="node28" class="node"><title>Node28</title>
<g id="a_node28"><a xlink:href="../../d4/d96/cccc__use_8h.html" target="_top" xlink:title="cccc_use.h">
<polygon fill="white" stroke="black" points="554.5,-280.5 554.5,-299.5 622.5,-299.5 622.5,-280.5 554.5,-280.5"/>
<text text-anchor="middle" x="588.5" y="-287.5" font-family="Helvetica,sans-Serif" font-size="10.00">cccc_use.h</text>
</a>
</g>
</g>
<!-- Node24&#45;&gt;Node28 -->
<g id="edge43" class="edge"><title>Node24&#45;&gt;Node28</title>
<path fill="none" stroke="midnightblue" d="M758.745,-333.959C718.326,-323.76 659.127,-308.822 622.25,-299.516"/>
<polygon fill="midnightblue" stroke="midnightblue" points="758.039,-337.39 768.591,-336.444 759.751,-330.603 758.039,-337.39"/>
</g>
<!-- Node25&#45;&gt;Node6 -->
<g id="edge35" class="edge"><title>Node25&#45;&gt;Node6</title>
<path fill="none" stroke="midnightblue" d="M709.789,-269.805C709.46,-260.91 709.084,-250.78 708.824,-243.751"/>
<polygon fill="midnightblue" stroke="midnightblue" points="706.302,-270.219 710.17,-280.083 713.297,-269.96 706.302,-270.219"/>
</g>
<!-- Node25&#45;&gt;Node20 -->
<g id="edge36" class="edge"><title>Node25&#45;&gt;Node20</title>
<path fill="none" stroke="midnightblue" d="M678.252,-276.726C619.189,-254.245 495.041,-206.991 444.072,-187.591"/>
<polygon fill="midnightblue" stroke="midnightblue" points="677.232,-280.082 687.823,-280.368 679.722,-273.54 677.232,-280.082"/>
</g>
<!-- Node26&#45;&gt;Node6 -->
<g id="edge38" class="edge"><title>Node26&#45;&gt;Node6</title>
<path fill="none" stroke="midnightblue" d="M805.34,-276.503C781.719,-266.38 749.072,-252.388 728.372,-243.516"/>
<polygon fill="midnightblue" stroke="midnightblue" points="803.965,-279.721 814.535,-280.444 806.722,-273.287 803.965,-279.721"/>
</g>
<!-- Node26&#45;&gt;Node19 -->
<g id="edge39" class="edge"><title>Node26&#45;&gt;Node19</title>
<path fill="none" stroke="midnightblue" d="M835.178,-270.348C836.054,-246.254 837.543,-205.308 838.188,-187.591"/>
<polygon fill="midnightblue" stroke="midnightblue" points="831.68,-270.248 834.814,-280.368 838.675,-270.502 831.68,-270.248"/>
</g>
<!-- Node27&#45;&gt;Node6 -->
<g id="edge41" class="edge"><title>Node27&#45;&gt;Node6</title>
<path fill="none" stroke="midnightblue" d="M881.183,-277.972C839.281,-267.545 777.441,-252.156 740.252,-242.902"/>
<polygon fill="midnightblue" stroke="midnightblue" points="880.566,-281.425 891.116,-280.444 882.257,-274.632 880.566,-281.425"/>
</g>
<!-- Node27&#45;&gt;Node18 -->
<g id="edge42" class="edge"><title>Node27&#45;&gt;Node18</title>
<path fill="none" stroke="midnightblue" d="M927.026,-270.348C928.997,-246.254 932.348,-205.308 933.797,-187.591"/>
<polygon fill="midnightblue" stroke="midnightblue" points="923.533,-270.116 926.206,-280.368 930.51,-270.687 923.533,-270.116"/>
</g>
<!-- Node28&#45;&gt;Node6 -->
<g id="edge44" class="edge"><title>Node28&#45;&gt;Node6</title>
<path fill="none" stroke="midnightblue" d="M616.873,-276.232C639.32,-266.131 670.035,-252.309 689.575,-243.516"/>
<polygon fill="midnightblue" stroke="midnightblue" points="615.197,-273.148 607.514,-280.444 618.07,-279.532 615.197,-273.148"/>
</g>
<!-- Node28&#45;&gt;Node22 -->
<g id="edge45" class="edge"><title>Node28&#45;&gt;Node22</title>
<path fill="none" stroke="midnightblue" d="M558.955,-276.305C506.255,-253.66 397.364,-206.871 352.495,-187.591"/>
<polygon fill="midnightblue" stroke="midnightblue" points="557.843,-279.636 568.412,-280.368 560.606,-273.205 557.843,-279.636"/>
</g>
<!-- Node31&#45;&gt;Node30 -->
<g id="edge58" class="edge"><title>Node31&#45;&gt;Node30</title>
<path fill="none" stroke="midnightblue" d="M1422.61,-385.537C1412.09,-375.909 1398.93,-363.869 1390.15,-355.834"/>
<polygon fill="midnightblue" stroke="midnightblue" points="1420.28,-388.154 1430.02,-392.324 1425.01,-382.99 1420.28,-388.154"/>
</g>
<!-- Node32 -->
<g id="node32" class="node"><title>Node32</title>
<g id="a_node32"><a xlink:href="../../de/d62/JParser_8cpp.html" target="_top" xlink:title="JParser.cpp">
<polygon fill="white" stroke="black" points="1427,-336.5 1427,-355.5 1500,-355.5 1500,-336.5 1427,-336.5"/>
<text text-anchor="middle" x="1463.5" y="-343.5" font-family="Helvetica,sans-Serif" font-size="10.00">JParser.cpp</text>
</a>
</g>
</g>
<!-- Node31&#45;&gt;Node32 -->
<g id="edge59" class="edge"><title>Node31&#45;&gt;Node32</title>
<path fill="none" stroke="midnightblue" d="M1447.64,-382.69C1451.68,-373.589 1456.38,-363.014 1459.61,-355.751"/>
<polygon fill="midnightblue" stroke="midnightblue" points="1444.33,-381.523 1443.46,-392.083 1450.72,-384.366 1444.33,-381.523"/>
</g>
</g>
</svg>
        <g id="navigator" transform="translate(0 0)" fill="#404254">
                <rect fill="#f2f5e9" fill-opacity="0.5" stroke="#606060" stroke-width=".5" x="0" y="0" width="60" height="60"/>
                <use id="zoomplus" xlink:href="#zoomPlus" x="17" y="9" onmousedown="handleZoom(evt,'in')"/>
                <use id="zoomminus" xlink:href="#zoomMin" x="42" y="9" onmousedown="handleZoom(evt,'out')"/>
                <use id="reset" xlink:href="#resetDef" x="30" y="36" onmousedown="handleReset()"/>
                <g id="arrowUp" xlink:href="#dirArrow" transform="translate(30 24)" onmousedown="handlePan(0,-1)">
                  <use xlink:href="#rim" fill="#404040">
                        <set attributeName="fill" to="#808080" begin="arrowUp.mouseover" end="arrowUp.mouseout"/>
                  </use>
                  <path fill="none" stroke="white" stroke-width="1.5" d="M0,-3.0v7 M-2.5,-0.5L0,-3.0L2.5,-0.5"/>
                </g>
                <g id="arrowRight" xlink:href="#dirArrow" transform="rotate(90) translate(36 -43)" onmousedown="handlePan(1,0)">
                  <use xlink:href="#rim" fill="#404040">
                        <set attributeName="fill" to="#808080" begin="arrowRight.mouseover" end="arrowRight.mouseout"/>
                  </use>
                  <path fill="none" stroke="white" stroke-width="1.5" d="M0,-3.0v7 M-2.5,-0.5L0,-3.0L2.5,-0.5"/>
                </g>
                <g id="arrowDown" xlink:href="#dirArrow" transform="rotate(180) translate(-30 -48)" onmousedown="handlePan(0,1)">
                  <use xlink:href="#rim" fill="#404040">
                        <set attributeName="fill" to="#808080" begin="arrowDown.mouseover" end="arrowDown.mouseout"/>
                  </use>
                  <path fill="none" stroke="white" stroke-width="1.5" d="M0,-3.0v7 M-2.5,-0.5L0,-3.0L2.5,-0.5"/>
                </g>
                <g id="arrowLeft" xlink:href="#dirArrow" transform="rotate(270) translate(-36 17)" onmousedown="handlePan(-1,0)">
                  <use xlink:href="#rim" fill="#404040">
                        <set attributeName="fill" to="#808080" begin="arrowLeft.mouseover" end="arrowLeft.mouseout"/>
                  </use>
                  <path fill="none" stroke="white" stroke-width="1.5" d="M0,-3.0v7 M-2.5,-0.5L0,-3.0L2.5,-0.5"/>
                </g>
        </g>
        <svg viewBox="0 0 15 15" width="100%" height="30px" preserveAspectRatio="xMaxYMin meet">
         <g id="arrow_out" transform="scale(0.3 0.3)">
          <a xlink:href="cccc__utl_8h__dep__incl_org.svg" target="_base">
           <rect id="button" ry="5" rx="5" y="6" x="6" height="38" width="38"
                fill="#f2f5e9" fill-opacity="0.5" stroke="#606060" stroke-width="1.0"/>
           <path id="arrow"
             d="M 11.500037,31.436501 C 11.940474,20.09759 22.043105,11.32322 32.158766,21.979434 L 37.068811,17.246167 C 37.068811,17.246167 37.088388,32 37.088388,32 L 22.160133,31.978069 C 22.160133,31.978069 26.997745,27.140456 26.997745,27.140456 C 18.528582,18.264221 13.291696,25.230495 11.500037,31.436501 z"
             style="fill:#404040;"/>
          </a>
         </g>
        </svg>
</svg>
