<?xml version="1.0" encoding="UTF-8" standalone="no"?>
<!DOCTYPE svg PUBLIC "-//W3C//DTD SVG 1.1//EN"
 "http://www.w3.org/Graphics/SVG/1.1/DTD/svg11.dtd">
<!-- Generated by graphviz version 2.38.0 (20140413.2041)
 -->
<!-- Title: cccc_utl.h Pages: 1 -->
<svg width="1082pt" height="476pt"
 viewBox="0.00 0.00 1082.00 476.00" xmlns="http://www.w3.org/2000/svg" xmlns:xlink="http://www.w3.org/1999/xlink">
<g id="graph0" class="graph" transform="scale(1 1) rotate(0) translate(4 472)">
<title>cccc_utl.h</title>
<polygon fill="white" stroke="none" points="-4,4 -4,-472 1078,-472 1078,4 -4,4"/>
<!-- Node1 -->
<g id="node1" class="node"><title>Node1</title>
<polygon fill="#bfbfbf" stroke="black" points="813,-448.5 813,-467.5 875,-467.5 875,-448.5 813,-448.5"/>
<text text-anchor="middle" x="844" y="-455.5" font-family="Helvetica,sans-Serif" font-size="10.00">cccc_utl.h</text>
</g>
<!-- Node2 -->
<g id="node2" class="node"><title>Node2</title>
<g id="a_node2"><a xlink:href="../../d3/d11/cccc__ext_8h.html" target="_top" xlink:title="cccc_ext.h">
<polygon fill="white" stroke="black" points="483,-392.5 483,-411.5 549,-411.5 549,-392.5 483,-392.5"/>
<text text-anchor="middle" x="516" y="-399.5" font-family="Helvetica,sans-Serif" font-size="10.00">cccc_ext.h</text>
</a>
</g>
</g>
<!-- Node1&#45;&gt;Node2 -->
<g id="edge1" class="edge"><title>Node1&#45;&gt;Node2</title>
<path fill="none" stroke="midnightblue" d="M802.85,-450.225C737.145,-439.408 609.801,-418.443 549.375,-408.495"/>
<polygon fill="midnightblue" stroke="midnightblue" points="802.411,-453.7 812.847,-451.871 803.548,-446.793 802.411,-453.7"/>
</g>
<!-- Node5 -->
<g id="node5" class="node"><title>Node5</title>
<g id="a_node5"><a xlink:href="../../d6/dd5/cccc__ext_8cc.html" target="_top" xlink:title="cccc_ext.cc">
<polygon fill="white" stroke="black" points="28.5,-168.5 28.5,-187.5 99.5,-187.5 99.5,-168.5 28.5,-168.5"/>
<text text-anchor="middle" x="64" y="-175.5" font-family="Helvetica,sans-Serif" font-size="10.00">cccc_ext.cc</text>
</a>
</g>
</g>
<!-- Node1&#45;&gt;Node5 -->
<g id="edge45" class="edge"><title>Node1&#45;&gt;Node5</title>
<path fill="none" stroke="midnightblue" d="M802.589,-455.095C649.173,-447.496 122,-416.34 122,-347 122,-347 122,-347 122,-289 122,-246.901 88.3475,-205.113 72.31,-187.589"/>
<polygon fill="midnightblue" stroke="midnightblue" points="802.818,-458.61 812.977,-455.602 803.159,-451.619 802.818,-458.61"/>
</g>
<!-- Node7 -->
<g id="node7" class="node"><title>Node7</title>
<g id="a_node7"><a xlink:href="../../d5/dcb/cccc__htm_8cc.html" target="_top" xlink:title="cccc_htm.cc">
<polygon fill="white" stroke="black" points="831,-56.5 831,-75.5 905,-75.5 905,-56.5 831,-56.5"/>
<text text-anchor="middle" x="868" y="-63.5" font-family="Helvetica,sans-Serif" font-size="10.00">cccc_htm.cc</text>
</a>
</g>
</g>
<!-- Node1&#45;&gt;Node7 -->
<g id="edge46" class="edge"><title>Node1&#45;&gt;Node7</title>
<path fill="none" stroke="midnightblue" d="M885.342,-451.85C941.775,-442.246 1036,-415.895 1036,-347 1036,-347 1036,-347 1036,-177 1036,-114.945 954.779,-86.0045 905.285,-74.1299"/>
<polygon fill="midnightblue" stroke="midnightblue" points="884.6,-448.424 875.275,-453.454 885.702,-455.336 884.6,-448.424"/>
</g>
<!-- Node10 -->
<g id="node10" class="node"><title>Node10</title>
<g id="a_node10"><a xlink:href="../../db/d75/cccc__xml_8cc.html" target="_top" xlink:title="cccc_xml.cc">
<polygon fill="white" stroke="black" points="819,-0.5 819,-19.5 891,-19.5 891,-0.5 819,-0.5"/>
<text text-anchor="middle" x="855" y="-7.5" font-family="Helvetica,sans-Serif" font-size="10.00">cccc_xml.cc</text>
</a>
</g>
</g>
<!-- Node1&#45;&gt;Node10 -->
<g id="edge49" class="edge"><title>Node1&#45;&gt;Node10</title>
<path fill="none" stroke="midnightblue" d="M885.124,-455.373C951.281,-450.312 1074,-429.769 1074,-347 1074,-347 1074,-347 1074,-121 1074,-40.1598 953.366,-18.7241 891.163,-13.0446"/>
<polygon fill="midnightblue" stroke="midnightblue" points="884.759,-451.89 875.019,-456.06 885.233,-458.874 884.759,-451.89"/>
</g>
<!-- Node11 -->
<g id="node11" class="node"><title>Node11</title>
<g id="a_node11"><a xlink:href="../../d6/d93/ccccmain_8cc.html" target="_top" xlink:title="ccccmain.cc">
<polygon fill="white" stroke="black" points="407.5,-0.5 407.5,-19.5 480.5,-19.5 480.5,-0.5 407.5,-0.5"/>
<text text-anchor="middle" x="444" y="-7.5" font-family="Helvetica,sans-Serif" font-size="10.00">ccccmain.cc</text>
</a>
</g>
</g>
<!-- Node1&#45;&gt;Node11 -->
<g id="edge50" class="edge"><title>Node1&#45;&gt;Node11</title>
<path fill="none" stroke="midnightblue" d="M802.961,-456.025C633.871,-451.476 0,-428.957 0,-347 0,-347 0,-347 0,-121 0,-37.3178 300.911,-16.867 407.288,-12.2518"/>
<polygon fill="midnightblue" stroke="midnightblue" points="802.872,-459.524 812.961,-456.288 803.056,-452.527 802.872,-459.524"/>
</g>
<!-- Node14 -->
<g id="node14" class="node"><title>Node14</title>
<g id="a_node14"><a xlink:href="../../d5/d39/cccc__opt_8cc.html" target="_top" xlink:title="cccc_opt.cc">
<polygon fill="white" stroke="black" points="665.5,-112.5 665.5,-131.5 736.5,-131.5 736.5,-112.5 665.5,-112.5"/>
<text text-anchor="middle" x="701" y="-119.5" font-family="Helvetica,sans-Serif" font-size="10.00">cccc_opt.cc</text>
</a>
</g>
</g>
<!-- Node1&#45;&gt;Node14 -->
<g id="edge47" class="edge"><title>Node1&#45;&gt;Node14</title>
<path fill="none" stroke="midnightblue" d="M884.818,-446.9C930.441,-432.879 998,-402.71 998,-347 998,-347 998,-347 998,-233 998,-202.775 1000.79,-187.855 978,-168 942.551,-137.116 803.112,-127.223 736.63,-124.223"/>
<polygon fill="midnightblue" stroke="midnightblue" points="883.776,-443.558 875.164,-449.73 885.745,-450.275 883.776,-443.558"/>
</g>
<!-- Node20 -->
<g id="node20" class="node"><title>Node20</title>
<g id="a_node20"><a xlink:href="../../dc/d0b/cccc__utl_8cc.html" target="_top" xlink:title="cccc_utl.cc">
<polygon fill="white" stroke="black" points="902.5,-168.5 902.5,-187.5 969.5,-187.5 969.5,-168.5 902.5,-168.5"/>
<text text-anchor="middle" x="936" y="-175.5" font-family="Helvetica,sans-Serif" font-size="10.00">cccc_utl.cc</text>
</a>
</g>
</g>
<!-- Node1&#45;&gt;Node20 -->
<g id="edge48" class="edge"><title>Node1&#45;&gt;Node20</title>
<path fill="none" stroke="midnightblue" d="M856.619,-440.08C870.841,-419.293 892,-382.415 892,-347 892,-347 892,-347 892,-289 892,-248.686 917.792,-205.623 929.882,-187.651"/>
<polygon fill="midnightblue" stroke="midnightblue" points="853.62,-438.258 850.674,-448.435 859.324,-442.316 853.62,-438.258"/>
</g>
<!-- Node21 -->
<g id="node21" class="node"><title>Node21</title>
<g id="a_node21"><a xlink:href="../../df/de9/cccc__rec_8h.html" target="_top" xlink:title="cccc_rec.h">
<polygon fill="white" stroke="black" points="589.5,-336.5 589.5,-355.5 656.5,-355.5 656.5,-336.5 589.5,-336.5"/>
<text text-anchor="middle" x="623" y="-343.5" font-family="Helvetica,sans-Serif" font-size="10.00">cccc_rec.h</text>
</a>
</g>
</g>
<!-- Node1&#45;&gt;Node21 -->
<g id="edge44" class="edge"><title>Node1&#45;&gt;Node21</title>
<path fill="none" stroke="midnightblue" d="M817.638,-443.878C771.829,-421.078 678.754,-374.751 640.261,-355.591"/>
<polygon fill="midnightblue" stroke="midnightblue" points="816.147,-447.046 826.659,-448.368 819.266,-440.779 816.147,-447.046"/>
</g>
<!-- Node3 -->
<g id="node3" class="node"><title>Node3</title>
<g id="a_node3"><a xlink:href="../../d7/d44/cccc__db_8h.html" target="_top" xlink:title="cccc_db.h">
<polygon fill="white" stroke="black" points="498.5,-224.5 498.5,-243.5 561.5,-243.5 561.5,-224.5 498.5,-224.5"/>
<text text-anchor="middle" x="530" y="-231.5" font-family="Helvetica,sans-Serif" font-size="10.00">cccc_db.h</text>
</a>
</g>
</g>
<!-- Node2&#45;&gt;Node3 -->
<g id="edge2" class="edge"><title>Node2&#45;&gt;Node3</title>
<path fill="none" stroke="midnightblue" d="M506.007,-383.241C493.865,-359.221 476.57,-315.322 490,-280 495.721,-264.954 509.034,-251.725 518.734,-243.573"/>
<polygon fill="midnightblue" stroke="midnightblue" points="503.004,-385.049 510.79,-392.235 509.184,-381.762 503.004,-385.049"/>
</g>
<!-- Node2&#45;&gt;Node5 -->
<g id="edge43" class="edge"><title>Node2&#45;&gt;Node5</title>
<path fill="none" stroke="midnightblue" d="M489.494,-387.981C406.195,-347.069 151.112,-221.785 81.6338,-187.661"/>
<polygon fill="midnightblue" stroke="midnightblue" points="488.039,-391.166 498.558,-392.433 491.125,-384.883 488.039,-391.166"/>
</g>
<!-- Node2&#45;&gt;Node21 -->
<g id="edge28" class="edge"><title>Node2&#45;&gt;Node21</title>
<path fill="none" stroke="midnightblue" d="M542.302,-387.726C562.115,-377.727 588.707,-364.307 605.851,-355.655"/>
<polygon fill="midnightblue" stroke="midnightblue" points="540.542,-384.694 533.191,-392.324 543.696,-390.943 540.542,-384.694"/>
</g>
<!-- Node4 -->
<g id="node4" class="node"><title>Node4</title>
<g id="a_node4"><a xlink:href="../../d8/d19/cccc__db_8cc.html" target="_top" xlink:title="cccc_db.cc">
<polygon fill="white" stroke="black" points="409,-168.5 409,-187.5 477,-187.5 477,-168.5 409,-168.5"/>
<text text-anchor="middle" x="443" y="-175.5" font-family="Helvetica,sans-Serif" font-size="10.00">cccc_db.cc</text>
</a>
</g>
</g>
<!-- Node3&#45;&gt;Node4 -->
<g id="edge3" class="edge"><title>Node3&#45;&gt;Node4</title>
<path fill="none" stroke="midnightblue" d="M507.284,-218.901C491.331,-208.999 470.503,-196.071 456.943,-187.655"/>
<polygon fill="midnightblue" stroke="midnightblue" points="505.68,-222.024 516.022,-224.324 509.371,-216.077 505.68,-222.024"/>
</g>
<!-- Node3&#45;&gt;Node5 -->
<g id="edge4" class="edge"><title>Node3&#45;&gt;Node5</title>
<path fill="none" stroke="midnightblue" d="M488.258,-229.879C412.305,-223.905 246.552,-209.507 108,-188 105.38,-187.593 102.68,-187.136 99.9678,-186.649"/>
<polygon fill="midnightblue" stroke="midnightblue" points="488.126,-233.379 498.368,-230.666 488.669,-226.401 488.126,-233.379"/>
</g>
<!-- Node6 -->
<g id="node6" class="node"><title>Node6</title>
<g id="a_node6"><a xlink:href="../../d9/db9/cccc__htm_8h.html" target="_top" xlink:title="cccc_htm.h">
<polygon fill="white" stroke="black" points="409.5,-112.5 409.5,-131.5 478.5,-131.5 478.5,-112.5 409.5,-112.5"/>
<text text-anchor="middle" x="444" y="-119.5" font-family="Helvetica,sans-Serif" font-size="10.00">cccc_htm.h</text>
</a>
</g>
</g>
<!-- Node3&#45;&gt;Node6 -->
<g id="edge5" class="edge"><title>Node3&#45;&gt;Node6</title>
<path fill="none" stroke="midnightblue" d="M488.031,-230.709C458.119,-226.621 419.827,-215.845 400,-188 385.772,-168.019 413.305,-144.001 430.907,-131.502"/>
<polygon fill="midnightblue" stroke="midnightblue" points="487.881,-234.215 498.218,-231.894 488.689,-227.262 487.881,-234.215"/>
</g>
<!-- Node8 -->
<g id="node8" class="node"><title>Node8</title>
<g id="a_node8"><a xlink:href="../../d1/d81/cccc__tpl_8cc.html" target="_top" xlink:title="cccc_tpl.cc">
<polygon fill="white" stroke="black" points="347,-56.5 347,-75.5 415,-75.5 415,-56.5 347,-56.5"/>
<text text-anchor="middle" x="381" y="-63.5" font-family="Helvetica,sans-Serif" font-size="10.00">cccc_tpl.cc</text>
</a>
</g>
</g>
<!-- Node3&#45;&gt;Node8 -->
<g id="edge23" class="edge"><title>Node3&#45;&gt;Node8</title>
<path fill="none" stroke="midnightblue" d="M488.282,-230.654C457.23,-226.575 416.336,-215.838 393,-188 365.199,-154.836 374.228,-97.1949 378.929,-75.5447"/>
<polygon fill="midnightblue" stroke="midnightblue" points="488.066,-234.152 498.396,-231.798 488.852,-227.196 488.066,-234.152"/>
</g>
<!-- Node9 -->
<g id="node9" class="node"><title>Node9</title>
<g id="a_node9"><a xlink:href="../../d9/d64/cccc__xml_8h.html" target="_top" xlink:title="cccc_xml.h">
<polygon fill="white" stroke="black" points="603,-56.5 603,-75.5 671,-75.5 671,-56.5 603,-56.5"/>
<text text-anchor="middle" x="637" y="-63.5" font-family="Helvetica,sans-Serif" font-size="10.00">cccc_xml.h</text>
</a>
</g>
</g>
<!-- Node3&#45;&gt;Node9 -->
<g id="edge26" class="edge"><title>Node3&#45;&gt;Node9</title>
<path fill="none" stroke="midnightblue" d="M545.469,-217.51C561.02,-202.767 586.311,-180.962 612,-168 666.673,-140.413 707.782,-180.631 745,-132 767.943,-102.022 710.93,-82.9311 671.297,-73.6666"/>
<polygon fill="midnightblue" stroke="midnightblue" points="543.013,-215.016 538.274,-224.492 547.888,-220.04 543.013,-215.016"/>
</g>
<!-- Node3&#45;&gt;Node11 -->
<g id="edge27" class="edge"><title>Node3&#45;&gt;Node11</title>
<path fill="none" stroke="midnightblue" d="M488.198,-230.765C454.439,-226.816 407.801,-216.2 378,-188 339.607,-151.67 347.021,-128.082 338,-76 336.483,-67.2415 333.094,-63.4124 338,-56 353.338,-32.8264 383.27,-21.5512 407.426,-16.0854"/>
<polygon fill="midnightblue" stroke="midnightblue" points="487.926,-234.255 498.229,-231.789 488.636,-227.292 487.926,-234.255"/>
</g>
<!-- Node12 -->
<g id="node12" class="node"><title>Node12</title>
<g id="a_node12"><a xlink:href="../../d4/df8/cccc__met_8h.html" target="_top" xlink:title="cccc_met.h">
<polygon fill="white" stroke="black" points="495.5,-168.5 495.5,-187.5 564.5,-187.5 564.5,-168.5 495.5,-168.5"/>
<text text-anchor="middle" x="530" y="-175.5" font-family="Helvetica,sans-Serif" font-size="10.00">cccc_met.h</text>
</a>
</g>
</g>
<!-- Node3&#45;&gt;Node12 -->
<g id="edge12" class="edge"><title>Node3&#45;&gt;Node12</title>
<path fill="none" stroke="midnightblue" d="M530,-213.805C530,-204.91 530,-194.78 530,-187.751"/>
<polygon fill="midnightblue" stroke="midnightblue" points="526.5,-214.083 530,-224.083 533.5,-214.083 526.5,-214.083"/>
</g>
<!-- Node15 -->
<g id="node15" class="node"><title>Node15</title>
<g id="a_node15"><a xlink:href="../../d0/d4a/cccc__mem_8cc.html" target="_top" xlink:title="cccc_mem.cc">
<polygon fill="white" stroke="black" points="716.5,-168.5 716.5,-187.5 795.5,-187.5 795.5,-168.5 716.5,-168.5"/>
<text text-anchor="middle" x="756" y="-175.5" font-family="Helvetica,sans-Serif" font-size="10.00">cccc_mem.cc</text>
</a>
</g>
</g>
<!-- Node3&#45;&gt;Node15 -->
<g id="edge19" class="edge"><title>Node3&#45;&gt;Node15</title>
<path fill="none" stroke="midnightblue" d="M571.684,-223.04C614.299,-212.858 679.798,-197.207 720.159,-187.564"/>
<polygon fill="midnightblue" stroke="midnightblue" points="570.814,-219.649 561.901,-225.378 572.441,-226.458 570.814,-219.649"/>
</g>
<!-- Node16 -->
<g id="node16" class="node"><title>Node16</title>
<g id="a_node16"><a xlink:href="../../de/d79/cccc__mod_8cc.html" target="_top" xlink:title="cccc_mod.cc">
<polygon fill="white" stroke="black" points="621.5,-168.5 621.5,-187.5 698.5,-187.5 698.5,-168.5 621.5,-168.5"/>
<text text-anchor="middle" x="660" y="-175.5" font-family="Helvetica,sans-Serif" font-size="10.00">cccc_mod.cc</text>
</a>
</g>
</g>
<!-- Node3&#45;&gt;Node16 -->
<g id="edge20" class="edge"><title>Node3&#45;&gt;Node16</title>
<path fill="none" stroke="midnightblue" d="M560.085,-220.503C584.457,-210.38 618.14,-196.388 639.497,-187.516"/>
<polygon fill="midnightblue" stroke="midnightblue" points="558.491,-217.375 550.599,-224.444 561.177,-223.84 558.491,-217.375"/>
</g>
<!-- Node17 -->
<g id="node17" class="node"><title>Node17</title>
<g id="a_node17"><a xlink:href="../../d7/d4b/cccc__prj_8cc.html" target="_top" xlink:title="cccc_prj.cc">
<polygon fill="white" stroke="black" points="209,-168.5 209,-187.5 277,-187.5 277,-168.5 209,-168.5"/>
<text text-anchor="middle" x="243" y="-175.5" font-family="Helvetica,sans-Serif" font-size="10.00">cccc_prj.cc</text>
</a>
</g>
</g>
<!-- Node3&#45;&gt;Node17 -->
<g id="edge21" class="edge"><title>Node3&#45;&gt;Node17</title>
<path fill="none" stroke="midnightblue" d="M488.359,-225.165C431.358,-214.44 330.101,-195.388 277.253,-185.445"/>
<polygon fill="midnightblue" stroke="midnightblue" points="487.99,-228.657 498.465,-227.067 489.285,-221.778 487.99,-228.657"/>
</g>
<!-- Node18 -->
<g id="node18" class="node"><title>Node18</title>
<g id="a_node18"><a xlink:href="../../df/d79/cccc__rec_8cc.html" target="_top" xlink:title="cccc_rec.cc">
<polygon fill="white" stroke="black" points="813.5,-168.5 813.5,-187.5 884.5,-187.5 884.5,-168.5 813.5,-168.5"/>
<text text-anchor="middle" x="849" y="-175.5" font-family="Helvetica,sans-Serif" font-size="10.00">cccc_rec.cc</text>
</a>
</g>
</g>
<!-- Node3&#45;&gt;Node18 -->
<g id="edge22" class="edge"><title>Node3&#45;&gt;Node18</title>
<path fill="none" stroke="midnightblue" d="M571.885,-226.583C625.701,-218.231 721.966,-202.935 804,-188 806.979,-187.458 810.064,-186.878 813.16,-186.284"/>
<polygon fill="midnightblue" stroke="midnightblue" points="571.052,-223.17 561.705,-228.158 572.122,-230.087 571.052,-223.17"/>
</g>
<!-- Node19 -->
<g id="node19" class="node"><title>Node19</title>
<g id="a_node19"><a xlink:href="../../de/d05/cccc__use_8cc.html" target="_top" xlink:title="cccc_use.cc">
<polygon fill="white" stroke="black" points="117.5,-168.5 117.5,-187.5 190.5,-187.5 190.5,-168.5 117.5,-168.5"/>
<text text-anchor="middle" x="154" y="-175.5" font-family="Helvetica,sans-Serif" font-size="10.00">cccc_use.cc</text>
</a>
</g>
</g>
<!-- Node3&#45;&gt;Node19 -->
<g id="edge24" class="edge"><title>Node3&#45;&gt;Node19</title>
<path fill="none" stroke="midnightblue" d="M487.745,-228.03C424.86,-220.454 302.993,-205.083 200,-188 196.949,-187.494 193.791,-186.94 190.624,-186.363"/>
<polygon fill="midnightblue" stroke="midnightblue" points="487.706,-231.55 498.052,-229.265 488.539,-224.6 487.706,-231.55"/>
</g>
<!-- Node3&#45;&gt;Node20 -->
<g id="edge25" class="edge"><title>Node3&#45;&gt;Node20</title>
<path fill="none" stroke="midnightblue" d="M571.949,-228.943C639.71,-222.132 777.347,-207.238 893,-188 896.009,-187.499 899.128,-186.936 902.249,-186.34"/>
<polygon fill="midnightblue" stroke="midnightblue" points="571.292,-225.491 561.688,-229.966 571.986,-232.456 571.292,-225.491"/>
</g>
<!-- Node6&#45;&gt;Node7 -->
<g id="edge6" class="edge"><title>Node6&#45;&gt;Node7</title>
<path fill="none" stroke="midnightblue" d="M488.695,-115.308C572.708,-104.608 752.726,-81.6811 830.708,-71.7494"/>
<polygon fill="midnightblue" stroke="midnightblue" points="488.175,-111.846 478.698,-116.581 489.06,-118.789 488.175,-111.846"/>
</g>
<!-- Node6&#45;&gt;Node8 -->
<g id="edge7" class="edge"><title>Node6&#45;&gt;Node8</title>
<path fill="none" stroke="midnightblue" d="M425.96,-105.537C414.727,-95.9087 400.681,-83.8694 391.306,-75.8339"/>
<polygon fill="midnightblue" stroke="midnightblue" points="424.008,-108.473 433.878,-112.324 428.563,-103.159 424.008,-108.473"/>
</g>
<!-- Node6&#45;&gt;Node9 -->
<g id="edge8" class="edge"><title>Node6&#45;&gt;Node9</title>
<path fill="none" stroke="midnightblue" d="M484.392,-109.699C520.817,-99.507 573.586,-84.7429 606.562,-75.5164"/>
<polygon fill="midnightblue" stroke="midnightblue" points="483.269,-106.378 474.581,-112.444 485.155,-113.12 483.269,-106.378"/>
</g>
<!-- Node6&#45;&gt;Node11 -->
<g id="edge11" class="edge"><title>Node6&#45;&gt;Node11</title>
<path fill="none" stroke="midnightblue" d="M444,-102.348C444,-78.2538 444,-37.3079 444,-19.5914"/>
<polygon fill="midnightblue" stroke="midnightblue" points="440.5,-102.368 444,-112.368 447.5,-102.369 440.5,-102.368"/>
</g>
<!-- Node9&#45;&gt;Node10 -->
<g id="edge9" class="edge"><title>Node9&#45;&gt;Node10</title>
<path fill="none" stroke="midnightblue" d="M680.813,-54.1471C721.944,-43.9588 782.648,-28.922 820.457,-19.5565"/>
<polygon fill="midnightblue" stroke="midnightblue" points="679.928,-50.7607 671.062,-56.5625 681.611,-57.5554 679.928,-50.7607"/>
</g>
<!-- Node9&#45;&gt;Node11 -->
<g id="edge10" class="edge"><title>Node9&#45;&gt;Node11</title>
<path fill="none" stroke="midnightblue" d="M596.608,-53.6986C560.183,-43.507 507.414,-28.7429 474.438,-19.5164"/>
<polygon fill="midnightblue" stroke="midnightblue" points="595.845,-57.1196 606.419,-56.4435 597.731,-50.3785 595.845,-57.1196"/>
</g>
<!-- Node12&#45;&gt;Node6 -->
<g id="edge13" class="edge"><title>Node12&#45;&gt;Node6</title>
<path fill="none" stroke="midnightblue" d="M507.545,-162.901C491.776,-152.999 471.186,-140.071 457.783,-131.655"/>
<polygon fill="midnightblue" stroke="midnightblue" points="505.852,-165.97 516.183,-168.324 509.575,-160.042 505.852,-165.97"/>
</g>
<!-- Node12&#45;&gt;Node8 -->
<g id="edge16" class="edge"><title>Node12&#45;&gt;Node8</title>
<path fill="none" stroke="midnightblue" d="M485.521,-166.272C452.816,-157.55 412.053,-144.657 400,-132 385.082,-116.334 381.793,-89.6089 381.123,-75.8151"/>
<polygon fill="midnightblue" stroke="midnightblue" points="484.812,-169.705 495.372,-168.841 486.578,-162.931 484.812,-169.705"/>
</g>
<!-- Node12&#45;&gt;Node9 -->
<g id="edge17" class="edge"><title>Node12&#45;&gt;Node9</title>
<path fill="none" stroke="midnightblue" d="M569.819,-164.676C586.818,-157.586 605.564,-147.03 618,-132 631.791,-115.333 635.573,-89.0457 636.609,-75.5775"/>
<polygon fill="midnightblue" stroke="midnightblue" points="568.13,-161.578 560.074,-168.459 570.663,-168.103 568.13,-161.578"/>
</g>
<!-- Node12&#45;&gt;Node11 -->
<g id="edge18" class="edge"><title>Node12&#45;&gt;Node11</title>
<path fill="none" stroke="midnightblue" d="M520.6,-158.856C502.155,-123.252 461.849,-45.4534 448.439,-19.5681"/>
<polygon fill="midnightblue" stroke="midnightblue" points="517.668,-160.806 525.376,-168.075 523.884,-157.586 517.668,-160.806"/>
</g>
<!-- Node13 -->
<g id="node13" class="node"><title>Node13</title>
<g id="a_node13"><a xlink:href="../../df/df6/cccc__met_8cc.html" target="_top" xlink:title="cccc_met.cc">
<polygon fill="white" stroke="black" points="535,-112.5 535,-131.5 609,-131.5 609,-112.5 535,-112.5"/>
<text text-anchor="middle" x="572" y="-119.5" font-family="Helvetica,sans-Serif" font-size="10.00">cccc_met.cc</text>
</a>
</g>
</g>
<!-- Node12&#45;&gt;Node13 -->
<g id="edge14" class="edge"><title>Node12&#45;&gt;Node13</title>
<path fill="none" stroke="midnightblue" d="M543.11,-160.144C550.428,-150.736 559.241,-139.405 565.194,-131.751"/>
<polygon fill="midnightblue" stroke="midnightblue" points="540.312,-158.041 536.935,-168.083 545.838,-162.338 540.312,-158.041"/>
</g>
<!-- Node12&#45;&gt;Node14 -->
<g id="edge15" class="edge"><title>Node12&#45;&gt;Node14</title>
<path fill="none" stroke="midnightblue" d="M567.036,-165.304C599.257,-155.129 645.189,-140.625 674.031,-131.516"/>
<polygon fill="midnightblue" stroke="midnightblue" points="565.577,-162.095 557.095,-168.444 567.685,-168.77 565.577,-162.095"/>
</g>
<!-- Node21&#45;&gt;Node3 -->
<g id="edge29" class="edge"><title>Node21&#45;&gt;Node3</title>
<path fill="none" stroke="midnightblue" d="M610.44,-328.19C600.343,-314.877 585.644,-295.934 572,-280 560.879,-267.012 547.253,-252.681 538.597,-243.759"/>
<polygon fill="midnightblue" stroke="midnightblue" points="607.812,-330.519 616.624,-336.401 613.403,-326.307 607.812,-330.519"/>
</g>
<!-- Node21&#45;&gt;Node18 -->
<g id="edge42" class="edge"><title>Node21&#45;&gt;Node18</title>
<path fill="none" stroke="midnightblue" d="M666.663,-343.375C703.815,-339.853 756.627,-329.517 792,-300 828.728,-269.352 843.256,-209.678 847.529,-187.537"/>
<polygon fill="midnightblue" stroke="midnightblue" points="666.308,-339.893 656.628,-344.199 666.88,-346.869 666.308,-339.893"/>
</g>
<!-- Node22 -->
<g id="node22" class="node"><title>Node22</title>
<g id="a_node22"><a xlink:href="../../d1/da4/cccc__prj_8h.html" target="_top" xlink:title="cccc_prj.h">
<polygon fill="white" stroke="black" points="499,-280.5 499,-299.5 563,-299.5 563,-280.5 499,-280.5"/>
<text text-anchor="middle" x="531" y="-287.5" font-family="Helvetica,sans-Serif" font-size="10.00">cccc_prj.h</text>
</a>
</g>
</g>
<!-- Node21&#45;&gt;Node22 -->
<g id="edge30" class="edge"><title>Node21&#45;&gt;Node22</title>
<path fill="none" stroke="midnightblue" d="M599.45,-331.177C582.521,-321.241 560.217,-308.149 545.745,-299.655"/>
<polygon fill="midnightblue" stroke="midnightblue" points="597.823,-334.28 608.219,-336.324 601.366,-328.243 597.823,-334.28"/>
</g>
<!-- Node23 -->
<g id="node23" class="node"><title>Node23</title>
<g id="a_node23"><a xlink:href="../../df/d69/cccc__mod_8h.html" target="_top" xlink:title="cccc_mod.h">
<polygon fill="white" stroke="black" points="619,-280.5 619,-299.5 691,-299.5 691,-280.5 619,-280.5"/>
<text text-anchor="middle" x="655" y="-287.5" font-family="Helvetica,sans-Serif" font-size="10.00">cccc_mod.h</text>
</a>
</g>
</g>
<!-- Node21&#45;&gt;Node23 -->
<g id="edge33" class="edge"><title>Node21&#45;&gt;Node23</title>
<path fill="none" stroke="midnightblue" d="M633.504,-327.275C638.973,-318.045 645.418,-307.17 649.814,-299.751"/>
<polygon fill="midnightblue" stroke="midnightblue" points="630.371,-325.696 628.284,-336.083 636.393,-329.264 630.371,-325.696"/>
</g>
<!-- Node24 -->
<g id="node24" class="node"><title>Node24</title>
<g id="a_node24"><a xlink:href="../../dc/da1/cccc__mem_8h.html" target="_top" xlink:title="cccc_mem.h">
<polygon fill="white" stroke="black" points="709,-280.5 709,-299.5 783,-299.5 783,-280.5 709,-280.5"/>
<text text-anchor="middle" x="746" y="-287.5" font-family="Helvetica,sans-Serif" font-size="10.00">cccc_mem.h</text>
</a>
</g>
</g>
<!-- Node21&#45;&gt;Node24 -->
<g id="edge36" class="edge"><title>Node21&#45;&gt;Node24</title>
<path fill="none" stroke="midnightblue" d="M651.773,-332.368C674.807,-322.255 706.484,-308.349 726.601,-299.516"/>
<polygon fill="midnightblue" stroke="midnightblue" points="650.239,-329.219 642.49,-336.444 653.053,-335.628 650.239,-329.219"/>
</g>
<!-- Node25 -->
<g id="node25" class="node"><title>Node25</title>
<g id="a_node25"><a xlink:href="../../d4/d96/cccc__use_8h.html" target="_top" xlink:title="cccc_use.h">
<polygon fill="white" stroke="black" points="375,-280.5 375,-299.5 443,-299.5 443,-280.5 375,-280.5"/>
<text text-anchor="middle" x="409" y="-287.5" font-family="Helvetica,sans-Serif" font-size="10.00">cccc_use.h</text>
</a>
</g>
</g>
<!-- Node21&#45;&gt;Node25 -->
<g id="edge39" class="edge"><title>Node21&#45;&gt;Node25</title>
<path fill="none" stroke="midnightblue" d="M579.245,-333.959C538.826,-323.76 479.627,-308.822 442.75,-299.516"/>
<polygon fill="midnightblue" stroke="midnightblue" points="578.539,-337.39 589.091,-336.444 580.251,-330.603 578.539,-337.39"/>
</g>
<!-- Node22&#45;&gt;Node3 -->
<g id="edge31" class="edge"><title>Node22&#45;&gt;Node3</title>
<path fill="none" stroke="midnightblue" d="M530.645,-269.805C530.48,-260.91 530.292,-250.78 530.162,-243.751"/>
<polygon fill="midnightblue" stroke="midnightblue" points="527.15,-270.15 530.835,-280.083 534.149,-270.02 527.15,-270.15"/>
</g>
<!-- Node22&#45;&gt;Node17 -->
<g id="edge32" class="edge"><title>Node22&#45;&gt;Node17</title>
<path fill="none" stroke="midnightblue" d="M498.864,-276.726C440.005,-254.245 316.287,-206.991 265.494,-187.591"/>
<polygon fill="midnightblue" stroke="midnightblue" points="497.81,-280.07 508.401,-280.368 500.308,-273.531 497.81,-280.07"/>
</g>
<!-- Node23&#45;&gt;Node3 -->
<g id="edge34" class="edge"><title>Node23&#45;&gt;Node3</title>
<path fill="none" stroke="midnightblue" d="M625.759,-276.368C602.35,-266.255 570.159,-252.349 549.714,-243.516"/>
<polygon fill="midnightblue" stroke="midnightblue" points="624.625,-279.691 635.193,-280.444 627.401,-273.265 624.625,-279.691"/>
</g>
<!-- Node23&#45;&gt;Node16 -->
<g id="edge35" class="edge"><title>Node23&#45;&gt;Node16</title>
<path fill="none" stroke="midnightblue" d="M655.848,-270.348C656.943,-246.254 658.804,-205.308 659.609,-187.591"/>
<polygon fill="midnightblue" stroke="midnightblue" points="652.35,-270.22 655.392,-280.368 659.343,-270.538 652.35,-270.22"/>
</g>
<!-- Node24&#45;&gt;Node3 -->
<g id="edge37" class="edge"><title>Node24&#45;&gt;Node3</title>
<path fill="none" stroke="midnightblue" d="M701.887,-277.972C660.178,-267.545 598.624,-252.156 561.606,-242.902"/>
<polygon fill="midnightblue" stroke="midnightblue" points="701.224,-281.414 711.774,-280.444 702.922,-274.623 701.224,-281.414"/>
</g>
<!-- Node24&#45;&gt;Node15 -->
<g id="edge38" class="edge"><title>Node24&#45;&gt;Node15</title>
<path fill="none" stroke="midnightblue" d="M747.696,-270.348C749.886,-246.254 753.608,-205.308 755.219,-187.591"/>
<polygon fill="midnightblue" stroke="midnightblue" points="744.205,-270.093 746.785,-280.368 751.176,-270.726 744.205,-270.093"/>
</g>
<!-- Node25&#45;&gt;Node3 -->
<g id="edge40" class="edge"><title>Node25&#45;&gt;Node3</title>
<path fill="none" stroke="midnightblue" d="M437.306,-276.368C459.965,-266.255 491.126,-252.349 510.917,-243.516"/>
<polygon fill="midnightblue" stroke="midnightblue" points="435.878,-273.172 428.173,-280.444 438.731,-279.564 435.878,-273.172"/>
</g>
<!-- Node25&#45;&gt;Node19 -->
<g id="edge41" class="edge"><title>Node25&#45;&gt;Node19</title>
<path fill="none" stroke="midnightblue" d="M379.57,-276.305C327.076,-253.66 218.61,-206.871 173.916,-187.591"/>
<polygon fill="midnightblue" stroke="midnightblue" points="378.422,-279.621 388.991,-280.368 381.195,-273.194 378.422,-279.621"/>
</g>
</g>
</svg>
