<?xml version="1.0" encoding="UTF-8" standalone="no"?>
<!DOCTYPE svg PUBLIC "-//W3C//DTD SVG 1.1//EN"
 "http://www.w3.org/Graphics/SVG/1.1/DTD/svg11.dtd">
<!-- Generated by graphviz version 2.38.0 (20140413.2041)
 -->
<!-- Title: cccc_xml.cc Pages: 1 -->
<svg width="1119pt" height="700pt"
 viewBox="0.00 0.00 1118.50 700.00" xmlns="http://www.w3.org/2000/svg" xmlns:xlink="http://www.w3.org/1999/xlink">
<g id="graph0" class="graph" transform="scale(1 1) rotate(0) translate(4 696)">
<title>cccc_xml.cc</title>
<polygon fill="white" stroke="none" points="-4,4 -4,-696 1114.5,-696 1114.5,4 -4,4"/>
<!-- Node1 -->
<g id="node1" class="node"><title>Node1</title>
<polygon fill="#bfbfbf" stroke="black" points="826,-672.5 826,-691.5 898,-691.5 898,-672.5 826,-672.5"/>
<text text-anchor="middle" x="862" y="-679.5" font-family="Helvetica,sans-Serif" font-size="10.00">cccc_xml.cc</text>
</g>
<!-- Node2 -->
<g id="node2" class="node"><title>Node2</title>
<g id="a_node2"><a xlink:href="../../d0/d84/cccc_8h.html" target="_top" xlink:title="cccc.h">
<polygon fill="white" stroke="black" points="489,-112.5 489,-131.5 535,-131.5 535,-112.5 489,-112.5"/>
<text text-anchor="middle" x="512" y="-119.5" font-family="Helvetica,sans-Serif" font-size="10.00">cccc.h</text>
</a>
</g>
</g>
<!-- Node1&#45;&gt;Node2 -->
<g id="edge1" class="edge"><title>Node1&#45;&gt;Node2</title>
<path fill="none" stroke="midnightblue" d="M864.562,-672.249C869.749,-653.738 881,-609.179 881,-571 881,-571 881,-571 881,-401 881,-267.659 804.466,-239.633 692,-168 646.43,-138.975 583.303,-128.666 545.189,-125.008"/>
<polygon fill="midnightblue" stroke="midnightblue" points="545.401,-121.514 535.137,-124.143 544.8,-128.488 545.401,-121.514"/>
</g>
<!-- Node16 -->
<g id="node16" class="node"><title>Node16</title>
<g id="a_node16"><a xlink:href="../../dd/d1e/cccc__itm_8h.html" target="_top" xlink:title="cccc_itm.h">
<polygon fill="white" stroke="black" points="535.5,-168.5 535.5,-187.5 600.5,-187.5 600.5,-168.5 535.5,-168.5"/>
<text text-anchor="middle" x="568" y="-175.5" font-family="Helvetica,sans-Serif" font-size="10.00">cccc_itm.h</text>
</a>
</g>
</g>
<!-- Node1&#45;&gt;Node16 -->
<g id="edge16" class="edge"><title>Node1&#45;&gt;Node16</title>
<path fill="none" stroke="midnightblue" d="M825.947,-676.86C775.134,-670.381 685.863,-656.436 661,-636 594.589,-581.413 583,-544.966 583,-459 583,-459 583,-459 583,-289 583,-256.502 576.493,-219.095 572.051,-197.343"/>
<polygon fill="midnightblue" stroke="midnightblue" points="575.462,-196.559 569.961,-187.504 568.615,-198.013 575.462,-196.559"/>
</g>
<!-- Node17 -->
<g id="node17" class="node"><title>Node17</title>
<g id="a_node17"><a xlink:href="../../d9/d64/cccc__xml_8h.html" target="_top" xlink:title="cccc_xml.h">
<polygon fill="white" stroke="black" points="670,-616.5 670,-635.5 738,-635.5 738,-616.5 670,-616.5"/>
<text text-anchor="middle" x="704" y="-623.5" font-family="Helvetica,sans-Serif" font-size="10.00">cccc_xml.h</text>
</a>
</g>
</g>
<!-- Node1&#45;&gt;Node17 -->
<g id="edge18" class="edge"><title>Node1&#45;&gt;Node17</title>
<path fill="none" stroke="midnightblue" d="M836.964,-672.444C810.384,-663.359 768.191,-648.939 738.477,-638.783"/>
<polygon fill="midnightblue" stroke="midnightblue" points="739.513,-635.439 728.918,-635.516 737.249,-642.062 739.513,-635.439"/>
</g>
<!-- Node18 -->
<g id="node18" class="node"><title>Node18</title>
<polygon fill="white" stroke="#bfbfbf" points="771,-504.5 771,-523.5 815,-523.5 815,-504.5 771,-504.5"/>
<text text-anchor="middle" x="793" y="-511.5" font-family="Helvetica,sans-Serif" font-size="10.00">time.h</text>
</g>
<!-- Node1&#45;&gt;Node18 -->
<g id="edge64" class="edge"><title>Node1&#45;&gt;Node18</title>
<path fill="none" stroke="midnightblue" d="M858.29,-672.075C847.382,-645.832 815.257,-568.545 800.53,-533.117"/>
<polygon fill="midnightblue" stroke="midnightblue" points="803.632,-531.459 796.561,-523.568 797.168,-534.146 803.632,-531.459"/>
</g>
<!-- Node21 -->
<g id="node21" class="node"><title>Node21</title>
<g id="a_node21"><a xlink:href="../../d7/d8f/cccc__utl_8h.html" target="_top" xlink:title="cccc_utl.h">
<polygon fill="white" stroke="black" points="166,-224.5 166,-243.5 228,-243.5 228,-224.5 166,-224.5"/>
<text text-anchor="middle" x="197" y="-231.5" font-family="Helvetica,sans-Serif" font-size="10.00">cccc_utl.h</text>
</a>
</g>
</g>
<!-- Node1&#45;&gt;Node21 -->
<g id="edge66" class="edge"><title>Node1&#45;&gt;Node21</title>
<path fill="none" stroke="midnightblue" d="M825.995,-680.231C663.339,-676.29 5,-655.144 5,-571 5,-571 5,-571 5,-401 5,-319.11 106.183,-268.634 161.643,-247.118"/>
<polygon fill="midnightblue" stroke="midnightblue" points="162.981,-250.354 171.106,-243.555 160.514,-243.803 162.981,-250.354"/>
</g>
<!-- Node33 -->
<g id="node33" class="node"><title>Node33</title>
<polygon fill="white" stroke="#bfbfbf" points="909.5,-616.5 909.5,-635.5 962.5,-635.5 962.5,-616.5 909.5,-616.5"/>
<text text-anchor="middle" x="936" y="-623.5" font-family="Helvetica,sans-Serif" font-size="10.00">unistd.h</text>
</g>
<!-- Node1&#45;&gt;Node33 -->
<g id="edge62" class="edge"><title>Node1&#45;&gt;Node33</title>
<path fill="none" stroke="midnightblue" d="M873.889,-672.324C885.15,-664.107 902.287,-651.602 915.709,-641.807"/>
<polygon fill="midnightblue" stroke="midnightblue" points="917.88,-644.556 923.894,-635.834 913.753,-638.901 917.88,-644.556"/>
</g>
<!-- Node34 -->
<g id="node34" class="node"><title>Node34</title>
<polygon fill="white" stroke="#bfbfbf" points="980.5,-616.5 980.5,-635.5 1031.5,-635.5 1031.5,-616.5 980.5,-616.5"/>
<text text-anchor="middle" x="1006" y="-623.5" font-family="Helvetica,sans-Serif" font-size="10.00">string.h</text>
</g>
<!-- Node1&#45;&gt;Node34 -->
<g id="edge63" class="edge"><title>Node1&#45;&gt;Node34</title>
<path fill="none" stroke="midnightblue" d="M884.817,-672.444C908.832,-663.438 946.829,-649.189 973.869,-639.049"/>
<polygon fill="midnightblue" stroke="midnightblue" points="975.155,-642.305 983.29,-635.516 972.697,-635.751 975.155,-642.305"/>
</g>
<!-- Node35 -->
<g id="node35" class="node"><title>Node35</title>
<polygon fill="white" stroke="#bfbfbf" points="1049.5,-616.5 1049.5,-635.5 1110.5,-635.5 1110.5,-616.5 1049.5,-616.5"/>
<text text-anchor="middle" x="1080" y="-623.5" font-family="Helvetica,sans-Serif" font-size="10.00">sys/stat.h</text>
</g>
<!-- Node1&#45;&gt;Node35 -->
<g id="edge65" class="edge"><title>Node1&#45;&gt;Node35</title>
<path fill="none" stroke="midnightblue" d="M896.543,-672.444C935.391,-662.821 998.411,-647.21 1039.53,-637.024"/>
<polygon fill="midnightblue" stroke="midnightblue" points="1040.62,-640.36 1049.49,-634.558 1038.94,-633.565 1040.62,-640.36"/>
</g>
<!-- Node3 -->
<g id="node3" class="node"><title>Node3</title>
<polygon fill="white" stroke="#bfbfbf" points="362.5,-56.5 362.5,-75.5 413.5,-75.5 413.5,-56.5 362.5,-56.5"/>
<text text-anchor="middle" x="388" y="-63.5" font-family="Helvetica,sans-Serif" font-size="10.00">cassert</text>
</g>
<!-- Node2&#45;&gt;Node3 -->
<g id="edge2" class="edge"><title>Node2&#45;&gt;Node3</title>
<path fill="none" stroke="midnightblue" d="M492.352,-112.444C472.035,-103.596 440.097,-89.6875 416.902,-79.5865"/>
<polygon fill="midnightblue" stroke="midnightblue" points="418.122,-76.3002 407.556,-75.5164 415.327,-82.7181 418.122,-76.3002"/>
</g>
<!-- Node4 -->
<g id="node4" class="node"><title>Node4</title>
<polygon fill="white" stroke="#bfbfbf" points="569.5,-56.5 569.5,-75.5 614.5,-75.5 614.5,-56.5 569.5,-56.5"/>
<text text-anchor="middle" x="592" y="-63.5" font-family="Helvetica,sans-Serif" font-size="10.00">cmath</text>
</g>
<!-- Node2&#45;&gt;Node4 -->
<g id="edge3" class="edge"><title>Node2&#45;&gt;Node4</title>
<path fill="none" stroke="midnightblue" d="M524.853,-112.324C537.216,-103.979 556.13,-91.2122 570.737,-81.3524"/>
<polygon fill="midnightblue" stroke="midnightblue" points="572.848,-84.1503 579.179,-75.6545 568.932,-78.3483 572.848,-84.1503"/>
</g>
<!-- Node5 -->
<g id="node5" class="node"><title>Node5</title>
<polygon fill="white" stroke="#bfbfbf" points="633,-56.5 633,-75.5 677,-75.5 677,-56.5 633,-56.5"/>
<text text-anchor="middle" x="655" y="-63.5" font-family="Helvetica,sans-Serif" font-size="10.00">cstdio</text>
</g>
<!-- Node2&#45;&gt;Node5 -->
<g id="edge4" class="edge"><title>Node2&#45;&gt;Node5</title>
<path fill="none" stroke="midnightblue" d="M534.659,-112.444C558.542,-103.425 596.351,-89.1472 623.211,-79.0043"/>
<polygon fill="midnightblue" stroke="midnightblue" points="624.798,-82.1461 632.917,-75.339 622.325,-75.5975 624.798,-82.1461"/>
</g>
<!-- Node6 -->
<g id="node6" class="node"><title>Node6</title>
<polygon fill="white" stroke="#bfbfbf" points="695,-56.5 695,-75.5 743,-75.5 743,-56.5 695,-56.5"/>
<text text-anchor="middle" x="719" y="-63.5" font-family="Helvetica,sans-Serif" font-size="10.00">cstring</text>
</g>
<!-- Node2&#45;&gt;Node6 -->
<g id="edge5" class="edge"><title>Node2&#45;&gt;Node6</title>
<path fill="none" stroke="midnightblue" d="M535.105,-115.128C566.699,-107.076 625.401,-92.0364 684.917,-76.2632"/>
<polygon fill="midnightblue" stroke="midnightblue" points="686.092,-79.5724 694.859,-73.6232 684.296,-72.8068 686.092,-79.5724"/>
</g>
<!-- Node7 -->
<g id="node7" class="node"><title>Node7</title>
<polygon fill="white" stroke="#bfbfbf" points="761,-56.5 761,-75.5 807,-75.5 807,-56.5 761,-56.5"/>
<text text-anchor="middle" x="784" y="-63.5" font-family="Helvetica,sans-Serif" font-size="10.00">cstdlib</text>
</g>
<!-- Node2&#45;&gt;Node7 -->
<g id="edge6" class="edge"><title>Node2&#45;&gt;Node7</title>
<path fill="none" stroke="midnightblue" d="M535.312,-117.336C576.768,-110.671 666.193,-95.6133 751.187,-76.0202"/>
<polygon fill="midnightblue" stroke="midnightblue" points="752.047,-79.4137 760.991,-73.7349 750.458,-72.5964 752.047,-79.4137"/>
</g>
<!-- Node8 -->
<g id="node8" class="node"><title>Node8</title>
<polygon fill="white" stroke="#bfbfbf" points="431.5,-56.5 431.5,-75.5 478.5,-75.5 478.5,-56.5 431.5,-56.5"/>
<text text-anchor="middle" x="455" y="-63.5" font-family="Helvetica,sans-Serif" font-size="10.00">cctype</text>
</g>
<!-- Node2&#45;&gt;Node8 -->
<g id="edge7" class="edge"><title>Node2&#45;&gt;Node8</title>
<path fill="none" stroke="midnightblue" d="M502.842,-112.324C494.499,-104.42 481.968,-92.5482 471.823,-82.9377"/>
<polygon fill="midnightblue" stroke="midnightblue" points="473.991,-80.1705 464.325,-75.8339 469.177,-85.2522 473.991,-80.1705"/>
</g>
<!-- Node9 -->
<g id="node9" class="node"><title>Node9</title>
<polygon fill="white" stroke="#bfbfbf" points="53.5,-56.5 53.5,-75.5 96.5,-75.5 96.5,-56.5 53.5,-56.5"/>
<text text-anchor="middle" x="75" y="-63.5" font-family="Helvetica,sans-Serif" font-size="10.00">string</text>
</g>
<!-- Node2&#45;&gt;Node9 -->
<g id="edge8" class="edge"><title>Node2&#45;&gt;Node9</title>
<path fill="none" stroke="midnightblue" d="M488.856,-119.426C427.219,-115.014 254.095,-101.17 112,-76 110.299,-75.6988 108.561,-75.3653 106.809,-75.0092"/>
<polygon fill="midnightblue" stroke="midnightblue" points="107.336,-71.5412 96.8157,-72.7916 105.82,-78.375 107.336,-71.5412"/>
</g>
<!-- Node10 -->
<g id="node10" class="node"><title>Node10</title>
<polygon fill="white" stroke="#bfbfbf" points="202.5,-56.5 202.5,-75.5 259.5,-75.5 259.5,-56.5 202.5,-56.5"/>
<text text-anchor="middle" x="231" y="-63.5" font-family="Helvetica,sans-Serif" font-size="10.00">iostream</text>
</g>
<!-- Node2&#45;&gt;Node10 -->
<g id="edge9" class="edge"><title>Node2&#45;&gt;Node10</title>
<path fill="none" stroke="midnightblue" d="M488.806,-117.098C447.095,-109.997 356.454,-94.1852 269.62,-76.0414"/>
<polygon fill="midnightblue" stroke="midnightblue" points="270.106,-72.5672 259.6,-73.9336 268.665,-79.4173 270.106,-72.5672"/>
</g>
<!-- Node11 -->
<g id="node11" class="node"><title>Node11</title>
<polygon fill="white" stroke="#bfbfbf" points="497,-56.5 497,-75.5 551,-75.5 551,-56.5 497,-56.5"/>
<text text-anchor="middle" x="524" y="-63.5" font-family="Helvetica,sans-Serif" font-size="10.00">sstream</text>
</g>
<!-- Node2&#45;&gt;Node11 -->
<g id="edge10" class="edge"><title>Node2&#45;&gt;Node11</title>
<path fill="none" stroke="midnightblue" d="M513.982,-112.083C515.572,-104.927 517.859,-94.6353 519.846,-85.6911"/>
<polygon fill="midnightblue" stroke="midnightblue" points="523.303,-86.2722 522.055,-75.7511 516.469,-84.7537 523.303,-86.2722"/>
</g>
<!-- Node12 -->
<g id="node12" class="node"><title>Node12</title>
<polygon fill="white" stroke="#bfbfbf" points="825,-56.5 825,-75.5 877,-75.5 877,-56.5 825,-56.5"/>
<text text-anchor="middle" x="851" y="-63.5" font-family="Helvetica,sans-Serif" font-size="10.00">fstream</text>
</g>
<!-- Node2&#45;&gt;Node12 -->
<g id="edge11" class="edge"><title>Node2&#45;&gt;Node12</title>
<path fill="none" stroke="midnightblue" d="M535.024,-118.427C584.468,-112.726 704.613,-97.9246 814.752,-76.0764"/>
<polygon fill="midnightblue" stroke="midnightblue" points="815.58,-79.4801 824.695,-74.079 814.201,-72.6172 815.58,-79.4801"/>
</g>
<!-- Node13 -->
<g id="node13" class="node"><title>Node13</title>
<g id="a_node13"><a xlink:href="../../d1/d7d/cccc__tok_8h.html" target="_top" xlink:title="cccc_tok.h">
<polygon fill="white" stroke="black" points="278,-56.5 278,-75.5 344,-75.5 344,-56.5 278,-56.5"/>
<text text-anchor="middle" x="311" y="-63.5" font-family="Helvetica,sans-Serif" font-size="10.00">cccc_tok.h</text>
</a>
</g>
</g>
<!-- Node2&#45;&gt;Node13 -->
<g id="edge12" class="edge"><title>Node2&#45;&gt;Node13</title>
<path fill="none" stroke="midnightblue" d="M488.944,-115.92C454.189,-107.358 388.558,-89.8565 347.368,-78.277"/>
<polygon fill="midnightblue" stroke="midnightblue" points="348.284,-74.8988 337.709,-75.5418 346.377,-81.634 348.284,-74.8988"/>
</g>
<!-- Node15 -->
<g id="node15" class="node"><title>Node15</title>
<polygon fill="white" stroke="#bfbfbf" points="121.5,-56.5 121.5,-75.5 184.5,-75.5 184.5,-56.5 121.5,-56.5"/>
<text text-anchor="middle" x="153" y="-63.5" font-family="Helvetica,sans-Serif" font-size="10.00">AParser.h</text>
</g>
<!-- Node2&#45;&gt;Node15 -->
<g id="edge15" class="edge"><title>Node2&#45;&gt;Node15</title>
<path fill="none" stroke="midnightblue" d="M488.681,-118.368C437.34,-112.435 310.497,-97.0135 194.905,-76.2365"/>
<polygon fill="midnightblue" stroke="midnightblue" points="195.294,-72.7498 184.829,-74.4063 194.043,-79.6372 195.294,-72.7498"/>
</g>
<!-- Node13&#45;&gt;Node2 -->
<g id="edge13" class="edge"><title>Node13&#45;&gt;Node2</title>
<path fill="none" stroke="midnightblue" d="M344.231,-74.6188C381.627,-84.0484 441.738,-100.147 479.024,-110.679"/>
<polygon fill="midnightblue" stroke="midnightblue" points="478.32,-114.118 488.897,-113.492 480.238,-107.385 478.32,-114.118"/>
</g>
<!-- Node14 -->
<g id="node14" class="node"><title>Node14</title>
<polygon fill="white" stroke="#bfbfbf" points="280,-0.5 280,-19.5 342,-19.5 342,-0.5 280,-0.5"/>
<text text-anchor="middle" x="311" y="-7.5" font-family="Helvetica,sans-Serif" font-size="10.00">AToken.h</text>
</g>
<!-- Node13&#45;&gt;Node14 -->
<g id="edge14" class="edge"><title>Node13&#45;&gt;Node14</title>
<path fill="none" stroke="midnightblue" d="M311,-56.083C311,-49.0059 311,-38.8611 311,-29.9865"/>
<polygon fill="midnightblue" stroke="midnightblue" points="314.5,-29.751 311,-19.7511 307.5,-29.7511 314.5,-29.751"/>
</g>
<!-- Node16&#45;&gt;Node2 -->
<g id="edge17" class="edge"><title>Node16&#45;&gt;Node2</title>
<path fill="none" stroke="midnightblue" d="M559.003,-168.324C550.806,-160.42 538.494,-148.548 528.528,-138.938"/>
<polygon fill="midnightblue" stroke="midnightblue" points="530.789,-136.256 521.161,-131.834 525.93,-141.295 530.789,-136.256"/>
</g>
<!-- Node17&#45;&gt;Node2 -->
<g id="edge19" class="edge"><title>Node17&#45;&gt;Node2</title>
<path fill="none" stroke="midnightblue" d="M693.213,-616.497C683.404,-608.2 669.238,-594.707 661,-580 633.815,-531.469 629,-514.627 629,-459 629,-459 629,-459 629,-233 629,-202.775 628.873,-190.774 609,-168 592.427,-149.007 566.147,-137.503 545.119,-130.886"/>
<polygon fill="midnightblue" stroke="midnightblue" points="545.863,-127.457 535.283,-128.018 543.904,-134.177 545.863,-127.457"/>
</g>
<!-- Node17&#45;&gt;Node12 -->
<g id="edge20" class="edge"><title>Node17&#45;&gt;Node12</title>
<path fill="none" stroke="midnightblue" d="M717.991,-616.407C731.541,-607.837 752.413,-593.97 769,-580 817.215,-539.391 843,-522.038 843,-459 843,-459 843,-459 843,-177 843,-144.863 846.439,-107.584 848.807,-85.7187"/>
<polygon fill="midnightblue" stroke="midnightblue" points="852.312,-85.8715 849.954,-75.5424 845.356,-85.0874 852.312,-85.8715"/>
</g>
<!-- Node17&#45;&gt;Node18 -->
<g id="edge21" class="edge"><title>Node17&#45;&gt;Node18</title>
<path fill="none" stroke="midnightblue" d="M713.228,-616.451C722.468,-607.692 736.874,-593.485 748,-580 760.652,-564.666 773.393,-545.875 782.072,-532.449"/>
<polygon fill="midnightblue" stroke="midnightblue" points="785.194,-534.061 787.614,-523.746 779.29,-530.301 785.194,-534.061"/>
</g>
<!-- Node19 -->
<g id="node19" class="node"><title>Node19</title>
<g id="a_node19"><a xlink:href="../../d7/d44/cccc__db_8h.html" target="_top" xlink:title="cccc_db.h">
<polygon fill="white" stroke="black" points="366.5,-448.5 366.5,-467.5 429.5,-467.5 429.5,-448.5 366.5,-448.5"/>
<text text-anchor="middle" x="398" y="-455.5" font-family="Helvetica,sans-Serif" font-size="10.00">cccc_db.h</text>
</a>
</g>
</g>
<!-- Node17&#45;&gt;Node19 -->
<g id="edge22" class="edge"><title>Node17&#45;&gt;Node19</title>
<path fill="none" stroke="midnightblue" d="M677.703,-616.403C633.823,-601.407 543.804,-567.839 476,-524 453.269,-509.303 429.742,-488.849 414.553,-474.834"/>
<polygon fill="midnightblue" stroke="midnightblue" points="416.722,-472.07 407.031,-467.787 411.936,-477.178 416.722,-472.07"/>
</g>
<!-- Node31 -->
<g id="node31" class="node"><title>Node31</title>
<g id="a_node31"><a xlink:href="../../d4/df8/cccc__met_8h.html" target="_top" xlink:title="cccc_met.h">
<polygon fill="white" stroke="black" points="485.5,-504.5 485.5,-523.5 554.5,-523.5 554.5,-504.5 485.5,-504.5"/>
<text text-anchor="middle" x="520" y="-511.5" font-family="Helvetica,sans-Serif" font-size="10.00">cccc_met.h</text>
</a>
</g>
</g>
<!-- Node17&#45;&gt;Node31 -->
<g id="edge52" class="edge"><title>Node17&#45;&gt;Node31</title>
<path fill="none" stroke="midnightblue" d="M689.195,-616.448C673.659,-607.45 648.548,-592.84 627,-580 597.886,-562.651 564.542,-542.322 542.922,-529.08"/>
<polygon fill="midnightblue" stroke="midnightblue" points="544.501,-525.942 534.146,-523.699 540.842,-531.91 544.501,-525.942"/>
</g>
<!-- Node32 -->
<g id="node32" class="node"><title>Node32</title>
<g id="a_node32"><a xlink:href="../../d9/db9/cccc__htm_8h.html" target="_top" xlink:title="cccc_htm.h">
<polygon fill="white" stroke="black" points="669.5,-560.5 669.5,-579.5 738.5,-579.5 738.5,-560.5 669.5,-560.5"/>
<text text-anchor="middle" x="704" y="-567.5" font-family="Helvetica,sans-Serif" font-size="10.00">cccc_htm.h</text>
</a>
</g>
</g>
<!-- Node17&#45;&gt;Node32 -->
<g id="edge56" class="edge"><title>Node17&#45;&gt;Node32</title>
<path fill="none" stroke="midnightblue" d="M704,-616.083C704,-609.006 704,-598.861 704,-589.986"/>
<polygon fill="midnightblue" stroke="midnightblue" points="707.5,-589.751 704,-579.751 700.5,-589.751 707.5,-589.751"/>
</g>
<!-- Node19&#45;&gt;Node2 -->
<g id="edge23" class="edge"><title>Node19&#45;&gt;Node2</title>
<path fill="none" stroke="midnightblue" d="M429.181,-448.476C448.682,-441.626 472.884,-430.102 488,-412 507.292,-388.898 507,-377.098 507,-347 507,-347 507,-347 507,-233 507,-200.915 509.149,-163.62 510.629,-141.737"/>
<polygon fill="midnightblue" stroke="midnightblue" points="514.135,-141.773 511.346,-131.552 507.153,-141.281 514.135,-141.773"/>
</g>
<!-- Node20 -->
<g id="node20" class="node"><title>Node20</title>
<g id="a_node20"><a xlink:href="../../d3/d11/cccc__ext_8h.html" target="_top" xlink:title="cccc_ext.h">
<polygon fill="white" stroke="black" points="103,-280.5 103,-299.5 169,-299.5 169,-280.5 103,-280.5"/>
<text text-anchor="middle" x="136" y="-287.5" font-family="Helvetica,sans-Serif" font-size="10.00">cccc_ext.h</text>
</a>
</g>
</g>
<!-- Node19&#45;&gt;Node20 -->
<g id="edge24" class="edge"><title>Node19&#45;&gt;Node20</title>
<path fill="none" stroke="midnightblue" d="M366.358,-457.176C296.814,-456.819 134.124,-451.664 100,-412 73.9159,-381.681 103.311,-333.103 122.345,-307.704"/>
<polygon fill="midnightblue" stroke="midnightblue" points="125.154,-309.794 128.538,-299.754 119.632,-305.492 125.154,-309.794"/>
</g>
<!-- Node24 -->
<g id="node24" class="node"><title>Node24</title>
<g id="a_node24"><a xlink:href="../../df/de9/cccc__rec_8h.html" target="_top" xlink:title="cccc_rec.h">
<polygon fill="white" stroke="black" points="269.5,-336.5 269.5,-355.5 336.5,-355.5 336.5,-336.5 269.5,-336.5"/>
<text text-anchor="middle" x="303" y="-343.5" font-family="Helvetica,sans-Serif" font-size="10.00">cccc_rec.h</text>
</a>
</g>
</g>
<!-- Node19&#45;&gt;Node24 -->
<g id="edge32" class="edge"><title>Node19&#45;&gt;Node24</title>
<path fill="none" stroke="midnightblue" d="M394.223,-448.346C388.232,-435.232 375.611,-409.952 360,-392 349.947,-380.439 336.594,-369.714 325.34,-361.637"/>
<polygon fill="midnightblue" stroke="midnightblue" points="327.08,-358.584 316.868,-355.761 323.091,-364.336 327.08,-358.584"/>
</g>
<!-- Node27 -->
<g id="node27" class="node"><title>Node27</title>
<g id="a_node27"><a xlink:href="../../d1/da4/cccc__prj_8h.html" target="_top" xlink:title="cccc_prj.h">
<polygon fill="white" stroke="black" points="109,-392.5 109,-411.5 173,-411.5 173,-392.5 109,-392.5"/>
<text text-anchor="middle" x="141" y="-399.5" font-family="Helvetica,sans-Serif" font-size="10.00">cccc_prj.h</text>
</a>
</g>
</g>
<!-- Node19&#45;&gt;Node27 -->
<g id="edge43" class="edge"><title>Node19&#45;&gt;Node27</title>
<path fill="none" stroke="midnightblue" d="M366.499,-450.547C326.309,-442.29 254.387,-427.435 183.251,-412.251"/>
<polygon fill="midnightblue" stroke="midnightblue" points="183.733,-408.775 173.222,-410.107 182.269,-415.62 183.733,-408.775"/>
</g>
<!-- Node28 -->
<g id="node28" class="node"><title>Node28</title>
<g id="a_node28"><a xlink:href="../../df/d69/cccc__mod_8h.html" target="_top" xlink:title="cccc_mod.h">
<polygon fill="white" stroke="black" points="407,-392.5 407,-411.5 479,-411.5 479,-392.5 407,-392.5"/>
<text text-anchor="middle" x="443" y="-399.5" font-family="Helvetica,sans-Serif" font-size="10.00">cccc_mod.h</text>
</a>
</g>
</g>
<!-- Node19&#45;&gt;Node28 -->
<g id="edge45" class="edge"><title>Node19&#45;&gt;Node28</title>
<path fill="none" stroke="midnightblue" d="M405.431,-448.083C411.853,-440.377 421.306,-429.033 429.122,-419.653"/>
<polygon fill="midnightblue" stroke="midnightblue" points="431.994,-421.674 435.707,-411.751 426.617,-417.193 431.994,-421.674"/>
</g>
<!-- Node29 -->
<g id="node29" class="node"><title>Node29</title>
<g id="a_node29"><a xlink:href="../../dc/da1/cccc__mem_8h.html" target="_top" xlink:title="cccc_mem.h">
<polygon fill="white" stroke="black" points="191,-392.5 191,-411.5 265,-411.5 265,-392.5 191,-392.5"/>
<text text-anchor="middle" x="228" y="-399.5" font-family="Helvetica,sans-Serif" font-size="10.00">cccc_mem.h</text>
</a>
</g>
</g>
<!-- Node19&#45;&gt;Node29 -->
<g id="edge48" class="edge"><title>Node19&#45;&gt;Node29</title>
<path fill="none" stroke="midnightblue" d="M371.063,-448.444C342.34,-439.32 296.671,-424.813 264.679,-414.651"/>
<polygon fill="midnightblue" stroke="midnightblue" points="265.401,-411.208 254.811,-411.516 263.282,-417.88 265.401,-411.208"/>
</g>
<!-- Node30 -->
<g id="node30" class="node"><title>Node30</title>
<g id="a_node30"><a xlink:href="../../d4/d96/cccc__use_8h.html" target="_top" xlink:title="cccc_use.h">
<polygon fill="white" stroke="black" points="283,-392.5 283,-411.5 351,-411.5 351,-392.5 283,-392.5"/>
<text text-anchor="middle" x="317" y="-399.5" font-family="Helvetica,sans-Serif" font-size="10.00">cccc_use.h</text>
</a>
</g>
</g>
<!-- Node19&#45;&gt;Node30 -->
<g id="edge50" class="edge"><title>Node19&#45;&gt;Node30</title>
<path fill="none" stroke="midnightblue" d="M384.986,-448.324C372.468,-439.979 353.318,-427.212 338.529,-417.352"/>
<polygon fill="midnightblue" stroke="midnightblue" points="340.244,-414.289 329.982,-411.655 336.361,-420.114 340.244,-414.289"/>
</g>
<!-- Node20&#45;&gt;Node9 -->
<g id="edge25" class="edge"><title>Node20&#45;&gt;Node9</title>
<path fill="none" stroke="midnightblue" d="M109.071,-280.356C92.2808,-273.411 72.0224,-261.825 62,-244 33.1117,-192.622 54.6562,-119.194 67.3922,-85.359"/>
<polygon fill="midnightblue" stroke="midnightblue" points="70.7322,-86.4298 71.1427,-75.8429 64.2197,-83.8631 70.7322,-86.4298"/>
</g>
<!-- Node20&#45;&gt;Node21 -->
<g id="edge26" class="edge"><title>Node20&#45;&gt;Node21</title>
<path fill="none" stroke="midnightblue" d="M145.801,-280.324C154.818,-272.341 168.406,-260.313 179.318,-250.653"/>
<polygon fill="midnightblue" stroke="midnightblue" points="181.853,-253.083 187.021,-243.834 177.213,-247.842 181.853,-253.083"/>
</g>
<!-- Node21&#45;&gt;Node2 -->
<g id="edge27" class="edge"><title>Node21&#45;&gt;Node2</title>
<path fill="none" stroke="midnightblue" d="M204.407,-224.208C216.954,-209.944 243.877,-181.954 273,-168 341.144,-135.349 430.815,-126.357 478.611,-123.902"/>
<polygon fill="midnightblue" stroke="midnightblue" points="478.876,-127.394 488.71,-123.45 478.563,-120.401 478.876,-127.394"/>
</g>
<!-- Node21&#45;&gt;Node13 -->
<g id="edge30" class="edge"><title>Node21&#45;&gt;Node13</title>
<path fill="none" stroke="midnightblue" d="M202.764,-224.116C210.942,-211.55 226.429,-187.897 240,-168 260.331,-138.192 284.624,-103.913 298.878,-83.932"/>
<polygon fill="midnightblue" stroke="midnightblue" points="301.873,-85.7606 304.839,-75.5894 296.178,-81.6911 301.873,-85.7606"/>
</g>
<!-- Node21&#45;&gt;Node15 -->
<g id="edge31" class="edge"><title>Node21&#45;&gt;Node15</title>
<path fill="none" stroke="midnightblue" d="M194.634,-224.075C187.708,-197.945 167.369,-121.211 157.924,-85.577"/>
<polygon fill="midnightblue" stroke="midnightblue" points="161.216,-84.3375 155.271,-75.5681 154.45,-86.1311 161.216,-84.3375"/>
</g>
<!-- Node22 -->
<g id="node22" class="node"><title>Node22</title>
<polygon fill="white" stroke="#bfbfbf" points="282.5,-168.5 282.5,-187.5 319.5,-187.5 319.5,-168.5 282.5,-168.5"/>
<text text-anchor="middle" x="301" y="-175.5" font-family="Helvetica,sans-Serif" font-size="10.00">map</text>
</g>
<!-- Node21&#45;&gt;Node22 -->
<g id="edge28" class="edge"><title>Node21&#45;&gt;Node22</title>
<path fill="none" stroke="midnightblue" d="M213.709,-224.324C230.312,-215.703 256.002,-202.364 275.22,-192.386"/>
<polygon fill="midnightblue" stroke="midnightblue" points="277.07,-195.369 284.332,-187.655 273.844,-189.156 277.07,-195.369"/>
</g>
<!-- Node23 -->
<g id="node23" class="node"><title>Node23</title>
<polygon fill="white" stroke="#bfbfbf" points="104,-168.5 104,-187.5 150,-187.5 150,-168.5 104,-168.5"/>
<text text-anchor="middle" x="127" y="-175.5" font-family="Helvetica,sans-Serif" font-size="10.00">vector</text>
</g>
<!-- Node21&#45;&gt;Node23 -->
<g id="edge29" class="edge"><title>Node21&#45;&gt;Node23</title>
<path fill="none" stroke="midnightblue" d="M185.753,-224.324C175.203,-216.185 159.199,-203.839 146.558,-194.087"/>
<polygon fill="midnightblue" stroke="midnightblue" points="148.507,-191.171 138.451,-187.834 144.231,-196.713 148.507,-191.171"/>
</g>
<!-- Node24&#45;&gt;Node20 -->
<g id="edge41" class="edge"><title>Node24&#45;&gt;Node20</title>
<path fill="none" stroke="midnightblue" d="M276.538,-336.444C248.322,-327.32 203.46,-312.813 172.032,-302.651"/>
<polygon fill="midnightblue" stroke="midnightblue" points="172.93,-299.263 162.338,-299.516 170.776,-305.923 172.93,-299.263"/>
</g>
<!-- Node24&#45;&gt;Node21 -->
<g id="edge42" class="edge"><title>Node24&#45;&gt;Node21</title>
<path fill="none" stroke="midnightblue" d="M294.682,-336.368C276.957,-317.974 235.229,-274.671 212.468,-251.052"/>
<polygon fill="midnightblue" stroke="midnightblue" points="214.738,-248.364 205.279,-243.591 209.698,-253.221 214.738,-248.364"/>
</g>
<!-- Node25 -->
<g id="node25" class="node"><title>Node25</title>
<g id="a_node25"><a xlink:href="../../df/dd4/cccc__tbl_8h.html" target="_top" xlink:title="cccc_tbl.h">
<polygon fill="white" stroke="black" points="286,-280.5 286,-299.5 348,-299.5 348,-280.5 286,-280.5"/>
<text text-anchor="middle" x="317" y="-287.5" font-family="Helvetica,sans-Serif" font-size="10.00">cccc_tbl.h</text>
</a>
</g>
</g>
<!-- Node24&#45;&gt;Node25 -->
<g id="edge33" class="edge"><title>Node24&#45;&gt;Node25</title>
<path fill="none" stroke="midnightblue" d="M305.312,-336.083C307.167,-328.927 309.835,-318.635 312.154,-309.691"/>
<polygon fill="midnightblue" stroke="midnightblue" points="315.609,-310.309 314.731,-299.751 308.834,-308.553 315.609,-310.309"/>
</g>
<!-- Node25&#45;&gt;Node9 -->
<g id="edge35" class="edge"><title>Node25&#45;&gt;Node9</title>
<path fill="none" stroke="midnightblue" d="M285.998,-286.141C234.46,-279.467 133.063,-257.674 95,-188 77.1109,-155.255 74.3416,-110.639 74.3746,-85.7494"/>
<polygon fill="midnightblue" stroke="midnightblue" points="77.8777,-85.5934 74.5522,-75.534 70.8788,-85.4716 77.8777,-85.5934"/>
</g>
<!-- Node25&#45;&gt;Node10 -->
<g id="edge34" class="edge"><title>Node25&#45;&gt;Node10</title>
<path fill="none" stroke="midnightblue" d="M320.385,-280.396C327.862,-260.013 343.907,-207.528 328,-168 312.869,-130.402 276.312,-98.9422 252.65,-81.5697"/>
<polygon fill="midnightblue" stroke="midnightblue" points="254.462,-78.563 244.284,-75.6178 250.404,-84.2667 254.462,-78.563"/>
</g>
<!-- Node25&#45;&gt;Node22 -->
<g id="edge36" class="edge"><title>Node25&#45;&gt;Node22</title>
<path fill="none" stroke="midnightblue" d="M315.745,-280.368C313.162,-262.617 307.206,-221.666 303.705,-197.597"/>
<polygon fill="midnightblue" stroke="midnightblue" points="307.153,-196.983 302.25,-187.591 300.226,-197.991 307.153,-196.983"/>
</g>
<!-- Node26 -->
<g id="node26" class="node"><title>Node26</title>
<g id="a_node26"><a xlink:href="../../d1/d17/cccc__tbl_8cc.html" target="_top" xlink:title="cccc_tbl.cc">
<polygon fill="white" stroke="black" points="373.5,-224.5 373.5,-243.5 440.5,-243.5 440.5,-224.5 373.5,-224.5"/>
<text text-anchor="middle" x="407" y="-231.5" font-family="Helvetica,sans-Serif" font-size="10.00">cccc_tbl.cc</text>
</a>
</g>
</g>
<!-- Node25&#45;&gt;Node26 -->
<g id="edge37" class="edge"><title>Node25&#45;&gt;Node26</title>
<path fill="none" stroke="midnightblue" d="M326.345,-280.324C338.789,-271.743 360.609,-258.486 378.524,-248.522"/>
<polygon fill="midnightblue" stroke="midnightblue" points="380.356,-251.51 387.466,-243.655 377.009,-245.362 380.356,-251.51"/>
</g>
<!-- Node26&#45;&gt;Node3 -->
<g id="edge40" class="edge"><title>Node26&#45;&gt;Node3</title>
<path fill="none" stroke="midnightblue" d="M405.978,-224.075C402.988,-197.945 394.205,-121.211 390.126,-85.577"/>
<polygon fill="midnightblue" stroke="midnightblue" points="393.595,-85.1052 388.981,-75.5681 386.641,-85.9013 393.595,-85.1052"/>
</g>
<!-- Node26&#45;&gt;Node16 -->
<g id="edge38" class="edge"><title>Node26&#45;&gt;Node16</title>
<path fill="none" stroke="midnightblue" d="M432.511,-224.444C459.596,-215.359 502.59,-200.939 532.869,-190.783"/>
<polygon fill="midnightblue" stroke="midnightblue" points="534.24,-194.015 542.608,-187.516 532.014,-187.378 534.24,-194.015"/>
</g>
<!-- Node26&#45;&gt;Node25 -->
<g id="edge39" class="edge"><title>Node26&#45;&gt;Node25</title>
<path fill="none" stroke="midnightblue" d="M397.686,-243.655C385.258,-252.228 363.442,-265.483 345.521,-275.453"/>
<polygon fill="midnightblue" stroke="midnightblue" points="343.684,-272.468 336.575,-280.324 347.031,-278.616 343.684,-272.468"/>
</g>
<!-- Node27&#45;&gt;Node24 -->
<g id="edge44" class="edge"><title>Node27&#45;&gt;Node24</title>
<path fill="none" stroke="midnightblue" d="M166.669,-392.444C193.923,-383.359 237.184,-368.939 267.651,-358.783"/>
<polygon fill="midnightblue" stroke="midnightblue" points="269.071,-361.999 277.451,-355.516 266.857,-355.358 269.071,-361.999"/>
</g>
<!-- Node28&#45;&gt;Node2 -->
<g id="edge46" class="edge"><title>Node28&#45;&gt;Node2</title>
<path fill="none" stroke="midnightblue" d="M446.506,-392.325C453.603,-373.959 469,-329.658 469,-291 469,-291 469,-291 469,-233 469,-198.306 487.785,-161.42 500.523,-140.396"/>
<polygon fill="midnightblue" stroke="midnightblue" points="503.65,-141.998 506.021,-131.672 497.728,-138.266 503.65,-141.998"/>
</g>
<!-- Node28&#45;&gt;Node24 -->
<g id="edge47" class="edge"><title>Node28&#45;&gt;Node24</title>
<path fill="none" stroke="midnightblue" d="M420.817,-392.444C397.572,-383.478 360.851,-369.314 334.585,-359.183"/>
<polygon fill="midnightblue" stroke="midnightblue" points="335.669,-355.85 325.08,-355.516 333.15,-362.381 335.669,-355.85"/>
</g>
<!-- Node29&#45;&gt;Node24 -->
<g id="edge49" class="edge"><title>Node29&#45;&gt;Node24</title>
<path fill="none" stroke="midnightblue" d="M240.05,-392.324C251.463,-384.107 268.831,-371.602 282.435,-361.807"/>
<polygon fill="midnightblue" stroke="midnightblue" points="284.66,-364.517 290.731,-355.834 280.57,-358.837 284.66,-364.517"/>
</g>
<!-- Node30&#45;&gt;Node24 -->
<g id="edge51" class="edge"><title>Node30&#45;&gt;Node24</title>
<path fill="none" stroke="midnightblue" d="M314.688,-392.083C312.833,-384.927 310.165,-374.635 307.846,-365.691"/>
<polygon fill="midnightblue" stroke="midnightblue" points="311.166,-364.553 305.269,-355.751 304.391,-366.309 311.166,-364.553"/>
</g>
<!-- Node31&#45;&gt;Node9 -->
<g id="edge53" class="edge"><title>Node31&#45;&gt;Node9</title>
<path fill="none" stroke="midnightblue" d="M485.356,-508.779C394.049,-497.066 149.545,-461.71 87,-412 18.3781,-357.46 0,-322.656 0,-235 0,-235 0,-235 0,-177 0,-137.444 33.5172,-101.616 55.7389,-82.2091"/>
<polygon fill="midnightblue" stroke="midnightblue" points="58.2008,-84.7122 63.6091,-75.6017 53.6999,-79.351 58.2008,-84.7122"/>
</g>
<!-- Node31&#45;&gt;Node16 -->
<g id="edge55" class="edge"><title>Node31&#45;&gt;Node16</title>
<path fill="none" stroke="midnightblue" d="M523.372,-504.313C530.196,-485.923 545,-441.581 545,-403 545,-403 545,-403 545,-289 545,-256.12 554.968,-218.86 561.779,-197.235"/>
<polygon fill="midnightblue" stroke="midnightblue" points="565.112,-198.303 564.898,-187.711 558.46,-196.125 565.112,-198.303"/>
</g>
<!-- Node31&#45;&gt;Node19 -->
<g id="edge54" class="edge"><title>Node31&#45;&gt;Node19</title>
<path fill="none" stroke="midnightblue" d="M500.669,-504.444C480.68,-495.596 449.257,-481.687 426.436,-471.586"/>
<polygon fill="midnightblue" stroke="midnightblue" points="427.802,-468.363 417.241,-467.516 424.968,-474.764 427.802,-468.363"/>
</g>
<!-- Node32&#45;&gt;Node2 -->
<g id="edge57" class="edge"><title>Node32&#45;&gt;Node2</title>
<path fill="none" stroke="midnightblue" d="M704.131,-560.442C704.402,-541.937 705,-496.814 705,-459 705,-459 705,-459 705,-233 705,-160.355 600.514,-135.06 545.301,-126.765"/>
<polygon fill="midnightblue" stroke="midnightblue" points="545.668,-123.283 535.28,-125.365 544.7,-130.216 545.668,-123.283"/>
</g>
<!-- Node32&#45;&gt;Node12 -->
<g id="edge58" class="edge"><title>Node32&#45;&gt;Node12</title>
<path fill="none" stroke="midnightblue" d="M706.783,-560.403C709.681,-551.369 714.307,-536.73 718,-524 770.844,-341.871 762.382,-289.554 829,-112 832.475,-102.739 837.205,-92.8229 841.389,-84.663"/>
<polygon fill="midnightblue" stroke="midnightblue" points="844.525,-86.2195 846.101,-75.7425 838.336,-82.9502 844.525,-86.2195"/>
</g>
<!-- Node32&#45;&gt;Node18 -->
<g id="edge59" class="edge"><title>Node32&#45;&gt;Node18</title>
<path fill="none" stroke="midnightblue" d="M718.299,-560.324C732.183,-551.9 753.492,-538.971 769.804,-529.074"/>
<polygon fill="midnightblue" stroke="midnightblue" points="772.002,-531.834 778.736,-523.655 768.371,-525.85 772.002,-531.834"/>
</g>
<!-- Node32&#45;&gt;Node19 -->
<g id="edge60" class="edge"><title>Node32&#45;&gt;Node19</title>
<path fill="none" stroke="midnightblue" d="M687.873,-560.493C662.056,-547.122 609.606,-520.965 563,-504 521.911,-489.043 473.494,-476.403 439.777,-468.364"/>
<polygon fill="midnightblue" stroke="midnightblue" points="440.345,-464.902 429.809,-466.019 438.742,-471.716 440.345,-464.902"/>
</g>
<!-- Node32&#45;&gt;Node31 -->
<g id="edge61" class="edge"><title>Node32&#45;&gt;Node31</title>
<path fill="none" stroke="midnightblue" d="M674.845,-560.444C643.487,-551.241 593.469,-536.562 558.803,-526.388"/>
<polygon fill="midnightblue" stroke="midnightblue" points="559.6,-522.974 549.019,-523.516 557.629,-529.691 559.6,-522.974"/>
</g>
</g>
</svg>
