<?xml version="1.0" encoding="UTF-8" standalone="no"?>
<!DOCTYPE svg PUBLIC "-//W3C//DTD SVG 1.1//EN"
 "http://www.w3.org/Graphics/SVG/1.1/DTD/svg11.dtd">
<!-- Generated by graphviz version 2.38.0 (20140413.2041)
 -->
<!-- Title: CCCC_Metric Pages: 1 -->
<svg width="317pt" height="254pt"
 viewBox="0.00 0.00 316.50 254.00" xmlns="http://www.w3.org/2000/svg" xmlns:xlink="http://www.w3.org/1999/xlink">
<g id="graph0" class="graph" transform="scale(1 1) rotate(0) translate(4 250)">
<title>CCCC_Metric</title>
<polygon fill="white" stroke="none" points="-4,4 -4,-250 312.5,-250 312.5,4 -4,4"/>
<!-- Node1 -->
<g id="node1" class="node"><title>Node1</title>
<polygon fill="#bfbfbf" stroke="black" points="2.5,-0.5 2.5,-19.5 84.5,-19.5 84.5,-0.5 2.5,-0.5"/>
<text text-anchor="middle" x="43.5" y="-7.5" font-family="Helvetica,sans-Serif" font-size="10.00">CCCC_Metric</text>
</g>
<!-- Node2 -->
<g id="node2" class="node"><title>Node2</title>
<polygon fill="white" stroke="#bfbfbf" points="0,-158.5 0,-177.5 37,-177.5 37,-158.5 0,-158.5"/>
<text text-anchor="middle" x="18.5" y="-165.5" font-family="Helvetica,sans-Serif" font-size="10.00">float</text>
</g>
<!-- Node2&#45;&gt;Node1 -->
<g id="edge1" class="edge"><title>Node2&#45;&gt;Node1</title>
<path fill="none" stroke="#9a32cd" stroke-dasharray="5,2" d="M14.0084,-148.435C9.86398,-128.105 5.34299,-94.7064 12.5,-67 17.2248,-48.7092 29.3448,-30.016 36.9548,-19.5208"/>
<polygon fill="#9a32cd" stroke="#9a32cd" points="10.6072,-149.265 16.1955,-158.266 17.4402,-147.744 10.6072,-149.265"/>
<text text-anchor="middle" x="44" y="-81" font-family="Helvetica,sans-Serif" font-size="10.00"> denominator</text>
<text text-anchor="middle" x="44" y="-70" font-family="Helvetica,sans-Serif" font-size="10.00">numerator</text>
</g>
<!-- Node3 -->
<g id="node3" class="node"><title>Node3</title>
<g id="a_node3"><a xlink:href="../../da/d98/classMetric__Treatment.html" target="_top" xlink:title="Metric_Treatment">
<polygon fill="white" stroke="black" points="85,-68.5 85,-87.5 186,-87.5 186,-68.5 85,-68.5"/>
<text text-anchor="middle" x="135.5" y="-75.5" font-family="Helvetica,sans-Serif" font-size="10.00">Metric_Treatment</text>
</a>
</g>
</g>
<!-- Node2&#45;&gt;Node3 -->
<g id="edge3" class="edge"><title>Node2&#45;&gt;Node3</title>
<path fill="none" stroke="#9a32cd" stroke-dasharray="5,2" d="M25.0653,-148.803C30.7181,-135.513 40.098,-117.969 53.5,-107 64.5592,-97.9487 78.7027,-91.7592 92.1184,-87.5541"/>
<polygon fill="#9a32cd" stroke="#9a32cd" points="21.7168,-147.755 21.3252,-158.343 28.2338,-150.31 21.7168,-147.755"/>
<text text-anchor="middle" x="93" y="-126.5" font-family="Helvetica,sans-Serif" font-size="10.00"> lower_threshold</text>
<text text-anchor="middle" x="93" y="-115.5" font-family="Helvetica,sans-Serif" font-size="10.00">upper_threshold</text>
</g>
<!-- Node3&#45;&gt;Node1 -->
<g id="edge2" class="edge"><title>Node3&#45;&gt;Node1</title>
<path fill="none" stroke="#9a32cd" stroke-dasharray="5,2" d="M115.225,-62.4551C96.9479,-49.3431 70.6841,-30.5016 55.5303,-19.6305"/>
<polygon fill="#9a32cd" stroke="#9a32cd" points="113.307,-65.3864 123.473,-68.3717 117.387,-59.6986 113.307,-65.3864"/>
<text text-anchor="middle" x="120" y="-41" font-family="Helvetica,sans-Serif" font-size="10.00"> treatment</text>
</g>
<!-- Node4 -->
<g id="node4" class="node"><title>Node4</title>
<polygon fill="white" stroke="#bfbfbf" points="123,-158.5 123,-177.5 152,-177.5 152,-158.5 123,-158.5"/>
<text text-anchor="middle" x="137.5" y="-165.5" font-family="Helvetica,sans-Serif" font-size="10.00">int</text>
</g>
<!-- Node4&#45;&gt;Node3 -->
<g id="edge4" class="edge"><title>Node4&#45;&gt;Node3</title>
<path fill="none" stroke="#9a32cd" stroke-dasharray="5,2" d="M137.074,-148.242C136.649,-129.571 136.017,-101.735 135.698,-87.7241"/>
<polygon fill="#9a32cd" stroke="#9a32cd" points="133.575,-148.323 137.301,-158.241 140.573,-148.164 133.575,-148.323"/>
<text text-anchor="middle" x="187" y="-132" font-family="Helvetica,sans-Serif" font-size="10.00"> width</text>
<text text-anchor="middle" x="187" y="-121" font-family="Helvetica,sans-Serif" font-size="10.00">numerator_threshold</text>
<text text-anchor="middle" x="187" y="-110" font-family="Helvetica,sans-Serif" font-size="10.00">precision</text>
</g>
<!-- Node5 -->
<g id="node5" class="node"><title>Node5</title>
<g id="a_node5"><a xlink:title="STL class. ">
<polygon fill="white" stroke="#bfbfbf" points="228.5,-158.5 228.5,-177.5 290.5,-177.5 290.5,-158.5 228.5,-158.5"/>
<text text-anchor="middle" x="259.5" y="-165.5" font-family="Helvetica,sans-Serif" font-size="10.00">std::string</text>
</a>
</g>
</g>
<!-- Node5&#45;&gt;Node3 -->
<g id="edge5" class="edge"><title>Node5&#45;&gt;Node3</title>
<path fill="none" stroke="#9a32cd" stroke-dasharray="5,2" d="M257.206,-148.3C254.611,-135.005 249.111,-117.679 237.5,-107 223.511,-94.1335 204.161,-87.094 186.071,-83.2729"/>
<polygon fill="#9a32cd" stroke="#9a32cd" points="253.765,-148.948 258.773,-158.285 260.68,-147.863 253.765,-148.948"/>
<text text-anchor="middle" x="270.5" y="-126.5" font-family="Helvetica,sans-Serif" font-size="10.00"> name</text>
<text text-anchor="middle" x="270.5" y="-115.5" font-family="Helvetica,sans-Serif" font-size="10.00">code</text>
</g>
<!-- Node6 -->
<g id="node6" class="node"><title>Node6</title>
<g id="a_node6"><a xlink:title="STL class. ">
<polygon fill="white" stroke="#bfbfbf" points="210.5,-215.5 210.5,-245.5 308.5,-245.5 308.5,-215.5 210.5,-215.5"/>
<text text-anchor="start" x="218.5" y="-233.5" font-family="Helvetica,sans-Serif" font-size="10.00">std::basic_string&lt;</text>
<text text-anchor="middle" x="259.5" y="-222.5" font-family="Helvetica,sans-Serif" font-size="10.00"> char &gt;</text>
</a>
</g>
</g>
<!-- Node6&#45;&gt;Node5 -->
<g id="edge6" class="edge"><title>Node6&#45;&gt;Node5</title>
<path fill="none" stroke="midnightblue" d="M259.5,-205.352C259.5,-195.513 259.5,-184.775 259.5,-177.54"/>
<polygon fill="midnightblue" stroke="midnightblue" points="256,-205.468 259.5,-215.468 263,-205.468 256,-205.468"/>
</g>
</g>
</svg>
