<?xml version="1.0" encoding="UTF-8" standalone="no"?>
<!DOCTYPE svg PUBLIC "-//W3C//DTD SVG 1.1//EN"
 "http://www.w3.org/Graphics/SVG/1.1/DTD/svg11.dtd">
<!-- Generated by graphviz version 2.38.0 (20140413.2041)
 -->
<!-- Title: IncrementCount Pages: 1 -->
<svg width="224pt" height="446pt"
 viewBox="0.00 0.00 224.00 446.00" xmlns="http://www.w3.org/2000/svg" xmlns:xlink="http://www.w3.org/1999/xlink">
<g id="graph0" class="graph" transform="scale(1 1) rotate(0) translate(4 442)">
<title>IncrementCount</title>
<polygon fill="white" stroke="none" points="-4,4 -4,-442 220,-442 220,4 -4,4"/>
<!-- Node1 -->
<g id="node1" class="node"><title>Node1</title>
<polygon fill="#bfbfbf" stroke="black" points="0,-209.5 0,-228.5 92,-228.5 92,-209.5 0,-209.5"/>
<text text-anchor="middle" x="46" y="-216.5" font-family="Helvetica,sans-Serif" font-size="10.00">IncrementCount</text>
</g>
<!-- Node2 -->
<g id="node2" class="node"><title>Node2</title>
<g id="a_node2"><a xlink:href="../../dd/d32/classCLexer.html#aad88986939864fabff2d7252fec27345" target="_top" xlink:title="CLexer::act21">
<polygon fill="white" stroke="black" points="131,-418.5 131,-437.5 213,-437.5 213,-418.5 131,-418.5"/>
<text text-anchor="middle" x="172" y="-425.5" font-family="Helvetica,sans-Serif" font-size="10.00">CLexer::act21</text>
</a>
</g>
</g>
<!-- Node1&#45;&gt;Node2 -->
<g id="edge1" class="edge"><title>Node1&#45;&gt;Node2</title>
<path fill="none" stroke="midnightblue" d="M50.4657,-238.889C58.0267,-276.739 79.3764,-359.736 128,-409 131.784,-412.834 136.475,-415.954 141.354,-418.473"/>
<polygon fill="midnightblue" stroke="midnightblue" points="53.8338,-237.861 48.5469,-228.68 46.9542,-239.154 53.8338,-237.861"/>
</g>
<!-- Node3 -->
<g id="node3" class="node"><title>Node3</title>
<g id="a_node3"><a xlink:href="../../dd/d32/classCLexer.html#a2b86af4e1bc87b992d2c537f22de8f01" target="_top" xlink:title="CLexer::act36">
<polygon fill="white" stroke="black" points="131,-380.5 131,-399.5 213,-399.5 213,-380.5 131,-380.5"/>
<text text-anchor="middle" x="172" y="-387.5" font-family="Helvetica,sans-Serif" font-size="10.00">CLexer::act36</text>
</a>
</g>
</g>
<!-- Node1&#45;&gt;Node3 -->
<g id="edge2" class="edge"><title>Node1&#45;&gt;Node3</title>
<path fill="none" stroke="midnightblue" d="M52.7066,-238.356C62.9408,-270.016 87.2393,-333.132 128,-371 132.066,-374.777 137.006,-377.889 142.068,-380.421"/>
<polygon fill="midnightblue" stroke="midnightblue" points="55.9744,-237.077 49.6693,-228.563 49.2886,-239.151 55.9744,-237.077"/>
</g>
<!-- Node4 -->
<g id="node4" class="node"><title>Node4</title>
<g id="a_node4"><a xlink:href="../../dd/d32/classCLexer.html#afed92d1e574fedf13670f97d38a3a227" target="_top" xlink:title="CLexer::act39">
<polygon fill="white" stroke="black" points="131,-342.5 131,-361.5 213,-361.5 213,-342.5 131,-342.5"/>
<text text-anchor="middle" x="172" y="-349.5" font-family="Helvetica,sans-Serif" font-size="10.00">CLexer::act39</text>
</a>
</g>
</g>
<!-- Node1&#45;&gt;Node4 -->
<g id="edge3" class="edge"><title>Node1&#45;&gt;Node4</title>
<path fill="none" stroke="midnightblue" d="M56.1366,-237.617C69.0894,-262.339 94.9375,-306.014 128,-333 132.552,-336.716 137.945,-339.844 143.346,-342.422"/>
<polygon fill="midnightblue" stroke="midnightblue" points="59.1876,-235.895 51.532,-228.571 52.9493,-239.071 59.1876,-235.895"/>
</g>
<!-- Node5 -->
<g id="node5" class="node"><title>Node5</title>
<g id="a_node5"><a xlink:href="../../dd/d32/classCLexer.html#a71b9463590c03f09c058655fc9d74808" target="_top" xlink:title="CLexer::act49">
<polygon fill="white" stroke="black" points="131,-304.5 131,-323.5 213,-323.5 213,-304.5 131,-304.5"/>
<text text-anchor="middle" x="172" y="-311.5" font-family="Helvetica,sans-Serif" font-size="10.00">CLexer::act49</text>
</a>
</g>
</g>
<!-- Node1&#45;&gt;Node5 -->
<g id="edge4" class="edge"><title>Node1&#45;&gt;Node5</title>
<path fill="none" stroke="midnightblue" d="M62.3173,-236.451C77.6558,-253.133 102.575,-278.167 128,-295 133.308,-298.514 139.373,-301.651 145.242,-304.314"/>
<polygon fill="midnightblue" stroke="midnightblue" points="64.8954,-234.084 55.597,-229.005 59.699,-238.774 64.8954,-234.084"/>
</g>
<!-- Node6 -->
<g id="node6" class="node"><title>Node6</title>
<g id="a_node6"><a xlink:href="../../dd/d32/classCLexer.html#a956d715ad7080369c53ef802dd53de08" target="_top" xlink:title="CLexer::act55">
<polygon fill="white" stroke="black" points="131,-266.5 131,-285.5 213,-285.5 213,-266.5 131,-266.5"/>
<text text-anchor="middle" x="172" y="-273.5" font-family="Helvetica,sans-Serif" font-size="10.00">CLexer::act55</text>
</a>
</g>
</g>
<!-- Node1&#45;&gt;Node6 -->
<g id="edge5" class="edge"><title>Node1&#45;&gt;Node6</title>
<path fill="none" stroke="midnightblue" d="M76.7063,-233.132C91.9944,-240.356 110.954,-249.237 128,-257 134.833,-260.112 142.309,-263.441 149.082,-266.429"/>
<polygon fill="midnightblue" stroke="midnightblue" points="77.7829,-229.77 67.247,-228.654 74.7872,-236.096 77.7829,-229.77"/>
</g>
<!-- Node7 -->
<g id="node7" class="node"><title>Node7</title>
<g id="a_node7"><a xlink:href="../../dd/d32/classCLexer.html#a955b65f353b8dae07ed95d70c609c6f8" target="_top" xlink:title="CLexer::act66">
<polygon fill="white" stroke="black" points="131,-228.5 131,-247.5 213,-247.5 213,-228.5 131,-228.5"/>
<text text-anchor="middle" x="172" y="-235.5" font-family="Helvetica,sans-Serif" font-size="10.00">CLexer::act66</text>
</a>
</g>
</g>
<!-- Node1&#45;&gt;Node7 -->
<g id="edge6" class="edge"><title>Node1&#45;&gt;Node7</title>
<path fill="none" stroke="midnightblue" d="M102.027,-227.431C111.652,-228.906 121.505,-230.416 130.64,-231.816"/>
<polygon fill="midnightblue" stroke="midnightblue" points="102.532,-223.968 92.1176,-225.913 101.472,-230.887 102.532,-223.968"/>
</g>
<!-- Node8 -->
<g id="node8" class="node"><title>Node8</title>
<g id="a_node8"><a xlink:href="../../dd/d32/classCLexer.html#a2986d584937e47371854b8c834cbb5f9" target="_top" xlink:title="CLexer::act96">
<polygon fill="white" stroke="black" points="131,-190.5 131,-209.5 213,-209.5 213,-190.5 131,-190.5"/>
<text text-anchor="middle" x="172" y="-197.5" font-family="Helvetica,sans-Serif" font-size="10.00">CLexer::act96</text>
</a>
</g>
</g>
<!-- Node1&#45;&gt;Node8 -->
<g id="edge7" class="edge"><title>Node1&#45;&gt;Node8</title>
<path fill="none" stroke="midnightblue" d="M102.027,-210.569C111.652,-209.094 121.505,-207.584 130.64,-206.184"/>
<polygon fill="midnightblue" stroke="midnightblue" points="101.472,-207.113 92.1176,-212.087 102.532,-214.032 101.472,-207.113"/>
</g>
<!-- Node9 -->
<g id="node9" class="node"><title>Node9</title>
<g id="a_node9"><a xlink:href="../../dd/d32/classCLexer.html#a566b1c373e26a1484e037572f3bfc9d2" target="_top" xlink:title="CLexer::act97">
<polygon fill="white" stroke="black" points="131,-152.5 131,-171.5 213,-171.5 213,-152.5 131,-152.5"/>
<text text-anchor="middle" x="172" y="-159.5" font-family="Helvetica,sans-Serif" font-size="10.00">CLexer::act97</text>
</a>
</g>
</g>
<!-- Node1&#45;&gt;Node9 -->
<g id="edge8" class="edge"><title>Node1&#45;&gt;Node9</title>
<path fill="none" stroke="midnightblue" d="M76.7063,-204.868C91.9944,-197.644 110.954,-188.763 128,-181 134.833,-177.888 142.309,-174.559 149.082,-171.571"/>
<polygon fill="midnightblue" stroke="midnightblue" points="74.7872,-201.904 67.247,-209.346 77.7829,-208.23 74.7872,-201.904"/>
</g>
<!-- Node10 -->
<g id="node10" class="node"><title>Node10</title>
<g id="a_node10"><a xlink:href="../../dd/d32/classCLexer.html#a115a0a5bf51c5531adb01b8f33fd8b4d" target="_top" xlink:title="CLexer::act99">
<polygon fill="white" stroke="black" points="131,-114.5 131,-133.5 213,-133.5 213,-114.5 131,-114.5"/>
<text text-anchor="middle" x="172" y="-121.5" font-family="Helvetica,sans-Serif" font-size="10.00">CLexer::act99</text>
</a>
</g>
</g>
<!-- Node1&#45;&gt;Node10 -->
<g id="edge9" class="edge"><title>Node1&#45;&gt;Node10</title>
<path fill="none" stroke="midnightblue" d="M62.3173,-201.549C77.6558,-184.867 102.575,-159.833 128,-143 133.308,-139.486 139.373,-136.349 145.242,-133.686"/>
<polygon fill="midnightblue" stroke="midnightblue" points="59.699,-199.226 55.597,-208.995 64.8954,-203.916 59.699,-199.226"/>
</g>
<!-- Node11 -->
<g id="node11" class="node"><title>Node11</title>
<g id="a_node11"><a xlink:href="../../dd/d32/classCLexer.html#a3e53384b670ab171a2ae7b06186fd37c" target="_top" xlink:title="CLexer::act150">
<polygon fill="white" stroke="black" points="128,-76.5 128,-95.5 216,-95.5 216,-76.5 128,-76.5"/>
<text text-anchor="middle" x="172" y="-83.5" font-family="Helvetica,sans-Serif" font-size="10.00">CLexer::act150</text>
</a>
</g>
</g>
<!-- Node1&#45;&gt;Node11 -->
<g id="edge10" class="edge"><title>Node1&#45;&gt;Node11</title>
<path fill="none" stroke="midnightblue" d="M56.1366,-200.383C69.0894,-175.661 94.9375,-131.986 128,-105 132.552,-101.284 137.945,-98.1557 143.346,-95.5779"/>
<polygon fill="midnightblue" stroke="midnightblue" points="52.9493,-198.929 51.532,-209.429 59.1876,-202.105 52.9493,-198.929"/>
</g>
<!-- Node12 -->
<g id="node12" class="node"><title>Node12</title>
<g id="a_node12"><a xlink:href="../../dd/d32/classCLexer.html#a093e5988ba7d2c9111ce5aeab42ea542" target="_top" xlink:title="CLexer::act153">
<polygon fill="white" stroke="black" points="128,-38.5 128,-57.5 216,-57.5 216,-38.5 128,-38.5"/>
<text text-anchor="middle" x="172" y="-45.5" font-family="Helvetica,sans-Serif" font-size="10.00">CLexer::act153</text>
</a>
</g>
</g>
<!-- Node1&#45;&gt;Node12 -->
<g id="edge11" class="edge"><title>Node1&#45;&gt;Node12</title>
<path fill="none" stroke="midnightblue" d="M52.7066,-199.644C62.9408,-167.984 87.2393,-104.868 128,-67 132.066,-63.2226 137.006,-60.1114 142.068,-57.5789"/>
<polygon fill="midnightblue" stroke="midnightblue" points="49.2886,-198.849 49.6693,-209.437 55.9744,-200.923 49.2886,-198.849"/>
</g>
<!-- Node13 -->
<g id="node13" class="node"><title>Node13</title>
<g id="a_node13"><a xlink:href="../../dd/d32/classCLexer.html#ae979f3035aa96fa2dbf9ad01da684991" target="_top" xlink:title="CLexer::act154">
<polygon fill="white" stroke="black" points="128,-0.5 128,-19.5 216,-19.5 216,-0.5 128,-0.5"/>
<text text-anchor="middle" x="172" y="-7.5" font-family="Helvetica,sans-Serif" font-size="10.00">CLexer::act154</text>
</a>
</g>
</g>
<!-- Node1&#45;&gt;Node13 -->
<g id="edge12" class="edge"><title>Node1&#45;&gt;Node13</title>
<path fill="none" stroke="midnightblue" d="M50.4657,-199.111C58.0267,-161.261 79.3764,-78.2637 128,-29 131.784,-25.1662 136.475,-22.0464 141.354,-19.5272"/>
<polygon fill="midnightblue" stroke="midnightblue" points="46.9542,-198.846 48.5469,-209.32 53.8338,-200.139 46.9542,-198.846"/>
</g>
</g>
</svg>
