<?xml version="1.0" encoding="UTF-8" standalone="no"?>
<!DOCTYPE svg PUBLIC "-//W3C//DTD SVG 1.1//EN"
 "http://www.w3.org/Graphics/SVG/1.1/DTD/svg11.dtd">
<!-- Generated by graphviz version 2.38.0 (20140413.2041)
 -->
<!-- Title: CCCC_Member::ToFile Pages: 1 -->
<svg width="462pt" height="218pt"
 viewBox="0.00 0.00 462.00 218.00" xmlns="http://www.w3.org/2000/svg" xmlns:xlink="http://www.w3.org/1999/xlink">
<g id="graph0" class="graph" transform="scale(1 1) rotate(0) translate(4 214)">
<title>CCCC_Member::ToFile</title>
<polygon fill="white" stroke="none" points="-4,4 -4,-214 458,-214 458,4 -4,4"/>
<!-- Node1 -->
<g id="node1" class="node"><title>Node1</title>
<polygon fill="#bfbfbf" stroke="black" points="0,-95.5 0,-114.5 125,-114.5 125,-95.5 0,-95.5"/>
<text text-anchor="middle" x="62.5" y="-102.5" font-family="Helvetica,sans-Serif" font-size="10.00">CCCC_Member::ToFile</text>
</g>
<!-- Node2 -->
<g id="node2" class="node"><title>Node2</title>
<g id="a_node2"><a xlink:href="../../db/d6a/classCCCC__Item.html#a87231c9aa43ece932511d1143b64367e" target="_top" xlink:title="CCCC_Item::Insert">
<polygon fill="white" stroke="black" points="343,-95.5 343,-114.5 447,-114.5 447,-95.5 343,-95.5"/>
<text text-anchor="middle" x="395" y="-102.5" font-family="Helvetica,sans-Serif" font-size="10.00">CCCC_Item::Insert</text>
</a>
</g>
</g>
<!-- Node1&#45;&gt;Node2 -->
<g id="edge1" class="edge"><title>Node1&#45;&gt;Node2</title>
<path fill="none" stroke="midnightblue" d="M81.9394,-114.583C101.102,-123.96 132.254,-137.596 161,-143 221.714,-154.413 239.358,-154.794 300,-143 323.581,-138.414 348.734,-127.918 367.082,-119.117"/>
<polygon fill="midnightblue" stroke="midnightblue" points="368.85,-122.147 376.266,-114.58 365.75,-115.871 368.85,-122.147"/>
</g>
<!-- Node3 -->
<g id="node3" class="node"><title>Node3</title>
<g id="a_node3"><a xlink:href="../../d6/d85/classCCCC__Record.html#a81bf0541981287180a41e3d801e7a084" target="_top" xlink:title="CCCC_Record::key">
<polygon fill="white" stroke="black" points="176.5,-190.5 176.5,-209.5 284.5,-209.5 284.5,-190.5 176.5,-190.5"/>
<text text-anchor="middle" x="230.5" y="-197.5" font-family="Helvetica,sans-Serif" font-size="10.00">CCCC_Record::key</text>
</a>
</g>
</g>
<!-- Node1&#45;&gt;Node3 -->
<g id="edge2" class="edge"><title>Node1&#45;&gt;Node3</title>
<path fill="none" stroke="midnightblue" d="M74.4853,-114.684C91.8253,-129.565 127.068,-158.196 161,-176 168.945,-180.169 177.77,-183.875 186.37,-187.054"/>
<polygon fill="midnightblue" stroke="midnightblue" points="185.331,-190.399 195.926,-190.415 187.654,-183.795 185.331,-190.399"/>
</g>
<!-- Node5 -->
<g id="node5" class="node"><title>Node5</title>
<g id="a_node5"><a xlink:href="../../db/d6a/classCCCC__Item.html#a5a3ccfe13d6c77b27cf93182f8cafb58" target="_top" xlink:title="CCCC_Item::ToFile">
<polygon fill="white" stroke="black" points="177,-114.5 177,-133.5 284,-133.5 284,-114.5 177,-114.5"/>
<text text-anchor="middle" x="230.5" y="-121.5" font-family="Helvetica,sans-Serif" font-size="10.00">CCCC_Item::ToFile</text>
</a>
</g>
</g>
<!-- Node1&#45;&gt;Node5 -->
<g id="edge4" class="edge"><title>Node1&#45;&gt;Node5</title>
<path fill="none" stroke="midnightblue" d="M125.312,-112.075C138.828,-113.622 153.147,-115.261 166.701,-116.812"/>
<polygon fill="midnightblue" stroke="midnightblue" points="166.558,-120.319 176.891,-117.978 167.354,-113.364 166.558,-120.319"/>
</g>
<!-- Node6 -->
<g id="node6" class="node"><title>Node6</title>
<g id="a_node6"><a xlink:href="../../d8/dcf/classCCCC__Table.html#a0d099c7bc984323270cc8c63d5ff8379" target="_top" xlink:title="CCCC_Table::first_item">
<polygon fill="white" stroke="black" points="167.5,-76.5 167.5,-95.5 293.5,-95.5 293.5,-76.5 167.5,-76.5"/>
<text text-anchor="middle" x="230.5" y="-83.5" font-family="Helvetica,sans-Serif" font-size="10.00">CCCC_Table::first_item</text>
</a>
</g>
</g>
<!-- Node1&#45;&gt;Node6 -->
<g id="edge5" class="edge"><title>Node1&#45;&gt;Node6</title>
<path fill="none" stroke="midnightblue" d="M125.312,-97.9251C135.721,-96.7338 146.606,-95.4879 157.25,-94.2695"/>
<polygon fill="midnightblue" stroke="midnightblue" points="157.822,-97.727 167.359,-93.1125 157.026,-90.7724 157.822,-97.727"/>
</g>
<!-- Node7 -->
<g id="node7" class="node"><title>Node7</title>
<g id="a_node7"><a xlink:href="../../df/d99/classCCCC__Extent.html#a6fed4380d820bfad0a27934a62cf15be" target="_top" xlink:title="CCCC_Extent::AddToItem">
<polygon fill="white" stroke="black" points="161,-38.5 161,-57.5 300,-57.5 300,-38.5 161,-38.5"/>
<text text-anchor="middle" x="230.5" y="-45.5" font-family="Helvetica,sans-Serif" font-size="10.00">CCCC_Extent::AddToItem</text>
</a>
</g>
</g>
<!-- Node1&#45;&gt;Node7 -->
<g id="edge6" class="edge"><title>Node1&#45;&gt;Node7</title>
<path fill="none" stroke="midnightblue" d="M86.1146,-95.4356C105.725,-87.3231 134.97,-75.6581 161,-67 167.924,-64.697 175.303,-62.4444 182.559,-60.3416"/>
<polygon fill="midnightblue" stroke="midnightblue" points="183.653,-63.6693 192.321,-57.5764 181.746,-56.9343 183.653,-63.6693"/>
</g>
<!-- Node8 -->
<g id="node8" class="node"><title>Node8</title>
<g id="a_node8"><a xlink:href="../../d8/dcf/classCCCC__Table.html#a080274070f7d48b68bd8d3291818d76f" target="_top" xlink:title="CCCC_Table::next_item">
<polygon fill="white" stroke="black" points="166,-0.5 166,-19.5 295,-19.5 295,-0.5 166,-0.5"/>
<text text-anchor="middle" x="230.5" y="-7.5" font-family="Helvetica,sans-Serif" font-size="10.00">CCCC_Table::next_item</text>
</a>
</g>
</g>
<!-- Node1&#45;&gt;Node8 -->
<g id="edge8" class="edge"><title>Node1&#45;&gt;Node8</title>
<path fill="none" stroke="midnightblue" d="M73.1182,-95.3455C89.6509,-79.2798 125.151,-47.045 161,-29 165.568,-26.7007 170.452,-24.6479 175.43,-22.8221"/>
<polygon fill="midnightblue" stroke="midnightblue" points="176.696,-26.089 185.06,-19.5856 174.466,-19.4537 176.696,-26.089"/>
</g>
<!-- Node4 -->
<g id="node4" class="node"><title>Node4</title>
<g id="a_node4"><a xlink:href="../../d6/d85/classCCCC__Record.html#a03c15972bea5df4e34930fa4c34e34bd" target="_top" xlink:title="CCCC_Record::name">
<polygon fill="white" stroke="black" points="336,-190.5 336,-209.5 454,-209.5 454,-190.5 336,-190.5"/>
<text text-anchor="middle" x="395" y="-197.5" font-family="Helvetica,sans-Serif" font-size="10.00">CCCC_Record::name</text>
</a>
</g>
</g>
<!-- Node3&#45;&gt;Node4 -->
<g id="edge3" class="edge"><title>Node3&#45;&gt;Node4</title>
<path fill="none" stroke="midnightblue" d="M284.709,-200C297.764,-200 311.921,-200 325.581,-200"/>
<polygon fill="midnightblue" stroke="midnightblue" points="325.904,-203.5 335.904,-200 325.904,-196.5 325.904,-203.5"/>
</g>
<!-- Node7&#45;&gt;Node2 -->
<g id="edge7" class="edge"><title>Node7&#45;&gt;Node2</title>
<path fill="none" stroke="midnightblue" d="M269.064,-57.5919C279.178,-60.399 290.067,-63.6269 300,-67 321.236,-74.2114 344.617,-83.6569 362.748,-91.3266"/>
<polygon fill="midnightblue" stroke="midnightblue" points="361.663,-94.669 372.234,-95.3794 364.413,-88.2319 361.663,-94.669"/>
</g>
</g>
</svg>
