<?xml version="1.0" encoding="UTF-8" standalone="no"?>
<!DOCTYPE svg PUBLIC "-//W3C//DTD SVG 1.1//EN"
 "http://www.w3.org/Graphics/SVG/1.1/DTD/svg11.dtd">
<!-- Generated by graphviz version 2.38.0 (20140413.2041)
 -->
<!-- Title: CCCC_Member::ToFile Pages: 1 -->
<svg width="515pt" height="28pt"
 viewBox="0.00 0.00 515.00 28.00" xmlns="http://www.w3.org/2000/svg" xmlns:xlink="http://www.w3.org/1999/xlink">
<g id="graph0" class="graph" transform="scale(1 1) rotate(0) translate(4 24)">
<title>CCCC_Member::ToFile</title>
<polygon fill="white" stroke="none" points="-4,4 -4,-24 511,-24 511,4 -4,4"/>
<!-- Node1 -->
<g id="node1" class="node"><title>Node1</title>
<polygon fill="#bfbfbf" stroke="black" points="0,-0.5 0,-19.5 125,-19.5 125,-0.5 0,-0.5"/>
<text text-anchor="middle" x="62.5" y="-7.5" font-family="Helvetica,sans-Serif" font-size="10.00">CCCC_Member::ToFile</text>
</g>
<!-- Node2 -->
<g id="node2" class="node"><title>Node2</title>
<g id="a_node2"><a xlink:href="../../d4/d6e/classCCCC__Project.html#ad2b4c25d24f7ed427c79bd9c7bd8a971" target="_top" xlink:title="CCCC_Project::ToFile">
<polygon fill="white" stroke="black" points="161,-0.5 161,-19.5 280,-19.5 280,-0.5 161,-0.5"/>
<text text-anchor="middle" x="220.5" y="-7.5" font-family="Helvetica,sans-Serif" font-size="10.00">CCCC_Project::ToFile</text>
</a>
</g>
</g>
<!-- Node1&#45;&gt;Node2 -->
<g id="edge1" class="edge"><title>Node1&#45;&gt;Node2</title>
<path fill="none" stroke="midnightblue" d="M135.17,-10C143.762,-10 152.458,-10 160.836,-10"/>
<polygon fill="midnightblue" stroke="midnightblue" points="135.155,-6.5001 125.155,-10 135.155,-13.5001 135.155,-6.5001"/>
</g>
<!-- Node3 -->
<g id="node3" class="node"><title>Node3</title>
<g id="a_node3"><a xlink:href="../../db/d4a/classMain.html#a73e7ee7cdbee235ec767f6d66b595b5e" target="_top" xlink:title="Main::DumpDatabase">
<polygon fill="white" stroke="black" points="316,-0.5 316,-19.5 432,-19.5 432,-0.5 316,-0.5"/>
<text text-anchor="middle" x="374" y="-7.5" font-family="Helvetica,sans-Serif" font-size="10.00">Main::DumpDatabase</text>
</a>
</g>
</g>
<!-- Node2&#45;&gt;Node3 -->
<g id="edge2" class="edge"><title>Node2&#45;&gt;Node3</title>
<path fill="none" stroke="midnightblue" d="M290.298,-10C298.75,-10 307.319,-10 315.579,-10"/>
<polygon fill="midnightblue" stroke="midnightblue" points="290.074,-6.5001 280.074,-10 290.074,-13.5001 290.074,-6.5001"/>
</g>
<!-- Node4 -->
<g id="node4" class="node"><title>Node4</title>
<g id="a_node4"><a xlink:href="../../d6/d93/ccccmain_8cc.html#a3c04138a5bfe5d72780bb7e82a18e627" target="_top" xlink:title="main">
<polygon fill="white" stroke="black" points="468,-0.5 468,-19.5 507,-19.5 507,-0.5 468,-0.5"/>
<text text-anchor="middle" x="487.5" y="-7.5" font-family="Helvetica,sans-Serif" font-size="10.00">main</text>
</a>
</g>
</g>
<!-- Node3&#45;&gt;Node4 -->
<g id="edge3" class="edge"><title>Node3&#45;&gt;Node4</title>
<path fill="none" stroke="midnightblue" d="M442.233,-10C451.498,-10 460.321,-10 467.617,-10"/>
<polygon fill="midnightblue" stroke="midnightblue" points="442.057,-6.5001 432.057,-10 442.056,-13.5001 442.057,-6.5001"/>
</g>
</g>
</svg>
