<?xml version="1.0" encoding="UTF-8" standalone="no"?>
<!DOCTYPE svg PUBLIC "-//W3C//DTD SVG 1.1//EN"
 "http://www.w3.org/Graphics/SVG/1.1/DTD/svg11.dtd">
<!-- Generated by graphviz version 2.38.0 (20140413.2041)
 -->
<!-- Title: CCCC_Member::get_count Pages: 1 -->
<svg width="338pt" height="66pt"
 viewBox="0.00 0.00 338.00 66.00" xmlns="http://www.w3.org/2000/svg" xmlns:xlink="http://www.w3.org/1999/xlink">
<g id="graph0" class="graph" transform="scale(1 1) rotate(0) translate(4 62)">
<title>CCCC_Member::get_count</title>
<polygon fill="white" stroke="none" points="-4,4 -4,-62 334,-62 334,4 -4,4"/>
<!-- Node1 -->
<g id="node1" class="node"><title>Node1</title>
<polygon fill="#bfbfbf" stroke="black" points="0,-19.5 0,-38.5 142,-38.5 142,-19.5 0,-19.5"/>
<text text-anchor="middle" x="71" y="-26.5" font-family="Helvetica,sans-Serif" font-size="10.00">CCCC_Member::get_count</text>
</g>
<!-- Node2 -->
<g id="node2" class="node"><title>Node2</title>
<g id="a_node2"><a xlink:href="../../dc/d1e/classCCCC__Member.html#a94e543367fb135dd029a66bd9fb8af5a" target="_top" xlink:title="CCCC_Member::get_visibility">
<polygon fill="white" stroke="black" points="178,-38.5 178,-57.5 330,-57.5 330,-38.5 178,-38.5"/>
<text text-anchor="middle" x="254" y="-45.5" font-family="Helvetica,sans-Serif" font-size="10.00">CCCC_Member::get_visibility</text>
</a>
</g>
</g>
<!-- Node1&#45;&gt;Node2 -->
<g id="edge1" class="edge"><title>Node1&#45;&gt;Node2</title>
<path fill="none" stroke="midnightblue" d="M142.238,-36.3731C150.595,-37.2503 159.194,-38.153 167.731,-39.0492"/>
<polygon fill="midnightblue" stroke="midnightblue" points="167.396,-42.533 177.706,-40.0962 168.126,-35.5713 167.396,-42.533"/>
</g>
<!-- Node3 -->
<g id="node3" class="node"><title>Node3</title>
<g id="a_node3"><a xlink:href="../../d8/dcf/classCCCC__Table.html#a7ce8dcc5f09c5870ddec8e7af6d8c6d8" target="_top" xlink:title="CCCC_Table::get_count">
<polygon fill="white" stroke="black" points="189,-0.5 189,-19.5 319,-19.5 319,-0.5 189,-0.5"/>
<text text-anchor="middle" x="254" y="-7.5" font-family="Helvetica,sans-Serif" font-size="10.00">CCCC_Table::get_count</text>
</a>
</g>
</g>
<!-- Node1&#45;&gt;Node3 -->
<g id="edge2" class="edge"><title>Node1&#45;&gt;Node3</title>
<path fill="none" stroke="midnightblue" d="M142.238,-21.6269C154.194,-20.3719 166.647,-19.0647 178.703,-17.7991"/>
<polygon fill="midnightblue" stroke="midnightblue" points="179.137,-21.2729 188.717,-16.7479 178.407,-14.3111 179.137,-21.2729"/>
</g>
</g>
</svg>
