<?xml version="1.0" encoding="UTF-8" standalone="no"?>
<!DOCTYPE svg PUBLIC "-//W3C//DTD SVG 1.1//EN"
 "http://www.w3.org/Graphics/SVG/1.1/DTD/svg11.dtd">
<!-- Generated by graphviz version 2.38.0 (20140413.2041)
 -->
<!-- Title: CCCC_Member::get_count Pages: 1 -->
<svg width="355pt" height="88pt"
 viewBox="0.00 0.00 355.00 88.00" xmlns="http://www.w3.org/2000/svg" xmlns:xlink="http://www.w3.org/1999/xlink">
<g id="graph0" class="graph" transform="scale(1 1) rotate(0) translate(4 84)">
<title>CCCC_Member::get_count</title>
<polygon fill="white" stroke="none" points="-4,4 -4,-84 351,-84 351,4 -4,4"/>
<!-- Node1 -->
<g id="node1" class="node"><title>Node1</title>
<polygon fill="#bfbfbf" stroke="black" points="0,-30 0,-49 142,-49 142,-30 0,-30"/>
<text text-anchor="middle" x="71" y="-37" font-family="Helvetica,sans-Serif" font-size="10.00">CCCC_Member::get_count</text>
</g>
<!-- Node2 -->
<g id="node2" class="node"><title>Node2</title>
<g id="a_node2"><a xlink:href="../../d2/d92/classCCCC__Html__Stream.html#a53accb88e6190e384cf10d3572bfc33b" target="_top" xlink:title="CCCC_Html_Stream::Procedural\l_Detail">
<polygon fill="white" stroke="black" points="178,-49.5 178,-79.5 347,-79.5 347,-49.5 178,-49.5"/>
<text text-anchor="start" x="186" y="-67.5" font-family="Helvetica,sans-Serif" font-size="10.00">CCCC_Html_Stream::Procedural</text>
<text text-anchor="middle" x="262.5" y="-56.5" font-family="Helvetica,sans-Serif" font-size="10.00">_Detail</text>
</a>
</g>
</g>
<!-- Node1&#45;&gt;Node2 -->
<g id="edge1" class="edge"><title>Node1&#45;&gt;Node2</title>
<path fill="none" stroke="midnightblue" d="M152.01,-50.0554C160.595,-51.1881 169.347,-52.3426 177.972,-53.4805"/>
<polygon fill="midnightblue" stroke="midnightblue" points="152.396,-46.5761 142.024,-48.738 151.481,-53.516 152.396,-46.5761"/>
</g>
<!-- Node3 -->
<g id="node3" class="node"><title>Node3</title>
<g id="a_node3"><a xlink:href="../../db/d8c/classCCCC__Xml__Stream.html#ad70e63452c8fb298b0627f20b40def10" target="_top" xlink:title="CCCC_Xml_Stream::Procedural\l_Detail">
<polygon fill="white" stroke="black" points="180,-0.5 180,-30.5 345,-30.5 345,-0.5 180,-0.5"/>
<text text-anchor="start" x="188" y="-18.5" font-family="Helvetica,sans-Serif" font-size="10.00">CCCC_Xml_Stream::Procedural</text>
<text text-anchor="middle" x="262.5" y="-7.5" font-family="Helvetica,sans-Serif" font-size="10.00">_Detail</text>
</a>
</g>
</g>
<!-- Node1&#45;&gt;Node3 -->
<g id="edge2" class="edge"><title>Node1&#45;&gt;Node3</title>
<path fill="none" stroke="midnightblue" d="M151.964,-29.3726C161.21,-28.2016 170.649,-27.0062 179.916,-25.8326"/>
<polygon fill="midnightblue" stroke="midnightblue" points="151.505,-25.9027 142.024,-30.6315 152.385,-32.8472 151.505,-25.9027"/>
</g>
</g>
</svg>
