<?xml version="1.0" encoding="UTF-8" standalone="no"?>
<!DOCTYPE svg PUBLIC "-//W3C//DTD SVG 1.1//EN"
 "http://www.w3.org/Graphics/SVG/1.1/DTD/svg11.dtd">
<!-- Generated by graphviz version 2.38.0 (20140413.2041)
 -->
<!-- Title: operator&lt;&lt; Pages: 1 -->
<svg width="295pt" height="66pt"
 viewBox="0.00 0.00 295.00 66.00" xmlns="http://www.w3.org/2000/svg" xmlns:xlink="http://www.w3.org/1999/xlink">
<g id="graph0" class="graph" transform="scale(1 1) rotate(0) translate(4 62)">
<title>operator&lt;&lt;</title>
<polygon fill="white" stroke="none" points="-4,4 -4,-62 291,-62 291,4 -4,4"/>
<!-- Node1 -->
<g id="node1" class="node"><title>Node1</title>
<polygon fill="#bfbfbf" stroke="black" points="0,-19.5 0,-38.5 69,-38.5 69,-19.5 0,-19.5"/>
<text text-anchor="middle" x="34.5" y="-26.5" font-family="Helvetica,sans-Serif" font-size="10.00">operator&lt;&lt;</text>
</g>
<!-- Node2 -->
<g id="node2" class="node"><title>Node2</title>
<g id="a_node2"><a xlink:href="../../d5/da6/classANTLRToken.html#a1614bdc952633952e8b5f3f6283f9bd7" target="_top" xlink:title="ANTLRToken::getTokenTypeName">
<polygon fill="white" stroke="black" points="105,-38.5 105,-57.5 287,-57.5 287,-38.5 105,-38.5"/>
<text text-anchor="middle" x="196" y="-45.5" font-family="Helvetica,sans-Serif" font-size="10.00">ANTLRToken::getTokenTypeName</text>
</a>
</g>
</g>
<!-- Node1&#45;&gt;Node2 -->
<g id="edge1" class="edge"><title>Node1&#45;&gt;Node2</title>
<path fill="none" stroke="midnightblue" d="M69.3258,-33.0294C79.9327,-34.2929 92.1838,-35.7523 104.79,-37.2539"/>
<polygon fill="midnightblue" stroke="midnightblue" points="104.607,-40.7568 114.951,-38.4643 105.435,-33.806 104.607,-40.7568"/>
</g>
<!-- Node3 -->
<g id="node3" class="node"><title>Node3</title>
<g id="a_node3"><a xlink:href="../../d5/da6/classANTLRToken.html#a438b80df2095fd766fcb320832a0aab0" target="_top" xlink:title="ANTLRToken::getNestingLevel">
<polygon fill="white" stroke="black" points="115,-0.5 115,-19.5 277,-19.5 277,-0.5 115,-0.5"/>
<text text-anchor="middle" x="196" y="-7.5" font-family="Helvetica,sans-Serif" font-size="10.00">ANTLRToken::getNestingLevel</text>
</a>
</g>
</g>
<!-- Node1&#45;&gt;Node3 -->
<g id="edge2" class="edge"><title>Node1&#45;&gt;Node3</title>
<path fill="none" stroke="midnightblue" d="M69.3258,-24.9706C79.9327,-23.7071 92.1838,-22.2477 104.79,-20.7461"/>
<polygon fill="midnightblue" stroke="midnightblue" points="105.435,-24.194 114.951,-19.5357 104.607,-17.2432 105.435,-24.194"/>
</g>
</g>
</svg>
