<?xml version="1.0" encoding="UTF-8" standalone="no"?>
<!DOCTYPE svg PUBLIC "-//W3C//DTD SVG 1.1//EN"
 "http://www.w3.org/Graphics/SVG/1.1/DTD/svg11.dtd">
<!-- Generated by graphviz version 2.38.0 (20140413.2041)
 -->
<!-- Title: CCCC_Record Pages: 1 -->
<svg width="1323pt" height="783pt"
 viewBox="0.00 0.00 1323.00 783.24" xmlns="http://www.w3.org/2000/svg" xmlns:xlink="http://www.w3.org/1999/xlink">
<g id="graph0" class="graph" transform="scale(1 1) rotate(0) translate(4 779.239)">
<title>CCCC_Record</title>
<polygon fill="white" stroke="none" points="-4,4 -4,-779.239 1319,-779.239 1319,4 -4,4"/>
<!-- Node1 -->
<g id="node1" class="node"><title>Node1</title>
<polygon fill="#bfbfbf" stroke="black" points="883.5,-397.5 883.5,-416.5 970.5,-416.5 970.5,-397.5 883.5,-397.5"/>
<text text-anchor="middle" x="927" y="-404.5" font-family="Helvetica,sans-Serif" font-size="10.00">CCCC_Record</text>
</g>
<!-- Node2 -->
<g id="node2" class="node"><title>Node2</title>
<g id="a_node2"><a xlink:href="../../d4/d6e/classCCCC__Project.html" target="_top" xlink:title="CCCC_Project">
<polygon fill="white" stroke="black" points="1229,-444.5 1229,-463.5 1315,-463.5 1315,-444.5 1229,-444.5"/>
<text text-anchor="middle" x="1272" y="-451.5" font-family="Helvetica,sans-Serif" font-size="10.00">CCCC_Project</text>
</a>
</g>
</g>
<!-- Node1&#45;&gt;Node2 -->
<g id="edge2" class="edge"><title>Node1&#45;&gt;Node2</title>
<path fill="none" stroke="midnightblue" d="M980.435,-415.384C986.356,-416.288 992.306,-417.177 998,-418 1079.62,-429.792 1175.2,-442.038 1228.86,-448.772"/>
<polygon fill="midnightblue" stroke="midnightblue" points="980.962,-411.924 970.545,-413.858 979.894,-418.842 980.962,-411.924"/>
</g>
<!-- Node2&#45;&gt;Node1 -->
<g id="edge1" class="edge"><title>Node2&#45;&gt;Node1</title>
<path fill="none" stroke="#9a32cd" stroke-dasharray="5,2" d="M1248.92,-439.125C1237.98,-432.477 1224.28,-425.207 1211,-421 1129.17,-395.08 1027.4,-397.991 970.904,-402.472"/>
<polygon fill="#9a32cd" stroke="#9a32cd" points="1247.08,-442.1 1257.4,-444.482 1250.82,-436.182 1247.08,-442.1"/>
<text text-anchor="middle" x="1055" y="-406" font-family="Helvetica,sans-Serif" font-size="10.00"> active_project</text>
</g>
<!-- Node3 -->
<g id="node3" class="node"><title>Node3</title>
<polygon fill="white" stroke="#bfbfbf" points="998,-225 998,-255 1112,-255 1112,-225 998,-225"/>
<text text-anchor="start" x="1006" y="-243" font-family="Helvetica,sans-Serif" font-size="10.00">std::multimap&lt; string,</text>
<text text-anchor="middle" x="1055" y="-232" font-family="Helvetica,sans-Serif" font-size="10.00"> ExtentTableEntry &gt;</text>
</g>
<!-- Node3&#45;&gt;Node2 -->
<g id="edge3" class="edge"><title>Node3&#45;&gt;Node2</title>
<path fill="none" stroke="#9a32cd" stroke-dasharray="5,2" d="M1121.77,-250.681C1152.27,-258.63 1186.98,-272.37 1211,-296 1254.71,-339.01 1267.04,-417.103 1270.1,-444.328"/>
<polygon fill="#9a32cd" stroke="#9a32cd" points="1122.59,-247.277 1112.04,-248.299 1120.92,-254.076 1122.59,-247.277"/>
<text text-anchor="middle" x="1170.5" y="-299" font-family="Helvetica,sans-Serif" font-size="10.00"> file_extent_table</text>
</g>
<!-- Node4 -->
<g id="node4" class="node"><title>Node4</title>
<g id="a_node4"><a xlink:title="STL class. ">
<polygon fill="white" stroke="#bfbfbf" points="212,-276.5 212,-295.5 274,-295.5 274,-276.5 212,-276.5"/>
<text text-anchor="middle" x="243" y="-283.5" font-family="Helvetica,sans-Serif" font-size="10.00">std::string</text>
</a>
</g>
</g>
<!-- Node4&#45;&gt;Node1 -->
<g id="edge43" class="edge"><title>Node4&#45;&gt;Node1</title>
<path fill="none" stroke="#9a32cd" stroke-dasharray="5,2" d="M283.918,-291.502C296.719,-293.262 310.957,-295.217 324,-297 487.538,-319.353 530.007,-315.337 692,-347 764.854,-361.24 848.826,-384.471 893.715,-397.453"/>
<polygon fill="#9a32cd" stroke="#9a32cd" points="284.394,-288.034 274.01,-290.138 283.439,-294.969 284.394,-288.034"/>
<text text-anchor="middle" x="508" y="-336" font-family="Helvetica,sans-Serif" font-size="10.00"> flags</text>
</g>
<!-- Node4&#45;&gt;Node3 -->
<g id="edge4" class="edge"><title>Node4&#45;&gt;Node3</title>
<path fill="none" stroke="#9a32cd" stroke-dasharray="5,2" d="M283.32,-273.421C352.65,-251.973 501.557,-209.174 631,-194 762.329,-178.604 916.81,-207.228 997.859,-225.84"/>
<polygon fill="#9a32cd" stroke="#9a32cd" points="282.186,-270.108 273.68,-276.424 284.269,-276.791 282.186,-270.108"/>
<text text-anchor="middle" x="661.5" y="-197" font-family="Helvetica,sans-Serif" font-size="10.00"> keys</text>
</g>
<!-- Node7 -->
<g id="node7" class="node"><title>Node7</title>
<g id="a_node7"><a xlink:href="../../df/d99/classCCCC__Extent.html" target="_top" xlink:title="CCCC_Extent">
<polygon fill="white" stroke="black" points="466.5,-81.5 466.5,-100.5 549.5,-100.5 549.5,-81.5 466.5,-81.5"/>
<text text-anchor="middle" x="508" y="-88.5" font-family="Helvetica,sans-Serif" font-size="10.00">CCCC_Extent</text>
</a>
</g>
</g>
<!-- Node4&#45;&gt;Node7 -->
<g id="edge11" class="edge"><title>Node4&#45;&gt;Node7</title>
<path fill="none" stroke="#9a32cd" stroke-dasharray="5,2" d="M247.996,-265.96C255.974,-231.512 277.285,-161.37 324,-126 345.92,-109.403 419.427,-99.4147 466.34,-94.5767"/>
<polygon fill="#9a32cd" stroke="#9a32cd" points="244.481,-265.658 245.784,-276.172 251.322,-267.139 244.481,-265.658"/>
<text text-anchor="middle" x="354.5" y="-173" font-family="Helvetica,sans-Serif" font-size="10.00"> count_buffer</text>
<text text-anchor="middle" x="354.5" y="-162" font-family="Helvetica,sans-Serif" font-size="10.00">flags</text>
<text text-anchor="middle" x="354.5" y="-151" font-family="Helvetica,sans-Serif" font-size="10.00">linenumber</text>
<text text-anchor="middle" x="354.5" y="-140" font-family="Helvetica,sans-Serif" font-size="10.00">description</text>
<text text-anchor="middle" x="354.5" y="-129" font-family="Helvetica,sans-Serif" font-size="10.00">filename</text>
</g>
<!-- Node19 -->
<g id="node19" class="node"><title>Node19</title>
<polygon fill="white" stroke="#bfbfbf" points="720,-274 720,-304 846,-304 846,-274 720,-274"/>
<text text-anchor="start" x="728" y="-292" font-family="Helvetica,sans-Serif" font-size="10.00">std::map&lt; string, CCCC</text>
<text text-anchor="middle" x="783" y="-281" font-family="Helvetica,sans-Serif" font-size="10.00">_Item &gt;</text>
</g>
<!-- Node4&#45;&gt;Node19 -->
<g id="edge25" class="edge"><title>Node4&#45;&gt;Node19</title>
<path fill="none" stroke="#9a32cd" stroke-dasharray="5,2" d="M284.219,-286.224C377.375,-286.744 608.47,-288.032 719.927,-288.654"/>
<polygon fill="#9a32cd" stroke="#9a32cd" points="284.097,-282.724 274.078,-286.168 284.058,-289.724 284.097,-282.724"/>
<text text-anchor="middle" x="508" y="-292" font-family="Helvetica,sans-Serif" font-size="10.00"> keys</text>
</g>
<!-- Node20 -->
<g id="node20" class="node"><title>Node20</title>
<g id="a_node20"><a xlink:href="../../db/d6a/classCCCC__Item.html" target="_top" xlink:title="CCCC_Item">
<polygon fill="white" stroke="black" points="471.5,-365.5 471.5,-384.5 544.5,-384.5 544.5,-365.5 471.5,-365.5"/>
<text text-anchor="middle" x="508" y="-372.5" font-family="Helvetica,sans-Serif" font-size="10.00">CCCC_Item</text>
</a>
</g>
</g>
<!-- Node4&#45;&gt;Node20 -->
<g id="edge29" class="edge"><title>Node4&#45;&gt;Node20</title>
<path fill="none" stroke="#9a32cd" stroke-dasharray="5,2" d="M273.101,-299.982C288.138,-306.979 306.88,-315.352 324,-322 373.95,-341.397 433.965,-357.468 471.303,-366.656"/>
<polygon fill="#9a32cd" stroke="#9a32cd" points="274.347,-296.7 263.808,-295.614 271.37,-303.035 274.347,-296.7"/>
<text text-anchor="middle" x="354.5" y="-346" font-family="Helvetica,sans-Serif" font-size="10.00"> buffer</text>
</g>
<!-- Node5 -->
<g id="node5" class="node"><title>Node5</title>
<g id="a_node5"><a xlink:title="STL class. ">
<polygon fill="white" stroke="#bfbfbf" points="0,-271 0,-301 98,-301 98,-271 0,-271"/>
<text text-anchor="start" x="8" y="-289" font-family="Helvetica,sans-Serif" font-size="10.00">std::basic_string&lt;</text>
<text text-anchor="middle" x="49" y="-278" font-family="Helvetica,sans-Serif" font-size="10.00"> char &gt;</text>
</a>
</g>
</g>
<!-- Node5&#45;&gt;Node4 -->
<g id="edge5" class="edge"><title>Node5&#45;&gt;Node4</title>
<path fill="none" stroke="midnightblue" d="M108.764,-286C142.843,-286 184.329,-286 211.861,-286"/>
<polygon fill="midnightblue" stroke="midnightblue" points="108.45,-282.5 98.4497,-286 108.45,-289.5 108.45,-282.5"/>
</g>
<!-- Node6 -->
<g id="node6" class="node"><title>Node6</title>
<g id="a_node6"><a xlink:href="../../d0/d5f/structCCCC__Project_1_1ExtentTableEntry.html" target="_top" xlink:title="CCCC_Project::ExtentTable\lEntry">
<polygon fill="white" stroke="black" points="710,-225 710,-255 856,-255 856,-225 710,-225"/>
<text text-anchor="start" x="718" y="-243" font-family="Helvetica,sans-Serif" font-size="10.00">CCCC_Project::ExtentTable</text>
<text text-anchor="middle" x="783" y="-232" font-family="Helvetica,sans-Serif" font-size="10.00">Entry</text>
</a>
</g>
</g>
<!-- Node6&#45;&gt;Node3 -->
<g id="edge6" class="edge"><title>Node6&#45;&gt;Node3</title>
<path fill="none" stroke="#9a32cd" stroke-dasharray="5,2" d="M866.061,-240C908.607,-240 959.487,-240 997.571,-240"/>
<polygon fill="#9a32cd" stroke="#9a32cd" points="866,-236.5 856,-240 866,-243.5 866,-236.5"/>
<text text-anchor="middle" x="927" y="-243" font-family="Helvetica,sans-Serif" font-size="10.00"> elements</text>
</g>
<!-- Node7&#45;&gt;Node6 -->
<g id="edge7" class="edge"><title>Node7&#45;&gt;Node6</title>
<path fill="none" stroke="#9a32cd" stroke-dasharray="5,2" d="M522.348,-108.783C542.771,-134.649 584.346,-182.254 631,-207 655.061,-219.762 683.78,-227.592 709.68,-232.395"/>
<polygon fill="#9a32cd" stroke="#9a32cd" points="524.918,-106.385 516.033,-100.614 519.38,-110.666 524.918,-106.385"/>
<text text-anchor="middle" x="661.5" y="-232" font-family="Helvetica,sans-Serif" font-size="10.00"> extent_ptr</text>
</g>
<!-- Node8 -->
<g id="node8" class="node"><title>Node8</title>
<polygon fill="white" stroke="#bfbfbf" points="213.5,-44.5 213.5,-63.5 272.5,-63.5 272.5,-44.5 213.5,-44.5"/>
<text text-anchor="middle" x="243" y="-51.5" font-family="Helvetica,sans-Serif" font-size="10.00">UseType</text>
</g>
<!-- Node8&#45;&gt;Node7 -->
<g id="edge8" class="edge"><title>Node8&#45;&gt;Node7</title>
<path fill="none" stroke="#9a32cd" stroke-dasharray="5,2" d="M282.57,-59.4262C331.712,-66.3397 416.268,-78.2355 466.375,-85.2847"/>
<polygon fill="#9a32cd" stroke="#9a32cd" points="283.036,-55.9574 272.646,-58.0301 282.061,-62.8892 283.036,-55.9574"/>
<text text-anchor="middle" x="354.5" y="-77" font-family="Helvetica,sans-Serif" font-size="10.00"> ut</text>
</g>
<!-- Node9 -->
<g id="node9" class="node"><title>Node9</title>
<polygon fill="white" stroke="#bfbfbf" points="228.5,-0.5 228.5,-19.5 257.5,-19.5 257.5,-0.5 228.5,-0.5"/>
<text text-anchor="middle" x="243" y="-7.5" font-family="Helvetica,sans-Serif" font-size="10.00">int</text>
</g>
<!-- Node9&#45;&gt;Node7 -->
<g id="edge9" class="edge"><title>Node9&#45;&gt;Node7</title>
<path fill="none" stroke="#9a32cd" stroke-dasharray="5,2" d="M267.99,-13.7014C296.331,-18.3944 344.72,-27.4163 385,-40 422.032,-51.5689 463.338,-70.0894 487.137,-81.3413"/>
<polygon fill="#9a32cd" stroke="#9a32cd" points="268.259,-10.1997 257.83,-12.0632 267.145,-17.1105 268.259,-10.1997"/>
<text text-anchor="middle" x="354.5" y="-54" font-family="Helvetica,sans-Serif" font-size="10.00"> nextkey</text>
<text text-anchor="middle" x="354.5" y="-43" font-family="Helvetica,sans-Serif" font-size="10.00">extkey</text>
</g>
<!-- Node10 -->
<g id="node10" class="node"><title>Node10</title>
<polygon fill="white" stroke="#bfbfbf" points="216.5,-82.5 216.5,-101.5 269.5,-101.5 269.5,-82.5 216.5,-82.5"/>
<text text-anchor="middle" x="243" y="-89.5" font-family="Helvetica,sans-Serif" font-size="10.00">Visibility</text>
</g>
<!-- Node10&#45;&gt;Node7 -->
<g id="edge10" class="edge"><title>Node10&#45;&gt;Node7</title>
<path fill="none" stroke="#9a32cd" stroke-dasharray="5,2" d="M279.754,-91.8641C328.375,-91.6792 415.127,-91.3493 466.224,-91.155"/>
<polygon fill="#9a32cd" stroke="#9a32cd" points="279.683,-88.3642 269.696,-91.9023 279.71,-95.3641 279.683,-88.3642"/>
<text text-anchor="middle" x="354.5" y="-95" font-family="Helvetica,sans-Serif" font-size="10.00"> v</text>
</g>
<!-- Node11 -->
<g id="node11" class="node"><title>Node11</title>
<g id="a_node11"><a xlink:href="../../d8/dcf/classCCCC__Table.html" target="_top" xlink:title="CCCC_Table\&lt; CCCC_Extent \&gt;">
<polygon fill="white" stroke="black" points="426.5,-444.5 426.5,-463.5 589.5,-463.5 589.5,-444.5 426.5,-444.5"/>
<text text-anchor="middle" x="508" y="-451.5" font-family="Helvetica,sans-Serif" font-size="10.00">CCCC_Table&lt; CCCC_Extent &gt;</text>
</a>
</g>
</g>
<!-- Node11&#45;&gt;Node1 -->
<g id="edge44" class="edge"><title>Node11&#45;&gt;Node1</title>
<path fill="none" stroke="#9a32cd" stroke-dasharray="5,2" d="M599.862,-443.759C687.704,-433.858 816.955,-419.29 883.283,-411.815"/>
<polygon fill="#9a32cd" stroke="#9a32cd" points="599.441,-440.284 589.896,-444.882 600.225,-447.24 599.441,-440.284"/>
<text text-anchor="middle" x="661.5" y="-443" font-family="Helvetica,sans-Serif" font-size="10.00"> extent_table</text>
</g>
<!-- Node11&#45;&gt;Node2 -->
<g id="edge30" class="edge"><title>Node11&#45;&gt;Node2</title>
<path fill="none" stroke="#9a32cd" stroke-dasharray="5,2" d="M599.777,-454.806C610.304,-454.881 620.888,-454.948 631,-455 852.775,-456.131 908.222,-455.778 1130,-456 1166,-456.036 1175,-456.6 1211,-456 1216.73,-455.905 1222.77,-455.758 1228.72,-455.586"/>
<polygon fill="#9a32cd" stroke="#9a32cd" points="599.743,-451.306 589.718,-454.732 599.691,-458.306 599.743,-451.306"/>
<text text-anchor="middle" x="927" y="-459" font-family="Helvetica,sans-Serif" font-size="10.00"> rejected_extent_table</text>
</g>
<!-- Node11&#45;&gt;Node6 -->
<g id="edge12" class="edge"><title>Node11&#45;&gt;Node6</title>
<path fill="none" stroke="#9a32cd" stroke-dasharray="5,2" d="M548.316,-440.592C570.591,-431.008 597.102,-415.892 613,-394 635.691,-362.754 608.223,-340.183 631,-309 654.834,-276.37 673.1,-280.468 710,-264 717.099,-260.832 724.75,-257.849 732.322,-255.135"/>
<polygon fill="#9a32cd" stroke="#9a32cd" points="546.694,-437.474 538.753,-444.488 549.335,-443.956 546.694,-437.474"/>
<text text-anchor="middle" x="661.5" y="-312" font-family="Helvetica,sans-Serif" font-size="10.00"> table_ptr</text>
</g>
<!-- Node12 -->
<g id="node12" class="node"><title>Node12</title>
<g id="a_node12"><a xlink:title="STL class. ">
<polygon fill="white" stroke="#bfbfbf" points="180,-475 180,-505 306,-505 306,-475 180,-475"/>
<text text-anchor="start" x="188" y="-493" font-family="Helvetica,sans-Serif" font-size="10.00">std::map&lt; string, CCCC</text>
<text text-anchor="middle" x="243" y="-482" font-family="Helvetica,sans-Serif" font-size="10.00">_Extent * &gt;</text>
</a>
</g>
</g>
<!-- Node12&#45;&gt;Node11 -->
<g id="edge13" class="edge"><title>Node12&#45;&gt;Node11</title>
<path fill="none" stroke="midnightblue" d="M261.482,-466.99C276.062,-449.846 298.514,-427.78 324,-418 382.345,-395.611 456.729,-427.442 489.807,-444.465"/>
<polygon fill="midnightblue" stroke="midnightblue" points="258.604,-464.981 254.978,-474.936 264.021,-469.415 258.604,-464.981"/>
</g>
<!-- Node13 -->
<g id="node13" class="node"><title>Node13</title>
<polygon fill="white" stroke="#bfbfbf" points="34.5,-564.5 34.5,-583.5 63.5,-583.5 63.5,-564.5 34.5,-564.5"/>
<text text-anchor="middle" x="49" y="-571.5" font-family="Helvetica,sans-Serif" font-size="10.00">K</text>
</g>
<!-- Node13&#45;&gt;Node12 -->
<g id="edge14" class="edge"><title>Node13&#45;&gt;Node12</title>
<path fill="none" stroke="#9a32cd" stroke-dasharray="5,2" d="M58.7187,-555.076C69.144,-534.98 88.6759,-504.316 116,-491 135.468,-481.512 158.722,-479.213 179.923,-479.962"/>
<polygon fill="#9a32cd" stroke="#9a32cd" points="55.4931,-553.704 54.2208,-564.222 61.7747,-556.793 55.4931,-553.704"/>
<text text-anchor="middle" x="139" y="-494" font-family="Helvetica,sans-Serif" font-size="10.00"> keys</text>
</g>
<!-- Node18 -->
<g id="node18" class="node"><title>Node18</title>
<g id="a_node18"><a xlink:title="STL class. ">
<polygon fill="white" stroke="#bfbfbf" points="180,-531 180,-561 306,-561 306,-531 180,-531"/>
<text text-anchor="start" x="188" y="-549" font-family="Helvetica,sans-Serif" font-size="10.00">std::map&lt; string, CCCC</text>
<text text-anchor="middle" x="243" y="-538" font-family="Helvetica,sans-Serif" font-size="10.00">_Module * &gt;</text>
</a>
</g>
</g>
<!-- Node13&#45;&gt;Node18 -->
<g id="edge20" class="edge"><title>Node13&#45;&gt;Node18</title>
<path fill="none" stroke="#9a32cd" stroke-dasharray="5,2" d="M73.6293,-567.902C86.1501,-564.856 101.831,-561.332 116,-559 136.723,-555.589 159.519,-552.914 179.958,-550.9"/>
<polygon fill="#9a32cd" stroke="#9a32cd" points="72.4128,-564.598 63.557,-570.414 74.1068,-571.39 72.4128,-564.598"/>
<text text-anchor="middle" x="139" y="-562" font-family="Helvetica,sans-Serif" font-size="10.00"> keys</text>
</g>
<!-- Node23 -->
<g id="node23" class="node"><title>Node23</title>
<g id="a_node23"><a xlink:title="STL class. ">
<polygon fill="white" stroke="#bfbfbf" points="180,-713 180,-743 306,-743 306,-713 180,-713"/>
<text text-anchor="start" x="188" y="-731" font-family="Helvetica,sans-Serif" font-size="10.00">std::map&lt; string, CCCC</text>
<text text-anchor="middle" x="243" y="-720" font-family="Helvetica,sans-Serif" font-size="10.00">_UseRelationship * &gt;</text>
</a>
</g>
</g>
<!-- Node13&#45;&gt;Node23 -->
<g id="edge33" class="edge"><title>Node13&#45;&gt;Node23</title>
<path fill="none" stroke="#9a32cd" stroke-dasharray="5,2" d="M68.5743,-590.357C78.3488,-599.731 89.9424,-612.16 98,-625 109.89,-643.947 100.662,-655.718 116,-672 116.669,-672.71 179.108,-700.604 180,-701 188.798,-704.909 198.321,-709.084 207.202,-712.953"/>
<polygon fill="#9a32cd" stroke="#9a32cd" points="70.9403,-587.778 61.2276,-583.545 66.181,-592.911 70.9403,-587.778"/>
<text text-anchor="middle" x="139" y="-695" font-family="Helvetica,sans-Serif" font-size="10.00"> keys</text>
</g>
<!-- Node25 -->
<g id="node25" class="node"><title>Node25</title>
<g id="a_node25"><a xlink:title="STL class. ">
<polygon fill="white" stroke="#bfbfbf" points="180,-661 180,-691 306,-691 306,-661 180,-661"/>
<text text-anchor="start" x="188" y="-679" font-family="Helvetica,sans-Serif" font-size="10.00">std::map&lt; string, CCCC</text>
<text text-anchor="middle" x="243" y="-668" font-family="Helvetica,sans-Serif" font-size="10.00">_Member * &gt;</text>
</a>
</g>
</g>
<!-- Node13&#45;&gt;Node25 -->
<g id="edge39" class="edge"><title>Node13&#45;&gt;Node25</title>
<path fill="none" stroke="#9a32cd" stroke-dasharray="5,2" d="M72.5021,-586.515C95.2922,-599.317 131.441,-619.972 162,-639 170.162,-644.082 171.497,-646.512 180,-651 186.672,-654.521 193.952,-657.866 201.103,-660.897"/>
<polygon fill="#9a32cd" stroke="#9a32cd" points="74.0436,-583.367 63.608,-581.537 70.6247,-589.475 74.0436,-583.367"/>
<text text-anchor="middle" x="139" y="-642" font-family="Helvetica,sans-Serif" font-size="10.00"> keys</text>
</g>
<!-- Node14 -->
<g id="node14" class="node"><title>Node14</title>
<polygon fill="white" stroke="#bfbfbf" points="34.5,-634.5 34.5,-653.5 63.5,-653.5 63.5,-634.5 34.5,-634.5"/>
<text text-anchor="middle" x="49" y="-641.5" font-family="Helvetica,sans-Serif" font-size="10.00">T</text>
</g>
<!-- Node14&#45;&gt;Node12 -->
<g id="edge15" class="edge"><title>Node14&#45;&gt;Node12</title>
<path fill="none" stroke="#9a32cd" stroke-dasharray="5,2" d="M69.2018,-627.441C78.9698,-618.155 90.3603,-605.87 98,-593 111.129,-570.883 98.2519,-556.615 116,-538 132.961,-520.211 157.205,-508.939 179.905,-501.831"/>
<polygon fill="#9a32cd" stroke="#9a32cd" points="66.8314,-624.866 61.8185,-634.2 71.558,-630.03 66.8314,-624.866"/>
<text text-anchor="middle" x="139" y="-541" font-family="Helvetica,sans-Serif" font-size="10.00"> elements</text>
</g>
<!-- Node14&#45;&gt;Node18 -->
<g id="edge21" class="edge"><title>Node14&#45;&gt;Node18</title>
<path fill="none" stroke="#9a32cd" stroke-dasharray="5,2" d="M68.0605,-627.627C80.769,-616.734 98.5587,-602.698 116,-593 139.568,-579.896 167.518,-569.049 191.098,-561.09"/>
<polygon fill="#9a32cd" stroke="#9a32cd" points="65.7118,-625.032 60.4976,-634.255 70.3253,-630.297 65.7118,-625.032"/>
<text text-anchor="middle" x="139" y="-596" font-family="Helvetica,sans-Serif" font-size="10.00"> elements</text>
</g>
<!-- Node14&#45;&gt;Node23 -->
<g id="edge34" class="edge"><title>Node14&#45;&gt;Node23</title>
<path fill="none" stroke="#9a32cd" stroke-dasharray="5,2" d="M63.9552,-661.933C76.1106,-676.226 95.0382,-695.523 116,-706 135.565,-715.779 158.728,-721.29 179.823,-724.369"/>
<polygon fill="#9a32cd" stroke="#9a32cd" points="66.3453,-659.327 57.3042,-653.803 60.9275,-663.759 66.3453,-659.327"/>
<text text-anchor="middle" x="139" y="-723" font-family="Helvetica,sans-Serif" font-size="10.00"> elements</text>
</g>
<!-- Node14&#45;&gt;Node25 -->
<g id="edge40" class="edge"><title>Node14&#45;&gt;Node25</title>
<path fill="none" stroke="#9a32cd" stroke-dasharray="5,2" d="M73.8941,-647.382C96.5961,-650.652 131.672,-655.857 162,-661 167.712,-661.969 173.647,-663.012 179.586,-664.081"/>
<polygon fill="#9a32cd" stroke="#9a32cd" points="74.2136,-643.892 63.8186,-645.94 73.222,-650.821 74.2136,-643.892"/>
<text text-anchor="middle" x="139" y="-664" font-family="Helvetica,sans-Serif" font-size="10.00"> elements</text>
</g>
<!-- Node15 -->
<g id="node15" class="node"><title>Node15</title>
<polygon fill="white" stroke="#bfbfbf" points="218,-622.5 218,-641.5 268,-641.5 268,-622.5 218,-622.5"/>
<text text-anchor="middle" x="243" y="-629.5" font-family="Helvetica,sans-Serif" font-size="10.00">iterator</text>
</g>
<!-- Node15&#45;&gt;Node11 -->
<g id="edge16" class="edge"><title>Node15&#45;&gt;Node11</title>
<path fill="none" stroke="#9a32cd" stroke-dasharray="5,2" d="M277.813,-625.735C288.076,-622.325 298.585,-617.074 306,-609 326.276,-586.921 304.874,-567.082 324,-544 335.21,-530.471 439.061,-483.812 485.147,-463.534"/>
<polygon fill="#9a32cd" stroke="#9a32cd" points="276.823,-622.378 268.157,-628.473 278.733,-629.112 276.823,-622.378"/>
<text text-anchor="middle" x="354.5" y="-547" font-family="Helvetica,sans-Serif" font-size="10.00"> iter_</text>
</g>
<!-- Node17 -->
<g id="node17" class="node"><title>Node17</title>
<g id="a_node17"><a xlink:href="../../d8/dcf/classCCCC__Table.html" target="_top" xlink:title="CCCC_Table\&lt; CCCC_Module \&gt;">
<polygon fill="white" stroke="black" points="424.5,-520.5 424.5,-539.5 591.5,-539.5 591.5,-520.5 424.5,-520.5"/>
<text text-anchor="middle" x="508" y="-527.5" font-family="Helvetica,sans-Serif" font-size="10.00">CCCC_Table&lt; CCCC_Module &gt;</text>
</a>
</g>
</g>
<!-- Node15&#45;&gt;Node17 -->
<g id="edge22" class="edge"><title>Node15&#45;&gt;Node17</title>
<path fill="none" stroke="#9a32cd" stroke-dasharray="5,2" d="M278.365,-630.698C307.58,-628.649 350.2,-623.401 385,-610 429.909,-592.706 475.359,-557.015 495.809,-539.762"/>
<polygon fill="#9a32cd" stroke="#9a32cd" points="278.015,-627.213 268.247,-631.318 278.443,-634.2 278.015,-627.213"/>
<text text-anchor="middle" x="354.5" y="-628" font-family="Helvetica,sans-Serif" font-size="10.00"> iter_</text>
</g>
<!-- Node22 -->
<g id="node22" class="node"><title>Node22</title>
<g id="a_node22"><a xlink:href="../../d8/dcf/classCCCC__Table.html" target="_top" xlink:title="CCCC_Table\&lt; CCCC_UseRelationship \&gt;">
<polygon fill="white" stroke="black" points="403,-719.5 403,-738.5 613,-738.5 613,-719.5 403,-719.5"/>
<text text-anchor="middle" x="508" y="-726.5" font-family="Helvetica,sans-Serif" font-size="10.00">CCCC_Table&lt; CCCC_UseRelationship &gt;</text>
</a>
</g>
</g>
<!-- Node15&#45;&gt;Node22 -->
<g id="edge35" class="edge"><title>Node15&#45;&gt;Node22</title>
<path fill="none" stroke="#9a32cd" stroke-dasharray="5,2" d="M278.022,-636.662C288.178,-639.58 298.571,-644.316 306,-652 326.241,-672.936 301.438,-696.589 324,-715 362.759,-746.628 422.807,-744.728 463.453,-738.528"/>
<polygon fill="#9a32cd" stroke="#9a32cd" points="278.6,-633.202 268.064,-634.308 276.99,-640.015 278.6,-633.202"/>
<text text-anchor="middle" x="354.5" y="-742" font-family="Helvetica,sans-Serif" font-size="10.00"> iter_</text>
</g>
<!-- Node24 -->
<g id="node24" class="node"><title>Node24</title>
<g id="a_node24"><a xlink:href="../../d8/dcf/classCCCC__Table.html" target="_top" xlink:title="CCCC_Table\&lt; CCCC_Member \&gt;">
<polygon fill="white" stroke="black" points="422.5,-622.5 422.5,-641.5 593.5,-641.5 593.5,-622.5 422.5,-622.5"/>
<text text-anchor="middle" x="508" y="-629.5" font-family="Helvetica,sans-Serif" font-size="10.00">CCCC_Table&lt; CCCC_Member &gt;</text>
</a>
</g>
</g>
<!-- Node15&#45;&gt;Node24 -->
<g id="edge41" class="edge"><title>Node15&#45;&gt;Node24</title>
<path fill="none" stroke="#9a32cd" stroke-dasharray="5,2" d="M278.298,-638.291C292.402,-640.578 308.933,-642.876 324,-644 360.037,-646.688 400.091,-644.633 433.517,-641.514"/>
<polygon fill="#9a32cd" stroke="#9a32cd" points="278.493,-634.774 268.05,-636.563 277.329,-641.677 278.493,-634.774"/>
<text text-anchor="middle" x="354.5" y="-648" font-family="Helvetica,sans-Serif" font-size="10.00"> iter_</text>
</g>
<!-- Node16 -->
<g id="node16" class="node"><title>Node16</title>
<polygon fill="white" stroke="#bfbfbf" points="225,-580.5 225,-599.5 261,-599.5 261,-580.5 225,-580.5"/>
<text text-anchor="middle" x="243" y="-587.5" font-family="Helvetica,sans-Serif" font-size="10.00">bool</text>
</g>
<!-- Node16&#45;&gt;Node11 -->
<g id="edge17" class="edge"><title>Node16&#45;&gt;Node11</title>
<path fill="none" stroke="#9a32cd" stroke-dasharray="5,2" d="M271.316,-587.21C283.482,-584.605 297.053,-579.599 306,-570 328.784,-545.556 300.242,-520.499 324,-497 350.8,-470.492 390.668,-459.151 426.357,-454.686"/>
<polygon fill="#9a32cd" stroke="#9a32cd" points="270.411,-583.813 261.137,-588.936 271.581,-590.715 270.411,-583.813"/>
<text text-anchor="middle" x="354.5" y="-500" font-family="Helvetica,sans-Serif" font-size="10.00"> sorted</text>
</g>
<!-- Node16&#45;&gt;Node17 -->
<g id="edge23" class="edge"><title>Node16&#45;&gt;Node17</title>
<path fill="none" stroke="#9a32cd" stroke-dasharray="5,2" d="M271.101,-583.817C317.12,-573.319 410.834,-551.939 465.272,-539.52"/>
<polygon fill="#9a32cd" stroke="#9a32cd" points="270.227,-580.427 261.256,-586.063 271.784,-587.251 270.227,-580.427"/>
<text text-anchor="middle" x="354.5" y="-574" font-family="Helvetica,sans-Serif" font-size="10.00"> sorted</text>
</g>
<!-- Node16&#45;&gt;Node20 -->
<g id="edge28" class="edge"><title>Node16&#45;&gt;Node20</title>
<path fill="none" stroke="#9a32cd" stroke-dasharray="5,2" d="M271.112,-587.703C283.53,-585.222 297.372,-580.177 306,-570 341.159,-528.529 290.361,-491.714 324,-449 360.152,-403.096 429.323,-385.513 471.494,-378.888"/>
<polygon fill="#9a32cd" stroke="#9a32cd" points="270.509,-584.254 261.161,-589.241 271.578,-591.172 270.509,-584.254"/>
<text text-anchor="middle" x="354.5" y="-452" font-family="Helvetica,sans-Serif" font-size="10.00"> good</text>
</g>
<!-- Node16&#45;&gt;Node22 -->
<g id="edge36" class="edge"><title>Node16&#45;&gt;Node22</title>
<path fill="none" stroke="#9a32cd" stroke-dasharray="5,2" d="M271.09,-594.773C283.094,-598.105 296.596,-603.694 306,-613 321.9,-628.733 308.142,-644.224 324,-660 357.098,-692.927 407.435,-710.389 446.943,-719.499"/>
<polygon fill="#9a32cd" stroke="#9a32cd" points="271.605,-591.298 261.067,-592.389 269.986,-598.108 271.605,-591.298"/>
<text text-anchor="middle" x="354.5" y="-700" font-family="Helvetica,sans-Serif" font-size="10.00"> sorted</text>
</g>
<!-- Node16&#45;&gt;Node24 -->
<g id="edge42" class="edge"><title>Node16&#45;&gt;Node24</title>
<path fill="none" stroke="#9a32cd" stroke-dasharray="5,2" d="M271.071,-590.123C299.593,-590.627 345.731,-592.503 385,-599 417.471,-604.372 453.776,-614.778 478.273,-622.475"/>
<polygon fill="#9a32cd" stroke="#9a32cd" points="271.099,-586.623 261.054,-589.991 271.007,-593.623 271.099,-586.623"/>
<text text-anchor="middle" x="354.5" y="-602" font-family="Helvetica,sans-Serif" font-size="10.00"> sorted</text>
</g>
<!-- Node17&#45;&gt;Node2 -->
<g id="edge18" class="edge"><title>Node17&#45;&gt;Node2</title>
<path fill="none" stroke="#9a32cd" stroke-dasharray="5,2" d="M601.847,-527.867C736.923,-523.486 995.069,-510.287 1211,-471 1221.12,-469.159 1231.99,-466.343 1241.66,-463.53"/>
<polygon fill="#9a32cd" stroke="#9a32cd" points="601.428,-524.378 591.543,-528.192 601.649,-531.375 601.428,-524.378"/>
<text text-anchor="middle" x="927" y="-516" font-family="Helvetica,sans-Serif" font-size="10.00"> module_table</text>
</g>
<!-- Node18&#45;&gt;Node17 -->
<g id="edge19" class="edge"><title>Node18&#45;&gt;Node17</title>
<path fill="none" stroke="midnightblue" d="M280.151,-526.416C293.527,-520.194 309.074,-514.122 324,-511 375.743,-500.176 437.068,-511.288 473.959,-520.497"/>
<polygon fill="midnightblue" stroke="midnightblue" points="278.306,-523.421 270.835,-530.933 281.36,-529.719 278.306,-523.421"/>
</g>
<!-- Node19&#45;&gt;Node2 -->
<g id="edge24" class="edge"><title>Node19&#45;&gt;Node2</title>
<path fill="none" stroke="#9a32cd" stroke-dasharray="5,2" d="M856.494,-297.554C944.582,-310.24 1095.71,-339.501 1211,-401 1232.09,-412.251 1251.93,-432.309 1262.67,-444.26"/>
<polygon fill="#9a32cd" stroke="#9a32cd" points="856.724,-294.052 846.334,-296.125 855.748,-300.984 856.724,-294.052"/>
<text text-anchor="middle" x="1055" y="-360" font-family="Helvetica,sans-Serif" font-size="10.00"> OptionTable</text>
</g>
<!-- Node20&#45;&gt;Node19 -->
<g id="edge26" class="edge"><title>Node20&#45;&gt;Node19</title>
<path fill="none" stroke="#9a32cd" stroke-dasharray="5,2" d="M554.627,-364.015C572.874,-359.398 594.025,-353.765 613,-348 657.454,-334.495 707.622,-316.642 741.67,-304.125"/>
<polygon fill="#9a32cd" stroke="#9a32cd" points="553.671,-360.646 544.821,-366.469 555.371,-367.436 553.671,-360.646"/>
<text text-anchor="middle" x="661.5" y="-346" font-family="Helvetica,sans-Serif" font-size="10.00"> elements</text>
</g>
<!-- Node21 -->
<g id="node21" class="node"><title>Node21</title>
<polygon fill="white" stroke="#bfbfbf" points="224,-368.5 224,-387.5 262,-387.5 262,-368.5 224,-368.5"/>
<text text-anchor="middle" x="243" y="-375.5" font-family="Helvetica,sans-Serif" font-size="10.00">char</text>
</g>
<!-- Node21&#45;&gt;Node20 -->
<g id="edge27" class="edge"><title>Node21&#45;&gt;Node20</title>
<path fill="none" stroke="#9a32cd" stroke-dasharray="5,2" d="M272.1,-377.679C320.238,-377.13 418.392,-376.011 471.302,-375.407"/>
<polygon fill="#9a32cd" stroke="#9a32cd" points="272.036,-374.18 262.077,-377.794 272.116,-381.179 272.036,-374.18"/>
<text text-anchor="middle" x="354.5" y="-381" font-family="Helvetica,sans-Serif" font-size="10.00"> delimiter</text>
</g>
<!-- Node22&#45;&gt;Node2 -->
<g id="edge31" class="edge"><title>Node22&#45;&gt;Node2</title>
<path fill="none" stroke="#9a32cd" stroke-dasharray="5,2" d="M558.947,-717.032C663.038,-691.613 910.267,-628.742 1112,-558 1156.47,-542.404 1172.1,-546.601 1211,-520 1234.01,-504.267 1254.32,-478.029 1264.36,-463.837"/>
<polygon fill="#9a32cd" stroke="#9a32cd" points="557.92,-713.68 549.032,-719.446 559.576,-720.481 557.92,-713.68"/>
<text text-anchor="middle" x="927" y="-634" font-family="Helvetica,sans-Serif" font-size="10.00"> userel_table</text>
</g>
<!-- Node23&#45;&gt;Node22 -->
<g id="edge32" class="edge"><title>Node23&#45;&gt;Node22</title>
<path fill="none" stroke="midnightblue" d="M273.717,-748.523C288.193,-757.298 306.272,-766.537 324,-771 384.535,-786.238 456.906,-755.176 489.531,-738.557"/>
<polygon fill="midnightblue" stroke="midnightblue" points="275.533,-745.53 265.205,-743.166 271.805,-751.455 275.533,-745.53"/>
</g>
<!-- Node24&#45;&gt;Node2 -->
<g id="edge37" class="edge"><title>Node24&#45;&gt;Node2</title>
<path fill="none" stroke="#9a32cd" stroke-dasharray="5,2" d="M603.816,-624.202C741.713,-610.42 1003.75,-574.949 1211,-492 1228.86,-484.853 1247.23,-472.305 1258.86,-463.593"/>
<polygon fill="#9a32cd" stroke="#9a32cd" points="603.309,-620.735 593.699,-625.196 603.994,-627.701 603.309,-620.735"/>
<text text-anchor="middle" x="927" y="-588" font-family="Helvetica,sans-Serif" font-size="10.00"> member_table</text>
</g>
<!-- Node25&#45;&gt;Node24 -->
<g id="edge38" class="edge"><title>Node25&#45;&gt;Node24</title>
<path fill="none" stroke="midnightblue" d="M286.563,-695.208C305.525,-703.756 323.716,-711.939 324,-712 350.507,-717.689 359.022,-719.758 385,-712 431.839,-698.012 477.395,-659.645 496.981,-641.609"/>
<polygon fill="midnightblue" stroke="midnightblue" points="287.822,-691.937 277.267,-691.016 284.944,-698.318 287.822,-691.937"/>
</g>
</g>
</svg>
