<?xml version="1.0" encoding="UTF-8" standalone="no"?>
<!DOCTYPE svg PUBLIC "-//W3C//DTD SVG 1.1//EN"
 "http://www.w3.org/Graphics/SVG/1.1/DTD/svg11.dtd">
<!-- Generated by graphviz version 2.38.0 (20140413.2041)
 -->
<!-- Title: CParser Pages: 1 -->
<!--zoomable 389 -->
<svg id="main" version="1.1" xmlns="http://www.w3.org/2000/svg" xmlns:xlink="http://www.w3.org/1999/xlink" xml:space="preserve" onload="init(evt)">
<style type="text/css"><![CDATA[
.edge:hover path { stroke: red; }
.edge:hover polygon { stroke: red; fill: red; }
]]></style>
<script type="text/javascript"><![CDATA[
var edges = document.getElementsByTagName('g');
if (edges && edges.length) {
  for (var i=0;i<edges.length;i++) {
    if (edges[i].id.substr(0,4)=='edge') {
      edges[i].setAttribute('class','edge');
    }
  }
}
]]></script>
        <defs>
                <circle id="rim" cx="0" cy="0" r="7"/>
                <circle id="rim2" cx="0" cy="0" r="3.5"/>
                <g id="zoomPlus">
                        <use xlink:href="#rim" fill="#404040">
                                <set attributeName="fill" to="#808080" begin="zoomplus.mouseover" end="zoomplus.mouseout"/>
                        </use>
                        <path d="M-4,0h8M0,-4v8" fill="none" stroke="white" stroke-width="1.5" pointer-events="none"/>
                </g>
                <g id="zoomMin">
                        <use xlink:href="#rim" fill="#404040">
                                <set attributeName="fill" to="#808080" begin="zoomminus.mouseover" end="zoomminus.mouseout"/>
                        </use>
                        <path d="M-4,0h8" fill="none" stroke="white" stroke-width="1.5" pointer-events="none"/>
                </g>
                <g id="dirArrow">
                        <path fill="none" stroke="white" stroke-width="1.5" d="M0,-3.0v7 M-2.5,-0.5L0,-3.0L2.5,-0.5"/>
                </g>
               <g id="resetDef">
                       <use xlink:href="#rim2" fill="#404040">
                               <set attributeName="fill" to="#808080" begin="reset.mouseover" end="reset.mouseout"/>
                       </use>
               </g>
        </defs>

<script type="text/javascript">
var viewWidth = 874;
var viewHeight = 389;
var sectionId = 'dynsection-1';
</script>
<script xlink:href="../../svgpan.js"/>
<svg id="graph" class="graph">
<g id="viewport">
<title>CParser</title>
<polygon fill="white" stroke="none" points="-4,4 -4,-385.293 870,-385.293 870,4 -4,4"/>
<!-- Node1 -->
<g id="node1" class="node"><title>Node1</title>
<polygon fill="#bfbfbf" stroke="black" points="810,-196.5 810,-215.5 866,-215.5 866,-196.5 810,-196.5"/>
<text text-anchor="middle" x="838" y="-203.5" font-family="Helvetica,sans-Serif" font-size="10.00">CParser</text>
</g>
<!-- Node2 -->
<g id="node2" class="node"><title>Node2</title>
<g id="a_node2"><a xlink:href="../../de/d85/classANTLRParser.html" target="_top" xlink:title="ANTLRParser">
<polygon fill="white" stroke="black" points="118.5,-342.5 118.5,-361.5 201.5,-361.5 201.5,-342.5 118.5,-342.5"/>
<text text-anchor="middle" x="160" y="-349.5" font-family="Helvetica,sans-Serif" font-size="10.00">ANTLRParser</text>
</a>
</g>
</g>
<!-- Node2&#45;&gt;Node1 -->
<g id="edge1" class="edge"><title>Node2&#45;&gt;Node1</title>
<path fill="none" stroke="midnightblue" d="M211.564,-361.622C312.712,-378.533 545.403,-405.589 722,-336 780.312,-313.022 819.785,-241.563 832.537,-215.574"/>
<polygon fill="midnightblue" stroke="midnightblue" points="212.063,-358.157 201.616,-359.92 210.882,-365.056 212.063,-358.157"/>
</g>
<!-- Node13 -->
<g id="node13" class="node"><title>Node13</title>
<g id="a_node13"><a xlink:href="../../d6/d28/classANTLR__Assisted__Parser.html" target="_top" xlink:title="ANTLR_Assisted_Parser">
<polygon fill="white" stroke="black" points="323,-318.5 323,-337.5 457,-337.5 457,-318.5 323,-318.5"/>
<text text-anchor="middle" x="390" y="-325.5" font-family="Helvetica,sans-Serif" font-size="10.00">ANTLR_Assisted_Parser</text>
</a>
</g>
</g>
<!-- Node2&#45;&gt;Node13 -->
<g id="edge17" class="edge"><title>Node2&#45;&gt;Node13</title>
<path fill="none" stroke="midnightblue" d="M211.991,-346.632C244.656,-343.194 287.383,-338.697 322.675,-334.982"/>
<polygon fill="midnightblue" stroke="midnightblue" points="211.34,-343.182 201.762,-347.709 212.073,-350.143 211.34,-343.182"/>
</g>
<!-- Node3 -->
<g id="node3" class="node"><title>Node3</title>
<g id="a_node3"><a xlink:href="../../d3/d5e/classParseStore.html" target="_top" xlink:title="ParseStore">
<polygon fill="white" stroke="black" points="617.5,-101.5 617.5,-120.5 687.5,-120.5 687.5,-101.5 617.5,-101.5"/>
<text text-anchor="middle" x="652.5" y="-108.5" font-family="Helvetica,sans-Serif" font-size="10.00">ParseStore</text>
</a>
</g>
</g>
<!-- Node3&#45;&gt;Node1 -->
<g id="edge2" class="edge"><title>Node3&#45;&gt;Node1</title>
<path fill="none" stroke="#9a32cd" stroke-dasharray="5,2" d="M685.453,-124.827C713.906,-137.466 756.413,-157.161 792,-177 802.716,-182.974 814.345,-190.497 823.097,-196.384"/>
<polygon fill="#9a32cd" stroke="#9a32cd" points="686.572,-121.495 676.01,-120.661 683.747,-127.899 686.572,-121.495"/>
<text text-anchor="middle" x="766" y="-180" font-family="Helvetica,sans-Serif" font-size="10.00"> ps</text>
</g>
<!-- Node3&#45;&gt;Node3 -->
<g id="edge3" class="edge"><title>Node3&#45;&gt;Node3</title>
<path fill="none" stroke="#9a32cd" stroke-dasharray="5,2" d="M631.76,-130.4C633.145,-135.315 640.059,-139 652.5,-139 672.406,-139 678.16,-129.565 669.762,-120.757"/>
<polygon fill="#9a32cd" stroke="#9a32cd" points="635.138,-131.351 635.238,-120.757 628.553,-128.977 635.138,-131.351"/>
<text text-anchor="middle" x="652.5" y="-142" font-family="Helvetica,sans-Serif" font-size="10.00"> theCurrentInstance</text>
</g>
<!-- Node4 -->
<g id="node4" class="node"><title>Node4</title>
<polygon fill="white" stroke="#bfbfbf" points="338,-56.5 338,-75.5 442,-75.5 442,-56.5 338,-56.5"/>
<text text-anchor="middle" x="390" y="-63.5" font-family="Helvetica,sans-Serif" font-size="10.00">std::vector&lt; char &gt;</text>
</g>
<!-- Node4&#45;&gt;Node3 -->
<g id="edge4" class="edge"><title>Node4&#45;&gt;Node3</title>
<path fill="none" stroke="#9a32cd" stroke-dasharray="5,2" d="M452.429,-71.1369C485.902,-74.5062 527.941,-79.6659 565,-87 583.957,-90.7517 604.844,-96.4998 621.344,-101.43"/>
<polygon fill="#9a32cd" stroke="#9a32cd" points="452.625,-67.6394 442.331,-70.1483 451.943,-74.6061 452.625,-67.6394"/>
<text text-anchor="middle" x="522" y="-90" font-family="Helvetica,sans-Serif" font-size="10.00"> flag</text>
</g>
<!-- Node5 -->
<g id="node5" class="node"><title>Node5</title>
<polygon fill="white" stroke="#bfbfbf" points="141,-56.5 141,-75.5 179,-75.5 179,-56.5 141,-56.5"/>
<text text-anchor="middle" x="160" y="-63.5" font-family="Helvetica,sans-Serif" font-size="10.00">char</text>
</g>
<!-- Node5&#45;&gt;Node4 -->
<g id="edge5" class="edge"><title>Node5&#45;&gt;Node4</title>
<path fill="none" stroke="#9a32cd" stroke-dasharray="5,2" d="M189.37,-66C226.436,-66 292.004,-66 337.848,-66"/>
<polygon fill="#9a32cd" stroke="#9a32cd" points="189.273,-62.5001 179.273,-66 189.273,-69.5001 189.273,-62.5001"/>
<text text-anchor="middle" x="264" y="-69" font-family="Helvetica,sans-Serif" font-size="10.00"> elements</text>
</g>
<!-- Node6 -->
<g id="node6" class="node"><title>Node6</title>
<g id="a_node6"><a xlink:title="STL class. ">
<polygon fill="white" stroke="#bfbfbf" points="359,-210.5 359,-229.5 421,-229.5 421,-210.5 359,-210.5"/>
<text text-anchor="middle" x="390" y="-217.5" font-family="Helvetica,sans-Serif" font-size="10.00">std::string</text>
</a>
</g>
</g>
<!-- Node6&#45;&gt;Node1 -->
<g id="edge14" class="edge"><title>Node6&#45;&gt;Node1</title>
<path fill="none" stroke="#9a32cd" stroke-dasharray="5,2" d="M431.25,-219.844C503.539,-219.375 660.126,-217.498 792,-210 797.795,-209.671 803.999,-209.197 809.893,-208.691"/>
<polygon fill="#9a32cd" stroke="#9a32cd" points="431.188,-216.344 421.209,-219.903 431.23,-223.344 431.188,-216.344"/>
<text text-anchor="middle" x="652.5" y="-243" font-family="Helvetica,sans-Serif" font-size="10.00"> d1</text>
<text text-anchor="middle" x="652.5" y="-232" font-family="Helvetica,sans-Serif" font-size="10.00">d2</text>
<text text-anchor="middle" x="652.5" y="-221" font-family="Helvetica,sans-Serif" font-size="10.00">d3</text>
</g>
<!-- Node6&#45;&gt;Node3 -->
<g id="edge6" class="edge"><title>Node6&#45;&gt;Node3</title>
<path fill="none" stroke="#9a32cd" stroke-dasharray="5,2" d="M429.933,-207.269C465.571,-195.243 519.521,-176.096 565,-156 589.774,-145.053 617.369,-130.212 634.582,-120.62"/>
<polygon fill="#9a32cd" stroke="#9a32cd" points="428.759,-203.971 420.39,-210.467 430.984,-210.608 428.759,-203.971"/>
<text text-anchor="middle" x="522" y="-193" font-family="Helvetica,sans-Serif" font-size="10.00"> theFilename</text>
</g>
<!-- Node12 -->
<g id="node12" class="node"><title>Node12</title>
<g id="a_node12"><a xlink:href="../../da/d6a/classParseUtility.html" target="_top" xlink:title="ParseUtility">
<polygon fill="white" stroke="black" points="617.5,-278.5 617.5,-297.5 687.5,-297.5 687.5,-278.5 617.5,-278.5"/>
<text text-anchor="middle" x="652.5" y="-285.5" font-family="Helvetica,sans-Serif" font-size="10.00">ParseUtility</text>
</a>
</g>
</g>
<!-- Node6&#45;&gt;Node12 -->
<g id="edge19" class="edge"><title>Node6&#45;&gt;Node12</title>
<path fill="none" stroke="#9a32cd" stroke-dasharray="5,2" d="M431.264,-225.74C466.851,-231.315 519.952,-240.864 565,-254 565.804,-254.234 601.936,-268.461 627.242,-278.435"/>
<polygon fill="#9a32cd" stroke="#9a32cd" points="431.677,-222.263 421.262,-224.206 430.615,-229.182 431.677,-222.263"/>
<text text-anchor="middle" x="522" y="-268" font-family="Helvetica,sans-Serif" font-size="10.00"> stack_tokentext</text>
<text text-anchor="middle" x="522" y="-257" font-family="Helvetica,sans-Serif" font-size="10.00">stack_rules</text>
</g>
<!-- Node7 -->
<g id="node7" class="node"><title>Node7</title>
<g id="a_node7"><a xlink:title="STL class. ">
<polygon fill="white" stroke="#bfbfbf" points="111,-205 111,-235 209,-235 209,-205 111,-205"/>
<text text-anchor="start" x="119" y="-223" font-family="Helvetica,sans-Serif" font-size="10.00">std::basic_string&lt;</text>
<text text-anchor="middle" x="160" y="-212" font-family="Helvetica,sans-Serif" font-size="10.00"> char &gt;</text>
</a>
</g>
</g>
<!-- Node7&#45;&gt;Node6 -->
<g id="edge7" class="edge"><title>Node7&#45;&gt;Node6</title>
<path fill="none" stroke="midnightblue" d="M219.186,-220C263.712,-220 323.318,-220 358.779,-220"/>
<polygon fill="midnightblue" stroke="midnightblue" points="219.074,-216.5 209.074,-220 219.074,-223.5 219.074,-216.5"/>
</g>
<!-- Node8 -->
<g id="node8" class="node"><title>Node8</title>
<polygon fill="white" stroke="#bfbfbf" points="113,-118.5 113,-137.5 207,-137.5 207,-118.5 113,-118.5"/>
<text text-anchor="middle" x="160" y="-125.5" font-family="Helvetica,sans-Serif" font-size="10.00">std::vector&lt; int &gt;</text>
</g>
<!-- Node8&#45;&gt;Node3 -->
<g id="edge8" class="edge"><title>Node8&#45;&gt;Node3</title>
<path fill="none" stroke="#9a32cd" stroke-dasharray="5,2" d="M217.629,-125.296C247.734,-123.908 285.374,-122.25 319,-121 427.787,-116.954 556.643,-113.445 617.031,-111.875"/>
<polygon fill="#9a32cd" stroke="#9a32cd" points="217.141,-121.815 207.314,-125.775 217.465,-128.807 217.141,-121.815"/>
<text text-anchor="middle" x="390" y="-124" font-family="Helvetica,sans-Serif" font-size="10.00"> pendingLexicalCounts</text>
</g>
<!-- Node10 -->
<g id="node10" class="node"><title>Node10</title>
<polygon fill="white" stroke="#bfbfbf" points="319,-142 319,-172 461,-172 461,-142 319,-142"/>
<text text-anchor="start" x="327" y="-160" font-family="Helvetica,sans-Serif" font-size="10.00">std::map&lt; int, LexicalCount</text>
<text text-anchor="middle" x="390" y="-149" font-family="Helvetica,sans-Serif" font-size="10.00">Array &gt;</text>
</g>
<!-- Node8&#45;&gt;Node10 -->
<g id="edge12" class="edge"><title>Node8&#45;&gt;Node10</title>
<path fill="none" stroke="#9a32cd" stroke-dasharray="5,2" d="M217.22,-135.151C247.859,-139.048 286.067,-143.908 318.664,-148.054"/>
<polygon fill="#9a32cd" stroke="#9a32cd" points="217.501,-131.658 207.139,-133.869 216.618,-138.602 217.501,-131.658"/>
<text text-anchor="middle" x="264" y="-149" font-family="Helvetica,sans-Serif" font-size="10.00"> elements</text>
</g>
<!-- Node9 -->
<g id="node9" class="node"><title>Node9</title>
<polygon fill="white" stroke="#bfbfbf" points="0,-164.5 0,-183.5 29,-183.5 29,-164.5 0,-164.5"/>
<text text-anchor="middle" x="14.5" y="-171.5" font-family="Helvetica,sans-Serif" font-size="10.00">int</text>
</g>
<!-- Node9&#45;&gt;Node8 -->
<g id="edge9" class="edge"><title>Node9&#45;&gt;Node8</title>
<path fill="none" stroke="#9a32cd" stroke-dasharray="5,2" d="M32.8235,-157.827C37.1861,-154.465 42.0457,-151.261 47,-149 67.5177,-139.637 91.9717,-134.449 112.788,-131.574"/>
<polygon fill="#9a32cd" stroke="#9a32cd" points="30.5503,-155.166 25.1524,-164.283 35.0573,-160.522 30.5503,-155.166"/>
<text text-anchor="middle" x="70" y="-152" font-family="Helvetica,sans-Serif" font-size="10.00"> elements</text>
</g>
<!-- Node9&#45;&gt;Node10 -->
<g id="edge11" class="edge"><title>Node9&#45;&gt;Node10</title>
<path fill="none" stroke="#9a32cd" stroke-dasharray="5,2" d="M39.4578,-172.91C94.8751,-170.387 233.663,-164.07 318.743,-160.198"/>
<polygon fill="#9a32cd" stroke="#9a32cd" points="39.0665,-169.424 29.236,-173.375 39.3849,-176.416 39.0665,-169.424"/>
<text text-anchor="middle" x="160" y="-173" font-family="Helvetica,sans-Serif" font-size="10.00"> keys</text>
</g>
<!-- Node9&#45;&gt;Node12 -->
<g id="edge18" class="edge"><title>Node9&#45;&gt;Node12</title>
<path fill="none" stroke="#9a32cd" stroke-dasharray="5,2" d="M32.0097,-190.591C49.8045,-207.311 79.7969,-232.268 111,-244 291.655,-311.923 529.576,-299.278 617.202,-291.544"/>
<polygon fill="#9a32cd" stroke="#9a32cd" points="34.3573,-187.993 24.7315,-183.566 29.4958,-193.029 34.3573,-187.993"/>
<text text-anchor="middle" x="264" y="-313" font-family="Helvetica,sans-Serif" font-size="10.00"> stack_depth</text>
<text text-anchor="middle" x="264" y="-302" font-family="Helvetica,sans-Serif" font-size="10.00">stack_tokenline</text>
<text text-anchor="middle" x="264" y="-291" font-family="Helvetica,sans-Serif" font-size="10.00">trace_depth</text>
</g>
<!-- Node10&#45;&gt;Node3 -->
<g id="edge10" class="edge"><title>Node10&#45;&gt;Node3</title>
<path fill="none" stroke="#9a32cd" stroke-dasharray="5,2" d="M471.125,-142.851C520.202,-134.185 580.484,-123.54 617.436,-117.015"/>
<polygon fill="#9a32cd" stroke="#9a32cd" points="470.391,-139.427 461.152,-144.612 471.608,-146.32 470.391,-139.427"/>
<text text-anchor="middle" x="522" y="-144" font-family="Helvetica,sans-Serif" font-size="10.00"> lineLexicalCounts</text>
</g>
<!-- Node11 -->
<g id="node11" class="node"><title>Node11</title>
<polygon fill="white" stroke="#bfbfbf" points="583,-168.5 583,-187.5 722,-187.5 722,-168.5 583,-168.5"/>
<text text-anchor="middle" x="652.5" y="-175.5" font-family="Helvetica,sans-Serif" font-size="10.00">static const ANTLRChar *</text>
</g>
<!-- Node11&#45;&gt;Node1 -->
<g id="edge13" class="edge"><title>Node11&#45;&gt;Node1</title>
<path fill="none" stroke="#9a32cd" stroke-dasharray="5,2" d="M726.762,-189.055C747.825,-192.247 770.826,-195.748 792,-199 797.783,-199.888 803.983,-200.848 809.875,-201.763"/>
<polygon fill="#9a32cd" stroke="#9a32cd" points="727.006,-185.552 716.595,-187.514 725.958,-192.473 727.006,-185.552"/>
<text text-anchor="middle" x="766" y="-202" font-family="Helvetica,sans-Serif" font-size="10.00"> _token_tbl</text>
</g>
<!-- Node12&#45;&gt;Node1 -->
<g id="edge15" class="edge"><title>Node12&#45;&gt;Node1</title>
<path fill="none" stroke="#9a32cd" stroke-dasharray="5,2" d="M697.461,-275.502C725.348,-266.764 761.744,-253.84 792,-238 804.06,-231.686 816.586,-222.531 825.351,-215.629"/>
<polygon fill="#9a32cd" stroke="#9a32cd" points="696.132,-272.249 687.599,-278.53 698.186,-278.941 696.132,-272.249"/>
<text text-anchor="middle" x="766" y="-264" font-family="Helvetica,sans-Serif" font-size="10.00"> pu</text>
</g>
<!-- Node12&#45;&gt;Node12 -->
<g id="edge20" class="edge"><title>Node12&#45;&gt;Node12</title>
<path fill="none" stroke="#9a32cd" stroke-dasharray="5,2" d="M631.76,-307.4C633.145,-312.315 640.059,-316 652.5,-316 672.406,-316 678.16,-306.565 669.762,-297.757"/>
<polygon fill="#9a32cd" stroke="#9a32cd" points="635.138,-308.351 635.238,-297.757 628.553,-305.977 635.138,-308.351"/>
<text text-anchor="middle" x="652.5" y="-319" font-family="Helvetica,sans-Serif" font-size="10.00"> theCurrentInstance</text>
</g>
<!-- Node13&#45;&gt;Node12 -->
<g id="edge16" class="edge"><title>Node13&#45;&gt;Node12</title>
<path fill="none" stroke="#9a32cd" stroke-dasharray="5,2" d="M467.328,-318.242C497.762,-314.151 533.084,-309.15 565,-304 582.339,-301.202 601.555,-297.689 617.463,-294.668"/>
<polygon fill="#9a32cd" stroke="#9a32cd" points="466.655,-314.801 457.206,-319.594 467.581,-321.739 466.655,-314.801"/>
<text text-anchor="middle" x="522" y="-319" font-family="Helvetica,sans-Serif" font-size="10.00"> parser</text>
</g>
<!-- Node14 -->
<g id="node14" class="node"><title>Node14</title>
<polygon fill="white" stroke="#bfbfbf" points="597.5,-0.5 597.5,-19.5 707.5,-19.5 707.5,-0.5 597.5,-0.5"/>
<text text-anchor="middle" x="652.5" y="-7.5" font-family="Helvetica,sans-Serif" font-size="10.00">static SetWordType</text>
</g>
<!-- Node14&#45;&gt;Node1 -->
<g id="edge21" class="edge"><title>Node14&#45;&gt;Node1</title>
<path fill="none" stroke="#9a32cd" stroke-dasharray="5,2" d="M717.833,-3.07242C743.69,-3.75238 772.04,-9.37664 792,-27 818.062,-50.0115 832.274,-162.627 836,-196.405"/>
<polygon fill="#9a32cd" stroke="#9a32cd" points="717.702,0.427825 707.693,-3.04651 717.684,-6.57215 717.702,0.427825"/>
<text text-anchor="middle" x="766" y="-140" font-family="Helvetica,sans-Serif" font-size="10.00"> err89</text>
<text text-anchor="middle" x="766" y="-129" font-family="Helvetica,sans-Serif" font-size="10.00">err78</text>
<text text-anchor="middle" x="766" y="-118" font-family="Helvetica,sans-Serif" font-size="10.00">setwd20</text>
<text text-anchor="middle" x="766" y="-107" font-family="Helvetica,sans-Serif" font-size="10.00">err56</text>
<text text-anchor="middle" x="766" y="-96" font-family="Helvetica,sans-Serif" font-size="10.00">err45</text>
<text text-anchor="middle" x="766" y="-85" font-family="Helvetica,sans-Serif" font-size="10.00">err34</text>
<text text-anchor="middle" x="766" y="-74" font-family="Helvetica,sans-Serif" font-size="10.00">setwd11</text>
<text text-anchor="middle" x="766" y="-63" font-family="Helvetica,sans-Serif" font-size="10.00">err23</text>
<text text-anchor="middle" x="766" y="-52" font-family="Helvetica,sans-Serif" font-size="10.00">err12</text>
<text text-anchor="middle" x="766" y="-41" font-family="Helvetica,sans-Serif" font-size="10.00">err2</text>
<text text-anchor="middle" x="766" y="-30" font-family="Helvetica,sans-Serif" font-size="10.00">...</text>
</g>
</g>
</svg>
        <g id="navigator" transform="translate(0 0)" fill="#404254">
                <rect fill="#f2f5e9" fill-opacity="0.5" stroke="#606060" stroke-width=".5" x="0" y="0" width="60" height="60"/>
                <use id="zoomplus" xlink:href="#zoomPlus" x="17" y="9" onmousedown="handleZoom(evt,'in')"/>
                <use id="zoomminus" xlink:href="#zoomMin" x="42" y="9" onmousedown="handleZoom(evt,'out')"/>
                <use id="reset" xlink:href="#resetDef" x="30" y="36" onmousedown="handleReset()"/>
                <g id="arrowUp" xlink:href="#dirArrow" transform="translate(30 24)" onmousedown="handlePan(0,-1)">
                  <use xlink:href="#rim" fill="#404040">
                        <set attributeName="fill" to="#808080" begin="arrowUp.mouseover" end="arrowUp.mouseout"/>
                  </use>
                  <path fill="none" stroke="white" stroke-width="1.5" d="M0,-3.0v7 M-2.5,-0.5L0,-3.0L2.5,-0.5"/>
                </g>
                <g id="arrowRight" xlink:href="#dirArrow" transform="rotate(90) translate(36 -43)" onmousedown="handlePan(1,0)">
                  <use xlink:href="#rim" fill="#404040">
                        <set attributeName="fill" to="#808080" begin="arrowRight.mouseover" end="arrowRight.mouseout"/>
                  </use>
                  <path fill="none" stroke="white" stroke-width="1.5" d="M0,-3.0v7 M-2.5,-0.5L0,-3.0L2.5,-0.5"/>
                </g>
                <g id="arrowDown" xlink:href="#dirArrow" transform="rotate(180) translate(-30 -48)" onmousedown="handlePan(0,1)">
                  <use xlink:href="#rim" fill="#404040">
                        <set attributeName="fill" to="#808080" begin="arrowDown.mouseover" end="arrowDown.mouseout"/>
                  </use>
                  <path fill="none" stroke="white" stroke-width="1.5" d="M0,-3.0v7 M-2.5,-0.5L0,-3.0L2.5,-0.5"/>
                </g>
                <g id="arrowLeft" xlink:href="#dirArrow" transform="rotate(270) translate(-36 17)" onmousedown="handlePan(-1,0)">
                  <use xlink:href="#rim" fill="#404040">
                        <set attributeName="fill" to="#808080" begin="arrowLeft.mouseover" end="arrowLeft.mouseout"/>
                  </use>
                  <path fill="none" stroke="white" stroke-width="1.5" d="M0,-3.0v7 M-2.5,-0.5L0,-3.0L2.5,-0.5"/>
                </g>
        </g>
        <svg viewBox="0 0 15 15" width="100%" height="30px" preserveAspectRatio="xMaxYMin meet">
         <g id="arrow_out" transform="scale(0.3 0.3)">
          <a xlink:href="classCParser__coll__graph_org.svg" target="_base">
           <rect id="button" ry="5" rx="5" y="6" x="6" height="38" width="38"
                fill="#f2f5e9" fill-opacity="0.5" stroke="#606060" stroke-width="1.0"/>
           <path id="arrow"
             d="M 11.500037,31.436501 C 11.940474,20.09759 22.043105,11.32322 32.158766,21.979434 L 37.068811,17.246167 C 37.068811,17.246167 37.088388,32 37.088388,32 L 22.160133,31.978069 C 22.160133,31.978069 26.997745,27.140456 26.997745,27.140456 C 18.528582,18.264221 13.291696,25.230495 11.500037,31.436501 z"
             style="fill:#404040;"/>
          </a>
         </g>
        </svg>
</svg>
