<?xml version="1.0" encoding="UTF-8" standalone="no"?>
<!DOCTYPE svg PUBLIC "-//W3C//DTD SVG 1.1//EN"
 "http://www.w3.org/Graphics/SVG/1.1/DTD/svg11.dtd">
<!-- Generated by graphviz version 2.38.0 (20140413.2041)
 -->
<!-- Title: cccc_ext.h Pages: 1 -->
<!--zoomable 252 -->
<svg id="main" version="1.1" xmlns="http://www.w3.org/2000/svg" xmlns:xlink="http://www.w3.org/1999/xlink" xml:space="preserve" onload="init(evt)">
<style type="text/css"><![CDATA[
.edge:hover path { stroke: red; }
.edge:hover polygon { stroke: red; fill: red; }
]]></style>
<script type="text/javascript"><![CDATA[
var edges = document.getElementsByTagName('g');
if (edges && edges.length) {
  for (var i=0;i<edges.length;i++) {
    if (edges[i].id.substr(0,4)=='edge') {
      edges[i].setAttribute('class','edge');
    }
  }
}
]]></script>
        <defs>
                <circle id="rim" cx="0" cy="0" r="7"/>
                <circle id="rim2" cx="0" cy="0" r="3.5"/>
                <g id="zoomPlus">
                        <use xlink:href="#rim" fill="#404040">
                                <set attributeName="fill" to="#808080" begin="zoomplus.mouseover" end="zoomplus.mouseout"/>
                        </use>
                        <path d="M-4,0h8M0,-4v8" fill="none" stroke="white" stroke-width="1.5" pointer-events="none"/>
                </g>
                <g id="zoomMin">
                        <use xlink:href="#rim" fill="#404040">
                                <set attributeName="fill" to="#808080" begin="zoomminus.mouseover" end="zoomminus.mouseout"/>
                        </use>
                        <path d="M-4,0h8" fill="none" stroke="white" stroke-width="1.5" pointer-events="none"/>
                </g>
                <g id="dirArrow">
                        <path fill="none" stroke="white" stroke-width="1.5" d="M0,-3.0v7 M-2.5,-0.5L0,-3.0L2.5,-0.5"/>
                </g>
               <g id="resetDef">
                       <use xlink:href="#rim2" fill="#404040">
                               <set attributeName="fill" to="#808080" begin="reset.mouseover" end="reset.mouseout"/>
                       </use>
               </g>
        </defs>

<script type="text/javascript">
var viewWidth = 825;
var viewHeight = 252;
var sectionId = 'dynsection-0';
</script>
<script xlink:href="../../svgpan.js"/>
<svg id="graph" class="graph">
<g id="viewport">
<title>cccc_ext.h</title>
<polygon fill="white" stroke="none" points="-4,4 -4,-248 821,-248 821,4 -4,4"/>
<!-- Node1 -->
<g id="node1" class="node"><title>Node1</title>
<polygon fill="#bfbfbf" stroke="black" points="96.5,-224.5 96.5,-243.5 162.5,-243.5 162.5,-224.5 96.5,-224.5"/>
<text text-anchor="middle" x="129.5" y="-231.5" font-family="Helvetica,sans-Serif" font-size="10.00">cccc_ext.h</text>
</g>
<!-- Node2 -->
<g id="node2" class="node"><title>Node2</title>
<polygon fill="white" stroke="#bfbfbf" points="0,-56.5 0,-75.5 43,-75.5 43,-56.5 0,-56.5"/>
<text text-anchor="middle" x="21.5" y="-63.5" font-family="Helvetica,sans-Serif" font-size="10.00">string</text>
</g>
<!-- Node1&#45;&gt;Node2 -->
<g id="edge1" class="edge"><title>Node1&#45;&gt;Node2</title>
<path fill="none" stroke="midnightblue" d="M123.693,-224.075C106.473,-197.606 55.4673,-119.209 32.6967,-84.2097"/>
<polygon fill="midnightblue" stroke="midnightblue" points="35.4617,-82.0415 27.0744,-75.5681 29.5942,-85.859 35.4617,-82.0415"/>
</g>
<!-- Node3 -->
<g id="node3" class="node"><title>Node3</title>
<g id="a_node3"><a xlink:href="../../d7/d8f/cccc__utl_8h.html" target="_top" xlink:title="cccc_utl.h">
<polygon fill="white" stroke="black" points="176.5,-168.5 176.5,-187.5 238.5,-187.5 238.5,-168.5 176.5,-168.5"/>
<text text-anchor="middle" x="207.5" y="-175.5" font-family="Helvetica,sans-Serif" font-size="10.00">cccc_utl.h</text>
</a>
</g>
</g>
<!-- Node1&#45;&gt;Node3 -->
<g id="edge2" class="edge"><title>Node1&#45;&gt;Node3</title>
<path fill="none" stroke="midnightblue" d="M142.032,-224.324C154.086,-215.979 172.527,-203.212 186.769,-193.352"/>
<polygon fill="midnightblue" stroke="midnightblue" points="188.769,-196.224 194.999,-187.655 184.785,-190.469 188.769,-196.224"/>
</g>
<!-- Node4 -->
<g id="node4" class="node"><title>Node4</title>
<g id="a_node4"><a xlink:href="../../d0/d84/cccc_8h.html" target="_top" xlink:title="cccc.h">
<polygon fill="white" stroke="black" points="325.5,-112.5 325.5,-131.5 371.5,-131.5 371.5,-112.5 325.5,-112.5"/>
<text text-anchor="middle" x="348.5" y="-119.5" font-family="Helvetica,sans-Serif" font-size="10.00">cccc.h</text>
</a>
</g>
</g>
<!-- Node3&#45;&gt;Node4 -->
<g id="edge3" class="edge"><title>Node3&#45;&gt;Node4</title>
<path fill="none" stroke="midnightblue" d="M229.842,-168.444C253.253,-159.478 290.236,-145.314 316.69,-135.183"/>
<polygon fill="midnightblue" stroke="midnightblue" points="318.176,-138.361 326.263,-131.516 315.672,-131.824 318.176,-138.361"/>
</g>
<!-- Node14 -->
<g id="node14" class="node"><title>Node14</title>
<g id="a_node14"><a xlink:href="../../d1/d7d/cccc__tok_8h.html" target="_top" xlink:title="cccc_tok.h">
<polygon fill="white" stroke="black" points="61.5,-56.5 61.5,-75.5 127.5,-75.5 127.5,-56.5 61.5,-56.5"/>
<text text-anchor="middle" x="94.5" y="-63.5" font-family="Helvetica,sans-Serif" font-size="10.00">cccc_tok.h</text>
</a>
</g>
</g>
<!-- Node3&#45;&gt;Node14 -->
<g id="edge20" class="edge"><title>Node3&#45;&gt;Node14</title>
<path fill="none" stroke="midnightblue" d="M194.9,-168.391C182.724,-159.809 164.038,-145.934 149.5,-132 133.742,-116.897 117.865,-97.5918 107.248,-83.9569"/>
<polygon fill="midnightblue" stroke="midnightblue" points="109.946,-81.7241 101.085,-75.9167 104.391,-85.9826 109.946,-81.7241"/>
</g>
<!-- Node16 -->
<g id="node16" class="node"><title>Node16</title>
<polygon fill="white" stroke="#bfbfbf" points="754,-56.5 754,-75.5 817,-75.5 817,-56.5 754,-56.5"/>
<text text-anchor="middle" x="785.5" y="-63.5" font-family="Helvetica,sans-Serif" font-size="10.00">AParser.h</text>
</g>
<!-- Node3&#45;&gt;Node16 -->
<g id="edge21" class="edge"><title>Node3&#45;&gt;Node16</title>
<path fill="none" stroke="midnightblue" d="M238.738,-171.465C320.048,-156.985 545.141,-116.439 743.703,-76.1137"/>
<polygon fill="midnightblue" stroke="midnightblue" points="744.635,-79.4959 753.736,-74.0717 743.239,-72.6365 744.635,-79.4959"/>
</g>
<!-- Node17 -->
<g id="node17" class="node"><title>Node17</title>
<polygon fill="white" stroke="#bfbfbf" points="159,-112.5 159,-131.5 196,-131.5 196,-112.5 159,-112.5"/>
<text text-anchor="middle" x="177.5" y="-119.5" font-family="Helvetica,sans-Serif" font-size="10.00">map</text>
</g>
<!-- Node3&#45;&gt;Node17 -->
<g id="edge18" class="edge"><title>Node3&#45;&gt;Node17</title>
<path fill="none" stroke="midnightblue" d="M202.546,-168.083C198.396,-160.613 192.347,-149.724 187.233,-140.52"/>
<polygon fill="midnightblue" stroke="midnightblue" points="190.278,-138.793 182.362,-131.751 184.159,-142.192 190.278,-138.793"/>
</g>
<!-- Node18 -->
<g id="node18" class="node"><title>Node18</title>
<polygon fill="white" stroke="#bfbfbf" points="214.5,-112.5 214.5,-131.5 260.5,-131.5 260.5,-112.5 214.5,-112.5"/>
<text text-anchor="middle" x="237.5" y="-119.5" font-family="Helvetica,sans-Serif" font-size="10.00">vector</text>
</g>
<!-- Node3&#45;&gt;Node18 -->
<g id="edge19" class="edge"><title>Node3&#45;&gt;Node18</title>
<path fill="none" stroke="midnightblue" d="M212.454,-168.083C216.604,-160.613 222.653,-149.724 227.767,-140.52"/>
<polygon fill="midnightblue" stroke="midnightblue" points="230.841,-142.192 232.638,-131.751 224.722,-138.793 230.841,-142.192"/>
</g>
<!-- Node4&#45;&gt;Node2 -->
<g id="edge10" class="edge"><title>Node4&#45;&gt;Node2</title>
<path fill="none" stroke="midnightblue" d="M325.281,-118.525C276.632,-113.116 160.339,-99.0184 53.1013,-75.8566"/>
<polygon fill="midnightblue" stroke="midnightblue" points="53.6043,-72.3838 43.0867,-73.6608 52.1051,-79.2214 53.6043,-72.3838"/>
</g>
<!-- Node5 -->
<g id="node5" class="node"><title>Node5</title>
<polygon fill="white" stroke="#bfbfbf" points="429,-56.5 429,-75.5 480,-75.5 480,-56.5 429,-56.5"/>
<text text-anchor="middle" x="454.5" y="-63.5" font-family="Helvetica,sans-Serif" font-size="10.00">cassert</text>
</g>
<!-- Node4&#45;&gt;Node5 -->
<g id="edge4" class="edge"><title>Node4&#45;&gt;Node5</title>
<path fill="none" stroke="midnightblue" d="M365.531,-112.324C382.53,-103.664 408.876,-90.2424 428.493,-80.249"/>
<polygon fill="midnightblue" stroke="midnightblue" points="430.19,-83.3125 437.512,-75.6545 427.012,-77.0752 430.19,-83.3125"/>
</g>
<!-- Node6 -->
<g id="node6" class="node"><title>Node6</title>
<polygon fill="white" stroke="#bfbfbf" points="498,-56.5 498,-75.5 543,-75.5 543,-56.5 498,-56.5"/>
<text text-anchor="middle" x="520.5" y="-63.5" font-family="Helvetica,sans-Serif" font-size="10.00">cmath</text>
</g>
<!-- Node4&#45;&gt;Node6 -->
<g id="edge5" class="edge"><title>Node4&#45;&gt;Node6</title>
<path fill="none" stroke="midnightblue" d="M371.697,-113.717C401.696,-104.299 454.113,-87.8426 488.05,-77.1878"/>
<polygon fill="midnightblue" stroke="midnightblue" points="489.451,-80.4164 497.944,-74.0817 487.354,-73.7378 489.451,-80.4164"/>
</g>
<!-- Node7 -->
<g id="node7" class="node"><title>Node7</title>
<polygon fill="white" stroke="#bfbfbf" points="561.5,-56.5 561.5,-75.5 605.5,-75.5 605.5,-56.5 561.5,-56.5"/>
<text text-anchor="middle" x="583.5" y="-63.5" font-family="Helvetica,sans-Serif" font-size="10.00">cstdio</text>
</g>
<!-- Node4&#45;&gt;Node7 -->
<g id="edge6" class="edge"><title>Node4&#45;&gt;Node7</title>
<path fill="none" stroke="midnightblue" d="M371.737,-116.291C407.861,-108.876 479.877,-93.7166 551.119,-75.9745"/>
<polygon fill="midnightblue" stroke="midnightblue" points="552.316,-79.283 561.163,-73.4544 550.612,-72.4934 552.316,-79.283"/>
</g>
<!-- Node8 -->
<g id="node8" class="node"><title>Node8</title>
<polygon fill="white" stroke="#bfbfbf" points="623.5,-56.5 623.5,-75.5 671.5,-75.5 671.5,-56.5 623.5,-56.5"/>
<text text-anchor="middle" x="647.5" y="-63.5" font-family="Helvetica,sans-Serif" font-size="10.00">cstring</text>
</g>
<!-- Node4&#45;&gt;Node8 -->
<g id="edge7" class="edge"><title>Node4&#45;&gt;Node8</title>
<path fill="none" stroke="midnightblue" d="M371.776,-117.851C416.668,-111.61 518.477,-96.6444 613.639,-76.0088"/>
<polygon fill="midnightblue" stroke="midnightblue" points="614.4,-79.4251 623.418,-73.8628 612.9,-72.5878 614.4,-79.4251"/>
</g>
<!-- Node9 -->
<g id="node9" class="node"><title>Node9</title>
<polygon fill="white" stroke="#bfbfbf" points="689.5,-56.5 689.5,-75.5 735.5,-75.5 735.5,-56.5 689.5,-56.5"/>
<text text-anchor="middle" x="712.5" y="-63.5" font-family="Helvetica,sans-Serif" font-size="10.00">cstdlib</text>
</g>
<!-- Node4&#45;&gt;Node9 -->
<g id="edge8" class="edge"><title>Node4&#45;&gt;Node9</title>
<path fill="none" stroke="midnightblue" d="M371.63,-118.985C424.516,-114.142 558.424,-100.538 679.378,-75.9851"/>
<polygon fill="midnightblue" stroke="midnightblue" points="680.086,-79.4127 689.174,-73.9661 678.673,-72.5567 680.086,-79.4127"/>
</g>
<!-- Node10 -->
<g id="node10" class="node"><title>Node10</title>
<polygon fill="white" stroke="#bfbfbf" points="146,-56.5 146,-75.5 193,-75.5 193,-56.5 146,-56.5"/>
<text text-anchor="middle" x="169.5" y="-63.5" font-family="Helvetica,sans-Serif" font-size="10.00">cctype</text>
</g>
<!-- Node4&#45;&gt;Node10 -->
<g id="edge9" class="edge"><title>Node4&#45;&gt;Node10</title>
<path fill="none" stroke="midnightblue" d="M325.465,-114.051C294.355,-104.666 238.698,-87.8755 202.97,-77.0971"/>
<polygon fill="midnightblue" stroke="midnightblue" points="203.599,-73.6312 193.015,-74.0938 201.578,-80.3329 203.599,-73.6312"/>
</g>
<!-- Node11 -->
<g id="node11" class="node"><title>Node11</title>
<polygon fill="white" stroke="#bfbfbf" points="211,-56.5 211,-75.5 268,-75.5 268,-56.5 211,-56.5"/>
<text text-anchor="middle" x="239.5" y="-63.5" font-family="Helvetica,sans-Serif" font-size="10.00">iostream</text>
</g>
<!-- Node4&#45;&gt;Node11 -->
<g id="edge11" class="edge"><title>Node4&#45;&gt;Node11</title>
<path fill="none" stroke="midnightblue" d="M330.987,-112.324C313.428,-103.625 286.169,-90.1202 265.969,-80.113"/>
<polygon fill="midnightblue" stroke="midnightblue" points="267.484,-76.9575 256.969,-75.6545 264.376,-83.23 267.484,-76.9575"/>
</g>
<!-- Node12 -->
<g id="node12" class="node"><title>Node12</title>
<polygon fill="white" stroke="#bfbfbf" points="286.5,-56.5 286.5,-75.5 340.5,-75.5 340.5,-56.5 286.5,-56.5"/>
<text text-anchor="middle" x="313.5" y="-63.5" font-family="Helvetica,sans-Serif" font-size="10.00">sstream</text>
</g>
<!-- Node4&#45;&gt;Node12 -->
<g id="edge12" class="edge"><title>Node4&#45;&gt;Node12</title>
<path fill="none" stroke="midnightblue" d="M342.72,-112.083C337.828,-104.534 330.673,-93.4948 324.667,-84.2298"/>
<polygon fill="midnightblue" stroke="midnightblue" points="327.548,-82.239 319.172,-75.7511 321.674,-86.0463 327.548,-82.239"/>
</g>
<!-- Node13 -->
<g id="node13" class="node"><title>Node13</title>
<polygon fill="white" stroke="#bfbfbf" points="358.5,-56.5 358.5,-75.5 410.5,-75.5 410.5,-56.5 358.5,-56.5"/>
<text text-anchor="middle" x="384.5" y="-63.5" font-family="Helvetica,sans-Serif" font-size="10.00">fstream</text>
</g>
<!-- Node4&#45;&gt;Node13 -->
<g id="edge13" class="edge"><title>Node4&#45;&gt;Node13</title>
<path fill="none" stroke="midnightblue" d="M354.445,-112.083C359.477,-104.534 366.837,-93.4948 373.013,-84.2298"/>
<polygon fill="midnightblue" stroke="midnightblue" points="376.031,-86.0131 378.666,-75.7511 370.207,-82.1301 376.031,-86.0131"/>
</g>
<!-- Node4&#45;&gt;Node14 -->
<g id="edge14" class="edge"><title>Node4&#45;&gt;Node14</title>
<path fill="none" stroke="midnightblue" d="M325.326,-117.159C286.527,-109.751 206.842,-92.909 135.325,-77.6678"/>
<polygon fill="midnightblue" stroke="midnightblue" points="135.803,-74.1911 125.293,-75.529 134.343,-81.0372 135.803,-74.1911"/>
</g>
<!-- Node4&#45;&gt;Node16 -->
<g id="edge17" class="edge"><title>Node4&#45;&gt;Node16</title>
<path fill="none" stroke="midnightblue" d="M371.826,-119.194C431.778,-114.374 596.276,-100.023 743.648,-75.9743"/>
<polygon fill="midnightblue" stroke="midnightblue" points="744.482,-79.384 753.778,-74.3012 743.342,-72.4776 744.482,-79.384"/>
</g>
<!-- Node14&#45;&gt;Node4 -->
<g id="edge15" class="edge"><title>Node14&#45;&gt;Node4</title>
<path fill="none" stroke="midnightblue" d="M127.674,-72.2429C133.69,-73.4773 139.811,-74.7867 145.5,-76 205.586,-88.8148 275.271,-103.59 315.529,-112.611"/>
<polygon fill="midnightblue" stroke="midnightblue" points="314.822,-116.039 325.348,-114.831 316.366,-109.211 314.822,-116.039"/>
</g>
<!-- Node15 -->
<g id="node15" class="node"><title>Node15</title>
<polygon fill="white" stroke="#bfbfbf" points="63.5,-0.5 63.5,-19.5 125.5,-19.5 125.5,-0.5 63.5,-0.5"/>
<text text-anchor="middle" x="94.5" y="-7.5" font-family="Helvetica,sans-Serif" font-size="10.00">AToken.h</text>
</g>
<!-- Node14&#45;&gt;Node15 -->
<g id="edge16" class="edge"><title>Node14&#45;&gt;Node15</title>
<path fill="none" stroke="midnightblue" d="M94.5,-56.083C94.5,-49.0059 94.5,-38.8611 94.5,-29.9865"/>
<polygon fill="midnightblue" stroke="midnightblue" points="98.0001,-29.751 94.5,-19.7511 91.0001,-29.7511 98.0001,-29.751"/>
</g>
</g>
</svg>
        <g id="navigator" transform="translate(0 0)" fill="#404254">
                <rect fill="#f2f5e9" fill-opacity="0.5" stroke="#606060" stroke-width=".5" x="0" y="0" width="60" height="60"/>
                <use id="zoomplus" xlink:href="#zoomPlus" x="17" y="9" onmousedown="handleZoom(evt,'in')"/>
                <use id="zoomminus" xlink:href="#zoomMin" x="42" y="9" onmousedown="handleZoom(evt,'out')"/>
                <use id="reset" xlink:href="#resetDef" x="30" y="36" onmousedown="handleReset()"/>
                <g id="arrowUp" xlink:href="#dirArrow" transform="translate(30 24)" onmousedown="handlePan(0,-1)">
                  <use xlink:href="#rim" fill="#404040">
                        <set attributeName="fill" to="#808080" begin="arrowUp.mouseover" end="arrowUp.mouseout"/>
                  </use>
                  <path fill="none" stroke="white" stroke-width="1.5" d="M0,-3.0v7 M-2.5,-0.5L0,-3.0L2.5,-0.5"/>
                </g>
                <g id="arrowRight" xlink:href="#dirArrow" transform="rotate(90) translate(36 -43)" onmousedown="handlePan(1,0)">
                  <use xlink:href="#rim" fill="#404040">
                        <set attributeName="fill" to="#808080" begin="arrowRight.mouseover" end="arrowRight.mouseout"/>
                  </use>
                  <path fill="none" stroke="white" stroke-width="1.5" d="M0,-3.0v7 M-2.5,-0.5L0,-3.0L2.5,-0.5"/>
                </g>
                <g id="arrowDown" xlink:href="#dirArrow" transform="rotate(180) translate(-30 -48)" onmousedown="handlePan(0,1)">
                  <use xlink:href="#rim" fill="#404040">
                        <set attributeName="fill" to="#808080" begin="arrowDown.mouseover" end="arrowDown.mouseout"/>
                  </use>
                  <path fill="none" stroke="white" stroke-width="1.5" d="M0,-3.0v7 M-2.5,-0.5L0,-3.0L2.5,-0.5"/>
                </g>
                <g id="arrowLeft" xlink:href="#dirArrow" transform="rotate(270) translate(-36 17)" onmousedown="handlePan(-1,0)">
                  <use xlink:href="#rim" fill="#404040">
                        <set attributeName="fill" to="#808080" begin="arrowLeft.mouseover" end="arrowLeft.mouseout"/>
                  </use>
                  <path fill="none" stroke="white" stroke-width="1.5" d="M0,-3.0v7 M-2.5,-0.5L0,-3.0L2.5,-0.5"/>
                </g>
        </g>
        <svg viewBox="0 0 15 15" width="100%" height="30px" preserveAspectRatio="xMaxYMin meet">
         <g id="arrow_out" transform="scale(0.3 0.3)">
          <a xlink:href="cccc__ext_8h__incl_org.svg" target="_base">
           <rect id="button" ry="5" rx="5" y="6" x="6" height="38" width="38"
                fill="#f2f5e9" fill-opacity="0.5" stroke="#606060" stroke-width="1.0"/>
           <path id="arrow"
             d="M 11.500037,31.436501 C 11.940474,20.09759 22.043105,11.32322 32.158766,21.979434 L 37.068811,17.246167 C 37.068811,17.246167 37.088388,32 37.088388,32 L 22.160133,31.978069 C 22.160133,31.978069 26.997745,27.140456 26.997745,27.140456 C 18.528582,18.264221 13.291696,25.230495 11.500037,31.436501 z"
             style="fill:#404040;"/>
          </a>
         </g>
        </svg>
</svg>
