<?xml version="1.0" encoding="UTF-8" standalone="no"?>
<!DOCTYPE svg PUBLIC "-//W3C//DTD SVG 1.1//EN"
 "http://www.w3.org/Graphics/SVG/1.1/DTD/svg11.dtd">
<!-- Generated by graphviz version 2.38.0 (20140413.2041)
 -->
<!-- Title: CCCC_Options::Load_Options Pages: 1 -->
<!--zoomable 119 -->
<svg id="main" version="1.1" xmlns="http://www.w3.org/2000/svg" xmlns:xlink="http://www.w3.org/1999/xlink" xml:space="preserve" onload="init(evt)">
<style type="text/css"><![CDATA[
.edge:hover path { stroke: red; }
.edge:hover polygon { stroke: red; fill: red; }
]]></style>
<script type="text/javascript"><![CDATA[
var edges = document.getElementsByTagName('g');
if (edges && edges.length) {
  for (var i=0;i<edges.length;i++) {
    if (edges[i].id.substr(0,4)=='edge') {
      edges[i].setAttribute('class','edge');
    }
  }
}
]]></script>
        <defs>
                <circle id="rim" cx="0" cy="0" r="7"/>
                <circle id="rim2" cx="0" cy="0" r="3.5"/>
                <g id="zoomPlus">
                        <use xlink:href="#rim" fill="#404040">
                                <set attributeName="fill" to="#808080" begin="zoomplus.mouseover" end="zoomplus.mouseout"/>
                        </use>
                        <path d="M-4,0h8M0,-4v8" fill="none" stroke="white" stroke-width="1.5" pointer-events="none"/>
                </g>
                <g id="zoomMin">
                        <use xlink:href="#rim" fill="#404040">
                                <set attributeName="fill" to="#808080" begin="zoomminus.mouseover" end="zoomminus.mouseout"/>
                        </use>
                        <path d="M-4,0h8" fill="none" stroke="white" stroke-width="1.5" pointer-events="none"/>
                </g>
                <g id="dirArrow">
                        <path fill="none" stroke="white" stroke-width="1.5" d="M0,-3.0v7 M-2.5,-0.5L0,-3.0L2.5,-0.5"/>
                </g>
               <g id="resetDef">
                       <use xlink:href="#rim2" fill="#404040">
                               <set attributeName="fill" to="#808080" begin="reset.mouseover" end="reset.mouseout"/>
                       </use>
               </g>
        </defs>

<script type="text/javascript">
var viewWidth = 611;
var viewHeight = 119;
var sectionId = 'dynsection-5';
</script>
<script xlink:href="../../svgpan.js"/>
<svg id="graph" class="graph">
<g id="viewport">
<title>CCCC_Options::Load_Options</title>
<polygon fill="white" stroke="none" points="-4,4 -4,-114.654 607,-114.654 607,4 -4,4"/>
<!-- Node1 -->
<g id="node1" class="node"><title>Node1</title>
<polygon fill="#bfbfbf" stroke="black" points="0,-52 0,-82 118,-82 118,-52 0,-52"/>
<text text-anchor="start" x="8" y="-70" font-family="Helvetica,sans-Serif" font-size="10.00">CCCC_Options::Load</text>
<text text-anchor="middle" x="59" y="-59" font-family="Helvetica,sans-Serif" font-size="10.00">_Options</text>
</g>
<!-- Node2 -->
<g id="node2" class="node"><title>Node2</title>
<g id="a_node2"><a xlink:href="../../d4/d7f/classCCCC__Options.html#ace084425ddde7d4c19657d7e13677ffc" target="_top" xlink:title="CCCC_Options::Add_Option">
<polygon fill="white" stroke="black" points="154,-57.5 154,-76.5 304,-76.5 304,-57.5 154,-57.5"/>
<text text-anchor="middle" x="229" y="-64.5" font-family="Helvetica,sans-Serif" font-size="10.00">CCCC_Options::Add_Option</text>
</a>
</g>
</g>
<!-- Node1&#45;&gt;Node2 -->
<g id="edge1" class="edge"><title>Node1&#45;&gt;Node2</title>
<path fill="none" stroke="midnightblue" d="M118.287,-67C126.529,-67 135.136,-67 143.748,-67"/>
<polygon fill="midnightblue" stroke="midnightblue" points="143.836,-70.5001 153.836,-67 143.836,-63.5001 143.836,-70.5001"/>
</g>
<!-- Node3 -->
<g id="node3" class="node"><title>Node3</title>
<g id="a_node3"><a xlink:href="../../db/d6a/classCCCC__Item.html#aa8e1c13780b4a9191d00b85641cdde1d" target="_top" xlink:title="CCCC_Item::Extract">
<polygon fill="white" stroke="black" points="493,-76.5 493,-95.5 603,-95.5 603,-76.5 493,-76.5"/>
<text text-anchor="middle" x="548" y="-83.5" font-family="Helvetica,sans-Serif" font-size="10.00">CCCC_Item::Extract</text>
</a>
</g>
</g>
<!-- Node2&#45;&gt;Node3 -->
<g id="edge2" class="edge"><title>Node2&#45;&gt;Node3</title>
<path fill="none" stroke="midnightblue" d="M250.948,-76.5904C272.683,-85.9734 307.919,-99.6149 340,-105 391.283,-113.608 405.281,-110.4 457,-105 471.315,-103.505 486.705,-100.708 500.639,-97.7111"/>
<polygon fill="midnightblue" stroke="midnightblue" points="501.496,-101.106 510.492,-95.509 499.969,-94.2745 501.496,-101.106"/>
</g>
<!-- Node4 -->
<g id="node4" class="node"><title>Node4</title>
<g id="a_node4"><a xlink:href="../../d5/d39/cccc__opt_8cc.html#adaf4ab659cf8a851521a34e7b0b44bf5" target="_top" xlink:title="add_file_extension">
<polygon fill="white" stroke="black" points="345.5,-76.5 345.5,-95.5 451.5,-95.5 451.5,-76.5 345.5,-76.5"/>
<text text-anchor="middle" x="398.5" y="-83.5" font-family="Helvetica,sans-Serif" font-size="10.00">add_file_extension</text>
</a>
</g>
</g>
<!-- Node2&#45;&gt;Node4 -->
<g id="edge3" class="edge"><title>Node2&#45;&gt;Node4</title>
<path fill="none" stroke="midnightblue" d="M304.443,-75.4443C314.689,-76.6065 325.123,-77.7901 335.122,-78.9243"/>
<polygon fill="midnightblue" stroke="midnightblue" points="335.027,-82.4358 345.357,-80.0853 335.816,-75.4804 335.027,-82.4358"/>
</g>
<!-- Node5 -->
<g id="node5" class="node"><title>Node5</title>
<g id="a_node5"><a xlink:href="../../d5/d39/cccc__opt_8cc.html#afe053a52743dabb8c5e585bc2e8761d1" target="_top" xlink:title="add_treatment">
<polygon fill="white" stroke="black" points="355.5,-38.5 355.5,-57.5 441.5,-57.5 441.5,-38.5 355.5,-38.5"/>
<text text-anchor="middle" x="398.5" y="-45.5" font-family="Helvetica,sans-Serif" font-size="10.00">add_treatment</text>
</a>
</g>
</g>
<!-- Node2&#45;&gt;Node5 -->
<g id="edge5" class="edge"><title>Node2&#45;&gt;Node5</title>
<path fill="none" stroke="midnightblue" d="M304.443,-58.5557C318.232,-56.9916 332.361,-55.3889 345.311,-53.9199"/>
<polygon fill="midnightblue" stroke="midnightblue" points="345.873,-57.3787 355.415,-52.7738 345.084,-50.4233 345.873,-57.3787"/>
</g>
<!-- Node6 -->
<g id="node6" class="node"><title>Node6</title>
<g id="a_node6"><a xlink:href="../../d5/d39/cccc__opt_8cc.html#a1e1d75f7f5aad4c636db40a37b60c382" target="_top" xlink:title="add_dialect_keyword">
<polygon fill="white" stroke="black" points="340,-0.5 340,-19.5 457,-19.5 457,-0.5 340,-0.5"/>
<text text-anchor="middle" x="398.5" y="-7.5" font-family="Helvetica,sans-Serif" font-size="10.00">add_dialect_keyword</text>
</a>
</g>
</g>
<!-- Node2&#45;&gt;Node6 -->
<g id="edge6" class="edge"><title>Node2&#45;&gt;Node6</title>
<path fill="none" stroke="midnightblue" d="M257.541,-57.3708C279.769,-49.6267 311.862,-38.5085 340,-29 346.013,-26.9679 352.389,-24.8375 358.621,-22.7682"/>
<polygon fill="midnightblue" stroke="midnightblue" points="359.829,-26.0549 368.223,-19.5897 357.63,-19.4095 359.829,-26.0549"/>
</g>
<!-- Node4&#45;&gt;Node3 -->
<g id="edge4" class="edge"><title>Node4&#45;&gt;Node3</title>
<path fill="none" stroke="midnightblue" d="M451.503,-86C461.58,-86 472.253,-86 482.67,-86"/>
<polygon fill="midnightblue" stroke="midnightblue" points="482.971,-89.5001 492.971,-86 482.971,-82.5001 482.971,-89.5001"/>
</g>
<!-- Node6&#45;&gt;Node3 -->
<g id="edge7" class="edge"><title>Node6&#45;&gt;Node3</title>
<path fill="none" stroke="midnightblue" d="M433.185,-19.5951C441.142,-22.2794 449.492,-25.4484 457,-29 481.773,-40.7186 508.019,-57.9672 525.734,-70.4184"/>
<polygon fill="midnightblue" stroke="midnightblue" points="523.995,-73.4769 534.168,-76.4376 528.062,-67.7793 523.995,-73.4769"/>
</g>
</g>
</svg>
        <g id="navigator" transform="translate(0 0)" fill="#404254">
                <rect fill="#f2f5e9" fill-opacity="0.5" stroke="#606060" stroke-width=".5" x="0" y="0" width="60" height="60"/>
                <use id="zoomplus" xlink:href="#zoomPlus" x="17" y="9" onmousedown="handleZoom(evt,'in')"/>
                <use id="zoomminus" xlink:href="#zoomMin" x="42" y="9" onmousedown="handleZoom(evt,'out')"/>
                <use id="reset" xlink:href="#resetDef" x="30" y="36" onmousedown="handleReset()"/>
                <g id="arrowUp" xlink:href="#dirArrow" transform="translate(30 24)" onmousedown="handlePan(0,-1)">
                  <use xlink:href="#rim" fill="#404040">
                        <set attributeName="fill" to="#808080" begin="arrowUp.mouseover" end="arrowUp.mouseout"/>
                  </use>
                  <path fill="none" stroke="white" stroke-width="1.5" d="M0,-3.0v7 M-2.5,-0.5L0,-3.0L2.5,-0.5"/>
                </g>
                <g id="arrowRight" xlink:href="#dirArrow" transform="rotate(90) translate(36 -43)" onmousedown="handlePan(1,0)">
                  <use xlink:href="#rim" fill="#404040">
                        <set attributeName="fill" to="#808080" begin="arrowRight.mouseover" end="arrowRight.mouseout"/>
                  </use>
                  <path fill="none" stroke="white" stroke-width="1.5" d="M0,-3.0v7 M-2.5,-0.5L0,-3.0L2.5,-0.5"/>
                </g>
                <g id="arrowDown" xlink:href="#dirArrow" transform="rotate(180) translate(-30 -48)" onmousedown="handlePan(0,1)">
                  <use xlink:href="#rim" fill="#404040">
                        <set attributeName="fill" to="#808080" begin="arrowDown.mouseover" end="arrowDown.mouseout"/>
                  </use>
                  <path fill="none" stroke="white" stroke-width="1.5" d="M0,-3.0v7 M-2.5,-0.5L0,-3.0L2.5,-0.5"/>
                </g>
                <g id="arrowLeft" xlink:href="#dirArrow" transform="rotate(270) translate(-36 17)" onmousedown="handlePan(-1,0)">
                  <use xlink:href="#rim" fill="#404040">
                        <set attributeName="fill" to="#808080" begin="arrowLeft.mouseover" end="arrowLeft.mouseout"/>
                  </use>
                  <path fill="none" stroke="white" stroke-width="1.5" d="M0,-3.0v7 M-2.5,-0.5L0,-3.0L2.5,-0.5"/>
                </g>
        </g>
        <svg viewBox="0 0 15 15" width="100%" height="30px" preserveAspectRatio="xMaxYMin meet">
         <g id="arrow_out" transform="scale(0.3 0.3)">
          <a xlink:href="classCCCC__Options_aabf76e7a9edb17ce2eb3ef45359230b7_cgraph_org.svg" target="_base">
           <rect id="button" ry="5" rx="5" y="6" x="6" height="38" width="38"
                fill="#f2f5e9" fill-opacity="0.5" stroke="#606060" stroke-width="1.0"/>
           <path id="arrow"
             d="M 11.500037,31.436501 C 11.940474,20.09759 22.043105,11.32322 32.158766,21.979434 L 37.068811,17.246167 C 37.068811,17.246167 37.088388,32 37.088388,32 L 22.160133,31.978069 C 22.160133,31.978069 26.997745,27.140456 26.997745,27.140456 C 18.528582,18.264221 13.291696,25.230495 11.500037,31.436501 z"
             style="fill:#404040;"/>
          </a>
         </g>
        </svg>
</svg>
