<?xml version="1.0" encoding="UTF-8" standalone="no"?>
<!DOCTYPE svg PUBLIC "-//W3C//DTD SVG 1.1//EN"
 "http://www.w3.org/Graphics/SVG/1.1/DTD/svg11.dtd">
<!-- Generated by graphviz version 2.38.0 (20140413.2041)
 -->
<!-- Title: CCCC_Options::getMetricTreatment Pages: 1 -->
<svg width="571pt" height="28pt"
 viewBox="0.00 0.00 571.00 28.00" xmlns="http://www.w3.org/2000/svg" xmlns:xlink="http://www.w3.org/1999/xlink">
<g id="graph0" class="graph" transform="scale(1 1) rotate(0) translate(4 24)">
<title>CCCC_Options::getMetricTreatment</title>
<polygon fill="white" stroke="none" points="-4,4 -4,-24 567,-24 567,4 -4,4"/>
<!-- Node1 -->
<g id="node1" class="node"><title>Node1</title>
<polygon fill="#bfbfbf" stroke="black" points="0,-0.5 0,-19.5 187,-19.5 187,-0.5 0,-0.5"/>
<text text-anchor="middle" x="93.5" y="-7.5" font-family="Helvetica,sans-Serif" font-size="10.00">CCCC_Options::getMetricTreatment</text>
</g>
<!-- Node2 -->
<g id="node2" class="node"><title>Node2</title>
<g id="a_node2"><a xlink:href="../../dd/d72/classCCCC__Metric.html#ac07e972c56028e245eb8e0d9e470a9d2" target="_top" xlink:title="CCCC_Metric::set_treatment">
<polygon fill="white" stroke="black" points="223,-0.5 223,-19.5 375,-19.5 375,-0.5 223,-0.5"/>
<text text-anchor="middle" x="299" y="-7.5" font-family="Helvetica,sans-Serif" font-size="10.00">CCCC_Metric::set_treatment</text>
</a>
</g>
</g>
<!-- Node1&#45;&gt;Node2 -->
<g id="edge1" class="edge"><title>Node1&#45;&gt;Node2</title>
<path fill="none" stroke="midnightblue" d="M197.145,-10C205.78,-10 214.406,-10 222.774,-10"/>
<polygon fill="midnightblue" stroke="midnightblue" points="197.02,-6.5001 187.02,-10 197.02,-13.5001 197.02,-6.5001"/>
</g>
<!-- Node3 -->
<g id="node3" class="node"><title>Node3</title>
<g id="a_node3"><a xlink:href="../../dd/d72/classCCCC__Metric.html#a8fb2633a82d89346d02df7465305a7e8" target="_top" xlink:title="CCCC_Metric::CCCC_Metric">
<polygon fill="white" stroke="black" points="411,-0.5 411,-19.5 563,-19.5 563,-0.5 411,-0.5"/>
<text text-anchor="middle" x="487" y="-7.5" font-family="Helvetica,sans-Serif" font-size="10.00">CCCC_Metric::CCCC_Metric</text>
</a>
</g>
</g>
<!-- Node2&#45;&gt;Node3 -->
<g id="edge2" class="edge"><title>Node2&#45;&gt;Node3</title>
<path fill="none" stroke="midnightblue" d="M385.147,-10C393.742,-10 402.426,-10 410.905,-10"/>
<polygon fill="midnightblue" stroke="midnightblue" points="385.117,-6.5001 375.117,-10 385.117,-13.5001 385.117,-6.5001"/>
</g>
</g>
</svg>
