<?xml version="1.0" encoding="UTF-8" standalone="no"?>
<!DOCTYPE svg PUBLIC "-//W3C//DTD SVG 1.1//EN"
 "http://www.w3.org/Graphics/SVG/1.1/DTD/svg11.dtd">
<!-- Generated by graphviz version 2.38.0 (20140413.2041)
 -->
<!-- Title: CCCC_Extent::get_usetype Pages: 1 -->
<!--zoomable 78 -->
<svg id="main" version="1.1" xmlns="http://www.w3.org/2000/svg" xmlns:xlink="http://www.w3.org/1999/xlink" xml:space="preserve" onload="init(evt)">
<style type="text/css"><![CDATA[
.edge:hover path { stroke: red; }
.edge:hover polygon { stroke: red; fill: red; }
]]></style>
<script type="text/javascript"><![CDATA[
var edges = document.getElementsByTagName('g');
if (edges && edges.length) {
  for (var i=0;i<edges.length;i++) {
    if (edges[i].id.substr(0,4)=='edge') {
      edges[i].setAttribute('class','edge');
    }
  }
}
]]></script>
        <defs>
                <circle id="rim" cx="0" cy="0" r="7"/>
                <circle id="rim2" cx="0" cy="0" r="3.5"/>
                <g id="zoomPlus">
                        <use xlink:href="#rim" fill="#404040">
                                <set attributeName="fill" to="#808080" begin="zoomplus.mouseover" end="zoomplus.mouseout"/>
                        </use>
                        <path d="M-4,0h8M0,-4v8" fill="none" stroke="white" stroke-width="1.5" pointer-events="none"/>
                </g>
                <g id="zoomMin">
                        <use xlink:href="#rim" fill="#404040">
                                <set attributeName="fill" to="#808080" begin="zoomminus.mouseover" end="zoomminus.mouseout"/>
                        </use>
                        <path d="M-4,0h8" fill="none" stroke="white" stroke-width="1.5" pointer-events="none"/>
                </g>
                <g id="dirArrow">
                        <path fill="none" stroke="white" stroke-width="1.5" d="M0,-3.0v7 M-2.5,-0.5L0,-3.0L2.5,-0.5"/>
                </g>
               <g id="resetDef">
                       <use xlink:href="#rim2" fill="#404040">
                               <set attributeName="fill" to="#808080" begin="reset.mouseover" end="reset.mouseout"/>
                       </use>
               </g>
        </defs>

<script type="text/javascript">
var viewWidth = 639;
var viewHeight = 78;
var sectionId = 'dynsection-5';
</script>
<script xlink:href="../../svgpan.js"/>
<svg id="graph" class="graph">
<g id="viewport">
<title>CCCC_Extent::get_usetype</title>
<polygon fill="white" stroke="none" points="-4,4 -4,-73.5 635,-73.5 635,4 -4,4"/>
<!-- Node1 -->
<g id="node1" class="node"><title>Node1</title>
<polygon fill="#bfbfbf" stroke="black" points="0,-28 0,-47 145,-47 145,-28 0,-28"/>
<text text-anchor="middle" x="72.5" y="-35" font-family="Helvetica,sans-Serif" font-size="10.00">CCCC_Extent::get_usetype</text>
</g>
<!-- Node2 -->
<g id="node2" class="node"><title>Node2</title>
<g id="a_node2"><a xlink:href="../../d4/d6e/classCCCC__Project.html#a9e618e858690b526180d7af22b0d48df" target="_top" xlink:title="CCCC_Project::reindex">
<polygon fill="white" stroke="black" points="183.5,-50 183.5,-69 308.5,-69 308.5,-50 183.5,-50"/>
<text text-anchor="middle" x="246" y="-57" font-family="Helvetica,sans-Serif" font-size="10.00">CCCC_Project::reindex</text>
</a>
</g>
</g>
<!-- Node1&#45;&gt;Node2 -->
<g id="edge1" class="edge"><title>Node1&#45;&gt;Node2</title>
<path fill="none" stroke="midnightblue" d="M155.399,-48.006C164.805,-49.2126 174.273,-50.4272 183.35,-51.5915"/>
<polygon fill="midnightblue" stroke="midnightblue" points="155.602,-44.5034 145.238,-46.7025 154.711,-51.4465 155.602,-44.5034"/>
</g>
<!-- Node4 -->
<g id="node4" class="node"><title>Node4</title>
<g id="a_node4"><a xlink:href="../../d2/d65/classCCCC__UseRelationship.html#aea65f893850f8e1903c3e53ac04170f6" target="_top" xlink:title="CCCC_UseRelationship\l::add_extent">
<polygon fill="white" stroke="black" points="181,-0.5 181,-30.5 311,-30.5 311,-0.5 181,-0.5"/>
<text text-anchor="start" x="189" y="-18.5" font-family="Helvetica,sans-Serif" font-size="10.00">CCCC_UseRelationship</text>
<text text-anchor="middle" x="246" y="-7.5" font-family="Helvetica,sans-Serif" font-size="10.00">::add_extent</text>
</a>
</g>
</g>
<!-- Node1&#45;&gt;Node4 -->
<g id="edge3" class="edge"><title>Node1&#45;&gt;Node4</title>
<path fill="none" stroke="midnightblue" d="M155.294,-27.0074C163.9,-25.9035 172.558,-24.7928 180.923,-23.7199"/>
<polygon fill="midnightblue" stroke="midnightblue" points="154.711,-23.5535 145.238,-28.2975 155.602,-30.4966 154.711,-23.5535"/>
</g>
<!-- Node3 -->
<g id="node3" class="node"><title>Node3</title>
<g id="a_node3"><a xlink:href="../../d6/d93/ccccmain_8cc.html#a3c04138a5bfe5d72780bb7e82a18e627" target="_top" xlink:title="main">
<polygon fill="white" stroke="black" points="399,-50 399,-69 438,-69 438,-50 399,-50"/>
<text text-anchor="middle" x="418.5" y="-57" font-family="Helvetica,sans-Serif" font-size="10.00">main</text>
</a>
</g>
</g>
<!-- Node2&#45;&gt;Node3 -->
<g id="edge2" class="edge"><title>Node2&#45;&gt;Node3</title>
<path fill="none" stroke="midnightblue" d="M318.772,-59.5C347.978,-59.5 379.35,-59.5 398.704,-59.5"/>
<polygon fill="midnightblue" stroke="midnightblue" points="318.554,-56.0001 308.554,-59.5 318.554,-63.0001 318.554,-56.0001"/>
</g>
<!-- Node5 -->
<g id="node5" class="node"><title>Node5</title>
<g id="a_node5"><a xlink:href="../../d4/d6e/classCCCC__Project.html#adae36526071c67957535938bf6401d9f" target="_top" xlink:title="CCCC_Project::add_userel">
<polygon fill="white" stroke="black" points="347,-6 347,-25 490,-25 490,-6 347,-6"/>
<text text-anchor="middle" x="418.5" y="-13" font-family="Helvetica,sans-Serif" font-size="10.00">CCCC_Project::add_userel</text>
</a>
</g>
</g>
<!-- Node4&#45;&gt;Node5 -->
<g id="edge4" class="edge"><title>Node4&#45;&gt;Node5</title>
<path fill="none" stroke="midnightblue" d="M321.632,-15.5C330.048,-15.5 338.604,-15.5 346.965,-15.5"/>
<polygon fill="midnightblue" stroke="midnightblue" points="321.459,-12.0001 311.459,-15.5 321.459,-19.0001 321.459,-12.0001"/>
</g>
<!-- Node6 -->
<g id="node6" class="node"><title>Node6</title>
<g id="a_node6"><a xlink:href="../../d3/d5e/classParseStore.html#aa8ae64513f8e2a44885a25d7b78a73e9" target="_top" xlink:title="ParseStore::record\l_userel_extent">
<polygon fill="white" stroke="black" points="526,-0.5 526,-30.5 631,-30.5 631,-0.5 526,-0.5"/>
<text text-anchor="start" x="534" y="-18.5" font-family="Helvetica,sans-Serif" font-size="10.00">ParseStore::record</text>
<text text-anchor="middle" x="578.5" y="-7.5" font-family="Helvetica,sans-Serif" font-size="10.00">_userel_extent</text>
</a>
</g>
</g>
<!-- Node5&#45;&gt;Node6 -->
<g id="edge5" class="edge"><title>Node5&#45;&gt;Node6</title>
<path fill="none" stroke="midnightblue" d="M500.34,-15.5C509.003,-15.5 517.636,-15.5 525.823,-15.5"/>
<polygon fill="midnightblue" stroke="midnightblue" points="500.182,-12.0001 490.182,-15.5 500.182,-19.0001 500.182,-12.0001"/>
</g>
</g>
</svg>
        <g id="navigator" transform="translate(0 0)" fill="#404254">
                <rect fill="#f2f5e9" fill-opacity="0.5" stroke="#606060" stroke-width=".5" x="0" y="0" width="60" height="60"/>
                <use id="zoomplus" xlink:href="#zoomPlus" x="17" y="9" onmousedown="handleZoom(evt,'in')"/>
                <use id="zoomminus" xlink:href="#zoomMin" x="42" y="9" onmousedown="handleZoom(evt,'out')"/>
                <use id="reset" xlink:href="#resetDef" x="30" y="36" onmousedown="handleReset()"/>
                <g id="arrowUp" xlink:href="#dirArrow" transform="translate(30 24)" onmousedown="handlePan(0,-1)">
                  <use xlink:href="#rim" fill="#404040">
                        <set attributeName="fill" to="#808080" begin="arrowUp.mouseover" end="arrowUp.mouseout"/>
                  </use>
                  <path fill="none" stroke="white" stroke-width="1.5" d="M0,-3.0v7 M-2.5,-0.5L0,-3.0L2.5,-0.5"/>
                </g>
                <g id="arrowRight" xlink:href="#dirArrow" transform="rotate(90) translate(36 -43)" onmousedown="handlePan(1,0)">
                  <use xlink:href="#rim" fill="#404040">
                        <set attributeName="fill" to="#808080" begin="arrowRight.mouseover" end="arrowRight.mouseout"/>
                  </use>
                  <path fill="none" stroke="white" stroke-width="1.5" d="M0,-3.0v7 M-2.5,-0.5L0,-3.0L2.5,-0.5"/>
                </g>
                <g id="arrowDown" xlink:href="#dirArrow" transform="rotate(180) translate(-30 -48)" onmousedown="handlePan(0,1)">
                  <use xlink:href="#rim" fill="#404040">
                        <set attributeName="fill" to="#808080" begin="arrowDown.mouseover" end="arrowDown.mouseout"/>
                  </use>
                  <path fill="none" stroke="white" stroke-width="1.5" d="M0,-3.0v7 M-2.5,-0.5L0,-3.0L2.5,-0.5"/>
                </g>
                <g id="arrowLeft" xlink:href="#dirArrow" transform="rotate(270) translate(-36 17)" onmousedown="handlePan(-1,0)">
                  <use xlink:href="#rim" fill="#404040">
                        <set attributeName="fill" to="#808080" begin="arrowLeft.mouseover" end="arrowLeft.mouseout"/>
                  </use>
                  <path fill="none" stroke="white" stroke-width="1.5" d="M0,-3.0v7 M-2.5,-0.5L0,-3.0L2.5,-0.5"/>
                </g>
        </g>
        <svg viewBox="0 0 15 15" width="100%" height="30px" preserveAspectRatio="xMaxYMin meet">
         <g id="arrow_out" transform="scale(0.3 0.3)">
          <a xlink:href="classCCCC__Extent_abe27f2b34d0542894c6339274e8d1834_icgraph_org.svg" target="_base">
           <rect id="button" ry="5" rx="5" y="6" x="6" height="38" width="38"
                fill="#f2f5e9" fill-opacity="0.5" stroke="#606060" stroke-width="1.0"/>
           <path id="arrow"
             d="M 11.500037,31.436501 C 11.940474,20.09759 22.043105,11.32322 32.158766,21.979434 L 37.068811,17.246167 C 37.068811,17.246167 37.088388,32 37.088388,32 L 22.160133,31.978069 C 22.160133,31.978069 26.997745,27.140456 26.997745,27.140456 C 18.528582,18.264221 13.291696,25.230495 11.500037,31.436501 z"
             style="fill:#404040;"/>
          </a>
         </g>
        </svg>
</svg>
