<?xml version="1.0" encoding="UTF-8" standalone="no"?>
<!DOCTYPE svg PUBLIC "-//W3C//DTD SVG 1.1//EN"
 "http://www.w3.org/Graphics/SVG/1.1/DTD/svg11.dtd">
<!-- Generated by graphviz version 2.38.0 (20140413.2041)
 -->
<!-- Title: CCCC_Extent::name Pages: 1 -->
<svg width="1046pt" height="764pt"
 viewBox="0.00 0.00 1046.00 764.00" xmlns="http://www.w3.org/2000/svg" xmlns:xlink="http://www.w3.org/1999/xlink">
<g id="graph0" class="graph" transform="scale(1 1) rotate(0) translate(4 760)">
<title>CCCC_Extent::name</title>
<polygon fill="white" stroke="none" points="-4,4 -4,-760 1042,-760 1042,4 -4,4"/>
<!-- Node1 -->
<g id="node1" class="node"><title>Node1</title>
<polygon fill="#bfbfbf" stroke="black" points="0,-475 0,-494 113,-494 113,-475 0,-475"/>
<text text-anchor="middle" x="56.5" y="-482" font-family="Helvetica,sans-Serif" font-size="10.00">CCCC_Extent::name</text>
</g>
<!-- Node2 -->
<g id="node2" class="node"><title>Node2</title>
<g id="a_node2"><a xlink:href="../../df/d99/classCCCC__Extent.html#a359fd45cf41bef4dd32685db1f7a5816" target="_top" xlink:title="CCCC_Extent::key">
<polygon fill="white" stroke="black" points="163.5,-704 163.5,-723 267.5,-723 267.5,-704 163.5,-704"/>
<text text-anchor="middle" x="215.5" y="-711" font-family="Helvetica,sans-Serif" font-size="10.00">CCCC_Extent::key</text>
</a>
</g>
</g>
<!-- Node1&#45;&gt;Node2 -->
<g id="edge1" class="edge"><title>Node1&#45;&gt;Node2</title>
<path fill="none" stroke="midnightblue" d="M60.956,-504.09C69.0633,-544.402 93.0147,-637.229 149,-689.5 155.728,-695.781 164.234,-700.448 172.869,-703.906"/>
<polygon fill="midnightblue" stroke="midnightblue" points="64.3803,-503.361 59.0761,-494.19 57.5032,-504.667 64.3803,-503.361"/>
</g>
<!-- Node3 -->
<g id="node3" class="node"><title>Node3</title>
<g id="a_node3"><a xlink:href="../../d2/d92/classCCCC__Html__Stream.html#a103e3cbe446ab2d5978e6a4741e00a63" target="_top" xlink:title="CCCC_Html_Stream::Other\l_Extents">
<polygon fill="white" stroke="black" points="687,-725.5 687,-755.5 832,-755.5 832,-725.5 687,-725.5"/>
<text text-anchor="start" x="695" y="-743.5" font-family="Helvetica,sans-Serif" font-size="10.00">CCCC_Html_Stream::Other</text>
<text text-anchor="middle" x="759.5" y="-732.5" font-family="Helvetica,sans-Serif" font-size="10.00">_Extents</text>
</a>
</g>
</g>
<!-- Node1&#45;&gt;Node3 -->
<g id="edge2" class="edge"><title>Node1&#45;&gt;Node3</title>
<path fill="none" stroke="midnightblue" d="M69.6123,-502.812C85.2866,-525.044 114.692,-562.09 149,-582.5 324.209,-686.733 567.616,-722.951 686.865,-734.935"/>
<polygon fill="midnightblue" stroke="midnightblue" points="72.3043,-500.549 63.7612,-494.283 66.5319,-504.509 72.3043,-500.549"/>
</g>
<!-- Node4 -->
<g id="node4" class="node"><title>Node4</title>
<g id="a_node4"><a xlink:href="../../d2/d92/classCCCC__Html__Stream.html#abc882e68712ce2c2f95ce84821d1c516" target="_top" xlink:title="CCCC_Html_Stream::Put\l_Extent_URL">
<polygon fill="white" stroke="black" points="149,-513.5 149,-543.5 282,-543.5 282,-513.5 149,-513.5"/>
<text text-anchor="start" x="157" y="-531.5" font-family="Helvetica,sans-Serif" font-size="10.00">CCCC_Html_Stream::Put</text>
<text text-anchor="middle" x="215.5" y="-520.5" font-family="Helvetica,sans-Serif" font-size="10.00">_Extent_URL</text>
</a>
</g>
</g>
<!-- Node1&#45;&gt;Node4 -->
<g id="edge3" class="edge"><title>Node1&#45;&gt;Node4</title>
<path fill="none" stroke="midnightblue" d="M101.431,-496.812C119.834,-501.969 141.405,-508.015 160.744,-513.435"/>
<polygon fill="midnightblue" stroke="midnightblue" points="102.14,-493.376 91.5667,-494.047 100.251,-500.116 102.14,-493.376"/>
</g>
<!-- Node5 -->
<g id="node5" class="node"><title>Node5</title>
<g id="a_node5"><a xlink:href="../../d2/d92/classCCCC__Html__Stream.html#a9da417354e4d12217f7604be680f3398" target="_top" xlink:title="CCCC_Html_Stream::Put\l_Extent_Cell">
<polygon fill="white" stroke="black" points="318,-572.5 318,-602.5 451,-602.5 451,-572.5 318,-572.5"/>
<text text-anchor="start" x="326" y="-590.5" font-family="Helvetica,sans-Serif" font-size="10.00">CCCC_Html_Stream::Put</text>
<text text-anchor="middle" x="384.5" y="-579.5" font-family="Helvetica,sans-Serif" font-size="10.00">_Extent_Cell</text>
</a>
</g>
</g>
<!-- Node1&#45;&gt;Node5 -->
<g id="edge19" class="edge"><title>Node1&#45;&gt;Node5</title>
<path fill="none" stroke="midnightblue" d="M74.7231,-501.455C91.9905,-517.378 120.098,-540.496 149,-552.5 203.076,-574.958 269.46,-583.265 317.778,-586.212"/>
<polygon fill="midnightblue" stroke="midnightblue" points="76.8294,-498.629 67.1611,-494.296 72.0172,-503.713 76.8294,-498.629"/>
</g>
<!-- Node7 -->
<g id="node7" class="node"><title>Node7</title>
<g id="a_node7"><a xlink:href="../../d2/d92/classCCCC__Html__Stream.html#a4cdc271c6f74c77b19dec08a3c8500db" target="_top" xlink:title="CCCC_Html_Stream::Put\l_Extent_List">
<polygon fill="white" stroke="black" points="318,-500.5 318,-530.5 451,-530.5 451,-500.5 318,-500.5"/>
<text text-anchor="start" x="326" y="-518.5" font-family="Helvetica,sans-Serif" font-size="10.00">CCCC_Html_Stream::Put</text>
<text text-anchor="middle" x="384.5" y="-507.5" font-family="Helvetica,sans-Serif" font-size="10.00">_Extent_List</text>
</a>
</g>
</g>
<!-- Node1&#45;&gt;Node7 -->
<g id="edge20" class="edge"><title>Node1&#45;&gt;Node7</title>
<path fill="none" stroke="midnightblue" d="M123.526,-489.508C168.28,-493.044 228.748,-498.1 282,-503.5 293.563,-504.673 305.854,-506.031 317.743,-507.403"/>
<polygon fill="midnightblue" stroke="midnightblue" points="123.608,-486.003 113.365,-488.709 123.06,-492.982 123.608,-486.003"/>
</g>
<!-- Node18 -->
<g id="node18" class="node"><title>Node18</title>
<g id="a_node18"><a xlink:href="../../db/d8c/classCCCC__Xml__Stream.html#a0a4b9ede5f6f9f0e90c39abb78d93337" target="_top" xlink:title="CCCC_Xml_Stream::Other\l_Extents">
<polygon fill="white" stroke="black" points="689,-284.5 689,-314.5 830,-314.5 830,-284.5 689,-284.5"/>
<text text-anchor="start" x="697" y="-302.5" font-family="Helvetica,sans-Serif" font-size="10.00">CCCC_Xml_Stream::Other</text>
<text text-anchor="middle" x="759.5" y="-291.5" font-family="Helvetica,sans-Serif" font-size="10.00">_Extents</text>
</a>
</g>
</g>
<!-- Node1&#45;&gt;Node18 -->
<g id="edge21" class="edge"><title>Node1&#45;&gt;Node18</title>
<path fill="none" stroke="midnightblue" d="M123.103,-476.244C233.213,-460.803 460.658,-422.063 639,-346.5 656.482,-339.093 657.696,-331.315 675,-323.5 682.286,-320.21 690.134,-317.253 697.999,-314.633"/>
<polygon fill="midnightblue" stroke="midnightblue" points="122.565,-472.785 113.139,-477.623 123.524,-479.719 122.565,-472.785"/>
</g>
<!-- Node19 -->
<g id="node19" class="node"><title>Node19</title>
<g id="a_node19"><a xlink:href="../../db/d8c/classCCCC__Xml__Stream.html#a4dbcc8c8a21c10b8b3b942137aead5e0" target="_top" xlink:title="CCCC_Xml_Stream::Put\l_Extent_URL">
<polygon fill="white" stroke="black" points="151,-329.5 151,-359.5 280,-359.5 280,-329.5 151,-329.5"/>
<text text-anchor="start" x="159" y="-347.5" font-family="Helvetica,sans-Serif" font-size="10.00">CCCC_Xml_Stream::Put</text>
<text text-anchor="middle" x="215.5" y="-336.5" font-family="Helvetica,sans-Serif" font-size="10.00">_Extent_URL</text>
</a>
</g>
</g>
<!-- Node1&#45;&gt;Node19 -->
<g id="edge22" class="edge"><title>Node1&#45;&gt;Node19</title>
<path fill="none" stroke="midnightblue" d="M69.2553,-466.447C85.1008,-443.225 115.247,-402.76 149,-376.5 157.391,-369.972 167.327,-364.283 176.892,-359.584"/>
<polygon fill="midnightblue" stroke="midnightblue" points="66.1975,-464.724 63.5481,-474.982 72.0164,-468.615 66.1975,-464.724"/>
</g>
<!-- Node20 -->
<g id="node20" class="node"><title>Node20</title>
<g id="a_node20"><a xlink:href="../../db/d8c/classCCCC__Xml__Stream.html#a071da83e610b5f28a0bbef9494999aaf" target="_top" xlink:title="CCCC_Xml_Stream::Put\l_Extent_Node">
<polygon fill="white" stroke="black" points="320,-329.5 320,-359.5 449,-359.5 449,-329.5 320,-329.5"/>
<text text-anchor="start" x="328" y="-347.5" font-family="Helvetica,sans-Serif" font-size="10.00">CCCC_Xml_Stream::Put</text>
<text text-anchor="middle" x="384.5" y="-336.5" font-family="Helvetica,sans-Serif" font-size="10.00">_Extent_Node</text>
</a>
</g>
</g>
<!-- Node1&#45;&gt;Node20 -->
<g id="edge37" class="edge"><title>Node1&#45;&gt;Node20</title>
<path fill="none" stroke="midnightblue" d="M80.2738,-469.114C98.3819,-457.303 124.633,-441.105 149,-429.5 210.576,-400.173 285.146,-374.758 333.414,-359.543"/>
<polygon fill="midnightblue" stroke="midnightblue" points="78.0151,-466.412 71.5998,-474.843 81.873,-472.253 78.0151,-466.412"/>
</g>
<!-- Node22 -->
<g id="node22" class="node"><title>Node22</title>
<g id="a_node22"><a xlink:href="../../db/d8c/classCCCC__Xml__Stream.html#a8d4f164a7fe732e7627a5fc81ffd8ef9" target="_top" xlink:title="CCCC_Xml_Stream::Put\l_Extent_List">
<polygon fill="white" stroke="black" points="320,-259.5 320,-289.5 449,-289.5 449,-259.5 320,-259.5"/>
<text text-anchor="start" x="328" y="-277.5" font-family="Helvetica,sans-Serif" font-size="10.00">CCCC_Xml_Stream::Put</text>
<text text-anchor="middle" x="384.5" y="-266.5" font-family="Helvetica,sans-Serif" font-size="10.00">_Extent_List</text>
</a>
</g>
</g>
<!-- Node1&#45;&gt;Node22 -->
<g id="edge38" class="edge"><title>Node1&#45;&gt;Node22</title>
<path fill="none" stroke="midnightblue" d="M62.4977,-464.755C72.5043,-429.522 98.4986,-356.092 149,-319.5 198.598,-283.562 269.057,-274.118 319.776,-272.557"/>
<polygon fill="midnightblue" stroke="midnightblue" points="59.025,-464.19 59.7999,-474.756 65.7835,-466.013 59.025,-464.19"/>
</g>
<!-- Node4&#45;&gt;Node5 -->
<g id="edge4" class="edge"><title>Node4&#45;&gt;Node5</title>
<path fill="none" stroke="midnightblue" d="M268.778,-546.969C292.019,-555.18 319.032,-564.724 341.004,-572.487"/>
<polygon fill="midnightblue" stroke="midnightblue" points="269.668,-543.572 259.073,-543.541 267.336,-550.172 269.668,-543.572"/>
</g>
<!-- Node4&#45;&gt;Node7 -->
<g id="edge7" class="edge"><title>Node4&#45;&gt;Node7</title>
<path fill="none" stroke="midnightblue" d="M292.066,-522.618C300.685,-521.947 309.417,-521.267 317.891,-520.607"/>
<polygon fill="midnightblue" stroke="midnightblue" points="291.722,-519.134 282.024,-523.399 292.265,-526.113 291.722,-519.134"/>
</g>
<!-- Node5&#45;&gt;Node3 -->
<g id="edge5" class="edge"><title>Node5&#45;&gt;Node3</title>
<path fill="none" stroke="midnightblue" d="M445.788,-605.38C459.342,-609.382 473.66,-613.598 487,-617.5 554.5,-637.245 582.443,-619.697 639,-661.5 662.494,-678.865 651.489,-699.157 675,-716.5 679.613,-719.902 684.696,-722.824 690.008,-725.331"/>
<polygon fill="midnightblue" stroke="midnightblue" points="446.661,-601.988 436.079,-602.51 444.677,-608.701 446.661,-601.988"/>
</g>
<!-- Node6 -->
<g id="node6" class="node"><title>Node6</title>
<g id="a_node6"><a xlink:href="../../d2/d92/classCCCC__Html__Stream.html#ae24c7515f1b41822c677e349a2eaecda" target="_top" xlink:title="CCCC_Html_Stream::Module\l_Detail">
<polygon fill="white" stroke="black" points="487,-578.5 487,-608.5 639,-608.5 639,-578.5 487,-578.5"/>
<text text-anchor="start" x="495" y="-596.5" font-family="Helvetica,sans-Serif" font-size="10.00">CCCC_Html_Stream::Module</text>
<text text-anchor="middle" x="563" y="-585.5" font-family="Helvetica,sans-Serif" font-size="10.00">_Detail</text>
</a>
</g>
</g>
<!-- Node5&#45;&gt;Node6 -->
<g id="edge6" class="edge"><title>Node5&#45;&gt;Node6</title>
<path fill="none" stroke="midnightblue" d="M461.369,-590.079C469.767,-590.365 478.317,-590.655 486.708,-590.941"/>
<polygon fill="midnightblue" stroke="midnightblue" points="461.335,-586.576 451.222,-589.734 461.097,-593.572 461.335,-586.576"/>
</g>
<!-- Node8 -->
<g id="node8" class="node"><title>Node8</title>
<g id="a_node8"><a xlink:href="../../d2/d92/classCCCC__Html__Stream.html#ab815f564805ca3e3fe9cabb5c2df79fa" target="_top" xlink:title="CCCC_Html_Stream::Put\l_Structural_Details_Cell">
<polygon fill="white" stroke="black" points="496.5,-529.5 496.5,-559.5 629.5,-559.5 629.5,-529.5 496.5,-529.5"/>
<text text-anchor="start" x="504.5" y="-547.5" font-family="Helvetica,sans-Serif" font-size="10.00">CCCC_Html_Stream::Put</text>
<text text-anchor="middle" x="563" y="-536.5" font-family="Helvetica,sans-Serif" font-size="10.00">_Structural_Details_Cell</text>
</a>
</g>
</g>
<!-- Node7&#45;&gt;Node8 -->
<g id="edge8" class="edge"><title>Node7&#45;&gt;Node8</title>
<path fill="none" stroke="midnightblue" d="M461.331,-527.96C472.945,-529.868 484.851,-531.824 496.223,-533.692"/>
<polygon fill="midnightblue" stroke="midnightblue" points="461.657,-524.466 451.222,-526.299 460.522,-531.374 461.657,-524.466"/>
</g>
<!-- Node10 -->
<g id="node10" class="node"><title>Node10</title>
<g id="a_node10"><a xlink:href="../../d2/d92/classCCCC__Html__Stream.html#a11a4dc19838cdbfe33b6d2e7f8b5823a" target="_top" xlink:title="CCCC_Html_Stream::Put\l_Label_Cell">
<polygon fill="white" stroke="black" points="496.5,-480.5 496.5,-510.5 629.5,-510.5 629.5,-480.5 496.5,-480.5"/>
<text text-anchor="start" x="504.5" y="-498.5" font-family="Helvetica,sans-Serif" font-size="10.00">CCCC_Html_Stream::Put</text>
<text text-anchor="middle" x="563" y="-487.5" font-family="Helvetica,sans-Serif" font-size="10.00">_Label_Cell</text>
</a>
</g>
</g>
<!-- Node7&#45;&gt;Node10 -->
<g id="edge10" class="edge"><title>Node7&#45;&gt;Node10</title>
<path fill="none" stroke="midnightblue" d="M461.331,-506.907C472.945,-505.591 484.851,-504.242 496.223,-502.953"/>
<polygon fill="midnightblue" stroke="midnightblue" points="460.764,-503.449 451.222,-508.053 461.553,-510.404 460.764,-503.449"/>
</g>
<!-- Node9 -->
<g id="node9" class="node"><title>Node9</title>
<g id="a_node9"><a xlink:href="../../d2/d92/classCCCC__Html__Stream.html#af0091534327b225ee300640d7a5e0220" target="_top" xlink:title="CCCC_Html_Stream::Structural\l_Detail">
<polygon fill="white" stroke="black" points="678.5,-676.5 678.5,-706.5 840.5,-706.5 840.5,-676.5 678.5,-676.5"/>
<text text-anchor="start" x="686.5" y="-694.5" font-family="Helvetica,sans-Serif" font-size="10.00">CCCC_Html_Stream::Structural</text>
<text text-anchor="middle" x="759.5" y="-683.5" font-family="Helvetica,sans-Serif" font-size="10.00">_Detail</text>
</a>
</g>
</g>
<!-- Node8&#45;&gt;Node9 -->
<g id="edge9" class="edge"><title>Node8&#45;&gt;Node9</title>
<path fill="none" stroke="midnightblue" d="M635.534,-565.447C636.732,-566.419 637.89,-567.436 639,-568.5 672.498,-600.609 641.202,-634.707 675,-666.5 679.078,-670.336 683.722,-673.586 688.682,-676.338"/>
<polygon fill="midnightblue" stroke="midnightblue" points="637.323,-562.43 627.096,-559.664 633.366,-568.204 637.323,-562.43"/>
</g>
<!-- Node10&#45;&gt;Node3 -->
<g id="edge17" class="edge"><title>Node10&#45;&gt;Node3</title>
<path fill="none" stroke="midnightblue" d="M636.68,-517.046C637.481,-517.835 638.256,-518.653 639,-519.5 697.75,-586.361 615.259,-650.523 675,-716.5 678.442,-720.302 682.443,-723.517 686.793,-726.234"/>
<polygon fill="midnightblue" stroke="midnightblue" points="638.784,-514.247 628.803,-510.692 634.388,-519.695 638.784,-514.247"/>
</g>
<!-- Node11 -->
<g id="node11" class="node"><title>Node11</title>
<g id="a_node11"><a xlink:href="../../d2/d92/classCCCC__Html__Stream.html#aa4d916f2e9fc42d4b7924e1544be92f6" target="_top" xlink:title="CCCC_Html_Stream::Project\l_Summary">
<polygon fill="white" stroke="black" points="684,-333.5 684,-363.5 835,-363.5 835,-333.5 684,-333.5"/>
<text text-anchor="start" x="692" y="-351.5" font-family="Helvetica,sans-Serif" font-size="10.00">CCCC_Html_Stream::Project</text>
<text text-anchor="middle" x="759.5" y="-340.5" font-family="Helvetica,sans-Serif" font-size="10.00">_Summary</text>
</a>
</g>
</g>
<!-- Node10&#45;&gt;Node11 -->
<g id="edge11" class="edge"><title>Node10&#45;&gt;Node11</title>
<path fill="none" stroke="midnightblue" d="M615.441,-475.588C624.057,-470.62 632.345,-464.626 639,-457.5 667.002,-427.516 644.293,-399.707 675,-372.5 678.838,-369.099 683.13,-366.178 687.687,-363.67"/>
<polygon fill="midnightblue" stroke="midnightblue" points="613.583,-472.612 606.398,-480.399 616.87,-478.792 613.583,-472.612"/>
</g>
<!-- Node12 -->
<g id="node12" class="node"><title>Node12</title>
<g id="a_node12"><a xlink:href="../../d2/d92/classCCCC__Html__Stream.html#a81d206c53e52cd62d445beb809c3d215" target="_top" xlink:title="CCCC_Html_Stream::OO\l_Design">
<polygon fill="white" stroke="black" points="692.5,-627.5 692.5,-657.5 826.5,-657.5 826.5,-627.5 692.5,-627.5"/>
<text text-anchor="start" x="700.5" y="-645.5" font-family="Helvetica,sans-Serif" font-size="10.00">CCCC_Html_Stream::OO</text>
<text text-anchor="middle" x="759.5" y="-634.5" font-family="Helvetica,sans-Serif" font-size="10.00">_Design</text>
</a>
</g>
</g>
<!-- Node10&#45;&gt;Node12 -->
<g id="edge12" class="edge"><title>Node10&#45;&gt;Node12</title>
<path fill="none" stroke="midnightblue" d="M635.534,-516.447C636.732,-517.419 637.89,-518.436 639,-519.5 672.498,-551.609 641.202,-585.707 675,-617.5 680.07,-622.269 686.014,-626.132 692.355,-629.26"/>
<polygon fill="midnightblue" stroke="midnightblue" points="637.323,-513.43 627.096,-510.664 633.366,-519.204 637.323,-513.43"/>
</g>
<!-- Node13 -->
<g id="node13" class="node"><title>Node13</title>
<g id="a_node13"><a xlink:href="../../d2/d92/classCCCC__Html__Stream.html#a872d57e3b8d177d0fcc532237b53e6fe" target="_top" xlink:title="CCCC_Html_Stream::Procedural\l_Summary">
<polygon fill="white" stroke="black" points="675,-578.5 675,-608.5 844,-608.5 844,-578.5 675,-578.5"/>
<text text-anchor="start" x="683" y="-596.5" font-family="Helvetica,sans-Serif" font-size="10.00">CCCC_Html_Stream::Procedural</text>
<text text-anchor="middle" x="759.5" y="-585.5" font-family="Helvetica,sans-Serif" font-size="10.00">_Summary</text>
</a>
</g>
</g>
<!-- Node10&#45;&gt;Node13 -->
<g id="edge13" class="edge"><title>Node10&#45;&gt;Node13</title>
<path fill="none" stroke="midnightblue" d="M632.467,-515.263C634.726,-516.588 636.912,-517.998 639,-519.5 660.94,-535.277 652.913,-552.93 675,-568.5 680.442,-572.336 686.48,-575.592 692.748,-578.354"/>
<polygon fill="midnightblue" stroke="midnightblue" points="633.937,-512.083 623.451,-510.568 630.704,-518.291 633.937,-512.083"/>
</g>
<!-- Node14 -->
<g id="node14" class="node"><title>Node14</title>
<g id="a_node14"><a xlink:href="../../d2/d92/classCCCC__Html__Stream.html#a0dbb99417ffc369edc76114cc2455ee2" target="_top" xlink:title="CCCC_Html_Stream::Structural\l_Summary">
<polygon fill="white" stroke="black" points="678.5,-529.5 678.5,-559.5 840.5,-559.5 840.5,-529.5 678.5,-529.5"/>
<text text-anchor="start" x="686.5" y="-547.5" font-family="Helvetica,sans-Serif" font-size="10.00">CCCC_Html_Stream::Structural</text>
<text text-anchor="middle" x="759.5" y="-536.5" font-family="Helvetica,sans-Serif" font-size="10.00">_Summary</text>
</a>
</g>
</g>
<!-- Node10&#45;&gt;Node14 -->
<g id="edge14" class="edge"><title>Node10&#45;&gt;Node14</title>
<path fill="none" stroke="midnightblue" d="M633.662,-513.05C655.02,-518.431 678.315,-524.299 698.935,-529.494"/>
<polygon fill="midnightblue" stroke="midnightblue" points="634.23,-509.584 623.678,-510.535 632.52,-516.372 634.23,-509.584"/>
</g>
<!-- Node15 -->
<g id="node15" class="node"><title>Node15</title>
<g id="a_node15"><a xlink:href="../../d2/d92/classCCCC__Html__Stream.html#a0abac1d610545f3aac5c469074e98ee8" target="_top" xlink:title="CCCC_Html_Stream::Structural\l_Detail">
<polygon fill="white" stroke="black" points="678.5,-480.5 678.5,-510.5 840.5,-510.5 840.5,-480.5 678.5,-480.5"/>
<text text-anchor="start" x="686.5" y="-498.5" font-family="Helvetica,sans-Serif" font-size="10.00">CCCC_Html_Stream::Structural</text>
<text text-anchor="middle" x="759.5" y="-487.5" font-family="Helvetica,sans-Serif" font-size="10.00">_Detail</text>
</a>
</g>
</g>
<!-- Node10&#45;&gt;Node15 -->
<g id="edge15" class="edge"><title>Node10&#45;&gt;Node15</title>
<path fill="none" stroke="midnightblue" d="M639.634,-495.5C652.334,-495.5 665.553,-495.5 678.362,-495.5"/>
<polygon fill="midnightblue" stroke="midnightblue" points="639.578,-492 629.578,-495.5 639.578,-499 639.578,-492"/>
</g>
<!-- Node16 -->
<g id="node16" class="node"><title>Node16</title>
<g id="a_node16"><a xlink:href="../../d2/d92/classCCCC__Html__Stream.html#afe9cd530333567a8e6bfb38c6b586e81" target="_top" xlink:title="CCCC_Html_Stream::Procedural\l_Detail">
<polygon fill="white" stroke="black" points="675,-431.5 675,-461.5 844,-461.5 844,-431.5 675,-431.5"/>
<text text-anchor="start" x="683" y="-449.5" font-family="Helvetica,sans-Serif" font-size="10.00">CCCC_Html_Stream::Procedural</text>
<text text-anchor="middle" x="759.5" y="-438.5" font-family="Helvetica,sans-Serif" font-size="10.00">_Detail</text>
</a>
</g>
</g>
<!-- Node10&#45;&gt;Node16 -->
<g id="edge16" class="edge"><title>Node10&#45;&gt;Node16</title>
<path fill="none" stroke="midnightblue" d="M633.662,-477.95C655.02,-472.569 678.315,-466.701 698.935,-461.506"/>
<polygon fill="midnightblue" stroke="midnightblue" points="632.52,-474.628 623.678,-480.465 634.23,-481.416 632.52,-474.628"/>
</g>
<!-- Node17 -->
<g id="node17" class="node"><title>Node17</title>
<g id="a_node17"><a xlink:href="../../d2/d92/classCCCC__Html__Stream.html#a4ad244ddfbe8c7929b2dbdce4197bbc6" target="_top" xlink:title="CCCC_Html_Stream::Module\l_Summary">
<polygon fill="white" stroke="black" points="683.5,-382.5 683.5,-412.5 835.5,-412.5 835.5,-382.5 683.5,-382.5"/>
<text text-anchor="start" x="691.5" y="-400.5" font-family="Helvetica,sans-Serif" font-size="10.00">CCCC_Html_Stream::Module</text>
<text text-anchor="middle" x="759.5" y="-389.5" font-family="Helvetica,sans-Serif" font-size="10.00">_Summary</text>
</a>
</g>
</g>
<!-- Node10&#45;&gt;Node17 -->
<g id="edge18" class="edge"><title>Node10&#45;&gt;Node17</title>
<path fill="none" stroke="midnightblue" d="M608.33,-475.963C618.766,-470.581 629.585,-464.324 639,-457.5 657.321,-444.221 655.507,-432.99 675,-421.5 680.847,-418.053 687.219,-415.077 693.75,-412.511"/>
<polygon fill="midnightblue" stroke="midnightblue" points="606.693,-472.868 599.302,-480.459 609.814,-479.134 606.693,-472.868"/>
</g>
<!-- Node19&#45;&gt;Node20 -->
<g id="edge23" class="edge"><title>Node19&#45;&gt;Node20</title>
<path fill="none" stroke="midnightblue" d="M290.277,-344.5C300.117,-344.5 310.14,-344.5 319.788,-344.5"/>
<polygon fill="midnightblue" stroke="midnightblue" points="290.112,-341 280.112,-344.5 290.112,-348 290.112,-341"/>
</g>
<!-- Node19&#45;&gt;Node22 -->
<g id="edge26" class="edge"><title>Node19&#45;&gt;Node22</title>
<path fill="none" stroke="midnightblue" d="M261.9,-325.47C288.787,-314.2 322.384,-300.117 347.446,-289.613"/>
<polygon fill="midnightblue" stroke="midnightblue" points="260.195,-322.39 252.326,-329.483 262.901,-328.845 260.195,-322.39"/>
</g>
<!-- Node20&#45;&gt;Node18 -->
<g id="edge24" class="edge"><title>Node20&#45;&gt;Node18</title>
<path fill="none" stroke="midnightblue" d="M459.254,-341.168C509.982,-338.269 578.799,-333.136 639,-324.5 657.044,-321.912 676.45,-318.241 694.268,-314.507"/>
<polygon fill="midnightblue" stroke="midnightblue" points="458.826,-337.687 449.036,-341.736 459.215,-344.676 458.826,-337.687"/>
</g>
<!-- Node21 -->
<g id="node21" class="node"><title>Node21</title>
<g id="a_node21"><a xlink:href="../../db/d8c/classCCCC__Xml__Stream.html#af9e90e1e9e3993019242ba50295f22ea" target="_top" xlink:title="CCCC_Xml_Stream::Module\l_Detail">
<polygon fill="white" stroke="black" points="488.5,-285.5 488.5,-315.5 637.5,-315.5 637.5,-285.5 488.5,-285.5"/>
<text text-anchor="start" x="496.5" y="-303.5" font-family="Helvetica,sans-Serif" font-size="10.00">CCCC_Xml_Stream::Module</text>
<text text-anchor="middle" x="563" y="-292.5" font-family="Helvetica,sans-Serif" font-size="10.00">_Detail</text>
</a>
</g>
</g>
<!-- Node20&#45;&gt;Node21 -->
<g id="edge25" class="edge"><title>Node20&#45;&gt;Node21</title>
<path fill="none" stroke="midnightblue" d="M455.641,-327.015C470.891,-323.213 486.895,-319.223 501.724,-315.526"/>
<polygon fill="midnightblue" stroke="midnightblue" points="454.604,-323.666 445.748,-329.481 456.297,-330.458 454.604,-323.666"/>
</g>
<!-- Node23 -->
<g id="node23" class="node"><title>Node23</title>
<g id="a_node23"><a xlink:href="../../db/d8c/classCCCC__Xml__Stream.html#a1941d2f23e62a715ef8d12ce239ea48f" target="_top" xlink:title="CCCC_Xml_Stream::Put\l_Structural_Details_Node">
<polygon fill="white" stroke="black" points="691,-235.5 691,-265.5 828,-265.5 828,-235.5 691,-235.5"/>
<text text-anchor="start" x="699" y="-253.5" font-family="Helvetica,sans-Serif" font-size="10.00">CCCC_Xml_Stream::Put</text>
<text text-anchor="middle" x="759.5" y="-242.5" font-family="Helvetica,sans-Serif" font-size="10.00">_Structural_Details_Node</text>
</a>
</g>
</g>
<!-- Node22&#45;&gt;Node23 -->
<g id="edge27" class="edge"><title>Node22&#45;&gt;Node23</title>
<path fill="none" stroke="midnightblue" d="M459.323,-269.75C526.746,-265.412 625.595,-259.052 690.968,-254.845"/>
<polygon fill="midnightblue" stroke="midnightblue" points="458.952,-266.267 449.197,-270.402 459.401,-273.252 458.952,-266.267"/>
</g>
<!-- Node25 -->
<g id="node25" class="node"><title>Node25</title>
<g id="a_node25"><a xlink:href="../../db/d8c/classCCCC__Xml__Stream.html#a5857c6d4a204a15b65a411301e2caf57" target="_top" xlink:title="CCCC_Xml_Stream::Put\l_Label_Node">
<polygon fill="white" stroke="black" points="498.5,-161.5 498.5,-191.5 627.5,-191.5 627.5,-161.5 498.5,-161.5"/>
<text text-anchor="start" x="506.5" y="-179.5" font-family="Helvetica,sans-Serif" font-size="10.00">CCCC_Xml_Stream::Put</text>
<text text-anchor="middle" x="563" y="-168.5" font-family="Helvetica,sans-Serif" font-size="10.00">_Label_Node</text>
</a>
</g>
</g>
<!-- Node22&#45;&gt;Node25 -->
<g id="edge29" class="edge"><title>Node22&#45;&gt;Node25</title>
<path fill="none" stroke="midnightblue" d="M421.714,-254.393C455.272,-235.76 504.448,-208.455 534.778,-191.615"/>
<polygon fill="midnightblue" stroke="midnightblue" points="419.735,-251.488 412.691,-259.402 423.133,-257.608 419.735,-251.488"/>
</g>
<!-- Node24 -->
<g id="node24" class="node"><title>Node24</title>
<g id="a_node24"><a xlink:href="../../db/d8c/classCCCC__Xml__Stream.html#ad14905d5ffea2505b11396520c9cd14e" target="_top" xlink:title="CCCC_Xml_Stream::Structural\l_Detail">
<polygon fill="white" stroke="black" points="880,-139.5 880,-169.5 1038,-169.5 1038,-139.5 880,-139.5"/>
<text text-anchor="start" x="888" y="-157.5" font-family="Helvetica,sans-Serif" font-size="10.00">CCCC_Xml_Stream::Structural</text>
<text text-anchor="middle" x="959" y="-146.5" font-family="Helvetica,sans-Serif" font-size="10.00">_Detail</text>
</a>
</g>
</g>
<!-- Node23&#45;&gt;Node24 -->
<g id="edge28" class="edge"><title>Node23&#45;&gt;Node24</title>
<path fill="none" stroke="midnightblue" d="M828.123,-231.952C833.561,-229.948 838.914,-227.796 844,-225.5 878.641,-209.865 915.386,-185.356 937.511,-169.612"/>
<polygon fill="midnightblue" stroke="midnightblue" points="826.564,-228.789 818.282,-235.396 828.877,-235.396 826.564,-228.789"/>
</g>
<!-- Node25&#45;&gt;Node18 -->
<g id="edge35" class="edge"><title>Node25&#45;&gt;Node18</title>
<path fill="none" stroke="midnightblue" d="M584.178,-199.322C604.923,-221.478 639.175,-254.598 675,-274.5 681.879,-278.321 689.408,-281.622 697.04,-284.455"/>
<polygon fill="midnightblue" stroke="midnightblue" points="586.513,-196.691 577.168,-191.699 581.361,-201.429 586.513,-196.691"/>
</g>
<!-- Node25&#45;&gt;Node23 -->
<g id="edge33" class="edge"><title>Node25&#45;&gt;Node23</title>
<path fill="none" stroke="midnightblue" d="M604.336,-195.76C625.179,-205.339 651.177,-216.714 675,-225.5 684.512,-229.008 694.765,-232.392 704.719,-235.477"/>
<polygon fill="midnightblue" stroke="midnightblue" points="605.693,-192.531 595.149,-191.501 602.749,-198.882 605.693,-192.531"/>
</g>
<!-- Node25&#45;&gt;Node24 -->
<g id="edge36" class="edge"><title>Node25&#45;&gt;Node24</title>
<path fill="none" stroke="midnightblue" d="M581.534,-153.274C601.23,-129.308 635.64,-93.3888 675,-78.5 745.253,-51.9251 772.112,-56.734 844,-78.5 883.385,-90.4249 921.6,-120.94 942.24,-139.474"/>
<polygon fill="midnightblue" stroke="midnightblue" points="578.709,-151.203 575.196,-161.199 584.175,-155.575 578.709,-151.203"/>
</g>
<!-- Node26 -->
<g id="node26" class="node"><title>Node26</title>
<g id="a_node26"><a xlink:href="../../db/d8c/classCCCC__Xml__Stream.html#a261ad7db353c63e8f2ecc43dd120c35b" target="_top" xlink:title="CCCC_Xml_Stream::OO\l_Design">
<polygon fill="white" stroke="black" points="694,-0.5 694,-30.5 825,-30.5 825,-0.5 694,-0.5"/>
<text text-anchor="start" x="702" y="-18.5" font-family="Helvetica,sans-Serif" font-size="10.00">CCCC_Xml_Stream::OO</text>
<text text-anchor="middle" x="759.5" y="-7.5" font-family="Helvetica,sans-Serif" font-size="10.00">_Design</text>
</a>
</g>
</g>
<!-- Node25&#45;&gt;Node26 -->
<g id="edge30" class="edge"><title>Node25&#45;&gt;Node26</title>
<path fill="none" stroke="midnightblue" d="M578.585,-152.599C597.474,-123.495 633.005,-74.6261 675,-45.5 683.607,-39.5305 693.533,-34.6156 703.47,-30.6163"/>
<polygon fill="midnightblue" stroke="midnightblue" points="575.462,-150.988 573.049,-161.304 581.369,-154.744 575.462,-150.988"/>
</g>
<!-- Node27 -->
<g id="node27" class="node"><title>Node27</title>
<g id="a_node27"><a xlink:href="../../db/d8c/classCCCC__Xml__Stream.html#af8659ea64595d693d4b3a78f2620b379" target="_top" xlink:title="CCCC_Xml_Stream::Procedural\l_Summary">
<polygon fill="white" stroke="black" points="677,-186.5 677,-216.5 842,-216.5 842,-186.5 677,-186.5"/>
<text text-anchor="start" x="685" y="-204.5" font-family="Helvetica,sans-Serif" font-size="10.00">CCCC_Xml_Stream::Procedural</text>
<text text-anchor="middle" x="759.5" y="-193.5" font-family="Helvetica,sans-Serif" font-size="10.00">_Summary</text>
</a>
</g>
</g>
<!-- Node25&#45;&gt;Node27 -->
<g id="edge31" class="edge"><title>Node25&#45;&gt;Node27</title>
<path fill="none" stroke="midnightblue" d="M637.802,-185.986C650.592,-187.63 663.957,-189.348 676.939,-191.017"/>
<polygon fill="midnightblue" stroke="midnightblue" points="638.051,-182.489 627.687,-184.686 637.159,-189.432 638.051,-182.489"/>
</g>
<!-- Node28 -->
<g id="node28" class="node"><title>Node28</title>
<g id="a_node28"><a xlink:href="../../db/d8c/classCCCC__Xml__Stream.html#a8e9d1d8c0d2645f1af6df568e58cd175" target="_top" xlink:title="CCCC_Xml_Stream::Structural\l_Summary">
<polygon fill="white" stroke="black" points="680.5,-137.5 680.5,-167.5 838.5,-167.5 838.5,-137.5 680.5,-137.5"/>
<text text-anchor="start" x="688.5" y="-155.5" font-family="Helvetica,sans-Serif" font-size="10.00">CCCC_Xml_Stream::Structural</text>
<text text-anchor="middle" x="759.5" y="-144.5" font-family="Helvetica,sans-Serif" font-size="10.00">_Summary</text>
</a>
</g>
</g>
<!-- Node25&#45;&gt;Node28 -->
<g id="edge32" class="edge"><title>Node25&#45;&gt;Node28</title>
<path fill="none" stroke="midnightblue" d="M637.711,-167.405C651.67,-165.682 666.317,-163.875 680.405,-162.136"/>
<polygon fill="midnightblue" stroke="midnightblue" points="637.183,-163.943 627.687,-168.642 638.04,-170.89 637.183,-163.943"/>
</g>
<!-- Node29 -->
<g id="node29" class="node"><title>Node29</title>
<g id="a_node29"><a xlink:href="../../db/d8c/classCCCC__Xml__Stream.html#ac1909e96b08f6199ea7c8aaa7478977d" target="_top" xlink:title="CCCC_Xml_Stream::Procedural\l_Detail">
<polygon fill="white" stroke="black" points="677,-88.5 677,-118.5 842,-118.5 842,-88.5 677,-88.5"/>
<text text-anchor="start" x="685" y="-106.5" font-family="Helvetica,sans-Serif" font-size="10.00">CCCC_Xml_Stream::Procedural</text>
<text text-anchor="middle" x="759.5" y="-95.5" font-family="Helvetica,sans-Serif" font-size="10.00">_Detail</text>
</a>
</g>
</g>
<!-- Node25&#45;&gt;Node29 -->
<g id="edge34" class="edge"><title>Node25&#45;&gt;Node29</title>
<path fill="none" stroke="midnightblue" d="M604.296,-157.13C625.128,-147.522 651.129,-136.154 675,-127.5 683.65,-124.364 692.919,-121.36 702.02,-118.603"/>
<polygon fill="midnightblue" stroke="midnightblue" points="602.703,-154.011 595.114,-161.404 605.657,-160.357 602.703,-154.011"/>
</g>
</g>
</svg>
