<?xml version="1.0" encoding="UTF-8" standalone="no"?>
<!DOCTYPE svg PUBLIC "-//W3C//DTD SVG 1.1//EN"
 "http://www.w3.org/Graphics/SVG/1.1/DTD/svg11.dtd">
<!-- Generated by graphviz version 2.38.0 (20140413.2041)
 -->
<!-- Title: CCCC_Extent::AddToItem Pages: 1 -->
<svg width="695pt" height="154pt"
 viewBox="0.00 0.00 695.00 153.50" xmlns="http://www.w3.org/2000/svg" xmlns:xlink="http://www.w3.org/1999/xlink">
<g id="graph0" class="graph" transform="scale(1 1) rotate(0) translate(4 149.5)">
<title>CCCC_Extent::AddToItem</title>
<polygon fill="white" stroke="none" points="-4,4 -4,-149.5 691,-149.5 691,4 -4,4"/>
<!-- Node1 -->
<g id="node1" class="node"><title>Node1</title>
<polygon fill="#bfbfbf" stroke="black" points="0,-69 0,-88 139,-88 139,-69 0,-69"/>
<text text-anchor="middle" x="69.5" y="-76" font-family="Helvetica,sans-Serif" font-size="10.00">CCCC_Extent::AddToItem</text>
</g>
<!-- Node2 -->
<g id="node2" class="node"><title>Node2</title>
<g id="a_node2"><a xlink:href="../../dc/d1e/classCCCC__Member.html#a22edd2264d9f7fb3f80fcf7269b624e1" target="_top" xlink:title="CCCC_Member::ToFile">
<polygon fill="white" stroke="black" points="177.5,-126 177.5,-145 302.5,-145 302.5,-126 177.5,-126"/>
<text text-anchor="middle" x="240" y="-133" font-family="Helvetica,sans-Serif" font-size="10.00">CCCC_Member::ToFile</text>
</a>
</g>
</g>
<!-- Node1&#45;&gt;Node2 -->
<g id="edge1" class="edge"><title>Node1&#45;&gt;Node2</title>
<path fill="none" stroke="midnightblue" d="M108.315,-91.2919C139.348,-101.79 182.605,-116.423 210.705,-125.928"/>
<polygon fill="midnightblue" stroke="midnightblue" points="109.297,-87.9296 98.7031,-88.0405 107.054,-94.5604 109.297,-87.9296"/>
</g>
<!-- Node3 -->
<g id="node3" class="node"><title>Node3</title>
<g id="a_node3"><a xlink:href="../../d4/d6e/classCCCC__Project.html#ad2b4c25d24f7ed427c79bd9c7bd8a971" target="_top" xlink:title="CCCC_Project::ToFile">
<polygon fill="white" stroke="black" points="341,-69 341,-88 460,-88 460,-69 341,-69"/>
<text text-anchor="middle" x="400.5" y="-76" font-family="Helvetica,sans-Serif" font-size="10.00">CCCC_Project::ToFile</text>
</a>
</g>
</g>
<!-- Node1&#45;&gt;Node3 -->
<g id="edge7" class="edge"><title>Node1&#45;&gt;Node3</title>
<path fill="none" stroke="midnightblue" d="M149.086,-78.5C208.043,-78.5 287.467,-78.5 340.924,-78.5"/>
<polygon fill="midnightblue" stroke="midnightblue" points="149.069,-75.0001 139.069,-78.5 149.069,-82.0001 149.069,-75.0001"/>
</g>
<!-- Node6 -->
<g id="node6" class="node"><title>Node6</title>
<g id="a_node6"><a xlink:href="../../d6/d9f/classCCCC__Module.html#a6f7f14ae0bef4dec23385b6abf14331f" target="_top" xlink:title="CCCC_Module::ToFile">
<polygon fill="white" stroke="black" points="179.5,-50 179.5,-69 300.5,-69 300.5,-50 179.5,-50"/>
<text text-anchor="middle" x="240" y="-57" font-family="Helvetica,sans-Serif" font-size="10.00">CCCC_Module::ToFile</text>
</a>
</g>
</g>
<!-- Node1&#45;&gt;Node6 -->
<g id="edge5" class="edge"><title>Node1&#45;&gt;Node6</title>
<path fill="none" stroke="midnightblue" d="M149.161,-69.6302C159.346,-68.4817 169.64,-67.321 179.445,-66.2154"/>
<polygon fill="midnightblue" stroke="midnightblue" points="148.58,-66.1734 139.035,-70.772 149.365,-73.1293 148.58,-66.1734"/>
</g>
<!-- Node7 -->
<g id="node7" class="node"><title>Node7</title>
<g id="a_node7"><a xlink:href="../../d2/d65/classCCCC__UseRelationship.html#ad5a6c8660690de211b0a40b52313ae05" target="_top" xlink:title="CCCC_UseRelationship\l::ToFile">
<polygon fill="white" stroke="black" points="175,-0.5 175,-30.5 305,-30.5 305,-0.5 175,-0.5"/>
<text text-anchor="start" x="183" y="-18.5" font-family="Helvetica,sans-Serif" font-size="10.00">CCCC_UseRelationship</text>
<text text-anchor="middle" x="240" y="-7.5" font-family="Helvetica,sans-Serif" font-size="10.00">::ToFile</text>
</a>
</g>
</g>
<!-- Node1&#45;&gt;Node7 -->
<g id="edge8" class="edge"><title>Node1&#45;&gt;Node7</title>
<path fill="none" stroke="midnightblue" d="M105.58,-65.384C132.72,-55.2366 170.333,-41.1736 198.707,-30.565"/>
<polygon fill="midnightblue" stroke="midnightblue" points="104.232,-62.1511 96.0915,-68.9317 106.684,-68.7078 104.232,-62.1511"/>
</g>
<!-- Node2&#45;&gt;Node3 -->
<g id="edge2" class="edge"><title>Node2&#45;&gt;Node3</title>
<path fill="none" stroke="midnightblue" d="M276.95,-122.572C306.114,-112.084 346.566,-97.5361 372.884,-88.0716"/>
<polygon fill="midnightblue" stroke="midnightblue" points="275.755,-119.282 267.529,-125.959 278.124,-125.869 275.755,-119.282"/>
</g>
<!-- Node4 -->
<g id="node4" class="node"><title>Node4</title>
<g id="a_node4"><a xlink:href="../../db/d4a/classMain.html#a73e7ee7cdbee235ec767f6d66b595b5e" target="_top" xlink:title="Main::DumpDatabase">
<polygon fill="white" stroke="black" points="496,-69 496,-88 612,-88 612,-69 496,-69"/>
<text text-anchor="middle" x="554" y="-76" font-family="Helvetica,sans-Serif" font-size="10.00">Main::DumpDatabase</text>
</a>
</g>
</g>
<!-- Node3&#45;&gt;Node4 -->
<g id="edge3" class="edge"><title>Node3&#45;&gt;Node4</title>
<path fill="none" stroke="midnightblue" d="M470.298,-78.5C478.75,-78.5 487.319,-78.5 495.579,-78.5"/>
<polygon fill="midnightblue" stroke="midnightblue" points="470.074,-75.0001 460.074,-78.5 470.074,-82.0001 470.074,-75.0001"/>
</g>
<!-- Node5 -->
<g id="node5" class="node"><title>Node5</title>
<g id="a_node5"><a xlink:href="../../d6/d93/ccccmain_8cc.html#a3c04138a5bfe5d72780bb7e82a18e627" target="_top" xlink:title="main">
<polygon fill="white" stroke="black" points="648,-69 648,-88 687,-88 687,-69 648,-69"/>
<text text-anchor="middle" x="667.5" y="-76" font-family="Helvetica,sans-Serif" font-size="10.00">main</text>
</a>
</g>
</g>
<!-- Node4&#45;&gt;Node5 -->
<g id="edge4" class="edge"><title>Node4&#45;&gt;Node5</title>
<path fill="none" stroke="midnightblue" d="M622.233,-78.5C631.498,-78.5 640.321,-78.5 647.617,-78.5"/>
<polygon fill="midnightblue" stroke="midnightblue" points="622.057,-75.0001 612.057,-78.5 622.056,-82.0001 622.057,-75.0001"/>
</g>
<!-- Node6&#45;&gt;Node3 -->
<g id="edge6" class="edge"><title>Node6&#45;&gt;Node3</title>
<path fill="none" stroke="midnightblue" d="M311.147,-67.9088C321.051,-69.096 331.147,-70.3063 340.806,-71.4641"/>
<polygon fill="midnightblue" stroke="midnightblue" points="311.268,-64.3983 300.922,-66.6831 310.434,-71.3485 311.268,-64.3983"/>
</g>
<!-- Node7&#45;&gt;Node3 -->
<g id="edge9" class="edge"><title>Node7&#45;&gt;Node3</title>
<path fill="none" stroke="midnightblue" d="M289.159,-34.2528C294.507,-36.3528 299.871,-38.4671 305,-40.5 329.165,-50.078 356.737,-61.1859 375.836,-68.9086"/>
<polygon fill="midnightblue" stroke="midnightblue" points="290.193,-30.8991 279.606,-30.509 287.639,-37.4165 290.193,-30.8991"/>
</g>
</g>
</svg>
