<?xml version="1.0" encoding="UTF-8" standalone="no"?>
<!DOCTYPE svg PUBLIC "-//W3C//DTD SVG 1.1//EN"
 "http://www.w3.org/Graphics/SVG/1.1/DTD/svg11.dtd">
<!-- Generated by graphviz version 2.38.0 (20140413.2041)
 -->
<!-- Title: CLexer Pages: 1 -->
<svg width="308pt" height="554pt"
 viewBox="0.00 0.00 308.00 553.87" xmlns="http://www.w3.org/2000/svg" xmlns:xlink="http://www.w3.org/1999/xlink">
<g id="graph0" class="graph" transform="scale(1 1) rotate(0) translate(4 549.875)">
<title>CLexer</title>
<polygon fill="white" stroke="none" points="-4,4 -4,-549.875 304,-549.875 304,4 -4,4"/>
<!-- Node1 -->
<g id="node1" class="node"><title>Node1</title>
<polygon fill="#bfbfbf" stroke="black" points="249,-246.696 249,-265.696 300,-265.696 300,-246.696 249,-246.696"/>
<text text-anchor="middle" x="274.5" y="-253.696" font-family="Helvetica,sans-Serif" font-size="10.00">CLexer</text>
</g>
<!-- Node2 -->
<g id="node2" class="node"><title>Node2</title>
<g id="a_node2"><a xlink:href="../../df/d12/classDLGLexerBase.html" target="_top" xlink:title="DLGLexerBase">
<polygon fill="white" stroke="black" points="15,-523.696 15,-542.696 104,-542.696 104,-523.696 15,-523.696"/>
<text text-anchor="middle" x="59.5" y="-530.696" font-family="Helvetica,sans-Serif" font-size="10.00">DLGLexerBase</text>
</a>
</g>
</g>
<!-- Node2&#45;&gt;Node1 -->
<g id="edge1" class="edge"><title>Node2&#45;&gt;Node1</title>
<path fill="none" stroke="midnightblue" d="M114.051,-544.083C151.552,-548.379 200.263,-546.766 231,-518.196 268.803,-483.059 272.99,-308.818 273.446,-265.807"/>
<polygon fill="midnightblue" stroke="midnightblue" points="114.167,-540.568 103.796,-542.732 113.253,-547.508 114.167,-540.568"/>
</g>
<!-- Node3 -->
<g id="node3" class="node"><title>Node3</title>
<polygon fill="white" stroke="#bfbfbf" points="0,-485.696 0,-504.696 119,-504.696 119,-485.696 0,-485.696"/>
<text text-anchor="middle" x="59.5" y="-492.696" font-family="Helvetica,sans-Serif" font-size="10.00">static unsigned char *</text>
</g>
<!-- Node3&#45;&gt;Node1 -->
<g id="edge2" class="edge"><title>Node3&#45;&gt;Node1</title>
<path fill="none" stroke="#9a32cd" stroke-dasharray="5,2" d="M129.16,-503.878C163.889,-504.343 204.239,-498.27 231,-473.196 261.886,-444.258 271.096,-304.181 273.057,-265.888"/>
<polygon fill="#9a32cd" stroke="#9a32cd" points="129.163,-500.376 119.058,-503.561 128.943,-507.373 129.163,-500.376"/>
<text text-anchor="middle" x="184" y="-506.196" font-family="Helvetica,sans-Serif" font-size="10.00"> b_class_no</text>
</g>
<!-- Node4 -->
<g id="node4" class="node"><title>Node4</title>
<polygon fill="white" stroke="#bfbfbf" points="16.5,-343.696 16.5,-362.696 102.5,-362.696 102.5,-343.696 16.5,-343.696"/>
<text text-anchor="middle" x="59.5" y="-350.696" font-family="Helvetica,sans-Serif" font-size="10.00">static DfaState</text>
</g>
<!-- Node4&#45;&gt;Node1 -->
<g id="edge3" class="edge"><title>Node4&#45;&gt;Node1</title>
<path fill="none" stroke="#9a32cd" stroke-dasharray="5,2" d="M112.864,-350.796C155.7,-347.939 212.165,-341.853 231,-329.196 253.761,-313.9 265.947,-281.999 270.862,-265.913"/>
<polygon fill="#9a32cd" stroke="#9a32cd" points="112.613,-347.305 102.851,-351.422 113.05,-354.291 112.613,-347.305"/>
<text text-anchor="middle" x="184" y="-461.196" font-family="Helvetica,sans-Serif" font-size="10.00"> st433</text>
<text text-anchor="middle" x="184" y="-450.196" font-family="Helvetica,sans-Serif" font-size="10.00">st422</text>
<text text-anchor="middle" x="184" y="-439.196" font-family="Helvetica,sans-Serif" font-size="10.00">st411</text>
<text text-anchor="middle" x="184" y="-428.196" font-family="Helvetica,sans-Serif" font-size="10.00">st400</text>
<text text-anchor="middle" x="184" y="-417.196" font-family="Helvetica,sans-Serif" font-size="10.00">st389</text>
<text text-anchor="middle" x="184" y="-406.196" font-family="Helvetica,sans-Serif" font-size="10.00">st378</text>
<text text-anchor="middle" x="184" y="-395.196" font-family="Helvetica,sans-Serif" font-size="10.00">st367</text>
<text text-anchor="middle" x="184" y="-384.196" font-family="Helvetica,sans-Serif" font-size="10.00">st356</text>
<text text-anchor="middle" x="184" y="-373.196" font-family="Helvetica,sans-Serif" font-size="10.00">st345</text>
<text text-anchor="middle" x="184" y="-362.196" font-family="Helvetica,sans-Serif" font-size="10.00">st334</text>
<text text-anchor="middle" x="184" y="-351.196" font-family="Helvetica,sans-Serif" font-size="10.00">...</text>
</g>
<!-- Node5 -->
<g id="node5" class="node"><title>Node5</title>
<polygon fill="white" stroke="#bfbfbf" points="12.5,-305.696 12.5,-324.696 106.5,-324.696 106.5,-305.696 12.5,-305.696"/>
<text text-anchor="middle" x="59.5" y="-312.696" font-family="Helvetica,sans-Serif" font-size="10.00">static DfaState *</text>
</g>
<!-- Node5&#45;&gt;Node1 -->
<g id="edge4" class="edge"><title>Node5&#45;&gt;Node1</title>
<path fill="none" stroke="#9a32cd" stroke-dasharray="5,2" d="M117.047,-317.187C151.419,-316.344 195.395,-311.509 231,-295.196 245.567,-288.522 258.527,-274.956 266.198,-265.72"/>
<polygon fill="#9a32cd" stroke="#9a32cd" points="116.659,-313.692 106.708,-317.329 116.755,-320.691 116.659,-313.692"/>
<text text-anchor="middle" x="184" y="-318.196" font-family="Helvetica,sans-Serif" font-size="10.00"> dfa</text>
</g>
<!-- Node6 -->
<g id="node6" class="node"><title>Node6</title>
<polygon fill="white" stroke="#bfbfbf" points="45,-185.696 45,-204.696 74,-204.696 74,-185.696 45,-185.696"/>
<text text-anchor="middle" x="59.5" y="-192.696" font-family="Helvetica,sans-Serif" font-size="10.00">int</text>
</g>
<!-- Node6&#45;&gt;Node1 -->
<g id="edge5" class="edge"><title>Node6&#45;&gt;Node1</title>
<path fill="none" stroke="#9a32cd" stroke-dasharray="5,2" d="M84.0441,-187.953C118.575,-178.769 183.949,-166.96 231,-192.196 252.627,-203.796 265.121,-231.783 270.438,-246.609"/>
<polygon fill="#9a32cd" stroke="#9a32cd" points="83.0501,-184.596 74.3723,-190.675 84.9465,-191.335 83.0501,-184.596"/>
<text text-anchor="middle" x="184" y="-283.196" font-family="Helvetica,sans-Serif" font-size="10.00"> RR</text>
<text text-anchor="middle" x="184" y="-272.196" font-family="Helvetica,sans-Serif" font-size="10.00">COMMENT_LINE</text>
<text text-anchor="middle" x="184" y="-261.196" font-family="Helvetica,sans-Serif" font-size="10.00">COMMENT_MULTI</text>
<text text-anchor="middle" x="184" y="-250.196" font-family="Helvetica,sans-Serif" font-size="10.00">PREPROC</text>
<text text-anchor="middle" x="184" y="-239.196" font-family="Helvetica,sans-Serif" font-size="10.00">CONST_CHAR</text>
<text text-anchor="middle" x="184" y="-228.196" font-family="Helvetica,sans-Serif" font-size="10.00">CONST_STRING</text>
<text text-anchor="middle" x="184" y="-217.196" font-family="Helvetica,sans-Serif" font-size="10.00">MAX_MODE</text>
<text text-anchor="middle" x="184" y="-206.196" font-family="Helvetica,sans-Serif" font-size="10.00">DfaStates</text>
<text text-anchor="middle" x="184" y="-195.196" font-family="Helvetica,sans-Serif" font-size="10.00">START</text>
</g>
<!-- Node7 -->
<g id="node7" class="node"><title>Node7</title>
<polygon fill="white" stroke="#bfbfbf" points="4,-87.696 4,-106.696 115,-106.696 115,-87.696 4,-87.696"/>
<text text-anchor="middle" x="59.5" y="-94.696" font-family="Helvetica,sans-Serif" font-size="10.00">static unsigned char</text>
</g>
<!-- Node7&#45;&gt;Node1 -->
<g id="edge6" class="edge"><title>Node7&#45;&gt;Node1</title>
<path fill="none" stroke="#9a32cd" stroke-dasharray="5,2" d="M97.362,-84.7081C134.974,-74.4834 193.057,-65.9695 231,-95.196 255.62,-114.16 268.863,-214.83 272.473,-246.589"/>
<polygon fill="#9a32cd" stroke="#9a32cd" points="95.9652,-81.4685 87.3301,-87.6074 97.9087,-88.1933 95.9652,-81.4685"/>
<text text-anchor="middle" x="184" y="-164.196" font-family="Helvetica,sans-Serif" font-size="10.00"> shift0</text>
<text text-anchor="middle" x="184" y="-153.196" font-family="Helvetica,sans-Serif" font-size="10.00">shift1</text>
<text text-anchor="middle" x="184" y="-142.196" font-family="Helvetica,sans-Serif" font-size="10.00">shift2</text>
<text text-anchor="middle" x="184" y="-131.196" font-family="Helvetica,sans-Serif" font-size="10.00">shift3</text>
<text text-anchor="middle" x="184" y="-120.196" font-family="Helvetica,sans-Serif" font-size="10.00">shift4</text>
<text text-anchor="middle" x="184" y="-109.196" font-family="Helvetica,sans-Serif" font-size="10.00">shift5</text>
<text text-anchor="middle" x="184" y="-98.196" font-family="Helvetica,sans-Serif" font-size="10.00">shift6</text>
</g>
<!-- Node8 -->
<g id="node8" class="node"><title>Node8</title>
<polygon fill="white" stroke="#bfbfbf" points="45,-49.696 45,-68.696 74,-68.696 74,-49.696 45,-49.696"/>
<text text-anchor="middle" x="59.5" y="-56.696" font-family="Helvetica,sans-Serif" font-size="10.00">*</text>
</g>
<!-- Node8&#45;&gt;Node1 -->
<g id="edge7" class="edge"><title>Node8&#45;&gt;Node1</title>
<path fill="none" stroke="#9a32cd" stroke-dasharray="5,2" d="M83.9379,-50.885C119.88,-39.7813 188.864,-25.1811 231,-59.196 260.811,-83.2613 270.72,-210.322 272.961,-246.548"/>
<polygon fill="#9a32cd" stroke="#9a32cd" points="82.7404,-47.594 74.3175,-54.0209 84.9099,-54.2493 82.7404,-47.594"/>
<text text-anchor="middle" x="184" y="-62.196" font-family="Helvetica,sans-Serif" font-size="10.00"> actions</text>
</g>
<!-- Node9 -->
<g id="node9" class="node"><title>Node9</title>
<polygon fill="white" stroke="#bfbfbf" points="15,-11.696 15,-30.696 104,-30.696 104,-11.696 15,-11.696"/>
<text text-anchor="middle" x="59.5" y="-18.696" font-family="Helvetica,sans-Serif" font-size="10.00">static DLGChar</text>
</g>
<!-- Node9&#45;&gt;Node1 -->
<g id="edge8" class="edge"><title>Node9&#45;&gt;Node1</title>
<path fill="none" stroke="#9a32cd" stroke-dasharray="5,2" d="M98.0366,-8.94824C136.07,0.892674 194.376,8.5584 231,-22.196 266.098,-51.6687 272.284,-205.996 273.307,-246.469"/>
<polygon fill="#9a32cd" stroke="#9a32cd" points="97.0687,-5.58442 88.356,-11.6127 98.9263,-12.3335 97.0687,-5.58442"/>
<text text-anchor="middle" x="184" y="-25.196" font-family="Helvetica,sans-Serif" font-size="10.00"> alternatives</text>
</g>
</g>
</svg>
