<?xml version="1.0" encoding="UTF-8" standalone="no"?>
<!DOCTYPE svg PUBLIC "-//W3C//DTD SVG 1.1//EN"
 "http://www.w3.org/Graphics/SVG/1.1/DTD/svg11.dtd">
<!-- Generated by graphviz version 2.38.0 (20140413.2041)
 -->
<!-- Title: Main Pages: 1 -->
<svg width="293pt" height="250pt"
 viewBox="0.00 0.00 293.00 250.00" xmlns="http://www.w3.org/2000/svg" xmlns:xlink="http://www.w3.org/1999/xlink">
<g id="graph0" class="graph" transform="scale(1 1) rotate(0) translate(4 246)">
<title>Main</title>
<polygon fill="white" stroke="none" points="-4,4 -4,-246 289,-246 289,4 -4,4"/>
<!-- Node1 -->
<g id="node1" class="node"><title>Node1</title>
<polygon fill="#bfbfbf" stroke="black" points="123,-0.5 123,-19.5 163,-19.5 163,-0.5 123,-0.5"/>
<text text-anchor="middle" x="143" y="-7.5" font-family="Helvetica,sans-Serif" font-size="10.00">Main</text>
</g>
<!-- Node2 -->
<g id="node2" class="node"><title>Node2</title>
<polygon fill="white" stroke="#bfbfbf" points="0,-144.5 0,-163.5 110,-163.5 110,-144.5 0,-144.5"/>
<text text-anchor="middle" x="55" y="-151.5" font-family="Helvetica,sans-Serif" font-size="10.00">std::list&lt; file_entry &gt;</text>
</g>
<!-- Node2&#45;&gt;Node1 -->
<g id="edge1" class="edge"><title>Node2&#45;&gt;Node1</title>
<path fill="none" stroke="#9a32cd" stroke-dasharray="5,2" d="M59.2365,-134.286C65.485,-109.972 79.0953,-67.1872 103,-38 109.158,-30.481 117.948,-24.2324 125.721,-19.6467"/>
<polygon fill="#9a32cd" stroke="#9a32cd" points="55.7584,-133.779 56.81,-144.321 62.5623,-135.424 55.7584,-133.779"/>
<text text-anchor="middle" x="121" y="-79.5" font-family="Helvetica,sans-Serif" font-size="10.00"> file_list</text>
</g>
<!-- Node3 -->
<g id="node3" class="node"><title>Node3</title>
<polygon fill="white" stroke="#bfbfbf" points="25,-217 25,-236 85,-236 85,-217 25,-217"/>
<text text-anchor="middle" x="55" y="-224" font-family="Helvetica,sans-Serif" font-size="10.00">file_entry</text>
</g>
<!-- Node3&#45;&gt;Node2 -->
<g id="edge2" class="edge"><title>Node3&#45;&gt;Node2</title>
<path fill="none" stroke="#9a32cd" stroke-dasharray="5,2" d="M55,-206.442C55,-192.53 55,-174.32 55,-163.715"/>
<polygon fill="#9a32cd" stroke="#9a32cd" points="51.5001,-206.855 55,-216.855 58.5001,-206.855 51.5001,-206.855"/>
<text text-anchor="middle" x="78" y="-185" font-family="Helvetica,sans-Serif" font-size="10.00"> elements</text>
</g>
<!-- Node4 -->
<g id="node4" class="node"><title>Node4</title>
<polygon fill="white" stroke="#bfbfbf" points="128.5,-144.5 128.5,-163.5 157.5,-163.5 157.5,-144.5 128.5,-144.5"/>
<text text-anchor="middle" x="143" y="-151.5" font-family="Helvetica,sans-Serif" font-size="10.00">int</text>
</g>
<!-- Node4&#45;&gt;Node1 -->
<g id="edge3" class="edge"><title>Node4&#45;&gt;Node1</title>
<path fill="none" stroke="#9a32cd" stroke-dasharray="5,2" d="M143,-134.107C143,-102.929 143,-41.926 143,-19.5184"/>
<polygon fill="#9a32cd" stroke="#9a32cd" points="139.5,-134.117 143,-144.117 146.5,-134.117 139.5,-134.117"/>
<text text-anchor="middle" x="174.5" y="-90.5" font-family="Helvetica,sans-Serif" font-size="10.00"> report_mask</text>
<text text-anchor="middle" x="174.5" y="-79.5" font-family="Helvetica,sans-Serif" font-size="10.00">debug_mask</text>
<text text-anchor="middle" x="174.5" y="-68.5" font-family="Helvetica,sans-Serif" font-size="10.00">files_parsed</text>
</g>
<!-- Node5 -->
<g id="node5" class="node"><title>Node5</title>
<g id="a_node5"><a xlink:title="STL class. ">
<polygon fill="white" stroke="#bfbfbf" points="198,-144.5 198,-163.5 260,-163.5 260,-144.5 198,-144.5"/>
<text text-anchor="middle" x="229" y="-151.5" font-family="Helvetica,sans-Serif" font-size="10.00">std::string</text>
</a>
</g>
</g>
<!-- Node5&#45;&gt;Node1 -->
<g id="edge4" class="edge"><title>Node5&#45;&gt;Node1</title>
<path fill="none" stroke="#9a32cd" stroke-dasharray="5,2" d="M230.503,-134.157C231.446,-109.362 229.408,-65.6927 207,-38 196.152,-24.594 177.454,-17.7403 163.06,-14.3018"/>
<polygon fill="#9a32cd" stroke="#9a32cd" points="226.995,-134.189 229.899,-144.378 233.983,-134.602 226.995,-134.189"/>
<text text-anchor="middle" x="258" y="-118" font-family="Helvetica,sans-Serif" font-size="10.00"> db_infile</text>
<text text-anchor="middle" x="258" y="-107" font-family="Helvetica,sans-Serif" font-size="10.00">opt_outfile</text>
<text text-anchor="middle" x="258" y="-96" font-family="Helvetica,sans-Serif" font-size="10.00">html_outfile</text>
<text text-anchor="middle" x="258" y="-85" font-family="Helvetica,sans-Serif" font-size="10.00">opt_infile</text>
<text text-anchor="middle" x="258" y="-74" font-family="Helvetica,sans-Serif" font-size="10.00">xml_outfile</text>
<text text-anchor="middle" x="258" y="-63" font-family="Helvetica,sans-Serif" font-size="10.00">db_outfile</text>
<text text-anchor="middle" x="258" y="-52" font-family="Helvetica,sans-Serif" font-size="10.00">lang</text>
<text text-anchor="middle" x="258" y="-41" font-family="Helvetica,sans-Serif" font-size="10.00">outdir</text>
</g>
<!-- Node6 -->
<g id="node6" class="node"><title>Node6</title>
<g id="a_node6"><a xlink:title="STL class. ">
<polygon fill="white" stroke="#bfbfbf" points="180,-211.5 180,-241.5 278,-241.5 278,-211.5 180,-211.5"/>
<text text-anchor="start" x="188" y="-229.5" font-family="Helvetica,sans-Serif" font-size="10.00">std::basic_string&lt;</text>
<text text-anchor="middle" x="229" y="-218.5" font-family="Helvetica,sans-Serif" font-size="10.00"> char &gt;</text>
</a>
</g>
</g>
<!-- Node6&#45;&gt;Node5 -->
<g id="edge5" class="edge"><title>Node6&#45;&gt;Node5</title>
<path fill="none" stroke="midnightblue" d="M229,-201.091C229,-188.214 229,-173.197 229,-163.893"/>
<polygon fill="midnightblue" stroke="midnightblue" points="225.5,-201.233 229,-211.233 232.5,-201.233 225.5,-201.233"/>
</g>
</g>
</svg>
