<?xml version="1.0" encoding="UTF-8" standalone="no"?>
<!DOCTYPE svg PUBLIC "-//W3C//DTD SVG 1.1//EN"
 "http://www.w3.org/Graphics/SVG/1.1/DTD/svg11.dtd">
<!-- Generated by graphviz version 2.38.0 (20140413.2041)
 -->
<!-- Title: cccc_met.h Pages: 1 -->
<svg width="464pt" height="196pt"
 viewBox="0.00 0.00 463.50 196.00" xmlns="http://www.w3.org/2000/svg" xmlns:xlink="http://www.w3.org/1999/xlink">
<g id="graph0" class="graph" transform="scale(1 1) rotate(0) translate(4 192)">
<title>cccc_met.h</title>
<polygon fill="white" stroke="none" points="-4,4 -4,-192 459.5,-192 459.5,4 -4,4"/>
<!-- Node1 -->
<g id="node1" class="node"><title>Node1</title>
<polygon fill="#bfbfbf" stroke="black" points="210.5,-168.5 210.5,-187.5 279.5,-187.5 279.5,-168.5 210.5,-168.5"/>
<text text-anchor="middle" x="245" y="-175.5" font-family="Helvetica,sans-Serif" font-size="10.00">cccc_met.h</text>
</g>
<!-- Node2 -->
<g id="node2" class="node"><title>Node2</title>
<g id="a_node2"><a xlink:href="../../d9/db9/cccc__htm_8h.html" target="_top" xlink:title="cccc_htm.h">
<polygon fill="white" stroke="black" points="128.5,-112.5 128.5,-131.5 197.5,-131.5 197.5,-112.5 128.5,-112.5"/>
<text text-anchor="middle" x="163" y="-119.5" font-family="Helvetica,sans-Serif" font-size="10.00">cccc_htm.h</text>
</a>
</g>
</g>
<!-- Node1&#45;&gt;Node2 -->
<g id="edge1" class="edge"><title>Node1&#45;&gt;Node2</title>
<path fill="none" stroke="midnightblue" d="M223.167,-162.622C208.187,-152.757 188.803,-139.992 176.142,-131.655"/>
<polygon fill="midnightblue" stroke="midnightblue" points="221.549,-165.747 231.825,-168.324 225.399,-159.901 221.549,-165.747"/>
</g>
<!-- Node4 -->
<g id="node4" class="node"><title>Node4</title>
<g id="a_node4"><a xlink:href="../../d1/d81/cccc__tpl_8cc.html" target="_top" xlink:title="cccc_tpl.cc">
<polygon fill="white" stroke="black" points="0,-56.5 0,-75.5 68,-75.5 68,-56.5 0,-56.5"/>
<text text-anchor="middle" x="34" y="-63.5" font-family="Helvetica,sans-Serif" font-size="10.00">cccc_tpl.cc</text>
</a>
</g>
</g>
<!-- Node1&#45;&gt;Node4 -->
<g id="edge10" class="edge"><title>Node1&#45;&gt;Node4</title>
<path fill="none" stroke="midnightblue" d="M203.137,-165.625C177.931,-157.916 145.664,-146.495 119,-132 88.9687,-115.674 58.1962,-89.2376 43.2623,-75.6585"/>
<polygon fill="midnightblue" stroke="midnightblue" points="202.189,-168.995 212.772,-168.497 204.189,-162.286 202.189,-168.995"/>
</g>
<!-- Node5 -->
<g id="node5" class="node"><title>Node5</title>
<g id="a_node5"><a xlink:href="../../d9/d64/cccc__xml_8h.html" target="_top" xlink:title="cccc_xml.h">
<polygon fill="white" stroke="black" points="254,-56.5 254,-75.5 322,-75.5 322,-56.5 254,-56.5"/>
<text text-anchor="middle" x="288" y="-63.5" font-family="Helvetica,sans-Serif" font-size="10.00">cccc_xml.h</text>
</a>
</g>
</g>
<!-- Node1&#45;&gt;Node5 -->
<g id="edge11" class="edge"><title>Node1&#45;&gt;Node5</title>
<path fill="none" stroke="midnightblue" d="M252.037,-158.998C261.419,-134.997 277.653,-93.4683 284.642,-75.5914"/>
<polygon fill="midnightblue" stroke="midnightblue" points="248.755,-157.78 248.374,-168.368 255.275,-160.329 248.755,-157.78"/>
</g>
<!-- Node7 -->
<g id="node7" class="node"><title>Node7</title>
<g id="a_node7"><a xlink:href="../../d6/d93/ccccmain_8cc.html" target="_top" xlink:title="ccccmain.cc">
<polygon fill="white" stroke="black" points="174.5,-0.5 174.5,-19.5 247.5,-19.5 247.5,-0.5 174.5,-0.5"/>
<text text-anchor="middle" x="211" y="-7.5" font-family="Helvetica,sans-Serif" font-size="10.00">ccccmain.cc</text>
</a>
</g>
</g>
<!-- Node1&#45;&gt;Node7 -->
<g id="edge12" class="edge"><title>Node1&#45;&gt;Node7</title>
<path fill="none" stroke="midnightblue" d="M241.094,-157.93C233.719,-121.92 218.011,-45.2312 212.755,-19.5681"/>
<polygon fill="midnightblue" stroke="midnightblue" points="237.737,-158.981 243.172,-168.075 244.594,-157.576 237.737,-158.981"/>
</g>
<!-- Node8 -->
<g id="node8" class="node"><title>Node8</title>
<g id="a_node8"><a xlink:href="../../df/df6/cccc__met_8cc.html" target="_top" xlink:title="cccc_met.cc">
<polygon fill="white" stroke="black" points="292,-112.5 292,-131.5 366,-131.5 366,-112.5 292,-112.5"/>
<text text-anchor="middle" x="329" y="-119.5" font-family="Helvetica,sans-Serif" font-size="10.00">cccc_met.cc</text>
</a>
</g>
</g>
<!-- Node1&#45;&gt;Node8 -->
<g id="edge8" class="edge"><title>Node1&#45;&gt;Node8</title>
<path fill="none" stroke="midnightblue" d="M266.932,-162.901C282.335,-152.999 302.446,-140.071 315.537,-131.655"/>
<polygon fill="midnightblue" stroke="midnightblue" points="265.015,-159.972 258.496,-168.324 268.801,-165.86 265.015,-159.972"/>
</g>
<!-- Node9 -->
<g id="node9" class="node"><title>Node9</title>
<g id="a_node9"><a xlink:href="../../d5/d39/cccc__opt_8cc.html" target="_top" xlink:title="cccc_opt.cc">
<polygon fill="white" stroke="black" points="384.5,-112.5 384.5,-131.5 455.5,-131.5 455.5,-112.5 384.5,-112.5"/>
<text text-anchor="middle" x="420" y="-119.5" font-family="Helvetica,sans-Serif" font-size="10.00">cccc_opt.cc</text>
</a>
</g>
</g>
<!-- Node1&#45;&gt;Node9 -->
<g id="edge9" class="edge"><title>Node1&#45;&gt;Node9</title>
<path fill="none" stroke="midnightblue" d="M282.475,-165.436C315.47,-155.255 362.756,-140.664 392.4,-131.516"/>
<polygon fill="midnightblue" stroke="midnightblue" points="281.253,-162.151 272.729,-168.444 283.317,-168.839 281.253,-162.151"/>
</g>
<!-- Node3 -->
<g id="node3" class="node"><title>Node3</title>
<g id="a_node3"><a xlink:href="../../d5/dcb/cccc__htm_8cc.html" target="_top" xlink:title="cccc_htm.cc">
<polygon fill="white" stroke="black" points="86,-56.5 86,-75.5 160,-75.5 160,-56.5 86,-56.5"/>
<text text-anchor="middle" x="123" y="-63.5" font-family="Helvetica,sans-Serif" font-size="10.00">cccc_htm.cc</text>
</a>
</g>
</g>
<!-- Node2&#45;&gt;Node3 -->
<g id="edge2" class="edge"><title>Node2&#45;&gt;Node3</title>
<path fill="none" stroke="midnightblue" d="M150.3,-103.855C143.374,-94.5048 135.094,-83.3265 129.482,-75.7511"/>
<polygon fill="midnightblue" stroke="midnightblue" points="147.63,-106.131 156.395,-112.083 153.255,-101.964 147.63,-106.131"/>
</g>
<!-- Node2&#45;&gt;Node4 -->
<g id="edge3" class="edge"><title>Node2&#45;&gt;Node4</title>
<path fill="none" stroke="midnightblue" d="M133.146,-108.503C108.962,-98.3795 75.538,-84.388 54.3448,-75.5164"/>
<polygon fill="midnightblue" stroke="midnightblue" points="131.984,-111.811 142.56,-112.444 134.687,-105.354 131.984,-111.811"/>
</g>
<!-- Node2&#45;&gt;Node5 -->
<g id="edge4" class="edge"><title>Node2&#45;&gt;Node5</title>
<path fill="none" stroke="midnightblue" d="M192.241,-108.368C215.65,-98.2553 247.841,-84.3486 268.286,-75.5164"/>
<polygon fill="midnightblue" stroke="midnightblue" points="190.599,-105.265 182.807,-112.444 193.375,-111.691 190.599,-105.265"/>
</g>
<!-- Node2&#45;&gt;Node7 -->
<g id="edge7" class="edge"><title>Node2&#45;&gt;Node7</title>
<path fill="none" stroke="midnightblue" d="M170.855,-102.998C181.329,-78.9968 199.45,-37.4683 207.251,-19.5914"/>
<polygon fill="midnightblue" stroke="midnightblue" points="167.558,-101.803 166.766,-112.368 173.974,-104.603 167.558,-101.803"/>
</g>
<!-- Node6 -->
<g id="node6" class="node"><title>Node6</title>
<g id="a_node6"><a xlink:href="../../db/d75/cccc__xml_8cc.html" target="_top" xlink:title="cccc_xml.cc">
<polygon fill="white" stroke="black" points="266,-0.5 266,-19.5 338,-19.5 338,-0.5 266,-0.5"/>
<text text-anchor="middle" x="302" y="-7.5" font-family="Helvetica,sans-Serif" font-size="10.00">cccc_xml.cc</text>
</a>
</g>
</g>
<!-- Node5&#45;&gt;Node6 -->
<g id="edge5" class="edge"><title>Node5&#45;&gt;Node6</title>
<path fill="none" stroke="midnightblue" d="M292.823,-46.3956C295.165,-37.362 297.868,-26.936 299.731,-19.7511"/>
<polygon fill="midnightblue" stroke="midnightblue" points="289.434,-45.5246 290.312,-56.083 296.21,-47.2814 289.434,-45.5246"/>
</g>
<!-- Node5&#45;&gt;Node7 -->
<g id="edge6" class="edge"><title>Node5&#45;&gt;Node7</title>
<path fill="none" stroke="midnightblue" d="M267.099,-50.3422C253.089,-40.5169 235.117,-27.9132 223.341,-19.6545"/>
<polygon fill="midnightblue" stroke="midnightblue" points="265.432,-53.4477 275.629,-56.324 269.451,-47.7166 265.432,-53.4477"/>
</g>
</g>
</svg>
