<?xml version="1.0" encoding="UTF-8" standalone="no"?>
<!DOCTYPE svg PUBLIC "-//W3C//DTD SVG 1.1//EN"
 "http://www.w3.org/Graphics/SVG/1.1/DTD/svg11.dtd">
<!-- Generated by graphviz version 2.38.0 (20140413.2041)
 -->
<!-- Title: toktrace Pages: 1 -->
<svg width="212pt" height="66pt"
 viewBox="0.00 0.00 212.00 66.00" xmlns="http://www.w3.org/2000/svg" xmlns:xlink="http://www.w3.org/1999/xlink">
<g id="graph0" class="graph" transform="scale(1 1) rotate(0) translate(4 62)">
<title>toktrace</title>
<polygon fill="white" stroke="none" points="-4,4 -4,-62 208,-62 208,4 -4,4"/>
<!-- Node1 -->
<g id="node1" class="node"><title>Node1</title>
<polygon fill="#bfbfbf" stroke="black" points="0,-19.5 0,-38.5 55,-38.5 55,-19.5 0,-19.5"/>
<text text-anchor="middle" x="27.5" y="-26.5" font-family="Helvetica,sans-Serif" font-size="10.00">toktrace</text>
</g>
<!-- Node2 -->
<g id="node2" class="node"><title>Node2</title>
<g id="a_node2"><a xlink:href="../../da/d6a/classParseUtility.html#a60f0ab3b7348e1a57a4a44b3a70f4073" target="_top" xlink:title="ParseUtility::tracein">
<polygon fill="white" stroke="black" points="94,-38.5 94,-57.5 201,-57.5 201,-38.5 94,-38.5"/>
<text text-anchor="middle" x="147.5" y="-45.5" font-family="Helvetica,sans-Serif" font-size="10.00">ParseUtility::tracein</text>
</a>
</g>
</g>
<!-- Node1&#45;&gt;Node2 -->
<g id="edge1" class="edge"><title>Node1&#45;&gt;Node2</title>
<path fill="none" stroke="midnightblue" d="M65.4051,-34.9424C74.3992,-36.3905 84.1939,-37.9677 93.7661,-39.509"/>
<polygon fill="midnightblue" stroke="midnightblue" points="65.7053,-31.4457 55.276,-33.3114 64.5924,-38.3567 65.7053,-31.4457"/>
</g>
<!-- Node3 -->
<g id="node3" class="node"><title>Node3</title>
<g id="a_node3"><a xlink:href="../../da/d6a/classParseUtility.html#a172713a9706aa836c7319ab97f6c2de1" target="_top" xlink:title="ParseUtility::traceout">
<polygon fill="white" stroke="black" points="91,-0.5 91,-19.5 204,-19.5 204,-0.5 91,-0.5"/>
<text text-anchor="middle" x="147.5" y="-7.5" font-family="Helvetica,sans-Serif" font-size="10.00">ParseUtility::traceout</text>
</a>
</g>
</g>
<!-- Node1&#45;&gt;Node3 -->
<g id="edge2" class="edge"><title>Node1&#45;&gt;Node3</title>
<path fill="none" stroke="midnightblue" d="M65.1958,-23.0914C73.3545,-21.7777 82.1805,-20.3565 90.9067,-18.9515"/>
<polygon fill="midnightblue" stroke="midnightblue" points="64.5924,-19.6433 55.276,-24.6886 65.7053,-26.5543 64.5924,-19.6433"/>
</g>
</g>
</svg>
