<?xml version="1.0" encoding="UTF-8" standalone="no"?>
<!DOCTYPE svg PUBLIC "-//W3C//DTD SVG 1.1//EN"
 "http://www.w3.org/Graphics/SVG/1.1/DTD/svg11.dtd">
<!-- Generated by graphviz version 2.38.0 (20140413.2041)
 -->
<!-- Title: rectrace Pages: 1 -->
<svg width="213pt" height="66pt"
 viewBox="0.00 0.00 213.00 66.00" xmlns="http://www.w3.org/2000/svg" xmlns:xlink="http://www.w3.org/1999/xlink">
<g id="graph0" class="graph" transform="scale(1 1) rotate(0) translate(4 62)">
<title>rectrace</title>
<polygon fill="white" stroke="none" points="-4,4 -4,-62 209,-62 209,4 -4,4"/>
<!-- Node1 -->
<g id="node1" class="node"><title>Node1</title>
<polygon fill="#bfbfbf" stroke="black" points="0,-19.5 0,-38.5 56,-38.5 56,-19.5 0,-19.5"/>
<text text-anchor="middle" x="28" y="-26.5" font-family="Helvetica,sans-Serif" font-size="10.00">rectrace</text>
</g>
<!-- Node2 -->
<g id="node2" class="node"><title>Node2</title>
<g id="a_node2"><a xlink:href="../../da/d6a/classParseUtility.html#a60f0ab3b7348e1a57a4a44b3a70f4073" target="_top" xlink:title="ParseUtility::tracein">
<polygon fill="white" stroke="black" points="95,-38.5 95,-57.5 202,-57.5 202,-38.5 95,-38.5"/>
<text text-anchor="middle" x="148.5" y="-45.5" font-family="Helvetica,sans-Serif" font-size="10.00">ParseUtility::tracein</text>
</a>
</g>
</g>
<!-- Node1&#45;&gt;Node2 -->
<g id="edge1" class="edge"><title>Node1&#45;&gt;Node2</title>
<path fill="none" stroke="midnightblue" d="M66.0624,-34.9425C75.167,-36.4023 85.0886,-37.9931 94.7747,-39.5462"/>
<polygon fill="midnightblue" stroke="midnightblue" points="66.6143,-31.4864 56.1863,-33.359 65.506,-38.3981 66.6143,-31.4864"/>
</g>
<!-- Node3 -->
<g id="node3" class="node"><title>Node3</title>
<g id="a_node3"><a xlink:href="../../da/d6a/classParseUtility.html#a172713a9706aa836c7319ab97f6c2de1" target="_top" xlink:title="ParseUtility::traceout">
<polygon fill="white" stroke="black" points="92,-0.5 92,-19.5 205,-19.5 205,-0.5 92,-0.5"/>
<text text-anchor="middle" x="148.5" y="-7.5" font-family="Helvetica,sans-Serif" font-size="10.00">ParseUtility::traceout</text>
</a>
</g>
</g>
<!-- Node1&#45;&gt;Node3 -->
<g id="edge2" class="edge"><title>Node1&#45;&gt;Node3</title>
<path fill="none" stroke="midnightblue" d="M66.1464,-23.044C74.3324,-21.7315 83.1756,-20.3136 91.9122,-18.9128"/>
<polygon fill="midnightblue" stroke="midnightblue" points="65.506,-19.6019 56.1863,-24.641 66.6143,-26.5136 65.506,-19.6019"/>
</g>
</g>
</svg>
