<?xml version="1.0" encoding="UTF-8" standalone="no"?>
<!DOCTYPE svg PUBLIC "-//W3C//DTD SVG 1.1//EN"
 "http://www.w3.org/Graphics/SVG/1.1/DTD/svg11.dtd">
<!-- Generated by graphviz version 2.38.0 (20140413.2041)
 -->
<!-- Title: toktrace Pages: 1 -->
<svg width="346pt" height="142pt"
 viewBox="0.00 0.00 346.00 142.00" xmlns="http://www.w3.org/2000/svg" xmlns:xlink="http://www.w3.org/1999/xlink">
<g id="graph0" class="graph" transform="scale(1 1) rotate(0) translate(4 138)">
<title>toktrace</title>
<polygon fill="white" stroke="none" points="-4,4 -4,-138 342,-138 342,4 -4,4"/>
<!-- Node1 -->
<g id="node1" class="node"><title>Node1</title>
<polygon fill="#bfbfbf" stroke="black" points="0,-57.5 0,-76.5 55,-76.5 55,-57.5 0,-57.5"/>
<text text-anchor="middle" x="27.5" y="-64.5" font-family="Helvetica,sans-Serif" font-size="10.00">toktrace</text>
</g>
<!-- Node2 -->
<g id="node2" class="node"><title>Node2</title>
<g id="a_node2"><a xlink:href="../../da/d6a/classParseUtility.html#a60f0ab3b7348e1a57a4a44b3a70f4073" target="_top" xlink:title="ParseUtility::tracein">
<polygon fill="white" stroke="black" points="94,-76.5 94,-95.5 201,-95.5 201,-76.5 94,-76.5"/>
<text text-anchor="middle" x="147.5" y="-83.5" font-family="Helvetica,sans-Serif" font-size="10.00">ParseUtility::tracein</text>
</a>
</g>
</g>
<!-- Node1&#45;&gt;Node2 -->
<g id="edge1" class="edge"><title>Node1&#45;&gt;Node2</title>
<path fill="none" stroke="midnightblue" d="M65.4051,-72.9424C74.3992,-74.3905 84.1939,-75.9677 93.7661,-77.509"/>
<polygon fill="midnightblue" stroke="midnightblue" points="65.7053,-69.4457 55.276,-71.3114 64.5924,-76.3567 65.7053,-69.4457"/>
</g>
<!-- Node5 -->
<g id="node5" class="node"><title>Node5</title>
<g id="a_node5"><a xlink:href="../../da/d6a/classParseUtility.html#a172713a9706aa836c7319ab97f6c2de1" target="_top" xlink:title="ParseUtility::traceout">
<polygon fill="white" stroke="black" points="91,-38.5 91,-57.5 204,-57.5 204,-38.5 91,-38.5"/>
<text text-anchor="middle" x="147.5" y="-45.5" font-family="Helvetica,sans-Serif" font-size="10.00">ParseUtility::traceout</text>
</a>
</g>
</g>
<!-- Node1&#45;&gt;Node5 -->
<g id="edge4" class="edge"><title>Node1&#45;&gt;Node5</title>
<path fill="none" stroke="midnightblue" d="M65.1958,-61.0914C73.3545,-59.7777 82.1805,-58.3565 90.9067,-56.9515"/>
<polygon fill="midnightblue" stroke="midnightblue" points="64.5924,-57.6433 55.276,-62.6886 65.7053,-64.5543 64.5924,-57.6433"/>
</g>
<!-- Node3 -->
<g id="node3" class="node"><title>Node3</title>
<g id="a_node3"><a xlink:href="../../d0/df6/classCParser.html#a15ffd456e5dd1595e02f9d15324ed25e" target="_top" xlink:title="CParser::tracein">
<polygon fill="white" stroke="black" points="243,-114.5 243,-133.5 335,-133.5 335,-114.5 243,-114.5"/>
<text text-anchor="middle" x="289" y="-121.5" font-family="Helvetica,sans-Serif" font-size="10.00">CParser::tracein</text>
</a>
</g>
</g>
<!-- Node2&#45;&gt;Node3 -->
<g id="edge2" class="edge"><title>Node2&#45;&gt;Node3</title>
<path fill="none" stroke="midnightblue" d="M193.456,-98.2462C212.685,-103.484 234.803,-109.509 252.81,-114.414"/>
<polygon fill="midnightblue" stroke="midnightblue" points="194.27,-94.8404 183.702,-95.589 192.43,-101.594 194.27,-94.8404"/>
</g>
<!-- Node4 -->
<g id="node4" class="node"><title>Node4</title>
<g id="a_node4"><a xlink:href="../../d6/d6b/classJParser.html#a32f2f9a7806875b21b8d98cd29d36238" target="_top" xlink:title="JParser::tracein">
<polygon fill="white" stroke="black" points="244,-76.5 244,-95.5 334,-95.5 334,-76.5 244,-76.5"/>
<text text-anchor="middle" x="289" y="-83.5" font-family="Helvetica,sans-Serif" font-size="10.00">JParser::tracein</text>
</a>
</g>
</g>
<!-- Node2&#45;&gt;Node4 -->
<g id="edge3" class="edge"><title>Node2&#45;&gt;Node4</title>
<path fill="none" stroke="midnightblue" d="M211.242,-86C222.241,-86 233.475,-86 243.834,-86"/>
<polygon fill="midnightblue" stroke="midnightblue" points="211.239,-82.5001 201.239,-86 211.239,-89.5001 211.239,-82.5001"/>
</g>
<!-- Node6 -->
<g id="node6" class="node"><title>Node6</title>
<g id="a_node6"><a xlink:href="../../d0/df6/classCParser.html#aea932124e89b4e3783e371da89430cf8" target="_top" xlink:title="CParser::traceout">
<polygon fill="white" stroke="black" points="240,-38.5 240,-57.5 338,-57.5 338,-38.5 240,-38.5"/>
<text text-anchor="middle" x="289" y="-45.5" font-family="Helvetica,sans-Serif" font-size="10.00">CParser::traceout</text>
</a>
</g>
</g>
<!-- Node5&#45;&gt;Node6 -->
<g id="edge5" class="edge"><title>Node5&#45;&gt;Node6</title>
<path fill="none" stroke="midnightblue" d="M214.139,-48C222.808,-48 231.561,-48 239.861,-48"/>
<polygon fill="midnightblue" stroke="midnightblue" points="214.035,-44.5001 204.035,-48 214.035,-51.5001 214.035,-44.5001"/>
</g>
<!-- Node7 -->
<g id="node7" class="node"><title>Node7</title>
<g id="a_node7"><a xlink:href="../../d6/d6b/classJParser.html#a2b8d0dd2603d14ca21b99fead3146c75" target="_top" xlink:title="JParser::traceout">
<polygon fill="white" stroke="black" points="241,-0.5 241,-19.5 337,-19.5 337,-0.5 241,-0.5"/>
<text text-anchor="middle" x="289" y="-7.5" font-family="Helvetica,sans-Serif" font-size="10.00">JParser::traceout</text>
</a>
</g>
</g>
<!-- Node5&#45;&gt;Node7 -->
<g id="edge6" class="edge"><title>Node5&#45;&gt;Node7</title>
<path fill="none" stroke="midnightblue" d="M193.456,-35.7538C212.685,-30.516 234.803,-24.4909 252.81,-19.5859"/>
<polygon fill="midnightblue" stroke="midnightblue" points="192.43,-32.4057 183.702,-38.411 194.27,-39.1596 192.43,-32.4057"/>
</g>
</g>
</svg>
