<?xml version="1.0" encoding="UTF-8" standalone="no"?>
<!DOCTYPE svg PUBLIC "-//W3C//DTD SVG 1.1//EN"
 "http://www.w3.org/Graphics/SVG/1.1/DTD/svg11.dtd">
<!-- Generated by graphviz version 2.38.0 (20140413.2041)
 -->
<!-- Title: cccc_ext.cc Pages: 1 -->
<svg width="903pt" height="532pt"
 viewBox="0.00 0.00 903.00 532.00" xmlns="http://www.w3.org/2000/svg" xmlns:xlink="http://www.w3.org/1999/xlink">
<g id="graph0" class="graph" transform="scale(1 1) rotate(0) translate(4 528)">
<title>cccc_ext.cc</title>
<polygon fill="white" stroke="none" points="-4,4 -4,-528 899,-528 899,4 -4,4"/>
<!-- Node1 -->
<g id="node1" class="node"><title>Node1</title>
<polygon fill="#bfbfbf" stroke="black" points="729.5,-504.5 729.5,-523.5 800.5,-523.5 800.5,-504.5 729.5,-504.5"/>
<text text-anchor="middle" x="765" y="-511.5" font-family="Helvetica,sans-Serif" font-size="10.00">cccc_ext.cc</text>
</g>
<!-- Node2 -->
<g id="node2" class="node"><title>Node2</title>
<g id="a_node2"><a xlink:href="../../dd/d1e/cccc__itm_8h.html" target="_top" xlink:title="cccc_itm.h">
<polygon fill="white" stroke="black" points="373.5,-168.5 373.5,-187.5 438.5,-187.5 438.5,-168.5 373.5,-168.5"/>
<text text-anchor="middle" x="406" y="-175.5" font-family="Helvetica,sans-Serif" font-size="10.00">cccc_itm.h</text>
</a>
</g>
</g>
<!-- Node1&#45;&gt;Node2 -->
<g id="edge1" class="edge"><title>Node1&#45;&gt;Node2</title>
<path fill="none" stroke="midnightblue" d="M729.331,-510.114C636.222,-501.605 393,-472.705 393,-403 393,-403 393,-403 393,-289 393,-256.576 398.639,-219.146 402.49,-197.369"/>
<polygon fill="midnightblue" stroke="midnightblue" points="405.935,-197.985 404.3,-187.517 399.05,-196.72 405.935,-197.985"/>
</g>
<!-- Node17 -->
<g id="node17" class="node"><title>Node17</title>
<g id="a_node17"><a xlink:href="../../d3/d11/cccc__ext_8h.html" target="_top" xlink:title="cccc_ext.h">
<polygon fill="white" stroke="black" points="786,-280.5 786,-299.5 852,-299.5 852,-280.5 786,-280.5"/>
<text text-anchor="middle" x="819" y="-287.5" font-family="Helvetica,sans-Serif" font-size="10.00">cccc_ext.h</text>
</a>
</g>
</g>
<!-- Node1&#45;&gt;Node17 -->
<g id="edge17" class="edge"><title>Node1&#45;&gt;Node17</title>
<path fill="none" stroke="midnightblue" d="M769.548,-504.475C781.574,-481.389 814.037,-415.398 825,-356 827.832,-340.657 825.883,-323.018 823.476,-309.99"/>
<polygon fill="midnightblue" stroke="midnightblue" points="826.837,-308.965 821.351,-299.901 819.987,-310.408 826.837,-308.965"/>
</g>
<!-- Node18 -->
<g id="node18" class="node"><title>Node18</title>
<g id="a_node18"><a xlink:href="../../d7/d8f/cccc__utl_8h.html" target="_top" xlink:title="cccc_utl.h">
<polygon fill="white" stroke="black" points="769,-224.5 769,-243.5 831,-243.5 831,-224.5 769,-224.5"/>
<text text-anchor="middle" x="800" y="-231.5" font-family="Helvetica,sans-Serif" font-size="10.00">cccc_utl.h</text>
</a>
</g>
</g>
<!-- Node1&#45;&gt;Node18 -->
<g id="edge48" class="edge"><title>Node1&#45;&gt;Node18</title>
<path fill="none" stroke="midnightblue" d="M790.684,-504.466C828.57,-490.066 895,-457.104 895,-403 895,-403 895,-403 895,-345 895,-301.739 852.392,-267.086 824.245,-248.915"/>
<polygon fill="midnightblue" stroke="midnightblue" points="826.03,-245.903 815.687,-243.604 822.339,-251.851 826.03,-245.903"/>
</g>
<!-- Node21 -->
<g id="node21" class="node"><title>Node21</title>
<g id="a_node21"><a xlink:href="../../d7/d44/cccc__db_8h.html" target="_top" xlink:title="cccc_db.h">
<polygon fill="white" stroke="black" points="642.5,-448.5 642.5,-467.5 705.5,-467.5 705.5,-448.5 642.5,-448.5"/>
<text text-anchor="middle" x="674" y="-455.5" font-family="Helvetica,sans-Serif" font-size="10.00">cccc_db.h</text>
</a>
</g>
</g>
<!-- Node1&#45;&gt;Node21 -->
<g id="edge25" class="edge"><title>Node1&#45;&gt;Node21</title>
<path fill="none" stroke="midnightblue" d="M750.379,-504.324C736.051,-495.822 713.987,-482.729 697.251,-472.797"/>
<polygon fill="midnightblue" stroke="midnightblue" points="698.97,-469.748 688.584,-467.655 695.398,-475.768 698.97,-469.748"/>
</g>
<!-- Node3 -->
<g id="node3" class="node"><title>Node3</title>
<g id="a_node3"><a xlink:href="../../d0/d84/cccc_8h.html" target="_top" xlink:title="cccc.h">
<polygon fill="white" stroke="black" points="401,-112.5 401,-131.5 447,-131.5 447,-112.5 401,-112.5"/>
<text text-anchor="middle" x="424" y="-119.5" font-family="Helvetica,sans-Serif" font-size="10.00">cccc.h</text>
</a>
</g>
</g>
<!-- Node2&#45;&gt;Node3 -->
<g id="edge2" class="edge"><title>Node2&#45;&gt;Node3</title>
<path fill="none" stroke="midnightblue" d="M408.972,-168.083C411.384,-160.849 414.864,-150.409 417.868,-141.397"/>
<polygon fill="midnightblue" stroke="midnightblue" points="421.241,-142.345 421.083,-131.751 414.6,-140.131 421.241,-142.345"/>
</g>
<!-- Node4 -->
<g id="node4" class="node"><title>Node4</title>
<polygon fill="white" stroke="#bfbfbf" points="548.5,-56.5 548.5,-75.5 599.5,-75.5 599.5,-56.5 548.5,-56.5"/>
<text text-anchor="middle" x="574" y="-63.5" font-family="Helvetica,sans-Serif" font-size="10.00">cassert</text>
</g>
<!-- Node3&#45;&gt;Node4 -->
<g id="edge3" class="edge"><title>Node3&#45;&gt;Node4</title>
<path fill="none" stroke="midnightblue" d="M447.109,-112.681C472.103,-103.683 512.178,-89.2558 540.598,-79.0247"/>
<polygon fill="midnightblue" stroke="midnightblue" points="541.897,-82.2769 550.121,-75.5966 539.526,-75.6907 541.897,-82.2769"/>
</g>
<!-- Node5 -->
<g id="node5" class="node"><title>Node5</title>
<polygon fill="white" stroke="#bfbfbf" points="338.5,-56.5 338.5,-75.5 383.5,-75.5 383.5,-56.5 338.5,-56.5"/>
<text text-anchor="middle" x="361" y="-63.5" font-family="Helvetica,sans-Serif" font-size="10.00">cmath</text>
</g>
<!-- Node3&#45;&gt;Node5 -->
<g id="edge4" class="edge"><title>Node3&#45;&gt;Node5</title>
<path fill="none" stroke="midnightblue" d="M413.878,-112.324C404.474,-104.263 390.256,-92.0765 378.931,-82.3695"/>
<polygon fill="midnightblue" stroke="midnightblue" points="381.177,-79.6844 371.306,-75.8339 376.621,-84.9993 381.177,-79.6844"/>
</g>
<!-- Node6 -->
<g id="node6" class="node"><title>Node6</title>
<polygon fill="white" stroke="#bfbfbf" points="402,-56.5 402,-75.5 446,-75.5 446,-56.5 402,-56.5"/>
<text text-anchor="middle" x="424" y="-63.5" font-family="Helvetica,sans-Serif" font-size="10.00">cstdio</text>
</g>
<!-- Node3&#45;&gt;Node6 -->
<g id="edge5" class="edge"><title>Node3&#45;&gt;Node6</title>
<path fill="none" stroke="midnightblue" d="M424,-112.083C424,-105.006 424,-94.8611 424,-85.9865"/>
<polygon fill="midnightblue" stroke="midnightblue" points="427.5,-85.751 424,-75.7511 420.5,-85.7511 427.5,-85.751"/>
</g>
<!-- Node7 -->
<g id="node7" class="node"><title>Node7</title>
<polygon fill="white" stroke="#bfbfbf" points="0,-56.5 0,-75.5 48,-75.5 48,-56.5 0,-56.5"/>
<text text-anchor="middle" x="24" y="-63.5" font-family="Helvetica,sans-Serif" font-size="10.00">cstring</text>
</g>
<!-- Node3&#45;&gt;Node7 -->
<g id="edge6" class="edge"><title>Node3&#45;&gt;Node7</title>
<path fill="none" stroke="midnightblue" d="M400.629,-119.311C343.674,-114.947 193.088,-101.92 58.1547,-75.9644"/>
<polygon fill="midnightblue" stroke="midnightblue" points="58.5412,-72.4738 48.0557,-73.9914 57.199,-79.344 58.5412,-72.4738"/>
</g>
<!-- Node8 -->
<g id="node8" class="node"><title>Node8</title>
<polygon fill="white" stroke="#bfbfbf" points="66,-56.5 66,-75.5 112,-75.5 112,-56.5 66,-56.5"/>
<text text-anchor="middle" x="89" y="-63.5" font-family="Helvetica,sans-Serif" font-size="10.00">cstdlib</text>
</g>
<!-- Node3&#45;&gt;Node8 -->
<g id="edge7" class="edge"><title>Node3&#45;&gt;Node8</title>
<path fill="none" stroke="midnightblue" d="M400.632,-118.552C351.041,-113.141 231.507,-98.9532 122.2,-76.0306"/>
<polygon fill="midnightblue" stroke="midnightblue" points="122.843,-72.5891 112.333,-73.9312 121.386,-79.4358 122.843,-72.5891"/>
</g>
<!-- Node9 -->
<g id="node9" class="node"><title>Node9</title>
<polygon fill="white" stroke="#bfbfbf" points="130.5,-56.5 130.5,-75.5 177.5,-75.5 177.5,-56.5 130.5,-56.5"/>
<text text-anchor="middle" x="154" y="-63.5" font-family="Helvetica,sans-Serif" font-size="10.00">cctype</text>
</g>
<!-- Node3&#45;&gt;Node9 -->
<g id="edge8" class="edge"><title>Node3&#45;&gt;Node9</title>
<path fill="none" stroke="midnightblue" d="M400.996,-117.251C360.125,-110.458 271.994,-95.2186 187.725,-76.0129"/>
<polygon fill="midnightblue" stroke="midnightblue" points="188.267,-72.5462 177.737,-73.7132 186.696,-79.3677 188.267,-72.5462"/>
</g>
<!-- Node10 -->
<g id="node10" class="node"><title>Node10</title>
<polygon fill="white" stroke="#bfbfbf" points="773.5,-56.5 773.5,-75.5 816.5,-75.5 816.5,-56.5 773.5,-56.5"/>
<text text-anchor="middle" x="795" y="-63.5" font-family="Helvetica,sans-Serif" font-size="10.00">string</text>
</g>
<!-- Node3&#45;&gt;Node10 -->
<g id="edge9" class="edge"><title>Node3&#45;&gt;Node10</title>
<path fill="none" stroke="midnightblue" d="M447.29,-119.139C501.192,-114.574 638.78,-101.445 763.336,-75.8241"/>
<polygon fill="midnightblue" stroke="midnightblue" points="764.353,-79.1873 773.425,-73.715 762.92,-72.3355 764.353,-79.1873"/>
</g>
<!-- Node11 -->
<g id="node11" class="node"><title>Node11</title>
<polygon fill="white" stroke="#bfbfbf" points="617.5,-56.5 617.5,-75.5 674.5,-75.5 674.5,-56.5 617.5,-56.5"/>
<text text-anchor="middle" x="646" y="-63.5" font-family="Helvetica,sans-Serif" font-size="10.00">iostream</text>
</g>
<!-- Node3&#45;&gt;Node11 -->
<g id="edge10" class="edge"><title>Node3&#45;&gt;Node11</title>
<path fill="none" stroke="midnightblue" d="M447.338,-115.323C485.425,-106.059 561.316,-87.5989 607.482,-76.3692"/>
<polygon fill="midnightblue" stroke="midnightblue" points="608.528,-79.7169 617.418,-73.9525 606.874,-72.9152 608.528,-79.7169"/>
</g>
<!-- Node12 -->
<g id="node12" class="node"><title>Node12</title>
<polygon fill="white" stroke="#bfbfbf" points="196,-56.5 196,-75.5 250,-75.5 250,-56.5 196,-56.5"/>
<text text-anchor="middle" x="223" y="-63.5" font-family="Helvetica,sans-Serif" font-size="10.00">sstream</text>
</g>
<!-- Node3&#45;&gt;Node12 -->
<g id="edge11" class="edge"><title>Node3&#45;&gt;Node12</title>
<path fill="none" stroke="midnightblue" d="M400.943,-114.806C366.458,-105.541 301.105,-87.9834 259.921,-76.9192"/>
<polygon fill="midnightblue" stroke="midnightblue" points="260.824,-73.5376 250.258,-74.3231 259.007,-80.2978 260.824,-73.5376"/>
</g>
<!-- Node13 -->
<g id="node13" class="node"><title>Node13</title>
<polygon fill="white" stroke="#bfbfbf" points="268,-56.5 268,-75.5 320,-75.5 320,-56.5 268,-56.5"/>
<text text-anchor="middle" x="294" y="-63.5" font-family="Helvetica,sans-Serif" font-size="10.00">fstream</text>
</g>
<!-- Node3&#45;&gt;Node13 -->
<g id="edge12" class="edge"><title>Node3&#45;&gt;Node13</title>
<path fill="none" stroke="midnightblue" d="M403.401,-112.444C382.007,-103.557 348.319,-89.5632 323.976,-79.4514"/>
<polygon fill="midnightblue" stroke="midnightblue" points="325.08,-76.1203 314.503,-75.5164 322.395,-82.5848 325.08,-76.1203"/>
</g>
<!-- Node14 -->
<g id="node14" class="node"><title>Node14</title>
<g id="a_node14"><a xlink:href="../../d1/d7d/cccc__tok_8h.html" target="_top" xlink:title="cccc_tok.h">
<polygon fill="white" stroke="black" points="464,-56.5 464,-75.5 530,-75.5 530,-56.5 464,-56.5"/>
<text text-anchor="middle" x="497" y="-63.5" font-family="Helvetica,sans-Serif" font-size="10.00">cccc_tok.h</text>
</a>
</g>
</g>
<!-- Node3&#45;&gt;Node14 -->
<g id="edge13" class="edge"><title>Node3&#45;&gt;Node14</title>
<path fill="none" stroke="midnightblue" d="M430.614,-112.324C440.088,-103.979 457.038,-91.2122 471.554,-81.3524"/>
<polygon fill="midnightblue" stroke="midnightblue" points="473.771,-84.0832 480.19,-75.6545 469.916,-78.2404 473.771,-84.0832"/>
</g>
<!-- Node16 -->
<g id="node16" class="node"><title>Node16</title>
<polygon fill="white" stroke="#bfbfbf" points="692.5,-56.5 692.5,-75.5 755.5,-75.5 755.5,-56.5 692.5,-56.5"/>
<text text-anchor="middle" x="724" y="-63.5" font-family="Helvetica,sans-Serif" font-size="10.00">AParser.h</text>
</g>
<!-- Node3&#45;&gt;Node16 -->
<g id="edge16" class="edge"><title>Node3&#45;&gt;Node16</title>
<path fill="none" stroke="midnightblue" d="M447.28,-117.308C491.163,-110.274 589.33,-94.1804 682.387,-76.0478"/>
<polygon fill="midnightblue" stroke="midnightblue" points="683.105,-79.4738 692.245,-74.1154 681.758,-72.6045 683.105,-79.4738"/>
</g>
<!-- Node14&#45;&gt;Node3 -->
<g id="edge14" class="edge"><title>Node14&#45;&gt;Node3</title>
<path fill="none" stroke="midnightblue" d="M490.207,-75.8339C480.695,-84.1845 463.859,-96.8592 449.43,-106.658"/>
<polygon fill="midnightblue" stroke="midnightblue" points="447.263,-103.895 440.844,-112.324 451.118,-109.738 447.263,-103.895"/>
</g>
<!-- Node15 -->
<g id="node15" class="node"><title>Node15</title>
<polygon fill="white" stroke="#bfbfbf" points="466,-0.5 466,-19.5 528,-19.5 528,-0.5 466,-0.5"/>
<text text-anchor="middle" x="497" y="-7.5" font-family="Helvetica,sans-Serif" font-size="10.00">AToken.h</text>
</g>
<!-- Node14&#45;&gt;Node15 -->
<g id="edge15" class="edge"><title>Node14&#45;&gt;Node15</title>
<path fill="none" stroke="midnightblue" d="M497,-56.083C497,-49.0059 497,-38.8611 497,-29.9865"/>
<polygon fill="midnightblue" stroke="midnightblue" points="500.5,-29.751 497,-19.7511 493.5,-29.7511 500.5,-29.751"/>
</g>
<!-- Node17&#45;&gt;Node10 -->
<g id="edge18" class="edge"><title>Node17&#45;&gt;Node10</title>
<path fill="none" stroke="midnightblue" d="M825.081,-280.231C838.106,-260.345 866.608,-210.269 855,-168 846.048,-135.402 823.535,-102.676 808.775,-83.653"/>
<polygon fill="midnightblue" stroke="midnightblue" points="811.403,-81.3349 802.431,-75.701 805.932,-85.7007 811.403,-81.3349"/>
</g>
<!-- Node17&#45;&gt;Node18 -->
<g id="edge19" class="edge"><title>Node17&#45;&gt;Node18</title>
<path fill="none" stroke="midnightblue" d="M815.863,-280.083C813.317,-272.849 809.644,-262.409 806.473,-253.397"/>
<polygon fill="midnightblue" stroke="midnightblue" points="809.7,-252.023 803.079,-243.751 803.097,-254.346 809.7,-252.023"/>
</g>
<!-- Node18&#45;&gt;Node3 -->
<g id="edge20" class="edge"><title>Node18&#45;&gt;Node3</title>
<path fill="none" stroke="midnightblue" d="M790.345,-224.406C773.771,-210.17 738.272,-181.89 703,-168 680.42,-159.108 526.105,-137.083 457.158,-127.535"/>
<polygon fill="midnightblue" stroke="midnightblue" points="457.629,-124.067 447.244,-126.167 456.671,-131.001 457.629,-124.067"/>
</g>
<!-- Node18&#45;&gt;Node14 -->
<g id="edge23" class="edge"><title>Node18&#45;&gt;Node14</title>
<path fill="none" stroke="midnightblue" d="M804.062,-224.473C809.786,-211.074 818.242,-184.881 806,-168 789.954,-145.873 621.261,-99.4013 540.124,-78.0976"/>
<polygon fill="midnightblue" stroke="midnightblue" points="540.773,-74.6496 530.213,-75.5061 539.002,-81.422 540.773,-74.6496"/>
</g>
<!-- Node18&#45;&gt;Node16 -->
<g id="edge24" class="edge"><title>Node18&#45;&gt;Node16</title>
<path fill="none" stroke="midnightblue" d="M811.844,-224.106C826.536,-211.911 848.551,-189.101 839,-168 820.787,-127.764 777.747,-97.2 749.796,-80.7095"/>
<polygon fill="midnightblue" stroke="midnightblue" points="751.373,-77.5797 740.953,-75.663 747.903,-83.6594 751.373,-77.5797"/>
</g>
<!-- Node19 -->
<g id="node19" class="node"><title>Node19</title>
<polygon fill="white" stroke="#bfbfbf" points="657.5,-168.5 657.5,-187.5 694.5,-187.5 694.5,-168.5 657.5,-168.5"/>
<text text-anchor="middle" x="676" y="-175.5" font-family="Helvetica,sans-Serif" font-size="10.00">map</text>
</g>
<!-- Node18&#45;&gt;Node19 -->
<g id="edge21" class="edge"><title>Node18&#45;&gt;Node19</title>
<path fill="none" stroke="midnightblue" d="M780.352,-224.444C759.796,-215.492 727.344,-201.36 704.087,-191.232"/>
<polygon fill="midnightblue" stroke="midnightblue" points="705.31,-187.947 694.745,-187.163 702.515,-194.365 705.31,-187.947"/>
</g>
<!-- Node20 -->
<g id="node20" class="node"><title>Node20</title>
<polygon fill="white" stroke="#bfbfbf" points="751,-168.5 751,-187.5 797,-187.5 797,-168.5 751,-168.5"/>
<text text-anchor="middle" x="774" y="-175.5" font-family="Helvetica,sans-Serif" font-size="10.00">vector</text>
</g>
<!-- Node18&#45;&gt;Node20 -->
<g id="edge22" class="edge"><title>Node18&#45;&gt;Node20</title>
<path fill="none" stroke="midnightblue" d="M795.707,-224.083C792.148,-216.691 786.978,-205.953 782.576,-196.811"/>
<polygon fill="midnightblue" stroke="midnightblue" points="785.705,-195.243 778.213,-187.751 779.398,-198.279 785.705,-195.243"/>
</g>
<!-- Node21&#45;&gt;Node3 -->
<g id="edge26" class="edge"><title>Node21&#45;&gt;Node3</title>
<path fill="none" stroke="midnightblue" d="M642.284,-457.462C591.046,-456.956 488.117,-450.681 412,-412 375.014,-393.204 345,-388.488 345,-347 345,-347 345,-347 345,-233 345,-202.902 346.861,-192.741 364,-168 372.804,-155.291 386.348,-144.691 398.342,-136.977"/>
<polygon fill="midnightblue" stroke="midnightblue" points="400.376,-139.837 407.107,-131.654 396.743,-133.854 400.376,-139.837"/>
</g>
<!-- Node21&#45;&gt;Node17 -->
<g id="edge27" class="edge"><title>Node21&#45;&gt;Node17</title>
<path fill="none" stroke="midnightblue" d="M705.758,-450.53C728.719,-444.305 758.936,-432.688 778,-412 804.84,-382.873 814.185,-335.505 817.383,-309.517"/>
<polygon fill="midnightblue" stroke="midnightblue" points="820.87,-309.824 818.435,-299.512 813.908,-309.091 820.87,-309.824"/>
</g>
<!-- Node22 -->
<g id="node22" class="node"><title>Node22</title>
<g id="a_node22"><a xlink:href="../../df/de9/cccc__rec_8h.html" target="_top" xlink:title="cccc_rec.h">
<polygon fill="white" stroke="black" points="640.5,-336.5 640.5,-355.5 707.5,-355.5 707.5,-336.5 640.5,-336.5"/>
<text text-anchor="middle" x="674" y="-343.5" font-family="Helvetica,sans-Serif" font-size="10.00">cccc_rec.h</text>
</a>
</g>
</g>
<!-- Node21&#45;&gt;Node22 -->
<g id="edge28" class="edge"><title>Node21&#45;&gt;Node22</title>
<path fill="none" stroke="midnightblue" d="M705.368,-448.427C736.82,-438.125 778.405,-418.814 762,-392 752.119,-375.849 734.406,-365.26 717.45,-358.44"/>
<polygon fill="midnightblue" stroke="midnightblue" points="718.212,-354.992 707.618,-354.846 715.809,-361.567 718.212,-354.992"/>
</g>
<!-- Node25 -->
<g id="node25" class="node"><title>Node25</title>
<g id="a_node25"><a xlink:href="../../d1/da4/cccc__prj_8h.html" target="_top" xlink:title="cccc_prj.h">
<polygon fill="white" stroke="black" points="511,-392.5 511,-411.5 575,-411.5 575,-392.5 511,-392.5"/>
<text text-anchor="middle" x="543" y="-399.5" font-family="Helvetica,sans-Serif" font-size="10.00">cccc_prj.h</text>
</a>
</g>
</g>
<!-- Node21&#45;&gt;Node25 -->
<g id="edge39" class="edge"><title>Node21&#45;&gt;Node25</title>
<path fill="none" stroke="midnightblue" d="M653.243,-448.444C631.684,-439.557 597.737,-425.563 573.206,-415.451"/>
<polygon fill="midnightblue" stroke="midnightblue" points="574.239,-412.092 563.66,-411.516 571.572,-418.563 574.239,-412.092"/>
</g>
<!-- Node26 -->
<g id="node26" class="node"><title>Node26</title>
<g id="a_node26"><a xlink:href="../../df/d69/cccc__mod_8h.html" target="_top" xlink:title="cccc_mod.h">
<polygon fill="white" stroke="black" points="421,-392.5 421,-411.5 493,-411.5 493,-392.5 421,-392.5"/>
<text text-anchor="middle" x="457" y="-399.5" font-family="Helvetica,sans-Serif" font-size="10.00">cccc_mod.h</text>
</a>
</g>
</g>
<!-- Node21&#45;&gt;Node26 -->
<g id="edge41" class="edge"><title>Node21&#45;&gt;Node26</title>
<path fill="none" stroke="midnightblue" d="M642.446,-449.148C605.307,-439.906 543.387,-424.497 501.412,-414.052"/>
<polygon fill="midnightblue" stroke="midnightblue" points="502.01,-410.594 491.461,-411.576 500.32,-417.387 502.01,-410.594"/>
</g>
<!-- Node27 -->
<g id="node27" class="node"><title>Node27</title>
<g id="a_node27"><a xlink:href="../../dc/da1/cccc__mem_8h.html" target="_top" xlink:title="cccc_mem.h">
<polygon fill="white" stroke="black" points="593,-392.5 593,-411.5 667,-411.5 667,-392.5 593,-392.5"/>
<text text-anchor="middle" x="630" y="-399.5" font-family="Helvetica,sans-Serif" font-size="10.00">cccc_mem.h</text>
</a>
</g>
</g>
<!-- Node21&#45;&gt;Node27 -->
<g id="edge44" class="edge"><title>Node21&#45;&gt;Node27</title>
<path fill="none" stroke="midnightblue" d="M666.734,-448.083C660.455,-440.377 651.212,-429.033 643.569,-419.653"/>
<polygon fill="midnightblue" stroke="midnightblue" points="646.161,-417.293 637.131,-411.751 640.734,-421.714 646.161,-417.293"/>
</g>
<!-- Node28 -->
<g id="node28" class="node"><title>Node28</title>
<g id="a_node28"><a xlink:href="../../d4/d96/cccc__use_8h.html" target="_top" xlink:title="cccc_use.h">
<polygon fill="white" stroke="black" points="685,-392.5 685,-411.5 753,-411.5 753,-392.5 685,-392.5"/>
<text text-anchor="middle" x="719" y="-399.5" font-family="Helvetica,sans-Serif" font-size="10.00">cccc_use.h</text>
</a>
</g>
</g>
<!-- Node21&#45;&gt;Node28 -->
<g id="edge46" class="edge"><title>Node21&#45;&gt;Node28</title>
<path fill="none" stroke="midnightblue" d="M681.431,-448.083C687.853,-440.377 697.306,-429.033 705.122,-419.653"/>
<polygon fill="midnightblue" stroke="midnightblue" points="707.994,-421.674 711.707,-411.751 702.617,-417.193 707.994,-421.674"/>
</g>
<!-- Node22&#45;&gt;Node17 -->
<g id="edge37" class="edge"><title>Node22&#45;&gt;Node17</title>
<path fill="none" stroke="midnightblue" d="M696.976,-336.444C721.157,-327.438 759.418,-313.189 786.646,-303.049"/>
<polygon fill="midnightblue" stroke="midnightblue" points="787.982,-306.286 796.132,-299.516 785.539,-299.727 787.982,-306.286"/>
</g>
<!-- Node22&#45;&gt;Node18 -->
<g id="edge38" class="edge"><title>Node22&#45;&gt;Node18</title>
<path fill="none" stroke="midnightblue" d="M683.887,-336.368C705.141,-317.814 755.427,-273.913 782.317,-250.438"/>
<polygon fill="midnightblue" stroke="midnightblue" points="784.928,-252.805 790.159,-243.591 780.324,-247.531 784.928,-252.805"/>
</g>
<!-- Node23 -->
<g id="node23" class="node"><title>Node23</title>
<g id="a_node23"><a xlink:href="../../df/dd4/cccc__tbl_8h.html" target="_top" xlink:title="cccc_tbl.h">
<polygon fill="white" stroke="black" points="579,-280.5 579,-299.5 641,-299.5 641,-280.5 579,-280.5"/>
<text text-anchor="middle" x="610" y="-287.5" font-family="Helvetica,sans-Serif" font-size="10.00">cccc_tbl.h</text>
</a>
</g>
</g>
<!-- Node22&#45;&gt;Node23 -->
<g id="edge29" class="edge"><title>Node22&#45;&gt;Node23</title>
<path fill="none" stroke="midnightblue" d="M663.717,-336.324C654.164,-328.263 639.72,-316.077 628.216,-306.369"/>
<polygon fill="midnightblue" stroke="midnightblue" points="630.37,-303.608 620.47,-299.834 625.856,-308.958 630.37,-303.608"/>
</g>
<!-- Node23&#45;&gt;Node10 -->
<g id="edge31" class="edge"><title>Node23&#45;&gt;Node10</title>
<path fill="none" stroke="midnightblue" d="M610.795,-280.21C613.104,-258.968 621.431,-203.944 648,-168 678.824,-126.3 732.227,-95.936 765.477,-79.9216"/>
<polygon fill="midnightblue" stroke="midnightblue" points="767.125,-83.015 774.694,-75.6015 764.153,-76.6767 767.125,-83.015"/>
</g>
<!-- Node23&#45;&gt;Node11 -->
<g id="edge30" class="edge"><title>Node23&#45;&gt;Node11</title>
<path fill="none" stroke="midnightblue" d="M608.542,-280.231C604.522,-253.919 594.859,-173.658 615,-112 618.375,-101.669 624.937,-91.5724 631.159,-83.5695"/>
<polygon fill="midnightblue" stroke="midnightblue" points="633.917,-85.7261 637.608,-75.7952 628.53,-81.2566 633.917,-85.7261"/>
</g>
<!-- Node23&#45;&gt;Node19 -->
<g id="edge32" class="edge"><title>Node23&#45;&gt;Node19</title>
<path fill="none" stroke="midnightblue" d="M617.016,-280.332C624.02,-271.482 634.881,-257.205 643,-244 652.415,-228.688 661.541,-210.358 667.8,-197.073"/>
<polygon fill="midnightblue" stroke="midnightblue" points="671.135,-198.199 672.156,-187.654 664.782,-195.261 671.135,-198.199"/>
</g>
<!-- Node24 -->
<g id="node24" class="node"><title>Node24</title>
<g id="a_node24"><a xlink:href="../../d1/d17/cccc__tbl_8cc.html" target="_top" xlink:title="cccc_tbl.cc">
<polygon fill="white" stroke="black" points="495.5,-224.5 495.5,-243.5 562.5,-243.5 562.5,-224.5 495.5,-224.5"/>
<text text-anchor="middle" x="529" y="-231.5" font-family="Helvetica,sans-Serif" font-size="10.00">cccc_tbl.cc</text>
</a>
</g>
</g>
<!-- Node23&#45;&gt;Node24 -->
<g id="edge33" class="edge"><title>Node23&#45;&gt;Node24</title>
<path fill="none" stroke="midnightblue" d="M591.871,-280.324C577.9,-272.185 559.044,-259.839 545.503,-250.087"/>
<polygon fill="midnightblue" stroke="midnightblue" points="547.214,-246.998 537.102,-243.834 543.034,-252.613 547.214,-246.998"/>
</g>
<!-- Node24&#45;&gt;Node2 -->
<g id="edge34" class="edge"><title>Node24&#45;&gt;Node2</title>
<path fill="none" stroke="midnightblue" d="M509.51,-224.444C489.358,-215.596 457.677,-201.687 434.669,-191.586"/>
<polygon fill="midnightblue" stroke="midnightblue" points="435.962,-188.332 425.399,-187.516 433.148,-194.741 435.962,-188.332"/>
</g>
<!-- Node24&#45;&gt;Node4 -->
<g id="edge36" class="edge"><title>Node24&#45;&gt;Node4</title>
<path fill="none" stroke="midnightblue" d="M531.419,-224.075C538.503,-197.945 559.304,-121.211 568.964,-85.577"/>
<polygon fill="midnightblue" stroke="midnightblue" points="572.439,-86.1355 571.677,-75.5681 565.683,-84.304 572.439,-86.1355"/>
</g>
<!-- Node24&#45;&gt;Node23 -->
<g id="edge35" class="edge"><title>Node24&#45;&gt;Node23</title>
<path fill="none" stroke="midnightblue" d="M547.092,-243.655C561.137,-251.835 580.135,-264.277 593.703,-274.061"/>
<polygon fill="midnightblue" stroke="midnightblue" points="591.992,-277.151 602.101,-280.324 596.177,-271.54 591.992,-277.151"/>
</g>
<!-- Node25&#45;&gt;Node22 -->
<g id="edge40" class="edge"><title>Node25&#45;&gt;Node22</title>
<path fill="none" stroke="midnightblue" d="M563.757,-392.444C585.316,-383.557 619.263,-369.563 643.794,-359.451"/>
<polygon fill="midnightblue" stroke="midnightblue" points="645.428,-362.563 653.34,-355.516 642.761,-356.092 645.428,-362.563"/>
</g>
<!-- Node26&#45;&gt;Node3 -->
<g id="edge42" class="edge"><title>Node26&#45;&gt;Node3</title>
<path fill="none" stroke="midnightblue" d="M458.307,-392.466C461.018,-374.007 467,-328.968 467,-291 467,-291 467,-291 467,-233 467,-198.306 448.215,-161.42 435.477,-140.396"/>
<polygon fill="midnightblue" stroke="midnightblue" points="438.272,-138.266 429.979,-131.672 432.35,-141.998 438.272,-138.266"/>
</g>
<!-- Node26&#45;&gt;Node22 -->
<g id="edge43" class="edge"><title>Node26&#45;&gt;Node22</title>
<path fill="none" stroke="midnightblue" d="M491.384,-392.444C529.063,-383.067 589.584,-368.007 630.528,-357.818"/>
<polygon fill="midnightblue" stroke="midnightblue" points="631.631,-361.15 640.49,-355.339 629.94,-354.357 631.631,-361.15"/>
</g>
<!-- Node27&#45;&gt;Node22 -->
<g id="edge45" class="edge"><title>Node27&#45;&gt;Node22</title>
<path fill="none" stroke="midnightblue" d="M637.266,-392.083C643.545,-384.377 652.788,-373.033 660.431,-363.653"/>
<polygon fill="midnightblue" stroke="midnightblue" points="663.266,-365.714 666.869,-355.751 657.839,-361.293 663.266,-365.714"/>
</g>
<!-- Node28&#45;&gt;Node22 -->
<g id="edge47" class="edge"><title>Node28&#45;&gt;Node22</title>
<path fill="none" stroke="midnightblue" d="M711.569,-392.083C705.147,-384.377 695.694,-373.033 687.878,-363.653"/>
<polygon fill="midnightblue" stroke="midnightblue" points="690.383,-361.193 681.293,-355.751 685.006,-365.674 690.383,-361.193"/>
</g>
</g>
</svg>
