<?xml version="1.0" encoding="UTF-8" standalone="no"?>
<!DOCTYPE svg PUBLIC "-//W3C//DTD SVG 1.1//EN"
 "http://www.w3.org/Graphics/SVG/1.1/DTD/svg11.dtd">
<!-- Generated by graphviz version 2.38.0 (20140413.2041)
 -->
<!-- Title: JLexer.cpp Pages: 1 -->
<svg width="1245pt" height="308pt"
 viewBox="0.00 0.00 1245.00 308.00" xmlns="http://www.w3.org/2000/svg" xmlns:xlink="http://www.w3.org/1999/xlink">
<g id="graph0" class="graph" transform="scale(1 1) rotate(0) translate(4 304)">
<title>JLexer.cpp</title>
<polygon fill="white" stroke="none" points="-4,4 -4,-304 1241,-304 1241,4 -4,4"/>
<!-- Node1 -->
<g id="node1" class="node"><title>Node1</title>
<polygon fill="#bfbfbf" stroke="black" points="792.5,-280.5 792.5,-299.5 860.5,-299.5 860.5,-280.5 792.5,-280.5"/>
<text text-anchor="middle" x="826.5" y="-287.5" font-family="Helvetica,sans-Serif" font-size="10.00">JLexer.cpp</text>
</g>
<!-- Node2 -->
<g id="node2" class="node"><title>Node2</title>
<g id="a_node2"><a xlink:href="../../da/d59/Jtokens_8h.html" target="_top" xlink:title="Jtokens.h">
<polygon fill="white" stroke="black" points="381.5,-224.5 381.5,-243.5 443.5,-243.5 443.5,-224.5 381.5,-224.5"/>
<text text-anchor="middle" x="412.5" y="-231.5" font-family="Helvetica,sans-Serif" font-size="10.00">Jtokens.h</text>
</a>
</g>
</g>
<!-- Node1&#45;&gt;Node2 -->
<g id="edge1" class="edge"><title>Node1&#45;&gt;Node2</title>
<path fill="none" stroke="midnightblue" d="M792.293,-285.707C726.996,-279.225 580.16,-263.716 457.5,-244 456.399,-243.823 455.283,-243.638 454.159,-243.448"/>
<polygon fill="midnightblue" stroke="midnightblue" points="454.379,-239.931 443.916,-241.6 453.136,-246.82 454.379,-239.931"/>
</g>
<!-- Node3 -->
<g id="node3" class="node"><title>Node3</title>
<polygon fill="white" stroke="#bfbfbf" points="742.5,-0.5 742.5,-19.5 804.5,-19.5 804.5,-0.5 742.5,-0.5"/>
<text text-anchor="middle" x="773.5" y="-7.5" font-family="Helvetica,sans-Serif" font-size="10.00">AToken.h</text>
</g>
<!-- Node1&#45;&gt;Node3 -->
<g id="edge2" class="edge"><title>Node1&#45;&gt;Node3</title>
<path fill="none" stroke="midnightblue" d="M829.062,-280.249C834.249,-261.738 845.5,-217.179 845.5,-179 845.5,-179 845.5,-179 845.5,-121 845.5,-90.9022 842.884,-81.2477 826.5,-56 818.697,-43.9759 806.729,-33.4242 796.139,-25.5662"/>
<polygon fill="midnightblue" stroke="midnightblue" points="797.883,-22.5137 787.689,-19.6258 793.857,-28.2402 797.883,-22.5137"/>
</g>
<!-- Node4 -->
<g id="node4" class="node"><title>Node4</title>
<polygon fill="white" stroke="#bfbfbf" points="754,-56.5 754,-75.5 817,-75.5 817,-56.5 754,-56.5"/>
<text text-anchor="middle" x="785.5" y="-63.5" font-family="Helvetica,sans-Serif" font-size="10.00">AParser.h</text>
</g>
<!-- Node1&#45;&gt;Node4 -->
<g id="edge3" class="edge"><title>Node1&#45;&gt;Node4</title>
<path fill="none" stroke="midnightblue" d="M824.893,-280.297C818.86,-247.633 797.48,-131.866 789.001,-85.9573"/>
<polygon fill="midnightblue" stroke="midnightblue" points="792.399,-85.0818 787.141,-75.8837 785.515,-86.3531 792.399,-85.0818"/>
</g>
<!-- Node5 -->
<g id="node5" class="node"><title>Node5</title>
<g id="a_node5"><a xlink:href="../../d0/d84/cccc_8h.html" target="_top" xlink:title="cccc.h">
<polygon fill="white" stroke="black" points="499.5,-112.5 499.5,-131.5 545.5,-131.5 545.5,-112.5 499.5,-112.5"/>
<text text-anchor="middle" x="522.5" y="-119.5" font-family="Helvetica,sans-Serif" font-size="10.00">cccc.h</text>
</a>
</g>
</g>
<!-- Node1&#45;&gt;Node5 -->
<g id="edge4" class="edge"><title>Node1&#45;&gt;Node5</title>
<path fill="none" stroke="midnightblue" d="M792.467,-287.026C731.052,-282.825 604.961,-271.078 571.5,-244 539.744,-218.302 528.414,-168.805 524.49,-141.763"/>
<polygon fill="midnightblue" stroke="midnightblue" points="527.943,-141.169 523.224,-131.683 520.998,-142.042 527.943,-141.169"/>
</g>
<!-- Node6 -->
<g id="node6" class="node"><title>Node6</title>
<polygon fill="white" stroke="#bfbfbf" points="0,-56.5 0,-75.5 51,-75.5 51,-56.5 0,-56.5"/>
<text text-anchor="middle" x="25.5" y="-63.5" font-family="Helvetica,sans-Serif" font-size="10.00">cassert</text>
</g>
<!-- Node1&#45;&gt;Node6 -->
<g id="edge31" class="edge"><title>Node1&#45;&gt;Node6</title>
<path fill="none" stroke="midnightblue" d="M792.27,-285.213C739.896,-279.012 636.953,-265.22 551.5,-244 359.146,-196.234 136.302,-110.95 56.1601,-79.2815"/>
<polygon fill="midnightblue" stroke="midnightblue" points="57.2598,-75.9525 46.6738,-75.5195 54.6792,-82.4595 57.2598,-75.9525"/>
</g>
<!-- Node17 -->
<g id="node17" class="node"><title>Node17</title>
<g id="a_node17"><a xlink:href="../../d7/d8f/cccc__utl_8h.html" target="_top" xlink:title="cccc_utl.h">
<polygon fill="white" stroke="black" points="665.5,-168.5 665.5,-187.5 727.5,-187.5 727.5,-168.5 665.5,-168.5"/>
<text text-anchor="middle" x="696.5" y="-175.5" font-family="Helvetica,sans-Serif" font-size="10.00">cccc_utl.h</text>
</a>
</g>
</g>
<!-- Node1&#45;&gt;Node17 -->
<g id="edge19" class="edge"><title>Node1&#45;&gt;Node17</title>
<path fill="none" stroke="midnightblue" d="M816.299,-280.368C794.276,-261.733 742.038,-217.532 714.385,-194.134"/>
<polygon fill="midnightblue" stroke="midnightblue" points="716.548,-191.379 706.653,-187.591 712.027,-196.723 716.548,-191.379"/>
</g>
<!-- Node20 -->
<g id="node20" class="node"><title>Node20</title>
<g id="a_node20"><a xlink:href="../../db/ded/cccc__opt_8h.html" target="_top" xlink:title="cccc_opt.h">
<polygon fill="white" stroke="black" points="581,-224.5 581,-243.5 648,-243.5 648,-224.5 581,-224.5"/>
<text text-anchor="middle" x="614.5" y="-231.5" font-family="Helvetica,sans-Serif" font-size="10.00">cccc_opt.h</text>
</a>
</g>
</g>
<!-- Node1&#45;&gt;Node20 -->
<g id="edge25" class="edge"><title>Node1&#45;&gt;Node20</title>
<path fill="none" stroke="midnightblue" d="M792.908,-280.444C756.313,-271.122 697.662,-256.183 657.674,-245.997"/>
<polygon fill="midnightblue" stroke="midnightblue" points="658.489,-242.593 647.935,-243.516 656.761,-249.377 658.489,-242.593"/>
</g>
<!-- Node22 -->
<g id="node22" class="node"><title>Node22</title>
<polygon fill="white" stroke="#bfbfbf" points="873.5,-224.5 873.5,-243.5 937.5,-243.5 937.5,-224.5 873.5,-224.5"/>
<text text-anchor="middle" x="905.5" y="-231.5" font-family="Helvetica,sans-Serif" font-size="10.00">pcctscfg.h</text>
</g>
<!-- Node1&#45;&gt;Node22 -->
<g id="edge29" class="edge"><title>Node1&#45;&gt;Node22</title>
<path fill="none" stroke="midnightblue" d="M839.193,-280.324C851.401,-271.979 870.078,-259.212 884.503,-249.352"/>
<polygon fill="midnightblue" stroke="midnightblue" points="886.558,-252.187 892.839,-243.655 882.608,-246.408 886.558,-252.187"/>
</g>
<!-- Node23 -->
<g id="node23" class="node"><title>Node23</title>
<polygon fill="white" stroke="#bfbfbf" points="955.5,-224.5 955.5,-243.5 1033.5,-243.5 1033.5,-224.5 955.5,-224.5"/>
<text text-anchor="middle" x="994.5" y="-231.5" font-family="Helvetica,sans-Serif" font-size="10.00">pccts_stdio.h</text>
</g>
<!-- Node1&#45;&gt;Node23 -->
<g id="edge30" class="edge"><title>Node1&#45;&gt;Node23</title>
<path fill="none" stroke="midnightblue" d="M853.12,-280.444C881.506,-271.32 926.637,-256.813 958.253,-246.651"/>
<polygon fill="midnightblue" stroke="midnightblue" points="959.555,-249.909 968.004,-243.516 957.413,-243.244 959.555,-249.909"/>
</g>
<!-- Node24 -->
<g id="node24" class="node"><title>Node24</title>
<g id="a_node24"><a xlink:href="../../d9/de4/JLexer_8h.html" target="_top" xlink:title="JLexer.h">
<polygon fill="white" stroke="black" points="1052,-224.5 1052,-243.5 1109,-243.5 1109,-224.5 1052,-224.5"/>
<text text-anchor="middle" x="1080.5" y="-231.5" font-family="Helvetica,sans-Serif" font-size="10.00">JLexer.h</text>
</a>
</g>
</g>
<!-- Node1&#45;&gt;Node24 -->
<g id="edge32" class="edge"><title>Node1&#45;&gt;Node24</title>
<path fill="none" stroke="midnightblue" d="M860.605,-282.193C901.313,-274.002 971.689,-259.636 1041.97,-244.069"/>
<polygon fill="midnightblue" stroke="midnightblue" points="1042.88,-247.452 1051.89,-241.865 1041.36,-240.619 1042.88,-247.452"/>
</g>
<!-- Node25 -->
<g id="node25" class="node"><title>Node25</title>
<polygon fill="white" stroke="#bfbfbf" points="1067,-168.5 1067,-187.5 1150,-187.5 1150,-168.5 1067,-168.5"/>
<text text-anchor="middle" x="1108.5" y="-175.5" font-family="Helvetica,sans-Serif" font-size="10.00">DLexerBase.h</text>
</g>
<!-- Node1&#45;&gt;Node25 -->
<g id="edge34" class="edge"><title>Node1&#45;&gt;Node25</title>
<path fill="none" stroke="midnightblue" d="M860.639,-289.042C930.423,-288.325 1085.61,-282.35 1118.5,-244 1129.51,-231.168 1124.44,-211.436 1118.2,-197.078"/>
<polygon fill="midnightblue" stroke="midnightblue" points="1121.19,-195.216 1113.67,-187.749 1114.89,-198.273 1121.19,-195.216"/>
</g>
<!-- Node26 -->
<g id="node26" class="node"><title>Node26</title>
<polygon fill="white" stroke="#bfbfbf" points="1166,-224.5 1166,-243.5 1237,-243.5 1237,-224.5 1166,-224.5"/>
<text text-anchor="middle" x="1201.5" y="-231.5" font-family="Helvetica,sans-Serif" font-size="10.00">DLexer.cpp</text>
</g>
<!-- Node1&#45;&gt;Node26 -->
<g id="edge35" class="edge"><title>Node1&#45;&gt;Node26</title>
<path fill="none" stroke="midnightblue" d="M860.725,-284.725C920.042,-277.211 1045.74,-260.833 1151.5,-244 1152.94,-243.77 1154.41,-243.533 1155.89,-243.289"/>
<polygon fill="midnightblue" stroke="midnightblue" points="1156.48,-246.739 1165.75,-241.616 1155.31,-239.838 1156.48,-246.739"/>
</g>
<!-- Node5&#45;&gt;Node4 -->
<g id="edge18" class="edge"><title>Node5&#45;&gt;Node4</title>
<path fill="none" stroke="midnightblue" d="M545.536,-116.458C584.233,-108.8 664.985,-92.703 743.648,-76.1529"/>
<polygon fill="midnightblue" stroke="midnightblue" points="744.664,-79.5157 753.727,-74.0275 743.22,-72.6664 744.664,-79.5157"/>
</g>
<!-- Node5&#45;&gt;Node6 -->
<g id="edge5" class="edge"><title>Node5&#45;&gt;Node6</title>
<path fill="none" stroke="midnightblue" d="M499.124,-114.737C494.627,-113.696 489.937,-112.723 485.5,-112 301.168,-81.9768 248.511,-107.529 60.9227,-75.9636"/>
<polygon fill="midnightblue" stroke="midnightblue" points="61.4618,-72.5051 51.0142,-74.2648 60.2789,-79.4044 61.4618,-72.5051"/>
</g>
<!-- Node7 -->
<g id="node7" class="node"><title>Node7</title>
<polygon fill="white" stroke="#bfbfbf" points="287,-56.5 287,-75.5 332,-75.5 332,-56.5 287,-56.5"/>
<text text-anchor="middle" x="309.5" y="-63.5" font-family="Helvetica,sans-Serif" font-size="10.00">cmath</text>
</g>
<!-- Node5&#45;&gt;Node7 -->
<g id="edge6" class="edge"><title>Node5&#45;&gt;Node7</title>
<path fill="none" stroke="midnightblue" d="M499.201,-115.301C460.616,-105.849 384.243,-87.0766 341.933,-76.0399"/>
<polygon fill="midnightblue" stroke="midnightblue" points="342.764,-72.6394 332.202,-73.4772 340.981,-79.4086 342.764,-72.6394"/>
</g>
<!-- Node8 -->
<g id="node8" class="node"><title>Node8</title>
<polygon fill="white" stroke="#bfbfbf" points="350.5,-56.5 350.5,-75.5 394.5,-75.5 394.5,-56.5 350.5,-56.5"/>
<text text-anchor="middle" x="372.5" y="-63.5" font-family="Helvetica,sans-Serif" font-size="10.00">cstdio</text>
</g>
<!-- Node5&#45;&gt;Node8 -->
<g id="edge7" class="edge"><title>Node5&#45;&gt;Node8</title>
<path fill="none" stroke="midnightblue" d="M499.391,-112.681C473.956,-103.524 432.902,-88.7449 404.408,-78.487"/>
<polygon fill="midnightblue" stroke="midnightblue" points="405.494,-75.158 394.9,-75.0638 403.123,-81.7442 405.494,-75.158"/>
</g>
<!-- Node9 -->
<g id="node9" class="node"><title>Node9</title>
<polygon fill="white" stroke="#bfbfbf" points="412.5,-56.5 412.5,-75.5 460.5,-75.5 460.5,-56.5 412.5,-56.5"/>
<text text-anchor="middle" x="436.5" y="-63.5" font-family="Helvetica,sans-Serif" font-size="10.00">cstring</text>
</g>
<!-- Node5&#45;&gt;Node9 -->
<g id="edge8" class="edge"><title>Node5&#45;&gt;Node9</title>
<path fill="none" stroke="midnightblue" d="M508.683,-112.324C495.267,-103.9 474.676,-90.9709 458.914,-81.0741"/>
<polygon fill="midnightblue" stroke="midnightblue" points="460.613,-78.0081 450.283,-75.6545 456.891,-83.9364 460.613,-78.0081"/>
</g>
<!-- Node10 -->
<g id="node10" class="node"><title>Node10</title>
<polygon fill="white" stroke="#bfbfbf" points="478.5,-56.5 478.5,-75.5 524.5,-75.5 524.5,-56.5 478.5,-56.5"/>
<text text-anchor="middle" x="501.5" y="-63.5" font-family="Helvetica,sans-Serif" font-size="10.00">cstdlib</text>
</g>
<!-- Node5&#45;&gt;Node10 -->
<g id="edge9" class="edge"><title>Node5&#45;&gt;Node10</title>
<path fill="none" stroke="midnightblue" d="M519.032,-112.083C516.188,-104.77 512.071,-94.1814 508.54,-85.1034"/>
<polygon fill="midnightblue" stroke="midnightblue" points="511.79,-83.8025 504.903,-75.7511 505.266,-86.3397 511.79,-83.8025"/>
</g>
<!-- Node11 -->
<g id="node11" class="node"><title>Node11</title>
<polygon fill="white" stroke="#bfbfbf" points="543,-56.5 543,-75.5 590,-75.5 590,-56.5 543,-56.5"/>
<text text-anchor="middle" x="566.5" y="-63.5" font-family="Helvetica,sans-Serif" font-size="10.00">cctype</text>
</g>
<!-- Node5&#45;&gt;Node11 -->
<g id="edge10" class="edge"><title>Node5&#45;&gt;Node11</title>
<path fill="none" stroke="midnightblue" d="M529.766,-112.083C536.045,-104.377 545.288,-93.0333 552.931,-83.6531"/>
<polygon fill="midnightblue" stroke="midnightblue" points="555.766,-85.7143 559.369,-75.7511 550.339,-81.2926 555.766,-85.7143"/>
</g>
<!-- Node12 -->
<g id="node12" class="node"><title>Node12</title>
<polygon fill="white" stroke="#bfbfbf" points="608,-56.5 608,-75.5 651,-75.5 651,-56.5 608,-56.5"/>
<text text-anchor="middle" x="629.5" y="-63.5" font-family="Helvetica,sans-Serif" font-size="10.00">string</text>
</g>
<!-- Node5&#45;&gt;Node12 -->
<g id="edge11" class="edge"><title>Node5&#45;&gt;Node12</title>
<path fill="none" stroke="midnightblue" d="M539.691,-112.324C556.851,-103.664 583.446,-90.2424 603.247,-80.249"/>
<polygon fill="midnightblue" stroke="midnightblue" points="605.001,-83.2847 612.351,-75.6545 601.847,-77.0354 605.001,-83.2847"/>
</g>
<!-- Node13 -->
<g id="node13" class="node"><title>Node13</title>
<polygon fill="white" stroke="#bfbfbf" points="69,-56.5 69,-75.5 126,-75.5 126,-56.5 69,-56.5"/>
<text text-anchor="middle" x="97.5" y="-63.5" font-family="Helvetica,sans-Serif" font-size="10.00">iostream</text>
</g>
<!-- Node5&#45;&gt;Node13 -->
<g id="edge12" class="edge"><title>Node5&#45;&gt;Node13</title>
<path fill="none" stroke="midnightblue" d="M499.113,-114.802C494.617,-113.756 489.93,-112.763 485.5,-112 334.553,-86.003 291.445,-101.411 135.968,-75.8435"/>
<polygon fill="midnightblue" stroke="midnightblue" points="136.493,-72.3828 126.052,-74.1829 135.337,-79.2866 136.493,-72.3828"/>
</g>
<!-- Node14 -->
<g id="node14" class="node"><title>Node14</title>
<polygon fill="white" stroke="#bfbfbf" points="144.5,-56.5 144.5,-75.5 198.5,-75.5 198.5,-56.5 144.5,-56.5"/>
<text text-anchor="middle" x="171.5" y="-63.5" font-family="Helvetica,sans-Serif" font-size="10.00">sstream</text>
</g>
<!-- Node5&#45;&gt;Node14 -->
<g id="edge13" class="edge"><title>Node5&#45;&gt;Node14</title>
<path fill="none" stroke="midnightblue" d="M499.492,-114.989C494.878,-113.901 490.05,-112.845 485.5,-112 366.239,-89.8426 331.725,-98.6479 208.742,-76.0292"/>
<polygon fill="midnightblue" stroke="midnightblue" points="209.026,-72.5215 198.552,-74.1212 207.737,-79.4019 209.026,-72.5215"/>
</g>
<!-- Node15 -->
<g id="node15" class="node"><title>Node15</title>
<polygon fill="white" stroke="#bfbfbf" points="216.5,-56.5 216.5,-75.5 268.5,-75.5 268.5,-56.5 216.5,-56.5"/>
<text text-anchor="middle" x="242.5" y="-63.5" font-family="Helvetica,sans-Serif" font-size="10.00">fstream</text>
</g>
<!-- Node5&#45;&gt;Node15 -->
<g id="edge14" class="edge"><title>Node5&#45;&gt;Node15</title>
<path fill="none" stroke="midnightblue" d="M499.462,-115.143C494.85,-114.042 490.031,-112.942 485.5,-112 396.785,-93.5549 370.976,-95.5327 278.855,-76.1494"/>
<polygon fill="midnightblue" stroke="midnightblue" points="279.33,-72.672 268.82,-74.0094 277.87,-79.5181 279.33,-72.672"/>
</g>
<!-- Node16 -->
<g id="node16" class="node"><title>Node16</title>
<g id="a_node16"><a xlink:href="../../d1/d7d/cccc__tok_8h.html" target="_top" xlink:title="cccc_tok.h">
<polygon fill="white" stroke="black" points="669.5,-56.5 669.5,-75.5 735.5,-75.5 735.5,-56.5 669.5,-56.5"/>
<text text-anchor="middle" x="702.5" y="-63.5" font-family="Helvetica,sans-Serif" font-size="10.00">cccc_tok.h</text>
</a>
</g>
</g>
<!-- Node5&#45;&gt;Node16 -->
<g id="edge15" class="edge"><title>Node5&#45;&gt;Node16</title>
<path fill="none" stroke="midnightblue" d="M545.562,-112.562C574.327,-103.317 623.731,-88.4421 659.506,-78.2188"/>
<polygon fill="midnightblue" stroke="midnightblue" points="660.542,-81.5633 669.207,-75.4672 658.631,-74.829 660.542,-81.5633"/>
</g>
<!-- Node16&#45;&gt;Node3 -->
<g id="edge17" class="edge"><title>Node16&#45;&gt;Node3</title>
<path fill="none" stroke="midnightblue" d="M713.907,-56.324C724.609,-48.1849 740.841,-35.8395 753.663,-26.0874"/>
<polygon fill="midnightblue" stroke="midnightblue" points="756.044,-28.6734 761.885,-19.8339 751.807,-23.1018 756.044,-28.6734"/>
</g>
<!-- Node16&#45;&gt;Node5 -->
<g id="edge16" class="edge"><title>Node16&#45;&gt;Node5</title>
<path fill="none" stroke="midnightblue" d="M679.211,-75.5102C647.693,-85.6355 591.685,-102.437 555.768,-112.54"/>
<polygon fill="midnightblue" stroke="midnightblue" points="554.458,-109.271 545.762,-115.323 556.334,-116.015 554.458,-109.271"/>
</g>
<!-- Node17&#45;&gt;Node4 -->
<g id="edge24" class="edge"><title>Node17&#45;&gt;Node4</title>
<path fill="none" stroke="midnightblue" d="M687.66,-168.467C675.333,-155.51 655.84,-130.434 668.5,-112 677.466,-98.9448 714.056,-86.1886 743.961,-77.6114"/>
<polygon fill="midnightblue" stroke="midnightblue" points="745.105,-80.9262 753.797,-74.8685 743.224,-74.1834 745.105,-80.9262"/>
</g>
<!-- Node17&#45;&gt;Node5 -->
<g id="edge20" class="edge"><title>Node17&#45;&gt;Node5</title>
<path fill="none" stroke="midnightblue" d="M668.929,-168.444C638.1,-158.876 588.199,-143.389 555.367,-133.2"/>
<polygon fill="midnightblue" stroke="midnightblue" points="556.354,-129.842 545.765,-130.22 554.279,-136.527 556.354,-129.842"/>
</g>
<!-- Node17&#45;&gt;Node16 -->
<g id="edge23" class="edge"><title>Node17&#45;&gt;Node16</title>
<path fill="none" stroke="midnightblue" d="M677.45,-168.383C655.192,-157.005 622.907,-135.627 635.5,-112 643.05,-97.8339 657.261,-87.3348 670.658,-80.0576"/>
<polygon fill="midnightblue" stroke="midnightblue" points="672.334,-83.1329 679.712,-75.5289 669.202,-76.8724 672.334,-83.1329"/>
</g>
<!-- Node18 -->
<g id="node18" class="node"><title>Node18</title>
<polygon fill="white" stroke="#bfbfbf" points="678,-112.5 678,-131.5 715,-131.5 715,-112.5 678,-112.5"/>
<text text-anchor="middle" x="696.5" y="-119.5" font-family="Helvetica,sans-Serif" font-size="10.00">map</text>
</g>
<!-- Node17&#45;&gt;Node18 -->
<g id="edge21" class="edge"><title>Node17&#45;&gt;Node18</title>
<path fill="none" stroke="midnightblue" d="M696.5,-168.083C696.5,-161.006 696.5,-150.861 696.5,-141.986"/>
<polygon fill="midnightblue" stroke="midnightblue" points="700,-141.751 696.5,-131.751 693,-141.751 700,-141.751"/>
</g>
<!-- Node19 -->
<g id="node19" class="node"><title>Node19</title>
<polygon fill="white" stroke="#bfbfbf" points="733.5,-112.5 733.5,-131.5 779.5,-131.5 779.5,-112.5 733.5,-112.5"/>
<text text-anchor="middle" x="756.5" y="-119.5" font-family="Helvetica,sans-Serif" font-size="10.00">vector</text>
</g>
<!-- Node17&#45;&gt;Node19 -->
<g id="edge22" class="edge"><title>Node17&#45;&gt;Node19</title>
<path fill="none" stroke="midnightblue" d="M706.14,-168.324C715.01,-160.341 728.375,-148.313 739.108,-138.653"/>
<polygon fill="midnightblue" stroke="midnightblue" points="741.593,-141.125 746.685,-131.834 736.91,-135.922 741.593,-141.125"/>
</g>
<!-- Node20&#45;&gt;Node5 -->
<g id="edge26" class="edge"><title>Node20&#45;&gt;Node5</title>
<path fill="none" stroke="midnightblue" d="M605.876,-224.263C597.2,-215.359 583.558,-201.041 572.5,-188 559.034,-172.119 544.635,-153.169 534.764,-139.84"/>
<polygon fill="midnightblue" stroke="midnightblue" points="537.464,-137.602 528.721,-131.617 531.823,-141.748 537.464,-137.602"/>
</g>
<!-- Node21 -->
<g id="node21" class="node"><title>Node21</title>
<g id="a_node21"><a xlink:href="../../dd/d1e/cccc__itm_8h.html" target="_top" xlink:title="cccc_itm.h">
<polygon fill="white" stroke="black" points="582,-168.5 582,-187.5 647,-187.5 647,-168.5 582,-168.5"/>
<text text-anchor="middle" x="614.5" y="-175.5" font-family="Helvetica,sans-Serif" font-size="10.00">cccc_itm.h</text>
</a>
</g>
</g>
<!-- Node20&#45;&gt;Node21 -->
<g id="edge27" class="edge"><title>Node20&#45;&gt;Node21</title>
<path fill="none" stroke="midnightblue" d="M614.5,-224.083C614.5,-217.006 614.5,-206.861 614.5,-197.986"/>
<polygon fill="midnightblue" stroke="midnightblue" points="618,-197.751 614.5,-187.751 611,-197.751 618,-197.751"/>
</g>
<!-- Node21&#45;&gt;Node5 -->
<g id="edge28" class="edge"><title>Node21&#45;&gt;Node5</title>
<path fill="none" stroke="midnightblue" d="M599.719,-168.324C585.233,-159.822 562.927,-146.729 546.007,-136.797"/>
<polygon fill="midnightblue" stroke="midnightblue" points="547.641,-133.698 537.245,-131.655 544.097,-139.735 547.641,-133.698"/>
</g>
<!-- Node24&#45;&gt;Node25 -->
<g id="edge33" class="edge"><title>Node24&#45;&gt;Node25</title>
<path fill="none" stroke="midnightblue" d="M1085.12,-224.083C1088.96,-216.691 1094.52,-205.953 1099.26,-196.811"/>
<polygon fill="midnightblue" stroke="midnightblue" points="1102.47,-198.24 1103.96,-187.751 1096.25,-195.018 1102.47,-198.24"/>
</g>
</g>
</svg>
