<?xml version="1.0" encoding="UTF-8" standalone="no"?>
<!DOCTYPE svg PUBLIC "-//W3C//DTD SVG 1.1//EN"
 "http://www.w3.org/Graphics/SVG/1.1/DTD/svg11.dtd">
<!-- Generated by graphviz version 2.38.0 (20140413.2041)
 -->
<!-- Title: CCCC_Xml_Stream::Structural_Detail Pages: 1 -->
<svg width="332pt" height="104pt"
 viewBox="0.00 0.00 332.00 104.00" xmlns="http://www.w3.org/2000/svg" xmlns:xlink="http://www.w3.org/1999/xlink">
<g id="graph0" class="graph" transform="scale(1 1) rotate(0) translate(4 100)">
<title>CCCC_Xml_Stream::Structural_Detail</title>
<polygon fill="white" stroke="none" points="-4,4 -4,-100 328,-100 328,4 -4,4"/>
<!-- Node1 -->
<g id="node1" class="node"><title>Node1</title>
<polygon fill="#bfbfbf" stroke="black" points="0,-33 0,-63 158,-63 158,-33 0,-33"/>
<text text-anchor="start" x="8" y="-51" font-family="Helvetica,sans-Serif" font-size="10.00">CCCC_Xml_Stream::Structural</text>
<text text-anchor="middle" x="79" y="-40" font-family="Helvetica,sans-Serif" font-size="10.00">_Detail</text>
</g>
<!-- Node2 -->
<g id="node2" class="node"><title>Node2</title>
<g id="a_node2"><a xlink:href="../../d8/dcf/classCCCC__Table.html#a0d099c7bc984323270cc8c63d5ff8379" target="_top" xlink:title="CCCC_Table::first_item">
<polygon fill="white" stroke="black" points="196,-76.5 196,-95.5 322,-95.5 322,-76.5 196,-76.5"/>
<text text-anchor="middle" x="259" y="-83.5" font-family="Helvetica,sans-Serif" font-size="10.00">CCCC_Table::first_item</text>
</a>
</g>
</g>
<!-- Node1&#45;&gt;Node2 -->
<g id="edge1" class="edge"><title>Node1&#45;&gt;Node2</title>
<path fill="none" stroke="midnightblue" d="M150.35,-63.0186C167.974,-66.781 186.619,-70.7614 203.351,-74.3334"/>
<polygon fill="midnightblue" stroke="midnightblue" points="202.985,-77.8341 213.496,-76.4991 204.447,-70.9883 202.985,-77.8341"/>
</g>
<!-- Node3 -->
<g id="node3" class="node"><title>Node3</title>
<g id="a_node3"><a xlink:href="../../d6/d9f/classCCCC__Module.html#a2e35b964b59e60393b2af32dd537f505" target="_top" xlink:title="CCCC_Module::is_trivial">
<polygon fill="white" stroke="black" points="194,-38.5 194,-57.5 324,-57.5 324,-38.5 194,-38.5"/>
<text text-anchor="middle" x="259" y="-45.5" font-family="Helvetica,sans-Serif" font-size="10.00">CCCC_Module::is_trivial</text>
</a>
</g>
</g>
<!-- Node1&#45;&gt;Node3 -->
<g id="edge2" class="edge"><title>Node1&#45;&gt;Node3</title>
<path fill="none" stroke="midnightblue" d="M158.073,-48C166.574,-48 175.209,-48 183.663,-48"/>
<polygon fill="midnightblue" stroke="midnightblue" points="183.864,-51.5001 193.864,-48 183.864,-44.5001 183.864,-51.5001"/>
</g>
<!-- Node4 -->
<g id="node4" class="node"><title>Node4</title>
<g id="a_node4"><a xlink:href="../../d8/dcf/classCCCC__Table.html#a080274070f7d48b68bd8d3291818d76f" target="_top" xlink:title="CCCC_Table::next_item">
<polygon fill="white" stroke="black" points="194.5,-0.5 194.5,-19.5 323.5,-19.5 323.5,-0.5 194.5,-0.5"/>
<text text-anchor="middle" x="259" y="-7.5" font-family="Helvetica,sans-Serif" font-size="10.00">CCCC_Table::next_item</text>
</a>
</g>
</g>
<!-- Node1&#45;&gt;Node4 -->
<g id="edge3" class="edge"><title>Node1&#45;&gt;Node4</title>
<path fill="none" stroke="midnightblue" d="M150.35,-32.9814C167.974,-29.219 186.619,-25.2386 203.351,-21.6666"/>
<polygon fill="midnightblue" stroke="midnightblue" points="204.447,-25.0117 213.496,-19.5009 202.985,-18.1659 204.447,-25.0117"/>
</g>
</g>
</svg>
