<?xml version="1.0" encoding="UTF-8" standalone="no"?>
<!DOCTYPE svg PUBLIC "-//W3C//DTD SVG 1.1//EN"
 "http://www.w3.org/Graphics/SVG/1.1/DTD/svg11.dtd">
<!-- Generated by graphviz version 2.38.0 (20140413.2041)
 -->
<!-- Title: CCCC_Xml_Stream::Put_Extent_List Pages: 1 -->
<svg width="451pt" height="154pt"
 viewBox="0.00 0.00 451.00 154.00" xmlns="http://www.w3.org/2000/svg" xmlns:xlink="http://www.w3.org/1999/xlink">
<g id="graph0" class="graph" transform="scale(1 1) rotate(0) translate(4 150)">
<title>CCCC_Xml_Stream::Put_Extent_List</title>
<polygon fill="white" stroke="none" points="-4,4 -4,-150 447,-150 447,4 -4,4"/>
<!-- Node1 -->
<g id="node1" class="node"><title>Node1</title>
<polygon fill="#bfbfbf" stroke="black" points="0,-61 0,-91 129,-91 129,-61 0,-61"/>
<text text-anchor="start" x="8" y="-79" font-family="Helvetica,sans-Serif" font-size="10.00">CCCC_Xml_Stream::Put</text>
<text text-anchor="middle" x="64.5" y="-68" font-family="Helvetica,sans-Serif" font-size="10.00">_Extent_List</text>
</g>
<!-- Node2 -->
<g id="node2" class="node"><title>Node2</title>
<g id="a_node2"><a xlink:href="../../d8/dcf/classCCCC__Table.html#a0d099c7bc984323270cc8c63d5ff8379" target="_top" xlink:title="CCCC_Table::first_item">
<polygon fill="white" stroke="black" points="166.5,-126.5 166.5,-145.5 292.5,-145.5 292.5,-126.5 166.5,-126.5"/>
<text text-anchor="middle" x="229.5" y="-133.5" font-family="Helvetica,sans-Serif" font-size="10.00">CCCC_Table::first_item</text>
</a>
</g>
</g>
<!-- Node1&#45;&gt;Node2 -->
<g id="edge1" class="edge"><title>Node1&#45;&gt;Node2</title>
<path fill="none" stroke="midnightblue" d="M106.632,-91.1405C133.275,-100.948 167.618,-113.589 193.053,-122.952"/>
<polygon fill="midnightblue" stroke="midnightblue" points="192.079,-126.323 202.672,-126.493 194.497,-119.754 192.079,-126.323"/>
</g>
<!-- Node3 -->
<g id="node3" class="node"><title>Node3</title>
<g id="a_node3"><a xlink:href="../../df/d99/classCCCC__Extent.html#aafc68f063b7e7635471d1d0f7d5bca70" target="_top" xlink:title="CCCC_Extent::name">
<polygon fill="white" stroke="black" points="330,-66.5 330,-85.5 443,-85.5 443,-66.5 330,-66.5"/>
<text text-anchor="middle" x="386.5" y="-73.5" font-family="Helvetica,sans-Serif" font-size="10.00">CCCC_Extent::name</text>
</a>
</g>
</g>
<!-- Node1&#45;&gt;Node3 -->
<g id="edge2" class="edge"><title>Node1&#45;&gt;Node3</title>
<path fill="none" stroke="midnightblue" d="M129.19,-78.2058C141.089,-78.5369 153.422,-78.8255 165,-79 222.327,-79.864 236.674,-79.9395 294,-79 302.338,-78.8633 311.102,-78.6567 319.767,-78.4145"/>
<polygon fill="midnightblue" stroke="midnightblue" points="319.97,-81.9101 329.862,-78.1158 319.763,-74.9131 319.97,-81.9101"/>
</g>
<!-- Node4 -->
<g id="node4" class="node"><title>Node4</title>
<g id="a_node4"><a xlink:href="../../db/d8c/classCCCC__Xml__Stream.html#a4dbcc8c8a21c10b8b3b942137aead5e0" target="_top" xlink:title="CCCC_Xml_Stream::Put\l_Extent_URL">
<polygon fill="white" stroke="black" points="165,-39 165,-69 294,-69 294,-39 165,-39"/>
<text text-anchor="start" x="173" y="-57" font-family="Helvetica,sans-Serif" font-size="10.00">CCCC_Xml_Stream::Put</text>
<text text-anchor="middle" x="229.5" y="-46" font-family="Helvetica,sans-Serif" font-size="10.00">_Extent_URL</text>
</a>
</g>
</g>
<!-- Node1&#45;&gt;Node4 -->
<g id="edge3" class="edge"><title>Node1&#45;&gt;Node4</title>
<path fill="none" stroke="midnightblue" d="M129.454,-67.3682C137.852,-66.2347 146.511,-65.066 155.05,-63.9135"/>
<polygon fill="midnightblue" stroke="midnightblue" points="155.556,-67.3771 164.998,-62.5709 154.619,-60.44 155.556,-67.3771"/>
</g>
<!-- Node5 -->
<g id="node5" class="node"><title>Node5</title>
<g id="a_node5"><a xlink:href="../../d8/dcf/classCCCC__Table.html#a080274070f7d48b68bd8d3291818d76f" target="_top" xlink:title="CCCC_Table::next_item">
<polygon fill="white" stroke="black" points="165,-0.5 165,-19.5 294,-19.5 294,-0.5 165,-0.5"/>
<text text-anchor="middle" x="229.5" y="-7.5" font-family="Helvetica,sans-Serif" font-size="10.00">CCCC_Table::next_item</text>
</a>
</g>
</g>
<!-- Node1&#45;&gt;Node5 -->
<g id="edge5" class="edge"><title>Node1&#45;&gt;Node5</title>
<path fill="none" stroke="midnightblue" d="M95.5495,-60.8843C115.069,-51.3721 141.216,-39.2 165,-30 171.518,-27.4786 178.5,-25.0325 185.363,-22.7667"/>
<polygon fill="midnightblue" stroke="midnightblue" points="186.813,-25.9773 195.265,-19.5885 184.674,-19.3123 186.813,-25.9773"/>
</g>
<!-- Node4&#45;&gt;Node3 -->
<g id="edge4" class="edge"><title>Node4&#45;&gt;Node3</title>
<path fill="none" stroke="midnightblue" d="M294.439,-63.0753C302.739,-64.2533 311.254,-65.4618 319.585,-66.6443"/>
<polygon fill="midnightblue" stroke="midnightblue" points="319.238,-70.13 329.63,-68.0701 320.222,-63.1995 319.238,-70.13"/>
</g>
</g>
</svg>
