<?xml version="1.0" encoding="UTF-8" standalone="no"?>
<!DOCTYPE svg PUBLIC "-//W3C//DTD SVG 1.1//EN"
 "http://www.w3.org/Graphics/SVG/1.1/DTD/svg11.dtd">
<!-- Generated by graphviz version 2.38.0 (20140413.2041)
 -->
<!-- Title: CCCC_Xml_Stream::Project_Summary Pages: 1 -->
<svg width="495pt" height="116pt"
 viewBox="0.00 0.00 495.00 115.50" xmlns="http://www.w3.org/2000/svg" xmlns:xlink="http://www.w3.org/1999/xlink">
<g id="graph0" class="graph" transform="scale(1 1) rotate(0) translate(4 111.5)">
<title>CCCC_Xml_Stream::Project_Summary</title>
<polygon fill="white" stroke="none" points="-4,4 -4,-111.5 491,-111.5 491,4 -4,4"/>
<!-- Node1 -->
<g id="node1" class="node"><title>Node1</title>
<polygon fill="#bfbfbf" stroke="black" points="0,-44.5 0,-74.5 147,-74.5 147,-44.5 0,-44.5"/>
<text text-anchor="start" x="8" y="-62.5" font-family="Helvetica,sans-Serif" font-size="10.00">CCCC_Xml_Stream::Project</text>
<text text-anchor="middle" x="73.5" y="-51.5" font-family="Helvetica,sans-Serif" font-size="10.00">_Summary</text>
</g>
<!-- Node2 -->
<g id="node2" class="node"><title>Node2</title>
<g id="a_node2"><a xlink:href="../../d4/d6e/classCCCC__Project.html#a7b6605a2ff1c695425725494dd7098ea" target="_top" xlink:title="CCCC_Project::get_count">
<polygon fill="white" stroke="black" points="183,-88 183,-107 320,-107 320,-88 183,-88"/>
<text text-anchor="middle" x="251.5" y="-95" font-family="Helvetica,sans-Serif" font-size="10.00">CCCC_Project::get_count</text>
</a>
</g>
</g>
<!-- Node1&#45;&gt;Node2 -->
<g id="edge1" class="edge"><title>Node1&#45;&gt;Node2</title>
<path fill="none" stroke="midnightblue" d="M144.06,-74.5186C161.486,-78.281 179.921,-82.2614 196.465,-85.8334"/>
<polygon fill="midnightblue" stroke="midnightblue" points="195.982,-89.3097 206.496,-87.9991 197.46,-82.4674 195.982,-89.3097"/>
</g>
<!-- Node3 -->
<g id="node3" class="node"><title>Node3</title>
<g id="a_node3"><a xlink:href="../../d8/dcf/classCCCC__Table.html#a7ce8dcc5f09c5870ddec8e7af6d8c6d8" target="_top" xlink:title="CCCC_Table::get_count">
<polygon fill="white" stroke="black" points="356.5,-69 356.5,-88 486.5,-88 486.5,-69 356.5,-69"/>
<text text-anchor="middle" x="421.5" y="-76" font-family="Helvetica,sans-Serif" font-size="10.00">CCCC_Table::get_count</text>
</a>
</g>
</g>
<!-- Node1&#45;&gt;Node3 -->
<g id="edge3" class="edge"><title>Node1&#45;&gt;Node3</title>
<path fill="none" stroke="midnightblue" d="M147.033,-63.483C205.357,-66.6858 286.996,-71.1688 345.87,-74.4018"/>
<polygon fill="midnightblue" stroke="midnightblue" points="346.041,-77.9164 356.218,-74.9701 346.425,-70.9269 346.041,-77.9164"/>
</g>
<!-- Node4 -->
<g id="node4" class="node"><title>Node4</title>
<g id="a_node4"><a xlink:href="../../db/d8c/classCCCC__Xml__Stream.html#a618ba6784d7300949e73cf61693d4388" target="_top" xlink:title="CCCC_Xml_Stream::Put\l_Metric_Node">
<polygon fill="white" stroke="black" points="187,-0.5 187,-30.5 316,-30.5 316,-0.5 187,-0.5"/>
<text text-anchor="start" x="195" y="-18.5" font-family="Helvetica,sans-Serif" font-size="10.00">CCCC_Xml_Stream::Put</text>
<text text-anchor="middle" x="251.5" y="-7.5" font-family="Helvetica,sans-Serif" font-size="10.00">_Metric_Node</text>
</a>
</g>
</g>
<!-- Node1&#45;&gt;Node4 -->
<g id="edge4" class="edge"><title>Node1&#45;&gt;Node4</title>
<path fill="none" stroke="midnightblue" d="M134.577,-44.4808C149.363,-40.7844 165.321,-36.7947 180.53,-32.9926"/>
<polygon fill="midnightblue" stroke="midnightblue" points="181.543,-36.3471 190.395,-30.5262 179.845,-29.5561 181.543,-36.3471"/>
</g>
<!-- Node2&#45;&gt;Node3 -->
<g id="edge2" class="edge"><title>Node2&#45;&gt;Node3</title>
<path fill="none" stroke="midnightblue" d="M320.348,-89.8267C328.922,-88.857 337.73,-87.8609 346.396,-86.8809"/>
<polygon fill="midnightblue" stroke="midnightblue" points="346.937,-90.3421 356.48,-85.7404 346.15,-83.3864 346.937,-90.3421"/>
</g>
<!-- Node5 -->
<g id="node5" class="node"><title>Node5</title>
<g id="a_node5"><a xlink:href="../../dd/d72/classCCCC__Metric.html#a4388127897cc2c1de762a9689b913c0d" target="_top" xlink:title="CCCC_Metric::emphasis\l_level">
<polygon fill="white" stroke="black" points="356,-0.5 356,-30.5 487,-30.5 487,-0.5 356,-0.5"/>
<text text-anchor="start" x="364" y="-18.5" font-family="Helvetica,sans-Serif" font-size="10.00">CCCC_Metric::emphasis</text>
<text text-anchor="middle" x="421.5" y="-7.5" font-family="Helvetica,sans-Serif" font-size="10.00">_level</text>
</a>
</g>
</g>
<!-- Node4&#45;&gt;Node5 -->
<g id="edge5" class="edge"><title>Node4&#45;&gt;Node5</title>
<path fill="none" stroke="midnightblue" d="M316.014,-15.5C325.668,-15.5 335.708,-15.5 345.578,-15.5"/>
<polygon fill="midnightblue" stroke="midnightblue" points="345.78,-19.0001 355.78,-15.5 345.78,-12.0001 345.78,-19.0001"/>
</g>
</g>
</svg>
