<?xml version="1.0" encoding="UTF-8" standalone="no"?>
<!DOCTYPE svg PUBLIC "-//W3C//DTD SVG 1.1//EN"
 "http://www.w3.org/Graphics/SVG/1.1/DTD/svg11.dtd">
<!-- Generated by graphviz version 2.38.0 (20140413.2041)
 -->
<!-- Title: CCCC_Xml_Stream::Structural_Summary Pages: 1 -->
<svg width="824pt" height="339pt"
 viewBox="0.00 0.00 824.00 339.29" xmlns="http://www.w3.org/2000/svg" xmlns:xlink="http://www.w3.org/1999/xlink">
<g id="graph0" class="graph" transform="scale(1 1) rotate(0) translate(4 335.289)">
<title>CCCC_Xml_Stream::Structural_Summary</title>
<polygon fill="white" stroke="none" points="-4,4 -4,-335.289 820,-335.289 820,4 -4,4"/>
<!-- Node1 -->
<g id="node1" class="node"><title>Node1</title>
<polygon fill="#bfbfbf" stroke="black" points="0,-149.5 0,-179.5 158,-179.5 158,-149.5 0,-149.5"/>
<text text-anchor="start" x="8" y="-167.5" font-family="Helvetica,sans-Serif" font-size="10.00">CCCC_Xml_Stream::Structural</text>
<text text-anchor="middle" x="79" y="-156.5" font-family="Helvetica,sans-Serif" font-size="10.00">_Summary</text>
</g>
<!-- Node2 -->
<g id="node2" class="node"><title>Node2</title>
<g id="a_node2"><a xlink:href="../../d8/dcf/classCCCC__Table.html#a0d099c7bc984323270cc8c63d5ff8379" target="_top" xlink:title="CCCC_Table::first_item">
<polygon fill="white" stroke="black" points="539.5,-309 539.5,-328 665.5,-328 665.5,-309 539.5,-309"/>
<text text-anchor="middle" x="602.5" y="-316" font-family="Helvetica,sans-Serif" font-size="10.00">CCCC_Table::first_item</text>
</a>
</g>
</g>
<!-- Node1&#45;&gt;Node2 -->
<g id="edge1" class="edge"><title>Node1&#45;&gt;Node2</title>
<path fill="none" stroke="midnightblue" d="M90.2642,-179.682C108.148,-204.836 147.58,-254.824 194,-279.5 300.133,-335.919 443.887,-334.814 529.233,-327.566"/>
<polygon fill="midnightblue" stroke="midnightblue" points="529.699,-331.039 539.345,-326.655 529.071,-324.067 529.699,-331.039"/>
</g>
<!-- Node3 -->
<g id="node3" class="node"><title>Node3</title>
<g id="a_node3"><a xlink:href="../../d6/d9f/classCCCC__Module.html#a2e35b964b59e60393b2af32dd537f505" target="_top" xlink:title="CCCC_Module::is_trivial">
<polygon fill="white" stroke="black" points="370,-50 370,-69 500,-69 500,-50 370,-50"/>
<text text-anchor="middle" x="435" y="-57" font-family="Helvetica,sans-Serif" font-size="10.00">CCCC_Module::is_trivial</text>
</a>
</g>
</g>
<!-- Node1&#45;&gt;Node3 -->
<g id="edge2" class="edge"><title>Node1&#45;&gt;Node3</title>
<path fill="none" stroke="midnightblue" d="M158.257,-150.806C220.4,-139.194 301.712,-122.141 332,-107.5 350.498,-98.5581 349.769,-87.9731 368,-78.5 372.335,-76.2476 376.972,-74.2296 381.705,-72.4285"/>
<polygon fill="midnightblue" stroke="midnightblue" points="383.188,-75.6185 391.486,-69.0308 380.891,-69.0061 383.188,-75.6185"/>
</g>
<!-- Node4 -->
<g id="node4" class="node"><title>Node4</title>
<g id="a_node4"><a xlink:href="../../db/d8c/classCCCC__Xml__Stream.html#a5857c6d4a204a15b65a411301e2caf57" target="_top" xlink:title="CCCC_Xml_Stream::Put\l_Label_Node">
<polygon fill="white" stroke="black" points="198.5,-240.5 198.5,-270.5 327.5,-270.5 327.5,-240.5 198.5,-240.5"/>
<text text-anchor="start" x="206.5" y="-258.5" font-family="Helvetica,sans-Serif" font-size="10.00">CCCC_Xml_Stream::Put</text>
<text text-anchor="middle" x="263" y="-247.5" font-family="Helvetica,sans-Serif" font-size="10.00">_Label_Node</text>
</a>
</g>
</g>
<!-- Node1&#45;&gt;Node4 -->
<g id="edge3" class="edge"><title>Node1&#45;&gt;Node4</title>
<path fill="none" stroke="midnightblue" d="M106.881,-179.628C129.795,-192.344 163.732,-210.751 194,-225.5 201.422,-229.116 209.382,-232.799 217.147,-236.289"/>
<polygon fill="midnightblue" stroke="midnightblue" points="215.913,-239.571 226.473,-240.433 218.756,-233.174 215.913,-239.571"/>
</g>
<!-- Node8 -->
<g id="node8" class="node"><title>Node8</title>
<g id="a_node8"><a xlink:href="../../d8/dcf/classCCCC__Table.html#a080274070f7d48b68bd8d3291818d76f" target="_top" xlink:title="CCCC_Table::next_item">
<polygon fill="white" stroke="black" points="538,-183 538,-202 667,-202 667,-183 538,-183"/>
<text text-anchor="middle" x="602.5" y="-190" font-family="Helvetica,sans-Serif" font-size="10.00">CCCC_Table::next_item</text>
</a>
</g>
</g>
<!-- Node1&#45;&gt;Node8 -->
<g id="edge20" class="edge"><title>Node1&#45;&gt;Node8</title>
<path fill="none" stroke="midnightblue" d="M158.033,-178.65C170.048,-180.497 182.335,-182.197 194,-183.5 310,-196.462 445.69,-196.457 527.54,-194.814"/>
<polygon fill="midnightblue" stroke="midnightblue" points="527.818,-198.309 537.741,-194.595 527.668,-191.31 527.818,-198.309"/>
</g>
<!-- Node9 -->
<g id="node9" class="node"><title>Node9</title>
<g id="a_node9"><a xlink:href="../../d6/d9f/classCCCC__Module.html#adea7213358d5e1f9119c70cbbb99f287" target="_top" xlink:title="CCCC_Module::name">
<polygon fill="white" stroke="black" points="204,-79 204,-98 322,-98 322,-79 204,-79"/>
<text text-anchor="middle" x="263" y="-86" font-family="Helvetica,sans-Serif" font-size="10.00">CCCC_Module::name</text>
</a>
</g>
</g>
<!-- Node1&#45;&gt;Node9 -->
<g id="edge10" class="edge"><title>Node1&#45;&gt;Node9</title>
<path fill="none" stroke="midnightblue" d="M111.127,-149.397C133.863,-138.589 165.557,-123.98 194,-112.5 203.392,-108.709 213.638,-104.918 223.262,-101.504"/>
<polygon fill="midnightblue" stroke="midnightblue" points="224.717,-104.703 233.003,-98.1001 222.408,-98.0953 224.717,-104.703"/>
</g>
<!-- Node10 -->
<g id="node10" class="node"><title>Node10</title>
<g id="a_node10"><a xlink:href="../../d6/d9f/classCCCC__Module.html#ad1f26ab257c41657302b5c7b0253b034" target="_top" xlink:title="CCCC_Module::get_count">
<polygon fill="white" stroke="black" points="194,-155 194,-174 332,-174 332,-155 194,-155"/>
<text text-anchor="middle" x="263" y="-162" font-family="Helvetica,sans-Serif" font-size="10.00">CCCC_Module::get_count</text>
</a>
</g>
</g>
<!-- Node1&#45;&gt;Node10 -->
<g id="edge11" class="edge"><title>Node1&#45;&gt;Node10</title>
<path fill="none" stroke="midnightblue" d="M158.241,-164.5C166.665,-164.5 175.239,-164.5 183.665,-164.5"/>
<polygon fill="midnightblue" stroke="midnightblue" points="183.85,-168 193.85,-164.5 183.85,-161 183.85,-168"/>
</g>
<!-- Node14 -->
<g id="node14" class="node"><title>Node14</title>
<g id="a_node14"><a xlink:href="../../db/d8c/classCCCC__Xml__Stream.html#a618ba6784d7300949e73cf61693d4388" target="_top" xlink:title="CCCC_Xml_Stream::Put\l_Metric_Node">
<polygon fill="white" stroke="black" points="198.5,-10.5 198.5,-40.5 327.5,-40.5 327.5,-10.5 198.5,-10.5"/>
<text text-anchor="start" x="206.5" y="-28.5" font-family="Helvetica,sans-Serif" font-size="10.00">CCCC_Xml_Stream::Put</text>
<text text-anchor="middle" x="263" y="-17.5" font-family="Helvetica,sans-Serif" font-size="10.00">_Metric_Node</text>
</a>
</g>
</g>
<!-- Node1&#45;&gt;Node14 -->
<g id="edge18" class="edge"><title>Node1&#45;&gt;Node14</title>
<path fill="none" stroke="midnightblue" d="M96.8603,-149.349C118.663,-130.017 158.105,-95.9207 194,-69.5 204.902,-61.4758 217.22,-53.2646 228.348,-46.1417"/>
<polygon fill="midnightblue" stroke="midnightblue" points="230.389,-48.9921 236.967,-40.687 226.645,-43.077 230.389,-48.9921"/>
</g>
<!-- Node5 -->
<g id="node5" class="node"><title>Node5</title>
<g id="a_node5"><a xlink:href="../../db/d8c/classCCCC__Xml__Stream.html#a8d4f164a7fe732e7627a5fc81ffd8ef9" target="_top" xlink:title="CCCC_Xml_Stream::Put\l_Extent_List">
<polygon fill="white" stroke="black" points="370.5,-240.5 370.5,-270.5 499.5,-270.5 499.5,-240.5 370.5,-240.5"/>
<text text-anchor="start" x="378.5" y="-258.5" font-family="Helvetica,sans-Serif" font-size="10.00">CCCC_Xml_Stream::Put</text>
<text text-anchor="middle" x="435" y="-247.5" font-family="Helvetica,sans-Serif" font-size="10.00">_Extent_List</text>
</a>
</g>
</g>
<!-- Node4&#45;&gt;Node5 -->
<g id="edge4" class="edge"><title>Node4&#45;&gt;Node5</title>
<path fill="none" stroke="midnightblue" d="M327.785,-255.5C338.352,-255.5 349.386,-255.5 360.176,-255.5"/>
<polygon fill="midnightblue" stroke="midnightblue" points="360.423,-259 370.423,-255.5 360.422,-252 360.423,-259"/>
</g>
<!-- Node5&#45;&gt;Node2 -->
<g id="edge5" class="edge"><title>Node5&#45;&gt;Node2</title>
<path fill="none" stroke="midnightblue" d="M475.22,-270.536C494.179,-277.794 517.266,-286.618 538,-294.5 547.321,-298.043 557.417,-301.866 566.757,-305.397"/>
<polygon fill="midnightblue" stroke="midnightblue" points="565.562,-308.686 576.154,-308.946 568.036,-302.138 565.562,-308.686"/>
</g>
<!-- Node6 -->
<g id="node6" class="node"><title>Node6</title>
<g id="a_node6"><a xlink:href="../../df/d99/classCCCC__Extent.html#aafc68f063b7e7635471d1d0f7d5bca70" target="_top" xlink:title="CCCC_Extent::name">
<polygon fill="white" stroke="black" points="703,-249 703,-268 816,-268 816,-249 703,-249"/>
<text text-anchor="middle" x="759.5" y="-256" font-family="Helvetica,sans-Serif" font-size="10.00">CCCC_Extent::name</text>
</a>
</g>
</g>
<!-- Node5&#45;&gt;Node6 -->
<g id="edge6" class="edge"><title>Node5&#45;&gt;Node6</title>
<path fill="none" stroke="midnightblue" d="M499.643,-259.102C512.345,-259.685 525.593,-260.196 538,-260.5 595.316,-261.904 609.67,-261.126 667,-260.5 675.336,-260.409 684.099,-260.271 692.763,-260.11"/>
<polygon fill="midnightblue" stroke="midnightblue" points="692.929,-263.607 702.858,-259.911 692.791,-256.609 692.929,-263.607"/>
</g>
<!-- Node7 -->
<g id="node7" class="node"><title>Node7</title>
<g id="a_node7"><a xlink:href="../../db/d8c/classCCCC__Xml__Stream.html#a4dbcc8c8a21c10b8b3b942137aead5e0" target="_top" xlink:title="CCCC_Xml_Stream::Put\l_Extent_URL">
<polygon fill="white" stroke="black" points="538,-221.5 538,-251.5 667,-251.5 667,-221.5 538,-221.5"/>
<text text-anchor="start" x="546" y="-239.5" font-family="Helvetica,sans-Serif" font-size="10.00">CCCC_Xml_Stream::Put</text>
<text text-anchor="middle" x="602.5" y="-228.5" font-family="Helvetica,sans-Serif" font-size="10.00">_Extent_URL</text>
</a>
</g>
</g>
<!-- Node5&#45;&gt;Node7 -->
<g id="edge7" class="edge"><title>Node5&#45;&gt;Node7</title>
<path fill="none" stroke="midnightblue" d="M499.513,-248.208C508.751,-247.148 518.328,-246.048 527.747,-244.967"/>
<polygon fill="midnightblue" stroke="midnightblue" points="528.348,-248.421 537.883,-243.803 527.549,-241.467 528.348,-248.421"/>
</g>
<!-- Node5&#45;&gt;Node8 -->
<g id="edge9" class="edge"><title>Node5&#45;&gt;Node8</title>
<path fill="none" stroke="midnightblue" d="M468.226,-240.453C488.106,-231.458 514.259,-220.139 538,-211.5 544.103,-209.279 550.601,-207.114 557.024,-205.088"/>
<polygon fill="midnightblue" stroke="midnightblue" points="558.453,-208.311 566.987,-202.031 556.4,-201.619 558.453,-208.311"/>
</g>
<!-- Node7&#45;&gt;Node6 -->
<g id="edge8" class="edge"><title>Node7&#45;&gt;Node6</title>
<path fill="none" stroke="midnightblue" d="M667.439,-245.575C675.739,-246.753 684.254,-247.962 692.585,-249.144"/>
<polygon fill="midnightblue" stroke="midnightblue" points="692.238,-252.63 702.63,-250.57 693.222,-245.7 692.238,-252.63"/>
</g>
<!-- Node10&#45;&gt;Node2 -->
<g id="edge15" class="edge"><title>Node10&#45;&gt;Node2</title>
<path fill="none" stroke="midnightblue" d="M275.153,-174.265C289.101,-186.709 313.406,-209.17 332,-230.5 349.757,-250.87 344.981,-265.345 368,-279.5 416.292,-309.197 480.334,-318.214 529.133,-320.215"/>
<polygon fill="midnightblue" stroke="midnightblue" points="529.197,-323.718 539.304,-320.54 529.421,-316.722 529.197,-323.718"/>
</g>
<!-- Node10&#45;&gt;Node3 -->
<g id="edge12" class="edge"><title>Node10&#45;&gt;Node3</title>
<path fill="none" stroke="midnightblue" d="M305.649,-154.997C314.994,-151.512 324.385,-146.811 332,-140.5 356.534,-120.168 342.877,-98.0995 368,-78.5 370.336,-76.6779 372.839,-75.0305 375.457,-73.5411"/>
<polygon fill="midnightblue" stroke="midnightblue" points="377.238,-76.5677 384.715,-69.0613 374.189,-70.2667 377.238,-76.5677"/>
</g>
<!-- Node10&#45;&gt;Node8 -->
<g id="edge17" class="edge"><title>Node10&#45;&gt;Node8</title>
<path fill="none" stroke="midnightblue" d="M332.298,-170.166C388.99,-174.87 469.464,-181.546 527.642,-186.373"/>
<polygon fill="midnightblue" stroke="midnightblue" points="527.615,-189.882 537.87,-187.221 528.194,-182.906 527.615,-189.882"/>
</g>
<!-- Node11 -->
<g id="node11" class="node"><title>Node11</title>
<g id="a_node11"><a xlink:href="../../d6/d85/classCCCC__Record.html#a81bf0541981287180a41e3d801e7a084" target="_top" xlink:title="CCCC_Record::key">
<polygon fill="white" stroke="black" points="381,-126 381,-145 489,-145 489,-126 381,-126"/>
<text text-anchor="middle" x="435" y="-133" font-family="Helvetica,sans-Serif" font-size="10.00">CCCC_Record::key</text>
</a>
</g>
</g>
<!-- Node10&#45;&gt;Node11 -->
<g id="edge13" class="edge"><title>Node10&#45;&gt;Node11</title>
<path fill="none" stroke="midnightblue" d="M320.135,-154.924C336.314,-152.164 354.075,-149.134 370.658,-146.305"/>
<polygon fill="midnightblue" stroke="midnightblue" points="371.538,-149.706 380.807,-144.574 370.36,-142.806 371.538,-149.706"/>
</g>
<!-- Node13 -->
<g id="node13" class="node"><title>Node13</title>
<g id="a_node13"><a xlink:href="../../df/d99/classCCCC__Extent.html#aa6094d7370a45e8e7237fd25289e99bb" target="_top" xlink:title="CCCC_Extent::get_count">
<polygon fill="white" stroke="black" points="368,-88 368,-107 502,-107 502,-88 368,-88"/>
<text text-anchor="middle" x="435" y="-95" font-family="Helvetica,sans-Serif" font-size="10.00">CCCC_Extent::get_count</text>
</a>
</g>
</g>
<!-- Node10&#45;&gt;Node13 -->
<g id="edge16" class="edge"><title>Node10&#45;&gt;Node13</title>
<path fill="none" stroke="midnightblue" d="M296.16,-154.978C307.72,-151.083 320.69,-146.155 332,-140.5 349.199,-131.9 350.554,-124.589 368,-116.5 373.003,-114.18 378.353,-112.079 383.76,-110.192"/>
<polygon fill="midnightblue" stroke="midnightblue" points="385.066,-113.448 393.494,-107.027 382.902,-106.791 385.066,-113.448"/>
</g>
<!-- Node12 -->
<g id="node12" class="node"><title>Node12</title>
<g id="a_node12"><a xlink:href="../../d6/d85/classCCCC__Record.html#a03c15972bea5df4e34930fa4c34e34bd" target="_top" xlink:title="CCCC_Record::name">
<polygon fill="white" stroke="black" points="543.5,-126 543.5,-145 661.5,-145 661.5,-126 543.5,-126"/>
<text text-anchor="middle" x="602.5" y="-133" font-family="Helvetica,sans-Serif" font-size="10.00">CCCC_Record::name</text>
</a>
</g>
</g>
<!-- Node11&#45;&gt;Node12 -->
<g id="edge14" class="edge"><title>Node11&#45;&gt;Node12</title>
<path fill="none" stroke="midnightblue" d="M489.276,-135.5C503.326,-135.5 518.68,-135.5 533.396,-135.5"/>
<polygon fill="midnightblue" stroke="midnightblue" points="533.458,-139 543.458,-135.5 533.458,-132 533.458,-139"/>
</g>
<!-- Node15 -->
<g id="node15" class="node"><title>Node15</title>
<g id="a_node15"><a xlink:href="../../dd/d72/classCCCC__Metric.html#a4388127897cc2c1de762a9689b913c0d" target="_top" xlink:title="CCCC_Metric::emphasis\l_level">
<polygon fill="white" stroke="black" points="369.5,-0.5 369.5,-30.5 500.5,-30.5 500.5,-0.5 369.5,-0.5"/>
<text text-anchor="start" x="377.5" y="-18.5" font-family="Helvetica,sans-Serif" font-size="10.00">CCCC_Metric::emphasis</text>
<text text-anchor="middle" x="435" y="-7.5" font-family="Helvetica,sans-Serif" font-size="10.00">_level</text>
</a>
</g>
</g>
<!-- Node14&#45;&gt;Node15 -->
<g id="edge19" class="edge"><title>Node14&#45;&gt;Node15</title>
<path fill="none" stroke="midnightblue" d="M327.785,-21.7479C338.067,-21.1431 348.79,-20.5123 359.301,-19.8941"/>
<polygon fill="midnightblue" stroke="midnightblue" points="359.514,-23.3877 369.291,-19.3064 359.103,-16.3998 359.514,-23.3877"/>
</g>
</g>
</svg>
