<?xml version="1.0" encoding="UTF-8" standalone="no"?>
<!DOCTYPE svg PUBLIC "-//W3C//DTD SVG 1.1//EN"
 "http://www.w3.org/Graphics/SVG/1.1/DTD/svg11.dtd">
<!-- Generated by graphviz version 2.38.0 (20140413.2041)
 -->
<!-- Title: CCCC_Xml_Stream::Put_Extent_List Pages: 1 -->
<!--zoomable 323 -->
<svg id="main" version="1.1" xmlns="http://www.w3.org/2000/svg" xmlns:xlink="http://www.w3.org/1999/xlink" xml:space="preserve" onload="init(evt)">
<style type="text/css"><![CDATA[
.edge:hover path { stroke: red; }
.edge:hover polygon { stroke: red; fill: red; }
]]></style>
<script type="text/javascript"><![CDATA[
var edges = document.getElementsByTagName('g');
if (edges && edges.length) {
  for (var i=0;i<edges.length;i++) {
    if (edges[i].id.substr(0,4)=='edge') {
      edges[i].setAttribute('class','edge');
    }
  }
}
]]></script>
        <defs>
                <circle id="rim" cx="0" cy="0" r="7"/>
                <circle id="rim2" cx="0" cy="0" r="3.5"/>
                <g id="zoomPlus">
                        <use xlink:href="#rim" fill="#404040">
                                <set attributeName="fill" to="#808080" begin="zoomplus.mouseover" end="zoomplus.mouseout"/>
                        </use>
                        <path d="M-4,0h8M0,-4v8" fill="none" stroke="white" stroke-width="1.5" pointer-events="none"/>
                </g>
                <g id="zoomMin">
                        <use xlink:href="#rim" fill="#404040">
                                <set attributeName="fill" to="#808080" begin="zoomminus.mouseover" end="zoomminus.mouseout"/>
                        </use>
                        <path d="M-4,0h8" fill="none" stroke="white" stroke-width="1.5" pointer-events="none"/>
                </g>
                <g id="dirArrow">
                        <path fill="none" stroke="white" stroke-width="1.5" d="M0,-3.0v7 M-2.5,-0.5L0,-3.0L2.5,-0.5"/>
                </g>
               <g id="resetDef">
                       <use xlink:href="#rim2" fill="#404040">
                               <set attributeName="fill" to="#808080" begin="reset.mouseover" end="reset.mouseout"/>
                       </use>
               </g>
        </defs>

<script type="text/javascript">
var viewWidth = 697;
var viewHeight = 323;
var sectionId = 'dynsection-13';
</script>
<script xlink:href="../../svgpan.js"/>
<svg id="graph" class="graph">
<g id="viewport">
<title>CCCC_Xml_Stream::Put_Extent_List</title>
<polygon fill="white" stroke="none" points="-4,4 -4,-319 693,-319 693,4 -4,4"/>
<!-- Node1 -->
<g id="node1" class="node"><title>Node1</title>
<polygon fill="#bfbfbf" stroke="black" points="0,-215.5 0,-245.5 129,-245.5 129,-215.5 0,-215.5"/>
<text text-anchor="start" x="8" y="-233.5" font-family="Helvetica,sans-Serif" font-size="10.00">CCCC_Xml_Stream::Put</text>
<text text-anchor="middle" x="64.5" y="-222.5" font-family="Helvetica,sans-Serif" font-size="10.00">_Extent_List</text>
</g>
<!-- Node2 -->
<g id="node2" class="node"><title>Node2</title>
<g id="a_node2"><a xlink:href="../../db/d8c/classCCCC__Xml__Stream.html#a1941d2f23e62a715ef8d12ce239ea48f" target="_top" xlink:title="CCCC_Xml_Stream::Put\l_Structural_Details_Node">
<polygon fill="white" stroke="black" points="344,-284.5 344,-314.5 481,-314.5 481,-284.5 344,-284.5"/>
<text text-anchor="start" x="352" y="-302.5" font-family="Helvetica,sans-Serif" font-size="10.00">CCCC_Xml_Stream::Put</text>
<text text-anchor="middle" x="412.5" y="-291.5" font-family="Helvetica,sans-Serif" font-size="10.00">_Structural_Details_Node</text>
</a>
</g>
</g>
<!-- Node1&#45;&gt;Node2 -->
<g id="edge1" class="edge"><title>Node1&#45;&gt;Node2</title>
<path fill="none" stroke="midnightblue" d="M139.249,-245.207C199.85,-257.292 285.005,-274.274 343.87,-286.013"/>
<polygon fill="midnightblue" stroke="midnightblue" points="139.856,-241.759 129.365,-243.236 138.487,-248.624 139.856,-241.759"/>
</g>
<!-- Node4 -->
<g id="node4" class="node"><title>Node4</title>
<g id="a_node4"><a xlink:href="../../db/d8c/classCCCC__Xml__Stream.html#a5857c6d4a204a15b65a411301e2caf57" target="_top" xlink:title="CCCC_Xml_Stream::Put\l_Label_Node">
<polygon fill="white" stroke="black" points="165,-170.5 165,-200.5 294,-200.5 294,-170.5 165,-170.5"/>
<text text-anchor="start" x="173" y="-188.5" font-family="Helvetica,sans-Serif" font-size="10.00">CCCC_Xml_Stream::Put</text>
<text text-anchor="middle" x="229.5" y="-177.5" font-family="Helvetica,sans-Serif" font-size="10.00">_Label_Node</text>
</a>
</g>
</g>
<!-- Node1&#45;&gt;Node4 -->
<g id="edge3" class="edge"><title>Node1&#45;&gt;Node4</title>
<path fill="none" stroke="midnightblue" d="M130.125,-212.659C144.625,-208.656 159.87,-204.447 173.914,-200.57"/>
<polygon fill="midnightblue" stroke="midnightblue" points="128.938,-209.355 120.23,-215.39 130.801,-216.103 128.938,-209.355"/>
</g>
<!-- Node3 -->
<g id="node3" class="node"><title>Node3</title>
<g id="a_node3"><a xlink:href="../../db/d8c/classCCCC__Xml__Stream.html#ad14905d5ffea2505b11396520c9cd14e" target="_top" xlink:title="CCCC_Xml_Stream::Structural\l_Detail">
<polygon fill="white" stroke="black" points="531,-262.5 531,-292.5 689,-292.5 689,-262.5 531,-262.5"/>
<text text-anchor="start" x="539" y="-280.5" font-family="Helvetica,sans-Serif" font-size="10.00">CCCC_Xml_Stream::Structural</text>
<text text-anchor="middle" x="610" y="-269.5" font-family="Helvetica,sans-Serif" font-size="10.00">_Detail</text>
</a>
</g>
</g>
<!-- Node2&#45;&gt;Node3 -->
<g id="edge2" class="edge"><title>Node2&#45;&gt;Node3</title>
<path fill="none" stroke="midnightblue" d="M491.322,-290.743C504.28,-289.284 517.725,-287.771 530.694,-286.312"/>
<polygon fill="midnightblue" stroke="midnightblue" points="490.6,-287.302 481.054,-291.898 491.382,-294.258 490.6,-287.302"/>
</g>
<!-- Node4&#45;&gt;Node2 -->
<g id="edge7" class="edge"><title>Node4&#45;&gt;Node2</title>
<path fill="none" stroke="midnightblue" d="M252.363,-207.899C271.453,-226.438 300.632,-252.414 330,-269.5 339.905,-275.262 351.111,-280.247 361.974,-284.409"/>
<polygon fill="midnightblue" stroke="midnightblue" points="254.648,-205.237 245.072,-200.703 249.73,-210.219 254.648,-205.237"/>
</g>
<!-- Node4&#45;&gt;Node3 -->
<g id="edge10" class="edge"><title>Node4&#45;&gt;Node3</title>
<path fill="none" stroke="midnightblue" d="M263.694,-205.514C282.523,-216.002 306.882,-228.157 330,-235.5 395.943,-256.444 474.054,-267.063 530.831,-272.373"/>
<polygon fill="midnightblue" stroke="midnightblue" points="265.348,-202.428 254.924,-200.529 261.888,-208.514 265.348,-202.428"/>
</g>
<!-- Node5 -->
<g id="node5" class="node"><title>Node5</title>
<g id="a_node5"><a xlink:href="../../db/d8c/classCCCC__Xml__Stream.html#a261ad7db353c63e8f2ecc43dd120c35b" target="_top" xlink:title="CCCC_Xml_Stream::OO\l_Design">
<polygon fill="white" stroke="black" points="347,-196.5 347,-226.5 478,-226.5 478,-196.5 347,-196.5"/>
<text text-anchor="start" x="355" y="-214.5" font-family="Helvetica,sans-Serif" font-size="10.00">CCCC_Xml_Stream::OO</text>
<text text-anchor="middle" x="412.5" y="-203.5" font-family="Helvetica,sans-Serif" font-size="10.00">_Design</text>
</a>
</g>
</g>
<!-- Node4&#45;&gt;Node5 -->
<g id="edge4" class="edge"><title>Node4&#45;&gt;Node5</title>
<path fill="none" stroke="midnightblue" d="M304.228,-196.091C318.357,-198.12 333.053,-200.231 346.87,-202.216"/>
<polygon fill="midnightblue" stroke="midnightblue" points="304.455,-192.588 294.059,-194.63 303.46,-199.516 304.455,-192.588"/>
</g>
<!-- Node6 -->
<g id="node6" class="node"><title>Node6</title>
<g id="a_node6"><a xlink:href="../../db/d8c/classCCCC__Xml__Stream.html#af8659ea64595d693d4b3a78f2620b379" target="_top" xlink:title="CCCC_Xml_Stream::Procedural\l_Summary">
<polygon fill="white" stroke="black" points="330,-147.5 330,-177.5 495,-177.5 495,-147.5 330,-147.5"/>
<text text-anchor="start" x="338" y="-165.5" font-family="Helvetica,sans-Serif" font-size="10.00">CCCC_Xml_Stream::Procedural</text>
<text text-anchor="middle" x="412.5" y="-154.5" font-family="Helvetica,sans-Serif" font-size="10.00">_Summary</text>
</a>
</g>
</g>
<!-- Node4&#45;&gt;Node6 -->
<g id="edge5" class="edge"><title>Node4&#45;&gt;Node6</title>
<path fill="none" stroke="midnightblue" d="M303.992,-176.161C312.553,-175.073 321.324,-173.959 329.984,-172.858"/>
<polygon fill="midnightblue" stroke="midnightblue" points="303.538,-172.691 294.059,-177.423 304.421,-179.635 303.538,-172.691"/>
</g>
<!-- Node7 -->
<g id="node7" class="node"><title>Node7</title>
<g id="a_node7"><a xlink:href="../../db/d8c/classCCCC__Xml__Stream.html#a8e9d1d8c0d2645f1af6df568e58cd175" target="_top" xlink:title="CCCC_Xml_Stream::Structural\l_Summary">
<polygon fill="white" stroke="black" points="333.5,-98.5 333.5,-128.5 491.5,-128.5 491.5,-98.5 333.5,-98.5"/>
<text text-anchor="start" x="341.5" y="-116.5" font-family="Helvetica,sans-Serif" font-size="10.00">CCCC_Xml_Stream::Structural</text>
<text text-anchor="middle" x="412.5" y="-105.5" font-family="Helvetica,sans-Serif" font-size="10.00">_Summary</text>
</a>
</g>
</g>
<!-- Node4&#45;&gt;Node7 -->
<g id="edge6" class="edge"><title>Node4&#45;&gt;Node7</title>
<path fill="none" stroke="midnightblue" d="M267.634,-165.803C286.072,-156.485 308.873,-145.644 330,-137.5 338.258,-134.317 347.122,-131.307 355.854,-128.565"/>
<polygon fill="midnightblue" stroke="midnightblue" points="266.001,-162.706 258.691,-170.375 269.188,-168.939 266.001,-162.706"/>
</g>
<!-- Node8 -->
<g id="node8" class="node"><title>Node8</title>
<g id="a_node8"><a xlink:href="../../db/d8c/classCCCC__Xml__Stream.html#ac1909e96b08f6199ea7c8aaa7478977d" target="_top" xlink:title="CCCC_Xml_Stream::Procedural\l_Detail">
<polygon fill="white" stroke="black" points="330,-49.5 330,-79.5 495,-79.5 495,-49.5 330,-49.5"/>
<text text-anchor="start" x="338" y="-67.5" font-family="Helvetica,sans-Serif" font-size="10.00">CCCC_Xml_Stream::Procedural</text>
<text text-anchor="middle" x="412.5" y="-56.5" font-family="Helvetica,sans-Serif" font-size="10.00">_Detail</text>
</a>
</g>
</g>
<!-- Node4&#45;&gt;Node8 -->
<g id="edge8" class="edge"><title>Node4&#45;&gt;Node8</title>
<path fill="none" stroke="midnightblue" d="M248.367,-162.505C266.636,-140.488 296.953,-107.842 330,-88.5 335.856,-85.0727 342.239,-82.1022 348.77,-79.5349"/>
<polygon fill="midnightblue" stroke="midnightblue" points="245.564,-160.404 241.975,-170.373 250.997,-164.818 245.564,-160.404"/>
</g>
<!-- Node9 -->
<g id="node9" class="node"><title>Node9</title>
<g id="a_node9"><a xlink:href="../../db/d8c/classCCCC__Xml__Stream.html#a0a4b9ede5f6f9f0e90c39abb78d93337" target="_top" xlink:title="CCCC_Xml_Stream::Other\l_Extents">
<polygon fill="white" stroke="black" points="342,-0.5 342,-30.5 483,-30.5 483,-0.5 342,-0.5"/>
<text text-anchor="start" x="350" y="-18.5" font-family="Helvetica,sans-Serif" font-size="10.00">CCCC_Xml_Stream::Other</text>
<text text-anchor="middle" x="412.5" y="-7.5" font-family="Helvetica,sans-Serif" font-size="10.00">_Extents</text>
</a>
</g>
</g>
<!-- Node4&#45;&gt;Node9 -->
<g id="edge9" class="edge"><title>Node4&#45;&gt;Node9</title>
<path fill="none" stroke="midnightblue" d="M240.84,-160.845C255.762,-128.251 286.408,-71.2493 330,-39.5 334.769,-36.0265 340.038,-33.0525 345.533,-30.5068"/>
<polygon fill="midnightblue" stroke="midnightblue" points="237.58,-159.562 236.717,-170.122 243.977,-162.405 237.58,-159.562"/>
</g>
</g>
</svg>
        <g id="navigator" transform="translate(0 0)" fill="#404254">
                <rect fill="#f2f5e9" fill-opacity="0.5" stroke="#606060" stroke-width=".5" x="0" y="0" width="60" height="60"/>
                <use id="zoomplus" xlink:href="#zoomPlus" x="17" y="9" onmousedown="handleZoom(evt,'in')"/>
                <use id="zoomminus" xlink:href="#zoomMin" x="42" y="9" onmousedown="handleZoom(evt,'out')"/>
                <use id="reset" xlink:href="#resetDef" x="30" y="36" onmousedown="handleReset()"/>
                <g id="arrowUp" xlink:href="#dirArrow" transform="translate(30 24)" onmousedown="handlePan(0,-1)">
                  <use xlink:href="#rim" fill="#404040">
                        <set attributeName="fill" to="#808080" begin="arrowUp.mouseover" end="arrowUp.mouseout"/>
                  </use>
                  <path fill="none" stroke="white" stroke-width="1.5" d="M0,-3.0v7 M-2.5,-0.5L0,-3.0L2.5,-0.5"/>
                </g>
                <g id="arrowRight" xlink:href="#dirArrow" transform="rotate(90) translate(36 -43)" onmousedown="handlePan(1,0)">
                  <use xlink:href="#rim" fill="#404040">
                        <set attributeName="fill" to="#808080" begin="arrowRight.mouseover" end="arrowRight.mouseout"/>
                  </use>
                  <path fill="none" stroke="white" stroke-width="1.5" d="M0,-3.0v7 M-2.5,-0.5L0,-3.0L2.5,-0.5"/>
                </g>
                <g id="arrowDown" xlink:href="#dirArrow" transform="rotate(180) translate(-30 -48)" onmousedown="handlePan(0,1)">
                  <use xlink:href="#rim" fill="#404040">
                        <set attributeName="fill" to="#808080" begin="arrowDown.mouseover" end="arrowDown.mouseout"/>
                  </use>
                  <path fill="none" stroke="white" stroke-width="1.5" d="M0,-3.0v7 M-2.5,-0.5L0,-3.0L2.5,-0.5"/>
                </g>
                <g id="arrowLeft" xlink:href="#dirArrow" transform="rotate(270) translate(-36 17)" onmousedown="handlePan(-1,0)">
                  <use xlink:href="#rim" fill="#404040">
                        <set attributeName="fill" to="#808080" begin="arrowLeft.mouseover" end="arrowLeft.mouseout"/>
                  </use>
                  <path fill="none" stroke="white" stroke-width="1.5" d="M0,-3.0v7 M-2.5,-0.5L0,-3.0L2.5,-0.5"/>
                </g>
        </g>
        <svg viewBox="0 0 15 15" width="100%" height="30px" preserveAspectRatio="xMaxYMin meet">
         <g id="arrow_out" transform="scale(0.3 0.3)">
          <a xlink:href="classCCCC__Xml__Stream_a8d4f164a7fe732e7627a5fc81ffd8ef9_icgraph_org.svg" target="_base">
           <rect id="button" ry="5" rx="5" y="6" x="6" height="38" width="38"
                fill="#f2f5e9" fill-opacity="0.5" stroke="#606060" stroke-width="1.0"/>
           <path id="arrow"
             d="M 11.500037,31.436501 C 11.940474,20.09759 22.043105,11.32322 32.158766,21.979434 L 37.068811,17.246167 C 37.068811,17.246167 37.088388,32 37.088388,32 L 22.160133,31.978069 C 22.160133,31.978069 26.997745,27.140456 26.997745,27.140456 C 18.528582,18.264221 13.291696,25.230495 11.500037,31.436501 z"
             style="fill:#404040;"/>
          </a>
         </g>
        </svg>
</svg>
