<?xml version="1.0" encoding="UTF-8" standalone="no"?>
<!DOCTYPE svg PUBLIC "-//W3C//DTD SVG 1.1//EN"
 "http://www.w3.org/Graphics/SVG/1.1/DTD/svg11.dtd">
<!-- Generated by graphviz version 2.38.0 (20140413.2041)
 -->
<!-- Title: CCCC_Xml_Stream::Timestamp Pages: 1 -->
<svg width="587pt" height="39pt"
 viewBox="0.00 0.00 587.00 39.00" xmlns="http://www.w3.org/2000/svg" xmlns:xlink="http://www.w3.org/1999/xlink">
<g id="graph0" class="graph" transform="scale(1 1) rotate(0) translate(4 35)">
<title>CCCC_Xml_Stream::Timestamp</title>
<polygon fill="white" stroke="none" points="-4,4 -4,-35 583,-35 583,4 -4,4"/>
<!-- Node1 -->
<g id="node1" class="node"><title>Node1</title>
<polygon fill="#bfbfbf" stroke="black" points="0,-6 0,-25 166,-25 166,-6 0,-6"/>
<text text-anchor="middle" x="83" y="-13" font-family="Helvetica,sans-Serif" font-size="10.00">CCCC_Xml_Stream::Timestamp</text>
</g>
<!-- Node2 -->
<g id="node2" class="node"><title>Node2</title>
<g id="a_node2"><a xlink:href="../../db/d8c/classCCCC__Xml__Stream.html#a33272062831fd87a29b4c838cdad4f38" target="_top" xlink:title="CCCC_Xml_Stream::Generate\lReports">
<polygon fill="white" stroke="black" points="202,-0.5 202,-30.5 361,-30.5 361,-0.5 202,-0.5"/>
<text text-anchor="start" x="210" y="-18.5" font-family="Helvetica,sans-Serif" font-size="10.00">CCCC_Xml_Stream::Generate</text>
<text text-anchor="middle" x="281.5" y="-7.5" font-family="Helvetica,sans-Serif" font-size="10.00">Reports</text>
</a>
</g>
</g>
<!-- Node1&#45;&gt;Node2 -->
<g id="edge1" class="edge"><title>Node1&#45;&gt;Node2</title>
<path fill="none" stroke="midnightblue" d="M176.472,-15.5C184.934,-15.5 193.454,-15.5 201.779,-15.5"/>
<polygon fill="midnightblue" stroke="midnightblue" points="176.195,-12.0001 166.195,-15.5 176.195,-19.0001 176.195,-12.0001"/>
</g>
<!-- Node3 -->
<g id="node3" class="node"><title>Node3</title>
<g id="a_node3"><a xlink:href="../../db/d4a/classMain.html#a5aadc21ea7eee4faac32fb0e07c24f53" target="_top" xlink:title="Main::GenerateXml">
<polygon fill="white" stroke="black" points="397,-6 397,-25 504,-25 504,-6 397,-6"/>
<text text-anchor="middle" x="450.5" y="-13" font-family="Helvetica,sans-Serif" font-size="10.00">Main::GenerateXml</text>
</a>
</g>
</g>
<!-- Node2&#45;&gt;Node3 -->
<g id="edge2" class="edge"><title>Node2&#45;&gt;Node3</title>
<path fill="none" stroke="midnightblue" d="M371.256,-15.5C379.888,-15.5 388.445,-15.5 396.556,-15.5"/>
<polygon fill="midnightblue" stroke="midnightblue" points="371.11,-12.0001 361.11,-15.5 371.11,-19.0001 371.11,-12.0001"/>
</g>
<!-- Node4 -->
<g id="node4" class="node"><title>Node4</title>
<g id="a_node4"><a xlink:href="../../d6/d93/ccccmain_8cc.html#a3c04138a5bfe5d72780bb7e82a18e627" target="_top" xlink:title="main">
<polygon fill="white" stroke="black" points="540,-6 540,-25 579,-25 579,-6 540,-6"/>
<text text-anchor="middle" x="559.5" y="-13" font-family="Helvetica,sans-Serif" font-size="10.00">main</text>
</a>
</g>
</g>
<!-- Node3&#45;&gt;Node4 -->
<g id="edge3" class="edge"><title>Node3&#45;&gt;Node4</title>
<path fill="none" stroke="midnightblue" d="M514.295,-15.5C523.638,-15.5 532.592,-15.5 539.967,-15.5"/>
<polygon fill="midnightblue" stroke="midnightblue" points="514.06,-12.0001 504.06,-15.5 514.06,-19.0001 514.06,-12.0001"/>
</g>
</g>
</svg>
