<?xml version="1.0" encoding="UTF-8" standalone="no"?>
<!DOCTYPE svg PUBLIC "-//W3C//DTD SVG 1.1//EN"
 "http://www.w3.org/Graphics/SVG/1.1/DTD/svg11.dtd">
<!-- Generated by graphviz version 2.38.0 (20140413.2041)
 -->
<!-- Title: CCCC_Xml_Stream::Put_Extent_Node Pages: 1 -->
<svg width="451pt" height="61pt"
 viewBox="0.00 0.00 451.00 61.00" xmlns="http://www.w3.org/2000/svg" xmlns:xlink="http://www.w3.org/1999/xlink">
<g id="graph0" class="graph" transform="scale(1 1) rotate(0) translate(4 57)">
<title>CCCC_Xml_Stream::Put_Extent_Node</title>
<polygon fill="white" stroke="none" points="-4,4 -4,-57 447,-57 447,4 -4,4"/>
<!-- Node1 -->
<g id="node1" class="node"><title>Node1</title>
<polygon fill="#bfbfbf" stroke="black" points="0,-22.5 0,-52.5 129,-52.5 129,-22.5 0,-22.5"/>
<text text-anchor="start" x="8" y="-40.5" font-family="Helvetica,sans-Serif" font-size="10.00">CCCC_Xml_Stream::Put</text>
<text text-anchor="middle" x="64.5" y="-29.5" font-family="Helvetica,sans-Serif" font-size="10.00">_Extent_Node</text>
</g>
<!-- Node2 -->
<g id="node2" class="node"><title>Node2</title>
<g id="a_node2"><a xlink:href="../../df/d99/classCCCC__Extent.html#aafc68f063b7e7635471d1d0f7d5bca70" target="_top" xlink:title="CCCC_Extent::name">
<polygon fill="white" stroke="black" points="330,-28 330,-47 443,-47 443,-28 330,-28"/>
<text text-anchor="middle" x="386.5" y="-35" font-family="Helvetica,sans-Serif" font-size="10.00">CCCC_Extent::name</text>
</a>
</g>
</g>
<!-- Node1&#45;&gt;Node2 -->
<g id="edge1" class="edge"><title>Node1&#45;&gt;Node2</title>
<path fill="none" stroke="midnightblue" d="M129.19,-39.7058C141.089,-40.0369 153.422,-40.3255 165,-40.5 222.327,-41.364 236.674,-41.4395 294,-40.5 302.338,-40.3633 311.102,-40.1567 319.767,-39.9145"/>
<polygon fill="midnightblue" stroke="midnightblue" points="319.97,-43.4101 329.862,-39.6158 319.763,-36.4131 319.97,-43.4101"/>
</g>
<!-- Node3 -->
<g id="node3" class="node"><title>Node3</title>
<g id="a_node3"><a xlink:href="../../db/d8c/classCCCC__Xml__Stream.html#a4dbcc8c8a21c10b8b3b942137aead5e0" target="_top" xlink:title="CCCC_Xml_Stream::Put\l_Extent_URL">
<polygon fill="white" stroke="black" points="165,-0.5 165,-30.5 294,-30.5 294,-0.5 165,-0.5"/>
<text text-anchor="start" x="173" y="-18.5" font-family="Helvetica,sans-Serif" font-size="10.00">CCCC_Xml_Stream::Put</text>
<text text-anchor="middle" x="229.5" y="-7.5" font-family="Helvetica,sans-Serif" font-size="10.00">_Extent_URL</text>
</a>
</g>
</g>
<!-- Node1&#45;&gt;Node3 -->
<g id="edge2" class="edge"><title>Node1&#45;&gt;Node3</title>
<path fill="none" stroke="midnightblue" d="M129.454,-28.8682C137.852,-27.7347 146.511,-26.566 155.05,-25.4135"/>
<polygon fill="midnightblue" stroke="midnightblue" points="155.556,-28.8771 164.998,-24.0709 154.619,-21.94 155.556,-28.8771"/>
</g>
<!-- Node3&#45;&gt;Node2 -->
<g id="edge3" class="edge"><title>Node3&#45;&gt;Node2</title>
<path fill="none" stroke="midnightblue" d="M294.439,-24.5753C302.739,-25.7533 311.254,-26.9618 319.585,-28.1443"/>
<polygon fill="midnightblue" stroke="midnightblue" points="319.238,-31.63 329.63,-29.5701 320.222,-24.6995 319.238,-31.63"/>
</g>
</g>
</svg>
