<?xml version="1.0" encoding="UTF-8" standalone="no"?>
<!DOCTYPE svg PUBLIC "-//W3C//DTD SVG 1.1//EN"
 "http://www.w3.org/Graphics/SVG/1.1/DTD/svg11.dtd">
<!-- Generated by graphviz version 2.38.0 (20140413.2041)
 -->
<!-- Title: CCCC_Xml_Stream::Structural_Detail Pages: 1 -->
<svg width="984pt" height="264pt"
 viewBox="0.00 0.00 984.00 264.00" xmlns="http://www.w3.org/2000/svg" xmlns:xlink="http://www.w3.org/1999/xlink">
<g id="graph0" class="graph" transform="scale(1 1) rotate(0) translate(4 260)">
<title>CCCC_Xml_Stream::Structural_Detail</title>
<polygon fill="white" stroke="none" points="-4,4 -4,-260 980,-260 980,4 -4,4"/>
<!-- Node1 -->
<g id="node1" class="node"><title>Node1</title>
<polygon fill="#bfbfbf" stroke="black" points="0,-181.5 0,-211.5 158,-211.5 158,-181.5 0,-181.5"/>
<text text-anchor="start" x="8" y="-199.5" font-family="Helvetica,sans-Serif" font-size="10.00">CCCC_Xml_Stream::Structural</text>
<text text-anchor="middle" x="79" y="-188.5" font-family="Helvetica,sans-Serif" font-size="10.00">_Detail</text>
</g>
<!-- Node2 -->
<g id="node2" class="node"><title>Node2</title>
<g id="a_node2"><a xlink:href="../../db/d8c/classCCCC__Xml__Stream.html#a5857c6d4a204a15b65a411301e2caf57" target="_top" xlink:title="CCCC_Xml_Stream::Put\l_Label_Node">
<polygon fill="white" stroke="black" points="367.5,-225.5 367.5,-255.5 496.5,-255.5 496.5,-225.5 367.5,-225.5"/>
<text text-anchor="start" x="375.5" y="-243.5" font-family="Helvetica,sans-Serif" font-size="10.00">CCCC_Xml_Stream::Put</text>
<text text-anchor="middle" x="432" y="-232.5" font-family="Helvetica,sans-Serif" font-size="10.00">_Label_Node</text>
</a>
</g>
</g>
<!-- Node1&#45;&gt;Node2 -->
<g id="edge1" class="edge"><title>Node1&#45;&gt;Node2</title>
<path fill="none" stroke="midnightblue" d="M158.334,-206.32C217.707,-213.762 298.745,-223.921 357.021,-231.226"/>
<polygon fill="midnightblue" stroke="midnightblue" points="356.904,-234.739 367.262,-232.51 357.775,-227.793 356.904,-234.739"/>
</g>
<!-- Node8 -->
<g id="node8" class="node"><title>Node8</title>
<g id="a_node8"><a xlink:href="../../d6/d9f/classCCCC__Module.html#adea7213358d5e1f9119c70cbbb99f287" target="_top" xlink:title="CCCC_Module::name">
<polygon fill="white" stroke="black" points="373,-187 373,-206 491,-206 491,-187 373,-187"/>
<text text-anchor="middle" x="432" y="-194" font-family="Helvetica,sans-Serif" font-size="10.00">CCCC_Module::name</text>
</a>
</g>
</g>
<!-- Node1&#45;&gt;Node8 -->
<g id="edge8" class="edge"><title>Node1&#45;&gt;Node8</title>
<path fill="none" stroke="midnightblue" d="M158.334,-196.5C219.613,-196.5 303.97,-196.5 362.562,-196.5"/>
<polygon fill="midnightblue" stroke="midnightblue" points="362.826,-200 372.826,-196.5 362.826,-193 362.826,-200"/>
</g>
<!-- Node9 -->
<g id="node9" class="node"><title>Node9</title>
<g id="a_node9"><a xlink:href="../../db/d8c/classCCCC__Xml__Stream.html#a1941d2f23e62a715ef8d12ce239ea48f" target="_top" xlink:title="CCCC_Xml_Stream::Put\l_Structural_Details_Node">
<polygon fill="white" stroke="black" points="194,-137.5 194,-167.5 331,-167.5 331,-137.5 194,-137.5"/>
<text text-anchor="start" x="202" y="-155.5" font-family="Helvetica,sans-Serif" font-size="10.00">CCCC_Xml_Stream::Put</text>
<text text-anchor="middle" x="262.5" y="-144.5" font-family="Helvetica,sans-Serif" font-size="10.00">_Structural_Details_Node</text>
</a>
</g>
</g>
<!-- Node1&#45;&gt;Node9 -->
<g id="edge9" class="edge"><title>Node1&#45;&gt;Node9</title>
<path fill="none" stroke="midnightblue" d="M141.954,-181.481C157.347,-177.749 173.973,-173.719 189.791,-169.884"/>
<polygon fill="midnightblue" stroke="midnightblue" points="190.623,-173.284 199.517,-167.526 188.974,-166.481 190.623,-173.284"/>
</g>
<!-- Node3 -->
<g id="node3" class="node"><title>Node3</title>
<g id="a_node3"><a xlink:href="../../db/d8c/classCCCC__Xml__Stream.html#a8d4f164a7fe732e7627a5fc81ffd8ef9" target="_top" xlink:title="CCCC_Xml_Stream::Put\l_Extent_List">
<polygon fill="white" stroke="black" points="533,-134.5 533,-164.5 662,-164.5 662,-134.5 533,-134.5"/>
<text text-anchor="start" x="541" y="-152.5" font-family="Helvetica,sans-Serif" font-size="10.00">CCCC_Xml_Stream::Put</text>
<text text-anchor="middle" x="597.5" y="-141.5" font-family="Helvetica,sans-Serif" font-size="10.00">_Extent_List</text>
</a>
</g>
</g>
<!-- Node2&#45;&gt;Node3 -->
<g id="edge2" class="edge"><title>Node2&#45;&gt;Node3</title>
<path fill="none" stroke="midnightblue" d="M475.226,-225.485C482.606,-222.445 490.119,-219.074 497,-215.5 522.158,-202.433 548.833,-184.491 568.224,-170.612"/>
<polygon fill="midnightblue" stroke="midnightblue" points="570.278,-173.446 576.326,-164.747 566.173,-167.776 570.278,-173.446"/>
</g>
<!-- Node4 -->
<g id="node4" class="node"><title>Node4</title>
<g id="a_node4"><a xlink:href="../../d8/dcf/classCCCC__Table.html#a0d099c7bc984323270cc8c63d5ff8379" target="_top" xlink:title="CCCC_Table::first_item">
<polygon fill="white" stroke="black" points="699.5,-200 699.5,-219 825.5,-219 825.5,-200 699.5,-200"/>
<text text-anchor="middle" x="762.5" y="-207" font-family="Helvetica,sans-Serif" font-size="10.00">CCCC_Table::first_item</text>
</a>
</g>
</g>
<!-- Node3&#45;&gt;Node4 -->
<g id="edge3" class="edge"><title>Node3&#45;&gt;Node4</title>
<path fill="none" stroke="midnightblue" d="M639.632,-164.641C666.275,-174.448 700.618,-187.089 726.053,-196.452"/>
<polygon fill="midnightblue" stroke="midnightblue" points="725.079,-199.823 735.672,-199.993 727.497,-193.254 725.079,-199.823"/>
</g>
<!-- Node5 -->
<g id="node5" class="node"><title>Node5</title>
<g id="a_node5"><a xlink:href="../../df/d99/classCCCC__Extent.html#aafc68f063b7e7635471d1d0f7d5bca70" target="_top" xlink:title="CCCC_Extent::name">
<polygon fill="white" stroke="black" points="863,-140 863,-159 976,-159 976,-140 863,-140"/>
<text text-anchor="middle" x="919.5" y="-147" font-family="Helvetica,sans-Serif" font-size="10.00">CCCC_Extent::name</text>
</a>
</g>
</g>
<!-- Node3&#45;&gt;Node5 -->
<g id="edge4" class="edge"><title>Node3&#45;&gt;Node5</title>
<path fill="none" stroke="midnightblue" d="M662.193,-150.971C674.093,-151.191 686.424,-151.384 698,-151.5 755.33,-152.076 769.67,-152.126 827,-151.5 835.336,-151.409 844.099,-151.271 852.763,-151.11"/>
<polygon fill="midnightblue" stroke="midnightblue" points="852.929,-154.607 862.858,-150.911 852.791,-147.609 852.929,-154.607"/>
</g>
<!-- Node6 -->
<g id="node6" class="node"><title>Node6</title>
<g id="a_node6"><a xlink:href="../../db/d8c/classCCCC__Xml__Stream.html#a4dbcc8c8a21c10b8b3b942137aead5e0" target="_top" xlink:title="CCCC_Xml_Stream::Put\l_Extent_URL">
<polygon fill="white" stroke="black" points="698,-112.5 698,-142.5 827,-142.5 827,-112.5 698,-112.5"/>
<text text-anchor="start" x="706" y="-130.5" font-family="Helvetica,sans-Serif" font-size="10.00">CCCC_Xml_Stream::Put</text>
<text text-anchor="middle" x="762.5" y="-119.5" font-family="Helvetica,sans-Serif" font-size="10.00">_Extent_URL</text>
</a>
</g>
</g>
<!-- Node3&#45;&gt;Node6 -->
<g id="edge5" class="edge"><title>Node3&#45;&gt;Node6</title>
<path fill="none" stroke="midnightblue" d="M662.454,-140.868C670.852,-139.735 679.511,-138.566 688.05,-137.413"/>
<polygon fill="midnightblue" stroke="midnightblue" points="688.556,-140.877 697.998,-136.071 687.619,-133.94 688.556,-140.877"/>
</g>
<!-- Node7 -->
<g id="node7" class="node"><title>Node7</title>
<g id="a_node7"><a xlink:href="../../d8/dcf/classCCCC__Table.html#a080274070f7d48b68bd8d3291818d76f" target="_top" xlink:title="CCCC_Table::next_item">
<polygon fill="white" stroke="black" points="698,-74 698,-93 827,-93 827,-74 698,-74"/>
<text text-anchor="middle" x="762.5" y="-81" font-family="Helvetica,sans-Serif" font-size="10.00">CCCC_Table::next_item</text>
</a>
</g>
</g>
<!-- Node3&#45;&gt;Node7 -->
<g id="edge7" class="edge"><title>Node3&#45;&gt;Node7</title>
<path fill="none" stroke="midnightblue" d="M627.6,-134.33C647.174,-124.482 673.739,-111.799 698,-102.5 703.923,-100.23 710.24,-98.0562 716.506,-96.043"/>
<polygon fill="midnightblue" stroke="midnightblue" points="717.733,-99.3268 726.247,-93.0205 715.659,-92.6413 717.733,-99.3268"/>
</g>
<!-- Node6&#45;&gt;Node5 -->
<g id="edge6" class="edge"><title>Node6&#45;&gt;Node5</title>
<path fill="none" stroke="midnightblue" d="M827.439,-136.575C835.739,-137.753 844.254,-138.962 852.585,-140.144"/>
<polygon fill="midnightblue" stroke="midnightblue" points="852.238,-143.63 862.63,-141.57 853.222,-136.7 852.238,-143.63"/>
</g>
<!-- Node9&#45;&gt;Node2 -->
<g id="edge11" class="edge"><title>Node9&#45;&gt;Node2</title>
<path fill="none" stroke="midnightblue" d="M285.872,-167.691C306.41,-181.251 337.966,-201.13 367,-215.5 371.079,-217.519 375.364,-219.492 379.703,-221.387"/>
<polygon fill="midnightblue" stroke="midnightblue" points="378.654,-224.743 389.229,-225.399 381.372,-218.292 378.654,-224.743"/>
</g>
<!-- Node9&#45;&gt;Node3 -->
<g id="edge15" class="edge"><title>Node9&#45;&gt;Node3</title>
<path fill="none" stroke="midnightblue" d="M278.258,-137.258C296.935,-119.178 331.032,-90.0355 367,-78.5 422.017,-60.855 441.974,-60.8806 497,-78.5 526.886,-88.0696 555.445,-110.274 574.238,-127.323"/>
<polygon fill="midnightblue" stroke="midnightblue" points="571.972,-129.996 581.67,-134.263 576.75,-124.88 571.972,-129.996"/>
</g>
<!-- Node9&#45;&gt;Node8 -->
<g id="edge10" class="edge"><title>Node9&#45;&gt;Node8</title>
<path fill="none" stroke="midnightblue" d="M320.676,-167.519C341.674,-173.035 365.159,-179.204 385.046,-184.428"/>
<polygon fill="midnightblue" stroke="midnightblue" points="384.227,-187.832 394.788,-186.988 386.005,-181.062 384.227,-187.832"/>
</g>
<!-- Node10 -->
<g id="node10" class="node"><title>Node10</title>
<g id="a_node10"><a xlink:href="../../d2/d65/classCCCC__UseRelationship.html#a432d79f0f123f7d0790adfdb7c5ed299" target="_top" xlink:title="CCCC_UseRelationship\l::name">
<polygon fill="white" stroke="black" points="367,-0.5 367,-30.5 497,-30.5 497,-0.5 367,-0.5"/>
<text text-anchor="start" x="375" y="-18.5" font-family="Helvetica,sans-Serif" font-size="10.00">CCCC_UseRelationship</text>
<text text-anchor="middle" x="432" y="-7.5" font-family="Helvetica,sans-Serif" font-size="10.00">::name</text>
</a>
</g>
</g>
<!-- Node9&#45;&gt;Node10 -->
<g id="edge12" class="edge"><title>Node9&#45;&gt;Node10</title>
<path fill="none" stroke="midnightblue" d="M275.143,-137.33C292.956,-114.919 328.932,-72.6872 367,-45.5 372.177,-41.8026 377.882,-38.3724 383.689,-35.2528"/>
<polygon fill="midnightblue" stroke="midnightblue" points="385.502,-38.2579 392.836,-30.6125 382.335,-32.0152 385.502,-38.2579"/>
</g>
<!-- Node11 -->
<g id="node11" class="node"><title>Node11</title>
<g id="a_node11"><a xlink:href="../../d2/d65/classCCCC__UseRelationship.html#a936066b692baa5c53aa35ad646b2041c" target="_top" xlink:title="CCCC_UseRelationship\l::is_visible">
<polygon fill="white" stroke="black" points="367,-137.5 367,-167.5 497,-167.5 497,-137.5 367,-137.5"/>
<text text-anchor="start" x="375" y="-155.5" font-family="Helvetica,sans-Serif" font-size="10.00">CCCC_UseRelationship</text>
<text text-anchor="middle" x="432" y="-144.5" font-family="Helvetica,sans-Serif" font-size="10.00">::is_visible</text>
</a>
</g>
</g>
<!-- Node9&#45;&gt;Node11 -->
<g id="edge13" class="edge"><title>Node9&#45;&gt;Node11</title>
<path fill="none" stroke="midnightblue" d="M331.146,-152.5C339.537,-152.5 348.153,-152.5 356.639,-152.5"/>
<polygon fill="midnightblue" stroke="midnightblue" points="356.901,-156 366.901,-152.5 356.9,-149 356.901,-156"/>
</g>
<!-- Node12 -->
<g id="node12" class="node"><title>Node12</title>
<g id="a_node12"><a xlink:href="../../d2/d65/classCCCC__UseRelationship.html#a5e08e1d7d70708daef7ac7ef73391b0b" target="_top" xlink:title="CCCC_UseRelationship\l::is_concrete">
<polygon fill="white" stroke="black" points="367,-88.5 367,-118.5 497,-118.5 497,-88.5 367,-88.5"/>
<text text-anchor="start" x="375" y="-106.5" font-family="Helvetica,sans-Serif" font-size="10.00">CCCC_UseRelationship</text>
<text text-anchor="middle" x="432" y="-95.5" font-family="Helvetica,sans-Serif" font-size="10.00">::is_concrete</text>
</a>
</g>
</g>
<!-- Node9&#45;&gt;Node12 -->
<g id="edge14" class="edge"><title>Node9&#45;&gt;Node12</title>
<path fill="none" stroke="midnightblue" d="M315.122,-137.399C332.398,-132.345 351.822,-126.662 369.759,-121.415"/>
<polygon fill="midnightblue" stroke="midnightblue" points="370.933,-124.719 379.548,-118.552 368.968,-118 370.933,-124.719"/>
</g>
</g>
</svg>
