<?xml version="1.0" encoding="UTF-8" standalone="no"?>
<!DOCTYPE svg PUBLIC "-//W3C//DTD SVG 1.1//EN"
 "http://www.w3.org/Graphics/SVG/1.1/DTD/svg11.dtd">
<!-- Generated by graphviz version 2.38.0 (20140413.2041)
 -->
<!-- Title: CCCC_Xml_Stream::Procedural_Detail Pages: 1 -->
<!--zoomable 154 -->
<svg id="main" version="1.1" xmlns="http://www.w3.org/2000/svg" xmlns:xlink="http://www.w3.org/1999/xlink" xml:space="preserve" onload="init(evt)">
<style type="text/css"><![CDATA[
.edge:hover path { stroke: red; }
.edge:hover polygon { stroke: red; fill: red; }
]]></style>
<script type="text/javascript"><![CDATA[
var edges = document.getElementsByTagName('g');
if (edges && edges.length) {
  for (var i=0;i<edges.length;i++) {
    if (edges[i].id.substr(0,4)=='edge') {
      edges[i].setAttribute('class','edge');
    }
  }
}
]]></script>
        <defs>
                <circle id="rim" cx="0" cy="0" r="7"/>
                <circle id="rim2" cx="0" cy="0" r="3.5"/>
                <g id="zoomPlus">
                        <use xlink:href="#rim" fill="#404040">
                                <set attributeName="fill" to="#808080" begin="zoomplus.mouseover" end="zoomplus.mouseout"/>
                        </use>
                        <path d="M-4,0h8M0,-4v8" fill="none" stroke="white" stroke-width="1.5" pointer-events="none"/>
                </g>
                <g id="zoomMin">
                        <use xlink:href="#rim" fill="#404040">
                                <set attributeName="fill" to="#808080" begin="zoomminus.mouseover" end="zoomminus.mouseout"/>
                        </use>
                        <path d="M-4,0h8" fill="none" stroke="white" stroke-width="1.5" pointer-events="none"/>
                </g>
                <g id="dirArrow">
                        <path fill="none" stroke="white" stroke-width="1.5" d="M0,-3.0v7 M-2.5,-0.5L0,-3.0L2.5,-0.5"/>
                </g>
               <g id="resetDef">
                       <use xlink:href="#rim2" fill="#404040">
                               <set attributeName="fill" to="#808080" begin="reset.mouseover" end="reset.mouseout"/>
                       </use>
               </g>
        </defs>

<script type="text/javascript">
var viewWidth = 817;
var viewHeight = 154;
var sectionId = 'dynsection-8';
</script>
<script xlink:href="../../svgpan.js"/>
<svg id="graph" class="graph">
<g id="viewport">
<title>CCCC_Xml_Stream::Procedural_Detail</title>
<polygon fill="white" stroke="none" points="-4,4 -4,-150 813,-150 813,4 -4,4"/>
<!-- Node1 -->
<g id="node1" class="node"><title>Node1</title>
<polygon fill="#bfbfbf" stroke="black" points="0,-61 0,-91 165,-91 165,-61 0,-61"/>
<text text-anchor="start" x="8" y="-79" font-family="Helvetica,sans-Serif" font-size="10.00">CCCC_Xml_Stream::Procedural</text>
<text text-anchor="middle" x="82.5" y="-68" font-family="Helvetica,sans-Serif" font-size="10.00">_Detail</text>
</g>
<!-- Node2 -->
<g id="node2" class="node"><title>Node2</title>
<g id="a_node2"><a xlink:href="../../d8/dcf/classCCCC__Table.html#a0d099c7bc984323270cc8c63d5ff8379" target="_top" xlink:title="CCCC_Table::first_item">
<polygon fill="white" stroke="black" points="532.5,-126.5 532.5,-145.5 658.5,-145.5 658.5,-126.5 532.5,-126.5"/>
<text text-anchor="middle" x="595.5" y="-133.5" font-family="Helvetica,sans-Serif" font-size="10.00">CCCC_Table::first_item</text>
</a>
</g>
</g>
<!-- Node1&#45;&gt;Node2 -->
<g id="edge1" class="edge"><title>Node1&#45;&gt;Node2</title>
<path fill="none" stroke="midnightblue" d="M118.246,-91.09C141.258,-100.337 172.368,-111.435 201,-117 311.356,-138.451 442.222,-140.189 521.765,-138.685"/>
<polygon fill="midnightblue" stroke="midnightblue" points="522.239,-142.175 532.162,-138.464 522.09,-135.177 522.239,-142.175"/>
</g>
<!-- Node3 -->
<g id="node3" class="node"><title>Node3</title>
<g id="a_node3"><a xlink:href="../../d6/d9f/classCCCC__Module.html#adea7213358d5e1f9119c70cbbb99f287" target="_top" xlink:title="CCCC_Module::name">
<polygon fill="white" stroke="black" points="206.5,-88.5 206.5,-107.5 324.5,-107.5 324.5,-88.5 206.5,-88.5"/>
<text text-anchor="middle" x="265.5" y="-95.5" font-family="Helvetica,sans-Serif" font-size="10.00">CCCC_Module::name</text>
</a>
</g>
</g>
<!-- Node1&#45;&gt;Node3 -->
<g id="edge2" class="edge"><title>Node1&#45;&gt;Node3</title>
<path fill="none" stroke="midnightblue" d="M165.263,-85.938C175.662,-87.202 186.216,-88.4848 196.369,-89.7189"/>
<polygon fill="midnightblue" stroke="midnightblue" points="196.019,-93.2021 206.369,-90.9343 196.864,-86.2532 196.019,-93.2021"/>
</g>
<!-- Node4 -->
<g id="node4" class="node"><title>Node4</title>
<g id="a_node4"><a xlink:href="../../db/d8c/classCCCC__Xml__Stream.html#a5857c6d4a204a15b65a411301e2caf57" target="_top" xlink:title="CCCC_Xml_Stream::Put\l_Label_Node">
<polygon fill="white" stroke="black" points="201,-39 201,-69 330,-69 330,-39 201,-39"/>
<text text-anchor="start" x="209" y="-57" font-family="Helvetica,sans-Serif" font-size="10.00">CCCC_Xml_Stream::Put</text>
<text text-anchor="middle" x="265.5" y="-46" font-family="Helvetica,sans-Serif" font-size="10.00">_Label_Node</text>
</a>
</g>
</g>
<!-- Node1&#45;&gt;Node4 -->
<g id="edge3" class="edge"><title>Node1&#45;&gt;Node4</title>
<path fill="none" stroke="midnightblue" d="M165.263,-66.062C173.721,-65.0339 182.283,-63.9933 190.648,-62.9765"/>
<polygon fill="midnightblue" stroke="midnightblue" points="191.229,-66.4317 200.733,-61.7506 190.384,-59.4829 191.229,-66.4317"/>
</g>
<!-- Node8 -->
<g id="node8" class="node"><title>Node8</title>
<g id="a_node8"><a xlink:href="../../d8/dcf/classCCCC__Table.html#a080274070f7d48b68bd8d3291818d76f" target="_top" xlink:title="CCCC_Table::next_item">
<polygon fill="white" stroke="black" points="531,-0.5 531,-19.5 660,-19.5 660,-0.5 531,-0.5"/>
<text text-anchor="middle" x="595.5" y="-7.5" font-family="Helvetica,sans-Serif" font-size="10.00">CCCC_Table::next_item</text>
</a>
</g>
</g>
<!-- Node1&#45;&gt;Node8 -->
<g id="edge10" class="edge"><title>Node1&#45;&gt;Node8</title>
<path fill="none" stroke="midnightblue" d="M113.058,-60.9766C136.31,-49.9556 169.872,-35.7773 201,-29 310.369,-5.18798 440.714,-4.05585 520.522,-6.33768"/>
<polygon fill="midnightblue" stroke="midnightblue" points="520.856,-9.84971 530.96,-6.66393 521.074,-2.85312 520.856,-9.84971"/>
</g>
<!-- Node5 -->
<g id="node5" class="node"><title>Node5</title>
<g id="a_node5"><a xlink:href="../../db/d8c/classCCCC__Xml__Stream.html#a8d4f164a7fe732e7627a5fc81ffd8ef9" target="_top" xlink:title="CCCC_Xml_Stream::Put\l_Extent_List">
<polygon fill="white" stroke="black" points="366,-39 366,-69 495,-69 495,-39 366,-39"/>
<text text-anchor="start" x="374" y="-57" font-family="Helvetica,sans-Serif" font-size="10.00">CCCC_Xml_Stream::Put</text>
<text text-anchor="middle" x="430.5" y="-46" font-family="Helvetica,sans-Serif" font-size="10.00">_Extent_List</text>
</a>
</g>
</g>
<!-- Node4&#45;&gt;Node5 -->
<g id="edge4" class="edge"><title>Node4&#45;&gt;Node5</title>
<path fill="none" stroke="midnightblue" d="M330.454,-54C338.761,-54 347.322,-54 355.772,-54"/>
<polygon fill="midnightblue" stroke="midnightblue" points="355.998,-57.5001 365.998,-54 355.998,-50.5001 355.998,-57.5001"/>
</g>
<!-- Node5&#45;&gt;Node2 -->
<g id="edge5" class="edge"><title>Node5&#45;&gt;Node2</title>
<path fill="none" stroke="midnightblue" d="M455.02,-69.2124C474.809,-81.6414 504.103,-99.1875 531,-112 539.194,-115.903 548.205,-119.63 556.8,-122.934"/>
<polygon fill="midnightblue" stroke="midnightblue" points="555.669,-126.247 566.261,-126.47 558.12,-119.69 555.669,-126.247"/>
</g>
<!-- Node6 -->
<g id="node6" class="node"><title>Node6</title>
<g id="a_node6"><a xlink:href="../../df/d99/classCCCC__Extent.html#aafc68f063b7e7635471d1d0f7d5bca70" target="_top" xlink:title="CCCC_Extent::name">
<polygon fill="white" stroke="black" points="696,-66.5 696,-85.5 809,-85.5 809,-66.5 696,-66.5"/>
<text text-anchor="middle" x="752.5" y="-73.5" font-family="Helvetica,sans-Serif" font-size="10.00">CCCC_Extent::name</text>
</a>
</g>
</g>
<!-- Node5&#45;&gt;Node6 -->
<g id="edge6" class="edge"><title>Node5&#45;&gt;Node6</title>
<path fill="none" stroke="midnightblue" d="M483.749,-69.0566C498.862,-72.7409 515.472,-76.1538 531,-78 582.559,-84.1302 641.377,-83.2036 685.29,-80.9768"/>
<polygon fill="midnightblue" stroke="midnightblue" points="685.758,-84.4567 695.553,-80.4192 685.378,-77.467 685.758,-84.4567"/>
</g>
<!-- Node7 -->
<g id="node7" class="node"><title>Node7</title>
<g id="a_node7"><a xlink:href="../../db/d8c/classCCCC__Xml__Stream.html#a4dbcc8c8a21c10b8b3b942137aead5e0" target="_top" xlink:title="CCCC_Xml_Stream::Put\l_Extent_URL">
<polygon fill="white" stroke="black" points="531,-39 531,-69 660,-69 660,-39 531,-39"/>
<text text-anchor="start" x="539" y="-57" font-family="Helvetica,sans-Serif" font-size="10.00">CCCC_Xml_Stream::Put</text>
<text text-anchor="middle" x="595.5" y="-46" font-family="Helvetica,sans-Serif" font-size="10.00">_Extent_URL</text>
</a>
</g>
</g>
<!-- Node5&#45;&gt;Node7 -->
<g id="edge7" class="edge"><title>Node5&#45;&gt;Node7</title>
<path fill="none" stroke="midnightblue" d="M495.454,-54C503.761,-54 512.322,-54 520.772,-54"/>
<polygon fill="midnightblue" stroke="midnightblue" points="520.998,-57.5001 530.998,-54 520.998,-50.5001 520.998,-57.5001"/>
</g>
<!-- Node5&#45;&gt;Node8 -->
<g id="edge9" class="edge"><title>Node5&#45;&gt;Node8</title>
<path fill="none" stroke="midnightblue" d="M487.139,-38.9808C507.402,-33.5112 530.043,-27.3993 549.291,-22.2036"/>
<polygon fill="midnightblue" stroke="midnightblue" points="550.275,-25.5635 559.017,-19.5783 548.45,-18.8054 550.275,-25.5635"/>
</g>
<!-- Node7&#45;&gt;Node6 -->
<g id="edge8" class="edge"><title>Node7&#45;&gt;Node6</title>
<path fill="none" stroke="midnightblue" d="M660.439,-63.0753C668.739,-64.2533 677.254,-65.4618 685.585,-66.6443"/>
<polygon fill="midnightblue" stroke="midnightblue" points="685.238,-70.13 695.63,-68.0701 686.222,-63.1995 685.238,-70.13"/>
</g>
</g>
</svg>
        <g id="navigator" transform="translate(0 0)" fill="#404254">
                <rect fill="#f2f5e9" fill-opacity="0.5" stroke="#606060" stroke-width=".5" x="0" y="0" width="60" height="60"/>
                <use id="zoomplus" xlink:href="#zoomPlus" x="17" y="9" onmousedown="handleZoom(evt,'in')"/>
                <use id="zoomminus" xlink:href="#zoomMin" x="42" y="9" onmousedown="handleZoom(evt,'out')"/>
                <use id="reset" xlink:href="#resetDef" x="30" y="36" onmousedown="handleReset()"/>
                <g id="arrowUp" xlink:href="#dirArrow" transform="translate(30 24)" onmousedown="handlePan(0,-1)">
                  <use xlink:href="#rim" fill="#404040">
                        <set attributeName="fill" to="#808080" begin="arrowUp.mouseover" end="arrowUp.mouseout"/>
                  </use>
                  <path fill="none" stroke="white" stroke-width="1.5" d="M0,-3.0v7 M-2.5,-0.5L0,-3.0L2.5,-0.5"/>
                </g>
                <g id="arrowRight" xlink:href="#dirArrow" transform="rotate(90) translate(36 -43)" onmousedown="handlePan(1,0)">
                  <use xlink:href="#rim" fill="#404040">
                        <set attributeName="fill" to="#808080" begin="arrowRight.mouseover" end="arrowRight.mouseout"/>
                  </use>
                  <path fill="none" stroke="white" stroke-width="1.5" d="M0,-3.0v7 M-2.5,-0.5L0,-3.0L2.5,-0.5"/>
                </g>
                <g id="arrowDown" xlink:href="#dirArrow" transform="rotate(180) translate(-30 -48)" onmousedown="handlePan(0,1)">
                  <use xlink:href="#rim" fill="#404040">
                        <set attributeName="fill" to="#808080" begin="arrowDown.mouseover" end="arrowDown.mouseout"/>
                  </use>
                  <path fill="none" stroke="white" stroke-width="1.5" d="M0,-3.0v7 M-2.5,-0.5L0,-3.0L2.5,-0.5"/>
                </g>
                <g id="arrowLeft" xlink:href="#dirArrow" transform="rotate(270) translate(-36 17)" onmousedown="handlePan(-1,0)">
                  <use xlink:href="#rim" fill="#404040">
                        <set attributeName="fill" to="#808080" begin="arrowLeft.mouseover" end="arrowLeft.mouseout"/>
                  </use>
                  <path fill="none" stroke="white" stroke-width="1.5" d="M0,-3.0v7 M-2.5,-0.5L0,-3.0L2.5,-0.5"/>
                </g>
        </g>
        <svg viewBox="0 0 15 15" width="100%" height="30px" preserveAspectRatio="xMaxYMin meet">
         <g id="arrow_out" transform="scale(0.3 0.3)">
          <a xlink:href="classCCCC__Xml__Stream_ac1909e96b08f6199ea7c8aaa7478977d_cgraph_org.svg" target="_base">
           <rect id="button" ry="5" rx="5" y="6" x="6" height="38" width="38"
                fill="#f2f5e9" fill-opacity="0.5" stroke="#606060" stroke-width="1.0"/>
           <path id="arrow"
             d="M 11.500037,31.436501 C 11.940474,20.09759 22.043105,11.32322 32.158766,21.979434 L 37.068811,17.246167 C 37.068811,17.246167 37.088388,32 37.088388,32 L 22.160133,31.978069 C 22.160133,31.978069 26.997745,27.140456 26.997745,27.140456 C 18.528582,18.264221 13.291696,25.230495 11.500037,31.436501 z"
             style="fill:#404040;"/>
          </a>
         </g>
        </svg>
</svg>
