<?xml version="1.0" encoding="UTF-8" standalone="no"?>
<!DOCTYPE svg PUBLIC "-//W3C//DTD SVG 1.1//EN"
 "http://www.w3.org/Graphics/SVG/1.1/DTD/svg11.dtd">
<!-- Generated by graphviz version 2.38.0 (20140413.2041)
 -->
<!-- Title: CCCC_Xml_Stream::Separate_Modules Pages: 1 -->
<!--zoomable 230 -->
<svg id="main" version="1.1" xmlns="http://www.w3.org/2000/svg" xmlns:xlink="http://www.w3.org/1999/xlink" xml:space="preserve" onload="init(evt)">
<style type="text/css"><![CDATA[
.edge:hover path { stroke: red; }
.edge:hover polygon { stroke: red; fill: red; }
]]></style>
<script type="text/javascript"><![CDATA[
var edges = document.getElementsByTagName('g');
if (edges && edges.length) {
  for (var i=0;i<edges.length;i++) {
    if (edges[i].id.substr(0,4)=='edge') {
      edges[i].setAttribute('class','edge');
    }
  }
}
]]></script>
        <defs>
                <circle id="rim" cx="0" cy="0" r="7"/>
                <circle id="rim2" cx="0" cy="0" r="3.5"/>
                <g id="zoomPlus">
                        <use xlink:href="#rim" fill="#404040">
                                <set attributeName="fill" to="#808080" begin="zoomplus.mouseover" end="zoomplus.mouseout"/>
                        </use>
                        <path d="M-4,0h8M0,-4v8" fill="none" stroke="white" stroke-width="1.5" pointer-events="none"/>
                </g>
                <g id="zoomMin">
                        <use xlink:href="#rim" fill="#404040">
                                <set attributeName="fill" to="#808080" begin="zoomminus.mouseover" end="zoomminus.mouseout"/>
                        </use>
                        <path d="M-4,0h8" fill="none" stroke="white" stroke-width="1.5" pointer-events="none"/>
                </g>
                <g id="dirArrow">
                        <path fill="none" stroke="white" stroke-width="1.5" d="M0,-3.0v7 M-2.5,-0.5L0,-3.0L2.5,-0.5"/>
                </g>
               <g id="resetDef">
                       <use xlink:href="#rim2" fill="#404040">
                               <set attributeName="fill" to="#808080" begin="reset.mouseover" end="reset.mouseout"/>
                       </use>
               </g>
        </defs>

<script type="text/javascript">
var viewWidth = 849;
var viewHeight = 230;
var sectionId = 'dynsection-26';
</script>
<script xlink:href="../../svgpan.js"/>
<svg id="graph" class="graph">
<g id="viewport">
<title>CCCC_Xml_Stream::Separate_Modules</title>
<polygon fill="white" stroke="none" points="-4,4 -4,-225.5 845,-225.5 845,4 -4,4"/>
<!-- Node1 -->
<g id="node1" class="node"><title>Node1</title>
<polygon fill="#bfbfbf" stroke="black" points="0,-120.5 0,-150.5 158,-150.5 158,-120.5 0,-120.5"/>
<text text-anchor="start" x="8" y="-138.5" font-family="Helvetica,sans-Serif" font-size="10.00">CCCC_Xml_Stream::Separate</text>
<text text-anchor="middle" x="79" y="-127.5" font-family="Helvetica,sans-Serif" font-size="10.00">_Modules</text>
</g>
<!-- Node2 -->
<g id="node2" class="node"><title>Node2</title>
<g id="a_node2"><a xlink:href="../../d8/dcf/classCCCC__Table.html#a0d099c7bc984323270cc8c63d5ff8379" target="_top" xlink:title="CCCC_Table::first_item">
<polygon fill="white" stroke="black" points="557,-202 557,-221 683,-221 683,-202 557,-202"/>
<text text-anchor="middle" x="620" y="-209" font-family="Helvetica,sans-Serif" font-size="10.00">CCCC_Table::first_item</text>
</a>
</g>
</g>
<!-- Node1&#45;&gt;Node2 -->
<g id="edge1" class="edge"><title>Node1&#45;&gt;Node2</title>
<path fill="none" stroke="midnightblue" d="M123.359,-150.562C144.44,-157.335 170.29,-164.837 194,-169.5 316.515,-193.593 461.757,-204.163 546.807,-208.575"/>
<polygon fill="midnightblue" stroke="midnightblue" points="546.711,-212.075 556.875,-209.084 547.064,-205.084 546.711,-212.075"/>
</g>
<!-- Node3 -->
<g id="node3" class="node"><title>Node3</title>
<g id="a_node3"><a xlink:href="../../d6/d9f/classCCCC__Module.html#a2e35b964b59e60393b2af32dd537f505" target="_top" xlink:title="CCCC_Module::is_trivial">
<polygon fill="white" stroke="black" points="555,-164 555,-183 685,-183 685,-164 555,-164"/>
<text text-anchor="middle" x="620" y="-171" font-family="Helvetica,sans-Serif" font-size="10.00">CCCC_Module::is_trivial</text>
</a>
</g>
</g>
<!-- Node1&#45;&gt;Node3 -->
<g id="edge2" class="edge"><title>Node1&#45;&gt;Node3</title>
<path fill="none" stroke="midnightblue" d="M158.116,-145.783C170.12,-147.164 182.381,-148.46 194,-149.5 316.721,-160.489 459.855,-167.344 544.762,-170.789"/>
<polygon fill="midnightblue" stroke="midnightblue" points="544.691,-174.288 554.823,-171.192 544.971,-167.294 544.691,-174.288"/>
</g>
<!-- Node4 -->
<g id="node4" class="node"><title>Node4</title>
<g id="a_node4"><a xlink:href="../../d6/d85/classCCCC__Record.html#a81bf0541981287180a41e3d801e7a084" target="_top" xlink:title="CCCC_Record::key">
<polygon fill="white" stroke="black" points="566,-126 566,-145 674,-145 674,-126 566,-126"/>
<text text-anchor="middle" x="620" y="-133" font-family="Helvetica,sans-Serif" font-size="10.00">CCCC_Record::key</text>
</a>
</g>
</g>
<!-- Node1&#45;&gt;Node4 -->
<g id="edge3" class="edge"><title>Node1&#45;&gt;Node4</title>
<path fill="none" stroke="midnightblue" d="M158.087,-135.5C265.446,-135.5 456.565,-135.5 555.592,-135.5"/>
<polygon fill="midnightblue" stroke="midnightblue" points="555.751,-139 565.751,-135.5 555.751,-132 555.751,-139"/>
</g>
<!-- Node6 -->
<g id="node6" class="node"><title>Node6</title>
<g id="a_node6"><a xlink:href="../../db/d8c/classCCCC__Xml__Stream.html#a86b2358b95c828fd96da2ba14ca458d0" target="_top" xlink:title="CCCC_Xml_Stream::Module\l_Summary">
<polygon fill="white" stroke="black" points="194,-0.5 194,-30.5 343,-30.5 343,-0.5 194,-0.5"/>
<text text-anchor="start" x="202" y="-18.5" font-family="Helvetica,sans-Serif" font-size="10.00">CCCC_Xml_Stream::Module</text>
<text text-anchor="middle" x="268.5" y="-7.5" font-family="Helvetica,sans-Serif" font-size="10.00">_Summary</text>
</a>
</g>
</g>
<!-- Node1&#45;&gt;Node6 -->
<g id="edge5" class="edge"><title>Node1&#45;&gt;Node6</title>
<path fill="none" stroke="midnightblue" d="M96.2957,-120.183C117.502,-100.85 156.315,-67.4745 194,-45.5 200.781,-41.546 208.183,-37.8665 215.593,-34.535"/>
<polygon fill="midnightblue" stroke="midnightblue" points="217.141,-37.6793 224.938,-30.5069 214.37,-31.2511 217.141,-37.6793"/>
</g>
<!-- Node9 -->
<g id="node9" class="node"><title>Node9</title>
<g id="a_node9"><a xlink:href="../../d8/dcf/classCCCC__Table.html#a080274070f7d48b68bd8d3291818d76f" target="_top" xlink:title="CCCC_Table::next_item">
<polygon fill="white" stroke="black" points="555.5,-50 555.5,-69 684.5,-69 684.5,-50 555.5,-50"/>
<text text-anchor="middle" x="620" y="-57" font-family="Helvetica,sans-Serif" font-size="10.00">CCCC_Table::next_item</text>
</a>
</g>
</g>
<!-- Node1&#45;&gt;Node9 -->
<g id="edge14" class="edge"><title>Node1&#45;&gt;Node9</title>
<path fill="none" stroke="midnightblue" d="M147.343,-120.477C207.719,-107.532 298.869,-89.2768 379,-78.5 434.477,-71.0389 497.591,-66.1844 545.169,-63.2512"/>
<polygon fill="midnightblue" stroke="midnightblue" points="545.611,-66.731 555.383,-62.6362 545.19,-59.7436 545.611,-66.731"/>
</g>
<!-- Node5 -->
<g id="node5" class="node"><title>Node5</title>
<g id="a_node5"><a xlink:href="../../d6/d85/classCCCC__Record.html#a03c15972bea5df4e34930fa4c34e34bd" target="_top" xlink:title="CCCC_Record::name">
<polygon fill="white" stroke="black" points="723,-126 723,-145 841,-145 841,-126 723,-126"/>
<text text-anchor="middle" x="782" y="-133" font-family="Helvetica,sans-Serif" font-size="10.00">CCCC_Record::name</text>
</a>
</g>
</g>
<!-- Node4&#45;&gt;Node5 -->
<g id="edge4" class="edge"><title>Node4&#45;&gt;Node5</title>
<path fill="none" stroke="midnightblue" d="M674.278,-135.5C686.544,-135.5 699.757,-135.5 712.565,-135.5"/>
<polygon fill="midnightblue" stroke="midnightblue" points="712.725,-139 722.725,-135.5 712.725,-132 712.725,-139"/>
</g>
<!-- Node7 -->
<g id="node7" class="node"><title>Node7</title>
<g id="a_node7"><a xlink:href="../../d6/d9f/classCCCC__Module.html#ad1f26ab257c41657302b5c7b0253b034" target="_top" xlink:title="CCCC_Module::get_count">
<polygon fill="white" stroke="black" points="379,-88 379,-107 517,-107 517,-88 379,-88"/>
<text text-anchor="middle" x="448" y="-95" font-family="Helvetica,sans-Serif" font-size="10.00">CCCC_Module::get_count</text>
</a>
</g>
</g>
<!-- Node6&#45;&gt;Node7 -->
<g id="edge6" class="edge"><title>Node6&#45;&gt;Node7</title>
<path fill="none" stroke="midnightblue" d="M302.056,-30.5401C334.89,-45.7083 385.155,-68.9294 417.033,-83.6562"/>
<polygon fill="midnightblue" stroke="midnightblue" points="415.751,-86.919 426.297,-87.9356 418.686,-80.5644 415.751,-86.919"/>
</g>
<!-- Node10 -->
<g id="node10" class="node"><title>Node10</title>
<g id="a_node10"><a xlink:href="../../db/d8c/classCCCC__Xml__Stream.html#a618ba6784d7300949e73cf61693d4388" target="_top" xlink:title="CCCC_Xml_Stream::Put\l_Metric_Node">
<polygon fill="white" stroke="black" points="383.5,-0.5 383.5,-30.5 512.5,-30.5 512.5,-0.5 383.5,-0.5"/>
<text text-anchor="start" x="391.5" y="-18.5" font-family="Helvetica,sans-Serif" font-size="10.00">CCCC_Xml_Stream::Put</text>
<text text-anchor="middle" x="448" y="-7.5" font-family="Helvetica,sans-Serif" font-size="10.00">_Metric_Node</text>
</a>
</g>
</g>
<!-- Node6&#45;&gt;Node10 -->
<g id="edge12" class="edge"><title>Node6&#45;&gt;Node10</title>
<path fill="none" stroke="midnightblue" d="M343.234,-15.5C353.131,-15.5 363.285,-15.5 373.183,-15.5"/>
<polygon fill="midnightblue" stroke="midnightblue" points="373.385,-19.0001 383.385,-15.5 373.385,-12.0001 373.385,-19.0001"/>
</g>
<!-- Node7&#45;&gt;Node2 -->
<g id="edge9" class="edge"><title>Node7&#45;&gt;Node2</title>
<path fill="none" stroke="midnightblue" d="M456.813,-107.144C472.827,-126.28 511.388,-169.21 553,-192.5 556.97,-194.722 561.223,-196.704 565.586,-198.467"/>
<polygon fill="midnightblue" stroke="midnightblue" points="564.653,-201.853 575.247,-201.989 567.05,-195.276 564.653,-201.853"/>
</g>
<!-- Node7&#45;&gt;Node3 -->
<g id="edge7" class="edge"><title>Node7&#45;&gt;Node3</title>
<path fill="none" stroke="midnightblue" d="M463.98,-107.097C483.734,-119.424 519.876,-140.852 553,-154.5 558.579,-156.799 564.532,-158.931 570.493,-160.873"/>
<polygon fill="midnightblue" stroke="midnightblue" points="569.879,-164.347 580.467,-163.958 571.947,-157.66 569.879,-164.347"/>
</g>
<!-- Node7&#45;&gt;Node4 -->
<g id="edge8" class="edge"><title>Node7&#45;&gt;Node4</title>
<path fill="none" stroke="midnightblue" d="M491.898,-107.089C514.534,-112.149 542.498,-118.4 566.429,-123.749"/>
<polygon fill="midnightblue" stroke="midnightblue" points="565.888,-127.214 576.41,-125.98 567.415,-120.383 565.888,-127.214"/>
</g>
<!-- Node8 -->
<g id="node8" class="node"><title>Node8</title>
<g id="a_node8"><a xlink:href="../../df/d99/classCCCC__Extent.html#aa6094d7370a45e8e7237fd25289e99bb" target="_top" xlink:title="CCCC_Extent::get_count">
<polygon fill="white" stroke="black" points="553,-88 553,-107 687,-107 687,-88 553,-88"/>
<text text-anchor="middle" x="620" y="-95" font-family="Helvetica,sans-Serif" font-size="10.00">CCCC_Extent::get_count</text>
</a>
</g>
</g>
<!-- Node7&#45;&gt;Node8 -->
<g id="edge10" class="edge"><title>Node7&#45;&gt;Node8</title>
<path fill="none" stroke="midnightblue" d="M517.166,-97.5C525.506,-97.5 534.072,-97.5 542.524,-97.5"/>
<polygon fill="midnightblue" stroke="midnightblue" points="542.754,-101 552.754,-97.5 542.754,-94.0001 542.754,-101"/>
</g>
<!-- Node7&#45;&gt;Node9 -->
<g id="edge11" class="edge"><title>Node7&#45;&gt;Node9</title>
<path fill="none" stroke="midnightblue" d="M491.898,-87.911C514.534,-82.8513 542.498,-76.6004 566.429,-71.2512"/>
<polygon fill="midnightblue" stroke="midnightblue" points="567.415,-74.6173 576.41,-69.0201 565.888,-67.7859 567.415,-74.6173"/>
</g>
<!-- Node11 -->
<g id="node11" class="node"><title>Node11</title>
<g id="a_node11"><a xlink:href="../../dd/d72/classCCCC__Metric.html#a4388127897cc2c1de762a9689b913c0d" target="_top" xlink:title="CCCC_Metric::emphasis\l_level">
<polygon fill="white" stroke="black" points="554.5,-0.5 554.5,-30.5 685.5,-30.5 685.5,-0.5 554.5,-0.5"/>
<text text-anchor="start" x="562.5" y="-18.5" font-family="Helvetica,sans-Serif" font-size="10.00">CCCC_Metric::emphasis</text>
<text text-anchor="middle" x="620" y="-7.5" font-family="Helvetica,sans-Serif" font-size="10.00">_level</text>
</a>
</g>
</g>
<!-- Node10&#45;&gt;Node11 -->
<g id="edge13" class="edge"><title>Node10&#45;&gt;Node11</title>
<path fill="none" stroke="midnightblue" d="M512.785,-15.5C522.961,-15.5 533.569,-15.5 543.975,-15.5"/>
<polygon fill="midnightblue" stroke="midnightblue" points="544.291,-19.0001 554.291,-15.5 544.291,-12.0001 544.291,-19.0001"/>
</g>
</g>
</svg>
        <g id="navigator" transform="translate(0 0)" fill="#404254">
                <rect fill="#f2f5e9" fill-opacity="0.5" stroke="#606060" stroke-width=".5" x="0" y="0" width="60" height="60"/>
                <use id="zoomplus" xlink:href="#zoomPlus" x="17" y="9" onmousedown="handleZoom(evt,'in')"/>
                <use id="zoomminus" xlink:href="#zoomMin" x="42" y="9" onmousedown="handleZoom(evt,'out')"/>
                <use id="reset" xlink:href="#resetDef" x="30" y="36" onmousedown="handleReset()"/>
                <g id="arrowUp" xlink:href="#dirArrow" transform="translate(30 24)" onmousedown="handlePan(0,-1)">
                  <use xlink:href="#rim" fill="#404040">
                        <set attributeName="fill" to="#808080" begin="arrowUp.mouseover" end="arrowUp.mouseout"/>
                  </use>
                  <path fill="none" stroke="white" stroke-width="1.5" d="M0,-3.0v7 M-2.5,-0.5L0,-3.0L2.5,-0.5"/>
                </g>
                <g id="arrowRight" xlink:href="#dirArrow" transform="rotate(90) translate(36 -43)" onmousedown="handlePan(1,0)">
                  <use xlink:href="#rim" fill="#404040">
                        <set attributeName="fill" to="#808080" begin="arrowRight.mouseover" end="arrowRight.mouseout"/>
                  </use>
                  <path fill="none" stroke="white" stroke-width="1.5" d="M0,-3.0v7 M-2.5,-0.5L0,-3.0L2.5,-0.5"/>
                </g>
                <g id="arrowDown" xlink:href="#dirArrow" transform="rotate(180) translate(-30 -48)" onmousedown="handlePan(0,1)">
                  <use xlink:href="#rim" fill="#404040">
                        <set attributeName="fill" to="#808080" begin="arrowDown.mouseover" end="arrowDown.mouseout"/>
                  </use>
                  <path fill="none" stroke="white" stroke-width="1.5" d="M0,-3.0v7 M-2.5,-0.5L0,-3.0L2.5,-0.5"/>
                </g>
                <g id="arrowLeft" xlink:href="#dirArrow" transform="rotate(270) translate(-36 17)" onmousedown="handlePan(-1,0)">
                  <use xlink:href="#rim" fill="#404040">
                        <set attributeName="fill" to="#808080" begin="arrowLeft.mouseover" end="arrowLeft.mouseout"/>
                  </use>
                  <path fill="none" stroke="white" stroke-width="1.5" d="M0,-3.0v7 M-2.5,-0.5L0,-3.0L2.5,-0.5"/>
                </g>
        </g>
        <svg viewBox="0 0 15 15" width="100%" height="30px" preserveAspectRatio="xMaxYMin meet">
         <g id="arrow_out" transform="scale(0.3 0.3)">
          <a xlink:href="classCCCC__Xml__Stream_a221dc496f3d46314b700c1a3bb6e5e5c_cgraph_org.svg" target="_base">
           <rect id="button" ry="5" rx="5" y="6" x="6" height="38" width="38"
                fill="#f2f5e9" fill-opacity="0.5" stroke="#606060" stroke-width="1.0"/>
           <path id="arrow"
             d="M 11.500037,31.436501 C 11.940474,20.09759 22.043105,11.32322 32.158766,21.979434 L 37.068811,17.246167 C 37.068811,17.246167 37.088388,32 37.088388,32 L 22.160133,31.978069 C 22.160133,31.978069 26.997745,27.140456 26.997745,27.140456 C 18.528582,18.264221 13.291696,25.230495 11.500037,31.436501 z"
             style="fill:#404040;"/>
          </a>
         </g>
        </svg>
</svg>
