<?xml version="1.0" encoding="UTF-8" standalone="no"?>
<!DOCTYPE svg PUBLIC "-//W3C//DTD SVG 1.1//EN"
 "http://www.w3.org/Graphics/SVG/1.1/DTD/svg11.dtd">
<!-- Generated by graphviz version 2.38.0 (20140413.2041)
 -->
<!-- Title: CCCC_Xml_Stream::Put_Structural_Details_Node Pages: 1 -->
<svg width="790pt" height="264pt"
 viewBox="0.00 0.00 790.00 263.50" xmlns="http://www.w3.org/2000/svg" xmlns:xlink="http://www.w3.org/1999/xlink">
<g id="graph0" class="graph" transform="scale(1 1) rotate(0) translate(4 259.5)">
<title>CCCC_Xml_Stream::Put_Structural_Details_Node</title>
<polygon fill="white" stroke="none" points="-4,4 -4,-259.5 786,-259.5 786,4 -4,4"/>
<!-- Node1 -->
<g id="node1" class="node"><title>Node1</title>
<polygon fill="#bfbfbf" stroke="black" points="0,-120.5 0,-150.5 137,-150.5 137,-120.5 0,-120.5"/>
<text text-anchor="start" x="8" y="-138.5" font-family="Helvetica,sans-Serif" font-size="10.00">CCCC_Xml_Stream::Put</text>
<text text-anchor="middle" x="68.5" y="-127.5" font-family="Helvetica,sans-Serif" font-size="10.00">_Structural_Details_Node</text>
</g>
<!-- Node2 -->
<g id="node2" class="node"><title>Node2</title>
<g id="a_node2"><a xlink:href="../../d6/d9f/classCCCC__Module.html#adea7213358d5e1f9119c70cbbb99f287" target="_top" xlink:title="CCCC_Module::name">
<polygon fill="white" stroke="black" points="179,-236 179,-255 297,-255 297,-236 179,-236"/>
<text text-anchor="middle" x="238" y="-243" font-family="Helvetica,sans-Serif" font-size="10.00">CCCC_Module::name</text>
</a>
</g>
</g>
<!-- Node1&#45;&gt;Node2 -->
<g id="edge1" class="edge"><title>Node1&#45;&gt;Node2</title>
<path fill="none" stroke="midnightblue" d="M82.7075,-150.638C101.045,-170.757 136.144,-206.13 173,-226.5 176.988,-228.704 181.26,-230.679 185.636,-232.444"/>
<polygon fill="midnightblue" stroke="midnightblue" points="184.715,-235.834 195.308,-235.978 187.117,-229.259 184.715,-235.834"/>
</g>
<!-- Node3 -->
<g id="node3" class="node"><title>Node3</title>
<g id="a_node3"><a xlink:href="../../db/d8c/classCCCC__Xml__Stream.html#a5857c6d4a204a15b65a411301e2caf57" target="_top" xlink:title="CCCC_Xml_Stream::Put\l_Label_Node">
<polygon fill="white" stroke="black" points="173.5,-186.5 173.5,-216.5 302.5,-216.5 302.5,-186.5 173.5,-186.5"/>
<text text-anchor="start" x="181.5" y="-204.5" font-family="Helvetica,sans-Serif" font-size="10.00">CCCC_Xml_Stream::Put</text>
<text text-anchor="middle" x="238" y="-193.5" font-family="Helvetica,sans-Serif" font-size="10.00">_Label_Node</text>
</a>
</g>
</g>
<!-- Node1&#45;&gt;Node3 -->
<g id="edge2" class="edge"><title>Node1&#45;&gt;Node3</title>
<path fill="none" stroke="midnightblue" d="M107.928,-150.642C132.08,-160.158 163.427,-172.51 189.181,-182.658"/>
<polygon fill="midnightblue" stroke="midnightblue" points="188.164,-186.019 198.751,-186.429 190.73,-179.506 188.164,-186.019"/>
</g>
<!-- Node4 -->
<g id="node4" class="node"><title>Node4</title>
<g id="a_node4"><a xlink:href="../../db/d8c/classCCCC__Xml__Stream.html#a8d4f164a7fe732e7627a5fc81ffd8ef9" target="_top" xlink:title="CCCC_Xml_Stream::Put\l_Extent_List">
<polygon fill="white" stroke="black" points="339,-164.5 339,-194.5 468,-194.5 468,-164.5 339,-164.5"/>
<text text-anchor="start" x="347" y="-182.5" font-family="Helvetica,sans-Serif" font-size="10.00">CCCC_Xml_Stream::Put</text>
<text text-anchor="middle" x="403.5" y="-171.5" font-family="Helvetica,sans-Serif" font-size="10.00">_Extent_List</text>
</a>
</g>
</g>
<!-- Node1&#45;&gt;Node4 -->
<g id="edge12" class="edge"><title>Node1&#45;&gt;Node4</title>
<path fill="none" stroke="midnightblue" d="M137.289,-144.457C192.901,-151.805 271.507,-162.192 328.697,-169.748"/>
<polygon fill="midnightblue" stroke="midnightblue" points="328.385,-173.237 338.757,-171.078 329.302,-166.298 328.385,-173.237"/>
</g>
<!-- Node9 -->
<g id="node9" class="node"><title>Node9</title>
<g id="a_node9"><a xlink:href="../../d2/d65/classCCCC__UseRelationship.html#a432d79f0f123f7d0790adfdb7c5ed299" target="_top" xlink:title="CCCC_UseRelationship\l::name">
<polygon fill="white" stroke="black" points="173,-98.5 173,-128.5 303,-128.5 303,-98.5 173,-98.5"/>
<text text-anchor="start" x="181" y="-116.5" font-family="Helvetica,sans-Serif" font-size="10.00">CCCC_UseRelationship</text>
<text text-anchor="middle" x="238" y="-105.5" font-family="Helvetica,sans-Serif" font-size="10.00">::name</text>
</a>
</g>
</g>
<!-- Node1&#45;&gt;Node9 -->
<g id="edge9" class="edge"><title>Node1&#45;&gt;Node9</title>
<path fill="none" stroke="midnightblue" d="M137.146,-126.615C145.63,-125.501 154.342,-124.357 162.918,-123.23"/>
<polygon fill="midnightblue" stroke="midnightblue" points="163.441,-126.692 172.901,-121.919 162.53,-119.751 163.441,-126.692"/>
</g>
<!-- Node10 -->
<g id="node10" class="node"><title>Node10</title>
<g id="a_node10"><a xlink:href="../../d2/d65/classCCCC__UseRelationship.html#a936066b692baa5c53aa35ad646b2041c" target="_top" xlink:title="CCCC_UseRelationship\l::is_visible">
<polygon fill="white" stroke="black" points="173,-49.5 173,-79.5 303,-79.5 303,-49.5 173,-49.5"/>
<text text-anchor="start" x="181" y="-67.5" font-family="Helvetica,sans-Serif" font-size="10.00">CCCC_UseRelationship</text>
<text text-anchor="middle" x="238" y="-56.5" font-family="Helvetica,sans-Serif" font-size="10.00">::is_visible</text>
</a>
</g>
</g>
<!-- Node1&#45;&gt;Node10 -->
<g id="edge10" class="edge"><title>Node1&#45;&gt;Node10</title>
<path fill="none" stroke="midnightblue" d="M102.428,-120.404C122.682,-111.233 149.227,-99.4198 173,-89.5 177.83,-87.4845 182.884,-85.4255 187.944,-83.3972"/>
<polygon fill="midnightblue" stroke="midnightblue" points="189.622,-86.4971 197.624,-79.5538 187.038,-79.9912 189.622,-86.4971"/>
</g>
<!-- Node11 -->
<g id="node11" class="node"><title>Node11</title>
<g id="a_node11"><a xlink:href="../../d2/d65/classCCCC__UseRelationship.html#a5e08e1d7d70708daef7ac7ef73391b0b" target="_top" xlink:title="CCCC_UseRelationship\l::is_concrete">
<polygon fill="white" stroke="black" points="173,-0.5 173,-30.5 303,-30.5 303,-0.5 173,-0.5"/>
<text text-anchor="start" x="181" y="-18.5" font-family="Helvetica,sans-Serif" font-size="10.00">CCCC_UseRelationship</text>
<text text-anchor="middle" x="238" y="-7.5" font-family="Helvetica,sans-Serif" font-size="10.00">::is_concrete</text>
</a>
</g>
</g>
<!-- Node1&#45;&gt;Node11 -->
<g id="edge11" class="edge"><title>Node1&#45;&gt;Node11</title>
<path fill="none" stroke="midnightblue" d="M82.5197,-120.468C100.912,-100.011 136.366,-63.3405 173,-40.5 176.173,-38.5219 179.528,-36.6534 182.973,-34.8973"/>
<polygon fill="midnightblue" stroke="midnightblue" points="184.698,-37.9533 192.241,-30.5134 181.705,-31.6255 184.698,-37.9533"/>
</g>
<!-- Node3&#45;&gt;Node4 -->
<g id="edge3" class="edge"><title>Node3&#45;&gt;Node4</title>
<path fill="none" stroke="midnightblue" d="M302.682,-192.931C311.253,-191.778 320.103,-190.587 328.829,-189.413"/>
<polygon fill="midnightblue" stroke="midnightblue" points="329.548,-192.848 338.992,-188.045 328.615,-185.91 329.548,-192.848"/>
</g>
<!-- Node5 -->
<g id="node5" class="node"><title>Node5</title>
<g id="a_node5"><a xlink:href="../../d8/dcf/classCCCC__Table.html#a0d099c7bc984323270cc8c63d5ff8379" target="_top" xlink:title="CCCC_Table::first_item">
<polygon fill="white" stroke="black" points="505.5,-230 505.5,-249 631.5,-249 631.5,-230 505.5,-230"/>
<text text-anchor="middle" x="568.5" y="-237" font-family="Helvetica,sans-Serif" font-size="10.00">CCCC_Table::first_item</text>
</a>
</g>
</g>
<!-- Node4&#45;&gt;Node5 -->
<g id="edge4" class="edge"><title>Node4&#45;&gt;Node5</title>
<path fill="none" stroke="midnightblue" d="M445.632,-194.641C472.275,-204.448 506.618,-217.089 532.053,-226.452"/>
<polygon fill="midnightblue" stroke="midnightblue" points="531.079,-229.823 541.672,-229.993 533.497,-223.254 531.079,-229.823"/>
</g>
<!-- Node6 -->
<g id="node6" class="node"><title>Node6</title>
<g id="a_node6"><a xlink:href="../../df/d99/classCCCC__Extent.html#aafc68f063b7e7635471d1d0f7d5bca70" target="_top" xlink:title="CCCC_Extent::name">
<polygon fill="white" stroke="black" points="669,-170 669,-189 782,-189 782,-170 669,-170"/>
<text text-anchor="middle" x="725.5" y="-177" font-family="Helvetica,sans-Serif" font-size="10.00">CCCC_Extent::name</text>
</a>
</g>
</g>
<!-- Node4&#45;&gt;Node6 -->
<g id="edge5" class="edge"><title>Node4&#45;&gt;Node6</title>
<path fill="none" stroke="midnightblue" d="M468.19,-181.706C480.089,-182.037 492.422,-182.326 504,-182.5 561.327,-183.364 575.674,-183.44 633,-182.5 641.338,-182.363 650.102,-182.157 658.767,-181.914"/>
<polygon fill="midnightblue" stroke="midnightblue" points="658.97,-185.41 668.862,-181.616 658.763,-178.413 658.97,-185.41"/>
</g>
<!-- Node7 -->
<g id="node7" class="node"><title>Node7</title>
<g id="a_node7"><a xlink:href="../../db/d8c/classCCCC__Xml__Stream.html#a4dbcc8c8a21c10b8b3b942137aead5e0" target="_top" xlink:title="CCCC_Xml_Stream::Put\l_Extent_URL">
<polygon fill="white" stroke="black" points="504,-142.5 504,-172.5 633,-172.5 633,-142.5 504,-142.5"/>
<text text-anchor="start" x="512" y="-160.5" font-family="Helvetica,sans-Serif" font-size="10.00">CCCC_Xml_Stream::Put</text>
<text text-anchor="middle" x="568.5" y="-149.5" font-family="Helvetica,sans-Serif" font-size="10.00">_Extent_URL</text>
</a>
</g>
</g>
<!-- Node4&#45;&gt;Node7 -->
<g id="edge6" class="edge"><title>Node4&#45;&gt;Node7</title>
<path fill="none" stroke="midnightblue" d="M468.454,-170.868C476.852,-169.735 485.511,-168.566 494.05,-167.413"/>
<polygon fill="midnightblue" stroke="midnightblue" points="494.556,-170.877 503.998,-166.071 493.619,-163.94 494.556,-170.877"/>
</g>
<!-- Node8 -->
<g id="node8" class="node"><title>Node8</title>
<g id="a_node8"><a xlink:href="../../d8/dcf/classCCCC__Table.html#a080274070f7d48b68bd8d3291818d76f" target="_top" xlink:title="CCCC_Table::next_item">
<polygon fill="white" stroke="black" points="504,-104 504,-123 633,-123 633,-104 504,-104"/>
<text text-anchor="middle" x="568.5" y="-111" font-family="Helvetica,sans-Serif" font-size="10.00">CCCC_Table::next_item</text>
</a>
</g>
</g>
<!-- Node4&#45;&gt;Node8 -->
<g id="edge8" class="edge"><title>Node4&#45;&gt;Node8</title>
<path fill="none" stroke="midnightblue" d="M434.549,-164.384C454.069,-154.872 480.216,-142.7 504,-133.5 510.518,-130.979 517.5,-128.532 524.363,-126.267"/>
<polygon fill="midnightblue" stroke="midnightblue" points="525.813,-129.477 534.265,-123.088 523.674,-122.812 525.813,-129.477"/>
</g>
<!-- Node7&#45;&gt;Node6 -->
<g id="edge7" class="edge"><title>Node7&#45;&gt;Node6</title>
<path fill="none" stroke="midnightblue" d="M633.439,-166.575C641.739,-167.753 650.254,-168.962 658.585,-170.144"/>
<polygon fill="midnightblue" stroke="midnightblue" points="658.238,-173.63 668.63,-171.57 659.222,-166.7 658.238,-173.63"/>
</g>
</g>
</svg>
