<?xml version="1.0" encoding="UTF-8" standalone="no"?>
<!DOCTYPE svg PUBLIC "-//W3C//DTD SVG 1.1//EN"
 "http://www.w3.org/Graphics/SVG/1.1/DTD/svg11.dtd">
<!-- Generated by graphviz version 2.38.0 (20140413.2041)
 -->
<!-- Title: CCCC_Xml_Stream::Put_Metric_Node Pages: 1 -->
<!--zoomable 431 -->
<svg id="main" version="1.1" xmlns="http://www.w3.org/2000/svg" xmlns:xlink="http://www.w3.org/1999/xlink" xml:space="preserve" onload="init(evt)">
<style type="text/css"><![CDATA[
.edge:hover path { stroke: red; }
.edge:hover polygon { stroke: red; fill: red; }
]]></style>
<script type="text/javascript"><![CDATA[
var edges = document.getElementsByTagName('g');
if (edges && edges.length) {
  for (var i=0;i<edges.length;i++) {
    if (edges[i].id.substr(0,4)=='edge') {
      edges[i].setAttribute('class','edge');
    }
  }
}
]]></script>
        <defs>
                <circle id="rim" cx="0" cy="0" r="7"/>
                <circle id="rim2" cx="0" cy="0" r="3.5"/>
                <g id="zoomPlus">
                        <use xlink:href="#rim" fill="#404040">
                                <set attributeName="fill" to="#808080" begin="zoomplus.mouseover" end="zoomplus.mouseout"/>
                        </use>
                        <path d="M-4,0h8M0,-4v8" fill="none" stroke="white" stroke-width="1.5" pointer-events="none"/>
                </g>
                <g id="zoomMin">
                        <use xlink:href="#rim" fill="#404040">
                                <set attributeName="fill" to="#808080" begin="zoomminus.mouseover" end="zoomminus.mouseout"/>
                        </use>
                        <path d="M-4,0h8" fill="none" stroke="white" stroke-width="1.5" pointer-events="none"/>
                </g>
                <g id="dirArrow">
                        <path fill="none" stroke="white" stroke-width="1.5" d="M0,-3.0v7 M-2.5,-0.5L0,-3.0L2.5,-0.5"/>
                </g>
               <g id="resetDef">
                       <use xlink:href="#rim2" fill="#404040">
                               <set attributeName="fill" to="#808080" begin="reset.mouseover" end="reset.mouseout"/>
                       </use>
               </g>
        </defs>

<script type="text/javascript">
var viewWidth = 532;
var viewHeight = 431;
var sectionId = 'dynsection-21';
</script>
<script xlink:href="../../svgpan.js"/>
<svg id="graph" class="graph">
<g id="viewport">
<title>CCCC_Xml_Stream::Put_Metric_Node</title>
<polygon fill="white" stroke="none" points="-4,4 -4,-427 528,-427 528,4 -4,4"/>
<!-- Node1 -->
<g id="node1" class="node"><title>Node1</title>
<polygon fill="#bfbfbf" stroke="black" points="0,-196.5 0,-226.5 129,-226.5 129,-196.5 0,-196.5"/>
<text text-anchor="start" x="8" y="-214.5" font-family="Helvetica,sans-Serif" font-size="10.00">CCCC_Xml_Stream::Put</text>
<text text-anchor="middle" x="64.5" y="-203.5" font-family="Helvetica,sans-Serif" font-size="10.00">_Metric_Node</text>
</g>
<!-- Node2 -->
<g id="node2" class="node"><title>Node2</title>
<g id="a_node2"><a xlink:href="../../db/d8c/classCCCC__Xml__Stream.html#a806e737e00ee1ea36916b3d858660ebe" target="_top" xlink:title="CCCC_Xml_Stream::Project\l_Summary">
<polygon fill="white" stroke="black" points="174,-392.5 174,-422.5 321,-422.5 321,-392.5 174,-392.5"/>
<text text-anchor="start" x="182" y="-410.5" font-family="Helvetica,sans-Serif" font-size="10.00">CCCC_Xml_Stream::Project</text>
<text text-anchor="middle" x="247.5" y="-399.5" font-family="Helvetica,sans-Serif" font-size="10.00">_Summary</text>
</a>
</g>
</g>
<!-- Node1&#45;&gt;Node2 -->
<g id="edge1" class="edge"><title>Node1&#45;&gt;Node2</title>
<path fill="none" stroke="midnightblue" d="M73.1881,-236.359C86.0615,-273.853 115.549,-344.614 165,-383.5 169.406,-386.965 174.3,-389.93 179.439,-392.467"/>
<polygon fill="midnightblue" stroke="midnightblue" points="76.4622,-235.112 69.995,-226.72 69.8173,-237.313 76.4622,-235.112"/>
</g>
<!-- Node3 -->
<g id="node3" class="node"><title>Node3</title>
<g id="a_node3"><a xlink:href="../../db/d8c/classCCCC__Xml__Stream.html#a261ad7db353c63e8f2ecc43dd120c35b" target="_top" xlink:title="CCCC_Xml_Stream::OO\l_Design">
<polygon fill="white" stroke="black" points="182,-343.5 182,-373.5 313,-373.5 313,-343.5 182,-343.5"/>
<text text-anchor="start" x="190" y="-361.5" font-family="Helvetica,sans-Serif" font-size="10.00">CCCC_Xml_Stream::OO</text>
<text text-anchor="middle" x="247.5" y="-350.5" font-family="Helvetica,sans-Serif" font-size="10.00">_Design</text>
</a>
</g>
</g>
<!-- Node1&#45;&gt;Node3 -->
<g id="edge2" class="edge"><title>Node1&#45;&gt;Node3</title>
<path fill="none" stroke="midnightblue" d="M78.8144,-235.58C95.4294,-263.432 126.412,-308.747 165,-334.5 170.153,-337.939 175.809,-340.896 181.664,-343.435"/>
<polygon fill="midnightblue" stroke="midnightblue" points="81.794,-233.742 73.7403,-226.858 75.7433,-237.261 81.794,-233.742"/>
</g>
<!-- Node4 -->
<g id="node4" class="node"><title>Node4</title>
<g id="a_node4"><a xlink:href="../../db/d8c/classCCCC__Xml__Stream.html#af8659ea64595d693d4b3a78f2620b379" target="_top" xlink:title="CCCC_Xml_Stream::Procedural\l_Summary">
<polygon fill="white" stroke="black" points="165,-294.5 165,-324.5 330,-324.5 330,-294.5 165,-294.5"/>
<text text-anchor="start" x="173" y="-312.5" font-family="Helvetica,sans-Serif" font-size="10.00">CCCC_Xml_Stream::Procedural</text>
<text text-anchor="middle" x="247.5" y="-301.5" font-family="Helvetica,sans-Serif" font-size="10.00">_Summary</text>
</a>
</g>
</g>
<!-- Node1&#45;&gt;Node4 -->
<g id="edge3" class="edge"><title>Node1&#45;&gt;Node4</title>
<path fill="none" stroke="midnightblue" d="M89.545,-233.225C108.761,-249.596 137.022,-271.536 165,-285.5 171.731,-288.859 179.014,-291.833 186.363,-294.441"/>
<polygon fill="midnightblue" stroke="midnightblue" points="91.7393,-230.496 81.8905,-226.59 87.1542,-235.785 91.7393,-230.496"/>
</g>
<!-- Node5 -->
<g id="node5" class="node"><title>Node5</title>
<g id="a_node5"><a xlink:href="../../db/d8c/classCCCC__Xml__Stream.html#a8e9d1d8c0d2645f1af6df568e58cd175" target="_top" xlink:title="CCCC_Xml_Stream::Structural\l_Summary">
<polygon fill="white" stroke="black" points="168.5,-245.5 168.5,-275.5 326.5,-275.5 326.5,-245.5 168.5,-245.5"/>
<text text-anchor="start" x="176.5" y="-263.5" font-family="Helvetica,sans-Serif" font-size="10.00">CCCC_Xml_Stream::Structural</text>
<text text-anchor="middle" x="247.5" y="-252.5" font-family="Helvetica,sans-Serif" font-size="10.00">_Summary</text>
</a>
</g>
</g>
<!-- Node1&#45;&gt;Node5 -->
<g id="edge4" class="edge"><title>Node1&#45;&gt;Node5</title>
<path fill="none" stroke="midnightblue" d="M131.061,-229.248C150.677,-234.559 171.99,-240.329 190.901,-245.448"/>
<polygon fill="midnightblue" stroke="midnightblue" points="131.85,-225.836 121.283,-226.601 130.021,-232.593 131.85,-225.836"/>
</g>
<!-- Node6 -->
<g id="node6" class="node"><title>Node6</title>
<g id="a_node6"><a xlink:href="../../db/d8c/classCCCC__Xml__Stream.html#a0a4b9ede5f6f9f0e90c39abb78d93337" target="_top" xlink:title="CCCC_Xml_Stream::Other\l_Extents">
<polygon fill="white" stroke="black" points="177,-196.5 177,-226.5 318,-226.5 318,-196.5 177,-196.5"/>
<text text-anchor="start" x="185" y="-214.5" font-family="Helvetica,sans-Serif" font-size="10.00">CCCC_Xml_Stream::Other</text>
<text text-anchor="middle" x="247.5" y="-203.5" font-family="Helvetica,sans-Serif" font-size="10.00">_Extents</text>
</a>
</g>
</g>
<!-- Node1&#45;&gt;Node6 -->
<g id="edge5" class="edge"><title>Node1&#45;&gt;Node6</title>
<path fill="none" stroke="midnightblue" d="M139.365,-211.5C151.78,-211.5 164.627,-211.5 176.929,-211.5"/>
<polygon fill="midnightblue" stroke="midnightblue" points="139.059,-208 129.059,-211.5 139.059,-215 139.059,-208"/>
</g>
<!-- Node7 -->
<g id="node7" class="node"><title>Node7</title>
<g id="a_node7"><a xlink:href="../../db/d8c/classCCCC__Xml__Stream.html#a2cc4fe15afe69c43e523f2bcf2e676a5" target="_top" xlink:title="CCCC_Xml_Stream::Put\l_Metric_Node">
<polygon fill="white" stroke="black" points="183,-147.5 183,-177.5 312,-177.5 312,-147.5 183,-147.5"/>
<text text-anchor="start" x="191" y="-165.5" font-family="Helvetica,sans-Serif" font-size="10.00">CCCC_Xml_Stream::Put</text>
<text text-anchor="middle" x="247.5" y="-154.5" font-family="Helvetica,sans-Serif" font-size="10.00">_Metric_Node</text>
</a>
</g>
</g>
<!-- Node1&#45;&gt;Node7 -->
<g id="edge6" class="edge"><title>Node1&#45;&gt;Node7</title>
<path fill="none" stroke="midnightblue" d="M131.061,-193.752C150.677,-188.441 171.99,-182.671 190.901,-177.552"/>
<polygon fill="midnightblue" stroke="midnightblue" points="130.021,-190.407 121.283,-196.399 131.85,-197.164 130.021,-190.407"/>
</g>
<!-- Node8 -->
<g id="node8" class="node"><title>Node8</title>
<g id="a_node8"><a xlink:href="../../db/d8c/classCCCC__Xml__Stream.html#af9e90e1e9e3993019242ba50295f22ea" target="_top" xlink:title="CCCC_Xml_Stream::Module\l_Detail">
<polygon fill="white" stroke="black" points="173,-98.5 173,-128.5 322,-128.5 322,-98.5 173,-98.5"/>
<text text-anchor="start" x="181" y="-116.5" font-family="Helvetica,sans-Serif" font-size="10.00">CCCC_Xml_Stream::Module</text>
<text text-anchor="middle" x="247.5" y="-105.5" font-family="Helvetica,sans-Serif" font-size="10.00">_Detail</text>
</a>
</g>
</g>
<!-- Node1&#45;&gt;Node8 -->
<g id="edge7" class="edge"><title>Node1&#45;&gt;Node8</title>
<path fill="none" stroke="midnightblue" d="M89.988,-189.882C109.246,-173.822 137.356,-152.379 165,-138.5 172.407,-134.781 180.473,-131.493 188.556,-128.625"/>
<polygon fill="midnightblue" stroke="midnightblue" points="87.6672,-187.261 82.3036,-196.398 92.1943,-192.6 87.6672,-187.261"/>
</g>
<!-- Node9 -->
<g id="node9" class="node"><title>Node9</title>
<g id="a_node9"><a xlink:href="../../db/d8c/classCCCC__Xml__Stream.html#ad70e63452c8fb298b0627f20b40def10" target="_top" xlink:title="CCCC_Xml_Stream::Procedural\l_Detail">
<polygon fill="white" stroke="black" points="165,-49.5 165,-79.5 330,-79.5 330,-49.5 165,-49.5"/>
<text text-anchor="start" x="173" y="-67.5" font-family="Helvetica,sans-Serif" font-size="10.00">CCCC_Xml_Stream::Procedural</text>
<text text-anchor="middle" x="247.5" y="-56.5" font-family="Helvetica,sans-Serif" font-size="10.00">_Detail</text>
</a>
</g>
</g>
<!-- Node1&#45;&gt;Node9 -->
<g id="edge8" class="edge"><title>Node1&#45;&gt;Node9</title>
<path fill="none" stroke="midnightblue" d="M78.9125,-187.693C95.6217,-160.141 126.695,-115.266 165,-89.5 170.772,-85.6176 177.171,-82.3181 183.774,-79.5184"/>
<polygon fill="midnightblue" stroke="midnightblue" points="75.8881,-185.931 73.8069,-196.32 81.9122,-189.496 75.8881,-185.931"/>
</g>
<!-- Node10 -->
<g id="node10" class="node"><title>Node10</title>
<g id="a_node10"><a xlink:href="../../db/d8c/classCCCC__Xml__Stream.html#a86b2358b95c828fd96da2ba14ca458d0" target="_top" xlink:title="CCCC_Xml_Stream::Module\l_Summary">
<polygon fill="white" stroke="black" points="173,-0.5 173,-30.5 322,-30.5 322,-0.5 173,-0.5"/>
<text text-anchor="start" x="181" y="-18.5" font-family="Helvetica,sans-Serif" font-size="10.00">CCCC_Xml_Stream::Module</text>
<text text-anchor="middle" x="247.5" y="-7.5" font-family="Helvetica,sans-Serif" font-size="10.00">_Summary</text>
</a>
</g>
</g>
<!-- Node1&#45;&gt;Node10 -->
<g id="edge9" class="edge"><title>Node1&#45;&gt;Node10</title>
<path fill="none" stroke="midnightblue" d="M73.2836,-186.853C86.2828,-149.666 115.934,-79.4307 165,-40.5 169.869,-36.6364 175.335,-33.3677 181.069,-30.6025"/>
<polygon fill="midnightblue" stroke="midnightblue" points="69.9391,-185.818 70.0565,-196.412 76.5713,-188.057 69.9391,-185.818"/>
</g>
<!-- Node11 -->
<g id="node11" class="node"><title>Node11</title>
<g id="a_node11"><a xlink:href="../../db/d8c/classCCCC__Xml__Stream.html#a221dc496f3d46314b700c1a3bb6e5e5c" target="_top" xlink:title="CCCC_Xml_Stream::Separate\l_Modules">
<polygon fill="white" stroke="black" points="366,-0.5 366,-30.5 524,-30.5 524,-0.5 366,-0.5"/>
<text text-anchor="start" x="374" y="-18.5" font-family="Helvetica,sans-Serif" font-size="10.00">CCCC_Xml_Stream::Separate</text>
<text text-anchor="middle" x="445" y="-7.5" font-family="Helvetica,sans-Serif" font-size="10.00">_Modules</text>
</a>
</g>
</g>
<!-- Node10&#45;&gt;Node11 -->
<g id="edge10" class="edge"><title>Node10&#45;&gt;Node11</title>
<path fill="none" stroke="midnightblue" d="M332.281,-15.5C343.427,-15.5 354.821,-15.5 365.866,-15.5"/>
<polygon fill="midnightblue" stroke="midnightblue" points="332.132,-12.0001 322.132,-15.5 332.132,-19.0001 332.132,-12.0001"/>
</g>
</g>
</svg>
        <g id="navigator" transform="translate(0 0)" fill="#404254">
                <rect fill="#f2f5e9" fill-opacity="0.5" stroke="#606060" stroke-width=".5" x="0" y="0" width="60" height="60"/>
                <use id="zoomplus" xlink:href="#zoomPlus" x="17" y="9" onmousedown="handleZoom(evt,'in')"/>
                <use id="zoomminus" xlink:href="#zoomMin" x="42" y="9" onmousedown="handleZoom(evt,'out')"/>
                <use id="reset" xlink:href="#resetDef" x="30" y="36" onmousedown="handleReset()"/>
                <g id="arrowUp" xlink:href="#dirArrow" transform="translate(30 24)" onmousedown="handlePan(0,-1)">
                  <use xlink:href="#rim" fill="#404040">
                        <set attributeName="fill" to="#808080" begin="arrowUp.mouseover" end="arrowUp.mouseout"/>
                  </use>
                  <path fill="none" stroke="white" stroke-width="1.5" d="M0,-3.0v7 M-2.5,-0.5L0,-3.0L2.5,-0.5"/>
                </g>
                <g id="arrowRight" xlink:href="#dirArrow" transform="rotate(90) translate(36 -43)" onmousedown="handlePan(1,0)">
                  <use xlink:href="#rim" fill="#404040">
                        <set attributeName="fill" to="#808080" begin="arrowRight.mouseover" end="arrowRight.mouseout"/>
                  </use>
                  <path fill="none" stroke="white" stroke-width="1.5" d="M0,-3.0v7 M-2.5,-0.5L0,-3.0L2.5,-0.5"/>
                </g>
                <g id="arrowDown" xlink:href="#dirArrow" transform="rotate(180) translate(-30 -48)" onmousedown="handlePan(0,1)">
                  <use xlink:href="#rim" fill="#404040">
                        <set attributeName="fill" to="#808080" begin="arrowDown.mouseover" end="arrowDown.mouseout"/>
                  </use>
                  <path fill="none" stroke="white" stroke-width="1.5" d="M0,-3.0v7 M-2.5,-0.5L0,-3.0L2.5,-0.5"/>
                </g>
                <g id="arrowLeft" xlink:href="#dirArrow" transform="rotate(270) translate(-36 17)" onmousedown="handlePan(-1,0)">
                  <use xlink:href="#rim" fill="#404040">
                        <set attributeName="fill" to="#808080" begin="arrowLeft.mouseover" end="arrowLeft.mouseout"/>
                  </use>
                  <path fill="none" stroke="white" stroke-width="1.5" d="M0,-3.0v7 M-2.5,-0.5L0,-3.0L2.5,-0.5"/>
                </g>
        </g>
        <svg viewBox="0 0 15 15" width="100%" height="30px" preserveAspectRatio="xMaxYMin meet">
         <g id="arrow_out" transform="scale(0.3 0.3)">
          <a xlink:href="classCCCC__Xml__Stream_a618ba6784d7300949e73cf61693d4388_icgraph_org.svg" target="_base">
           <rect id="button" ry="5" rx="5" y="6" x="6" height="38" width="38"
                fill="#f2f5e9" fill-opacity="0.5" stroke="#606060" stroke-width="1.0"/>
           <path id="arrow"
             d="M 11.500037,31.436501 C 11.940474,20.09759 22.043105,11.32322 32.158766,21.979434 L 37.068811,17.246167 C 37.068811,17.246167 37.088388,32 37.088388,32 L 22.160133,31.978069 C 22.160133,31.978069 26.997745,27.140456 26.997745,27.140456 C 18.528582,18.264221 13.291696,25.230495 11.500037,31.436501 z"
             style="fill:#404040;"/>
          </a>
         </g>
        </svg>
</svg>
