<?xml version="1.0" encoding="UTF-8" standalone="no"?>
<!DOCTYPE svg PUBLIC "-//W3C//DTD SVG 1.1//EN"
 "http://www.w3.org/Graphics/SVG/1.1/DTD/svg11.dtd">
<!-- Generated by graphviz version 2.38.0 (20140413.2041)
 -->
<!-- Title: CCCC_Xml_Stream::Procedural_Summary Pages: 1 -->
<svg width="831pt" height="339pt"
 viewBox="0.00 0.00 831.00 338.78" xmlns="http://www.w3.org/2000/svg" xmlns:xlink="http://www.w3.org/1999/xlink">
<g id="graph0" class="graph" transform="scale(1 1) rotate(0) translate(4 334.779)">
<title>CCCC_Xml_Stream::Procedural_Summary</title>
<polygon fill="white" stroke="none" points="-4,4 -4,-334.779 827,-334.779 827,4 -4,4"/>
<!-- Node1 -->
<g id="node1" class="node"><title>Node1</title>
<polygon fill="#bfbfbf" stroke="black" points="0,-149.5 0,-179.5 165,-179.5 165,-149.5 0,-149.5"/>
<text text-anchor="start" x="8" y="-167.5" font-family="Helvetica,sans-Serif" font-size="10.00">CCCC_Xml_Stream::Procedural</text>
<text text-anchor="middle" x="82.5" y="-156.5" font-family="Helvetica,sans-Serif" font-size="10.00">_Summary</text>
</g>
<!-- Node2 -->
<g id="node2" class="node"><title>Node2</title>
<g id="a_node2"><a xlink:href="../../d8/dcf/classCCCC__Table.html#a0d099c7bc984323270cc8c63d5ff8379" target="_top" xlink:title="CCCC_Table::first_item">
<polygon fill="white" stroke="black" points="546.5,-309 546.5,-328 672.5,-328 672.5,-309 546.5,-309"/>
<text text-anchor="middle" x="609.5" y="-316" font-family="Helvetica,sans-Serif" font-size="10.00">CCCC_Table::first_item</text>
</a>
</g>
</g>
<!-- Node1&#45;&gt;Node2 -->
<g id="edge1" class="edge"><title>Node1&#45;&gt;Node2</title>
<path fill="none" stroke="midnightblue" d="M94.1938,-179.677C112.796,-204.824 153.681,-254.803 201,-279.5 307.556,-335.115 451.175,-334.268 536.379,-327.289"/>
<polygon fill="midnightblue" stroke="midnightblue" points="536.815,-330.764 546.474,-326.41 536.208,-323.79 536.815,-330.764"/>
</g>
<!-- Node3 -->
<g id="node3" class="node"><title>Node3</title>
<g id="a_node3"><a xlink:href="../../d6/d9f/classCCCC__Module.html#a2e35b964b59e60393b2af32dd537f505" target="_top" xlink:title="CCCC_Module::is_trivial">
<polygon fill="white" stroke="black" points="377,-50 377,-69 507,-69 507,-50 377,-50"/>
<text text-anchor="middle" x="442" y="-57" font-family="Helvetica,sans-Serif" font-size="10.00">CCCC_Module::is_trivial</text>
</a>
</g>
</g>
<!-- Node1&#45;&gt;Node3 -->
<g id="edge2" class="edge"><title>Node1&#45;&gt;Node3</title>
<path fill="none" stroke="midnightblue" d="M165.056,-150.475C227.766,-138.92 308.648,-122.117 339,-107.5 357.511,-98.5854 356.769,-87.9731 375,-78.5 379.335,-76.2476 383.972,-74.2296 388.705,-72.4285"/>
<polygon fill="midnightblue" stroke="midnightblue" points="390.188,-75.6185 398.486,-69.0308 387.891,-69.0061 390.188,-75.6185"/>
</g>
<!-- Node4 -->
<g id="node4" class="node"><title>Node4</title>
<g id="a_node4"><a xlink:href="../../db/d8c/classCCCC__Xml__Stream.html#a5857c6d4a204a15b65a411301e2caf57" target="_top" xlink:title="CCCC_Xml_Stream::Put\l_Label_Node">
<polygon fill="white" stroke="black" points="205.5,-240.5 205.5,-270.5 334.5,-270.5 334.5,-240.5 205.5,-240.5"/>
<text text-anchor="start" x="213.5" y="-258.5" font-family="Helvetica,sans-Serif" font-size="10.00">CCCC_Xml_Stream::Put</text>
<text text-anchor="middle" x="270" y="-247.5" font-family="Helvetica,sans-Serif" font-size="10.00">_Label_Node</text>
</a>
</g>
</g>
<!-- Node1&#45;&gt;Node4 -->
<g id="edge3" class="edge"><title>Node1&#45;&gt;Node4</title>
<path fill="none" stroke="midnightblue" d="M111.263,-179.546C134.916,-192.211 169.913,-210.592 201,-225.5 208.444,-229.07 216.415,-232.73 224.185,-236.211"/>
<polygon fill="midnightblue" stroke="midnightblue" points="222.953,-239.493 233.513,-240.351 225.792,-233.095 222.953,-239.493"/>
</g>
<!-- Node8 -->
<g id="node8" class="node"><title>Node8</title>
<g id="a_node8"><a xlink:href="../../d8/dcf/classCCCC__Table.html#a080274070f7d48b68bd8d3291818d76f" target="_top" xlink:title="CCCC_Table::next_item">
<polygon fill="white" stroke="black" points="545,-183 545,-202 674,-202 674,-183 545,-183"/>
<text text-anchor="middle" x="609.5" y="-190" font-family="Helvetica,sans-Serif" font-size="10.00">CCCC_Table::next_item</text>
</a>
</g>
</g>
<!-- Node1&#45;&gt;Node8 -->
<g id="edge20" class="edge"><title>Node1&#45;&gt;Node8</title>
<path fill="none" stroke="midnightblue" d="M165.211,-178.821C177.187,-180.597 189.394,-182.232 201,-183.5 317.031,-196.181 452.712,-196.257 534.552,-194.707"/>
<polygon fill="midnightblue" stroke="midnightblue" points="534.824,-198.202 544.751,-194.5 534.682,-191.204 534.824,-198.202"/>
</g>
<!-- Node9 -->
<g id="node9" class="node"><title>Node9</title>
<g id="a_node9"><a xlink:href="../../d6/d9f/classCCCC__Module.html#adea7213358d5e1f9119c70cbbb99f287" target="_top" xlink:title="CCCC_Module::name">
<polygon fill="white" stroke="black" points="211,-79 211,-98 329,-98 329,-79 211,-79"/>
<text text-anchor="middle" x="270" y="-86" font-family="Helvetica,sans-Serif" font-size="10.00">CCCC_Module::name</text>
</a>
</g>
</g>
<!-- Node1&#45;&gt;Node9 -->
<g id="edge10" class="edge"><title>Node1&#45;&gt;Node9</title>
<path fill="none" stroke="midnightblue" d="M115.633,-149.474C139.091,-138.703 171.766,-124.107 201,-112.5 210.599,-108.688 221.074,-104.841 230.862,-101.377"/>
<polygon fill="midnightblue" stroke="midnightblue" points="232.079,-104.659 240.364,-98.0557 229.77,-98.0511 232.079,-104.659"/>
</g>
<!-- Node10 -->
<g id="node10" class="node"><title>Node10</title>
<g id="a_node10"><a xlink:href="../../d6/d9f/classCCCC__Module.html#ad1f26ab257c41657302b5c7b0253b034" target="_top" xlink:title="CCCC_Module::get_count">
<polygon fill="white" stroke="black" points="201,-155 201,-174 339,-174 339,-155 201,-155"/>
<text text-anchor="middle" x="270" y="-162" font-family="Helvetica,sans-Serif" font-size="10.00">CCCC_Module::get_count</text>
</a>
</g>
</g>
<!-- Node1&#45;&gt;Node10 -->
<g id="edge11" class="edge"><title>Node1&#45;&gt;Node10</title>
<path fill="none" stroke="midnightblue" d="M165.133,-164.5C173.633,-164.5 182.259,-164.5 190.721,-164.5"/>
<polygon fill="midnightblue" stroke="midnightblue" points="190.94,-168 200.94,-164.5 190.94,-161 190.94,-168"/>
</g>
<!-- Node14 -->
<g id="node14" class="node"><title>Node14</title>
<g id="a_node14"><a xlink:href="../../db/d8c/classCCCC__Xml__Stream.html#a618ba6784d7300949e73cf61693d4388" target="_top" xlink:title="CCCC_Xml_Stream::Put\l_Metric_Node">
<polygon fill="white" stroke="black" points="205.5,-10.5 205.5,-40.5 334.5,-40.5 334.5,-10.5 205.5,-10.5"/>
<text text-anchor="start" x="213.5" y="-28.5" font-family="Helvetica,sans-Serif" font-size="10.00">CCCC_Xml_Stream::Put</text>
<text text-anchor="middle" x="270" y="-17.5" font-family="Helvetica,sans-Serif" font-size="10.00">_Metric_Node</text>
</a>
</g>
</g>
<!-- Node1&#45;&gt;Node14 -->
<g id="edge18" class="edge"><title>Node1&#45;&gt;Node14</title>
<path fill="none" stroke="midnightblue" d="M100.956,-149.415C123.512,-130.153 164.252,-96.1307 201,-69.5 212.051,-61.4917 224.496,-53.2314 235.69,-46.0613"/>
<polygon fill="midnightblue" stroke="midnightblue" points="237.778,-48.8816 244.349,-40.5703 234.029,-42.97 237.778,-48.8816"/>
</g>
<!-- Node5 -->
<g id="node5" class="node"><title>Node5</title>
<g id="a_node5"><a xlink:href="../../db/d8c/classCCCC__Xml__Stream.html#a8d4f164a7fe732e7627a5fc81ffd8ef9" target="_top" xlink:title="CCCC_Xml_Stream::Put\l_Extent_List">
<polygon fill="white" stroke="black" points="377.5,-240.5 377.5,-270.5 506.5,-270.5 506.5,-240.5 377.5,-240.5"/>
<text text-anchor="start" x="385.5" y="-258.5" font-family="Helvetica,sans-Serif" font-size="10.00">CCCC_Xml_Stream::Put</text>
<text text-anchor="middle" x="442" y="-247.5" font-family="Helvetica,sans-Serif" font-size="10.00">_Extent_List</text>
</a>
</g>
</g>
<!-- Node4&#45;&gt;Node5 -->
<g id="edge4" class="edge"><title>Node4&#45;&gt;Node5</title>
<path fill="none" stroke="midnightblue" d="M334.785,-255.5C345.352,-255.5 356.386,-255.5 367.176,-255.5"/>
<polygon fill="midnightblue" stroke="midnightblue" points="367.423,-259 377.423,-255.5 367.422,-252 367.423,-259"/>
</g>
<!-- Node5&#45;&gt;Node2 -->
<g id="edge5" class="edge"><title>Node5&#45;&gt;Node2</title>
<path fill="none" stroke="midnightblue" d="M482.22,-270.536C501.179,-277.794 524.266,-286.618 545,-294.5 554.321,-298.043 564.417,-301.866 573.757,-305.397"/>
<polygon fill="midnightblue" stroke="midnightblue" points="572.562,-308.686 583.154,-308.946 575.036,-302.138 572.562,-308.686"/>
</g>
<!-- Node6 -->
<g id="node6" class="node"><title>Node6</title>
<g id="a_node6"><a xlink:href="../../df/d99/classCCCC__Extent.html#aafc68f063b7e7635471d1d0f7d5bca70" target="_top" xlink:title="CCCC_Extent::name">
<polygon fill="white" stroke="black" points="710,-249 710,-268 823,-268 823,-249 710,-249"/>
<text text-anchor="middle" x="766.5" y="-256" font-family="Helvetica,sans-Serif" font-size="10.00">CCCC_Extent::name</text>
</a>
</g>
</g>
<!-- Node5&#45;&gt;Node6 -->
<g id="edge6" class="edge"><title>Node5&#45;&gt;Node6</title>
<path fill="none" stroke="midnightblue" d="M506.643,-259.102C519.345,-259.685 532.593,-260.196 545,-260.5 602.316,-261.904 616.67,-261.126 674,-260.5 682.336,-260.409 691.099,-260.271 699.763,-260.11"/>
<polygon fill="midnightblue" stroke="midnightblue" points="699.929,-263.607 709.858,-259.911 699.791,-256.609 699.929,-263.607"/>
</g>
<!-- Node7 -->
<g id="node7" class="node"><title>Node7</title>
<g id="a_node7"><a xlink:href="../../db/d8c/classCCCC__Xml__Stream.html#a4dbcc8c8a21c10b8b3b942137aead5e0" target="_top" xlink:title="CCCC_Xml_Stream::Put\l_Extent_URL">
<polygon fill="white" stroke="black" points="545,-221.5 545,-251.5 674,-251.5 674,-221.5 545,-221.5"/>
<text text-anchor="start" x="553" y="-239.5" font-family="Helvetica,sans-Serif" font-size="10.00">CCCC_Xml_Stream::Put</text>
<text text-anchor="middle" x="609.5" y="-228.5" font-family="Helvetica,sans-Serif" font-size="10.00">_Extent_URL</text>
</a>
</g>
</g>
<!-- Node5&#45;&gt;Node7 -->
<g id="edge7" class="edge"><title>Node5&#45;&gt;Node7</title>
<path fill="none" stroke="midnightblue" d="M506.513,-248.208C515.751,-247.148 525.328,-246.048 534.747,-244.967"/>
<polygon fill="midnightblue" stroke="midnightblue" points="535.348,-248.421 544.883,-243.803 534.549,-241.467 535.348,-248.421"/>
</g>
<!-- Node5&#45;&gt;Node8 -->
<g id="edge9" class="edge"><title>Node5&#45;&gt;Node8</title>
<path fill="none" stroke="midnightblue" d="M475.226,-240.453C495.106,-231.458 521.259,-220.139 545,-211.5 551.103,-209.279 557.601,-207.114 564.024,-205.088"/>
<polygon fill="midnightblue" stroke="midnightblue" points="565.453,-208.311 573.987,-202.031 563.4,-201.619 565.453,-208.311"/>
</g>
<!-- Node7&#45;&gt;Node6 -->
<g id="edge8" class="edge"><title>Node7&#45;&gt;Node6</title>
<path fill="none" stroke="midnightblue" d="M674.439,-245.575C682.739,-246.753 691.254,-247.962 699.585,-249.144"/>
<polygon fill="midnightblue" stroke="midnightblue" points="699.238,-252.63 709.63,-250.57 700.222,-245.7 699.238,-252.63"/>
</g>
<!-- Node10&#45;&gt;Node2 -->
<g id="edge15" class="edge"><title>Node10&#45;&gt;Node2</title>
<path fill="none" stroke="midnightblue" d="M282.153,-174.265C296.101,-186.709 320.406,-209.17 339,-230.5 356.757,-250.87 351.981,-265.345 375,-279.5 423.292,-309.197 487.334,-318.214 536.133,-320.215"/>
<polygon fill="midnightblue" stroke="midnightblue" points="536.197,-323.718 546.304,-320.54 536.421,-316.722 536.197,-323.718"/>
</g>
<!-- Node10&#45;&gt;Node3 -->
<g id="edge12" class="edge"><title>Node10&#45;&gt;Node3</title>
<path fill="none" stroke="midnightblue" d="M312.649,-154.997C321.994,-151.512 331.385,-146.811 339,-140.5 363.534,-120.168 349.877,-98.0995 375,-78.5 377.336,-76.6779 379.839,-75.0305 382.457,-73.5411"/>
<polygon fill="midnightblue" stroke="midnightblue" points="384.238,-76.5677 391.715,-69.0613 381.189,-70.2667 384.238,-76.5677"/>
</g>
<!-- Node10&#45;&gt;Node8 -->
<g id="edge17" class="edge"><title>Node10&#45;&gt;Node8</title>
<path fill="none" stroke="midnightblue" d="M339.298,-170.166C395.99,-174.87 476.464,-181.546 534.642,-186.373"/>
<polygon fill="midnightblue" stroke="midnightblue" points="534.615,-189.882 544.87,-187.221 535.194,-182.906 534.615,-189.882"/>
</g>
<!-- Node11 -->
<g id="node11" class="node"><title>Node11</title>
<g id="a_node11"><a xlink:href="../../d6/d85/classCCCC__Record.html#a81bf0541981287180a41e3d801e7a084" target="_top" xlink:title="CCCC_Record::key">
<polygon fill="white" stroke="black" points="388,-126 388,-145 496,-145 496,-126 388,-126"/>
<text text-anchor="middle" x="442" y="-133" font-family="Helvetica,sans-Serif" font-size="10.00">CCCC_Record::key</text>
</a>
</g>
</g>
<!-- Node10&#45;&gt;Node11 -->
<g id="edge13" class="edge"><title>Node10&#45;&gt;Node11</title>
<path fill="none" stroke="midnightblue" d="M327.135,-154.924C343.314,-152.164 361.075,-149.134 377.658,-146.305"/>
<polygon fill="midnightblue" stroke="midnightblue" points="378.538,-149.706 387.807,-144.574 377.36,-142.806 378.538,-149.706"/>
</g>
<!-- Node13 -->
<g id="node13" class="node"><title>Node13</title>
<g id="a_node13"><a xlink:href="../../df/d99/classCCCC__Extent.html#aa6094d7370a45e8e7237fd25289e99bb" target="_top" xlink:title="CCCC_Extent::get_count">
<polygon fill="white" stroke="black" points="375,-88 375,-107 509,-107 509,-88 375,-88"/>
<text text-anchor="middle" x="442" y="-95" font-family="Helvetica,sans-Serif" font-size="10.00">CCCC_Extent::get_count</text>
</a>
</g>
</g>
<!-- Node10&#45;&gt;Node13 -->
<g id="edge16" class="edge"><title>Node10&#45;&gt;Node13</title>
<path fill="none" stroke="midnightblue" d="M303.16,-154.978C314.72,-151.083 327.69,-146.155 339,-140.5 356.199,-131.9 357.554,-124.589 375,-116.5 380.003,-114.18 385.353,-112.079 390.76,-110.192"/>
<polygon fill="midnightblue" stroke="midnightblue" points="392.066,-113.448 400.494,-107.027 389.902,-106.791 392.066,-113.448"/>
</g>
<!-- Node12 -->
<g id="node12" class="node"><title>Node12</title>
<g id="a_node12"><a xlink:href="../../d6/d85/classCCCC__Record.html#a03c15972bea5df4e34930fa4c34e34bd" target="_top" xlink:title="CCCC_Record::name">
<polygon fill="white" stroke="black" points="550.5,-126 550.5,-145 668.5,-145 668.5,-126 550.5,-126"/>
<text text-anchor="middle" x="609.5" y="-133" font-family="Helvetica,sans-Serif" font-size="10.00">CCCC_Record::name</text>
</a>
</g>
</g>
<!-- Node11&#45;&gt;Node12 -->
<g id="edge14" class="edge"><title>Node11&#45;&gt;Node12</title>
<path fill="none" stroke="midnightblue" d="M496.276,-135.5C510.326,-135.5 525.68,-135.5 540.396,-135.5"/>
<polygon fill="midnightblue" stroke="midnightblue" points="540.458,-139 550.458,-135.5 540.458,-132 540.458,-139"/>
</g>
<!-- Node15 -->
<g id="node15" class="node"><title>Node15</title>
<g id="a_node15"><a xlink:href="../../dd/d72/classCCCC__Metric.html#a4388127897cc2c1de762a9689b913c0d" target="_top" xlink:title="CCCC_Metric::emphasis\l_level">
<polygon fill="white" stroke="black" points="376.5,-0.5 376.5,-30.5 507.5,-30.5 507.5,-0.5 376.5,-0.5"/>
<text text-anchor="start" x="384.5" y="-18.5" font-family="Helvetica,sans-Serif" font-size="10.00">CCCC_Metric::emphasis</text>
<text text-anchor="middle" x="442" y="-7.5" font-family="Helvetica,sans-Serif" font-size="10.00">_level</text>
</a>
</g>
</g>
<!-- Node14&#45;&gt;Node15 -->
<g id="edge19" class="edge"><title>Node14&#45;&gt;Node15</title>
<path fill="none" stroke="midnightblue" d="M334.785,-21.7479C345.067,-21.1431 355.79,-20.5123 366.301,-19.8941"/>
<polygon fill="midnightblue" stroke="midnightblue" points="366.514,-23.3877 376.291,-19.3064 366.103,-16.3998 366.514,-23.3877"/>
</g>
</g>
</svg>
