<?xml version="1.0" encoding="UTF-8" standalone="no"?>
<!DOCTYPE svg PUBLIC "-//W3C//DTD SVG 1.1//EN"
 "http://www.w3.org/Graphics/SVG/1.1/DTD/svg11.dtd">
<!-- Generated by graphviz version 2.38.0 (20140413.2041)
 -->
<!-- Title: CCCC_Xml_Stream::Put_Label_Node Pages: 1 -->
<svg width="616pt" height="154pt"
 viewBox="0.00 0.00 616.00 154.00" xmlns="http://www.w3.org/2000/svg" xmlns:xlink="http://www.w3.org/1999/xlink">
<g id="graph0" class="graph" transform="scale(1 1) rotate(0) translate(4 150)">
<title>CCCC_Xml_Stream::Put_Label_Node</title>
<polygon fill="white" stroke="none" points="-4,4 -4,-150 612,-150 612,4 -4,4"/>
<!-- Node1 -->
<g id="node1" class="node"><title>Node1</title>
<polygon fill="#bfbfbf" stroke="black" points="0,-61 0,-91 129,-91 129,-61 0,-61"/>
<text text-anchor="start" x="8" y="-79" font-family="Helvetica,sans-Serif" font-size="10.00">CCCC_Xml_Stream::Put</text>
<text text-anchor="middle" x="64.5" y="-68" font-family="Helvetica,sans-Serif" font-size="10.00">_Label_Node</text>
</g>
<!-- Node2 -->
<g id="node2" class="node"><title>Node2</title>
<g id="a_node2"><a xlink:href="../../db/d8c/classCCCC__Xml__Stream.html#a8d4f164a7fe732e7627a5fc81ffd8ef9" target="_top" xlink:title="CCCC_Xml_Stream::Put\l_Extent_List">
<polygon fill="white" stroke="black" points="165,-61 165,-91 294,-91 294,-61 165,-61"/>
<text text-anchor="start" x="173" y="-79" font-family="Helvetica,sans-Serif" font-size="10.00">CCCC_Xml_Stream::Put</text>
<text text-anchor="middle" x="229.5" y="-68" font-family="Helvetica,sans-Serif" font-size="10.00">_Extent_List</text>
</a>
</g>
</g>
<!-- Node1&#45;&gt;Node2 -->
<g id="edge1" class="edge"><title>Node1&#45;&gt;Node2</title>
<path fill="none" stroke="midnightblue" d="M129.454,-76C137.761,-76 146.322,-76 154.772,-76"/>
<polygon fill="midnightblue" stroke="midnightblue" points="154.998,-79.5001 164.998,-76 154.998,-72.5001 154.998,-79.5001"/>
</g>
<!-- Node3 -->
<g id="node3" class="node"><title>Node3</title>
<g id="a_node3"><a xlink:href="../../d8/dcf/classCCCC__Table.html#a0d099c7bc984323270cc8c63d5ff8379" target="_top" xlink:title="CCCC_Table::first_item">
<polygon fill="white" stroke="black" points="331.5,-126.5 331.5,-145.5 457.5,-145.5 457.5,-126.5 331.5,-126.5"/>
<text text-anchor="middle" x="394.5" y="-133.5" font-family="Helvetica,sans-Serif" font-size="10.00">CCCC_Table::first_item</text>
</a>
</g>
</g>
<!-- Node2&#45;&gt;Node3 -->
<g id="edge2" class="edge"><title>Node2&#45;&gt;Node3</title>
<path fill="none" stroke="midnightblue" d="M271.632,-91.1405C298.275,-100.948 332.618,-113.589 358.053,-122.952"/>
<polygon fill="midnightblue" stroke="midnightblue" points="357.079,-126.323 367.672,-126.493 359.497,-119.754 357.079,-126.323"/>
</g>
<!-- Node4 -->
<g id="node4" class="node"><title>Node4</title>
<g id="a_node4"><a xlink:href="../../df/d99/classCCCC__Extent.html#aafc68f063b7e7635471d1d0f7d5bca70" target="_top" xlink:title="CCCC_Extent::name">
<polygon fill="white" stroke="black" points="495,-66.5 495,-85.5 608,-85.5 608,-66.5 495,-66.5"/>
<text text-anchor="middle" x="551.5" y="-73.5" font-family="Helvetica,sans-Serif" font-size="10.00">CCCC_Extent::name</text>
</a>
</g>
</g>
<!-- Node2&#45;&gt;Node4 -->
<g id="edge3" class="edge"><title>Node2&#45;&gt;Node4</title>
<path fill="none" stroke="midnightblue" d="M294.19,-78.2058C306.089,-78.5369 318.422,-78.8255 330,-79 387.327,-79.864 401.674,-79.9395 459,-79 467.338,-78.8633 476.102,-78.6567 484.767,-78.4145"/>
<polygon fill="midnightblue" stroke="midnightblue" points="484.97,-81.9101 494.862,-78.1158 484.763,-74.9131 484.97,-81.9101"/>
</g>
<!-- Node5 -->
<g id="node5" class="node"><title>Node5</title>
<g id="a_node5"><a xlink:href="../../db/d8c/classCCCC__Xml__Stream.html#a4dbcc8c8a21c10b8b3b942137aead5e0" target="_top" xlink:title="CCCC_Xml_Stream::Put\l_Extent_URL">
<polygon fill="white" stroke="black" points="330,-39 330,-69 459,-69 459,-39 330,-39"/>
<text text-anchor="start" x="338" y="-57" font-family="Helvetica,sans-Serif" font-size="10.00">CCCC_Xml_Stream::Put</text>
<text text-anchor="middle" x="394.5" y="-46" font-family="Helvetica,sans-Serif" font-size="10.00">_Extent_URL</text>
</a>
</g>
</g>
<!-- Node2&#45;&gt;Node5 -->
<g id="edge4" class="edge"><title>Node2&#45;&gt;Node5</title>
<path fill="none" stroke="midnightblue" d="M294.454,-67.3682C302.852,-66.2347 311.511,-65.066 320.05,-63.9135"/>
<polygon fill="midnightblue" stroke="midnightblue" points="320.556,-67.3771 329.998,-62.5709 319.619,-60.44 320.556,-67.3771"/>
</g>
<!-- Node6 -->
<g id="node6" class="node"><title>Node6</title>
<g id="a_node6"><a xlink:href="../../d8/dcf/classCCCC__Table.html#a080274070f7d48b68bd8d3291818d76f" target="_top" xlink:title="CCCC_Table::next_item">
<polygon fill="white" stroke="black" points="330,-0.5 330,-19.5 459,-19.5 459,-0.5 330,-0.5"/>
<text text-anchor="middle" x="394.5" y="-7.5" font-family="Helvetica,sans-Serif" font-size="10.00">CCCC_Table::next_item</text>
</a>
</g>
</g>
<!-- Node2&#45;&gt;Node6 -->
<g id="edge6" class="edge"><title>Node2&#45;&gt;Node6</title>
<path fill="none" stroke="midnightblue" d="M260.549,-60.8843C280.069,-51.3721 306.216,-39.2 330,-30 336.518,-27.4786 343.5,-25.0325 350.363,-22.7667"/>
<polygon fill="midnightblue" stroke="midnightblue" points="351.813,-25.9773 360.265,-19.5885 349.674,-19.3123 351.813,-25.9773"/>
</g>
<!-- Node5&#45;&gt;Node4 -->
<g id="edge5" class="edge"><title>Node5&#45;&gt;Node4</title>
<path fill="none" stroke="midnightblue" d="M459.439,-63.0753C467.739,-64.2533 476.254,-65.4618 484.585,-66.6443"/>
<polygon fill="midnightblue" stroke="midnightblue" points="484.238,-70.13 494.63,-68.0701 485.222,-63.1995 484.238,-70.13"/>
</g>
</g>
</svg>
